G04 #@! TF.GenerationSoftware,KiCad,Pcbnew,(5.0.1-3-g963ef8bb5)*
G04 #@! TF.CreationDate,2019-02-28T22:02:17+01:00*
G04 #@! TF.ProjectId,TLM-breakout-v1,544C4D2D627265616B6F75742D76312E,1.0*
G04 #@! TF.SameCoordinates,Original*
G04 #@! TF.FileFunction,Soldermask,Bot*
G04 #@! TF.FilePolarity,Negative*
%FSLAX46Y46*%
G04 Gerber Fmt 4.6, Leading zero omitted, Abs format (unit mm)*
G04 Created by KiCad (PCBNEW (5.0.1-3-g963ef8bb5)) date 2019 February 28, Thursday 22:02:17*
%MOMM*%
%LPD*%
G01*
G04 APERTURE LIST*
%ADD10C,0.100000*%
G04 APERTURE END LIST*
D10*
G36*
X139516000Y-119391000D02*
X137914000Y-119391000D01*
X137914000Y-114589000D01*
X139516000Y-114589000D01*
X139516000Y-119391000D01*
X139516000Y-119391000D01*
G37*
G36*
X133791000Y-119391000D02*
X132339000Y-119391000D01*
X132339000Y-114589000D01*
X133791000Y-114589000D01*
X133791000Y-119391000D01*
X133791000Y-119391000D01*
G37*
G36*
X127300250Y-115548843D02*
X127385322Y-115565765D01*
X127455735Y-115594931D01*
X127625728Y-115665344D01*
X127842092Y-115809914D01*
X128026086Y-115993908D01*
X128170656Y-116210272D01*
X128270235Y-116450679D01*
X128321000Y-116705891D01*
X128321000Y-116966109D01*
X128270235Y-117221321D01*
X128170656Y-117461728D01*
X128026086Y-117678092D01*
X127842092Y-117862086D01*
X127625728Y-118006656D01*
X127455735Y-118077069D01*
X127385322Y-118106235D01*
X127300250Y-118123157D01*
X127130109Y-118157000D01*
X126869891Y-118157000D01*
X126699750Y-118123157D01*
X126614678Y-118106235D01*
X126544265Y-118077069D01*
X126374272Y-118006656D01*
X126157908Y-117862086D01*
X125973914Y-117678092D01*
X125829344Y-117461728D01*
X125729765Y-117221321D01*
X125679000Y-116966109D01*
X125679000Y-116705891D01*
X125729765Y-116450679D01*
X125829344Y-116210272D01*
X125973914Y-115993908D01*
X126157908Y-115809914D01*
X126374272Y-115665344D01*
X126544265Y-115594931D01*
X126614678Y-115565765D01*
X126699750Y-115548843D01*
X126869891Y-115515000D01*
X127130109Y-115515000D01*
X127300250Y-115548843D01*
X127300250Y-115548843D01*
G37*
G36*
X145080250Y-115548843D02*
X145165322Y-115565765D01*
X145235735Y-115594931D01*
X145405728Y-115665344D01*
X145622092Y-115809914D01*
X145806086Y-115993908D01*
X145950656Y-116210272D01*
X146050235Y-116450679D01*
X146101000Y-116705891D01*
X146101000Y-116966109D01*
X146050235Y-117221321D01*
X145950656Y-117461728D01*
X145806086Y-117678092D01*
X145622092Y-117862086D01*
X145405728Y-118006656D01*
X145235735Y-118077069D01*
X145165322Y-118106235D01*
X145080250Y-118123157D01*
X144910109Y-118157000D01*
X144649891Y-118157000D01*
X144479750Y-118123157D01*
X144394678Y-118106235D01*
X144324265Y-118077069D01*
X144154272Y-118006656D01*
X143937908Y-117862086D01*
X143753914Y-117678092D01*
X143609344Y-117461728D01*
X143509765Y-117221321D01*
X143459000Y-116966109D01*
X143459000Y-116705891D01*
X143509765Y-116450679D01*
X143609344Y-116210272D01*
X143753914Y-115993908D01*
X143937908Y-115809914D01*
X144154272Y-115665344D01*
X144324265Y-115594931D01*
X144394678Y-115565765D01*
X144479750Y-115548843D01*
X144649891Y-115515000D01*
X144910109Y-115515000D01*
X145080250Y-115548843D01*
X145080250Y-115548843D01*
G37*
G36*
X146160443Y-112131519D02*
X146226627Y-112138037D01*
X146339853Y-112172384D01*
X146396467Y-112189557D01*
X146535087Y-112263652D01*
X146552991Y-112273222D01*
X146588729Y-112302552D01*
X146690186Y-112385814D01*
X146773448Y-112487271D01*
X146802778Y-112523009D01*
X146802779Y-112523011D01*
X146886443Y-112679533D01*
X146886443Y-112679534D01*
X146937963Y-112849373D01*
X146955359Y-113026000D01*
X146937963Y-113202627D01*
X146903616Y-113315853D01*
X146886443Y-113372467D01*
X146812348Y-113511087D01*
X146802778Y-113528991D01*
X146773448Y-113564729D01*
X146690186Y-113666186D01*
X146588729Y-113749448D01*
X146552991Y-113778778D01*
X146552989Y-113778779D01*
X146396467Y-113862443D01*
X146339853Y-113879616D01*
X146226627Y-113913963D01*
X146160443Y-113920481D01*
X146094260Y-113927000D01*
X146005740Y-113927000D01*
X145939557Y-113920481D01*
X145873373Y-113913963D01*
X145760147Y-113879616D01*
X145703533Y-113862443D01*
X145547011Y-113778779D01*
X145547009Y-113778778D01*
X145511271Y-113749448D01*
X145409814Y-113666186D01*
X145326552Y-113564729D01*
X145297222Y-113528991D01*
X145287652Y-113511087D01*
X145213557Y-113372467D01*
X145196384Y-113315853D01*
X145162037Y-113202627D01*
X145144641Y-113026000D01*
X145162037Y-112849373D01*
X145213557Y-112679534D01*
X145213557Y-112679533D01*
X145297221Y-112523011D01*
X145297222Y-112523009D01*
X145326552Y-112487271D01*
X145409814Y-112385814D01*
X145511271Y-112302552D01*
X145547009Y-112273222D01*
X145564913Y-112263652D01*
X145703533Y-112189557D01*
X145760147Y-112172384D01*
X145873373Y-112138037D01*
X145939557Y-112131519D01*
X146005740Y-112125000D01*
X146094260Y-112125000D01*
X146160443Y-112131519D01*
X146160443Y-112131519D01*
G37*
G36*
X125840443Y-112131519D02*
X125906627Y-112138037D01*
X126019853Y-112172384D01*
X126076467Y-112189557D01*
X126215087Y-112263652D01*
X126232991Y-112273222D01*
X126268729Y-112302552D01*
X126370186Y-112385814D01*
X126453448Y-112487271D01*
X126482778Y-112523009D01*
X126482779Y-112523011D01*
X126566443Y-112679533D01*
X126566443Y-112679534D01*
X126617963Y-112849373D01*
X126635359Y-113026000D01*
X126617963Y-113202627D01*
X126583616Y-113315853D01*
X126566443Y-113372467D01*
X126492348Y-113511087D01*
X126482778Y-113528991D01*
X126453448Y-113564729D01*
X126370186Y-113666186D01*
X126268729Y-113749448D01*
X126232991Y-113778778D01*
X126232989Y-113778779D01*
X126076467Y-113862443D01*
X126019853Y-113879616D01*
X125906627Y-113913963D01*
X125840443Y-113920481D01*
X125774260Y-113927000D01*
X125685740Y-113927000D01*
X125619557Y-113920481D01*
X125553373Y-113913963D01*
X125440147Y-113879616D01*
X125383533Y-113862443D01*
X125227011Y-113778779D01*
X125227009Y-113778778D01*
X125191271Y-113749448D01*
X125089814Y-113666186D01*
X125006552Y-113564729D01*
X124977222Y-113528991D01*
X124967652Y-113511087D01*
X124893557Y-113372467D01*
X124876384Y-113315853D01*
X124842037Y-113202627D01*
X124824641Y-113026000D01*
X124842037Y-112849373D01*
X124893557Y-112679534D01*
X124893557Y-112679533D01*
X124977221Y-112523011D01*
X124977222Y-112523009D01*
X125006552Y-112487271D01*
X125089814Y-112385814D01*
X125191271Y-112302552D01*
X125227009Y-112273222D01*
X125244913Y-112263652D01*
X125383533Y-112189557D01*
X125440147Y-112172384D01*
X125553373Y-112138037D01*
X125619557Y-112131519D01*
X125685740Y-112125000D01*
X125774260Y-112125000D01*
X125840443Y-112131519D01*
X125840443Y-112131519D01*
G37*
G36*
X146160442Y-109591518D02*
X146226627Y-109598037D01*
X146339853Y-109632384D01*
X146396467Y-109649557D01*
X146535087Y-109723652D01*
X146552991Y-109733222D01*
X146588729Y-109762552D01*
X146690186Y-109845814D01*
X146773448Y-109947271D01*
X146802778Y-109983009D01*
X146802779Y-109983011D01*
X146886443Y-110139533D01*
X146886443Y-110139534D01*
X146937963Y-110309373D01*
X146955359Y-110486000D01*
X146937963Y-110662627D01*
X146903616Y-110775853D01*
X146886443Y-110832467D01*
X146812348Y-110971087D01*
X146802778Y-110988991D01*
X146773448Y-111024729D01*
X146690186Y-111126186D01*
X146588729Y-111209448D01*
X146552991Y-111238778D01*
X146552989Y-111238779D01*
X146396467Y-111322443D01*
X146339853Y-111339616D01*
X146226627Y-111373963D01*
X146160443Y-111380481D01*
X146094260Y-111387000D01*
X146005740Y-111387000D01*
X145939557Y-111380481D01*
X145873373Y-111373963D01*
X145760147Y-111339616D01*
X145703533Y-111322443D01*
X145547011Y-111238779D01*
X145547009Y-111238778D01*
X145511271Y-111209448D01*
X145409814Y-111126186D01*
X145326552Y-111024729D01*
X145297222Y-110988991D01*
X145287652Y-110971087D01*
X145213557Y-110832467D01*
X145196384Y-110775853D01*
X145162037Y-110662627D01*
X145144641Y-110486000D01*
X145162037Y-110309373D01*
X145213557Y-110139534D01*
X145213557Y-110139533D01*
X145297221Y-109983011D01*
X145297222Y-109983009D01*
X145326552Y-109947271D01*
X145409814Y-109845814D01*
X145511271Y-109762552D01*
X145547009Y-109733222D01*
X145564913Y-109723652D01*
X145703533Y-109649557D01*
X145760147Y-109632384D01*
X145873373Y-109598037D01*
X145939558Y-109591518D01*
X146005740Y-109585000D01*
X146094260Y-109585000D01*
X146160442Y-109591518D01*
X146160442Y-109591518D01*
G37*
G36*
X125840442Y-109591518D02*
X125906627Y-109598037D01*
X126019853Y-109632384D01*
X126076467Y-109649557D01*
X126215087Y-109723652D01*
X126232991Y-109733222D01*
X126268729Y-109762552D01*
X126370186Y-109845814D01*
X126453448Y-109947271D01*
X126482778Y-109983009D01*
X126482779Y-109983011D01*
X126566443Y-110139533D01*
X126566443Y-110139534D01*
X126617963Y-110309373D01*
X126635359Y-110486000D01*
X126617963Y-110662627D01*
X126583616Y-110775853D01*
X126566443Y-110832467D01*
X126492348Y-110971087D01*
X126482778Y-110988991D01*
X126453448Y-111024729D01*
X126370186Y-111126186D01*
X126268729Y-111209448D01*
X126232991Y-111238778D01*
X126232989Y-111238779D01*
X126076467Y-111322443D01*
X126019853Y-111339616D01*
X125906627Y-111373963D01*
X125840443Y-111380481D01*
X125774260Y-111387000D01*
X125685740Y-111387000D01*
X125619557Y-111380481D01*
X125553373Y-111373963D01*
X125440147Y-111339616D01*
X125383533Y-111322443D01*
X125227011Y-111238779D01*
X125227009Y-111238778D01*
X125191271Y-111209448D01*
X125089814Y-111126186D01*
X125006552Y-111024729D01*
X124977222Y-110988991D01*
X124967652Y-110971087D01*
X124893557Y-110832467D01*
X124876384Y-110775853D01*
X124842037Y-110662627D01*
X124824641Y-110486000D01*
X124842037Y-110309373D01*
X124893557Y-110139534D01*
X124893557Y-110139533D01*
X124977221Y-109983011D01*
X124977222Y-109983009D01*
X125006552Y-109947271D01*
X125089814Y-109845814D01*
X125191271Y-109762552D01*
X125227009Y-109733222D01*
X125244913Y-109723652D01*
X125383533Y-109649557D01*
X125440147Y-109632384D01*
X125553373Y-109598037D01*
X125619558Y-109591518D01*
X125685740Y-109585000D01*
X125774260Y-109585000D01*
X125840442Y-109591518D01*
X125840442Y-109591518D01*
G37*
G36*
X146160443Y-107051519D02*
X146226627Y-107058037D01*
X146339853Y-107092384D01*
X146396467Y-107109557D01*
X146535087Y-107183652D01*
X146552991Y-107193222D01*
X146588729Y-107222552D01*
X146690186Y-107305814D01*
X146773448Y-107407271D01*
X146802778Y-107443009D01*
X146802779Y-107443011D01*
X146886443Y-107599533D01*
X146886443Y-107599534D01*
X146937963Y-107769373D01*
X146955359Y-107946000D01*
X146937963Y-108122627D01*
X146903616Y-108235853D01*
X146886443Y-108292467D01*
X146812348Y-108431087D01*
X146802778Y-108448991D01*
X146773448Y-108484729D01*
X146690186Y-108586186D01*
X146588729Y-108669448D01*
X146552991Y-108698778D01*
X146552989Y-108698779D01*
X146396467Y-108782443D01*
X146339853Y-108799616D01*
X146226627Y-108833963D01*
X146160443Y-108840481D01*
X146094260Y-108847000D01*
X146005740Y-108847000D01*
X145939557Y-108840481D01*
X145873373Y-108833963D01*
X145760147Y-108799616D01*
X145703533Y-108782443D01*
X145547011Y-108698779D01*
X145547009Y-108698778D01*
X145511271Y-108669448D01*
X145409814Y-108586186D01*
X145326552Y-108484729D01*
X145297222Y-108448991D01*
X145287652Y-108431087D01*
X145213557Y-108292467D01*
X145196384Y-108235853D01*
X145162037Y-108122627D01*
X145144641Y-107946000D01*
X145162037Y-107769373D01*
X145213557Y-107599534D01*
X145213557Y-107599533D01*
X145297221Y-107443011D01*
X145297222Y-107443009D01*
X145326552Y-107407271D01*
X145409814Y-107305814D01*
X145511271Y-107222552D01*
X145547009Y-107193222D01*
X145564913Y-107183652D01*
X145703533Y-107109557D01*
X145760147Y-107092384D01*
X145873373Y-107058037D01*
X145939557Y-107051519D01*
X146005740Y-107045000D01*
X146094260Y-107045000D01*
X146160443Y-107051519D01*
X146160443Y-107051519D01*
G37*
G36*
X125840443Y-107051519D02*
X125906627Y-107058037D01*
X126019853Y-107092384D01*
X126076467Y-107109557D01*
X126215087Y-107183652D01*
X126232991Y-107193222D01*
X126268729Y-107222552D01*
X126370186Y-107305814D01*
X126453448Y-107407271D01*
X126482778Y-107443009D01*
X126482779Y-107443011D01*
X126566443Y-107599533D01*
X126566443Y-107599534D01*
X126617963Y-107769373D01*
X126635359Y-107946000D01*
X126617963Y-108122627D01*
X126583616Y-108235853D01*
X126566443Y-108292467D01*
X126492348Y-108431087D01*
X126482778Y-108448991D01*
X126453448Y-108484729D01*
X126370186Y-108586186D01*
X126268729Y-108669448D01*
X126232991Y-108698778D01*
X126232989Y-108698779D01*
X126076467Y-108782443D01*
X126019853Y-108799616D01*
X125906627Y-108833963D01*
X125840443Y-108840481D01*
X125774260Y-108847000D01*
X125685740Y-108847000D01*
X125619557Y-108840481D01*
X125553373Y-108833963D01*
X125440147Y-108799616D01*
X125383533Y-108782443D01*
X125227011Y-108698779D01*
X125227009Y-108698778D01*
X125191271Y-108669448D01*
X125089814Y-108586186D01*
X125006552Y-108484729D01*
X124977222Y-108448991D01*
X124967652Y-108431087D01*
X124893557Y-108292467D01*
X124876384Y-108235853D01*
X124842037Y-108122627D01*
X124824641Y-107946000D01*
X124842037Y-107769373D01*
X124893557Y-107599534D01*
X124893557Y-107599533D01*
X124977221Y-107443011D01*
X124977222Y-107443009D01*
X125006552Y-107407271D01*
X125089814Y-107305814D01*
X125191271Y-107222552D01*
X125227009Y-107193222D01*
X125244913Y-107183652D01*
X125383533Y-107109557D01*
X125440147Y-107092384D01*
X125553373Y-107058037D01*
X125619557Y-107051519D01*
X125685740Y-107045000D01*
X125774260Y-107045000D01*
X125840443Y-107051519D01*
X125840443Y-107051519D01*
G37*
G36*
X146160443Y-104511519D02*
X146226627Y-104518037D01*
X146339853Y-104552384D01*
X146396467Y-104569557D01*
X146535087Y-104643652D01*
X146552991Y-104653222D01*
X146588729Y-104682552D01*
X146690186Y-104765814D01*
X146773448Y-104867271D01*
X146802778Y-104903009D01*
X146802779Y-104903011D01*
X146886443Y-105059533D01*
X146886443Y-105059534D01*
X146937963Y-105229373D01*
X146955359Y-105406000D01*
X146937963Y-105582627D01*
X146903616Y-105695853D01*
X146886443Y-105752467D01*
X146812348Y-105891087D01*
X146802778Y-105908991D01*
X146773448Y-105944729D01*
X146690186Y-106046186D01*
X146588729Y-106129448D01*
X146552991Y-106158778D01*
X146552989Y-106158779D01*
X146396467Y-106242443D01*
X146339853Y-106259616D01*
X146226627Y-106293963D01*
X146160442Y-106300482D01*
X146094260Y-106307000D01*
X146005740Y-106307000D01*
X145939558Y-106300482D01*
X145873373Y-106293963D01*
X145760147Y-106259616D01*
X145703533Y-106242443D01*
X145547011Y-106158779D01*
X145547009Y-106158778D01*
X145511271Y-106129448D01*
X145409814Y-106046186D01*
X145326552Y-105944729D01*
X145297222Y-105908991D01*
X145287652Y-105891087D01*
X145213557Y-105752467D01*
X145196384Y-105695853D01*
X145162037Y-105582627D01*
X145144641Y-105406000D01*
X145162037Y-105229373D01*
X145213557Y-105059534D01*
X145213557Y-105059533D01*
X145297221Y-104903011D01*
X145297222Y-104903009D01*
X145326552Y-104867271D01*
X145409814Y-104765814D01*
X145511271Y-104682552D01*
X145547009Y-104653222D01*
X145564913Y-104643652D01*
X145703533Y-104569557D01*
X145760147Y-104552384D01*
X145873373Y-104518037D01*
X145939558Y-104511518D01*
X146005740Y-104505000D01*
X146094260Y-104505000D01*
X146160443Y-104511519D01*
X146160443Y-104511519D01*
G37*
G36*
X125840443Y-104511519D02*
X125906627Y-104518037D01*
X126019853Y-104552384D01*
X126076467Y-104569557D01*
X126215087Y-104643652D01*
X126232991Y-104653222D01*
X126268729Y-104682552D01*
X126370186Y-104765814D01*
X126453448Y-104867271D01*
X126482778Y-104903009D01*
X126482779Y-104903011D01*
X126566443Y-105059533D01*
X126566443Y-105059534D01*
X126617963Y-105229373D01*
X126635359Y-105406000D01*
X126617963Y-105582627D01*
X126583616Y-105695853D01*
X126566443Y-105752467D01*
X126492348Y-105891087D01*
X126482778Y-105908991D01*
X126453448Y-105944729D01*
X126370186Y-106046186D01*
X126268729Y-106129448D01*
X126232991Y-106158778D01*
X126232989Y-106158779D01*
X126076467Y-106242443D01*
X126019853Y-106259616D01*
X125906627Y-106293963D01*
X125840442Y-106300482D01*
X125774260Y-106307000D01*
X125685740Y-106307000D01*
X125619558Y-106300482D01*
X125553373Y-106293963D01*
X125440147Y-106259616D01*
X125383533Y-106242443D01*
X125227011Y-106158779D01*
X125227009Y-106158778D01*
X125191271Y-106129448D01*
X125089814Y-106046186D01*
X125006552Y-105944729D01*
X124977222Y-105908991D01*
X124967652Y-105891087D01*
X124893557Y-105752467D01*
X124876384Y-105695853D01*
X124842037Y-105582627D01*
X124824641Y-105406000D01*
X124842037Y-105229373D01*
X124893557Y-105059534D01*
X124893557Y-105059533D01*
X124977221Y-104903011D01*
X124977222Y-104903009D01*
X125006552Y-104867271D01*
X125089814Y-104765814D01*
X125191271Y-104682552D01*
X125227009Y-104653222D01*
X125244913Y-104643652D01*
X125383533Y-104569557D01*
X125440147Y-104552384D01*
X125553373Y-104518037D01*
X125619558Y-104511518D01*
X125685740Y-104505000D01*
X125774260Y-104505000D01*
X125840443Y-104511519D01*
X125840443Y-104511519D01*
G37*
G36*
X125840442Y-101971518D02*
X125906627Y-101978037D01*
X126019853Y-102012384D01*
X126076467Y-102029557D01*
X126158778Y-102073554D01*
X126232991Y-102113222D01*
X126268729Y-102142552D01*
X126370186Y-102225814D01*
X126453448Y-102327271D01*
X126482778Y-102363009D01*
X126482779Y-102363011D01*
X126566443Y-102519533D01*
X126566443Y-102519534D01*
X126617963Y-102689373D01*
X126635359Y-102866000D01*
X126617963Y-103042627D01*
X126600357Y-103100665D01*
X126566443Y-103212467D01*
X126492348Y-103351087D01*
X126482778Y-103368991D01*
X126453448Y-103404729D01*
X126370186Y-103506186D01*
X126268729Y-103589448D01*
X126232991Y-103618778D01*
X126232989Y-103618779D01*
X126076467Y-103702443D01*
X126019853Y-103719616D01*
X125906627Y-103753963D01*
X125840443Y-103760481D01*
X125774260Y-103767000D01*
X125685740Y-103767000D01*
X125619557Y-103760481D01*
X125553373Y-103753963D01*
X125440147Y-103719616D01*
X125383533Y-103702443D01*
X125227011Y-103618779D01*
X125227009Y-103618778D01*
X125191271Y-103589448D01*
X125089814Y-103506186D01*
X125006552Y-103404729D01*
X124977222Y-103368991D01*
X124967652Y-103351087D01*
X124893557Y-103212467D01*
X124859643Y-103100665D01*
X124842037Y-103042627D01*
X124824641Y-102866000D01*
X124842037Y-102689373D01*
X124893557Y-102519534D01*
X124893557Y-102519533D01*
X124977221Y-102363011D01*
X124977222Y-102363009D01*
X125006552Y-102327271D01*
X125089814Y-102225814D01*
X125191271Y-102142552D01*
X125227009Y-102113222D01*
X125301222Y-102073554D01*
X125383533Y-102029557D01*
X125440147Y-102012384D01*
X125553373Y-101978037D01*
X125619558Y-101971518D01*
X125685740Y-101965000D01*
X125774260Y-101965000D01*
X125840442Y-101971518D01*
X125840442Y-101971518D01*
G37*
G36*
X146160442Y-101971518D02*
X146226627Y-101978037D01*
X146339853Y-102012384D01*
X146396467Y-102029557D01*
X146478778Y-102073554D01*
X146552991Y-102113222D01*
X146588729Y-102142552D01*
X146690186Y-102225814D01*
X146773448Y-102327271D01*
X146802778Y-102363009D01*
X146802779Y-102363011D01*
X146886443Y-102519533D01*
X146886443Y-102519534D01*
X146937963Y-102689373D01*
X146955359Y-102866000D01*
X146937963Y-103042627D01*
X146920357Y-103100665D01*
X146886443Y-103212467D01*
X146812348Y-103351087D01*
X146802778Y-103368991D01*
X146773448Y-103404729D01*
X146690186Y-103506186D01*
X146588729Y-103589448D01*
X146552991Y-103618778D01*
X146552989Y-103618779D01*
X146396467Y-103702443D01*
X146339853Y-103719616D01*
X146226627Y-103753963D01*
X146160443Y-103760481D01*
X146094260Y-103767000D01*
X146005740Y-103767000D01*
X145939557Y-103760481D01*
X145873373Y-103753963D01*
X145760147Y-103719616D01*
X145703533Y-103702443D01*
X145547011Y-103618779D01*
X145547009Y-103618778D01*
X145511271Y-103589448D01*
X145409814Y-103506186D01*
X145326552Y-103404729D01*
X145297222Y-103368991D01*
X145287652Y-103351087D01*
X145213557Y-103212467D01*
X145179643Y-103100665D01*
X145162037Y-103042627D01*
X145144641Y-102866000D01*
X145162037Y-102689373D01*
X145213557Y-102519534D01*
X145213557Y-102519533D01*
X145297221Y-102363011D01*
X145297222Y-102363009D01*
X145326552Y-102327271D01*
X145409814Y-102225814D01*
X145511271Y-102142552D01*
X145547009Y-102113222D01*
X145621222Y-102073554D01*
X145703533Y-102029557D01*
X145760147Y-102012384D01*
X145873373Y-101978037D01*
X145939558Y-101971518D01*
X146005740Y-101965000D01*
X146094260Y-101965000D01*
X146160442Y-101971518D01*
X146160442Y-101971518D01*
G37*
G36*
X139322198Y-100769954D02*
X139334450Y-100770556D01*
X139352869Y-100770556D01*
X139375149Y-100772750D01*
X139459236Y-100789476D01*
X139480655Y-100795974D01*
X139559871Y-100828785D01*
X139579607Y-100839335D01*
X139650897Y-100886969D01*
X139668208Y-100901176D01*
X139728824Y-100961792D01*
X139743031Y-100979103D01*
X139790665Y-101050393D01*
X139801215Y-101070129D01*
X139834026Y-101149345D01*
X139840524Y-101170764D01*
X139857250Y-101254851D01*
X139859444Y-101277131D01*
X139859444Y-101295550D01*
X139860046Y-101307802D01*
X139861852Y-101326140D01*
X139861852Y-101813860D01*
X139860263Y-101829999D01*
X139857347Y-101839611D01*
X139852612Y-101848469D01*
X139846237Y-101856237D01*
X139833798Y-101866446D01*
X139823432Y-101873372D01*
X139806105Y-101890698D01*
X139792490Y-101911073D01*
X139783112Y-101933711D01*
X139778331Y-101957745D01*
X139778331Y-101982249D01*
X139783111Y-102006283D01*
X139792487Y-102028922D01*
X139806101Y-102049297D01*
X139823427Y-102066624D01*
X139833796Y-102073552D01*
X139846237Y-102083763D01*
X139852612Y-102091531D01*
X139857347Y-102100389D01*
X139860263Y-102110001D01*
X139861852Y-102126140D01*
X139861852Y-102613861D01*
X139860046Y-102632198D01*
X139859444Y-102644450D01*
X139859444Y-102662869D01*
X139857250Y-102685149D01*
X139840524Y-102769236D01*
X139834026Y-102790655D01*
X139801215Y-102869871D01*
X139790665Y-102889607D01*
X139743031Y-102960897D01*
X139728824Y-102978208D01*
X139668208Y-103038824D01*
X139650897Y-103053031D01*
X139579607Y-103100665D01*
X139559871Y-103111215D01*
X139480655Y-103144026D01*
X139459236Y-103150524D01*
X139375149Y-103167250D01*
X139352869Y-103169444D01*
X139334450Y-103169444D01*
X139322198Y-103170046D01*
X139303861Y-103171852D01*
X138816139Y-103171852D01*
X138797802Y-103170046D01*
X138785550Y-103169444D01*
X138767131Y-103169444D01*
X138744851Y-103167250D01*
X138660764Y-103150524D01*
X138639345Y-103144026D01*
X138560129Y-103111215D01*
X138540393Y-103100665D01*
X138469103Y-103053031D01*
X138451792Y-103038824D01*
X138391176Y-102978208D01*
X138376969Y-102960897D01*
X138329335Y-102889607D01*
X138318785Y-102869871D01*
X138285974Y-102790655D01*
X138279476Y-102769236D01*
X138262750Y-102685149D01*
X138260556Y-102662869D01*
X138260556Y-102644450D01*
X138259954Y-102632198D01*
X138258148Y-102613861D01*
X138258148Y-102126140D01*
X138259737Y-102110001D01*
X138262653Y-102100389D01*
X138267388Y-102091531D01*
X138273763Y-102083763D01*
X138286202Y-102073554D01*
X138296568Y-102066628D01*
X138313895Y-102049302D01*
X138327510Y-102028927D01*
X138336888Y-102006289D01*
X138341669Y-101982255D01*
X138341669Y-101957751D01*
X138336889Y-101933717D01*
X138327513Y-101911078D01*
X138313899Y-101890703D01*
X138296573Y-101873376D01*
X138286204Y-101866448D01*
X138273763Y-101856237D01*
X138267388Y-101848469D01*
X138262653Y-101839611D01*
X138259737Y-101829999D01*
X138258148Y-101813860D01*
X138258148Y-101326140D01*
X138259954Y-101307802D01*
X138260556Y-101295550D01*
X138260556Y-101277131D01*
X138262750Y-101254851D01*
X138279476Y-101170764D01*
X138285974Y-101149345D01*
X138318785Y-101070129D01*
X138329335Y-101050393D01*
X138376969Y-100979103D01*
X138391176Y-100961792D01*
X138451792Y-100901176D01*
X138469103Y-100886969D01*
X138540393Y-100839335D01*
X138560129Y-100828785D01*
X138639345Y-100795974D01*
X138660764Y-100789476D01*
X138744851Y-100772750D01*
X138767131Y-100770556D01*
X138785550Y-100770556D01*
X138797802Y-100769954D01*
X138816140Y-100768148D01*
X139303860Y-100768148D01*
X139322198Y-100769954D01*
X139322198Y-100769954D01*
G37*
G36*
X125840443Y-99431519D02*
X125906627Y-99438037D01*
X126019853Y-99472384D01*
X126076467Y-99489557D01*
X126215087Y-99563652D01*
X126232991Y-99573222D01*
X126268729Y-99602552D01*
X126370186Y-99685814D01*
X126453448Y-99787271D01*
X126482778Y-99823009D01*
X126482779Y-99823011D01*
X126566443Y-99979533D01*
X126566443Y-99979534D01*
X126617963Y-100149373D01*
X126635359Y-100326000D01*
X126617963Y-100502627D01*
X126583616Y-100615853D01*
X126566443Y-100672467D01*
X126513689Y-100771161D01*
X126482778Y-100828991D01*
X126453448Y-100864729D01*
X126370186Y-100966186D01*
X126268729Y-101049448D01*
X126232991Y-101078778D01*
X126232989Y-101078779D01*
X126076467Y-101162443D01*
X126019853Y-101179616D01*
X125906627Y-101213963D01*
X125840443Y-101220481D01*
X125774260Y-101227000D01*
X125685740Y-101227000D01*
X125619557Y-101220481D01*
X125553373Y-101213963D01*
X125440147Y-101179616D01*
X125383533Y-101162443D01*
X125227011Y-101078779D01*
X125227009Y-101078778D01*
X125191271Y-101049448D01*
X125089814Y-100966186D01*
X125006552Y-100864729D01*
X124977222Y-100828991D01*
X124946311Y-100771161D01*
X124893557Y-100672467D01*
X124876384Y-100615853D01*
X124842037Y-100502627D01*
X124824641Y-100326000D01*
X124842037Y-100149373D01*
X124893557Y-99979534D01*
X124893557Y-99979533D01*
X124977221Y-99823011D01*
X124977222Y-99823009D01*
X125006552Y-99787271D01*
X125089814Y-99685814D01*
X125191271Y-99602552D01*
X125227009Y-99573222D01*
X125244913Y-99563652D01*
X125383533Y-99489557D01*
X125440147Y-99472384D01*
X125553373Y-99438037D01*
X125619558Y-99431518D01*
X125685740Y-99425000D01*
X125774260Y-99425000D01*
X125840443Y-99431519D01*
X125840443Y-99431519D01*
G37*
G36*
X146160443Y-99431519D02*
X146226627Y-99438037D01*
X146339853Y-99472384D01*
X146396467Y-99489557D01*
X146535087Y-99563652D01*
X146552991Y-99573222D01*
X146588729Y-99602552D01*
X146690186Y-99685814D01*
X146773448Y-99787271D01*
X146802778Y-99823009D01*
X146802779Y-99823011D01*
X146886443Y-99979533D01*
X146886443Y-99979534D01*
X146937963Y-100149373D01*
X146955359Y-100326000D01*
X146937963Y-100502627D01*
X146903616Y-100615853D01*
X146886443Y-100672467D01*
X146833689Y-100771161D01*
X146802778Y-100828991D01*
X146773448Y-100864729D01*
X146690186Y-100966186D01*
X146588729Y-101049448D01*
X146552991Y-101078778D01*
X146552989Y-101078779D01*
X146396467Y-101162443D01*
X146339853Y-101179616D01*
X146226627Y-101213963D01*
X146160443Y-101220481D01*
X146094260Y-101227000D01*
X146005740Y-101227000D01*
X145939557Y-101220481D01*
X145873373Y-101213963D01*
X145760147Y-101179616D01*
X145703533Y-101162443D01*
X145547011Y-101078779D01*
X145547009Y-101078778D01*
X145511271Y-101049448D01*
X145409814Y-100966186D01*
X145326552Y-100864729D01*
X145297222Y-100828991D01*
X145266311Y-100771161D01*
X145213557Y-100672467D01*
X145196384Y-100615853D01*
X145162037Y-100502627D01*
X145144641Y-100326000D01*
X145162037Y-100149373D01*
X145213557Y-99979534D01*
X145213557Y-99979533D01*
X145297221Y-99823011D01*
X145297222Y-99823009D01*
X145326552Y-99787271D01*
X145409814Y-99685814D01*
X145511271Y-99602552D01*
X145547009Y-99573222D01*
X145564913Y-99563652D01*
X145703533Y-99489557D01*
X145760147Y-99472384D01*
X145873373Y-99438037D01*
X145939558Y-99431518D01*
X146005740Y-99425000D01*
X146094260Y-99425000D01*
X146160443Y-99431519D01*
X146160443Y-99431519D01*
G37*
G36*
X125840442Y-96891518D02*
X125906627Y-96898037D01*
X126019853Y-96932384D01*
X126076467Y-96949557D01*
X126215087Y-97023652D01*
X126232991Y-97033222D01*
X126268729Y-97062552D01*
X126370186Y-97145814D01*
X126453448Y-97247271D01*
X126482778Y-97283009D01*
X126482779Y-97283011D01*
X126566443Y-97439533D01*
X126566443Y-97439534D01*
X126617963Y-97609373D01*
X126635359Y-97786000D01*
X126617963Y-97962627D01*
X126583616Y-98075853D01*
X126566443Y-98132467D01*
X126492348Y-98271087D01*
X126482778Y-98288991D01*
X126453448Y-98324729D01*
X126370186Y-98426186D01*
X126268729Y-98509448D01*
X126232991Y-98538778D01*
X126232989Y-98538779D01*
X126076467Y-98622443D01*
X126019853Y-98639616D01*
X125906627Y-98673963D01*
X125840442Y-98680482D01*
X125774260Y-98687000D01*
X125685740Y-98687000D01*
X125619558Y-98680482D01*
X125553373Y-98673963D01*
X125440147Y-98639616D01*
X125383533Y-98622443D01*
X125227011Y-98538779D01*
X125227009Y-98538778D01*
X125191271Y-98509448D01*
X125089814Y-98426186D01*
X125006552Y-98324729D01*
X124977222Y-98288991D01*
X124967652Y-98271087D01*
X124893557Y-98132467D01*
X124876384Y-98075853D01*
X124842037Y-97962627D01*
X124824641Y-97786000D01*
X124842037Y-97609373D01*
X124893557Y-97439534D01*
X124893557Y-97439533D01*
X124977221Y-97283011D01*
X124977222Y-97283009D01*
X125006552Y-97247271D01*
X125089814Y-97145814D01*
X125191271Y-97062552D01*
X125227009Y-97033222D01*
X125244913Y-97023652D01*
X125383533Y-96949557D01*
X125440147Y-96932384D01*
X125553373Y-96898037D01*
X125619558Y-96891518D01*
X125685740Y-96885000D01*
X125774260Y-96885000D01*
X125840442Y-96891518D01*
X125840442Y-96891518D01*
G37*
G36*
X146160442Y-96891518D02*
X146226627Y-96898037D01*
X146339853Y-96932384D01*
X146396467Y-96949557D01*
X146535087Y-97023652D01*
X146552991Y-97033222D01*
X146588729Y-97062552D01*
X146690186Y-97145814D01*
X146773448Y-97247271D01*
X146802778Y-97283009D01*
X146802779Y-97283011D01*
X146886443Y-97439533D01*
X146886443Y-97439534D01*
X146937963Y-97609373D01*
X146955359Y-97786000D01*
X146937963Y-97962627D01*
X146903616Y-98075853D01*
X146886443Y-98132467D01*
X146812348Y-98271087D01*
X146802778Y-98288991D01*
X146773448Y-98324729D01*
X146690186Y-98426186D01*
X146588729Y-98509448D01*
X146552991Y-98538778D01*
X146552989Y-98538779D01*
X146396467Y-98622443D01*
X146339853Y-98639616D01*
X146226627Y-98673963D01*
X146160442Y-98680482D01*
X146094260Y-98687000D01*
X146005740Y-98687000D01*
X145939558Y-98680482D01*
X145873373Y-98673963D01*
X145760147Y-98639616D01*
X145703533Y-98622443D01*
X145547011Y-98538779D01*
X145547009Y-98538778D01*
X145511271Y-98509448D01*
X145409814Y-98426186D01*
X145326552Y-98324729D01*
X145297222Y-98288991D01*
X145287652Y-98271087D01*
X145213557Y-98132467D01*
X145196384Y-98075853D01*
X145162037Y-97962627D01*
X145144641Y-97786000D01*
X145162037Y-97609373D01*
X145213557Y-97439534D01*
X145213557Y-97439533D01*
X145297221Y-97283011D01*
X145297222Y-97283009D01*
X145326552Y-97247271D01*
X145409814Y-97145814D01*
X145511271Y-97062552D01*
X145547009Y-97033222D01*
X145564913Y-97023652D01*
X145703533Y-96949557D01*
X145760147Y-96932384D01*
X145873373Y-96898037D01*
X145939558Y-96891518D01*
X146005740Y-96885000D01*
X146094260Y-96885000D01*
X146160442Y-96891518D01*
X146160442Y-96891518D01*
G37*
G36*
X146160443Y-94351519D02*
X146226627Y-94358037D01*
X146339853Y-94392384D01*
X146396467Y-94409557D01*
X146535087Y-94483652D01*
X146552991Y-94493222D01*
X146588729Y-94522552D01*
X146690186Y-94605814D01*
X146773448Y-94707271D01*
X146802778Y-94743009D01*
X146802779Y-94743011D01*
X146886443Y-94899533D01*
X146886443Y-94899534D01*
X146937963Y-95069373D01*
X146955359Y-95246000D01*
X146937963Y-95422627D01*
X146903616Y-95535853D01*
X146886443Y-95592467D01*
X146812348Y-95731087D01*
X146802778Y-95748991D01*
X146773448Y-95784729D01*
X146690186Y-95886186D01*
X146588729Y-95969448D01*
X146552991Y-95998778D01*
X146552989Y-95998779D01*
X146396467Y-96082443D01*
X146339853Y-96099616D01*
X146226627Y-96133963D01*
X146160442Y-96140482D01*
X146094260Y-96147000D01*
X146005740Y-96147000D01*
X145939558Y-96140482D01*
X145873373Y-96133963D01*
X145760147Y-96099616D01*
X145703533Y-96082443D01*
X145547011Y-95998779D01*
X145547009Y-95998778D01*
X145511271Y-95969448D01*
X145409814Y-95886186D01*
X145326552Y-95784729D01*
X145297222Y-95748991D01*
X145287652Y-95731087D01*
X145213557Y-95592467D01*
X145196384Y-95535853D01*
X145162037Y-95422627D01*
X145144641Y-95246000D01*
X145162037Y-95069373D01*
X145213557Y-94899534D01*
X145213557Y-94899533D01*
X145297221Y-94743011D01*
X145297222Y-94743009D01*
X145326552Y-94707271D01*
X145409814Y-94605814D01*
X145511271Y-94522552D01*
X145547009Y-94493222D01*
X145564913Y-94483652D01*
X145703533Y-94409557D01*
X145760147Y-94392384D01*
X145873373Y-94358037D01*
X145939557Y-94351519D01*
X146005740Y-94345000D01*
X146094260Y-94345000D01*
X146160443Y-94351519D01*
X146160443Y-94351519D01*
G37*
G36*
X125840443Y-94351519D02*
X125906627Y-94358037D01*
X126019853Y-94392384D01*
X126076467Y-94409557D01*
X126215087Y-94483652D01*
X126232991Y-94493222D01*
X126268729Y-94522552D01*
X126370186Y-94605814D01*
X126453448Y-94707271D01*
X126482778Y-94743009D01*
X126482779Y-94743011D01*
X126566443Y-94899533D01*
X126566443Y-94899534D01*
X126617963Y-95069373D01*
X126635359Y-95246000D01*
X126617963Y-95422627D01*
X126583616Y-95535853D01*
X126566443Y-95592467D01*
X126492348Y-95731087D01*
X126482778Y-95748991D01*
X126453448Y-95784729D01*
X126370186Y-95886186D01*
X126268729Y-95969448D01*
X126232991Y-95998778D01*
X126232989Y-95998779D01*
X126076467Y-96082443D01*
X126019853Y-96099616D01*
X125906627Y-96133963D01*
X125840442Y-96140482D01*
X125774260Y-96147000D01*
X125685740Y-96147000D01*
X125619558Y-96140482D01*
X125553373Y-96133963D01*
X125440147Y-96099616D01*
X125383533Y-96082443D01*
X125227011Y-95998779D01*
X125227009Y-95998778D01*
X125191271Y-95969448D01*
X125089814Y-95886186D01*
X125006552Y-95784729D01*
X124977222Y-95748991D01*
X124967652Y-95731087D01*
X124893557Y-95592467D01*
X124876384Y-95535853D01*
X124842037Y-95422627D01*
X124824641Y-95246000D01*
X124842037Y-95069373D01*
X124893557Y-94899534D01*
X124893557Y-94899533D01*
X124977221Y-94743011D01*
X124977222Y-94743009D01*
X125006552Y-94707271D01*
X125089814Y-94605814D01*
X125191271Y-94522552D01*
X125227009Y-94493222D01*
X125244913Y-94483652D01*
X125383533Y-94409557D01*
X125440147Y-94392384D01*
X125553373Y-94358037D01*
X125619557Y-94351519D01*
X125685740Y-94345000D01*
X125774260Y-94345000D01*
X125840443Y-94351519D01*
X125840443Y-94351519D01*
G37*
G36*
X125840442Y-91811518D02*
X125906627Y-91818037D01*
X126019853Y-91852384D01*
X126076467Y-91869557D01*
X126215087Y-91943652D01*
X126232991Y-91953222D01*
X126268729Y-91982552D01*
X126370186Y-92065814D01*
X126447480Y-92159998D01*
X126482778Y-92203009D01*
X126482779Y-92203011D01*
X126566443Y-92359533D01*
X126566443Y-92359534D01*
X126617963Y-92529373D01*
X126635359Y-92706000D01*
X126617963Y-92882627D01*
X126583616Y-92995853D01*
X126566443Y-93052467D01*
X126492348Y-93191087D01*
X126482778Y-93208991D01*
X126453448Y-93244729D01*
X126370186Y-93346186D01*
X126268729Y-93429448D01*
X126232991Y-93458778D01*
X126232989Y-93458779D01*
X126076467Y-93542443D01*
X126019853Y-93559616D01*
X125906627Y-93593963D01*
X125840442Y-93600482D01*
X125774260Y-93607000D01*
X125685740Y-93607000D01*
X125619557Y-93600481D01*
X125553373Y-93593963D01*
X125440147Y-93559616D01*
X125383533Y-93542443D01*
X125227011Y-93458779D01*
X125227009Y-93458778D01*
X125191271Y-93429448D01*
X125089814Y-93346186D01*
X125006552Y-93244729D01*
X124977222Y-93208991D01*
X124967652Y-93191087D01*
X124893557Y-93052467D01*
X124876384Y-92995853D01*
X124842037Y-92882627D01*
X124824641Y-92706000D01*
X124842037Y-92529373D01*
X124893557Y-92359534D01*
X124893557Y-92359533D01*
X124977221Y-92203011D01*
X124977222Y-92203009D01*
X125012520Y-92159998D01*
X125089814Y-92065814D01*
X125191271Y-91982552D01*
X125227009Y-91953222D01*
X125244913Y-91943652D01*
X125383533Y-91869557D01*
X125440147Y-91852384D01*
X125553373Y-91818037D01*
X125619558Y-91811518D01*
X125685740Y-91805000D01*
X125774260Y-91805000D01*
X125840442Y-91811518D01*
X125840442Y-91811518D01*
G37*
G36*
X146160442Y-91811518D02*
X146226627Y-91818037D01*
X146339853Y-91852384D01*
X146396467Y-91869557D01*
X146535087Y-91943652D01*
X146552991Y-91953222D01*
X146588729Y-91982552D01*
X146690186Y-92065814D01*
X146767480Y-92159998D01*
X146802778Y-92203009D01*
X146802779Y-92203011D01*
X146886443Y-92359533D01*
X146886443Y-92359534D01*
X146937963Y-92529373D01*
X146955359Y-92706000D01*
X146937963Y-92882627D01*
X146903616Y-92995853D01*
X146886443Y-93052467D01*
X146812348Y-93191087D01*
X146802778Y-93208991D01*
X146773448Y-93244729D01*
X146690186Y-93346186D01*
X146588729Y-93429448D01*
X146552991Y-93458778D01*
X146552989Y-93458779D01*
X146396467Y-93542443D01*
X146339853Y-93559616D01*
X146226627Y-93593963D01*
X146160442Y-93600482D01*
X146094260Y-93607000D01*
X146005740Y-93607000D01*
X145939557Y-93600481D01*
X145873373Y-93593963D01*
X145760147Y-93559616D01*
X145703533Y-93542443D01*
X145547011Y-93458779D01*
X145547009Y-93458778D01*
X145511271Y-93429448D01*
X145409814Y-93346186D01*
X145326552Y-93244729D01*
X145297222Y-93208991D01*
X145287652Y-93191087D01*
X145213557Y-93052467D01*
X145196384Y-92995853D01*
X145162037Y-92882627D01*
X145144641Y-92706000D01*
X145162037Y-92529373D01*
X145213557Y-92359534D01*
X145213557Y-92359533D01*
X145297221Y-92203011D01*
X145297222Y-92203009D01*
X145332520Y-92159998D01*
X145409814Y-92065814D01*
X145511271Y-91982552D01*
X145547009Y-91953222D01*
X145564913Y-91943652D01*
X145703533Y-91869557D01*
X145760147Y-91852384D01*
X145873373Y-91818037D01*
X145939557Y-91811519D01*
X146005740Y-91805000D01*
X146094260Y-91805000D01*
X146160442Y-91811518D01*
X146160442Y-91811518D01*
G37*
G36*
X141484999Y-91099737D02*
X141494611Y-91102653D01*
X141503469Y-91107388D01*
X141511237Y-91113763D01*
X141521446Y-91126202D01*
X141528372Y-91136568D01*
X141545698Y-91153895D01*
X141566073Y-91167510D01*
X141588711Y-91176888D01*
X141612745Y-91181669D01*
X141637249Y-91181669D01*
X141661283Y-91176889D01*
X141683922Y-91167513D01*
X141704297Y-91153899D01*
X141721624Y-91136573D01*
X141728552Y-91126204D01*
X141738763Y-91113763D01*
X141746531Y-91107388D01*
X141755389Y-91102653D01*
X141765001Y-91099737D01*
X141781140Y-91098148D01*
X142268860Y-91098148D01*
X142287198Y-91099954D01*
X142299450Y-91100556D01*
X142317869Y-91100556D01*
X142340149Y-91102750D01*
X142424236Y-91119476D01*
X142445655Y-91125974D01*
X142524871Y-91158785D01*
X142544607Y-91169335D01*
X142615897Y-91216969D01*
X142633208Y-91231176D01*
X142693824Y-91291792D01*
X142708031Y-91309103D01*
X142755665Y-91380393D01*
X142766215Y-91400129D01*
X142799026Y-91479345D01*
X142805524Y-91500764D01*
X142822250Y-91584851D01*
X142824444Y-91607131D01*
X142824444Y-91625550D01*
X142825046Y-91637802D01*
X142826852Y-91656140D01*
X142826852Y-92143861D01*
X142825046Y-92162198D01*
X142824444Y-92174450D01*
X142824444Y-92192869D01*
X142822250Y-92215149D01*
X142805524Y-92299236D01*
X142799026Y-92320655D01*
X142766215Y-92399871D01*
X142755665Y-92419607D01*
X142708031Y-92490897D01*
X142693824Y-92508208D01*
X142633208Y-92568824D01*
X142615897Y-92583031D01*
X142544607Y-92630665D01*
X142524871Y-92641215D01*
X142445655Y-92674026D01*
X142424236Y-92680524D01*
X142340149Y-92697250D01*
X142317869Y-92699444D01*
X142299450Y-92699444D01*
X142287198Y-92700046D01*
X142268861Y-92701852D01*
X141781140Y-92701852D01*
X141765001Y-92700263D01*
X141755389Y-92697347D01*
X141746531Y-92692612D01*
X141738763Y-92686237D01*
X141728554Y-92673798D01*
X141721628Y-92663432D01*
X141704302Y-92646105D01*
X141683927Y-92632490D01*
X141661289Y-92623112D01*
X141637255Y-92618331D01*
X141612751Y-92618331D01*
X141588717Y-92623111D01*
X141566078Y-92632487D01*
X141545703Y-92646101D01*
X141528376Y-92663427D01*
X141521448Y-92673796D01*
X141511237Y-92686237D01*
X141503469Y-92692612D01*
X141494611Y-92697347D01*
X141484999Y-92700263D01*
X141468860Y-92701852D01*
X140981139Y-92701852D01*
X140962802Y-92700046D01*
X140950550Y-92699444D01*
X140932131Y-92699444D01*
X140909851Y-92697250D01*
X140825764Y-92680524D01*
X140804345Y-92674026D01*
X140725129Y-92641215D01*
X140705393Y-92630665D01*
X140634103Y-92583031D01*
X140616792Y-92568824D01*
X140556176Y-92508208D01*
X140541969Y-92490897D01*
X140494335Y-92419607D01*
X140483785Y-92399871D01*
X140450974Y-92320655D01*
X140444476Y-92299236D01*
X140427750Y-92215149D01*
X140425556Y-92192869D01*
X140425556Y-92174450D01*
X140424954Y-92162198D01*
X140423148Y-92143861D01*
X140423148Y-91656140D01*
X140424954Y-91637802D01*
X140425556Y-91625550D01*
X140425556Y-91607131D01*
X140427750Y-91584851D01*
X140444476Y-91500764D01*
X140450974Y-91479345D01*
X140483785Y-91400129D01*
X140494335Y-91380393D01*
X140541969Y-91309103D01*
X140556176Y-91291792D01*
X140616792Y-91231176D01*
X140634103Y-91216969D01*
X140705393Y-91169335D01*
X140725129Y-91158785D01*
X140804345Y-91125974D01*
X140825764Y-91119476D01*
X140909851Y-91102750D01*
X140932131Y-91100556D01*
X140950550Y-91100556D01*
X140962802Y-91099954D01*
X140981140Y-91098148D01*
X141468860Y-91098148D01*
X141484999Y-91099737D01*
X141484999Y-91099737D01*
G37*
G36*
X146160443Y-89271519D02*
X146226627Y-89278037D01*
X146339853Y-89312384D01*
X146396467Y-89329557D01*
X146535087Y-89403652D01*
X146552991Y-89413222D01*
X146588729Y-89442552D01*
X146690186Y-89525814D01*
X146773448Y-89627271D01*
X146802778Y-89663009D01*
X146802779Y-89663011D01*
X146886443Y-89819533D01*
X146886443Y-89819534D01*
X146937963Y-89989373D01*
X146955359Y-90166000D01*
X146937963Y-90342627D01*
X146903616Y-90455853D01*
X146886443Y-90512467D01*
X146812348Y-90651087D01*
X146802778Y-90668991D01*
X146773448Y-90704729D01*
X146690186Y-90806186D01*
X146588729Y-90889448D01*
X146552991Y-90918778D01*
X146552989Y-90918779D01*
X146396467Y-91002443D01*
X146339853Y-91019616D01*
X146226627Y-91053963D01*
X146160442Y-91060482D01*
X146094260Y-91067000D01*
X146005740Y-91067000D01*
X145939558Y-91060482D01*
X145873373Y-91053963D01*
X145760147Y-91019616D01*
X145703533Y-91002443D01*
X145547011Y-90918779D01*
X145547009Y-90918778D01*
X145511271Y-90889448D01*
X145409814Y-90806186D01*
X145326552Y-90704729D01*
X145297222Y-90668991D01*
X145287652Y-90651087D01*
X145213557Y-90512467D01*
X145196384Y-90455853D01*
X145162037Y-90342627D01*
X145144641Y-90166000D01*
X145162037Y-89989373D01*
X145213557Y-89819534D01*
X145213557Y-89819533D01*
X145297221Y-89663011D01*
X145297222Y-89663009D01*
X145326552Y-89627271D01*
X145409814Y-89525814D01*
X145511271Y-89442552D01*
X145547009Y-89413222D01*
X145564913Y-89403652D01*
X145703533Y-89329557D01*
X145760147Y-89312384D01*
X145873373Y-89278037D01*
X145939557Y-89271519D01*
X146005740Y-89265000D01*
X146094260Y-89265000D01*
X146160443Y-89271519D01*
X146160443Y-89271519D01*
G37*
G36*
X125840443Y-89271519D02*
X125906627Y-89278037D01*
X126019853Y-89312384D01*
X126076467Y-89329557D01*
X126215087Y-89403652D01*
X126232991Y-89413222D01*
X126268729Y-89442552D01*
X126370186Y-89525814D01*
X126453448Y-89627271D01*
X126482778Y-89663009D01*
X126482779Y-89663011D01*
X126566443Y-89819533D01*
X126566443Y-89819534D01*
X126617963Y-89989373D01*
X126635359Y-90166000D01*
X126617963Y-90342627D01*
X126583616Y-90455853D01*
X126566443Y-90512467D01*
X126492348Y-90651087D01*
X126482778Y-90668991D01*
X126453448Y-90704729D01*
X126370186Y-90806186D01*
X126268729Y-90889448D01*
X126232991Y-90918778D01*
X126232989Y-90918779D01*
X126076467Y-91002443D01*
X126019853Y-91019616D01*
X125906627Y-91053963D01*
X125840442Y-91060482D01*
X125774260Y-91067000D01*
X125685740Y-91067000D01*
X125619558Y-91060482D01*
X125553373Y-91053963D01*
X125440147Y-91019616D01*
X125383533Y-91002443D01*
X125227011Y-90918779D01*
X125227009Y-90918778D01*
X125191271Y-90889448D01*
X125089814Y-90806186D01*
X125006552Y-90704729D01*
X124977222Y-90668991D01*
X124967652Y-90651087D01*
X124893557Y-90512467D01*
X124876384Y-90455853D01*
X124842037Y-90342627D01*
X124824641Y-90166000D01*
X124842037Y-89989373D01*
X124893557Y-89819534D01*
X124893557Y-89819533D01*
X124977221Y-89663011D01*
X124977222Y-89663009D01*
X125006552Y-89627271D01*
X125089814Y-89525814D01*
X125191271Y-89442552D01*
X125227009Y-89413222D01*
X125244913Y-89403652D01*
X125383533Y-89329557D01*
X125440147Y-89312384D01*
X125553373Y-89278037D01*
X125619557Y-89271519D01*
X125685740Y-89265000D01*
X125774260Y-89265000D01*
X125840443Y-89271519D01*
X125840443Y-89271519D01*
G37*
G36*
X142634999Y-87299737D02*
X142644611Y-87302653D01*
X142653469Y-87307388D01*
X142661237Y-87313763D01*
X142671446Y-87326202D01*
X142678372Y-87336568D01*
X142695698Y-87353895D01*
X142716073Y-87367510D01*
X142738711Y-87376888D01*
X142762745Y-87381669D01*
X142787249Y-87381669D01*
X142811283Y-87376889D01*
X142833922Y-87367513D01*
X142854297Y-87353899D01*
X142871624Y-87336573D01*
X142878552Y-87326204D01*
X142888763Y-87313763D01*
X142896531Y-87307388D01*
X142905389Y-87302653D01*
X142915001Y-87299737D01*
X142931140Y-87298148D01*
X143418860Y-87298148D01*
X143437198Y-87299954D01*
X143449450Y-87300556D01*
X143467869Y-87300556D01*
X143490149Y-87302750D01*
X143574236Y-87319476D01*
X143595655Y-87325974D01*
X143674871Y-87358785D01*
X143694607Y-87369335D01*
X143765897Y-87416969D01*
X143783208Y-87431176D01*
X143843824Y-87491792D01*
X143858031Y-87509103D01*
X143905665Y-87580393D01*
X143916215Y-87600129D01*
X143949026Y-87679345D01*
X143955524Y-87700764D01*
X143972250Y-87784851D01*
X143974444Y-87807131D01*
X143974444Y-87825550D01*
X143975046Y-87837802D01*
X143976852Y-87856140D01*
X143976852Y-88343861D01*
X143975046Y-88362198D01*
X143974444Y-88374450D01*
X143974444Y-88392869D01*
X143972250Y-88415149D01*
X143955524Y-88499236D01*
X143949026Y-88520655D01*
X143916215Y-88599871D01*
X143905665Y-88619607D01*
X143858031Y-88690897D01*
X143843824Y-88708208D01*
X143783208Y-88768824D01*
X143765897Y-88783031D01*
X143694607Y-88830665D01*
X143674871Y-88841215D01*
X143595655Y-88874026D01*
X143574236Y-88880524D01*
X143490149Y-88897250D01*
X143467869Y-88899444D01*
X143449450Y-88899444D01*
X143437198Y-88900046D01*
X143418861Y-88901852D01*
X142931140Y-88901852D01*
X142915001Y-88900263D01*
X142905389Y-88897347D01*
X142896531Y-88892612D01*
X142888763Y-88886237D01*
X142878554Y-88873798D01*
X142871628Y-88863432D01*
X142854302Y-88846105D01*
X142833927Y-88832490D01*
X142811289Y-88823112D01*
X142787255Y-88818331D01*
X142762751Y-88818331D01*
X142738717Y-88823111D01*
X142716078Y-88832487D01*
X142695703Y-88846101D01*
X142678376Y-88863427D01*
X142671448Y-88873796D01*
X142661237Y-88886237D01*
X142653469Y-88892612D01*
X142644611Y-88897347D01*
X142634999Y-88900263D01*
X142618860Y-88901852D01*
X142131139Y-88901852D01*
X142112802Y-88900046D01*
X142100550Y-88899444D01*
X142082131Y-88899444D01*
X142059851Y-88897250D01*
X141975764Y-88880524D01*
X141954345Y-88874026D01*
X141875129Y-88841215D01*
X141855393Y-88830665D01*
X141784103Y-88783031D01*
X141766792Y-88768824D01*
X141706176Y-88708208D01*
X141691969Y-88690897D01*
X141644335Y-88619607D01*
X141633785Y-88599871D01*
X141600974Y-88520655D01*
X141594476Y-88499236D01*
X141577750Y-88415149D01*
X141575556Y-88392869D01*
X141575556Y-88374450D01*
X141574954Y-88362198D01*
X141573148Y-88343861D01*
X141573148Y-87856140D01*
X141574954Y-87837802D01*
X141575556Y-87825550D01*
X141575556Y-87807131D01*
X141577750Y-87784851D01*
X141594476Y-87700764D01*
X141600974Y-87679345D01*
X141633785Y-87600129D01*
X141644335Y-87580393D01*
X141691969Y-87509103D01*
X141706176Y-87491792D01*
X141766792Y-87431176D01*
X141784103Y-87416969D01*
X141855393Y-87369335D01*
X141875129Y-87358785D01*
X141954345Y-87325974D01*
X141975764Y-87319476D01*
X142059851Y-87302750D01*
X142082131Y-87300556D01*
X142100550Y-87300556D01*
X142112802Y-87299954D01*
X142131140Y-87298148D01*
X142618860Y-87298148D01*
X142634999Y-87299737D01*
X142634999Y-87299737D01*
G37*
G36*
X146160442Y-86731518D02*
X146226627Y-86738037D01*
X146339853Y-86772384D01*
X146396467Y-86789557D01*
X146535087Y-86863652D01*
X146552991Y-86873222D01*
X146588729Y-86902552D01*
X146690186Y-86985814D01*
X146773448Y-87087271D01*
X146802778Y-87123009D01*
X146802779Y-87123011D01*
X146886443Y-87279533D01*
X146894893Y-87307390D01*
X146937963Y-87449373D01*
X146955359Y-87626000D01*
X146937963Y-87802627D01*
X146921730Y-87856140D01*
X146886443Y-87972467D01*
X146812348Y-88111087D01*
X146802778Y-88128991D01*
X146773448Y-88164729D01*
X146690186Y-88266186D01*
X146595537Y-88343861D01*
X146552991Y-88378778D01*
X146552989Y-88378779D01*
X146396467Y-88462443D01*
X146339853Y-88479616D01*
X146226627Y-88513963D01*
X146160442Y-88520482D01*
X146094260Y-88527000D01*
X146005740Y-88527000D01*
X145939558Y-88520482D01*
X145873373Y-88513963D01*
X145760147Y-88479616D01*
X145703533Y-88462443D01*
X145547011Y-88378779D01*
X145547009Y-88378778D01*
X145504463Y-88343861D01*
X145409814Y-88266186D01*
X145326552Y-88164729D01*
X145297222Y-88128991D01*
X145287652Y-88111087D01*
X145213557Y-87972467D01*
X145178270Y-87856140D01*
X145162037Y-87802627D01*
X145144641Y-87626000D01*
X145162037Y-87449373D01*
X145205107Y-87307390D01*
X145213557Y-87279533D01*
X145297221Y-87123011D01*
X145297222Y-87123009D01*
X145326552Y-87087271D01*
X145409814Y-86985814D01*
X145511271Y-86902552D01*
X145547009Y-86873222D01*
X145564913Y-86863652D01*
X145703533Y-86789557D01*
X145760147Y-86772384D01*
X145873373Y-86738037D01*
X145939558Y-86731518D01*
X146005740Y-86725000D01*
X146094260Y-86725000D01*
X146160442Y-86731518D01*
X146160442Y-86731518D01*
G37*
G36*
X125840442Y-86731518D02*
X125906627Y-86738037D01*
X126019853Y-86772384D01*
X126076467Y-86789557D01*
X126215087Y-86863652D01*
X126232991Y-86873222D01*
X126268729Y-86902552D01*
X126370186Y-86985814D01*
X126453448Y-87087271D01*
X126482778Y-87123009D01*
X126482779Y-87123011D01*
X126566443Y-87279533D01*
X126574893Y-87307390D01*
X126617963Y-87449373D01*
X126635359Y-87626000D01*
X126617963Y-87802627D01*
X126601730Y-87856140D01*
X126566443Y-87972467D01*
X126492348Y-88111087D01*
X126482778Y-88128991D01*
X126453448Y-88164729D01*
X126370186Y-88266186D01*
X126275537Y-88343861D01*
X126232991Y-88378778D01*
X126232989Y-88378779D01*
X126076467Y-88462443D01*
X126019853Y-88479616D01*
X125906627Y-88513963D01*
X125840442Y-88520482D01*
X125774260Y-88527000D01*
X125685740Y-88527000D01*
X125619558Y-88520482D01*
X125553373Y-88513963D01*
X125440147Y-88479616D01*
X125383533Y-88462443D01*
X125227011Y-88378779D01*
X125227009Y-88378778D01*
X125184463Y-88343861D01*
X125089814Y-88266186D01*
X125006552Y-88164729D01*
X124977222Y-88128991D01*
X124967652Y-88111087D01*
X124893557Y-87972467D01*
X124858270Y-87856140D01*
X124842037Y-87802627D01*
X124824641Y-87626000D01*
X124842037Y-87449373D01*
X124885107Y-87307390D01*
X124893557Y-87279533D01*
X124977221Y-87123011D01*
X124977222Y-87123009D01*
X125006552Y-87087271D01*
X125089814Y-86985814D01*
X125191271Y-86902552D01*
X125227009Y-86873222D01*
X125244913Y-86863652D01*
X125383533Y-86789557D01*
X125440147Y-86772384D01*
X125553373Y-86738037D01*
X125619558Y-86731518D01*
X125685740Y-86725000D01*
X125774260Y-86725000D01*
X125840442Y-86731518D01*
X125840442Y-86731518D01*
G37*
G36*
X125840442Y-84191518D02*
X125906627Y-84198037D01*
X126019853Y-84232384D01*
X126076467Y-84249557D01*
X126215087Y-84323652D01*
X126232991Y-84333222D01*
X126268729Y-84362552D01*
X126370186Y-84445814D01*
X126453448Y-84547271D01*
X126482778Y-84583009D01*
X126482779Y-84583011D01*
X126566443Y-84739533D01*
X126566443Y-84739534D01*
X126617963Y-84909373D01*
X126635359Y-85086000D01*
X126617963Y-85262627D01*
X126583616Y-85375853D01*
X126566443Y-85432467D01*
X126492348Y-85571087D01*
X126482778Y-85588991D01*
X126453448Y-85624729D01*
X126370186Y-85726186D01*
X126268729Y-85809448D01*
X126232991Y-85838778D01*
X126232989Y-85838779D01*
X126076467Y-85922443D01*
X126019853Y-85939616D01*
X125906627Y-85973963D01*
X125840442Y-85980482D01*
X125774260Y-85987000D01*
X125685740Y-85987000D01*
X125619558Y-85980482D01*
X125553373Y-85973963D01*
X125440147Y-85939616D01*
X125383533Y-85922443D01*
X125227011Y-85838779D01*
X125227009Y-85838778D01*
X125191271Y-85809448D01*
X125089814Y-85726186D01*
X125006552Y-85624729D01*
X124977222Y-85588991D01*
X124967652Y-85571087D01*
X124893557Y-85432467D01*
X124876384Y-85375853D01*
X124842037Y-85262627D01*
X124824641Y-85086000D01*
X124842037Y-84909373D01*
X124893557Y-84739534D01*
X124893557Y-84739533D01*
X124977221Y-84583011D01*
X124977222Y-84583009D01*
X125006552Y-84547271D01*
X125089814Y-84445814D01*
X125191271Y-84362552D01*
X125227009Y-84333222D01*
X125244913Y-84323652D01*
X125383533Y-84249557D01*
X125440147Y-84232384D01*
X125553373Y-84198037D01*
X125619558Y-84191518D01*
X125685740Y-84185000D01*
X125774260Y-84185000D01*
X125840442Y-84191518D01*
X125840442Y-84191518D01*
G37*
G36*
X146160442Y-84191518D02*
X146226627Y-84198037D01*
X146339853Y-84232384D01*
X146396467Y-84249557D01*
X146535087Y-84323652D01*
X146552991Y-84333222D01*
X146588729Y-84362552D01*
X146690186Y-84445814D01*
X146773448Y-84547271D01*
X146802778Y-84583009D01*
X146802779Y-84583011D01*
X146886443Y-84739533D01*
X146886443Y-84739534D01*
X146937963Y-84909373D01*
X146955359Y-85086000D01*
X146937963Y-85262627D01*
X146903616Y-85375853D01*
X146886443Y-85432467D01*
X146812348Y-85571087D01*
X146802778Y-85588991D01*
X146773448Y-85624729D01*
X146690186Y-85726186D01*
X146588729Y-85809448D01*
X146552991Y-85838778D01*
X146552989Y-85838779D01*
X146396467Y-85922443D01*
X146339853Y-85939616D01*
X146226627Y-85973963D01*
X146160442Y-85980482D01*
X146094260Y-85987000D01*
X146005740Y-85987000D01*
X145939558Y-85980482D01*
X145873373Y-85973963D01*
X145760147Y-85939616D01*
X145703533Y-85922443D01*
X145547011Y-85838779D01*
X145547009Y-85838778D01*
X145511271Y-85809448D01*
X145409814Y-85726186D01*
X145326552Y-85624729D01*
X145297222Y-85588991D01*
X145287652Y-85571087D01*
X145213557Y-85432467D01*
X145196384Y-85375853D01*
X145162037Y-85262627D01*
X145144641Y-85086000D01*
X145162037Y-84909373D01*
X145213557Y-84739534D01*
X145213557Y-84739533D01*
X145297221Y-84583011D01*
X145297222Y-84583009D01*
X145326552Y-84547271D01*
X145409814Y-84445814D01*
X145511271Y-84362552D01*
X145547009Y-84333222D01*
X145564913Y-84323652D01*
X145703533Y-84249557D01*
X145760147Y-84232384D01*
X145873373Y-84198037D01*
X145939558Y-84191518D01*
X146005740Y-84185000D01*
X146094260Y-84185000D01*
X146160442Y-84191518D01*
X146160442Y-84191518D01*
G37*
G36*
X125840442Y-81651518D02*
X125906627Y-81658037D01*
X126019853Y-81692384D01*
X126076467Y-81709557D01*
X126215087Y-81783652D01*
X126232991Y-81793222D01*
X126268729Y-81822552D01*
X126370186Y-81905814D01*
X126453448Y-82007271D01*
X126482778Y-82043009D01*
X126482779Y-82043011D01*
X126566443Y-82199533D01*
X126566443Y-82199534D01*
X126617963Y-82369373D01*
X126635359Y-82546000D01*
X126617963Y-82722627D01*
X126583616Y-82835853D01*
X126566443Y-82892467D01*
X126492348Y-83031087D01*
X126482778Y-83048991D01*
X126453448Y-83084729D01*
X126370186Y-83186186D01*
X126268729Y-83269448D01*
X126232991Y-83298778D01*
X126232989Y-83298779D01*
X126076467Y-83382443D01*
X126019853Y-83399616D01*
X125906627Y-83433963D01*
X125840443Y-83440481D01*
X125774260Y-83447000D01*
X125685740Y-83447000D01*
X125619557Y-83440481D01*
X125553373Y-83433963D01*
X125440147Y-83399616D01*
X125383533Y-83382443D01*
X125227011Y-83298779D01*
X125227009Y-83298778D01*
X125191271Y-83269448D01*
X125089814Y-83186186D01*
X125006552Y-83084729D01*
X124977222Y-83048991D01*
X124967652Y-83031087D01*
X124893557Y-82892467D01*
X124876384Y-82835853D01*
X124842037Y-82722627D01*
X124824641Y-82546000D01*
X124842037Y-82369373D01*
X124893557Y-82199534D01*
X124893557Y-82199533D01*
X124977221Y-82043011D01*
X124977222Y-82043009D01*
X125006552Y-82007271D01*
X125089814Y-81905814D01*
X125191271Y-81822552D01*
X125227009Y-81793222D01*
X125244913Y-81783652D01*
X125383533Y-81709557D01*
X125440147Y-81692384D01*
X125553373Y-81658037D01*
X125619558Y-81651518D01*
X125685740Y-81645000D01*
X125774260Y-81645000D01*
X125840442Y-81651518D01*
X125840442Y-81651518D01*
G37*
G36*
X125840443Y-79111519D02*
X125906627Y-79118037D01*
X126019853Y-79152384D01*
X126076467Y-79169557D01*
X126215087Y-79243652D01*
X126232991Y-79253222D01*
X126268729Y-79282552D01*
X126370186Y-79365814D01*
X126453448Y-79467271D01*
X126482778Y-79503009D01*
X126482779Y-79503011D01*
X126566443Y-79659533D01*
X126574557Y-79686283D01*
X126617963Y-79829373D01*
X126635359Y-80006000D01*
X126617963Y-80182627D01*
X126584221Y-80293861D01*
X126566443Y-80352467D01*
X126562947Y-80359007D01*
X126482778Y-80508991D01*
X126453448Y-80544729D01*
X126370186Y-80646186D01*
X126281675Y-80718824D01*
X126232991Y-80758778D01*
X126232989Y-80758779D01*
X126076467Y-80842443D01*
X126045449Y-80851852D01*
X125906627Y-80893963D01*
X125840442Y-80900482D01*
X125774260Y-80907000D01*
X125685740Y-80907000D01*
X125619558Y-80900482D01*
X125553373Y-80893963D01*
X125414551Y-80851852D01*
X125383533Y-80842443D01*
X125227011Y-80758779D01*
X125227009Y-80758778D01*
X125178325Y-80718824D01*
X125089814Y-80646186D01*
X125006552Y-80544729D01*
X124977222Y-80508991D01*
X124897053Y-80359007D01*
X124893557Y-80352467D01*
X124875779Y-80293861D01*
X124842037Y-80182627D01*
X124824641Y-80006000D01*
X124842037Y-79829373D01*
X124885443Y-79686283D01*
X124893557Y-79659533D01*
X124977221Y-79503011D01*
X124977222Y-79503009D01*
X125006552Y-79467271D01*
X125089814Y-79365814D01*
X125191271Y-79282552D01*
X125227009Y-79253222D01*
X125244913Y-79243652D01*
X125383533Y-79169557D01*
X125440147Y-79152384D01*
X125553373Y-79118037D01*
X125619557Y-79111519D01*
X125685740Y-79105000D01*
X125774260Y-79105000D01*
X125840443Y-79111519D01*
X125840443Y-79111519D01*
G37*
G36*
X145902198Y-78449954D02*
X145914450Y-78450556D01*
X145932869Y-78450556D01*
X145955149Y-78452750D01*
X146039236Y-78469476D01*
X146060655Y-78475974D01*
X146139871Y-78508785D01*
X146159607Y-78519335D01*
X146230897Y-78566969D01*
X146248208Y-78581176D01*
X146308824Y-78641792D01*
X146323031Y-78659103D01*
X146370665Y-78730393D01*
X146381215Y-78750129D01*
X146414026Y-78829345D01*
X146420524Y-78850764D01*
X146437250Y-78934851D01*
X146439444Y-78957131D01*
X146439444Y-78975550D01*
X146440046Y-78987802D01*
X146441852Y-79006140D01*
X146441852Y-79493860D01*
X146440263Y-79509999D01*
X146437347Y-79519611D01*
X146432612Y-79528469D01*
X146426237Y-79536237D01*
X146413798Y-79546446D01*
X146403432Y-79553372D01*
X146386105Y-79570698D01*
X146372490Y-79591073D01*
X146363112Y-79613711D01*
X146358331Y-79637745D01*
X146358331Y-79662249D01*
X146363111Y-79686283D01*
X146372487Y-79708922D01*
X146386101Y-79729297D01*
X146403427Y-79746624D01*
X146413796Y-79753552D01*
X146426237Y-79763763D01*
X146432612Y-79771531D01*
X146437347Y-79780389D01*
X146440263Y-79790001D01*
X146441852Y-79806140D01*
X146441852Y-80293861D01*
X146440046Y-80312198D01*
X146439444Y-80324450D01*
X146439444Y-80342869D01*
X146437250Y-80365149D01*
X146420524Y-80449236D01*
X146414026Y-80470655D01*
X146381215Y-80549871D01*
X146370665Y-80569607D01*
X146323031Y-80640897D01*
X146308824Y-80658208D01*
X146248208Y-80718824D01*
X146230897Y-80733031D01*
X146159607Y-80780665D01*
X146139871Y-80791215D01*
X146060655Y-80824026D01*
X146039236Y-80830524D01*
X145955149Y-80847250D01*
X145932869Y-80849444D01*
X145914450Y-80849444D01*
X145902198Y-80850046D01*
X145883861Y-80851852D01*
X145396139Y-80851852D01*
X145377802Y-80850046D01*
X145365550Y-80849444D01*
X145347131Y-80849444D01*
X145324851Y-80847250D01*
X145240764Y-80830524D01*
X145219345Y-80824026D01*
X145140129Y-80791215D01*
X145120393Y-80780665D01*
X145049103Y-80733031D01*
X145031792Y-80718824D01*
X144971176Y-80658208D01*
X144956969Y-80640897D01*
X144909335Y-80569607D01*
X144898785Y-80549871D01*
X144865974Y-80470655D01*
X144859476Y-80449236D01*
X144842750Y-80365149D01*
X144840556Y-80342869D01*
X144840556Y-80324450D01*
X144839954Y-80312198D01*
X144838148Y-80293861D01*
X144838148Y-79806140D01*
X144839737Y-79790001D01*
X144842653Y-79780389D01*
X144847388Y-79771531D01*
X144853763Y-79763763D01*
X144866202Y-79753554D01*
X144876568Y-79746628D01*
X144893895Y-79729302D01*
X144907510Y-79708927D01*
X144916888Y-79686289D01*
X144921669Y-79662255D01*
X144921669Y-79637751D01*
X144916889Y-79613717D01*
X144907513Y-79591078D01*
X144893899Y-79570703D01*
X144876573Y-79553376D01*
X144866204Y-79546448D01*
X144853763Y-79536237D01*
X144847388Y-79528469D01*
X144842653Y-79519611D01*
X144839737Y-79509999D01*
X144838148Y-79493860D01*
X144838148Y-79006140D01*
X144839954Y-78987802D01*
X144840556Y-78975550D01*
X144840556Y-78957131D01*
X144842750Y-78934851D01*
X144859476Y-78850764D01*
X144865974Y-78829345D01*
X144898785Y-78750129D01*
X144909335Y-78730393D01*
X144956969Y-78659103D01*
X144971176Y-78641792D01*
X145031792Y-78581176D01*
X145049103Y-78566969D01*
X145120393Y-78519335D01*
X145140129Y-78508785D01*
X145219345Y-78475974D01*
X145240764Y-78469476D01*
X145324851Y-78452750D01*
X145347131Y-78450556D01*
X145365550Y-78450556D01*
X145377802Y-78449954D01*
X145396140Y-78448148D01*
X145883860Y-78448148D01*
X145902198Y-78449954D01*
X145902198Y-78449954D01*
G37*
G36*
X125840442Y-76571518D02*
X125906627Y-76578037D01*
X126019853Y-76612384D01*
X126076467Y-76629557D01*
X126215087Y-76703652D01*
X126232991Y-76713222D01*
X126268729Y-76742552D01*
X126370186Y-76825814D01*
X126453448Y-76927271D01*
X126482778Y-76963009D01*
X126482779Y-76963011D01*
X126566443Y-77119533D01*
X126566443Y-77119534D01*
X126617963Y-77289373D01*
X126635359Y-77466000D01*
X126617963Y-77642627D01*
X126583616Y-77755853D01*
X126566443Y-77812467D01*
X126492348Y-77951087D01*
X126482778Y-77968991D01*
X126453448Y-78004729D01*
X126370186Y-78106186D01*
X126268729Y-78189448D01*
X126232991Y-78218778D01*
X126232989Y-78218779D01*
X126076467Y-78302443D01*
X126019853Y-78319616D01*
X125906627Y-78353963D01*
X125840443Y-78360481D01*
X125774260Y-78367000D01*
X125685740Y-78367000D01*
X125619557Y-78360481D01*
X125553373Y-78353963D01*
X125440147Y-78319616D01*
X125383533Y-78302443D01*
X125227011Y-78218779D01*
X125227009Y-78218778D01*
X125191271Y-78189448D01*
X125089814Y-78106186D01*
X125006552Y-78004729D01*
X124977222Y-77968991D01*
X124967652Y-77951087D01*
X124893557Y-77812467D01*
X124876384Y-77755853D01*
X124842037Y-77642627D01*
X124824641Y-77466000D01*
X124842037Y-77289373D01*
X124893557Y-77119534D01*
X124893557Y-77119533D01*
X124977221Y-76963011D01*
X124977222Y-76963009D01*
X125006552Y-76927271D01*
X125089814Y-76825814D01*
X125191271Y-76742552D01*
X125227009Y-76713222D01*
X125244913Y-76703652D01*
X125383533Y-76629557D01*
X125440147Y-76612384D01*
X125553373Y-76578037D01*
X125619558Y-76571518D01*
X125685740Y-76565000D01*
X125774260Y-76565000D01*
X125840442Y-76571518D01*
X125840442Y-76571518D01*
G37*
G36*
X125840442Y-74031518D02*
X125906627Y-74038037D01*
X126019853Y-74072384D01*
X126076467Y-74089557D01*
X126215087Y-74163652D01*
X126232991Y-74173222D01*
X126268729Y-74202552D01*
X126370186Y-74285814D01*
X126453448Y-74387271D01*
X126482778Y-74423009D01*
X126482779Y-74423011D01*
X126566443Y-74579533D01*
X126566443Y-74579534D01*
X126617963Y-74749373D01*
X126635359Y-74926000D01*
X126617963Y-75102627D01*
X126583616Y-75215853D01*
X126566443Y-75272467D01*
X126492348Y-75411087D01*
X126482778Y-75428991D01*
X126453448Y-75464729D01*
X126370186Y-75566186D01*
X126268729Y-75649448D01*
X126232991Y-75678778D01*
X126232989Y-75678779D01*
X126076467Y-75762443D01*
X126019853Y-75779616D01*
X125906627Y-75813963D01*
X125840442Y-75820482D01*
X125774260Y-75827000D01*
X125685740Y-75827000D01*
X125619558Y-75820482D01*
X125553373Y-75813963D01*
X125440147Y-75779616D01*
X125383533Y-75762443D01*
X125227011Y-75678779D01*
X125227009Y-75678778D01*
X125191271Y-75649448D01*
X125089814Y-75566186D01*
X125006552Y-75464729D01*
X124977222Y-75428991D01*
X124967652Y-75411087D01*
X124893557Y-75272467D01*
X124876384Y-75215853D01*
X124842037Y-75102627D01*
X124824641Y-74926000D01*
X124842037Y-74749373D01*
X124893557Y-74579534D01*
X124893557Y-74579533D01*
X124977221Y-74423011D01*
X124977222Y-74423009D01*
X125006552Y-74387271D01*
X125089814Y-74285814D01*
X125191271Y-74202552D01*
X125227009Y-74173222D01*
X125244913Y-74163652D01*
X125383533Y-74089557D01*
X125440147Y-74072384D01*
X125553373Y-74038037D01*
X125619558Y-74031518D01*
X125685740Y-74025000D01*
X125774260Y-74025000D01*
X125840442Y-74031518D01*
X125840442Y-74031518D01*
G37*
G36*
X133478413Y-72364525D02*
X133553456Y-72387290D01*
X133563425Y-72390314D01*
X133641774Y-72432193D01*
X133710448Y-72488552D01*
X133766807Y-72557226D01*
X133808686Y-72635575D01*
X133808687Y-72635579D01*
X133834475Y-72720587D01*
X133843182Y-72809000D01*
X133834475Y-72897413D01*
X133817455Y-72953518D01*
X133808686Y-72982425D01*
X133766807Y-73060774D01*
X133710448Y-73129448D01*
X133641774Y-73185807D01*
X133563425Y-73227686D01*
X133553456Y-73230710D01*
X133478413Y-73253475D01*
X133412158Y-73260000D01*
X133367842Y-73260000D01*
X133301587Y-73253475D01*
X133226544Y-73230710D01*
X133216575Y-73227686D01*
X133163265Y-73199191D01*
X133138225Y-73185807D01*
X133099687Y-73154179D01*
X133078571Y-73136850D01*
X133058202Y-73123239D01*
X133035563Y-73113862D01*
X133011529Y-73109081D01*
X132987025Y-73109081D01*
X132962992Y-73113861D01*
X132940352Y-73123238D01*
X132919978Y-73136852D01*
X132902650Y-73154179D01*
X132889036Y-73174553D01*
X132879659Y-73197192D01*
X132874878Y-73221226D01*
X132874878Y-73245730D01*
X132879658Y-73269763D01*
X132883157Y-73278212D01*
X132885398Y-73285599D01*
X132885399Y-73285601D01*
X132923727Y-73411953D01*
X132929772Y-73431881D01*
X132941000Y-73545882D01*
X132941000Y-74172118D01*
X132929772Y-74286119D01*
X132929771Y-74286121D01*
X132929771Y-74286122D01*
X132888247Y-74423011D01*
X132885398Y-74432401D01*
X132813341Y-74567210D01*
X132716369Y-74685369D01*
X132598209Y-74782341D01*
X132598207Y-74782342D01*
X132463398Y-74854399D01*
X132344351Y-74890511D01*
X132317118Y-74898772D01*
X132165000Y-74913754D01*
X132012881Y-74898772D01*
X131985648Y-74890511D01*
X131866601Y-74854399D01*
X131731792Y-74782342D01*
X131731790Y-74782341D01*
X131613631Y-74685369D01*
X131516659Y-74567209D01*
X131444602Y-74432400D01*
X131400228Y-74286118D01*
X131389000Y-74172117D01*
X131389000Y-73545882D01*
X131400228Y-73431881D01*
X131444602Y-73285599D01*
X131516660Y-73150790D01*
X131613632Y-73032631D01*
X131731791Y-72935659D01*
X131866600Y-72863602D01*
X131866602Y-72863601D01*
X132012879Y-72819229D01*
X132012882Y-72819228D01*
X132165000Y-72804246D01*
X132317119Y-72819228D01*
X132317122Y-72819229D01*
X132463399Y-72863601D01*
X132463401Y-72863602D01*
X132598210Y-72935659D01*
X132679114Y-73002056D01*
X132716367Y-73032629D01*
X132716370Y-73032632D01*
X132746304Y-73069105D01*
X132763631Y-73086432D01*
X132784006Y-73100046D01*
X132806645Y-73109423D01*
X132830678Y-73114203D01*
X132855183Y-73114203D01*
X132879216Y-73109422D01*
X132901855Y-73100044D01*
X132922229Y-73086430D01*
X132939556Y-73069103D01*
X132953170Y-73048728D01*
X132962547Y-73026089D01*
X132967327Y-73002056D01*
X132967327Y-72977551D01*
X132962547Y-72953524D01*
X132956167Y-72932489D01*
X132945525Y-72897411D01*
X132936818Y-72809000D01*
X132945525Y-72720587D01*
X132971313Y-72635579D01*
X132971314Y-72635575D01*
X133013193Y-72557226D01*
X133069552Y-72488552D01*
X133138226Y-72432193D01*
X133216575Y-72390314D01*
X133226544Y-72387290D01*
X133301587Y-72364525D01*
X133367842Y-72358000D01*
X133412158Y-72358000D01*
X133478413Y-72364525D01*
X133478413Y-72364525D01*
G37*
G36*
X138478413Y-72364525D02*
X138553456Y-72387290D01*
X138563425Y-72390314D01*
X138641774Y-72432193D01*
X138710448Y-72488552D01*
X138766807Y-72557226D01*
X138808686Y-72635575D01*
X138808687Y-72635579D01*
X138834475Y-72720587D01*
X138843182Y-72809000D01*
X138834475Y-72897413D01*
X138817454Y-72953521D01*
X138812673Y-72977554D01*
X138812673Y-73002058D01*
X138817453Y-73026092D01*
X138826830Y-73048731D01*
X138840444Y-73069106D01*
X138857771Y-73086433D01*
X138878146Y-73100047D01*
X138900785Y-73109424D01*
X138924818Y-73114205D01*
X138949322Y-73114205D01*
X138973356Y-73109425D01*
X138995995Y-73100048D01*
X139016370Y-73086434D01*
X139033698Y-73069106D01*
X139063632Y-73032631D01*
X139063634Y-73032629D01*
X139181791Y-72935659D01*
X139316600Y-72863602D01*
X139316602Y-72863601D01*
X139462879Y-72819229D01*
X139462882Y-72819228D01*
X139615000Y-72804246D01*
X139767119Y-72819228D01*
X139767122Y-72819229D01*
X139913399Y-72863601D01*
X139913401Y-72863602D01*
X140048210Y-72935659D01*
X140166369Y-73032631D01*
X140263341Y-73150790D01*
X140335398Y-73285599D01*
X140379772Y-73431881D01*
X140391000Y-73545882D01*
X140391000Y-74172118D01*
X140379772Y-74286119D01*
X140379771Y-74286121D01*
X140379771Y-74286122D01*
X140338247Y-74423011D01*
X140335398Y-74432401D01*
X140263341Y-74567210D01*
X140166369Y-74685369D01*
X140048209Y-74782341D01*
X140048207Y-74782342D01*
X139913398Y-74854399D01*
X139794351Y-74890511D01*
X139767118Y-74898772D01*
X139615000Y-74913754D01*
X139462881Y-74898772D01*
X139435648Y-74890511D01*
X139316601Y-74854399D01*
X139181792Y-74782342D01*
X139181790Y-74782341D01*
X139063631Y-74685369D01*
X138966659Y-74567209D01*
X138894602Y-74432400D01*
X138850228Y-74286118D01*
X138839000Y-74172117D01*
X138839000Y-73545882D01*
X138850228Y-73431881D01*
X138896844Y-73278208D01*
X138900345Y-73269754D01*
X138905123Y-73245721D01*
X138905121Y-73221216D01*
X138900338Y-73197183D01*
X138890959Y-73174545D01*
X138877344Y-73154172D01*
X138860015Y-73136846D01*
X138839639Y-73123234D01*
X138816999Y-73113858D01*
X138792966Y-73109080D01*
X138768461Y-73109082D01*
X138744428Y-73113865D01*
X138721790Y-73123244D01*
X138701429Y-73136850D01*
X138680313Y-73154179D01*
X138641775Y-73185807D01*
X138616735Y-73199191D01*
X138563425Y-73227686D01*
X138553456Y-73230710D01*
X138478413Y-73253475D01*
X138412158Y-73260000D01*
X138367842Y-73260000D01*
X138301587Y-73253475D01*
X138226544Y-73230710D01*
X138216575Y-73227686D01*
X138138226Y-73185807D01*
X138069552Y-73129448D01*
X138013193Y-73060774D01*
X137971314Y-72982425D01*
X137962545Y-72953518D01*
X137945525Y-72897413D01*
X137936818Y-72809000D01*
X137945525Y-72720587D01*
X137971313Y-72635579D01*
X137971314Y-72635575D01*
X138013193Y-72557226D01*
X138069552Y-72488552D01*
X138138226Y-72432193D01*
X138216575Y-72390314D01*
X138226544Y-72387290D01*
X138301587Y-72364525D01*
X138367842Y-72358000D01*
X138412158Y-72358000D01*
X138478413Y-72364525D01*
X138478413Y-72364525D01*
G37*
G36*
X127477933Y-69540466D02*
X127776120Y-69663979D01*
X128044486Y-69843296D01*
X128272704Y-70071514D01*
X128452021Y-70339880D01*
X128575534Y-70638067D01*
X128638500Y-70954620D01*
X128638500Y-71277380D01*
X128575534Y-71593933D01*
X128452021Y-71892120D01*
X128272704Y-72160486D01*
X128044486Y-72388704D01*
X127776120Y-72568021D01*
X127477933Y-72691534D01*
X127161380Y-72754500D01*
X126838620Y-72754500D01*
X126522067Y-72691534D01*
X126223880Y-72568021D01*
X125955514Y-72388704D01*
X125727296Y-72160486D01*
X125547979Y-71892120D01*
X125424466Y-71593933D01*
X125361500Y-71277380D01*
X125361500Y-70954620D01*
X125424466Y-70638067D01*
X125547979Y-70339880D01*
X125727296Y-70071514D01*
X125955514Y-69843296D01*
X126223880Y-69663979D01*
X126522067Y-69540466D01*
X126838620Y-69477500D01*
X127161380Y-69477500D01*
X127477933Y-69540466D01*
X127477933Y-69540466D01*
G37*
G36*
X145257933Y-69540466D02*
X145556120Y-69663979D01*
X145824486Y-69843296D01*
X146052704Y-70071514D01*
X146232021Y-70339880D01*
X146355534Y-70638067D01*
X146418500Y-70954620D01*
X146418500Y-71277380D01*
X146355534Y-71593933D01*
X146232021Y-71892120D01*
X146052704Y-72160486D01*
X145824486Y-72388704D01*
X145556120Y-72568021D01*
X145257933Y-72691534D01*
X144941380Y-72754500D01*
X144618620Y-72754500D01*
X144302067Y-72691534D01*
X144003880Y-72568021D01*
X143735514Y-72388704D01*
X143507296Y-72160486D01*
X143327979Y-71892120D01*
X143204466Y-71593933D01*
X143141500Y-71277380D01*
X143141500Y-70954620D01*
X143204466Y-70638067D01*
X143327979Y-70339880D01*
X143507296Y-70071514D01*
X143735514Y-69843296D01*
X144003880Y-69663979D01*
X144302067Y-69540466D01*
X144618620Y-69477500D01*
X144941380Y-69477500D01*
X145257933Y-69540466D01*
X145257933Y-69540466D01*
G37*
G36*
X132137714Y-69117058D02*
X132137717Y-69117059D01*
X132255719Y-69152854D01*
X132255721Y-69152855D01*
X132364471Y-69210983D01*
X132459790Y-69289210D01*
X132538017Y-69384529D01*
X132538018Y-69384531D01*
X132596146Y-69493281D01*
X132625278Y-69589317D01*
X132631942Y-69611286D01*
X132641000Y-69703253D01*
X132641000Y-70414747D01*
X132631942Y-70506714D01*
X132596145Y-70624721D01*
X132538017Y-70733471D01*
X132459793Y-70828787D01*
X132459791Y-70828788D01*
X132459790Y-70828790D01*
X132364468Y-70907018D01*
X132255718Y-70965146D01*
X132159682Y-70994278D01*
X132137713Y-71000942D01*
X132015000Y-71013028D01*
X131892286Y-71000942D01*
X131870317Y-70994278D01*
X131774281Y-70965146D01*
X131665531Y-70907018D01*
X131665529Y-70907017D01*
X131570213Y-70828793D01*
X131570212Y-70828791D01*
X131570210Y-70828790D01*
X131491982Y-70733468D01*
X131433854Y-70624718D01*
X131398059Y-70506716D01*
X131398058Y-70506713D01*
X131389000Y-70414746D01*
X131389000Y-69703253D01*
X131398058Y-69611286D01*
X131433854Y-69493281D01*
X131442289Y-69477500D01*
X131491983Y-69384531D01*
X131570211Y-69289210D01*
X131665530Y-69210983D01*
X131774280Y-69152855D01*
X131774282Y-69152854D01*
X131892284Y-69117059D01*
X131892287Y-69117058D01*
X132015000Y-69104972D01*
X132137714Y-69117058D01*
X132137714Y-69117058D01*
G37*
G36*
X139887714Y-69117058D02*
X139887717Y-69117059D01*
X140005719Y-69152854D01*
X140005721Y-69152855D01*
X140114471Y-69210983D01*
X140209790Y-69289210D01*
X140288017Y-69384529D01*
X140288018Y-69384531D01*
X140346146Y-69493281D01*
X140375278Y-69589317D01*
X140381942Y-69611286D01*
X140391000Y-69703253D01*
X140391000Y-70414747D01*
X140381942Y-70506714D01*
X140346145Y-70624721D01*
X140288017Y-70733471D01*
X140209793Y-70828787D01*
X140209791Y-70828788D01*
X140209790Y-70828790D01*
X140114468Y-70907018D01*
X140005718Y-70965146D01*
X139909682Y-70994278D01*
X139887713Y-71000942D01*
X139765000Y-71013028D01*
X139642286Y-71000942D01*
X139620317Y-70994278D01*
X139524281Y-70965146D01*
X139415531Y-70907018D01*
X139415529Y-70907017D01*
X139320213Y-70828793D01*
X139320212Y-70828791D01*
X139320210Y-70828790D01*
X139241982Y-70733468D01*
X139183854Y-70624718D01*
X139148059Y-70506716D01*
X139148058Y-70506713D01*
X139139000Y-70414746D01*
X139139000Y-69703253D01*
X139148058Y-69611286D01*
X139183854Y-69493281D01*
X139192289Y-69477500D01*
X139241983Y-69384531D01*
X139320211Y-69289210D01*
X139415530Y-69210983D01*
X139524280Y-69152855D01*
X139524282Y-69152854D01*
X139642284Y-69117059D01*
X139642287Y-69117058D01*
X139765000Y-69104972D01*
X139887714Y-69117058D01*
X139887714Y-69117058D01*
G37*
M02*
