M48
; DRILL file {KiCad (5.1.2-1)-1} date 2019 July 31, Wednesday 11:47:11
; FORMAT={-:-/ absolute / metric / decimal}
; #@! TF.CreationDate,2019-07-31T11:47:11+02:00
; #@! TF.GenerationSoftware,Kicad,Pcbnew,(5.1.2-1)-1
FMAT,2
METRIC
T1C0.254
T2C0.305
T3C0.900
%
G90
G05
T1
X129.663Y-73.66
X129.663Y-74.93
X130.14Y-88.82
X130.277Y-75.413
X130.327Y-74.193
X130.81Y-73.66
X130.81Y-74.93
X130.81Y-77.483
X130.835Y-81.745
X130.886Y-76.175
X130.98Y-81.1
X131.23Y-84.25
X131.24Y-78.0
X131.3Y-83.375
X131.42Y-76.886
X131.5Y-81.16
X131.521Y-74.244
X131.521Y-75.565
X132.06Y-78.28
X132.08Y-73.66
X132.08Y-74.93
X132.08Y-76.2
X132.09Y-78.88
X132.11Y-81.1
X132.131Y-77.47
X132.2Y-82.13
X132.2Y-85.25
X132.25Y-86.96
X132.84Y-79.06
X132.867Y-76.911
X132.893Y-77.572
X132.918Y-74.407
X132.94Y-83.2
X132.99Y-84.45
X133.35Y-73.66
X133.39Y-80.68
X133.41Y-83.19
X133.504Y-85.84
X133.616Y-84.7
X133.77Y-81.02
X133.975Y-75.675
X133.98Y-77.23
X133.99Y-78.6
X134.0Y-76.475
X134.0Y-77.95
X134.001Y-87.412
X134.35Y-84.11
X134.35Y-84.75
X134.35Y-86.06
X134.36Y-82.23
X134.513Y-75.672
X134.62Y-73.66
X134.8Y-79.45
X134.915Y-85.382
X134.93Y-87.57
X134.99Y-82.21
X135.0Y-84.11
X135.0Y-84.76
X135.002Y-83.45
X135.02Y-86.055
X135.034Y-87.005
X135.225Y-75.6
X135.37Y-81.26
X135.599Y-87.23
X135.6Y-84.81
X135.64Y-84.16
X135.65Y-82.87
X135.65Y-83.52
X135.65Y-85.4
X135.651Y-86.058
X135.775Y-77.027
X135.775Y-76.59
X135.785Y-75.66
X135.89Y-73.66
X135.899Y-81.16
X136.175Y-79.45
X136.24Y-82.16
X136.25Y-82.82
X136.275Y-76.59
X136.285Y-75.66
X136.29Y-84.12
X136.32Y-85.39
X136.8Y-76.59
X136.804Y-74.599
X136.81Y-75.66
X136.859Y-79.45
X136.88Y-82.23
X136.88Y-86.04
X136.889Y-82.87
X136.92Y-84.14
X136.92Y-84.79
X136.94Y-83.5
X136.951Y-85.403
X137.075Y-77.6
X137.09Y-78.4
X137.16Y-73.66
X137.162Y-81.193
X137.34Y-74.59
X137.36Y-75.66
X137.36Y-76.59
X137.391Y-87.6
X137.518Y-82.786
X137.52Y-86.03
X137.526Y-82.141
X137.53Y-83.45
X137.59Y-84.76
X137.62Y-85.48
X137.66Y-78.4
X137.93Y-76.59
X137.93Y-77.22
X137.95Y-75.66
X137.97Y-74.59
X138.17Y-87.51
X138.19Y-78.4
X138.19Y-84.11
X138.19Y-84.82
X138.198Y-82.821
X138.337Y-87.057
X138.425Y-81.22
X138.46Y-79.34
X138.47Y-80.41
X138.69Y-74.25
X138.806Y-77.135
X138.86Y-80.82
X138.93Y-82.59
X139.15Y-84.45
X139.15Y-82.02
X139.21Y-87.47
X139.22Y-85.33
X139.365Y-77.202
X139.44Y-75.61
X139.48Y-83.34
X139.51Y-80.09
X139.62Y-82.02
X139.64Y-81.47
X139.97Y-79.73
X140.19Y-74.27
X140.4Y-80.84
X140.41Y-79.21
X140.41Y-84.87
X140.74Y-80.49
X140.82Y-74.68
X140.85Y-76.08
X140.85Y-76.87
X140.86Y-75.54
X140.91Y-78.17
X141.01Y-84.88
X141.095Y-80.894
X141.3Y-74.72
X141.375Y-79.925
X141.48Y-73.51
X141.5Y-82.16
X141.71Y-75.0
X141.745Y-79.555
X141.805Y-86.925
X141.83Y-85.81
X141.86Y-75.52
X141.86Y-76.2
X141.86Y-76.89
X141.86Y-78.16
X142.24Y-82.29
X142.77Y-73.51
X142.79Y-75.21
T2
X138.89Y-79.81
X139.45Y-79.475
X141.783Y-87.63
X141.928Y-88.334
X142.545Y-88.748
T3
X129.286Y-76.2
X129.286Y-77.47
X129.286Y-78.74
X129.286Y-80.01
X129.286Y-81.28
X129.286Y-82.55
X129.286Y-83.82
X129.286Y-85.09
X129.286Y-86.36
X129.286Y-87.63
X131.826Y-89.535
X133.096Y-89.535
X134.366Y-89.535
X135.636Y-89.535
X136.906Y-89.535
X138.176Y-73.025
X138.176Y-89.535
X139.446Y-73.025
X139.446Y-89.535
X140.716Y-73.025
X140.716Y-89.535
X143.256Y-76.2
X143.256Y-77.47
X143.256Y-78.74
X143.256Y-80.01
X143.256Y-81.28
X143.256Y-82.55
X143.256Y-83.82
X143.256Y-85.09
X143.256Y-86.36
X143.256Y-87.63
T0
M30
