G04 #@! TF.GenerationSoftware,KiCad,Pcbnew,(5.1.5)-2*
G04 #@! TF.CreationDate,2019-12-17T00:31:01+01:00*
G04 #@! TF.ProjectId,Penguino-Feather-4260-v1,50656e67-7569-46e6-9f2d-466561746865,1.1*
G04 #@! TF.SameCoordinates,Original*
G04 #@! TF.FileFunction,Copper,L3,Inr*
G04 #@! TF.FilePolarity,Positive*
%FSLAX46Y46*%
G04 Gerber Fmt 4.6, Leading zero omitted, Abs format (unit mm)*
G04 Created by KiCad (PCBNEW (5.1.5)-2) date 2019-12-17 00:31:01*
%MOMM*%
%LPD*%
G04 APERTURE LIST*
%ADD10C,0.150000*%
%ADD11C,3.175000*%
%ADD12C,2.540000*%
%ADD13O,1.700000X1.700000*%
%ADD14O,0.900000X2.000000*%
%ADD15O,0.900000X1.700000*%
%ADD16C,0.600000*%
%ADD17C,0.450000*%
%ADD18C,0.550000*%
%ADD19C,0.350000*%
%ADD20C,0.800000*%
%ADD21C,0.250000*%
%ADD22C,0.300000*%
%ADD23C,0.200000*%
%ADD24C,0.350000*%
%ADD25C,0.180000*%
%ADD26C,0.254000*%
G04 APERTURE END LIST*
D10*
X127000000Y-119380000D02*
G75*
G02X124460000Y-116840000I0J2540000D01*
G01*
X147320000Y-116840000D02*
G75*
G02X144780000Y-119380000I-2540000J0D01*
G01*
X144780000Y-68580000D02*
G75*
G02X147320000Y-71120000I0J-2540000D01*
G01*
X124460000Y-71120000D02*
G75*
G02X127000000Y-68580000I2540000J0D01*
G01*
X124460000Y-116840000D02*
X124460000Y-71120000D01*
X144780000Y-119380000D02*
X127000000Y-119380000D01*
X147320000Y-71120000D02*
X147320000Y-116840000D01*
X127000000Y-68580000D02*
X144780000Y-68580000D01*
D11*
X127000000Y-71120000D03*
X144780000Y-71120000D03*
D12*
X144780000Y-116840000D03*
X127000000Y-116840000D03*
D13*
X125730000Y-74930000D03*
X125730000Y-77470000D03*
X125730000Y-80010000D03*
X125730000Y-82550000D03*
X125730000Y-85090000D03*
X125730000Y-87630000D03*
X125730000Y-90170000D03*
X125730000Y-92710000D03*
X125730000Y-95250000D03*
X125730000Y-97790000D03*
X125730000Y-100330000D03*
X125730000Y-102870000D03*
X125730000Y-105410000D03*
X125730000Y-107950000D03*
X125730000Y-110490000D03*
X125730000Y-113030000D03*
X146050000Y-113030000D03*
X146050000Y-110490000D03*
X146050000Y-107950000D03*
X146050000Y-105410000D03*
X146050000Y-102870000D03*
X146050000Y-100330000D03*
X146050000Y-97790000D03*
X146050000Y-95250000D03*
X146050000Y-92710000D03*
X146050000Y-90170000D03*
X146050000Y-87630000D03*
X146050000Y-85090000D03*
D14*
X140210000Y-73812000D03*
X131570000Y-73812000D03*
D15*
X140210000Y-69642000D03*
X131570000Y-69642000D03*
D16*
X145350000Y-81080000D03*
X145350000Y-78480000D03*
X145350007Y-79790007D03*
D17*
X137915802Y-113844150D03*
X138473812Y-113844150D03*
X139031821Y-113844150D03*
X139031821Y-112244150D03*
X138473812Y-112244150D03*
X137915802Y-112244150D03*
D16*
X131700000Y-75490000D03*
X139070000Y-75710000D03*
X146080000Y-73190000D03*
X142650000Y-86350000D03*
X145060000Y-86350000D03*
X137380000Y-90020000D03*
X137400000Y-90860000D03*
D17*
X134020000Y-77290000D03*
D18*
X141150000Y-90790000D03*
X134100000Y-83000000D03*
X142350000Y-78750000D03*
X139600000Y-77550000D03*
D17*
X137390000Y-84970000D03*
X131825000Y-105675000D03*
X130175000Y-107250000D03*
X131675000Y-108475000D03*
X135075000Y-108100000D03*
D18*
X130290000Y-93570000D03*
D17*
X129475001Y-97967778D03*
X126795002Y-93680000D03*
X141875000Y-106275000D03*
X140455410Y-95930009D03*
X129848000Y-79823000D03*
X139600000Y-112250000D03*
X139600000Y-113850000D03*
X140200000Y-114000000D03*
X140650000Y-114400000D03*
X140200000Y-112050000D03*
X140650000Y-111750000D03*
X137350000Y-112244150D03*
X137350000Y-113850000D03*
X136800000Y-113850000D03*
X136800000Y-112250000D03*
X136250000Y-112250000D03*
X135700000Y-112250000D03*
X134350000Y-111900000D03*
X133900000Y-111500000D03*
X133560000Y-111050000D03*
X133550000Y-110475000D03*
X131950000Y-111450000D03*
X132275000Y-111975000D03*
X132700000Y-112400000D03*
X133050000Y-112800000D03*
X134375000Y-113700000D03*
X135100000Y-113750000D03*
X134875000Y-114350000D03*
X136925000Y-114400000D03*
X137050000Y-115000000D03*
X134750000Y-115000000D03*
X134750000Y-115600000D03*
X134750000Y-116150000D03*
X134750000Y-116750000D03*
X134750000Y-117300000D03*
X134750000Y-117850000D03*
X134750000Y-118400000D03*
X134750000Y-118950000D03*
X137050000Y-118950000D03*
X137050000Y-118400000D03*
X137050000Y-117850000D03*
X137050000Y-117300000D03*
X137050000Y-116750000D03*
X137050000Y-116150000D03*
X137050000Y-115600000D03*
X125849600Y-114620600D03*
X127054400Y-112211000D03*
X127656800Y-108596600D03*
X128861600Y-114018200D03*
X128861600Y-118235000D03*
X129464000Y-69440600D03*
X129464000Y-103175000D03*
X129464000Y-110403800D03*
X130668800Y-105584600D03*
X130430000Y-116310000D03*
X131040000Y-112360000D03*
X133200000Y-70510000D03*
X133680800Y-100163000D03*
X134840000Y-75630000D03*
X134885600Y-104982200D03*
X134885600Y-111006200D03*
X135910000Y-70440000D03*
X136090400Y-107391800D03*
X136800000Y-75650000D03*
X137295200Y-79681400D03*
X138830000Y-70510000D03*
X140307200Y-115825400D03*
X141512000Y-69440600D03*
X141512000Y-76067000D03*
X141512000Y-101367800D03*
X141512000Y-118235000D03*
X142114400Y-80283800D03*
X142114400Y-112813400D03*
X143319200Y-91127000D03*
X143921600Y-114620600D03*
X142240000Y-116840000D03*
X130430000Y-117010000D03*
X130290000Y-111180000D03*
X127000000Y-114300000D03*
X143510000Y-113030000D03*
X128570000Y-109310000D03*
X142340000Y-110180000D03*
X140350000Y-118050000D03*
X131540000Y-118290000D03*
X130430000Y-117620000D03*
X128480000Y-115190000D03*
X128410000Y-111360000D03*
D18*
X133845414Y-79650963D03*
D17*
X135710000Y-72040000D03*
D18*
X134050000Y-87620000D03*
D19*
X131660000Y-114030000D03*
D17*
X138925000Y-87275000D03*
D16*
X135820000Y-82510000D03*
X141460000Y-84100000D03*
X140890000Y-83530000D03*
X135800000Y-81560000D03*
D17*
X142702420Y-72817580D03*
D16*
X138310000Y-90040000D03*
X139170000Y-91770000D03*
X137830000Y-93430000D03*
D17*
X141000000Y-103675000D03*
X140450000Y-104650000D03*
X145450000Y-101575000D03*
X144657420Y-97767420D03*
X133607590Y-90463751D03*
D16*
X144410000Y-105860000D03*
X144404484Y-104944484D03*
D17*
X133935102Y-88544902D03*
X135540000Y-76781246D03*
X130820000Y-95930000D03*
X135650000Y-73240000D03*
X136660000Y-73240000D03*
X136240000Y-76781246D03*
X131520000Y-95930000D03*
X126825000Y-88875000D03*
X127490000Y-97350000D03*
X129510002Y-100440000D03*
X128402894Y-82901438D03*
X128195188Y-89850000D03*
X131098026Y-97791707D03*
X139110000Y-88140000D03*
X135592410Y-88850000D03*
X136225000Y-105950000D03*
X140825000Y-98825000D03*
X130150000Y-85675000D03*
X129250000Y-89750000D03*
D19*
X140140000Y-93830000D03*
D17*
X144670000Y-100080000D03*
X140750000Y-105775000D03*
D19*
X139690000Y-95730000D03*
D17*
X144650000Y-102675000D03*
X140285000Y-106965000D03*
X128594168Y-80544168D03*
X137150000Y-95572590D03*
X141774920Y-99125081D03*
X129600000Y-105250000D03*
X134842075Y-98304821D03*
X133820961Y-98772231D03*
X137580068Y-99849061D03*
X130900000Y-102425000D03*
X127375000Y-104075000D03*
X136225000Y-108575000D03*
X137050000Y-110675000D03*
X138050000Y-110470179D03*
X140025000Y-108125000D03*
X141394563Y-100141744D03*
X138500000Y-97500000D03*
X128519643Y-95120022D03*
X142890000Y-72140000D03*
X142780000Y-87330000D03*
X126940000Y-73630000D03*
X135175000Y-88375000D03*
X140775000Y-108500000D03*
X136345187Y-103324873D03*
X141189329Y-99413178D03*
D20*
X135800000Y-82490000D02*
X135820000Y-82510000D01*
X135800000Y-81560000D02*
X135800000Y-82490000D01*
X139870000Y-82510000D02*
X141460000Y-84100000D01*
X135820000Y-82510000D02*
X139870000Y-82510000D01*
X143570000Y-90170000D02*
X146050000Y-90170000D01*
X141460000Y-84100000D02*
X141460000Y-88060000D01*
X141460000Y-88060000D02*
X143570000Y-90170000D01*
D21*
X140890000Y-74630000D02*
X142477421Y-73042579D01*
X142477421Y-73042579D02*
X142702420Y-72817580D01*
X140890000Y-83530000D02*
X140890000Y-74630000D01*
D22*
X145450000Y-101575000D02*
X143700000Y-101575000D01*
D23*
X144339222Y-97767420D02*
X144657420Y-97767420D01*
D22*
X143680000Y-97770000D02*
X143682580Y-97767420D01*
X143682580Y-97767420D02*
X144339222Y-97767420D01*
D23*
X143770000Y-97770000D02*
X143772580Y-97767420D01*
D22*
X144657420Y-97767420D02*
X144249420Y-97767420D01*
D23*
X143772580Y-97767420D02*
X144249420Y-97767420D01*
X144249420Y-97767420D02*
X144339222Y-97767420D01*
D24*
X142939000Y-104650000D02*
X140450000Y-104650000D01*
X143889000Y-105600000D02*
X142939000Y-104650000D01*
X144410000Y-105860000D02*
X143889000Y-105600000D01*
X144384264Y-104200000D02*
X144380000Y-104200000D01*
X143855000Y-103675000D02*
X141000000Y-103675000D01*
X144400000Y-104215736D02*
X144384264Y-104200000D01*
X144404484Y-104944484D02*
X144400000Y-104215736D01*
X144380000Y-104200000D02*
X143855000Y-103675000D01*
D25*
X127490000Y-97031802D02*
X127490000Y-97350000D01*
X126825000Y-88875000D02*
X127305001Y-89355001D01*
X127305001Y-96846803D02*
X127490000Y-97031802D01*
X127305001Y-89355001D02*
X127305001Y-96846803D01*
X126900000Y-97829998D02*
X129285003Y-100215001D01*
X126900000Y-94650000D02*
X126900000Y-97829998D01*
X129285003Y-100215001D02*
X129510002Y-100440000D01*
X125730000Y-93480000D02*
X126900000Y-94650000D01*
X125730000Y-92710000D02*
X125730000Y-93480000D01*
D21*
X128402894Y-82901438D02*
X128402894Y-83219636D01*
X128402894Y-83219636D02*
X128195188Y-83427342D01*
X128195188Y-83427342D02*
X128195188Y-89850000D01*
X130221707Y-97791707D02*
X130779828Y-97791707D01*
X128195188Y-94351257D02*
X128017233Y-94529212D01*
X128017233Y-94529212D02*
X128017233Y-95587233D01*
X128017233Y-95587233D02*
X130221707Y-97791707D01*
X128195188Y-89850000D02*
X128195188Y-94351257D01*
X130779828Y-97791707D02*
X131098026Y-97791707D01*
D23*
X140506802Y-98825000D02*
X140825000Y-98825000D01*
X136225000Y-105950000D02*
X135750000Y-105475000D01*
X135750000Y-105475000D02*
X135750000Y-103144095D01*
X135750000Y-103144095D02*
X140069095Y-98825000D01*
X140069095Y-98825000D02*
X140506802Y-98825000D01*
X129250000Y-86575000D02*
X129250000Y-89750000D01*
X130150000Y-85675000D02*
X129250000Y-86575000D01*
X137672513Y-96050000D02*
X139892513Y-93830000D01*
X129250000Y-89750000D02*
X129250000Y-93990000D01*
X139892513Y-93830000D02*
X140140000Y-93830000D01*
X130490000Y-95230000D02*
X132156616Y-95230000D01*
X129250000Y-93990000D02*
X130490000Y-95230000D01*
X132976616Y-96050000D02*
X137672513Y-96050000D01*
X132156616Y-95230000D02*
X132976616Y-96050000D01*
X140125000Y-105775000D02*
X140750000Y-105775000D01*
X140550000Y-107530000D02*
X139930000Y-107530000D01*
X139600000Y-107200000D02*
X139600000Y-106300000D01*
X146050000Y-113030000D02*
X140550000Y-107530000D01*
X139930000Y-107530000D02*
X139600000Y-107200000D01*
X139600000Y-106300000D02*
X140125000Y-105775000D01*
D25*
X126932081Y-87630000D02*
X125730000Y-87630000D01*
X127717411Y-88415330D02*
X126932081Y-87630000D01*
X127717411Y-94295295D02*
X127717411Y-88415330D01*
X127639822Y-94372884D02*
X127717411Y-94295295D01*
X138028446Y-98160000D02*
X137618446Y-97750000D01*
X137618446Y-97750000D02*
X132290000Y-97750000D01*
X138840000Y-98160000D02*
X138028446Y-98160000D01*
X139690000Y-95730000D02*
X139690000Y-97310000D01*
X131440000Y-98600000D02*
X128560000Y-98600000D01*
X132290000Y-97750000D02*
X131440000Y-98600000D01*
X128560000Y-98600000D02*
X128068799Y-98108799D01*
X139690000Y-97310000D02*
X138840000Y-98160000D01*
X128068799Y-96931201D02*
X127639822Y-96502224D01*
X128068799Y-98108799D02*
X128068799Y-96931201D01*
X127639822Y-96502224D02*
X127639822Y-94372884D01*
D23*
X142525000Y-106965000D02*
X140285000Y-106965000D01*
X146050000Y-110490000D02*
X142525000Y-106965000D01*
X136377410Y-94800000D02*
X136925001Y-95347591D01*
X130660000Y-94800000D02*
X136377410Y-94800000D01*
X129625000Y-93765000D02*
X130660000Y-94800000D01*
X131000000Y-82950000D02*
X131000000Y-85925000D01*
X136925001Y-95347591D02*
X137150000Y-95572590D01*
X128594168Y-80544168D02*
X131000000Y-82950000D01*
X130100000Y-91400000D02*
X129625000Y-91875000D01*
X129625000Y-91875000D02*
X129625000Y-93765000D01*
X131000000Y-85925000D02*
X130100000Y-86825000D01*
X130100000Y-86825000D02*
X130100000Y-91400000D01*
D22*
X128722598Y-86533307D02*
X129275000Y-85980905D01*
X128722598Y-94162598D02*
X128722598Y-86533307D01*
X129260000Y-94700000D02*
X128722598Y-94162598D01*
X129260000Y-95420000D02*
X129260000Y-94700000D01*
X127010000Y-80010000D02*
X126932081Y-80010000D01*
X141440000Y-96735000D02*
X141440000Y-95650000D01*
X141440000Y-95650000D02*
X140920000Y-95130000D01*
X133275000Y-104900000D02*
X141440000Y-96735000D01*
X139369248Y-95130000D02*
X139000000Y-95499248D01*
X130490000Y-96650000D02*
X129260000Y-95420000D01*
X129950000Y-104900000D02*
X133275000Y-104900000D01*
X138700000Y-96650000D02*
X130490000Y-96650000D01*
X129275000Y-85980905D02*
X129275000Y-82275000D01*
X140920000Y-95130000D02*
X139369248Y-95130000D01*
X129275000Y-82275000D02*
X127010000Y-80010000D01*
X139000000Y-95499248D02*
X139000000Y-96350000D01*
X126932081Y-80010000D02*
X125730000Y-80010000D01*
X129600000Y-105250000D02*
X129950000Y-104900000D01*
X139000000Y-96350000D02*
X138700000Y-96650000D01*
D25*
X133300000Y-98200000D02*
X130550000Y-100950000D01*
X134842075Y-98304821D02*
X134737254Y-98200000D01*
X134737254Y-98200000D02*
X133300000Y-98200000D01*
X130550000Y-100950000D02*
X128890000Y-100950000D01*
X128890000Y-100950000D02*
X125730000Y-97790000D01*
D23*
X131243192Y-101350000D02*
X133595962Y-98997230D01*
X133595962Y-98997230D02*
X133820961Y-98772231D01*
X126750000Y-101350000D02*
X131243192Y-101350000D01*
X125730000Y-100330000D02*
X126750000Y-101350000D01*
X137355069Y-100074060D02*
X137580068Y-99849061D01*
X135629129Y-101800000D02*
X137355069Y-100074060D01*
X125730000Y-102870000D02*
X126800000Y-101800000D01*
X126800000Y-101800000D02*
X135629129Y-101800000D01*
X126832401Y-104307599D02*
X126832401Y-103642599D01*
X125730000Y-105410000D02*
X126832401Y-104307599D01*
X126832401Y-103642599D02*
X128050000Y-102425000D01*
X128050000Y-102425000D02*
X130900000Y-102425000D01*
X125730000Y-107950000D02*
X127375000Y-106305000D01*
X127375000Y-106305000D02*
X127375000Y-104075000D01*
X141169564Y-100366743D02*
X141394563Y-100141744D01*
X139010000Y-102526307D02*
X141169564Y-100366743D01*
X140025000Y-108125000D02*
X139010000Y-107110000D01*
X139010000Y-107110000D02*
X139010000Y-102526307D01*
D21*
X128519643Y-95440819D02*
X128519643Y-95438220D01*
X128519643Y-95438220D02*
X128519643Y-95120022D01*
X138500000Y-97500000D02*
X138200000Y-97200000D01*
X138200000Y-97200000D02*
X130278824Y-97200000D01*
X130278824Y-97200000D02*
X128519643Y-95440819D01*
D23*
X142890000Y-72140000D02*
X143500000Y-72750000D01*
X143500000Y-72750000D02*
X143500000Y-86610000D01*
X143500000Y-86610000D02*
X142780000Y-87330000D01*
X140261822Y-99413178D02*
X141189329Y-99413178D01*
X136345187Y-103324873D02*
X136350127Y-103324873D01*
X136350127Y-103324873D02*
X140261822Y-99413178D01*
X136350000Y-103329686D02*
X136345187Y-103324873D01*
X136350000Y-105250000D02*
X136350000Y-103329686D01*
X139824999Y-108724999D02*
X136350000Y-105250000D01*
X140775000Y-108500000D02*
X140550001Y-108724999D01*
X140550001Y-108724999D02*
X139824999Y-108724999D01*
D26*
G36*
X134688000Y-76452606D02*
G01*
X134688000Y-82715799D01*
X134677795Y-82691162D01*
X134606442Y-82584374D01*
X134515626Y-82493558D01*
X134408838Y-82422205D01*
X134290181Y-82373056D01*
X134164216Y-82348000D01*
X134035784Y-82348000D01*
X133909819Y-82373056D01*
X133791162Y-82422205D01*
X133684374Y-82493558D01*
X133593558Y-82584374D01*
X133522205Y-82691162D01*
X133473056Y-82809819D01*
X133448000Y-82935784D01*
X133448000Y-83064216D01*
X133473056Y-83190181D01*
X133522205Y-83308838D01*
X133593558Y-83415626D01*
X133684374Y-83506442D01*
X133791162Y-83577795D01*
X133909819Y-83626944D01*
X134035784Y-83652000D01*
X134164216Y-83652000D01*
X134290181Y-83626944D01*
X134408838Y-83577795D01*
X134515626Y-83506442D01*
X134606442Y-83415626D01*
X134677795Y-83308838D01*
X134688000Y-83284201D01*
X134688000Y-83600000D01*
X134690440Y-83624776D01*
X134697667Y-83648601D01*
X134709403Y-83670557D01*
X134725197Y-83689803D01*
X134925197Y-83889803D01*
X134944443Y-83905597D01*
X134966399Y-83917333D01*
X134990224Y-83924560D01*
X135015000Y-83927000D01*
X137800000Y-83927000D01*
X137800719Y-83926998D01*
X138200706Y-83924732D01*
X138201426Y-83924726D01*
X139513429Y-83909859D01*
X139638000Y-84033027D01*
X139638000Y-87846636D01*
X139577604Y-87756247D01*
X139493753Y-87672396D01*
X139417522Y-87621460D01*
X139458486Y-87560154D01*
X139503866Y-87450597D01*
X139527000Y-87334292D01*
X139527000Y-87215708D01*
X139503866Y-87099403D01*
X139458486Y-86989846D01*
X139392604Y-86891247D01*
X139308753Y-86807396D01*
X139210154Y-86741514D01*
X139100597Y-86696134D01*
X138984292Y-86673000D01*
X138865708Y-86673000D01*
X138749403Y-86696134D01*
X138639846Y-86741514D01*
X138541247Y-86807396D01*
X138457396Y-86891247D01*
X138391514Y-86989846D01*
X138346134Y-87099403D01*
X138323000Y-87215708D01*
X138323000Y-87334292D01*
X138346134Y-87450597D01*
X138391514Y-87560154D01*
X138457396Y-87658753D01*
X138541247Y-87742604D01*
X138617478Y-87793540D01*
X138576514Y-87854846D01*
X138531134Y-87964403D01*
X138508000Y-88080708D01*
X138508000Y-88199292D01*
X138531134Y-88315597D01*
X138576514Y-88425154D01*
X138642396Y-88523753D01*
X138726247Y-88607604D01*
X138824846Y-88673486D01*
X138934403Y-88718866D01*
X139050708Y-88742000D01*
X139169292Y-88742000D01*
X139285597Y-88718866D01*
X139395154Y-88673486D01*
X139493753Y-88607604D01*
X139577604Y-88523753D01*
X139638000Y-88433364D01*
X139638000Y-89280000D01*
X139640440Y-89304776D01*
X139647667Y-89328601D01*
X139659403Y-89350557D01*
X139675197Y-89369803D01*
X139875197Y-89569803D01*
X139894443Y-89585597D01*
X139916399Y-89597333D01*
X139940224Y-89604560D01*
X139965000Y-89607000D01*
X140962965Y-89607000D01*
X141247230Y-89733769D01*
X143825986Y-92604770D01*
X143946191Y-92910811D01*
X144104915Y-102417848D01*
X144071134Y-102499403D01*
X144048000Y-102615708D01*
X144048000Y-102734292D01*
X144071134Y-102850597D01*
X144113862Y-102953752D01*
X144119679Y-103302148D01*
X144122532Y-103326880D01*
X144130156Y-103350581D01*
X144142257Y-103372338D01*
X144157611Y-103390577D01*
X144360950Y-103590549D01*
X144380327Y-103606182D01*
X144402380Y-103617734D01*
X144426264Y-103624762D01*
X144450000Y-103627000D01*
X144497394Y-103627000D01*
X144623000Y-103752606D01*
X144623000Y-105822394D01*
X144572394Y-105873000D01*
X142752606Y-105873000D01*
X142627000Y-105747394D01*
X142627000Y-94200000D01*
X142624560Y-94175224D01*
X142617333Y-94151399D01*
X142605597Y-94129443D01*
X142589803Y-94110197D01*
X142389803Y-93910197D01*
X142370557Y-93894403D01*
X142348601Y-93882667D01*
X142324776Y-93875440D01*
X142300000Y-93873000D01*
X140692000Y-93873000D01*
X140692000Y-93775633D01*
X140670787Y-93668988D01*
X140629176Y-93568530D01*
X140568766Y-93478120D01*
X140491880Y-93401234D01*
X140401470Y-93340824D01*
X140301012Y-93299213D01*
X140194367Y-93278000D01*
X140085633Y-93278000D01*
X139978988Y-93299213D01*
X139878530Y-93340824D01*
X139858789Y-93354015D01*
X139799005Y-93359903D01*
X139709090Y-93387178D01*
X139626224Y-93431471D01*
X139553592Y-93491079D01*
X139538662Y-93509271D01*
X139174933Y-93873000D01*
X131052606Y-93873000D01*
X130927000Y-93747394D01*
X130927000Y-93709626D01*
X130942000Y-93634216D01*
X130942000Y-93505784D01*
X130927000Y-93430374D01*
X130927000Y-89953321D01*
X136703000Y-89953321D01*
X136703000Y-90086679D01*
X136729016Y-90217474D01*
X136780050Y-90340680D01*
X136854140Y-90451563D01*
X136856866Y-90454289D01*
X136800050Y-90539320D01*
X136749016Y-90662526D01*
X136723000Y-90793321D01*
X136723000Y-90926679D01*
X136749016Y-91057474D01*
X136800050Y-91180680D01*
X136874140Y-91291563D01*
X136968437Y-91385860D01*
X137079320Y-91459950D01*
X137202526Y-91510984D01*
X137333321Y-91537000D01*
X137466679Y-91537000D01*
X137597474Y-91510984D01*
X137720680Y-91459950D01*
X137831563Y-91385860D01*
X137925860Y-91291563D01*
X137999950Y-91180680D01*
X138050984Y-91057474D01*
X138077000Y-90926679D01*
X138077000Y-90793321D01*
X138063567Y-90725784D01*
X140498000Y-90725784D01*
X140498000Y-90854216D01*
X140523056Y-90980181D01*
X140572205Y-91098838D01*
X140643558Y-91205626D01*
X140734374Y-91296442D01*
X140841162Y-91367795D01*
X140959819Y-91416944D01*
X141085784Y-91442000D01*
X141214216Y-91442000D01*
X141340181Y-91416944D01*
X141458838Y-91367795D01*
X141565626Y-91296442D01*
X141656442Y-91205626D01*
X141727795Y-91098838D01*
X141776944Y-90980181D01*
X141802000Y-90854216D01*
X141802000Y-90725784D01*
X141776944Y-90599819D01*
X141727795Y-90481162D01*
X141656442Y-90374374D01*
X141565626Y-90283558D01*
X141458838Y-90212205D01*
X141340181Y-90163056D01*
X141214216Y-90138000D01*
X141085784Y-90138000D01*
X140959819Y-90163056D01*
X140841162Y-90212205D01*
X140734374Y-90283558D01*
X140643558Y-90374374D01*
X140572205Y-90481162D01*
X140523056Y-90599819D01*
X140498000Y-90725784D01*
X138063567Y-90725784D01*
X138050984Y-90662526D01*
X137999950Y-90539320D01*
X137925860Y-90428437D01*
X137923134Y-90425711D01*
X137979950Y-90340680D01*
X138030984Y-90217474D01*
X138057000Y-90086679D01*
X138057000Y-89953321D01*
X138030984Y-89822526D01*
X137979950Y-89699320D01*
X137905860Y-89588437D01*
X137811563Y-89494140D01*
X137700680Y-89420050D01*
X137577474Y-89369016D01*
X137446679Y-89343000D01*
X137313321Y-89343000D01*
X137182526Y-89369016D01*
X137059320Y-89420050D01*
X136948437Y-89494140D01*
X136854140Y-89588437D01*
X136780050Y-89699320D01*
X136729016Y-89822526D01*
X136703000Y-89953321D01*
X130927000Y-89953321D01*
X130927000Y-88485610D01*
X133333102Y-88485610D01*
X133333102Y-88604194D01*
X133356236Y-88720499D01*
X133401616Y-88830056D01*
X133467498Y-88928655D01*
X133551349Y-89012506D01*
X133649948Y-89078388D01*
X133759505Y-89123768D01*
X133875810Y-89146902D01*
X133994394Y-89146902D01*
X134110699Y-89123768D01*
X134220256Y-89078388D01*
X134318855Y-89012506D01*
X134402706Y-88928655D01*
X134468588Y-88830056D01*
X134513968Y-88720499D01*
X134537102Y-88604194D01*
X134537102Y-88485610D01*
X134513968Y-88369305D01*
X134491768Y-88315708D01*
X134573000Y-88315708D01*
X134573000Y-88434292D01*
X134596134Y-88550597D01*
X134641514Y-88660154D01*
X134707396Y-88758753D01*
X134791247Y-88842604D01*
X134889846Y-88908486D01*
X134999265Y-88953809D01*
X135013544Y-89025597D01*
X135058924Y-89135154D01*
X135124806Y-89233753D01*
X135208657Y-89317604D01*
X135307256Y-89383486D01*
X135416813Y-89428866D01*
X135533118Y-89452000D01*
X135651702Y-89452000D01*
X135768007Y-89428866D01*
X135877564Y-89383486D01*
X135976163Y-89317604D01*
X136060014Y-89233753D01*
X136125896Y-89135154D01*
X136171276Y-89025597D01*
X136194410Y-88909292D01*
X136194410Y-88790708D01*
X136171276Y-88674403D01*
X136125896Y-88564846D01*
X136060014Y-88466247D01*
X135976163Y-88382396D01*
X135877564Y-88316514D01*
X135768145Y-88271191D01*
X135753866Y-88199403D01*
X135708486Y-88089846D01*
X135642604Y-87991247D01*
X135558753Y-87907396D01*
X135460154Y-87841514D01*
X135350597Y-87796134D01*
X135234292Y-87773000D01*
X135115708Y-87773000D01*
X134999403Y-87796134D01*
X134889846Y-87841514D01*
X134791247Y-87907396D01*
X134707396Y-87991247D01*
X134641514Y-88089846D01*
X134596134Y-88199403D01*
X134573000Y-88315708D01*
X134491768Y-88315708D01*
X134468588Y-88259748D01*
X134406094Y-88166220D01*
X134465626Y-88126442D01*
X134556442Y-88035626D01*
X134627795Y-87928838D01*
X134676944Y-87810181D01*
X134702000Y-87684216D01*
X134702000Y-87555784D01*
X134676944Y-87429819D01*
X134627795Y-87311162D01*
X134556442Y-87204374D01*
X134465626Y-87113558D01*
X134358838Y-87042205D01*
X134240181Y-86993056D01*
X134114216Y-86968000D01*
X133985784Y-86968000D01*
X133859819Y-86993056D01*
X133741162Y-87042205D01*
X133634374Y-87113558D01*
X133543558Y-87204374D01*
X133472205Y-87311162D01*
X133423056Y-87429819D01*
X133398000Y-87555784D01*
X133398000Y-87684216D01*
X133423056Y-87810181D01*
X133472205Y-87928838D01*
X133543558Y-88035626D01*
X133571659Y-88063727D01*
X133551349Y-88077298D01*
X133467498Y-88161149D01*
X133401616Y-88259748D01*
X133356236Y-88369305D01*
X133333102Y-88485610D01*
X130927000Y-88485610D01*
X130927000Y-86672579D01*
X131320729Y-86278851D01*
X131338921Y-86263921D01*
X131398529Y-86191289D01*
X131442822Y-86108423D01*
X131470097Y-86018508D01*
X131477000Y-85948423D01*
X131477000Y-85948416D01*
X131479306Y-85925001D01*
X131477000Y-85901586D01*
X131477000Y-84910708D01*
X136788000Y-84910708D01*
X136788000Y-85029292D01*
X136811134Y-85145597D01*
X136856514Y-85255154D01*
X136922396Y-85353753D01*
X137006247Y-85437604D01*
X137104846Y-85503486D01*
X137214403Y-85548866D01*
X137330708Y-85572000D01*
X137449292Y-85572000D01*
X137565597Y-85548866D01*
X137675154Y-85503486D01*
X137773753Y-85437604D01*
X137857604Y-85353753D01*
X137923486Y-85255154D01*
X137968866Y-85145597D01*
X137992000Y-85029292D01*
X137992000Y-84910708D01*
X137968866Y-84794403D01*
X137923486Y-84684846D01*
X137857604Y-84586247D01*
X137773753Y-84502396D01*
X137675154Y-84436514D01*
X137565597Y-84391134D01*
X137449292Y-84368000D01*
X137330708Y-84368000D01*
X137214403Y-84391134D01*
X137104846Y-84436514D01*
X137006247Y-84502396D01*
X136922396Y-84586247D01*
X136856514Y-84684846D01*
X136811134Y-84794403D01*
X136788000Y-84910708D01*
X131477000Y-84910708D01*
X131477000Y-82973414D01*
X131479306Y-82949999D01*
X131477000Y-82926584D01*
X131477000Y-82926577D01*
X131470097Y-82856492D01*
X131442822Y-82766577D01*
X131398529Y-82683711D01*
X131338921Y-82611079D01*
X131320729Y-82596149D01*
X130927000Y-82202420D01*
X130927000Y-79586747D01*
X133193414Y-79586747D01*
X133193414Y-79715179D01*
X133218470Y-79841144D01*
X133267619Y-79959801D01*
X133338972Y-80066589D01*
X133429788Y-80157405D01*
X133536576Y-80228758D01*
X133655233Y-80277907D01*
X133781198Y-80302963D01*
X133909630Y-80302963D01*
X134035595Y-80277907D01*
X134154252Y-80228758D01*
X134261040Y-80157405D01*
X134351856Y-80066589D01*
X134423209Y-79959801D01*
X134472358Y-79841144D01*
X134497414Y-79715179D01*
X134497414Y-79586747D01*
X134472358Y-79460782D01*
X134423209Y-79342125D01*
X134351856Y-79235337D01*
X134261040Y-79144521D01*
X134154252Y-79073168D01*
X134035595Y-79024019D01*
X133909630Y-78998963D01*
X133781198Y-78998963D01*
X133655233Y-79024019D01*
X133536576Y-79073168D01*
X133429788Y-79144521D01*
X133338972Y-79235337D01*
X133267619Y-79342125D01*
X133218470Y-79460782D01*
X133193414Y-79586747D01*
X130927000Y-79586747D01*
X130927000Y-79000000D01*
X130924560Y-78975224D01*
X130917333Y-78951399D01*
X130905597Y-78929443D01*
X130889803Y-78910197D01*
X130689803Y-78710197D01*
X130670557Y-78694403D01*
X130648601Y-78682667D01*
X130624776Y-78675440D01*
X130600000Y-78673000D01*
X125052606Y-78673000D01*
X124927000Y-78547394D01*
X124927000Y-77230708D01*
X133418000Y-77230708D01*
X133418000Y-77349292D01*
X133441134Y-77465597D01*
X133486514Y-77575154D01*
X133552396Y-77673753D01*
X133636247Y-77757604D01*
X133734846Y-77823486D01*
X133844403Y-77868866D01*
X133960708Y-77892000D01*
X134079292Y-77892000D01*
X134195597Y-77868866D01*
X134305154Y-77823486D01*
X134403753Y-77757604D01*
X134487604Y-77673753D01*
X134553486Y-77575154D01*
X134598866Y-77465597D01*
X134622000Y-77349292D01*
X134622000Y-77230708D01*
X134598866Y-77114403D01*
X134553486Y-77004846D01*
X134487604Y-76906247D01*
X134403753Y-76822396D01*
X134305154Y-76756514D01*
X134195597Y-76711134D01*
X134079292Y-76688000D01*
X133960708Y-76688000D01*
X133844403Y-76711134D01*
X133734846Y-76756514D01*
X133636247Y-76822396D01*
X133552396Y-76906247D01*
X133486514Y-77004846D01*
X133441134Y-77114403D01*
X133418000Y-77230708D01*
X124927000Y-77230708D01*
X124927000Y-76452606D01*
X125052606Y-76327000D01*
X134562394Y-76327000D01*
X134688000Y-76452606D01*
G37*
X134688000Y-76452606D02*
X134688000Y-82715799D01*
X134677795Y-82691162D01*
X134606442Y-82584374D01*
X134515626Y-82493558D01*
X134408838Y-82422205D01*
X134290181Y-82373056D01*
X134164216Y-82348000D01*
X134035784Y-82348000D01*
X133909819Y-82373056D01*
X133791162Y-82422205D01*
X133684374Y-82493558D01*
X133593558Y-82584374D01*
X133522205Y-82691162D01*
X133473056Y-82809819D01*
X133448000Y-82935784D01*
X133448000Y-83064216D01*
X133473056Y-83190181D01*
X133522205Y-83308838D01*
X133593558Y-83415626D01*
X133684374Y-83506442D01*
X133791162Y-83577795D01*
X133909819Y-83626944D01*
X134035784Y-83652000D01*
X134164216Y-83652000D01*
X134290181Y-83626944D01*
X134408838Y-83577795D01*
X134515626Y-83506442D01*
X134606442Y-83415626D01*
X134677795Y-83308838D01*
X134688000Y-83284201D01*
X134688000Y-83600000D01*
X134690440Y-83624776D01*
X134697667Y-83648601D01*
X134709403Y-83670557D01*
X134725197Y-83689803D01*
X134925197Y-83889803D01*
X134944443Y-83905597D01*
X134966399Y-83917333D01*
X134990224Y-83924560D01*
X135015000Y-83927000D01*
X137800000Y-83927000D01*
X137800719Y-83926998D01*
X138200706Y-83924732D01*
X138201426Y-83924726D01*
X139513429Y-83909859D01*
X139638000Y-84033027D01*
X139638000Y-87846636D01*
X139577604Y-87756247D01*
X139493753Y-87672396D01*
X139417522Y-87621460D01*
X139458486Y-87560154D01*
X139503866Y-87450597D01*
X139527000Y-87334292D01*
X139527000Y-87215708D01*
X139503866Y-87099403D01*
X139458486Y-86989846D01*
X139392604Y-86891247D01*
X139308753Y-86807396D01*
X139210154Y-86741514D01*
X139100597Y-86696134D01*
X138984292Y-86673000D01*
X138865708Y-86673000D01*
X138749403Y-86696134D01*
X138639846Y-86741514D01*
X138541247Y-86807396D01*
X138457396Y-86891247D01*
X138391514Y-86989846D01*
X138346134Y-87099403D01*
X138323000Y-87215708D01*
X138323000Y-87334292D01*
X138346134Y-87450597D01*
X138391514Y-87560154D01*
X138457396Y-87658753D01*
X138541247Y-87742604D01*
X138617478Y-87793540D01*
X138576514Y-87854846D01*
X138531134Y-87964403D01*
X138508000Y-88080708D01*
X138508000Y-88199292D01*
X138531134Y-88315597D01*
X138576514Y-88425154D01*
X138642396Y-88523753D01*
X138726247Y-88607604D01*
X138824846Y-88673486D01*
X138934403Y-88718866D01*
X139050708Y-88742000D01*
X139169292Y-88742000D01*
X139285597Y-88718866D01*
X139395154Y-88673486D01*
X139493753Y-88607604D01*
X139577604Y-88523753D01*
X139638000Y-88433364D01*
X139638000Y-89280000D01*
X139640440Y-89304776D01*
X139647667Y-89328601D01*
X139659403Y-89350557D01*
X139675197Y-89369803D01*
X139875197Y-89569803D01*
X139894443Y-89585597D01*
X139916399Y-89597333D01*
X139940224Y-89604560D01*
X139965000Y-89607000D01*
X140962965Y-89607000D01*
X141247230Y-89733769D01*
X143825986Y-92604770D01*
X143946191Y-92910811D01*
X144104915Y-102417848D01*
X144071134Y-102499403D01*
X144048000Y-102615708D01*
X144048000Y-102734292D01*
X144071134Y-102850597D01*
X144113862Y-102953752D01*
X144119679Y-103302148D01*
X144122532Y-103326880D01*
X144130156Y-103350581D01*
X144142257Y-103372338D01*
X144157611Y-103390577D01*
X144360950Y-103590549D01*
X144380327Y-103606182D01*
X144402380Y-103617734D01*
X144426264Y-103624762D01*
X144450000Y-103627000D01*
X144497394Y-103627000D01*
X144623000Y-103752606D01*
X144623000Y-105822394D01*
X144572394Y-105873000D01*
X142752606Y-105873000D01*
X142627000Y-105747394D01*
X142627000Y-94200000D01*
X142624560Y-94175224D01*
X142617333Y-94151399D01*
X142605597Y-94129443D01*
X142589803Y-94110197D01*
X142389803Y-93910197D01*
X142370557Y-93894403D01*
X142348601Y-93882667D01*
X142324776Y-93875440D01*
X142300000Y-93873000D01*
X140692000Y-93873000D01*
X140692000Y-93775633D01*
X140670787Y-93668988D01*
X140629176Y-93568530D01*
X140568766Y-93478120D01*
X140491880Y-93401234D01*
X140401470Y-93340824D01*
X140301012Y-93299213D01*
X140194367Y-93278000D01*
X140085633Y-93278000D01*
X139978988Y-93299213D01*
X139878530Y-93340824D01*
X139858789Y-93354015D01*
X139799005Y-93359903D01*
X139709090Y-93387178D01*
X139626224Y-93431471D01*
X139553592Y-93491079D01*
X139538662Y-93509271D01*
X139174933Y-93873000D01*
X131052606Y-93873000D01*
X130927000Y-93747394D01*
X130927000Y-93709626D01*
X130942000Y-93634216D01*
X130942000Y-93505784D01*
X130927000Y-93430374D01*
X130927000Y-89953321D01*
X136703000Y-89953321D01*
X136703000Y-90086679D01*
X136729016Y-90217474D01*
X136780050Y-90340680D01*
X136854140Y-90451563D01*
X136856866Y-90454289D01*
X136800050Y-90539320D01*
X136749016Y-90662526D01*
X136723000Y-90793321D01*
X136723000Y-90926679D01*
X136749016Y-91057474D01*
X136800050Y-91180680D01*
X136874140Y-91291563D01*
X136968437Y-91385860D01*
X137079320Y-91459950D01*
X137202526Y-91510984D01*
X137333321Y-91537000D01*
X137466679Y-91537000D01*
X137597474Y-91510984D01*
X137720680Y-91459950D01*
X137831563Y-91385860D01*
X137925860Y-91291563D01*
X137999950Y-91180680D01*
X138050984Y-91057474D01*
X138077000Y-90926679D01*
X138077000Y-90793321D01*
X138063567Y-90725784D01*
X140498000Y-90725784D01*
X140498000Y-90854216D01*
X140523056Y-90980181D01*
X140572205Y-91098838D01*
X140643558Y-91205626D01*
X140734374Y-91296442D01*
X140841162Y-91367795D01*
X140959819Y-91416944D01*
X141085784Y-91442000D01*
X141214216Y-91442000D01*
X141340181Y-91416944D01*
X141458838Y-91367795D01*
X141565626Y-91296442D01*
X141656442Y-91205626D01*
X141727795Y-91098838D01*
X141776944Y-90980181D01*
X141802000Y-90854216D01*
X141802000Y-90725784D01*
X141776944Y-90599819D01*
X141727795Y-90481162D01*
X141656442Y-90374374D01*
X141565626Y-90283558D01*
X141458838Y-90212205D01*
X141340181Y-90163056D01*
X141214216Y-90138000D01*
X141085784Y-90138000D01*
X140959819Y-90163056D01*
X140841162Y-90212205D01*
X140734374Y-90283558D01*
X140643558Y-90374374D01*
X140572205Y-90481162D01*
X140523056Y-90599819D01*
X140498000Y-90725784D01*
X138063567Y-90725784D01*
X138050984Y-90662526D01*
X137999950Y-90539320D01*
X137925860Y-90428437D01*
X137923134Y-90425711D01*
X137979950Y-90340680D01*
X138030984Y-90217474D01*
X138057000Y-90086679D01*
X138057000Y-89953321D01*
X138030984Y-89822526D01*
X137979950Y-89699320D01*
X137905860Y-89588437D01*
X137811563Y-89494140D01*
X137700680Y-89420050D01*
X137577474Y-89369016D01*
X137446679Y-89343000D01*
X137313321Y-89343000D01*
X137182526Y-89369016D01*
X137059320Y-89420050D01*
X136948437Y-89494140D01*
X136854140Y-89588437D01*
X136780050Y-89699320D01*
X136729016Y-89822526D01*
X136703000Y-89953321D01*
X130927000Y-89953321D01*
X130927000Y-88485610D01*
X133333102Y-88485610D01*
X133333102Y-88604194D01*
X133356236Y-88720499D01*
X133401616Y-88830056D01*
X133467498Y-88928655D01*
X133551349Y-89012506D01*
X133649948Y-89078388D01*
X133759505Y-89123768D01*
X133875810Y-89146902D01*
X133994394Y-89146902D01*
X134110699Y-89123768D01*
X134220256Y-89078388D01*
X134318855Y-89012506D01*
X134402706Y-88928655D01*
X134468588Y-88830056D01*
X134513968Y-88720499D01*
X134537102Y-88604194D01*
X134537102Y-88485610D01*
X134513968Y-88369305D01*
X134491768Y-88315708D01*
X134573000Y-88315708D01*
X134573000Y-88434292D01*
X134596134Y-88550597D01*
X134641514Y-88660154D01*
X134707396Y-88758753D01*
X134791247Y-88842604D01*
X134889846Y-88908486D01*
X134999265Y-88953809D01*
X135013544Y-89025597D01*
X135058924Y-89135154D01*
X135124806Y-89233753D01*
X135208657Y-89317604D01*
X135307256Y-89383486D01*
X135416813Y-89428866D01*
X135533118Y-89452000D01*
X135651702Y-89452000D01*
X135768007Y-89428866D01*
X135877564Y-89383486D01*
X135976163Y-89317604D01*
X136060014Y-89233753D01*
X136125896Y-89135154D01*
X136171276Y-89025597D01*
X136194410Y-88909292D01*
X136194410Y-88790708D01*
X136171276Y-88674403D01*
X136125896Y-88564846D01*
X136060014Y-88466247D01*
X135976163Y-88382396D01*
X135877564Y-88316514D01*
X135768145Y-88271191D01*
X135753866Y-88199403D01*
X135708486Y-88089846D01*
X135642604Y-87991247D01*
X135558753Y-87907396D01*
X135460154Y-87841514D01*
X135350597Y-87796134D01*
X135234292Y-87773000D01*
X135115708Y-87773000D01*
X134999403Y-87796134D01*
X134889846Y-87841514D01*
X134791247Y-87907396D01*
X134707396Y-87991247D01*
X134641514Y-88089846D01*
X134596134Y-88199403D01*
X134573000Y-88315708D01*
X134491768Y-88315708D01*
X134468588Y-88259748D01*
X134406094Y-88166220D01*
X134465626Y-88126442D01*
X134556442Y-88035626D01*
X134627795Y-87928838D01*
X134676944Y-87810181D01*
X134702000Y-87684216D01*
X134702000Y-87555784D01*
X134676944Y-87429819D01*
X134627795Y-87311162D01*
X134556442Y-87204374D01*
X134465626Y-87113558D01*
X134358838Y-87042205D01*
X134240181Y-86993056D01*
X134114216Y-86968000D01*
X133985784Y-86968000D01*
X133859819Y-86993056D01*
X133741162Y-87042205D01*
X133634374Y-87113558D01*
X133543558Y-87204374D01*
X133472205Y-87311162D01*
X133423056Y-87429819D01*
X133398000Y-87555784D01*
X133398000Y-87684216D01*
X133423056Y-87810181D01*
X133472205Y-87928838D01*
X133543558Y-88035626D01*
X133571659Y-88063727D01*
X133551349Y-88077298D01*
X133467498Y-88161149D01*
X133401616Y-88259748D01*
X133356236Y-88369305D01*
X133333102Y-88485610D01*
X130927000Y-88485610D01*
X130927000Y-86672579D01*
X131320729Y-86278851D01*
X131338921Y-86263921D01*
X131398529Y-86191289D01*
X131442822Y-86108423D01*
X131470097Y-86018508D01*
X131477000Y-85948423D01*
X131477000Y-85948416D01*
X131479306Y-85925001D01*
X131477000Y-85901586D01*
X131477000Y-84910708D01*
X136788000Y-84910708D01*
X136788000Y-85029292D01*
X136811134Y-85145597D01*
X136856514Y-85255154D01*
X136922396Y-85353753D01*
X137006247Y-85437604D01*
X137104846Y-85503486D01*
X137214403Y-85548866D01*
X137330708Y-85572000D01*
X137449292Y-85572000D01*
X137565597Y-85548866D01*
X137675154Y-85503486D01*
X137773753Y-85437604D01*
X137857604Y-85353753D01*
X137923486Y-85255154D01*
X137968866Y-85145597D01*
X137992000Y-85029292D01*
X137992000Y-84910708D01*
X137968866Y-84794403D01*
X137923486Y-84684846D01*
X137857604Y-84586247D01*
X137773753Y-84502396D01*
X137675154Y-84436514D01*
X137565597Y-84391134D01*
X137449292Y-84368000D01*
X137330708Y-84368000D01*
X137214403Y-84391134D01*
X137104846Y-84436514D01*
X137006247Y-84502396D01*
X136922396Y-84586247D01*
X136856514Y-84684846D01*
X136811134Y-84794403D01*
X136788000Y-84910708D01*
X131477000Y-84910708D01*
X131477000Y-82973414D01*
X131479306Y-82949999D01*
X131477000Y-82926584D01*
X131477000Y-82926577D01*
X131470097Y-82856492D01*
X131442822Y-82766577D01*
X131398529Y-82683711D01*
X131338921Y-82611079D01*
X131320729Y-82596149D01*
X130927000Y-82202420D01*
X130927000Y-79586747D01*
X133193414Y-79586747D01*
X133193414Y-79715179D01*
X133218470Y-79841144D01*
X133267619Y-79959801D01*
X133338972Y-80066589D01*
X133429788Y-80157405D01*
X133536576Y-80228758D01*
X133655233Y-80277907D01*
X133781198Y-80302963D01*
X133909630Y-80302963D01*
X134035595Y-80277907D01*
X134154252Y-80228758D01*
X134261040Y-80157405D01*
X134351856Y-80066589D01*
X134423209Y-79959801D01*
X134472358Y-79841144D01*
X134497414Y-79715179D01*
X134497414Y-79586747D01*
X134472358Y-79460782D01*
X134423209Y-79342125D01*
X134351856Y-79235337D01*
X134261040Y-79144521D01*
X134154252Y-79073168D01*
X134035595Y-79024019D01*
X133909630Y-78998963D01*
X133781198Y-78998963D01*
X133655233Y-79024019D01*
X133536576Y-79073168D01*
X133429788Y-79144521D01*
X133338972Y-79235337D01*
X133267619Y-79342125D01*
X133218470Y-79460782D01*
X133193414Y-79586747D01*
X130927000Y-79586747D01*
X130927000Y-79000000D01*
X130924560Y-78975224D01*
X130917333Y-78951399D01*
X130905597Y-78929443D01*
X130889803Y-78910197D01*
X130689803Y-78710197D01*
X130670557Y-78694403D01*
X130648601Y-78682667D01*
X130624776Y-78675440D01*
X130600000Y-78673000D01*
X125052606Y-78673000D01*
X124927000Y-78547394D01*
X124927000Y-77230708D01*
X133418000Y-77230708D01*
X133418000Y-77349292D01*
X133441134Y-77465597D01*
X133486514Y-77575154D01*
X133552396Y-77673753D01*
X133636247Y-77757604D01*
X133734846Y-77823486D01*
X133844403Y-77868866D01*
X133960708Y-77892000D01*
X134079292Y-77892000D01*
X134195597Y-77868866D01*
X134305154Y-77823486D01*
X134403753Y-77757604D01*
X134487604Y-77673753D01*
X134553486Y-77575154D01*
X134598866Y-77465597D01*
X134622000Y-77349292D01*
X134622000Y-77230708D01*
X134598866Y-77114403D01*
X134553486Y-77004846D01*
X134487604Y-76906247D01*
X134403753Y-76822396D01*
X134305154Y-76756514D01*
X134195597Y-76711134D01*
X134079292Y-76688000D01*
X133960708Y-76688000D01*
X133844403Y-76711134D01*
X133734846Y-76756514D01*
X133636247Y-76822396D01*
X133552396Y-76906247D01*
X133486514Y-77004846D01*
X133441134Y-77114403D01*
X133418000Y-77230708D01*
X124927000Y-77230708D01*
X124927000Y-76452606D01*
X125052606Y-76327000D01*
X134562394Y-76327000D01*
X134688000Y-76452606D01*
M02*
