M48
; DRILL file {KiCad (5.1.5)-2} date 12/16/2019 11:29:06 PM
; FORMAT={-:-/ absolute / metric / decimal}
; #@! TF.CreationDate,2019-12-16T23:29:06+01:00
; #@! TF.GenerationSoftware,Kicad,Pcbnew,(5.1.5)-2
FMAT,2
METRIC
T1C0.254
T2C0.300
T3C0.350
T4C0.400
T5C0.600
T6C1.000
T7C2.540
T8C0.600
%
G90
G05
T1
X131.66Y-114.03
T2
X125.85Y-114.621
X126.795Y-93.68
X126.825Y-88.875
X126.94Y-73.63
X127.0Y-114.3
X127.054Y-112.211
X127.375Y-104.075
X127.49Y-97.35
X127.657Y-108.597
X128.195Y-89.85
X128.403Y-82.901
X128.41Y-111.36
X128.48Y-115.19
X128.52Y-95.12
X128.57Y-109.31
X128.594Y-80.544
X128.862Y-114.018
X128.862Y-118.235
X129.25Y-89.75
X129.464Y-69.441
X129.464Y-103.175
X129.464Y-110.404
X129.475Y-97.968
X129.51Y-100.44
X129.6Y-105.25
X129.848Y-79.823
X130.15Y-85.675
X130.175Y-107.25
X130.29Y-111.18
X130.43Y-116.31
X130.43Y-117.01
X130.43Y-117.62
X130.669Y-105.585
X130.82Y-95.93
X130.9Y-102.425
X131.04Y-112.36
X131.098Y-97.792
X131.52Y-95.93
X131.54Y-118.29
X131.675Y-108.475
X131.825Y-105.675
X131.95Y-111.45
X132.275Y-111.975
X132.7Y-112.4
X133.05Y-112.8
X133.2Y-70.51
X133.55Y-110.475
X133.56Y-111.05
X133.608Y-90.464
X133.681Y-100.163
X133.821Y-98.772
X133.9Y-111.5
X133.935Y-88.545
X134.02Y-77.29
X134.35Y-111.9
X134.375Y-113.7
X134.75Y-115.0
X134.75Y-115.6
X134.75Y-116.15
X134.75Y-116.75
X134.75Y-117.3
X134.75Y-117.85
X134.75Y-118.4
X134.75Y-118.95
X134.84Y-75.63
X134.842Y-98.305
X134.875Y-114.35
X134.886Y-104.982
X134.886Y-111.006
X135.075Y-108.1
X135.1Y-113.75
X135.175Y-88.375
X135.54Y-76.781
X135.592Y-88.85
X135.65Y-73.24
X135.7Y-112.25
X135.71Y-72.04
X135.91Y-70.44
X136.09Y-107.392
X136.225Y-105.95
X136.225Y-108.575
X136.24Y-76.781
X136.25Y-112.25
X136.345Y-103.325
X136.66Y-73.24
X136.8Y-75.65
X136.8Y-112.25
X136.8Y-113.85
X136.925Y-114.4
X137.05Y-110.675
X137.05Y-115.0
X137.05Y-115.6
X137.05Y-116.15
X137.05Y-116.75
X137.05Y-117.3
X137.05Y-117.85
X137.05Y-118.4
X137.05Y-118.95
X137.15Y-95.573
X137.295Y-79.681
X137.35Y-112.244
X137.35Y-113.85
X137.39Y-84.97
X137.58Y-99.849
X137.916Y-112.244
X137.916Y-113.844
X138.05Y-110.47
X138.4Y-95.825
X138.474Y-112.244
X138.474Y-113.844
X138.5Y-97.5
X138.83Y-70.51
X138.925Y-87.275
X139.032Y-112.244
X139.032Y-113.844
X139.11Y-88.14
X139.6Y-112.25
X139.6Y-113.85
X139.603Y-95.93
X140.025Y-108.125
X140.2Y-112.05
X140.2Y-114.0
X140.285Y-106.965
X140.307Y-115.825
X140.35Y-118.05
X140.45Y-104.65
X140.455Y-95.93
X140.65Y-111.75
X140.65Y-114.4
X140.75Y-105.775
X140.775Y-108.5
X140.825Y-98.825
X141.0Y-103.675
X141.189Y-99.413
X141.395Y-100.142
X141.512Y-69.441
X141.512Y-76.067
X141.512Y-101.368
X141.512Y-118.235
X141.775Y-99.125
X141.875Y-106.275
X142.114Y-80.284
X142.114Y-112.813
X142.24Y-116.84
X142.34Y-110.18
X142.702Y-72.818
X142.78Y-87.33
X142.89Y-72.14
X143.319Y-91.127
X143.51Y-113.03
X143.922Y-114.621
X144.65Y-102.675
X144.657Y-97.767
X144.67Y-100.08
X145.45Y-101.575
T3
X130.29Y-93.57
X133.845Y-79.651
X134.05Y-87.62
X134.1Y-83.0
X139.6Y-77.55
X141.15Y-90.79
X142.35Y-78.75
T4
X131.7Y-75.49
X135.8Y-81.56
X135.82Y-82.51
X137.38Y-90.02
X137.4Y-90.86
X137.83Y-93.43
X138.31Y-90.04
X139.07Y-75.71
X139.17Y-91.77
X140.89Y-83.53
X141.46Y-84.1
X142.65Y-86.35
X144.404Y-104.944
X144.41Y-105.86
X145.06Y-86.35
X145.35Y-78.48
X145.35Y-81.08
X145.35Y-79.79
X146.08Y-73.19
T6
X125.73Y-74.93
X125.73Y-77.47
X125.73Y-80.01
X125.73Y-82.55
X125.73Y-85.09
X125.73Y-87.63
X125.73Y-90.17
X125.73Y-92.71
X125.73Y-95.25
X125.73Y-97.79
X125.73Y-100.33
X125.73Y-102.87
X125.73Y-105.41
X125.73Y-107.95
X125.73Y-110.49
X125.73Y-113.03
X146.05Y-85.09
X146.05Y-87.63
X146.05Y-90.17
X146.05Y-92.71
X146.05Y-95.25
X146.05Y-97.79
X146.05Y-100.33
X146.05Y-102.87
X146.05Y-105.41
X146.05Y-107.95
X146.05Y-110.49
X146.05Y-113.03
T7
X127.0Y-71.12
X127.0Y-116.84
X144.78Y-71.12
X144.78Y-116.84
T8
X133.0Y-73.332
X138.78Y-73.332
T5
G00X131.57Y-69.242
M15
G01X131.57Y-70.042
M16
G05
G00X131.57Y-73.262
M15
G01X131.57Y-74.362
M16
G05
G00X140.21Y-69.242
M15
G01X140.21Y-70.042
M16
G05
G00X140.21Y-73.262
M15
G01X140.21Y-74.362
M16
G05
T0
M30
