G04 #@! TF.GenerationSoftware,KiCad,Pcbnew,(5.1.5)-2*
G04 #@! TF.CreationDate,2019-12-16T23:28:57+01:00*
G04 #@! TF.ProjectId,Penguino-Feather-4260-v1,50656e67-7569-46e6-9f2d-466561746865,1.1*
G04 #@! TF.SameCoordinates,Original*
G04 #@! TF.FileFunction,Copper,L2,Inr*
G04 #@! TF.FilePolarity,Positive*
%FSLAX46Y46*%
G04 Gerber Fmt 4.6, Leading zero omitted, Abs format (unit mm)*
G04 Created by KiCad (PCBNEW (5.1.5)-2) date 2019-12-16 23:28:57*
%MOMM*%
%LPD*%
G04 APERTURE LIST*
%ADD10C,0.150000*%
%ADD11C,3.175000*%
%ADD12C,2.540000*%
%ADD13O,1.700000X1.700000*%
%ADD14O,0.900000X2.000000*%
%ADD15O,0.900000X1.700000*%
%ADD16C,0.600000*%
%ADD17C,0.450000*%
%ADD18C,0.550000*%
%ADD19C,0.350000*%
%ADD20C,0.254000*%
G04 APERTURE END LIST*
D10*
X127000000Y-119380000D02*
G75*
G02X124460000Y-116840000I0J2540000D01*
G01*
X147320000Y-116840000D02*
G75*
G02X144780000Y-119380000I-2540000J0D01*
G01*
X144780000Y-68580000D02*
G75*
G02X147320000Y-71120000I0J-2540000D01*
G01*
X124460000Y-71120000D02*
G75*
G02X127000000Y-68580000I2540000J0D01*
G01*
X124460000Y-116840000D02*
X124460000Y-71120000D01*
X144780000Y-119380000D02*
X127000000Y-119380000D01*
X147320000Y-71120000D02*
X147320000Y-116840000D01*
X127000000Y-68580000D02*
X144780000Y-68580000D01*
D11*
X127000000Y-71120000D03*
X144780000Y-71120000D03*
D12*
X144780000Y-116840000D03*
X127000000Y-116840000D03*
D13*
X125730000Y-74930000D03*
X125730000Y-77470000D03*
X125730000Y-80010000D03*
X125730000Y-82550000D03*
X125730000Y-85090000D03*
X125730000Y-87630000D03*
X125730000Y-90170000D03*
X125730000Y-92710000D03*
X125730000Y-95250000D03*
X125730000Y-97790000D03*
X125730000Y-100330000D03*
X125730000Y-102870000D03*
X125730000Y-105410000D03*
X125730000Y-107950000D03*
X125730000Y-110490000D03*
X125730000Y-113030000D03*
X146050000Y-113030000D03*
X146050000Y-110490000D03*
X146050000Y-107950000D03*
X146050000Y-105410000D03*
X146050000Y-102870000D03*
X146050000Y-100330000D03*
X146050000Y-97790000D03*
X146050000Y-95250000D03*
X146050000Y-92710000D03*
X146050000Y-90170000D03*
X146050000Y-87630000D03*
X146050000Y-85090000D03*
D14*
X140210000Y-73812000D03*
X131570000Y-73812000D03*
D15*
X140210000Y-69642000D03*
X131570000Y-69642000D03*
D16*
X145350000Y-81080000D03*
X145350000Y-78480000D03*
X145350007Y-79790007D03*
D17*
X137915802Y-113844150D03*
X138473812Y-113844150D03*
X139031821Y-113844150D03*
X139031821Y-112244150D03*
X138473812Y-112244150D03*
X137915802Y-112244150D03*
D16*
X131700000Y-75490000D03*
X139070000Y-75710000D03*
X146080000Y-73190000D03*
X142650000Y-86350000D03*
X145060000Y-86350000D03*
X137380000Y-90020000D03*
X137400000Y-90860000D03*
D17*
X134020000Y-77290000D03*
D18*
X141150000Y-90790000D03*
X134100000Y-83000000D03*
X142350000Y-78750000D03*
X139600000Y-77550000D03*
D17*
X137390000Y-84970000D03*
X131825000Y-105675000D03*
X130175000Y-107250000D03*
X131675000Y-108475000D03*
X135075000Y-108100000D03*
D18*
X130290000Y-93570000D03*
D17*
X129475001Y-97967778D03*
X126795002Y-93680000D03*
X141875000Y-106275000D03*
X140455410Y-95930009D03*
X129848000Y-79823000D03*
X139600000Y-112250000D03*
X139600000Y-113850000D03*
X140200000Y-114000000D03*
X140650000Y-114400000D03*
X140200000Y-112050000D03*
X140650000Y-111750000D03*
X137350000Y-112244150D03*
X137350000Y-113850000D03*
X136800000Y-113850000D03*
X136800000Y-112250000D03*
X136250000Y-112250000D03*
X135700000Y-112250000D03*
X134350000Y-111900000D03*
X133900000Y-111500000D03*
X133560000Y-111050000D03*
X133550000Y-110475000D03*
X131950000Y-111450000D03*
X132275000Y-111975000D03*
X132700000Y-112400000D03*
X133050000Y-112800000D03*
X134375000Y-113700000D03*
X135100000Y-113750000D03*
X134875000Y-114350000D03*
X136925000Y-114400000D03*
X137050000Y-115000000D03*
X134750000Y-115000000D03*
X134750000Y-115600000D03*
X134750000Y-116150000D03*
X134750000Y-116750000D03*
X134750000Y-117300000D03*
X134750000Y-117850000D03*
X134750000Y-118400000D03*
X134750000Y-118950000D03*
X137050000Y-118950000D03*
X137050000Y-118400000D03*
X137050000Y-117850000D03*
X137050000Y-117300000D03*
X137050000Y-116750000D03*
X137050000Y-116150000D03*
X137050000Y-115600000D03*
X125849600Y-114620600D03*
X127054400Y-112211000D03*
X127656800Y-108596600D03*
X128861600Y-114018200D03*
X128861600Y-118235000D03*
X129464000Y-69440600D03*
X129464000Y-103175000D03*
X129464000Y-110403800D03*
X130668800Y-105584600D03*
X130430000Y-116310000D03*
X131040000Y-112360000D03*
X133200000Y-70510000D03*
X133680800Y-100163000D03*
X134840000Y-75630000D03*
X134885600Y-104982200D03*
X134885600Y-111006200D03*
X135910000Y-70440000D03*
X136090400Y-107391800D03*
X136800000Y-75650000D03*
X137295200Y-79681400D03*
X138830000Y-70510000D03*
X140307200Y-115825400D03*
X141512000Y-69440600D03*
X141512000Y-76067000D03*
X141512000Y-101367800D03*
X141512000Y-118235000D03*
X142114400Y-80283800D03*
X142114400Y-112813400D03*
X143319200Y-91127000D03*
X143921600Y-114620600D03*
X142240000Y-116840000D03*
X130430000Y-117010000D03*
X130290000Y-111180000D03*
X127000000Y-114300000D03*
X143510000Y-113030000D03*
X128570000Y-109310000D03*
X142340000Y-110180000D03*
X140350000Y-118050000D03*
X131540000Y-118290000D03*
X130430000Y-117620000D03*
X128480000Y-115190000D03*
X128410000Y-111360000D03*
D18*
X133845414Y-79650963D03*
D17*
X135710000Y-72040000D03*
D18*
X134050000Y-87620000D03*
D19*
X131660000Y-114030000D03*
D17*
X138925000Y-87275000D03*
D16*
X135820000Y-82510000D03*
X141460000Y-84100000D03*
X140890000Y-83530000D03*
X135800000Y-81560000D03*
D17*
X142702420Y-72817580D03*
D16*
X138310000Y-90040000D03*
X139170000Y-91770000D03*
X137830000Y-93430000D03*
D17*
X141000000Y-103675000D03*
X140450000Y-104650000D03*
X145450000Y-101575000D03*
X144657420Y-97767420D03*
X133607590Y-90463751D03*
D16*
X144410000Y-105860000D03*
X144404484Y-104944484D03*
D17*
X133935102Y-88544902D03*
X135540000Y-76781246D03*
X130820000Y-95930000D03*
X135650000Y-73240000D03*
X136660000Y-73240000D03*
X136240000Y-76781246D03*
X131520000Y-95930000D03*
X126825000Y-88875000D03*
X127490000Y-97350000D03*
X129510002Y-100440000D03*
X128402894Y-82901438D03*
X128195188Y-89850000D03*
X131098026Y-97791707D03*
X139110000Y-88140000D03*
X135592410Y-88850000D03*
X136225000Y-105950000D03*
X140825000Y-98825000D03*
X130150000Y-85675000D03*
X129250000Y-89750000D03*
X138400000Y-95825000D03*
X144670000Y-100080000D03*
X140750000Y-105775000D03*
X139603285Y-95930009D03*
X144650000Y-102675000D03*
X140285000Y-106965000D03*
X128594168Y-80544168D03*
X137150000Y-95572590D03*
X141774920Y-99125081D03*
X129600000Y-105250000D03*
X134842075Y-98304821D03*
X133820961Y-98772231D03*
X137580068Y-99849061D03*
X130900000Y-102425000D03*
X127375000Y-104075000D03*
X136225000Y-108575000D03*
X137050000Y-110675000D03*
X138050000Y-110470179D03*
X140025000Y-108125000D03*
X141394563Y-100141744D03*
X138500000Y-97500000D03*
X128519643Y-95120022D03*
X142890000Y-72140000D03*
X142780000Y-87330000D03*
X126940000Y-73630000D03*
X135175000Y-88375000D03*
X140775000Y-108500000D03*
X136345187Y-103324873D03*
X141189329Y-99413178D03*
D20*
G36*
X130751026Y-69079096D02*
G01*
X130739000Y-69201185D01*
X130739000Y-70082814D01*
X130751025Y-70204903D01*
X130798542Y-70361547D01*
X130875706Y-70505911D01*
X130979552Y-70632448D01*
X131106088Y-70736294D01*
X131250452Y-70813458D01*
X131407096Y-70860975D01*
X131570000Y-70877020D01*
X131732903Y-70860975D01*
X131889547Y-70813458D01*
X132033911Y-70736294D01*
X132160448Y-70632448D01*
X132264294Y-70505912D01*
X132341458Y-70361548D01*
X132388975Y-70204904D01*
X132401000Y-70082815D01*
X132401000Y-69201185D01*
X132388975Y-69079096D01*
X132375902Y-69036000D01*
X139404099Y-69036000D01*
X139391026Y-69079096D01*
X139379000Y-69201185D01*
X139379000Y-70082814D01*
X139391025Y-70204903D01*
X139438542Y-70361547D01*
X139515706Y-70505911D01*
X139619552Y-70632448D01*
X139746088Y-70736294D01*
X139890452Y-70813458D01*
X140047096Y-70860975D01*
X140210000Y-70877020D01*
X140372903Y-70860975D01*
X140529547Y-70813458D01*
X140673911Y-70736294D01*
X140800448Y-70632448D01*
X140904294Y-70505912D01*
X140981458Y-70361548D01*
X141028975Y-70204904D01*
X141041000Y-70082815D01*
X141041000Y-69201185D01*
X141028975Y-69079096D01*
X141015902Y-69036000D01*
X144757695Y-69036000D01*
X145184360Y-69077835D01*
X145573319Y-69195268D01*
X145932058Y-69386013D01*
X146246918Y-69642807D01*
X146505899Y-69955862D01*
X146699147Y-70313266D01*
X146819293Y-70701394D01*
X146864000Y-71126756D01*
X146864000Y-84163103D01*
X146834717Y-84133820D01*
X146633097Y-83999102D01*
X146409069Y-83906307D01*
X146171243Y-83859000D01*
X145928757Y-83859000D01*
X145690931Y-83906307D01*
X145466903Y-83999102D01*
X145265283Y-84133820D01*
X145093820Y-84305283D01*
X144959102Y-84506903D01*
X144866307Y-84730931D01*
X144819000Y-84968757D01*
X144819000Y-85211243D01*
X144866307Y-85449069D01*
X144959102Y-85673097D01*
X145093820Y-85874717D01*
X145265283Y-86046180D01*
X145466903Y-86180898D01*
X145690931Y-86273693D01*
X145928757Y-86321000D01*
X146171243Y-86321000D01*
X146409069Y-86273693D01*
X146633097Y-86180898D01*
X146834717Y-86046180D01*
X146864000Y-86016897D01*
X146864000Y-86703103D01*
X146834717Y-86673820D01*
X146633097Y-86539102D01*
X146409069Y-86446307D01*
X146171243Y-86399000D01*
X145928757Y-86399000D01*
X145690931Y-86446307D01*
X145466903Y-86539102D01*
X145265283Y-86673820D01*
X145093820Y-86845283D01*
X144959102Y-87046903D01*
X144866307Y-87270931D01*
X144819000Y-87508757D01*
X144819000Y-87751243D01*
X144866307Y-87989069D01*
X144959102Y-88213097D01*
X145093820Y-88414717D01*
X145265283Y-88586180D01*
X145466903Y-88720898D01*
X145690931Y-88813693D01*
X145928757Y-88861000D01*
X146171243Y-88861000D01*
X146409069Y-88813693D01*
X146633097Y-88720898D01*
X146834717Y-88586180D01*
X146864000Y-88556897D01*
X146864000Y-89243103D01*
X146834717Y-89213820D01*
X146633097Y-89079102D01*
X146409069Y-88986307D01*
X146171243Y-88939000D01*
X145928757Y-88939000D01*
X145690931Y-88986307D01*
X145466903Y-89079102D01*
X145265283Y-89213820D01*
X145093820Y-89385283D01*
X144959102Y-89586903D01*
X144866307Y-89810931D01*
X144819000Y-90048757D01*
X144819000Y-90291243D01*
X144866307Y-90529069D01*
X144959102Y-90753097D01*
X145093820Y-90954717D01*
X145265283Y-91126180D01*
X145466903Y-91260898D01*
X145690931Y-91353693D01*
X145928757Y-91401000D01*
X146171243Y-91401000D01*
X146409069Y-91353693D01*
X146633097Y-91260898D01*
X146834717Y-91126180D01*
X146864000Y-91096897D01*
X146864000Y-91783103D01*
X146834717Y-91753820D01*
X146633097Y-91619102D01*
X146409069Y-91526307D01*
X146171243Y-91479000D01*
X145928757Y-91479000D01*
X145690931Y-91526307D01*
X145466903Y-91619102D01*
X145265283Y-91753820D01*
X145093820Y-91925283D01*
X144959102Y-92126903D01*
X144866307Y-92350931D01*
X144819000Y-92588757D01*
X144819000Y-92831243D01*
X144866307Y-93069069D01*
X144959102Y-93293097D01*
X145093820Y-93494717D01*
X145265283Y-93666180D01*
X145466903Y-93800898D01*
X145690931Y-93893693D01*
X145928757Y-93941000D01*
X146171243Y-93941000D01*
X146409069Y-93893693D01*
X146633097Y-93800898D01*
X146834717Y-93666180D01*
X146864000Y-93636897D01*
X146864001Y-94323104D01*
X146834717Y-94293820D01*
X146633097Y-94159102D01*
X146409069Y-94066307D01*
X146171243Y-94019000D01*
X145928757Y-94019000D01*
X145690931Y-94066307D01*
X145466903Y-94159102D01*
X145265283Y-94293820D01*
X145093820Y-94465283D01*
X144959102Y-94666903D01*
X144866307Y-94890931D01*
X144819000Y-95128757D01*
X144819000Y-95371243D01*
X144866307Y-95609069D01*
X144959102Y-95833097D01*
X145093820Y-96034717D01*
X145265283Y-96206180D01*
X145466903Y-96340898D01*
X145690931Y-96433693D01*
X145928757Y-96481000D01*
X146171243Y-96481000D01*
X146409069Y-96433693D01*
X146633097Y-96340898D01*
X146834717Y-96206180D01*
X146864001Y-96176896D01*
X146864001Y-96863104D01*
X146834717Y-96833820D01*
X146633097Y-96699102D01*
X146409069Y-96606307D01*
X146171243Y-96559000D01*
X145928757Y-96559000D01*
X145690931Y-96606307D01*
X145466903Y-96699102D01*
X145265283Y-96833820D01*
X145093820Y-97005283D01*
X144959102Y-97206903D01*
X144948310Y-97232957D01*
X144944469Y-97230390D01*
X144834184Y-97184708D01*
X144717106Y-97161420D01*
X144597734Y-97161420D01*
X144480656Y-97184708D01*
X144370371Y-97230390D01*
X144271118Y-97296709D01*
X144186709Y-97381118D01*
X144120390Y-97480371D01*
X144074708Y-97590656D01*
X144051420Y-97707734D01*
X144051420Y-97827106D01*
X144074708Y-97944184D01*
X144120390Y-98054469D01*
X144186709Y-98153722D01*
X144271118Y-98238131D01*
X144370371Y-98304450D01*
X144480656Y-98350132D01*
X144597734Y-98373420D01*
X144717106Y-98373420D01*
X144834184Y-98350132D01*
X144932689Y-98309330D01*
X144959102Y-98373097D01*
X145093820Y-98574717D01*
X145265283Y-98746180D01*
X145466903Y-98880898D01*
X145690931Y-98973693D01*
X145928757Y-99021000D01*
X146171243Y-99021000D01*
X146409069Y-98973693D01*
X146633097Y-98880898D01*
X146834717Y-98746180D01*
X146864001Y-98716896D01*
X146864001Y-99403104D01*
X146834717Y-99373820D01*
X146633097Y-99239102D01*
X146409069Y-99146307D01*
X146171243Y-99099000D01*
X145928757Y-99099000D01*
X145690931Y-99146307D01*
X145466903Y-99239102D01*
X145265283Y-99373820D01*
X145093820Y-99545283D01*
X145052673Y-99606864D01*
X144957049Y-99542970D01*
X144846764Y-99497288D01*
X144729686Y-99474000D01*
X144610314Y-99474000D01*
X144493236Y-99497288D01*
X144382951Y-99542970D01*
X144283698Y-99609289D01*
X144199289Y-99693698D01*
X144132970Y-99792951D01*
X144087288Y-99903236D01*
X144064000Y-100020314D01*
X144064000Y-100139686D01*
X144087288Y-100256764D01*
X144132970Y-100367049D01*
X144199289Y-100466302D01*
X144283698Y-100550711D01*
X144382951Y-100617030D01*
X144493236Y-100662712D01*
X144610314Y-100686000D01*
X144729686Y-100686000D01*
X144846764Y-100662712D01*
X144859976Y-100657239D01*
X144866307Y-100689069D01*
X144959102Y-100913097D01*
X145079705Y-101093593D01*
X145063698Y-101104289D01*
X144979289Y-101188698D01*
X144912970Y-101287951D01*
X144867288Y-101398236D01*
X144844000Y-101515314D01*
X144844000Y-101634686D01*
X144867288Y-101751764D01*
X144912970Y-101862049D01*
X144979289Y-101961302D01*
X145063698Y-102045711D01*
X145105476Y-102073627D01*
X145093820Y-102085283D01*
X145021093Y-102194127D01*
X144937049Y-102137970D01*
X144826764Y-102092288D01*
X144709686Y-102069000D01*
X144590314Y-102069000D01*
X144473236Y-102092288D01*
X144362951Y-102137970D01*
X144263698Y-102204289D01*
X144179289Y-102288698D01*
X144112970Y-102387951D01*
X144067288Y-102498236D01*
X144044000Y-102615314D01*
X144044000Y-102734686D01*
X144067288Y-102851764D01*
X144112970Y-102962049D01*
X144179289Y-103061302D01*
X144263698Y-103145711D01*
X144362951Y-103212030D01*
X144473236Y-103257712D01*
X144590314Y-103281000D01*
X144709686Y-103281000D01*
X144826764Y-103257712D01*
X144870643Y-103239537D01*
X144959102Y-103453097D01*
X145093820Y-103654717D01*
X145265283Y-103826180D01*
X145466903Y-103960898D01*
X145690931Y-104053693D01*
X145928757Y-104101000D01*
X146171243Y-104101000D01*
X146409069Y-104053693D01*
X146633097Y-103960898D01*
X146834717Y-103826180D01*
X146864001Y-103796896D01*
X146864001Y-104483104D01*
X146834717Y-104453820D01*
X146633097Y-104319102D01*
X146409069Y-104226307D01*
X146171243Y-104179000D01*
X145928757Y-104179000D01*
X145690931Y-104226307D01*
X145466903Y-104319102D01*
X145265283Y-104453820D01*
X145093820Y-104625283D01*
X145041691Y-104703300D01*
X145007978Y-104621910D01*
X144933451Y-104510372D01*
X144838596Y-104415517D01*
X144727058Y-104340990D01*
X144603124Y-104289655D01*
X144471557Y-104263484D01*
X144337411Y-104263484D01*
X144205844Y-104289655D01*
X144081910Y-104340990D01*
X143970372Y-104415517D01*
X143875517Y-104510372D01*
X143800990Y-104621910D01*
X143749655Y-104745844D01*
X143723484Y-104877411D01*
X143723484Y-105011557D01*
X143749655Y-105143124D01*
X143800990Y-105267058D01*
X143875517Y-105378596D01*
X143901921Y-105405000D01*
X143881033Y-105425888D01*
X143806506Y-105537426D01*
X143755171Y-105661360D01*
X143729000Y-105792927D01*
X143729000Y-105927073D01*
X143755171Y-106058640D01*
X143806506Y-106182574D01*
X143881033Y-106294112D01*
X143975888Y-106388967D01*
X144087426Y-106463494D01*
X144211360Y-106514829D01*
X144342927Y-106541000D01*
X144477073Y-106541000D01*
X144608640Y-106514829D01*
X144732574Y-106463494D01*
X144844112Y-106388967D01*
X144938967Y-106294112D01*
X145013494Y-106182574D01*
X145041128Y-106115858D01*
X145093820Y-106194717D01*
X145265283Y-106366180D01*
X145466903Y-106500898D01*
X145690931Y-106593693D01*
X145928757Y-106641000D01*
X146171243Y-106641000D01*
X146409069Y-106593693D01*
X146633097Y-106500898D01*
X146834717Y-106366180D01*
X146864001Y-106336896D01*
X146864001Y-107023104D01*
X146834717Y-106993820D01*
X146633097Y-106859102D01*
X146409069Y-106766307D01*
X146171243Y-106719000D01*
X145928757Y-106719000D01*
X145690931Y-106766307D01*
X145466903Y-106859102D01*
X145265283Y-106993820D01*
X145093820Y-107165283D01*
X144959102Y-107366903D01*
X144866307Y-107590931D01*
X144819000Y-107828757D01*
X144819000Y-108071243D01*
X144866307Y-108309069D01*
X144959102Y-108533097D01*
X145093820Y-108734717D01*
X145265283Y-108906180D01*
X145466903Y-109040898D01*
X145690931Y-109133693D01*
X145928757Y-109181000D01*
X146171243Y-109181000D01*
X146409069Y-109133693D01*
X146633097Y-109040898D01*
X146834717Y-108906180D01*
X146864001Y-108876896D01*
X146864001Y-109563104D01*
X146834717Y-109533820D01*
X146633097Y-109399102D01*
X146409069Y-109306307D01*
X146171243Y-109259000D01*
X145928757Y-109259000D01*
X145690931Y-109306307D01*
X145466903Y-109399102D01*
X145265283Y-109533820D01*
X145093820Y-109705283D01*
X144959102Y-109906903D01*
X144866307Y-110130931D01*
X144819000Y-110368757D01*
X144819000Y-110611243D01*
X144866307Y-110849069D01*
X144959102Y-111073097D01*
X145093820Y-111274717D01*
X145265283Y-111446180D01*
X145466903Y-111580898D01*
X145690931Y-111673693D01*
X145928757Y-111721000D01*
X146171243Y-111721000D01*
X146409069Y-111673693D01*
X146633097Y-111580898D01*
X146834717Y-111446180D01*
X146864001Y-111416896D01*
X146864001Y-112103104D01*
X146834717Y-112073820D01*
X146633097Y-111939102D01*
X146409069Y-111846307D01*
X146171243Y-111799000D01*
X145928757Y-111799000D01*
X145690931Y-111846307D01*
X145466903Y-111939102D01*
X145265283Y-112073820D01*
X145093820Y-112245283D01*
X144959102Y-112446903D01*
X144866307Y-112670931D01*
X144819000Y-112908757D01*
X144819000Y-113151243D01*
X144866307Y-113389069D01*
X144959102Y-113613097D01*
X145093820Y-113814717D01*
X145265283Y-113986180D01*
X145466903Y-114120898D01*
X145690931Y-114213693D01*
X145928757Y-114261000D01*
X146171243Y-114261000D01*
X146409069Y-114213693D01*
X146633097Y-114120898D01*
X146834717Y-113986180D01*
X146864001Y-113956896D01*
X146864001Y-116817684D01*
X146822165Y-117244359D01*
X146704732Y-117633319D01*
X146513987Y-117992058D01*
X146257193Y-118306918D01*
X145944138Y-118565899D01*
X145586734Y-118759147D01*
X145198606Y-118879293D01*
X144773244Y-118924000D01*
X127022305Y-118924000D01*
X126595641Y-118882165D01*
X126206681Y-118764732D01*
X125847942Y-118573987D01*
X125533082Y-118317193D01*
X125274101Y-118004138D01*
X125080853Y-117646734D01*
X124960707Y-117258606D01*
X124916000Y-116833244D01*
X124916000Y-116677391D01*
X125349000Y-116677391D01*
X125349000Y-117002609D01*
X125412447Y-117321579D01*
X125536903Y-117622042D01*
X125717585Y-117892451D01*
X125947549Y-118122415D01*
X126217958Y-118303097D01*
X126518421Y-118427553D01*
X126837391Y-118491000D01*
X127162609Y-118491000D01*
X127481579Y-118427553D01*
X127782042Y-118303097D01*
X128052451Y-118122415D01*
X128282415Y-117892451D01*
X128463097Y-117622042D01*
X128587553Y-117321579D01*
X128651000Y-117002609D01*
X128651000Y-116677391D01*
X143129000Y-116677391D01*
X143129000Y-117002609D01*
X143192447Y-117321579D01*
X143316903Y-117622042D01*
X143497585Y-117892451D01*
X143727549Y-118122415D01*
X143997958Y-118303097D01*
X144298421Y-118427553D01*
X144617391Y-118491000D01*
X144942609Y-118491000D01*
X145261579Y-118427553D01*
X145562042Y-118303097D01*
X145832451Y-118122415D01*
X146062415Y-117892451D01*
X146243097Y-117622042D01*
X146367553Y-117321579D01*
X146431000Y-117002609D01*
X146431000Y-116677391D01*
X146367553Y-116358421D01*
X146243097Y-116057958D01*
X146062415Y-115787549D01*
X145832451Y-115557585D01*
X145562042Y-115376903D01*
X145261579Y-115252447D01*
X144942609Y-115189000D01*
X144617391Y-115189000D01*
X144298421Y-115252447D01*
X143997958Y-115376903D01*
X143727549Y-115557585D01*
X143497585Y-115787549D01*
X143316903Y-116057958D01*
X143192447Y-116358421D01*
X143129000Y-116677391D01*
X128651000Y-116677391D01*
X128587553Y-116358421D01*
X128463097Y-116057958D01*
X128282415Y-115787549D01*
X128052451Y-115557585D01*
X127782042Y-115376903D01*
X127481579Y-115252447D01*
X127162609Y-115189000D01*
X126837391Y-115189000D01*
X126518421Y-115252447D01*
X126217958Y-115376903D01*
X125947549Y-115557585D01*
X125717585Y-115787549D01*
X125536903Y-116057958D01*
X125412447Y-116358421D01*
X125349000Y-116677391D01*
X124916000Y-116677391D01*
X124916000Y-114006635D01*
X125043267Y-114106629D01*
X125266502Y-114219917D01*
X125507549Y-114287477D01*
X125707000Y-114200044D01*
X125707000Y-113053000D01*
X125753000Y-113053000D01*
X125753000Y-114200044D01*
X125952451Y-114287477D01*
X126193498Y-114219917D01*
X126416733Y-114106629D01*
X126613578Y-113951967D01*
X126776467Y-113761874D01*
X126899141Y-113543656D01*
X126976886Y-113305698D01*
X126987476Y-113252451D01*
X126900024Y-113053000D01*
X125753000Y-113053000D01*
X125707000Y-113053000D01*
X125687000Y-113053000D01*
X125687000Y-113007000D01*
X125707000Y-113007000D01*
X125707000Y-111859956D01*
X125753000Y-111859956D01*
X125753000Y-113007000D01*
X126900024Y-113007000D01*
X126987476Y-112807549D01*
X126976886Y-112754302D01*
X126899141Y-112516344D01*
X126776467Y-112298126D01*
X126613578Y-112108033D01*
X126416733Y-111953371D01*
X126193498Y-111840083D01*
X125952451Y-111772523D01*
X125753000Y-111859956D01*
X125707000Y-111859956D01*
X125507549Y-111772523D01*
X125266502Y-111840083D01*
X125043267Y-111953371D01*
X124916000Y-112053365D01*
X124916000Y-111416897D01*
X124945283Y-111446180D01*
X125146903Y-111580898D01*
X125370931Y-111673693D01*
X125608757Y-111721000D01*
X125851243Y-111721000D01*
X126089069Y-111673693D01*
X126313097Y-111580898D01*
X126514717Y-111446180D01*
X126686180Y-111274717D01*
X126820898Y-111073097D01*
X126913693Y-110849069D01*
X126960190Y-110615314D01*
X136444000Y-110615314D01*
X136444000Y-110734686D01*
X136467288Y-110851764D01*
X136512970Y-110962049D01*
X136579289Y-111061302D01*
X136663698Y-111145711D01*
X136762951Y-111212030D01*
X136873236Y-111257712D01*
X136990314Y-111281000D01*
X137109686Y-111281000D01*
X137226764Y-111257712D01*
X137337049Y-111212030D01*
X137436302Y-111145711D01*
X137520711Y-111061302D01*
X137587030Y-110962049D01*
X137615683Y-110892875D01*
X137663698Y-110940890D01*
X137762951Y-111007209D01*
X137873236Y-111052891D01*
X137990314Y-111076179D01*
X138109686Y-111076179D01*
X138226764Y-111052891D01*
X138337049Y-111007209D01*
X138436302Y-110940890D01*
X138520711Y-110856481D01*
X138587030Y-110757228D01*
X138632712Y-110646943D01*
X138656000Y-110529865D01*
X138656000Y-110410493D01*
X138632712Y-110293415D01*
X138587030Y-110183130D01*
X138520711Y-110083877D01*
X138436302Y-109999468D01*
X138337049Y-109933149D01*
X138226764Y-109887467D01*
X138109686Y-109864179D01*
X137990314Y-109864179D01*
X137873236Y-109887467D01*
X137762951Y-109933149D01*
X137663698Y-109999468D01*
X137579289Y-110083877D01*
X137512970Y-110183130D01*
X137484317Y-110252304D01*
X137436302Y-110204289D01*
X137337049Y-110137970D01*
X137226764Y-110092288D01*
X137109686Y-110069000D01*
X136990314Y-110069000D01*
X136873236Y-110092288D01*
X136762951Y-110137970D01*
X136663698Y-110204289D01*
X136579289Y-110288698D01*
X136512970Y-110387951D01*
X136467288Y-110498236D01*
X136444000Y-110615314D01*
X126960190Y-110615314D01*
X126961000Y-110611243D01*
X126961000Y-110368757D01*
X126913693Y-110130931D01*
X126820898Y-109906903D01*
X126686180Y-109705283D01*
X126514717Y-109533820D01*
X126313097Y-109399102D01*
X126089069Y-109306307D01*
X125851243Y-109259000D01*
X125608757Y-109259000D01*
X125370931Y-109306307D01*
X125146903Y-109399102D01*
X124945283Y-109533820D01*
X124916000Y-109563103D01*
X124916000Y-108876897D01*
X124945283Y-108906180D01*
X125146903Y-109040898D01*
X125370931Y-109133693D01*
X125608757Y-109181000D01*
X125851243Y-109181000D01*
X126089069Y-109133693D01*
X126313097Y-109040898D01*
X126514717Y-108906180D01*
X126686180Y-108734717D01*
X126820898Y-108533097D01*
X126828263Y-108515314D01*
X135619000Y-108515314D01*
X135619000Y-108634686D01*
X135642288Y-108751764D01*
X135687970Y-108862049D01*
X135754289Y-108961302D01*
X135838698Y-109045711D01*
X135937951Y-109112030D01*
X136048236Y-109157712D01*
X136165314Y-109181000D01*
X136284686Y-109181000D01*
X136401764Y-109157712D01*
X136512049Y-109112030D01*
X136611302Y-109045711D01*
X136695711Y-108961302D01*
X136762030Y-108862049D01*
X136807712Y-108751764D01*
X136831000Y-108634686D01*
X136831000Y-108515314D01*
X136807712Y-108398236D01*
X136762030Y-108287951D01*
X136695711Y-108188698D01*
X136611302Y-108104289D01*
X136552973Y-108065314D01*
X139419000Y-108065314D01*
X139419000Y-108184686D01*
X139442288Y-108301764D01*
X139487970Y-108412049D01*
X139554289Y-108511302D01*
X139638698Y-108595711D01*
X139737951Y-108662030D01*
X139848236Y-108707712D01*
X139965314Y-108731000D01*
X140084686Y-108731000D01*
X140201764Y-108707712D01*
X140204618Y-108706530D01*
X140237970Y-108787049D01*
X140304289Y-108886302D01*
X140388698Y-108970711D01*
X140487951Y-109037030D01*
X140598236Y-109082712D01*
X140715314Y-109106000D01*
X140834686Y-109106000D01*
X140951764Y-109082712D01*
X141062049Y-109037030D01*
X141161302Y-108970711D01*
X141245711Y-108886302D01*
X141312030Y-108787049D01*
X141357712Y-108676764D01*
X141381000Y-108559686D01*
X141381000Y-108440314D01*
X141357712Y-108323236D01*
X141312030Y-108212951D01*
X141245711Y-108113698D01*
X141161302Y-108029289D01*
X141062049Y-107962970D01*
X140951764Y-107917288D01*
X140834686Y-107894000D01*
X140715314Y-107894000D01*
X140598236Y-107917288D01*
X140595382Y-107918470D01*
X140562030Y-107837951D01*
X140495711Y-107738698D01*
X140411302Y-107654289D01*
X140312049Y-107587970D01*
X140271080Y-107571000D01*
X140344686Y-107571000D01*
X140461764Y-107547712D01*
X140572049Y-107502030D01*
X140671302Y-107435711D01*
X140755711Y-107351302D01*
X140822030Y-107252049D01*
X140867712Y-107141764D01*
X140891000Y-107024686D01*
X140891000Y-106905314D01*
X140867712Y-106788236D01*
X140822030Y-106677951D01*
X140755711Y-106578698D01*
X140671302Y-106494289D01*
X140572049Y-106427970D01*
X140461764Y-106382288D01*
X140344686Y-106359000D01*
X140225314Y-106359000D01*
X140108236Y-106382288D01*
X139997951Y-106427970D01*
X139898698Y-106494289D01*
X139814289Y-106578698D01*
X139747970Y-106677951D01*
X139702288Y-106788236D01*
X139679000Y-106905314D01*
X139679000Y-107024686D01*
X139702288Y-107141764D01*
X139747970Y-107252049D01*
X139814289Y-107351302D01*
X139898698Y-107435711D01*
X139997951Y-107502030D01*
X140038920Y-107519000D01*
X139965314Y-107519000D01*
X139848236Y-107542288D01*
X139737951Y-107587970D01*
X139638698Y-107654289D01*
X139554289Y-107738698D01*
X139487970Y-107837951D01*
X139442288Y-107948236D01*
X139419000Y-108065314D01*
X136552973Y-108065314D01*
X136512049Y-108037970D01*
X136401764Y-107992288D01*
X136284686Y-107969000D01*
X136165314Y-107969000D01*
X136048236Y-107992288D01*
X135937951Y-108037970D01*
X135838698Y-108104289D01*
X135754289Y-108188698D01*
X135687970Y-108287951D01*
X135642288Y-108398236D01*
X135619000Y-108515314D01*
X126828263Y-108515314D01*
X126913693Y-108309069D01*
X126961000Y-108071243D01*
X126961000Y-107828757D01*
X126913693Y-107590931D01*
X126820898Y-107366903D01*
X126686180Y-107165283D01*
X126514717Y-106993820D01*
X126313097Y-106859102D01*
X126089069Y-106766307D01*
X125851243Y-106719000D01*
X125608757Y-106719000D01*
X125370931Y-106766307D01*
X125146903Y-106859102D01*
X124945283Y-106993820D01*
X124916000Y-107023103D01*
X124916000Y-106336897D01*
X124945283Y-106366180D01*
X125146903Y-106500898D01*
X125370931Y-106593693D01*
X125608757Y-106641000D01*
X125851243Y-106641000D01*
X126089069Y-106593693D01*
X126313097Y-106500898D01*
X126514717Y-106366180D01*
X126686180Y-106194717D01*
X126820898Y-105993097D01*
X126863471Y-105890314D01*
X135619000Y-105890314D01*
X135619000Y-106009686D01*
X135642288Y-106126764D01*
X135687970Y-106237049D01*
X135754289Y-106336302D01*
X135838698Y-106420711D01*
X135937951Y-106487030D01*
X136048236Y-106532712D01*
X136165314Y-106556000D01*
X136284686Y-106556000D01*
X136401764Y-106532712D01*
X136512049Y-106487030D01*
X136611302Y-106420711D01*
X136695711Y-106336302D01*
X136762030Y-106237049D01*
X136807712Y-106126764D01*
X136831000Y-106009686D01*
X136831000Y-105890314D01*
X136807712Y-105773236D01*
X136762030Y-105662951D01*
X136695711Y-105563698D01*
X136611302Y-105479289D01*
X136512049Y-105412970D01*
X136401764Y-105367288D01*
X136284686Y-105344000D01*
X136165314Y-105344000D01*
X136048236Y-105367288D01*
X135937951Y-105412970D01*
X135838698Y-105479289D01*
X135754289Y-105563698D01*
X135687970Y-105662951D01*
X135642288Y-105773236D01*
X135619000Y-105890314D01*
X126863471Y-105890314D01*
X126913693Y-105769069D01*
X126961000Y-105531243D01*
X126961000Y-105288757D01*
X126941419Y-105190314D01*
X128994000Y-105190314D01*
X128994000Y-105309686D01*
X129017288Y-105426764D01*
X129062970Y-105537049D01*
X129129289Y-105636302D01*
X129213698Y-105720711D01*
X129312951Y-105787030D01*
X129423236Y-105832712D01*
X129540314Y-105856000D01*
X129659686Y-105856000D01*
X129776764Y-105832712D01*
X129887049Y-105787030D01*
X129986302Y-105720711D01*
X130070711Y-105636302D01*
X130137030Y-105537049D01*
X130182712Y-105426764D01*
X130206000Y-105309686D01*
X130206000Y-105190314D01*
X130182712Y-105073236D01*
X130137030Y-104962951D01*
X130070711Y-104863698D01*
X129986302Y-104779289D01*
X129887049Y-104712970D01*
X129776764Y-104667288D01*
X129659686Y-104644000D01*
X129540314Y-104644000D01*
X129423236Y-104667288D01*
X129312951Y-104712970D01*
X129213698Y-104779289D01*
X129129289Y-104863698D01*
X129062970Y-104962951D01*
X129017288Y-105073236D01*
X128994000Y-105190314D01*
X126941419Y-105190314D01*
X126913693Y-105050931D01*
X126820898Y-104826903D01*
X126686180Y-104625283D01*
X126514717Y-104453820D01*
X126313097Y-104319102D01*
X126089069Y-104226307D01*
X125851243Y-104179000D01*
X125608757Y-104179000D01*
X125370931Y-104226307D01*
X125146903Y-104319102D01*
X124945283Y-104453820D01*
X124916000Y-104483103D01*
X124916000Y-103796897D01*
X124945283Y-103826180D01*
X125146903Y-103960898D01*
X125370931Y-104053693D01*
X125608757Y-104101000D01*
X125851243Y-104101000D01*
X126089069Y-104053693D01*
X126181724Y-104015314D01*
X126769000Y-104015314D01*
X126769000Y-104134686D01*
X126792288Y-104251764D01*
X126837970Y-104362049D01*
X126904289Y-104461302D01*
X126988698Y-104545711D01*
X127087951Y-104612030D01*
X127198236Y-104657712D01*
X127315314Y-104681000D01*
X127434686Y-104681000D01*
X127551764Y-104657712D01*
X127662049Y-104612030D01*
X127694549Y-104590314D01*
X139844000Y-104590314D01*
X139844000Y-104709686D01*
X139867288Y-104826764D01*
X139912970Y-104937049D01*
X139979289Y-105036302D01*
X140063698Y-105120711D01*
X140162951Y-105187030D01*
X140273236Y-105232712D01*
X140390314Y-105256000D01*
X140435967Y-105256000D01*
X140363698Y-105304289D01*
X140279289Y-105388698D01*
X140212970Y-105487951D01*
X140167288Y-105598236D01*
X140144000Y-105715314D01*
X140144000Y-105834686D01*
X140167288Y-105951764D01*
X140212970Y-106062049D01*
X140279289Y-106161302D01*
X140363698Y-106245711D01*
X140462951Y-106312030D01*
X140573236Y-106357712D01*
X140690314Y-106381000D01*
X140809686Y-106381000D01*
X140926764Y-106357712D01*
X141037049Y-106312030D01*
X141136302Y-106245711D01*
X141220711Y-106161302D01*
X141287030Y-106062049D01*
X141332712Y-105951764D01*
X141356000Y-105834686D01*
X141356000Y-105715314D01*
X141332712Y-105598236D01*
X141287030Y-105487951D01*
X141220711Y-105388698D01*
X141136302Y-105304289D01*
X141037049Y-105237970D01*
X140926764Y-105192288D01*
X140809686Y-105169000D01*
X140764033Y-105169000D01*
X140836302Y-105120711D01*
X140920711Y-105036302D01*
X140987030Y-104937049D01*
X141032712Y-104826764D01*
X141056000Y-104709686D01*
X141056000Y-104590314D01*
X141032712Y-104473236D01*
X140987030Y-104362951D01*
X140931039Y-104279155D01*
X140940314Y-104281000D01*
X141059686Y-104281000D01*
X141176764Y-104257712D01*
X141287049Y-104212030D01*
X141386302Y-104145711D01*
X141470711Y-104061302D01*
X141537030Y-103962049D01*
X141582712Y-103851764D01*
X141606000Y-103734686D01*
X141606000Y-103615314D01*
X141582712Y-103498236D01*
X141537030Y-103387951D01*
X141470711Y-103288698D01*
X141386302Y-103204289D01*
X141287049Y-103137970D01*
X141176764Y-103092288D01*
X141059686Y-103069000D01*
X140940314Y-103069000D01*
X140823236Y-103092288D01*
X140712951Y-103137970D01*
X140613698Y-103204289D01*
X140529289Y-103288698D01*
X140462970Y-103387951D01*
X140417288Y-103498236D01*
X140394000Y-103615314D01*
X140394000Y-103734686D01*
X140417288Y-103851764D01*
X140462970Y-103962049D01*
X140518961Y-104045845D01*
X140509686Y-104044000D01*
X140390314Y-104044000D01*
X140273236Y-104067288D01*
X140162951Y-104112970D01*
X140063698Y-104179289D01*
X139979289Y-104263698D01*
X139912970Y-104362951D01*
X139867288Y-104473236D01*
X139844000Y-104590314D01*
X127694549Y-104590314D01*
X127761302Y-104545711D01*
X127845711Y-104461302D01*
X127912030Y-104362049D01*
X127957712Y-104251764D01*
X127981000Y-104134686D01*
X127981000Y-104015314D01*
X127957712Y-103898236D01*
X127912030Y-103787951D01*
X127845711Y-103688698D01*
X127761302Y-103604289D01*
X127662049Y-103537970D01*
X127551764Y-103492288D01*
X127434686Y-103469000D01*
X127315314Y-103469000D01*
X127198236Y-103492288D01*
X127087951Y-103537970D01*
X126988698Y-103604289D01*
X126904289Y-103688698D01*
X126837970Y-103787951D01*
X126792288Y-103898236D01*
X126769000Y-104015314D01*
X126181724Y-104015314D01*
X126313097Y-103960898D01*
X126514717Y-103826180D01*
X126686180Y-103654717D01*
X126820898Y-103453097D01*
X126898732Y-103265187D01*
X135739187Y-103265187D01*
X135739187Y-103384559D01*
X135762475Y-103501637D01*
X135808157Y-103611922D01*
X135874476Y-103711175D01*
X135958885Y-103795584D01*
X136058138Y-103861903D01*
X136168423Y-103907585D01*
X136285501Y-103930873D01*
X136404873Y-103930873D01*
X136521951Y-103907585D01*
X136632236Y-103861903D01*
X136731489Y-103795584D01*
X136815898Y-103711175D01*
X136882217Y-103611922D01*
X136927899Y-103501637D01*
X136951187Y-103384559D01*
X136951187Y-103265187D01*
X136927899Y-103148109D01*
X136882217Y-103037824D01*
X136815898Y-102938571D01*
X136731489Y-102854162D01*
X136632236Y-102787843D01*
X136521951Y-102742161D01*
X136404873Y-102718873D01*
X136285501Y-102718873D01*
X136168423Y-102742161D01*
X136058138Y-102787843D01*
X135958885Y-102854162D01*
X135874476Y-102938571D01*
X135808157Y-103037824D01*
X135762475Y-103148109D01*
X135739187Y-103265187D01*
X126898732Y-103265187D01*
X126913693Y-103229069D01*
X126961000Y-102991243D01*
X126961000Y-102748757D01*
X126913693Y-102510931D01*
X126853377Y-102365314D01*
X130294000Y-102365314D01*
X130294000Y-102484686D01*
X130317288Y-102601764D01*
X130362970Y-102712049D01*
X130429289Y-102811302D01*
X130513698Y-102895711D01*
X130612951Y-102962030D01*
X130723236Y-103007712D01*
X130840314Y-103031000D01*
X130959686Y-103031000D01*
X131076764Y-103007712D01*
X131187049Y-102962030D01*
X131286302Y-102895711D01*
X131370711Y-102811302D01*
X131437030Y-102712049D01*
X131482712Y-102601764D01*
X131506000Y-102484686D01*
X131506000Y-102365314D01*
X131482712Y-102248236D01*
X131437030Y-102137951D01*
X131370711Y-102038698D01*
X131286302Y-101954289D01*
X131187049Y-101887970D01*
X131076764Y-101842288D01*
X130959686Y-101819000D01*
X130840314Y-101819000D01*
X130723236Y-101842288D01*
X130612951Y-101887970D01*
X130513698Y-101954289D01*
X130429289Y-102038698D01*
X130362970Y-102137951D01*
X130317288Y-102248236D01*
X130294000Y-102365314D01*
X126853377Y-102365314D01*
X126820898Y-102286903D01*
X126686180Y-102085283D01*
X126514717Y-101913820D01*
X126313097Y-101779102D01*
X126089069Y-101686307D01*
X125851243Y-101639000D01*
X125608757Y-101639000D01*
X125370931Y-101686307D01*
X125146903Y-101779102D01*
X124945283Y-101913820D01*
X124916000Y-101943103D01*
X124916000Y-101256897D01*
X124945283Y-101286180D01*
X125146903Y-101420898D01*
X125370931Y-101513693D01*
X125608757Y-101561000D01*
X125851243Y-101561000D01*
X126089069Y-101513693D01*
X126313097Y-101420898D01*
X126514717Y-101286180D01*
X126686180Y-101114717D01*
X126820898Y-100913097D01*
X126913693Y-100689069D01*
X126961000Y-100451243D01*
X126961000Y-100380314D01*
X128904002Y-100380314D01*
X128904002Y-100499686D01*
X128927290Y-100616764D01*
X128972972Y-100727049D01*
X129039291Y-100826302D01*
X129123700Y-100910711D01*
X129222953Y-100977030D01*
X129333238Y-101022712D01*
X129450316Y-101046000D01*
X129569688Y-101046000D01*
X129686766Y-101022712D01*
X129797051Y-100977030D01*
X129896304Y-100910711D01*
X129980713Y-100826302D01*
X130047032Y-100727049D01*
X130092714Y-100616764D01*
X130116002Y-100499686D01*
X130116002Y-100380314D01*
X130092714Y-100263236D01*
X130047032Y-100152951D01*
X129980713Y-100053698D01*
X129896304Y-99969289D01*
X129797051Y-99902970D01*
X129686766Y-99857288D01*
X129569688Y-99834000D01*
X129450316Y-99834000D01*
X129333238Y-99857288D01*
X129222953Y-99902970D01*
X129123700Y-99969289D01*
X129039291Y-100053698D01*
X128972972Y-100152951D01*
X128927290Y-100263236D01*
X128904002Y-100380314D01*
X126961000Y-100380314D01*
X126961000Y-100208757D01*
X126913693Y-99970931D01*
X126838491Y-99789375D01*
X136974068Y-99789375D01*
X136974068Y-99908747D01*
X136997356Y-100025825D01*
X137043038Y-100136110D01*
X137109357Y-100235363D01*
X137193766Y-100319772D01*
X137293019Y-100386091D01*
X137403304Y-100431773D01*
X137520382Y-100455061D01*
X137639754Y-100455061D01*
X137756832Y-100431773D01*
X137867117Y-100386091D01*
X137966370Y-100319772D01*
X138050779Y-100235363D01*
X138117098Y-100136110D01*
X138162780Y-100025825D01*
X138186068Y-99908747D01*
X138186068Y-99789375D01*
X138162780Y-99672297D01*
X138117098Y-99562012D01*
X138050779Y-99462759D01*
X137966370Y-99378350D01*
X137867117Y-99312031D01*
X137756832Y-99266349D01*
X137639754Y-99243061D01*
X137520382Y-99243061D01*
X137403304Y-99266349D01*
X137293019Y-99312031D01*
X137193766Y-99378350D01*
X137109357Y-99462759D01*
X137043038Y-99562012D01*
X136997356Y-99672297D01*
X136974068Y-99789375D01*
X126838491Y-99789375D01*
X126820898Y-99746903D01*
X126686180Y-99545283D01*
X126514717Y-99373820D01*
X126313097Y-99239102D01*
X126089069Y-99146307D01*
X125851243Y-99099000D01*
X125608757Y-99099000D01*
X125370931Y-99146307D01*
X125146903Y-99239102D01*
X124945283Y-99373820D01*
X124916000Y-99403103D01*
X124916000Y-98716897D01*
X124945283Y-98746180D01*
X125146903Y-98880898D01*
X125370931Y-98973693D01*
X125608757Y-99021000D01*
X125851243Y-99021000D01*
X126089069Y-98973693D01*
X126313097Y-98880898D01*
X126514717Y-98746180D01*
X126548352Y-98712545D01*
X133214961Y-98712545D01*
X133214961Y-98831917D01*
X133238249Y-98948995D01*
X133283931Y-99059280D01*
X133350250Y-99158533D01*
X133434659Y-99242942D01*
X133533912Y-99309261D01*
X133644197Y-99354943D01*
X133761275Y-99378231D01*
X133880647Y-99378231D01*
X133997725Y-99354943D01*
X134108010Y-99309261D01*
X134207263Y-99242942D01*
X134291672Y-99158533D01*
X134357991Y-99059280D01*
X134403673Y-98948995D01*
X134426961Y-98831917D01*
X134426961Y-98746720D01*
X134455773Y-98775532D01*
X134555026Y-98841851D01*
X134665311Y-98887533D01*
X134782389Y-98910821D01*
X134901761Y-98910821D01*
X135018839Y-98887533D01*
X135129124Y-98841851D01*
X135228377Y-98775532D01*
X135238595Y-98765314D01*
X140219000Y-98765314D01*
X140219000Y-98884686D01*
X140242288Y-99001764D01*
X140287970Y-99112049D01*
X140354289Y-99211302D01*
X140438698Y-99295711D01*
X140537951Y-99362030D01*
X140583329Y-99380826D01*
X140583329Y-99472864D01*
X140606617Y-99589942D01*
X140652299Y-99700227D01*
X140718618Y-99799480D01*
X140803027Y-99883889D01*
X140836246Y-99906085D01*
X140811851Y-99964980D01*
X140788563Y-100082058D01*
X140788563Y-100201430D01*
X140811851Y-100318508D01*
X140857533Y-100428793D01*
X140923852Y-100528046D01*
X141008261Y-100612455D01*
X141107514Y-100678774D01*
X141217799Y-100724456D01*
X141334877Y-100747744D01*
X141454249Y-100747744D01*
X141571327Y-100724456D01*
X141681612Y-100678774D01*
X141780865Y-100612455D01*
X141865274Y-100528046D01*
X141931593Y-100428793D01*
X141977275Y-100318508D01*
X142000563Y-100201430D01*
X142000563Y-100082058D01*
X141977275Y-99964980D01*
X141931593Y-99854695D01*
X141865274Y-99755442D01*
X141839867Y-99730035D01*
X141951684Y-99707793D01*
X142061969Y-99662111D01*
X142161222Y-99595792D01*
X142245631Y-99511383D01*
X142311950Y-99412130D01*
X142357632Y-99301845D01*
X142380920Y-99184767D01*
X142380920Y-99065395D01*
X142357632Y-98948317D01*
X142311950Y-98838032D01*
X142245631Y-98738779D01*
X142161222Y-98654370D01*
X142061969Y-98588051D01*
X141951684Y-98542369D01*
X141834606Y-98519081D01*
X141715234Y-98519081D01*
X141598156Y-98542369D01*
X141487871Y-98588051D01*
X141405563Y-98643048D01*
X141362030Y-98537951D01*
X141295711Y-98438698D01*
X141211302Y-98354289D01*
X141112049Y-98287970D01*
X141001764Y-98242288D01*
X140884686Y-98219000D01*
X140765314Y-98219000D01*
X140648236Y-98242288D01*
X140537951Y-98287970D01*
X140438698Y-98354289D01*
X140354289Y-98438698D01*
X140287970Y-98537951D01*
X140242288Y-98648236D01*
X140219000Y-98765314D01*
X135238595Y-98765314D01*
X135312786Y-98691123D01*
X135379105Y-98591870D01*
X135424787Y-98481585D01*
X135448075Y-98364507D01*
X135448075Y-98245135D01*
X135424787Y-98128057D01*
X135379105Y-98017772D01*
X135312786Y-97918519D01*
X135228377Y-97834110D01*
X135129124Y-97767791D01*
X135018839Y-97722109D01*
X134901761Y-97698821D01*
X134782389Y-97698821D01*
X134665311Y-97722109D01*
X134555026Y-97767791D01*
X134455773Y-97834110D01*
X134371364Y-97918519D01*
X134305045Y-98017772D01*
X134259363Y-98128057D01*
X134236075Y-98245135D01*
X134236075Y-98330332D01*
X134207263Y-98301520D01*
X134108010Y-98235201D01*
X133997725Y-98189519D01*
X133880647Y-98166231D01*
X133761275Y-98166231D01*
X133644197Y-98189519D01*
X133533912Y-98235201D01*
X133434659Y-98301520D01*
X133350250Y-98385929D01*
X133283931Y-98485182D01*
X133238249Y-98595467D01*
X133214961Y-98712545D01*
X126548352Y-98712545D01*
X126686180Y-98574717D01*
X126820898Y-98373097D01*
X126913693Y-98149069D01*
X126961000Y-97911243D01*
X126961000Y-97668757D01*
X126955423Y-97640720D01*
X127019289Y-97736302D01*
X127103698Y-97820711D01*
X127202951Y-97887030D01*
X127313236Y-97932712D01*
X127430314Y-97956000D01*
X127549686Y-97956000D01*
X127666764Y-97932712D01*
X127777049Y-97887030D01*
X127876302Y-97820711D01*
X127960711Y-97736302D01*
X127963571Y-97732021D01*
X130492026Y-97732021D01*
X130492026Y-97851393D01*
X130515314Y-97968471D01*
X130560996Y-98078756D01*
X130627315Y-98178009D01*
X130711724Y-98262418D01*
X130810977Y-98328737D01*
X130921262Y-98374419D01*
X131038340Y-98397707D01*
X131157712Y-98397707D01*
X131274790Y-98374419D01*
X131385075Y-98328737D01*
X131484328Y-98262418D01*
X131568737Y-98178009D01*
X131635056Y-98078756D01*
X131680738Y-97968471D01*
X131704026Y-97851393D01*
X131704026Y-97732021D01*
X131680738Y-97614943D01*
X131635056Y-97504658D01*
X131592063Y-97440314D01*
X137894000Y-97440314D01*
X137894000Y-97559686D01*
X137917288Y-97676764D01*
X137962970Y-97787049D01*
X138029289Y-97886302D01*
X138113698Y-97970711D01*
X138212951Y-98037030D01*
X138323236Y-98082712D01*
X138440314Y-98106000D01*
X138559686Y-98106000D01*
X138676764Y-98082712D01*
X138787049Y-98037030D01*
X138886302Y-97970711D01*
X138970711Y-97886302D01*
X139037030Y-97787049D01*
X139082712Y-97676764D01*
X139106000Y-97559686D01*
X139106000Y-97440314D01*
X139082712Y-97323236D01*
X139037030Y-97212951D01*
X138970711Y-97113698D01*
X138886302Y-97029289D01*
X138787049Y-96962970D01*
X138676764Y-96917288D01*
X138559686Y-96894000D01*
X138440314Y-96894000D01*
X138323236Y-96917288D01*
X138212951Y-96962970D01*
X138113698Y-97029289D01*
X138029289Y-97113698D01*
X137962970Y-97212951D01*
X137917288Y-97323236D01*
X137894000Y-97440314D01*
X131592063Y-97440314D01*
X131568737Y-97405405D01*
X131484328Y-97320996D01*
X131385075Y-97254677D01*
X131274790Y-97208995D01*
X131157712Y-97185707D01*
X131038340Y-97185707D01*
X130921262Y-97208995D01*
X130810977Y-97254677D01*
X130711724Y-97320996D01*
X130627315Y-97405405D01*
X130560996Y-97504658D01*
X130515314Y-97614943D01*
X130492026Y-97732021D01*
X127963571Y-97732021D01*
X128027030Y-97637049D01*
X128072712Y-97526764D01*
X128096000Y-97409686D01*
X128096000Y-97290314D01*
X128072712Y-97173236D01*
X128027030Y-97062951D01*
X127960711Y-96963698D01*
X127876302Y-96879289D01*
X127777049Y-96812970D01*
X127666764Y-96767288D01*
X127549686Y-96744000D01*
X127430314Y-96744000D01*
X127313236Y-96767288D01*
X127202951Y-96812970D01*
X127103698Y-96879289D01*
X127019289Y-96963698D01*
X126952970Y-97062951D01*
X126907288Y-97173236D01*
X126884000Y-97290314D01*
X126884000Y-97359245D01*
X126820898Y-97206903D01*
X126686180Y-97005283D01*
X126514717Y-96833820D01*
X126313097Y-96699102D01*
X126089069Y-96606307D01*
X125851243Y-96559000D01*
X125608757Y-96559000D01*
X125370931Y-96606307D01*
X125146903Y-96699102D01*
X124945283Y-96833820D01*
X124916000Y-96863103D01*
X124916000Y-96176897D01*
X124945283Y-96206180D01*
X125146903Y-96340898D01*
X125370931Y-96433693D01*
X125608757Y-96481000D01*
X125851243Y-96481000D01*
X126089069Y-96433693D01*
X126313097Y-96340898D01*
X126514717Y-96206180D01*
X126686180Y-96034717D01*
X126796030Y-95870314D01*
X130214000Y-95870314D01*
X130214000Y-95989686D01*
X130237288Y-96106764D01*
X130282970Y-96217049D01*
X130349289Y-96316302D01*
X130433698Y-96400711D01*
X130532951Y-96467030D01*
X130643236Y-96512712D01*
X130760314Y-96536000D01*
X130879686Y-96536000D01*
X130996764Y-96512712D01*
X131107049Y-96467030D01*
X131170000Y-96424967D01*
X131232951Y-96467030D01*
X131343236Y-96512712D01*
X131460314Y-96536000D01*
X131579686Y-96536000D01*
X131696764Y-96512712D01*
X131807049Y-96467030D01*
X131906302Y-96400711D01*
X131990711Y-96316302D01*
X132057030Y-96217049D01*
X132102712Y-96106764D01*
X132126000Y-95989686D01*
X132126000Y-95870314D01*
X132102712Y-95753236D01*
X132057030Y-95642951D01*
X131990711Y-95543698D01*
X131959917Y-95512904D01*
X136544000Y-95512904D01*
X136544000Y-95632276D01*
X136567288Y-95749354D01*
X136612970Y-95859639D01*
X136679289Y-95958892D01*
X136763698Y-96043301D01*
X136862951Y-96109620D01*
X136973236Y-96155302D01*
X137090314Y-96178590D01*
X137209686Y-96178590D01*
X137326764Y-96155302D01*
X137437049Y-96109620D01*
X137536302Y-96043301D01*
X137620711Y-95958892D01*
X137687030Y-95859639D01*
X137726101Y-95765314D01*
X137794000Y-95765314D01*
X137794000Y-95884686D01*
X137817288Y-96001764D01*
X137862970Y-96112049D01*
X137929289Y-96211302D01*
X138013698Y-96295711D01*
X138112951Y-96362030D01*
X138223236Y-96407712D01*
X138340314Y-96431000D01*
X138459686Y-96431000D01*
X138576764Y-96407712D01*
X138687049Y-96362030D01*
X138786302Y-96295711D01*
X138870711Y-96211302D01*
X138937030Y-96112049D01*
X138982712Y-96001764D01*
X138997285Y-95928500D01*
X138997285Y-95989695D01*
X139020573Y-96106773D01*
X139066255Y-96217058D01*
X139132574Y-96316311D01*
X139216983Y-96400720D01*
X139316236Y-96467039D01*
X139426521Y-96512721D01*
X139543599Y-96536009D01*
X139662971Y-96536009D01*
X139780049Y-96512721D01*
X139890334Y-96467039D01*
X139989587Y-96400720D01*
X140073996Y-96316311D01*
X140140315Y-96217058D01*
X140185997Y-96106773D01*
X140209285Y-95989695D01*
X140209285Y-95870323D01*
X140185997Y-95753245D01*
X140140315Y-95642960D01*
X140073996Y-95543707D01*
X139989587Y-95459298D01*
X139890334Y-95392979D01*
X139780049Y-95347297D01*
X139662971Y-95324009D01*
X139543599Y-95324009D01*
X139426521Y-95347297D01*
X139316236Y-95392979D01*
X139216983Y-95459298D01*
X139132574Y-95543707D01*
X139066255Y-95642960D01*
X139020573Y-95753245D01*
X139006000Y-95826509D01*
X139006000Y-95765314D01*
X138982712Y-95648236D01*
X138937030Y-95537951D01*
X138870711Y-95438698D01*
X138786302Y-95354289D01*
X138687049Y-95287970D01*
X138576764Y-95242288D01*
X138459686Y-95219000D01*
X138340314Y-95219000D01*
X138223236Y-95242288D01*
X138112951Y-95287970D01*
X138013698Y-95354289D01*
X137929289Y-95438698D01*
X137862970Y-95537951D01*
X137817288Y-95648236D01*
X137794000Y-95765314D01*
X137726101Y-95765314D01*
X137732712Y-95749354D01*
X137756000Y-95632276D01*
X137756000Y-95512904D01*
X137732712Y-95395826D01*
X137687030Y-95285541D01*
X137620711Y-95186288D01*
X137536302Y-95101879D01*
X137437049Y-95035560D01*
X137326764Y-94989878D01*
X137209686Y-94966590D01*
X137090314Y-94966590D01*
X136973236Y-94989878D01*
X136862951Y-95035560D01*
X136763698Y-95101879D01*
X136679289Y-95186288D01*
X136612970Y-95285541D01*
X136567288Y-95395826D01*
X136544000Y-95512904D01*
X131959917Y-95512904D01*
X131906302Y-95459289D01*
X131807049Y-95392970D01*
X131696764Y-95347288D01*
X131579686Y-95324000D01*
X131460314Y-95324000D01*
X131343236Y-95347288D01*
X131232951Y-95392970D01*
X131170000Y-95435033D01*
X131107049Y-95392970D01*
X130996764Y-95347288D01*
X130879686Y-95324000D01*
X130760314Y-95324000D01*
X130643236Y-95347288D01*
X130532951Y-95392970D01*
X130433698Y-95459289D01*
X130349289Y-95543698D01*
X130282970Y-95642951D01*
X130237288Y-95753236D01*
X130214000Y-95870314D01*
X126796030Y-95870314D01*
X126820898Y-95833097D01*
X126913693Y-95609069D01*
X126961000Y-95371243D01*
X126961000Y-95128757D01*
X126947391Y-95060336D01*
X127913643Y-95060336D01*
X127913643Y-95179708D01*
X127936931Y-95296786D01*
X127982613Y-95407071D01*
X128048932Y-95506324D01*
X128133341Y-95590733D01*
X128232594Y-95657052D01*
X128342879Y-95702734D01*
X128459957Y-95726022D01*
X128579329Y-95726022D01*
X128696407Y-95702734D01*
X128806692Y-95657052D01*
X128905945Y-95590733D01*
X128990354Y-95506324D01*
X129056673Y-95407071D01*
X129102355Y-95296786D01*
X129125643Y-95179708D01*
X129125643Y-95060336D01*
X129102355Y-94943258D01*
X129056673Y-94832973D01*
X128990354Y-94733720D01*
X128905945Y-94649311D01*
X128806692Y-94582992D01*
X128696407Y-94537310D01*
X128579329Y-94514022D01*
X128459957Y-94514022D01*
X128342879Y-94537310D01*
X128232594Y-94582992D01*
X128133341Y-94649311D01*
X128048932Y-94733720D01*
X127982613Y-94832973D01*
X127936931Y-94943258D01*
X127913643Y-95060336D01*
X126947391Y-95060336D01*
X126913693Y-94890931D01*
X126820898Y-94666903D01*
X126686180Y-94465283D01*
X126514717Y-94293820D01*
X126313097Y-94159102D01*
X126089069Y-94066307D01*
X125851243Y-94019000D01*
X125608757Y-94019000D01*
X125370931Y-94066307D01*
X125146903Y-94159102D01*
X124945283Y-94293820D01*
X124916000Y-94323103D01*
X124916000Y-93636897D01*
X124945283Y-93666180D01*
X125146903Y-93800898D01*
X125370931Y-93893693D01*
X125608757Y-93941000D01*
X125851243Y-93941000D01*
X126089069Y-93893693D01*
X126313097Y-93800898D01*
X126514717Y-93666180D01*
X126686180Y-93494717D01*
X126774239Y-93362927D01*
X137149000Y-93362927D01*
X137149000Y-93497073D01*
X137175171Y-93628640D01*
X137226506Y-93752574D01*
X137301033Y-93864112D01*
X137395888Y-93958967D01*
X137507426Y-94033494D01*
X137631360Y-94084829D01*
X137762927Y-94111000D01*
X137897073Y-94111000D01*
X138028640Y-94084829D01*
X138152574Y-94033494D01*
X138264112Y-93958967D01*
X138358967Y-93864112D01*
X138433494Y-93752574D01*
X138484829Y-93628640D01*
X138511000Y-93497073D01*
X138511000Y-93362927D01*
X138484829Y-93231360D01*
X138433494Y-93107426D01*
X138358967Y-92995888D01*
X138264112Y-92901033D01*
X138152574Y-92826506D01*
X138028640Y-92775171D01*
X137897073Y-92749000D01*
X137762927Y-92749000D01*
X137631360Y-92775171D01*
X137507426Y-92826506D01*
X137395888Y-92901033D01*
X137301033Y-92995888D01*
X137226506Y-93107426D01*
X137175171Y-93231360D01*
X137149000Y-93362927D01*
X126774239Y-93362927D01*
X126820898Y-93293097D01*
X126913693Y-93069069D01*
X126961000Y-92831243D01*
X126961000Y-92588757D01*
X126913693Y-92350931D01*
X126820898Y-92126903D01*
X126686180Y-91925283D01*
X126514717Y-91753820D01*
X126438551Y-91702927D01*
X138489000Y-91702927D01*
X138489000Y-91837073D01*
X138515171Y-91968640D01*
X138566506Y-92092574D01*
X138641033Y-92204112D01*
X138735888Y-92298967D01*
X138847426Y-92373494D01*
X138971360Y-92424829D01*
X139102927Y-92451000D01*
X139237073Y-92451000D01*
X139368640Y-92424829D01*
X139492574Y-92373494D01*
X139604112Y-92298967D01*
X139698967Y-92204112D01*
X139773494Y-92092574D01*
X139824829Y-91968640D01*
X139851000Y-91837073D01*
X139851000Y-91702927D01*
X139824829Y-91571360D01*
X139773494Y-91447426D01*
X139698967Y-91335888D01*
X139604112Y-91241033D01*
X139492574Y-91166506D01*
X139368640Y-91115171D01*
X139237073Y-91089000D01*
X139102927Y-91089000D01*
X138971360Y-91115171D01*
X138847426Y-91166506D01*
X138735888Y-91241033D01*
X138641033Y-91335888D01*
X138566506Y-91447426D01*
X138515171Y-91571360D01*
X138489000Y-91702927D01*
X126438551Y-91702927D01*
X126313097Y-91619102D01*
X126089069Y-91526307D01*
X125851243Y-91479000D01*
X125608757Y-91479000D01*
X125370931Y-91526307D01*
X125146903Y-91619102D01*
X124945283Y-91753820D01*
X124916000Y-91783103D01*
X124916000Y-91096897D01*
X124945283Y-91126180D01*
X125146903Y-91260898D01*
X125370931Y-91353693D01*
X125608757Y-91401000D01*
X125851243Y-91401000D01*
X126089069Y-91353693D01*
X126313097Y-91260898D01*
X126514717Y-91126180D01*
X126686180Y-90954717D01*
X126820898Y-90753097D01*
X126913693Y-90529069D01*
X126961000Y-90291243D01*
X126961000Y-90048757D01*
X126913693Y-89810931D01*
X126905154Y-89790314D01*
X127589188Y-89790314D01*
X127589188Y-89909686D01*
X127612476Y-90026764D01*
X127658158Y-90137049D01*
X127724477Y-90236302D01*
X127808886Y-90320711D01*
X127908139Y-90387030D01*
X128018424Y-90432712D01*
X128135502Y-90456000D01*
X128254874Y-90456000D01*
X128371952Y-90432712D01*
X128441111Y-90404065D01*
X133001590Y-90404065D01*
X133001590Y-90523437D01*
X133024878Y-90640515D01*
X133070560Y-90750800D01*
X133136879Y-90850053D01*
X133221288Y-90934462D01*
X133320541Y-91000781D01*
X133430826Y-91046463D01*
X133547904Y-91069751D01*
X133667276Y-91069751D01*
X133784354Y-91046463D01*
X133894639Y-91000781D01*
X133993892Y-90934462D01*
X134078301Y-90850053D01*
X134144620Y-90750800D01*
X134190302Y-90640515D01*
X134213590Y-90523437D01*
X134213590Y-90404065D01*
X134190302Y-90286987D01*
X134144620Y-90176702D01*
X134078301Y-90077449D01*
X133993892Y-89993040D01*
X133963791Y-89972927D01*
X137629000Y-89972927D01*
X137629000Y-90107073D01*
X137655171Y-90238640D01*
X137706506Y-90362574D01*
X137781033Y-90474112D01*
X137875888Y-90568967D01*
X137987426Y-90643494D01*
X138111360Y-90694829D01*
X138242927Y-90721000D01*
X138377073Y-90721000D01*
X138508640Y-90694829D01*
X138632574Y-90643494D01*
X138744112Y-90568967D01*
X138838967Y-90474112D01*
X138913494Y-90362574D01*
X138964829Y-90238640D01*
X138991000Y-90107073D01*
X138991000Y-89972927D01*
X138964829Y-89841360D01*
X138913494Y-89717426D01*
X138838967Y-89605888D01*
X138744112Y-89511033D01*
X138632574Y-89436506D01*
X138508640Y-89385171D01*
X138377073Y-89359000D01*
X138242927Y-89359000D01*
X138111360Y-89385171D01*
X137987426Y-89436506D01*
X137875888Y-89511033D01*
X137781033Y-89605888D01*
X137706506Y-89717426D01*
X137655171Y-89841360D01*
X137629000Y-89972927D01*
X133963791Y-89972927D01*
X133894639Y-89926721D01*
X133784354Y-89881039D01*
X133667276Y-89857751D01*
X133547904Y-89857751D01*
X133430826Y-89881039D01*
X133320541Y-89926721D01*
X133221288Y-89993040D01*
X133136879Y-90077449D01*
X133070560Y-90176702D01*
X133024878Y-90286987D01*
X133001590Y-90404065D01*
X128441111Y-90404065D01*
X128482237Y-90387030D01*
X128581490Y-90320711D01*
X128665899Y-90236302D01*
X128732218Y-90137049D01*
X128750422Y-90093100D01*
X128779289Y-90136302D01*
X128863698Y-90220711D01*
X128962951Y-90287030D01*
X129073236Y-90332712D01*
X129190314Y-90356000D01*
X129309686Y-90356000D01*
X129426764Y-90332712D01*
X129537049Y-90287030D01*
X129636302Y-90220711D01*
X129720711Y-90136302D01*
X129787030Y-90037049D01*
X129832712Y-89926764D01*
X129856000Y-89809686D01*
X129856000Y-89690314D01*
X129832712Y-89573236D01*
X129787030Y-89462951D01*
X129720711Y-89363698D01*
X129636302Y-89279289D01*
X129537049Y-89212970D01*
X129426764Y-89167288D01*
X129309686Y-89144000D01*
X129190314Y-89144000D01*
X129073236Y-89167288D01*
X128962951Y-89212970D01*
X128863698Y-89279289D01*
X128779289Y-89363698D01*
X128712970Y-89462951D01*
X128694766Y-89506900D01*
X128665899Y-89463698D01*
X128581490Y-89379289D01*
X128482237Y-89312970D01*
X128371952Y-89267288D01*
X128254874Y-89244000D01*
X128135502Y-89244000D01*
X128018424Y-89267288D01*
X127908139Y-89312970D01*
X127808886Y-89379289D01*
X127724477Y-89463698D01*
X127658158Y-89562951D01*
X127612476Y-89673236D01*
X127589188Y-89790314D01*
X126905154Y-89790314D01*
X126820898Y-89586903D01*
X126747809Y-89477518D01*
X126765314Y-89481000D01*
X126884686Y-89481000D01*
X127001764Y-89457712D01*
X127112049Y-89412030D01*
X127211302Y-89345711D01*
X127295711Y-89261302D01*
X127362030Y-89162049D01*
X127407712Y-89051764D01*
X127431000Y-88934686D01*
X127431000Y-88815314D01*
X127407712Y-88698236D01*
X127362030Y-88587951D01*
X127295711Y-88488698D01*
X127292229Y-88485216D01*
X133329102Y-88485216D01*
X133329102Y-88604588D01*
X133352390Y-88721666D01*
X133398072Y-88831951D01*
X133464391Y-88931204D01*
X133548800Y-89015613D01*
X133648053Y-89081932D01*
X133758338Y-89127614D01*
X133875416Y-89150902D01*
X133994788Y-89150902D01*
X134111866Y-89127614D01*
X134222151Y-89081932D01*
X134321404Y-89015613D01*
X134405813Y-88931204D01*
X134472132Y-88831951D01*
X134517814Y-88721666D01*
X134541102Y-88604588D01*
X134541102Y-88485216D01*
X134517814Y-88368138D01*
X134495934Y-88315314D01*
X134569000Y-88315314D01*
X134569000Y-88434686D01*
X134592288Y-88551764D01*
X134637970Y-88662049D01*
X134704289Y-88761302D01*
X134788698Y-88845711D01*
X134887951Y-88912030D01*
X134995759Y-88956686D01*
X135009698Y-89026764D01*
X135055380Y-89137049D01*
X135121699Y-89236302D01*
X135206108Y-89320711D01*
X135305361Y-89387030D01*
X135415646Y-89432712D01*
X135532724Y-89456000D01*
X135652096Y-89456000D01*
X135769174Y-89432712D01*
X135879459Y-89387030D01*
X135978712Y-89320711D01*
X136063121Y-89236302D01*
X136129440Y-89137049D01*
X136175122Y-89026764D01*
X136198410Y-88909686D01*
X136198410Y-88790314D01*
X136175122Y-88673236D01*
X136129440Y-88562951D01*
X136063121Y-88463698D01*
X135978712Y-88379289D01*
X135879459Y-88312970D01*
X135771651Y-88268314D01*
X135757712Y-88198236D01*
X135712030Y-88087951D01*
X135645711Y-87988698D01*
X135561302Y-87904289D01*
X135462049Y-87837970D01*
X135351764Y-87792288D01*
X135234686Y-87769000D01*
X135115314Y-87769000D01*
X134998236Y-87792288D01*
X134887951Y-87837970D01*
X134788698Y-87904289D01*
X134704289Y-87988698D01*
X134637970Y-88087951D01*
X134592288Y-88198236D01*
X134569000Y-88315314D01*
X134495934Y-88315314D01*
X134472132Y-88257853D01*
X134405813Y-88158600D01*
X134321404Y-88074191D01*
X134222151Y-88007872D01*
X134111866Y-87962190D01*
X133994788Y-87938902D01*
X133875416Y-87938902D01*
X133758338Y-87962190D01*
X133648053Y-88007872D01*
X133548800Y-88074191D01*
X133464391Y-88158600D01*
X133398072Y-88257853D01*
X133352390Y-88368138D01*
X133329102Y-88485216D01*
X127292229Y-88485216D01*
X127211302Y-88404289D01*
X127112049Y-88337970D01*
X127001764Y-88292288D01*
X126884686Y-88269000D01*
X126783545Y-88269000D01*
X126820898Y-88213097D01*
X126913693Y-87989069D01*
X126961000Y-87751243D01*
X126961000Y-87508757D01*
X126913693Y-87270931D01*
X126890656Y-87215314D01*
X138319000Y-87215314D01*
X138319000Y-87334686D01*
X138342288Y-87451764D01*
X138387970Y-87562049D01*
X138454289Y-87661302D01*
X138538698Y-87745711D01*
X138611930Y-87794643D01*
X138572970Y-87852951D01*
X138527288Y-87963236D01*
X138504000Y-88080314D01*
X138504000Y-88199686D01*
X138527288Y-88316764D01*
X138572970Y-88427049D01*
X138639289Y-88526302D01*
X138723698Y-88610711D01*
X138822951Y-88677030D01*
X138933236Y-88722712D01*
X139050314Y-88746000D01*
X139169686Y-88746000D01*
X139286764Y-88722712D01*
X139397049Y-88677030D01*
X139496302Y-88610711D01*
X139580711Y-88526302D01*
X139647030Y-88427049D01*
X139692712Y-88316764D01*
X139716000Y-88199686D01*
X139716000Y-88080314D01*
X139692712Y-87963236D01*
X139647030Y-87852951D01*
X139580711Y-87753698D01*
X139496302Y-87669289D01*
X139423070Y-87620357D01*
X139462030Y-87562049D01*
X139507712Y-87451764D01*
X139531000Y-87334686D01*
X139531000Y-87270314D01*
X142174000Y-87270314D01*
X142174000Y-87389686D01*
X142197288Y-87506764D01*
X142242970Y-87617049D01*
X142309289Y-87716302D01*
X142393698Y-87800711D01*
X142492951Y-87867030D01*
X142603236Y-87912712D01*
X142720314Y-87936000D01*
X142839686Y-87936000D01*
X142956764Y-87912712D01*
X143067049Y-87867030D01*
X143166302Y-87800711D01*
X143250711Y-87716302D01*
X143317030Y-87617049D01*
X143362712Y-87506764D01*
X143386000Y-87389686D01*
X143386000Y-87270314D01*
X143362712Y-87153236D01*
X143317030Y-87042951D01*
X143250711Y-86943698D01*
X143166302Y-86859289D01*
X143067049Y-86792970D01*
X142956764Y-86747288D01*
X142839686Y-86724000D01*
X142720314Y-86724000D01*
X142603236Y-86747288D01*
X142492951Y-86792970D01*
X142393698Y-86859289D01*
X142309289Y-86943698D01*
X142242970Y-87042951D01*
X142197288Y-87153236D01*
X142174000Y-87270314D01*
X139531000Y-87270314D01*
X139531000Y-87215314D01*
X139507712Y-87098236D01*
X139462030Y-86987951D01*
X139395711Y-86888698D01*
X139311302Y-86804289D01*
X139212049Y-86737970D01*
X139101764Y-86692288D01*
X138984686Y-86669000D01*
X138865314Y-86669000D01*
X138748236Y-86692288D01*
X138637951Y-86737970D01*
X138538698Y-86804289D01*
X138454289Y-86888698D01*
X138387970Y-86987951D01*
X138342288Y-87098236D01*
X138319000Y-87215314D01*
X126890656Y-87215314D01*
X126820898Y-87046903D01*
X126686180Y-86845283D01*
X126514717Y-86673820D01*
X126313097Y-86539102D01*
X126089069Y-86446307D01*
X125851243Y-86399000D01*
X125608757Y-86399000D01*
X125370931Y-86446307D01*
X125146903Y-86539102D01*
X124945283Y-86673820D01*
X124916000Y-86703103D01*
X124916000Y-86016897D01*
X124945283Y-86046180D01*
X125146903Y-86180898D01*
X125370931Y-86273693D01*
X125608757Y-86321000D01*
X125851243Y-86321000D01*
X126089069Y-86273693D01*
X126313097Y-86180898D01*
X126514717Y-86046180D01*
X126686180Y-85874717D01*
X126820898Y-85673097D01*
X126844832Y-85615314D01*
X129544000Y-85615314D01*
X129544000Y-85734686D01*
X129567288Y-85851764D01*
X129612970Y-85962049D01*
X129679289Y-86061302D01*
X129763698Y-86145711D01*
X129862951Y-86212030D01*
X129973236Y-86257712D01*
X130090314Y-86281000D01*
X130209686Y-86281000D01*
X130326764Y-86257712D01*
X130437049Y-86212030D01*
X130536302Y-86145711D01*
X130620711Y-86061302D01*
X130687030Y-85962049D01*
X130732712Y-85851764D01*
X130756000Y-85734686D01*
X130756000Y-85615314D01*
X130732712Y-85498236D01*
X130687030Y-85387951D01*
X130620711Y-85288698D01*
X130536302Y-85204289D01*
X130437049Y-85137970D01*
X130326764Y-85092288D01*
X130209686Y-85069000D01*
X130090314Y-85069000D01*
X129973236Y-85092288D01*
X129862951Y-85137970D01*
X129763698Y-85204289D01*
X129679289Y-85288698D01*
X129612970Y-85387951D01*
X129567288Y-85498236D01*
X129544000Y-85615314D01*
X126844832Y-85615314D01*
X126913693Y-85449069D01*
X126961000Y-85211243D01*
X126961000Y-84968757D01*
X126913693Y-84730931D01*
X126820898Y-84506903D01*
X126686180Y-84305283D01*
X126514717Y-84133820D01*
X126313097Y-83999102D01*
X126089069Y-83906307D01*
X125851243Y-83859000D01*
X125608757Y-83859000D01*
X125370931Y-83906307D01*
X125146903Y-83999102D01*
X124945283Y-84133820D01*
X124916000Y-84163103D01*
X124916000Y-83526635D01*
X125043267Y-83626629D01*
X125266502Y-83739917D01*
X125507549Y-83807477D01*
X125707000Y-83720044D01*
X125707000Y-82573000D01*
X125753000Y-82573000D01*
X125753000Y-83720044D01*
X125952451Y-83807477D01*
X126193498Y-83739917D01*
X126416733Y-83626629D01*
X126613578Y-83471967D01*
X126776467Y-83281874D01*
X126899141Y-83063656D01*
X126971640Y-82841752D01*
X127796894Y-82841752D01*
X127796894Y-82961124D01*
X127820182Y-83078202D01*
X127865864Y-83188487D01*
X127932183Y-83287740D01*
X128016592Y-83372149D01*
X128115845Y-83438468D01*
X128226130Y-83484150D01*
X128343208Y-83507438D01*
X128462580Y-83507438D01*
X128579658Y-83484150D01*
X128630894Y-83462927D01*
X140209000Y-83462927D01*
X140209000Y-83597073D01*
X140235171Y-83728640D01*
X140286506Y-83852574D01*
X140361033Y-83964112D01*
X140455888Y-84058967D01*
X140567426Y-84133494D01*
X140691360Y-84184829D01*
X140786288Y-84203712D01*
X140805171Y-84298640D01*
X140856506Y-84422574D01*
X140931033Y-84534112D01*
X141025888Y-84628967D01*
X141137426Y-84703494D01*
X141261360Y-84754829D01*
X141392927Y-84781000D01*
X141527073Y-84781000D01*
X141658640Y-84754829D01*
X141782574Y-84703494D01*
X141894112Y-84628967D01*
X141988967Y-84534112D01*
X142063494Y-84422574D01*
X142114829Y-84298640D01*
X142141000Y-84167073D01*
X142141000Y-84032927D01*
X142114829Y-83901360D01*
X142063494Y-83777426D01*
X141988967Y-83665888D01*
X141894112Y-83571033D01*
X141782574Y-83496506D01*
X141658640Y-83445171D01*
X141563712Y-83426288D01*
X141544829Y-83331360D01*
X141493494Y-83207426D01*
X141418967Y-83095888D01*
X141324112Y-83001033D01*
X141212574Y-82926506D01*
X141088640Y-82875171D01*
X140957073Y-82849000D01*
X140822927Y-82849000D01*
X140691360Y-82875171D01*
X140567426Y-82926506D01*
X140455888Y-83001033D01*
X140361033Y-83095888D01*
X140286506Y-83207426D01*
X140235171Y-83331360D01*
X140209000Y-83462927D01*
X128630894Y-83462927D01*
X128689943Y-83438468D01*
X128789196Y-83372149D01*
X128873605Y-83287740D01*
X128939924Y-83188487D01*
X128985606Y-83078202D01*
X129008894Y-82961124D01*
X129008894Y-82841752D01*
X128985606Y-82724674D01*
X128939924Y-82614389D01*
X128873605Y-82515136D01*
X128789196Y-82430727D01*
X128689943Y-82364408D01*
X128579658Y-82318726D01*
X128462580Y-82295438D01*
X128343208Y-82295438D01*
X128226130Y-82318726D01*
X128115845Y-82364408D01*
X128016592Y-82430727D01*
X127932183Y-82515136D01*
X127865864Y-82614389D01*
X127820182Y-82724674D01*
X127796894Y-82841752D01*
X126971640Y-82841752D01*
X126976886Y-82825698D01*
X126987476Y-82772451D01*
X126900024Y-82573000D01*
X125753000Y-82573000D01*
X125707000Y-82573000D01*
X125687000Y-82573000D01*
X125687000Y-82527000D01*
X125707000Y-82527000D01*
X125707000Y-81379956D01*
X125753000Y-81379956D01*
X125753000Y-82527000D01*
X126900024Y-82527000D01*
X126987476Y-82327549D01*
X126976886Y-82274302D01*
X126899141Y-82036344D01*
X126776467Y-81818126D01*
X126613578Y-81628033D01*
X126441623Y-81492927D01*
X135119000Y-81492927D01*
X135119000Y-81627073D01*
X135145171Y-81758640D01*
X135196506Y-81882574D01*
X135271033Y-81994112D01*
X135321921Y-82045000D01*
X135291033Y-82075888D01*
X135216506Y-82187426D01*
X135165171Y-82311360D01*
X135139000Y-82442927D01*
X135139000Y-82577073D01*
X135165171Y-82708640D01*
X135216506Y-82832574D01*
X135291033Y-82944112D01*
X135385888Y-83038967D01*
X135497426Y-83113494D01*
X135621360Y-83164829D01*
X135752927Y-83191000D01*
X135887073Y-83191000D01*
X136018640Y-83164829D01*
X136142574Y-83113494D01*
X136254112Y-83038967D01*
X136348967Y-82944112D01*
X136423494Y-82832574D01*
X136474829Y-82708640D01*
X136501000Y-82577073D01*
X136501000Y-82442927D01*
X136474829Y-82311360D01*
X136423494Y-82187426D01*
X136348967Y-82075888D01*
X136298079Y-82025000D01*
X136328967Y-81994112D01*
X136403494Y-81882574D01*
X136454829Y-81758640D01*
X136481000Y-81627073D01*
X136481000Y-81492927D01*
X136454829Y-81361360D01*
X136403494Y-81237426D01*
X136328967Y-81125888D01*
X136234112Y-81031033D01*
X136122574Y-80956506D01*
X135998640Y-80905171D01*
X135867073Y-80879000D01*
X135732927Y-80879000D01*
X135601360Y-80905171D01*
X135477426Y-80956506D01*
X135365888Y-81031033D01*
X135271033Y-81125888D01*
X135196506Y-81237426D01*
X135145171Y-81361360D01*
X135119000Y-81492927D01*
X126441623Y-81492927D01*
X126416733Y-81473371D01*
X126193498Y-81360083D01*
X125952451Y-81292523D01*
X125753000Y-81379956D01*
X125707000Y-81379956D01*
X125507549Y-81292523D01*
X125266502Y-81360083D01*
X125043267Y-81473371D01*
X124916000Y-81573365D01*
X124916000Y-80936897D01*
X124945283Y-80966180D01*
X125146903Y-81100898D01*
X125370931Y-81193693D01*
X125608757Y-81241000D01*
X125851243Y-81241000D01*
X126089069Y-81193693D01*
X126313097Y-81100898D01*
X126514717Y-80966180D01*
X126686180Y-80794717D01*
X126820898Y-80593097D01*
X126865887Y-80484482D01*
X127988168Y-80484482D01*
X127988168Y-80603854D01*
X128011456Y-80720932D01*
X128057138Y-80831217D01*
X128123457Y-80930470D01*
X128207866Y-81014879D01*
X128307119Y-81081198D01*
X128417404Y-81126880D01*
X128534482Y-81150168D01*
X128653854Y-81150168D01*
X128770932Y-81126880D01*
X128881217Y-81081198D01*
X128980470Y-81014879D01*
X129064879Y-80930470D01*
X129131198Y-80831217D01*
X129176880Y-80720932D01*
X129200168Y-80603854D01*
X129200168Y-80484482D01*
X129176880Y-80367404D01*
X129131198Y-80257119D01*
X129064879Y-80157866D01*
X128980470Y-80073457D01*
X128881217Y-80007138D01*
X128770932Y-79961456D01*
X128653854Y-79938168D01*
X128534482Y-79938168D01*
X128417404Y-79961456D01*
X128307119Y-80007138D01*
X128207866Y-80073457D01*
X128123457Y-80157866D01*
X128057138Y-80257119D01*
X128011456Y-80367404D01*
X127988168Y-80484482D01*
X126865887Y-80484482D01*
X126913693Y-80369069D01*
X126961000Y-80131243D01*
X126961000Y-79888757D01*
X126913693Y-79650931D01*
X126820898Y-79426903D01*
X126686180Y-79225283D01*
X126514717Y-79053820D01*
X126313097Y-78919102D01*
X126089069Y-78826307D01*
X125851243Y-78779000D01*
X125608757Y-78779000D01*
X125370931Y-78826307D01*
X125146903Y-78919102D01*
X124945283Y-79053820D01*
X124916000Y-79083103D01*
X124916000Y-78396897D01*
X124945283Y-78426180D01*
X125146903Y-78560898D01*
X125370931Y-78653693D01*
X125608757Y-78701000D01*
X125851243Y-78701000D01*
X126089069Y-78653693D01*
X126313097Y-78560898D01*
X126514717Y-78426180D01*
X126527970Y-78412927D01*
X144669000Y-78412927D01*
X144669000Y-78547073D01*
X144695171Y-78678640D01*
X144746506Y-78802574D01*
X144821033Y-78914112D01*
X144915888Y-79008967D01*
X145027426Y-79083494D01*
X145151360Y-79134829D01*
X145152241Y-79135004D01*
X145151367Y-79135178D01*
X145027433Y-79186513D01*
X144915895Y-79261040D01*
X144821040Y-79355895D01*
X144746513Y-79467433D01*
X144695178Y-79591367D01*
X144669007Y-79722934D01*
X144669007Y-79857080D01*
X144695178Y-79988647D01*
X144746513Y-80112581D01*
X144821040Y-80224119D01*
X144915895Y-80318974D01*
X145027433Y-80393501D01*
X145127626Y-80435002D01*
X145027426Y-80476506D01*
X144915888Y-80551033D01*
X144821033Y-80645888D01*
X144746506Y-80757426D01*
X144695171Y-80881360D01*
X144669000Y-81012927D01*
X144669000Y-81147073D01*
X144695171Y-81278640D01*
X144746506Y-81402574D01*
X144821033Y-81514112D01*
X144915888Y-81608967D01*
X145027426Y-81683494D01*
X145151360Y-81734829D01*
X145282927Y-81761000D01*
X145417073Y-81761000D01*
X145548640Y-81734829D01*
X145672574Y-81683494D01*
X145784112Y-81608967D01*
X145878967Y-81514112D01*
X145953494Y-81402574D01*
X146004829Y-81278640D01*
X146031000Y-81147073D01*
X146031000Y-81012927D01*
X146004829Y-80881360D01*
X145953494Y-80757426D01*
X145878967Y-80645888D01*
X145784112Y-80551033D01*
X145672574Y-80476506D01*
X145572381Y-80435005D01*
X145672581Y-80393501D01*
X145784119Y-80318974D01*
X145878974Y-80224119D01*
X145953501Y-80112581D01*
X146004836Y-79988647D01*
X146031007Y-79857080D01*
X146031007Y-79722934D01*
X146004836Y-79591367D01*
X145953501Y-79467433D01*
X145878974Y-79355895D01*
X145784119Y-79261040D01*
X145672581Y-79186513D01*
X145548647Y-79135178D01*
X145547766Y-79135003D01*
X145548640Y-79134829D01*
X145672574Y-79083494D01*
X145784112Y-79008967D01*
X145878967Y-78914112D01*
X145953494Y-78802574D01*
X146004829Y-78678640D01*
X146031000Y-78547073D01*
X146031000Y-78412927D01*
X146004829Y-78281360D01*
X145953494Y-78157426D01*
X145878967Y-78045888D01*
X145784112Y-77951033D01*
X145672574Y-77876506D01*
X145548640Y-77825171D01*
X145417073Y-77799000D01*
X145282927Y-77799000D01*
X145151360Y-77825171D01*
X145027426Y-77876506D01*
X144915888Y-77951033D01*
X144821033Y-78045888D01*
X144746506Y-78157426D01*
X144695171Y-78281360D01*
X144669000Y-78412927D01*
X126527970Y-78412927D01*
X126686180Y-78254717D01*
X126820898Y-78053097D01*
X126913693Y-77829069D01*
X126961000Y-77591243D01*
X126961000Y-77348757D01*
X126913693Y-77110931D01*
X126820898Y-76886903D01*
X126710420Y-76721560D01*
X134934000Y-76721560D01*
X134934000Y-76840932D01*
X134957288Y-76958010D01*
X135002970Y-77068295D01*
X135069289Y-77167548D01*
X135153698Y-77251957D01*
X135252951Y-77318276D01*
X135363236Y-77363958D01*
X135480314Y-77387246D01*
X135599686Y-77387246D01*
X135716764Y-77363958D01*
X135827049Y-77318276D01*
X135890000Y-77276213D01*
X135952951Y-77318276D01*
X136063236Y-77363958D01*
X136180314Y-77387246D01*
X136299686Y-77387246D01*
X136416764Y-77363958D01*
X136527049Y-77318276D01*
X136626302Y-77251957D01*
X136710711Y-77167548D01*
X136777030Y-77068295D01*
X136822712Y-76958010D01*
X136846000Y-76840932D01*
X136846000Y-76721560D01*
X136822712Y-76604482D01*
X136777030Y-76494197D01*
X136710711Y-76394944D01*
X136626302Y-76310535D01*
X136527049Y-76244216D01*
X136416764Y-76198534D01*
X136299686Y-76175246D01*
X136180314Y-76175246D01*
X136063236Y-76198534D01*
X135952951Y-76244216D01*
X135890000Y-76286279D01*
X135827049Y-76244216D01*
X135716764Y-76198534D01*
X135599686Y-76175246D01*
X135480314Y-76175246D01*
X135363236Y-76198534D01*
X135252951Y-76244216D01*
X135153698Y-76310535D01*
X135069289Y-76394944D01*
X135002970Y-76494197D01*
X134957288Y-76604482D01*
X134934000Y-76721560D01*
X126710420Y-76721560D01*
X126686180Y-76685283D01*
X126514717Y-76513820D01*
X126313097Y-76379102D01*
X126089069Y-76286307D01*
X125851243Y-76239000D01*
X125608757Y-76239000D01*
X125370931Y-76286307D01*
X125146903Y-76379102D01*
X124945283Y-76513820D01*
X124916000Y-76543103D01*
X124916000Y-75856897D01*
X124945283Y-75886180D01*
X125146903Y-76020898D01*
X125370931Y-76113693D01*
X125608757Y-76161000D01*
X125851243Y-76161000D01*
X126089069Y-76113693D01*
X126313097Y-76020898D01*
X126514717Y-75886180D01*
X126686180Y-75714717D01*
X126820898Y-75513097D01*
X126913693Y-75289069D01*
X126961000Y-75051243D01*
X126961000Y-74808757D01*
X126913693Y-74570931D01*
X126844057Y-74402814D01*
X130739000Y-74402814D01*
X130751025Y-74524903D01*
X130798542Y-74681547D01*
X130875706Y-74825911D01*
X130979552Y-74952448D01*
X131106088Y-75056294D01*
X131250452Y-75133458D01*
X131407096Y-75180975D01*
X131570000Y-75197020D01*
X131732903Y-75180975D01*
X131889547Y-75133458D01*
X132033911Y-75056294D01*
X132160448Y-74952448D01*
X132264294Y-74825912D01*
X132341458Y-74681548D01*
X132388975Y-74524904D01*
X132401000Y-74402815D01*
X132401000Y-73661300D01*
X132471033Y-73766112D01*
X132565888Y-73860967D01*
X132677426Y-73935494D01*
X132801360Y-73986829D01*
X132932927Y-74013000D01*
X133067073Y-74013000D01*
X133198640Y-73986829D01*
X133322574Y-73935494D01*
X133434112Y-73860967D01*
X133528967Y-73766112D01*
X133603494Y-73654574D01*
X133654829Y-73530640D01*
X133681000Y-73399073D01*
X133681000Y-73264927D01*
X133664169Y-73180314D01*
X135044000Y-73180314D01*
X135044000Y-73299686D01*
X135067288Y-73416764D01*
X135112970Y-73527049D01*
X135179289Y-73626302D01*
X135263698Y-73710711D01*
X135362951Y-73777030D01*
X135473236Y-73822712D01*
X135590314Y-73846000D01*
X135709686Y-73846000D01*
X135826764Y-73822712D01*
X135937049Y-73777030D01*
X136036302Y-73710711D01*
X136120711Y-73626302D01*
X136155000Y-73574985D01*
X136189289Y-73626302D01*
X136273698Y-73710711D01*
X136372951Y-73777030D01*
X136483236Y-73822712D01*
X136600314Y-73846000D01*
X136719686Y-73846000D01*
X136836764Y-73822712D01*
X136947049Y-73777030D01*
X137046302Y-73710711D01*
X137130711Y-73626302D01*
X137197030Y-73527049D01*
X137242712Y-73416764D01*
X137266000Y-73299686D01*
X137266000Y-73264927D01*
X138099000Y-73264927D01*
X138099000Y-73399073D01*
X138125171Y-73530640D01*
X138176506Y-73654574D01*
X138251033Y-73766112D01*
X138345888Y-73860967D01*
X138457426Y-73935494D01*
X138581360Y-73986829D01*
X138712927Y-74013000D01*
X138847073Y-74013000D01*
X138978640Y-73986829D01*
X139102574Y-73935494D01*
X139214112Y-73860967D01*
X139308967Y-73766112D01*
X139379001Y-73661299D01*
X139379000Y-74402814D01*
X139391025Y-74524903D01*
X139438542Y-74681547D01*
X139515706Y-74825911D01*
X139619552Y-74952448D01*
X139746088Y-75056294D01*
X139890452Y-75133458D01*
X140047096Y-75180975D01*
X140210000Y-75197020D01*
X140372903Y-75180975D01*
X140529547Y-75133458D01*
X140673911Y-75056294D01*
X140800448Y-74952448D01*
X140904294Y-74825912D01*
X140981458Y-74681548D01*
X141028975Y-74524904D01*
X141041000Y-74402815D01*
X141041000Y-73221185D01*
X141028975Y-73099096D01*
X140981458Y-72942452D01*
X140904294Y-72798088D01*
X140871308Y-72757894D01*
X142096420Y-72757894D01*
X142096420Y-72877266D01*
X142119708Y-72994344D01*
X142165390Y-73104629D01*
X142231709Y-73203882D01*
X142316118Y-73288291D01*
X142415371Y-73354610D01*
X142525656Y-73400292D01*
X142642734Y-73423580D01*
X142762106Y-73423580D01*
X142879184Y-73400292D01*
X142989469Y-73354610D01*
X143088722Y-73288291D01*
X143173131Y-73203882D01*
X143239450Y-73104629D01*
X143285132Y-72994344D01*
X143308420Y-72877266D01*
X143308420Y-72757894D01*
X143285132Y-72640816D01*
X143273451Y-72612616D01*
X143276302Y-72610711D01*
X143360711Y-72526302D01*
X143377418Y-72501298D01*
X143525154Y-72649034D01*
X143847565Y-72864462D01*
X144205810Y-73012852D01*
X144586120Y-73088500D01*
X144973880Y-73088500D01*
X145354190Y-73012852D01*
X145712435Y-72864462D01*
X146034846Y-72649034D01*
X146309034Y-72374846D01*
X146524462Y-72052435D01*
X146672852Y-71694190D01*
X146748500Y-71313880D01*
X146748500Y-70926120D01*
X146672852Y-70545810D01*
X146524462Y-70187565D01*
X146309034Y-69865154D01*
X146034846Y-69590966D01*
X145712435Y-69375538D01*
X145354190Y-69227148D01*
X144973880Y-69151500D01*
X144586120Y-69151500D01*
X144205810Y-69227148D01*
X143847565Y-69375538D01*
X143525154Y-69590966D01*
X143250966Y-69865154D01*
X143035538Y-70187565D01*
X142887148Y-70545810D01*
X142811500Y-70926120D01*
X142811500Y-71313880D01*
X142855284Y-71534000D01*
X142830314Y-71534000D01*
X142713236Y-71557288D01*
X142602951Y-71602970D01*
X142503698Y-71669289D01*
X142419289Y-71753698D01*
X142352970Y-71852951D01*
X142307288Y-71963236D01*
X142284000Y-72080314D01*
X142284000Y-72199686D01*
X142307288Y-72316764D01*
X142318969Y-72344964D01*
X142316118Y-72346869D01*
X142231709Y-72431278D01*
X142165390Y-72530531D01*
X142119708Y-72640816D01*
X142096420Y-72757894D01*
X140871308Y-72757894D01*
X140800448Y-72671552D01*
X140673912Y-72567706D01*
X140529548Y-72490542D01*
X140372904Y-72443025D01*
X140210000Y-72426980D01*
X140047097Y-72443025D01*
X139890453Y-72490542D01*
X139746089Y-72567706D01*
X139619553Y-72671552D01*
X139515707Y-72798088D01*
X139438543Y-72942452D01*
X139403544Y-73057829D01*
X139383494Y-73009426D01*
X139308967Y-72897888D01*
X139214112Y-72803033D01*
X139102574Y-72728506D01*
X138978640Y-72677171D01*
X138847073Y-72651000D01*
X138712927Y-72651000D01*
X138581360Y-72677171D01*
X138457426Y-72728506D01*
X138345888Y-72803033D01*
X138251033Y-72897888D01*
X138176506Y-73009426D01*
X138125171Y-73133360D01*
X138099000Y-73264927D01*
X137266000Y-73264927D01*
X137266000Y-73180314D01*
X137242712Y-73063236D01*
X137197030Y-72952951D01*
X137130711Y-72853698D01*
X137046302Y-72769289D01*
X136947049Y-72702970D01*
X136836764Y-72657288D01*
X136719686Y-72634000D01*
X136600314Y-72634000D01*
X136483236Y-72657288D01*
X136372951Y-72702970D01*
X136273698Y-72769289D01*
X136189289Y-72853698D01*
X136155000Y-72905015D01*
X136120711Y-72853698D01*
X136036302Y-72769289D01*
X135937049Y-72702970D01*
X135826764Y-72657288D01*
X135709686Y-72634000D01*
X135590314Y-72634000D01*
X135473236Y-72657288D01*
X135362951Y-72702970D01*
X135263698Y-72769289D01*
X135179289Y-72853698D01*
X135112970Y-72952951D01*
X135067288Y-73063236D01*
X135044000Y-73180314D01*
X133664169Y-73180314D01*
X133654829Y-73133360D01*
X133603494Y-73009426D01*
X133528967Y-72897888D01*
X133434112Y-72803033D01*
X133322574Y-72728506D01*
X133198640Y-72677171D01*
X133067073Y-72651000D01*
X132932927Y-72651000D01*
X132801360Y-72677171D01*
X132677426Y-72728506D01*
X132565888Y-72803033D01*
X132471033Y-72897888D01*
X132396506Y-73009426D01*
X132376457Y-73057829D01*
X132341458Y-72942452D01*
X132264294Y-72798088D01*
X132160448Y-72671552D01*
X132033912Y-72567706D01*
X131889548Y-72490542D01*
X131732904Y-72443025D01*
X131570000Y-72426980D01*
X131407097Y-72443025D01*
X131250453Y-72490542D01*
X131106089Y-72567706D01*
X130979553Y-72671552D01*
X130875707Y-72798088D01*
X130798543Y-72942452D01*
X130751026Y-73099096D01*
X130739001Y-73221185D01*
X130739000Y-74402814D01*
X126844057Y-74402814D01*
X126820898Y-74346903D01*
X126718988Y-74194384D01*
X126763236Y-74212712D01*
X126880314Y-74236000D01*
X126999686Y-74236000D01*
X127116764Y-74212712D01*
X127227049Y-74167030D01*
X127326302Y-74100711D01*
X127410711Y-74016302D01*
X127477030Y-73917049D01*
X127522712Y-73806764D01*
X127546000Y-73689686D01*
X127546000Y-73570314D01*
X127522712Y-73453236D01*
X127477030Y-73342951D01*
X127410711Y-73243698D01*
X127326302Y-73159289D01*
X127227049Y-73092970D01*
X127208998Y-73085493D01*
X127574190Y-73012852D01*
X127932435Y-72864462D01*
X128254846Y-72649034D01*
X128529034Y-72374846D01*
X128744462Y-72052435D01*
X128892852Y-71694190D01*
X128968500Y-71313880D01*
X128968500Y-70926120D01*
X128892852Y-70545810D01*
X128744462Y-70187565D01*
X128529034Y-69865154D01*
X128254846Y-69590966D01*
X127932435Y-69375538D01*
X127574190Y-69227148D01*
X127193880Y-69151500D01*
X126806120Y-69151500D01*
X126425810Y-69227148D01*
X126067565Y-69375538D01*
X125745154Y-69590966D01*
X125470966Y-69865154D01*
X125255538Y-70187565D01*
X125107148Y-70545810D01*
X125031500Y-70926120D01*
X125031500Y-71313880D01*
X125107148Y-71694190D01*
X125255538Y-72052435D01*
X125470966Y-72374846D01*
X125745154Y-72649034D01*
X126067565Y-72864462D01*
X126425810Y-73012852D01*
X126709933Y-73069367D01*
X126652951Y-73092970D01*
X126553698Y-73159289D01*
X126469289Y-73243698D01*
X126402970Y-73342951D01*
X126357288Y-73453236D01*
X126334000Y-73570314D01*
X126334000Y-73689686D01*
X126357288Y-73806764D01*
X126392720Y-73892305D01*
X126313097Y-73839102D01*
X126089069Y-73746307D01*
X125851243Y-73699000D01*
X125608757Y-73699000D01*
X125370931Y-73746307D01*
X125146903Y-73839102D01*
X124945283Y-73973820D01*
X124916000Y-74003103D01*
X124916000Y-71142305D01*
X124957835Y-70715640D01*
X125075268Y-70326681D01*
X125266013Y-69967942D01*
X125522807Y-69653082D01*
X125835862Y-69394101D01*
X126193266Y-69200853D01*
X126581394Y-69080707D01*
X127006756Y-69036000D01*
X130764099Y-69036000D01*
X130751026Y-69079096D01*
G37*
X130751026Y-69079096D02*
X130739000Y-69201185D01*
X130739000Y-70082814D01*
X130751025Y-70204903D01*
X130798542Y-70361547D01*
X130875706Y-70505911D01*
X130979552Y-70632448D01*
X131106088Y-70736294D01*
X131250452Y-70813458D01*
X131407096Y-70860975D01*
X131570000Y-70877020D01*
X131732903Y-70860975D01*
X131889547Y-70813458D01*
X132033911Y-70736294D01*
X132160448Y-70632448D01*
X132264294Y-70505912D01*
X132341458Y-70361548D01*
X132388975Y-70204904D01*
X132401000Y-70082815D01*
X132401000Y-69201185D01*
X132388975Y-69079096D01*
X132375902Y-69036000D01*
X139404099Y-69036000D01*
X139391026Y-69079096D01*
X139379000Y-69201185D01*
X139379000Y-70082814D01*
X139391025Y-70204903D01*
X139438542Y-70361547D01*
X139515706Y-70505911D01*
X139619552Y-70632448D01*
X139746088Y-70736294D01*
X139890452Y-70813458D01*
X140047096Y-70860975D01*
X140210000Y-70877020D01*
X140372903Y-70860975D01*
X140529547Y-70813458D01*
X140673911Y-70736294D01*
X140800448Y-70632448D01*
X140904294Y-70505912D01*
X140981458Y-70361548D01*
X141028975Y-70204904D01*
X141041000Y-70082815D01*
X141041000Y-69201185D01*
X141028975Y-69079096D01*
X141015902Y-69036000D01*
X144757695Y-69036000D01*
X145184360Y-69077835D01*
X145573319Y-69195268D01*
X145932058Y-69386013D01*
X146246918Y-69642807D01*
X146505899Y-69955862D01*
X146699147Y-70313266D01*
X146819293Y-70701394D01*
X146864000Y-71126756D01*
X146864000Y-84163103D01*
X146834717Y-84133820D01*
X146633097Y-83999102D01*
X146409069Y-83906307D01*
X146171243Y-83859000D01*
X145928757Y-83859000D01*
X145690931Y-83906307D01*
X145466903Y-83999102D01*
X145265283Y-84133820D01*
X145093820Y-84305283D01*
X144959102Y-84506903D01*
X144866307Y-84730931D01*
X144819000Y-84968757D01*
X144819000Y-85211243D01*
X144866307Y-85449069D01*
X144959102Y-85673097D01*
X145093820Y-85874717D01*
X145265283Y-86046180D01*
X145466903Y-86180898D01*
X145690931Y-86273693D01*
X145928757Y-86321000D01*
X146171243Y-86321000D01*
X146409069Y-86273693D01*
X146633097Y-86180898D01*
X146834717Y-86046180D01*
X146864000Y-86016897D01*
X146864000Y-86703103D01*
X146834717Y-86673820D01*
X146633097Y-86539102D01*
X146409069Y-86446307D01*
X146171243Y-86399000D01*
X145928757Y-86399000D01*
X145690931Y-86446307D01*
X145466903Y-86539102D01*
X145265283Y-86673820D01*
X145093820Y-86845283D01*
X144959102Y-87046903D01*
X144866307Y-87270931D01*
X144819000Y-87508757D01*
X144819000Y-87751243D01*
X144866307Y-87989069D01*
X144959102Y-88213097D01*
X145093820Y-88414717D01*
X145265283Y-88586180D01*
X145466903Y-88720898D01*
X145690931Y-88813693D01*
X145928757Y-88861000D01*
X146171243Y-88861000D01*
X146409069Y-88813693D01*
X146633097Y-88720898D01*
X146834717Y-88586180D01*
X146864000Y-88556897D01*
X146864000Y-89243103D01*
X146834717Y-89213820D01*
X146633097Y-89079102D01*
X146409069Y-88986307D01*
X146171243Y-88939000D01*
X145928757Y-88939000D01*
X145690931Y-88986307D01*
X145466903Y-89079102D01*
X145265283Y-89213820D01*
X145093820Y-89385283D01*
X144959102Y-89586903D01*
X144866307Y-89810931D01*
X144819000Y-90048757D01*
X144819000Y-90291243D01*
X144866307Y-90529069D01*
X144959102Y-90753097D01*
X145093820Y-90954717D01*
X145265283Y-91126180D01*
X145466903Y-91260898D01*
X145690931Y-91353693D01*
X145928757Y-91401000D01*
X146171243Y-91401000D01*
X146409069Y-91353693D01*
X146633097Y-91260898D01*
X146834717Y-91126180D01*
X146864000Y-91096897D01*
X146864000Y-91783103D01*
X146834717Y-91753820D01*
X146633097Y-91619102D01*
X146409069Y-91526307D01*
X146171243Y-91479000D01*
X145928757Y-91479000D01*
X145690931Y-91526307D01*
X145466903Y-91619102D01*
X145265283Y-91753820D01*
X145093820Y-91925283D01*
X144959102Y-92126903D01*
X144866307Y-92350931D01*
X144819000Y-92588757D01*
X144819000Y-92831243D01*
X144866307Y-93069069D01*
X144959102Y-93293097D01*
X145093820Y-93494717D01*
X145265283Y-93666180D01*
X145466903Y-93800898D01*
X145690931Y-93893693D01*
X145928757Y-93941000D01*
X146171243Y-93941000D01*
X146409069Y-93893693D01*
X146633097Y-93800898D01*
X146834717Y-93666180D01*
X146864000Y-93636897D01*
X146864001Y-94323104D01*
X146834717Y-94293820D01*
X146633097Y-94159102D01*
X146409069Y-94066307D01*
X146171243Y-94019000D01*
X145928757Y-94019000D01*
X145690931Y-94066307D01*
X145466903Y-94159102D01*
X145265283Y-94293820D01*
X145093820Y-94465283D01*
X144959102Y-94666903D01*
X144866307Y-94890931D01*
X144819000Y-95128757D01*
X144819000Y-95371243D01*
X144866307Y-95609069D01*
X144959102Y-95833097D01*
X145093820Y-96034717D01*
X145265283Y-96206180D01*
X145466903Y-96340898D01*
X145690931Y-96433693D01*
X145928757Y-96481000D01*
X146171243Y-96481000D01*
X146409069Y-96433693D01*
X146633097Y-96340898D01*
X146834717Y-96206180D01*
X146864001Y-96176896D01*
X146864001Y-96863104D01*
X146834717Y-96833820D01*
X146633097Y-96699102D01*
X146409069Y-96606307D01*
X146171243Y-96559000D01*
X145928757Y-96559000D01*
X145690931Y-96606307D01*
X145466903Y-96699102D01*
X145265283Y-96833820D01*
X145093820Y-97005283D01*
X144959102Y-97206903D01*
X144948310Y-97232957D01*
X144944469Y-97230390D01*
X144834184Y-97184708D01*
X144717106Y-97161420D01*
X144597734Y-97161420D01*
X144480656Y-97184708D01*
X144370371Y-97230390D01*
X144271118Y-97296709D01*
X144186709Y-97381118D01*
X144120390Y-97480371D01*
X144074708Y-97590656D01*
X144051420Y-97707734D01*
X144051420Y-97827106D01*
X144074708Y-97944184D01*
X144120390Y-98054469D01*
X144186709Y-98153722D01*
X144271118Y-98238131D01*
X144370371Y-98304450D01*
X144480656Y-98350132D01*
X144597734Y-98373420D01*
X144717106Y-98373420D01*
X144834184Y-98350132D01*
X144932689Y-98309330D01*
X144959102Y-98373097D01*
X145093820Y-98574717D01*
X145265283Y-98746180D01*
X145466903Y-98880898D01*
X145690931Y-98973693D01*
X145928757Y-99021000D01*
X146171243Y-99021000D01*
X146409069Y-98973693D01*
X146633097Y-98880898D01*
X146834717Y-98746180D01*
X146864001Y-98716896D01*
X146864001Y-99403104D01*
X146834717Y-99373820D01*
X146633097Y-99239102D01*
X146409069Y-99146307D01*
X146171243Y-99099000D01*
X145928757Y-99099000D01*
X145690931Y-99146307D01*
X145466903Y-99239102D01*
X145265283Y-99373820D01*
X145093820Y-99545283D01*
X145052673Y-99606864D01*
X144957049Y-99542970D01*
X144846764Y-99497288D01*
X144729686Y-99474000D01*
X144610314Y-99474000D01*
X144493236Y-99497288D01*
X144382951Y-99542970D01*
X144283698Y-99609289D01*
X144199289Y-99693698D01*
X144132970Y-99792951D01*
X144087288Y-99903236D01*
X144064000Y-100020314D01*
X144064000Y-100139686D01*
X144087288Y-100256764D01*
X144132970Y-100367049D01*
X144199289Y-100466302D01*
X144283698Y-100550711D01*
X144382951Y-100617030D01*
X144493236Y-100662712D01*
X144610314Y-100686000D01*
X144729686Y-100686000D01*
X144846764Y-100662712D01*
X144859976Y-100657239D01*
X144866307Y-100689069D01*
X144959102Y-100913097D01*
X145079705Y-101093593D01*
X145063698Y-101104289D01*
X144979289Y-101188698D01*
X144912970Y-101287951D01*
X144867288Y-101398236D01*
X144844000Y-101515314D01*
X144844000Y-101634686D01*
X144867288Y-101751764D01*
X144912970Y-101862049D01*
X144979289Y-101961302D01*
X145063698Y-102045711D01*
X145105476Y-102073627D01*
X145093820Y-102085283D01*
X145021093Y-102194127D01*
X144937049Y-102137970D01*
X144826764Y-102092288D01*
X144709686Y-102069000D01*
X144590314Y-102069000D01*
X144473236Y-102092288D01*
X144362951Y-102137970D01*
X144263698Y-102204289D01*
X144179289Y-102288698D01*
X144112970Y-102387951D01*
X144067288Y-102498236D01*
X144044000Y-102615314D01*
X144044000Y-102734686D01*
X144067288Y-102851764D01*
X144112970Y-102962049D01*
X144179289Y-103061302D01*
X144263698Y-103145711D01*
X144362951Y-103212030D01*
X144473236Y-103257712D01*
X144590314Y-103281000D01*
X144709686Y-103281000D01*
X144826764Y-103257712D01*
X144870643Y-103239537D01*
X144959102Y-103453097D01*
X145093820Y-103654717D01*
X145265283Y-103826180D01*
X145466903Y-103960898D01*
X145690931Y-104053693D01*
X145928757Y-104101000D01*
X146171243Y-104101000D01*
X146409069Y-104053693D01*
X146633097Y-103960898D01*
X146834717Y-103826180D01*
X146864001Y-103796896D01*
X146864001Y-104483104D01*
X146834717Y-104453820D01*
X146633097Y-104319102D01*
X146409069Y-104226307D01*
X146171243Y-104179000D01*
X145928757Y-104179000D01*
X145690931Y-104226307D01*
X145466903Y-104319102D01*
X145265283Y-104453820D01*
X145093820Y-104625283D01*
X145041691Y-104703300D01*
X145007978Y-104621910D01*
X144933451Y-104510372D01*
X144838596Y-104415517D01*
X144727058Y-104340990D01*
X144603124Y-104289655D01*
X144471557Y-104263484D01*
X144337411Y-104263484D01*
X144205844Y-104289655D01*
X144081910Y-104340990D01*
X143970372Y-104415517D01*
X143875517Y-104510372D01*
X143800990Y-104621910D01*
X143749655Y-104745844D01*
X143723484Y-104877411D01*
X143723484Y-105011557D01*
X143749655Y-105143124D01*
X143800990Y-105267058D01*
X143875517Y-105378596D01*
X143901921Y-105405000D01*
X143881033Y-105425888D01*
X143806506Y-105537426D01*
X143755171Y-105661360D01*
X143729000Y-105792927D01*
X143729000Y-105927073D01*
X143755171Y-106058640D01*
X143806506Y-106182574D01*
X143881033Y-106294112D01*
X143975888Y-106388967D01*
X144087426Y-106463494D01*
X144211360Y-106514829D01*
X144342927Y-106541000D01*
X144477073Y-106541000D01*
X144608640Y-106514829D01*
X144732574Y-106463494D01*
X144844112Y-106388967D01*
X144938967Y-106294112D01*
X145013494Y-106182574D01*
X145041128Y-106115858D01*
X145093820Y-106194717D01*
X145265283Y-106366180D01*
X145466903Y-106500898D01*
X145690931Y-106593693D01*
X145928757Y-106641000D01*
X146171243Y-106641000D01*
X146409069Y-106593693D01*
X146633097Y-106500898D01*
X146834717Y-106366180D01*
X146864001Y-106336896D01*
X146864001Y-107023104D01*
X146834717Y-106993820D01*
X146633097Y-106859102D01*
X146409069Y-106766307D01*
X146171243Y-106719000D01*
X145928757Y-106719000D01*
X145690931Y-106766307D01*
X145466903Y-106859102D01*
X145265283Y-106993820D01*
X145093820Y-107165283D01*
X144959102Y-107366903D01*
X144866307Y-107590931D01*
X144819000Y-107828757D01*
X144819000Y-108071243D01*
X144866307Y-108309069D01*
X144959102Y-108533097D01*
X145093820Y-108734717D01*
X145265283Y-108906180D01*
X145466903Y-109040898D01*
X145690931Y-109133693D01*
X145928757Y-109181000D01*
X146171243Y-109181000D01*
X146409069Y-109133693D01*
X146633097Y-109040898D01*
X146834717Y-108906180D01*
X146864001Y-108876896D01*
X146864001Y-109563104D01*
X146834717Y-109533820D01*
X146633097Y-109399102D01*
X146409069Y-109306307D01*
X146171243Y-109259000D01*
X145928757Y-109259000D01*
X145690931Y-109306307D01*
X145466903Y-109399102D01*
X145265283Y-109533820D01*
X145093820Y-109705283D01*
X144959102Y-109906903D01*
X144866307Y-110130931D01*
X144819000Y-110368757D01*
X144819000Y-110611243D01*
X144866307Y-110849069D01*
X144959102Y-111073097D01*
X145093820Y-111274717D01*
X145265283Y-111446180D01*
X145466903Y-111580898D01*
X145690931Y-111673693D01*
X145928757Y-111721000D01*
X146171243Y-111721000D01*
X146409069Y-111673693D01*
X146633097Y-111580898D01*
X146834717Y-111446180D01*
X146864001Y-111416896D01*
X146864001Y-112103104D01*
X146834717Y-112073820D01*
X146633097Y-111939102D01*
X146409069Y-111846307D01*
X146171243Y-111799000D01*
X145928757Y-111799000D01*
X145690931Y-111846307D01*
X145466903Y-111939102D01*
X145265283Y-112073820D01*
X145093820Y-112245283D01*
X144959102Y-112446903D01*
X144866307Y-112670931D01*
X144819000Y-112908757D01*
X144819000Y-113151243D01*
X144866307Y-113389069D01*
X144959102Y-113613097D01*
X145093820Y-113814717D01*
X145265283Y-113986180D01*
X145466903Y-114120898D01*
X145690931Y-114213693D01*
X145928757Y-114261000D01*
X146171243Y-114261000D01*
X146409069Y-114213693D01*
X146633097Y-114120898D01*
X146834717Y-113986180D01*
X146864001Y-113956896D01*
X146864001Y-116817684D01*
X146822165Y-117244359D01*
X146704732Y-117633319D01*
X146513987Y-117992058D01*
X146257193Y-118306918D01*
X145944138Y-118565899D01*
X145586734Y-118759147D01*
X145198606Y-118879293D01*
X144773244Y-118924000D01*
X127022305Y-118924000D01*
X126595641Y-118882165D01*
X126206681Y-118764732D01*
X125847942Y-118573987D01*
X125533082Y-118317193D01*
X125274101Y-118004138D01*
X125080853Y-117646734D01*
X124960707Y-117258606D01*
X124916000Y-116833244D01*
X124916000Y-116677391D01*
X125349000Y-116677391D01*
X125349000Y-117002609D01*
X125412447Y-117321579D01*
X125536903Y-117622042D01*
X125717585Y-117892451D01*
X125947549Y-118122415D01*
X126217958Y-118303097D01*
X126518421Y-118427553D01*
X126837391Y-118491000D01*
X127162609Y-118491000D01*
X127481579Y-118427553D01*
X127782042Y-118303097D01*
X128052451Y-118122415D01*
X128282415Y-117892451D01*
X128463097Y-117622042D01*
X128587553Y-117321579D01*
X128651000Y-117002609D01*
X128651000Y-116677391D01*
X143129000Y-116677391D01*
X143129000Y-117002609D01*
X143192447Y-117321579D01*
X143316903Y-117622042D01*
X143497585Y-117892451D01*
X143727549Y-118122415D01*
X143997958Y-118303097D01*
X144298421Y-118427553D01*
X144617391Y-118491000D01*
X144942609Y-118491000D01*
X145261579Y-118427553D01*
X145562042Y-118303097D01*
X145832451Y-118122415D01*
X146062415Y-117892451D01*
X146243097Y-117622042D01*
X146367553Y-117321579D01*
X146431000Y-117002609D01*
X146431000Y-116677391D01*
X146367553Y-116358421D01*
X146243097Y-116057958D01*
X146062415Y-115787549D01*
X145832451Y-115557585D01*
X145562042Y-115376903D01*
X145261579Y-115252447D01*
X144942609Y-115189000D01*
X144617391Y-115189000D01*
X144298421Y-115252447D01*
X143997958Y-115376903D01*
X143727549Y-115557585D01*
X143497585Y-115787549D01*
X143316903Y-116057958D01*
X143192447Y-116358421D01*
X143129000Y-116677391D01*
X128651000Y-116677391D01*
X128587553Y-116358421D01*
X128463097Y-116057958D01*
X128282415Y-115787549D01*
X128052451Y-115557585D01*
X127782042Y-115376903D01*
X127481579Y-115252447D01*
X127162609Y-115189000D01*
X126837391Y-115189000D01*
X126518421Y-115252447D01*
X126217958Y-115376903D01*
X125947549Y-115557585D01*
X125717585Y-115787549D01*
X125536903Y-116057958D01*
X125412447Y-116358421D01*
X125349000Y-116677391D01*
X124916000Y-116677391D01*
X124916000Y-114006635D01*
X125043267Y-114106629D01*
X125266502Y-114219917D01*
X125507549Y-114287477D01*
X125707000Y-114200044D01*
X125707000Y-113053000D01*
X125753000Y-113053000D01*
X125753000Y-114200044D01*
X125952451Y-114287477D01*
X126193498Y-114219917D01*
X126416733Y-114106629D01*
X126613578Y-113951967D01*
X126776467Y-113761874D01*
X126899141Y-113543656D01*
X126976886Y-113305698D01*
X126987476Y-113252451D01*
X126900024Y-113053000D01*
X125753000Y-113053000D01*
X125707000Y-113053000D01*
X125687000Y-113053000D01*
X125687000Y-113007000D01*
X125707000Y-113007000D01*
X125707000Y-111859956D01*
X125753000Y-111859956D01*
X125753000Y-113007000D01*
X126900024Y-113007000D01*
X126987476Y-112807549D01*
X126976886Y-112754302D01*
X126899141Y-112516344D01*
X126776467Y-112298126D01*
X126613578Y-112108033D01*
X126416733Y-111953371D01*
X126193498Y-111840083D01*
X125952451Y-111772523D01*
X125753000Y-111859956D01*
X125707000Y-111859956D01*
X125507549Y-111772523D01*
X125266502Y-111840083D01*
X125043267Y-111953371D01*
X124916000Y-112053365D01*
X124916000Y-111416897D01*
X124945283Y-111446180D01*
X125146903Y-111580898D01*
X125370931Y-111673693D01*
X125608757Y-111721000D01*
X125851243Y-111721000D01*
X126089069Y-111673693D01*
X126313097Y-111580898D01*
X126514717Y-111446180D01*
X126686180Y-111274717D01*
X126820898Y-111073097D01*
X126913693Y-110849069D01*
X126960190Y-110615314D01*
X136444000Y-110615314D01*
X136444000Y-110734686D01*
X136467288Y-110851764D01*
X136512970Y-110962049D01*
X136579289Y-111061302D01*
X136663698Y-111145711D01*
X136762951Y-111212030D01*
X136873236Y-111257712D01*
X136990314Y-111281000D01*
X137109686Y-111281000D01*
X137226764Y-111257712D01*
X137337049Y-111212030D01*
X137436302Y-111145711D01*
X137520711Y-111061302D01*
X137587030Y-110962049D01*
X137615683Y-110892875D01*
X137663698Y-110940890D01*
X137762951Y-111007209D01*
X137873236Y-111052891D01*
X137990314Y-111076179D01*
X138109686Y-111076179D01*
X138226764Y-111052891D01*
X138337049Y-111007209D01*
X138436302Y-110940890D01*
X138520711Y-110856481D01*
X138587030Y-110757228D01*
X138632712Y-110646943D01*
X138656000Y-110529865D01*
X138656000Y-110410493D01*
X138632712Y-110293415D01*
X138587030Y-110183130D01*
X138520711Y-110083877D01*
X138436302Y-109999468D01*
X138337049Y-109933149D01*
X138226764Y-109887467D01*
X138109686Y-109864179D01*
X137990314Y-109864179D01*
X137873236Y-109887467D01*
X137762951Y-109933149D01*
X137663698Y-109999468D01*
X137579289Y-110083877D01*
X137512970Y-110183130D01*
X137484317Y-110252304D01*
X137436302Y-110204289D01*
X137337049Y-110137970D01*
X137226764Y-110092288D01*
X137109686Y-110069000D01*
X136990314Y-110069000D01*
X136873236Y-110092288D01*
X136762951Y-110137970D01*
X136663698Y-110204289D01*
X136579289Y-110288698D01*
X136512970Y-110387951D01*
X136467288Y-110498236D01*
X136444000Y-110615314D01*
X126960190Y-110615314D01*
X126961000Y-110611243D01*
X126961000Y-110368757D01*
X126913693Y-110130931D01*
X126820898Y-109906903D01*
X126686180Y-109705283D01*
X126514717Y-109533820D01*
X126313097Y-109399102D01*
X126089069Y-109306307D01*
X125851243Y-109259000D01*
X125608757Y-109259000D01*
X125370931Y-109306307D01*
X125146903Y-109399102D01*
X124945283Y-109533820D01*
X124916000Y-109563103D01*
X124916000Y-108876897D01*
X124945283Y-108906180D01*
X125146903Y-109040898D01*
X125370931Y-109133693D01*
X125608757Y-109181000D01*
X125851243Y-109181000D01*
X126089069Y-109133693D01*
X126313097Y-109040898D01*
X126514717Y-108906180D01*
X126686180Y-108734717D01*
X126820898Y-108533097D01*
X126828263Y-108515314D01*
X135619000Y-108515314D01*
X135619000Y-108634686D01*
X135642288Y-108751764D01*
X135687970Y-108862049D01*
X135754289Y-108961302D01*
X135838698Y-109045711D01*
X135937951Y-109112030D01*
X136048236Y-109157712D01*
X136165314Y-109181000D01*
X136284686Y-109181000D01*
X136401764Y-109157712D01*
X136512049Y-109112030D01*
X136611302Y-109045711D01*
X136695711Y-108961302D01*
X136762030Y-108862049D01*
X136807712Y-108751764D01*
X136831000Y-108634686D01*
X136831000Y-108515314D01*
X136807712Y-108398236D01*
X136762030Y-108287951D01*
X136695711Y-108188698D01*
X136611302Y-108104289D01*
X136552973Y-108065314D01*
X139419000Y-108065314D01*
X139419000Y-108184686D01*
X139442288Y-108301764D01*
X139487970Y-108412049D01*
X139554289Y-108511302D01*
X139638698Y-108595711D01*
X139737951Y-108662030D01*
X139848236Y-108707712D01*
X139965314Y-108731000D01*
X140084686Y-108731000D01*
X140201764Y-108707712D01*
X140204618Y-108706530D01*
X140237970Y-108787049D01*
X140304289Y-108886302D01*
X140388698Y-108970711D01*
X140487951Y-109037030D01*
X140598236Y-109082712D01*
X140715314Y-109106000D01*
X140834686Y-109106000D01*
X140951764Y-109082712D01*
X141062049Y-109037030D01*
X141161302Y-108970711D01*
X141245711Y-108886302D01*
X141312030Y-108787049D01*
X141357712Y-108676764D01*
X141381000Y-108559686D01*
X141381000Y-108440314D01*
X141357712Y-108323236D01*
X141312030Y-108212951D01*
X141245711Y-108113698D01*
X141161302Y-108029289D01*
X141062049Y-107962970D01*
X140951764Y-107917288D01*
X140834686Y-107894000D01*
X140715314Y-107894000D01*
X140598236Y-107917288D01*
X140595382Y-107918470D01*
X140562030Y-107837951D01*
X140495711Y-107738698D01*
X140411302Y-107654289D01*
X140312049Y-107587970D01*
X140271080Y-107571000D01*
X140344686Y-107571000D01*
X140461764Y-107547712D01*
X140572049Y-107502030D01*
X140671302Y-107435711D01*
X140755711Y-107351302D01*
X140822030Y-107252049D01*
X140867712Y-107141764D01*
X140891000Y-107024686D01*
X140891000Y-106905314D01*
X140867712Y-106788236D01*
X140822030Y-106677951D01*
X140755711Y-106578698D01*
X140671302Y-106494289D01*
X140572049Y-106427970D01*
X140461764Y-106382288D01*
X140344686Y-106359000D01*
X140225314Y-106359000D01*
X140108236Y-106382288D01*
X139997951Y-106427970D01*
X139898698Y-106494289D01*
X139814289Y-106578698D01*
X139747970Y-106677951D01*
X139702288Y-106788236D01*
X139679000Y-106905314D01*
X139679000Y-107024686D01*
X139702288Y-107141764D01*
X139747970Y-107252049D01*
X139814289Y-107351302D01*
X139898698Y-107435711D01*
X139997951Y-107502030D01*
X140038920Y-107519000D01*
X139965314Y-107519000D01*
X139848236Y-107542288D01*
X139737951Y-107587970D01*
X139638698Y-107654289D01*
X139554289Y-107738698D01*
X139487970Y-107837951D01*
X139442288Y-107948236D01*
X139419000Y-108065314D01*
X136552973Y-108065314D01*
X136512049Y-108037970D01*
X136401764Y-107992288D01*
X136284686Y-107969000D01*
X136165314Y-107969000D01*
X136048236Y-107992288D01*
X135937951Y-108037970D01*
X135838698Y-108104289D01*
X135754289Y-108188698D01*
X135687970Y-108287951D01*
X135642288Y-108398236D01*
X135619000Y-108515314D01*
X126828263Y-108515314D01*
X126913693Y-108309069D01*
X126961000Y-108071243D01*
X126961000Y-107828757D01*
X126913693Y-107590931D01*
X126820898Y-107366903D01*
X126686180Y-107165283D01*
X126514717Y-106993820D01*
X126313097Y-106859102D01*
X126089069Y-106766307D01*
X125851243Y-106719000D01*
X125608757Y-106719000D01*
X125370931Y-106766307D01*
X125146903Y-106859102D01*
X124945283Y-106993820D01*
X124916000Y-107023103D01*
X124916000Y-106336897D01*
X124945283Y-106366180D01*
X125146903Y-106500898D01*
X125370931Y-106593693D01*
X125608757Y-106641000D01*
X125851243Y-106641000D01*
X126089069Y-106593693D01*
X126313097Y-106500898D01*
X126514717Y-106366180D01*
X126686180Y-106194717D01*
X126820898Y-105993097D01*
X126863471Y-105890314D01*
X135619000Y-105890314D01*
X135619000Y-106009686D01*
X135642288Y-106126764D01*
X135687970Y-106237049D01*
X135754289Y-106336302D01*
X135838698Y-106420711D01*
X135937951Y-106487030D01*
X136048236Y-106532712D01*
X136165314Y-106556000D01*
X136284686Y-106556000D01*
X136401764Y-106532712D01*
X136512049Y-106487030D01*
X136611302Y-106420711D01*
X136695711Y-106336302D01*
X136762030Y-106237049D01*
X136807712Y-106126764D01*
X136831000Y-106009686D01*
X136831000Y-105890314D01*
X136807712Y-105773236D01*
X136762030Y-105662951D01*
X136695711Y-105563698D01*
X136611302Y-105479289D01*
X136512049Y-105412970D01*
X136401764Y-105367288D01*
X136284686Y-105344000D01*
X136165314Y-105344000D01*
X136048236Y-105367288D01*
X135937951Y-105412970D01*
X135838698Y-105479289D01*
X135754289Y-105563698D01*
X135687970Y-105662951D01*
X135642288Y-105773236D01*
X135619000Y-105890314D01*
X126863471Y-105890314D01*
X126913693Y-105769069D01*
X126961000Y-105531243D01*
X126961000Y-105288757D01*
X126941419Y-105190314D01*
X128994000Y-105190314D01*
X128994000Y-105309686D01*
X129017288Y-105426764D01*
X129062970Y-105537049D01*
X129129289Y-105636302D01*
X129213698Y-105720711D01*
X129312951Y-105787030D01*
X129423236Y-105832712D01*
X129540314Y-105856000D01*
X129659686Y-105856000D01*
X129776764Y-105832712D01*
X129887049Y-105787030D01*
X129986302Y-105720711D01*
X130070711Y-105636302D01*
X130137030Y-105537049D01*
X130182712Y-105426764D01*
X130206000Y-105309686D01*
X130206000Y-105190314D01*
X130182712Y-105073236D01*
X130137030Y-104962951D01*
X130070711Y-104863698D01*
X129986302Y-104779289D01*
X129887049Y-104712970D01*
X129776764Y-104667288D01*
X129659686Y-104644000D01*
X129540314Y-104644000D01*
X129423236Y-104667288D01*
X129312951Y-104712970D01*
X129213698Y-104779289D01*
X129129289Y-104863698D01*
X129062970Y-104962951D01*
X129017288Y-105073236D01*
X128994000Y-105190314D01*
X126941419Y-105190314D01*
X126913693Y-105050931D01*
X126820898Y-104826903D01*
X126686180Y-104625283D01*
X126514717Y-104453820D01*
X126313097Y-104319102D01*
X126089069Y-104226307D01*
X125851243Y-104179000D01*
X125608757Y-104179000D01*
X125370931Y-104226307D01*
X125146903Y-104319102D01*
X124945283Y-104453820D01*
X124916000Y-104483103D01*
X124916000Y-103796897D01*
X124945283Y-103826180D01*
X125146903Y-103960898D01*
X125370931Y-104053693D01*
X125608757Y-104101000D01*
X125851243Y-104101000D01*
X126089069Y-104053693D01*
X126181724Y-104015314D01*
X126769000Y-104015314D01*
X126769000Y-104134686D01*
X126792288Y-104251764D01*
X126837970Y-104362049D01*
X126904289Y-104461302D01*
X126988698Y-104545711D01*
X127087951Y-104612030D01*
X127198236Y-104657712D01*
X127315314Y-104681000D01*
X127434686Y-104681000D01*
X127551764Y-104657712D01*
X127662049Y-104612030D01*
X127694549Y-104590314D01*
X139844000Y-104590314D01*
X139844000Y-104709686D01*
X139867288Y-104826764D01*
X139912970Y-104937049D01*
X139979289Y-105036302D01*
X140063698Y-105120711D01*
X140162951Y-105187030D01*
X140273236Y-105232712D01*
X140390314Y-105256000D01*
X140435967Y-105256000D01*
X140363698Y-105304289D01*
X140279289Y-105388698D01*
X140212970Y-105487951D01*
X140167288Y-105598236D01*
X140144000Y-105715314D01*
X140144000Y-105834686D01*
X140167288Y-105951764D01*
X140212970Y-106062049D01*
X140279289Y-106161302D01*
X140363698Y-106245711D01*
X140462951Y-106312030D01*
X140573236Y-106357712D01*
X140690314Y-106381000D01*
X140809686Y-106381000D01*
X140926764Y-106357712D01*
X141037049Y-106312030D01*
X141136302Y-106245711D01*
X141220711Y-106161302D01*
X141287030Y-106062049D01*
X141332712Y-105951764D01*
X141356000Y-105834686D01*
X141356000Y-105715314D01*
X141332712Y-105598236D01*
X141287030Y-105487951D01*
X141220711Y-105388698D01*
X141136302Y-105304289D01*
X141037049Y-105237970D01*
X140926764Y-105192288D01*
X140809686Y-105169000D01*
X140764033Y-105169000D01*
X140836302Y-105120711D01*
X140920711Y-105036302D01*
X140987030Y-104937049D01*
X141032712Y-104826764D01*
X141056000Y-104709686D01*
X141056000Y-104590314D01*
X141032712Y-104473236D01*
X140987030Y-104362951D01*
X140931039Y-104279155D01*
X140940314Y-104281000D01*
X141059686Y-104281000D01*
X141176764Y-104257712D01*
X141287049Y-104212030D01*
X141386302Y-104145711D01*
X141470711Y-104061302D01*
X141537030Y-103962049D01*
X141582712Y-103851764D01*
X141606000Y-103734686D01*
X141606000Y-103615314D01*
X141582712Y-103498236D01*
X141537030Y-103387951D01*
X141470711Y-103288698D01*
X141386302Y-103204289D01*
X141287049Y-103137970D01*
X141176764Y-103092288D01*
X141059686Y-103069000D01*
X140940314Y-103069000D01*
X140823236Y-103092288D01*
X140712951Y-103137970D01*
X140613698Y-103204289D01*
X140529289Y-103288698D01*
X140462970Y-103387951D01*
X140417288Y-103498236D01*
X140394000Y-103615314D01*
X140394000Y-103734686D01*
X140417288Y-103851764D01*
X140462970Y-103962049D01*
X140518961Y-104045845D01*
X140509686Y-104044000D01*
X140390314Y-104044000D01*
X140273236Y-104067288D01*
X140162951Y-104112970D01*
X140063698Y-104179289D01*
X139979289Y-104263698D01*
X139912970Y-104362951D01*
X139867288Y-104473236D01*
X139844000Y-104590314D01*
X127694549Y-104590314D01*
X127761302Y-104545711D01*
X127845711Y-104461302D01*
X127912030Y-104362049D01*
X127957712Y-104251764D01*
X127981000Y-104134686D01*
X127981000Y-104015314D01*
X127957712Y-103898236D01*
X127912030Y-103787951D01*
X127845711Y-103688698D01*
X127761302Y-103604289D01*
X127662049Y-103537970D01*
X127551764Y-103492288D01*
X127434686Y-103469000D01*
X127315314Y-103469000D01*
X127198236Y-103492288D01*
X127087951Y-103537970D01*
X126988698Y-103604289D01*
X126904289Y-103688698D01*
X126837970Y-103787951D01*
X126792288Y-103898236D01*
X126769000Y-104015314D01*
X126181724Y-104015314D01*
X126313097Y-103960898D01*
X126514717Y-103826180D01*
X126686180Y-103654717D01*
X126820898Y-103453097D01*
X126898732Y-103265187D01*
X135739187Y-103265187D01*
X135739187Y-103384559D01*
X135762475Y-103501637D01*
X135808157Y-103611922D01*
X135874476Y-103711175D01*
X135958885Y-103795584D01*
X136058138Y-103861903D01*
X136168423Y-103907585D01*
X136285501Y-103930873D01*
X136404873Y-103930873D01*
X136521951Y-103907585D01*
X136632236Y-103861903D01*
X136731489Y-103795584D01*
X136815898Y-103711175D01*
X136882217Y-103611922D01*
X136927899Y-103501637D01*
X136951187Y-103384559D01*
X136951187Y-103265187D01*
X136927899Y-103148109D01*
X136882217Y-103037824D01*
X136815898Y-102938571D01*
X136731489Y-102854162D01*
X136632236Y-102787843D01*
X136521951Y-102742161D01*
X136404873Y-102718873D01*
X136285501Y-102718873D01*
X136168423Y-102742161D01*
X136058138Y-102787843D01*
X135958885Y-102854162D01*
X135874476Y-102938571D01*
X135808157Y-103037824D01*
X135762475Y-103148109D01*
X135739187Y-103265187D01*
X126898732Y-103265187D01*
X126913693Y-103229069D01*
X126961000Y-102991243D01*
X126961000Y-102748757D01*
X126913693Y-102510931D01*
X126853377Y-102365314D01*
X130294000Y-102365314D01*
X130294000Y-102484686D01*
X130317288Y-102601764D01*
X130362970Y-102712049D01*
X130429289Y-102811302D01*
X130513698Y-102895711D01*
X130612951Y-102962030D01*
X130723236Y-103007712D01*
X130840314Y-103031000D01*
X130959686Y-103031000D01*
X131076764Y-103007712D01*
X131187049Y-102962030D01*
X131286302Y-102895711D01*
X131370711Y-102811302D01*
X131437030Y-102712049D01*
X131482712Y-102601764D01*
X131506000Y-102484686D01*
X131506000Y-102365314D01*
X131482712Y-102248236D01*
X131437030Y-102137951D01*
X131370711Y-102038698D01*
X131286302Y-101954289D01*
X131187049Y-101887970D01*
X131076764Y-101842288D01*
X130959686Y-101819000D01*
X130840314Y-101819000D01*
X130723236Y-101842288D01*
X130612951Y-101887970D01*
X130513698Y-101954289D01*
X130429289Y-102038698D01*
X130362970Y-102137951D01*
X130317288Y-102248236D01*
X130294000Y-102365314D01*
X126853377Y-102365314D01*
X126820898Y-102286903D01*
X126686180Y-102085283D01*
X126514717Y-101913820D01*
X126313097Y-101779102D01*
X126089069Y-101686307D01*
X125851243Y-101639000D01*
X125608757Y-101639000D01*
X125370931Y-101686307D01*
X125146903Y-101779102D01*
X124945283Y-101913820D01*
X124916000Y-101943103D01*
X124916000Y-101256897D01*
X124945283Y-101286180D01*
X125146903Y-101420898D01*
X125370931Y-101513693D01*
X125608757Y-101561000D01*
X125851243Y-101561000D01*
X126089069Y-101513693D01*
X126313097Y-101420898D01*
X126514717Y-101286180D01*
X126686180Y-101114717D01*
X126820898Y-100913097D01*
X126913693Y-100689069D01*
X126961000Y-100451243D01*
X126961000Y-100380314D01*
X128904002Y-100380314D01*
X128904002Y-100499686D01*
X128927290Y-100616764D01*
X128972972Y-100727049D01*
X129039291Y-100826302D01*
X129123700Y-100910711D01*
X129222953Y-100977030D01*
X129333238Y-101022712D01*
X129450316Y-101046000D01*
X129569688Y-101046000D01*
X129686766Y-101022712D01*
X129797051Y-100977030D01*
X129896304Y-100910711D01*
X129980713Y-100826302D01*
X130047032Y-100727049D01*
X130092714Y-100616764D01*
X130116002Y-100499686D01*
X130116002Y-100380314D01*
X130092714Y-100263236D01*
X130047032Y-100152951D01*
X129980713Y-100053698D01*
X129896304Y-99969289D01*
X129797051Y-99902970D01*
X129686766Y-99857288D01*
X129569688Y-99834000D01*
X129450316Y-99834000D01*
X129333238Y-99857288D01*
X129222953Y-99902970D01*
X129123700Y-99969289D01*
X129039291Y-100053698D01*
X128972972Y-100152951D01*
X128927290Y-100263236D01*
X128904002Y-100380314D01*
X126961000Y-100380314D01*
X126961000Y-100208757D01*
X126913693Y-99970931D01*
X126838491Y-99789375D01*
X136974068Y-99789375D01*
X136974068Y-99908747D01*
X136997356Y-100025825D01*
X137043038Y-100136110D01*
X137109357Y-100235363D01*
X137193766Y-100319772D01*
X137293019Y-100386091D01*
X137403304Y-100431773D01*
X137520382Y-100455061D01*
X137639754Y-100455061D01*
X137756832Y-100431773D01*
X137867117Y-100386091D01*
X137966370Y-100319772D01*
X138050779Y-100235363D01*
X138117098Y-100136110D01*
X138162780Y-100025825D01*
X138186068Y-99908747D01*
X138186068Y-99789375D01*
X138162780Y-99672297D01*
X138117098Y-99562012D01*
X138050779Y-99462759D01*
X137966370Y-99378350D01*
X137867117Y-99312031D01*
X137756832Y-99266349D01*
X137639754Y-99243061D01*
X137520382Y-99243061D01*
X137403304Y-99266349D01*
X137293019Y-99312031D01*
X137193766Y-99378350D01*
X137109357Y-99462759D01*
X137043038Y-99562012D01*
X136997356Y-99672297D01*
X136974068Y-99789375D01*
X126838491Y-99789375D01*
X126820898Y-99746903D01*
X126686180Y-99545283D01*
X126514717Y-99373820D01*
X126313097Y-99239102D01*
X126089069Y-99146307D01*
X125851243Y-99099000D01*
X125608757Y-99099000D01*
X125370931Y-99146307D01*
X125146903Y-99239102D01*
X124945283Y-99373820D01*
X124916000Y-99403103D01*
X124916000Y-98716897D01*
X124945283Y-98746180D01*
X125146903Y-98880898D01*
X125370931Y-98973693D01*
X125608757Y-99021000D01*
X125851243Y-99021000D01*
X126089069Y-98973693D01*
X126313097Y-98880898D01*
X126514717Y-98746180D01*
X126548352Y-98712545D01*
X133214961Y-98712545D01*
X133214961Y-98831917D01*
X133238249Y-98948995D01*
X133283931Y-99059280D01*
X133350250Y-99158533D01*
X133434659Y-99242942D01*
X133533912Y-99309261D01*
X133644197Y-99354943D01*
X133761275Y-99378231D01*
X133880647Y-99378231D01*
X133997725Y-99354943D01*
X134108010Y-99309261D01*
X134207263Y-99242942D01*
X134291672Y-99158533D01*
X134357991Y-99059280D01*
X134403673Y-98948995D01*
X134426961Y-98831917D01*
X134426961Y-98746720D01*
X134455773Y-98775532D01*
X134555026Y-98841851D01*
X134665311Y-98887533D01*
X134782389Y-98910821D01*
X134901761Y-98910821D01*
X135018839Y-98887533D01*
X135129124Y-98841851D01*
X135228377Y-98775532D01*
X135238595Y-98765314D01*
X140219000Y-98765314D01*
X140219000Y-98884686D01*
X140242288Y-99001764D01*
X140287970Y-99112049D01*
X140354289Y-99211302D01*
X140438698Y-99295711D01*
X140537951Y-99362030D01*
X140583329Y-99380826D01*
X140583329Y-99472864D01*
X140606617Y-99589942D01*
X140652299Y-99700227D01*
X140718618Y-99799480D01*
X140803027Y-99883889D01*
X140836246Y-99906085D01*
X140811851Y-99964980D01*
X140788563Y-100082058D01*
X140788563Y-100201430D01*
X140811851Y-100318508D01*
X140857533Y-100428793D01*
X140923852Y-100528046D01*
X141008261Y-100612455D01*
X141107514Y-100678774D01*
X141217799Y-100724456D01*
X141334877Y-100747744D01*
X141454249Y-100747744D01*
X141571327Y-100724456D01*
X141681612Y-100678774D01*
X141780865Y-100612455D01*
X141865274Y-100528046D01*
X141931593Y-100428793D01*
X141977275Y-100318508D01*
X142000563Y-100201430D01*
X142000563Y-100082058D01*
X141977275Y-99964980D01*
X141931593Y-99854695D01*
X141865274Y-99755442D01*
X141839867Y-99730035D01*
X141951684Y-99707793D01*
X142061969Y-99662111D01*
X142161222Y-99595792D01*
X142245631Y-99511383D01*
X142311950Y-99412130D01*
X142357632Y-99301845D01*
X142380920Y-99184767D01*
X142380920Y-99065395D01*
X142357632Y-98948317D01*
X142311950Y-98838032D01*
X142245631Y-98738779D01*
X142161222Y-98654370D01*
X142061969Y-98588051D01*
X141951684Y-98542369D01*
X141834606Y-98519081D01*
X141715234Y-98519081D01*
X141598156Y-98542369D01*
X141487871Y-98588051D01*
X141405563Y-98643048D01*
X141362030Y-98537951D01*
X141295711Y-98438698D01*
X141211302Y-98354289D01*
X141112049Y-98287970D01*
X141001764Y-98242288D01*
X140884686Y-98219000D01*
X140765314Y-98219000D01*
X140648236Y-98242288D01*
X140537951Y-98287970D01*
X140438698Y-98354289D01*
X140354289Y-98438698D01*
X140287970Y-98537951D01*
X140242288Y-98648236D01*
X140219000Y-98765314D01*
X135238595Y-98765314D01*
X135312786Y-98691123D01*
X135379105Y-98591870D01*
X135424787Y-98481585D01*
X135448075Y-98364507D01*
X135448075Y-98245135D01*
X135424787Y-98128057D01*
X135379105Y-98017772D01*
X135312786Y-97918519D01*
X135228377Y-97834110D01*
X135129124Y-97767791D01*
X135018839Y-97722109D01*
X134901761Y-97698821D01*
X134782389Y-97698821D01*
X134665311Y-97722109D01*
X134555026Y-97767791D01*
X134455773Y-97834110D01*
X134371364Y-97918519D01*
X134305045Y-98017772D01*
X134259363Y-98128057D01*
X134236075Y-98245135D01*
X134236075Y-98330332D01*
X134207263Y-98301520D01*
X134108010Y-98235201D01*
X133997725Y-98189519D01*
X133880647Y-98166231D01*
X133761275Y-98166231D01*
X133644197Y-98189519D01*
X133533912Y-98235201D01*
X133434659Y-98301520D01*
X133350250Y-98385929D01*
X133283931Y-98485182D01*
X133238249Y-98595467D01*
X133214961Y-98712545D01*
X126548352Y-98712545D01*
X126686180Y-98574717D01*
X126820898Y-98373097D01*
X126913693Y-98149069D01*
X126961000Y-97911243D01*
X126961000Y-97668757D01*
X126955423Y-97640720D01*
X127019289Y-97736302D01*
X127103698Y-97820711D01*
X127202951Y-97887030D01*
X127313236Y-97932712D01*
X127430314Y-97956000D01*
X127549686Y-97956000D01*
X127666764Y-97932712D01*
X127777049Y-97887030D01*
X127876302Y-97820711D01*
X127960711Y-97736302D01*
X127963571Y-97732021D01*
X130492026Y-97732021D01*
X130492026Y-97851393D01*
X130515314Y-97968471D01*
X130560996Y-98078756D01*
X130627315Y-98178009D01*
X130711724Y-98262418D01*
X130810977Y-98328737D01*
X130921262Y-98374419D01*
X131038340Y-98397707D01*
X131157712Y-98397707D01*
X131274790Y-98374419D01*
X131385075Y-98328737D01*
X131484328Y-98262418D01*
X131568737Y-98178009D01*
X131635056Y-98078756D01*
X131680738Y-97968471D01*
X131704026Y-97851393D01*
X131704026Y-97732021D01*
X131680738Y-97614943D01*
X131635056Y-97504658D01*
X131592063Y-97440314D01*
X137894000Y-97440314D01*
X137894000Y-97559686D01*
X137917288Y-97676764D01*
X137962970Y-97787049D01*
X138029289Y-97886302D01*
X138113698Y-97970711D01*
X138212951Y-98037030D01*
X138323236Y-98082712D01*
X138440314Y-98106000D01*
X138559686Y-98106000D01*
X138676764Y-98082712D01*
X138787049Y-98037030D01*
X138886302Y-97970711D01*
X138970711Y-97886302D01*
X139037030Y-97787049D01*
X139082712Y-97676764D01*
X139106000Y-97559686D01*
X139106000Y-97440314D01*
X139082712Y-97323236D01*
X139037030Y-97212951D01*
X138970711Y-97113698D01*
X138886302Y-97029289D01*
X138787049Y-96962970D01*
X138676764Y-96917288D01*
X138559686Y-96894000D01*
X138440314Y-96894000D01*
X138323236Y-96917288D01*
X138212951Y-96962970D01*
X138113698Y-97029289D01*
X138029289Y-97113698D01*
X137962970Y-97212951D01*
X137917288Y-97323236D01*
X137894000Y-97440314D01*
X131592063Y-97440314D01*
X131568737Y-97405405D01*
X131484328Y-97320996D01*
X131385075Y-97254677D01*
X131274790Y-97208995D01*
X131157712Y-97185707D01*
X131038340Y-97185707D01*
X130921262Y-97208995D01*
X130810977Y-97254677D01*
X130711724Y-97320996D01*
X130627315Y-97405405D01*
X130560996Y-97504658D01*
X130515314Y-97614943D01*
X130492026Y-97732021D01*
X127963571Y-97732021D01*
X128027030Y-97637049D01*
X128072712Y-97526764D01*
X128096000Y-97409686D01*
X128096000Y-97290314D01*
X128072712Y-97173236D01*
X128027030Y-97062951D01*
X127960711Y-96963698D01*
X127876302Y-96879289D01*
X127777049Y-96812970D01*
X127666764Y-96767288D01*
X127549686Y-96744000D01*
X127430314Y-96744000D01*
X127313236Y-96767288D01*
X127202951Y-96812970D01*
X127103698Y-96879289D01*
X127019289Y-96963698D01*
X126952970Y-97062951D01*
X126907288Y-97173236D01*
X126884000Y-97290314D01*
X126884000Y-97359245D01*
X126820898Y-97206903D01*
X126686180Y-97005283D01*
X126514717Y-96833820D01*
X126313097Y-96699102D01*
X126089069Y-96606307D01*
X125851243Y-96559000D01*
X125608757Y-96559000D01*
X125370931Y-96606307D01*
X125146903Y-96699102D01*
X124945283Y-96833820D01*
X124916000Y-96863103D01*
X124916000Y-96176897D01*
X124945283Y-96206180D01*
X125146903Y-96340898D01*
X125370931Y-96433693D01*
X125608757Y-96481000D01*
X125851243Y-96481000D01*
X126089069Y-96433693D01*
X126313097Y-96340898D01*
X126514717Y-96206180D01*
X126686180Y-96034717D01*
X126796030Y-95870314D01*
X130214000Y-95870314D01*
X130214000Y-95989686D01*
X130237288Y-96106764D01*
X130282970Y-96217049D01*
X130349289Y-96316302D01*
X130433698Y-96400711D01*
X130532951Y-96467030D01*
X130643236Y-96512712D01*
X130760314Y-96536000D01*
X130879686Y-96536000D01*
X130996764Y-96512712D01*
X131107049Y-96467030D01*
X131170000Y-96424967D01*
X131232951Y-96467030D01*
X131343236Y-96512712D01*
X131460314Y-96536000D01*
X131579686Y-96536000D01*
X131696764Y-96512712D01*
X131807049Y-96467030D01*
X131906302Y-96400711D01*
X131990711Y-96316302D01*
X132057030Y-96217049D01*
X132102712Y-96106764D01*
X132126000Y-95989686D01*
X132126000Y-95870314D01*
X132102712Y-95753236D01*
X132057030Y-95642951D01*
X131990711Y-95543698D01*
X131959917Y-95512904D01*
X136544000Y-95512904D01*
X136544000Y-95632276D01*
X136567288Y-95749354D01*
X136612970Y-95859639D01*
X136679289Y-95958892D01*
X136763698Y-96043301D01*
X136862951Y-96109620D01*
X136973236Y-96155302D01*
X137090314Y-96178590D01*
X137209686Y-96178590D01*
X137326764Y-96155302D01*
X137437049Y-96109620D01*
X137536302Y-96043301D01*
X137620711Y-95958892D01*
X137687030Y-95859639D01*
X137726101Y-95765314D01*
X137794000Y-95765314D01*
X137794000Y-95884686D01*
X137817288Y-96001764D01*
X137862970Y-96112049D01*
X137929289Y-96211302D01*
X138013698Y-96295711D01*
X138112951Y-96362030D01*
X138223236Y-96407712D01*
X138340314Y-96431000D01*
X138459686Y-96431000D01*
X138576764Y-96407712D01*
X138687049Y-96362030D01*
X138786302Y-96295711D01*
X138870711Y-96211302D01*
X138937030Y-96112049D01*
X138982712Y-96001764D01*
X138997285Y-95928500D01*
X138997285Y-95989695D01*
X139020573Y-96106773D01*
X139066255Y-96217058D01*
X139132574Y-96316311D01*
X139216983Y-96400720D01*
X139316236Y-96467039D01*
X139426521Y-96512721D01*
X139543599Y-96536009D01*
X139662971Y-96536009D01*
X139780049Y-96512721D01*
X139890334Y-96467039D01*
X139989587Y-96400720D01*
X140073996Y-96316311D01*
X140140315Y-96217058D01*
X140185997Y-96106773D01*
X140209285Y-95989695D01*
X140209285Y-95870323D01*
X140185997Y-95753245D01*
X140140315Y-95642960D01*
X140073996Y-95543707D01*
X139989587Y-95459298D01*
X139890334Y-95392979D01*
X139780049Y-95347297D01*
X139662971Y-95324009D01*
X139543599Y-95324009D01*
X139426521Y-95347297D01*
X139316236Y-95392979D01*
X139216983Y-95459298D01*
X139132574Y-95543707D01*
X139066255Y-95642960D01*
X139020573Y-95753245D01*
X139006000Y-95826509D01*
X139006000Y-95765314D01*
X138982712Y-95648236D01*
X138937030Y-95537951D01*
X138870711Y-95438698D01*
X138786302Y-95354289D01*
X138687049Y-95287970D01*
X138576764Y-95242288D01*
X138459686Y-95219000D01*
X138340314Y-95219000D01*
X138223236Y-95242288D01*
X138112951Y-95287970D01*
X138013698Y-95354289D01*
X137929289Y-95438698D01*
X137862970Y-95537951D01*
X137817288Y-95648236D01*
X137794000Y-95765314D01*
X137726101Y-95765314D01*
X137732712Y-95749354D01*
X137756000Y-95632276D01*
X137756000Y-95512904D01*
X137732712Y-95395826D01*
X137687030Y-95285541D01*
X137620711Y-95186288D01*
X137536302Y-95101879D01*
X137437049Y-95035560D01*
X137326764Y-94989878D01*
X137209686Y-94966590D01*
X137090314Y-94966590D01*
X136973236Y-94989878D01*
X136862951Y-95035560D01*
X136763698Y-95101879D01*
X136679289Y-95186288D01*
X136612970Y-95285541D01*
X136567288Y-95395826D01*
X136544000Y-95512904D01*
X131959917Y-95512904D01*
X131906302Y-95459289D01*
X131807049Y-95392970D01*
X131696764Y-95347288D01*
X131579686Y-95324000D01*
X131460314Y-95324000D01*
X131343236Y-95347288D01*
X131232951Y-95392970D01*
X131170000Y-95435033D01*
X131107049Y-95392970D01*
X130996764Y-95347288D01*
X130879686Y-95324000D01*
X130760314Y-95324000D01*
X130643236Y-95347288D01*
X130532951Y-95392970D01*
X130433698Y-95459289D01*
X130349289Y-95543698D01*
X130282970Y-95642951D01*
X130237288Y-95753236D01*
X130214000Y-95870314D01*
X126796030Y-95870314D01*
X126820898Y-95833097D01*
X126913693Y-95609069D01*
X126961000Y-95371243D01*
X126961000Y-95128757D01*
X126947391Y-95060336D01*
X127913643Y-95060336D01*
X127913643Y-95179708D01*
X127936931Y-95296786D01*
X127982613Y-95407071D01*
X128048932Y-95506324D01*
X128133341Y-95590733D01*
X128232594Y-95657052D01*
X128342879Y-95702734D01*
X128459957Y-95726022D01*
X128579329Y-95726022D01*
X128696407Y-95702734D01*
X128806692Y-95657052D01*
X128905945Y-95590733D01*
X128990354Y-95506324D01*
X129056673Y-95407071D01*
X129102355Y-95296786D01*
X129125643Y-95179708D01*
X129125643Y-95060336D01*
X129102355Y-94943258D01*
X129056673Y-94832973D01*
X128990354Y-94733720D01*
X128905945Y-94649311D01*
X128806692Y-94582992D01*
X128696407Y-94537310D01*
X128579329Y-94514022D01*
X128459957Y-94514022D01*
X128342879Y-94537310D01*
X128232594Y-94582992D01*
X128133341Y-94649311D01*
X128048932Y-94733720D01*
X127982613Y-94832973D01*
X127936931Y-94943258D01*
X127913643Y-95060336D01*
X126947391Y-95060336D01*
X126913693Y-94890931D01*
X126820898Y-94666903D01*
X126686180Y-94465283D01*
X126514717Y-94293820D01*
X126313097Y-94159102D01*
X126089069Y-94066307D01*
X125851243Y-94019000D01*
X125608757Y-94019000D01*
X125370931Y-94066307D01*
X125146903Y-94159102D01*
X124945283Y-94293820D01*
X124916000Y-94323103D01*
X124916000Y-93636897D01*
X124945283Y-93666180D01*
X125146903Y-93800898D01*
X125370931Y-93893693D01*
X125608757Y-93941000D01*
X125851243Y-93941000D01*
X126089069Y-93893693D01*
X126313097Y-93800898D01*
X126514717Y-93666180D01*
X126686180Y-93494717D01*
X126774239Y-93362927D01*
X137149000Y-93362927D01*
X137149000Y-93497073D01*
X137175171Y-93628640D01*
X137226506Y-93752574D01*
X137301033Y-93864112D01*
X137395888Y-93958967D01*
X137507426Y-94033494D01*
X137631360Y-94084829D01*
X137762927Y-94111000D01*
X137897073Y-94111000D01*
X138028640Y-94084829D01*
X138152574Y-94033494D01*
X138264112Y-93958967D01*
X138358967Y-93864112D01*
X138433494Y-93752574D01*
X138484829Y-93628640D01*
X138511000Y-93497073D01*
X138511000Y-93362927D01*
X138484829Y-93231360D01*
X138433494Y-93107426D01*
X138358967Y-92995888D01*
X138264112Y-92901033D01*
X138152574Y-92826506D01*
X138028640Y-92775171D01*
X137897073Y-92749000D01*
X137762927Y-92749000D01*
X137631360Y-92775171D01*
X137507426Y-92826506D01*
X137395888Y-92901033D01*
X137301033Y-92995888D01*
X137226506Y-93107426D01*
X137175171Y-93231360D01*
X137149000Y-93362927D01*
X126774239Y-93362927D01*
X126820898Y-93293097D01*
X126913693Y-93069069D01*
X126961000Y-92831243D01*
X126961000Y-92588757D01*
X126913693Y-92350931D01*
X126820898Y-92126903D01*
X126686180Y-91925283D01*
X126514717Y-91753820D01*
X126438551Y-91702927D01*
X138489000Y-91702927D01*
X138489000Y-91837073D01*
X138515171Y-91968640D01*
X138566506Y-92092574D01*
X138641033Y-92204112D01*
X138735888Y-92298967D01*
X138847426Y-92373494D01*
X138971360Y-92424829D01*
X139102927Y-92451000D01*
X139237073Y-92451000D01*
X139368640Y-92424829D01*
X139492574Y-92373494D01*
X139604112Y-92298967D01*
X139698967Y-92204112D01*
X139773494Y-92092574D01*
X139824829Y-91968640D01*
X139851000Y-91837073D01*
X139851000Y-91702927D01*
X139824829Y-91571360D01*
X139773494Y-91447426D01*
X139698967Y-91335888D01*
X139604112Y-91241033D01*
X139492574Y-91166506D01*
X139368640Y-91115171D01*
X139237073Y-91089000D01*
X139102927Y-91089000D01*
X138971360Y-91115171D01*
X138847426Y-91166506D01*
X138735888Y-91241033D01*
X138641033Y-91335888D01*
X138566506Y-91447426D01*
X138515171Y-91571360D01*
X138489000Y-91702927D01*
X126438551Y-91702927D01*
X126313097Y-91619102D01*
X126089069Y-91526307D01*
X125851243Y-91479000D01*
X125608757Y-91479000D01*
X125370931Y-91526307D01*
X125146903Y-91619102D01*
X124945283Y-91753820D01*
X124916000Y-91783103D01*
X124916000Y-91096897D01*
X124945283Y-91126180D01*
X125146903Y-91260898D01*
X125370931Y-91353693D01*
X125608757Y-91401000D01*
X125851243Y-91401000D01*
X126089069Y-91353693D01*
X126313097Y-91260898D01*
X126514717Y-91126180D01*
X126686180Y-90954717D01*
X126820898Y-90753097D01*
X126913693Y-90529069D01*
X126961000Y-90291243D01*
X126961000Y-90048757D01*
X126913693Y-89810931D01*
X126905154Y-89790314D01*
X127589188Y-89790314D01*
X127589188Y-89909686D01*
X127612476Y-90026764D01*
X127658158Y-90137049D01*
X127724477Y-90236302D01*
X127808886Y-90320711D01*
X127908139Y-90387030D01*
X128018424Y-90432712D01*
X128135502Y-90456000D01*
X128254874Y-90456000D01*
X128371952Y-90432712D01*
X128441111Y-90404065D01*
X133001590Y-90404065D01*
X133001590Y-90523437D01*
X133024878Y-90640515D01*
X133070560Y-90750800D01*
X133136879Y-90850053D01*
X133221288Y-90934462D01*
X133320541Y-91000781D01*
X133430826Y-91046463D01*
X133547904Y-91069751D01*
X133667276Y-91069751D01*
X133784354Y-91046463D01*
X133894639Y-91000781D01*
X133993892Y-90934462D01*
X134078301Y-90850053D01*
X134144620Y-90750800D01*
X134190302Y-90640515D01*
X134213590Y-90523437D01*
X134213590Y-90404065D01*
X134190302Y-90286987D01*
X134144620Y-90176702D01*
X134078301Y-90077449D01*
X133993892Y-89993040D01*
X133963791Y-89972927D01*
X137629000Y-89972927D01*
X137629000Y-90107073D01*
X137655171Y-90238640D01*
X137706506Y-90362574D01*
X137781033Y-90474112D01*
X137875888Y-90568967D01*
X137987426Y-90643494D01*
X138111360Y-90694829D01*
X138242927Y-90721000D01*
X138377073Y-90721000D01*
X138508640Y-90694829D01*
X138632574Y-90643494D01*
X138744112Y-90568967D01*
X138838967Y-90474112D01*
X138913494Y-90362574D01*
X138964829Y-90238640D01*
X138991000Y-90107073D01*
X138991000Y-89972927D01*
X138964829Y-89841360D01*
X138913494Y-89717426D01*
X138838967Y-89605888D01*
X138744112Y-89511033D01*
X138632574Y-89436506D01*
X138508640Y-89385171D01*
X138377073Y-89359000D01*
X138242927Y-89359000D01*
X138111360Y-89385171D01*
X137987426Y-89436506D01*
X137875888Y-89511033D01*
X137781033Y-89605888D01*
X137706506Y-89717426D01*
X137655171Y-89841360D01*
X137629000Y-89972927D01*
X133963791Y-89972927D01*
X133894639Y-89926721D01*
X133784354Y-89881039D01*
X133667276Y-89857751D01*
X133547904Y-89857751D01*
X133430826Y-89881039D01*
X133320541Y-89926721D01*
X133221288Y-89993040D01*
X133136879Y-90077449D01*
X133070560Y-90176702D01*
X133024878Y-90286987D01*
X133001590Y-90404065D01*
X128441111Y-90404065D01*
X128482237Y-90387030D01*
X128581490Y-90320711D01*
X128665899Y-90236302D01*
X128732218Y-90137049D01*
X128750422Y-90093100D01*
X128779289Y-90136302D01*
X128863698Y-90220711D01*
X128962951Y-90287030D01*
X129073236Y-90332712D01*
X129190314Y-90356000D01*
X129309686Y-90356000D01*
X129426764Y-90332712D01*
X129537049Y-90287030D01*
X129636302Y-90220711D01*
X129720711Y-90136302D01*
X129787030Y-90037049D01*
X129832712Y-89926764D01*
X129856000Y-89809686D01*
X129856000Y-89690314D01*
X129832712Y-89573236D01*
X129787030Y-89462951D01*
X129720711Y-89363698D01*
X129636302Y-89279289D01*
X129537049Y-89212970D01*
X129426764Y-89167288D01*
X129309686Y-89144000D01*
X129190314Y-89144000D01*
X129073236Y-89167288D01*
X128962951Y-89212970D01*
X128863698Y-89279289D01*
X128779289Y-89363698D01*
X128712970Y-89462951D01*
X128694766Y-89506900D01*
X128665899Y-89463698D01*
X128581490Y-89379289D01*
X128482237Y-89312970D01*
X128371952Y-89267288D01*
X128254874Y-89244000D01*
X128135502Y-89244000D01*
X128018424Y-89267288D01*
X127908139Y-89312970D01*
X127808886Y-89379289D01*
X127724477Y-89463698D01*
X127658158Y-89562951D01*
X127612476Y-89673236D01*
X127589188Y-89790314D01*
X126905154Y-89790314D01*
X126820898Y-89586903D01*
X126747809Y-89477518D01*
X126765314Y-89481000D01*
X126884686Y-89481000D01*
X127001764Y-89457712D01*
X127112049Y-89412030D01*
X127211302Y-89345711D01*
X127295711Y-89261302D01*
X127362030Y-89162049D01*
X127407712Y-89051764D01*
X127431000Y-88934686D01*
X127431000Y-88815314D01*
X127407712Y-88698236D01*
X127362030Y-88587951D01*
X127295711Y-88488698D01*
X127292229Y-88485216D01*
X133329102Y-88485216D01*
X133329102Y-88604588D01*
X133352390Y-88721666D01*
X133398072Y-88831951D01*
X133464391Y-88931204D01*
X133548800Y-89015613D01*
X133648053Y-89081932D01*
X133758338Y-89127614D01*
X133875416Y-89150902D01*
X133994788Y-89150902D01*
X134111866Y-89127614D01*
X134222151Y-89081932D01*
X134321404Y-89015613D01*
X134405813Y-88931204D01*
X134472132Y-88831951D01*
X134517814Y-88721666D01*
X134541102Y-88604588D01*
X134541102Y-88485216D01*
X134517814Y-88368138D01*
X134495934Y-88315314D01*
X134569000Y-88315314D01*
X134569000Y-88434686D01*
X134592288Y-88551764D01*
X134637970Y-88662049D01*
X134704289Y-88761302D01*
X134788698Y-88845711D01*
X134887951Y-88912030D01*
X134995759Y-88956686D01*
X135009698Y-89026764D01*
X135055380Y-89137049D01*
X135121699Y-89236302D01*
X135206108Y-89320711D01*
X135305361Y-89387030D01*
X135415646Y-89432712D01*
X135532724Y-89456000D01*
X135652096Y-89456000D01*
X135769174Y-89432712D01*
X135879459Y-89387030D01*
X135978712Y-89320711D01*
X136063121Y-89236302D01*
X136129440Y-89137049D01*
X136175122Y-89026764D01*
X136198410Y-88909686D01*
X136198410Y-88790314D01*
X136175122Y-88673236D01*
X136129440Y-88562951D01*
X136063121Y-88463698D01*
X135978712Y-88379289D01*
X135879459Y-88312970D01*
X135771651Y-88268314D01*
X135757712Y-88198236D01*
X135712030Y-88087951D01*
X135645711Y-87988698D01*
X135561302Y-87904289D01*
X135462049Y-87837970D01*
X135351764Y-87792288D01*
X135234686Y-87769000D01*
X135115314Y-87769000D01*
X134998236Y-87792288D01*
X134887951Y-87837970D01*
X134788698Y-87904289D01*
X134704289Y-87988698D01*
X134637970Y-88087951D01*
X134592288Y-88198236D01*
X134569000Y-88315314D01*
X134495934Y-88315314D01*
X134472132Y-88257853D01*
X134405813Y-88158600D01*
X134321404Y-88074191D01*
X134222151Y-88007872D01*
X134111866Y-87962190D01*
X133994788Y-87938902D01*
X133875416Y-87938902D01*
X133758338Y-87962190D01*
X133648053Y-88007872D01*
X133548800Y-88074191D01*
X133464391Y-88158600D01*
X133398072Y-88257853D01*
X133352390Y-88368138D01*
X133329102Y-88485216D01*
X127292229Y-88485216D01*
X127211302Y-88404289D01*
X127112049Y-88337970D01*
X127001764Y-88292288D01*
X126884686Y-88269000D01*
X126783545Y-88269000D01*
X126820898Y-88213097D01*
X126913693Y-87989069D01*
X126961000Y-87751243D01*
X126961000Y-87508757D01*
X126913693Y-87270931D01*
X126890656Y-87215314D01*
X138319000Y-87215314D01*
X138319000Y-87334686D01*
X138342288Y-87451764D01*
X138387970Y-87562049D01*
X138454289Y-87661302D01*
X138538698Y-87745711D01*
X138611930Y-87794643D01*
X138572970Y-87852951D01*
X138527288Y-87963236D01*
X138504000Y-88080314D01*
X138504000Y-88199686D01*
X138527288Y-88316764D01*
X138572970Y-88427049D01*
X138639289Y-88526302D01*
X138723698Y-88610711D01*
X138822951Y-88677030D01*
X138933236Y-88722712D01*
X139050314Y-88746000D01*
X139169686Y-88746000D01*
X139286764Y-88722712D01*
X139397049Y-88677030D01*
X139496302Y-88610711D01*
X139580711Y-88526302D01*
X139647030Y-88427049D01*
X139692712Y-88316764D01*
X139716000Y-88199686D01*
X139716000Y-88080314D01*
X139692712Y-87963236D01*
X139647030Y-87852951D01*
X139580711Y-87753698D01*
X139496302Y-87669289D01*
X139423070Y-87620357D01*
X139462030Y-87562049D01*
X139507712Y-87451764D01*
X139531000Y-87334686D01*
X139531000Y-87270314D01*
X142174000Y-87270314D01*
X142174000Y-87389686D01*
X142197288Y-87506764D01*
X142242970Y-87617049D01*
X142309289Y-87716302D01*
X142393698Y-87800711D01*
X142492951Y-87867030D01*
X142603236Y-87912712D01*
X142720314Y-87936000D01*
X142839686Y-87936000D01*
X142956764Y-87912712D01*
X143067049Y-87867030D01*
X143166302Y-87800711D01*
X143250711Y-87716302D01*
X143317030Y-87617049D01*
X143362712Y-87506764D01*
X143386000Y-87389686D01*
X143386000Y-87270314D01*
X143362712Y-87153236D01*
X143317030Y-87042951D01*
X143250711Y-86943698D01*
X143166302Y-86859289D01*
X143067049Y-86792970D01*
X142956764Y-86747288D01*
X142839686Y-86724000D01*
X142720314Y-86724000D01*
X142603236Y-86747288D01*
X142492951Y-86792970D01*
X142393698Y-86859289D01*
X142309289Y-86943698D01*
X142242970Y-87042951D01*
X142197288Y-87153236D01*
X142174000Y-87270314D01*
X139531000Y-87270314D01*
X139531000Y-87215314D01*
X139507712Y-87098236D01*
X139462030Y-86987951D01*
X139395711Y-86888698D01*
X139311302Y-86804289D01*
X139212049Y-86737970D01*
X139101764Y-86692288D01*
X138984686Y-86669000D01*
X138865314Y-86669000D01*
X138748236Y-86692288D01*
X138637951Y-86737970D01*
X138538698Y-86804289D01*
X138454289Y-86888698D01*
X138387970Y-86987951D01*
X138342288Y-87098236D01*
X138319000Y-87215314D01*
X126890656Y-87215314D01*
X126820898Y-87046903D01*
X126686180Y-86845283D01*
X126514717Y-86673820D01*
X126313097Y-86539102D01*
X126089069Y-86446307D01*
X125851243Y-86399000D01*
X125608757Y-86399000D01*
X125370931Y-86446307D01*
X125146903Y-86539102D01*
X124945283Y-86673820D01*
X124916000Y-86703103D01*
X124916000Y-86016897D01*
X124945283Y-86046180D01*
X125146903Y-86180898D01*
X125370931Y-86273693D01*
X125608757Y-86321000D01*
X125851243Y-86321000D01*
X126089069Y-86273693D01*
X126313097Y-86180898D01*
X126514717Y-86046180D01*
X126686180Y-85874717D01*
X126820898Y-85673097D01*
X126844832Y-85615314D01*
X129544000Y-85615314D01*
X129544000Y-85734686D01*
X129567288Y-85851764D01*
X129612970Y-85962049D01*
X129679289Y-86061302D01*
X129763698Y-86145711D01*
X129862951Y-86212030D01*
X129973236Y-86257712D01*
X130090314Y-86281000D01*
X130209686Y-86281000D01*
X130326764Y-86257712D01*
X130437049Y-86212030D01*
X130536302Y-86145711D01*
X130620711Y-86061302D01*
X130687030Y-85962049D01*
X130732712Y-85851764D01*
X130756000Y-85734686D01*
X130756000Y-85615314D01*
X130732712Y-85498236D01*
X130687030Y-85387951D01*
X130620711Y-85288698D01*
X130536302Y-85204289D01*
X130437049Y-85137970D01*
X130326764Y-85092288D01*
X130209686Y-85069000D01*
X130090314Y-85069000D01*
X129973236Y-85092288D01*
X129862951Y-85137970D01*
X129763698Y-85204289D01*
X129679289Y-85288698D01*
X129612970Y-85387951D01*
X129567288Y-85498236D01*
X129544000Y-85615314D01*
X126844832Y-85615314D01*
X126913693Y-85449069D01*
X126961000Y-85211243D01*
X126961000Y-84968757D01*
X126913693Y-84730931D01*
X126820898Y-84506903D01*
X126686180Y-84305283D01*
X126514717Y-84133820D01*
X126313097Y-83999102D01*
X126089069Y-83906307D01*
X125851243Y-83859000D01*
X125608757Y-83859000D01*
X125370931Y-83906307D01*
X125146903Y-83999102D01*
X124945283Y-84133820D01*
X124916000Y-84163103D01*
X124916000Y-83526635D01*
X125043267Y-83626629D01*
X125266502Y-83739917D01*
X125507549Y-83807477D01*
X125707000Y-83720044D01*
X125707000Y-82573000D01*
X125753000Y-82573000D01*
X125753000Y-83720044D01*
X125952451Y-83807477D01*
X126193498Y-83739917D01*
X126416733Y-83626629D01*
X126613578Y-83471967D01*
X126776467Y-83281874D01*
X126899141Y-83063656D01*
X126971640Y-82841752D01*
X127796894Y-82841752D01*
X127796894Y-82961124D01*
X127820182Y-83078202D01*
X127865864Y-83188487D01*
X127932183Y-83287740D01*
X128016592Y-83372149D01*
X128115845Y-83438468D01*
X128226130Y-83484150D01*
X128343208Y-83507438D01*
X128462580Y-83507438D01*
X128579658Y-83484150D01*
X128630894Y-83462927D01*
X140209000Y-83462927D01*
X140209000Y-83597073D01*
X140235171Y-83728640D01*
X140286506Y-83852574D01*
X140361033Y-83964112D01*
X140455888Y-84058967D01*
X140567426Y-84133494D01*
X140691360Y-84184829D01*
X140786288Y-84203712D01*
X140805171Y-84298640D01*
X140856506Y-84422574D01*
X140931033Y-84534112D01*
X141025888Y-84628967D01*
X141137426Y-84703494D01*
X141261360Y-84754829D01*
X141392927Y-84781000D01*
X141527073Y-84781000D01*
X141658640Y-84754829D01*
X141782574Y-84703494D01*
X141894112Y-84628967D01*
X141988967Y-84534112D01*
X142063494Y-84422574D01*
X142114829Y-84298640D01*
X142141000Y-84167073D01*
X142141000Y-84032927D01*
X142114829Y-83901360D01*
X142063494Y-83777426D01*
X141988967Y-83665888D01*
X141894112Y-83571033D01*
X141782574Y-83496506D01*
X141658640Y-83445171D01*
X141563712Y-83426288D01*
X141544829Y-83331360D01*
X141493494Y-83207426D01*
X141418967Y-83095888D01*
X141324112Y-83001033D01*
X141212574Y-82926506D01*
X141088640Y-82875171D01*
X140957073Y-82849000D01*
X140822927Y-82849000D01*
X140691360Y-82875171D01*
X140567426Y-82926506D01*
X140455888Y-83001033D01*
X140361033Y-83095888D01*
X140286506Y-83207426D01*
X140235171Y-83331360D01*
X140209000Y-83462927D01*
X128630894Y-83462927D01*
X128689943Y-83438468D01*
X128789196Y-83372149D01*
X128873605Y-83287740D01*
X128939924Y-83188487D01*
X128985606Y-83078202D01*
X129008894Y-82961124D01*
X129008894Y-82841752D01*
X128985606Y-82724674D01*
X128939924Y-82614389D01*
X128873605Y-82515136D01*
X128789196Y-82430727D01*
X128689943Y-82364408D01*
X128579658Y-82318726D01*
X128462580Y-82295438D01*
X128343208Y-82295438D01*
X128226130Y-82318726D01*
X128115845Y-82364408D01*
X128016592Y-82430727D01*
X127932183Y-82515136D01*
X127865864Y-82614389D01*
X127820182Y-82724674D01*
X127796894Y-82841752D01*
X126971640Y-82841752D01*
X126976886Y-82825698D01*
X126987476Y-82772451D01*
X126900024Y-82573000D01*
X125753000Y-82573000D01*
X125707000Y-82573000D01*
X125687000Y-82573000D01*
X125687000Y-82527000D01*
X125707000Y-82527000D01*
X125707000Y-81379956D01*
X125753000Y-81379956D01*
X125753000Y-82527000D01*
X126900024Y-82527000D01*
X126987476Y-82327549D01*
X126976886Y-82274302D01*
X126899141Y-82036344D01*
X126776467Y-81818126D01*
X126613578Y-81628033D01*
X126441623Y-81492927D01*
X135119000Y-81492927D01*
X135119000Y-81627073D01*
X135145171Y-81758640D01*
X135196506Y-81882574D01*
X135271033Y-81994112D01*
X135321921Y-82045000D01*
X135291033Y-82075888D01*
X135216506Y-82187426D01*
X135165171Y-82311360D01*
X135139000Y-82442927D01*
X135139000Y-82577073D01*
X135165171Y-82708640D01*
X135216506Y-82832574D01*
X135291033Y-82944112D01*
X135385888Y-83038967D01*
X135497426Y-83113494D01*
X135621360Y-83164829D01*
X135752927Y-83191000D01*
X135887073Y-83191000D01*
X136018640Y-83164829D01*
X136142574Y-83113494D01*
X136254112Y-83038967D01*
X136348967Y-82944112D01*
X136423494Y-82832574D01*
X136474829Y-82708640D01*
X136501000Y-82577073D01*
X136501000Y-82442927D01*
X136474829Y-82311360D01*
X136423494Y-82187426D01*
X136348967Y-82075888D01*
X136298079Y-82025000D01*
X136328967Y-81994112D01*
X136403494Y-81882574D01*
X136454829Y-81758640D01*
X136481000Y-81627073D01*
X136481000Y-81492927D01*
X136454829Y-81361360D01*
X136403494Y-81237426D01*
X136328967Y-81125888D01*
X136234112Y-81031033D01*
X136122574Y-80956506D01*
X135998640Y-80905171D01*
X135867073Y-80879000D01*
X135732927Y-80879000D01*
X135601360Y-80905171D01*
X135477426Y-80956506D01*
X135365888Y-81031033D01*
X135271033Y-81125888D01*
X135196506Y-81237426D01*
X135145171Y-81361360D01*
X135119000Y-81492927D01*
X126441623Y-81492927D01*
X126416733Y-81473371D01*
X126193498Y-81360083D01*
X125952451Y-81292523D01*
X125753000Y-81379956D01*
X125707000Y-81379956D01*
X125507549Y-81292523D01*
X125266502Y-81360083D01*
X125043267Y-81473371D01*
X124916000Y-81573365D01*
X124916000Y-80936897D01*
X124945283Y-80966180D01*
X125146903Y-81100898D01*
X125370931Y-81193693D01*
X125608757Y-81241000D01*
X125851243Y-81241000D01*
X126089069Y-81193693D01*
X126313097Y-81100898D01*
X126514717Y-80966180D01*
X126686180Y-80794717D01*
X126820898Y-80593097D01*
X126865887Y-80484482D01*
X127988168Y-80484482D01*
X127988168Y-80603854D01*
X128011456Y-80720932D01*
X128057138Y-80831217D01*
X128123457Y-80930470D01*
X128207866Y-81014879D01*
X128307119Y-81081198D01*
X128417404Y-81126880D01*
X128534482Y-81150168D01*
X128653854Y-81150168D01*
X128770932Y-81126880D01*
X128881217Y-81081198D01*
X128980470Y-81014879D01*
X129064879Y-80930470D01*
X129131198Y-80831217D01*
X129176880Y-80720932D01*
X129200168Y-80603854D01*
X129200168Y-80484482D01*
X129176880Y-80367404D01*
X129131198Y-80257119D01*
X129064879Y-80157866D01*
X128980470Y-80073457D01*
X128881217Y-80007138D01*
X128770932Y-79961456D01*
X128653854Y-79938168D01*
X128534482Y-79938168D01*
X128417404Y-79961456D01*
X128307119Y-80007138D01*
X128207866Y-80073457D01*
X128123457Y-80157866D01*
X128057138Y-80257119D01*
X128011456Y-80367404D01*
X127988168Y-80484482D01*
X126865887Y-80484482D01*
X126913693Y-80369069D01*
X126961000Y-80131243D01*
X126961000Y-79888757D01*
X126913693Y-79650931D01*
X126820898Y-79426903D01*
X126686180Y-79225283D01*
X126514717Y-79053820D01*
X126313097Y-78919102D01*
X126089069Y-78826307D01*
X125851243Y-78779000D01*
X125608757Y-78779000D01*
X125370931Y-78826307D01*
X125146903Y-78919102D01*
X124945283Y-79053820D01*
X124916000Y-79083103D01*
X124916000Y-78396897D01*
X124945283Y-78426180D01*
X125146903Y-78560898D01*
X125370931Y-78653693D01*
X125608757Y-78701000D01*
X125851243Y-78701000D01*
X126089069Y-78653693D01*
X126313097Y-78560898D01*
X126514717Y-78426180D01*
X126527970Y-78412927D01*
X144669000Y-78412927D01*
X144669000Y-78547073D01*
X144695171Y-78678640D01*
X144746506Y-78802574D01*
X144821033Y-78914112D01*
X144915888Y-79008967D01*
X145027426Y-79083494D01*
X145151360Y-79134829D01*
X145152241Y-79135004D01*
X145151367Y-79135178D01*
X145027433Y-79186513D01*
X144915895Y-79261040D01*
X144821040Y-79355895D01*
X144746513Y-79467433D01*
X144695178Y-79591367D01*
X144669007Y-79722934D01*
X144669007Y-79857080D01*
X144695178Y-79988647D01*
X144746513Y-80112581D01*
X144821040Y-80224119D01*
X144915895Y-80318974D01*
X145027433Y-80393501D01*
X145127626Y-80435002D01*
X145027426Y-80476506D01*
X144915888Y-80551033D01*
X144821033Y-80645888D01*
X144746506Y-80757426D01*
X144695171Y-80881360D01*
X144669000Y-81012927D01*
X144669000Y-81147073D01*
X144695171Y-81278640D01*
X144746506Y-81402574D01*
X144821033Y-81514112D01*
X144915888Y-81608967D01*
X145027426Y-81683494D01*
X145151360Y-81734829D01*
X145282927Y-81761000D01*
X145417073Y-81761000D01*
X145548640Y-81734829D01*
X145672574Y-81683494D01*
X145784112Y-81608967D01*
X145878967Y-81514112D01*
X145953494Y-81402574D01*
X146004829Y-81278640D01*
X146031000Y-81147073D01*
X146031000Y-81012927D01*
X146004829Y-80881360D01*
X145953494Y-80757426D01*
X145878967Y-80645888D01*
X145784112Y-80551033D01*
X145672574Y-80476506D01*
X145572381Y-80435005D01*
X145672581Y-80393501D01*
X145784119Y-80318974D01*
X145878974Y-80224119D01*
X145953501Y-80112581D01*
X146004836Y-79988647D01*
X146031007Y-79857080D01*
X146031007Y-79722934D01*
X146004836Y-79591367D01*
X145953501Y-79467433D01*
X145878974Y-79355895D01*
X145784119Y-79261040D01*
X145672581Y-79186513D01*
X145548647Y-79135178D01*
X145547766Y-79135003D01*
X145548640Y-79134829D01*
X145672574Y-79083494D01*
X145784112Y-79008967D01*
X145878967Y-78914112D01*
X145953494Y-78802574D01*
X146004829Y-78678640D01*
X146031000Y-78547073D01*
X146031000Y-78412927D01*
X146004829Y-78281360D01*
X145953494Y-78157426D01*
X145878967Y-78045888D01*
X145784112Y-77951033D01*
X145672574Y-77876506D01*
X145548640Y-77825171D01*
X145417073Y-77799000D01*
X145282927Y-77799000D01*
X145151360Y-77825171D01*
X145027426Y-77876506D01*
X144915888Y-77951033D01*
X144821033Y-78045888D01*
X144746506Y-78157426D01*
X144695171Y-78281360D01*
X144669000Y-78412927D01*
X126527970Y-78412927D01*
X126686180Y-78254717D01*
X126820898Y-78053097D01*
X126913693Y-77829069D01*
X126961000Y-77591243D01*
X126961000Y-77348757D01*
X126913693Y-77110931D01*
X126820898Y-76886903D01*
X126710420Y-76721560D01*
X134934000Y-76721560D01*
X134934000Y-76840932D01*
X134957288Y-76958010D01*
X135002970Y-77068295D01*
X135069289Y-77167548D01*
X135153698Y-77251957D01*
X135252951Y-77318276D01*
X135363236Y-77363958D01*
X135480314Y-77387246D01*
X135599686Y-77387246D01*
X135716764Y-77363958D01*
X135827049Y-77318276D01*
X135890000Y-77276213D01*
X135952951Y-77318276D01*
X136063236Y-77363958D01*
X136180314Y-77387246D01*
X136299686Y-77387246D01*
X136416764Y-77363958D01*
X136527049Y-77318276D01*
X136626302Y-77251957D01*
X136710711Y-77167548D01*
X136777030Y-77068295D01*
X136822712Y-76958010D01*
X136846000Y-76840932D01*
X136846000Y-76721560D01*
X136822712Y-76604482D01*
X136777030Y-76494197D01*
X136710711Y-76394944D01*
X136626302Y-76310535D01*
X136527049Y-76244216D01*
X136416764Y-76198534D01*
X136299686Y-76175246D01*
X136180314Y-76175246D01*
X136063236Y-76198534D01*
X135952951Y-76244216D01*
X135890000Y-76286279D01*
X135827049Y-76244216D01*
X135716764Y-76198534D01*
X135599686Y-76175246D01*
X135480314Y-76175246D01*
X135363236Y-76198534D01*
X135252951Y-76244216D01*
X135153698Y-76310535D01*
X135069289Y-76394944D01*
X135002970Y-76494197D01*
X134957288Y-76604482D01*
X134934000Y-76721560D01*
X126710420Y-76721560D01*
X126686180Y-76685283D01*
X126514717Y-76513820D01*
X126313097Y-76379102D01*
X126089069Y-76286307D01*
X125851243Y-76239000D01*
X125608757Y-76239000D01*
X125370931Y-76286307D01*
X125146903Y-76379102D01*
X124945283Y-76513820D01*
X124916000Y-76543103D01*
X124916000Y-75856897D01*
X124945283Y-75886180D01*
X125146903Y-76020898D01*
X125370931Y-76113693D01*
X125608757Y-76161000D01*
X125851243Y-76161000D01*
X126089069Y-76113693D01*
X126313097Y-76020898D01*
X126514717Y-75886180D01*
X126686180Y-75714717D01*
X126820898Y-75513097D01*
X126913693Y-75289069D01*
X126961000Y-75051243D01*
X126961000Y-74808757D01*
X126913693Y-74570931D01*
X126844057Y-74402814D01*
X130739000Y-74402814D01*
X130751025Y-74524903D01*
X130798542Y-74681547D01*
X130875706Y-74825911D01*
X130979552Y-74952448D01*
X131106088Y-75056294D01*
X131250452Y-75133458D01*
X131407096Y-75180975D01*
X131570000Y-75197020D01*
X131732903Y-75180975D01*
X131889547Y-75133458D01*
X132033911Y-75056294D01*
X132160448Y-74952448D01*
X132264294Y-74825912D01*
X132341458Y-74681548D01*
X132388975Y-74524904D01*
X132401000Y-74402815D01*
X132401000Y-73661300D01*
X132471033Y-73766112D01*
X132565888Y-73860967D01*
X132677426Y-73935494D01*
X132801360Y-73986829D01*
X132932927Y-74013000D01*
X133067073Y-74013000D01*
X133198640Y-73986829D01*
X133322574Y-73935494D01*
X133434112Y-73860967D01*
X133528967Y-73766112D01*
X133603494Y-73654574D01*
X133654829Y-73530640D01*
X133681000Y-73399073D01*
X133681000Y-73264927D01*
X133664169Y-73180314D01*
X135044000Y-73180314D01*
X135044000Y-73299686D01*
X135067288Y-73416764D01*
X135112970Y-73527049D01*
X135179289Y-73626302D01*
X135263698Y-73710711D01*
X135362951Y-73777030D01*
X135473236Y-73822712D01*
X135590314Y-73846000D01*
X135709686Y-73846000D01*
X135826764Y-73822712D01*
X135937049Y-73777030D01*
X136036302Y-73710711D01*
X136120711Y-73626302D01*
X136155000Y-73574985D01*
X136189289Y-73626302D01*
X136273698Y-73710711D01*
X136372951Y-73777030D01*
X136483236Y-73822712D01*
X136600314Y-73846000D01*
X136719686Y-73846000D01*
X136836764Y-73822712D01*
X136947049Y-73777030D01*
X137046302Y-73710711D01*
X137130711Y-73626302D01*
X137197030Y-73527049D01*
X137242712Y-73416764D01*
X137266000Y-73299686D01*
X137266000Y-73264927D01*
X138099000Y-73264927D01*
X138099000Y-73399073D01*
X138125171Y-73530640D01*
X138176506Y-73654574D01*
X138251033Y-73766112D01*
X138345888Y-73860967D01*
X138457426Y-73935494D01*
X138581360Y-73986829D01*
X138712927Y-74013000D01*
X138847073Y-74013000D01*
X138978640Y-73986829D01*
X139102574Y-73935494D01*
X139214112Y-73860967D01*
X139308967Y-73766112D01*
X139379001Y-73661299D01*
X139379000Y-74402814D01*
X139391025Y-74524903D01*
X139438542Y-74681547D01*
X139515706Y-74825911D01*
X139619552Y-74952448D01*
X139746088Y-75056294D01*
X139890452Y-75133458D01*
X140047096Y-75180975D01*
X140210000Y-75197020D01*
X140372903Y-75180975D01*
X140529547Y-75133458D01*
X140673911Y-75056294D01*
X140800448Y-74952448D01*
X140904294Y-74825912D01*
X140981458Y-74681548D01*
X141028975Y-74524904D01*
X141041000Y-74402815D01*
X141041000Y-73221185D01*
X141028975Y-73099096D01*
X140981458Y-72942452D01*
X140904294Y-72798088D01*
X140871308Y-72757894D01*
X142096420Y-72757894D01*
X142096420Y-72877266D01*
X142119708Y-72994344D01*
X142165390Y-73104629D01*
X142231709Y-73203882D01*
X142316118Y-73288291D01*
X142415371Y-73354610D01*
X142525656Y-73400292D01*
X142642734Y-73423580D01*
X142762106Y-73423580D01*
X142879184Y-73400292D01*
X142989469Y-73354610D01*
X143088722Y-73288291D01*
X143173131Y-73203882D01*
X143239450Y-73104629D01*
X143285132Y-72994344D01*
X143308420Y-72877266D01*
X143308420Y-72757894D01*
X143285132Y-72640816D01*
X143273451Y-72612616D01*
X143276302Y-72610711D01*
X143360711Y-72526302D01*
X143377418Y-72501298D01*
X143525154Y-72649034D01*
X143847565Y-72864462D01*
X144205810Y-73012852D01*
X144586120Y-73088500D01*
X144973880Y-73088500D01*
X145354190Y-73012852D01*
X145712435Y-72864462D01*
X146034846Y-72649034D01*
X146309034Y-72374846D01*
X146524462Y-72052435D01*
X146672852Y-71694190D01*
X146748500Y-71313880D01*
X146748500Y-70926120D01*
X146672852Y-70545810D01*
X146524462Y-70187565D01*
X146309034Y-69865154D01*
X146034846Y-69590966D01*
X145712435Y-69375538D01*
X145354190Y-69227148D01*
X144973880Y-69151500D01*
X144586120Y-69151500D01*
X144205810Y-69227148D01*
X143847565Y-69375538D01*
X143525154Y-69590966D01*
X143250966Y-69865154D01*
X143035538Y-70187565D01*
X142887148Y-70545810D01*
X142811500Y-70926120D01*
X142811500Y-71313880D01*
X142855284Y-71534000D01*
X142830314Y-71534000D01*
X142713236Y-71557288D01*
X142602951Y-71602970D01*
X142503698Y-71669289D01*
X142419289Y-71753698D01*
X142352970Y-71852951D01*
X142307288Y-71963236D01*
X142284000Y-72080314D01*
X142284000Y-72199686D01*
X142307288Y-72316764D01*
X142318969Y-72344964D01*
X142316118Y-72346869D01*
X142231709Y-72431278D01*
X142165390Y-72530531D01*
X142119708Y-72640816D01*
X142096420Y-72757894D01*
X140871308Y-72757894D01*
X140800448Y-72671552D01*
X140673912Y-72567706D01*
X140529548Y-72490542D01*
X140372904Y-72443025D01*
X140210000Y-72426980D01*
X140047097Y-72443025D01*
X139890453Y-72490542D01*
X139746089Y-72567706D01*
X139619553Y-72671552D01*
X139515707Y-72798088D01*
X139438543Y-72942452D01*
X139403544Y-73057829D01*
X139383494Y-73009426D01*
X139308967Y-72897888D01*
X139214112Y-72803033D01*
X139102574Y-72728506D01*
X138978640Y-72677171D01*
X138847073Y-72651000D01*
X138712927Y-72651000D01*
X138581360Y-72677171D01*
X138457426Y-72728506D01*
X138345888Y-72803033D01*
X138251033Y-72897888D01*
X138176506Y-73009426D01*
X138125171Y-73133360D01*
X138099000Y-73264927D01*
X137266000Y-73264927D01*
X137266000Y-73180314D01*
X137242712Y-73063236D01*
X137197030Y-72952951D01*
X137130711Y-72853698D01*
X137046302Y-72769289D01*
X136947049Y-72702970D01*
X136836764Y-72657288D01*
X136719686Y-72634000D01*
X136600314Y-72634000D01*
X136483236Y-72657288D01*
X136372951Y-72702970D01*
X136273698Y-72769289D01*
X136189289Y-72853698D01*
X136155000Y-72905015D01*
X136120711Y-72853698D01*
X136036302Y-72769289D01*
X135937049Y-72702970D01*
X135826764Y-72657288D01*
X135709686Y-72634000D01*
X135590314Y-72634000D01*
X135473236Y-72657288D01*
X135362951Y-72702970D01*
X135263698Y-72769289D01*
X135179289Y-72853698D01*
X135112970Y-72952951D01*
X135067288Y-73063236D01*
X135044000Y-73180314D01*
X133664169Y-73180314D01*
X133654829Y-73133360D01*
X133603494Y-73009426D01*
X133528967Y-72897888D01*
X133434112Y-72803033D01*
X133322574Y-72728506D01*
X133198640Y-72677171D01*
X133067073Y-72651000D01*
X132932927Y-72651000D01*
X132801360Y-72677171D01*
X132677426Y-72728506D01*
X132565888Y-72803033D01*
X132471033Y-72897888D01*
X132396506Y-73009426D01*
X132376457Y-73057829D01*
X132341458Y-72942452D01*
X132264294Y-72798088D01*
X132160448Y-72671552D01*
X132033912Y-72567706D01*
X131889548Y-72490542D01*
X131732904Y-72443025D01*
X131570000Y-72426980D01*
X131407097Y-72443025D01*
X131250453Y-72490542D01*
X131106089Y-72567706D01*
X130979553Y-72671552D01*
X130875707Y-72798088D01*
X130798543Y-72942452D01*
X130751026Y-73099096D01*
X130739001Y-73221185D01*
X130739000Y-74402814D01*
X126844057Y-74402814D01*
X126820898Y-74346903D01*
X126718988Y-74194384D01*
X126763236Y-74212712D01*
X126880314Y-74236000D01*
X126999686Y-74236000D01*
X127116764Y-74212712D01*
X127227049Y-74167030D01*
X127326302Y-74100711D01*
X127410711Y-74016302D01*
X127477030Y-73917049D01*
X127522712Y-73806764D01*
X127546000Y-73689686D01*
X127546000Y-73570314D01*
X127522712Y-73453236D01*
X127477030Y-73342951D01*
X127410711Y-73243698D01*
X127326302Y-73159289D01*
X127227049Y-73092970D01*
X127208998Y-73085493D01*
X127574190Y-73012852D01*
X127932435Y-72864462D01*
X128254846Y-72649034D01*
X128529034Y-72374846D01*
X128744462Y-72052435D01*
X128892852Y-71694190D01*
X128968500Y-71313880D01*
X128968500Y-70926120D01*
X128892852Y-70545810D01*
X128744462Y-70187565D01*
X128529034Y-69865154D01*
X128254846Y-69590966D01*
X127932435Y-69375538D01*
X127574190Y-69227148D01*
X127193880Y-69151500D01*
X126806120Y-69151500D01*
X126425810Y-69227148D01*
X126067565Y-69375538D01*
X125745154Y-69590966D01*
X125470966Y-69865154D01*
X125255538Y-70187565D01*
X125107148Y-70545810D01*
X125031500Y-70926120D01*
X125031500Y-71313880D01*
X125107148Y-71694190D01*
X125255538Y-72052435D01*
X125470966Y-72374846D01*
X125745154Y-72649034D01*
X126067565Y-72864462D01*
X126425810Y-73012852D01*
X126709933Y-73069367D01*
X126652951Y-73092970D01*
X126553698Y-73159289D01*
X126469289Y-73243698D01*
X126402970Y-73342951D01*
X126357288Y-73453236D01*
X126334000Y-73570314D01*
X126334000Y-73689686D01*
X126357288Y-73806764D01*
X126392720Y-73892305D01*
X126313097Y-73839102D01*
X126089069Y-73746307D01*
X125851243Y-73699000D01*
X125608757Y-73699000D01*
X125370931Y-73746307D01*
X125146903Y-73839102D01*
X124945283Y-73973820D01*
X124916000Y-74003103D01*
X124916000Y-71142305D01*
X124957835Y-70715640D01*
X125075268Y-70326681D01*
X125266013Y-69967942D01*
X125522807Y-69653082D01*
X125835862Y-69394101D01*
X126193266Y-69200853D01*
X126581394Y-69080707D01*
X127006756Y-69036000D01*
X130764099Y-69036000D01*
X130751026Y-69079096D01*
M02*
