G04 #@! TF.GenerationSoftware,KiCad,Pcbnew,(5.1.5)-2*
G04 #@! TF.CreationDate,2019-12-16T23:28:57+01:00*
G04 #@! TF.ProjectId,Penguino-Feather-4260-v1,50656e67-7569-46e6-9f2d-466561746865,1.1*
G04 #@! TF.SameCoordinates,Original*
G04 #@! TF.FileFunction,Legend,Top*
G04 #@! TF.FilePolarity,Positive*
%FSLAX46Y46*%
G04 Gerber Fmt 4.6, Leading zero omitted, Abs format (unit mm)*
G04 Created by KiCad (PCBNEW (5.1.5)-2) date 2019-12-16 23:28:57*
%MOMM*%
%LPD*%
G04 APERTURE LIST*
%ADD10C,0.100000*%
%ADD11C,0.187500*%
%ADD12C,0.200000*%
%ADD13C,0.150000*%
%ADD14C,0.175000*%
%ADD15C,0.250000*%
%ADD16C,0.120000*%
G04 APERTURE END LIST*
D10*
G36*
X133890000Y-89280000D02*
G01*
X133790000Y-89280000D01*
X133790000Y-83380000D01*
X133890000Y-83380000D01*
X133890000Y-89280000D01*
G37*
X133890000Y-89280000D02*
X133790000Y-89280000D01*
X133790000Y-83380000D01*
X133890000Y-83380000D01*
X133890000Y-89280000D01*
G36*
X134590000Y-87780000D02*
G01*
X133790000Y-87780000D01*
X133790000Y-84780000D01*
X134590000Y-84780000D01*
X134590000Y-87780000D01*
G37*
X134590000Y-87780000D02*
X133790000Y-87780000D01*
X133790000Y-84780000D01*
X134590000Y-84780000D01*
X134590000Y-87780000D01*
D11*
X135435003Y-111673809D02*
X135558813Y-111711904D01*
X135773098Y-111711904D01*
X135863575Y-111673809D01*
X135911194Y-111635714D01*
X135963575Y-111559523D01*
X135973098Y-111483333D01*
X135939765Y-111407142D01*
X135901670Y-111369047D01*
X135820718Y-111330952D01*
X135654051Y-111292857D01*
X135573098Y-111254761D01*
X135535003Y-111216666D01*
X135501670Y-111140476D01*
X135511194Y-111064285D01*
X135563575Y-110988095D01*
X135611194Y-110950000D01*
X135701670Y-110911904D01*
X135915956Y-110911904D01*
X136039765Y-110950000D01*
X136315956Y-111483333D02*
X136744527Y-111483333D01*
X136201670Y-111711904D02*
X136601670Y-110911904D01*
X136801670Y-111711904D01*
X137101670Y-111711904D02*
X137201670Y-110911904D01*
X137430241Y-111483333D01*
X137801670Y-110911904D01*
X137701670Y-111711904D01*
X138644527Y-111711904D02*
X138392146Y-111330952D01*
X138130241Y-111711904D02*
X138230241Y-110911904D01*
X138573098Y-110911904D01*
X138654051Y-110950000D01*
X138692146Y-110988095D01*
X138725479Y-111064285D01*
X138711194Y-111178571D01*
X138658813Y-111254761D01*
X138611194Y-111292857D01*
X138520718Y-111330952D01*
X138177860Y-111330952D01*
X139044527Y-110911904D02*
X139601670Y-110911904D01*
X139263575Y-111216666D01*
X139392146Y-111216666D01*
X139473098Y-111254761D01*
X139511194Y-111292857D01*
X139544527Y-111369047D01*
X139520718Y-111559523D01*
X139468337Y-111635714D01*
X139420718Y-111673809D01*
X139330241Y-111711904D01*
X139073098Y-111711904D01*
X138992146Y-111673809D01*
X138954051Y-111635714D01*
X140339765Y-111178571D02*
X140273098Y-111711904D01*
X140163575Y-110873809D02*
X139877860Y-111445238D01*
X140435003Y-111445238D01*
D12*
X140892857Y-116281160D02*
X140292857Y-116444255D01*
X140892857Y-116757351D01*
X140292857Y-117587113D02*
X140292857Y-117015684D01*
X140292857Y-117301398D02*
X141192857Y-117413898D01*
X141064285Y-117302589D01*
X140978571Y-117196636D01*
X140935714Y-117096041D01*
X140378571Y-118026398D02*
X140335714Y-118068660D01*
X140292857Y-118015684D01*
X140335714Y-117973422D01*
X140378571Y-118026398D01*
X140292857Y-118015684D01*
X140292857Y-119015684D02*
X140292857Y-118444255D01*
X140292857Y-118729970D02*
X141192857Y-118842470D01*
X141064285Y-118731160D01*
X140978571Y-118625208D01*
X140935714Y-118524613D01*
D10*
G36*
X126740000Y-114080000D02*
G01*
X124594000Y-114080000D01*
X124594000Y-111980000D01*
X126740000Y-111980000D01*
X126740000Y-114080000D01*
G37*
X126740000Y-114080000D02*
X124594000Y-114080000D01*
X124594000Y-111980000D01*
X126740000Y-111980000D01*
X126740000Y-114080000D01*
D13*
X146050000Y-94000000D02*
X146050000Y-93650000D01*
X145350000Y-94000000D02*
X146050000Y-94000000D01*
D14*
X145095156Y-88616666D02*
X145274322Y-89316666D01*
X145628489Y-88616666D01*
X144636822Y-86250000D02*
X144903489Y-86250000D01*
X144971941Y-86616666D02*
X144590989Y-86616666D01*
X144678489Y-85916666D01*
X145059441Y-85916666D01*
X145373132Y-86150000D02*
X145314799Y-86616666D01*
X145364799Y-86216666D02*
X145407061Y-86183333D01*
X145487418Y-86150000D01*
X145601703Y-86150000D01*
X145673727Y-86183333D01*
X145703489Y-86250000D01*
X145657656Y-86616666D01*
X143436822Y-84350000D02*
X143546941Y-84383333D01*
X143580870Y-84416666D01*
X143610632Y-84483333D01*
X143598132Y-84583333D01*
X143551703Y-84650000D01*
X143509441Y-84683333D01*
X143429084Y-84716666D01*
X143124322Y-84716666D01*
X143211822Y-84016666D01*
X143478489Y-84016666D01*
X143550513Y-84050000D01*
X143584441Y-84083333D01*
X143614203Y-84150000D01*
X143605870Y-84216666D01*
X143559441Y-84283333D01*
X143517180Y-84316666D01*
X143436822Y-84350000D01*
X143170156Y-84350000D01*
X144267180Y-84716666D02*
X144313013Y-84350000D01*
X144283251Y-84283333D01*
X144211227Y-84250000D01*
X144058846Y-84250000D01*
X143978489Y-84283333D01*
X144271346Y-84683333D02*
X144190989Y-84716666D01*
X144000513Y-84716666D01*
X143928489Y-84683333D01*
X143898727Y-84616666D01*
X143907061Y-84550000D01*
X143953489Y-84483333D01*
X144033846Y-84450000D01*
X144224322Y-84450000D01*
X144304680Y-84416666D01*
X144592180Y-84250000D02*
X144896941Y-84250000D01*
X144735632Y-84016666D02*
X144660632Y-84616666D01*
X144690394Y-84683333D01*
X144762418Y-84716666D01*
X144838608Y-84716666D01*
D11*
X143696119Y-94700714D02*
X143741060Y-94665000D01*
X143826476Y-94629285D01*
X144028857Y-94629285D01*
X144105345Y-94665000D01*
X144141357Y-94700714D01*
X144172905Y-94772142D01*
X144163976Y-94843571D01*
X144110107Y-94950714D01*
X143570822Y-95379285D01*
X144097012Y-95379285D01*
X144888084Y-94879285D02*
X144825584Y-95379285D01*
X144721417Y-94593571D02*
X144452072Y-95129285D01*
X144978262Y-95129285D01*
X144179289Y-103738095D02*
X144226908Y-103700000D01*
X144317384Y-103661904D01*
X144531670Y-103661904D01*
X144612622Y-103700000D01*
X144650718Y-103738095D01*
X144684051Y-103814285D01*
X144674527Y-103890476D01*
X144617384Y-104004761D01*
X144045956Y-104461904D01*
X144603098Y-104461904D01*
X145260241Y-103661904D02*
X145345956Y-103661904D01*
X145426908Y-103700000D01*
X145465003Y-103738095D01*
X145498337Y-103814285D01*
X145522146Y-103966666D01*
X145498337Y-104157142D01*
X145436432Y-104309523D01*
X145384051Y-104385714D01*
X145336432Y-104423809D01*
X145245956Y-104461904D01*
X145160241Y-104461904D01*
X145079289Y-104423809D01*
X145041194Y-104385714D01*
X145007860Y-104309523D01*
X144984051Y-104157142D01*
X145007860Y-103966666D01*
X145069765Y-103814285D01*
X145122146Y-103738095D01*
X145169765Y-103700000D01*
X145260241Y-103661904D01*
X144593098Y-107161904D02*
X144078813Y-107161904D01*
X144335956Y-107161904D02*
X144435956Y-106361904D01*
X144335956Y-106476190D01*
X144240718Y-106552380D01*
X144150241Y-106590476D01*
X145021670Y-107161904D02*
X145193098Y-107161904D01*
X145283575Y-107123809D01*
X145331194Y-107085714D01*
X145431194Y-106971428D01*
X145493098Y-106819047D01*
X145531194Y-106514285D01*
X145497860Y-106438095D01*
X145459765Y-106400000D01*
X145378813Y-106361904D01*
X145207384Y-106361904D01*
X145116908Y-106400000D01*
X145069289Y-106438095D01*
X145016908Y-106514285D01*
X144993098Y-106704761D01*
X145026432Y-106780952D01*
X145064527Y-106819047D01*
X145145479Y-106857142D01*
X145316908Y-106857142D01*
X145407384Y-106819047D01*
X145455003Y-106780952D01*
X145507384Y-106704761D01*
D10*
G36*
X147200000Y-85728000D02*
G01*
X145000000Y-85728000D01*
X145034000Y-84582000D01*
X147200000Y-84582000D01*
X147200000Y-85728000D01*
G37*
X147200000Y-85728000D02*
X145000000Y-85728000D01*
X145034000Y-84582000D01*
X147200000Y-84582000D01*
X147200000Y-85728000D01*
G36*
X147200000Y-90900000D02*
G01*
X145000000Y-90900000D01*
X145000000Y-89700000D01*
X147200000Y-89700000D01*
X147200000Y-90900000D01*
G37*
X147200000Y-90900000D02*
X145000000Y-90900000D01*
X145000000Y-89700000D01*
X147200000Y-89700000D01*
X147200000Y-90900000D01*
G36*
X127000000Y-78100000D02*
G01*
X124600000Y-78100000D01*
X124600000Y-76900000D01*
X127000000Y-76900000D01*
X127000000Y-78100000D01*
G37*
X127000000Y-78100000D02*
X124600000Y-78100000D01*
X124600000Y-76900000D01*
X127000000Y-76900000D01*
X127000000Y-78100000D01*
D11*
X126845479Y-81000000D02*
X126764527Y-80961904D01*
X126635956Y-80961904D01*
X126502622Y-81000000D01*
X126407384Y-81076190D01*
X126355003Y-81152380D01*
X126293098Y-81304761D01*
X126278813Y-81419047D01*
X126302622Y-81571428D01*
X126335956Y-81647619D01*
X126412146Y-81723809D01*
X126535956Y-81761904D01*
X126621670Y-81761904D01*
X126755003Y-81723809D01*
X126802622Y-81685714D01*
X126835956Y-81419047D01*
X126664527Y-81419047D01*
D10*
G36*
X127000000Y-83200000D02*
G01*
X124600000Y-83200000D01*
X124600000Y-82000000D01*
X127000000Y-82000000D01*
X127000000Y-83200000D01*
G37*
X127000000Y-83200000D02*
X124600000Y-83200000D01*
X124600000Y-82000000D01*
X127000000Y-82000000D01*
X127000000Y-83200000D01*
D12*
X126009047Y-76201428D02*
X126770952Y-76201428D01*
X126390000Y-76582380D02*
X126390000Y-75820476D01*
D11*
X126460956Y-91379761D02*
X126380003Y-91341666D01*
X126341908Y-91303571D01*
X126308575Y-91227380D01*
X126313337Y-91189285D01*
X126365718Y-91113095D01*
X126413337Y-91075000D01*
X126503813Y-91036904D01*
X126675241Y-91036904D01*
X126756194Y-91075000D01*
X126794289Y-91113095D01*
X126827622Y-91189285D01*
X126822860Y-91227380D01*
X126770479Y-91303571D01*
X126722860Y-91341666D01*
X126632384Y-91379761D01*
X126460956Y-91379761D01*
X126370479Y-91417857D01*
X126322860Y-91455952D01*
X126270479Y-91532142D01*
X126251432Y-91684523D01*
X126284765Y-91760714D01*
X126322860Y-91798809D01*
X126403813Y-91836904D01*
X126575241Y-91836904D01*
X126665718Y-91798809D01*
X126713337Y-91760714D01*
X126765718Y-91684523D01*
X126784765Y-91532142D01*
X126751432Y-91455952D01*
X126713337Y-91417857D01*
X126632384Y-91379761D01*
X126364527Y-88536904D02*
X126964527Y-88536904D01*
X126478813Y-89336904D01*
X126393098Y-94261904D02*
X126564527Y-94261904D01*
X126655003Y-94223809D01*
X126702622Y-94185714D01*
X126802622Y-94071428D01*
X126864527Y-93919047D01*
X126902622Y-93614285D01*
X126869289Y-93538095D01*
X126831194Y-93500000D01*
X126750241Y-93461904D01*
X126578813Y-93461904D01*
X126488337Y-93500000D01*
X126440718Y-93538095D01*
X126388337Y-93614285D01*
X126364527Y-93804761D01*
X126397860Y-93880952D01*
X126435956Y-93919047D01*
X126516908Y-93957142D01*
X126688337Y-93957142D01*
X126778813Y-93919047D01*
X126826432Y-93880952D01*
X126878813Y-93804761D01*
X126860956Y-85936904D02*
X126689527Y-85936904D01*
X126599051Y-85975000D01*
X126551432Y-86013095D01*
X126451432Y-86127380D01*
X126389527Y-86279761D01*
X126351432Y-86584523D01*
X126384765Y-86660714D01*
X126422860Y-86698809D01*
X126503813Y-86736904D01*
X126675241Y-86736904D01*
X126765718Y-86698809D01*
X126813337Y-86660714D01*
X126865718Y-86584523D01*
X126889527Y-86394047D01*
X126856194Y-86317857D01*
X126818098Y-86279761D01*
X126737146Y-86241666D01*
X126565718Y-86241666D01*
X126475241Y-86279761D01*
X126427622Y-86317857D01*
X126375241Y-86394047D01*
X126878813Y-83411904D02*
X126450241Y-83411904D01*
X126359765Y-83792857D01*
X126407384Y-83754761D01*
X126497860Y-83716666D01*
X126712146Y-83716666D01*
X126793098Y-83754761D01*
X126831194Y-83792857D01*
X126864527Y-83869047D01*
X126840718Y-84059523D01*
X126788337Y-84135714D01*
X126740718Y-84173809D01*
X126650241Y-84211904D01*
X126435956Y-84211904D01*
X126355003Y-84173809D01*
X126316908Y-84135714D01*
X126901190Y-97058575D02*
X126863095Y-97182384D01*
X126863095Y-97396670D01*
X126901190Y-97487146D01*
X126939285Y-97534765D01*
X127015476Y-97587146D01*
X127091666Y-97596670D01*
X127167857Y-97563337D01*
X127205952Y-97525241D01*
X127244047Y-97444289D01*
X127282142Y-97277622D01*
X127320238Y-97196670D01*
X127358333Y-97158575D01*
X127434523Y-97125241D01*
X127510714Y-97134765D01*
X127586904Y-97187146D01*
X127625000Y-97234765D01*
X127663095Y-97325241D01*
X127663095Y-97539527D01*
X127625000Y-97663337D01*
X126901190Y-97915718D02*
X126863095Y-98039527D01*
X126863095Y-98253813D01*
X126901190Y-98344289D01*
X126939285Y-98391908D01*
X127015476Y-98444289D01*
X127091666Y-98453813D01*
X127167857Y-98420479D01*
X127205952Y-98382384D01*
X127244047Y-98301432D01*
X127282142Y-98134765D01*
X127320238Y-98053813D01*
X127358333Y-98015718D01*
X127434523Y-97982384D01*
X127510714Y-97991908D01*
X127586904Y-98044289D01*
X127625000Y-98091908D01*
X127663095Y-98182384D01*
X127663095Y-98396670D01*
X127625000Y-98520479D01*
X126876190Y-99037146D02*
X126838095Y-99160956D01*
X126838095Y-99375241D01*
X126876190Y-99465718D01*
X126914285Y-99513337D01*
X126990476Y-99565718D01*
X127066666Y-99575241D01*
X127142857Y-99541908D01*
X127180952Y-99503813D01*
X127219047Y-99422860D01*
X127257142Y-99256194D01*
X127295238Y-99175241D01*
X127333333Y-99137146D01*
X127409523Y-99103813D01*
X127485714Y-99113337D01*
X127561904Y-99165718D01*
X127600000Y-99213337D01*
X127638095Y-99303813D01*
X127638095Y-99518098D01*
X127600000Y-99641908D01*
X126914285Y-100456194D02*
X126876190Y-100408575D01*
X126838095Y-100275241D01*
X126838095Y-100189527D01*
X126876190Y-100065718D01*
X126952380Y-99989527D01*
X127028571Y-99956194D01*
X127180952Y-99932384D01*
X127295238Y-99946670D01*
X127447619Y-100008575D01*
X127523809Y-100060956D01*
X127600000Y-100156194D01*
X127638095Y-100289527D01*
X127638095Y-100375241D01*
X127600000Y-100499051D01*
X127561904Y-100537146D01*
X126838095Y-100832384D02*
X127638095Y-100932384D01*
X126838095Y-101346670D02*
X127295238Y-101018098D01*
X127638095Y-101446670D02*
X127180952Y-100875241D01*
X126838095Y-102168098D02*
X127638095Y-102268098D01*
X127066666Y-102496670D01*
X127638095Y-102868098D01*
X126838095Y-102768098D01*
X127638095Y-103468098D02*
X127638095Y-103639527D01*
X127600000Y-103720479D01*
X127523809Y-103796670D01*
X127371428Y-103820479D01*
X127104761Y-103787146D01*
X126952380Y-103725241D01*
X126876190Y-103630003D01*
X126838095Y-103539527D01*
X126838095Y-103368098D01*
X126876190Y-103287146D01*
X126952380Y-103210956D01*
X127104761Y-103187146D01*
X127371428Y-103220479D01*
X127523809Y-103282384D01*
X127600000Y-103377622D01*
X127638095Y-103468098D01*
X126838095Y-104850241D02*
X127638095Y-104950241D01*
X127066666Y-105178813D01*
X127638095Y-105550241D01*
X126838095Y-105450241D01*
X126838095Y-105878813D02*
X127638095Y-105978813D01*
X144948809Y-112252139D02*
X144986904Y-112128329D01*
X144986904Y-111914043D01*
X144948809Y-111823567D01*
X144910714Y-111775948D01*
X144834523Y-111723567D01*
X144758333Y-111714043D01*
X144682142Y-111747377D01*
X144644047Y-111785472D01*
X144605952Y-111866424D01*
X144567857Y-112033091D01*
X144529761Y-112114043D01*
X144491666Y-112152139D01*
X144415476Y-112185472D01*
X144339285Y-112175948D01*
X144263095Y-112123567D01*
X144225000Y-112075948D01*
X144186904Y-111985472D01*
X144186904Y-111771186D01*
X144225000Y-111647377D01*
X144910714Y-110833091D02*
X144948809Y-110880710D01*
X144986904Y-111014043D01*
X144986904Y-111099758D01*
X144948809Y-111223567D01*
X144872619Y-111299758D01*
X144796428Y-111333091D01*
X144644047Y-111356901D01*
X144529761Y-111342615D01*
X144377380Y-111280710D01*
X144301190Y-111228329D01*
X144225000Y-111133091D01*
X144186904Y-110999758D01*
X144186904Y-110914043D01*
X144225000Y-110790234D01*
X144263095Y-110752139D01*
X144986904Y-110028329D02*
X144986904Y-110456901D01*
X144186904Y-110356901D01*
X144998809Y-114873567D02*
X145036904Y-114749758D01*
X145036904Y-114535472D01*
X144998809Y-114444996D01*
X144960714Y-114397377D01*
X144884523Y-114344996D01*
X144808333Y-114335472D01*
X144732142Y-114368805D01*
X144694047Y-114406901D01*
X144655952Y-114487853D01*
X144617857Y-114654520D01*
X144579761Y-114735472D01*
X144541666Y-114773567D01*
X144465476Y-114806901D01*
X144389285Y-114797377D01*
X144313095Y-114744996D01*
X144275000Y-114697377D01*
X144236904Y-114606901D01*
X144236904Y-114392615D01*
X144275000Y-114268805D01*
X145036904Y-113978329D02*
X144236904Y-113878329D01*
X144236904Y-113664043D01*
X144275000Y-113540234D01*
X144351190Y-113464043D01*
X144427380Y-113430710D01*
X144579761Y-113406901D01*
X144694047Y-113421186D01*
X144846428Y-113483091D01*
X144922619Y-113535472D01*
X144998809Y-113630710D01*
X145036904Y-113764043D01*
X145036904Y-113978329D01*
X144808333Y-113092615D02*
X144808333Y-112664043D01*
X145036904Y-113206901D02*
X144236904Y-112806901D01*
X145036904Y-112606901D01*
X127660000Y-112334051D02*
X127698095Y-112253098D01*
X127698095Y-112124527D01*
X127660000Y-111991194D01*
X127583809Y-111895956D01*
X127507619Y-111843575D01*
X127355238Y-111781670D01*
X127240952Y-111767384D01*
X127088571Y-111791194D01*
X127012380Y-111824527D01*
X126936190Y-111900718D01*
X126898095Y-112024527D01*
X126898095Y-112110241D01*
X126936190Y-112243575D01*
X126974285Y-112291194D01*
X127240952Y-112324527D01*
X127240952Y-112153098D01*
X126898095Y-112667384D02*
X127698095Y-112767384D01*
X126898095Y-113181670D01*
X127698095Y-113281670D01*
X126898095Y-113610241D02*
X127698095Y-113710241D01*
X127698095Y-113924527D01*
X127660000Y-114048337D01*
X127583809Y-114124527D01*
X127507619Y-114157860D01*
X127355238Y-114181670D01*
X127240952Y-114167384D01*
X127088571Y-114105479D01*
X127012380Y-114053098D01*
X126936190Y-113957860D01*
X126898095Y-113824527D01*
X126898095Y-113610241D01*
X127588095Y-109943098D02*
X127588095Y-110457384D01*
X126788095Y-110100241D02*
X127588095Y-110200241D01*
X126788095Y-110571670D02*
X127321428Y-111109765D01*
X127321428Y-110638337D02*
X126788095Y-111043098D01*
X126788095Y-107778813D02*
X127169047Y-107526432D01*
X126788095Y-107264527D02*
X127588095Y-107364527D01*
X127588095Y-107707384D01*
X127550000Y-107788337D01*
X127511904Y-107826432D01*
X127435714Y-107859765D01*
X127321428Y-107845479D01*
X127245238Y-107793098D01*
X127207142Y-107745479D01*
X127169047Y-107655003D01*
X127169047Y-107312146D01*
X126788095Y-108078813D02*
X127321428Y-108616908D01*
X127321428Y-108145479D02*
X126788095Y-108550241D01*
X126681194Y-78742857D02*
X126805003Y-78780952D01*
X126843098Y-78819047D01*
X126876432Y-78895238D01*
X126862146Y-79009523D01*
X126809765Y-79085714D01*
X126762146Y-79123809D01*
X126671670Y-79161904D01*
X126328813Y-79161904D01*
X126428813Y-78361904D01*
X126728813Y-78361904D01*
X126809765Y-78400000D01*
X126847860Y-78438095D01*
X126881194Y-78514285D01*
X126871670Y-78590476D01*
X126819289Y-78666666D01*
X126771670Y-78704761D01*
X126681194Y-78742857D01*
X126381194Y-78742857D01*
X125374795Y-73907142D02*
X125095033Y-73478571D01*
X124803366Y-73907142D02*
X124915866Y-73007142D01*
X125296819Y-73007142D01*
X125386700Y-73050000D01*
X125428962Y-73092857D01*
X125465866Y-73178571D01*
X125449795Y-73307142D01*
X125391462Y-73392857D01*
X125338485Y-73435714D01*
X125237890Y-73478571D01*
X124856938Y-73478571D01*
X125761104Y-73864285D02*
X125850985Y-73907142D01*
X126041462Y-73907142D01*
X126142057Y-73864285D01*
X126200390Y-73778571D01*
X126205747Y-73735714D01*
X126168843Y-73650000D01*
X126078962Y-73607142D01*
X125936104Y-73607142D01*
X125846223Y-73564285D01*
X125809319Y-73478571D01*
X125814676Y-73435714D01*
X125873009Y-73350000D01*
X125973604Y-73307142D01*
X126116462Y-73307142D01*
X126206343Y-73350000D01*
X126545033Y-73307142D02*
X126925985Y-73307142D01*
X126725390Y-73007142D02*
X126628962Y-73778571D01*
X126665866Y-73864285D01*
X126755747Y-73907142D01*
X126850985Y-73907142D01*
X141734988Y-69692857D02*
X141687667Y-69728571D01*
X141554631Y-69764285D01*
X141468917Y-69764285D01*
X141344810Y-69728571D01*
X141268024Y-69657142D01*
X141234095Y-69585714D01*
X141209095Y-69442857D01*
X141222488Y-69335714D01*
X141283203Y-69192857D01*
X141334988Y-69121428D01*
X141429631Y-69050000D01*
X141562667Y-69014285D01*
X141648381Y-69014285D01*
X141772488Y-69050000D01*
X141810881Y-69085714D01*
X142111774Y-69764285D02*
X142205524Y-69014285D01*
X142160881Y-69371428D02*
X142675167Y-69371428D01*
X142626060Y-69764285D02*
X142719810Y-69014285D01*
D15*
X138719047Y-82121428D02*
X139480952Y-82121428D01*
X139100000Y-82502380D02*
X139100000Y-81740476D01*
D11*
X141173381Y-93614285D02*
X141097488Y-94221428D01*
X141131417Y-94292857D01*
X141169810Y-94328571D01*
X141251060Y-94364285D01*
X141422488Y-94364285D01*
X141512667Y-94328571D01*
X141559988Y-94292857D01*
X141611774Y-94221428D01*
X141687667Y-93614285D01*
X141984095Y-94328571D02*
X142065345Y-94364285D01*
X142236774Y-94364285D01*
X142326953Y-94328571D01*
X142378738Y-94257142D01*
X142383203Y-94221428D01*
X142349274Y-94150000D01*
X142268024Y-94114285D01*
X142139453Y-94114285D01*
X142058203Y-94078571D01*
X142024274Y-94007142D01*
X142028738Y-93971428D01*
X142080524Y-93900000D01*
X142170703Y-93864285D01*
X142299274Y-93864285D01*
X142380524Y-93900000D01*
X142751060Y-94364285D02*
X142813560Y-93864285D01*
X142795703Y-94007142D02*
X142847488Y-93935714D01*
X142894810Y-93900000D01*
X142984988Y-93864285D01*
X143070703Y-93864285D01*
X143657310Y-93971428D02*
X143781417Y-94007142D01*
X143819810Y-94042857D01*
X143853738Y-94114285D01*
X143840345Y-94221428D01*
X143788560Y-94292857D01*
X143741238Y-94328571D01*
X143651060Y-94364285D01*
X143308203Y-94364285D01*
X143401953Y-93614285D01*
X143701953Y-93614285D01*
X143783203Y-93650000D01*
X143821595Y-93685714D01*
X143855524Y-93757142D01*
X143846595Y-93828571D01*
X143794810Y-93900000D01*
X143747488Y-93935714D01*
X143657310Y-93971428D01*
X143357310Y-93971428D01*
X144142131Y-93864285D02*
X144484988Y-93864285D01*
X144301953Y-93614285D02*
X144221595Y-94257142D01*
X144255524Y-94328571D01*
X144336774Y-94364285D01*
X144422488Y-94364285D01*
X144784988Y-93864285D02*
X144722488Y-94364285D01*
X144776060Y-93935714D02*
X144823381Y-93900000D01*
X144913560Y-93864285D01*
X145042131Y-93864285D01*
X145123381Y-93900000D01*
X145157310Y-93971428D01*
X145108203Y-94364285D01*
X131354631Y-82889285D02*
X131099274Y-82532142D01*
X130840345Y-82889285D02*
X130934095Y-82139285D01*
X131276953Y-82139285D01*
X131358203Y-82175000D01*
X131396595Y-82210714D01*
X131430524Y-82282142D01*
X131417131Y-82389285D01*
X131365345Y-82460714D01*
X131318024Y-82496428D01*
X131227845Y-82532142D01*
X130884988Y-82532142D01*
X132087667Y-82853571D02*
X131997488Y-82889285D01*
X131826060Y-82889285D01*
X131744810Y-82853571D01*
X131710881Y-82782142D01*
X131746595Y-82496428D01*
X131798381Y-82425000D01*
X131888560Y-82389285D01*
X132059988Y-82389285D01*
X132141238Y-82425000D01*
X132175167Y-82496428D01*
X132166238Y-82567857D01*
X131728738Y-82639285D01*
X132473381Y-82853571D02*
X132554631Y-82889285D01*
X132726060Y-82889285D01*
X132816238Y-82853571D01*
X132868024Y-82782142D01*
X132872488Y-82746428D01*
X132838560Y-82675000D01*
X132757310Y-82639285D01*
X132628738Y-82639285D01*
X132547488Y-82603571D01*
X132513560Y-82532142D01*
X132518024Y-82496428D01*
X132569810Y-82425000D01*
X132659988Y-82389285D01*
X132788560Y-82389285D01*
X132869810Y-82425000D01*
X133587667Y-82853571D02*
X133497488Y-82889285D01*
X133326060Y-82889285D01*
X133244810Y-82853571D01*
X133210881Y-82782142D01*
X133246595Y-82496428D01*
X133298381Y-82425000D01*
X133388560Y-82389285D01*
X133559988Y-82389285D01*
X133641238Y-82425000D01*
X133675167Y-82496428D01*
X133666238Y-82567857D01*
X133228738Y-82639285D01*
X133945703Y-82389285D02*
X134288560Y-82389285D01*
X134105524Y-82139285D02*
X134025167Y-82782142D01*
X134059095Y-82853571D01*
X134140345Y-82889285D01*
X134226060Y-82889285D01*
D13*
X127000000Y-119380000D02*
G75*
G02X124460000Y-116840000I0J2540000D01*
G01*
X147320000Y-116840000D02*
G75*
G02X144780000Y-119380000I-2540000J0D01*
G01*
X144780000Y-68580000D02*
G75*
G02X147320000Y-71120000I0J-2540000D01*
G01*
X124460000Y-71120000D02*
G75*
G02X127000000Y-68580000I2540000J0D01*
G01*
X124460000Y-116840000D02*
X124460000Y-71120000D01*
X144780000Y-119380000D02*
X127000000Y-119380000D01*
X147320000Y-71120000D02*
X147320000Y-116840000D01*
X127000000Y-68580000D02*
X144780000Y-68580000D01*
D16*
X134800000Y-84450000D02*
X136800000Y-84450000D01*
X136800000Y-84450000D02*
X136800000Y-80550000D01*
X134800000Y-84450000D02*
X134800000Y-80550000D01*
X143595000Y-111690000D02*
X143595000Y-114390000D01*
X140875000Y-112280000D02*
X140245000Y-112280000D01*
X140875000Y-114440000D02*
X140875000Y-113800000D01*
X140875000Y-111640000D02*
X140875000Y-112280000D01*
X143390000Y-83810000D02*
X139140000Y-83810000D01*
X139140000Y-83810000D02*
X139140000Y-82790000D01*
X139140000Y-82790000D02*
X140740000Y-82790000D01*
X140740000Y-82790000D02*
X140740000Y-81510000D01*
X140740000Y-81510000D02*
X137850000Y-81510000D01*
X143390000Y-75690000D02*
X139140000Y-75690000D01*
X139140000Y-75690000D02*
X139140000Y-76710000D01*
X139140000Y-76710000D02*
X140740000Y-76710000D01*
X140740000Y-76710000D02*
X140740000Y-77990000D01*
X146960000Y-82090000D02*
X146960000Y-77410000D01*
X145252779Y-74720000D02*
X144927221Y-74720000D01*
X145252779Y-73700000D02*
X144927221Y-73700000D01*
X132462779Y-77110000D02*
X132137221Y-77110000D01*
X132462779Y-76090000D02*
X132137221Y-76090000D01*
X132137221Y-80010000D02*
X132462779Y-80010000D01*
X132137221Y-78990000D02*
X132462779Y-78990000D01*
X139590000Y-89837221D02*
X139590000Y-90162779D01*
X140610000Y-89837221D02*
X140610000Y-90162779D01*
X143762000Y-108498421D02*
X143762000Y-108823979D01*
X144782000Y-108498421D02*
X144782000Y-108823979D01*
X139137221Y-93160000D02*
X139462779Y-93160000D01*
X139137221Y-92140000D02*
X139462779Y-92140000D01*
X136512779Y-93160000D02*
X136187221Y-93160000D01*
X136512779Y-92140000D02*
X136187221Y-92140000D01*
X141301800Y-70523200D02*
X141301800Y-72808200D01*
X141301800Y-72808200D02*
X142771800Y-72808200D01*
X142771800Y-72808200D02*
X142771800Y-70523200D01*
X130228000Y-74718000D02*
X130228000Y-75318000D01*
X130228000Y-75318000D02*
X127328000Y-75318000D01*
X130228000Y-73018000D02*
X127328000Y-73018000D01*
X130435000Y-93035000D02*
X130435000Y-90750000D01*
X128965000Y-93035000D02*
X130435000Y-93035000D01*
X128965000Y-90750000D02*
X128965000Y-93035000D01*
X132241422Y-80490000D02*
X132758578Y-80490000D01*
X132241422Y-81910000D02*
X132758578Y-81910000D01*
X132462779Y-78560000D02*
X132137221Y-78560000D01*
X132462779Y-77540000D02*
X132137221Y-77540000D01*
X132115000Y-89585000D02*
X128585000Y-89585000D01*
X132115000Y-83115000D02*
X128585000Y-83115000D01*
X133440000Y-89520000D02*
X132115000Y-89520000D01*
X132115000Y-89585000D02*
X132115000Y-89520000D01*
X128585000Y-89585000D02*
X128585000Y-89520000D01*
X132115000Y-83180000D02*
X132115000Y-83115000D01*
X128585000Y-83180000D02*
X128585000Y-83115000D01*
X135640000Y-114430000D02*
X135890000Y-114930000D01*
X136140000Y-114430000D02*
X135640000Y-114430000D01*
X135890000Y-114930000D02*
X136140000Y-114430000D01*
X143650000Y-84740000D02*
X141850000Y-84740000D01*
X141850000Y-87960000D02*
X144300000Y-87960000D01*
X136500000Y-77040000D02*
X134600000Y-77040000D01*
X135100000Y-79360000D02*
X136500000Y-79360000D01*
X133980000Y-90990000D02*
X133050000Y-90990000D01*
X130820000Y-90990000D02*
X131750000Y-90990000D01*
X130820000Y-90990000D02*
X130820000Y-93150000D01*
X133980000Y-90990000D02*
X133980000Y-92450000D01*
X138960000Y-90900000D02*
X138960000Y-88450000D01*
X135740000Y-89100000D02*
X135740000Y-90900000D01*
X131420000Y-67042000D02*
X140360000Y-67042000D01*
X131420000Y-72552000D02*
X131420000Y-70752000D01*
X131420000Y-67042000D02*
X131420000Y-68502000D01*
X140360000Y-67042000D02*
X140360000Y-68502000D01*
X140360000Y-72552000D02*
X140360000Y-70752000D01*
X128728000Y-77336000D02*
X128828000Y-77336000D01*
X130488000Y-81956000D02*
X130488000Y-77556000D01*
X127068000Y-77556000D02*
X127068000Y-81956000D01*
X128718000Y-82166000D02*
X128818000Y-82166000D01*
X138310000Y-82887221D02*
X138310000Y-83212779D01*
X137290000Y-82887221D02*
X137290000Y-83212779D01*
X138160000Y-87930000D02*
X138160000Y-87000000D01*
X138160000Y-84770000D02*
X138160000Y-85700000D01*
X138160000Y-84770000D02*
X136000000Y-84770000D01*
X138160000Y-87930000D02*
X136700000Y-87930000D01*
X128390000Y-108601000D02*
X129390000Y-109601000D01*
X143390000Y-109601000D02*
X129390000Y-109601000D01*
X128390000Y-94601000D02*
X128390000Y-108601000D01*
X143390000Y-94601000D02*
X128390000Y-94601000D01*
X143390000Y-109601000D02*
X143390000Y-94601000D01*
X143250000Y-93240000D02*
X143150000Y-93240000D01*
X141490000Y-88620000D02*
X141490000Y-93020000D01*
X144910000Y-93020000D02*
X144910000Y-88620000D01*
X143260000Y-88410000D02*
X143160000Y-88410000D01*
M02*
