G04 #@! TF.GenerationSoftware,KiCad,Pcbnew,(5.0.1-3-g963ef8bb5)*
G04 #@! TF.CreationDate,2019-02-27T23:12:09+01:00*
G04 #@! TF.ProjectId,TLM-v1,544C4D2D76312E6B696361645F706362,1.0*
G04 #@! TF.SameCoordinates,Original*
G04 #@! TF.FileFunction,Copper,L3,Inr,Signal*
G04 #@! TF.FilePolarity,Positive*
%FSLAX46Y46*%
G04 Gerber Fmt 4.6, Leading zero omitted, Abs format (unit mm)*
G04 Created by KiCad (PCBNEW (5.0.1-3-g963ef8bb5)) date 2019 February 27, Wednesday 23:12:09*
%MOMM*%
%LPD*%
G01*
G04 APERTURE LIST*
G04 #@! TA.AperFunction,Conductor*
%ADD10C,0.100000*%
G04 #@! TD*
G04 #@! TA.AperFunction,ViaPad*
%ADD11C,0.900000*%
G04 #@! TD*
G04 #@! TA.AperFunction,ViaPad*
%ADD12C,0.355600*%
G04 #@! TD*
G04 #@! TA.AperFunction,ViaPad*
%ADD13C,0.482600*%
G04 #@! TD*
G04 #@! TA.AperFunction,Conductor*
%ADD14C,0.381000*%
G04 #@! TD*
G04 #@! TA.AperFunction,Conductor*
%ADD15C,0.508000*%
G04 #@! TD*
G04 #@! TA.AperFunction,Conductor*
%ADD16C,0.635000*%
G04 #@! TD*
G04 #@! TA.AperFunction,Conductor*
%ADD17C,0.101600*%
G04 #@! TD*
G04 #@! TA.AperFunction,Conductor*
%ADD18C,0.254000*%
G04 #@! TD*
G04 #@! TA.AperFunction,Conductor*
%ADD19C,0.127000*%
G04 #@! TD*
G04 #@! TA.AperFunction,Conductor*
%ADD20C,0.200000*%
G04 #@! TD*
G04 APERTURE END LIST*
D10*
G04 #@! TO.N,GND*
G04 #@! TO.C,U1*
G36*
X129873643Y-75750867D02*
X129891116Y-75753459D01*
X129908251Y-75757751D01*
X129924883Y-75763702D01*
X129940851Y-75771254D01*
X129956003Y-75780335D01*
X129970191Y-75790858D01*
X129983279Y-75802721D01*
X129995142Y-75815809D01*
X130005665Y-75829997D01*
X130014746Y-75845149D01*
X130022298Y-75861117D01*
X130028249Y-75877749D01*
X130032541Y-75894884D01*
X130035133Y-75912357D01*
X130036000Y-75930000D01*
X130036000Y-76470000D01*
X130035133Y-76487643D01*
X130032541Y-76505116D01*
X130028249Y-76522251D01*
X130022298Y-76538883D01*
X130014746Y-76554851D01*
X130005665Y-76570003D01*
X129995142Y-76584191D01*
X129983279Y-76597279D01*
X129970191Y-76609142D01*
X129956003Y-76619665D01*
X129940851Y-76628746D01*
X129924883Y-76636298D01*
X129908251Y-76642249D01*
X129891116Y-76646541D01*
X129873643Y-76649133D01*
X129856000Y-76650000D01*
X129016000Y-76650000D01*
X128998357Y-76649133D01*
X128980884Y-76646541D01*
X128963749Y-76642249D01*
X128947117Y-76636298D01*
X128931149Y-76628746D01*
X128915997Y-76619665D01*
X128901809Y-76609142D01*
X128888721Y-76597279D01*
X128876858Y-76584191D01*
X128866335Y-76570003D01*
X128857254Y-76554851D01*
X128849702Y-76538883D01*
X128843751Y-76522251D01*
X128839459Y-76505116D01*
X128836867Y-76487643D01*
X128836000Y-76470000D01*
X128836000Y-75930000D01*
X128836867Y-75912357D01*
X128839459Y-75894884D01*
X128843751Y-75877749D01*
X128849702Y-75861117D01*
X128857254Y-75845149D01*
X128866335Y-75829997D01*
X128876858Y-75815809D01*
X128888721Y-75802721D01*
X128901809Y-75790858D01*
X128915997Y-75780335D01*
X128931149Y-75771254D01*
X128947117Y-75763702D01*
X128963749Y-75757751D01*
X128980884Y-75753459D01*
X128998357Y-75750867D01*
X129016000Y-75750000D01*
X129856000Y-75750000D01*
X129873643Y-75750867D01*
X129873643Y-75750867D01*
G37*
D11*
X129436000Y-76200000D03*
D10*
G04 #@! TO.N,PA06_ADC6*
G36*
X129873643Y-77020867D02*
X129891116Y-77023459D01*
X129908251Y-77027751D01*
X129924883Y-77033702D01*
X129940851Y-77041254D01*
X129956003Y-77050335D01*
X129970191Y-77060858D01*
X129983279Y-77072721D01*
X129995142Y-77085809D01*
X130005665Y-77099997D01*
X130014746Y-77115149D01*
X130022298Y-77131117D01*
X130028249Y-77147749D01*
X130032541Y-77164884D01*
X130035133Y-77182357D01*
X130036000Y-77200000D01*
X130036000Y-77740000D01*
X130035133Y-77757643D01*
X130032541Y-77775116D01*
X130028249Y-77792251D01*
X130022298Y-77808883D01*
X130014746Y-77824851D01*
X130005665Y-77840003D01*
X129995142Y-77854191D01*
X129983279Y-77867279D01*
X129970191Y-77879142D01*
X129956003Y-77889665D01*
X129940851Y-77898746D01*
X129924883Y-77906298D01*
X129908251Y-77912249D01*
X129891116Y-77916541D01*
X129873643Y-77919133D01*
X129856000Y-77920000D01*
X129016000Y-77920000D01*
X128998357Y-77919133D01*
X128980884Y-77916541D01*
X128963749Y-77912249D01*
X128947117Y-77906298D01*
X128931149Y-77898746D01*
X128915997Y-77889665D01*
X128901809Y-77879142D01*
X128888721Y-77867279D01*
X128876858Y-77854191D01*
X128866335Y-77840003D01*
X128857254Y-77824851D01*
X128849702Y-77808883D01*
X128843751Y-77792251D01*
X128839459Y-77775116D01*
X128836867Y-77757643D01*
X128836000Y-77740000D01*
X128836000Y-77200000D01*
X128836867Y-77182357D01*
X128839459Y-77164884D01*
X128843751Y-77147749D01*
X128849702Y-77131117D01*
X128857254Y-77115149D01*
X128866335Y-77099997D01*
X128876858Y-77085809D01*
X128888721Y-77072721D01*
X128901809Y-77060858D01*
X128915997Y-77050335D01*
X128931149Y-77041254D01*
X128947117Y-77033702D01*
X128963749Y-77027751D01*
X128980884Y-77023459D01*
X128998357Y-77020867D01*
X129016000Y-77020000D01*
X129856000Y-77020000D01*
X129873643Y-77020867D01*
X129873643Y-77020867D01*
G37*
D11*
X129436000Y-77470000D03*
D10*
G04 #@! TO.N,PA27_GPIO*
G36*
X129873643Y-78290867D02*
X129891116Y-78293459D01*
X129908251Y-78297751D01*
X129924883Y-78303702D01*
X129940851Y-78311254D01*
X129956003Y-78320335D01*
X129970191Y-78330858D01*
X129983279Y-78342721D01*
X129995142Y-78355809D01*
X130005665Y-78369997D01*
X130014746Y-78385149D01*
X130022298Y-78401117D01*
X130028249Y-78417749D01*
X130032541Y-78434884D01*
X130035133Y-78452357D01*
X130036000Y-78470000D01*
X130036000Y-79010000D01*
X130035133Y-79027643D01*
X130032541Y-79045116D01*
X130028249Y-79062251D01*
X130022298Y-79078883D01*
X130014746Y-79094851D01*
X130005665Y-79110003D01*
X129995142Y-79124191D01*
X129983279Y-79137279D01*
X129970191Y-79149142D01*
X129956003Y-79159665D01*
X129940851Y-79168746D01*
X129924883Y-79176298D01*
X129908251Y-79182249D01*
X129891116Y-79186541D01*
X129873643Y-79189133D01*
X129856000Y-79190000D01*
X129016000Y-79190000D01*
X128998357Y-79189133D01*
X128980884Y-79186541D01*
X128963749Y-79182249D01*
X128947117Y-79176298D01*
X128931149Y-79168746D01*
X128915997Y-79159665D01*
X128901809Y-79149142D01*
X128888721Y-79137279D01*
X128876858Y-79124191D01*
X128866335Y-79110003D01*
X128857254Y-79094851D01*
X128849702Y-79078883D01*
X128843751Y-79062251D01*
X128839459Y-79045116D01*
X128836867Y-79027643D01*
X128836000Y-79010000D01*
X128836000Y-78470000D01*
X128836867Y-78452357D01*
X128839459Y-78434884D01*
X128843751Y-78417749D01*
X128849702Y-78401117D01*
X128857254Y-78385149D01*
X128866335Y-78369997D01*
X128876858Y-78355809D01*
X128888721Y-78342721D01*
X128901809Y-78330858D01*
X128915997Y-78320335D01*
X128931149Y-78311254D01*
X128947117Y-78303702D01*
X128963749Y-78297751D01*
X128980884Y-78293459D01*
X128998357Y-78290867D01*
X129016000Y-78290000D01*
X129856000Y-78290000D01*
X129873643Y-78290867D01*
X129873643Y-78290867D01*
G37*
D11*
X129436000Y-78740000D03*
D10*
G04 #@! TO.N,PA07_ADC7*
G36*
X129873643Y-79560867D02*
X129891116Y-79563459D01*
X129908251Y-79567751D01*
X129924883Y-79573702D01*
X129940851Y-79581254D01*
X129956003Y-79590335D01*
X129970191Y-79600858D01*
X129983279Y-79612721D01*
X129995142Y-79625809D01*
X130005665Y-79639997D01*
X130014746Y-79655149D01*
X130022298Y-79671117D01*
X130028249Y-79687749D01*
X130032541Y-79704884D01*
X130035133Y-79722357D01*
X130036000Y-79740000D01*
X130036000Y-80280000D01*
X130035133Y-80297643D01*
X130032541Y-80315116D01*
X130028249Y-80332251D01*
X130022298Y-80348883D01*
X130014746Y-80364851D01*
X130005665Y-80380003D01*
X129995142Y-80394191D01*
X129983279Y-80407279D01*
X129970191Y-80419142D01*
X129956003Y-80429665D01*
X129940851Y-80438746D01*
X129924883Y-80446298D01*
X129908251Y-80452249D01*
X129891116Y-80456541D01*
X129873643Y-80459133D01*
X129856000Y-80460000D01*
X129016000Y-80460000D01*
X128998357Y-80459133D01*
X128980884Y-80456541D01*
X128963749Y-80452249D01*
X128947117Y-80446298D01*
X128931149Y-80438746D01*
X128915997Y-80429665D01*
X128901809Y-80419142D01*
X128888721Y-80407279D01*
X128876858Y-80394191D01*
X128866335Y-80380003D01*
X128857254Y-80364851D01*
X128849702Y-80348883D01*
X128843751Y-80332251D01*
X128839459Y-80315116D01*
X128836867Y-80297643D01*
X128836000Y-80280000D01*
X128836000Y-79740000D01*
X128836867Y-79722357D01*
X128839459Y-79704884D01*
X128843751Y-79687749D01*
X128849702Y-79671117D01*
X128857254Y-79655149D01*
X128866335Y-79639997D01*
X128876858Y-79625809D01*
X128888721Y-79612721D01*
X128901809Y-79600858D01*
X128915997Y-79590335D01*
X128931149Y-79581254D01*
X128947117Y-79573702D01*
X128963749Y-79567751D01*
X128980884Y-79563459D01*
X128998357Y-79560867D01*
X129016000Y-79560000D01*
X129856000Y-79560000D01*
X129873643Y-79560867D01*
X129873643Y-79560867D01*
G37*
D11*
X129436000Y-80010000D03*
D10*
G04 #@! TO.N,PB22_S5_SPI_MOSI*
G36*
X129873643Y-80830867D02*
X129891116Y-80833459D01*
X129908251Y-80837751D01*
X129924883Y-80843702D01*
X129940851Y-80851254D01*
X129956003Y-80860335D01*
X129970191Y-80870858D01*
X129983279Y-80882721D01*
X129995142Y-80895809D01*
X130005665Y-80909997D01*
X130014746Y-80925149D01*
X130022298Y-80941117D01*
X130028249Y-80957749D01*
X130032541Y-80974884D01*
X130035133Y-80992357D01*
X130036000Y-81010000D01*
X130036000Y-81550000D01*
X130035133Y-81567643D01*
X130032541Y-81585116D01*
X130028249Y-81602251D01*
X130022298Y-81618883D01*
X130014746Y-81634851D01*
X130005665Y-81650003D01*
X129995142Y-81664191D01*
X129983279Y-81677279D01*
X129970191Y-81689142D01*
X129956003Y-81699665D01*
X129940851Y-81708746D01*
X129924883Y-81716298D01*
X129908251Y-81722249D01*
X129891116Y-81726541D01*
X129873643Y-81729133D01*
X129856000Y-81730000D01*
X129016000Y-81730000D01*
X128998357Y-81729133D01*
X128980884Y-81726541D01*
X128963749Y-81722249D01*
X128947117Y-81716298D01*
X128931149Y-81708746D01*
X128915997Y-81699665D01*
X128901809Y-81689142D01*
X128888721Y-81677279D01*
X128876858Y-81664191D01*
X128866335Y-81650003D01*
X128857254Y-81634851D01*
X128849702Y-81618883D01*
X128843751Y-81602251D01*
X128839459Y-81585116D01*
X128836867Y-81567643D01*
X128836000Y-81550000D01*
X128836000Y-81010000D01*
X128836867Y-80992357D01*
X128839459Y-80974884D01*
X128843751Y-80957749D01*
X128849702Y-80941117D01*
X128857254Y-80925149D01*
X128866335Y-80909997D01*
X128876858Y-80895809D01*
X128888721Y-80882721D01*
X128901809Y-80870858D01*
X128915997Y-80860335D01*
X128931149Y-80851254D01*
X128947117Y-80843702D01*
X128963749Y-80837751D01*
X128980884Y-80833459D01*
X128998357Y-80830867D01*
X129016000Y-80830000D01*
X129856000Y-80830000D01*
X129873643Y-80830867D01*
X129873643Y-80830867D01*
G37*
D11*
X129436000Y-81280000D03*
D10*
G04 #@! TO.N,PA08_GPIO*
G36*
X129873643Y-82100867D02*
X129891116Y-82103459D01*
X129908251Y-82107751D01*
X129924883Y-82113702D01*
X129940851Y-82121254D01*
X129956003Y-82130335D01*
X129970191Y-82140858D01*
X129983279Y-82152721D01*
X129995142Y-82165809D01*
X130005665Y-82179997D01*
X130014746Y-82195149D01*
X130022298Y-82211117D01*
X130028249Y-82227749D01*
X130032541Y-82244884D01*
X130035133Y-82262357D01*
X130036000Y-82280000D01*
X130036000Y-82820000D01*
X130035133Y-82837643D01*
X130032541Y-82855116D01*
X130028249Y-82872251D01*
X130022298Y-82888883D01*
X130014746Y-82904851D01*
X130005665Y-82920003D01*
X129995142Y-82934191D01*
X129983279Y-82947279D01*
X129970191Y-82959142D01*
X129956003Y-82969665D01*
X129940851Y-82978746D01*
X129924883Y-82986298D01*
X129908251Y-82992249D01*
X129891116Y-82996541D01*
X129873643Y-82999133D01*
X129856000Y-83000000D01*
X129016000Y-83000000D01*
X128998357Y-82999133D01*
X128980884Y-82996541D01*
X128963749Y-82992249D01*
X128947117Y-82986298D01*
X128931149Y-82978746D01*
X128915997Y-82969665D01*
X128901809Y-82959142D01*
X128888721Y-82947279D01*
X128876858Y-82934191D01*
X128866335Y-82920003D01*
X128857254Y-82904851D01*
X128849702Y-82888883D01*
X128843751Y-82872251D01*
X128839459Y-82855116D01*
X128836867Y-82837643D01*
X128836000Y-82820000D01*
X128836000Y-82280000D01*
X128836867Y-82262357D01*
X128839459Y-82244884D01*
X128843751Y-82227749D01*
X128849702Y-82211117D01*
X128857254Y-82195149D01*
X128866335Y-82179997D01*
X128876858Y-82165809D01*
X128888721Y-82152721D01*
X128901809Y-82140858D01*
X128915997Y-82130335D01*
X128931149Y-82121254D01*
X128947117Y-82113702D01*
X128963749Y-82107751D01*
X128980884Y-82103459D01*
X128998357Y-82100867D01*
X129016000Y-82100000D01*
X129856000Y-82100000D01*
X129873643Y-82100867D01*
X129873643Y-82100867D01*
G37*
D11*
X129436000Y-82550000D03*
D10*
G04 #@! TO.N,PB23_S5_SPI_SCK*
G36*
X129873643Y-83370867D02*
X129891116Y-83373459D01*
X129908251Y-83377751D01*
X129924883Y-83383702D01*
X129940851Y-83391254D01*
X129956003Y-83400335D01*
X129970191Y-83410858D01*
X129983279Y-83422721D01*
X129995142Y-83435809D01*
X130005665Y-83449997D01*
X130014746Y-83465149D01*
X130022298Y-83481117D01*
X130028249Y-83497749D01*
X130032541Y-83514884D01*
X130035133Y-83532357D01*
X130036000Y-83550000D01*
X130036000Y-84090000D01*
X130035133Y-84107643D01*
X130032541Y-84125116D01*
X130028249Y-84142251D01*
X130022298Y-84158883D01*
X130014746Y-84174851D01*
X130005665Y-84190003D01*
X129995142Y-84204191D01*
X129983279Y-84217279D01*
X129970191Y-84229142D01*
X129956003Y-84239665D01*
X129940851Y-84248746D01*
X129924883Y-84256298D01*
X129908251Y-84262249D01*
X129891116Y-84266541D01*
X129873643Y-84269133D01*
X129856000Y-84270000D01*
X129016000Y-84270000D01*
X128998357Y-84269133D01*
X128980884Y-84266541D01*
X128963749Y-84262249D01*
X128947117Y-84256298D01*
X128931149Y-84248746D01*
X128915997Y-84239665D01*
X128901809Y-84229142D01*
X128888721Y-84217279D01*
X128876858Y-84204191D01*
X128866335Y-84190003D01*
X128857254Y-84174851D01*
X128849702Y-84158883D01*
X128843751Y-84142251D01*
X128839459Y-84125116D01*
X128836867Y-84107643D01*
X128836000Y-84090000D01*
X128836000Y-83550000D01*
X128836867Y-83532357D01*
X128839459Y-83514884D01*
X128843751Y-83497749D01*
X128849702Y-83481117D01*
X128857254Y-83465149D01*
X128866335Y-83449997D01*
X128876858Y-83435809D01*
X128888721Y-83422721D01*
X128901809Y-83410858D01*
X128915997Y-83400335D01*
X128931149Y-83391254D01*
X128947117Y-83383702D01*
X128963749Y-83377751D01*
X128980884Y-83373459D01*
X128998357Y-83370867D01*
X129016000Y-83370000D01*
X129856000Y-83370000D01*
X129873643Y-83370867D01*
X129873643Y-83370867D01*
G37*
D11*
X129436000Y-83820000D03*
D10*
G04 #@! TO.N,PA17_S1_I2C_SCL*
G36*
X129873643Y-84640867D02*
X129891116Y-84643459D01*
X129908251Y-84647751D01*
X129924883Y-84653702D01*
X129940851Y-84661254D01*
X129956003Y-84670335D01*
X129970191Y-84680858D01*
X129983279Y-84692721D01*
X129995142Y-84705809D01*
X130005665Y-84719997D01*
X130014746Y-84735149D01*
X130022298Y-84751117D01*
X130028249Y-84767749D01*
X130032541Y-84784884D01*
X130035133Y-84802357D01*
X130036000Y-84820000D01*
X130036000Y-85360000D01*
X130035133Y-85377643D01*
X130032541Y-85395116D01*
X130028249Y-85412251D01*
X130022298Y-85428883D01*
X130014746Y-85444851D01*
X130005665Y-85460003D01*
X129995142Y-85474191D01*
X129983279Y-85487279D01*
X129970191Y-85499142D01*
X129956003Y-85509665D01*
X129940851Y-85518746D01*
X129924883Y-85526298D01*
X129908251Y-85532249D01*
X129891116Y-85536541D01*
X129873643Y-85539133D01*
X129856000Y-85540000D01*
X129016000Y-85540000D01*
X128998357Y-85539133D01*
X128980884Y-85536541D01*
X128963749Y-85532249D01*
X128947117Y-85526298D01*
X128931149Y-85518746D01*
X128915997Y-85509665D01*
X128901809Y-85499142D01*
X128888721Y-85487279D01*
X128876858Y-85474191D01*
X128866335Y-85460003D01*
X128857254Y-85444851D01*
X128849702Y-85428883D01*
X128843751Y-85412251D01*
X128839459Y-85395116D01*
X128836867Y-85377643D01*
X128836000Y-85360000D01*
X128836000Y-84820000D01*
X128836867Y-84802357D01*
X128839459Y-84784884D01*
X128843751Y-84767749D01*
X128849702Y-84751117D01*
X128857254Y-84735149D01*
X128866335Y-84719997D01*
X128876858Y-84705809D01*
X128888721Y-84692721D01*
X128901809Y-84680858D01*
X128915997Y-84670335D01*
X128931149Y-84661254D01*
X128947117Y-84653702D01*
X128963749Y-84647751D01*
X128980884Y-84643459D01*
X128998357Y-84640867D01*
X129016000Y-84640000D01*
X129856000Y-84640000D01*
X129873643Y-84640867D01*
X129873643Y-84640867D01*
G37*
D11*
X129436000Y-85090000D03*
D10*
G04 #@! TO.N,PA16_S1_I2C_SDA*
G36*
X129873643Y-85910867D02*
X129891116Y-85913459D01*
X129908251Y-85917751D01*
X129924883Y-85923702D01*
X129940851Y-85931254D01*
X129956003Y-85940335D01*
X129970191Y-85950858D01*
X129983279Y-85962721D01*
X129995142Y-85975809D01*
X130005665Y-85989997D01*
X130014746Y-86005149D01*
X130022298Y-86021117D01*
X130028249Y-86037749D01*
X130032541Y-86054884D01*
X130035133Y-86072357D01*
X130036000Y-86090000D01*
X130036000Y-86630000D01*
X130035133Y-86647643D01*
X130032541Y-86665116D01*
X130028249Y-86682251D01*
X130022298Y-86698883D01*
X130014746Y-86714851D01*
X130005665Y-86730003D01*
X129995142Y-86744191D01*
X129983279Y-86757279D01*
X129970191Y-86769142D01*
X129956003Y-86779665D01*
X129940851Y-86788746D01*
X129924883Y-86796298D01*
X129908251Y-86802249D01*
X129891116Y-86806541D01*
X129873643Y-86809133D01*
X129856000Y-86810000D01*
X129016000Y-86810000D01*
X128998357Y-86809133D01*
X128980884Y-86806541D01*
X128963749Y-86802249D01*
X128947117Y-86796298D01*
X128931149Y-86788746D01*
X128915997Y-86779665D01*
X128901809Y-86769142D01*
X128888721Y-86757279D01*
X128876858Y-86744191D01*
X128866335Y-86730003D01*
X128857254Y-86714851D01*
X128849702Y-86698883D01*
X128843751Y-86682251D01*
X128839459Y-86665116D01*
X128836867Y-86647643D01*
X128836000Y-86630000D01*
X128836000Y-86090000D01*
X128836867Y-86072357D01*
X128839459Y-86054884D01*
X128843751Y-86037749D01*
X128849702Y-86021117D01*
X128857254Y-86005149D01*
X128866335Y-85989997D01*
X128876858Y-85975809D01*
X128888721Y-85962721D01*
X128901809Y-85950858D01*
X128915997Y-85940335D01*
X128931149Y-85931254D01*
X128947117Y-85923702D01*
X128963749Y-85917751D01*
X128980884Y-85913459D01*
X128998357Y-85910867D01*
X129016000Y-85910000D01*
X129856000Y-85910000D01*
X129873643Y-85910867D01*
X129873643Y-85910867D01*
G37*
D11*
X129436000Y-86360000D03*
D10*
G04 #@! TO.N,PA18_PWM_T0_W2*
G36*
X129873643Y-87180867D02*
X129891116Y-87183459D01*
X129908251Y-87187751D01*
X129924883Y-87193702D01*
X129940851Y-87201254D01*
X129956003Y-87210335D01*
X129970191Y-87220858D01*
X129983279Y-87232721D01*
X129995142Y-87245809D01*
X130005665Y-87259997D01*
X130014746Y-87275149D01*
X130022298Y-87291117D01*
X130028249Y-87307749D01*
X130032541Y-87324884D01*
X130035133Y-87342357D01*
X130036000Y-87360000D01*
X130036000Y-87900000D01*
X130035133Y-87917643D01*
X130032541Y-87935116D01*
X130028249Y-87952251D01*
X130022298Y-87968883D01*
X130014746Y-87984851D01*
X130005665Y-88000003D01*
X129995142Y-88014191D01*
X129983279Y-88027279D01*
X129970191Y-88039142D01*
X129956003Y-88049665D01*
X129940851Y-88058746D01*
X129924883Y-88066298D01*
X129908251Y-88072249D01*
X129891116Y-88076541D01*
X129873643Y-88079133D01*
X129856000Y-88080000D01*
X129016000Y-88080000D01*
X128998357Y-88079133D01*
X128980884Y-88076541D01*
X128963749Y-88072249D01*
X128947117Y-88066298D01*
X128931149Y-88058746D01*
X128915997Y-88049665D01*
X128901809Y-88039142D01*
X128888721Y-88027279D01*
X128876858Y-88014191D01*
X128866335Y-88000003D01*
X128857254Y-87984851D01*
X128849702Y-87968883D01*
X128843751Y-87952251D01*
X128839459Y-87935116D01*
X128836867Y-87917643D01*
X128836000Y-87900000D01*
X128836000Y-87360000D01*
X128836867Y-87342357D01*
X128839459Y-87324884D01*
X128843751Y-87307749D01*
X128849702Y-87291117D01*
X128857254Y-87275149D01*
X128866335Y-87259997D01*
X128876858Y-87245809D01*
X128888721Y-87232721D01*
X128901809Y-87220858D01*
X128915997Y-87210335D01*
X128931149Y-87201254D01*
X128947117Y-87193702D01*
X128963749Y-87187751D01*
X128980884Y-87183459D01*
X128998357Y-87180867D01*
X129016000Y-87180000D01*
X129856000Y-87180000D01*
X129873643Y-87180867D01*
X129873643Y-87180867D01*
G37*
D11*
X129436000Y-87630000D03*
D10*
G04 #@! TO.N,GND*
G36*
X143543643Y-75750867D02*
X143561116Y-75753459D01*
X143578251Y-75757751D01*
X143594883Y-75763702D01*
X143610851Y-75771254D01*
X143626003Y-75780335D01*
X143640191Y-75790858D01*
X143653279Y-75802721D01*
X143665142Y-75815809D01*
X143675665Y-75829997D01*
X143684746Y-75845149D01*
X143692298Y-75861117D01*
X143698249Y-75877749D01*
X143702541Y-75894884D01*
X143705133Y-75912357D01*
X143706000Y-75930000D01*
X143706000Y-76470000D01*
X143705133Y-76487643D01*
X143702541Y-76505116D01*
X143698249Y-76522251D01*
X143692298Y-76538883D01*
X143684746Y-76554851D01*
X143675665Y-76570003D01*
X143665142Y-76584191D01*
X143653279Y-76597279D01*
X143640191Y-76609142D01*
X143626003Y-76619665D01*
X143610851Y-76628746D01*
X143594883Y-76636298D01*
X143578251Y-76642249D01*
X143561116Y-76646541D01*
X143543643Y-76649133D01*
X143526000Y-76650000D01*
X142686000Y-76650000D01*
X142668357Y-76649133D01*
X142650884Y-76646541D01*
X142633749Y-76642249D01*
X142617117Y-76636298D01*
X142601149Y-76628746D01*
X142585997Y-76619665D01*
X142571809Y-76609142D01*
X142558721Y-76597279D01*
X142546858Y-76584191D01*
X142536335Y-76570003D01*
X142527254Y-76554851D01*
X142519702Y-76538883D01*
X142513751Y-76522251D01*
X142509459Y-76505116D01*
X142506867Y-76487643D01*
X142506000Y-76470000D01*
X142506000Y-75930000D01*
X142506867Y-75912357D01*
X142509459Y-75894884D01*
X142513751Y-75877749D01*
X142519702Y-75861117D01*
X142527254Y-75845149D01*
X142536335Y-75829997D01*
X142546858Y-75815809D01*
X142558721Y-75802721D01*
X142571809Y-75790858D01*
X142585997Y-75780335D01*
X142601149Y-75771254D01*
X142617117Y-75763702D01*
X142633749Y-75757751D01*
X142650884Y-75753459D01*
X142668357Y-75750867D01*
X142686000Y-75750000D01*
X143526000Y-75750000D01*
X143543643Y-75750867D01*
X143543643Y-75750867D01*
G37*
D11*
X143106000Y-76200000D03*
D10*
G04 #@! TO.N,PA04_S0_UART_TX*
G36*
X143543643Y-77020867D02*
X143561116Y-77023459D01*
X143578251Y-77027751D01*
X143594883Y-77033702D01*
X143610851Y-77041254D01*
X143626003Y-77050335D01*
X143640191Y-77060858D01*
X143653279Y-77072721D01*
X143665142Y-77085809D01*
X143675665Y-77099997D01*
X143684746Y-77115149D01*
X143692298Y-77131117D01*
X143698249Y-77147749D01*
X143702541Y-77164884D01*
X143705133Y-77182357D01*
X143706000Y-77200000D01*
X143706000Y-77740000D01*
X143705133Y-77757643D01*
X143702541Y-77775116D01*
X143698249Y-77792251D01*
X143692298Y-77808883D01*
X143684746Y-77824851D01*
X143675665Y-77840003D01*
X143665142Y-77854191D01*
X143653279Y-77867279D01*
X143640191Y-77879142D01*
X143626003Y-77889665D01*
X143610851Y-77898746D01*
X143594883Y-77906298D01*
X143578251Y-77912249D01*
X143561116Y-77916541D01*
X143543643Y-77919133D01*
X143526000Y-77920000D01*
X142686000Y-77920000D01*
X142668357Y-77919133D01*
X142650884Y-77916541D01*
X142633749Y-77912249D01*
X142617117Y-77906298D01*
X142601149Y-77898746D01*
X142585997Y-77889665D01*
X142571809Y-77879142D01*
X142558721Y-77867279D01*
X142546858Y-77854191D01*
X142536335Y-77840003D01*
X142527254Y-77824851D01*
X142519702Y-77808883D01*
X142513751Y-77792251D01*
X142509459Y-77775116D01*
X142506867Y-77757643D01*
X142506000Y-77740000D01*
X142506000Y-77200000D01*
X142506867Y-77182357D01*
X142509459Y-77164884D01*
X142513751Y-77147749D01*
X142519702Y-77131117D01*
X142527254Y-77115149D01*
X142536335Y-77099997D01*
X142546858Y-77085809D01*
X142558721Y-77072721D01*
X142571809Y-77060858D01*
X142585997Y-77050335D01*
X142601149Y-77041254D01*
X142617117Y-77033702D01*
X142633749Y-77027751D01*
X142650884Y-77023459D01*
X142668357Y-77020867D01*
X142686000Y-77020000D01*
X143526000Y-77020000D01*
X143543643Y-77020867D01*
X143543643Y-77020867D01*
G37*
D11*
X143106000Y-77470000D03*
D10*
G04 #@! TO.N,PA05_S0_UART_RX*
G36*
X143543643Y-78290867D02*
X143561116Y-78293459D01*
X143578251Y-78297751D01*
X143594883Y-78303702D01*
X143610851Y-78311254D01*
X143626003Y-78320335D01*
X143640191Y-78330858D01*
X143653279Y-78342721D01*
X143665142Y-78355809D01*
X143675665Y-78369997D01*
X143684746Y-78385149D01*
X143692298Y-78401117D01*
X143698249Y-78417749D01*
X143702541Y-78434884D01*
X143705133Y-78452357D01*
X143706000Y-78470000D01*
X143706000Y-79010000D01*
X143705133Y-79027643D01*
X143702541Y-79045116D01*
X143698249Y-79062251D01*
X143692298Y-79078883D01*
X143684746Y-79094851D01*
X143675665Y-79110003D01*
X143665142Y-79124191D01*
X143653279Y-79137279D01*
X143640191Y-79149142D01*
X143626003Y-79159665D01*
X143610851Y-79168746D01*
X143594883Y-79176298D01*
X143578251Y-79182249D01*
X143561116Y-79186541D01*
X143543643Y-79189133D01*
X143526000Y-79190000D01*
X142686000Y-79190000D01*
X142668357Y-79189133D01*
X142650884Y-79186541D01*
X142633749Y-79182249D01*
X142617117Y-79176298D01*
X142601149Y-79168746D01*
X142585997Y-79159665D01*
X142571809Y-79149142D01*
X142558721Y-79137279D01*
X142546858Y-79124191D01*
X142536335Y-79110003D01*
X142527254Y-79094851D01*
X142519702Y-79078883D01*
X142513751Y-79062251D01*
X142509459Y-79045116D01*
X142506867Y-79027643D01*
X142506000Y-79010000D01*
X142506000Y-78470000D01*
X142506867Y-78452357D01*
X142509459Y-78434884D01*
X142513751Y-78417749D01*
X142519702Y-78401117D01*
X142527254Y-78385149D01*
X142536335Y-78369997D01*
X142546858Y-78355809D01*
X142558721Y-78342721D01*
X142571809Y-78330858D01*
X142585997Y-78320335D01*
X142601149Y-78311254D01*
X142617117Y-78303702D01*
X142633749Y-78297751D01*
X142650884Y-78293459D01*
X142668357Y-78290867D01*
X142686000Y-78290000D01*
X143526000Y-78290000D01*
X143543643Y-78290867D01*
X143543643Y-78290867D01*
G37*
D11*
X143106000Y-78740000D03*
D10*
G04 #@! TO.N,PB02_S5_SPI_MISO*
G36*
X143543643Y-79560867D02*
X143561116Y-79563459D01*
X143578251Y-79567751D01*
X143594883Y-79573702D01*
X143610851Y-79581254D01*
X143626003Y-79590335D01*
X143640191Y-79600858D01*
X143653279Y-79612721D01*
X143665142Y-79625809D01*
X143675665Y-79639997D01*
X143684746Y-79655149D01*
X143692298Y-79671117D01*
X143698249Y-79687749D01*
X143702541Y-79704884D01*
X143705133Y-79722357D01*
X143706000Y-79740000D01*
X143706000Y-80280000D01*
X143705133Y-80297643D01*
X143702541Y-80315116D01*
X143698249Y-80332251D01*
X143692298Y-80348883D01*
X143684746Y-80364851D01*
X143675665Y-80380003D01*
X143665142Y-80394191D01*
X143653279Y-80407279D01*
X143640191Y-80419142D01*
X143626003Y-80429665D01*
X143610851Y-80438746D01*
X143594883Y-80446298D01*
X143578251Y-80452249D01*
X143561116Y-80456541D01*
X143543643Y-80459133D01*
X143526000Y-80460000D01*
X142686000Y-80460000D01*
X142668357Y-80459133D01*
X142650884Y-80456541D01*
X142633749Y-80452249D01*
X142617117Y-80446298D01*
X142601149Y-80438746D01*
X142585997Y-80429665D01*
X142571809Y-80419142D01*
X142558721Y-80407279D01*
X142546858Y-80394191D01*
X142536335Y-80380003D01*
X142527254Y-80364851D01*
X142519702Y-80348883D01*
X142513751Y-80332251D01*
X142509459Y-80315116D01*
X142506867Y-80297643D01*
X142506000Y-80280000D01*
X142506000Y-79740000D01*
X142506867Y-79722357D01*
X142509459Y-79704884D01*
X142513751Y-79687749D01*
X142519702Y-79671117D01*
X142527254Y-79655149D01*
X142536335Y-79639997D01*
X142546858Y-79625809D01*
X142558721Y-79612721D01*
X142571809Y-79600858D01*
X142585997Y-79590335D01*
X142601149Y-79581254D01*
X142617117Y-79573702D01*
X142633749Y-79567751D01*
X142650884Y-79563459D01*
X142668357Y-79560867D01*
X142686000Y-79560000D01*
X143526000Y-79560000D01*
X143543643Y-79560867D01*
X143543643Y-79560867D01*
G37*
D11*
X143106000Y-80010000D03*
D10*
G04 #@! TO.N,PA28_GPIO*
G36*
X143543643Y-80830867D02*
X143561116Y-80833459D01*
X143578251Y-80837751D01*
X143594883Y-80843702D01*
X143610851Y-80851254D01*
X143626003Y-80860335D01*
X143640191Y-80870858D01*
X143653279Y-80882721D01*
X143665142Y-80895809D01*
X143675665Y-80909997D01*
X143684746Y-80925149D01*
X143692298Y-80941117D01*
X143698249Y-80957749D01*
X143702541Y-80974884D01*
X143705133Y-80992357D01*
X143706000Y-81010000D01*
X143706000Y-81550000D01*
X143705133Y-81567643D01*
X143702541Y-81585116D01*
X143698249Y-81602251D01*
X143692298Y-81618883D01*
X143684746Y-81634851D01*
X143675665Y-81650003D01*
X143665142Y-81664191D01*
X143653279Y-81677279D01*
X143640191Y-81689142D01*
X143626003Y-81699665D01*
X143610851Y-81708746D01*
X143594883Y-81716298D01*
X143578251Y-81722249D01*
X143561116Y-81726541D01*
X143543643Y-81729133D01*
X143526000Y-81730000D01*
X142686000Y-81730000D01*
X142668357Y-81729133D01*
X142650884Y-81726541D01*
X142633749Y-81722249D01*
X142617117Y-81716298D01*
X142601149Y-81708746D01*
X142585997Y-81699665D01*
X142571809Y-81689142D01*
X142558721Y-81677279D01*
X142546858Y-81664191D01*
X142536335Y-81650003D01*
X142527254Y-81634851D01*
X142519702Y-81618883D01*
X142513751Y-81602251D01*
X142509459Y-81585116D01*
X142506867Y-81567643D01*
X142506000Y-81550000D01*
X142506000Y-81010000D01*
X142506867Y-80992357D01*
X142509459Y-80974884D01*
X142513751Y-80957749D01*
X142519702Y-80941117D01*
X142527254Y-80925149D01*
X142536335Y-80909997D01*
X142546858Y-80895809D01*
X142558721Y-80882721D01*
X142571809Y-80870858D01*
X142585997Y-80860335D01*
X142601149Y-80851254D01*
X142617117Y-80843702D01*
X142633749Y-80837751D01*
X142650884Y-80833459D01*
X142668357Y-80830867D01*
X142686000Y-80830000D01*
X143526000Y-80830000D01*
X143543643Y-80830867D01*
X143543643Y-80830867D01*
G37*
D11*
X143106000Y-81280000D03*
D10*
G04 #@! TO.N,+BATT*
G36*
X143543643Y-82100867D02*
X143561116Y-82103459D01*
X143578251Y-82107751D01*
X143594883Y-82113702D01*
X143610851Y-82121254D01*
X143626003Y-82130335D01*
X143640191Y-82140858D01*
X143653279Y-82152721D01*
X143665142Y-82165809D01*
X143675665Y-82179997D01*
X143684746Y-82195149D01*
X143692298Y-82211117D01*
X143698249Y-82227749D01*
X143702541Y-82244884D01*
X143705133Y-82262357D01*
X143706000Y-82280000D01*
X143706000Y-82820000D01*
X143705133Y-82837643D01*
X143702541Y-82855116D01*
X143698249Y-82872251D01*
X143692298Y-82888883D01*
X143684746Y-82904851D01*
X143675665Y-82920003D01*
X143665142Y-82934191D01*
X143653279Y-82947279D01*
X143640191Y-82959142D01*
X143626003Y-82969665D01*
X143610851Y-82978746D01*
X143594883Y-82986298D01*
X143578251Y-82992249D01*
X143561116Y-82996541D01*
X143543643Y-82999133D01*
X143526000Y-83000000D01*
X142686000Y-83000000D01*
X142668357Y-82999133D01*
X142650884Y-82996541D01*
X142633749Y-82992249D01*
X142617117Y-82986298D01*
X142601149Y-82978746D01*
X142585997Y-82969665D01*
X142571809Y-82959142D01*
X142558721Y-82947279D01*
X142546858Y-82934191D01*
X142536335Y-82920003D01*
X142527254Y-82904851D01*
X142519702Y-82888883D01*
X142513751Y-82872251D01*
X142509459Y-82855116D01*
X142506867Y-82837643D01*
X142506000Y-82820000D01*
X142506000Y-82280000D01*
X142506867Y-82262357D01*
X142509459Y-82244884D01*
X142513751Y-82227749D01*
X142519702Y-82211117D01*
X142527254Y-82195149D01*
X142536335Y-82179997D01*
X142546858Y-82165809D01*
X142558721Y-82152721D01*
X142571809Y-82140858D01*
X142585997Y-82130335D01*
X142601149Y-82121254D01*
X142617117Y-82113702D01*
X142633749Y-82107751D01*
X142650884Y-82103459D01*
X142668357Y-82100867D01*
X142686000Y-82100000D01*
X143526000Y-82100000D01*
X143543643Y-82100867D01*
X143543643Y-82100867D01*
G37*
D11*
X143106000Y-82550000D03*
D10*
G04 #@! TO.N,PA31_SWDIO*
G36*
X143543643Y-83370867D02*
X143561116Y-83373459D01*
X143578251Y-83377751D01*
X143594883Y-83383702D01*
X143610851Y-83391254D01*
X143626003Y-83400335D01*
X143640191Y-83410858D01*
X143653279Y-83422721D01*
X143665142Y-83435809D01*
X143675665Y-83449997D01*
X143684746Y-83465149D01*
X143692298Y-83481117D01*
X143698249Y-83497749D01*
X143702541Y-83514884D01*
X143705133Y-83532357D01*
X143706000Y-83550000D01*
X143706000Y-84090000D01*
X143705133Y-84107643D01*
X143702541Y-84125116D01*
X143698249Y-84142251D01*
X143692298Y-84158883D01*
X143684746Y-84174851D01*
X143675665Y-84190003D01*
X143665142Y-84204191D01*
X143653279Y-84217279D01*
X143640191Y-84229142D01*
X143626003Y-84239665D01*
X143610851Y-84248746D01*
X143594883Y-84256298D01*
X143578251Y-84262249D01*
X143561116Y-84266541D01*
X143543643Y-84269133D01*
X143526000Y-84270000D01*
X142686000Y-84270000D01*
X142668357Y-84269133D01*
X142650884Y-84266541D01*
X142633749Y-84262249D01*
X142617117Y-84256298D01*
X142601149Y-84248746D01*
X142585997Y-84239665D01*
X142571809Y-84229142D01*
X142558721Y-84217279D01*
X142546858Y-84204191D01*
X142536335Y-84190003D01*
X142527254Y-84174851D01*
X142519702Y-84158883D01*
X142513751Y-84142251D01*
X142509459Y-84125116D01*
X142506867Y-84107643D01*
X142506000Y-84090000D01*
X142506000Y-83550000D01*
X142506867Y-83532357D01*
X142509459Y-83514884D01*
X142513751Y-83497749D01*
X142519702Y-83481117D01*
X142527254Y-83465149D01*
X142536335Y-83449997D01*
X142546858Y-83435809D01*
X142558721Y-83422721D01*
X142571809Y-83410858D01*
X142585997Y-83400335D01*
X142601149Y-83391254D01*
X142617117Y-83383702D01*
X142633749Y-83377751D01*
X142650884Y-83373459D01*
X142668357Y-83370867D01*
X142686000Y-83370000D01*
X143526000Y-83370000D01*
X143543643Y-83370867D01*
X143543643Y-83370867D01*
G37*
D11*
X143106000Y-83820000D03*
D10*
G04 #@! TO.N,PA30_SWDCLK*
G36*
X143543643Y-84640867D02*
X143561116Y-84643459D01*
X143578251Y-84647751D01*
X143594883Y-84653702D01*
X143610851Y-84661254D01*
X143626003Y-84670335D01*
X143640191Y-84680858D01*
X143653279Y-84692721D01*
X143665142Y-84705809D01*
X143675665Y-84719997D01*
X143684746Y-84735149D01*
X143692298Y-84751117D01*
X143698249Y-84767749D01*
X143702541Y-84784884D01*
X143705133Y-84802357D01*
X143706000Y-84820000D01*
X143706000Y-85360000D01*
X143705133Y-85377643D01*
X143702541Y-85395116D01*
X143698249Y-85412251D01*
X143692298Y-85428883D01*
X143684746Y-85444851D01*
X143675665Y-85460003D01*
X143665142Y-85474191D01*
X143653279Y-85487279D01*
X143640191Y-85499142D01*
X143626003Y-85509665D01*
X143610851Y-85518746D01*
X143594883Y-85526298D01*
X143578251Y-85532249D01*
X143561116Y-85536541D01*
X143543643Y-85539133D01*
X143526000Y-85540000D01*
X142686000Y-85540000D01*
X142668357Y-85539133D01*
X142650884Y-85536541D01*
X142633749Y-85532249D01*
X142617117Y-85526298D01*
X142601149Y-85518746D01*
X142585997Y-85509665D01*
X142571809Y-85499142D01*
X142558721Y-85487279D01*
X142546858Y-85474191D01*
X142536335Y-85460003D01*
X142527254Y-85444851D01*
X142519702Y-85428883D01*
X142513751Y-85412251D01*
X142509459Y-85395116D01*
X142506867Y-85377643D01*
X142506000Y-85360000D01*
X142506000Y-84820000D01*
X142506867Y-84802357D01*
X142509459Y-84784884D01*
X142513751Y-84767749D01*
X142519702Y-84751117D01*
X142527254Y-84735149D01*
X142536335Y-84719997D01*
X142546858Y-84705809D01*
X142558721Y-84692721D01*
X142571809Y-84680858D01*
X142585997Y-84670335D01*
X142601149Y-84661254D01*
X142617117Y-84653702D01*
X142633749Y-84647751D01*
X142650884Y-84643459D01*
X142668357Y-84640867D01*
X142686000Y-84640000D01*
X143526000Y-84640000D01*
X143543643Y-84640867D01*
X143543643Y-84640867D01*
G37*
D11*
X143106000Y-85090000D03*
D10*
G04 #@! TO.N,~RESET*
G36*
X143543643Y-85910867D02*
X143561116Y-85913459D01*
X143578251Y-85917751D01*
X143594883Y-85923702D01*
X143610851Y-85931254D01*
X143626003Y-85940335D01*
X143640191Y-85950858D01*
X143653279Y-85962721D01*
X143665142Y-85975809D01*
X143675665Y-85989997D01*
X143684746Y-86005149D01*
X143692298Y-86021117D01*
X143698249Y-86037749D01*
X143702541Y-86054884D01*
X143705133Y-86072357D01*
X143706000Y-86090000D01*
X143706000Y-86630000D01*
X143705133Y-86647643D01*
X143702541Y-86665116D01*
X143698249Y-86682251D01*
X143692298Y-86698883D01*
X143684746Y-86714851D01*
X143675665Y-86730003D01*
X143665142Y-86744191D01*
X143653279Y-86757279D01*
X143640191Y-86769142D01*
X143626003Y-86779665D01*
X143610851Y-86788746D01*
X143594883Y-86796298D01*
X143578251Y-86802249D01*
X143561116Y-86806541D01*
X143543643Y-86809133D01*
X143526000Y-86810000D01*
X142686000Y-86810000D01*
X142668357Y-86809133D01*
X142650884Y-86806541D01*
X142633749Y-86802249D01*
X142617117Y-86796298D01*
X142601149Y-86788746D01*
X142585997Y-86779665D01*
X142571809Y-86769142D01*
X142558721Y-86757279D01*
X142546858Y-86744191D01*
X142536335Y-86730003D01*
X142527254Y-86714851D01*
X142519702Y-86698883D01*
X142513751Y-86682251D01*
X142509459Y-86665116D01*
X142506867Y-86647643D01*
X142506000Y-86630000D01*
X142506000Y-86090000D01*
X142506867Y-86072357D01*
X142509459Y-86054884D01*
X142513751Y-86037749D01*
X142519702Y-86021117D01*
X142527254Y-86005149D01*
X142536335Y-85989997D01*
X142546858Y-85975809D01*
X142558721Y-85962721D01*
X142571809Y-85950858D01*
X142585997Y-85940335D01*
X142601149Y-85931254D01*
X142617117Y-85923702D01*
X142633749Y-85917751D01*
X142650884Y-85913459D01*
X142668357Y-85910867D01*
X142686000Y-85910000D01*
X143526000Y-85910000D01*
X143543643Y-85910867D01*
X143543643Y-85910867D01*
G37*
D11*
X143106000Y-86360000D03*
D10*
G04 #@! TO.N,VDD*
G36*
X143543643Y-87180867D02*
X143561116Y-87183459D01*
X143578251Y-87187751D01*
X143594883Y-87193702D01*
X143610851Y-87201254D01*
X143626003Y-87210335D01*
X143640191Y-87220858D01*
X143653279Y-87232721D01*
X143665142Y-87245809D01*
X143675665Y-87259997D01*
X143684746Y-87275149D01*
X143692298Y-87291117D01*
X143698249Y-87307749D01*
X143702541Y-87324884D01*
X143705133Y-87342357D01*
X143706000Y-87360000D01*
X143706000Y-87900000D01*
X143705133Y-87917643D01*
X143702541Y-87935116D01*
X143698249Y-87952251D01*
X143692298Y-87968883D01*
X143684746Y-87984851D01*
X143675665Y-88000003D01*
X143665142Y-88014191D01*
X143653279Y-88027279D01*
X143640191Y-88039142D01*
X143626003Y-88049665D01*
X143610851Y-88058746D01*
X143594883Y-88066298D01*
X143578251Y-88072249D01*
X143561116Y-88076541D01*
X143543643Y-88079133D01*
X143526000Y-88080000D01*
X142686000Y-88080000D01*
X142668357Y-88079133D01*
X142650884Y-88076541D01*
X142633749Y-88072249D01*
X142617117Y-88066298D01*
X142601149Y-88058746D01*
X142585997Y-88049665D01*
X142571809Y-88039142D01*
X142558721Y-88027279D01*
X142546858Y-88014191D01*
X142536335Y-88000003D01*
X142527254Y-87984851D01*
X142519702Y-87968883D01*
X142513751Y-87952251D01*
X142509459Y-87935116D01*
X142506867Y-87917643D01*
X142506000Y-87900000D01*
X142506000Y-87360000D01*
X142506867Y-87342357D01*
X142509459Y-87324884D01*
X142513751Y-87307749D01*
X142519702Y-87291117D01*
X142527254Y-87275149D01*
X142536335Y-87259997D01*
X142546858Y-87245809D01*
X142558721Y-87232721D01*
X142571809Y-87220858D01*
X142585997Y-87210335D01*
X142601149Y-87201254D01*
X142617117Y-87193702D01*
X142633749Y-87187751D01*
X142650884Y-87183459D01*
X142668357Y-87180867D01*
X142686000Y-87180000D01*
X143526000Y-87180000D01*
X143543643Y-87180867D01*
X143543643Y-87180867D01*
G37*
D11*
X143106000Y-87630000D03*
D10*
G04 #@! TO.N,PA15_GPIO*
G36*
X132113643Y-88785867D02*
X132131116Y-88788459D01*
X132148251Y-88792751D01*
X132164883Y-88798702D01*
X132180851Y-88806254D01*
X132196003Y-88815335D01*
X132210191Y-88825858D01*
X132223279Y-88837721D01*
X132235142Y-88850809D01*
X132245665Y-88864997D01*
X132254746Y-88880149D01*
X132262298Y-88896117D01*
X132268249Y-88912749D01*
X132272541Y-88929884D01*
X132275133Y-88947357D01*
X132276000Y-88965000D01*
X132276000Y-89805000D01*
X132275133Y-89822643D01*
X132272541Y-89840116D01*
X132268249Y-89857251D01*
X132262298Y-89873883D01*
X132254746Y-89889851D01*
X132245665Y-89905003D01*
X132235142Y-89919191D01*
X132223279Y-89932279D01*
X132210191Y-89944142D01*
X132196003Y-89954665D01*
X132180851Y-89963746D01*
X132164883Y-89971298D01*
X132148251Y-89977249D01*
X132131116Y-89981541D01*
X132113643Y-89984133D01*
X132096000Y-89985000D01*
X131556000Y-89985000D01*
X131538357Y-89984133D01*
X131520884Y-89981541D01*
X131503749Y-89977249D01*
X131487117Y-89971298D01*
X131471149Y-89963746D01*
X131455997Y-89954665D01*
X131441809Y-89944142D01*
X131428721Y-89932279D01*
X131416858Y-89919191D01*
X131406335Y-89905003D01*
X131397254Y-89889851D01*
X131389702Y-89873883D01*
X131383751Y-89857251D01*
X131379459Y-89840116D01*
X131376867Y-89822643D01*
X131376000Y-89805000D01*
X131376000Y-88965000D01*
X131376867Y-88947357D01*
X131379459Y-88929884D01*
X131383751Y-88912749D01*
X131389702Y-88896117D01*
X131397254Y-88880149D01*
X131406335Y-88864997D01*
X131416858Y-88850809D01*
X131428721Y-88837721D01*
X131441809Y-88825858D01*
X131455997Y-88815335D01*
X131471149Y-88806254D01*
X131487117Y-88798702D01*
X131503749Y-88792751D01*
X131520884Y-88788459D01*
X131538357Y-88785867D01*
X131556000Y-88785000D01*
X132096000Y-88785000D01*
X132113643Y-88785867D01*
X132113643Y-88785867D01*
G37*
D11*
X131826000Y-89385000D03*
D10*
G04 #@! TO.N,PA14_GPIO*
G36*
X133383643Y-88785867D02*
X133401116Y-88788459D01*
X133418251Y-88792751D01*
X133434883Y-88798702D01*
X133450851Y-88806254D01*
X133466003Y-88815335D01*
X133480191Y-88825858D01*
X133493279Y-88837721D01*
X133505142Y-88850809D01*
X133515665Y-88864997D01*
X133524746Y-88880149D01*
X133532298Y-88896117D01*
X133538249Y-88912749D01*
X133542541Y-88929884D01*
X133545133Y-88947357D01*
X133546000Y-88965000D01*
X133546000Y-89805000D01*
X133545133Y-89822643D01*
X133542541Y-89840116D01*
X133538249Y-89857251D01*
X133532298Y-89873883D01*
X133524746Y-89889851D01*
X133515665Y-89905003D01*
X133505142Y-89919191D01*
X133493279Y-89932279D01*
X133480191Y-89944142D01*
X133466003Y-89954665D01*
X133450851Y-89963746D01*
X133434883Y-89971298D01*
X133418251Y-89977249D01*
X133401116Y-89981541D01*
X133383643Y-89984133D01*
X133366000Y-89985000D01*
X132826000Y-89985000D01*
X132808357Y-89984133D01*
X132790884Y-89981541D01*
X132773749Y-89977249D01*
X132757117Y-89971298D01*
X132741149Y-89963746D01*
X132725997Y-89954665D01*
X132711809Y-89944142D01*
X132698721Y-89932279D01*
X132686858Y-89919191D01*
X132676335Y-89905003D01*
X132667254Y-89889851D01*
X132659702Y-89873883D01*
X132653751Y-89857251D01*
X132649459Y-89840116D01*
X132646867Y-89822643D01*
X132646000Y-89805000D01*
X132646000Y-88965000D01*
X132646867Y-88947357D01*
X132649459Y-88929884D01*
X132653751Y-88912749D01*
X132659702Y-88896117D01*
X132667254Y-88880149D01*
X132676335Y-88864997D01*
X132686858Y-88850809D01*
X132698721Y-88837721D01*
X132711809Y-88825858D01*
X132725997Y-88815335D01*
X132741149Y-88806254D01*
X132757117Y-88798702D01*
X132773749Y-88792751D01*
X132790884Y-88788459D01*
X132808357Y-88785867D01*
X132826000Y-88785000D01*
X133366000Y-88785000D01*
X133383643Y-88785867D01*
X133383643Y-88785867D01*
G37*
D11*
X133096000Y-89385000D03*
D10*
G04 #@! TO.N,PA19_PWM_T0_W3*
G36*
X134653643Y-88785867D02*
X134671116Y-88788459D01*
X134688251Y-88792751D01*
X134704883Y-88798702D01*
X134720851Y-88806254D01*
X134736003Y-88815335D01*
X134750191Y-88825858D01*
X134763279Y-88837721D01*
X134775142Y-88850809D01*
X134785665Y-88864997D01*
X134794746Y-88880149D01*
X134802298Y-88896117D01*
X134808249Y-88912749D01*
X134812541Y-88929884D01*
X134815133Y-88947357D01*
X134816000Y-88965000D01*
X134816000Y-89805000D01*
X134815133Y-89822643D01*
X134812541Y-89840116D01*
X134808249Y-89857251D01*
X134802298Y-89873883D01*
X134794746Y-89889851D01*
X134785665Y-89905003D01*
X134775142Y-89919191D01*
X134763279Y-89932279D01*
X134750191Y-89944142D01*
X134736003Y-89954665D01*
X134720851Y-89963746D01*
X134704883Y-89971298D01*
X134688251Y-89977249D01*
X134671116Y-89981541D01*
X134653643Y-89984133D01*
X134636000Y-89985000D01*
X134096000Y-89985000D01*
X134078357Y-89984133D01*
X134060884Y-89981541D01*
X134043749Y-89977249D01*
X134027117Y-89971298D01*
X134011149Y-89963746D01*
X133995997Y-89954665D01*
X133981809Y-89944142D01*
X133968721Y-89932279D01*
X133956858Y-89919191D01*
X133946335Y-89905003D01*
X133937254Y-89889851D01*
X133929702Y-89873883D01*
X133923751Y-89857251D01*
X133919459Y-89840116D01*
X133916867Y-89822643D01*
X133916000Y-89805000D01*
X133916000Y-88965000D01*
X133916867Y-88947357D01*
X133919459Y-88929884D01*
X133923751Y-88912749D01*
X133929702Y-88896117D01*
X133937254Y-88880149D01*
X133946335Y-88864997D01*
X133956858Y-88850809D01*
X133968721Y-88837721D01*
X133981809Y-88825858D01*
X133995997Y-88815335D01*
X134011149Y-88806254D01*
X134027117Y-88798702D01*
X134043749Y-88792751D01*
X134060884Y-88788459D01*
X134078357Y-88785867D01*
X134096000Y-88785000D01*
X134636000Y-88785000D01*
X134653643Y-88785867D01*
X134653643Y-88785867D01*
G37*
D11*
X134366000Y-89385000D03*
D10*
G04 #@! TO.N,PA22_GPIO*
G36*
X135923643Y-88785867D02*
X135941116Y-88788459D01*
X135958251Y-88792751D01*
X135974883Y-88798702D01*
X135990851Y-88806254D01*
X136006003Y-88815335D01*
X136020191Y-88825858D01*
X136033279Y-88837721D01*
X136045142Y-88850809D01*
X136055665Y-88864997D01*
X136064746Y-88880149D01*
X136072298Y-88896117D01*
X136078249Y-88912749D01*
X136082541Y-88929884D01*
X136085133Y-88947357D01*
X136086000Y-88965000D01*
X136086000Y-89805000D01*
X136085133Y-89822643D01*
X136082541Y-89840116D01*
X136078249Y-89857251D01*
X136072298Y-89873883D01*
X136064746Y-89889851D01*
X136055665Y-89905003D01*
X136045142Y-89919191D01*
X136033279Y-89932279D01*
X136020191Y-89944142D01*
X136006003Y-89954665D01*
X135990851Y-89963746D01*
X135974883Y-89971298D01*
X135958251Y-89977249D01*
X135941116Y-89981541D01*
X135923643Y-89984133D01*
X135906000Y-89985000D01*
X135366000Y-89985000D01*
X135348357Y-89984133D01*
X135330884Y-89981541D01*
X135313749Y-89977249D01*
X135297117Y-89971298D01*
X135281149Y-89963746D01*
X135265997Y-89954665D01*
X135251809Y-89944142D01*
X135238721Y-89932279D01*
X135226858Y-89919191D01*
X135216335Y-89905003D01*
X135207254Y-89889851D01*
X135199702Y-89873883D01*
X135193751Y-89857251D01*
X135189459Y-89840116D01*
X135186867Y-89822643D01*
X135186000Y-89805000D01*
X135186000Y-88965000D01*
X135186867Y-88947357D01*
X135189459Y-88929884D01*
X135193751Y-88912749D01*
X135199702Y-88896117D01*
X135207254Y-88880149D01*
X135216335Y-88864997D01*
X135226858Y-88850809D01*
X135238721Y-88837721D01*
X135251809Y-88825858D01*
X135265997Y-88815335D01*
X135281149Y-88806254D01*
X135297117Y-88798702D01*
X135313749Y-88792751D01*
X135330884Y-88788459D01*
X135348357Y-88785867D01*
X135366000Y-88785000D01*
X135906000Y-88785000D01*
X135923643Y-88785867D01*
X135923643Y-88785867D01*
G37*
D11*
X135636000Y-89385000D03*
D10*
G04 #@! TO.N,PA23_S5_SPI_SS*
G36*
X137193643Y-88785867D02*
X137211116Y-88788459D01*
X137228251Y-88792751D01*
X137244883Y-88798702D01*
X137260851Y-88806254D01*
X137276003Y-88815335D01*
X137290191Y-88825858D01*
X137303279Y-88837721D01*
X137315142Y-88850809D01*
X137325665Y-88864997D01*
X137334746Y-88880149D01*
X137342298Y-88896117D01*
X137348249Y-88912749D01*
X137352541Y-88929884D01*
X137355133Y-88947357D01*
X137356000Y-88965000D01*
X137356000Y-89805000D01*
X137355133Y-89822643D01*
X137352541Y-89840116D01*
X137348249Y-89857251D01*
X137342298Y-89873883D01*
X137334746Y-89889851D01*
X137325665Y-89905003D01*
X137315142Y-89919191D01*
X137303279Y-89932279D01*
X137290191Y-89944142D01*
X137276003Y-89954665D01*
X137260851Y-89963746D01*
X137244883Y-89971298D01*
X137228251Y-89977249D01*
X137211116Y-89981541D01*
X137193643Y-89984133D01*
X137176000Y-89985000D01*
X136636000Y-89985000D01*
X136618357Y-89984133D01*
X136600884Y-89981541D01*
X136583749Y-89977249D01*
X136567117Y-89971298D01*
X136551149Y-89963746D01*
X136535997Y-89954665D01*
X136521809Y-89944142D01*
X136508721Y-89932279D01*
X136496858Y-89919191D01*
X136486335Y-89905003D01*
X136477254Y-89889851D01*
X136469702Y-89873883D01*
X136463751Y-89857251D01*
X136459459Y-89840116D01*
X136456867Y-89822643D01*
X136456000Y-89805000D01*
X136456000Y-88965000D01*
X136456867Y-88947357D01*
X136459459Y-88929884D01*
X136463751Y-88912749D01*
X136469702Y-88896117D01*
X136477254Y-88880149D01*
X136486335Y-88864997D01*
X136496858Y-88850809D01*
X136508721Y-88837721D01*
X136521809Y-88825858D01*
X136535997Y-88815335D01*
X136551149Y-88806254D01*
X136567117Y-88798702D01*
X136583749Y-88792751D01*
X136600884Y-88788459D01*
X136618357Y-88785867D01*
X136636000Y-88785000D01*
X137176000Y-88785000D01*
X137193643Y-88785867D01*
X137193643Y-88785867D01*
G37*
D11*
X136906000Y-89385000D03*
D10*
G04 #@! TO.N,USB_P*
G36*
X138463643Y-88785867D02*
X138481116Y-88788459D01*
X138498251Y-88792751D01*
X138514883Y-88798702D01*
X138530851Y-88806254D01*
X138546003Y-88815335D01*
X138560191Y-88825858D01*
X138573279Y-88837721D01*
X138585142Y-88850809D01*
X138595665Y-88864997D01*
X138604746Y-88880149D01*
X138612298Y-88896117D01*
X138618249Y-88912749D01*
X138622541Y-88929884D01*
X138625133Y-88947357D01*
X138626000Y-88965000D01*
X138626000Y-89805000D01*
X138625133Y-89822643D01*
X138622541Y-89840116D01*
X138618249Y-89857251D01*
X138612298Y-89873883D01*
X138604746Y-89889851D01*
X138595665Y-89905003D01*
X138585142Y-89919191D01*
X138573279Y-89932279D01*
X138560191Y-89944142D01*
X138546003Y-89954665D01*
X138530851Y-89963746D01*
X138514883Y-89971298D01*
X138498251Y-89977249D01*
X138481116Y-89981541D01*
X138463643Y-89984133D01*
X138446000Y-89985000D01*
X137906000Y-89985000D01*
X137888357Y-89984133D01*
X137870884Y-89981541D01*
X137853749Y-89977249D01*
X137837117Y-89971298D01*
X137821149Y-89963746D01*
X137805997Y-89954665D01*
X137791809Y-89944142D01*
X137778721Y-89932279D01*
X137766858Y-89919191D01*
X137756335Y-89905003D01*
X137747254Y-89889851D01*
X137739702Y-89873883D01*
X137733751Y-89857251D01*
X137729459Y-89840116D01*
X137726867Y-89822643D01*
X137726000Y-89805000D01*
X137726000Y-88965000D01*
X137726867Y-88947357D01*
X137729459Y-88929884D01*
X137733751Y-88912749D01*
X137739702Y-88896117D01*
X137747254Y-88880149D01*
X137756335Y-88864997D01*
X137766858Y-88850809D01*
X137778721Y-88837721D01*
X137791809Y-88825858D01*
X137805997Y-88815335D01*
X137821149Y-88806254D01*
X137837117Y-88798702D01*
X137853749Y-88792751D01*
X137870884Y-88788459D01*
X137888357Y-88785867D01*
X137906000Y-88785000D01*
X138446000Y-88785000D01*
X138463643Y-88785867D01*
X138463643Y-88785867D01*
G37*
D11*
X138176000Y-89385000D03*
D10*
G04 #@! TO.N,USB_N*
G36*
X139733643Y-88785867D02*
X139751116Y-88788459D01*
X139768251Y-88792751D01*
X139784883Y-88798702D01*
X139800851Y-88806254D01*
X139816003Y-88815335D01*
X139830191Y-88825858D01*
X139843279Y-88837721D01*
X139855142Y-88850809D01*
X139865665Y-88864997D01*
X139874746Y-88880149D01*
X139882298Y-88896117D01*
X139888249Y-88912749D01*
X139892541Y-88929884D01*
X139895133Y-88947357D01*
X139896000Y-88965000D01*
X139896000Y-89805000D01*
X139895133Y-89822643D01*
X139892541Y-89840116D01*
X139888249Y-89857251D01*
X139882298Y-89873883D01*
X139874746Y-89889851D01*
X139865665Y-89905003D01*
X139855142Y-89919191D01*
X139843279Y-89932279D01*
X139830191Y-89944142D01*
X139816003Y-89954665D01*
X139800851Y-89963746D01*
X139784883Y-89971298D01*
X139768251Y-89977249D01*
X139751116Y-89981541D01*
X139733643Y-89984133D01*
X139716000Y-89985000D01*
X139176000Y-89985000D01*
X139158357Y-89984133D01*
X139140884Y-89981541D01*
X139123749Y-89977249D01*
X139107117Y-89971298D01*
X139091149Y-89963746D01*
X139075997Y-89954665D01*
X139061809Y-89944142D01*
X139048721Y-89932279D01*
X139036858Y-89919191D01*
X139026335Y-89905003D01*
X139017254Y-89889851D01*
X139009702Y-89873883D01*
X139003751Y-89857251D01*
X138999459Y-89840116D01*
X138996867Y-89822643D01*
X138996000Y-89805000D01*
X138996000Y-88965000D01*
X138996867Y-88947357D01*
X138999459Y-88929884D01*
X139003751Y-88912749D01*
X139009702Y-88896117D01*
X139017254Y-88880149D01*
X139026335Y-88864997D01*
X139036858Y-88850809D01*
X139048721Y-88837721D01*
X139061809Y-88825858D01*
X139075997Y-88815335D01*
X139091149Y-88806254D01*
X139107117Y-88798702D01*
X139123749Y-88792751D01*
X139140884Y-88788459D01*
X139158357Y-88785867D01*
X139176000Y-88785000D01*
X139716000Y-88785000D01*
X139733643Y-88785867D01*
X139733643Y-88785867D01*
G37*
D11*
X139446000Y-89385000D03*
D10*
G04 #@! TO.N,GND*
G36*
X141003643Y-88785867D02*
X141021116Y-88788459D01*
X141038251Y-88792751D01*
X141054883Y-88798702D01*
X141070851Y-88806254D01*
X141086003Y-88815335D01*
X141100191Y-88825858D01*
X141113279Y-88837721D01*
X141125142Y-88850809D01*
X141135665Y-88864997D01*
X141144746Y-88880149D01*
X141152298Y-88896117D01*
X141158249Y-88912749D01*
X141162541Y-88929884D01*
X141165133Y-88947357D01*
X141166000Y-88965000D01*
X141166000Y-89805000D01*
X141165133Y-89822643D01*
X141162541Y-89840116D01*
X141158249Y-89857251D01*
X141152298Y-89873883D01*
X141144746Y-89889851D01*
X141135665Y-89905003D01*
X141125142Y-89919191D01*
X141113279Y-89932279D01*
X141100191Y-89944142D01*
X141086003Y-89954665D01*
X141070851Y-89963746D01*
X141054883Y-89971298D01*
X141038251Y-89977249D01*
X141021116Y-89981541D01*
X141003643Y-89984133D01*
X140986000Y-89985000D01*
X140446000Y-89985000D01*
X140428357Y-89984133D01*
X140410884Y-89981541D01*
X140393749Y-89977249D01*
X140377117Y-89971298D01*
X140361149Y-89963746D01*
X140345997Y-89954665D01*
X140331809Y-89944142D01*
X140318721Y-89932279D01*
X140306858Y-89919191D01*
X140296335Y-89905003D01*
X140287254Y-89889851D01*
X140279702Y-89873883D01*
X140273751Y-89857251D01*
X140269459Y-89840116D01*
X140266867Y-89822643D01*
X140266000Y-89805000D01*
X140266000Y-88965000D01*
X140266867Y-88947357D01*
X140269459Y-88929884D01*
X140273751Y-88912749D01*
X140279702Y-88896117D01*
X140287254Y-88880149D01*
X140296335Y-88864997D01*
X140306858Y-88850809D01*
X140318721Y-88837721D01*
X140331809Y-88825858D01*
X140345997Y-88815335D01*
X140361149Y-88806254D01*
X140377117Y-88798702D01*
X140393749Y-88792751D01*
X140410884Y-88788459D01*
X140428357Y-88785867D01*
X140446000Y-88785000D01*
X140986000Y-88785000D01*
X141003643Y-88785867D01*
X141003643Y-88785867D01*
G37*
D11*
X140716000Y-89385000D03*
D10*
G36*
X138463643Y-72575867D02*
X138481116Y-72578459D01*
X138498251Y-72582751D01*
X138514883Y-72588702D01*
X138530851Y-72596254D01*
X138546003Y-72605335D01*
X138560191Y-72615858D01*
X138573279Y-72627721D01*
X138585142Y-72640809D01*
X138595665Y-72654997D01*
X138604746Y-72670149D01*
X138612298Y-72686117D01*
X138618249Y-72702749D01*
X138622541Y-72719884D01*
X138625133Y-72737357D01*
X138626000Y-72755000D01*
X138626000Y-73595000D01*
X138625133Y-73612643D01*
X138622541Y-73630116D01*
X138618249Y-73647251D01*
X138612298Y-73663883D01*
X138604746Y-73679851D01*
X138595665Y-73695003D01*
X138585142Y-73709191D01*
X138573279Y-73722279D01*
X138560191Y-73734142D01*
X138546003Y-73744665D01*
X138530851Y-73753746D01*
X138514883Y-73761298D01*
X138498251Y-73767249D01*
X138481116Y-73771541D01*
X138463643Y-73774133D01*
X138446000Y-73775000D01*
X137906000Y-73775000D01*
X137888357Y-73774133D01*
X137870884Y-73771541D01*
X137853749Y-73767249D01*
X137837117Y-73761298D01*
X137821149Y-73753746D01*
X137805997Y-73744665D01*
X137791809Y-73734142D01*
X137778721Y-73722279D01*
X137766858Y-73709191D01*
X137756335Y-73695003D01*
X137747254Y-73679851D01*
X137739702Y-73663883D01*
X137733751Y-73647251D01*
X137729459Y-73630116D01*
X137726867Y-73612643D01*
X137726000Y-73595000D01*
X137726000Y-72755000D01*
X137726867Y-72737357D01*
X137729459Y-72719884D01*
X137733751Y-72702749D01*
X137739702Y-72686117D01*
X137747254Y-72670149D01*
X137756335Y-72654997D01*
X137766858Y-72640809D01*
X137778721Y-72627721D01*
X137791809Y-72615858D01*
X137805997Y-72605335D01*
X137821149Y-72596254D01*
X137837117Y-72588702D01*
X137853749Y-72582751D01*
X137870884Y-72578459D01*
X137888357Y-72575867D01*
X137906000Y-72575000D01*
X138446000Y-72575000D01*
X138463643Y-72575867D01*
X138463643Y-72575867D01*
G37*
D11*
X138176000Y-73175000D03*
D10*
G04 #@! TO.N,ANT_PAD*
G36*
X139733643Y-72575867D02*
X139751116Y-72578459D01*
X139768251Y-72582751D01*
X139784883Y-72588702D01*
X139800851Y-72596254D01*
X139816003Y-72605335D01*
X139830191Y-72615858D01*
X139843279Y-72627721D01*
X139855142Y-72640809D01*
X139865665Y-72654997D01*
X139874746Y-72670149D01*
X139882298Y-72686117D01*
X139888249Y-72702749D01*
X139892541Y-72719884D01*
X139895133Y-72737357D01*
X139896000Y-72755000D01*
X139896000Y-73595000D01*
X139895133Y-73612643D01*
X139892541Y-73630116D01*
X139888249Y-73647251D01*
X139882298Y-73663883D01*
X139874746Y-73679851D01*
X139865665Y-73695003D01*
X139855142Y-73709191D01*
X139843279Y-73722279D01*
X139830191Y-73734142D01*
X139816003Y-73744665D01*
X139800851Y-73753746D01*
X139784883Y-73761298D01*
X139768251Y-73767249D01*
X139751116Y-73771541D01*
X139733643Y-73774133D01*
X139716000Y-73775000D01*
X139176000Y-73775000D01*
X139158357Y-73774133D01*
X139140884Y-73771541D01*
X139123749Y-73767249D01*
X139107117Y-73761298D01*
X139091149Y-73753746D01*
X139075997Y-73744665D01*
X139061809Y-73734142D01*
X139048721Y-73722279D01*
X139036858Y-73709191D01*
X139026335Y-73695003D01*
X139017254Y-73679851D01*
X139009702Y-73663883D01*
X139003751Y-73647251D01*
X138999459Y-73630116D01*
X138996867Y-73612643D01*
X138996000Y-73595000D01*
X138996000Y-72755000D01*
X138996867Y-72737357D01*
X138999459Y-72719884D01*
X139003751Y-72702749D01*
X139009702Y-72686117D01*
X139017254Y-72670149D01*
X139026335Y-72654997D01*
X139036858Y-72640809D01*
X139048721Y-72627721D01*
X139061809Y-72615858D01*
X139075997Y-72605335D01*
X139091149Y-72596254D01*
X139107117Y-72588702D01*
X139123749Y-72582751D01*
X139140884Y-72578459D01*
X139158357Y-72575867D01*
X139176000Y-72575000D01*
X139716000Y-72575000D01*
X139733643Y-72575867D01*
X139733643Y-72575867D01*
G37*
D11*
X139446000Y-73175000D03*
D10*
G04 #@! TO.N,GND*
G36*
X141003643Y-72575867D02*
X141021116Y-72578459D01*
X141038251Y-72582751D01*
X141054883Y-72588702D01*
X141070851Y-72596254D01*
X141086003Y-72605335D01*
X141100191Y-72615858D01*
X141113279Y-72627721D01*
X141125142Y-72640809D01*
X141135665Y-72654997D01*
X141144746Y-72670149D01*
X141152298Y-72686117D01*
X141158249Y-72702749D01*
X141162541Y-72719884D01*
X141165133Y-72737357D01*
X141166000Y-72755000D01*
X141166000Y-73595000D01*
X141165133Y-73612643D01*
X141162541Y-73630116D01*
X141158249Y-73647251D01*
X141152298Y-73663883D01*
X141144746Y-73679851D01*
X141135665Y-73695003D01*
X141125142Y-73709191D01*
X141113279Y-73722279D01*
X141100191Y-73734142D01*
X141086003Y-73744665D01*
X141070851Y-73753746D01*
X141054883Y-73761298D01*
X141038251Y-73767249D01*
X141021116Y-73771541D01*
X141003643Y-73774133D01*
X140986000Y-73775000D01*
X140446000Y-73775000D01*
X140428357Y-73774133D01*
X140410884Y-73771541D01*
X140393749Y-73767249D01*
X140377117Y-73761298D01*
X140361149Y-73753746D01*
X140345997Y-73744665D01*
X140331809Y-73734142D01*
X140318721Y-73722279D01*
X140306858Y-73709191D01*
X140296335Y-73695003D01*
X140287254Y-73679851D01*
X140279702Y-73663883D01*
X140273751Y-73647251D01*
X140269459Y-73630116D01*
X140266867Y-73612643D01*
X140266000Y-73595000D01*
X140266000Y-72755000D01*
X140266867Y-72737357D01*
X140269459Y-72719884D01*
X140273751Y-72702749D01*
X140279702Y-72686117D01*
X140287254Y-72670149D01*
X140296335Y-72654997D01*
X140306858Y-72640809D01*
X140318721Y-72627721D01*
X140331809Y-72615858D01*
X140345997Y-72605335D01*
X140361149Y-72596254D01*
X140377117Y-72588702D01*
X140393749Y-72582751D01*
X140410884Y-72578459D01*
X140428357Y-72575867D01*
X140446000Y-72575000D01*
X140986000Y-72575000D01*
X141003643Y-72575867D01*
X141003643Y-72575867D01*
G37*
D11*
X140716000Y-73175000D03*
G04 #@! TD*
D12*
G04 #@! TO.N,VDDA*
X137560000Y-82170000D03*
X137510000Y-82770000D03*
X139940000Y-77050000D03*
X139940000Y-78450000D03*
X132954500Y-83162500D03*
X133375000Y-83162500D03*
X139507575Y-82193458D03*
G04 #@! TO.N,GND*
X139440000Y-75610000D03*
X138690000Y-74250000D03*
X140190000Y-74270000D03*
X138188700Y-74561700D03*
X137160000Y-73660000D03*
X135890000Y-73660000D03*
X134620000Y-73660000D03*
X133350000Y-73660000D03*
X132080000Y-73660000D03*
X130810000Y-73660000D03*
X129662600Y-73660000D03*
X129662600Y-74930000D03*
X130810000Y-74930000D03*
X132080000Y-74930000D03*
X132080000Y-76200000D03*
X136804400Y-74549000D03*
X137566400Y-74549000D03*
X130810000Y-77482700D03*
X132130800Y-77470000D03*
X132892800Y-77571600D03*
X132867400Y-76911200D03*
X130886200Y-76174600D03*
X131419600Y-76885800D03*
X131521200Y-75565000D03*
X131521200Y-74244200D03*
X130327400Y-74193400D03*
X130276600Y-75412600D03*
X132840000Y-79060000D03*
X134350000Y-82220000D03*
X136240000Y-82160000D03*
X136250000Y-82820000D03*
X136310000Y-85410000D03*
X137390706Y-87600000D03*
X141804984Y-86925000D03*
X141830000Y-85810000D03*
X141300000Y-84780000D03*
X138860000Y-80820000D03*
X139270000Y-80350000D03*
X139640000Y-79970000D03*
X140350000Y-80900000D03*
X140030000Y-79590000D03*
X140420000Y-79280000D03*
X141480000Y-73510000D03*
X141860000Y-76200000D03*
X141860000Y-75520000D03*
X141710000Y-75000000D03*
X141300000Y-74720000D03*
X140820000Y-74680000D03*
X140860000Y-75540000D03*
X140850000Y-76080000D03*
X140920000Y-76920000D03*
X140910000Y-78170000D03*
X142800000Y-73450000D03*
X142790000Y-75210000D03*
X137940000Y-75620000D03*
X137350000Y-75630000D03*
X136800000Y-75650000D03*
X136275000Y-75660000D03*
X135775000Y-75670000D03*
X132918200Y-74406760D03*
X137075000Y-77600000D03*
X137075000Y-78300000D03*
X138725000Y-78500000D03*
X137775000Y-77825000D03*
X137930000Y-76590000D03*
X137360000Y-76570000D03*
X136800000Y-76575000D03*
X136275000Y-76575000D03*
X135775000Y-76575000D03*
X135750000Y-77075000D03*
X137575000Y-77150000D03*
X138525000Y-79525000D03*
X138504190Y-80029190D03*
X139301253Y-78388272D03*
X134513360Y-75671640D03*
X135225000Y-75600000D03*
X133975000Y-75675000D03*
X134000000Y-76475000D03*
X133980000Y-77230000D03*
X134000000Y-77950000D03*
X133990000Y-78600000D03*
X134525000Y-80425000D03*
X133800000Y-81100000D03*
X133390000Y-80680000D03*
X135950000Y-81230000D03*
X135370000Y-81260000D03*
X136855200Y-79806800D03*
X136175000Y-79450000D03*
X131320000Y-83450000D03*
X133616404Y-84699727D03*
X132240000Y-86790000D03*
X130875000Y-86950000D03*
X141535042Y-82815051D03*
X136290000Y-84120000D03*
X138947053Y-82759024D03*
X141850000Y-78100000D03*
X139680000Y-81540000D03*
X140686597Y-80540017D03*
X141375047Y-79925047D03*
X141745047Y-79555047D03*
X138410000Y-81240000D03*
X141540000Y-89130000D03*
X132060000Y-78280000D03*
X131230000Y-84250000D03*
X134930000Y-87570000D03*
X134164719Y-80088464D03*
X131150000Y-79620000D03*
X130688431Y-81777459D03*
X134990000Y-82210000D03*
X138200210Y-82820000D03*
X134340000Y-86070210D03*
X137590000Y-84760000D03*
X134340000Y-84759790D03*
X134330000Y-85440210D03*
X137610000Y-85480000D03*
X132200000Y-82130000D03*
X132090000Y-78880000D03*
X131240000Y-78000000D03*
X141820000Y-76890000D03*
G04 #@! TO.N,VDD*
X134001342Y-87412142D03*
D13*
X140710000Y-87520000D03*
X141782774Y-87630000D03*
X142544800Y-88747600D03*
D12*
X131500000Y-81160000D03*
X131980000Y-81140000D03*
X134340000Y-84110000D03*
X131094797Y-81160015D03*
X132989996Y-84450004D03*
G04 #@! TO.N,~RESET*
X139210000Y-87470000D03*
X138190000Y-84820000D03*
X139220000Y-85330000D03*
G04 #@! TO.N,+BATT*
X142240000Y-82289999D03*
X137530000Y-83450000D03*
G04 #@! TO.N,TCXO_PWR*
X134985442Y-84770000D03*
X131882984Y-85175000D03*
G04 #@! TO.N,PA04_S0_UART_TX*
X136888513Y-82869987D03*
G04 #@! TO.N,PA05_S0_UART_RX*
X136940000Y-83500000D03*
G04 #@! TO.N,PA30_SWDCLK*
X136940000Y-84770000D03*
G04 #@! TO.N,PA31_SWDIO*
X136890000Y-84160000D03*
G04 #@! TO.N,PB23_S5_SPI_SCK*
X133504110Y-85840000D03*
X137520000Y-86030000D03*
G04 #@! TO.N,PB22_S5_SPI_MOSI*
X135640000Y-84160000D03*
G04 #@! TO.N,PB02_S5_SPI_MISO*
X138200000Y-84119790D03*
G04 #@! TO.N,PA28_GPIO*
X136951286Y-85402592D03*
X139728128Y-84448853D03*
G04 #@! TO.N,PA27_GPIO*
X135650000Y-83520000D03*
G04 #@! TO.N,PA23_S5_SPI_SS*
X136890000Y-86050000D03*
G04 #@! TO.N,PA18_PWM_T0_W2*
X135650000Y-86060000D03*
G04 #@! TO.N,PA17_S1_I2C_SCL*
X135650000Y-85400000D03*
G04 #@! TO.N,PA16_S1_I2C_SDA*
X135010000Y-86050000D03*
G04 #@! TO.N,PA15_GPIO*
X135033503Y-87004898D03*
G04 #@! TO.N,PA14_GPIO*
X135598834Y-87230272D03*
G04 #@! TO.N,PA08_GPIO*
X134980000Y-84130000D03*
G04 #@! TO.N,PA07_ADC7*
X135002126Y-83449790D03*
G04 #@! TO.N,PA06_ADC6*
X135650000Y-82870000D03*
G04 #@! TO.N,BAND_SEL*
X135600000Y-84810000D03*
X138805920Y-77134720D03*
X141095215Y-80893915D03*
X139595056Y-83349371D03*
G04 #@! TO.N,TXRX_RF*
X136880000Y-82230000D03*
X139364720Y-77201508D03*
G04 #@! TO.N,USB_N*
X138337068Y-87057087D03*
G04 #@! TO.N,USB_P*
X138170000Y-87510002D03*
G04 #@! TD*
D14*
G04 #@! TO.N,VDDA*
X137569777Y-82200214D02*
X137569777Y-82200214D01*
X137569777Y-81664377D02*
X137569777Y-82200214D01*
D15*
X132954500Y-83162500D02*
X132954500Y-82808947D01*
D14*
X137569777Y-82200214D02*
X137569777Y-79539263D01*
D15*
X132954500Y-82808947D02*
X135135968Y-80627479D01*
X135135968Y-80627479D02*
X136532879Y-80627479D01*
X136532879Y-80627479D02*
X137569777Y-81664377D01*
X137551315Y-81682839D02*
X137551315Y-82804282D01*
D14*
X137569777Y-82200214D02*
X137569777Y-82785819D01*
X137569777Y-81664377D02*
X137569777Y-79539263D01*
X138094720Y-79014320D02*
X139375680Y-79014320D01*
X139375680Y-79014320D02*
X139940000Y-78450000D01*
X137569777Y-79539263D02*
X138094720Y-79014320D01*
X139940000Y-78450000D02*
X139940000Y-77050000D01*
D15*
X137569777Y-82200214D02*
X139500819Y-82200214D01*
X137537782Y-81696372D02*
X137569777Y-81664377D01*
X137537782Y-82804282D02*
X137537782Y-81696372D01*
X133021447Y-82808947D02*
X132954500Y-82808947D01*
X133375000Y-83162500D02*
X133021447Y-82808947D01*
X133430000Y-83162500D02*
X132954500Y-83162500D01*
D14*
G04 #@! TO.N,VDD*
X131500000Y-81620000D02*
X131500000Y-81640000D01*
D16*
X132809999Y-84897486D02*
X132809999Y-84649999D01*
D14*
X132984998Y-84475000D02*
X132809999Y-84649999D01*
D16*
X132809999Y-86220799D02*
X132809999Y-84897486D01*
X134001342Y-87412142D02*
X132809999Y-86220799D01*
D14*
X133150000Y-84309998D02*
X132984998Y-84475000D01*
X131500000Y-81620000D02*
X131980000Y-81140000D01*
X131425188Y-81620000D02*
X131204999Y-81399811D01*
X131204999Y-81399811D02*
X131030000Y-81224812D01*
X131500000Y-81620000D02*
X131425188Y-81620000D01*
D16*
X132635000Y-84475000D02*
X132809999Y-84649999D01*
X132154101Y-83994101D02*
X132635000Y-84475000D01*
X132154101Y-83354101D02*
X132154101Y-83994101D01*
X131500000Y-82700000D02*
X132154101Y-83354101D01*
X131500000Y-81640000D02*
X131500000Y-82700000D01*
D15*
X131895188Y-81224812D02*
X131980000Y-81140000D01*
X131030000Y-81224812D02*
X131895188Y-81224812D01*
D16*
X134655814Y-88314101D02*
X134001342Y-87659629D01*
X140045899Y-88314101D02*
X134655814Y-88314101D01*
X134001342Y-87659629D02*
X134001342Y-87412142D01*
X140710300Y-87649700D02*
X140045899Y-88314101D01*
X140700600Y-87640000D02*
X140710300Y-87649700D01*
X140710600Y-87630000D02*
X140700600Y-87640000D01*
X141782774Y-87630000D02*
X140710600Y-87630000D01*
D14*
X131980000Y-81140000D02*
X131980000Y-81140000D01*
D16*
X131500000Y-81565218D02*
X131272596Y-81337814D01*
X131272596Y-81337814D02*
X131094797Y-81160015D01*
X131094812Y-81160000D02*
X131094797Y-81160015D01*
X131500000Y-81160000D02*
X131094812Y-81160000D01*
X131500000Y-81640000D02*
X131500000Y-81565218D01*
D15*
X131980000Y-81140000D02*
X131114812Y-81140000D01*
X131114812Y-81140000D02*
X131094797Y-81160015D01*
D14*
X133330000Y-84110000D02*
X132989996Y-84450004D01*
X134340000Y-84110000D02*
X133330000Y-84110000D01*
D15*
X132809999Y-84897486D02*
X132809999Y-84630001D01*
X132270000Y-84110000D02*
X132154101Y-83994101D01*
X133330000Y-84110000D02*
X132270000Y-84110000D01*
D16*
X140045899Y-88184101D02*
X140045899Y-88314101D01*
X140710000Y-87520000D02*
X140045899Y-88184101D01*
X140820000Y-87630000D02*
X140710000Y-87520000D01*
X141782774Y-87630000D02*
X140820000Y-87630000D01*
D17*
G04 #@! TO.N,~RESET*
X139220000Y-87460000D02*
X139210000Y-87470000D01*
X139220000Y-85330000D02*
X139220000Y-87460000D01*
D14*
G04 #@! TO.N,+BATT*
X143256000Y-82550000D02*
X142354198Y-82550000D01*
X142354198Y-82550000D02*
X142106356Y-82302158D01*
X142417799Y-82486399D02*
X142417799Y-82467798D01*
X141167825Y-82289999D02*
X141988553Y-82289999D01*
X142417799Y-82467798D02*
X142240000Y-82289999D01*
X140655282Y-82802542D02*
X141167825Y-82289999D01*
X141988553Y-82289999D02*
X142240000Y-82289999D01*
X139615098Y-82802542D02*
X140655282Y-82802542D01*
X142354198Y-82550000D02*
X142417799Y-82486399D01*
D18*
X139531213Y-82802542D02*
X138871883Y-83461872D01*
X137809333Y-83461872D02*
X137557886Y-83461872D01*
X138871883Y-83461872D02*
X137809333Y-83461872D01*
X139615098Y-82802542D02*
X139531213Y-82802542D01*
D19*
G04 #@! TO.N,PB23_S5_SPI_SCK*
X137057591Y-86552409D02*
X137550000Y-86060000D01*
X134216519Y-86552409D02*
X137057591Y-86552409D01*
X133504110Y-85840000D02*
X134216519Y-86552409D01*
D17*
G04 #@! TO.N,PA28_GPIO*
X139291147Y-84448853D02*
X138430000Y-85310000D01*
X139728128Y-84448853D02*
X139291147Y-84448853D01*
X136951286Y-85402592D02*
X137192569Y-85161309D01*
X137192569Y-85161309D02*
X137901309Y-85161309D01*
X137901309Y-85161309D02*
X138050000Y-85310000D01*
X138430000Y-85310000D02*
X138050000Y-85310000D01*
G04 #@! TO.N,BAND_SEL*
X137350000Y-84370000D02*
X137254402Y-84465598D01*
X137829707Y-84370000D02*
X137350000Y-84370000D01*
X137929707Y-84470000D02*
X137829707Y-84370000D01*
X138474427Y-84470000D02*
X137929707Y-84470000D01*
X139595056Y-83349371D02*
X138474427Y-84470000D01*
X135930053Y-84479947D02*
X135600000Y-84810000D01*
X135930053Y-84465598D02*
X135930053Y-84479947D01*
X137254402Y-84465598D02*
X135930053Y-84465598D01*
X140370560Y-78541880D02*
X140370560Y-76743560D01*
X140237000Y-76610000D02*
X139330640Y-76610000D01*
X140370560Y-76743560D02*
X140237000Y-76610000D01*
X140817600Y-78988920D02*
X140370560Y-78541880D01*
X140817600Y-80145965D02*
X140817600Y-78988920D01*
X141095215Y-80423580D02*
X140817600Y-80145965D01*
X139330640Y-76610000D02*
X138805920Y-77134720D01*
X141095215Y-80893915D02*
X141095215Y-80423580D01*
G04 #@! TD*
D20*
G04 #@! TO.N,GND*
G36*
X142264406Y-88074630D02*
X142306575Y-88153523D01*
X142363326Y-88222674D01*
X142397269Y-88250531D01*
X142394201Y-88251141D01*
X142300240Y-88290061D01*
X142215678Y-88346564D01*
X142143764Y-88418478D01*
X142087261Y-88503040D01*
X142048341Y-88597001D01*
X142028500Y-88696749D01*
X142028500Y-88798451D01*
X142048341Y-88898199D01*
X142087261Y-88992160D01*
X142143764Y-89076722D01*
X142215678Y-89148636D01*
X142270100Y-89185000D01*
X141566000Y-89185000D01*
X141566000Y-88745603D01*
X141550628Y-88668324D01*
X141520475Y-88595529D01*
X141476700Y-88530014D01*
X141420985Y-88474299D01*
X141355471Y-88430524D01*
X141282675Y-88400372D01*
X141205396Y-88385000D01*
X140866000Y-88385000D01*
X140766002Y-88484998D01*
X140766002Y-88431919D01*
X140975422Y-88222500D01*
X141811872Y-88222500D01*
X141898924Y-88213926D01*
X142010611Y-88180046D01*
X142113542Y-88125029D01*
X142203761Y-88050987D01*
X142242803Y-88003415D01*
X142264406Y-88074630D01*
X142264406Y-88074630D01*
G37*
X142264406Y-88074630D02*
X142306575Y-88153523D01*
X142363326Y-88222674D01*
X142397269Y-88250531D01*
X142394201Y-88251141D01*
X142300240Y-88290061D01*
X142215678Y-88346564D01*
X142143764Y-88418478D01*
X142087261Y-88503040D01*
X142048341Y-88597001D01*
X142028500Y-88696749D01*
X142028500Y-88798451D01*
X142048341Y-88898199D01*
X142087261Y-88992160D01*
X142143764Y-89076722D01*
X142215678Y-89148636D01*
X142270100Y-89185000D01*
X141566000Y-89185000D01*
X141566000Y-88745603D01*
X141550628Y-88668324D01*
X141520475Y-88595529D01*
X141476700Y-88530014D01*
X141420985Y-88474299D01*
X141355471Y-88430524D01*
X141282675Y-88400372D01*
X141205396Y-88385000D01*
X140866000Y-88385000D01*
X140766002Y-88484998D01*
X140766002Y-88431919D01*
X140975422Y-88222500D01*
X141811872Y-88222500D01*
X141898924Y-88213926D01*
X142010611Y-88180046D01*
X142113542Y-88125029D01*
X142203761Y-88050987D01*
X142242803Y-88003415D01*
X142264406Y-88074630D01*
G36*
X137326000Y-73814397D02*
X137341372Y-73891676D01*
X137371525Y-73964471D01*
X137415300Y-74029986D01*
X137471015Y-74085701D01*
X137536529Y-74129476D01*
X137609325Y-74159628D01*
X137686604Y-74175000D01*
X138026000Y-74175000D01*
X138126000Y-74075000D01*
X138126000Y-73375000D01*
X138226000Y-73375000D01*
X138226000Y-74075000D01*
X138326000Y-74175000D01*
X138665396Y-74175000D01*
X138742675Y-74159628D01*
X138815471Y-74129476D01*
X138880985Y-74085701D01*
X138936700Y-74029986D01*
X138960312Y-73994648D01*
X139001370Y-74016594D01*
X139086974Y-74042562D01*
X139176000Y-74051330D01*
X139716000Y-74051330D01*
X139805026Y-74042562D01*
X139890630Y-74016594D01*
X139931688Y-73994648D01*
X139955300Y-74029986D01*
X140011015Y-74085701D01*
X140076529Y-74129476D01*
X140149325Y-74159628D01*
X140226604Y-74175000D01*
X140566000Y-74175000D01*
X140666000Y-74075000D01*
X140666000Y-73375000D01*
X140766000Y-73375000D01*
X140766000Y-74075000D01*
X140866000Y-74175000D01*
X141205396Y-74175000D01*
X141282675Y-74159628D01*
X141355471Y-74129476D01*
X141420985Y-74085701D01*
X141476700Y-74029986D01*
X141520475Y-73964471D01*
X141550628Y-73891676D01*
X141566000Y-73814397D01*
X141566000Y-73375000D01*
X142906001Y-73375000D01*
X142906001Y-75350000D01*
X142466603Y-75350000D01*
X142389324Y-75365372D01*
X142316529Y-75395525D01*
X142251014Y-75439300D01*
X142195299Y-75495015D01*
X142151524Y-75560529D01*
X142121372Y-75633325D01*
X142106000Y-75710604D01*
X142106000Y-76050000D01*
X142206000Y-76150000D01*
X142906001Y-76150000D01*
X142906001Y-76250000D01*
X142206000Y-76250000D01*
X142106000Y-76350000D01*
X142106000Y-76689396D01*
X142121372Y-76766675D01*
X142151524Y-76839471D01*
X142195299Y-76904985D01*
X142251014Y-76960700D01*
X142286352Y-76984312D01*
X142264406Y-77025370D01*
X142238438Y-77110974D01*
X142229670Y-77200000D01*
X142229670Y-77740000D01*
X142238438Y-77829026D01*
X142264406Y-77914630D01*
X142306575Y-77993523D01*
X142363326Y-78062674D01*
X142414900Y-78105000D01*
X142363326Y-78147326D01*
X142306575Y-78216477D01*
X142264406Y-78295370D01*
X142238438Y-78380974D01*
X142229670Y-78470000D01*
X142229670Y-79010000D01*
X142238438Y-79099026D01*
X142264406Y-79184630D01*
X142306575Y-79263523D01*
X142363326Y-79332674D01*
X142414900Y-79375000D01*
X142363326Y-79417326D01*
X142306575Y-79486477D01*
X142264406Y-79565370D01*
X142238438Y-79650974D01*
X142229670Y-79740000D01*
X142229670Y-80280000D01*
X142238438Y-80369026D01*
X142264406Y-80454630D01*
X142306575Y-80533523D01*
X142363326Y-80602674D01*
X142414900Y-80645000D01*
X142363326Y-80687326D01*
X142306575Y-80756477D01*
X142264406Y-80835370D01*
X142238438Y-80920974D01*
X142229670Y-81010000D01*
X142229670Y-81550000D01*
X142238438Y-81639026D01*
X142264406Y-81724630D01*
X142306575Y-81803523D01*
X142329147Y-81831028D01*
X142262864Y-81824499D01*
X142240000Y-81822247D01*
X142217136Y-81824499D01*
X141190689Y-81824499D01*
X141167824Y-81822247D01*
X141076570Y-81831235D01*
X140988824Y-81857853D01*
X140907956Y-81901077D01*
X140837074Y-81959248D01*
X140822498Y-81977010D01*
X140462466Y-82337042D01*
X140012115Y-82337042D01*
X140022164Y-82303916D01*
X140032378Y-82200214D01*
X140022164Y-82096512D01*
X139991915Y-81996795D01*
X139942794Y-81904896D01*
X139876688Y-81824345D01*
X139796137Y-81758239D01*
X139704238Y-81709118D01*
X139604521Y-81678869D01*
X139526800Y-81671214D01*
X138100663Y-81671214D01*
X138101336Y-81664377D01*
X138091122Y-81560675D01*
X138068069Y-81484680D01*
X138060873Y-81460958D01*
X138035277Y-81413072D01*
X138035277Y-79732078D01*
X138287536Y-79479820D01*
X139352816Y-79479820D01*
X139375680Y-79482072D01*
X139398544Y-79479820D01*
X139466934Y-79473084D01*
X139554681Y-79446466D01*
X139635549Y-79403242D01*
X139706431Y-79345071D01*
X139721016Y-79327299D01*
X140208123Y-78840193D01*
X140491801Y-79123872D01*
X140491800Y-80129965D01*
X140490224Y-80145965D01*
X140491800Y-80161965D01*
X140491800Y-80161967D01*
X140496514Y-80209832D01*
X140515144Y-80271245D01*
X140515145Y-80271246D01*
X140545397Y-80327845D01*
X140565367Y-80352179D01*
X140586110Y-80377455D01*
X140598544Y-80387659D01*
X140769416Y-80558531D01*
X140769416Y-80579358D01*
X140743502Y-80605272D01*
X140693949Y-80679434D01*
X140659816Y-80761838D01*
X140642415Y-80849318D01*
X140642415Y-80938512D01*
X140659816Y-81025992D01*
X140693949Y-81108396D01*
X140743502Y-81182558D01*
X140806572Y-81245628D01*
X140880734Y-81295181D01*
X140963138Y-81329314D01*
X141050618Y-81346715D01*
X141139812Y-81346715D01*
X141227292Y-81329314D01*
X141309696Y-81295181D01*
X141383858Y-81245628D01*
X141446928Y-81182558D01*
X141496481Y-81108396D01*
X141530614Y-81025992D01*
X141548015Y-80938512D01*
X141548015Y-80849318D01*
X141530614Y-80761838D01*
X141496481Y-80679434D01*
X141446928Y-80605272D01*
X141421015Y-80579359D01*
X141421015Y-80439580D01*
X141422591Y-80423580D01*
X141418048Y-80377455D01*
X141416301Y-80359712D01*
X141397671Y-80298299D01*
X141372715Y-80251610D01*
X141367418Y-80241699D01*
X141336906Y-80204520D01*
X141336905Y-80204519D01*
X141326705Y-80192090D01*
X141314276Y-80181890D01*
X141143400Y-80011015D01*
X141143400Y-79004919D01*
X141144976Y-78988919D01*
X141143400Y-78972917D01*
X141138686Y-78925052D01*
X141120056Y-78863639D01*
X141093568Y-78814083D01*
X141089803Y-78807039D01*
X141059291Y-78769860D01*
X141059290Y-78769859D01*
X141049090Y-78757430D01*
X141036661Y-78747230D01*
X140696360Y-78406930D01*
X140696360Y-76759556D01*
X140697936Y-76743559D01*
X140696360Y-76727557D01*
X140691646Y-76679692D01*
X140673016Y-76618279D01*
X140642763Y-76561680D01*
X140602050Y-76512070D01*
X140589611Y-76501862D01*
X140478695Y-76390945D01*
X140468490Y-76378510D01*
X140418880Y-76337797D01*
X140362281Y-76307544D01*
X140300868Y-76288914D01*
X140253003Y-76284200D01*
X140253000Y-76284200D01*
X140237000Y-76282624D01*
X140221000Y-76284200D01*
X139346639Y-76284200D01*
X139330639Y-76282624D01*
X139314639Y-76284200D01*
X139314637Y-76284200D01*
X139266772Y-76288914D01*
X139205359Y-76307544D01*
X139179012Y-76321627D01*
X139148759Y-76337797D01*
X139133890Y-76350000D01*
X139099150Y-76378510D01*
X139088950Y-76390939D01*
X138797970Y-76681920D01*
X138761323Y-76681920D01*
X138673843Y-76699321D01*
X138591439Y-76733454D01*
X138517277Y-76783007D01*
X138454207Y-76846077D01*
X138404654Y-76920239D01*
X138370521Y-77002643D01*
X138353120Y-77090123D01*
X138353120Y-77179317D01*
X138370521Y-77266797D01*
X138404654Y-77349201D01*
X138454207Y-77423363D01*
X138517277Y-77486433D01*
X138591439Y-77535986D01*
X138673843Y-77570119D01*
X138761323Y-77587520D01*
X138850517Y-77587520D01*
X138937997Y-77570119D01*
X139020401Y-77535986D01*
X139043445Y-77520589D01*
X139076077Y-77553221D01*
X139150239Y-77602774D01*
X139232643Y-77636907D01*
X139320123Y-77654308D01*
X139409317Y-77654308D01*
X139474501Y-77641342D01*
X139474500Y-78257184D01*
X139182865Y-78548820D01*
X138117584Y-78548820D01*
X138094720Y-78546568D01*
X138071856Y-78548820D01*
X138003466Y-78555556D01*
X137915719Y-78582174D01*
X137834851Y-78625398D01*
X137763969Y-78683569D01*
X137749388Y-78701336D01*
X137256793Y-79193932D01*
X137239027Y-79208512D01*
X137180856Y-79279394D01*
X137161132Y-79316296D01*
X137137631Y-79360263D01*
X137111013Y-79448009D01*
X137102025Y-79539263D01*
X137104278Y-79562137D01*
X137104278Y-80450759D01*
X136925314Y-80271796D01*
X136908748Y-80251610D01*
X136828197Y-80185504D01*
X136736298Y-80136383D01*
X136636581Y-80106134D01*
X136558860Y-80098479D01*
X136558858Y-80098479D01*
X136532879Y-80095920D01*
X136506900Y-80098479D01*
X135161949Y-80098479D01*
X135135968Y-80095920D01*
X135109987Y-80098479D01*
X135032266Y-80106134D01*
X134932549Y-80136383D01*
X134840650Y-80185504D01*
X134760099Y-80251610D01*
X134743537Y-80271791D01*
X132598817Y-82416512D01*
X132578631Y-82433078D01*
X132512525Y-82513629D01*
X132463404Y-82605528D01*
X132433155Y-82705245D01*
X132425086Y-82787165D01*
X132092500Y-82454579D01*
X132092500Y-81717761D01*
X132098607Y-81715908D01*
X132190506Y-81666787D01*
X132271057Y-81600681D01*
X132287624Y-81580494D01*
X132335682Y-81532436D01*
X132355869Y-81515869D01*
X132421975Y-81435318D01*
X132471096Y-81343419D01*
X132501345Y-81243702D01*
X132511559Y-81140000D01*
X132501345Y-81036298D01*
X132471096Y-80936581D01*
X132421975Y-80844682D01*
X132355869Y-80764131D01*
X132275318Y-80698025D01*
X132183419Y-80648904D01*
X132083702Y-80618655D01*
X132005981Y-80611000D01*
X132005970Y-80611000D01*
X131979999Y-80608442D01*
X131954028Y-80611000D01*
X131729794Y-80611000D01*
X131727837Y-80609954D01*
X131616150Y-80576074D01*
X131529098Y-80567500D01*
X131123902Y-80567500D01*
X131094811Y-80564635D01*
X131065720Y-80567500D01*
X131065714Y-80567500D01*
X130978662Y-80576074D01*
X130866975Y-80609954D01*
X130764044Y-80664971D01*
X130673825Y-80739013D01*
X130673818Y-80739021D01*
X130673810Y-80739028D01*
X130655262Y-80761629D01*
X130655261Y-80761630D01*
X130629791Y-80792666D01*
X130599769Y-80829248D01*
X130544751Y-80932179D01*
X130510871Y-81043865D01*
X130499432Y-81160015D01*
X130502127Y-81187384D01*
X130498441Y-81224812D01*
X130508655Y-81328514D01*
X130538904Y-81428231D01*
X130588025Y-81520130D01*
X130654131Y-81600681D01*
X130734682Y-81666787D01*
X130796909Y-81700048D01*
X130907500Y-81810639D01*
X130907501Y-82670900D01*
X130904635Y-82700000D01*
X130916074Y-82816150D01*
X130949954Y-82927836D01*
X130975565Y-82975750D01*
X131004972Y-83030768D01*
X131033631Y-83065689D01*
X131060464Y-83098385D01*
X131060468Y-83098389D01*
X131079014Y-83120987D01*
X131101612Y-83139533D01*
X131561601Y-83599523D01*
X131561601Y-83965010D01*
X131558736Y-83994101D01*
X131561601Y-84023192D01*
X131561601Y-84023199D01*
X131570175Y-84110251D01*
X131604055Y-84221938D01*
X131659073Y-84324869D01*
X131675364Y-84344719D01*
X131714565Y-84392486D01*
X131714569Y-84392490D01*
X131733115Y-84415088D01*
X131755713Y-84433634D01*
X132094644Y-84772565D01*
X132015061Y-84739601D01*
X131927581Y-84722200D01*
X131838387Y-84722200D01*
X131750907Y-84739601D01*
X131668503Y-84773734D01*
X131594341Y-84823287D01*
X131531271Y-84886357D01*
X131481718Y-84960519D01*
X131447585Y-85042923D01*
X131430184Y-85130403D01*
X131430184Y-85219597D01*
X131447585Y-85307077D01*
X131481718Y-85389481D01*
X131531271Y-85463643D01*
X131594341Y-85526713D01*
X131668503Y-85576266D01*
X131750907Y-85610399D01*
X131838387Y-85627800D01*
X131927581Y-85627800D01*
X132015061Y-85610399D01*
X132097465Y-85576266D01*
X132171627Y-85526713D01*
X132217500Y-85480840D01*
X132217499Y-86191708D01*
X132214634Y-86220799D01*
X132217499Y-86249890D01*
X132217499Y-86249896D01*
X132220011Y-86275399D01*
X132226073Y-86336949D01*
X132234109Y-86363439D01*
X132259953Y-86448635D01*
X132314970Y-86551566D01*
X132389012Y-86641786D01*
X132411616Y-86660337D01*
X133406419Y-87655140D01*
X133405977Y-87659629D01*
X133408842Y-87688720D01*
X133408842Y-87688726D01*
X133413124Y-87732203D01*
X133417416Y-87775779D01*
X133428831Y-87813408D01*
X133451296Y-87887465D01*
X133506313Y-87990396D01*
X133580355Y-88080616D01*
X133602958Y-88099166D01*
X134019951Y-88516160D01*
X134006974Y-88517438D01*
X133921370Y-88543406D01*
X133842477Y-88585575D01*
X133773326Y-88642326D01*
X133731000Y-88693900D01*
X133688674Y-88642326D01*
X133619523Y-88585575D01*
X133540630Y-88543406D01*
X133455026Y-88517438D01*
X133366000Y-88508670D01*
X132826000Y-88508670D01*
X132736974Y-88517438D01*
X132651370Y-88543406D01*
X132572477Y-88585575D01*
X132503326Y-88642326D01*
X132461000Y-88693900D01*
X132418674Y-88642326D01*
X132349523Y-88585575D01*
X132270630Y-88543406D01*
X132185026Y-88517438D01*
X132096000Y-88508670D01*
X131556000Y-88508670D01*
X131466974Y-88517438D01*
X131381370Y-88543406D01*
X131302477Y-88585575D01*
X131233326Y-88642326D01*
X131176575Y-88711477D01*
X131134406Y-88790370D01*
X131108438Y-88875974D01*
X131099670Y-88965000D01*
X131099670Y-89185000D01*
X129636000Y-89185000D01*
X129636000Y-88356330D01*
X129856000Y-88356330D01*
X129945026Y-88347562D01*
X130030630Y-88321594D01*
X130109523Y-88279425D01*
X130178674Y-88222674D01*
X130235425Y-88153523D01*
X130277594Y-88074630D01*
X130303562Y-87989026D01*
X130312330Y-87900000D01*
X130312330Y-87360000D01*
X130303562Y-87270974D01*
X130277594Y-87185370D01*
X130235425Y-87106477D01*
X130178674Y-87037326D01*
X130127100Y-86995000D01*
X130178674Y-86952674D01*
X130235425Y-86883523D01*
X130277594Y-86804630D01*
X130303562Y-86719026D01*
X130312330Y-86630000D01*
X130312330Y-86090000D01*
X130303562Y-86000974D01*
X130277594Y-85915370D01*
X130235425Y-85836477D01*
X130178674Y-85767326D01*
X130127100Y-85725000D01*
X130178674Y-85682674D01*
X130235425Y-85613523D01*
X130277594Y-85534630D01*
X130303562Y-85449026D01*
X130312330Y-85360000D01*
X130312330Y-84820000D01*
X130303562Y-84730974D01*
X130277594Y-84645370D01*
X130235425Y-84566477D01*
X130178674Y-84497326D01*
X130127100Y-84455000D01*
X130178674Y-84412674D01*
X130235425Y-84343523D01*
X130277594Y-84264630D01*
X130303562Y-84179026D01*
X130312330Y-84090000D01*
X130312330Y-83550000D01*
X130303562Y-83460974D01*
X130277594Y-83375370D01*
X130235425Y-83296477D01*
X130178674Y-83227326D01*
X130127100Y-83185000D01*
X130178674Y-83142674D01*
X130235425Y-83073523D01*
X130277594Y-82994630D01*
X130303562Y-82909026D01*
X130312330Y-82820000D01*
X130312330Y-82280000D01*
X130303562Y-82190974D01*
X130277594Y-82105370D01*
X130235425Y-82026477D01*
X130178674Y-81957326D01*
X130127100Y-81915000D01*
X130178674Y-81872674D01*
X130235425Y-81803523D01*
X130277594Y-81724630D01*
X130303562Y-81639026D01*
X130312330Y-81550000D01*
X130312330Y-81010000D01*
X130303562Y-80920974D01*
X130277594Y-80835370D01*
X130235425Y-80756477D01*
X130178674Y-80687326D01*
X130127100Y-80645000D01*
X130178674Y-80602674D01*
X130235425Y-80533523D01*
X130277594Y-80454630D01*
X130303562Y-80369026D01*
X130312330Y-80280000D01*
X130312330Y-79740000D01*
X130303562Y-79650974D01*
X130277594Y-79565370D01*
X130235425Y-79486477D01*
X130178674Y-79417326D01*
X130127100Y-79375000D01*
X130178674Y-79332674D01*
X130235425Y-79263523D01*
X130277594Y-79184630D01*
X130303562Y-79099026D01*
X130312330Y-79010000D01*
X130312330Y-78470000D01*
X130303562Y-78380974D01*
X130277594Y-78295370D01*
X130235425Y-78216477D01*
X130178674Y-78147326D01*
X130127100Y-78105000D01*
X130178674Y-78062674D01*
X130235425Y-77993523D01*
X130277594Y-77914630D01*
X130303562Y-77829026D01*
X130312330Y-77740000D01*
X130312330Y-77200000D01*
X130303562Y-77110974D01*
X130277594Y-77025370D01*
X130255648Y-76984312D01*
X130290986Y-76960700D01*
X130346701Y-76904985D01*
X130390476Y-76839471D01*
X130420628Y-76766675D01*
X130436000Y-76689396D01*
X130436000Y-76350000D01*
X130336000Y-76250000D01*
X129636000Y-76250000D01*
X129636000Y-76150000D01*
X130336000Y-76150000D01*
X130436000Y-76050000D01*
X130436000Y-75710604D01*
X130420628Y-75633325D01*
X130390476Y-75560529D01*
X130346701Y-75495015D01*
X130290986Y-75439300D01*
X130225471Y-75395525D01*
X130152676Y-75365372D01*
X130075397Y-75350000D01*
X129636000Y-75350000D01*
X129636000Y-73375000D01*
X137326000Y-73375000D01*
X137326000Y-73814397D01*
X137326000Y-73814397D01*
G37*
X137326000Y-73814397D02*
X137341372Y-73891676D01*
X137371525Y-73964471D01*
X137415300Y-74029986D01*
X137471015Y-74085701D01*
X137536529Y-74129476D01*
X137609325Y-74159628D01*
X137686604Y-74175000D01*
X138026000Y-74175000D01*
X138126000Y-74075000D01*
X138126000Y-73375000D01*
X138226000Y-73375000D01*
X138226000Y-74075000D01*
X138326000Y-74175000D01*
X138665396Y-74175000D01*
X138742675Y-74159628D01*
X138815471Y-74129476D01*
X138880985Y-74085701D01*
X138936700Y-74029986D01*
X138960312Y-73994648D01*
X139001370Y-74016594D01*
X139086974Y-74042562D01*
X139176000Y-74051330D01*
X139716000Y-74051330D01*
X139805026Y-74042562D01*
X139890630Y-74016594D01*
X139931688Y-73994648D01*
X139955300Y-74029986D01*
X140011015Y-74085701D01*
X140076529Y-74129476D01*
X140149325Y-74159628D01*
X140226604Y-74175000D01*
X140566000Y-74175000D01*
X140666000Y-74075000D01*
X140666000Y-73375000D01*
X140766000Y-73375000D01*
X140766000Y-74075000D01*
X140866000Y-74175000D01*
X141205396Y-74175000D01*
X141282675Y-74159628D01*
X141355471Y-74129476D01*
X141420985Y-74085701D01*
X141476700Y-74029986D01*
X141520475Y-73964471D01*
X141550628Y-73891676D01*
X141566000Y-73814397D01*
X141566000Y-73375000D01*
X142906001Y-73375000D01*
X142906001Y-75350000D01*
X142466603Y-75350000D01*
X142389324Y-75365372D01*
X142316529Y-75395525D01*
X142251014Y-75439300D01*
X142195299Y-75495015D01*
X142151524Y-75560529D01*
X142121372Y-75633325D01*
X142106000Y-75710604D01*
X142106000Y-76050000D01*
X142206000Y-76150000D01*
X142906001Y-76150000D01*
X142906001Y-76250000D01*
X142206000Y-76250000D01*
X142106000Y-76350000D01*
X142106000Y-76689396D01*
X142121372Y-76766675D01*
X142151524Y-76839471D01*
X142195299Y-76904985D01*
X142251014Y-76960700D01*
X142286352Y-76984312D01*
X142264406Y-77025370D01*
X142238438Y-77110974D01*
X142229670Y-77200000D01*
X142229670Y-77740000D01*
X142238438Y-77829026D01*
X142264406Y-77914630D01*
X142306575Y-77993523D01*
X142363326Y-78062674D01*
X142414900Y-78105000D01*
X142363326Y-78147326D01*
X142306575Y-78216477D01*
X142264406Y-78295370D01*
X142238438Y-78380974D01*
X142229670Y-78470000D01*
X142229670Y-79010000D01*
X142238438Y-79099026D01*
X142264406Y-79184630D01*
X142306575Y-79263523D01*
X142363326Y-79332674D01*
X142414900Y-79375000D01*
X142363326Y-79417326D01*
X142306575Y-79486477D01*
X142264406Y-79565370D01*
X142238438Y-79650974D01*
X142229670Y-79740000D01*
X142229670Y-80280000D01*
X142238438Y-80369026D01*
X142264406Y-80454630D01*
X142306575Y-80533523D01*
X142363326Y-80602674D01*
X142414900Y-80645000D01*
X142363326Y-80687326D01*
X142306575Y-80756477D01*
X142264406Y-80835370D01*
X142238438Y-80920974D01*
X142229670Y-81010000D01*
X142229670Y-81550000D01*
X142238438Y-81639026D01*
X142264406Y-81724630D01*
X142306575Y-81803523D01*
X142329147Y-81831028D01*
X142262864Y-81824499D01*
X142240000Y-81822247D01*
X142217136Y-81824499D01*
X141190689Y-81824499D01*
X141167824Y-81822247D01*
X141076570Y-81831235D01*
X140988824Y-81857853D01*
X140907956Y-81901077D01*
X140837074Y-81959248D01*
X140822498Y-81977010D01*
X140462466Y-82337042D01*
X140012115Y-82337042D01*
X140022164Y-82303916D01*
X140032378Y-82200214D01*
X140022164Y-82096512D01*
X139991915Y-81996795D01*
X139942794Y-81904896D01*
X139876688Y-81824345D01*
X139796137Y-81758239D01*
X139704238Y-81709118D01*
X139604521Y-81678869D01*
X139526800Y-81671214D01*
X138100663Y-81671214D01*
X138101336Y-81664377D01*
X138091122Y-81560675D01*
X138068069Y-81484680D01*
X138060873Y-81460958D01*
X138035277Y-81413072D01*
X138035277Y-79732078D01*
X138287536Y-79479820D01*
X139352816Y-79479820D01*
X139375680Y-79482072D01*
X139398544Y-79479820D01*
X139466934Y-79473084D01*
X139554681Y-79446466D01*
X139635549Y-79403242D01*
X139706431Y-79345071D01*
X139721016Y-79327299D01*
X140208123Y-78840193D01*
X140491801Y-79123872D01*
X140491800Y-80129965D01*
X140490224Y-80145965D01*
X140491800Y-80161965D01*
X140491800Y-80161967D01*
X140496514Y-80209832D01*
X140515144Y-80271245D01*
X140515145Y-80271246D01*
X140545397Y-80327845D01*
X140565367Y-80352179D01*
X140586110Y-80377455D01*
X140598544Y-80387659D01*
X140769416Y-80558531D01*
X140769416Y-80579358D01*
X140743502Y-80605272D01*
X140693949Y-80679434D01*
X140659816Y-80761838D01*
X140642415Y-80849318D01*
X140642415Y-80938512D01*
X140659816Y-81025992D01*
X140693949Y-81108396D01*
X140743502Y-81182558D01*
X140806572Y-81245628D01*
X140880734Y-81295181D01*
X140963138Y-81329314D01*
X141050618Y-81346715D01*
X141139812Y-81346715D01*
X141227292Y-81329314D01*
X141309696Y-81295181D01*
X141383858Y-81245628D01*
X141446928Y-81182558D01*
X141496481Y-81108396D01*
X141530614Y-81025992D01*
X141548015Y-80938512D01*
X141548015Y-80849318D01*
X141530614Y-80761838D01*
X141496481Y-80679434D01*
X141446928Y-80605272D01*
X141421015Y-80579359D01*
X141421015Y-80439580D01*
X141422591Y-80423580D01*
X141418048Y-80377455D01*
X141416301Y-80359712D01*
X141397671Y-80298299D01*
X141372715Y-80251610D01*
X141367418Y-80241699D01*
X141336906Y-80204520D01*
X141336905Y-80204519D01*
X141326705Y-80192090D01*
X141314276Y-80181890D01*
X141143400Y-80011015D01*
X141143400Y-79004919D01*
X141144976Y-78988919D01*
X141143400Y-78972917D01*
X141138686Y-78925052D01*
X141120056Y-78863639D01*
X141093568Y-78814083D01*
X141089803Y-78807039D01*
X141059291Y-78769860D01*
X141059290Y-78769859D01*
X141049090Y-78757430D01*
X141036661Y-78747230D01*
X140696360Y-78406930D01*
X140696360Y-76759556D01*
X140697936Y-76743559D01*
X140696360Y-76727557D01*
X140691646Y-76679692D01*
X140673016Y-76618279D01*
X140642763Y-76561680D01*
X140602050Y-76512070D01*
X140589611Y-76501862D01*
X140478695Y-76390945D01*
X140468490Y-76378510D01*
X140418880Y-76337797D01*
X140362281Y-76307544D01*
X140300868Y-76288914D01*
X140253003Y-76284200D01*
X140253000Y-76284200D01*
X140237000Y-76282624D01*
X140221000Y-76284200D01*
X139346639Y-76284200D01*
X139330639Y-76282624D01*
X139314639Y-76284200D01*
X139314637Y-76284200D01*
X139266772Y-76288914D01*
X139205359Y-76307544D01*
X139179012Y-76321627D01*
X139148759Y-76337797D01*
X139133890Y-76350000D01*
X139099150Y-76378510D01*
X139088950Y-76390939D01*
X138797970Y-76681920D01*
X138761323Y-76681920D01*
X138673843Y-76699321D01*
X138591439Y-76733454D01*
X138517277Y-76783007D01*
X138454207Y-76846077D01*
X138404654Y-76920239D01*
X138370521Y-77002643D01*
X138353120Y-77090123D01*
X138353120Y-77179317D01*
X138370521Y-77266797D01*
X138404654Y-77349201D01*
X138454207Y-77423363D01*
X138517277Y-77486433D01*
X138591439Y-77535986D01*
X138673843Y-77570119D01*
X138761323Y-77587520D01*
X138850517Y-77587520D01*
X138937997Y-77570119D01*
X139020401Y-77535986D01*
X139043445Y-77520589D01*
X139076077Y-77553221D01*
X139150239Y-77602774D01*
X139232643Y-77636907D01*
X139320123Y-77654308D01*
X139409317Y-77654308D01*
X139474501Y-77641342D01*
X139474500Y-78257184D01*
X139182865Y-78548820D01*
X138117584Y-78548820D01*
X138094720Y-78546568D01*
X138071856Y-78548820D01*
X138003466Y-78555556D01*
X137915719Y-78582174D01*
X137834851Y-78625398D01*
X137763969Y-78683569D01*
X137749388Y-78701336D01*
X137256793Y-79193932D01*
X137239027Y-79208512D01*
X137180856Y-79279394D01*
X137161132Y-79316296D01*
X137137631Y-79360263D01*
X137111013Y-79448009D01*
X137102025Y-79539263D01*
X137104278Y-79562137D01*
X137104278Y-80450759D01*
X136925314Y-80271796D01*
X136908748Y-80251610D01*
X136828197Y-80185504D01*
X136736298Y-80136383D01*
X136636581Y-80106134D01*
X136558860Y-80098479D01*
X136558858Y-80098479D01*
X136532879Y-80095920D01*
X136506900Y-80098479D01*
X135161949Y-80098479D01*
X135135968Y-80095920D01*
X135109987Y-80098479D01*
X135032266Y-80106134D01*
X134932549Y-80136383D01*
X134840650Y-80185504D01*
X134760099Y-80251610D01*
X134743537Y-80271791D01*
X132598817Y-82416512D01*
X132578631Y-82433078D01*
X132512525Y-82513629D01*
X132463404Y-82605528D01*
X132433155Y-82705245D01*
X132425086Y-82787165D01*
X132092500Y-82454579D01*
X132092500Y-81717761D01*
X132098607Y-81715908D01*
X132190506Y-81666787D01*
X132271057Y-81600681D01*
X132287624Y-81580494D01*
X132335682Y-81532436D01*
X132355869Y-81515869D01*
X132421975Y-81435318D01*
X132471096Y-81343419D01*
X132501345Y-81243702D01*
X132511559Y-81140000D01*
X132501345Y-81036298D01*
X132471096Y-80936581D01*
X132421975Y-80844682D01*
X132355869Y-80764131D01*
X132275318Y-80698025D01*
X132183419Y-80648904D01*
X132083702Y-80618655D01*
X132005981Y-80611000D01*
X132005970Y-80611000D01*
X131979999Y-80608442D01*
X131954028Y-80611000D01*
X131729794Y-80611000D01*
X131727837Y-80609954D01*
X131616150Y-80576074D01*
X131529098Y-80567500D01*
X131123902Y-80567500D01*
X131094811Y-80564635D01*
X131065720Y-80567500D01*
X131065714Y-80567500D01*
X130978662Y-80576074D01*
X130866975Y-80609954D01*
X130764044Y-80664971D01*
X130673825Y-80739013D01*
X130673818Y-80739021D01*
X130673810Y-80739028D01*
X130655262Y-80761629D01*
X130655261Y-80761630D01*
X130629791Y-80792666D01*
X130599769Y-80829248D01*
X130544751Y-80932179D01*
X130510871Y-81043865D01*
X130499432Y-81160015D01*
X130502127Y-81187384D01*
X130498441Y-81224812D01*
X130508655Y-81328514D01*
X130538904Y-81428231D01*
X130588025Y-81520130D01*
X130654131Y-81600681D01*
X130734682Y-81666787D01*
X130796909Y-81700048D01*
X130907500Y-81810639D01*
X130907501Y-82670900D01*
X130904635Y-82700000D01*
X130916074Y-82816150D01*
X130949954Y-82927836D01*
X130975565Y-82975750D01*
X131004972Y-83030768D01*
X131033631Y-83065689D01*
X131060464Y-83098385D01*
X131060468Y-83098389D01*
X131079014Y-83120987D01*
X131101612Y-83139533D01*
X131561601Y-83599523D01*
X131561601Y-83965010D01*
X131558736Y-83994101D01*
X131561601Y-84023192D01*
X131561601Y-84023199D01*
X131570175Y-84110251D01*
X131604055Y-84221938D01*
X131659073Y-84324869D01*
X131675364Y-84344719D01*
X131714565Y-84392486D01*
X131714569Y-84392490D01*
X131733115Y-84415088D01*
X131755713Y-84433634D01*
X132094644Y-84772565D01*
X132015061Y-84739601D01*
X131927581Y-84722200D01*
X131838387Y-84722200D01*
X131750907Y-84739601D01*
X131668503Y-84773734D01*
X131594341Y-84823287D01*
X131531271Y-84886357D01*
X131481718Y-84960519D01*
X131447585Y-85042923D01*
X131430184Y-85130403D01*
X131430184Y-85219597D01*
X131447585Y-85307077D01*
X131481718Y-85389481D01*
X131531271Y-85463643D01*
X131594341Y-85526713D01*
X131668503Y-85576266D01*
X131750907Y-85610399D01*
X131838387Y-85627800D01*
X131927581Y-85627800D01*
X132015061Y-85610399D01*
X132097465Y-85576266D01*
X132171627Y-85526713D01*
X132217500Y-85480840D01*
X132217499Y-86191708D01*
X132214634Y-86220799D01*
X132217499Y-86249890D01*
X132217499Y-86249896D01*
X132220011Y-86275399D01*
X132226073Y-86336949D01*
X132234109Y-86363439D01*
X132259953Y-86448635D01*
X132314970Y-86551566D01*
X132389012Y-86641786D01*
X132411616Y-86660337D01*
X133406419Y-87655140D01*
X133405977Y-87659629D01*
X133408842Y-87688720D01*
X133408842Y-87688726D01*
X133413124Y-87732203D01*
X133417416Y-87775779D01*
X133428831Y-87813408D01*
X133451296Y-87887465D01*
X133506313Y-87990396D01*
X133580355Y-88080616D01*
X133602958Y-88099166D01*
X134019951Y-88516160D01*
X134006974Y-88517438D01*
X133921370Y-88543406D01*
X133842477Y-88585575D01*
X133773326Y-88642326D01*
X133731000Y-88693900D01*
X133688674Y-88642326D01*
X133619523Y-88585575D01*
X133540630Y-88543406D01*
X133455026Y-88517438D01*
X133366000Y-88508670D01*
X132826000Y-88508670D01*
X132736974Y-88517438D01*
X132651370Y-88543406D01*
X132572477Y-88585575D01*
X132503326Y-88642326D01*
X132461000Y-88693900D01*
X132418674Y-88642326D01*
X132349523Y-88585575D01*
X132270630Y-88543406D01*
X132185026Y-88517438D01*
X132096000Y-88508670D01*
X131556000Y-88508670D01*
X131466974Y-88517438D01*
X131381370Y-88543406D01*
X131302477Y-88585575D01*
X131233326Y-88642326D01*
X131176575Y-88711477D01*
X131134406Y-88790370D01*
X131108438Y-88875974D01*
X131099670Y-88965000D01*
X131099670Y-89185000D01*
X129636000Y-89185000D01*
X129636000Y-88356330D01*
X129856000Y-88356330D01*
X129945026Y-88347562D01*
X130030630Y-88321594D01*
X130109523Y-88279425D01*
X130178674Y-88222674D01*
X130235425Y-88153523D01*
X130277594Y-88074630D01*
X130303562Y-87989026D01*
X130312330Y-87900000D01*
X130312330Y-87360000D01*
X130303562Y-87270974D01*
X130277594Y-87185370D01*
X130235425Y-87106477D01*
X130178674Y-87037326D01*
X130127100Y-86995000D01*
X130178674Y-86952674D01*
X130235425Y-86883523D01*
X130277594Y-86804630D01*
X130303562Y-86719026D01*
X130312330Y-86630000D01*
X130312330Y-86090000D01*
X130303562Y-86000974D01*
X130277594Y-85915370D01*
X130235425Y-85836477D01*
X130178674Y-85767326D01*
X130127100Y-85725000D01*
X130178674Y-85682674D01*
X130235425Y-85613523D01*
X130277594Y-85534630D01*
X130303562Y-85449026D01*
X130312330Y-85360000D01*
X130312330Y-84820000D01*
X130303562Y-84730974D01*
X130277594Y-84645370D01*
X130235425Y-84566477D01*
X130178674Y-84497326D01*
X130127100Y-84455000D01*
X130178674Y-84412674D01*
X130235425Y-84343523D01*
X130277594Y-84264630D01*
X130303562Y-84179026D01*
X130312330Y-84090000D01*
X130312330Y-83550000D01*
X130303562Y-83460974D01*
X130277594Y-83375370D01*
X130235425Y-83296477D01*
X130178674Y-83227326D01*
X130127100Y-83185000D01*
X130178674Y-83142674D01*
X130235425Y-83073523D01*
X130277594Y-82994630D01*
X130303562Y-82909026D01*
X130312330Y-82820000D01*
X130312330Y-82280000D01*
X130303562Y-82190974D01*
X130277594Y-82105370D01*
X130235425Y-82026477D01*
X130178674Y-81957326D01*
X130127100Y-81915000D01*
X130178674Y-81872674D01*
X130235425Y-81803523D01*
X130277594Y-81724630D01*
X130303562Y-81639026D01*
X130312330Y-81550000D01*
X130312330Y-81010000D01*
X130303562Y-80920974D01*
X130277594Y-80835370D01*
X130235425Y-80756477D01*
X130178674Y-80687326D01*
X130127100Y-80645000D01*
X130178674Y-80602674D01*
X130235425Y-80533523D01*
X130277594Y-80454630D01*
X130303562Y-80369026D01*
X130312330Y-80280000D01*
X130312330Y-79740000D01*
X130303562Y-79650974D01*
X130277594Y-79565370D01*
X130235425Y-79486477D01*
X130178674Y-79417326D01*
X130127100Y-79375000D01*
X130178674Y-79332674D01*
X130235425Y-79263523D01*
X130277594Y-79184630D01*
X130303562Y-79099026D01*
X130312330Y-79010000D01*
X130312330Y-78470000D01*
X130303562Y-78380974D01*
X130277594Y-78295370D01*
X130235425Y-78216477D01*
X130178674Y-78147326D01*
X130127100Y-78105000D01*
X130178674Y-78062674D01*
X130235425Y-77993523D01*
X130277594Y-77914630D01*
X130303562Y-77829026D01*
X130312330Y-77740000D01*
X130312330Y-77200000D01*
X130303562Y-77110974D01*
X130277594Y-77025370D01*
X130255648Y-76984312D01*
X130290986Y-76960700D01*
X130346701Y-76904985D01*
X130390476Y-76839471D01*
X130420628Y-76766675D01*
X130436000Y-76689396D01*
X130436000Y-76350000D01*
X130336000Y-76250000D01*
X129636000Y-76250000D01*
X129636000Y-76150000D01*
X130336000Y-76150000D01*
X130436000Y-76050000D01*
X130436000Y-75710604D01*
X130420628Y-75633325D01*
X130390476Y-75560529D01*
X130346701Y-75495015D01*
X130290986Y-75439300D01*
X130225471Y-75395525D01*
X130152676Y-75365372D01*
X130075397Y-75350000D01*
X129636000Y-75350000D01*
X129636000Y-73375000D01*
X137326000Y-73375000D01*
X137326000Y-73814397D01*
G36*
X142008862Y-82862979D02*
X142023447Y-82880751D01*
X142094329Y-82938922D01*
X142174067Y-82981542D01*
X142175197Y-82982146D01*
X142259440Y-83007701D01*
X142262944Y-83008764D01*
X142272462Y-83009701D01*
X142306575Y-83073523D01*
X142363326Y-83142674D01*
X142414900Y-83185000D01*
X142363326Y-83227326D01*
X142306575Y-83296477D01*
X142264406Y-83375370D01*
X142238438Y-83460974D01*
X142229670Y-83550000D01*
X142229670Y-84090000D01*
X142238438Y-84179026D01*
X142264406Y-84264630D01*
X142306575Y-84343523D01*
X142363326Y-84412674D01*
X142414900Y-84455000D01*
X142363326Y-84497326D01*
X142306575Y-84566477D01*
X142264406Y-84645370D01*
X142238438Y-84730974D01*
X142229670Y-84820000D01*
X142229670Y-85360000D01*
X142238438Y-85449026D01*
X142264406Y-85534630D01*
X142306575Y-85613523D01*
X142363326Y-85682674D01*
X142414900Y-85725000D01*
X142363326Y-85767326D01*
X142306575Y-85836477D01*
X142264406Y-85915370D01*
X142238438Y-86000974D01*
X142229670Y-86090000D01*
X142229670Y-86630000D01*
X142238438Y-86719026D01*
X142264406Y-86804630D01*
X142306575Y-86883523D01*
X142363326Y-86952674D01*
X142414900Y-86995000D01*
X142363326Y-87037326D01*
X142306575Y-87106477D01*
X142264406Y-87185370D01*
X142242803Y-87256585D01*
X142203761Y-87209013D01*
X142113542Y-87134971D01*
X142010611Y-87079954D01*
X141898924Y-87046074D01*
X141811872Y-87037500D01*
X141056033Y-87037500D01*
X141040767Y-87024972D01*
X140937836Y-86969954D01*
X140826150Y-86936074D01*
X140710000Y-86924635D01*
X140593850Y-86936074D01*
X140482164Y-86969954D01*
X140379232Y-87024972D01*
X140311614Y-87080464D01*
X140311608Y-87080470D01*
X140289013Y-87099013D01*
X140270469Y-87121609D01*
X139670478Y-87721601D01*
X139586463Y-87721601D01*
X139611266Y-87684481D01*
X139645399Y-87602077D01*
X139662800Y-87514597D01*
X139662800Y-87425403D01*
X139645399Y-87337923D01*
X139611266Y-87255519D01*
X139561713Y-87181357D01*
X139545800Y-87165444D01*
X139545800Y-85644556D01*
X139571713Y-85618643D01*
X139621266Y-85544481D01*
X139655399Y-85462077D01*
X139672800Y-85374597D01*
X139672800Y-85285403D01*
X139655399Y-85197923D01*
X139621266Y-85115519D01*
X139571713Y-85041357D01*
X139508643Y-84978287D01*
X139434481Y-84928734D01*
X139352077Y-84894601D01*
X139313770Y-84886981D01*
X139419835Y-84780916D01*
X139439485Y-84800566D01*
X139513647Y-84850119D01*
X139596051Y-84884252D01*
X139683531Y-84901653D01*
X139772725Y-84901653D01*
X139860205Y-84884252D01*
X139942609Y-84850119D01*
X140016771Y-84800566D01*
X140079841Y-84737496D01*
X140129394Y-84663334D01*
X140163527Y-84580930D01*
X140180928Y-84493450D01*
X140180928Y-84404256D01*
X140163527Y-84316776D01*
X140129394Y-84234372D01*
X140079841Y-84160210D01*
X140016771Y-84097140D01*
X139942609Y-84047587D01*
X139860205Y-84013454D01*
X139772725Y-83996053D01*
X139683531Y-83996053D01*
X139596051Y-84013454D01*
X139513647Y-84047587D01*
X139439485Y-84097140D01*
X139413572Y-84123053D01*
X139307147Y-84123053D01*
X139291147Y-84121477D01*
X139282887Y-84122291D01*
X139603007Y-83802171D01*
X139639653Y-83802171D01*
X139727133Y-83784770D01*
X139809537Y-83750637D01*
X139883699Y-83701084D01*
X139946769Y-83638014D01*
X139996322Y-83563852D01*
X140030455Y-83481448D01*
X140047856Y-83393968D01*
X140047856Y-83304774D01*
X140040549Y-83268042D01*
X140632418Y-83268042D01*
X140655282Y-83270294D01*
X140678146Y-83268042D01*
X140683020Y-83267562D01*
X140746536Y-83261306D01*
X140834283Y-83234688D01*
X140915151Y-83191464D01*
X140986033Y-83133293D01*
X141000618Y-83115522D01*
X141360641Y-82755499D01*
X141901382Y-82755499D01*
X142008862Y-82862979D01*
X142008862Y-82862979D01*
G37*
X142008862Y-82862979D02*
X142023447Y-82880751D01*
X142094329Y-82938922D01*
X142174067Y-82981542D01*
X142175197Y-82982146D01*
X142259440Y-83007701D01*
X142262944Y-83008764D01*
X142272462Y-83009701D01*
X142306575Y-83073523D01*
X142363326Y-83142674D01*
X142414900Y-83185000D01*
X142363326Y-83227326D01*
X142306575Y-83296477D01*
X142264406Y-83375370D01*
X142238438Y-83460974D01*
X142229670Y-83550000D01*
X142229670Y-84090000D01*
X142238438Y-84179026D01*
X142264406Y-84264630D01*
X142306575Y-84343523D01*
X142363326Y-84412674D01*
X142414900Y-84455000D01*
X142363326Y-84497326D01*
X142306575Y-84566477D01*
X142264406Y-84645370D01*
X142238438Y-84730974D01*
X142229670Y-84820000D01*
X142229670Y-85360000D01*
X142238438Y-85449026D01*
X142264406Y-85534630D01*
X142306575Y-85613523D01*
X142363326Y-85682674D01*
X142414900Y-85725000D01*
X142363326Y-85767326D01*
X142306575Y-85836477D01*
X142264406Y-85915370D01*
X142238438Y-86000974D01*
X142229670Y-86090000D01*
X142229670Y-86630000D01*
X142238438Y-86719026D01*
X142264406Y-86804630D01*
X142306575Y-86883523D01*
X142363326Y-86952674D01*
X142414900Y-86995000D01*
X142363326Y-87037326D01*
X142306575Y-87106477D01*
X142264406Y-87185370D01*
X142242803Y-87256585D01*
X142203761Y-87209013D01*
X142113542Y-87134971D01*
X142010611Y-87079954D01*
X141898924Y-87046074D01*
X141811872Y-87037500D01*
X141056033Y-87037500D01*
X141040767Y-87024972D01*
X140937836Y-86969954D01*
X140826150Y-86936074D01*
X140710000Y-86924635D01*
X140593850Y-86936074D01*
X140482164Y-86969954D01*
X140379232Y-87024972D01*
X140311614Y-87080464D01*
X140311608Y-87080470D01*
X140289013Y-87099013D01*
X140270469Y-87121609D01*
X139670478Y-87721601D01*
X139586463Y-87721601D01*
X139611266Y-87684481D01*
X139645399Y-87602077D01*
X139662800Y-87514597D01*
X139662800Y-87425403D01*
X139645399Y-87337923D01*
X139611266Y-87255519D01*
X139561713Y-87181357D01*
X139545800Y-87165444D01*
X139545800Y-85644556D01*
X139571713Y-85618643D01*
X139621266Y-85544481D01*
X139655399Y-85462077D01*
X139672800Y-85374597D01*
X139672800Y-85285403D01*
X139655399Y-85197923D01*
X139621266Y-85115519D01*
X139571713Y-85041357D01*
X139508643Y-84978287D01*
X139434481Y-84928734D01*
X139352077Y-84894601D01*
X139313770Y-84886981D01*
X139419835Y-84780916D01*
X139439485Y-84800566D01*
X139513647Y-84850119D01*
X139596051Y-84884252D01*
X139683531Y-84901653D01*
X139772725Y-84901653D01*
X139860205Y-84884252D01*
X139942609Y-84850119D01*
X140016771Y-84800566D01*
X140079841Y-84737496D01*
X140129394Y-84663334D01*
X140163527Y-84580930D01*
X140180928Y-84493450D01*
X140180928Y-84404256D01*
X140163527Y-84316776D01*
X140129394Y-84234372D01*
X140079841Y-84160210D01*
X140016771Y-84097140D01*
X139942609Y-84047587D01*
X139860205Y-84013454D01*
X139772725Y-83996053D01*
X139683531Y-83996053D01*
X139596051Y-84013454D01*
X139513647Y-84047587D01*
X139439485Y-84097140D01*
X139413572Y-84123053D01*
X139307147Y-84123053D01*
X139291147Y-84121477D01*
X139282887Y-84122291D01*
X139603007Y-83802171D01*
X139639653Y-83802171D01*
X139727133Y-83784770D01*
X139809537Y-83750637D01*
X139883699Y-83701084D01*
X139946769Y-83638014D01*
X139996322Y-83563852D01*
X140030455Y-83481448D01*
X140047856Y-83393968D01*
X140047856Y-83304774D01*
X140040549Y-83268042D01*
X140632418Y-83268042D01*
X140655282Y-83270294D01*
X140678146Y-83268042D01*
X140683020Y-83267562D01*
X140746536Y-83261306D01*
X140834283Y-83234688D01*
X140915151Y-83191464D01*
X140986033Y-83133293D01*
X141000618Y-83115522D01*
X141360641Y-82755499D01*
X141901382Y-82755499D01*
X142008862Y-82862979D01*
G36*
X138784601Y-85462077D02*
X138818734Y-85544481D01*
X138868287Y-85618643D01*
X138894200Y-85644556D01*
X138894201Y-87145443D01*
X138858287Y-87181357D01*
X138808734Y-87255519D01*
X138774601Y-87337923D01*
X138757200Y-87425403D01*
X138757200Y-87514597D01*
X138774601Y-87602077D01*
X138808734Y-87684481D01*
X138833537Y-87721601D01*
X138572460Y-87721601D01*
X138605399Y-87642079D01*
X138622800Y-87554599D01*
X138622800Y-87465405D01*
X138613203Y-87417158D01*
X138625711Y-87408800D01*
X138688781Y-87345730D01*
X138738334Y-87271568D01*
X138772467Y-87189164D01*
X138789868Y-87101684D01*
X138789868Y-87012490D01*
X138772467Y-86925010D01*
X138738334Y-86842606D01*
X138688781Y-86768444D01*
X138625711Y-86705374D01*
X138551549Y-86655821D01*
X138469145Y-86621688D01*
X138381665Y-86604287D01*
X138292471Y-86604287D01*
X138204991Y-86621688D01*
X138122587Y-86655821D01*
X138048425Y-86705374D01*
X137985355Y-86768444D01*
X137935802Y-86842606D01*
X137901669Y-86925010D01*
X137884268Y-87012490D01*
X137884268Y-87101684D01*
X137893865Y-87149931D01*
X137881357Y-87158289D01*
X137818287Y-87221359D01*
X137768734Y-87295521D01*
X137734601Y-87377925D01*
X137717200Y-87465405D01*
X137717200Y-87554599D01*
X137734601Y-87642079D01*
X137767540Y-87721601D01*
X134901236Y-87721601D01*
X134596265Y-87416631D01*
X134596707Y-87412141D01*
X134593842Y-87383050D01*
X134593842Y-87383045D01*
X134585268Y-87295993D01*
X134585268Y-87295991D01*
X134551388Y-87184305D01*
X134530364Y-87144972D01*
X134496371Y-87081374D01*
X134422329Y-86991155D01*
X134399725Y-86972604D01*
X134318030Y-86890909D01*
X134594506Y-86890909D01*
X134580703Y-86960301D01*
X134580703Y-87049495D01*
X134598104Y-87136975D01*
X134632237Y-87219379D01*
X134681790Y-87293541D01*
X134744860Y-87356611D01*
X134819022Y-87406164D01*
X134901426Y-87440297D01*
X134988906Y-87457698D01*
X135078100Y-87457698D01*
X135165580Y-87440297D01*
X135191308Y-87429640D01*
X135197568Y-87444753D01*
X135247121Y-87518915D01*
X135310191Y-87581985D01*
X135384353Y-87631538D01*
X135466757Y-87665671D01*
X135554237Y-87683072D01*
X135643431Y-87683072D01*
X135730911Y-87665671D01*
X135813315Y-87631538D01*
X135887477Y-87581985D01*
X135950547Y-87518915D01*
X136000100Y-87444753D01*
X136034233Y-87362349D01*
X136051634Y-87274869D01*
X136051634Y-87185675D01*
X136034233Y-87098195D01*
X136000100Y-87015791D01*
X135950547Y-86941629D01*
X135899827Y-86890909D01*
X137040979Y-86890909D01*
X137057591Y-86892545D01*
X137074203Y-86890909D01*
X137074211Y-86890909D01*
X137123948Y-86886010D01*
X137187756Y-86866655D01*
X137246561Y-86835223D01*
X137298104Y-86792922D01*
X137308704Y-86780006D01*
X137616169Y-86472542D01*
X137652077Y-86465399D01*
X137734481Y-86431266D01*
X137808643Y-86381713D01*
X137871713Y-86318643D01*
X137921266Y-86244481D01*
X137955399Y-86162077D01*
X137972800Y-86074597D01*
X137972800Y-85985403D01*
X137955399Y-85897923D01*
X137921266Y-85815519D01*
X137871713Y-85741357D01*
X137808643Y-85678287D01*
X137734481Y-85628734D01*
X137652077Y-85594601D01*
X137564597Y-85577200D01*
X137475403Y-85577200D01*
X137387923Y-85594601D01*
X137356462Y-85607632D01*
X137386685Y-85534669D01*
X137396145Y-85487109D01*
X137766359Y-85487109D01*
X137808305Y-85529055D01*
X137818510Y-85541490D01*
X137868120Y-85582203D01*
X137924719Y-85612456D01*
X137986132Y-85631086D01*
X138033997Y-85635800D01*
X138034000Y-85635800D01*
X138050000Y-85637376D01*
X138066000Y-85635800D01*
X138414000Y-85635800D01*
X138430000Y-85637376D01*
X138446000Y-85635800D01*
X138446003Y-85635800D01*
X138493868Y-85631086D01*
X138555281Y-85612456D01*
X138611880Y-85582203D01*
X138661490Y-85541490D01*
X138671694Y-85529056D01*
X138776981Y-85423769D01*
X138784601Y-85462077D01*
X138784601Y-85462077D01*
G37*
X138784601Y-85462077D02*
X138818734Y-85544481D01*
X138868287Y-85618643D01*
X138894200Y-85644556D01*
X138894201Y-87145443D01*
X138858287Y-87181357D01*
X138808734Y-87255519D01*
X138774601Y-87337923D01*
X138757200Y-87425403D01*
X138757200Y-87514597D01*
X138774601Y-87602077D01*
X138808734Y-87684481D01*
X138833537Y-87721601D01*
X138572460Y-87721601D01*
X138605399Y-87642079D01*
X138622800Y-87554599D01*
X138622800Y-87465405D01*
X138613203Y-87417158D01*
X138625711Y-87408800D01*
X138688781Y-87345730D01*
X138738334Y-87271568D01*
X138772467Y-87189164D01*
X138789868Y-87101684D01*
X138789868Y-87012490D01*
X138772467Y-86925010D01*
X138738334Y-86842606D01*
X138688781Y-86768444D01*
X138625711Y-86705374D01*
X138551549Y-86655821D01*
X138469145Y-86621688D01*
X138381665Y-86604287D01*
X138292471Y-86604287D01*
X138204991Y-86621688D01*
X138122587Y-86655821D01*
X138048425Y-86705374D01*
X137985355Y-86768444D01*
X137935802Y-86842606D01*
X137901669Y-86925010D01*
X137884268Y-87012490D01*
X137884268Y-87101684D01*
X137893865Y-87149931D01*
X137881357Y-87158289D01*
X137818287Y-87221359D01*
X137768734Y-87295521D01*
X137734601Y-87377925D01*
X137717200Y-87465405D01*
X137717200Y-87554599D01*
X137734601Y-87642079D01*
X137767540Y-87721601D01*
X134901236Y-87721601D01*
X134596265Y-87416631D01*
X134596707Y-87412141D01*
X134593842Y-87383050D01*
X134593842Y-87383045D01*
X134585268Y-87295993D01*
X134585268Y-87295991D01*
X134551388Y-87184305D01*
X134530364Y-87144972D01*
X134496371Y-87081374D01*
X134422329Y-86991155D01*
X134399725Y-86972604D01*
X134318030Y-86890909D01*
X134594506Y-86890909D01*
X134580703Y-86960301D01*
X134580703Y-87049495D01*
X134598104Y-87136975D01*
X134632237Y-87219379D01*
X134681790Y-87293541D01*
X134744860Y-87356611D01*
X134819022Y-87406164D01*
X134901426Y-87440297D01*
X134988906Y-87457698D01*
X135078100Y-87457698D01*
X135165580Y-87440297D01*
X135191308Y-87429640D01*
X135197568Y-87444753D01*
X135247121Y-87518915D01*
X135310191Y-87581985D01*
X135384353Y-87631538D01*
X135466757Y-87665671D01*
X135554237Y-87683072D01*
X135643431Y-87683072D01*
X135730911Y-87665671D01*
X135813315Y-87631538D01*
X135887477Y-87581985D01*
X135950547Y-87518915D01*
X136000100Y-87444753D01*
X136034233Y-87362349D01*
X136051634Y-87274869D01*
X136051634Y-87185675D01*
X136034233Y-87098195D01*
X136000100Y-87015791D01*
X135950547Y-86941629D01*
X135899827Y-86890909D01*
X137040979Y-86890909D01*
X137057591Y-86892545D01*
X137074203Y-86890909D01*
X137074211Y-86890909D01*
X137123948Y-86886010D01*
X137187756Y-86866655D01*
X137246561Y-86835223D01*
X137298104Y-86792922D01*
X137308704Y-86780006D01*
X137616169Y-86472542D01*
X137652077Y-86465399D01*
X137734481Y-86431266D01*
X137808643Y-86381713D01*
X137871713Y-86318643D01*
X137921266Y-86244481D01*
X137955399Y-86162077D01*
X137972800Y-86074597D01*
X137972800Y-85985403D01*
X137955399Y-85897923D01*
X137921266Y-85815519D01*
X137871713Y-85741357D01*
X137808643Y-85678287D01*
X137734481Y-85628734D01*
X137652077Y-85594601D01*
X137564597Y-85577200D01*
X137475403Y-85577200D01*
X137387923Y-85594601D01*
X137356462Y-85607632D01*
X137386685Y-85534669D01*
X137396145Y-85487109D01*
X137766359Y-85487109D01*
X137808305Y-85529055D01*
X137818510Y-85541490D01*
X137868120Y-85582203D01*
X137924719Y-85612456D01*
X137986132Y-85631086D01*
X138033997Y-85635800D01*
X138034000Y-85635800D01*
X138050000Y-85637376D01*
X138066000Y-85635800D01*
X138414000Y-85635800D01*
X138430000Y-85637376D01*
X138446000Y-85635800D01*
X138446003Y-85635800D01*
X138493868Y-85631086D01*
X138555281Y-85612456D01*
X138611880Y-85582203D01*
X138661490Y-85541490D01*
X138671694Y-85529056D01*
X138776981Y-85423769D01*
X138784601Y-85462077D01*
G36*
X134662365Y-84452721D02*
X134633729Y-84481357D01*
X134584176Y-84555519D01*
X134550043Y-84637923D01*
X134532642Y-84725403D01*
X134532642Y-84814597D01*
X134550043Y-84902077D01*
X134584176Y-84984481D01*
X134633729Y-85058643D01*
X134696799Y-85121713D01*
X134770961Y-85171266D01*
X134853365Y-85205399D01*
X134940845Y-85222800D01*
X135030039Y-85222800D01*
X135117519Y-85205399D01*
X135199923Y-85171266D01*
X135272450Y-85122806D01*
X135283352Y-85133708D01*
X135248734Y-85185519D01*
X135214601Y-85267923D01*
X135197200Y-85355403D01*
X135197200Y-85444597D01*
X135214601Y-85532077D01*
X135248734Y-85614481D01*
X135298287Y-85688643D01*
X135339644Y-85730000D01*
X135335000Y-85734644D01*
X135298643Y-85698287D01*
X135224481Y-85648734D01*
X135142077Y-85614601D01*
X135054597Y-85597200D01*
X134965403Y-85597200D01*
X134877923Y-85614601D01*
X134795519Y-85648734D01*
X134721357Y-85698287D01*
X134658287Y-85761357D01*
X134608734Y-85835519D01*
X134574601Y-85917923D01*
X134557200Y-86005403D01*
X134557200Y-86094597D01*
X134574601Y-86182077D01*
X134587786Y-86213909D01*
X134356730Y-86213909D01*
X133956910Y-85814090D01*
X133956910Y-85795403D01*
X133939509Y-85707923D01*
X133905376Y-85625519D01*
X133855823Y-85551357D01*
X133792753Y-85488287D01*
X133718591Y-85438734D01*
X133636187Y-85404601D01*
X133548707Y-85387200D01*
X133459513Y-85387200D01*
X133402499Y-85398541D01*
X133402499Y-84715814D01*
X133495325Y-84622988D01*
X133506619Y-84609226D01*
X133533419Y-84601096D01*
X133581306Y-84575500D01*
X134362864Y-84575500D01*
X134431254Y-84568764D01*
X134519001Y-84542146D01*
X134599869Y-84498922D01*
X134659571Y-84449927D01*
X134662365Y-84452721D01*
X134662365Y-84452721D01*
G37*
X134662365Y-84452721D02*
X134633729Y-84481357D01*
X134584176Y-84555519D01*
X134550043Y-84637923D01*
X134532642Y-84725403D01*
X134532642Y-84814597D01*
X134550043Y-84902077D01*
X134584176Y-84984481D01*
X134633729Y-85058643D01*
X134696799Y-85121713D01*
X134770961Y-85171266D01*
X134853365Y-85205399D01*
X134940845Y-85222800D01*
X135030039Y-85222800D01*
X135117519Y-85205399D01*
X135199923Y-85171266D01*
X135272450Y-85122806D01*
X135283352Y-85133708D01*
X135248734Y-85185519D01*
X135214601Y-85267923D01*
X135197200Y-85355403D01*
X135197200Y-85444597D01*
X135214601Y-85532077D01*
X135248734Y-85614481D01*
X135298287Y-85688643D01*
X135339644Y-85730000D01*
X135335000Y-85734644D01*
X135298643Y-85698287D01*
X135224481Y-85648734D01*
X135142077Y-85614601D01*
X135054597Y-85597200D01*
X134965403Y-85597200D01*
X134877923Y-85614601D01*
X134795519Y-85648734D01*
X134721357Y-85698287D01*
X134658287Y-85761357D01*
X134608734Y-85835519D01*
X134574601Y-85917923D01*
X134557200Y-86005403D01*
X134557200Y-86094597D01*
X134574601Y-86182077D01*
X134587786Y-86213909D01*
X134356730Y-86213909D01*
X133956910Y-85814090D01*
X133956910Y-85795403D01*
X133939509Y-85707923D01*
X133905376Y-85625519D01*
X133855823Y-85551357D01*
X133792753Y-85488287D01*
X133718591Y-85438734D01*
X133636187Y-85404601D01*
X133548707Y-85387200D01*
X133459513Y-85387200D01*
X133402499Y-85398541D01*
X133402499Y-84715814D01*
X133495325Y-84622988D01*
X133506619Y-84609226D01*
X133533419Y-84601096D01*
X133581306Y-84575500D01*
X134362864Y-84575500D01*
X134431254Y-84568764D01*
X134519001Y-84542146D01*
X134599869Y-84498922D01*
X134659571Y-84449927D01*
X134662365Y-84452721D01*
G36*
X136487200Y-84814597D02*
X136504601Y-84902077D01*
X136538734Y-84984481D01*
X136588287Y-85058643D01*
X136621583Y-85091939D01*
X136599573Y-85113949D01*
X136550020Y-85188111D01*
X136515887Y-85270515D01*
X136498486Y-85357995D01*
X136498486Y-85447189D01*
X136515887Y-85534669D01*
X136550020Y-85617073D01*
X136599573Y-85691235D01*
X136604515Y-85696177D01*
X136601357Y-85698287D01*
X136538287Y-85761357D01*
X136488734Y-85835519D01*
X136454601Y-85917923D01*
X136437200Y-86005403D01*
X136437200Y-86094597D01*
X136454601Y-86182077D01*
X136467786Y-86213909D01*
X136076356Y-86213909D01*
X136085399Y-86192077D01*
X136102800Y-86104597D01*
X136102800Y-86015403D01*
X136085399Y-85927923D01*
X136051266Y-85845519D01*
X136001713Y-85771357D01*
X135960356Y-85730000D01*
X136001713Y-85688643D01*
X136051266Y-85614481D01*
X136085399Y-85532077D01*
X136102800Y-85444597D01*
X136102800Y-85355403D01*
X136085399Y-85267923D01*
X136051266Y-85185519D01*
X136001713Y-85111357D01*
X135966648Y-85076292D01*
X136001266Y-85024481D01*
X136035399Y-84942077D01*
X136052800Y-84854597D01*
X136052800Y-84817950D01*
X136079352Y-84791398D01*
X136487200Y-84791398D01*
X136487200Y-84814597D01*
X136487200Y-84814597D01*
G37*
X136487200Y-84814597D02*
X136504601Y-84902077D01*
X136538734Y-84984481D01*
X136588287Y-85058643D01*
X136621583Y-85091939D01*
X136599573Y-85113949D01*
X136550020Y-85188111D01*
X136515887Y-85270515D01*
X136498486Y-85357995D01*
X136498486Y-85447189D01*
X136515887Y-85534669D01*
X136550020Y-85617073D01*
X136599573Y-85691235D01*
X136604515Y-85696177D01*
X136601357Y-85698287D01*
X136538287Y-85761357D01*
X136488734Y-85835519D01*
X136454601Y-85917923D01*
X136437200Y-86005403D01*
X136437200Y-86094597D01*
X136454601Y-86182077D01*
X136467786Y-86213909D01*
X136076356Y-86213909D01*
X136085399Y-86192077D01*
X136102800Y-86104597D01*
X136102800Y-86015403D01*
X136085399Y-85927923D01*
X136051266Y-85845519D01*
X136001713Y-85771357D01*
X135960356Y-85730000D01*
X136001713Y-85688643D01*
X136051266Y-85614481D01*
X136085399Y-85532077D01*
X136102800Y-85444597D01*
X136102800Y-85355403D01*
X136085399Y-85267923D01*
X136051266Y-85185519D01*
X136001713Y-85111357D01*
X135966648Y-85076292D01*
X136001266Y-85024481D01*
X136035399Y-84942077D01*
X136052800Y-84854597D01*
X136052800Y-84817950D01*
X136079352Y-84791398D01*
X136487200Y-84791398D01*
X136487200Y-84814597D01*
G36*
X137698217Y-84701490D02*
X137744369Y-84739365D01*
X137737200Y-84775403D01*
X137737200Y-84835509D01*
X137388640Y-84835509D01*
X137392800Y-84814597D01*
X137392800Y-84761043D01*
X137436282Y-84737801D01*
X137485892Y-84697088D01*
X137486949Y-84695800D01*
X137693547Y-84695800D01*
X137698217Y-84701490D01*
X137698217Y-84701490D01*
G37*
X137698217Y-84701490D02*
X137744369Y-84739365D01*
X137737200Y-84775403D01*
X137737200Y-84835509D01*
X137388640Y-84835509D01*
X137392800Y-84814597D01*
X137392800Y-84761043D01*
X137436282Y-84737801D01*
X137485892Y-84697088D01*
X137486949Y-84695800D01*
X137693547Y-84695800D01*
X137698217Y-84701490D01*
G36*
X136936936Y-81779654D02*
X136924597Y-81777200D01*
X136835403Y-81777200D01*
X136747923Y-81794601D01*
X136665519Y-81828734D01*
X136591357Y-81878287D01*
X136528287Y-81941357D01*
X136478734Y-82015519D01*
X136444601Y-82097923D01*
X136427200Y-82185403D01*
X136427200Y-82274597D01*
X136444601Y-82362077D01*
X136478734Y-82444481D01*
X136528287Y-82518643D01*
X136563894Y-82554250D01*
X136536800Y-82581344D01*
X136487247Y-82655506D01*
X136453114Y-82737910D01*
X136435713Y-82825390D01*
X136435713Y-82914584D01*
X136453114Y-83002064D01*
X136487247Y-83084468D01*
X136536800Y-83158630D01*
X136588907Y-83210737D01*
X136588287Y-83211357D01*
X136538734Y-83285519D01*
X136504601Y-83367923D01*
X136487200Y-83455403D01*
X136487200Y-83544597D01*
X136504601Y-83632077D01*
X136538734Y-83714481D01*
X136588287Y-83788643D01*
X136605298Y-83805654D01*
X136601357Y-83808287D01*
X136538287Y-83871357D01*
X136488734Y-83945519D01*
X136454601Y-84027923D01*
X136437200Y-84115403D01*
X136437200Y-84139798D01*
X136092800Y-84139798D01*
X136092800Y-84115403D01*
X136075399Y-84027923D01*
X136041266Y-83945519D01*
X135991713Y-83871357D01*
X135965356Y-83845000D01*
X136001713Y-83808643D01*
X136051266Y-83734481D01*
X136085399Y-83652077D01*
X136102800Y-83564597D01*
X136102800Y-83475403D01*
X136085399Y-83387923D01*
X136051266Y-83305519D01*
X136001713Y-83231357D01*
X135965356Y-83195000D01*
X136001713Y-83158643D01*
X136051266Y-83084481D01*
X136085399Y-83002077D01*
X136102800Y-82914597D01*
X136102800Y-82825403D01*
X136085399Y-82737923D01*
X136051266Y-82655519D01*
X136001713Y-82581357D01*
X135938643Y-82518287D01*
X135864481Y-82468734D01*
X135782077Y-82434601D01*
X135694597Y-82417200D01*
X135605403Y-82417200D01*
X135517923Y-82434601D01*
X135435519Y-82468734D01*
X135361357Y-82518287D01*
X135298287Y-82581357D01*
X135248734Y-82655519D01*
X135214601Y-82737923D01*
X135197200Y-82825403D01*
X135197200Y-82914597D01*
X135214601Y-83002077D01*
X135240435Y-83064445D01*
X135216607Y-83048524D01*
X135134203Y-83014391D01*
X135046723Y-82996990D01*
X134957529Y-82996990D01*
X134870049Y-83014391D01*
X134787645Y-83048524D01*
X134713483Y-83098077D01*
X134650413Y-83161147D01*
X134600860Y-83235309D01*
X134566727Y-83317713D01*
X134549326Y-83405193D01*
X134549326Y-83494387D01*
X134566727Y-83581867D01*
X134600860Y-83664271D01*
X134650413Y-83738433D01*
X134690812Y-83778832D01*
X134679606Y-83790038D01*
X134670751Y-83779249D01*
X134599869Y-83721078D01*
X134519001Y-83677854D01*
X134431254Y-83651236D01*
X134362864Y-83644500D01*
X133650436Y-83644500D01*
X133725318Y-83604475D01*
X133805869Y-83538369D01*
X133871975Y-83457818D01*
X133921096Y-83365919D01*
X133951345Y-83266202D01*
X133961559Y-83162500D01*
X133951345Y-83058798D01*
X133921096Y-82959081D01*
X133871975Y-82867182D01*
X133805869Y-82786631D01*
X133761416Y-82750149D01*
X135355087Y-81156479D01*
X136313761Y-81156479D01*
X136936936Y-81779654D01*
X136936936Y-81779654D01*
G37*
X136936936Y-81779654D02*
X136924597Y-81777200D01*
X136835403Y-81777200D01*
X136747923Y-81794601D01*
X136665519Y-81828734D01*
X136591357Y-81878287D01*
X136528287Y-81941357D01*
X136478734Y-82015519D01*
X136444601Y-82097923D01*
X136427200Y-82185403D01*
X136427200Y-82274597D01*
X136444601Y-82362077D01*
X136478734Y-82444481D01*
X136528287Y-82518643D01*
X136563894Y-82554250D01*
X136536800Y-82581344D01*
X136487247Y-82655506D01*
X136453114Y-82737910D01*
X136435713Y-82825390D01*
X136435713Y-82914584D01*
X136453114Y-83002064D01*
X136487247Y-83084468D01*
X136536800Y-83158630D01*
X136588907Y-83210737D01*
X136588287Y-83211357D01*
X136538734Y-83285519D01*
X136504601Y-83367923D01*
X136487200Y-83455403D01*
X136487200Y-83544597D01*
X136504601Y-83632077D01*
X136538734Y-83714481D01*
X136588287Y-83788643D01*
X136605298Y-83805654D01*
X136601357Y-83808287D01*
X136538287Y-83871357D01*
X136488734Y-83945519D01*
X136454601Y-84027923D01*
X136437200Y-84115403D01*
X136437200Y-84139798D01*
X136092800Y-84139798D01*
X136092800Y-84115403D01*
X136075399Y-84027923D01*
X136041266Y-83945519D01*
X135991713Y-83871357D01*
X135965356Y-83845000D01*
X136001713Y-83808643D01*
X136051266Y-83734481D01*
X136085399Y-83652077D01*
X136102800Y-83564597D01*
X136102800Y-83475403D01*
X136085399Y-83387923D01*
X136051266Y-83305519D01*
X136001713Y-83231357D01*
X135965356Y-83195000D01*
X136001713Y-83158643D01*
X136051266Y-83084481D01*
X136085399Y-83002077D01*
X136102800Y-82914597D01*
X136102800Y-82825403D01*
X136085399Y-82737923D01*
X136051266Y-82655519D01*
X136001713Y-82581357D01*
X135938643Y-82518287D01*
X135864481Y-82468734D01*
X135782077Y-82434601D01*
X135694597Y-82417200D01*
X135605403Y-82417200D01*
X135517923Y-82434601D01*
X135435519Y-82468734D01*
X135361357Y-82518287D01*
X135298287Y-82581357D01*
X135248734Y-82655519D01*
X135214601Y-82737923D01*
X135197200Y-82825403D01*
X135197200Y-82914597D01*
X135214601Y-83002077D01*
X135240435Y-83064445D01*
X135216607Y-83048524D01*
X135134203Y-83014391D01*
X135046723Y-82996990D01*
X134957529Y-82996990D01*
X134870049Y-83014391D01*
X134787645Y-83048524D01*
X134713483Y-83098077D01*
X134650413Y-83161147D01*
X134600860Y-83235309D01*
X134566727Y-83317713D01*
X134549326Y-83405193D01*
X134549326Y-83494387D01*
X134566727Y-83581867D01*
X134600860Y-83664271D01*
X134650413Y-83738433D01*
X134690812Y-83778832D01*
X134679606Y-83790038D01*
X134670751Y-83779249D01*
X134599869Y-83721078D01*
X134519001Y-83677854D01*
X134431254Y-83651236D01*
X134362864Y-83644500D01*
X133650436Y-83644500D01*
X133725318Y-83604475D01*
X133805869Y-83538369D01*
X133871975Y-83457818D01*
X133921096Y-83365919D01*
X133951345Y-83266202D01*
X133961559Y-83162500D01*
X133951345Y-83058798D01*
X133921096Y-82959081D01*
X133871975Y-82867182D01*
X133805869Y-82786631D01*
X133761416Y-82750149D01*
X135355087Y-81156479D01*
X136313761Y-81156479D01*
X136936936Y-81779654D01*
G36*
X138705370Y-83059872D02*
X138014525Y-83059872D01*
X138042411Y-83007701D01*
X138072660Y-82907984D01*
X138080315Y-82830263D01*
X138080315Y-82729214D01*
X139036028Y-82729214D01*
X138705370Y-83059872D01*
X138705370Y-83059872D01*
G37*
X138705370Y-83059872D02*
X138014525Y-83059872D01*
X138042411Y-83007701D01*
X138072660Y-82907984D01*
X138080315Y-82830263D01*
X138080315Y-82729214D01*
X139036028Y-82729214D01*
X138705370Y-83059872D01*
G04 #@! TD*
M02*
