G04 #@! TF.GenerationSoftware,KiCad,Pcbnew,(5.1.2-1)-1*
G04 #@! TF.CreationDate,2019-07-31T11:47:25+02:00*
G04 #@! TF.ProjectId,TLM-v1_2,544c4d2d-7631-45f3-922e-6b696361645f,1.1*
G04 #@! TF.SameCoordinates,Original*
G04 #@! TF.FileFunction,Legend,Top*
G04 #@! TF.FilePolarity,Positive*
%FSLAX46Y46*%
G04 Gerber Fmt 4.6, Leading zero omitted, Abs format (unit mm)*
G04 Created by KiCad (PCBNEW (5.1.2-1)-1) date 2019-07-31 11:47:25*
%MOMM*%
%LPD*%
G04 APERTURE LIST*
%ADD10C,0.200000*%
%ADD11C,0.175000*%
%ADD12C,0.225000*%
%ADD13C,0.120000*%
G04 APERTURE END LIST*
D10*
X138653620Y-78239620D02*
X139453620Y-78239620D01*
D11*
X131968571Y-79133028D02*
X132501904Y-78973504D01*
X131968571Y-78680647D01*
X132425714Y-78375885D02*
X132463809Y-78335409D01*
X132501904Y-78385409D01*
X132463809Y-78425885D01*
X132425714Y-78375885D01*
X132501904Y-78385409D01*
X132501904Y-76711599D02*
X132501904Y-77254456D01*
X132501904Y-76983028D02*
X131701904Y-76883028D01*
X131816190Y-76987790D01*
X131892380Y-77087790D01*
X131930476Y-77183028D01*
X132425714Y-76294933D02*
X132463809Y-76254456D01*
X132501904Y-76304456D01*
X132463809Y-76344933D01*
X132425714Y-76294933D01*
X132501904Y-76304456D01*
X131778095Y-75806837D02*
X131740000Y-75756837D01*
X131701904Y-75661599D01*
X131701904Y-75435409D01*
X131740000Y-75349694D01*
X131778095Y-75309218D01*
X131854285Y-75273504D01*
X131930476Y-75283028D01*
X132044761Y-75342552D01*
X132501904Y-75942552D01*
X132501904Y-75354456D01*
D12*
X130313180Y-80451812D02*
X130313180Y-79823240D01*
X131313180Y-80262526D02*
X130313180Y-80137526D01*
X131313180Y-79581574D02*
X130646514Y-79498240D01*
X130313180Y-79456574D02*
X130360800Y-79514907D01*
X130408419Y-79468478D01*
X130360800Y-79410145D01*
X130313180Y-79456574D01*
X130408419Y-79468478D01*
X130646514Y-78974431D02*
X131313180Y-79057764D01*
X130741752Y-78986336D02*
X130694133Y-78928002D01*
X130646514Y-78817288D01*
X130646514Y-78660145D01*
X130694133Y-78561336D01*
X130789371Y-78520859D01*
X131313180Y-78586336D01*
X130646514Y-78083955D02*
X131313180Y-77905383D01*
X130646514Y-77560145D02*
X131313180Y-77905383D01*
X131551276Y-78039907D01*
X131598895Y-78098240D01*
X131646514Y-78208955D01*
X131313180Y-76700621D02*
X131313180Y-77224431D01*
X130313180Y-77099431D01*
X131313180Y-76176812D02*
X131265561Y-76275621D01*
X131217942Y-76322050D01*
X131122704Y-76362526D01*
X130836990Y-76326812D01*
X130741752Y-76262526D01*
X130694133Y-76204193D01*
X130646514Y-76093478D01*
X130646514Y-75936336D01*
X130694133Y-75837526D01*
X130741752Y-75791097D01*
X130836990Y-75750621D01*
X131122704Y-75786336D01*
X131217942Y-75850621D01*
X131265561Y-75908955D01*
X131313180Y-76019669D01*
X131313180Y-76176812D01*
X131313180Y-74710145D02*
X130836990Y-75017288D01*
X131313180Y-75338716D02*
X130313180Y-75213716D01*
X130313180Y-74794669D01*
X130360800Y-74695859D01*
X130408419Y-74649431D01*
X130503657Y-74608955D01*
X130646514Y-74626812D01*
X130741752Y-74691097D01*
X130789371Y-74749431D01*
X130836990Y-74860145D01*
X130836990Y-75279193D01*
X131313180Y-73767288D02*
X130789371Y-73701812D01*
X130694133Y-73742288D01*
X130646514Y-73841097D01*
X130646514Y-74050621D01*
X130694133Y-74161336D01*
X131265561Y-73761336D02*
X131313180Y-73872050D01*
X131313180Y-74133955D01*
X131265561Y-74232764D01*
X131170323Y-74273240D01*
X131075085Y-74261336D01*
X130979847Y-74197050D01*
X130932228Y-74086336D01*
X130932228Y-73824431D01*
X130884609Y-73713716D01*
D10*
X130200000Y-86675000D02*
X130400000Y-87075000D01*
X130400000Y-86675000D02*
X130200000Y-86675000D01*
X131700000Y-88575000D02*
X131500000Y-88575000D01*
X131700000Y-85575000D02*
X131500000Y-85575000D01*
X132800000Y-86675000D02*
X132800000Y-87475000D01*
X130400000Y-86675000D02*
X130400000Y-87475000D01*
X142300000Y-83650000D02*
X142300000Y-84050000D01*
X141100000Y-83650000D02*
X141100000Y-84050000D01*
D13*
X139371000Y-87237500D02*
X133171000Y-87237500D01*
X139371000Y-81037500D02*
X133171000Y-81037500D01*
X133171000Y-81037500D02*
X133171000Y-87237500D01*
X139371000Y-81037500D02*
X139371000Y-87237500D01*
X139571000Y-80837500D02*
X138971000Y-80837500D01*
X139571000Y-81437500D02*
X139571000Y-80837500D01*
X138840000Y-74310000D02*
X138240000Y-74310000D01*
M02*
