G04 #@! TF.GenerationSoftware,KiCad,Pcbnew,(5.1.2-1)-1*
G04 #@! TF.CreationDate,2019-07-31T11:47:25+02:00*
G04 #@! TF.ProjectId,TLM-v1_2,544c4d2d-7631-45f3-922e-6b696361645f,1.1*
G04 #@! TF.SameCoordinates,Original*
G04 #@! TF.FileFunction,Copper,L3,Inr*
G04 #@! TF.FilePolarity,Positive*
%FSLAX46Y46*%
G04 Gerber Fmt 4.6, Leading zero omitted, Abs format (unit mm)*
G04 Created by KiCad (PCBNEW (5.1.2-1)-1) date 2019-07-31 11:47:25*
%MOMM*%
%LPD*%
G04 APERTURE LIST*
%ADD10C,0.100000*%
%ADD11C,0.900000*%
%ADD12C,0.355600*%
%ADD13C,0.460000*%
%ADD14C,0.482600*%
%ADD15C,0.508000*%
%ADD16C,0.254000*%
%ADD17C,0.381000*%
%ADD18C,0.635000*%
%ADD19C,0.101600*%
%ADD20C,0.127000*%
G04 APERTURE END LIST*
D10*
G36*
X129873643Y-75750867D02*
G01*
X129891116Y-75753459D01*
X129908251Y-75757751D01*
X129924883Y-75763702D01*
X129940851Y-75771254D01*
X129956003Y-75780335D01*
X129970191Y-75790858D01*
X129983279Y-75802721D01*
X129995142Y-75815809D01*
X130005665Y-75829997D01*
X130014746Y-75845149D01*
X130022298Y-75861117D01*
X130028249Y-75877749D01*
X130032541Y-75894884D01*
X130035133Y-75912357D01*
X130036000Y-75930000D01*
X130036000Y-76470000D01*
X130035133Y-76487643D01*
X130032541Y-76505116D01*
X130028249Y-76522251D01*
X130022298Y-76538883D01*
X130014746Y-76554851D01*
X130005665Y-76570003D01*
X129995142Y-76584191D01*
X129983279Y-76597279D01*
X129970191Y-76609142D01*
X129956003Y-76619665D01*
X129940851Y-76628746D01*
X129924883Y-76636298D01*
X129908251Y-76642249D01*
X129891116Y-76646541D01*
X129873643Y-76649133D01*
X129856000Y-76650000D01*
X129016000Y-76650000D01*
X128998357Y-76649133D01*
X128980884Y-76646541D01*
X128963749Y-76642249D01*
X128947117Y-76636298D01*
X128931149Y-76628746D01*
X128915997Y-76619665D01*
X128901809Y-76609142D01*
X128888721Y-76597279D01*
X128876858Y-76584191D01*
X128866335Y-76570003D01*
X128857254Y-76554851D01*
X128849702Y-76538883D01*
X128843751Y-76522251D01*
X128839459Y-76505116D01*
X128836867Y-76487643D01*
X128836000Y-76470000D01*
X128836000Y-75930000D01*
X128836867Y-75912357D01*
X128839459Y-75894884D01*
X128843751Y-75877749D01*
X128849702Y-75861117D01*
X128857254Y-75845149D01*
X128866335Y-75829997D01*
X128876858Y-75815809D01*
X128888721Y-75802721D01*
X128901809Y-75790858D01*
X128915997Y-75780335D01*
X128931149Y-75771254D01*
X128947117Y-75763702D01*
X128963749Y-75757751D01*
X128980884Y-75753459D01*
X128998357Y-75750867D01*
X129016000Y-75750000D01*
X129856000Y-75750000D01*
X129873643Y-75750867D01*
X129873643Y-75750867D01*
G37*
D11*
X129436000Y-76200000D03*
D10*
G36*
X129873643Y-77020867D02*
G01*
X129891116Y-77023459D01*
X129908251Y-77027751D01*
X129924883Y-77033702D01*
X129940851Y-77041254D01*
X129956003Y-77050335D01*
X129970191Y-77060858D01*
X129983279Y-77072721D01*
X129995142Y-77085809D01*
X130005665Y-77099997D01*
X130014746Y-77115149D01*
X130022298Y-77131117D01*
X130028249Y-77147749D01*
X130032541Y-77164884D01*
X130035133Y-77182357D01*
X130036000Y-77200000D01*
X130036000Y-77740000D01*
X130035133Y-77757643D01*
X130032541Y-77775116D01*
X130028249Y-77792251D01*
X130022298Y-77808883D01*
X130014746Y-77824851D01*
X130005665Y-77840003D01*
X129995142Y-77854191D01*
X129983279Y-77867279D01*
X129970191Y-77879142D01*
X129956003Y-77889665D01*
X129940851Y-77898746D01*
X129924883Y-77906298D01*
X129908251Y-77912249D01*
X129891116Y-77916541D01*
X129873643Y-77919133D01*
X129856000Y-77920000D01*
X129016000Y-77920000D01*
X128998357Y-77919133D01*
X128980884Y-77916541D01*
X128963749Y-77912249D01*
X128947117Y-77906298D01*
X128931149Y-77898746D01*
X128915997Y-77889665D01*
X128901809Y-77879142D01*
X128888721Y-77867279D01*
X128876858Y-77854191D01*
X128866335Y-77840003D01*
X128857254Y-77824851D01*
X128849702Y-77808883D01*
X128843751Y-77792251D01*
X128839459Y-77775116D01*
X128836867Y-77757643D01*
X128836000Y-77740000D01*
X128836000Y-77200000D01*
X128836867Y-77182357D01*
X128839459Y-77164884D01*
X128843751Y-77147749D01*
X128849702Y-77131117D01*
X128857254Y-77115149D01*
X128866335Y-77099997D01*
X128876858Y-77085809D01*
X128888721Y-77072721D01*
X128901809Y-77060858D01*
X128915997Y-77050335D01*
X128931149Y-77041254D01*
X128947117Y-77033702D01*
X128963749Y-77027751D01*
X128980884Y-77023459D01*
X128998357Y-77020867D01*
X129016000Y-77020000D01*
X129856000Y-77020000D01*
X129873643Y-77020867D01*
X129873643Y-77020867D01*
G37*
D11*
X129436000Y-77470000D03*
D10*
G36*
X129873643Y-78290867D02*
G01*
X129891116Y-78293459D01*
X129908251Y-78297751D01*
X129924883Y-78303702D01*
X129940851Y-78311254D01*
X129956003Y-78320335D01*
X129970191Y-78330858D01*
X129983279Y-78342721D01*
X129995142Y-78355809D01*
X130005665Y-78369997D01*
X130014746Y-78385149D01*
X130022298Y-78401117D01*
X130028249Y-78417749D01*
X130032541Y-78434884D01*
X130035133Y-78452357D01*
X130036000Y-78470000D01*
X130036000Y-79010000D01*
X130035133Y-79027643D01*
X130032541Y-79045116D01*
X130028249Y-79062251D01*
X130022298Y-79078883D01*
X130014746Y-79094851D01*
X130005665Y-79110003D01*
X129995142Y-79124191D01*
X129983279Y-79137279D01*
X129970191Y-79149142D01*
X129956003Y-79159665D01*
X129940851Y-79168746D01*
X129924883Y-79176298D01*
X129908251Y-79182249D01*
X129891116Y-79186541D01*
X129873643Y-79189133D01*
X129856000Y-79190000D01*
X129016000Y-79190000D01*
X128998357Y-79189133D01*
X128980884Y-79186541D01*
X128963749Y-79182249D01*
X128947117Y-79176298D01*
X128931149Y-79168746D01*
X128915997Y-79159665D01*
X128901809Y-79149142D01*
X128888721Y-79137279D01*
X128876858Y-79124191D01*
X128866335Y-79110003D01*
X128857254Y-79094851D01*
X128849702Y-79078883D01*
X128843751Y-79062251D01*
X128839459Y-79045116D01*
X128836867Y-79027643D01*
X128836000Y-79010000D01*
X128836000Y-78470000D01*
X128836867Y-78452357D01*
X128839459Y-78434884D01*
X128843751Y-78417749D01*
X128849702Y-78401117D01*
X128857254Y-78385149D01*
X128866335Y-78369997D01*
X128876858Y-78355809D01*
X128888721Y-78342721D01*
X128901809Y-78330858D01*
X128915997Y-78320335D01*
X128931149Y-78311254D01*
X128947117Y-78303702D01*
X128963749Y-78297751D01*
X128980884Y-78293459D01*
X128998357Y-78290867D01*
X129016000Y-78290000D01*
X129856000Y-78290000D01*
X129873643Y-78290867D01*
X129873643Y-78290867D01*
G37*
D11*
X129436000Y-78740000D03*
D10*
G36*
X129873643Y-79560867D02*
G01*
X129891116Y-79563459D01*
X129908251Y-79567751D01*
X129924883Y-79573702D01*
X129940851Y-79581254D01*
X129956003Y-79590335D01*
X129970191Y-79600858D01*
X129983279Y-79612721D01*
X129995142Y-79625809D01*
X130005665Y-79639997D01*
X130014746Y-79655149D01*
X130022298Y-79671117D01*
X130028249Y-79687749D01*
X130032541Y-79704884D01*
X130035133Y-79722357D01*
X130036000Y-79740000D01*
X130036000Y-80280000D01*
X130035133Y-80297643D01*
X130032541Y-80315116D01*
X130028249Y-80332251D01*
X130022298Y-80348883D01*
X130014746Y-80364851D01*
X130005665Y-80380003D01*
X129995142Y-80394191D01*
X129983279Y-80407279D01*
X129970191Y-80419142D01*
X129956003Y-80429665D01*
X129940851Y-80438746D01*
X129924883Y-80446298D01*
X129908251Y-80452249D01*
X129891116Y-80456541D01*
X129873643Y-80459133D01*
X129856000Y-80460000D01*
X129016000Y-80460000D01*
X128998357Y-80459133D01*
X128980884Y-80456541D01*
X128963749Y-80452249D01*
X128947117Y-80446298D01*
X128931149Y-80438746D01*
X128915997Y-80429665D01*
X128901809Y-80419142D01*
X128888721Y-80407279D01*
X128876858Y-80394191D01*
X128866335Y-80380003D01*
X128857254Y-80364851D01*
X128849702Y-80348883D01*
X128843751Y-80332251D01*
X128839459Y-80315116D01*
X128836867Y-80297643D01*
X128836000Y-80280000D01*
X128836000Y-79740000D01*
X128836867Y-79722357D01*
X128839459Y-79704884D01*
X128843751Y-79687749D01*
X128849702Y-79671117D01*
X128857254Y-79655149D01*
X128866335Y-79639997D01*
X128876858Y-79625809D01*
X128888721Y-79612721D01*
X128901809Y-79600858D01*
X128915997Y-79590335D01*
X128931149Y-79581254D01*
X128947117Y-79573702D01*
X128963749Y-79567751D01*
X128980884Y-79563459D01*
X128998357Y-79560867D01*
X129016000Y-79560000D01*
X129856000Y-79560000D01*
X129873643Y-79560867D01*
X129873643Y-79560867D01*
G37*
D11*
X129436000Y-80010000D03*
D10*
G36*
X129873643Y-80830867D02*
G01*
X129891116Y-80833459D01*
X129908251Y-80837751D01*
X129924883Y-80843702D01*
X129940851Y-80851254D01*
X129956003Y-80860335D01*
X129970191Y-80870858D01*
X129983279Y-80882721D01*
X129995142Y-80895809D01*
X130005665Y-80909997D01*
X130014746Y-80925149D01*
X130022298Y-80941117D01*
X130028249Y-80957749D01*
X130032541Y-80974884D01*
X130035133Y-80992357D01*
X130036000Y-81010000D01*
X130036000Y-81550000D01*
X130035133Y-81567643D01*
X130032541Y-81585116D01*
X130028249Y-81602251D01*
X130022298Y-81618883D01*
X130014746Y-81634851D01*
X130005665Y-81650003D01*
X129995142Y-81664191D01*
X129983279Y-81677279D01*
X129970191Y-81689142D01*
X129956003Y-81699665D01*
X129940851Y-81708746D01*
X129924883Y-81716298D01*
X129908251Y-81722249D01*
X129891116Y-81726541D01*
X129873643Y-81729133D01*
X129856000Y-81730000D01*
X129016000Y-81730000D01*
X128998357Y-81729133D01*
X128980884Y-81726541D01*
X128963749Y-81722249D01*
X128947117Y-81716298D01*
X128931149Y-81708746D01*
X128915997Y-81699665D01*
X128901809Y-81689142D01*
X128888721Y-81677279D01*
X128876858Y-81664191D01*
X128866335Y-81650003D01*
X128857254Y-81634851D01*
X128849702Y-81618883D01*
X128843751Y-81602251D01*
X128839459Y-81585116D01*
X128836867Y-81567643D01*
X128836000Y-81550000D01*
X128836000Y-81010000D01*
X128836867Y-80992357D01*
X128839459Y-80974884D01*
X128843751Y-80957749D01*
X128849702Y-80941117D01*
X128857254Y-80925149D01*
X128866335Y-80909997D01*
X128876858Y-80895809D01*
X128888721Y-80882721D01*
X128901809Y-80870858D01*
X128915997Y-80860335D01*
X128931149Y-80851254D01*
X128947117Y-80843702D01*
X128963749Y-80837751D01*
X128980884Y-80833459D01*
X128998357Y-80830867D01*
X129016000Y-80830000D01*
X129856000Y-80830000D01*
X129873643Y-80830867D01*
X129873643Y-80830867D01*
G37*
D11*
X129436000Y-81280000D03*
D10*
G36*
X129873643Y-82100867D02*
G01*
X129891116Y-82103459D01*
X129908251Y-82107751D01*
X129924883Y-82113702D01*
X129940851Y-82121254D01*
X129956003Y-82130335D01*
X129970191Y-82140858D01*
X129983279Y-82152721D01*
X129995142Y-82165809D01*
X130005665Y-82179997D01*
X130014746Y-82195149D01*
X130022298Y-82211117D01*
X130028249Y-82227749D01*
X130032541Y-82244884D01*
X130035133Y-82262357D01*
X130036000Y-82280000D01*
X130036000Y-82820000D01*
X130035133Y-82837643D01*
X130032541Y-82855116D01*
X130028249Y-82872251D01*
X130022298Y-82888883D01*
X130014746Y-82904851D01*
X130005665Y-82920003D01*
X129995142Y-82934191D01*
X129983279Y-82947279D01*
X129970191Y-82959142D01*
X129956003Y-82969665D01*
X129940851Y-82978746D01*
X129924883Y-82986298D01*
X129908251Y-82992249D01*
X129891116Y-82996541D01*
X129873643Y-82999133D01*
X129856000Y-83000000D01*
X129016000Y-83000000D01*
X128998357Y-82999133D01*
X128980884Y-82996541D01*
X128963749Y-82992249D01*
X128947117Y-82986298D01*
X128931149Y-82978746D01*
X128915997Y-82969665D01*
X128901809Y-82959142D01*
X128888721Y-82947279D01*
X128876858Y-82934191D01*
X128866335Y-82920003D01*
X128857254Y-82904851D01*
X128849702Y-82888883D01*
X128843751Y-82872251D01*
X128839459Y-82855116D01*
X128836867Y-82837643D01*
X128836000Y-82820000D01*
X128836000Y-82280000D01*
X128836867Y-82262357D01*
X128839459Y-82244884D01*
X128843751Y-82227749D01*
X128849702Y-82211117D01*
X128857254Y-82195149D01*
X128866335Y-82179997D01*
X128876858Y-82165809D01*
X128888721Y-82152721D01*
X128901809Y-82140858D01*
X128915997Y-82130335D01*
X128931149Y-82121254D01*
X128947117Y-82113702D01*
X128963749Y-82107751D01*
X128980884Y-82103459D01*
X128998357Y-82100867D01*
X129016000Y-82100000D01*
X129856000Y-82100000D01*
X129873643Y-82100867D01*
X129873643Y-82100867D01*
G37*
D11*
X129436000Y-82550000D03*
D10*
G36*
X129873643Y-83370867D02*
G01*
X129891116Y-83373459D01*
X129908251Y-83377751D01*
X129924883Y-83383702D01*
X129940851Y-83391254D01*
X129956003Y-83400335D01*
X129970191Y-83410858D01*
X129983279Y-83422721D01*
X129995142Y-83435809D01*
X130005665Y-83449997D01*
X130014746Y-83465149D01*
X130022298Y-83481117D01*
X130028249Y-83497749D01*
X130032541Y-83514884D01*
X130035133Y-83532357D01*
X130036000Y-83550000D01*
X130036000Y-84090000D01*
X130035133Y-84107643D01*
X130032541Y-84125116D01*
X130028249Y-84142251D01*
X130022298Y-84158883D01*
X130014746Y-84174851D01*
X130005665Y-84190003D01*
X129995142Y-84204191D01*
X129983279Y-84217279D01*
X129970191Y-84229142D01*
X129956003Y-84239665D01*
X129940851Y-84248746D01*
X129924883Y-84256298D01*
X129908251Y-84262249D01*
X129891116Y-84266541D01*
X129873643Y-84269133D01*
X129856000Y-84270000D01*
X129016000Y-84270000D01*
X128998357Y-84269133D01*
X128980884Y-84266541D01*
X128963749Y-84262249D01*
X128947117Y-84256298D01*
X128931149Y-84248746D01*
X128915997Y-84239665D01*
X128901809Y-84229142D01*
X128888721Y-84217279D01*
X128876858Y-84204191D01*
X128866335Y-84190003D01*
X128857254Y-84174851D01*
X128849702Y-84158883D01*
X128843751Y-84142251D01*
X128839459Y-84125116D01*
X128836867Y-84107643D01*
X128836000Y-84090000D01*
X128836000Y-83550000D01*
X128836867Y-83532357D01*
X128839459Y-83514884D01*
X128843751Y-83497749D01*
X128849702Y-83481117D01*
X128857254Y-83465149D01*
X128866335Y-83449997D01*
X128876858Y-83435809D01*
X128888721Y-83422721D01*
X128901809Y-83410858D01*
X128915997Y-83400335D01*
X128931149Y-83391254D01*
X128947117Y-83383702D01*
X128963749Y-83377751D01*
X128980884Y-83373459D01*
X128998357Y-83370867D01*
X129016000Y-83370000D01*
X129856000Y-83370000D01*
X129873643Y-83370867D01*
X129873643Y-83370867D01*
G37*
D11*
X129436000Y-83820000D03*
D10*
G36*
X129873643Y-84640867D02*
G01*
X129891116Y-84643459D01*
X129908251Y-84647751D01*
X129924883Y-84653702D01*
X129940851Y-84661254D01*
X129956003Y-84670335D01*
X129970191Y-84680858D01*
X129983279Y-84692721D01*
X129995142Y-84705809D01*
X130005665Y-84719997D01*
X130014746Y-84735149D01*
X130022298Y-84751117D01*
X130028249Y-84767749D01*
X130032541Y-84784884D01*
X130035133Y-84802357D01*
X130036000Y-84820000D01*
X130036000Y-85360000D01*
X130035133Y-85377643D01*
X130032541Y-85395116D01*
X130028249Y-85412251D01*
X130022298Y-85428883D01*
X130014746Y-85444851D01*
X130005665Y-85460003D01*
X129995142Y-85474191D01*
X129983279Y-85487279D01*
X129970191Y-85499142D01*
X129956003Y-85509665D01*
X129940851Y-85518746D01*
X129924883Y-85526298D01*
X129908251Y-85532249D01*
X129891116Y-85536541D01*
X129873643Y-85539133D01*
X129856000Y-85540000D01*
X129016000Y-85540000D01*
X128998357Y-85539133D01*
X128980884Y-85536541D01*
X128963749Y-85532249D01*
X128947117Y-85526298D01*
X128931149Y-85518746D01*
X128915997Y-85509665D01*
X128901809Y-85499142D01*
X128888721Y-85487279D01*
X128876858Y-85474191D01*
X128866335Y-85460003D01*
X128857254Y-85444851D01*
X128849702Y-85428883D01*
X128843751Y-85412251D01*
X128839459Y-85395116D01*
X128836867Y-85377643D01*
X128836000Y-85360000D01*
X128836000Y-84820000D01*
X128836867Y-84802357D01*
X128839459Y-84784884D01*
X128843751Y-84767749D01*
X128849702Y-84751117D01*
X128857254Y-84735149D01*
X128866335Y-84719997D01*
X128876858Y-84705809D01*
X128888721Y-84692721D01*
X128901809Y-84680858D01*
X128915997Y-84670335D01*
X128931149Y-84661254D01*
X128947117Y-84653702D01*
X128963749Y-84647751D01*
X128980884Y-84643459D01*
X128998357Y-84640867D01*
X129016000Y-84640000D01*
X129856000Y-84640000D01*
X129873643Y-84640867D01*
X129873643Y-84640867D01*
G37*
D11*
X129436000Y-85090000D03*
D10*
G36*
X129873643Y-85910867D02*
G01*
X129891116Y-85913459D01*
X129908251Y-85917751D01*
X129924883Y-85923702D01*
X129940851Y-85931254D01*
X129956003Y-85940335D01*
X129970191Y-85950858D01*
X129983279Y-85962721D01*
X129995142Y-85975809D01*
X130005665Y-85989997D01*
X130014746Y-86005149D01*
X130022298Y-86021117D01*
X130028249Y-86037749D01*
X130032541Y-86054884D01*
X130035133Y-86072357D01*
X130036000Y-86090000D01*
X130036000Y-86630000D01*
X130035133Y-86647643D01*
X130032541Y-86665116D01*
X130028249Y-86682251D01*
X130022298Y-86698883D01*
X130014746Y-86714851D01*
X130005665Y-86730003D01*
X129995142Y-86744191D01*
X129983279Y-86757279D01*
X129970191Y-86769142D01*
X129956003Y-86779665D01*
X129940851Y-86788746D01*
X129924883Y-86796298D01*
X129908251Y-86802249D01*
X129891116Y-86806541D01*
X129873643Y-86809133D01*
X129856000Y-86810000D01*
X129016000Y-86810000D01*
X128998357Y-86809133D01*
X128980884Y-86806541D01*
X128963749Y-86802249D01*
X128947117Y-86796298D01*
X128931149Y-86788746D01*
X128915997Y-86779665D01*
X128901809Y-86769142D01*
X128888721Y-86757279D01*
X128876858Y-86744191D01*
X128866335Y-86730003D01*
X128857254Y-86714851D01*
X128849702Y-86698883D01*
X128843751Y-86682251D01*
X128839459Y-86665116D01*
X128836867Y-86647643D01*
X128836000Y-86630000D01*
X128836000Y-86090000D01*
X128836867Y-86072357D01*
X128839459Y-86054884D01*
X128843751Y-86037749D01*
X128849702Y-86021117D01*
X128857254Y-86005149D01*
X128866335Y-85989997D01*
X128876858Y-85975809D01*
X128888721Y-85962721D01*
X128901809Y-85950858D01*
X128915997Y-85940335D01*
X128931149Y-85931254D01*
X128947117Y-85923702D01*
X128963749Y-85917751D01*
X128980884Y-85913459D01*
X128998357Y-85910867D01*
X129016000Y-85910000D01*
X129856000Y-85910000D01*
X129873643Y-85910867D01*
X129873643Y-85910867D01*
G37*
D11*
X129436000Y-86360000D03*
D10*
G36*
X129873643Y-87180867D02*
G01*
X129891116Y-87183459D01*
X129908251Y-87187751D01*
X129924883Y-87193702D01*
X129940851Y-87201254D01*
X129956003Y-87210335D01*
X129970191Y-87220858D01*
X129983279Y-87232721D01*
X129995142Y-87245809D01*
X130005665Y-87259997D01*
X130014746Y-87275149D01*
X130022298Y-87291117D01*
X130028249Y-87307749D01*
X130032541Y-87324884D01*
X130035133Y-87342357D01*
X130036000Y-87360000D01*
X130036000Y-87900000D01*
X130035133Y-87917643D01*
X130032541Y-87935116D01*
X130028249Y-87952251D01*
X130022298Y-87968883D01*
X130014746Y-87984851D01*
X130005665Y-88000003D01*
X129995142Y-88014191D01*
X129983279Y-88027279D01*
X129970191Y-88039142D01*
X129956003Y-88049665D01*
X129940851Y-88058746D01*
X129924883Y-88066298D01*
X129908251Y-88072249D01*
X129891116Y-88076541D01*
X129873643Y-88079133D01*
X129856000Y-88080000D01*
X129016000Y-88080000D01*
X128998357Y-88079133D01*
X128980884Y-88076541D01*
X128963749Y-88072249D01*
X128947117Y-88066298D01*
X128931149Y-88058746D01*
X128915997Y-88049665D01*
X128901809Y-88039142D01*
X128888721Y-88027279D01*
X128876858Y-88014191D01*
X128866335Y-88000003D01*
X128857254Y-87984851D01*
X128849702Y-87968883D01*
X128843751Y-87952251D01*
X128839459Y-87935116D01*
X128836867Y-87917643D01*
X128836000Y-87900000D01*
X128836000Y-87360000D01*
X128836867Y-87342357D01*
X128839459Y-87324884D01*
X128843751Y-87307749D01*
X128849702Y-87291117D01*
X128857254Y-87275149D01*
X128866335Y-87259997D01*
X128876858Y-87245809D01*
X128888721Y-87232721D01*
X128901809Y-87220858D01*
X128915997Y-87210335D01*
X128931149Y-87201254D01*
X128947117Y-87193702D01*
X128963749Y-87187751D01*
X128980884Y-87183459D01*
X128998357Y-87180867D01*
X129016000Y-87180000D01*
X129856000Y-87180000D01*
X129873643Y-87180867D01*
X129873643Y-87180867D01*
G37*
D11*
X129436000Y-87630000D03*
D10*
G36*
X143543643Y-75750867D02*
G01*
X143561116Y-75753459D01*
X143578251Y-75757751D01*
X143594883Y-75763702D01*
X143610851Y-75771254D01*
X143626003Y-75780335D01*
X143640191Y-75790858D01*
X143653279Y-75802721D01*
X143665142Y-75815809D01*
X143675665Y-75829997D01*
X143684746Y-75845149D01*
X143692298Y-75861117D01*
X143698249Y-75877749D01*
X143702541Y-75894884D01*
X143705133Y-75912357D01*
X143706000Y-75930000D01*
X143706000Y-76470000D01*
X143705133Y-76487643D01*
X143702541Y-76505116D01*
X143698249Y-76522251D01*
X143692298Y-76538883D01*
X143684746Y-76554851D01*
X143675665Y-76570003D01*
X143665142Y-76584191D01*
X143653279Y-76597279D01*
X143640191Y-76609142D01*
X143626003Y-76619665D01*
X143610851Y-76628746D01*
X143594883Y-76636298D01*
X143578251Y-76642249D01*
X143561116Y-76646541D01*
X143543643Y-76649133D01*
X143526000Y-76650000D01*
X142686000Y-76650000D01*
X142668357Y-76649133D01*
X142650884Y-76646541D01*
X142633749Y-76642249D01*
X142617117Y-76636298D01*
X142601149Y-76628746D01*
X142585997Y-76619665D01*
X142571809Y-76609142D01*
X142558721Y-76597279D01*
X142546858Y-76584191D01*
X142536335Y-76570003D01*
X142527254Y-76554851D01*
X142519702Y-76538883D01*
X142513751Y-76522251D01*
X142509459Y-76505116D01*
X142506867Y-76487643D01*
X142506000Y-76470000D01*
X142506000Y-75930000D01*
X142506867Y-75912357D01*
X142509459Y-75894884D01*
X142513751Y-75877749D01*
X142519702Y-75861117D01*
X142527254Y-75845149D01*
X142536335Y-75829997D01*
X142546858Y-75815809D01*
X142558721Y-75802721D01*
X142571809Y-75790858D01*
X142585997Y-75780335D01*
X142601149Y-75771254D01*
X142617117Y-75763702D01*
X142633749Y-75757751D01*
X142650884Y-75753459D01*
X142668357Y-75750867D01*
X142686000Y-75750000D01*
X143526000Y-75750000D01*
X143543643Y-75750867D01*
X143543643Y-75750867D01*
G37*
D11*
X143106000Y-76200000D03*
D10*
G36*
X143543643Y-77020867D02*
G01*
X143561116Y-77023459D01*
X143578251Y-77027751D01*
X143594883Y-77033702D01*
X143610851Y-77041254D01*
X143626003Y-77050335D01*
X143640191Y-77060858D01*
X143653279Y-77072721D01*
X143665142Y-77085809D01*
X143675665Y-77099997D01*
X143684746Y-77115149D01*
X143692298Y-77131117D01*
X143698249Y-77147749D01*
X143702541Y-77164884D01*
X143705133Y-77182357D01*
X143706000Y-77200000D01*
X143706000Y-77740000D01*
X143705133Y-77757643D01*
X143702541Y-77775116D01*
X143698249Y-77792251D01*
X143692298Y-77808883D01*
X143684746Y-77824851D01*
X143675665Y-77840003D01*
X143665142Y-77854191D01*
X143653279Y-77867279D01*
X143640191Y-77879142D01*
X143626003Y-77889665D01*
X143610851Y-77898746D01*
X143594883Y-77906298D01*
X143578251Y-77912249D01*
X143561116Y-77916541D01*
X143543643Y-77919133D01*
X143526000Y-77920000D01*
X142686000Y-77920000D01*
X142668357Y-77919133D01*
X142650884Y-77916541D01*
X142633749Y-77912249D01*
X142617117Y-77906298D01*
X142601149Y-77898746D01*
X142585997Y-77889665D01*
X142571809Y-77879142D01*
X142558721Y-77867279D01*
X142546858Y-77854191D01*
X142536335Y-77840003D01*
X142527254Y-77824851D01*
X142519702Y-77808883D01*
X142513751Y-77792251D01*
X142509459Y-77775116D01*
X142506867Y-77757643D01*
X142506000Y-77740000D01*
X142506000Y-77200000D01*
X142506867Y-77182357D01*
X142509459Y-77164884D01*
X142513751Y-77147749D01*
X142519702Y-77131117D01*
X142527254Y-77115149D01*
X142536335Y-77099997D01*
X142546858Y-77085809D01*
X142558721Y-77072721D01*
X142571809Y-77060858D01*
X142585997Y-77050335D01*
X142601149Y-77041254D01*
X142617117Y-77033702D01*
X142633749Y-77027751D01*
X142650884Y-77023459D01*
X142668357Y-77020867D01*
X142686000Y-77020000D01*
X143526000Y-77020000D01*
X143543643Y-77020867D01*
X143543643Y-77020867D01*
G37*
D11*
X143106000Y-77470000D03*
D10*
G36*
X143543643Y-78290867D02*
G01*
X143561116Y-78293459D01*
X143578251Y-78297751D01*
X143594883Y-78303702D01*
X143610851Y-78311254D01*
X143626003Y-78320335D01*
X143640191Y-78330858D01*
X143653279Y-78342721D01*
X143665142Y-78355809D01*
X143675665Y-78369997D01*
X143684746Y-78385149D01*
X143692298Y-78401117D01*
X143698249Y-78417749D01*
X143702541Y-78434884D01*
X143705133Y-78452357D01*
X143706000Y-78470000D01*
X143706000Y-79010000D01*
X143705133Y-79027643D01*
X143702541Y-79045116D01*
X143698249Y-79062251D01*
X143692298Y-79078883D01*
X143684746Y-79094851D01*
X143675665Y-79110003D01*
X143665142Y-79124191D01*
X143653279Y-79137279D01*
X143640191Y-79149142D01*
X143626003Y-79159665D01*
X143610851Y-79168746D01*
X143594883Y-79176298D01*
X143578251Y-79182249D01*
X143561116Y-79186541D01*
X143543643Y-79189133D01*
X143526000Y-79190000D01*
X142686000Y-79190000D01*
X142668357Y-79189133D01*
X142650884Y-79186541D01*
X142633749Y-79182249D01*
X142617117Y-79176298D01*
X142601149Y-79168746D01*
X142585997Y-79159665D01*
X142571809Y-79149142D01*
X142558721Y-79137279D01*
X142546858Y-79124191D01*
X142536335Y-79110003D01*
X142527254Y-79094851D01*
X142519702Y-79078883D01*
X142513751Y-79062251D01*
X142509459Y-79045116D01*
X142506867Y-79027643D01*
X142506000Y-79010000D01*
X142506000Y-78470000D01*
X142506867Y-78452357D01*
X142509459Y-78434884D01*
X142513751Y-78417749D01*
X142519702Y-78401117D01*
X142527254Y-78385149D01*
X142536335Y-78369997D01*
X142546858Y-78355809D01*
X142558721Y-78342721D01*
X142571809Y-78330858D01*
X142585997Y-78320335D01*
X142601149Y-78311254D01*
X142617117Y-78303702D01*
X142633749Y-78297751D01*
X142650884Y-78293459D01*
X142668357Y-78290867D01*
X142686000Y-78290000D01*
X143526000Y-78290000D01*
X143543643Y-78290867D01*
X143543643Y-78290867D01*
G37*
D11*
X143106000Y-78740000D03*
D10*
G36*
X143543643Y-79560867D02*
G01*
X143561116Y-79563459D01*
X143578251Y-79567751D01*
X143594883Y-79573702D01*
X143610851Y-79581254D01*
X143626003Y-79590335D01*
X143640191Y-79600858D01*
X143653279Y-79612721D01*
X143665142Y-79625809D01*
X143675665Y-79639997D01*
X143684746Y-79655149D01*
X143692298Y-79671117D01*
X143698249Y-79687749D01*
X143702541Y-79704884D01*
X143705133Y-79722357D01*
X143706000Y-79740000D01*
X143706000Y-80280000D01*
X143705133Y-80297643D01*
X143702541Y-80315116D01*
X143698249Y-80332251D01*
X143692298Y-80348883D01*
X143684746Y-80364851D01*
X143675665Y-80380003D01*
X143665142Y-80394191D01*
X143653279Y-80407279D01*
X143640191Y-80419142D01*
X143626003Y-80429665D01*
X143610851Y-80438746D01*
X143594883Y-80446298D01*
X143578251Y-80452249D01*
X143561116Y-80456541D01*
X143543643Y-80459133D01*
X143526000Y-80460000D01*
X142686000Y-80460000D01*
X142668357Y-80459133D01*
X142650884Y-80456541D01*
X142633749Y-80452249D01*
X142617117Y-80446298D01*
X142601149Y-80438746D01*
X142585997Y-80429665D01*
X142571809Y-80419142D01*
X142558721Y-80407279D01*
X142546858Y-80394191D01*
X142536335Y-80380003D01*
X142527254Y-80364851D01*
X142519702Y-80348883D01*
X142513751Y-80332251D01*
X142509459Y-80315116D01*
X142506867Y-80297643D01*
X142506000Y-80280000D01*
X142506000Y-79740000D01*
X142506867Y-79722357D01*
X142509459Y-79704884D01*
X142513751Y-79687749D01*
X142519702Y-79671117D01*
X142527254Y-79655149D01*
X142536335Y-79639997D01*
X142546858Y-79625809D01*
X142558721Y-79612721D01*
X142571809Y-79600858D01*
X142585997Y-79590335D01*
X142601149Y-79581254D01*
X142617117Y-79573702D01*
X142633749Y-79567751D01*
X142650884Y-79563459D01*
X142668357Y-79560867D01*
X142686000Y-79560000D01*
X143526000Y-79560000D01*
X143543643Y-79560867D01*
X143543643Y-79560867D01*
G37*
D11*
X143106000Y-80010000D03*
D10*
G36*
X143543643Y-80830867D02*
G01*
X143561116Y-80833459D01*
X143578251Y-80837751D01*
X143594883Y-80843702D01*
X143610851Y-80851254D01*
X143626003Y-80860335D01*
X143640191Y-80870858D01*
X143653279Y-80882721D01*
X143665142Y-80895809D01*
X143675665Y-80909997D01*
X143684746Y-80925149D01*
X143692298Y-80941117D01*
X143698249Y-80957749D01*
X143702541Y-80974884D01*
X143705133Y-80992357D01*
X143706000Y-81010000D01*
X143706000Y-81550000D01*
X143705133Y-81567643D01*
X143702541Y-81585116D01*
X143698249Y-81602251D01*
X143692298Y-81618883D01*
X143684746Y-81634851D01*
X143675665Y-81650003D01*
X143665142Y-81664191D01*
X143653279Y-81677279D01*
X143640191Y-81689142D01*
X143626003Y-81699665D01*
X143610851Y-81708746D01*
X143594883Y-81716298D01*
X143578251Y-81722249D01*
X143561116Y-81726541D01*
X143543643Y-81729133D01*
X143526000Y-81730000D01*
X142686000Y-81730000D01*
X142668357Y-81729133D01*
X142650884Y-81726541D01*
X142633749Y-81722249D01*
X142617117Y-81716298D01*
X142601149Y-81708746D01*
X142585997Y-81699665D01*
X142571809Y-81689142D01*
X142558721Y-81677279D01*
X142546858Y-81664191D01*
X142536335Y-81650003D01*
X142527254Y-81634851D01*
X142519702Y-81618883D01*
X142513751Y-81602251D01*
X142509459Y-81585116D01*
X142506867Y-81567643D01*
X142506000Y-81550000D01*
X142506000Y-81010000D01*
X142506867Y-80992357D01*
X142509459Y-80974884D01*
X142513751Y-80957749D01*
X142519702Y-80941117D01*
X142527254Y-80925149D01*
X142536335Y-80909997D01*
X142546858Y-80895809D01*
X142558721Y-80882721D01*
X142571809Y-80870858D01*
X142585997Y-80860335D01*
X142601149Y-80851254D01*
X142617117Y-80843702D01*
X142633749Y-80837751D01*
X142650884Y-80833459D01*
X142668357Y-80830867D01*
X142686000Y-80830000D01*
X143526000Y-80830000D01*
X143543643Y-80830867D01*
X143543643Y-80830867D01*
G37*
D11*
X143106000Y-81280000D03*
D10*
G36*
X143543643Y-82100867D02*
G01*
X143561116Y-82103459D01*
X143578251Y-82107751D01*
X143594883Y-82113702D01*
X143610851Y-82121254D01*
X143626003Y-82130335D01*
X143640191Y-82140858D01*
X143653279Y-82152721D01*
X143665142Y-82165809D01*
X143675665Y-82179997D01*
X143684746Y-82195149D01*
X143692298Y-82211117D01*
X143698249Y-82227749D01*
X143702541Y-82244884D01*
X143705133Y-82262357D01*
X143706000Y-82280000D01*
X143706000Y-82820000D01*
X143705133Y-82837643D01*
X143702541Y-82855116D01*
X143698249Y-82872251D01*
X143692298Y-82888883D01*
X143684746Y-82904851D01*
X143675665Y-82920003D01*
X143665142Y-82934191D01*
X143653279Y-82947279D01*
X143640191Y-82959142D01*
X143626003Y-82969665D01*
X143610851Y-82978746D01*
X143594883Y-82986298D01*
X143578251Y-82992249D01*
X143561116Y-82996541D01*
X143543643Y-82999133D01*
X143526000Y-83000000D01*
X142686000Y-83000000D01*
X142668357Y-82999133D01*
X142650884Y-82996541D01*
X142633749Y-82992249D01*
X142617117Y-82986298D01*
X142601149Y-82978746D01*
X142585997Y-82969665D01*
X142571809Y-82959142D01*
X142558721Y-82947279D01*
X142546858Y-82934191D01*
X142536335Y-82920003D01*
X142527254Y-82904851D01*
X142519702Y-82888883D01*
X142513751Y-82872251D01*
X142509459Y-82855116D01*
X142506867Y-82837643D01*
X142506000Y-82820000D01*
X142506000Y-82280000D01*
X142506867Y-82262357D01*
X142509459Y-82244884D01*
X142513751Y-82227749D01*
X142519702Y-82211117D01*
X142527254Y-82195149D01*
X142536335Y-82179997D01*
X142546858Y-82165809D01*
X142558721Y-82152721D01*
X142571809Y-82140858D01*
X142585997Y-82130335D01*
X142601149Y-82121254D01*
X142617117Y-82113702D01*
X142633749Y-82107751D01*
X142650884Y-82103459D01*
X142668357Y-82100867D01*
X142686000Y-82100000D01*
X143526000Y-82100000D01*
X143543643Y-82100867D01*
X143543643Y-82100867D01*
G37*
D11*
X143106000Y-82550000D03*
D10*
G36*
X143543643Y-83370867D02*
G01*
X143561116Y-83373459D01*
X143578251Y-83377751D01*
X143594883Y-83383702D01*
X143610851Y-83391254D01*
X143626003Y-83400335D01*
X143640191Y-83410858D01*
X143653279Y-83422721D01*
X143665142Y-83435809D01*
X143675665Y-83449997D01*
X143684746Y-83465149D01*
X143692298Y-83481117D01*
X143698249Y-83497749D01*
X143702541Y-83514884D01*
X143705133Y-83532357D01*
X143706000Y-83550000D01*
X143706000Y-84090000D01*
X143705133Y-84107643D01*
X143702541Y-84125116D01*
X143698249Y-84142251D01*
X143692298Y-84158883D01*
X143684746Y-84174851D01*
X143675665Y-84190003D01*
X143665142Y-84204191D01*
X143653279Y-84217279D01*
X143640191Y-84229142D01*
X143626003Y-84239665D01*
X143610851Y-84248746D01*
X143594883Y-84256298D01*
X143578251Y-84262249D01*
X143561116Y-84266541D01*
X143543643Y-84269133D01*
X143526000Y-84270000D01*
X142686000Y-84270000D01*
X142668357Y-84269133D01*
X142650884Y-84266541D01*
X142633749Y-84262249D01*
X142617117Y-84256298D01*
X142601149Y-84248746D01*
X142585997Y-84239665D01*
X142571809Y-84229142D01*
X142558721Y-84217279D01*
X142546858Y-84204191D01*
X142536335Y-84190003D01*
X142527254Y-84174851D01*
X142519702Y-84158883D01*
X142513751Y-84142251D01*
X142509459Y-84125116D01*
X142506867Y-84107643D01*
X142506000Y-84090000D01*
X142506000Y-83550000D01*
X142506867Y-83532357D01*
X142509459Y-83514884D01*
X142513751Y-83497749D01*
X142519702Y-83481117D01*
X142527254Y-83465149D01*
X142536335Y-83449997D01*
X142546858Y-83435809D01*
X142558721Y-83422721D01*
X142571809Y-83410858D01*
X142585997Y-83400335D01*
X142601149Y-83391254D01*
X142617117Y-83383702D01*
X142633749Y-83377751D01*
X142650884Y-83373459D01*
X142668357Y-83370867D01*
X142686000Y-83370000D01*
X143526000Y-83370000D01*
X143543643Y-83370867D01*
X143543643Y-83370867D01*
G37*
D11*
X143106000Y-83820000D03*
D10*
G36*
X143543643Y-84640867D02*
G01*
X143561116Y-84643459D01*
X143578251Y-84647751D01*
X143594883Y-84653702D01*
X143610851Y-84661254D01*
X143626003Y-84670335D01*
X143640191Y-84680858D01*
X143653279Y-84692721D01*
X143665142Y-84705809D01*
X143675665Y-84719997D01*
X143684746Y-84735149D01*
X143692298Y-84751117D01*
X143698249Y-84767749D01*
X143702541Y-84784884D01*
X143705133Y-84802357D01*
X143706000Y-84820000D01*
X143706000Y-85360000D01*
X143705133Y-85377643D01*
X143702541Y-85395116D01*
X143698249Y-85412251D01*
X143692298Y-85428883D01*
X143684746Y-85444851D01*
X143675665Y-85460003D01*
X143665142Y-85474191D01*
X143653279Y-85487279D01*
X143640191Y-85499142D01*
X143626003Y-85509665D01*
X143610851Y-85518746D01*
X143594883Y-85526298D01*
X143578251Y-85532249D01*
X143561116Y-85536541D01*
X143543643Y-85539133D01*
X143526000Y-85540000D01*
X142686000Y-85540000D01*
X142668357Y-85539133D01*
X142650884Y-85536541D01*
X142633749Y-85532249D01*
X142617117Y-85526298D01*
X142601149Y-85518746D01*
X142585997Y-85509665D01*
X142571809Y-85499142D01*
X142558721Y-85487279D01*
X142546858Y-85474191D01*
X142536335Y-85460003D01*
X142527254Y-85444851D01*
X142519702Y-85428883D01*
X142513751Y-85412251D01*
X142509459Y-85395116D01*
X142506867Y-85377643D01*
X142506000Y-85360000D01*
X142506000Y-84820000D01*
X142506867Y-84802357D01*
X142509459Y-84784884D01*
X142513751Y-84767749D01*
X142519702Y-84751117D01*
X142527254Y-84735149D01*
X142536335Y-84719997D01*
X142546858Y-84705809D01*
X142558721Y-84692721D01*
X142571809Y-84680858D01*
X142585997Y-84670335D01*
X142601149Y-84661254D01*
X142617117Y-84653702D01*
X142633749Y-84647751D01*
X142650884Y-84643459D01*
X142668357Y-84640867D01*
X142686000Y-84640000D01*
X143526000Y-84640000D01*
X143543643Y-84640867D01*
X143543643Y-84640867D01*
G37*
D11*
X143106000Y-85090000D03*
D10*
G36*
X143543643Y-85910867D02*
G01*
X143561116Y-85913459D01*
X143578251Y-85917751D01*
X143594883Y-85923702D01*
X143610851Y-85931254D01*
X143626003Y-85940335D01*
X143640191Y-85950858D01*
X143653279Y-85962721D01*
X143665142Y-85975809D01*
X143675665Y-85989997D01*
X143684746Y-86005149D01*
X143692298Y-86021117D01*
X143698249Y-86037749D01*
X143702541Y-86054884D01*
X143705133Y-86072357D01*
X143706000Y-86090000D01*
X143706000Y-86630000D01*
X143705133Y-86647643D01*
X143702541Y-86665116D01*
X143698249Y-86682251D01*
X143692298Y-86698883D01*
X143684746Y-86714851D01*
X143675665Y-86730003D01*
X143665142Y-86744191D01*
X143653279Y-86757279D01*
X143640191Y-86769142D01*
X143626003Y-86779665D01*
X143610851Y-86788746D01*
X143594883Y-86796298D01*
X143578251Y-86802249D01*
X143561116Y-86806541D01*
X143543643Y-86809133D01*
X143526000Y-86810000D01*
X142686000Y-86810000D01*
X142668357Y-86809133D01*
X142650884Y-86806541D01*
X142633749Y-86802249D01*
X142617117Y-86796298D01*
X142601149Y-86788746D01*
X142585997Y-86779665D01*
X142571809Y-86769142D01*
X142558721Y-86757279D01*
X142546858Y-86744191D01*
X142536335Y-86730003D01*
X142527254Y-86714851D01*
X142519702Y-86698883D01*
X142513751Y-86682251D01*
X142509459Y-86665116D01*
X142506867Y-86647643D01*
X142506000Y-86630000D01*
X142506000Y-86090000D01*
X142506867Y-86072357D01*
X142509459Y-86054884D01*
X142513751Y-86037749D01*
X142519702Y-86021117D01*
X142527254Y-86005149D01*
X142536335Y-85989997D01*
X142546858Y-85975809D01*
X142558721Y-85962721D01*
X142571809Y-85950858D01*
X142585997Y-85940335D01*
X142601149Y-85931254D01*
X142617117Y-85923702D01*
X142633749Y-85917751D01*
X142650884Y-85913459D01*
X142668357Y-85910867D01*
X142686000Y-85910000D01*
X143526000Y-85910000D01*
X143543643Y-85910867D01*
X143543643Y-85910867D01*
G37*
D11*
X143106000Y-86360000D03*
D10*
G36*
X143543643Y-87180867D02*
G01*
X143561116Y-87183459D01*
X143578251Y-87187751D01*
X143594883Y-87193702D01*
X143610851Y-87201254D01*
X143626003Y-87210335D01*
X143640191Y-87220858D01*
X143653279Y-87232721D01*
X143665142Y-87245809D01*
X143675665Y-87259997D01*
X143684746Y-87275149D01*
X143692298Y-87291117D01*
X143698249Y-87307749D01*
X143702541Y-87324884D01*
X143705133Y-87342357D01*
X143706000Y-87360000D01*
X143706000Y-87900000D01*
X143705133Y-87917643D01*
X143702541Y-87935116D01*
X143698249Y-87952251D01*
X143692298Y-87968883D01*
X143684746Y-87984851D01*
X143675665Y-88000003D01*
X143665142Y-88014191D01*
X143653279Y-88027279D01*
X143640191Y-88039142D01*
X143626003Y-88049665D01*
X143610851Y-88058746D01*
X143594883Y-88066298D01*
X143578251Y-88072249D01*
X143561116Y-88076541D01*
X143543643Y-88079133D01*
X143526000Y-88080000D01*
X142686000Y-88080000D01*
X142668357Y-88079133D01*
X142650884Y-88076541D01*
X142633749Y-88072249D01*
X142617117Y-88066298D01*
X142601149Y-88058746D01*
X142585997Y-88049665D01*
X142571809Y-88039142D01*
X142558721Y-88027279D01*
X142546858Y-88014191D01*
X142536335Y-88000003D01*
X142527254Y-87984851D01*
X142519702Y-87968883D01*
X142513751Y-87952251D01*
X142509459Y-87935116D01*
X142506867Y-87917643D01*
X142506000Y-87900000D01*
X142506000Y-87360000D01*
X142506867Y-87342357D01*
X142509459Y-87324884D01*
X142513751Y-87307749D01*
X142519702Y-87291117D01*
X142527254Y-87275149D01*
X142536335Y-87259997D01*
X142546858Y-87245809D01*
X142558721Y-87232721D01*
X142571809Y-87220858D01*
X142585997Y-87210335D01*
X142601149Y-87201254D01*
X142617117Y-87193702D01*
X142633749Y-87187751D01*
X142650884Y-87183459D01*
X142668357Y-87180867D01*
X142686000Y-87180000D01*
X143526000Y-87180000D01*
X143543643Y-87180867D01*
X143543643Y-87180867D01*
G37*
D11*
X143106000Y-87630000D03*
D10*
G36*
X132113643Y-88785867D02*
G01*
X132131116Y-88788459D01*
X132148251Y-88792751D01*
X132164883Y-88798702D01*
X132180851Y-88806254D01*
X132196003Y-88815335D01*
X132210191Y-88825858D01*
X132223279Y-88837721D01*
X132235142Y-88850809D01*
X132245665Y-88864997D01*
X132254746Y-88880149D01*
X132262298Y-88896117D01*
X132268249Y-88912749D01*
X132272541Y-88929884D01*
X132275133Y-88947357D01*
X132276000Y-88965000D01*
X132276000Y-89805000D01*
X132275133Y-89822643D01*
X132272541Y-89840116D01*
X132268249Y-89857251D01*
X132262298Y-89873883D01*
X132254746Y-89889851D01*
X132245665Y-89905003D01*
X132235142Y-89919191D01*
X132223279Y-89932279D01*
X132210191Y-89944142D01*
X132196003Y-89954665D01*
X132180851Y-89963746D01*
X132164883Y-89971298D01*
X132148251Y-89977249D01*
X132131116Y-89981541D01*
X132113643Y-89984133D01*
X132096000Y-89985000D01*
X131556000Y-89985000D01*
X131538357Y-89984133D01*
X131520884Y-89981541D01*
X131503749Y-89977249D01*
X131487117Y-89971298D01*
X131471149Y-89963746D01*
X131455997Y-89954665D01*
X131441809Y-89944142D01*
X131428721Y-89932279D01*
X131416858Y-89919191D01*
X131406335Y-89905003D01*
X131397254Y-89889851D01*
X131389702Y-89873883D01*
X131383751Y-89857251D01*
X131379459Y-89840116D01*
X131376867Y-89822643D01*
X131376000Y-89805000D01*
X131376000Y-88965000D01*
X131376867Y-88947357D01*
X131379459Y-88929884D01*
X131383751Y-88912749D01*
X131389702Y-88896117D01*
X131397254Y-88880149D01*
X131406335Y-88864997D01*
X131416858Y-88850809D01*
X131428721Y-88837721D01*
X131441809Y-88825858D01*
X131455997Y-88815335D01*
X131471149Y-88806254D01*
X131487117Y-88798702D01*
X131503749Y-88792751D01*
X131520884Y-88788459D01*
X131538357Y-88785867D01*
X131556000Y-88785000D01*
X132096000Y-88785000D01*
X132113643Y-88785867D01*
X132113643Y-88785867D01*
G37*
D11*
X131826000Y-89385000D03*
D10*
G36*
X133383643Y-88785867D02*
G01*
X133401116Y-88788459D01*
X133418251Y-88792751D01*
X133434883Y-88798702D01*
X133450851Y-88806254D01*
X133466003Y-88815335D01*
X133480191Y-88825858D01*
X133493279Y-88837721D01*
X133505142Y-88850809D01*
X133515665Y-88864997D01*
X133524746Y-88880149D01*
X133532298Y-88896117D01*
X133538249Y-88912749D01*
X133542541Y-88929884D01*
X133545133Y-88947357D01*
X133546000Y-88965000D01*
X133546000Y-89805000D01*
X133545133Y-89822643D01*
X133542541Y-89840116D01*
X133538249Y-89857251D01*
X133532298Y-89873883D01*
X133524746Y-89889851D01*
X133515665Y-89905003D01*
X133505142Y-89919191D01*
X133493279Y-89932279D01*
X133480191Y-89944142D01*
X133466003Y-89954665D01*
X133450851Y-89963746D01*
X133434883Y-89971298D01*
X133418251Y-89977249D01*
X133401116Y-89981541D01*
X133383643Y-89984133D01*
X133366000Y-89985000D01*
X132826000Y-89985000D01*
X132808357Y-89984133D01*
X132790884Y-89981541D01*
X132773749Y-89977249D01*
X132757117Y-89971298D01*
X132741149Y-89963746D01*
X132725997Y-89954665D01*
X132711809Y-89944142D01*
X132698721Y-89932279D01*
X132686858Y-89919191D01*
X132676335Y-89905003D01*
X132667254Y-89889851D01*
X132659702Y-89873883D01*
X132653751Y-89857251D01*
X132649459Y-89840116D01*
X132646867Y-89822643D01*
X132646000Y-89805000D01*
X132646000Y-88965000D01*
X132646867Y-88947357D01*
X132649459Y-88929884D01*
X132653751Y-88912749D01*
X132659702Y-88896117D01*
X132667254Y-88880149D01*
X132676335Y-88864997D01*
X132686858Y-88850809D01*
X132698721Y-88837721D01*
X132711809Y-88825858D01*
X132725997Y-88815335D01*
X132741149Y-88806254D01*
X132757117Y-88798702D01*
X132773749Y-88792751D01*
X132790884Y-88788459D01*
X132808357Y-88785867D01*
X132826000Y-88785000D01*
X133366000Y-88785000D01*
X133383643Y-88785867D01*
X133383643Y-88785867D01*
G37*
D11*
X133096000Y-89385000D03*
D10*
G36*
X134653643Y-88785867D02*
G01*
X134671116Y-88788459D01*
X134688251Y-88792751D01*
X134704883Y-88798702D01*
X134720851Y-88806254D01*
X134736003Y-88815335D01*
X134750191Y-88825858D01*
X134763279Y-88837721D01*
X134775142Y-88850809D01*
X134785665Y-88864997D01*
X134794746Y-88880149D01*
X134802298Y-88896117D01*
X134808249Y-88912749D01*
X134812541Y-88929884D01*
X134815133Y-88947357D01*
X134816000Y-88965000D01*
X134816000Y-89805000D01*
X134815133Y-89822643D01*
X134812541Y-89840116D01*
X134808249Y-89857251D01*
X134802298Y-89873883D01*
X134794746Y-89889851D01*
X134785665Y-89905003D01*
X134775142Y-89919191D01*
X134763279Y-89932279D01*
X134750191Y-89944142D01*
X134736003Y-89954665D01*
X134720851Y-89963746D01*
X134704883Y-89971298D01*
X134688251Y-89977249D01*
X134671116Y-89981541D01*
X134653643Y-89984133D01*
X134636000Y-89985000D01*
X134096000Y-89985000D01*
X134078357Y-89984133D01*
X134060884Y-89981541D01*
X134043749Y-89977249D01*
X134027117Y-89971298D01*
X134011149Y-89963746D01*
X133995997Y-89954665D01*
X133981809Y-89944142D01*
X133968721Y-89932279D01*
X133956858Y-89919191D01*
X133946335Y-89905003D01*
X133937254Y-89889851D01*
X133929702Y-89873883D01*
X133923751Y-89857251D01*
X133919459Y-89840116D01*
X133916867Y-89822643D01*
X133916000Y-89805000D01*
X133916000Y-88965000D01*
X133916867Y-88947357D01*
X133919459Y-88929884D01*
X133923751Y-88912749D01*
X133929702Y-88896117D01*
X133937254Y-88880149D01*
X133946335Y-88864997D01*
X133956858Y-88850809D01*
X133968721Y-88837721D01*
X133981809Y-88825858D01*
X133995997Y-88815335D01*
X134011149Y-88806254D01*
X134027117Y-88798702D01*
X134043749Y-88792751D01*
X134060884Y-88788459D01*
X134078357Y-88785867D01*
X134096000Y-88785000D01*
X134636000Y-88785000D01*
X134653643Y-88785867D01*
X134653643Y-88785867D01*
G37*
D11*
X134366000Y-89385000D03*
D10*
G36*
X135923643Y-88785867D02*
G01*
X135941116Y-88788459D01*
X135958251Y-88792751D01*
X135974883Y-88798702D01*
X135990851Y-88806254D01*
X136006003Y-88815335D01*
X136020191Y-88825858D01*
X136033279Y-88837721D01*
X136045142Y-88850809D01*
X136055665Y-88864997D01*
X136064746Y-88880149D01*
X136072298Y-88896117D01*
X136078249Y-88912749D01*
X136082541Y-88929884D01*
X136085133Y-88947357D01*
X136086000Y-88965000D01*
X136086000Y-89805000D01*
X136085133Y-89822643D01*
X136082541Y-89840116D01*
X136078249Y-89857251D01*
X136072298Y-89873883D01*
X136064746Y-89889851D01*
X136055665Y-89905003D01*
X136045142Y-89919191D01*
X136033279Y-89932279D01*
X136020191Y-89944142D01*
X136006003Y-89954665D01*
X135990851Y-89963746D01*
X135974883Y-89971298D01*
X135958251Y-89977249D01*
X135941116Y-89981541D01*
X135923643Y-89984133D01*
X135906000Y-89985000D01*
X135366000Y-89985000D01*
X135348357Y-89984133D01*
X135330884Y-89981541D01*
X135313749Y-89977249D01*
X135297117Y-89971298D01*
X135281149Y-89963746D01*
X135265997Y-89954665D01*
X135251809Y-89944142D01*
X135238721Y-89932279D01*
X135226858Y-89919191D01*
X135216335Y-89905003D01*
X135207254Y-89889851D01*
X135199702Y-89873883D01*
X135193751Y-89857251D01*
X135189459Y-89840116D01*
X135186867Y-89822643D01*
X135186000Y-89805000D01*
X135186000Y-88965000D01*
X135186867Y-88947357D01*
X135189459Y-88929884D01*
X135193751Y-88912749D01*
X135199702Y-88896117D01*
X135207254Y-88880149D01*
X135216335Y-88864997D01*
X135226858Y-88850809D01*
X135238721Y-88837721D01*
X135251809Y-88825858D01*
X135265997Y-88815335D01*
X135281149Y-88806254D01*
X135297117Y-88798702D01*
X135313749Y-88792751D01*
X135330884Y-88788459D01*
X135348357Y-88785867D01*
X135366000Y-88785000D01*
X135906000Y-88785000D01*
X135923643Y-88785867D01*
X135923643Y-88785867D01*
G37*
D11*
X135636000Y-89385000D03*
D10*
G36*
X137193643Y-88785867D02*
G01*
X137211116Y-88788459D01*
X137228251Y-88792751D01*
X137244883Y-88798702D01*
X137260851Y-88806254D01*
X137276003Y-88815335D01*
X137290191Y-88825858D01*
X137303279Y-88837721D01*
X137315142Y-88850809D01*
X137325665Y-88864997D01*
X137334746Y-88880149D01*
X137342298Y-88896117D01*
X137348249Y-88912749D01*
X137352541Y-88929884D01*
X137355133Y-88947357D01*
X137356000Y-88965000D01*
X137356000Y-89805000D01*
X137355133Y-89822643D01*
X137352541Y-89840116D01*
X137348249Y-89857251D01*
X137342298Y-89873883D01*
X137334746Y-89889851D01*
X137325665Y-89905003D01*
X137315142Y-89919191D01*
X137303279Y-89932279D01*
X137290191Y-89944142D01*
X137276003Y-89954665D01*
X137260851Y-89963746D01*
X137244883Y-89971298D01*
X137228251Y-89977249D01*
X137211116Y-89981541D01*
X137193643Y-89984133D01*
X137176000Y-89985000D01*
X136636000Y-89985000D01*
X136618357Y-89984133D01*
X136600884Y-89981541D01*
X136583749Y-89977249D01*
X136567117Y-89971298D01*
X136551149Y-89963746D01*
X136535997Y-89954665D01*
X136521809Y-89944142D01*
X136508721Y-89932279D01*
X136496858Y-89919191D01*
X136486335Y-89905003D01*
X136477254Y-89889851D01*
X136469702Y-89873883D01*
X136463751Y-89857251D01*
X136459459Y-89840116D01*
X136456867Y-89822643D01*
X136456000Y-89805000D01*
X136456000Y-88965000D01*
X136456867Y-88947357D01*
X136459459Y-88929884D01*
X136463751Y-88912749D01*
X136469702Y-88896117D01*
X136477254Y-88880149D01*
X136486335Y-88864997D01*
X136496858Y-88850809D01*
X136508721Y-88837721D01*
X136521809Y-88825858D01*
X136535997Y-88815335D01*
X136551149Y-88806254D01*
X136567117Y-88798702D01*
X136583749Y-88792751D01*
X136600884Y-88788459D01*
X136618357Y-88785867D01*
X136636000Y-88785000D01*
X137176000Y-88785000D01*
X137193643Y-88785867D01*
X137193643Y-88785867D01*
G37*
D11*
X136906000Y-89385000D03*
D10*
G36*
X138463643Y-88785867D02*
G01*
X138481116Y-88788459D01*
X138498251Y-88792751D01*
X138514883Y-88798702D01*
X138530851Y-88806254D01*
X138546003Y-88815335D01*
X138560191Y-88825858D01*
X138573279Y-88837721D01*
X138585142Y-88850809D01*
X138595665Y-88864997D01*
X138604746Y-88880149D01*
X138612298Y-88896117D01*
X138618249Y-88912749D01*
X138622541Y-88929884D01*
X138625133Y-88947357D01*
X138626000Y-88965000D01*
X138626000Y-89805000D01*
X138625133Y-89822643D01*
X138622541Y-89840116D01*
X138618249Y-89857251D01*
X138612298Y-89873883D01*
X138604746Y-89889851D01*
X138595665Y-89905003D01*
X138585142Y-89919191D01*
X138573279Y-89932279D01*
X138560191Y-89944142D01*
X138546003Y-89954665D01*
X138530851Y-89963746D01*
X138514883Y-89971298D01*
X138498251Y-89977249D01*
X138481116Y-89981541D01*
X138463643Y-89984133D01*
X138446000Y-89985000D01*
X137906000Y-89985000D01*
X137888357Y-89984133D01*
X137870884Y-89981541D01*
X137853749Y-89977249D01*
X137837117Y-89971298D01*
X137821149Y-89963746D01*
X137805997Y-89954665D01*
X137791809Y-89944142D01*
X137778721Y-89932279D01*
X137766858Y-89919191D01*
X137756335Y-89905003D01*
X137747254Y-89889851D01*
X137739702Y-89873883D01*
X137733751Y-89857251D01*
X137729459Y-89840116D01*
X137726867Y-89822643D01*
X137726000Y-89805000D01*
X137726000Y-88965000D01*
X137726867Y-88947357D01*
X137729459Y-88929884D01*
X137733751Y-88912749D01*
X137739702Y-88896117D01*
X137747254Y-88880149D01*
X137756335Y-88864997D01*
X137766858Y-88850809D01*
X137778721Y-88837721D01*
X137791809Y-88825858D01*
X137805997Y-88815335D01*
X137821149Y-88806254D01*
X137837117Y-88798702D01*
X137853749Y-88792751D01*
X137870884Y-88788459D01*
X137888357Y-88785867D01*
X137906000Y-88785000D01*
X138446000Y-88785000D01*
X138463643Y-88785867D01*
X138463643Y-88785867D01*
G37*
D11*
X138176000Y-89385000D03*
D10*
G36*
X139733643Y-88785867D02*
G01*
X139751116Y-88788459D01*
X139768251Y-88792751D01*
X139784883Y-88798702D01*
X139800851Y-88806254D01*
X139816003Y-88815335D01*
X139830191Y-88825858D01*
X139843279Y-88837721D01*
X139855142Y-88850809D01*
X139865665Y-88864997D01*
X139874746Y-88880149D01*
X139882298Y-88896117D01*
X139888249Y-88912749D01*
X139892541Y-88929884D01*
X139895133Y-88947357D01*
X139896000Y-88965000D01*
X139896000Y-89805000D01*
X139895133Y-89822643D01*
X139892541Y-89840116D01*
X139888249Y-89857251D01*
X139882298Y-89873883D01*
X139874746Y-89889851D01*
X139865665Y-89905003D01*
X139855142Y-89919191D01*
X139843279Y-89932279D01*
X139830191Y-89944142D01*
X139816003Y-89954665D01*
X139800851Y-89963746D01*
X139784883Y-89971298D01*
X139768251Y-89977249D01*
X139751116Y-89981541D01*
X139733643Y-89984133D01*
X139716000Y-89985000D01*
X139176000Y-89985000D01*
X139158357Y-89984133D01*
X139140884Y-89981541D01*
X139123749Y-89977249D01*
X139107117Y-89971298D01*
X139091149Y-89963746D01*
X139075997Y-89954665D01*
X139061809Y-89944142D01*
X139048721Y-89932279D01*
X139036858Y-89919191D01*
X139026335Y-89905003D01*
X139017254Y-89889851D01*
X139009702Y-89873883D01*
X139003751Y-89857251D01*
X138999459Y-89840116D01*
X138996867Y-89822643D01*
X138996000Y-89805000D01*
X138996000Y-88965000D01*
X138996867Y-88947357D01*
X138999459Y-88929884D01*
X139003751Y-88912749D01*
X139009702Y-88896117D01*
X139017254Y-88880149D01*
X139026335Y-88864997D01*
X139036858Y-88850809D01*
X139048721Y-88837721D01*
X139061809Y-88825858D01*
X139075997Y-88815335D01*
X139091149Y-88806254D01*
X139107117Y-88798702D01*
X139123749Y-88792751D01*
X139140884Y-88788459D01*
X139158357Y-88785867D01*
X139176000Y-88785000D01*
X139716000Y-88785000D01*
X139733643Y-88785867D01*
X139733643Y-88785867D01*
G37*
D11*
X139446000Y-89385000D03*
D10*
G36*
X141003643Y-88785867D02*
G01*
X141021116Y-88788459D01*
X141038251Y-88792751D01*
X141054883Y-88798702D01*
X141070851Y-88806254D01*
X141086003Y-88815335D01*
X141100191Y-88825858D01*
X141113279Y-88837721D01*
X141125142Y-88850809D01*
X141135665Y-88864997D01*
X141144746Y-88880149D01*
X141152298Y-88896117D01*
X141158249Y-88912749D01*
X141162541Y-88929884D01*
X141165133Y-88947357D01*
X141166000Y-88965000D01*
X141166000Y-89805000D01*
X141165133Y-89822643D01*
X141162541Y-89840116D01*
X141158249Y-89857251D01*
X141152298Y-89873883D01*
X141144746Y-89889851D01*
X141135665Y-89905003D01*
X141125142Y-89919191D01*
X141113279Y-89932279D01*
X141100191Y-89944142D01*
X141086003Y-89954665D01*
X141070851Y-89963746D01*
X141054883Y-89971298D01*
X141038251Y-89977249D01*
X141021116Y-89981541D01*
X141003643Y-89984133D01*
X140986000Y-89985000D01*
X140446000Y-89985000D01*
X140428357Y-89984133D01*
X140410884Y-89981541D01*
X140393749Y-89977249D01*
X140377117Y-89971298D01*
X140361149Y-89963746D01*
X140345997Y-89954665D01*
X140331809Y-89944142D01*
X140318721Y-89932279D01*
X140306858Y-89919191D01*
X140296335Y-89905003D01*
X140287254Y-89889851D01*
X140279702Y-89873883D01*
X140273751Y-89857251D01*
X140269459Y-89840116D01*
X140266867Y-89822643D01*
X140266000Y-89805000D01*
X140266000Y-88965000D01*
X140266867Y-88947357D01*
X140269459Y-88929884D01*
X140273751Y-88912749D01*
X140279702Y-88896117D01*
X140287254Y-88880149D01*
X140296335Y-88864997D01*
X140306858Y-88850809D01*
X140318721Y-88837721D01*
X140331809Y-88825858D01*
X140345997Y-88815335D01*
X140361149Y-88806254D01*
X140377117Y-88798702D01*
X140393749Y-88792751D01*
X140410884Y-88788459D01*
X140428357Y-88785867D01*
X140446000Y-88785000D01*
X140986000Y-88785000D01*
X141003643Y-88785867D01*
X141003643Y-88785867D01*
G37*
D11*
X140716000Y-89385000D03*
D10*
G36*
X138463643Y-72575867D02*
G01*
X138481116Y-72578459D01*
X138498251Y-72582751D01*
X138514883Y-72588702D01*
X138530851Y-72596254D01*
X138546003Y-72605335D01*
X138560191Y-72615858D01*
X138573279Y-72627721D01*
X138585142Y-72640809D01*
X138595665Y-72654997D01*
X138604746Y-72670149D01*
X138612298Y-72686117D01*
X138618249Y-72702749D01*
X138622541Y-72719884D01*
X138625133Y-72737357D01*
X138626000Y-72755000D01*
X138626000Y-73595000D01*
X138625133Y-73612643D01*
X138622541Y-73630116D01*
X138618249Y-73647251D01*
X138612298Y-73663883D01*
X138604746Y-73679851D01*
X138595665Y-73695003D01*
X138585142Y-73709191D01*
X138573279Y-73722279D01*
X138560191Y-73734142D01*
X138546003Y-73744665D01*
X138530851Y-73753746D01*
X138514883Y-73761298D01*
X138498251Y-73767249D01*
X138481116Y-73771541D01*
X138463643Y-73774133D01*
X138446000Y-73775000D01*
X137906000Y-73775000D01*
X137888357Y-73774133D01*
X137870884Y-73771541D01*
X137853749Y-73767249D01*
X137837117Y-73761298D01*
X137821149Y-73753746D01*
X137805997Y-73744665D01*
X137791809Y-73734142D01*
X137778721Y-73722279D01*
X137766858Y-73709191D01*
X137756335Y-73695003D01*
X137747254Y-73679851D01*
X137739702Y-73663883D01*
X137733751Y-73647251D01*
X137729459Y-73630116D01*
X137726867Y-73612643D01*
X137726000Y-73595000D01*
X137726000Y-72755000D01*
X137726867Y-72737357D01*
X137729459Y-72719884D01*
X137733751Y-72702749D01*
X137739702Y-72686117D01*
X137747254Y-72670149D01*
X137756335Y-72654997D01*
X137766858Y-72640809D01*
X137778721Y-72627721D01*
X137791809Y-72615858D01*
X137805997Y-72605335D01*
X137821149Y-72596254D01*
X137837117Y-72588702D01*
X137853749Y-72582751D01*
X137870884Y-72578459D01*
X137888357Y-72575867D01*
X137906000Y-72575000D01*
X138446000Y-72575000D01*
X138463643Y-72575867D01*
X138463643Y-72575867D01*
G37*
D11*
X138176000Y-73175000D03*
D10*
G36*
X139733643Y-72575867D02*
G01*
X139751116Y-72578459D01*
X139768251Y-72582751D01*
X139784883Y-72588702D01*
X139800851Y-72596254D01*
X139816003Y-72605335D01*
X139830191Y-72615858D01*
X139843279Y-72627721D01*
X139855142Y-72640809D01*
X139865665Y-72654997D01*
X139874746Y-72670149D01*
X139882298Y-72686117D01*
X139888249Y-72702749D01*
X139892541Y-72719884D01*
X139895133Y-72737357D01*
X139896000Y-72755000D01*
X139896000Y-73595000D01*
X139895133Y-73612643D01*
X139892541Y-73630116D01*
X139888249Y-73647251D01*
X139882298Y-73663883D01*
X139874746Y-73679851D01*
X139865665Y-73695003D01*
X139855142Y-73709191D01*
X139843279Y-73722279D01*
X139830191Y-73734142D01*
X139816003Y-73744665D01*
X139800851Y-73753746D01*
X139784883Y-73761298D01*
X139768251Y-73767249D01*
X139751116Y-73771541D01*
X139733643Y-73774133D01*
X139716000Y-73775000D01*
X139176000Y-73775000D01*
X139158357Y-73774133D01*
X139140884Y-73771541D01*
X139123749Y-73767249D01*
X139107117Y-73761298D01*
X139091149Y-73753746D01*
X139075997Y-73744665D01*
X139061809Y-73734142D01*
X139048721Y-73722279D01*
X139036858Y-73709191D01*
X139026335Y-73695003D01*
X139017254Y-73679851D01*
X139009702Y-73663883D01*
X139003751Y-73647251D01*
X138999459Y-73630116D01*
X138996867Y-73612643D01*
X138996000Y-73595000D01*
X138996000Y-72755000D01*
X138996867Y-72737357D01*
X138999459Y-72719884D01*
X139003751Y-72702749D01*
X139009702Y-72686117D01*
X139017254Y-72670149D01*
X139026335Y-72654997D01*
X139036858Y-72640809D01*
X139048721Y-72627721D01*
X139061809Y-72615858D01*
X139075997Y-72605335D01*
X139091149Y-72596254D01*
X139107117Y-72588702D01*
X139123749Y-72582751D01*
X139140884Y-72578459D01*
X139158357Y-72575867D01*
X139176000Y-72575000D01*
X139716000Y-72575000D01*
X139733643Y-72575867D01*
X139733643Y-72575867D01*
G37*
D11*
X139446000Y-73175000D03*
D10*
G36*
X141003643Y-72575867D02*
G01*
X141021116Y-72578459D01*
X141038251Y-72582751D01*
X141054883Y-72588702D01*
X141070851Y-72596254D01*
X141086003Y-72605335D01*
X141100191Y-72615858D01*
X141113279Y-72627721D01*
X141125142Y-72640809D01*
X141135665Y-72654997D01*
X141144746Y-72670149D01*
X141152298Y-72686117D01*
X141158249Y-72702749D01*
X141162541Y-72719884D01*
X141165133Y-72737357D01*
X141166000Y-72755000D01*
X141166000Y-73595000D01*
X141165133Y-73612643D01*
X141162541Y-73630116D01*
X141158249Y-73647251D01*
X141152298Y-73663883D01*
X141144746Y-73679851D01*
X141135665Y-73695003D01*
X141125142Y-73709191D01*
X141113279Y-73722279D01*
X141100191Y-73734142D01*
X141086003Y-73744665D01*
X141070851Y-73753746D01*
X141054883Y-73761298D01*
X141038251Y-73767249D01*
X141021116Y-73771541D01*
X141003643Y-73774133D01*
X140986000Y-73775000D01*
X140446000Y-73775000D01*
X140428357Y-73774133D01*
X140410884Y-73771541D01*
X140393749Y-73767249D01*
X140377117Y-73761298D01*
X140361149Y-73753746D01*
X140345997Y-73744665D01*
X140331809Y-73734142D01*
X140318721Y-73722279D01*
X140306858Y-73709191D01*
X140296335Y-73695003D01*
X140287254Y-73679851D01*
X140279702Y-73663883D01*
X140273751Y-73647251D01*
X140269459Y-73630116D01*
X140266867Y-73612643D01*
X140266000Y-73595000D01*
X140266000Y-72755000D01*
X140266867Y-72737357D01*
X140269459Y-72719884D01*
X140273751Y-72702749D01*
X140279702Y-72686117D01*
X140287254Y-72670149D01*
X140296335Y-72654997D01*
X140306858Y-72640809D01*
X140318721Y-72627721D01*
X140331809Y-72615858D01*
X140345997Y-72605335D01*
X140361149Y-72596254D01*
X140377117Y-72588702D01*
X140393749Y-72582751D01*
X140410884Y-72578459D01*
X140428357Y-72575867D01*
X140446000Y-72575000D01*
X140986000Y-72575000D01*
X141003643Y-72575867D01*
X141003643Y-72575867D01*
G37*
D11*
X140716000Y-73175000D03*
D12*
X132940000Y-83200000D03*
X133410000Y-83190000D03*
X139150500Y-82020000D03*
X139620400Y-82020000D03*
X137518140Y-82786220D03*
X137525760Y-82141060D03*
D13*
X138890000Y-79810000D03*
D12*
X139440000Y-75610000D03*
X138690000Y-74250000D03*
X140190000Y-74270000D03*
X137970000Y-74590000D03*
X137160000Y-73660000D03*
X135890000Y-73660000D03*
X134620000Y-73660000D03*
X133350000Y-73660000D03*
X132080000Y-73660000D03*
X130810000Y-73660000D03*
X129662600Y-73660000D03*
X129662600Y-74930000D03*
X130810000Y-74930000D03*
X132080000Y-74930000D03*
X132080000Y-76200000D03*
X136804400Y-74599000D03*
X137340000Y-74590000D03*
X130810000Y-77482700D03*
X132130800Y-77470000D03*
X132892800Y-77571600D03*
X132867400Y-76911200D03*
X130886200Y-76174600D03*
X131419600Y-76885800D03*
X131521200Y-75565000D03*
X131521200Y-74244200D03*
X130327400Y-74193400D03*
X130276600Y-75412600D03*
X132840000Y-79060000D03*
X134360000Y-82230000D03*
X136240000Y-82160000D03*
X136250000Y-82820000D03*
X136320000Y-85390000D03*
X137390706Y-87600000D03*
X141830000Y-85810000D03*
X138860000Y-80820000D03*
X140410000Y-79210000D03*
X141480000Y-73510000D03*
X141860000Y-76200000D03*
X141860000Y-75520000D03*
X141710000Y-75000000D03*
X141300000Y-74720000D03*
X140820000Y-74680000D03*
X140860000Y-75540000D03*
X140850000Y-76080000D03*
X140850000Y-76870000D03*
X140910000Y-78170000D03*
X142770000Y-73510000D03*
X142790000Y-75210000D03*
X137950000Y-75660000D03*
X137360000Y-75660000D03*
X136810000Y-75660000D03*
X136285000Y-75660000D03*
X135785000Y-75660000D03*
X132918200Y-74406760D03*
X137075000Y-77600000D03*
X137090000Y-78400000D03*
X137930000Y-77220000D03*
X137930000Y-76590000D03*
X137360000Y-76590000D03*
X136800000Y-76590000D03*
X136275000Y-76590000D03*
X135775000Y-76590000D03*
X135774860Y-77027460D03*
X134513360Y-75671640D03*
X135225000Y-75600000D03*
X133975000Y-75675000D03*
X134000000Y-76475000D03*
X133980000Y-77230000D03*
X134000000Y-77950000D03*
X133990000Y-78600000D03*
X133770000Y-81020000D03*
X133390000Y-80680000D03*
X135370000Y-81260000D03*
X136175000Y-79450000D03*
X131300000Y-83375000D03*
X133616404Y-84699727D03*
X132250000Y-86960000D03*
X136290000Y-84120000D03*
X141860000Y-78160000D03*
X139640000Y-81470000D03*
X140740000Y-80490000D03*
X141375047Y-79925047D03*
X141745047Y-79555047D03*
X138424920Y-81220000D03*
X132060000Y-78280000D03*
X131230000Y-84250000D03*
X134930000Y-87570000D03*
X134990000Y-82210000D03*
X134350000Y-86060000D03*
X137590000Y-84760000D03*
X132200000Y-82130000D03*
X132090000Y-78880000D03*
X131240000Y-78000000D03*
X141860000Y-76890000D03*
X139510000Y-80090000D03*
X135899320Y-81160040D03*
X141500000Y-82160000D03*
X137620000Y-85480000D03*
X130140000Y-88820000D03*
X138197797Y-82821466D03*
X138930000Y-82590000D03*
X140410000Y-84870000D03*
X141010000Y-84879891D03*
X134350000Y-84750000D03*
X130835442Y-81744806D03*
X134914640Y-85382090D03*
X138460000Y-79340000D03*
X138190000Y-78400000D03*
X137660000Y-78400000D03*
X137161700Y-81193060D03*
X139970000Y-79730000D03*
X136859440Y-79450000D03*
X141804984Y-86925000D03*
X138470000Y-80410000D03*
X134800000Y-79450000D03*
X140400000Y-80840000D03*
X134001342Y-87412142D03*
D14*
X141782774Y-87630000D03*
X142544800Y-88747600D03*
D12*
X134350000Y-84110000D03*
X130980000Y-81100000D03*
X132989996Y-84450004D03*
D14*
X141927580Y-88333580D03*
D12*
X132110000Y-81100000D03*
X131500000Y-81160000D03*
X139210000Y-87470000D03*
X138190000Y-84820000D03*
X139220000Y-85330000D03*
X142240000Y-82289999D03*
X137530000Y-83450210D03*
X135000000Y-84760000D03*
X132200000Y-85250000D03*
D13*
X139449602Y-79475124D03*
D12*
X136888513Y-82869987D03*
X136940000Y-83500000D03*
X136920000Y-84790000D03*
X136920000Y-84140000D03*
X133504110Y-85840000D03*
X137520000Y-86030000D03*
X135640000Y-84160000D03*
X138190000Y-84110000D03*
X136951286Y-85402592D03*
X139150000Y-84450000D03*
X135650000Y-83520000D03*
X136880000Y-86040000D03*
X135651240Y-86057740D03*
X135650000Y-85400000D03*
X135020000Y-86055210D03*
X135033503Y-87004898D03*
X135598834Y-87230272D03*
X135000000Y-84110000D03*
X135002126Y-83449790D03*
X135650000Y-82870000D03*
X138805920Y-77134720D03*
X139480000Y-83340000D03*
X141095215Y-80893915D03*
X135600000Y-84810000D03*
X139364720Y-77201508D03*
X136880000Y-82230000D03*
X138337079Y-87057098D03*
X138170000Y-87510002D03*
D15*
X132954500Y-83162500D02*
X132954500Y-82808947D01*
X133021447Y-82808947D02*
X132954500Y-82808947D01*
X133375000Y-83162500D02*
X133021447Y-82808947D01*
X133430000Y-83162500D02*
X132954500Y-83162500D01*
X139620000Y-82020000D02*
X139150500Y-82020000D01*
X137518140Y-82148680D02*
X137525760Y-82141060D01*
X137518140Y-82786220D02*
X137518140Y-82148680D01*
X137646820Y-82020000D02*
X137525760Y-82141060D01*
X139150500Y-82020000D02*
X137646820Y-82020000D01*
X135237827Y-80525620D02*
X132954500Y-82808947D01*
X137494380Y-80525620D02*
X135237827Y-80525620D01*
X137800000Y-81866820D02*
X137800000Y-80831240D01*
X137800000Y-80831240D02*
X137494380Y-80525620D01*
X137525760Y-82141060D02*
X137800000Y-81866820D01*
D16*
X137494380Y-80275620D02*
X137494380Y-80525620D01*
X137960000Y-79810000D02*
X137494380Y-80275620D01*
X138890000Y-79810000D02*
X137960000Y-79810000D01*
D17*
X133150000Y-84309998D02*
X132984998Y-84475000D01*
D18*
X132635000Y-84475000D02*
X132809999Y-84649999D01*
X132154101Y-83994101D02*
X132635000Y-84475000D01*
D17*
X133330000Y-84110000D02*
X132989996Y-84450004D01*
X134340000Y-84110000D02*
X133330000Y-84110000D01*
D15*
X132809999Y-84897486D02*
X132809999Y-84630001D01*
X132270000Y-84110000D02*
X132154101Y-83994101D01*
X133330000Y-84110000D02*
X132270000Y-84110000D01*
D18*
X142247600Y-88747600D02*
X141782774Y-88282774D01*
X141782774Y-88282774D02*
X141782774Y-87630000D01*
X142544800Y-88747600D02*
X142247600Y-88747600D01*
X132860000Y-86270800D02*
X132860000Y-84700000D01*
X132860000Y-84700000D02*
X132635000Y-84475000D01*
X134001342Y-87412142D02*
X132860000Y-86270800D01*
X132154101Y-83204101D02*
X132154101Y-83994101D01*
X131500000Y-82550000D02*
X132154101Y-83204101D01*
X131500000Y-81640000D02*
X131500000Y-82550000D01*
X131500000Y-81640000D02*
X131500000Y-81160000D01*
X134449420Y-88290000D02*
X141773040Y-88290000D01*
X134001342Y-87841922D02*
X134449420Y-88290000D01*
X141782774Y-88280266D02*
X141782774Y-87630000D01*
X141773040Y-88290000D02*
X141782774Y-88280266D01*
X134001342Y-87412142D02*
X134001342Y-87841922D01*
D19*
X139220000Y-87460000D02*
X139210000Y-87470000D01*
X139220000Y-85330000D02*
X139220000Y-87460000D01*
D17*
X142050000Y-82479999D02*
X142240000Y-82289999D01*
X141727458Y-82802542D02*
X142050000Y-82479999D01*
X139615098Y-82802542D02*
X141727458Y-82802542D01*
D16*
X137619758Y-83400000D02*
X137557886Y-83461872D01*
X138780000Y-83400000D02*
X137619758Y-83400000D01*
X139377458Y-82802542D02*
X138780000Y-83400000D01*
X139615098Y-82802542D02*
X139377458Y-82802542D01*
D17*
X142500001Y-82550000D02*
X142888890Y-82550000D01*
X142240000Y-82289999D02*
X142500001Y-82550000D01*
D16*
X139208303Y-79233825D02*
X139449602Y-79475124D01*
X138864478Y-78890000D02*
X139208303Y-79233825D01*
X133766837Y-79682063D02*
X134558900Y-78890000D01*
X131207937Y-79682063D02*
X133766837Y-79682063D01*
X131198600Y-85250000D02*
X130400000Y-84451400D01*
X130400000Y-80490000D02*
X131207937Y-79682063D01*
X130400000Y-84451400D02*
X130400000Y-80490000D01*
X134558900Y-78890000D02*
X138864478Y-78890000D01*
X132200000Y-85250000D02*
X131198600Y-85250000D01*
D20*
X137057591Y-86552409D02*
X137550000Y-86060000D01*
X134216519Y-86552409D02*
X137057591Y-86552409D01*
X133504110Y-85840000D02*
X134216519Y-86552409D01*
D19*
X137193878Y-85160000D02*
X136951286Y-85402592D01*
X137223878Y-85130000D02*
X137193878Y-85160000D01*
X138010000Y-85330000D02*
X137810000Y-85130000D01*
X137810000Y-85130000D02*
X137223878Y-85130000D01*
X138460000Y-85330000D02*
X138010000Y-85330000D01*
X139150000Y-84640000D02*
X138460000Y-85330000D01*
X139150000Y-84450000D02*
X139150000Y-84640000D01*
X135600000Y-84810000D02*
X135931303Y-84478697D01*
X135931303Y-84478697D02*
X137141303Y-84478697D01*
X137141303Y-84478697D02*
X137890000Y-83730000D01*
X137890000Y-83730000D02*
X139090000Y-83730000D01*
X139090000Y-83730000D02*
X139480000Y-83340000D01*
D20*
X138800000Y-77140640D02*
X138805920Y-77134720D01*
X139371320Y-78161320D02*
X138800000Y-77590000D01*
X140073820Y-78161320D02*
X139371320Y-78161320D01*
X140900000Y-78987500D02*
X140073820Y-78161320D01*
X138800000Y-77590000D02*
X138800000Y-77140640D01*
X141095215Y-80265215D02*
X140900000Y-80070000D01*
X140900000Y-80070000D02*
X140900000Y-78987500D01*
X141095215Y-80893915D02*
X141095215Y-80265215D01*
D16*
G36*
X132193000Y-80966077D02*
G01*
X132193000Y-81237296D01*
X131781293Y-81369042D01*
X131758440Y-81378918D01*
X131737951Y-81393062D01*
X131720616Y-81410931D01*
X131707100Y-81431840D01*
X131697923Y-81454983D01*
X131693000Y-81490000D01*
X131693000Y-81803000D01*
X131307000Y-81803000D01*
X131307000Y-81390000D01*
X131304560Y-81365224D01*
X131297333Y-81341399D01*
X131285597Y-81319443D01*
X131269803Y-81300197D01*
X131250557Y-81284403D01*
X131228601Y-81272667D01*
X131205520Y-81265590D01*
X130917000Y-81206406D01*
X130917000Y-81020448D01*
X130994683Y-80957330D01*
X132193000Y-80966077D01*
X132193000Y-80966077D01*
G37*
X132193000Y-80966077D02*
X132193000Y-81237296D01*
X131781293Y-81369042D01*
X131758440Y-81378918D01*
X131737951Y-81393062D01*
X131720616Y-81410931D01*
X131707100Y-81431840D01*
X131697923Y-81454983D01*
X131693000Y-81490000D01*
X131693000Y-81803000D01*
X131307000Y-81803000D01*
X131307000Y-81390000D01*
X131304560Y-81365224D01*
X131297333Y-81341399D01*
X131285597Y-81319443D01*
X131269803Y-81300197D01*
X131250557Y-81284403D01*
X131228601Y-81272667D01*
X131205520Y-81265590D01*
X130917000Y-81206406D01*
X130917000Y-81020448D01*
X130994683Y-80957330D01*
X132193000Y-80966077D01*
M02*
