G04 #@! TF.GenerationSoftware,KiCad,Pcbnew,(5.1.2-1)-1*
G04 #@! TF.CreationDate,2019-07-04T12:10:22+02:00*
G04 #@! TF.ProjectId,TLM-breakout-v1_2,544c4d2d-6272-4656-916b-6f75742d7631,1.1*
G04 #@! TF.SameCoordinates,Original*
G04 #@! TF.FileFunction,Soldermask,Bot*
G04 #@! TF.FilePolarity,Negative*
%FSLAX46Y46*%
G04 Gerber Fmt 4.6, Leading zero omitted, Abs format (unit mm)*
G04 Created by KiCad (PCBNEW (5.1.2-1)-1) date 2019-07-04 12:10:22*
%MOMM*%
%LPD*%
G04 APERTURE LIST*
%ADD10C,0.150000*%
%ADD11C,0.100000*%
G04 APERTURE END LIST*
D10*
X127000000Y-119380000D02*
G75*
G02X124460000Y-116840000I0J2540000D01*
G01*
X147320000Y-116840000D02*
G75*
G02X144780000Y-119380000I-2540000J0D01*
G01*
X144780000Y-68580000D02*
G75*
G02X147320000Y-71120000I0J-2540000D01*
G01*
X124460000Y-71120000D02*
G75*
G02X127000000Y-68580000I2540000J0D01*
G01*
X124460000Y-116840000D02*
X124460000Y-71120000D01*
X144780000Y-119380000D02*
X127000000Y-119380000D01*
X147320000Y-71120000D02*
X147320000Y-116840000D01*
X127000000Y-68580000D02*
X144780000Y-68580000D01*
D11*
G36*
X139516000Y-119391000D02*
G01*
X137914000Y-119391000D01*
X137914000Y-114589000D01*
X139516000Y-114589000D01*
X139516000Y-119391000D01*
X139516000Y-119391000D01*
G37*
G36*
X133791000Y-119391000D02*
G01*
X132339000Y-119391000D01*
X132339000Y-114589000D01*
X133791000Y-114589000D01*
X133791000Y-119391000D01*
X133791000Y-119391000D01*
G37*
G36*
X145037714Y-115540382D02*
G01*
X145165322Y-115565765D01*
X145306148Y-115624097D01*
X145405727Y-115665344D01*
X145405728Y-115665345D01*
X145622089Y-115809912D01*
X145806088Y-115993911D01*
X145902685Y-116138479D01*
X145950656Y-116210273D01*
X145991903Y-116309852D01*
X146050235Y-116450678D01*
X146101000Y-116705893D01*
X146101000Y-116966107D01*
X146050235Y-117221322D01*
X145991903Y-117362148D01*
X145950656Y-117461727D01*
X145950655Y-117461728D01*
X145806088Y-117678089D01*
X145622089Y-117862088D01*
X145477521Y-117958685D01*
X145405727Y-118006656D01*
X145306148Y-118047903D01*
X145165322Y-118106235D01*
X145037715Y-118131617D01*
X144910109Y-118157000D01*
X144649891Y-118157000D01*
X144522285Y-118131617D01*
X144394678Y-118106235D01*
X144253852Y-118047903D01*
X144154273Y-118006656D01*
X144082479Y-117958685D01*
X143937911Y-117862088D01*
X143753912Y-117678089D01*
X143609345Y-117461728D01*
X143609344Y-117461727D01*
X143568097Y-117362148D01*
X143509765Y-117221322D01*
X143459000Y-116966107D01*
X143459000Y-116705893D01*
X143509765Y-116450678D01*
X143568097Y-116309852D01*
X143609344Y-116210273D01*
X143657315Y-116138479D01*
X143753912Y-115993911D01*
X143937911Y-115809912D01*
X144154272Y-115665345D01*
X144154273Y-115665344D01*
X144253852Y-115624097D01*
X144394678Y-115565765D01*
X144522286Y-115540382D01*
X144649891Y-115515000D01*
X144910109Y-115515000D01*
X145037714Y-115540382D01*
X145037714Y-115540382D01*
G37*
G36*
X127257714Y-115540382D02*
G01*
X127385322Y-115565765D01*
X127526148Y-115624097D01*
X127625727Y-115665344D01*
X127625728Y-115665345D01*
X127842089Y-115809912D01*
X128026088Y-115993911D01*
X128122685Y-116138479D01*
X128170656Y-116210273D01*
X128211903Y-116309852D01*
X128270235Y-116450678D01*
X128321000Y-116705893D01*
X128321000Y-116966107D01*
X128270235Y-117221322D01*
X128211903Y-117362148D01*
X128170656Y-117461727D01*
X128170655Y-117461728D01*
X128026088Y-117678089D01*
X127842089Y-117862088D01*
X127697521Y-117958685D01*
X127625727Y-118006656D01*
X127526148Y-118047903D01*
X127385322Y-118106235D01*
X127257715Y-118131617D01*
X127130109Y-118157000D01*
X126869891Y-118157000D01*
X126742285Y-118131617D01*
X126614678Y-118106235D01*
X126473852Y-118047903D01*
X126374273Y-118006656D01*
X126302479Y-117958685D01*
X126157911Y-117862088D01*
X125973912Y-117678089D01*
X125829345Y-117461728D01*
X125829344Y-117461727D01*
X125788097Y-117362148D01*
X125729765Y-117221322D01*
X125679000Y-116966107D01*
X125679000Y-116705893D01*
X125729765Y-116450678D01*
X125788097Y-116309852D01*
X125829344Y-116210273D01*
X125877315Y-116138479D01*
X125973912Y-115993911D01*
X126157911Y-115809912D01*
X126374272Y-115665345D01*
X126374273Y-115665344D01*
X126473852Y-115624097D01*
X126614678Y-115565765D01*
X126742286Y-115540382D01*
X126869891Y-115515000D01*
X127130109Y-115515000D01*
X127257714Y-115540382D01*
X127257714Y-115540382D01*
G37*
G36*
X146160443Y-112131519D02*
G01*
X146226627Y-112138037D01*
X146396466Y-112189557D01*
X146552991Y-112273222D01*
X146588729Y-112302552D01*
X146690186Y-112385814D01*
X146773448Y-112487271D01*
X146802778Y-112523009D01*
X146886443Y-112679534D01*
X146937963Y-112849373D01*
X146955359Y-113026000D01*
X146937963Y-113202627D01*
X146886443Y-113372466D01*
X146802778Y-113528991D01*
X146773448Y-113564729D01*
X146690186Y-113666186D01*
X146588729Y-113749448D01*
X146552991Y-113778778D01*
X146396466Y-113862443D01*
X146226627Y-113913963D01*
X146160443Y-113920481D01*
X146094260Y-113927000D01*
X146005740Y-113927000D01*
X145939557Y-113920481D01*
X145873373Y-113913963D01*
X145703534Y-113862443D01*
X145547009Y-113778778D01*
X145511271Y-113749448D01*
X145409814Y-113666186D01*
X145326552Y-113564729D01*
X145297222Y-113528991D01*
X145213557Y-113372466D01*
X145162037Y-113202627D01*
X145144641Y-113026000D01*
X145162037Y-112849373D01*
X145213557Y-112679534D01*
X145297222Y-112523009D01*
X145326552Y-112487271D01*
X145409814Y-112385814D01*
X145511271Y-112302552D01*
X145547009Y-112273222D01*
X145703534Y-112189557D01*
X145873373Y-112138037D01*
X145939557Y-112131519D01*
X146005740Y-112125000D01*
X146094260Y-112125000D01*
X146160443Y-112131519D01*
X146160443Y-112131519D01*
G37*
G36*
X125840443Y-112131519D02*
G01*
X125906627Y-112138037D01*
X126076466Y-112189557D01*
X126232991Y-112273222D01*
X126268729Y-112302552D01*
X126370186Y-112385814D01*
X126453448Y-112487271D01*
X126482778Y-112523009D01*
X126566443Y-112679534D01*
X126617963Y-112849373D01*
X126635359Y-113026000D01*
X126617963Y-113202627D01*
X126566443Y-113372466D01*
X126482778Y-113528991D01*
X126453448Y-113564729D01*
X126370186Y-113666186D01*
X126268729Y-113749448D01*
X126232991Y-113778778D01*
X126076466Y-113862443D01*
X125906627Y-113913963D01*
X125840443Y-113920481D01*
X125774260Y-113927000D01*
X125685740Y-113927000D01*
X125619557Y-113920481D01*
X125553373Y-113913963D01*
X125383534Y-113862443D01*
X125227009Y-113778778D01*
X125191271Y-113749448D01*
X125089814Y-113666186D01*
X125006552Y-113564729D01*
X124977222Y-113528991D01*
X124893557Y-113372466D01*
X124842037Y-113202627D01*
X124824641Y-113026000D01*
X124842037Y-112849373D01*
X124893557Y-112679534D01*
X124977222Y-112523009D01*
X125006552Y-112487271D01*
X125089814Y-112385814D01*
X125191271Y-112302552D01*
X125227009Y-112273222D01*
X125383534Y-112189557D01*
X125553373Y-112138037D01*
X125619557Y-112131519D01*
X125685740Y-112125000D01*
X125774260Y-112125000D01*
X125840443Y-112131519D01*
X125840443Y-112131519D01*
G37*
G36*
X146160442Y-109591518D02*
G01*
X146226627Y-109598037D01*
X146396466Y-109649557D01*
X146552991Y-109733222D01*
X146588729Y-109762552D01*
X146690186Y-109845814D01*
X146773448Y-109947271D01*
X146802778Y-109983009D01*
X146886443Y-110139534D01*
X146937963Y-110309373D01*
X146955359Y-110486000D01*
X146937963Y-110662627D01*
X146886443Y-110832466D01*
X146802778Y-110988991D01*
X146773448Y-111024729D01*
X146690186Y-111126186D01*
X146588729Y-111209448D01*
X146552991Y-111238778D01*
X146396466Y-111322443D01*
X146226627Y-111373963D01*
X146160443Y-111380481D01*
X146094260Y-111387000D01*
X146005740Y-111387000D01*
X145939557Y-111380481D01*
X145873373Y-111373963D01*
X145703534Y-111322443D01*
X145547009Y-111238778D01*
X145511271Y-111209448D01*
X145409814Y-111126186D01*
X145326552Y-111024729D01*
X145297222Y-110988991D01*
X145213557Y-110832466D01*
X145162037Y-110662627D01*
X145144641Y-110486000D01*
X145162037Y-110309373D01*
X145213557Y-110139534D01*
X145297222Y-109983009D01*
X145326552Y-109947271D01*
X145409814Y-109845814D01*
X145511271Y-109762552D01*
X145547009Y-109733222D01*
X145703534Y-109649557D01*
X145873373Y-109598037D01*
X145939558Y-109591518D01*
X146005740Y-109585000D01*
X146094260Y-109585000D01*
X146160442Y-109591518D01*
X146160442Y-109591518D01*
G37*
G36*
X125840442Y-109591518D02*
G01*
X125906627Y-109598037D01*
X126076466Y-109649557D01*
X126232991Y-109733222D01*
X126268729Y-109762552D01*
X126370186Y-109845814D01*
X126453448Y-109947271D01*
X126482778Y-109983009D01*
X126566443Y-110139534D01*
X126617963Y-110309373D01*
X126635359Y-110486000D01*
X126617963Y-110662627D01*
X126566443Y-110832466D01*
X126482778Y-110988991D01*
X126453448Y-111024729D01*
X126370186Y-111126186D01*
X126268729Y-111209448D01*
X126232991Y-111238778D01*
X126076466Y-111322443D01*
X125906627Y-111373963D01*
X125840443Y-111380481D01*
X125774260Y-111387000D01*
X125685740Y-111387000D01*
X125619557Y-111380481D01*
X125553373Y-111373963D01*
X125383534Y-111322443D01*
X125227009Y-111238778D01*
X125191271Y-111209448D01*
X125089814Y-111126186D01*
X125006552Y-111024729D01*
X124977222Y-110988991D01*
X124893557Y-110832466D01*
X124842037Y-110662627D01*
X124824641Y-110486000D01*
X124842037Y-110309373D01*
X124893557Y-110139534D01*
X124977222Y-109983009D01*
X125006552Y-109947271D01*
X125089814Y-109845814D01*
X125191271Y-109762552D01*
X125227009Y-109733222D01*
X125383534Y-109649557D01*
X125553373Y-109598037D01*
X125619558Y-109591518D01*
X125685740Y-109585000D01*
X125774260Y-109585000D01*
X125840442Y-109591518D01*
X125840442Y-109591518D01*
G37*
G36*
X146160443Y-107051519D02*
G01*
X146226627Y-107058037D01*
X146396466Y-107109557D01*
X146552991Y-107193222D01*
X146588729Y-107222552D01*
X146690186Y-107305814D01*
X146773448Y-107407271D01*
X146802778Y-107443009D01*
X146886443Y-107599534D01*
X146937963Y-107769373D01*
X146955359Y-107946000D01*
X146937963Y-108122627D01*
X146886443Y-108292466D01*
X146802778Y-108448991D01*
X146773448Y-108484729D01*
X146690186Y-108586186D01*
X146588729Y-108669448D01*
X146552991Y-108698778D01*
X146396466Y-108782443D01*
X146226627Y-108833963D01*
X146160443Y-108840481D01*
X146094260Y-108847000D01*
X146005740Y-108847000D01*
X145939557Y-108840481D01*
X145873373Y-108833963D01*
X145703534Y-108782443D01*
X145547009Y-108698778D01*
X145511271Y-108669448D01*
X145409814Y-108586186D01*
X145326552Y-108484729D01*
X145297222Y-108448991D01*
X145213557Y-108292466D01*
X145162037Y-108122627D01*
X145144641Y-107946000D01*
X145162037Y-107769373D01*
X145213557Y-107599534D01*
X145297222Y-107443009D01*
X145326552Y-107407271D01*
X145409814Y-107305814D01*
X145511271Y-107222552D01*
X145547009Y-107193222D01*
X145703534Y-107109557D01*
X145873373Y-107058037D01*
X145939557Y-107051519D01*
X146005740Y-107045000D01*
X146094260Y-107045000D01*
X146160443Y-107051519D01*
X146160443Y-107051519D01*
G37*
G36*
X125840443Y-107051519D02*
G01*
X125906627Y-107058037D01*
X126076466Y-107109557D01*
X126232991Y-107193222D01*
X126268729Y-107222552D01*
X126370186Y-107305814D01*
X126453448Y-107407271D01*
X126482778Y-107443009D01*
X126566443Y-107599534D01*
X126617963Y-107769373D01*
X126635359Y-107946000D01*
X126617963Y-108122627D01*
X126566443Y-108292466D01*
X126482778Y-108448991D01*
X126453448Y-108484729D01*
X126370186Y-108586186D01*
X126268729Y-108669448D01*
X126232991Y-108698778D01*
X126076466Y-108782443D01*
X125906627Y-108833963D01*
X125840443Y-108840481D01*
X125774260Y-108847000D01*
X125685740Y-108847000D01*
X125619557Y-108840481D01*
X125553373Y-108833963D01*
X125383534Y-108782443D01*
X125227009Y-108698778D01*
X125191271Y-108669448D01*
X125089814Y-108586186D01*
X125006552Y-108484729D01*
X124977222Y-108448991D01*
X124893557Y-108292466D01*
X124842037Y-108122627D01*
X124824641Y-107946000D01*
X124842037Y-107769373D01*
X124893557Y-107599534D01*
X124977222Y-107443009D01*
X125006552Y-107407271D01*
X125089814Y-107305814D01*
X125191271Y-107222552D01*
X125227009Y-107193222D01*
X125383534Y-107109557D01*
X125553373Y-107058037D01*
X125619557Y-107051519D01*
X125685740Y-107045000D01*
X125774260Y-107045000D01*
X125840443Y-107051519D01*
X125840443Y-107051519D01*
G37*
G36*
X146160443Y-104511519D02*
G01*
X146226627Y-104518037D01*
X146396466Y-104569557D01*
X146552991Y-104653222D01*
X146588729Y-104682552D01*
X146690186Y-104765814D01*
X146773448Y-104867271D01*
X146802778Y-104903009D01*
X146886443Y-105059534D01*
X146937963Y-105229373D01*
X146955359Y-105406000D01*
X146937963Y-105582627D01*
X146886443Y-105752466D01*
X146802778Y-105908991D01*
X146773448Y-105944729D01*
X146690186Y-106046186D01*
X146588729Y-106129448D01*
X146552991Y-106158778D01*
X146396466Y-106242443D01*
X146226627Y-106293963D01*
X146160442Y-106300482D01*
X146094260Y-106307000D01*
X146005740Y-106307000D01*
X145939558Y-106300482D01*
X145873373Y-106293963D01*
X145703534Y-106242443D01*
X145547009Y-106158778D01*
X145511271Y-106129448D01*
X145409814Y-106046186D01*
X145326552Y-105944729D01*
X145297222Y-105908991D01*
X145213557Y-105752466D01*
X145162037Y-105582627D01*
X145144641Y-105406000D01*
X145162037Y-105229373D01*
X145213557Y-105059534D01*
X145297222Y-104903009D01*
X145326552Y-104867271D01*
X145409814Y-104765814D01*
X145511271Y-104682552D01*
X145547009Y-104653222D01*
X145703534Y-104569557D01*
X145873373Y-104518037D01*
X145939558Y-104511518D01*
X146005740Y-104505000D01*
X146094260Y-104505000D01*
X146160443Y-104511519D01*
X146160443Y-104511519D01*
G37*
G36*
X125840443Y-104511519D02*
G01*
X125906627Y-104518037D01*
X126076466Y-104569557D01*
X126232991Y-104653222D01*
X126268729Y-104682552D01*
X126370186Y-104765814D01*
X126453448Y-104867271D01*
X126482778Y-104903009D01*
X126566443Y-105059534D01*
X126617963Y-105229373D01*
X126635359Y-105406000D01*
X126617963Y-105582627D01*
X126566443Y-105752466D01*
X126482778Y-105908991D01*
X126453448Y-105944729D01*
X126370186Y-106046186D01*
X126268729Y-106129448D01*
X126232991Y-106158778D01*
X126076466Y-106242443D01*
X125906627Y-106293963D01*
X125840442Y-106300482D01*
X125774260Y-106307000D01*
X125685740Y-106307000D01*
X125619558Y-106300482D01*
X125553373Y-106293963D01*
X125383534Y-106242443D01*
X125227009Y-106158778D01*
X125191271Y-106129448D01*
X125089814Y-106046186D01*
X125006552Y-105944729D01*
X124977222Y-105908991D01*
X124893557Y-105752466D01*
X124842037Y-105582627D01*
X124824641Y-105406000D01*
X124842037Y-105229373D01*
X124893557Y-105059534D01*
X124977222Y-104903009D01*
X125006552Y-104867271D01*
X125089814Y-104765814D01*
X125191271Y-104682552D01*
X125227009Y-104653222D01*
X125383534Y-104569557D01*
X125553373Y-104518037D01*
X125619558Y-104511518D01*
X125685740Y-104505000D01*
X125774260Y-104505000D01*
X125840443Y-104511519D01*
X125840443Y-104511519D01*
G37*
G36*
X146160442Y-101971518D02*
G01*
X146226627Y-101978037D01*
X146396466Y-102029557D01*
X146552991Y-102113222D01*
X146588729Y-102142552D01*
X146690186Y-102225814D01*
X146773448Y-102327271D01*
X146802778Y-102363009D01*
X146886443Y-102519534D01*
X146937963Y-102689373D01*
X146955359Y-102866000D01*
X146937963Y-103042627D01*
X146886443Y-103212466D01*
X146802778Y-103368991D01*
X146773448Y-103404729D01*
X146690186Y-103506186D01*
X146588729Y-103589448D01*
X146552991Y-103618778D01*
X146396466Y-103702443D01*
X146226627Y-103753963D01*
X146160443Y-103760481D01*
X146094260Y-103767000D01*
X146005740Y-103767000D01*
X145939557Y-103760481D01*
X145873373Y-103753963D01*
X145703534Y-103702443D01*
X145547009Y-103618778D01*
X145511271Y-103589448D01*
X145409814Y-103506186D01*
X145326552Y-103404729D01*
X145297222Y-103368991D01*
X145213557Y-103212466D01*
X145162037Y-103042627D01*
X145144641Y-102866000D01*
X145162037Y-102689373D01*
X145213557Y-102519534D01*
X145297222Y-102363009D01*
X145326552Y-102327271D01*
X145409814Y-102225814D01*
X145511271Y-102142552D01*
X145547009Y-102113222D01*
X145703534Y-102029557D01*
X145873373Y-101978037D01*
X145939558Y-101971518D01*
X146005740Y-101965000D01*
X146094260Y-101965000D01*
X146160442Y-101971518D01*
X146160442Y-101971518D01*
G37*
G36*
X125840442Y-101971518D02*
G01*
X125906627Y-101978037D01*
X126076466Y-102029557D01*
X126232991Y-102113222D01*
X126268729Y-102142552D01*
X126370186Y-102225814D01*
X126453448Y-102327271D01*
X126482778Y-102363009D01*
X126566443Y-102519534D01*
X126617963Y-102689373D01*
X126635359Y-102866000D01*
X126617963Y-103042627D01*
X126566443Y-103212466D01*
X126482778Y-103368991D01*
X126453448Y-103404729D01*
X126370186Y-103506186D01*
X126268729Y-103589448D01*
X126232991Y-103618778D01*
X126076466Y-103702443D01*
X125906627Y-103753963D01*
X125840443Y-103760481D01*
X125774260Y-103767000D01*
X125685740Y-103767000D01*
X125619557Y-103760481D01*
X125553373Y-103753963D01*
X125383534Y-103702443D01*
X125227009Y-103618778D01*
X125191271Y-103589448D01*
X125089814Y-103506186D01*
X125006552Y-103404729D01*
X124977222Y-103368991D01*
X124893557Y-103212466D01*
X124842037Y-103042627D01*
X124824641Y-102866000D01*
X124842037Y-102689373D01*
X124893557Y-102519534D01*
X124977222Y-102363009D01*
X125006552Y-102327271D01*
X125089814Y-102225814D01*
X125191271Y-102142552D01*
X125227009Y-102113222D01*
X125383534Y-102029557D01*
X125553373Y-101978037D01*
X125619558Y-101971518D01*
X125685740Y-101965000D01*
X125774260Y-101965000D01*
X125840442Y-101971518D01*
X125840442Y-101971518D01*
G37*
G36*
X139322199Y-100769954D02*
G01*
X139334450Y-100770556D01*
X139352869Y-100770556D01*
X139375149Y-100772750D01*
X139459233Y-100789476D01*
X139480660Y-100795976D01*
X139559858Y-100828780D01*
X139565303Y-100831691D01*
X139565309Y-100831693D01*
X139574169Y-100836429D01*
X139574173Y-100836432D01*
X139579614Y-100839340D01*
X139650899Y-100886971D01*
X139668204Y-100901172D01*
X139728828Y-100961796D01*
X139743029Y-100979101D01*
X139790660Y-101050386D01*
X139793568Y-101055827D01*
X139793571Y-101055831D01*
X139798307Y-101064691D01*
X139798309Y-101064697D01*
X139801220Y-101070142D01*
X139834024Y-101149340D01*
X139840524Y-101170767D01*
X139857250Y-101254851D01*
X139859444Y-101277131D01*
X139859444Y-101295550D01*
X139860046Y-101307801D01*
X139861852Y-101326139D01*
X139861852Y-101813860D01*
X139860263Y-101829999D01*
X139857348Y-101839608D01*
X139852610Y-101848472D01*
X139846237Y-101856237D01*
X139833794Y-101866448D01*
X139823425Y-101873378D01*
X139806098Y-101890705D01*
X139792485Y-101911080D01*
X139783109Y-101933720D01*
X139778329Y-101957753D01*
X139778330Y-101982257D01*
X139783112Y-102006290D01*
X139792490Y-102028929D01*
X139806105Y-102049302D01*
X139823432Y-102066629D01*
X139833802Y-102073558D01*
X139846237Y-102083763D01*
X139852610Y-102091528D01*
X139857348Y-102100392D01*
X139860263Y-102110001D01*
X139861852Y-102126140D01*
X139861852Y-102613862D01*
X139860046Y-102632199D01*
X139859444Y-102644450D01*
X139859444Y-102662869D01*
X139857250Y-102685149D01*
X139840524Y-102769233D01*
X139834024Y-102790660D01*
X139801220Y-102869858D01*
X139798309Y-102875303D01*
X139798307Y-102875309D01*
X139793571Y-102884169D01*
X139793568Y-102884173D01*
X139790660Y-102889614D01*
X139743029Y-102960899D01*
X139728828Y-102978204D01*
X139668204Y-103038828D01*
X139650899Y-103053029D01*
X139579614Y-103100660D01*
X139574173Y-103103568D01*
X139574169Y-103103571D01*
X139565309Y-103108307D01*
X139565303Y-103108309D01*
X139559858Y-103111220D01*
X139480660Y-103144024D01*
X139459233Y-103150524D01*
X139375149Y-103167250D01*
X139352869Y-103169444D01*
X139334450Y-103169444D01*
X139322199Y-103170046D01*
X139303862Y-103171852D01*
X138816138Y-103171852D01*
X138797801Y-103170046D01*
X138785550Y-103169444D01*
X138767131Y-103169444D01*
X138744851Y-103167250D01*
X138660767Y-103150524D01*
X138639340Y-103144024D01*
X138560142Y-103111220D01*
X138554697Y-103108309D01*
X138554691Y-103108307D01*
X138545831Y-103103571D01*
X138545827Y-103103568D01*
X138540386Y-103100660D01*
X138469101Y-103053029D01*
X138451796Y-103038828D01*
X138391172Y-102978204D01*
X138376971Y-102960899D01*
X138329340Y-102889614D01*
X138326432Y-102884173D01*
X138326429Y-102884169D01*
X138321693Y-102875309D01*
X138321691Y-102875303D01*
X138318780Y-102869858D01*
X138285976Y-102790660D01*
X138279476Y-102769233D01*
X138262750Y-102685149D01*
X138260556Y-102662869D01*
X138260556Y-102644450D01*
X138259954Y-102632199D01*
X138258148Y-102613862D01*
X138258148Y-102126140D01*
X138259737Y-102110001D01*
X138262652Y-102100392D01*
X138267390Y-102091528D01*
X138273763Y-102083763D01*
X138286206Y-102073552D01*
X138296575Y-102066622D01*
X138313902Y-102049295D01*
X138327515Y-102028920D01*
X138336891Y-102006280D01*
X138341671Y-101982247D01*
X138341670Y-101957743D01*
X138336888Y-101933710D01*
X138327510Y-101911071D01*
X138313895Y-101890698D01*
X138296568Y-101873371D01*
X138286198Y-101866442D01*
X138273763Y-101856237D01*
X138267390Y-101848472D01*
X138262652Y-101839608D01*
X138259737Y-101829999D01*
X138258148Y-101813860D01*
X138258148Y-101326139D01*
X138259954Y-101307801D01*
X138260556Y-101295550D01*
X138260556Y-101277131D01*
X138262750Y-101254851D01*
X138279476Y-101170767D01*
X138285976Y-101149340D01*
X138318780Y-101070142D01*
X138321691Y-101064697D01*
X138321693Y-101064691D01*
X138326429Y-101055831D01*
X138326432Y-101055827D01*
X138329340Y-101050386D01*
X138376971Y-100979101D01*
X138391172Y-100961796D01*
X138451796Y-100901172D01*
X138469101Y-100886971D01*
X138540386Y-100839340D01*
X138545827Y-100836432D01*
X138545831Y-100836429D01*
X138554691Y-100831693D01*
X138554697Y-100831691D01*
X138560142Y-100828780D01*
X138639340Y-100795976D01*
X138660767Y-100789476D01*
X138744851Y-100772750D01*
X138767131Y-100770556D01*
X138785550Y-100770556D01*
X138797801Y-100769954D01*
X138816139Y-100768148D01*
X139303861Y-100768148D01*
X139322199Y-100769954D01*
X139322199Y-100769954D01*
G37*
G36*
X146160443Y-99431519D02*
G01*
X146226627Y-99438037D01*
X146396466Y-99489557D01*
X146552991Y-99573222D01*
X146588729Y-99602552D01*
X146690186Y-99685814D01*
X146773448Y-99787271D01*
X146802778Y-99823009D01*
X146886443Y-99979534D01*
X146937963Y-100149373D01*
X146955359Y-100326000D01*
X146937963Y-100502627D01*
X146886443Y-100672466D01*
X146802778Y-100828991D01*
X146773448Y-100864729D01*
X146690186Y-100966186D01*
X146588729Y-101049448D01*
X146552991Y-101078778D01*
X146396466Y-101162443D01*
X146226627Y-101213963D01*
X146160443Y-101220481D01*
X146094260Y-101227000D01*
X146005740Y-101227000D01*
X145939557Y-101220481D01*
X145873373Y-101213963D01*
X145703534Y-101162443D01*
X145547009Y-101078778D01*
X145511271Y-101049448D01*
X145409814Y-100966186D01*
X145326552Y-100864729D01*
X145297222Y-100828991D01*
X145213557Y-100672466D01*
X145162037Y-100502627D01*
X145144641Y-100326000D01*
X145162037Y-100149373D01*
X145213557Y-99979534D01*
X145297222Y-99823009D01*
X145326552Y-99787271D01*
X145409814Y-99685814D01*
X145511271Y-99602552D01*
X145547009Y-99573222D01*
X145703534Y-99489557D01*
X145873373Y-99438037D01*
X145939558Y-99431518D01*
X146005740Y-99425000D01*
X146094260Y-99425000D01*
X146160443Y-99431519D01*
X146160443Y-99431519D01*
G37*
G36*
X125840443Y-99431519D02*
G01*
X125906627Y-99438037D01*
X126076466Y-99489557D01*
X126232991Y-99573222D01*
X126268729Y-99602552D01*
X126370186Y-99685814D01*
X126453448Y-99787271D01*
X126482778Y-99823009D01*
X126566443Y-99979534D01*
X126617963Y-100149373D01*
X126635359Y-100326000D01*
X126617963Y-100502627D01*
X126566443Y-100672466D01*
X126482778Y-100828991D01*
X126453448Y-100864729D01*
X126370186Y-100966186D01*
X126268729Y-101049448D01*
X126232991Y-101078778D01*
X126076466Y-101162443D01*
X125906627Y-101213963D01*
X125840443Y-101220481D01*
X125774260Y-101227000D01*
X125685740Y-101227000D01*
X125619557Y-101220481D01*
X125553373Y-101213963D01*
X125383534Y-101162443D01*
X125227009Y-101078778D01*
X125191271Y-101049448D01*
X125089814Y-100966186D01*
X125006552Y-100864729D01*
X124977222Y-100828991D01*
X124893557Y-100672466D01*
X124842037Y-100502627D01*
X124824641Y-100326000D01*
X124842037Y-100149373D01*
X124893557Y-99979534D01*
X124977222Y-99823009D01*
X125006552Y-99787271D01*
X125089814Y-99685814D01*
X125191271Y-99602552D01*
X125227009Y-99573222D01*
X125383534Y-99489557D01*
X125553373Y-99438037D01*
X125619558Y-99431518D01*
X125685740Y-99425000D01*
X125774260Y-99425000D01*
X125840443Y-99431519D01*
X125840443Y-99431519D01*
G37*
G36*
X146160442Y-96891518D02*
G01*
X146226627Y-96898037D01*
X146396466Y-96949557D01*
X146552991Y-97033222D01*
X146588729Y-97062552D01*
X146690186Y-97145814D01*
X146773448Y-97247271D01*
X146802778Y-97283009D01*
X146886443Y-97439534D01*
X146937963Y-97609373D01*
X146955359Y-97786000D01*
X146937963Y-97962627D01*
X146886443Y-98132466D01*
X146802778Y-98288991D01*
X146773448Y-98324729D01*
X146690186Y-98426186D01*
X146588729Y-98509448D01*
X146552991Y-98538778D01*
X146396466Y-98622443D01*
X146226627Y-98673963D01*
X146160442Y-98680482D01*
X146094260Y-98687000D01*
X146005740Y-98687000D01*
X145939558Y-98680482D01*
X145873373Y-98673963D01*
X145703534Y-98622443D01*
X145547009Y-98538778D01*
X145511271Y-98509448D01*
X145409814Y-98426186D01*
X145326552Y-98324729D01*
X145297222Y-98288991D01*
X145213557Y-98132466D01*
X145162037Y-97962627D01*
X145144641Y-97786000D01*
X145162037Y-97609373D01*
X145213557Y-97439534D01*
X145297222Y-97283009D01*
X145326552Y-97247271D01*
X145409814Y-97145814D01*
X145511271Y-97062552D01*
X145547009Y-97033222D01*
X145703534Y-96949557D01*
X145873373Y-96898037D01*
X145939558Y-96891518D01*
X146005740Y-96885000D01*
X146094260Y-96885000D01*
X146160442Y-96891518D01*
X146160442Y-96891518D01*
G37*
G36*
X125840442Y-96891518D02*
G01*
X125906627Y-96898037D01*
X126076466Y-96949557D01*
X126232991Y-97033222D01*
X126268729Y-97062552D01*
X126370186Y-97145814D01*
X126453448Y-97247271D01*
X126482778Y-97283009D01*
X126566443Y-97439534D01*
X126617963Y-97609373D01*
X126635359Y-97786000D01*
X126617963Y-97962627D01*
X126566443Y-98132466D01*
X126482778Y-98288991D01*
X126453448Y-98324729D01*
X126370186Y-98426186D01*
X126268729Y-98509448D01*
X126232991Y-98538778D01*
X126076466Y-98622443D01*
X125906627Y-98673963D01*
X125840442Y-98680482D01*
X125774260Y-98687000D01*
X125685740Y-98687000D01*
X125619558Y-98680482D01*
X125553373Y-98673963D01*
X125383534Y-98622443D01*
X125227009Y-98538778D01*
X125191271Y-98509448D01*
X125089814Y-98426186D01*
X125006552Y-98324729D01*
X124977222Y-98288991D01*
X124893557Y-98132466D01*
X124842037Y-97962627D01*
X124824641Y-97786000D01*
X124842037Y-97609373D01*
X124893557Y-97439534D01*
X124977222Y-97283009D01*
X125006552Y-97247271D01*
X125089814Y-97145814D01*
X125191271Y-97062552D01*
X125227009Y-97033222D01*
X125383534Y-96949557D01*
X125553373Y-96898037D01*
X125619558Y-96891518D01*
X125685740Y-96885000D01*
X125774260Y-96885000D01*
X125840442Y-96891518D01*
X125840442Y-96891518D01*
G37*
G36*
X146160443Y-94351519D02*
G01*
X146226627Y-94358037D01*
X146396466Y-94409557D01*
X146552991Y-94493222D01*
X146588729Y-94522552D01*
X146690186Y-94605814D01*
X146773448Y-94707271D01*
X146802778Y-94743009D01*
X146886443Y-94899534D01*
X146937963Y-95069373D01*
X146955359Y-95246000D01*
X146937963Y-95422627D01*
X146886443Y-95592466D01*
X146802778Y-95748991D01*
X146773448Y-95784729D01*
X146690186Y-95886186D01*
X146588729Y-95969448D01*
X146552991Y-95998778D01*
X146396466Y-96082443D01*
X146226627Y-96133963D01*
X146160442Y-96140482D01*
X146094260Y-96147000D01*
X146005740Y-96147000D01*
X145939558Y-96140482D01*
X145873373Y-96133963D01*
X145703534Y-96082443D01*
X145547009Y-95998778D01*
X145511271Y-95969448D01*
X145409814Y-95886186D01*
X145326552Y-95784729D01*
X145297222Y-95748991D01*
X145213557Y-95592466D01*
X145162037Y-95422627D01*
X145144641Y-95246000D01*
X145162037Y-95069373D01*
X145213557Y-94899534D01*
X145297222Y-94743009D01*
X145326552Y-94707271D01*
X145409814Y-94605814D01*
X145511271Y-94522552D01*
X145547009Y-94493222D01*
X145703534Y-94409557D01*
X145873373Y-94358037D01*
X145939557Y-94351519D01*
X146005740Y-94345000D01*
X146094260Y-94345000D01*
X146160443Y-94351519D01*
X146160443Y-94351519D01*
G37*
G36*
X125840443Y-94351519D02*
G01*
X125906627Y-94358037D01*
X126076466Y-94409557D01*
X126232991Y-94493222D01*
X126268729Y-94522552D01*
X126370186Y-94605814D01*
X126453448Y-94707271D01*
X126482778Y-94743009D01*
X126566443Y-94899534D01*
X126617963Y-95069373D01*
X126635359Y-95246000D01*
X126617963Y-95422627D01*
X126566443Y-95592466D01*
X126482778Y-95748991D01*
X126453448Y-95784729D01*
X126370186Y-95886186D01*
X126268729Y-95969448D01*
X126232991Y-95998778D01*
X126076466Y-96082443D01*
X125906627Y-96133963D01*
X125840442Y-96140482D01*
X125774260Y-96147000D01*
X125685740Y-96147000D01*
X125619558Y-96140482D01*
X125553373Y-96133963D01*
X125383534Y-96082443D01*
X125227009Y-95998778D01*
X125191271Y-95969448D01*
X125089814Y-95886186D01*
X125006552Y-95784729D01*
X124977222Y-95748991D01*
X124893557Y-95592466D01*
X124842037Y-95422627D01*
X124824641Y-95246000D01*
X124842037Y-95069373D01*
X124893557Y-94899534D01*
X124977222Y-94743009D01*
X125006552Y-94707271D01*
X125089814Y-94605814D01*
X125191271Y-94522552D01*
X125227009Y-94493222D01*
X125383534Y-94409557D01*
X125553373Y-94358037D01*
X125619557Y-94351519D01*
X125685740Y-94345000D01*
X125774260Y-94345000D01*
X125840443Y-94351519D01*
X125840443Y-94351519D01*
G37*
G36*
X146160442Y-91811518D02*
G01*
X146226627Y-91818037D01*
X146396466Y-91869557D01*
X146552991Y-91953222D01*
X146588729Y-91982552D01*
X146690186Y-92065814D01*
X146767480Y-92159998D01*
X146802778Y-92203009D01*
X146886443Y-92359534D01*
X146937963Y-92529373D01*
X146955359Y-92706000D01*
X146937963Y-92882627D01*
X146886443Y-93052466D01*
X146802778Y-93208991D01*
X146773448Y-93244729D01*
X146690186Y-93346186D01*
X146588729Y-93429448D01*
X146552991Y-93458778D01*
X146396466Y-93542443D01*
X146226627Y-93593963D01*
X146160442Y-93600482D01*
X146094260Y-93607000D01*
X146005740Y-93607000D01*
X145939557Y-93600481D01*
X145873373Y-93593963D01*
X145703534Y-93542443D01*
X145547009Y-93458778D01*
X145511271Y-93429448D01*
X145409814Y-93346186D01*
X145326552Y-93244729D01*
X145297222Y-93208991D01*
X145213557Y-93052466D01*
X145162037Y-92882627D01*
X145144641Y-92706000D01*
X145162037Y-92529373D01*
X145213557Y-92359534D01*
X145297222Y-92203009D01*
X145332520Y-92159998D01*
X145409814Y-92065814D01*
X145511271Y-91982552D01*
X145547009Y-91953222D01*
X145703534Y-91869557D01*
X145873373Y-91818037D01*
X145939557Y-91811519D01*
X146005740Y-91805000D01*
X146094260Y-91805000D01*
X146160442Y-91811518D01*
X146160442Y-91811518D01*
G37*
G36*
X125840442Y-91811518D02*
G01*
X125906627Y-91818037D01*
X126076466Y-91869557D01*
X126232991Y-91953222D01*
X126268729Y-91982552D01*
X126370186Y-92065814D01*
X126447480Y-92159998D01*
X126482778Y-92203009D01*
X126566443Y-92359534D01*
X126617963Y-92529373D01*
X126635359Y-92706000D01*
X126617963Y-92882627D01*
X126566443Y-93052466D01*
X126482778Y-93208991D01*
X126453448Y-93244729D01*
X126370186Y-93346186D01*
X126268729Y-93429448D01*
X126232991Y-93458778D01*
X126076466Y-93542443D01*
X125906627Y-93593963D01*
X125840442Y-93600482D01*
X125774260Y-93607000D01*
X125685740Y-93607000D01*
X125619557Y-93600481D01*
X125553373Y-93593963D01*
X125383534Y-93542443D01*
X125227009Y-93458778D01*
X125191271Y-93429448D01*
X125089814Y-93346186D01*
X125006552Y-93244729D01*
X124977222Y-93208991D01*
X124893557Y-93052466D01*
X124842037Y-92882627D01*
X124824641Y-92706000D01*
X124842037Y-92529373D01*
X124893557Y-92359534D01*
X124977222Y-92203009D01*
X125012520Y-92159998D01*
X125089814Y-92065814D01*
X125191271Y-91982552D01*
X125227009Y-91953222D01*
X125383534Y-91869557D01*
X125553373Y-91818037D01*
X125619558Y-91811518D01*
X125685740Y-91805000D01*
X125774260Y-91805000D01*
X125840442Y-91811518D01*
X125840442Y-91811518D01*
G37*
G36*
X141484999Y-91099737D02*
G01*
X141494608Y-91102652D01*
X141503472Y-91107390D01*
X141511237Y-91113763D01*
X141521448Y-91126206D01*
X141528378Y-91136575D01*
X141545705Y-91153902D01*
X141566080Y-91167515D01*
X141588720Y-91176891D01*
X141612753Y-91181671D01*
X141637257Y-91181670D01*
X141661290Y-91176888D01*
X141683929Y-91167510D01*
X141704302Y-91153895D01*
X141721629Y-91136568D01*
X141728558Y-91126198D01*
X141738763Y-91113763D01*
X141746528Y-91107390D01*
X141755392Y-91102652D01*
X141765001Y-91099737D01*
X141781140Y-91098148D01*
X142268861Y-91098148D01*
X142287199Y-91099954D01*
X142299450Y-91100556D01*
X142317869Y-91100556D01*
X142340149Y-91102750D01*
X142424233Y-91119476D01*
X142445660Y-91125976D01*
X142524858Y-91158780D01*
X142530303Y-91161691D01*
X142530309Y-91161693D01*
X142539169Y-91166429D01*
X142539173Y-91166432D01*
X142544614Y-91169340D01*
X142615899Y-91216971D01*
X142633204Y-91231172D01*
X142693828Y-91291796D01*
X142708029Y-91309101D01*
X142755660Y-91380386D01*
X142758568Y-91385827D01*
X142758571Y-91385831D01*
X142763307Y-91394691D01*
X142763309Y-91394697D01*
X142766220Y-91400142D01*
X142799024Y-91479340D01*
X142805524Y-91500767D01*
X142822250Y-91584851D01*
X142824444Y-91607131D01*
X142824444Y-91625550D01*
X142825046Y-91637801D01*
X142826852Y-91656139D01*
X142826852Y-92143862D01*
X142825046Y-92162199D01*
X142824444Y-92174450D01*
X142824444Y-92192869D01*
X142822250Y-92215149D01*
X142805524Y-92299233D01*
X142799024Y-92320660D01*
X142766220Y-92399858D01*
X142763309Y-92405303D01*
X142763307Y-92405309D01*
X142758571Y-92414169D01*
X142758568Y-92414173D01*
X142755660Y-92419614D01*
X142708029Y-92490899D01*
X142693828Y-92508204D01*
X142633204Y-92568828D01*
X142615899Y-92583029D01*
X142544614Y-92630660D01*
X142539173Y-92633568D01*
X142539169Y-92633571D01*
X142530309Y-92638307D01*
X142530303Y-92638309D01*
X142524858Y-92641220D01*
X142445660Y-92674024D01*
X142424233Y-92680524D01*
X142340149Y-92697250D01*
X142317869Y-92699444D01*
X142299450Y-92699444D01*
X142287199Y-92700046D01*
X142268862Y-92701852D01*
X141781140Y-92701852D01*
X141765001Y-92700263D01*
X141755392Y-92697348D01*
X141746528Y-92692610D01*
X141738763Y-92686237D01*
X141728552Y-92673794D01*
X141721622Y-92663425D01*
X141704295Y-92646098D01*
X141683920Y-92632485D01*
X141661280Y-92623109D01*
X141637247Y-92618329D01*
X141612743Y-92618330D01*
X141588710Y-92623112D01*
X141566071Y-92632490D01*
X141545698Y-92646105D01*
X141528371Y-92663432D01*
X141521442Y-92673802D01*
X141511237Y-92686237D01*
X141503472Y-92692610D01*
X141494608Y-92697348D01*
X141484999Y-92700263D01*
X141468860Y-92701852D01*
X140981138Y-92701852D01*
X140962801Y-92700046D01*
X140950550Y-92699444D01*
X140932131Y-92699444D01*
X140909851Y-92697250D01*
X140825767Y-92680524D01*
X140804340Y-92674024D01*
X140725142Y-92641220D01*
X140719697Y-92638309D01*
X140719691Y-92638307D01*
X140710831Y-92633571D01*
X140710827Y-92633568D01*
X140705386Y-92630660D01*
X140634101Y-92583029D01*
X140616796Y-92568828D01*
X140556172Y-92508204D01*
X140541971Y-92490899D01*
X140494340Y-92419614D01*
X140491432Y-92414173D01*
X140491429Y-92414169D01*
X140486693Y-92405309D01*
X140486691Y-92405303D01*
X140483780Y-92399858D01*
X140450976Y-92320660D01*
X140444476Y-92299233D01*
X140427750Y-92215149D01*
X140425556Y-92192869D01*
X140425556Y-92174450D01*
X140424954Y-92162199D01*
X140423148Y-92143862D01*
X140423148Y-91656139D01*
X140424954Y-91637801D01*
X140425556Y-91625550D01*
X140425556Y-91607131D01*
X140427750Y-91584851D01*
X140444476Y-91500767D01*
X140450976Y-91479340D01*
X140483780Y-91400142D01*
X140486691Y-91394697D01*
X140486693Y-91394691D01*
X140491429Y-91385831D01*
X140491432Y-91385827D01*
X140494340Y-91380386D01*
X140541971Y-91309101D01*
X140556172Y-91291796D01*
X140616796Y-91231172D01*
X140634101Y-91216971D01*
X140705386Y-91169340D01*
X140710827Y-91166432D01*
X140710831Y-91166429D01*
X140719691Y-91161693D01*
X140719697Y-91161691D01*
X140725142Y-91158780D01*
X140804340Y-91125976D01*
X140825767Y-91119476D01*
X140909851Y-91102750D01*
X140932131Y-91100556D01*
X140950550Y-91100556D01*
X140962801Y-91099954D01*
X140981139Y-91098148D01*
X141468860Y-91098148D01*
X141484999Y-91099737D01*
X141484999Y-91099737D01*
G37*
G36*
X146160443Y-89271519D02*
G01*
X146226627Y-89278037D01*
X146396466Y-89329557D01*
X146552991Y-89413222D01*
X146588729Y-89442552D01*
X146690186Y-89525814D01*
X146773448Y-89627271D01*
X146802778Y-89663009D01*
X146886443Y-89819534D01*
X146937963Y-89989373D01*
X146955359Y-90166000D01*
X146937963Y-90342627D01*
X146886443Y-90512466D01*
X146802778Y-90668991D01*
X146773448Y-90704729D01*
X146690186Y-90806186D01*
X146588729Y-90889448D01*
X146552991Y-90918778D01*
X146396466Y-91002443D01*
X146226627Y-91053963D01*
X146160442Y-91060482D01*
X146094260Y-91067000D01*
X146005740Y-91067000D01*
X145939558Y-91060482D01*
X145873373Y-91053963D01*
X145703534Y-91002443D01*
X145547009Y-90918778D01*
X145511271Y-90889448D01*
X145409814Y-90806186D01*
X145326552Y-90704729D01*
X145297222Y-90668991D01*
X145213557Y-90512466D01*
X145162037Y-90342627D01*
X145144641Y-90166000D01*
X145162037Y-89989373D01*
X145213557Y-89819534D01*
X145297222Y-89663009D01*
X145326552Y-89627271D01*
X145409814Y-89525814D01*
X145511271Y-89442552D01*
X145547009Y-89413222D01*
X145703534Y-89329557D01*
X145873373Y-89278037D01*
X145939557Y-89271519D01*
X146005740Y-89265000D01*
X146094260Y-89265000D01*
X146160443Y-89271519D01*
X146160443Y-89271519D01*
G37*
G36*
X125840443Y-89271519D02*
G01*
X125906627Y-89278037D01*
X126076466Y-89329557D01*
X126232991Y-89413222D01*
X126268729Y-89442552D01*
X126370186Y-89525814D01*
X126453448Y-89627271D01*
X126482778Y-89663009D01*
X126566443Y-89819534D01*
X126617963Y-89989373D01*
X126635359Y-90166000D01*
X126617963Y-90342627D01*
X126566443Y-90512466D01*
X126482778Y-90668991D01*
X126453448Y-90704729D01*
X126370186Y-90806186D01*
X126268729Y-90889448D01*
X126232991Y-90918778D01*
X126076466Y-91002443D01*
X125906627Y-91053963D01*
X125840442Y-91060482D01*
X125774260Y-91067000D01*
X125685740Y-91067000D01*
X125619558Y-91060482D01*
X125553373Y-91053963D01*
X125383534Y-91002443D01*
X125227009Y-90918778D01*
X125191271Y-90889448D01*
X125089814Y-90806186D01*
X125006552Y-90704729D01*
X124977222Y-90668991D01*
X124893557Y-90512466D01*
X124842037Y-90342627D01*
X124824641Y-90166000D01*
X124842037Y-89989373D01*
X124893557Y-89819534D01*
X124977222Y-89663009D01*
X125006552Y-89627271D01*
X125089814Y-89525814D01*
X125191271Y-89442552D01*
X125227009Y-89413222D01*
X125383534Y-89329557D01*
X125553373Y-89278037D01*
X125619557Y-89271519D01*
X125685740Y-89265000D01*
X125774260Y-89265000D01*
X125840443Y-89271519D01*
X125840443Y-89271519D01*
G37*
G36*
X142634999Y-87299737D02*
G01*
X142644608Y-87302652D01*
X142653472Y-87307390D01*
X142661237Y-87313763D01*
X142671448Y-87326206D01*
X142678378Y-87336575D01*
X142695705Y-87353902D01*
X142716080Y-87367515D01*
X142738720Y-87376891D01*
X142762753Y-87381671D01*
X142787257Y-87381670D01*
X142811290Y-87376888D01*
X142833929Y-87367510D01*
X142854302Y-87353895D01*
X142871629Y-87336568D01*
X142878558Y-87326198D01*
X142888763Y-87313763D01*
X142896528Y-87307390D01*
X142905392Y-87302652D01*
X142915001Y-87299737D01*
X142931140Y-87298148D01*
X143418861Y-87298148D01*
X143437199Y-87299954D01*
X143449450Y-87300556D01*
X143467869Y-87300556D01*
X143490149Y-87302750D01*
X143574233Y-87319476D01*
X143595660Y-87325976D01*
X143674858Y-87358780D01*
X143680303Y-87361691D01*
X143680309Y-87361693D01*
X143689169Y-87366429D01*
X143689173Y-87366432D01*
X143694614Y-87369340D01*
X143765899Y-87416971D01*
X143783204Y-87431172D01*
X143843828Y-87491796D01*
X143858029Y-87509101D01*
X143905660Y-87580386D01*
X143908568Y-87585827D01*
X143908571Y-87585831D01*
X143913307Y-87594691D01*
X143913309Y-87594697D01*
X143916220Y-87600142D01*
X143949024Y-87679340D01*
X143955524Y-87700767D01*
X143972250Y-87784851D01*
X143974444Y-87807131D01*
X143974444Y-87825550D01*
X143975046Y-87837801D01*
X143976852Y-87856139D01*
X143976852Y-88343862D01*
X143975046Y-88362199D01*
X143974444Y-88374450D01*
X143974444Y-88392869D01*
X143972250Y-88415149D01*
X143955524Y-88499233D01*
X143949024Y-88520660D01*
X143916220Y-88599858D01*
X143913309Y-88605303D01*
X143913307Y-88605309D01*
X143908571Y-88614169D01*
X143908568Y-88614173D01*
X143905660Y-88619614D01*
X143858029Y-88690899D01*
X143843828Y-88708204D01*
X143783204Y-88768828D01*
X143765899Y-88783029D01*
X143694614Y-88830660D01*
X143689173Y-88833568D01*
X143689169Y-88833571D01*
X143680309Y-88838307D01*
X143680303Y-88838309D01*
X143674858Y-88841220D01*
X143595660Y-88874024D01*
X143574233Y-88880524D01*
X143490149Y-88897250D01*
X143467869Y-88899444D01*
X143449450Y-88899444D01*
X143437199Y-88900046D01*
X143418862Y-88901852D01*
X142931140Y-88901852D01*
X142915001Y-88900263D01*
X142905392Y-88897348D01*
X142896528Y-88892610D01*
X142888763Y-88886237D01*
X142878552Y-88873794D01*
X142871622Y-88863425D01*
X142854295Y-88846098D01*
X142833920Y-88832485D01*
X142811280Y-88823109D01*
X142787247Y-88818329D01*
X142762743Y-88818330D01*
X142738710Y-88823112D01*
X142716071Y-88832490D01*
X142695698Y-88846105D01*
X142678371Y-88863432D01*
X142671442Y-88873802D01*
X142661237Y-88886237D01*
X142653472Y-88892610D01*
X142644608Y-88897348D01*
X142634999Y-88900263D01*
X142618860Y-88901852D01*
X142131138Y-88901852D01*
X142112801Y-88900046D01*
X142100550Y-88899444D01*
X142082131Y-88899444D01*
X142059851Y-88897250D01*
X141975767Y-88880524D01*
X141954340Y-88874024D01*
X141875142Y-88841220D01*
X141869697Y-88838309D01*
X141869691Y-88838307D01*
X141860831Y-88833571D01*
X141860827Y-88833568D01*
X141855386Y-88830660D01*
X141784101Y-88783029D01*
X141766796Y-88768828D01*
X141706172Y-88708204D01*
X141691971Y-88690899D01*
X141644340Y-88619614D01*
X141641432Y-88614173D01*
X141641429Y-88614169D01*
X141636693Y-88605309D01*
X141636691Y-88605303D01*
X141633780Y-88599858D01*
X141600976Y-88520660D01*
X141594476Y-88499233D01*
X141577750Y-88415149D01*
X141575556Y-88392869D01*
X141575556Y-88374450D01*
X141574954Y-88362199D01*
X141573148Y-88343862D01*
X141573148Y-87856139D01*
X141574954Y-87837801D01*
X141575556Y-87825550D01*
X141575556Y-87807131D01*
X141577750Y-87784851D01*
X141594476Y-87700767D01*
X141600976Y-87679340D01*
X141633780Y-87600142D01*
X141636691Y-87594697D01*
X141636693Y-87594691D01*
X141641429Y-87585831D01*
X141641432Y-87585827D01*
X141644340Y-87580386D01*
X141691971Y-87509101D01*
X141706172Y-87491796D01*
X141766796Y-87431172D01*
X141784101Y-87416971D01*
X141855386Y-87369340D01*
X141860827Y-87366432D01*
X141860831Y-87366429D01*
X141869691Y-87361693D01*
X141869697Y-87361691D01*
X141875142Y-87358780D01*
X141954340Y-87325976D01*
X141975767Y-87319476D01*
X142059851Y-87302750D01*
X142082131Y-87300556D01*
X142100550Y-87300556D01*
X142112801Y-87299954D01*
X142131139Y-87298148D01*
X142618860Y-87298148D01*
X142634999Y-87299737D01*
X142634999Y-87299737D01*
G37*
G36*
X146160442Y-86731518D02*
G01*
X146226627Y-86738037D01*
X146396466Y-86789557D01*
X146552991Y-86873222D01*
X146588729Y-86902552D01*
X146690186Y-86985814D01*
X146773448Y-87087271D01*
X146802778Y-87123009D01*
X146886443Y-87279534D01*
X146937963Y-87449373D01*
X146955359Y-87626000D01*
X146937963Y-87802627D01*
X146886443Y-87972466D01*
X146802778Y-88128991D01*
X146773448Y-88164729D01*
X146690186Y-88266186D01*
X146595536Y-88343862D01*
X146552991Y-88378778D01*
X146396466Y-88462443D01*
X146226627Y-88513963D01*
X146160442Y-88520482D01*
X146094260Y-88527000D01*
X146005740Y-88527000D01*
X145939558Y-88520482D01*
X145873373Y-88513963D01*
X145703534Y-88462443D01*
X145547009Y-88378778D01*
X145504464Y-88343862D01*
X145409814Y-88266186D01*
X145326552Y-88164729D01*
X145297222Y-88128991D01*
X145213557Y-87972466D01*
X145162037Y-87802627D01*
X145144641Y-87626000D01*
X145162037Y-87449373D01*
X145213557Y-87279534D01*
X145297222Y-87123009D01*
X145326552Y-87087271D01*
X145409814Y-86985814D01*
X145511271Y-86902552D01*
X145547009Y-86873222D01*
X145703534Y-86789557D01*
X145873373Y-86738037D01*
X145939558Y-86731518D01*
X146005740Y-86725000D01*
X146094260Y-86725000D01*
X146160442Y-86731518D01*
X146160442Y-86731518D01*
G37*
G36*
X125840442Y-86731518D02*
G01*
X125906627Y-86738037D01*
X126076466Y-86789557D01*
X126232991Y-86873222D01*
X126268729Y-86902552D01*
X126370186Y-86985814D01*
X126453448Y-87087271D01*
X126482778Y-87123009D01*
X126566443Y-87279534D01*
X126617963Y-87449373D01*
X126635359Y-87626000D01*
X126617963Y-87802627D01*
X126566443Y-87972466D01*
X126482778Y-88128991D01*
X126453448Y-88164729D01*
X126370186Y-88266186D01*
X126275536Y-88343862D01*
X126232991Y-88378778D01*
X126076466Y-88462443D01*
X125906627Y-88513963D01*
X125840442Y-88520482D01*
X125774260Y-88527000D01*
X125685740Y-88527000D01*
X125619558Y-88520482D01*
X125553373Y-88513963D01*
X125383534Y-88462443D01*
X125227009Y-88378778D01*
X125184464Y-88343862D01*
X125089814Y-88266186D01*
X125006552Y-88164729D01*
X124977222Y-88128991D01*
X124893557Y-87972466D01*
X124842037Y-87802627D01*
X124824641Y-87626000D01*
X124842037Y-87449373D01*
X124893557Y-87279534D01*
X124977222Y-87123009D01*
X125006552Y-87087271D01*
X125089814Y-86985814D01*
X125191271Y-86902552D01*
X125227009Y-86873222D01*
X125383534Y-86789557D01*
X125553373Y-86738037D01*
X125619558Y-86731518D01*
X125685740Y-86725000D01*
X125774260Y-86725000D01*
X125840442Y-86731518D01*
X125840442Y-86731518D01*
G37*
G36*
X146160442Y-84191518D02*
G01*
X146226627Y-84198037D01*
X146396466Y-84249557D01*
X146552991Y-84333222D01*
X146588729Y-84362552D01*
X146690186Y-84445814D01*
X146773448Y-84547271D01*
X146802778Y-84583009D01*
X146886443Y-84739534D01*
X146937963Y-84909373D01*
X146955359Y-85086000D01*
X146937963Y-85262627D01*
X146886443Y-85432466D01*
X146802778Y-85588991D01*
X146773448Y-85624729D01*
X146690186Y-85726186D01*
X146588729Y-85809448D01*
X146552991Y-85838778D01*
X146396466Y-85922443D01*
X146226627Y-85973963D01*
X146160442Y-85980482D01*
X146094260Y-85987000D01*
X146005740Y-85987000D01*
X145939558Y-85980482D01*
X145873373Y-85973963D01*
X145703534Y-85922443D01*
X145547009Y-85838778D01*
X145511271Y-85809448D01*
X145409814Y-85726186D01*
X145326552Y-85624729D01*
X145297222Y-85588991D01*
X145213557Y-85432466D01*
X145162037Y-85262627D01*
X145144641Y-85086000D01*
X145162037Y-84909373D01*
X145213557Y-84739534D01*
X145297222Y-84583009D01*
X145326552Y-84547271D01*
X145409814Y-84445814D01*
X145511271Y-84362552D01*
X145547009Y-84333222D01*
X145703534Y-84249557D01*
X145873373Y-84198037D01*
X145939558Y-84191518D01*
X146005740Y-84185000D01*
X146094260Y-84185000D01*
X146160442Y-84191518D01*
X146160442Y-84191518D01*
G37*
G36*
X125840442Y-84191518D02*
G01*
X125906627Y-84198037D01*
X126076466Y-84249557D01*
X126232991Y-84333222D01*
X126268729Y-84362552D01*
X126370186Y-84445814D01*
X126453448Y-84547271D01*
X126482778Y-84583009D01*
X126566443Y-84739534D01*
X126617963Y-84909373D01*
X126635359Y-85086000D01*
X126617963Y-85262627D01*
X126566443Y-85432466D01*
X126482778Y-85588991D01*
X126453448Y-85624729D01*
X126370186Y-85726186D01*
X126268729Y-85809448D01*
X126232991Y-85838778D01*
X126076466Y-85922443D01*
X125906627Y-85973963D01*
X125840442Y-85980482D01*
X125774260Y-85987000D01*
X125685740Y-85987000D01*
X125619558Y-85980482D01*
X125553373Y-85973963D01*
X125383534Y-85922443D01*
X125227009Y-85838778D01*
X125191271Y-85809448D01*
X125089814Y-85726186D01*
X125006552Y-85624729D01*
X124977222Y-85588991D01*
X124893557Y-85432466D01*
X124842037Y-85262627D01*
X124824641Y-85086000D01*
X124842037Y-84909373D01*
X124893557Y-84739534D01*
X124977222Y-84583009D01*
X125006552Y-84547271D01*
X125089814Y-84445814D01*
X125191271Y-84362552D01*
X125227009Y-84333222D01*
X125383534Y-84249557D01*
X125553373Y-84198037D01*
X125619558Y-84191518D01*
X125685740Y-84185000D01*
X125774260Y-84185000D01*
X125840442Y-84191518D01*
X125840442Y-84191518D01*
G37*
G36*
X125840442Y-81651518D02*
G01*
X125906627Y-81658037D01*
X126076466Y-81709557D01*
X126232991Y-81793222D01*
X126268729Y-81822552D01*
X126370186Y-81905814D01*
X126453448Y-82007271D01*
X126482778Y-82043009D01*
X126566443Y-82199534D01*
X126617963Y-82369373D01*
X126635359Y-82546000D01*
X126617963Y-82722627D01*
X126566443Y-82892466D01*
X126482778Y-83048991D01*
X126453448Y-83084729D01*
X126370186Y-83186186D01*
X126268729Y-83269448D01*
X126232991Y-83298778D01*
X126076466Y-83382443D01*
X125906627Y-83433963D01*
X125840443Y-83440481D01*
X125774260Y-83447000D01*
X125685740Y-83447000D01*
X125619557Y-83440481D01*
X125553373Y-83433963D01*
X125383534Y-83382443D01*
X125227009Y-83298778D01*
X125191271Y-83269448D01*
X125089814Y-83186186D01*
X125006552Y-83084729D01*
X124977222Y-83048991D01*
X124893557Y-82892466D01*
X124842037Y-82722627D01*
X124824641Y-82546000D01*
X124842037Y-82369373D01*
X124893557Y-82199534D01*
X124977222Y-82043009D01*
X125006552Y-82007271D01*
X125089814Y-81905814D01*
X125191271Y-81822552D01*
X125227009Y-81793222D01*
X125383534Y-81709557D01*
X125553373Y-81658037D01*
X125619558Y-81651518D01*
X125685740Y-81645000D01*
X125774260Y-81645000D01*
X125840442Y-81651518D01*
X125840442Y-81651518D01*
G37*
G36*
X125840443Y-79111519D02*
G01*
X125906627Y-79118037D01*
X126076466Y-79169557D01*
X126232991Y-79253222D01*
X126268729Y-79282552D01*
X126370186Y-79365814D01*
X126453448Y-79467271D01*
X126482778Y-79503009D01*
X126566443Y-79659534D01*
X126617963Y-79829373D01*
X126635359Y-80006000D01*
X126617963Y-80182627D01*
X126566443Y-80352466D01*
X126482778Y-80508991D01*
X126453448Y-80544729D01*
X126370186Y-80646186D01*
X126281670Y-80718828D01*
X126232991Y-80758778D01*
X126076466Y-80842443D01*
X125906627Y-80893963D01*
X125840442Y-80900482D01*
X125774260Y-80907000D01*
X125685740Y-80907000D01*
X125619558Y-80900482D01*
X125553373Y-80893963D01*
X125383534Y-80842443D01*
X125227009Y-80758778D01*
X125178330Y-80718828D01*
X125089814Y-80646186D01*
X125006552Y-80544729D01*
X124977222Y-80508991D01*
X124893557Y-80352466D01*
X124842037Y-80182627D01*
X124824641Y-80006000D01*
X124842037Y-79829373D01*
X124893557Y-79659534D01*
X124977222Y-79503009D01*
X125006552Y-79467271D01*
X125089814Y-79365814D01*
X125191271Y-79282552D01*
X125227009Y-79253222D01*
X125383534Y-79169557D01*
X125553373Y-79118037D01*
X125619557Y-79111519D01*
X125685740Y-79105000D01*
X125774260Y-79105000D01*
X125840443Y-79111519D01*
X125840443Y-79111519D01*
G37*
G36*
X145902199Y-78449954D02*
G01*
X145914450Y-78450556D01*
X145932869Y-78450556D01*
X145955149Y-78452750D01*
X146039233Y-78469476D01*
X146060660Y-78475976D01*
X146139858Y-78508780D01*
X146145303Y-78511691D01*
X146145309Y-78511693D01*
X146154169Y-78516429D01*
X146154173Y-78516432D01*
X146159614Y-78519340D01*
X146230899Y-78566971D01*
X146248204Y-78581172D01*
X146308828Y-78641796D01*
X146323029Y-78659101D01*
X146370660Y-78730386D01*
X146373568Y-78735827D01*
X146373571Y-78735831D01*
X146378307Y-78744691D01*
X146378309Y-78744697D01*
X146381220Y-78750142D01*
X146414024Y-78829340D01*
X146420524Y-78850767D01*
X146437250Y-78934851D01*
X146439444Y-78957131D01*
X146439444Y-78975550D01*
X146440046Y-78987801D01*
X146441852Y-79006139D01*
X146441852Y-79493860D01*
X146440263Y-79509999D01*
X146437348Y-79519608D01*
X146432610Y-79528472D01*
X146426237Y-79536237D01*
X146413794Y-79546448D01*
X146403425Y-79553378D01*
X146386098Y-79570705D01*
X146372485Y-79591080D01*
X146363109Y-79613720D01*
X146358329Y-79637753D01*
X146358330Y-79662257D01*
X146363112Y-79686290D01*
X146372490Y-79708929D01*
X146386105Y-79729302D01*
X146403432Y-79746629D01*
X146413802Y-79753558D01*
X146426237Y-79763763D01*
X146432610Y-79771528D01*
X146437348Y-79780392D01*
X146440263Y-79790001D01*
X146441852Y-79806140D01*
X146441852Y-80293862D01*
X146440046Y-80312199D01*
X146439444Y-80324450D01*
X146439444Y-80342869D01*
X146437250Y-80365149D01*
X146420524Y-80449233D01*
X146414024Y-80470660D01*
X146381220Y-80549858D01*
X146378309Y-80555303D01*
X146378307Y-80555309D01*
X146373571Y-80564169D01*
X146373568Y-80564173D01*
X146370660Y-80569614D01*
X146323029Y-80640899D01*
X146308828Y-80658204D01*
X146248204Y-80718828D01*
X146230899Y-80733029D01*
X146159614Y-80780660D01*
X146154173Y-80783568D01*
X146154169Y-80783571D01*
X146145309Y-80788307D01*
X146145303Y-80788309D01*
X146139858Y-80791220D01*
X146060660Y-80824024D01*
X146039233Y-80830524D01*
X145955149Y-80847250D01*
X145932869Y-80849444D01*
X145914450Y-80849444D01*
X145902199Y-80850046D01*
X145883862Y-80851852D01*
X145396138Y-80851852D01*
X145377801Y-80850046D01*
X145365550Y-80849444D01*
X145347131Y-80849444D01*
X145324851Y-80847250D01*
X145240767Y-80830524D01*
X145219340Y-80824024D01*
X145140142Y-80791220D01*
X145134697Y-80788309D01*
X145134691Y-80788307D01*
X145125831Y-80783571D01*
X145125827Y-80783568D01*
X145120386Y-80780660D01*
X145049101Y-80733029D01*
X145031796Y-80718828D01*
X144971172Y-80658204D01*
X144956971Y-80640899D01*
X144909340Y-80569614D01*
X144906432Y-80564173D01*
X144906429Y-80564169D01*
X144901693Y-80555309D01*
X144901691Y-80555303D01*
X144898780Y-80549858D01*
X144865976Y-80470660D01*
X144859476Y-80449233D01*
X144842750Y-80365149D01*
X144840556Y-80342869D01*
X144840556Y-80324450D01*
X144839954Y-80312199D01*
X144838148Y-80293862D01*
X144838148Y-79806140D01*
X144839737Y-79790001D01*
X144842652Y-79780392D01*
X144847390Y-79771528D01*
X144853763Y-79763763D01*
X144866206Y-79753552D01*
X144876575Y-79746622D01*
X144893902Y-79729295D01*
X144907515Y-79708920D01*
X144916891Y-79686280D01*
X144921671Y-79662247D01*
X144921670Y-79637743D01*
X144916888Y-79613710D01*
X144907510Y-79591071D01*
X144893895Y-79570698D01*
X144876568Y-79553371D01*
X144866198Y-79546442D01*
X144853763Y-79536237D01*
X144847390Y-79528472D01*
X144842652Y-79519608D01*
X144839737Y-79509999D01*
X144838148Y-79493860D01*
X144838148Y-79006139D01*
X144839954Y-78987801D01*
X144840556Y-78975550D01*
X144840556Y-78957131D01*
X144842750Y-78934851D01*
X144859476Y-78850767D01*
X144865976Y-78829340D01*
X144898780Y-78750142D01*
X144901691Y-78744697D01*
X144901693Y-78744691D01*
X144906429Y-78735831D01*
X144906432Y-78735827D01*
X144909340Y-78730386D01*
X144956971Y-78659101D01*
X144971172Y-78641796D01*
X145031796Y-78581172D01*
X145049101Y-78566971D01*
X145120386Y-78519340D01*
X145125827Y-78516432D01*
X145125831Y-78516429D01*
X145134691Y-78511693D01*
X145134697Y-78511691D01*
X145140142Y-78508780D01*
X145219340Y-78475976D01*
X145240767Y-78469476D01*
X145324851Y-78452750D01*
X145347131Y-78450556D01*
X145365550Y-78450556D01*
X145377801Y-78449954D01*
X145396139Y-78448148D01*
X145883861Y-78448148D01*
X145902199Y-78449954D01*
X145902199Y-78449954D01*
G37*
G36*
X125840442Y-76571518D02*
G01*
X125906627Y-76578037D01*
X126076466Y-76629557D01*
X126232991Y-76713222D01*
X126268729Y-76742552D01*
X126370186Y-76825814D01*
X126453448Y-76927271D01*
X126482778Y-76963009D01*
X126566443Y-77119534D01*
X126617963Y-77289373D01*
X126635359Y-77466000D01*
X126617963Y-77642627D01*
X126566443Y-77812466D01*
X126482778Y-77968991D01*
X126453448Y-78004729D01*
X126370186Y-78106186D01*
X126268729Y-78189448D01*
X126232991Y-78218778D01*
X126076466Y-78302443D01*
X125906627Y-78353963D01*
X125840443Y-78360481D01*
X125774260Y-78367000D01*
X125685740Y-78367000D01*
X125619557Y-78360481D01*
X125553373Y-78353963D01*
X125383534Y-78302443D01*
X125227009Y-78218778D01*
X125191271Y-78189448D01*
X125089814Y-78106186D01*
X125006552Y-78004729D01*
X124977222Y-77968991D01*
X124893557Y-77812466D01*
X124842037Y-77642627D01*
X124824641Y-77466000D01*
X124842037Y-77289373D01*
X124893557Y-77119534D01*
X124977222Y-76963009D01*
X125006552Y-76927271D01*
X125089814Y-76825814D01*
X125191271Y-76742552D01*
X125227009Y-76713222D01*
X125383534Y-76629557D01*
X125553373Y-76578037D01*
X125619558Y-76571518D01*
X125685740Y-76565000D01*
X125774260Y-76565000D01*
X125840442Y-76571518D01*
X125840442Y-76571518D01*
G37*
G36*
X125840442Y-74031518D02*
G01*
X125906627Y-74038037D01*
X126076466Y-74089557D01*
X126232991Y-74173222D01*
X126268729Y-74202552D01*
X126370186Y-74285814D01*
X126453448Y-74387271D01*
X126482778Y-74423009D01*
X126566443Y-74579534D01*
X126617963Y-74749373D01*
X126635359Y-74926000D01*
X126617963Y-75102627D01*
X126566443Y-75272466D01*
X126482778Y-75428991D01*
X126453448Y-75464729D01*
X126370186Y-75566186D01*
X126268729Y-75649448D01*
X126232991Y-75678778D01*
X126076466Y-75762443D01*
X125906627Y-75813963D01*
X125840442Y-75820482D01*
X125774260Y-75827000D01*
X125685740Y-75827000D01*
X125619558Y-75820482D01*
X125553373Y-75813963D01*
X125383534Y-75762443D01*
X125227009Y-75678778D01*
X125191271Y-75649448D01*
X125089814Y-75566186D01*
X125006552Y-75464729D01*
X124977222Y-75428991D01*
X124893557Y-75272466D01*
X124842037Y-75102627D01*
X124824641Y-74926000D01*
X124842037Y-74749373D01*
X124893557Y-74579534D01*
X124977222Y-74423009D01*
X125006552Y-74387271D01*
X125089814Y-74285814D01*
X125191271Y-74202552D01*
X125227009Y-74173222D01*
X125383534Y-74089557D01*
X125553373Y-74038037D01*
X125619558Y-74031518D01*
X125685740Y-74025000D01*
X125774260Y-74025000D01*
X125840442Y-74031518D01*
X125840442Y-74031518D01*
G37*
G36*
X138478648Y-72503819D02*
G01*
X138522182Y-72512478D01*
X138645206Y-72563436D01*
X138755925Y-72637416D01*
X138850084Y-72731575D01*
X138924064Y-72842294D01*
X138975022Y-72965318D01*
X139001000Y-73095920D01*
X139001000Y-73229080D01*
X138975022Y-73359682D01*
X138924064Y-73482706D01*
X138850084Y-73593425D01*
X138755925Y-73687584D01*
X138645206Y-73761564D01*
X138522182Y-73812522D01*
X138478648Y-73821181D01*
X138391582Y-73838500D01*
X138258418Y-73838500D01*
X138171352Y-73821181D01*
X138127818Y-73812522D01*
X138004794Y-73761564D01*
X137894075Y-73687584D01*
X137799916Y-73593425D01*
X137725936Y-73482706D01*
X137674978Y-73359682D01*
X137649000Y-73229080D01*
X137649000Y-73095920D01*
X137674978Y-72965318D01*
X137725936Y-72842294D01*
X137799916Y-72731575D01*
X137894075Y-72637416D01*
X138004794Y-72563436D01*
X138127818Y-72512478D01*
X138171352Y-72503819D01*
X138258418Y-72486500D01*
X138391582Y-72486500D01*
X138478648Y-72503819D01*
X138478648Y-72503819D01*
G37*
G36*
X133628648Y-72503819D02*
G01*
X133672182Y-72512478D01*
X133795206Y-72563436D01*
X133905925Y-72637416D01*
X134000084Y-72731575D01*
X134074064Y-72842294D01*
X134125022Y-72965318D01*
X134151000Y-73095920D01*
X134151000Y-73229080D01*
X134125022Y-73359682D01*
X134074064Y-73482706D01*
X134000084Y-73593425D01*
X133905925Y-73687584D01*
X133795206Y-73761564D01*
X133672182Y-73812522D01*
X133628648Y-73821181D01*
X133541582Y-73838500D01*
X133408418Y-73838500D01*
X133321352Y-73821181D01*
X133277818Y-73812522D01*
X133154794Y-73761564D01*
X133044075Y-73687584D01*
X132949916Y-73593425D01*
X132875936Y-73482706D01*
X132824978Y-73359682D01*
X132799000Y-73229080D01*
X132799000Y-73095920D01*
X132824978Y-72965318D01*
X132875936Y-72842294D01*
X132949916Y-72731575D01*
X133044075Y-72637416D01*
X133154794Y-72563436D01*
X133277818Y-72512478D01*
X133321352Y-72503819D01*
X133408418Y-72486500D01*
X133541582Y-72486500D01*
X133628648Y-72503819D01*
X133628648Y-72503819D01*
G37*
G36*
X145257932Y-69540466D02*
G01*
X145549446Y-69661215D01*
X145556121Y-69663980D01*
X145824483Y-69843294D01*
X146052706Y-70071517D01*
X146052707Y-70071519D01*
X146232021Y-70339881D01*
X146355534Y-70638068D01*
X146418500Y-70954620D01*
X146418500Y-71277380D01*
X146355534Y-71593932D01*
X146232021Y-71892119D01*
X146232020Y-71892121D01*
X146052706Y-72160483D01*
X145824483Y-72388706D01*
X145556121Y-72568020D01*
X145556120Y-72568021D01*
X145556119Y-72568021D01*
X145257932Y-72691534D01*
X144941380Y-72754500D01*
X144618620Y-72754500D01*
X144302068Y-72691534D01*
X144003881Y-72568021D01*
X144003880Y-72568021D01*
X144003879Y-72568020D01*
X143735517Y-72388706D01*
X143507294Y-72160483D01*
X143327980Y-71892121D01*
X143327979Y-71892119D01*
X143204466Y-71593932D01*
X143141500Y-71277380D01*
X143141500Y-70954620D01*
X143204466Y-70638068D01*
X143327979Y-70339881D01*
X143507293Y-70071519D01*
X143507294Y-70071517D01*
X143735517Y-69843294D01*
X144003879Y-69663980D01*
X144010554Y-69661215D01*
X144302068Y-69540466D01*
X144618620Y-69477500D01*
X144941380Y-69477500D01*
X145257932Y-69540466D01*
X145257932Y-69540466D01*
G37*
G36*
X127477932Y-69540466D02*
G01*
X127769446Y-69661215D01*
X127776121Y-69663980D01*
X128044483Y-69843294D01*
X128272706Y-70071517D01*
X128272707Y-70071519D01*
X128452021Y-70339881D01*
X128575534Y-70638068D01*
X128638500Y-70954620D01*
X128638500Y-71277380D01*
X128575534Y-71593932D01*
X128452021Y-71892119D01*
X128452020Y-71892121D01*
X128272706Y-72160483D01*
X128044483Y-72388706D01*
X127776121Y-72568020D01*
X127776120Y-72568021D01*
X127776119Y-72568021D01*
X127477932Y-72691534D01*
X127161380Y-72754500D01*
X126838620Y-72754500D01*
X126522068Y-72691534D01*
X126223881Y-72568021D01*
X126223880Y-72568021D01*
X126223879Y-72568020D01*
X125955517Y-72388706D01*
X125727294Y-72160483D01*
X125547980Y-71892121D01*
X125547979Y-71892119D01*
X125424466Y-71593932D01*
X125361500Y-71277380D01*
X125361500Y-70954620D01*
X125424466Y-70638068D01*
X125547979Y-70339881D01*
X125727293Y-70071519D01*
X125727294Y-70071517D01*
X125955517Y-69843294D01*
X126223879Y-69663980D01*
X126230554Y-69661215D01*
X126522068Y-69540466D01*
X126838620Y-69477500D01*
X127161380Y-69477500D01*
X127477932Y-69540466D01*
X127477932Y-69540466D01*
G37*
G36*
X132422222Y-69209867D02*
G01*
X132563786Y-69252810D01*
X132694252Y-69322546D01*
X132724040Y-69346992D01*
X132808607Y-69416393D01*
X132878008Y-69500960D01*
X132902454Y-69530748D01*
X132972190Y-69661214D01*
X133015133Y-69802778D01*
X133026000Y-69913113D01*
X133026000Y-70486887D01*
X133015133Y-70597222D01*
X132972190Y-70738786D01*
X132902454Y-70869252D01*
X132865784Y-70913934D01*
X132808607Y-70983606D01*
X132744415Y-71036286D01*
X132694251Y-71077454D01*
X132563785Y-71147190D01*
X132422221Y-71190133D01*
X132275000Y-71204633D01*
X132127778Y-71190133D01*
X131986214Y-71147190D01*
X131855748Y-71077454D01*
X131811066Y-71040784D01*
X131741394Y-70983607D01*
X131647547Y-70869252D01*
X131647546Y-70869251D01*
X131577810Y-70738785D01*
X131534867Y-70597221D01*
X131524000Y-70486886D01*
X131524000Y-69913113D01*
X131534867Y-69802778D01*
X131577810Y-69661214D01*
X131647546Y-69530748D01*
X131691246Y-69477500D01*
X131741394Y-69416393D01*
X131825961Y-69346992D01*
X131855749Y-69322546D01*
X131986215Y-69252810D01*
X132127779Y-69209867D01*
X132275000Y-69195367D01*
X132422222Y-69209867D01*
X132422222Y-69209867D01*
G37*
G36*
X139672221Y-69209867D02*
G01*
X139813785Y-69252810D01*
X139944251Y-69322546D01*
X139994415Y-69363714D01*
X140058607Y-69416394D01*
X140115784Y-69486066D01*
X140152454Y-69530748D01*
X140222190Y-69661214D01*
X140265133Y-69802778D01*
X140276000Y-69913113D01*
X140276000Y-70486887D01*
X140265133Y-70597222D01*
X140222190Y-70738786D01*
X140152454Y-70869252D01*
X140128008Y-70899040D01*
X140058607Y-70983607D01*
X139974040Y-71053008D01*
X139944252Y-71077454D01*
X139813786Y-71147190D01*
X139672222Y-71190133D01*
X139525000Y-71204633D01*
X139377779Y-71190133D01*
X139236215Y-71147190D01*
X139105749Y-71077454D01*
X139075961Y-71053008D01*
X138991394Y-70983607D01*
X138930818Y-70909794D01*
X138897546Y-70869252D01*
X138827810Y-70738786D01*
X138784867Y-70597222D01*
X138774000Y-70486887D01*
X138774000Y-69913114D01*
X138784867Y-69802779D01*
X138827810Y-69661215D01*
X138897546Y-69530749D01*
X138941246Y-69477500D01*
X138991394Y-69416393D01*
X139061066Y-69359216D01*
X139105748Y-69322546D01*
X139236214Y-69252810D01*
X139377778Y-69209867D01*
X139525000Y-69195367D01*
X139672221Y-69209867D01*
X139672221Y-69209867D01*
G37*
M02*
