G04 #@! TF.GenerationSoftware,KiCad,Pcbnew,(5.1.2-1)-1*
G04 #@! TF.CreationDate,2019-07-04T12:10:22+02:00*
G04 #@! TF.ProjectId,TLM-breakout-v1_2,544c4d2d-6272-4656-916b-6f75742d7631,1.1*
G04 #@! TF.SameCoordinates,Original*
G04 #@! TF.FileFunction,Legend,Top*
G04 #@! TF.FilePolarity,Positive*
%FSLAX46Y46*%
G04 Gerber Fmt 4.6, Leading zero omitted, Abs format (unit mm)*
G04 Created by KiCad (PCBNEW (5.1.2-1)-1) date 2019-07-04 12:10:22*
%MOMM*%
%LPD*%
G04 APERTURE LIST*
%ADD10C,0.500000*%
%ADD11C,0.100000*%
%ADD12C,0.125000*%
%ADD13C,0.112500*%
%ADD14C,0.200000*%
%ADD15C,0.180000*%
%ADD16C,0.175000*%
%ADD17C,0.250000*%
%ADD18C,0.150000*%
%ADD19C,0.120000*%
G04 APERTURE END LIST*
D10*
X134000000Y-87200000D02*
X134000000Y-89000000D01*
D11*
X132806116Y-80087857D02*
X132606116Y-80087857D01*
X132576651Y-80323571D02*
X132632901Y-79873571D01*
X132918616Y-79873571D01*
X133147187Y-79873571D02*
X133101651Y-80237857D01*
X133124866Y-80280714D01*
X133150758Y-80302142D01*
X133205223Y-80323571D01*
X133319508Y-80323571D01*
X133379330Y-80302142D01*
X133410580Y-80280714D01*
X133444508Y-80237857D01*
X133490044Y-79873571D01*
X133693616Y-80302142D02*
X133776651Y-80323571D01*
X133919508Y-80323571D01*
X133979330Y-80302142D01*
X134010580Y-80280714D01*
X134044508Y-80237857D01*
X134049866Y-80195000D01*
X134026651Y-80152142D01*
X134000758Y-80130714D01*
X133946294Y-80109285D01*
X133834687Y-80087857D01*
X133780223Y-80066428D01*
X133754330Y-80045000D01*
X133731116Y-80002142D01*
X133736473Y-79959285D01*
X133770401Y-79916428D01*
X133801651Y-79895000D01*
X133861473Y-79873571D01*
X134004330Y-79873571D01*
X134087366Y-79895000D01*
X134320401Y-80087857D02*
X134520401Y-80087857D01*
X134576651Y-80323571D02*
X134290937Y-80323571D01*
X134347187Y-79873571D01*
X134632901Y-79873571D01*
D12*
X145566064Y-114532380D02*
X145648802Y-114556190D01*
X145791659Y-114556190D01*
X145851778Y-114532380D01*
X145883326Y-114508571D01*
X145917850Y-114460952D01*
X145923802Y-114413333D01*
X145901183Y-114365714D01*
X145875588Y-114341904D01*
X145821421Y-114318095D01*
X145710112Y-114294285D01*
X145655945Y-114270476D01*
X145630350Y-114246666D01*
X145607731Y-114199047D01*
X145613683Y-114151428D01*
X145648207Y-114103809D01*
X145679755Y-114080000D01*
X145739874Y-114056190D01*
X145882731Y-114056190D01*
X145965469Y-114080000D01*
X146163088Y-114556190D02*
X146225588Y-114056190D01*
X146368445Y-114056190D01*
X146451183Y-114080000D01*
X146502374Y-114127619D01*
X146524993Y-114175238D01*
X146541659Y-114270476D01*
X146532731Y-114341904D01*
X146492255Y-114437142D01*
X146457731Y-114484761D01*
X146394636Y-114532380D01*
X146305945Y-114556190D01*
X146163088Y-114556190D01*
X146752374Y-114413333D02*
X147038088Y-114413333D01*
X146677374Y-114556190D02*
X146939874Y-114056190D01*
X147077374Y-114556190D01*
X145594635Y-111972380D02*
X145677373Y-111996190D01*
X145820230Y-111996190D01*
X145880349Y-111972380D01*
X145911897Y-111948571D01*
X145946421Y-111900952D01*
X145952373Y-111853333D01*
X145929754Y-111805714D01*
X145904159Y-111781904D01*
X145849992Y-111758095D01*
X145738683Y-111734285D01*
X145684516Y-111710476D01*
X145658921Y-111686666D01*
X145636302Y-111639047D01*
X145642254Y-111591428D01*
X145676778Y-111543809D01*
X145708325Y-111520000D01*
X145768444Y-111496190D01*
X145911302Y-111496190D01*
X145994040Y-111520000D01*
X146540468Y-111948571D02*
X146508921Y-111972380D01*
X146420230Y-111996190D01*
X146363087Y-111996190D01*
X146280349Y-111972380D01*
X146229159Y-111924761D01*
X146206540Y-111877142D01*
X146189873Y-111781904D01*
X146198802Y-111710476D01*
X146239278Y-111615238D01*
X146273802Y-111567619D01*
X146336897Y-111520000D01*
X146425587Y-111496190D01*
X146482730Y-111496190D01*
X146565468Y-111520000D01*
X146591063Y-111543809D01*
X147077373Y-111996190D02*
X146791659Y-111996190D01*
X146854159Y-111496190D01*
X145020230Y-109466190D02*
X145082730Y-108966190D01*
X145311302Y-108966190D01*
X145365468Y-108990000D01*
X145391063Y-109013809D01*
X145413683Y-109061428D01*
X145404754Y-109132857D01*
X145370230Y-109180476D01*
X145338683Y-109204285D01*
X145278563Y-109228095D01*
X145049992Y-109228095D01*
X145609516Y-109323333D02*
X145895230Y-109323333D01*
X145534516Y-109466190D02*
X145797016Y-108966190D01*
X145934516Y-109466190D01*
X146311302Y-108966190D02*
X146368444Y-108966190D01*
X146422611Y-108990000D01*
X146448206Y-109013809D01*
X146470825Y-109061428D01*
X146487492Y-109156666D01*
X146472611Y-109275714D01*
X146432135Y-109370952D01*
X146397611Y-109418571D01*
X146366063Y-109442380D01*
X146305944Y-109466190D01*
X146248802Y-109466190D01*
X146194635Y-109442380D01*
X146169040Y-109418571D01*
X146146421Y-109370952D01*
X146129754Y-109275714D01*
X146144635Y-109156666D01*
X146185111Y-109061428D01*
X146219635Y-109013809D01*
X146251183Y-108990000D01*
X146311302Y-108966190D01*
X147025587Y-108966190D02*
X146911302Y-108966190D01*
X146851183Y-108990000D01*
X146819635Y-109013809D01*
X146753563Y-109085238D01*
X146713087Y-109180476D01*
X146689278Y-109370952D01*
X146711897Y-109418571D01*
X146737492Y-109442380D01*
X146791659Y-109466190D01*
X146905944Y-109466190D01*
X146966063Y-109442380D01*
X146997611Y-109418571D01*
X147032135Y-109370952D01*
X147047016Y-109251904D01*
X147024397Y-109204285D01*
X146998802Y-109180476D01*
X146944635Y-109156666D01*
X146830349Y-109156666D01*
X146770230Y-109180476D01*
X146738683Y-109204285D01*
X146704159Y-109251904D01*
X145020230Y-106926190D02*
X145082730Y-106426190D01*
X145311302Y-106426190D01*
X145365468Y-106450000D01*
X145391063Y-106473809D01*
X145413683Y-106521428D01*
X145404754Y-106592857D01*
X145370230Y-106640476D01*
X145338683Y-106664285D01*
X145278563Y-106688095D01*
X145049992Y-106688095D01*
X145609516Y-106783333D02*
X145895230Y-106783333D01*
X145534516Y-106926190D02*
X145797016Y-106426190D01*
X145934516Y-106926190D01*
X146162492Y-106473809D02*
X146194040Y-106450000D01*
X146254159Y-106426190D01*
X146397016Y-106426190D01*
X146451183Y-106450000D01*
X146476778Y-106473809D01*
X146499397Y-106521428D01*
X146493444Y-106569047D01*
X146455944Y-106640476D01*
X146077373Y-106926190D01*
X146448802Y-106926190D01*
X146711302Y-106426190D02*
X147111302Y-106426190D01*
X146791659Y-106926190D01*
X145020230Y-104386190D02*
X145082730Y-103886190D01*
X145311302Y-103886190D01*
X145365468Y-103910000D01*
X145391063Y-103933809D01*
X145413683Y-103981428D01*
X145404754Y-104052857D01*
X145370230Y-104100476D01*
X145338683Y-104124285D01*
X145278563Y-104148095D01*
X145049992Y-104148095D01*
X145609516Y-104243333D02*
X145895230Y-104243333D01*
X145534516Y-104386190D02*
X145797016Y-103886190D01*
X145934516Y-104386190D01*
X146311302Y-103886190D02*
X146368444Y-103886190D01*
X146422611Y-103910000D01*
X146448206Y-103933809D01*
X146470825Y-103981428D01*
X146487492Y-104076666D01*
X146472611Y-104195714D01*
X146432135Y-104290952D01*
X146397611Y-104338571D01*
X146366063Y-104362380D01*
X146305944Y-104386190D01*
X146248802Y-104386190D01*
X146194635Y-104362380D01*
X146169040Y-104338571D01*
X146146421Y-104290952D01*
X146129754Y-104195714D01*
X146144635Y-104076666D01*
X146185111Y-103981428D01*
X146219635Y-103933809D01*
X146251183Y-103910000D01*
X146311302Y-103886190D01*
X146711302Y-103886190D02*
X147111302Y-103886190D01*
X146791659Y-104386190D01*
X145020230Y-101846190D02*
X145082730Y-101346190D01*
X145311302Y-101346190D01*
X145365468Y-101370000D01*
X145391063Y-101393809D01*
X145413683Y-101441428D01*
X145404754Y-101512857D01*
X145370230Y-101560476D01*
X145338683Y-101584285D01*
X145278563Y-101608095D01*
X145049992Y-101608095D01*
X145609516Y-101703333D02*
X145895230Y-101703333D01*
X145534516Y-101846190D02*
X145797016Y-101346190D01*
X145934516Y-101846190D01*
X146311302Y-101346190D02*
X146368444Y-101346190D01*
X146422611Y-101370000D01*
X146448206Y-101393809D01*
X146470825Y-101441428D01*
X146487492Y-101536666D01*
X146472611Y-101655714D01*
X146432135Y-101750952D01*
X146397611Y-101798571D01*
X146366063Y-101822380D01*
X146305944Y-101846190D01*
X146248802Y-101846190D01*
X146194635Y-101822380D01*
X146169040Y-101798571D01*
X146146421Y-101750952D01*
X146129754Y-101655714D01*
X146144635Y-101536666D01*
X146185111Y-101441428D01*
X146219635Y-101393809D01*
X146251183Y-101370000D01*
X146311302Y-101346190D01*
X146827373Y-101560476D02*
X146773206Y-101536666D01*
X146747611Y-101512857D01*
X146724992Y-101465238D01*
X146727968Y-101441428D01*
X146762492Y-101393809D01*
X146794040Y-101370000D01*
X146854159Y-101346190D01*
X146968444Y-101346190D01*
X147022611Y-101370000D01*
X147048206Y-101393809D01*
X147070825Y-101441428D01*
X147067849Y-101465238D01*
X147033325Y-101512857D01*
X147001778Y-101536666D01*
X146941659Y-101560476D01*
X146827373Y-101560476D01*
X146767254Y-101584285D01*
X146735706Y-101608095D01*
X146701183Y-101655714D01*
X146689278Y-101750952D01*
X146711897Y-101798571D01*
X146737492Y-101822380D01*
X146791659Y-101846190D01*
X146905944Y-101846190D01*
X146966063Y-101822380D01*
X146997611Y-101798571D01*
X147032135Y-101750952D01*
X147044040Y-101655714D01*
X147021421Y-101608095D01*
X146995825Y-101584285D01*
X146941659Y-101560476D01*
X145020230Y-99306190D02*
X145082730Y-98806190D01*
X145311302Y-98806190D01*
X145365468Y-98830000D01*
X145391063Y-98853809D01*
X145413683Y-98901428D01*
X145404754Y-98972857D01*
X145370230Y-99020476D01*
X145338683Y-99044285D01*
X145278563Y-99068095D01*
X145049992Y-99068095D01*
X145609516Y-99163333D02*
X145895230Y-99163333D01*
X145534516Y-99306190D02*
X145797016Y-98806190D01*
X145934516Y-99306190D01*
X146448802Y-99306190D02*
X146105944Y-99306190D01*
X146277373Y-99306190D02*
X146339873Y-98806190D01*
X146273802Y-98877619D01*
X146210706Y-98925238D01*
X146150587Y-98949047D01*
X146827373Y-99020476D02*
X146773206Y-98996666D01*
X146747611Y-98972857D01*
X146724992Y-98925238D01*
X146727968Y-98901428D01*
X146762492Y-98853809D01*
X146794040Y-98830000D01*
X146854159Y-98806190D01*
X146968444Y-98806190D01*
X147022611Y-98830000D01*
X147048206Y-98853809D01*
X147070825Y-98901428D01*
X147067849Y-98925238D01*
X147033325Y-98972857D01*
X147001778Y-98996666D01*
X146941659Y-99020476D01*
X146827373Y-99020476D01*
X146767254Y-99044285D01*
X146735706Y-99068095D01*
X146701183Y-99115714D01*
X146689278Y-99210952D01*
X146711897Y-99258571D01*
X146737492Y-99282380D01*
X146791659Y-99306190D01*
X146905944Y-99306190D01*
X146966063Y-99282380D01*
X146997611Y-99258571D01*
X147032135Y-99210952D01*
X147044040Y-99115714D01*
X147021421Y-99068095D01*
X146995825Y-99044285D01*
X146941659Y-99020476D01*
X145020230Y-96766190D02*
X145082730Y-96266190D01*
X145311302Y-96266190D01*
X145365468Y-96290000D01*
X145391063Y-96313809D01*
X145413683Y-96361428D01*
X145404754Y-96432857D01*
X145370230Y-96480476D01*
X145338683Y-96504285D01*
X145278563Y-96528095D01*
X145049992Y-96528095D01*
X145609516Y-96623333D02*
X145895230Y-96623333D01*
X145534516Y-96766190D02*
X145797016Y-96266190D01*
X145934516Y-96766190D01*
X146448802Y-96766190D02*
X146105944Y-96766190D01*
X146277373Y-96766190D02*
X146339873Y-96266190D01*
X146273802Y-96337619D01*
X146210706Y-96385238D01*
X146150587Y-96409047D01*
X147054159Y-96266190D02*
X146768444Y-96266190D01*
X146710111Y-96504285D01*
X146741659Y-96480476D01*
X146801778Y-96456666D01*
X146944635Y-96456666D01*
X146998802Y-96480476D01*
X147024397Y-96504285D01*
X147047016Y-96551904D01*
X147032135Y-96670952D01*
X146997611Y-96718571D01*
X146966063Y-96742380D01*
X146905944Y-96766190D01*
X146763087Y-96766190D01*
X146708921Y-96742380D01*
X146683325Y-96718571D01*
X145020230Y-94226190D02*
X145082730Y-93726190D01*
X145311302Y-93726190D01*
X145365468Y-93750000D01*
X145391063Y-93773809D01*
X145413683Y-93821428D01*
X145404754Y-93892857D01*
X145370230Y-93940476D01*
X145338683Y-93964285D01*
X145278563Y-93988095D01*
X145049992Y-93988095D01*
X145609516Y-94083333D02*
X145895230Y-94083333D01*
X145534516Y-94226190D02*
X145797016Y-93726190D01*
X145934516Y-94226190D01*
X146448802Y-94226190D02*
X146105944Y-94226190D01*
X146277373Y-94226190D02*
X146339873Y-93726190D01*
X146273802Y-93797619D01*
X146210706Y-93845238D01*
X146150587Y-93869047D01*
X147004754Y-93892857D02*
X146963087Y-94226190D01*
X146885706Y-93702380D02*
X146698206Y-94059523D01*
X147069635Y-94059523D01*
X144939873Y-91186190D02*
X145077373Y-91686190D01*
X145339873Y-91186190D01*
X145710112Y-91424285D02*
X145792850Y-91448095D01*
X145818445Y-91471904D01*
X145841064Y-91519523D01*
X145832135Y-91590952D01*
X145797612Y-91638571D01*
X145766064Y-91662380D01*
X145705945Y-91686190D01*
X145477373Y-91686190D01*
X145539873Y-91186190D01*
X145739873Y-91186190D01*
X145794040Y-91210000D01*
X145819635Y-91233809D01*
X145842254Y-91281428D01*
X145836302Y-91329047D01*
X145801778Y-91376666D01*
X145770231Y-91400476D01*
X145710112Y-91424285D01*
X145510112Y-91424285D01*
X146139873Y-91186190D02*
X146089278Y-91590952D01*
X146111897Y-91638571D01*
X146137492Y-91662380D01*
X146191659Y-91686190D01*
X146305945Y-91686190D01*
X146366064Y-91662380D01*
X146397612Y-91638571D01*
X146432135Y-91590952D01*
X146482731Y-91186190D01*
X146680350Y-91662380D02*
X146763088Y-91686190D01*
X146905945Y-91686190D01*
X146966064Y-91662380D01*
X146997612Y-91638571D01*
X147032135Y-91590952D01*
X147038088Y-91543333D01*
X147015469Y-91495714D01*
X146989873Y-91471904D01*
X146935707Y-91448095D01*
X146824397Y-91424285D01*
X146770231Y-91400476D01*
X146744635Y-91376666D01*
X146722016Y-91329047D01*
X146727969Y-91281428D01*
X146762492Y-91233809D01*
X146794040Y-91210000D01*
X146854159Y-91186190D01*
X146997016Y-91186190D01*
X147079754Y-91210000D01*
D13*
X145098553Y-89123571D02*
X144860458Y-89123571D01*
X144916708Y-88673571D01*
X145265220Y-89123571D02*
X145321470Y-88673571D01*
X145440517Y-88673571D01*
X145509267Y-88695000D01*
X145551529Y-88737857D01*
X145569981Y-88780714D01*
X145583077Y-88866428D01*
X145575041Y-88930714D01*
X145540517Y-89016428D01*
X145511350Y-89059285D01*
X145458374Y-89102142D01*
X145384267Y-89123571D01*
X145265220Y-89123571D01*
X145916708Y-88673571D02*
X146011946Y-88673571D01*
X146056886Y-88695000D01*
X146099148Y-88737857D01*
X146112243Y-88823571D01*
X146093493Y-88973571D01*
X146058970Y-89059285D01*
X146005993Y-89102142D01*
X145955696Y-89123571D01*
X145860458Y-89123571D01*
X145815517Y-89102142D01*
X145773255Y-89059285D01*
X145760160Y-88973571D01*
X145778910Y-88823571D01*
X145813434Y-88737857D01*
X145866410Y-88695000D01*
X145916708Y-88673571D01*
X146318493Y-88887857D02*
X146485160Y-88887857D01*
X146527124Y-89123571D02*
X146289029Y-89123571D01*
X146345279Y-88673571D01*
X146583374Y-88673571D01*
X146741410Y-89123571D02*
X146797660Y-88673571D01*
X147027124Y-89123571D01*
X147083374Y-88673571D01*
D12*
X145481540Y-86344285D02*
X145564278Y-86368095D01*
X145589873Y-86391904D01*
X145612492Y-86439523D01*
X145603564Y-86510952D01*
X145569040Y-86558571D01*
X145537492Y-86582380D01*
X145477373Y-86606190D01*
X145248802Y-86606190D01*
X145311302Y-86106190D01*
X145511302Y-86106190D01*
X145565469Y-86130000D01*
X145591064Y-86153809D01*
X145613683Y-86201428D01*
X145607730Y-86249047D01*
X145573207Y-86296666D01*
X145541659Y-86320476D01*
X145481540Y-86344285D01*
X145281540Y-86344285D01*
X145838088Y-86463333D02*
X146123802Y-86463333D01*
X145763088Y-86606190D02*
X146025588Y-86106190D01*
X146163088Y-86606190D01*
X146339873Y-86106190D02*
X146682730Y-86106190D01*
X146448802Y-86606190D02*
X146511302Y-86106190D01*
X146797016Y-86106190D02*
X147139873Y-86106190D01*
X146905945Y-86606190D02*
X146968445Y-86106190D01*
X125288325Y-114150000D02*
X125234159Y-114126190D01*
X125148444Y-114126190D01*
X125059754Y-114150000D01*
X124996659Y-114197619D01*
X124962135Y-114245238D01*
X124921659Y-114340476D01*
X124912730Y-114411904D01*
X124929397Y-114507142D01*
X124952016Y-114554761D01*
X125003206Y-114602380D01*
X125085944Y-114626190D01*
X125143087Y-114626190D01*
X125231778Y-114602380D01*
X125263325Y-114578571D01*
X125284159Y-114411904D01*
X125169873Y-114411904D01*
X125514516Y-114626190D02*
X125577016Y-114126190D01*
X125857373Y-114626190D01*
X125919873Y-114126190D01*
X126143087Y-114626190D02*
X126205587Y-114126190D01*
X126348444Y-114126190D01*
X126431183Y-114150000D01*
X126482373Y-114197619D01*
X126504992Y-114245238D01*
X126521659Y-114340476D01*
X126512730Y-114411904D01*
X126472254Y-114507142D01*
X126437730Y-114554761D01*
X126374635Y-114602380D01*
X126285944Y-114626190D01*
X126143087Y-114626190D01*
X124891302Y-111496190D02*
X125234159Y-111496190D01*
X125000230Y-111996190D02*
X125062730Y-111496190D01*
X125377016Y-111496190D02*
X125714516Y-111996190D01*
X125777016Y-111496190D02*
X125314516Y-111996190D01*
X125257373Y-109456190D02*
X125087135Y-109218095D01*
X124914516Y-109456190D02*
X124977016Y-108956190D01*
X125205588Y-108956190D01*
X125259754Y-108980000D01*
X125285350Y-109003809D01*
X125307969Y-109051428D01*
X125299040Y-109122857D01*
X125264516Y-109170476D01*
X125232969Y-109194285D01*
X125172850Y-109218095D01*
X124944278Y-109218095D01*
X125519873Y-108956190D02*
X125857373Y-109456190D01*
X125919873Y-108956190D02*
X125457373Y-109456190D01*
X124914516Y-106916190D02*
X124977016Y-106416190D01*
X125132373Y-106773333D01*
X125377016Y-106416190D01*
X125314516Y-106916190D01*
X125600231Y-106916190D02*
X125662731Y-106416190D01*
X125860350Y-106892380D02*
X125943088Y-106916190D01*
X126085945Y-106916190D01*
X126146064Y-106892380D01*
X126177612Y-106868571D01*
X126212135Y-106820952D01*
X126218088Y-106773333D01*
X126195469Y-106725714D01*
X126169873Y-106701904D01*
X126115707Y-106678095D01*
X126004397Y-106654285D01*
X125950231Y-106630476D01*
X125924635Y-106606666D01*
X125902016Y-106559047D01*
X125907969Y-106511428D01*
X125942492Y-106463809D01*
X125974040Y-106440000D01*
X126034159Y-106416190D01*
X126177016Y-106416190D01*
X126259754Y-106440000D01*
X126634159Y-106416190D02*
X126748445Y-106416190D01*
X126802612Y-106440000D01*
X126853802Y-106487619D01*
X126870469Y-106582857D01*
X126849635Y-106749523D01*
X126809159Y-106844761D01*
X126746064Y-106892380D01*
X126685945Y-106916190D01*
X126571659Y-106916190D01*
X126517492Y-106892380D01*
X126466302Y-106844761D01*
X126449635Y-106749523D01*
X126470469Y-106582857D01*
X126510945Y-106487619D01*
X126574040Y-106440000D01*
X126634159Y-106416190D01*
X124914516Y-104376190D02*
X124977016Y-103876190D01*
X125132373Y-104233333D01*
X125377016Y-103876190D01*
X125314516Y-104376190D01*
X125777016Y-103876190D02*
X125891302Y-103876190D01*
X125945469Y-103900000D01*
X125996659Y-103947619D01*
X126013326Y-104042857D01*
X125992492Y-104209523D01*
X125952016Y-104304761D01*
X125888921Y-104352380D01*
X125828802Y-104376190D01*
X125714516Y-104376190D01*
X125660350Y-104352380D01*
X125609159Y-104304761D01*
X125592492Y-104209523D01*
X125613326Y-104042857D01*
X125653802Y-103947619D01*
X125716897Y-103900000D01*
X125777016Y-103876190D01*
X126203207Y-104352380D02*
X126285945Y-104376190D01*
X126428802Y-104376190D01*
X126488921Y-104352380D01*
X126520469Y-104328571D01*
X126554992Y-104280952D01*
X126560945Y-104233333D01*
X126538326Y-104185714D01*
X126512731Y-104161904D01*
X126458564Y-104138095D01*
X126347254Y-104114285D01*
X126293088Y-104090476D01*
X126267492Y-104066666D01*
X126244873Y-104019047D01*
X126250826Y-103971428D01*
X126285350Y-103923809D01*
X126316897Y-103900000D01*
X126377016Y-103876190D01*
X126519873Y-103876190D01*
X126602612Y-103900000D01*
X126800231Y-104376190D02*
X126862731Y-103876190D01*
X124888921Y-101812380D02*
X124971659Y-101836190D01*
X125114516Y-101836190D01*
X125174635Y-101812380D01*
X125206183Y-101788571D01*
X125240707Y-101740952D01*
X125246659Y-101693333D01*
X125224040Y-101645714D01*
X125198445Y-101621904D01*
X125144278Y-101598095D01*
X125032969Y-101574285D01*
X124978802Y-101550476D01*
X124953207Y-101526666D01*
X124930588Y-101479047D01*
X124936540Y-101431428D01*
X124971064Y-101383809D01*
X125002612Y-101360000D01*
X125062731Y-101336190D01*
X125205588Y-101336190D01*
X125288326Y-101360000D01*
X125834754Y-101788571D02*
X125803207Y-101812380D01*
X125714516Y-101836190D01*
X125657373Y-101836190D01*
X125574635Y-101812380D01*
X125523445Y-101764761D01*
X125500826Y-101717142D01*
X125484159Y-101621904D01*
X125493088Y-101550476D01*
X125533564Y-101455238D01*
X125568088Y-101407619D01*
X125631183Y-101360000D01*
X125719873Y-101336190D01*
X125777016Y-101336190D01*
X125859754Y-101360000D01*
X125885350Y-101383809D01*
X126085945Y-101836190D02*
X126148445Y-101336190D01*
X126428802Y-101836190D02*
X126207373Y-101550476D01*
X126491302Y-101336190D02*
X126112731Y-101621904D01*
X124888921Y-99272380D02*
X124971659Y-99296190D01*
X125114516Y-99296190D01*
X125174635Y-99272380D01*
X125206183Y-99248571D01*
X125240706Y-99200952D01*
X125246659Y-99153333D01*
X125224040Y-99105714D01*
X125198445Y-99081904D01*
X125144278Y-99058095D01*
X125032968Y-99034285D01*
X124978802Y-99010476D01*
X124953206Y-98986666D01*
X124930587Y-98939047D01*
X124936540Y-98891428D01*
X124971064Y-98843809D01*
X125002611Y-98820000D01*
X125062730Y-98796190D01*
X125205587Y-98796190D01*
X125288326Y-98820000D01*
X125460349Y-99272380D02*
X125543087Y-99296190D01*
X125685945Y-99296190D01*
X125746064Y-99272380D01*
X125777611Y-99248571D01*
X125812135Y-99200952D01*
X125818087Y-99153333D01*
X125795468Y-99105714D01*
X125769873Y-99081904D01*
X125715706Y-99058095D01*
X125604397Y-99034285D01*
X125550230Y-99010476D01*
X125524635Y-98986666D01*
X125502016Y-98939047D01*
X125507968Y-98891428D01*
X125542492Y-98843809D01*
X125574040Y-98820000D01*
X125634159Y-98796190D01*
X125777016Y-98796190D01*
X125859754Y-98820000D01*
X124914516Y-96756190D02*
X124977016Y-96256190D01*
X125205588Y-96256190D01*
X125259754Y-96280000D01*
X125285349Y-96303809D01*
X125307969Y-96351428D01*
X125299040Y-96422857D01*
X125264516Y-96470476D01*
X125232969Y-96494285D01*
X125172849Y-96518095D01*
X124944278Y-96518095D01*
X125503802Y-96613333D02*
X125789516Y-96613333D01*
X125428802Y-96756190D02*
X125691302Y-96256190D01*
X125828802Y-96756190D01*
X126056778Y-96303809D02*
X126088326Y-96280000D01*
X126148445Y-96256190D01*
X126291302Y-96256190D01*
X126345469Y-96280000D01*
X126371064Y-96303809D01*
X126393683Y-96351428D01*
X126387730Y-96399047D01*
X126350230Y-96470476D01*
X125971659Y-96756190D01*
X126343088Y-96756190D01*
X126721659Y-96470476D02*
X126667492Y-96446666D01*
X126641897Y-96422857D01*
X126619278Y-96375238D01*
X126622254Y-96351428D01*
X126656778Y-96303809D01*
X126688326Y-96280000D01*
X126748445Y-96256190D01*
X126862730Y-96256190D01*
X126916897Y-96280000D01*
X126942492Y-96303809D01*
X126965111Y-96351428D01*
X126962135Y-96375238D01*
X126927611Y-96422857D01*
X126896064Y-96446666D01*
X126835945Y-96470476D01*
X126721659Y-96470476D01*
X126661540Y-96494285D01*
X126629992Y-96518095D01*
X126595469Y-96565714D01*
X126583564Y-96660952D01*
X126606183Y-96708571D01*
X126631778Y-96732380D01*
X126685945Y-96756190D01*
X126800230Y-96756190D01*
X126860349Y-96732380D01*
X126891897Y-96708571D01*
X126926421Y-96660952D01*
X126938326Y-96565714D01*
X126915707Y-96518095D01*
X126890111Y-96494285D01*
X126835945Y-96470476D01*
X124888921Y-94192380D02*
X124971659Y-94216190D01*
X125114516Y-94216190D01*
X125174635Y-94192380D01*
X125206183Y-94168571D01*
X125240707Y-94120952D01*
X125246659Y-94073333D01*
X125224040Y-94025714D01*
X125198445Y-94001904D01*
X125144278Y-93978095D01*
X125032969Y-93954285D01*
X124978802Y-93930476D01*
X124953207Y-93906666D01*
X124930588Y-93859047D01*
X124936540Y-93811428D01*
X124971064Y-93763809D01*
X125002612Y-93740000D01*
X125062731Y-93716190D01*
X125205588Y-93716190D01*
X125288326Y-93740000D01*
X125491302Y-93716190D02*
X125571659Y-94216190D01*
X125730588Y-93859047D01*
X125800231Y-94216190D01*
X126005588Y-93716190D01*
X126171659Y-94216190D02*
X126234159Y-93716190D01*
X126377016Y-93716190D01*
X126459754Y-93740000D01*
X126510945Y-93787619D01*
X126533564Y-93835238D01*
X126550231Y-93930476D01*
X126541302Y-94001904D01*
X126500826Y-94097142D01*
X126466302Y-94144761D01*
X126403207Y-94192380D01*
X126314516Y-94216190D01*
X126171659Y-94216190D01*
X126771659Y-94216190D02*
X126834159Y-93716190D01*
X127234159Y-93716190D02*
X127348445Y-93716190D01*
X127402612Y-93740000D01*
X127453802Y-93787619D01*
X127470469Y-93882857D01*
X127449635Y-94049523D01*
X127409159Y-94144761D01*
X127346064Y-94192380D01*
X127285945Y-94216190D01*
X127171659Y-94216190D01*
X127117492Y-94192380D01*
X127066302Y-94144761D01*
X127049635Y-94049523D01*
X127070469Y-93882857D01*
X127110945Y-93787619D01*
X127174040Y-93740000D01*
X127234159Y-93716190D01*
X124888921Y-91652380D02*
X124971659Y-91676190D01*
X125114516Y-91676190D01*
X125174635Y-91652380D01*
X125206183Y-91628571D01*
X125240706Y-91580952D01*
X125246659Y-91533333D01*
X125224040Y-91485714D01*
X125198445Y-91461904D01*
X125144278Y-91438095D01*
X125032968Y-91414285D01*
X124978802Y-91390476D01*
X124953206Y-91366666D01*
X124930587Y-91319047D01*
X124936540Y-91271428D01*
X124971064Y-91223809D01*
X125002611Y-91200000D01*
X125062730Y-91176190D01*
X125205587Y-91176190D01*
X125288326Y-91200000D01*
X125491302Y-91176190D02*
X125571659Y-91676190D01*
X125730587Y-91319047D01*
X125800230Y-91676190D01*
X126005587Y-91176190D01*
X126520468Y-91628571D02*
X126488921Y-91652380D01*
X126400230Y-91676190D01*
X126343087Y-91676190D01*
X126260349Y-91652380D01*
X126209159Y-91604761D01*
X126186540Y-91557142D01*
X126169873Y-91461904D01*
X126178802Y-91390476D01*
X126219278Y-91295238D01*
X126253802Y-91247619D01*
X126316897Y-91200000D01*
X126405587Y-91176190D01*
X126462730Y-91176190D01*
X126545468Y-91200000D01*
X126571064Y-91223809D01*
X127057373Y-91676190D02*
X126771659Y-91676190D01*
X126834159Y-91176190D01*
X127257373Y-91676190D02*
X127319873Y-91176190D01*
X127600230Y-91676190D02*
X127378802Y-91390476D01*
X127662730Y-91176190D02*
X127284159Y-91461904D01*
X124914516Y-89136190D02*
X124977016Y-88636190D01*
X125205588Y-88636190D01*
X125259754Y-88660000D01*
X125285349Y-88683809D01*
X125307969Y-88731428D01*
X125299040Y-88802857D01*
X125264516Y-88850476D01*
X125232969Y-88874285D01*
X125172849Y-88898095D01*
X124944278Y-88898095D01*
X125503802Y-88993333D02*
X125789516Y-88993333D01*
X125428802Y-89136190D02*
X125691302Y-88636190D01*
X125828802Y-89136190D01*
X126056778Y-88683809D02*
X126088326Y-88660000D01*
X126148445Y-88636190D01*
X126291302Y-88636190D01*
X126345469Y-88660000D01*
X126371064Y-88683809D01*
X126393683Y-88731428D01*
X126387730Y-88779047D01*
X126350230Y-88850476D01*
X125971659Y-89136190D01*
X126343088Y-89136190D01*
X126628207Y-88683809D02*
X126659754Y-88660000D01*
X126719873Y-88636190D01*
X126862730Y-88636190D01*
X126916897Y-88660000D01*
X126942492Y-88683809D01*
X126965111Y-88731428D01*
X126959159Y-88779047D01*
X126921659Y-88850476D01*
X126543088Y-89136190D01*
X126914516Y-89136190D01*
X124914516Y-86596190D02*
X124977016Y-86096190D01*
X125205588Y-86096190D01*
X125259754Y-86120000D01*
X125285349Y-86143809D01*
X125307969Y-86191428D01*
X125299040Y-86262857D01*
X125264516Y-86310476D01*
X125232969Y-86334285D01*
X125172849Y-86358095D01*
X124944278Y-86358095D01*
X125503802Y-86453333D02*
X125789516Y-86453333D01*
X125428802Y-86596190D02*
X125691302Y-86096190D01*
X125828802Y-86596190D01*
X126343088Y-86596190D02*
X126000230Y-86596190D01*
X126171659Y-86596190D02*
X126234159Y-86096190D01*
X126168088Y-86167619D01*
X126104992Y-86215238D01*
X126044873Y-86239047D01*
X126628802Y-86596190D02*
X126743088Y-86596190D01*
X126803207Y-86572380D01*
X126834754Y-86548571D01*
X126900826Y-86477142D01*
X126941302Y-86381904D01*
X126965111Y-86191428D01*
X126942492Y-86143809D01*
X126916897Y-86120000D01*
X126862730Y-86096190D01*
X126748445Y-86096190D01*
X126688326Y-86120000D01*
X126656778Y-86143809D01*
X126622254Y-86191428D01*
X126607373Y-86310476D01*
X126629992Y-86358095D01*
X126655588Y-86381904D01*
X126709754Y-86405714D01*
X126824040Y-86405714D01*
X126884159Y-86381904D01*
X126915707Y-86358095D01*
X126950230Y-86310476D01*
X125288325Y-83580000D02*
X125234159Y-83556190D01*
X125148444Y-83556190D01*
X125059754Y-83580000D01*
X124996659Y-83627619D01*
X124962135Y-83675238D01*
X124921659Y-83770476D01*
X124912730Y-83841904D01*
X124929397Y-83937142D01*
X124952016Y-83984761D01*
X125003206Y-84032380D01*
X125085944Y-84056190D01*
X125143087Y-84056190D01*
X125231778Y-84032380D01*
X125263325Y-84008571D01*
X125284159Y-83841904D01*
X125169873Y-83841904D01*
X125514516Y-84056190D02*
X125577016Y-83556190D01*
X125857373Y-84056190D01*
X125919873Y-83556190D01*
X126143087Y-84056190D02*
X126205587Y-83556190D01*
X126348444Y-83556190D01*
X126431183Y-83580000D01*
X126482373Y-83627619D01*
X126504992Y-83675238D01*
X126521659Y-83770476D01*
X126512730Y-83841904D01*
X126472254Y-83937142D01*
X126437730Y-83984761D01*
X126374635Y-84032380D01*
X126285944Y-84056190D01*
X126143087Y-84056190D01*
X124971540Y-81264285D02*
X125054278Y-81288095D01*
X125079873Y-81311904D01*
X125102492Y-81359523D01*
X125093563Y-81430952D01*
X125059040Y-81478571D01*
X125027492Y-81502380D01*
X124967373Y-81526190D01*
X124738802Y-81526190D01*
X124801302Y-81026190D01*
X125001302Y-81026190D01*
X125055468Y-81050000D01*
X125081063Y-81073809D01*
X125103683Y-81121428D01*
X125097730Y-81169047D01*
X125063206Y-81216666D01*
X125031659Y-81240476D01*
X124971540Y-81264285D01*
X124771540Y-81264285D01*
X125687611Y-81478571D02*
X125656063Y-81502380D01*
X125567373Y-81526190D01*
X125510230Y-81526190D01*
X125427492Y-81502380D01*
X125376302Y-81454761D01*
X125353683Y-81407142D01*
X125337016Y-81311904D01*
X125345944Y-81240476D01*
X125386421Y-81145238D01*
X125420944Y-81097619D01*
X125484040Y-81050000D01*
X125572730Y-81026190D01*
X125629873Y-81026190D01*
X125712611Y-81050000D01*
X125738206Y-81073809D01*
X125938802Y-81526190D02*
X126001302Y-81026190D01*
X126281659Y-81526190D02*
X126060230Y-81240476D01*
X126344159Y-81026190D02*
X125965587Y-81311904D01*
X126538802Y-81526190D02*
X126601302Y-81026190D01*
X126829873Y-81026190D01*
X126884040Y-81050000D01*
X126909635Y-81073809D01*
X126932254Y-81121428D01*
X126923325Y-81192857D01*
X126888802Y-81240476D01*
X126857254Y-81264285D01*
X126797135Y-81288095D01*
X126568563Y-81288095D01*
X124898325Y-78785714D02*
X125355468Y-78785714D01*
X125103087Y-78976190D02*
X125150706Y-78595238D01*
X125622730Y-78476190D02*
X125994159Y-78476190D01*
X125770349Y-78666666D01*
X125856063Y-78666666D01*
X125910230Y-78690476D01*
X125935825Y-78714285D01*
X125958444Y-78761904D01*
X125943563Y-78880952D01*
X125909040Y-78928571D01*
X125877492Y-78952380D01*
X125817373Y-78976190D01*
X125645944Y-78976190D01*
X125591778Y-78952380D01*
X125566183Y-78928571D01*
X126165587Y-78476190D02*
X126303087Y-78976190D01*
X126565587Y-78476190D01*
X125257373Y-76436190D02*
X125087135Y-76198095D01*
X124914516Y-76436190D02*
X124977016Y-75936190D01*
X125205587Y-75936190D01*
X125259754Y-75960000D01*
X125285349Y-75983809D01*
X125307968Y-76031428D01*
X125299040Y-76102857D01*
X125264516Y-76150476D01*
X125232968Y-76174285D01*
X125172849Y-76198095D01*
X124944278Y-76198095D01*
X125488921Y-76412380D02*
X125571659Y-76436190D01*
X125714516Y-76436190D01*
X125774635Y-76412380D01*
X125806183Y-76388571D01*
X125840706Y-76340952D01*
X125846659Y-76293333D01*
X125824040Y-76245714D01*
X125798444Y-76221904D01*
X125744278Y-76198095D01*
X125632968Y-76174285D01*
X125578802Y-76150476D01*
X125553206Y-76126666D01*
X125530587Y-76079047D01*
X125536540Y-76031428D01*
X125571063Y-75983809D01*
X125602611Y-75960000D01*
X125662730Y-75936190D01*
X125805587Y-75936190D01*
X125888325Y-75960000D01*
X126062730Y-75936190D02*
X126405587Y-75936190D01*
X126171659Y-76436190D02*
X126234159Y-75936190D01*
D14*
X128710000Y-84240000D02*
X128710000Y-83046200D01*
X129980000Y-84240000D02*
X128710000Y-84240000D01*
X131826000Y-80111600D02*
X132300000Y-80111600D01*
X131826000Y-80365600D02*
X131826000Y-80111600D01*
D15*
X143938095Y-93581803D02*
X144738095Y-93681803D01*
X144738095Y-94005613D01*
X144700000Y-94081803D01*
X144661904Y-94117517D01*
X144585714Y-94148470D01*
X144471428Y-94134184D01*
X144395238Y-94084184D01*
X144357142Y-94038946D01*
X144319047Y-93953232D01*
X144319047Y-93629422D01*
X144738095Y-94450851D02*
X143938095Y-94553232D01*
X144509523Y-94786565D01*
X143938095Y-94877041D01*
X144738095Y-95179422D01*
X143938095Y-95888946D02*
X144319047Y-95653232D01*
X143938095Y-95403232D02*
X144738095Y-95503232D01*
X144738095Y-95827041D01*
X144700000Y-95903232D01*
X144661904Y-95938946D01*
X144585714Y-95969898D01*
X144471428Y-95955613D01*
X144395238Y-95905613D01*
X144357142Y-95860375D01*
X144319047Y-95774660D01*
X144319047Y-95450851D01*
D16*
X141081742Y-69649285D02*
X140676980Y-69649285D01*
X140770730Y-68899285D01*
X141414183Y-69256428D02*
X141697516Y-69256428D01*
X141769837Y-69649285D02*
X141365075Y-69649285D01*
X141458825Y-68899285D01*
X141863587Y-68899285D01*
X142134123Y-69649285D02*
X142227873Y-68899285D01*
X142430254Y-68899285D01*
X142547218Y-68935000D01*
X142619242Y-69006428D01*
X142650790Y-69077857D01*
X142673409Y-69220714D01*
X142660016Y-69327857D01*
X142601683Y-69470714D01*
X142552278Y-69542142D01*
X142462397Y-69613571D01*
X142336504Y-69649285D01*
X142134123Y-69649285D01*
X143239778Y-68899285D02*
X143320730Y-68899285D01*
X143397218Y-68935000D01*
X143433230Y-68970714D01*
X143464778Y-69042142D01*
X143487397Y-69185000D01*
X143465075Y-69363571D01*
X143406742Y-69506428D01*
X143357337Y-69577857D01*
X143312397Y-69613571D01*
X143226980Y-69649285D01*
X143146028Y-69649285D01*
X143069540Y-69613571D01*
X143033528Y-69577857D01*
X143001980Y-69506428D01*
X142979361Y-69363571D01*
X143001683Y-69185000D01*
X143060016Y-69042142D01*
X143109421Y-68970714D01*
X143154361Y-68935000D01*
X143239778Y-68899285D01*
X129632209Y-69695714D02*
X129584590Y-69733809D01*
X129451257Y-69771904D01*
X129365543Y-69771904D01*
X129241733Y-69733809D01*
X129165543Y-69657619D01*
X129132209Y-69581428D01*
X129108400Y-69429047D01*
X129122686Y-69314761D01*
X129184590Y-69162380D01*
X129236971Y-69086190D01*
X129332209Y-69010000D01*
X129465543Y-68971904D01*
X129551257Y-68971904D01*
X129675066Y-69010000D01*
X129713162Y-69048095D01*
X130008400Y-69771904D02*
X130108400Y-68971904D01*
X130060781Y-69352857D02*
X130575066Y-69352857D01*
X130522686Y-69771904D02*
X130622686Y-68971904D01*
D14*
X130781979Y-84534523D02*
X130532574Y-84129761D01*
X130267693Y-84534523D02*
X130373943Y-83684523D01*
X130716800Y-83684523D01*
X130797455Y-83725000D01*
X130835252Y-83765476D01*
X130867991Y-83846428D01*
X130852812Y-83967857D01*
X130799836Y-84048809D01*
X130751919Y-84089285D01*
X130661145Y-84129761D01*
X130318288Y-84129761D01*
X131223348Y-84089285D02*
X131523348Y-84089285D01*
X131596264Y-84534523D02*
X131167693Y-84534523D01*
X131273943Y-83684523D01*
X131702514Y-83684523D01*
X131944181Y-84494047D02*
X132067693Y-84534523D01*
X132281979Y-84534523D01*
X132372752Y-84494047D01*
X132420669Y-84453571D01*
X132473645Y-84372619D01*
X132483764Y-84291666D01*
X132451026Y-84210714D01*
X132413229Y-84170238D01*
X132332574Y-84129761D01*
X132166205Y-84089285D01*
X132085550Y-84048809D01*
X132047752Y-84008333D01*
X132015014Y-83927380D01*
X132025133Y-83846428D01*
X132078110Y-83765476D01*
X132126026Y-83725000D01*
X132216800Y-83684523D01*
X132431086Y-83684523D01*
X132554598Y-83725000D01*
X132894776Y-84089285D02*
X133194776Y-84089285D01*
X133267693Y-84534523D02*
X132839122Y-84534523D01*
X132945372Y-83684523D01*
X133373943Y-83684523D01*
X133631086Y-83684523D02*
X134145372Y-83684523D01*
X133781979Y-84534523D02*
X133888229Y-83684523D01*
D17*
X137539047Y-81971428D02*
X138300952Y-81971428D01*
X137920000Y-82352380D02*
X137920000Y-81590476D01*
D18*
X127000000Y-119380000D02*
G75*
G02X124460000Y-116840000I0J2540000D01*
G01*
X147320000Y-116840000D02*
G75*
G02X144780000Y-119380000I-2540000J0D01*
G01*
X144780000Y-68580000D02*
G75*
G02X147320000Y-71120000I0J-2540000D01*
G01*
X124460000Y-71120000D02*
G75*
G02X127000000Y-68580000I2540000J0D01*
G01*
X124460000Y-116840000D02*
X124460000Y-71120000D01*
X144780000Y-119380000D02*
X127000000Y-119380000D01*
X147320000Y-71120000D02*
X147320000Y-116840000D01*
X127000000Y-68580000D02*
X144780000Y-68580000D01*
D19*
X135349720Y-79260000D02*
X135675278Y-79260000D01*
X135349720Y-78240000D02*
X135675278Y-78240000D01*
X133080000Y-82012779D02*
X133080000Y-81687221D01*
X134100000Y-82012779D02*
X134100000Y-81687221D01*
X136437279Y-90040000D02*
X136111721Y-90040000D01*
X136437279Y-91060000D02*
X136111721Y-91060000D01*
X136437279Y-89554100D02*
X136111721Y-89554100D01*
X136437279Y-88534100D02*
X136111721Y-88534100D01*
X132512779Y-75690000D02*
X132187221Y-75690000D01*
X132512779Y-76710000D02*
X132187221Y-76710000D01*
X132187221Y-78691200D02*
X132512779Y-78691200D01*
X132187221Y-79711200D02*
X132512779Y-79711200D01*
X142712779Y-74460000D02*
X142387221Y-74460000D01*
X142712779Y-73440000D02*
X142387221Y-73440000D01*
X138090000Y-89637221D02*
X138090000Y-89962779D01*
X139110000Y-89637221D02*
X139110000Y-89962779D01*
X134570000Y-84150000D02*
X136570000Y-84150000D01*
X136570000Y-84150000D02*
X136570000Y-80250000D01*
X134570000Y-84150000D02*
X134570000Y-80250000D01*
X129186000Y-70447000D02*
X129186000Y-72732000D01*
X129186000Y-72732000D02*
X130656000Y-72732000D01*
X130656000Y-72732000D02*
X130656000Y-70447000D01*
X143265000Y-91150000D02*
X143265000Y-93435000D01*
X143265000Y-93435000D02*
X144735000Y-93435000D01*
X144735000Y-93435000D02*
X144735000Y-91150000D01*
X142435000Y-72605000D02*
X142435000Y-70320000D01*
X140965000Y-72605000D02*
X142435000Y-72605000D01*
X140965000Y-70320000D02*
X140965000Y-72605000D01*
X132510000Y-81591422D02*
X132510000Y-82108578D01*
X131090000Y-81591422D02*
X131090000Y-82108578D01*
X132512779Y-78210000D02*
X132187221Y-78210000D01*
X132512779Y-77190000D02*
X132187221Y-77190000D01*
X144456000Y-110664000D02*
X144456000Y-113364000D01*
X141736000Y-111254000D02*
X141106000Y-111254000D01*
X141736000Y-113414000D02*
X141736000Y-112774000D01*
X141736000Y-110614000D02*
X141736000Y-111254000D01*
X132115000Y-91335000D02*
X128585000Y-91335000D01*
X132115000Y-84865000D02*
X128585000Y-84865000D01*
X133440000Y-91270000D02*
X132115000Y-91270000D01*
X132115000Y-91335000D02*
X132115000Y-91270000D01*
X128585000Y-91335000D02*
X128585000Y-91270000D01*
X132115000Y-84930000D02*
X132115000Y-84865000D01*
X128585000Y-84930000D02*
X128585000Y-84865000D01*
X139150000Y-88060000D02*
X141600000Y-88060000D01*
X140950000Y-84840000D02*
X139150000Y-84840000D01*
X144460000Y-87980000D02*
X144460000Y-87050000D01*
X144460000Y-84820000D02*
X144460000Y-85750000D01*
X144460000Y-84820000D02*
X142300000Y-84820000D01*
X144460000Y-87980000D02*
X143000000Y-87980000D01*
X134690000Y-85550000D02*
X134690000Y-87350000D01*
X137910000Y-87350000D02*
X137910000Y-84900000D01*
X143240000Y-83660000D02*
X138990000Y-83660000D01*
X138990000Y-83660000D02*
X138990000Y-82640000D01*
X138990000Y-82640000D02*
X140590000Y-82640000D01*
X140590000Y-82640000D02*
X140590000Y-81360000D01*
X140590000Y-81360000D02*
X137700000Y-81360000D01*
X143240000Y-75540000D02*
X138990000Y-75540000D01*
X138990000Y-75540000D02*
X138990000Y-76560000D01*
X138990000Y-76560000D02*
X140590000Y-76560000D01*
X140590000Y-76560000D02*
X140590000Y-77840000D01*
X146810000Y-81940000D02*
X146810000Y-77260000D01*
X135640000Y-114430000D02*
X135890000Y-114930000D01*
X136140000Y-114430000D02*
X135640000Y-114430000D01*
X135890000Y-114930000D02*
X136140000Y-114430000D01*
X135100000Y-77560000D02*
X137000000Y-77560000D01*
X136500000Y-75240000D02*
X135100000Y-75240000D01*
X128670000Y-78160000D02*
X128770000Y-78160000D01*
X130430000Y-82780000D02*
X130430000Y-78380000D01*
X127010000Y-78380000D02*
X127010000Y-82780000D01*
X128660000Y-82990000D02*
X128760000Y-82990000D01*
X138000000Y-74150000D02*
X137550000Y-74150000D01*
X132000000Y-73462500D02*
X132450000Y-73462500D01*
X132000000Y-71612500D02*
X132000000Y-73462500D01*
X139800000Y-71612500D02*
X139800000Y-73462500D01*
X139800000Y-73462500D02*
X139350000Y-73462500D01*
D18*
X142875000Y-109474000D02*
X128905000Y-109474000D01*
X128905000Y-109474000D02*
X128905000Y-92964000D01*
X128905000Y-92964000D02*
X142875000Y-92964000D01*
X142875000Y-92964000D02*
X142875000Y-109474000D01*
X142240000Y-109474000D02*
X142875000Y-108839000D01*
M02*
