M48
; DRILL file {KiCad (5.1.2-1)-1} date 2019 July 04, Thursday 12:10:27
; FORMAT={-:-/ absolute / metric / decimal}
; #@! TF.CreationDate,2019-07-04T12:10:27+02:00
; #@! TF.GenerationSoftware,Kicad,Pcbnew,(5.1.2-1)-1
FMAT,2
METRIC
T1C0.254
T2C0.300
T3C0.350
T4C0.400
T5C0.750
T6C0.800
T7C1.000
T8C2.540
%
G90
G05
T1
X129.743Y-93.637
X131.6Y-94.84
X132.23Y-91.59
X138.24Y-84.76
T2
X125.8Y-73.3
X126.6Y-76.2
X127.0Y-111.76
X127.0Y-114.3
X127.3Y-80.3
X127.317Y-100.901
X127.512Y-98.546
X127.75Y-84.75
X128.11Y-84.01
X128.27Y-109.22
X128.27Y-110.49
X128.27Y-111.76
X128.27Y-113.03
X128.27Y-114.3
X128.3Y-73.4
X128.4Y-77.2
X129.41Y-77.41
X129.54Y-109.22
X129.54Y-110.49
X129.54Y-111.76
X129.54Y-113.03
X129.54Y-114.3
X129.54Y-115.57
X129.54Y-116.84
X129.54Y-118.11
X129.546Y-107.987
X129.731Y-83.883
X130.15Y-80.26
X130.3Y-75.5
X130.32Y-76.2
X130.59Y-99.32
X130.62Y-101.93
X130.774Y-95.409
X130.8Y-73.4
X130.81Y-97.155
X130.81Y-98.425
X130.81Y-107.95
X130.81Y-110.49
X130.81Y-111.76
X130.81Y-113.03
X131.488Y-96.037
X131.826Y-84.01
X131.889Y-110.744
X132.08Y-97.155
X132.08Y-98.425
X132.08Y-101.6
X132.08Y-102.87
X132.08Y-104.14
X132.08Y-105.41
X132.08Y-106.68
X132.08Y-107.95
X132.08Y-112.585
X132.27Y-111.188
X132.651Y-113.728
X132.779Y-111.633
X132.87Y-94.8
X132.9Y-75.1
X133.223Y-112.078
X133.35Y-97.155
X133.35Y-99.695
X133.35Y-101.6
X133.35Y-102.87
X133.35Y-104.14
X133.35Y-105.41
X133.35Y-106.68
X133.35Y-107.95
X133.5Y-75.1
X133.604Y-110.49
X133.71Y-112.54
X133.74Y-94.77
X133.8Y-74.4
X134.048Y-110.934
X134.048Y-113.728
X134.075Y-88.1
X134.162Y-89.358
X134.175Y-85.534
X134.175Y-86.804
X134.2Y-70.9
X134.37Y-112.7
X134.556Y-111.252
X134.6Y-72.0
X134.62Y-98.425
X134.62Y-99.695
X134.62Y-101.6
X134.62Y-102.87
X134.62Y-104.14
X134.62Y-104.14
X134.62Y-104.14
X134.62Y-105.41
X134.62Y-106.68
X134.62Y-107.95
X134.683Y-115.062
X134.683Y-115.824
X134.683Y-116.586
X134.683Y-117.348
X134.683Y-118.11
X134.683Y-118.745
X134.98Y-95.96
X135.128Y-111.252
X135.128Y-112.712
X135.128Y-113.538
X135.128Y-114.236
X135.3Y-86.45
X135.66Y-95.66
X135.763Y-111.252
X135.86Y-77.87
X135.89Y-97.155
X135.89Y-98.425
X135.89Y-99.695
X135.89Y-101.6
X135.89Y-102.87
X135.89Y-104.14
X135.89Y-105.41
X135.89Y-106.68
X135.89Y-107.95
X135.89Y-109.22
X135.93Y-77.11
X136.24Y-84.39
X136.31Y-86.46
X136.398Y-111.252
X136.652Y-113.538
X136.652Y-114.236
X136.69Y-112.78
X136.94Y-94.89
X137.096Y-111.252
X137.096Y-115.062
X137.096Y-115.824
X137.096Y-116.586
X137.096Y-117.348
X137.096Y-118.11
X137.096Y-118.745
X137.16Y-81.788
X137.16Y-97.155
X137.16Y-98.425
X137.16Y-99.695
X137.16Y-101.6
X137.16Y-102.87
X137.16Y-104.14
X137.16Y-105.41
X137.16Y-106.68
X137.16Y-107.95
X137.16Y-109.22
X137.2Y-71.9
X137.26Y-86.45
X137.3Y-74.8
X137.414Y-112.776
X137.6Y-70.9
X137.675Y-91.625
X137.7Y-76.4
X137.76Y-94.91
X137.795Y-113.728
X138.049Y-112.776
X138.3Y-75.6
X138.43Y-95.885
X138.43Y-97.155
X138.43Y-98.425
X138.43Y-99.695
X138.43Y-104.14
X138.43Y-105.41
X138.43Y-105.41
X138.43Y-105.41
X138.43Y-106.68
X138.43Y-106.68
X138.43Y-106.68
X138.43Y-107.95
X138.43Y-109.22
X138.684Y-81.788
X138.684Y-83.312
X138.938Y-111.252
X138.938Y-112.776
X139.065Y-113.728
X139.3Y-86.45
X139.44Y-77.31
X139.573Y-111.252
X139.573Y-112.776
X139.7Y-95.885
X139.7Y-97.155
X139.7Y-98.425
X139.7Y-104.14
X139.7Y-105.41
X139.7Y-106.68
X139.7Y-107.95
X139.7Y-109.22
X139.725Y-89.05
X140.06Y-85.28
X140.12Y-87.35
X140.13Y-86.45
X140.208Y-81.788
X140.208Y-83.312
X140.272Y-111.252
X140.272Y-112.776
X140.3Y-72.8
X140.395Y-88.655
X140.589Y-113.728
X140.97Y-95.885
X140.97Y-97.155
X140.97Y-100.33
X140.97Y-104.775
X140.97Y-107.95
X140.97Y-109.22
X141.15Y-75.4
X141.462Y-94.028
X141.706Y-89.731
X141.732Y-76.2
X141.732Y-77.724
X141.732Y-79.248
X142.24Y-107.95
X142.24Y-109.22
X142.24Y-115.57
X142.24Y-116.84
X142.24Y-118.11
X142.34Y-86.492
X142.5Y-74.74
X142.517Y-89.987
X143.005Y-72.695
X143.02Y-76.1
X143.06Y-82.98
X143.18Y-90.36
X143.19Y-91.53
X143.256Y-77.724
X143.256Y-79.248
X143.256Y-80.772
X143.51Y-107.95
X143.51Y-109.22
X143.919Y-87.521
X143.979Y-90.186
X144.037Y-85.65
X144.266Y-96.664
X144.78Y-114.3
X144.8Y-98.64
X145.18Y-77.5
X145.227Y-88.789
X145.65Y-81.65
X146.35Y-77.48
X146.37Y-81.77
T3
X140.75Y-102.59
X140.9Y-106.3
T4
X130.7Y-102.97
X130.9Y-106.3
T5
X133.475Y-73.162
X138.325Y-73.162
T7
X125.73Y-74.926
X125.73Y-77.466
X125.73Y-80.006
X125.73Y-82.546
X125.73Y-85.086
X125.73Y-87.626
X125.73Y-90.166
X125.73Y-92.706
X125.73Y-95.246
X125.73Y-97.786
X125.73Y-100.326
X125.73Y-102.866
X125.73Y-105.406
X125.73Y-107.946
X125.73Y-110.486
X125.73Y-113.026
X146.05Y-85.086
X146.05Y-87.626
X146.05Y-90.166
X146.05Y-92.706
X146.05Y-95.246
X146.05Y-97.786
X146.05Y-100.326
X146.05Y-102.866
X146.05Y-105.406
X146.05Y-107.946
X146.05Y-110.486
X146.05Y-113.026
T8
X127.0Y-71.116
X127.0Y-116.836
X144.78Y-71.116
X144.78Y-116.836
T6
G00X132.275Y-70.35
M15
G01X132.275Y-70.05
M16
G05
G00X139.525Y-70.05
M15
G01X139.525Y-70.35
M16
G05
T0
M30
