G04 #@! TF.GenerationSoftware,KiCad,Pcbnew,(5.1.2-1)-1*
G04 #@! TF.CreationDate,2019-07-04T12:10:22+02:00*
G04 #@! TF.ProjectId,TLM-breakout-v1_2,544c4d2d-6272-4656-916b-6f75742d7631,1.1*
G04 #@! TF.SameCoordinates,Original*
G04 #@! TF.FileFunction,Legend,Bot*
G04 #@! TF.FilePolarity,Positive*
%FSLAX46Y46*%
G04 Gerber Fmt 4.6, Leading zero omitted, Abs format (unit mm)*
G04 Created by KiCad (PCBNEW (5.1.2-1)-1) date 2019-07-04 12:10:22*
%MOMM*%
%LPD*%
G04 APERTURE LIST*
%ADD10C,0.125000*%
%ADD11C,0.100000*%
%ADD12C,0.275000*%
%ADD13C,0.200000*%
%ADD14C,0.350000*%
%ADD15C,0.150000*%
%ADD16C,0.010000*%
%ADD17C,0.120000*%
%ADD18C,0.187500*%
G04 APERTURE END LIST*
D10*
X126262626Y-76426190D02*
X126432864Y-76188095D01*
X126605483Y-76426190D02*
X126542983Y-75926190D01*
X126314412Y-75926190D01*
X126260245Y-75950000D01*
X126234650Y-75973809D01*
X126212031Y-76021428D01*
X126220959Y-76092857D01*
X126255483Y-76140476D01*
X126287031Y-76164285D01*
X126347150Y-76188095D01*
X126575721Y-76188095D01*
X126031078Y-76402380D02*
X125948340Y-76426190D01*
X125805483Y-76426190D01*
X125745364Y-76402380D01*
X125713816Y-76378571D01*
X125679293Y-76330952D01*
X125673340Y-76283333D01*
X125695959Y-76235714D01*
X125721555Y-76211904D01*
X125775721Y-76188095D01*
X125887031Y-76164285D01*
X125941197Y-76140476D01*
X125966793Y-76116666D01*
X125989412Y-76069047D01*
X125983459Y-76021428D01*
X125948936Y-75973809D01*
X125917388Y-75950000D01*
X125857269Y-75926190D01*
X125714412Y-75926190D01*
X125631674Y-75950000D01*
X125457269Y-75926190D02*
X125114412Y-75926190D01*
X125348340Y-76426190D02*
X125285840Y-75926190D01*
X127353103Y-78775714D02*
X126895960Y-78775714D01*
X127148341Y-78966190D02*
X127100722Y-78585238D01*
X126628698Y-78466190D02*
X126257270Y-78466190D01*
X126481079Y-78656666D01*
X126395365Y-78656666D01*
X126341198Y-78680476D01*
X126315603Y-78704285D01*
X126292984Y-78751904D01*
X126307865Y-78870952D01*
X126342389Y-78918571D01*
X126373936Y-78942380D01*
X126434055Y-78966190D01*
X126605484Y-78966190D01*
X126659651Y-78942380D01*
X126685246Y-78918571D01*
X126085841Y-78466190D02*
X125948341Y-78966190D01*
X125685841Y-78466190D01*
X125542984Y-78466190D02*
X125171555Y-78466190D01*
X125395365Y-78656666D01*
X125309651Y-78656666D01*
X125255484Y-78680476D01*
X125229889Y-78704285D01*
X125207270Y-78751904D01*
X125222151Y-78870952D01*
X125256674Y-78918571D01*
X125288222Y-78942380D01*
X125348341Y-78966190D01*
X125519770Y-78966190D01*
X125573936Y-78942380D01*
X125599531Y-78918571D01*
X127144174Y-81244285D02*
X127061436Y-81268095D01*
X127035841Y-81291904D01*
X127013222Y-81339523D01*
X127022151Y-81410952D01*
X127056674Y-81458571D01*
X127088222Y-81482380D01*
X127148341Y-81506190D01*
X127376912Y-81506190D01*
X127314412Y-81006190D01*
X127114412Y-81006190D01*
X127060246Y-81030000D01*
X127034651Y-81053809D01*
X127012031Y-81101428D01*
X127017984Y-81149047D01*
X127052508Y-81196666D01*
X127084055Y-81220476D01*
X127144174Y-81244285D01*
X127344174Y-81244285D01*
X126428103Y-81458571D02*
X126459651Y-81482380D01*
X126548341Y-81506190D01*
X126605484Y-81506190D01*
X126688222Y-81482380D01*
X126739412Y-81434761D01*
X126762031Y-81387142D01*
X126778698Y-81291904D01*
X126769770Y-81220476D01*
X126729293Y-81125238D01*
X126694770Y-81077619D01*
X126631674Y-81030000D01*
X126542984Y-81006190D01*
X126485841Y-81006190D01*
X126403103Y-81030000D01*
X126377508Y-81053809D01*
X126176912Y-81506190D02*
X126114412Y-81006190D01*
X125834055Y-81506190D02*
X126055484Y-81220476D01*
X125771555Y-81006190D02*
X126150127Y-81291904D01*
X125576912Y-81506190D02*
X125514412Y-81006190D01*
X125285841Y-81006190D01*
X125231674Y-81030000D01*
X125206079Y-81053809D01*
X125183460Y-81101428D01*
X125192389Y-81172857D01*
X125226912Y-81220476D01*
X125258460Y-81244285D01*
X125318579Y-81268095D01*
X125547151Y-81268095D01*
X126431674Y-83570000D02*
X126485840Y-83546190D01*
X126571555Y-83546190D01*
X126660245Y-83570000D01*
X126723340Y-83617619D01*
X126757864Y-83665238D01*
X126798340Y-83760476D01*
X126807269Y-83831904D01*
X126790602Y-83927142D01*
X126767983Y-83974761D01*
X126716793Y-84022380D01*
X126634055Y-84046190D01*
X126576912Y-84046190D01*
X126488221Y-84022380D01*
X126456674Y-83998571D01*
X126435840Y-83831904D01*
X126550126Y-83831904D01*
X126205483Y-84046190D02*
X126142983Y-83546190D01*
X125862626Y-84046190D01*
X125800126Y-83546190D01*
X125576912Y-84046190D02*
X125514412Y-83546190D01*
X125371555Y-83546190D01*
X125288816Y-83570000D01*
X125237626Y-83617619D01*
X125215007Y-83665238D01*
X125198340Y-83760476D01*
X125207269Y-83831904D01*
X125247745Y-83927142D01*
X125282269Y-83974761D01*
X125345364Y-84022380D01*
X125434055Y-84046190D01*
X125576912Y-84046190D01*
X127234055Y-86586190D02*
X127171555Y-86086190D01*
X126942983Y-86086190D01*
X126888817Y-86110000D01*
X126863222Y-86133809D01*
X126840602Y-86181428D01*
X126849531Y-86252857D01*
X126884055Y-86300476D01*
X126915602Y-86324285D01*
X126975722Y-86348095D01*
X127204293Y-86348095D01*
X126644769Y-86443333D02*
X126359055Y-86443333D01*
X126719769Y-86586190D02*
X126457269Y-86086190D01*
X126319769Y-86586190D01*
X125805483Y-86586190D02*
X126148341Y-86586190D01*
X125976912Y-86586190D02*
X125914412Y-86086190D01*
X125980483Y-86157619D01*
X126043579Y-86205238D01*
X126103698Y-86229047D01*
X125519769Y-86586190D02*
X125405483Y-86586190D01*
X125345364Y-86562380D01*
X125313817Y-86538571D01*
X125247745Y-86467142D01*
X125207269Y-86371904D01*
X125183460Y-86181428D01*
X125206079Y-86133809D01*
X125231674Y-86110000D01*
X125285841Y-86086190D01*
X125400126Y-86086190D01*
X125460245Y-86110000D01*
X125491793Y-86133809D01*
X125526317Y-86181428D01*
X125541198Y-86300476D01*
X125518579Y-86348095D01*
X125492983Y-86371904D01*
X125438817Y-86395714D01*
X125324531Y-86395714D01*
X125264412Y-86371904D01*
X125232864Y-86348095D01*
X125198341Y-86300476D01*
X127234055Y-89126190D02*
X127171555Y-88626190D01*
X126942983Y-88626190D01*
X126888817Y-88650000D01*
X126863222Y-88673809D01*
X126840602Y-88721428D01*
X126849531Y-88792857D01*
X126884055Y-88840476D01*
X126915602Y-88864285D01*
X126975722Y-88888095D01*
X127204293Y-88888095D01*
X126644769Y-88983333D02*
X126359055Y-88983333D01*
X126719769Y-89126190D02*
X126457269Y-88626190D01*
X126319769Y-89126190D01*
X126091793Y-88673809D02*
X126060245Y-88650000D01*
X126000126Y-88626190D01*
X125857269Y-88626190D01*
X125803102Y-88650000D01*
X125777507Y-88673809D01*
X125754888Y-88721428D01*
X125760841Y-88769047D01*
X125798341Y-88840476D01*
X126176912Y-89126190D01*
X125805483Y-89126190D01*
X125520364Y-88673809D02*
X125488817Y-88650000D01*
X125428698Y-88626190D01*
X125285841Y-88626190D01*
X125231674Y-88650000D01*
X125206079Y-88673809D01*
X125183460Y-88721428D01*
X125189412Y-88769047D01*
X125226912Y-88840476D01*
X125605483Y-89126190D01*
X125234055Y-89126190D01*
X127945364Y-91642380D02*
X127862626Y-91666190D01*
X127719769Y-91666190D01*
X127659650Y-91642380D01*
X127628102Y-91618571D01*
X127593579Y-91570952D01*
X127587626Y-91523333D01*
X127610245Y-91475714D01*
X127635840Y-91451904D01*
X127690007Y-91428095D01*
X127801317Y-91404285D01*
X127855483Y-91380476D01*
X127881079Y-91356666D01*
X127903698Y-91309047D01*
X127897745Y-91261428D01*
X127863221Y-91213809D01*
X127831674Y-91190000D01*
X127771555Y-91166190D01*
X127628698Y-91166190D01*
X127545959Y-91190000D01*
X127342983Y-91166190D02*
X127262626Y-91666190D01*
X127103698Y-91309047D01*
X127034055Y-91666190D01*
X126828698Y-91166190D01*
X126313817Y-91618571D02*
X126345364Y-91642380D01*
X126434055Y-91666190D01*
X126491198Y-91666190D01*
X126573936Y-91642380D01*
X126625126Y-91594761D01*
X126647745Y-91547142D01*
X126664412Y-91451904D01*
X126655483Y-91380476D01*
X126615007Y-91285238D01*
X126580483Y-91237619D01*
X126517388Y-91190000D01*
X126428698Y-91166190D01*
X126371555Y-91166190D01*
X126288817Y-91190000D01*
X126263221Y-91213809D01*
X125776912Y-91666190D02*
X126062626Y-91666190D01*
X126000126Y-91166190D01*
X125576912Y-91666190D02*
X125514412Y-91166190D01*
X125234055Y-91666190D02*
X125455483Y-91380476D01*
X125171555Y-91166190D02*
X125550126Y-91451904D01*
X127773936Y-94182380D02*
X127691198Y-94206190D01*
X127548341Y-94206190D01*
X127488222Y-94182380D01*
X127456674Y-94158571D01*
X127422150Y-94110952D01*
X127416198Y-94063333D01*
X127438817Y-94015714D01*
X127464412Y-93991904D01*
X127518579Y-93968095D01*
X127629888Y-93944285D01*
X127684055Y-93920476D01*
X127709650Y-93896666D01*
X127732269Y-93849047D01*
X127726317Y-93801428D01*
X127691793Y-93753809D01*
X127660245Y-93730000D01*
X127600126Y-93706190D01*
X127457269Y-93706190D01*
X127374531Y-93730000D01*
X127171555Y-93706190D02*
X127091198Y-94206190D01*
X126932269Y-93849047D01*
X126862626Y-94206190D01*
X126657269Y-93706190D01*
X126491198Y-94206190D02*
X126428698Y-93706190D01*
X126285841Y-93706190D01*
X126203103Y-93730000D01*
X126151912Y-93777619D01*
X126129293Y-93825238D01*
X126112626Y-93920476D01*
X126121555Y-93991904D01*
X126162031Y-94087142D01*
X126196555Y-94134761D01*
X126259650Y-94182380D01*
X126348341Y-94206190D01*
X126491198Y-94206190D01*
X125891198Y-94206190D02*
X125828698Y-93706190D01*
X125428698Y-93706190D02*
X125314412Y-93706190D01*
X125260245Y-93730000D01*
X125209055Y-93777619D01*
X125192388Y-93872857D01*
X125213222Y-94039523D01*
X125253698Y-94134761D01*
X125316793Y-94182380D01*
X125376912Y-94206190D01*
X125491198Y-94206190D01*
X125545365Y-94182380D01*
X125596555Y-94134761D01*
X125613222Y-94039523D01*
X125592388Y-93872857D01*
X125551912Y-93777619D01*
X125488817Y-93730000D01*
X125428698Y-93706190D01*
X127234055Y-96746190D02*
X127171555Y-96246190D01*
X126942983Y-96246190D01*
X126888817Y-96270000D01*
X126863222Y-96293809D01*
X126840602Y-96341428D01*
X126849531Y-96412857D01*
X126884055Y-96460476D01*
X126915602Y-96484285D01*
X126975722Y-96508095D01*
X127204293Y-96508095D01*
X126644769Y-96603333D02*
X126359055Y-96603333D01*
X126719769Y-96746190D02*
X126457269Y-96246190D01*
X126319769Y-96746190D01*
X126091793Y-96293809D02*
X126060245Y-96270000D01*
X126000126Y-96246190D01*
X125857269Y-96246190D01*
X125803102Y-96270000D01*
X125777507Y-96293809D01*
X125754888Y-96341428D01*
X125760841Y-96389047D01*
X125798341Y-96460476D01*
X126176912Y-96746190D01*
X125805483Y-96746190D01*
X125426912Y-96460476D02*
X125481079Y-96436666D01*
X125506674Y-96412857D01*
X125529293Y-96365238D01*
X125526317Y-96341428D01*
X125491793Y-96293809D01*
X125460245Y-96270000D01*
X125400126Y-96246190D01*
X125285841Y-96246190D01*
X125231674Y-96270000D01*
X125206079Y-96293809D01*
X125183460Y-96341428D01*
X125186436Y-96365238D01*
X125220960Y-96412857D01*
X125252507Y-96436666D01*
X125312626Y-96460476D01*
X125426912Y-96460476D01*
X125487031Y-96484285D01*
X125518579Y-96508095D01*
X125553102Y-96555714D01*
X125565007Y-96650952D01*
X125542388Y-96698571D01*
X125516793Y-96722380D01*
X125462626Y-96746190D01*
X125348341Y-96746190D01*
X125288222Y-96722380D01*
X125256674Y-96698571D01*
X125222150Y-96650952D01*
X125210245Y-96555714D01*
X125232864Y-96508095D01*
X125258460Y-96484285D01*
X125312626Y-96460476D01*
X126145364Y-99282377D02*
X126062626Y-99306187D01*
X125919769Y-99306187D01*
X125859650Y-99282377D01*
X125828102Y-99258568D01*
X125793579Y-99210949D01*
X125787626Y-99163330D01*
X125810245Y-99115711D01*
X125835840Y-99091901D01*
X125890007Y-99068092D01*
X126001317Y-99044282D01*
X126055483Y-99020473D01*
X126081079Y-98996663D01*
X126103698Y-98949044D01*
X126097745Y-98901425D01*
X126063221Y-98853806D01*
X126031674Y-98829997D01*
X125971555Y-98806187D01*
X125828698Y-98806187D01*
X125745959Y-98829997D01*
X125573936Y-99282377D02*
X125491198Y-99306187D01*
X125348340Y-99306187D01*
X125288221Y-99282377D01*
X125256674Y-99258568D01*
X125222150Y-99210949D01*
X125216198Y-99163330D01*
X125238817Y-99115711D01*
X125264412Y-99091901D01*
X125318579Y-99068092D01*
X125429888Y-99044282D01*
X125484055Y-99020473D01*
X125509650Y-98996663D01*
X125532269Y-98949044D01*
X125526317Y-98901425D01*
X125491793Y-98853806D01*
X125460245Y-98829997D01*
X125400126Y-98806187D01*
X125257269Y-98806187D01*
X125174531Y-98829997D01*
X126773936Y-101845710D02*
X126691198Y-101869520D01*
X126548341Y-101869520D01*
X126488222Y-101845710D01*
X126456674Y-101821901D01*
X126422150Y-101774282D01*
X126416198Y-101726663D01*
X126438817Y-101679044D01*
X126464412Y-101655234D01*
X126518579Y-101631425D01*
X126629888Y-101607615D01*
X126684055Y-101583806D01*
X126709650Y-101559996D01*
X126732269Y-101512377D01*
X126726317Y-101464758D01*
X126691793Y-101417139D01*
X126660245Y-101393330D01*
X126600126Y-101369520D01*
X126457269Y-101369520D01*
X126374531Y-101393330D01*
X125828103Y-101821901D02*
X125859650Y-101845710D01*
X125948341Y-101869520D01*
X126005484Y-101869520D01*
X126088222Y-101845710D01*
X126139412Y-101798091D01*
X126162031Y-101750472D01*
X126178698Y-101655234D01*
X126169769Y-101583806D01*
X126129293Y-101488568D01*
X126094769Y-101440949D01*
X126031674Y-101393330D01*
X125942984Y-101369520D01*
X125885841Y-101369520D01*
X125803103Y-101393330D01*
X125777507Y-101417139D01*
X125576912Y-101869520D02*
X125514412Y-101369520D01*
X125234055Y-101869520D02*
X125455484Y-101583806D01*
X125171555Y-101369520D02*
X125550126Y-101655234D01*
X127148341Y-104366190D02*
X127085841Y-103866190D01*
X126930484Y-104223333D01*
X126685841Y-103866190D01*
X126748341Y-104366190D01*
X126285841Y-103866190D02*
X126171555Y-103866190D01*
X126117388Y-103890000D01*
X126066198Y-103937619D01*
X126049531Y-104032857D01*
X126070365Y-104199523D01*
X126110841Y-104294761D01*
X126173936Y-104342380D01*
X126234055Y-104366190D01*
X126348341Y-104366190D01*
X126402507Y-104342380D01*
X126453698Y-104294761D01*
X126470365Y-104199523D01*
X126449531Y-104032857D01*
X126409055Y-103937619D01*
X126345960Y-103890000D01*
X126285841Y-103866190D01*
X125859650Y-104342380D02*
X125776912Y-104366190D01*
X125634055Y-104366190D01*
X125573936Y-104342380D01*
X125542388Y-104318571D01*
X125507865Y-104270952D01*
X125501912Y-104223333D01*
X125524531Y-104175714D01*
X125550126Y-104151904D01*
X125604293Y-104128095D01*
X125715603Y-104104285D01*
X125769769Y-104080476D01*
X125795365Y-104056666D01*
X125817984Y-104009047D01*
X125812031Y-103961428D01*
X125777507Y-103913809D01*
X125745960Y-103890000D01*
X125685841Y-103866190D01*
X125542984Y-103866190D01*
X125460245Y-103890000D01*
X125262626Y-104366190D02*
X125200126Y-103866190D01*
X127148341Y-106906190D02*
X127085841Y-106406190D01*
X126930484Y-106763333D01*
X126685841Y-106406190D01*
X126748341Y-106906190D01*
X126462626Y-106906190D02*
X126400126Y-106406190D01*
X126202507Y-106882380D02*
X126119769Y-106906190D01*
X125976912Y-106906190D01*
X125916793Y-106882380D01*
X125885245Y-106858571D01*
X125850722Y-106810952D01*
X125844769Y-106763333D01*
X125867388Y-106715714D01*
X125892984Y-106691904D01*
X125947150Y-106668095D01*
X126058460Y-106644285D01*
X126112626Y-106620476D01*
X126138222Y-106596666D01*
X126160841Y-106549047D01*
X126154888Y-106501428D01*
X126120365Y-106453809D01*
X126088817Y-106430000D01*
X126028698Y-106406190D01*
X125885841Y-106406190D01*
X125803103Y-106430000D01*
X125428698Y-106406190D02*
X125314412Y-106406190D01*
X125260245Y-106430000D01*
X125209055Y-106477619D01*
X125192388Y-106572857D01*
X125213222Y-106739523D01*
X125253698Y-106834761D01*
X125316793Y-106882380D01*
X125376912Y-106906190D01*
X125491198Y-106906190D01*
X125545365Y-106882380D01*
X125596555Y-106834761D01*
X125613222Y-106739523D01*
X125592388Y-106572857D01*
X125551912Y-106477619D01*
X125488817Y-106430000D01*
X125428698Y-106406190D01*
X125805484Y-109446190D02*
X125975722Y-109208095D01*
X126148341Y-109446190D02*
X126085841Y-108946190D01*
X125857269Y-108946190D01*
X125803103Y-108970000D01*
X125777507Y-108993809D01*
X125754888Y-109041428D01*
X125763817Y-109112857D01*
X125798341Y-109160476D01*
X125829888Y-109184285D01*
X125890007Y-109208095D01*
X126118579Y-109208095D01*
X125542984Y-108946190D02*
X125205484Y-109446190D01*
X125142984Y-108946190D02*
X125605484Y-109446190D01*
X126028697Y-111486190D02*
X125685840Y-111486190D01*
X125919769Y-111986190D02*
X125857269Y-111486190D01*
X125542983Y-111486190D02*
X125205483Y-111986190D01*
X125142983Y-111486190D02*
X125605483Y-111986190D01*
X126431674Y-114050000D02*
X126485840Y-114026190D01*
X126571555Y-114026190D01*
X126660245Y-114050000D01*
X126723340Y-114097619D01*
X126757864Y-114145238D01*
X126798340Y-114240476D01*
X126807269Y-114311904D01*
X126790602Y-114407142D01*
X126767983Y-114454761D01*
X126716793Y-114502380D01*
X126634055Y-114526190D01*
X126576912Y-114526190D01*
X126488221Y-114502380D01*
X126456674Y-114478571D01*
X126435840Y-114311904D01*
X126550126Y-114311904D01*
X126205483Y-114526190D02*
X126142983Y-114026190D01*
X125862626Y-114526190D01*
X125800126Y-114026190D01*
X125576912Y-114526190D02*
X125514412Y-114026190D01*
X125371555Y-114026190D01*
X125288816Y-114050000D01*
X125237626Y-114097619D01*
X125215007Y-114145238D01*
X125198340Y-114240476D01*
X125207269Y-114311904D01*
X125247745Y-114407142D01*
X125282269Y-114454761D01*
X125345364Y-114502380D01*
X125434055Y-114526190D01*
X125576912Y-114526190D01*
D11*
X146874196Y-86361428D02*
X146805148Y-86380476D01*
X146783720Y-86399523D01*
X146764672Y-86437619D01*
X146771815Y-86494761D01*
X146800386Y-86532857D01*
X146826577Y-86551904D01*
X146876577Y-86570952D01*
X147067053Y-86570952D01*
X147017053Y-86170952D01*
X146850386Y-86170952D01*
X146805148Y-86190000D01*
X146783720Y-86209047D01*
X146764672Y-86247142D01*
X146769434Y-86285238D01*
X146798005Y-86323333D01*
X146824196Y-86342380D01*
X146874196Y-86361428D01*
X147040863Y-86361428D01*
X146576577Y-86456666D02*
X146338482Y-86456666D01*
X146638482Y-86570952D02*
X146421815Y-86170952D01*
X146305148Y-86570952D01*
X146159910Y-86170952D02*
X145874196Y-86170952D01*
X146067053Y-86570952D02*
X146017053Y-86170952D01*
X145778958Y-86170952D02*
X145493244Y-86170952D01*
X145686101Y-86570952D02*
X145636101Y-86170952D01*
X146766309Y-89146190D02*
X147052023Y-89146190D01*
X146989523Y-88646190D01*
X146566309Y-89146190D02*
X146503809Y-88646190D01*
X146360952Y-88646190D01*
X146278214Y-88670000D01*
X146227023Y-88717619D01*
X146204404Y-88765238D01*
X146187738Y-88860476D01*
X146196666Y-88931904D01*
X146237142Y-89027142D01*
X146271666Y-89074761D01*
X146334761Y-89122380D01*
X146423452Y-89146190D01*
X146566309Y-89146190D01*
X145789523Y-88646190D02*
X145675238Y-88646190D01*
X145621071Y-88670000D01*
X145569880Y-88717619D01*
X145553214Y-88812857D01*
X145574047Y-88979523D01*
X145614523Y-89074761D01*
X145677619Y-89122380D01*
X145737738Y-89146190D01*
X145852023Y-89146190D01*
X145906190Y-89122380D01*
X145957380Y-89074761D01*
X145974047Y-88979523D01*
X145953214Y-88812857D01*
X145912738Y-88717619D01*
X145849642Y-88670000D01*
X145789523Y-88646190D01*
X145305000Y-88884285D02*
X145105000Y-88884285D01*
X145052023Y-89146190D02*
X145337738Y-89146190D01*
X145275238Y-88646190D01*
X144989523Y-88646190D01*
X144794880Y-89146190D02*
X144732380Y-88646190D01*
X144452023Y-89146190D01*
X144389523Y-88646190D01*
X147075237Y-91206190D02*
X146937737Y-91706190D01*
X146675237Y-91206190D01*
X146304999Y-91444285D02*
X146222261Y-91468095D01*
X146196666Y-91491904D01*
X146174047Y-91539523D01*
X146182975Y-91610952D01*
X146217499Y-91658571D01*
X146249047Y-91682380D01*
X146309166Y-91706190D01*
X146537737Y-91706190D01*
X146475237Y-91206190D01*
X146275237Y-91206190D01*
X146221071Y-91230000D01*
X146195475Y-91253809D01*
X146172856Y-91301428D01*
X146178809Y-91349047D01*
X146213333Y-91396666D01*
X146244880Y-91420476D01*
X146304999Y-91444285D01*
X146504999Y-91444285D01*
X145875237Y-91206190D02*
X145925833Y-91610952D01*
X145903214Y-91658571D01*
X145877618Y-91682380D01*
X145823452Y-91706190D01*
X145709166Y-91706190D01*
X145649047Y-91682380D01*
X145617499Y-91658571D01*
X145582975Y-91610952D01*
X145532380Y-91206190D01*
X145334761Y-91682380D02*
X145252023Y-91706190D01*
X145109166Y-91706190D01*
X145049047Y-91682380D01*
X145017499Y-91658571D01*
X144982975Y-91610952D01*
X144977023Y-91563333D01*
X144999642Y-91515714D01*
X145025237Y-91491904D01*
X145079404Y-91468095D01*
X145190714Y-91444285D01*
X145244880Y-91420476D01*
X145270475Y-91396666D01*
X145293094Y-91349047D01*
X145287142Y-91301428D01*
X145252618Y-91253809D01*
X145221071Y-91230000D01*
X145160952Y-91206190D01*
X145018094Y-91206190D01*
X144935356Y-91230000D01*
X147052023Y-94196190D02*
X146989523Y-93696190D01*
X146760951Y-93696190D01*
X146706785Y-93720000D01*
X146681189Y-93743809D01*
X146658570Y-93791428D01*
X146667499Y-93862857D01*
X146702023Y-93910476D01*
X146733570Y-93934285D01*
X146793689Y-93958095D01*
X147022261Y-93958095D01*
X146462737Y-94053333D02*
X146177023Y-94053333D01*
X146537737Y-94196190D02*
X146275237Y-93696190D01*
X146137737Y-94196190D01*
X145623451Y-94196190D02*
X145966308Y-94196190D01*
X145794880Y-94196190D02*
X145732380Y-93696190D01*
X145798451Y-93767619D01*
X145861546Y-93815238D01*
X145921665Y-93839047D01*
X145067499Y-93862857D02*
X145109165Y-94196190D01*
X145186546Y-93672380D02*
X145374046Y-94029523D01*
X145002618Y-94029523D01*
X147052023Y-96766190D02*
X146989523Y-96266190D01*
X146760951Y-96266190D01*
X146706785Y-96290000D01*
X146681189Y-96313809D01*
X146658570Y-96361428D01*
X146667499Y-96432857D01*
X146702023Y-96480476D01*
X146733570Y-96504285D01*
X146793689Y-96528095D01*
X147022261Y-96528095D01*
X146462737Y-96623333D02*
X146177023Y-96623333D01*
X146537737Y-96766190D02*
X146275237Y-96266190D01*
X146137737Y-96766190D01*
X145623451Y-96766190D02*
X145966308Y-96766190D01*
X145794880Y-96766190D02*
X145732380Y-96266190D01*
X145798451Y-96337619D01*
X145861546Y-96385238D01*
X145921665Y-96409047D01*
X145018094Y-96266190D02*
X145303808Y-96266190D01*
X145362142Y-96504285D01*
X145330594Y-96480476D01*
X145270475Y-96456666D01*
X145127618Y-96456666D01*
X145073451Y-96480476D01*
X145047856Y-96504285D01*
X145025237Y-96551904D01*
X145040118Y-96670952D01*
X145074642Y-96718571D01*
X145106189Y-96742380D01*
X145166308Y-96766190D01*
X145309165Y-96766190D01*
X145363332Y-96742380D01*
X145388927Y-96718571D01*
X147052023Y-99286190D02*
X146989523Y-98786190D01*
X146760951Y-98786190D01*
X146706785Y-98810000D01*
X146681189Y-98833809D01*
X146658570Y-98881428D01*
X146667499Y-98952857D01*
X146702023Y-99000476D01*
X146733570Y-99024285D01*
X146793689Y-99048095D01*
X147022261Y-99048095D01*
X146462737Y-99143333D02*
X146177023Y-99143333D01*
X146537737Y-99286190D02*
X146275237Y-98786190D01*
X146137737Y-99286190D01*
X145623451Y-99286190D02*
X145966308Y-99286190D01*
X145794880Y-99286190D02*
X145732380Y-98786190D01*
X145798451Y-98857619D01*
X145861546Y-98905238D01*
X145921665Y-98929047D01*
X145244880Y-99000476D02*
X145299046Y-98976666D01*
X145324642Y-98952857D01*
X145347261Y-98905238D01*
X145344285Y-98881428D01*
X145309761Y-98833809D01*
X145278213Y-98810000D01*
X145218094Y-98786190D01*
X145103808Y-98786190D01*
X145049642Y-98810000D01*
X145024046Y-98833809D01*
X145001427Y-98881428D01*
X145004404Y-98905238D01*
X145038927Y-98952857D01*
X145070475Y-98976666D01*
X145130594Y-99000476D01*
X145244880Y-99000476D01*
X145304999Y-99024285D01*
X145336546Y-99048095D01*
X145371070Y-99095714D01*
X145382975Y-99190952D01*
X145360356Y-99238571D01*
X145334761Y-99262380D01*
X145280594Y-99286190D01*
X145166308Y-99286190D01*
X145106189Y-99262380D01*
X145074642Y-99238571D01*
X145040118Y-99190952D01*
X145028213Y-99095714D01*
X145050832Y-99048095D01*
X145076427Y-99024285D01*
X145130594Y-99000476D01*
X147052023Y-101876190D02*
X146989523Y-101376190D01*
X146760951Y-101376190D01*
X146706785Y-101400000D01*
X146681189Y-101423809D01*
X146658570Y-101471428D01*
X146667499Y-101542857D01*
X146702023Y-101590476D01*
X146733570Y-101614285D01*
X146793689Y-101638095D01*
X147022261Y-101638095D01*
X146462737Y-101733333D02*
X146177023Y-101733333D01*
X146537737Y-101876190D02*
X146275237Y-101376190D01*
X146137737Y-101876190D01*
X145760951Y-101376190D02*
X145703808Y-101376190D01*
X145649642Y-101400000D01*
X145624046Y-101423809D01*
X145601427Y-101471428D01*
X145584761Y-101566666D01*
X145599642Y-101685714D01*
X145640118Y-101780952D01*
X145674642Y-101828571D01*
X145706189Y-101852380D01*
X145766308Y-101876190D01*
X145823451Y-101876190D01*
X145877618Y-101852380D01*
X145903213Y-101828571D01*
X145925832Y-101780952D01*
X145942499Y-101685714D01*
X145927618Y-101566666D01*
X145887142Y-101471428D01*
X145852618Y-101423809D01*
X145821070Y-101400000D01*
X145760951Y-101376190D01*
X145244880Y-101590476D02*
X145299046Y-101566666D01*
X145324642Y-101542857D01*
X145347261Y-101495238D01*
X145344285Y-101471428D01*
X145309761Y-101423809D01*
X145278213Y-101400000D01*
X145218094Y-101376190D01*
X145103808Y-101376190D01*
X145049642Y-101400000D01*
X145024046Y-101423809D01*
X145001427Y-101471428D01*
X145004404Y-101495238D01*
X145038927Y-101542857D01*
X145070475Y-101566666D01*
X145130594Y-101590476D01*
X145244880Y-101590476D01*
X145304999Y-101614285D01*
X145336546Y-101638095D01*
X145371070Y-101685714D01*
X145382975Y-101780952D01*
X145360356Y-101828571D01*
X145334761Y-101852380D01*
X145280594Y-101876190D01*
X145166308Y-101876190D01*
X145106189Y-101852380D01*
X145074642Y-101828571D01*
X145040118Y-101780952D01*
X145028213Y-101685714D01*
X145050832Y-101638095D01*
X145076427Y-101614285D01*
X145130594Y-101590476D01*
X147052023Y-104366190D02*
X146989523Y-103866190D01*
X146760951Y-103866190D01*
X146706785Y-103890000D01*
X146681189Y-103913809D01*
X146658570Y-103961428D01*
X146667499Y-104032857D01*
X146702023Y-104080476D01*
X146733570Y-104104285D01*
X146793689Y-104128095D01*
X147022261Y-104128095D01*
X146462737Y-104223333D02*
X146177023Y-104223333D01*
X146537737Y-104366190D02*
X146275237Y-103866190D01*
X146137737Y-104366190D01*
X145760951Y-103866190D02*
X145703808Y-103866190D01*
X145649642Y-103890000D01*
X145624046Y-103913809D01*
X145601427Y-103961428D01*
X145584761Y-104056666D01*
X145599642Y-104175714D01*
X145640118Y-104270952D01*
X145674642Y-104318571D01*
X145706189Y-104342380D01*
X145766308Y-104366190D01*
X145823451Y-104366190D01*
X145877618Y-104342380D01*
X145903213Y-104318571D01*
X145925832Y-104270952D01*
X145942499Y-104175714D01*
X145927618Y-104056666D01*
X145887142Y-103961428D01*
X145852618Y-103913809D01*
X145821070Y-103890000D01*
X145760951Y-103866190D01*
X145360951Y-103866190D02*
X144960951Y-103866190D01*
X145280594Y-104366190D01*
X147052023Y-106906190D02*
X146989523Y-106406190D01*
X146760951Y-106406190D01*
X146706785Y-106430000D01*
X146681189Y-106453809D01*
X146658570Y-106501428D01*
X146667499Y-106572857D01*
X146702023Y-106620476D01*
X146733570Y-106644285D01*
X146793689Y-106668095D01*
X147022261Y-106668095D01*
X146462737Y-106763333D02*
X146177023Y-106763333D01*
X146537737Y-106906190D02*
X146275237Y-106406190D01*
X146137737Y-106906190D01*
X145909761Y-106453809D02*
X145878213Y-106430000D01*
X145818094Y-106406190D01*
X145675237Y-106406190D01*
X145621070Y-106430000D01*
X145595475Y-106453809D01*
X145572856Y-106501428D01*
X145578808Y-106549047D01*
X145616308Y-106620476D01*
X145994880Y-106906190D01*
X145623451Y-106906190D01*
X145360951Y-106406190D02*
X144960951Y-106406190D01*
X145280594Y-106906190D01*
X147052023Y-109456190D02*
X146989523Y-108956190D01*
X146760951Y-108956190D01*
X146706785Y-108980000D01*
X146681189Y-109003809D01*
X146658570Y-109051428D01*
X146667499Y-109122857D01*
X146702023Y-109170476D01*
X146733570Y-109194285D01*
X146793689Y-109218095D01*
X147022261Y-109218095D01*
X146462737Y-109313333D02*
X146177023Y-109313333D01*
X146537737Y-109456190D02*
X146275237Y-108956190D01*
X146137737Y-109456190D01*
X145760951Y-108956190D02*
X145703808Y-108956190D01*
X145649642Y-108980000D01*
X145624046Y-109003809D01*
X145601427Y-109051428D01*
X145584761Y-109146666D01*
X145599642Y-109265714D01*
X145640118Y-109360952D01*
X145674642Y-109408571D01*
X145706189Y-109432380D01*
X145766308Y-109456190D01*
X145823451Y-109456190D01*
X145877618Y-109432380D01*
X145903213Y-109408571D01*
X145925832Y-109360952D01*
X145942499Y-109265714D01*
X145927618Y-109146666D01*
X145887142Y-109051428D01*
X145852618Y-109003809D01*
X145821070Y-108980000D01*
X145760951Y-108956190D01*
X145046665Y-108956190D02*
X145160951Y-108956190D01*
X145221070Y-108980000D01*
X145252618Y-109003809D01*
X145318689Y-109075238D01*
X145359165Y-109170476D01*
X145382975Y-109360952D01*
X145360356Y-109408571D01*
X145334761Y-109432380D01*
X145280594Y-109456190D01*
X145166308Y-109456190D01*
X145106189Y-109432380D01*
X145074642Y-109408571D01*
X145040118Y-109360952D01*
X145025237Y-109241904D01*
X145047856Y-109194285D01*
X145073451Y-109170476D01*
X145127618Y-109146666D01*
X145241904Y-109146666D01*
X145302023Y-109170476D01*
X145333570Y-109194285D01*
X145368094Y-109241904D01*
X147077618Y-111982380D02*
X146994880Y-112006190D01*
X146852023Y-112006190D01*
X146791904Y-111982380D01*
X146760356Y-111958571D01*
X146725832Y-111910952D01*
X146719880Y-111863333D01*
X146742499Y-111815714D01*
X146768094Y-111791904D01*
X146822261Y-111768095D01*
X146933570Y-111744285D01*
X146987737Y-111720476D01*
X147013332Y-111696666D01*
X147035951Y-111649047D01*
X147029999Y-111601428D01*
X146995475Y-111553809D01*
X146963927Y-111530000D01*
X146903808Y-111506190D01*
X146760951Y-111506190D01*
X146678213Y-111530000D01*
X146131785Y-111958571D02*
X146163332Y-111982380D01*
X146252023Y-112006190D01*
X146309165Y-112006190D01*
X146391904Y-111982380D01*
X146443094Y-111934761D01*
X146465713Y-111887142D01*
X146482380Y-111791904D01*
X146473451Y-111720476D01*
X146432975Y-111625238D01*
X146398451Y-111577619D01*
X146335356Y-111530000D01*
X146246665Y-111506190D01*
X146189523Y-111506190D01*
X146106785Y-111530000D01*
X146081189Y-111553809D01*
X145594880Y-112006190D02*
X145880594Y-112006190D01*
X145818094Y-111506190D01*
X147077619Y-114542380D02*
X146994880Y-114566190D01*
X146852023Y-114566190D01*
X146791904Y-114542380D01*
X146760357Y-114518571D01*
X146725833Y-114470952D01*
X146719880Y-114423333D01*
X146742500Y-114375714D01*
X146768095Y-114351904D01*
X146822261Y-114328095D01*
X146933571Y-114304285D01*
X146987738Y-114280476D01*
X147013333Y-114256666D01*
X147035952Y-114209047D01*
X147030000Y-114161428D01*
X146995476Y-114113809D01*
X146963928Y-114090000D01*
X146903809Y-114066190D01*
X146760952Y-114066190D01*
X146678214Y-114090000D01*
X146480595Y-114566190D02*
X146418095Y-114066190D01*
X146275238Y-114066190D01*
X146192500Y-114090000D01*
X146141309Y-114137619D01*
X146118690Y-114185238D01*
X146102023Y-114280476D01*
X146110952Y-114351904D01*
X146151428Y-114447142D01*
X146185952Y-114494761D01*
X146249047Y-114542380D01*
X146337738Y-114566190D01*
X146480595Y-114566190D01*
X145891309Y-114423333D02*
X145605595Y-114423333D01*
X145966309Y-114566190D02*
X145703809Y-114066190D01*
X145566309Y-114566190D01*
D12*
X144185111Y-98717619D02*
X144093444Y-97984285D01*
X144106540Y-98089047D02*
X144038087Y-98036666D01*
X143907730Y-97984285D01*
X143722016Y-97984285D01*
X143604754Y-98036666D01*
X143555944Y-98141428D01*
X143627968Y-98717619D01*
X143555944Y-98141428D02*
X143480944Y-98036666D01*
X143350587Y-97984285D01*
X143164873Y-97984285D01*
X143047611Y-98036666D01*
X142998802Y-98141428D01*
X143070825Y-98717619D01*
X141894635Y-98717619D02*
X141822611Y-98141428D01*
X141871421Y-98036666D01*
X141988683Y-97984285D01*
X142236302Y-97984285D01*
X142366659Y-98036666D01*
X141888087Y-98665238D02*
X142018444Y-98717619D01*
X142327968Y-98717619D01*
X142445230Y-98665238D01*
X142494040Y-98560476D01*
X142480944Y-98455714D01*
X142405944Y-98350952D01*
X142275587Y-98298571D01*
X141966063Y-98298571D01*
X141835706Y-98246190D01*
X141275587Y-98717619D02*
X141138087Y-97617619D01*
X141099397Y-98298571D02*
X140780349Y-98717619D01*
X140688683Y-97984285D02*
X141236302Y-98403333D01*
X139721421Y-98665238D02*
X139851778Y-98717619D01*
X140099397Y-98717619D01*
X140216659Y-98665238D01*
X140265468Y-98560476D01*
X140213087Y-98141428D01*
X140138087Y-98036666D01*
X140007730Y-97984285D01*
X139760111Y-97984285D01*
X139642849Y-98036666D01*
X139594040Y-98141428D01*
X139607135Y-98246190D01*
X140239278Y-98350952D01*
X139108921Y-98717619D02*
X139017254Y-97984285D01*
X139043444Y-98193809D02*
X138968444Y-98089047D01*
X138899992Y-98036666D01*
X138769635Y-97984285D01*
X138645825Y-97984285D01*
X138398206Y-97984285D02*
X137902968Y-97984285D01*
X138166659Y-97617619D02*
X138284516Y-98560476D01*
X138235706Y-98665238D01*
X138118444Y-98717619D01*
X137994635Y-98717619D01*
X137561302Y-98717619D02*
X137469635Y-97984285D01*
X137495825Y-98193809D02*
X137420825Y-98089047D01*
X137352373Y-98036666D01*
X137222016Y-97984285D01*
X137098206Y-97984285D01*
X136570825Y-98717619D02*
X136688087Y-98665238D01*
X136743444Y-98612857D01*
X136792254Y-98508095D01*
X136752968Y-98193809D01*
X136677968Y-98089047D01*
X136609516Y-98036666D01*
X136479159Y-97984285D01*
X136293444Y-97984285D01*
X136176183Y-98036666D01*
X136120825Y-98089047D01*
X136072016Y-98193809D01*
X136111302Y-98508095D01*
X136186302Y-98612857D01*
X136254754Y-98665238D01*
X136385111Y-98717619D01*
X136570825Y-98717619D01*
X135488683Y-97984285D02*
X135580349Y-98717619D01*
X135501778Y-98089047D02*
X135433325Y-98036666D01*
X135302968Y-97984285D01*
X135117254Y-97984285D01*
X134999992Y-98036666D01*
X134951183Y-98141428D01*
X135023206Y-98717619D01*
X134404159Y-98717619D02*
X134312492Y-97984285D01*
X134266659Y-97617619D02*
X134335111Y-97670000D01*
X134279754Y-97722380D01*
X134211302Y-97670000D01*
X134266659Y-97617619D01*
X134279754Y-97722380D01*
X133785111Y-98717619D02*
X133647611Y-97617619D01*
X133608921Y-98298571D02*
X133289873Y-98717619D01*
X133198206Y-97984285D02*
X133745825Y-98403333D01*
X132175587Y-98717619D02*
X132103563Y-98141428D01*
X132152373Y-98036666D01*
X132269635Y-97984285D01*
X132517254Y-97984285D01*
X132647611Y-98036666D01*
X132169040Y-98665238D02*
X132299397Y-98717619D01*
X132608921Y-98717619D01*
X132726183Y-98665238D01*
X132774992Y-98560476D01*
X132761897Y-98455714D01*
X132686897Y-98350952D01*
X132556540Y-98298571D01*
X132247016Y-98298571D01*
X132116659Y-98246190D01*
X131543444Y-98612857D02*
X131488087Y-98665238D01*
X131556540Y-98717619D01*
X131611897Y-98665238D01*
X131543444Y-98612857D01*
X131556540Y-98717619D01*
X130373802Y-98665238D02*
X130504159Y-98717619D01*
X130751778Y-98717619D01*
X130869040Y-98665238D01*
X130924397Y-98612857D01*
X130973206Y-98508095D01*
X130933921Y-98193809D01*
X130858921Y-98089047D01*
X130790468Y-98036666D01*
X130660111Y-97984285D01*
X130412492Y-97984285D01*
X130295230Y-98036666D01*
X129637492Y-98717619D02*
X129754754Y-98665238D01*
X129810111Y-98612857D01*
X129858921Y-98508095D01*
X129819635Y-98193809D01*
X129744635Y-98089047D01*
X129676183Y-98036666D01*
X129545825Y-97984285D01*
X129360111Y-97984285D01*
X129242849Y-98036666D01*
X129187492Y-98089047D01*
X129138683Y-98193809D01*
X129177968Y-98508095D01*
X129252968Y-98612857D01*
X129321421Y-98665238D01*
X129451778Y-98717619D01*
X129637492Y-98717619D01*
X128647016Y-98717619D02*
X128555349Y-97984285D01*
X128568444Y-98089047D02*
X128499992Y-98036666D01*
X128369635Y-97984285D01*
X128183921Y-97984285D01*
X128066659Y-98036666D01*
X128017849Y-98141428D01*
X128089873Y-98717619D01*
X128017849Y-98141428D02*
X127942849Y-98036666D01*
X127812492Y-97984285D01*
X127626778Y-97984285D01*
X127509516Y-98036666D01*
X127460706Y-98141428D01*
X127532730Y-98717619D01*
D13*
X132974571Y-80979971D02*
X132831714Y-81027590D01*
X132784095Y-81075209D01*
X132736476Y-81170447D01*
X132736476Y-81313304D01*
X132784095Y-81408542D01*
X132831714Y-81456161D01*
X132926952Y-81503780D01*
X133307904Y-81503780D01*
X133307904Y-80503780D01*
X132974571Y-80503780D01*
X132879333Y-80551400D01*
X132831714Y-80599019D01*
X132784095Y-80694257D01*
X132784095Y-80789495D01*
X132831714Y-80884733D01*
X132879333Y-80932352D01*
X132974571Y-80979971D01*
X133307904Y-80979971D01*
X133346004Y-78912980D02*
X133346004Y-77912980D01*
X133107909Y-77912980D01*
X132965052Y-77960600D01*
X132869814Y-78055838D01*
X132822195Y-78151076D01*
X132774576Y-78341552D01*
X132774576Y-78484409D01*
X132822195Y-78674885D01*
X132869814Y-78770123D01*
X132965052Y-78865361D01*
X133107909Y-78912980D01*
X133346004Y-78912980D01*
X135284333Y-77147680D02*
X135284333Y-76147680D01*
X134951000Y-76861966D01*
X134617666Y-76147680D01*
X134617666Y-77147680D01*
X137081442Y-76814371D02*
X137414776Y-76814371D01*
X137414776Y-77338180D02*
X137414776Y-76338180D01*
X136938585Y-76338180D01*
X139111804Y-79039980D02*
X139111804Y-78039980D01*
X138730852Y-78039980D01*
X138635614Y-78087600D01*
X138587995Y-78135219D01*
X138540376Y-78230457D01*
X138540376Y-78373314D01*
X138587995Y-78468552D01*
X138635614Y-78516171D01*
X138730852Y-78563790D01*
X139111804Y-78563790D01*
X139262614Y-81392661D02*
X139119757Y-81440280D01*
X138881661Y-81440280D01*
X138786423Y-81392661D01*
X138738804Y-81345042D01*
X138691185Y-81249804D01*
X138691185Y-81154566D01*
X138738804Y-81059328D01*
X138786423Y-81011709D01*
X138881661Y-80964090D01*
X139072138Y-80916471D01*
X139167376Y-80868852D01*
X139214995Y-80821233D01*
X139262614Y-80725995D01*
X139262614Y-80630757D01*
X139214995Y-80535519D01*
X139167376Y-80487900D01*
X139072138Y-80440280D01*
X138834042Y-80440280D01*
X138691185Y-80487900D01*
D14*
X144056830Y-95623333D02*
X143142544Y-95623333D01*
X143774687Y-97023333D02*
X143599687Y-95623333D01*
X142784211Y-97023333D02*
X142667544Y-96090000D01*
X142609211Y-95623333D02*
X142693735Y-95690000D01*
X142625877Y-95756666D01*
X142541354Y-95690000D01*
X142609211Y-95623333D01*
X142625877Y-95756666D01*
X141905639Y-96090000D02*
X142022306Y-97023333D01*
X141922306Y-96223333D02*
X141837782Y-96156666D01*
X141677068Y-96090000D01*
X141448497Y-96090000D01*
X141304449Y-96156666D01*
X141244925Y-96290000D01*
X141336592Y-97023333D01*
X140610401Y-96090000D02*
X140346116Y-97023333D01*
X139848497Y-96090000D02*
X140346116Y-97023333D01*
X140540163Y-97356666D01*
X140624687Y-97423333D01*
X140785401Y-97490000D01*
X138593735Y-97023333D02*
X139355639Y-97023333D01*
X139180639Y-95623333D01*
X137831830Y-97023333D02*
X137975877Y-96956666D01*
X138043735Y-96890000D01*
X138103258Y-96756666D01*
X138053258Y-96356666D01*
X137960401Y-96223333D01*
X137875877Y-96156666D01*
X137715163Y-96090000D01*
X137486592Y-96090000D01*
X137342544Y-96156666D01*
X137274687Y-96223333D01*
X137215163Y-96356666D01*
X137265163Y-96756666D01*
X137358020Y-96890000D01*
X137442544Y-96956666D01*
X137603258Y-97023333D01*
X137831830Y-97023333D01*
X135698497Y-97023333D02*
X136148497Y-96356666D01*
X136612782Y-97023333D02*
X136437782Y-95623333D01*
X135828258Y-95623333D01*
X135684211Y-95690000D01*
X135616354Y-95756666D01*
X135556830Y-95890000D01*
X135581830Y-96090000D01*
X135674687Y-96223333D01*
X135759211Y-96290000D01*
X135919925Y-96356666D01*
X136529449Y-96356666D01*
X134327068Y-97023333D02*
X134235401Y-96290000D01*
X134294925Y-96156666D01*
X134438973Y-96090000D01*
X134743735Y-96090000D01*
X134904449Y-96156666D01*
X134318735Y-96956666D02*
X134479449Y-97023333D01*
X134860401Y-97023333D01*
X135004449Y-96956666D01*
X135063973Y-96823333D01*
X135047306Y-96690000D01*
X134954449Y-96556666D01*
X134793735Y-96490000D01*
X134412782Y-96490000D01*
X134252068Y-96423333D01*
X132381830Y-96090000D02*
X132117544Y-97023333D01*
X131619925Y-96090000D01*
X130288973Y-97023333D02*
X131203258Y-97023333D01*
X130746116Y-97023333D02*
X130571116Y-95623333D01*
X130748497Y-95823333D01*
X130917544Y-95956666D01*
X131078258Y-96023333D01*
X129586592Y-96890000D02*
X129518735Y-96956666D01*
X129603258Y-97023333D01*
X129671116Y-96956666D01*
X129586592Y-96890000D01*
X129603258Y-97023333D01*
X128759211Y-95756666D02*
X128674687Y-95690000D01*
X128513973Y-95623333D01*
X128133020Y-95623333D01*
X127988973Y-95690000D01*
X127921116Y-95756666D01*
X127861592Y-95890000D01*
X127878258Y-96023333D01*
X127979449Y-96223333D01*
X128993735Y-97023333D01*
X128003258Y-97023333D01*
D15*
X127000000Y-119380000D02*
G75*
G02X124460000Y-116840000I0J2540000D01*
G01*
X147320000Y-116840000D02*
G75*
G02X144780000Y-119380000I-2540000J0D01*
G01*
X144780000Y-68580000D02*
G75*
G02X147320000Y-71120000I0J-2540000D01*
G01*
X124460000Y-71120000D02*
G75*
G02X127000000Y-68580000I2540000J0D01*
G01*
X124460000Y-116840000D02*
X124460000Y-71120000D01*
X144780000Y-119380000D02*
X127000000Y-119380000D01*
X147320000Y-71120000D02*
X147320000Y-116840000D01*
X127000000Y-68580000D02*
X144780000Y-68580000D01*
D16*
G36*
X135489169Y-103428185D02*
G01*
X135265514Y-103525509D01*
X135195312Y-103630275D01*
X135281833Y-103728814D01*
X135405687Y-103876281D01*
X135430000Y-103983749D01*
X135477182Y-104115615D01*
X135578166Y-104126549D01*
X135709825Y-104051761D01*
X135736916Y-103993341D01*
X135739549Y-103973334D01*
X135599333Y-103973334D01*
X135568355Y-104043024D01*
X135542889Y-104029778D01*
X135532756Y-103929298D01*
X135542889Y-103916889D01*
X135593223Y-103928511D01*
X135599333Y-103973334D01*
X135739549Y-103973334D01*
X135761843Y-103803934D01*
X135797410Y-103730407D01*
X135848261Y-103719334D01*
X135900270Y-103791832D01*
X135909958Y-103952167D01*
X135876274Y-104110616D01*
X135772779Y-104174541D01*
X135600031Y-104185000D01*
X135365624Y-104149715D01*
X135222079Y-104020198D01*
X135194764Y-103973334D01*
X135081527Y-103761667D01*
X135131885Y-104020418D01*
X135133255Y-104255847D01*
X135026226Y-104504415D01*
X134968421Y-104594255D01*
X134714371Y-104998033D01*
X134564050Y-105315907D01*
X134502239Y-105582489D01*
X134498666Y-105662462D01*
X134523976Y-105863568D01*
X134584301Y-105909741D01*
X134656235Y-105804986D01*
X134704190Y-105627304D01*
X134762381Y-105417002D01*
X134831988Y-105290261D01*
X134840357Y-105283798D01*
X134874066Y-105311339D01*
X134835178Y-105460612D01*
X134832583Y-105467495D01*
X134756901Y-105780357D01*
X134729958Y-106147989D01*
X134750566Y-106506535D01*
X134817538Y-106792143D01*
X134858728Y-106874260D01*
X134949335Y-107028707D01*
X134940994Y-107102912D01*
X134857690Y-107145051D01*
X134763034Y-107201586D01*
X134826352Y-107270025D01*
X134839706Y-107278592D01*
X134973408Y-107346293D01*
X135084514Y-107327074D01*
X135242425Y-107206440D01*
X135260666Y-107190667D01*
X135427975Y-107071617D01*
X135548788Y-107027284D01*
X135678191Y-107055716D01*
X135816882Y-107109622D01*
X135906150Y-107162137D01*
X135895666Y-107186012D01*
X135880644Y-107227032D01*
X135938000Y-107275334D01*
X136082490Y-107349228D01*
X136202532Y-107321570D01*
X136274294Y-107278592D01*
X136351650Y-107206548D01*
X136271634Y-107151037D01*
X136256370Y-107145074D01*
X136171673Y-107094465D01*
X136183075Y-107010242D01*
X136292123Y-106849202D01*
X136395347Y-106676481D01*
X136438138Y-106486308D01*
X136436196Y-106396593D01*
X136271009Y-106396593D01*
X136215319Y-106654832D01*
X136070531Y-106812273D01*
X135829046Y-106887254D01*
X135567060Y-106900273D01*
X135289886Y-106880524D01*
X135078034Y-106836141D01*
X135003807Y-106798378D01*
X134927278Y-106621531D01*
X134903103Y-106330899D01*
X134924566Y-105971394D01*
X134984954Y-105587929D01*
X135077553Y-105225416D01*
X135195650Y-104928768D01*
X135307735Y-104765235D01*
X135468228Y-104628230D01*
X135587165Y-104566304D01*
X135592186Y-104566000D01*
X135753479Y-104645454D01*
X135914388Y-104864595D01*
X136057913Y-105194595D01*
X136145492Y-105504365D01*
X136245200Y-106019216D01*
X136271009Y-106396593D01*
X136436196Y-106396593D01*
X136432228Y-106213334D01*
X136423732Y-106116182D01*
X136389151Y-105815735D01*
X136349650Y-105563894D01*
X136324902Y-105455000D01*
X136325143Y-105419646D01*
X136383429Y-105516744D01*
X136437772Y-105624334D01*
X136602775Y-105963000D01*
X136609054Y-105620410D01*
X136575901Y-105339335D01*
X136451912Y-105037634D01*
X136321167Y-104816077D01*
X136102955Y-104400295D01*
X136025157Y-104054224D01*
X136024834Y-104036834D01*
X135970036Y-103739617D01*
X135829822Y-103522288D01*
X135633790Y-103418475D01*
X135489169Y-103428185D01*
X135489169Y-103428185D01*
G37*
X135489169Y-103428185D02*
X135265514Y-103525509D01*
X135195312Y-103630275D01*
X135281833Y-103728814D01*
X135405687Y-103876281D01*
X135430000Y-103983749D01*
X135477182Y-104115615D01*
X135578166Y-104126549D01*
X135709825Y-104051761D01*
X135736916Y-103993341D01*
X135739549Y-103973334D01*
X135599333Y-103973334D01*
X135568355Y-104043024D01*
X135542889Y-104029778D01*
X135532756Y-103929298D01*
X135542889Y-103916889D01*
X135593223Y-103928511D01*
X135599333Y-103973334D01*
X135739549Y-103973334D01*
X135761843Y-103803934D01*
X135797410Y-103730407D01*
X135848261Y-103719334D01*
X135900270Y-103791832D01*
X135909958Y-103952167D01*
X135876274Y-104110616D01*
X135772779Y-104174541D01*
X135600031Y-104185000D01*
X135365624Y-104149715D01*
X135222079Y-104020198D01*
X135194764Y-103973334D01*
X135081527Y-103761667D01*
X135131885Y-104020418D01*
X135133255Y-104255847D01*
X135026226Y-104504415D01*
X134968421Y-104594255D01*
X134714371Y-104998033D01*
X134564050Y-105315907D01*
X134502239Y-105582489D01*
X134498666Y-105662462D01*
X134523976Y-105863568D01*
X134584301Y-105909741D01*
X134656235Y-105804986D01*
X134704190Y-105627304D01*
X134762381Y-105417002D01*
X134831988Y-105290261D01*
X134840357Y-105283798D01*
X134874066Y-105311339D01*
X134835178Y-105460612D01*
X134832583Y-105467495D01*
X134756901Y-105780357D01*
X134729958Y-106147989D01*
X134750566Y-106506535D01*
X134817538Y-106792143D01*
X134858728Y-106874260D01*
X134949335Y-107028707D01*
X134940994Y-107102912D01*
X134857690Y-107145051D01*
X134763034Y-107201586D01*
X134826352Y-107270025D01*
X134839706Y-107278592D01*
X134973408Y-107346293D01*
X135084514Y-107327074D01*
X135242425Y-107206440D01*
X135260666Y-107190667D01*
X135427975Y-107071617D01*
X135548788Y-107027284D01*
X135678191Y-107055716D01*
X135816882Y-107109622D01*
X135906150Y-107162137D01*
X135895666Y-107186012D01*
X135880644Y-107227032D01*
X135938000Y-107275334D01*
X136082490Y-107349228D01*
X136202532Y-107321570D01*
X136274294Y-107278592D01*
X136351650Y-107206548D01*
X136271634Y-107151037D01*
X136256370Y-107145074D01*
X136171673Y-107094465D01*
X136183075Y-107010242D01*
X136292123Y-106849202D01*
X136395347Y-106676481D01*
X136438138Y-106486308D01*
X136436196Y-106396593D01*
X136271009Y-106396593D01*
X136215319Y-106654832D01*
X136070531Y-106812273D01*
X135829046Y-106887254D01*
X135567060Y-106900273D01*
X135289886Y-106880524D01*
X135078034Y-106836141D01*
X135003807Y-106798378D01*
X134927278Y-106621531D01*
X134903103Y-106330899D01*
X134924566Y-105971394D01*
X134984954Y-105587929D01*
X135077553Y-105225416D01*
X135195650Y-104928768D01*
X135307735Y-104765235D01*
X135468228Y-104628230D01*
X135587165Y-104566304D01*
X135592186Y-104566000D01*
X135753479Y-104645454D01*
X135914388Y-104864595D01*
X136057913Y-105194595D01*
X136145492Y-105504365D01*
X136245200Y-106019216D01*
X136271009Y-106396593D01*
X136436196Y-106396593D01*
X136432228Y-106213334D01*
X136423732Y-106116182D01*
X136389151Y-105815735D01*
X136349650Y-105563894D01*
X136324902Y-105455000D01*
X136325143Y-105419646D01*
X136383429Y-105516744D01*
X136437772Y-105624334D01*
X136602775Y-105963000D01*
X136609054Y-105620410D01*
X136575901Y-105339335D01*
X136451912Y-105037634D01*
X136321167Y-104816077D01*
X136102955Y-104400295D01*
X136025157Y-104054224D01*
X136024834Y-104036834D01*
X135970036Y-103739617D01*
X135829822Y-103522288D01*
X135633790Y-103418475D01*
X135489169Y-103428185D01*
G36*
X134753169Y-102832344D02*
G01*
X134191994Y-103080727D01*
X133688097Y-103480065D01*
X133543024Y-103632503D01*
X133164637Y-104174651D01*
X132936396Y-104781205D01*
X132862450Y-105430788D01*
X132946950Y-106102023D01*
X133016673Y-106344000D01*
X133221721Y-106758605D01*
X133543320Y-107178365D01*
X133936479Y-107557669D01*
X134356206Y-107850908D01*
X134625666Y-107975055D01*
X135169229Y-108093684D01*
X135768771Y-108108297D01*
X136347658Y-108020175D01*
X136594866Y-107942077D01*
X137040973Y-107699559D01*
X137474116Y-107338447D01*
X137844988Y-106905536D01*
X138055663Y-106555667D01*
X138166362Y-106293061D01*
X138230368Y-106028779D01*
X138259079Y-105700352D01*
X138261123Y-105586556D01*
X138182730Y-105586556D01*
X138067571Y-106175222D01*
X137817468Y-106736003D01*
X137446583Y-107232495D01*
X137190647Y-107469494D01*
X136675527Y-107780881D01*
X136086512Y-107964559D01*
X135466171Y-108015743D01*
X134857073Y-107929646D01*
X134445600Y-107778138D01*
X133909617Y-107432297D01*
X133490395Y-106985908D01*
X133192406Y-106464651D01*
X133020122Y-105894212D01*
X132978016Y-105300271D01*
X133070560Y-104708514D01*
X133302226Y-104144621D01*
X133677487Y-103634278D01*
X133716899Y-103593429D01*
X134225509Y-103188704D01*
X134804191Y-102937205D01*
X135457510Y-102837094D01*
X135599333Y-102835089D01*
X136275865Y-102914765D01*
X136867343Y-103137974D01*
X137364493Y-103496816D01*
X137758042Y-103983395D01*
X138038716Y-104589812D01*
X138148785Y-105006408D01*
X138182730Y-105586556D01*
X138261123Y-105586556D01*
X138264248Y-105412667D01*
X138259564Y-105043589D01*
X138232746Y-104779136D01*
X138168493Y-104554736D01*
X138051506Y-104305818D01*
X137963329Y-104142667D01*
X137562741Y-103571047D01*
X137072318Y-103141120D01*
X136500430Y-102857519D01*
X135855446Y-102724880D01*
X135397908Y-102722013D01*
X134753169Y-102832344D01*
X134753169Y-102832344D01*
G37*
X134753169Y-102832344D02*
X134191994Y-103080727D01*
X133688097Y-103480065D01*
X133543024Y-103632503D01*
X133164637Y-104174651D01*
X132936396Y-104781205D01*
X132862450Y-105430788D01*
X132946950Y-106102023D01*
X133016673Y-106344000D01*
X133221721Y-106758605D01*
X133543320Y-107178365D01*
X133936479Y-107557669D01*
X134356206Y-107850908D01*
X134625666Y-107975055D01*
X135169229Y-108093684D01*
X135768771Y-108108297D01*
X136347658Y-108020175D01*
X136594866Y-107942077D01*
X137040973Y-107699559D01*
X137474116Y-107338447D01*
X137844988Y-106905536D01*
X138055663Y-106555667D01*
X138166362Y-106293061D01*
X138230368Y-106028779D01*
X138259079Y-105700352D01*
X138261123Y-105586556D01*
X138182730Y-105586556D01*
X138067571Y-106175222D01*
X137817468Y-106736003D01*
X137446583Y-107232495D01*
X137190647Y-107469494D01*
X136675527Y-107780881D01*
X136086512Y-107964559D01*
X135466171Y-108015743D01*
X134857073Y-107929646D01*
X134445600Y-107778138D01*
X133909617Y-107432297D01*
X133490395Y-106985908D01*
X133192406Y-106464651D01*
X133020122Y-105894212D01*
X132978016Y-105300271D01*
X133070560Y-104708514D01*
X133302226Y-104144621D01*
X133677487Y-103634278D01*
X133716899Y-103593429D01*
X134225509Y-103188704D01*
X134804191Y-102937205D01*
X135457510Y-102837094D01*
X135599333Y-102835089D01*
X136275865Y-102914765D01*
X136867343Y-103137974D01*
X137364493Y-103496816D01*
X137758042Y-103983395D01*
X138038716Y-104589812D01*
X138148785Y-105006408D01*
X138182730Y-105586556D01*
X138261123Y-105586556D01*
X138264248Y-105412667D01*
X138259564Y-105043589D01*
X138232746Y-104779136D01*
X138168493Y-104554736D01*
X138051506Y-104305818D01*
X137963329Y-104142667D01*
X137562741Y-103571047D01*
X137072318Y-103141120D01*
X136500430Y-102857519D01*
X135855446Y-102724880D01*
X135397908Y-102722013D01*
X134753169Y-102832344D01*
G36*
X130555027Y-108931954D02*
G01*
X130519333Y-109005112D01*
X130592365Y-109112976D01*
X130738055Y-109138000D01*
X130897960Y-109104634D01*
X130921924Y-109032167D01*
X130827735Y-108932200D01*
X130680722Y-108897135D01*
X130555027Y-108931954D01*
X130555027Y-108931954D01*
G37*
X130555027Y-108931954D02*
X130519333Y-109005112D01*
X130592365Y-109112976D01*
X130738055Y-109138000D01*
X130897960Y-109104634D01*
X130921924Y-109032167D01*
X130827735Y-108932200D01*
X130680722Y-108897135D01*
X130555027Y-108931954D01*
G36*
X128198188Y-109327504D02*
G01*
X128028184Y-109339582D01*
X127925270Y-109369536D01*
X127874751Y-109451700D01*
X127861932Y-109620409D01*
X127872118Y-109909996D01*
X127879547Y-110071991D01*
X127928844Y-110324861D01*
X128032720Y-110468257D01*
X128165082Y-110480759D01*
X128267823Y-110390711D01*
X128363266Y-110306424D01*
X128465380Y-110371424D01*
X128470585Y-110376955D01*
X128653675Y-110484902D01*
X128836109Y-110426054D01*
X128954911Y-110289965D01*
X129047871Y-110019595D01*
X129026532Y-109906777D01*
X128642471Y-109906777D01*
X128620351Y-110071865D01*
X128600222Y-110097556D01*
X128533687Y-110146802D01*
X128460191Y-110111250D01*
X128366381Y-110020953D01*
X128283422Y-109880145D01*
X128237134Y-109698311D01*
X128236797Y-109541732D01*
X128290166Y-109476667D01*
X128445648Y-109545637D01*
X128573660Y-109710187D01*
X128642471Y-109906777D01*
X129026532Y-109906777D01*
X128998087Y-109756392D01*
X128830379Y-109531924D01*
X128569570Y-109377762D01*
X128240480Y-109325476D01*
X128198188Y-109327504D01*
X128198188Y-109327504D01*
G37*
X128198188Y-109327504D02*
X128028184Y-109339582D01*
X127925270Y-109369536D01*
X127874751Y-109451700D01*
X127861932Y-109620409D01*
X127872118Y-109909996D01*
X127879547Y-110071991D01*
X127928844Y-110324861D01*
X128032720Y-110468257D01*
X128165082Y-110480759D01*
X128267823Y-110390711D01*
X128363266Y-110306424D01*
X128465380Y-110371424D01*
X128470585Y-110376955D01*
X128653675Y-110484902D01*
X128836109Y-110426054D01*
X128954911Y-110289965D01*
X129047871Y-110019595D01*
X129026532Y-109906777D01*
X128642471Y-109906777D01*
X128620351Y-110071865D01*
X128600222Y-110097556D01*
X128533687Y-110146802D01*
X128460191Y-110111250D01*
X128366381Y-110020953D01*
X128283422Y-109880145D01*
X128237134Y-109698311D01*
X128236797Y-109541732D01*
X128290166Y-109476667D01*
X128445648Y-109545637D01*
X128573660Y-109710187D01*
X128642471Y-109906777D01*
X129026532Y-109906777D01*
X128998087Y-109756392D01*
X128830379Y-109531924D01*
X128569570Y-109377762D01*
X128240480Y-109325476D01*
X128198188Y-109327504D01*
G36*
X129786932Y-109027730D02*
G01*
X129780283Y-109188953D01*
X129824438Y-109432267D01*
X129856830Y-109688561D01*
X129822679Y-109796138D01*
X129735254Y-109748865D01*
X129607824Y-109540608D01*
X129604547Y-109533915D01*
X129468618Y-109363818D01*
X129329380Y-109307334D01*
X129196027Y-109365458D01*
X129173149Y-109510187D01*
X129264007Y-109697057D01*
X129297822Y-109737468D01*
X129380362Y-109854593D01*
X129374398Y-109975874D01*
X129297822Y-110142097D01*
X129195485Y-110354021D01*
X129179844Y-110457121D01*
X129254688Y-110490225D01*
X129332048Y-110492667D01*
X129496614Y-110426554D01*
X129638119Y-110281000D01*
X129782594Y-110106031D01*
X129882137Y-110093348D01*
X129939483Y-110242752D01*
X129941945Y-110258969D01*
X130019582Y-110413683D01*
X130155445Y-110482615D01*
X130284667Y-110438614D01*
X130305681Y-110411214D01*
X130325207Y-110282927D01*
X130317072Y-110046375D01*
X130293806Y-109835026D01*
X130259392Y-109542810D01*
X130242665Y-109303367D01*
X130244336Y-109202805D01*
X130186095Y-109064868D01*
X130048494Y-109002137D01*
X129871336Y-108975056D01*
X129786932Y-109027730D01*
X129786932Y-109027730D01*
G37*
X129786932Y-109027730D02*
X129780283Y-109188953D01*
X129824438Y-109432267D01*
X129856830Y-109688561D01*
X129822679Y-109796138D01*
X129735254Y-109748865D01*
X129607824Y-109540608D01*
X129604547Y-109533915D01*
X129468618Y-109363818D01*
X129329380Y-109307334D01*
X129196027Y-109365458D01*
X129173149Y-109510187D01*
X129264007Y-109697057D01*
X129297822Y-109737468D01*
X129380362Y-109854593D01*
X129374398Y-109975874D01*
X129297822Y-110142097D01*
X129195485Y-110354021D01*
X129179844Y-110457121D01*
X129254688Y-110490225D01*
X129332048Y-110492667D01*
X129496614Y-110426554D01*
X129638119Y-110281000D01*
X129782594Y-110106031D01*
X129882137Y-110093348D01*
X129939483Y-110242752D01*
X129941945Y-110258969D01*
X130019582Y-110413683D01*
X130155445Y-110482615D01*
X130284667Y-110438614D01*
X130305681Y-110411214D01*
X130325207Y-110282927D01*
X130317072Y-110046375D01*
X130293806Y-109835026D01*
X130259392Y-109542810D01*
X130242665Y-109303367D01*
X130244336Y-109202805D01*
X130186095Y-109064868D01*
X130048494Y-109002137D01*
X129871336Y-108975056D01*
X129786932Y-109027730D01*
G36*
X130614476Y-109382543D02*
G01*
X130583470Y-109503502D01*
X130585393Y-109519000D01*
X130607096Y-109707679D01*
X130632759Y-109975378D01*
X130640853Y-110069334D01*
X130678167Y-110318484D01*
X130749503Y-110441201D01*
X130839183Y-110475977D01*
X130997830Y-110440296D01*
X131056233Y-110370143D01*
X131076983Y-110187640D01*
X131063052Y-110124961D01*
X131029377Y-109969835D01*
X131001993Y-109732217D01*
X130998257Y-109680461D01*
X130970474Y-109464321D01*
X130902690Y-109369889D01*
X130769381Y-109349667D01*
X130614476Y-109382543D01*
X130614476Y-109382543D01*
G37*
X130614476Y-109382543D02*
X130583470Y-109503502D01*
X130585393Y-109519000D01*
X130607096Y-109707679D01*
X130632759Y-109975378D01*
X130640853Y-110069334D01*
X130678167Y-110318484D01*
X130749503Y-110441201D01*
X130839183Y-110475977D01*
X130997830Y-110440296D01*
X131056233Y-110370143D01*
X131076983Y-110187640D01*
X131063052Y-110124961D01*
X131029377Y-109969835D01*
X131001993Y-109732217D01*
X130998257Y-109680461D01*
X130970474Y-109464321D01*
X130902690Y-109369889D01*
X130769381Y-109349667D01*
X130614476Y-109382543D01*
G36*
X131412198Y-109349735D02*
G01*
X131356434Y-109422102D01*
X131340547Y-109580651D01*
X131350717Y-109857667D01*
X131383233Y-110205752D01*
X131442577Y-110406626D01*
X131539940Y-110481685D01*
X131666109Y-110460600D01*
X131751730Y-110394966D01*
X131775745Y-110257881D01*
X131751279Y-110026025D01*
X131732086Y-109797391D01*
X131750556Y-109662791D01*
X131771023Y-109646000D01*
X131912014Y-109719504D01*
X132045399Y-109901307D01*
X132131979Y-110133350D01*
X132142083Y-110195610D01*
X132208034Y-110379197D01*
X132325852Y-110480548D01*
X132447867Y-110474506D01*
X132511220Y-110390412D01*
X132524429Y-110246564D01*
X132511094Y-110000288D01*
X132488921Y-109812654D01*
X132439259Y-109539131D01*
X132376260Y-109392731D01*
X132277992Y-109331466D01*
X132232957Y-109322612D01*
X132079960Y-109342131D01*
X132043333Y-109441567D01*
X132032365Y-109538526D01*
X131970804Y-109518552D01*
X131880982Y-109440652D01*
X131681158Y-109336861D01*
X131521149Y-109321697D01*
X131412198Y-109349735D01*
X131412198Y-109349735D01*
G37*
X131412198Y-109349735D02*
X131356434Y-109422102D01*
X131340547Y-109580651D01*
X131350717Y-109857667D01*
X131383233Y-110205752D01*
X131442577Y-110406626D01*
X131539940Y-110481685D01*
X131666109Y-110460600D01*
X131751730Y-110394966D01*
X131775745Y-110257881D01*
X131751279Y-110026025D01*
X131732086Y-109797391D01*
X131750556Y-109662791D01*
X131771023Y-109646000D01*
X131912014Y-109719504D01*
X132045399Y-109901307D01*
X132131979Y-110133350D01*
X132142083Y-110195610D01*
X132208034Y-110379197D01*
X132325852Y-110480548D01*
X132447867Y-110474506D01*
X132511220Y-110390412D01*
X132524429Y-110246564D01*
X132511094Y-110000288D01*
X132488921Y-109812654D01*
X132439259Y-109539131D01*
X132376260Y-109392731D01*
X132277992Y-109331466D01*
X132232957Y-109322612D01*
X132079960Y-109342131D01*
X132043333Y-109441567D01*
X132032365Y-109538526D01*
X131970804Y-109518552D01*
X131880982Y-109440652D01*
X131681158Y-109336861D01*
X131521149Y-109321697D01*
X131412198Y-109349735D01*
G36*
X133124229Y-109314332D02*
G01*
X133059333Y-109382125D01*
X132988871Y-109461175D01*
X132890000Y-109501199D01*
X132761437Y-109590822D01*
X132720803Y-109793141D01*
X132720666Y-109811256D01*
X132787079Y-110090060D01*
X132958612Y-110309934D01*
X133193708Y-110449940D01*
X133450810Y-110489140D01*
X133688359Y-110406600D01*
X133765878Y-110337833D01*
X133894437Y-110082632D01*
X133892001Y-109993704D01*
X133517015Y-109993704D01*
X133466167Y-110161108D01*
X133352714Y-110231777D01*
X133204802Y-110174820D01*
X133150256Y-110119205D01*
X133095229Y-110000694D01*
X133147862Y-109939947D01*
X133209512Y-109819568D01*
X133207525Y-109686139D01*
X133218865Y-109553624D01*
X133298565Y-109536891D01*
X133403685Y-109624104D01*
X133477116Y-109760453D01*
X133517015Y-109993704D01*
X133892001Y-109993704D01*
X133886618Y-109797265D01*
X133748391Y-109543275D01*
X133682915Y-109482812D01*
X133490435Y-109372856D01*
X133286066Y-109313767D01*
X133124229Y-109314332D01*
X133124229Y-109314332D01*
G37*
X133124229Y-109314332D02*
X133059333Y-109382125D01*
X132988871Y-109461175D01*
X132890000Y-109501199D01*
X132761437Y-109590822D01*
X132720803Y-109793141D01*
X132720666Y-109811256D01*
X132787079Y-110090060D01*
X132958612Y-110309934D01*
X133193708Y-110449940D01*
X133450810Y-110489140D01*
X133688359Y-110406600D01*
X133765878Y-110337833D01*
X133894437Y-110082632D01*
X133892001Y-109993704D01*
X133517015Y-109993704D01*
X133466167Y-110161108D01*
X133352714Y-110231777D01*
X133204802Y-110174820D01*
X133150256Y-110119205D01*
X133095229Y-110000694D01*
X133147862Y-109939947D01*
X133209512Y-109819568D01*
X133207525Y-109686139D01*
X133218865Y-109553624D01*
X133298565Y-109536891D01*
X133403685Y-109624104D01*
X133477116Y-109760453D01*
X133517015Y-109993704D01*
X133892001Y-109993704D01*
X133886618Y-109797265D01*
X133748391Y-109543275D01*
X133682915Y-109482812D01*
X133490435Y-109372856D01*
X133286066Y-109313767D01*
X133124229Y-109314332D01*
G36*
X134022820Y-109361943D02*
G01*
X133994989Y-109486491D01*
X134055806Y-109622061D01*
X134194664Y-109709732D01*
X134223360Y-109715371D01*
X134345860Y-109757344D01*
X134426086Y-109866588D01*
X134484395Y-110082179D01*
X134517509Y-110280028D01*
X134595238Y-110420605D01*
X134729868Y-110480344D01*
X134852440Y-110438355D01*
X134881887Y-110390412D01*
X134895069Y-110246516D01*
X134881613Y-110000306D01*
X134859436Y-109813616D01*
X134799923Y-109518749D01*
X134720762Y-109363995D01*
X134645805Y-109323254D01*
X134520840Y-109357761D01*
X134496092Y-109449292D01*
X134486093Y-109556175D01*
X134440337Y-109511150D01*
X134407218Y-109455500D01*
X134257386Y-109331538D01*
X134149904Y-109307334D01*
X134022820Y-109361943D01*
X134022820Y-109361943D01*
G37*
X134022820Y-109361943D02*
X133994989Y-109486491D01*
X134055806Y-109622061D01*
X134194664Y-109709732D01*
X134223360Y-109715371D01*
X134345860Y-109757344D01*
X134426086Y-109866588D01*
X134484395Y-110082179D01*
X134517509Y-110280028D01*
X134595238Y-110420605D01*
X134729868Y-110480344D01*
X134852440Y-110438355D01*
X134881887Y-110390412D01*
X134895069Y-110246516D01*
X134881613Y-110000306D01*
X134859436Y-109813616D01*
X134799923Y-109518749D01*
X134720762Y-109363995D01*
X134645805Y-109323254D01*
X134520840Y-109357761D01*
X134496092Y-109449292D01*
X134486093Y-109556175D01*
X134440337Y-109511150D01*
X134407218Y-109455500D01*
X134257386Y-109331538D01*
X134149904Y-109307334D01*
X134022820Y-109361943D01*
G36*
X135148948Y-109100941D02*
G01*
X134996618Y-109125159D01*
X134940126Y-109180912D01*
X134940407Y-109265000D01*
X135036246Y-109416602D01*
X135145174Y-109460123D01*
X135301677Y-109565472D01*
X135396887Y-109826678D01*
X135429975Y-110241427D01*
X135430000Y-110255139D01*
X135450638Y-110430308D01*
X135538034Y-110483155D01*
X135620500Y-110477389D01*
X135727763Y-110446864D01*
X135782427Y-110366183D01*
X135798920Y-110192734D01*
X135794497Y-109963500D01*
X135792046Y-109686243D01*
X135816146Y-109538891D01*
X135877859Y-109482723D01*
X135933605Y-109476667D01*
X136088005Y-109534010D01*
X136135431Y-109597100D01*
X136247790Y-109702913D01*
X136377323Y-109745266D01*
X136512438Y-109798122D01*
X136585213Y-109938740D01*
X136615333Y-110110847D01*
X136681893Y-110342064D01*
X136792737Y-110476633D01*
X136916510Y-110489123D01*
X136991450Y-110415902D01*
X137014528Y-110289665D01*
X137018670Y-110053325D01*
X137008378Y-109839714D01*
X136978859Y-109557530D01*
X136932243Y-109403472D01*
X136851422Y-109336333D01*
X136793701Y-109322612D01*
X136652833Y-109340440D01*
X136615333Y-109396479D01*
X136585818Y-109453692D01*
X136491180Y-109394363D01*
X136334733Y-109324264D01*
X136258347Y-109327927D01*
X136124680Y-109299012D01*
X136050398Y-109230098D01*
X135925414Y-109145837D01*
X135688257Y-109103750D01*
X135433805Y-109095667D01*
X135148948Y-109100941D01*
X135148948Y-109100941D01*
G37*
X135148948Y-109100941D02*
X134996618Y-109125159D01*
X134940126Y-109180912D01*
X134940407Y-109265000D01*
X135036246Y-109416602D01*
X135145174Y-109460123D01*
X135301677Y-109565472D01*
X135396887Y-109826678D01*
X135429975Y-110241427D01*
X135430000Y-110255139D01*
X135450638Y-110430308D01*
X135538034Y-110483155D01*
X135620500Y-110477389D01*
X135727763Y-110446864D01*
X135782427Y-110366183D01*
X135798920Y-110192734D01*
X135794497Y-109963500D01*
X135792046Y-109686243D01*
X135816146Y-109538891D01*
X135877859Y-109482723D01*
X135933605Y-109476667D01*
X136088005Y-109534010D01*
X136135431Y-109597100D01*
X136247790Y-109702913D01*
X136377323Y-109745266D01*
X136512438Y-109798122D01*
X136585213Y-109938740D01*
X136615333Y-110110847D01*
X136681893Y-110342064D01*
X136792737Y-110476633D01*
X136916510Y-110489123D01*
X136991450Y-110415902D01*
X137014528Y-110289665D01*
X137018670Y-110053325D01*
X137008378Y-109839714D01*
X136978859Y-109557530D01*
X136932243Y-109403472D01*
X136851422Y-109336333D01*
X136793701Y-109322612D01*
X136652833Y-109340440D01*
X136615333Y-109396479D01*
X136585818Y-109453692D01*
X136491180Y-109394363D01*
X136334733Y-109324264D01*
X136258347Y-109327927D01*
X136124680Y-109299012D01*
X136050398Y-109230098D01*
X135925414Y-109145837D01*
X135688257Y-109103750D01*
X135433805Y-109095667D01*
X135148948Y-109100941D01*
G36*
X137384306Y-109358033D02*
G01*
X137249903Y-109484773D01*
X137244038Y-109649517D01*
X137368411Y-109814229D01*
X137617350Y-109938676D01*
X137800247Y-110023609D01*
X137884672Y-110121272D01*
X137885333Y-110129176D01*
X137823761Y-110220876D01*
X137695615Y-110229687D01*
X137589000Y-110154000D01*
X137473752Y-110074940D01*
X137347212Y-110094857D01*
X137292666Y-110193355D01*
X137364838Y-110349040D01*
X137544886Y-110448341D01*
X137778113Y-110482235D01*
X138009821Y-110441698D01*
X138168544Y-110337833D01*
X138289159Y-110095841D01*
X138277772Y-109827962D01*
X138213078Y-109694484D01*
X137833645Y-109694484D01*
X137832080Y-109795613D01*
X137743886Y-109800318D01*
X137601773Y-109720981D01*
X137567794Y-109667167D01*
X137585993Y-109578038D01*
X137683094Y-109567916D01*
X137792065Y-109629914D01*
X137833645Y-109694484D01*
X138213078Y-109694484D01*
X138156667Y-109578099D01*
X137948125Y-109390156D01*
X137674428Y-109308036D01*
X137645549Y-109307334D01*
X137384306Y-109358033D01*
X137384306Y-109358033D01*
G37*
X137384306Y-109358033D02*
X137249903Y-109484773D01*
X137244038Y-109649517D01*
X137368411Y-109814229D01*
X137617350Y-109938676D01*
X137800247Y-110023609D01*
X137884672Y-110121272D01*
X137885333Y-110129176D01*
X137823761Y-110220876D01*
X137695615Y-110229687D01*
X137589000Y-110154000D01*
X137473752Y-110074940D01*
X137347212Y-110094857D01*
X137292666Y-110193355D01*
X137364838Y-110349040D01*
X137544886Y-110448341D01*
X137778113Y-110482235D01*
X138009821Y-110441698D01*
X138168544Y-110337833D01*
X138289159Y-110095841D01*
X138277772Y-109827962D01*
X138213078Y-109694484D01*
X137833645Y-109694484D01*
X137832080Y-109795613D01*
X137743886Y-109800318D01*
X137601773Y-109720981D01*
X137567794Y-109667167D01*
X137585993Y-109578038D01*
X137683094Y-109567916D01*
X137792065Y-109629914D01*
X137833645Y-109694484D01*
X138213078Y-109694484D01*
X138156667Y-109578099D01*
X137948125Y-109390156D01*
X137674428Y-109308036D01*
X137645549Y-109307334D01*
X137384306Y-109358033D01*
G36*
X139153196Y-109023756D02*
G01*
X139124708Y-109144614D01*
X139135940Y-109362901D01*
X139150986Y-109458978D01*
X139172594Y-109703655D01*
X139128241Y-109794713D01*
X139032605Y-109727434D01*
X138917880Y-109533915D01*
X138781952Y-109363818D01*
X138642713Y-109307334D01*
X138509360Y-109365458D01*
X138486482Y-109510187D01*
X138577340Y-109697057D01*
X138611155Y-109737468D01*
X138693695Y-109854593D01*
X138687732Y-109975874D01*
X138611155Y-110142097D01*
X138508819Y-110354021D01*
X138493178Y-110457121D01*
X138568022Y-110490225D01*
X138645381Y-110492667D01*
X138809948Y-110426554D01*
X138951452Y-110281000D01*
X139095928Y-110106031D01*
X139195470Y-110093348D01*
X139252817Y-110242752D01*
X139255278Y-110258969D01*
X139333561Y-110415000D01*
X139470469Y-110481949D01*
X139601230Y-110433799D01*
X139622061Y-110406283D01*
X139643091Y-110274953D01*
X139635261Y-110036600D01*
X139612033Y-109830095D01*
X139576415Y-109540052D01*
X139558222Y-109303599D01*
X139558842Y-109206602D01*
X139503017Y-109078742D01*
X139357613Y-108995447D01*
X139202158Y-108992566D01*
X139153196Y-109023756D01*
X139153196Y-109023756D01*
G37*
X139153196Y-109023756D02*
X139124708Y-109144614D01*
X139135940Y-109362901D01*
X139150986Y-109458978D01*
X139172594Y-109703655D01*
X139128241Y-109794713D01*
X139032605Y-109727434D01*
X138917880Y-109533915D01*
X138781952Y-109363818D01*
X138642713Y-109307334D01*
X138509360Y-109365458D01*
X138486482Y-109510187D01*
X138577340Y-109697057D01*
X138611155Y-109737468D01*
X138693695Y-109854593D01*
X138687732Y-109975874D01*
X138611155Y-110142097D01*
X138508819Y-110354021D01*
X138493178Y-110457121D01*
X138568022Y-110490225D01*
X138645381Y-110492667D01*
X138809948Y-110426554D01*
X138951452Y-110281000D01*
X139095928Y-110106031D01*
X139195470Y-110093348D01*
X139252817Y-110242752D01*
X139255278Y-110258969D01*
X139333561Y-110415000D01*
X139470469Y-110481949D01*
X139601230Y-110433799D01*
X139622061Y-110406283D01*
X139643091Y-110274953D01*
X139635261Y-110036600D01*
X139612033Y-109830095D01*
X139576415Y-109540052D01*
X139558222Y-109303599D01*
X139558842Y-109206602D01*
X139503017Y-109078742D01*
X139357613Y-108995447D01*
X139202158Y-108992566D01*
X139153196Y-109023756D01*
G36*
X140319895Y-109319572D02*
G01*
X140085467Y-109348179D01*
X139930548Y-109396874D01*
X139907078Y-109416200D01*
X139891308Y-109541134D01*
X139915877Y-109758976D01*
X139931859Y-109838029D01*
X139970716Y-110082401D01*
X139972227Y-110267033D01*
X139964708Y-110298392D01*
X139978116Y-110417739D01*
X140087582Y-110470936D01*
X140227526Y-110442290D01*
X140299430Y-110378485D01*
X140394037Y-110283529D01*
X140481070Y-110332072D01*
X140509221Y-110364728D01*
X140698842Y-110480922D01*
X140911491Y-110455252D01*
X141001066Y-110391067D01*
X141096146Y-110189141D01*
X141092333Y-109928222D01*
X140764000Y-109928222D01*
X140710725Y-110100103D01*
X140585560Y-110143655D01*
X140447375Y-110048167D01*
X140361289Y-109887760D01*
X140307095Y-109697316D01*
X140296660Y-109539449D01*
X140339053Y-109476667D01*
X140473841Y-109539951D01*
X140628600Y-109686165D01*
X140741727Y-109849847D01*
X140764000Y-109928222D01*
X141092333Y-109928222D01*
X141092237Y-109921668D01*
X140997517Y-109654211D01*
X140891395Y-109511699D01*
X140701194Y-109367567D01*
X140476155Y-109317695D01*
X140319895Y-109319572D01*
X140319895Y-109319572D01*
G37*
X140319895Y-109319572D02*
X140085467Y-109348179D01*
X139930548Y-109396874D01*
X139907078Y-109416200D01*
X139891308Y-109541134D01*
X139915877Y-109758976D01*
X139931859Y-109838029D01*
X139970716Y-110082401D01*
X139972227Y-110267033D01*
X139964708Y-110298392D01*
X139978116Y-110417739D01*
X140087582Y-110470936D01*
X140227526Y-110442290D01*
X140299430Y-110378485D01*
X140394037Y-110283529D01*
X140481070Y-110332072D01*
X140509221Y-110364728D01*
X140698842Y-110480922D01*
X140911491Y-110455252D01*
X141001066Y-110391067D01*
X141096146Y-110189141D01*
X141092333Y-109928222D01*
X140764000Y-109928222D01*
X140710725Y-110100103D01*
X140585560Y-110143655D01*
X140447375Y-110048167D01*
X140361289Y-109887760D01*
X140307095Y-109697316D01*
X140296660Y-109539449D01*
X140339053Y-109476667D01*
X140473841Y-109539951D01*
X140628600Y-109686165D01*
X140741727Y-109849847D01*
X140764000Y-109928222D01*
X141092333Y-109928222D01*
X141092237Y-109921668D01*
X140997517Y-109654211D01*
X140891395Y-109511699D01*
X140701194Y-109367567D01*
X140476155Y-109317695D01*
X140319895Y-109319572D01*
G36*
X141309023Y-109072754D02*
G01*
X141293389Y-109175362D01*
X141297622Y-109401758D01*
X141320514Y-109707715D01*
X141328538Y-109787018D01*
X141368983Y-110122064D01*
X141410481Y-110321759D01*
X141465185Y-110419721D01*
X141545248Y-110449569D01*
X141568333Y-110450334D01*
X141673800Y-110422473D01*
X141735847Y-110312119D01*
X141774555Y-110079109D01*
X141780000Y-110027000D01*
X141822333Y-109603667D01*
X141944687Y-109972497D01*
X142073426Y-110246264D01*
X142214668Y-110380062D01*
X142342497Y-110372199D01*
X142430998Y-110220988D01*
X142456037Y-110005834D01*
X142488958Y-109857112D01*
X142542000Y-109815334D01*
X142595018Y-109890446D01*
X142624508Y-110078085D01*
X142626666Y-110154000D01*
X142640638Y-110375210D01*
X142697701Y-110473061D01*
X142798657Y-110492667D01*
X142960076Y-110440849D01*
X143016509Y-110373153D01*
X143030072Y-110232465D01*
X143021287Y-109979432D01*
X142992685Y-109674653D01*
X142949504Y-109365499D01*
X142902006Y-109186882D01*
X142833455Y-109100461D01*
X142727840Y-109068001D01*
X142480138Y-109102585D01*
X142310882Y-109286758D01*
X142243961Y-109484431D01*
X142189038Y-109734496D01*
X142003066Y-109458532D01*
X141834136Y-109271436D01*
X141628662Y-109126236D01*
X141436806Y-109050815D01*
X141309023Y-109072754D01*
X141309023Y-109072754D01*
G37*
X141309023Y-109072754D02*
X141293389Y-109175362D01*
X141297622Y-109401758D01*
X141320514Y-109707715D01*
X141328538Y-109787018D01*
X141368983Y-110122064D01*
X141410481Y-110321759D01*
X141465185Y-110419721D01*
X141545248Y-110449569D01*
X141568333Y-110450334D01*
X141673800Y-110422473D01*
X141735847Y-110312119D01*
X141774555Y-110079109D01*
X141780000Y-110027000D01*
X141822333Y-109603667D01*
X141944687Y-109972497D01*
X142073426Y-110246264D01*
X142214668Y-110380062D01*
X142342497Y-110372199D01*
X142430998Y-110220988D01*
X142456037Y-110005834D01*
X142488958Y-109857112D01*
X142542000Y-109815334D01*
X142595018Y-109890446D01*
X142624508Y-110078085D01*
X142626666Y-110154000D01*
X142640638Y-110375210D01*
X142697701Y-110473061D01*
X142798657Y-110492667D01*
X142960076Y-110440849D01*
X143016509Y-110373153D01*
X143030072Y-110232465D01*
X143021287Y-109979432D01*
X142992685Y-109674653D01*
X142949504Y-109365499D01*
X142902006Y-109186882D01*
X142833455Y-109100461D01*
X142727840Y-109068001D01*
X142480138Y-109102585D01*
X142310882Y-109286758D01*
X142243961Y-109484431D01*
X142189038Y-109734496D01*
X142003066Y-109458532D01*
X141834136Y-109271436D01*
X141628662Y-109126236D01*
X141436806Y-109050815D01*
X141309023Y-109072754D01*
G36*
X133400323Y-110963866D02*
G01*
X133243348Y-111022438D01*
X133179089Y-111112934D01*
X133217900Y-111193100D01*
X133338832Y-111250084D01*
X133477560Y-111192838D01*
X133626582Y-111137167D01*
X133733307Y-111208285D01*
X133765317Y-111295650D01*
X133672888Y-111368664D01*
X133528860Y-111422726D01*
X133301560Y-111548141D01*
X133226535Y-111712505D01*
X133311878Y-111895752D01*
X133330266Y-111915067D01*
X133474307Y-111978802D01*
X133700353Y-112012465D01*
X133931084Y-112011542D01*
X134089184Y-111971518D01*
X134103555Y-111960222D01*
X134160329Y-111853429D01*
X134066396Y-111807200D01*
X133863666Y-111821401D01*
X133642325Y-111825848D01*
X133565826Y-111764521D01*
X133639473Y-111667576D01*
X133821333Y-111580647D01*
X134026918Y-111449703D01*
X134083353Y-111278646D01*
X133990896Y-111107050D01*
X133817518Y-110999087D01*
X133606289Y-110951366D01*
X133400323Y-110963866D01*
X133400323Y-110963866D01*
G37*
X133400323Y-110963866D02*
X133243348Y-111022438D01*
X133179089Y-111112934D01*
X133217900Y-111193100D01*
X133338832Y-111250084D01*
X133477560Y-111192838D01*
X133626582Y-111137167D01*
X133733307Y-111208285D01*
X133765317Y-111295650D01*
X133672888Y-111368664D01*
X133528860Y-111422726D01*
X133301560Y-111548141D01*
X133226535Y-111712505D01*
X133311878Y-111895752D01*
X133330266Y-111915067D01*
X133474307Y-111978802D01*
X133700353Y-112012465D01*
X133931084Y-112011542D01*
X134089184Y-111971518D01*
X134103555Y-111960222D01*
X134160329Y-111853429D01*
X134066396Y-111807200D01*
X133863666Y-111821401D01*
X133642325Y-111825848D01*
X133565826Y-111764521D01*
X133639473Y-111667576D01*
X133821333Y-111580647D01*
X134026918Y-111449703D01*
X134083353Y-111278646D01*
X133990896Y-111107050D01*
X133817518Y-110999087D01*
X133606289Y-110951366D01*
X133400323Y-110963866D01*
G36*
X135117767Y-110638447D02*
G01*
X135098377Y-110819195D01*
X135116998Y-111114391D01*
X135147196Y-111414504D01*
X135175360Y-111655555D01*
X135192741Y-111770557D01*
X135157395Y-111854592D01*
X135034781Y-111859593D01*
X134881787Y-111795374D01*
X134773833Y-111698296D01*
X134675261Y-111483225D01*
X134703957Y-111297744D01*
X134849852Y-111191258D01*
X134976182Y-111145883D01*
X134946831Y-111083877D01*
X134880489Y-111033132D01*
X134689296Y-110957659D01*
X134541319Y-111012431D01*
X134448631Y-111161252D01*
X134423300Y-111367923D01*
X134477399Y-111596247D01*
X134621818Y-111808849D01*
X134843646Y-111958357D01*
X135091377Y-112022252D01*
X135313031Y-111998237D01*
X135456628Y-111884013D01*
X135472611Y-111846459D01*
X135495361Y-111656927D01*
X135485658Y-111387691D01*
X135451047Y-111095588D01*
X135399076Y-110837458D01*
X135337289Y-110670140D01*
X135312712Y-110642130D01*
X135186497Y-110585975D01*
X135117767Y-110638447D01*
X135117767Y-110638447D01*
G37*
X135117767Y-110638447D02*
X135098377Y-110819195D01*
X135116998Y-111114391D01*
X135147196Y-111414504D01*
X135175360Y-111655555D01*
X135192741Y-111770557D01*
X135157395Y-111854592D01*
X135034781Y-111859593D01*
X134881787Y-111795374D01*
X134773833Y-111698296D01*
X134675261Y-111483225D01*
X134703957Y-111297744D01*
X134849852Y-111191258D01*
X134976182Y-111145883D01*
X134946831Y-111083877D01*
X134880489Y-111033132D01*
X134689296Y-110957659D01*
X134541319Y-111012431D01*
X134448631Y-111161252D01*
X134423300Y-111367923D01*
X134477399Y-111596247D01*
X134621818Y-111808849D01*
X134843646Y-111958357D01*
X135091377Y-112022252D01*
X135313031Y-111998237D01*
X135456628Y-111884013D01*
X135472611Y-111846459D01*
X135495361Y-111656927D01*
X135485658Y-111387691D01*
X135451047Y-111095588D01*
X135399076Y-110837458D01*
X135337289Y-110670140D01*
X135312712Y-110642130D01*
X135186497Y-110585975D01*
X135117767Y-110638447D01*
G36*
X136113317Y-110969837D02*
G01*
X135964895Y-111007711D01*
X135885470Y-111073050D01*
X135862487Y-111205691D01*
X135883388Y-111445470D01*
X135907175Y-111623850D01*
X135970114Y-111880883D01*
X136059946Y-112007731D01*
X136158794Y-111990888D01*
X136230969Y-111868500D01*
X136283329Y-111765259D01*
X136338910Y-111812617D01*
X136371234Y-111868500D01*
X136521845Y-112000244D01*
X136710111Y-112011628D01*
X136868323Y-111910497D01*
X136919232Y-111805000D01*
X136929375Y-111491079D01*
X136691657Y-111491079D01*
X136674801Y-111664191D01*
X136643555Y-111706222D01*
X136488403Y-111760099D01*
X136324037Y-111685097D01*
X136298395Y-111656834D01*
X136220812Y-111496659D01*
X136172769Y-111318167D01*
X136167901Y-111141844D01*
X136250221Y-111085594D01*
X136260574Y-111085334D01*
X136451590Y-111148225D01*
X136606269Y-111301281D01*
X136691657Y-111491079D01*
X136929375Y-111491079D01*
X136930050Y-111470209D01*
X136803439Y-111196679D01*
X136568404Y-111014467D01*
X136253951Y-110953631D01*
X136113317Y-110969837D01*
X136113317Y-110969837D01*
G37*
X136113317Y-110969837D02*
X135964895Y-111007711D01*
X135885470Y-111073050D01*
X135862487Y-111205691D01*
X135883388Y-111445470D01*
X135907175Y-111623850D01*
X135970114Y-111880883D01*
X136059946Y-112007731D01*
X136158794Y-111990888D01*
X136230969Y-111868500D01*
X136283329Y-111765259D01*
X136338910Y-111812617D01*
X136371234Y-111868500D01*
X136521845Y-112000244D01*
X136710111Y-112011628D01*
X136868323Y-111910497D01*
X136919232Y-111805000D01*
X136929375Y-111491079D01*
X136691657Y-111491079D01*
X136674801Y-111664191D01*
X136643555Y-111706222D01*
X136488403Y-111760099D01*
X136324037Y-111685097D01*
X136298395Y-111656834D01*
X136220812Y-111496659D01*
X136172769Y-111318167D01*
X136167901Y-111141844D01*
X136250221Y-111085594D01*
X136260574Y-111085334D01*
X136451590Y-111148225D01*
X136606269Y-111301281D01*
X136691657Y-111491079D01*
X136929375Y-111491079D01*
X136930050Y-111470209D01*
X136803439Y-111196679D01*
X136568404Y-111014467D01*
X136253951Y-110953631D01*
X136113317Y-110969837D01*
G36*
X137570138Y-110739847D02*
G01*
X137563867Y-110944057D01*
X137581407Y-111235665D01*
X137584354Y-111266509D01*
X137643920Y-111871018D01*
X137376823Y-111817598D01*
X137190545Y-111798538D01*
X137139615Y-111848885D01*
X137144315Y-111869256D01*
X137243142Y-111937037D01*
X137456024Y-111987348D01*
X137583548Y-112000511D01*
X137988192Y-112026688D01*
X137926619Y-111407844D01*
X137875601Y-111033569D01*
X137805336Y-110802338D01*
X137704343Y-110688039D01*
X137599227Y-110663297D01*
X137570138Y-110739847D01*
X137570138Y-110739847D01*
G37*
X137570138Y-110739847D02*
X137563867Y-110944057D01*
X137581407Y-111235665D01*
X137584354Y-111266509D01*
X137643920Y-111871018D01*
X137376823Y-111817598D01*
X137190545Y-111798538D01*
X137139615Y-111848885D01*
X137144315Y-111869256D01*
X137243142Y-111937037D01*
X137456024Y-111987348D01*
X137583548Y-112000511D01*
X137988192Y-112026688D01*
X137926619Y-111407844D01*
X137875601Y-111033569D01*
X137805336Y-110802338D01*
X137704343Y-110688039D01*
X137599227Y-110663297D01*
X137570138Y-110739847D01*
G36*
X135950122Y-76637776D02*
G01*
X135844388Y-76638355D01*
X135767868Y-76639922D01*
X135715628Y-76642972D01*
X135682737Y-76647996D01*
X135664263Y-76655489D01*
X135655273Y-76665944D01*
X135650837Y-76679853D01*
X135650406Y-76681654D01*
X135643667Y-76714145D01*
X135631192Y-76778252D01*
X135614281Y-76867151D01*
X135594229Y-76974019D01*
X135572336Y-77092033D01*
X135571571Y-77096178D01*
X135549641Y-77211831D01*
X135529123Y-77314014D01*
X135511341Y-77396598D01*
X135497619Y-77453456D01*
X135489282Y-77478458D01*
X135488884Y-77478901D01*
X135464323Y-77491110D01*
X135413685Y-77511456D01*
X135347905Y-77535545D01*
X135347539Y-77535674D01*
X135264683Y-77566818D01*
X135167000Y-77606491D01*
X135074923Y-77646381D01*
X135070566Y-77648353D01*
X134920593Y-77716420D01*
X134588502Y-77489639D01*
X134486626Y-77420504D01*
X134394343Y-77358697D01*
X134316997Y-77307733D01*
X134259936Y-77271127D01*
X134228505Y-77252394D01*
X134225521Y-77251004D01*
X134202679Y-77257190D01*
X134160018Y-77287035D01*
X134095872Y-77341947D01*
X134008579Y-77423334D01*
X133919465Y-77509922D01*
X133833559Y-77595247D01*
X133756673Y-77673108D01*
X133693436Y-77738697D01*
X133648477Y-77787205D01*
X133626424Y-77813825D01*
X133625604Y-77815195D01*
X133623166Y-77833463D01*
X133632350Y-77863295D01*
X133655426Y-77908721D01*
X133694663Y-77973770D01*
X133752330Y-78062470D01*
X133829205Y-78176657D01*
X133897430Y-78277162D01*
X133958418Y-78367303D01*
X134008644Y-78441849D01*
X134044584Y-78495565D01*
X134062713Y-78523218D01*
X134063854Y-78525095D01*
X134061641Y-78551590D01*
X134044862Y-78603086D01*
X134016858Y-78669851D01*
X134006878Y-78691172D01*
X133963328Y-78786159D01*
X133916866Y-78893937D01*
X133879123Y-78987192D01*
X133851927Y-79056406D01*
X133830325Y-79109006D01*
X133817842Y-79136497D01*
X133816291Y-79138616D01*
X133793332Y-79142124D01*
X133739214Y-79151738D01*
X133661132Y-79166089D01*
X133566281Y-79183807D01*
X133461857Y-79203525D01*
X133355056Y-79223874D01*
X133253074Y-79243486D01*
X133163106Y-79260991D01*
X133092347Y-79275022D01*
X133047994Y-79284209D01*
X133037115Y-79286807D01*
X133025878Y-79293218D01*
X133017395Y-79307697D01*
X133011286Y-79335133D01*
X133007168Y-79380411D01*
X133004659Y-79448420D01*
X133003379Y-79544047D01*
X133002946Y-79672180D01*
X133002923Y-79724701D01*
X133002923Y-80151845D01*
X133105500Y-80172091D01*
X133162569Y-80183070D01*
X133247731Y-80199095D01*
X133350628Y-80218233D01*
X133460904Y-80238551D01*
X133491385Y-80244132D01*
X133593145Y-80263917D01*
X133681795Y-80283373D01*
X133749892Y-80300697D01*
X133789996Y-80314088D01*
X133796677Y-80318079D01*
X133813081Y-80346342D01*
X133836601Y-80401109D01*
X133862684Y-80471588D01*
X133867858Y-80486769D01*
X133902044Y-80580896D01*
X133944477Y-80687101D01*
X133986003Y-80782473D01*
X133986208Y-80782916D01*
X134055360Y-80932525D01*
X133600488Y-81601617D01*
X133892500Y-81894116D01*
X133980820Y-81981170D01*
X134061375Y-82057909D01*
X134129640Y-82120237D01*
X134181092Y-82164056D01*
X134211206Y-82185270D01*
X134215526Y-82186616D01*
X134240889Y-82176016D01*
X134292642Y-82146547D01*
X134365132Y-82101705D01*
X134452706Y-82044984D01*
X134547388Y-81981462D01*
X134643484Y-81916668D01*
X134729163Y-81860287D01*
X134798984Y-81815788D01*
X134847506Y-81786639D01*
X134869218Y-81776308D01*
X134895707Y-81785050D01*
X134945938Y-81808087D01*
X135009549Y-81840631D01*
X135016292Y-81844249D01*
X135101954Y-81887210D01*
X135160694Y-81908279D01*
X135197228Y-81908503D01*
X135216269Y-81888928D01*
X135216380Y-81888654D01*
X135225898Y-81865472D01*
X135248597Y-81810441D01*
X135282718Y-81727822D01*
X135326500Y-81621872D01*
X135378184Y-81496852D01*
X135436008Y-81357020D01*
X135492009Y-81221637D01*
X135553553Y-81072234D01*
X135610061Y-80933832D01*
X135659839Y-80810673D01*
X135701194Y-80707002D01*
X135732432Y-80627059D01*
X135751859Y-80575088D01*
X135757846Y-80555692D01*
X135742832Y-80533443D01*
X135703561Y-80497982D01*
X135651193Y-80458887D01*
X135502059Y-80335245D01*
X135385489Y-80193522D01*
X135302882Y-80036704D01*
X135255634Y-79867775D01*
X135245143Y-79689722D01*
X135252769Y-79607539D01*
X135294318Y-79437031D01*
X135365877Y-79286459D01*
X135463005Y-79157309D01*
X135581266Y-79051064D01*
X135716220Y-78969210D01*
X135863429Y-78913232D01*
X136018456Y-78884615D01*
X136176861Y-78884844D01*
X136334206Y-78915405D01*
X136486054Y-78977782D01*
X136627965Y-79073460D01*
X136687197Y-79127572D01*
X136800797Y-79266520D01*
X136879894Y-79418361D01*
X136925014Y-79578667D01*
X136936684Y-79743012D01*
X136915431Y-79906971D01*
X136861780Y-80066118D01*
X136776260Y-80216025D01*
X136659395Y-80352267D01*
X136528807Y-80458887D01*
X136474412Y-80499642D01*
X136435986Y-80534718D01*
X136422154Y-80555726D01*
X136429397Y-80578635D01*
X136449995Y-80633365D01*
X136482254Y-80715672D01*
X136524479Y-80821315D01*
X136574977Y-80946050D01*
X136632052Y-81085636D01*
X136688146Y-81221670D01*
X136750033Y-81371201D01*
X136807356Y-81509767D01*
X136858356Y-81633107D01*
X136901273Y-81736964D01*
X136934347Y-81817080D01*
X136955819Y-81869195D01*
X136963775Y-81888654D01*
X136982571Y-81908423D01*
X137018926Y-81908365D01*
X137077521Y-81887441D01*
X137163032Y-81844613D01*
X137163708Y-81844249D01*
X137228093Y-81811012D01*
X137280139Y-81786802D01*
X137309488Y-81776404D01*
X137310783Y-81776308D01*
X137332876Y-81786855D01*
X137381652Y-81816184D01*
X137451669Y-81860827D01*
X137537486Y-81917314D01*
X137632612Y-81981462D01*
X137729460Y-82046411D01*
X137816747Y-82102896D01*
X137888819Y-82147421D01*
X137940023Y-82176490D01*
X137964474Y-82186616D01*
X137986990Y-82173307D01*
X138032258Y-82136112D01*
X138095756Y-82079128D01*
X138172961Y-82006449D01*
X138259349Y-81922171D01*
X138287601Y-81894016D01*
X138579713Y-81601416D01*
X138357369Y-81275104D01*
X138289798Y-81174897D01*
X138230493Y-81084963D01*
X138182783Y-81010510D01*
X138149993Y-80956751D01*
X138135452Y-80928894D01*
X138135026Y-80926912D01*
X138142692Y-80900655D01*
X138163311Y-80847837D01*
X138193315Y-80777310D01*
X138214375Y-80730093D01*
X138253752Y-80639694D01*
X138290835Y-80548366D01*
X138319585Y-80471200D01*
X138327395Y-80447692D01*
X138349583Y-80384916D01*
X138371273Y-80336411D01*
X138383187Y-80318079D01*
X138409477Y-80306859D01*
X138466858Y-80290954D01*
X138547882Y-80272167D01*
X138645105Y-80252299D01*
X138688615Y-80244132D01*
X138799104Y-80223829D01*
X138905084Y-80204170D01*
X138996199Y-80187088D01*
X139062092Y-80174518D01*
X139074500Y-80172091D01*
X139177077Y-80151845D01*
X139177077Y-79724701D01*
X139176847Y-79584246D01*
X139175901Y-79477979D01*
X139173859Y-79401013D01*
X139170338Y-79348460D01*
X139164957Y-79315433D01*
X139157334Y-79297045D01*
X139147088Y-79288408D01*
X139142885Y-79286807D01*
X139117530Y-79281127D01*
X139061516Y-79269795D01*
X138982036Y-79254179D01*
X138886288Y-79235647D01*
X138781467Y-79215569D01*
X138674768Y-79195312D01*
X138573387Y-79176246D01*
X138484521Y-79159739D01*
X138415363Y-79147159D01*
X138373111Y-79139875D01*
X138363710Y-79138616D01*
X138355193Y-79121763D01*
X138336340Y-79076870D01*
X138310676Y-79012430D01*
X138300877Y-78987192D01*
X138261352Y-78889686D01*
X138214808Y-78781959D01*
X138173123Y-78691172D01*
X138142450Y-78621753D01*
X138122044Y-78564710D01*
X138115232Y-78529777D01*
X138116318Y-78525095D01*
X138130715Y-78502991D01*
X138163588Y-78453831D01*
X138211410Y-78382848D01*
X138270652Y-78295278D01*
X138337785Y-78196357D01*
X138351059Y-78176830D01*
X138428954Y-78061140D01*
X138486213Y-77973044D01*
X138525119Y-77908486D01*
X138547956Y-77863411D01*
X138557006Y-77833763D01*
X138554552Y-77815485D01*
X138554489Y-77815369D01*
X138535173Y-77791361D01*
X138492449Y-77744947D01*
X138430949Y-77680937D01*
X138355302Y-77604145D01*
X138270139Y-77519382D01*
X138260535Y-77509922D01*
X138153210Y-77405989D01*
X138070385Y-77329675D01*
X138010395Y-77279571D01*
X137971577Y-77254270D01*
X137954480Y-77251004D01*
X137929527Y-77265250D01*
X137877745Y-77298156D01*
X137804480Y-77346208D01*
X137715080Y-77405890D01*
X137614889Y-77473688D01*
X137591499Y-77489639D01*
X137259407Y-77716420D01*
X137109435Y-77648353D01*
X137018230Y-77608685D01*
X136920331Y-77568791D01*
X136836169Y-77536983D01*
X136832462Y-77535674D01*
X136766631Y-77511576D01*
X136715884Y-77491200D01*
X136691158Y-77478936D01*
X136691116Y-77478901D01*
X136683271Y-77456734D01*
X136669934Y-77402217D01*
X136652430Y-77321480D01*
X136632083Y-77220650D01*
X136610218Y-77105856D01*
X136608429Y-77096178D01*
X136586496Y-76977904D01*
X136566360Y-76870542D01*
X136549320Y-76780917D01*
X136536672Y-76715851D01*
X136529716Y-76682168D01*
X136529594Y-76681654D01*
X136525361Y-76667325D01*
X136517129Y-76656507D01*
X136499967Y-76648706D01*
X136468942Y-76643429D01*
X136419122Y-76640182D01*
X136345576Y-76638472D01*
X136243371Y-76637807D01*
X136107575Y-76637693D01*
X136090000Y-76637692D01*
X135950122Y-76637776D01*
X135950122Y-76637776D01*
G37*
X135950122Y-76637776D02*
X135844388Y-76638355D01*
X135767868Y-76639922D01*
X135715628Y-76642972D01*
X135682737Y-76647996D01*
X135664263Y-76655489D01*
X135655273Y-76665944D01*
X135650837Y-76679853D01*
X135650406Y-76681654D01*
X135643667Y-76714145D01*
X135631192Y-76778252D01*
X135614281Y-76867151D01*
X135594229Y-76974019D01*
X135572336Y-77092033D01*
X135571571Y-77096178D01*
X135549641Y-77211831D01*
X135529123Y-77314014D01*
X135511341Y-77396598D01*
X135497619Y-77453456D01*
X135489282Y-77478458D01*
X135488884Y-77478901D01*
X135464323Y-77491110D01*
X135413685Y-77511456D01*
X135347905Y-77535545D01*
X135347539Y-77535674D01*
X135264683Y-77566818D01*
X135167000Y-77606491D01*
X135074923Y-77646381D01*
X135070566Y-77648353D01*
X134920593Y-77716420D01*
X134588502Y-77489639D01*
X134486626Y-77420504D01*
X134394343Y-77358697D01*
X134316997Y-77307733D01*
X134259936Y-77271127D01*
X134228505Y-77252394D01*
X134225521Y-77251004D01*
X134202679Y-77257190D01*
X134160018Y-77287035D01*
X134095872Y-77341947D01*
X134008579Y-77423334D01*
X133919465Y-77509922D01*
X133833559Y-77595247D01*
X133756673Y-77673108D01*
X133693436Y-77738697D01*
X133648477Y-77787205D01*
X133626424Y-77813825D01*
X133625604Y-77815195D01*
X133623166Y-77833463D01*
X133632350Y-77863295D01*
X133655426Y-77908721D01*
X133694663Y-77973770D01*
X133752330Y-78062470D01*
X133829205Y-78176657D01*
X133897430Y-78277162D01*
X133958418Y-78367303D01*
X134008644Y-78441849D01*
X134044584Y-78495565D01*
X134062713Y-78523218D01*
X134063854Y-78525095D01*
X134061641Y-78551590D01*
X134044862Y-78603086D01*
X134016858Y-78669851D01*
X134006878Y-78691172D01*
X133963328Y-78786159D01*
X133916866Y-78893937D01*
X133879123Y-78987192D01*
X133851927Y-79056406D01*
X133830325Y-79109006D01*
X133817842Y-79136497D01*
X133816291Y-79138616D01*
X133793332Y-79142124D01*
X133739214Y-79151738D01*
X133661132Y-79166089D01*
X133566281Y-79183807D01*
X133461857Y-79203525D01*
X133355056Y-79223874D01*
X133253074Y-79243486D01*
X133163106Y-79260991D01*
X133092347Y-79275022D01*
X133047994Y-79284209D01*
X133037115Y-79286807D01*
X133025878Y-79293218D01*
X133017395Y-79307697D01*
X133011286Y-79335133D01*
X133007168Y-79380411D01*
X133004659Y-79448420D01*
X133003379Y-79544047D01*
X133002946Y-79672180D01*
X133002923Y-79724701D01*
X133002923Y-80151845D01*
X133105500Y-80172091D01*
X133162569Y-80183070D01*
X133247731Y-80199095D01*
X133350628Y-80218233D01*
X133460904Y-80238551D01*
X133491385Y-80244132D01*
X133593145Y-80263917D01*
X133681795Y-80283373D01*
X133749892Y-80300697D01*
X133789996Y-80314088D01*
X133796677Y-80318079D01*
X133813081Y-80346342D01*
X133836601Y-80401109D01*
X133862684Y-80471588D01*
X133867858Y-80486769D01*
X133902044Y-80580896D01*
X133944477Y-80687101D01*
X133986003Y-80782473D01*
X133986208Y-80782916D01*
X134055360Y-80932525D01*
X133600488Y-81601617D01*
X133892500Y-81894116D01*
X133980820Y-81981170D01*
X134061375Y-82057909D01*
X134129640Y-82120237D01*
X134181092Y-82164056D01*
X134211206Y-82185270D01*
X134215526Y-82186616D01*
X134240889Y-82176016D01*
X134292642Y-82146547D01*
X134365132Y-82101705D01*
X134452706Y-82044984D01*
X134547388Y-81981462D01*
X134643484Y-81916668D01*
X134729163Y-81860287D01*
X134798984Y-81815788D01*
X134847506Y-81786639D01*
X134869218Y-81776308D01*
X134895707Y-81785050D01*
X134945938Y-81808087D01*
X135009549Y-81840631D01*
X135016292Y-81844249D01*
X135101954Y-81887210D01*
X135160694Y-81908279D01*
X135197228Y-81908503D01*
X135216269Y-81888928D01*
X135216380Y-81888654D01*
X135225898Y-81865472D01*
X135248597Y-81810441D01*
X135282718Y-81727822D01*
X135326500Y-81621872D01*
X135378184Y-81496852D01*
X135436008Y-81357020D01*
X135492009Y-81221637D01*
X135553553Y-81072234D01*
X135610061Y-80933832D01*
X135659839Y-80810673D01*
X135701194Y-80707002D01*
X135732432Y-80627059D01*
X135751859Y-80575088D01*
X135757846Y-80555692D01*
X135742832Y-80533443D01*
X135703561Y-80497982D01*
X135651193Y-80458887D01*
X135502059Y-80335245D01*
X135385489Y-80193522D01*
X135302882Y-80036704D01*
X135255634Y-79867775D01*
X135245143Y-79689722D01*
X135252769Y-79607539D01*
X135294318Y-79437031D01*
X135365877Y-79286459D01*
X135463005Y-79157309D01*
X135581266Y-79051064D01*
X135716220Y-78969210D01*
X135863429Y-78913232D01*
X136018456Y-78884615D01*
X136176861Y-78884844D01*
X136334206Y-78915405D01*
X136486054Y-78977782D01*
X136627965Y-79073460D01*
X136687197Y-79127572D01*
X136800797Y-79266520D01*
X136879894Y-79418361D01*
X136925014Y-79578667D01*
X136936684Y-79743012D01*
X136915431Y-79906971D01*
X136861780Y-80066118D01*
X136776260Y-80216025D01*
X136659395Y-80352267D01*
X136528807Y-80458887D01*
X136474412Y-80499642D01*
X136435986Y-80534718D01*
X136422154Y-80555726D01*
X136429397Y-80578635D01*
X136449995Y-80633365D01*
X136482254Y-80715672D01*
X136524479Y-80821315D01*
X136574977Y-80946050D01*
X136632052Y-81085636D01*
X136688146Y-81221670D01*
X136750033Y-81371201D01*
X136807356Y-81509767D01*
X136858356Y-81633107D01*
X136901273Y-81736964D01*
X136934347Y-81817080D01*
X136955819Y-81869195D01*
X136963775Y-81888654D01*
X136982571Y-81908423D01*
X137018926Y-81908365D01*
X137077521Y-81887441D01*
X137163032Y-81844613D01*
X137163708Y-81844249D01*
X137228093Y-81811012D01*
X137280139Y-81786802D01*
X137309488Y-81776404D01*
X137310783Y-81776308D01*
X137332876Y-81786855D01*
X137381652Y-81816184D01*
X137451669Y-81860827D01*
X137537486Y-81917314D01*
X137632612Y-81981462D01*
X137729460Y-82046411D01*
X137816747Y-82102896D01*
X137888819Y-82147421D01*
X137940023Y-82176490D01*
X137964474Y-82186616D01*
X137986990Y-82173307D01*
X138032258Y-82136112D01*
X138095756Y-82079128D01*
X138172961Y-82006449D01*
X138259349Y-81922171D01*
X138287601Y-81894016D01*
X138579713Y-81601416D01*
X138357369Y-81275104D01*
X138289798Y-81174897D01*
X138230493Y-81084963D01*
X138182783Y-81010510D01*
X138149993Y-80956751D01*
X138135452Y-80928894D01*
X138135026Y-80926912D01*
X138142692Y-80900655D01*
X138163311Y-80847837D01*
X138193315Y-80777310D01*
X138214375Y-80730093D01*
X138253752Y-80639694D01*
X138290835Y-80548366D01*
X138319585Y-80471200D01*
X138327395Y-80447692D01*
X138349583Y-80384916D01*
X138371273Y-80336411D01*
X138383187Y-80318079D01*
X138409477Y-80306859D01*
X138466858Y-80290954D01*
X138547882Y-80272167D01*
X138645105Y-80252299D01*
X138688615Y-80244132D01*
X138799104Y-80223829D01*
X138905084Y-80204170D01*
X138996199Y-80187088D01*
X139062092Y-80174518D01*
X139074500Y-80172091D01*
X139177077Y-80151845D01*
X139177077Y-79724701D01*
X139176847Y-79584246D01*
X139175901Y-79477979D01*
X139173859Y-79401013D01*
X139170338Y-79348460D01*
X139164957Y-79315433D01*
X139157334Y-79297045D01*
X139147088Y-79288408D01*
X139142885Y-79286807D01*
X139117530Y-79281127D01*
X139061516Y-79269795D01*
X138982036Y-79254179D01*
X138886288Y-79235647D01*
X138781467Y-79215569D01*
X138674768Y-79195312D01*
X138573387Y-79176246D01*
X138484521Y-79159739D01*
X138415363Y-79147159D01*
X138373111Y-79139875D01*
X138363710Y-79138616D01*
X138355193Y-79121763D01*
X138336340Y-79076870D01*
X138310676Y-79012430D01*
X138300877Y-78987192D01*
X138261352Y-78889686D01*
X138214808Y-78781959D01*
X138173123Y-78691172D01*
X138142450Y-78621753D01*
X138122044Y-78564710D01*
X138115232Y-78529777D01*
X138116318Y-78525095D01*
X138130715Y-78502991D01*
X138163588Y-78453831D01*
X138211410Y-78382848D01*
X138270652Y-78295278D01*
X138337785Y-78196357D01*
X138351059Y-78176830D01*
X138428954Y-78061140D01*
X138486213Y-77973044D01*
X138525119Y-77908486D01*
X138547956Y-77863411D01*
X138557006Y-77833763D01*
X138554552Y-77815485D01*
X138554489Y-77815369D01*
X138535173Y-77791361D01*
X138492449Y-77744947D01*
X138430949Y-77680937D01*
X138355302Y-77604145D01*
X138270139Y-77519382D01*
X138260535Y-77509922D01*
X138153210Y-77405989D01*
X138070385Y-77329675D01*
X138010395Y-77279571D01*
X137971577Y-77254270D01*
X137954480Y-77251004D01*
X137929527Y-77265250D01*
X137877745Y-77298156D01*
X137804480Y-77346208D01*
X137715080Y-77405890D01*
X137614889Y-77473688D01*
X137591499Y-77489639D01*
X137259407Y-77716420D01*
X137109435Y-77648353D01*
X137018230Y-77608685D01*
X136920331Y-77568791D01*
X136836169Y-77536983D01*
X136832462Y-77535674D01*
X136766631Y-77511576D01*
X136715884Y-77491200D01*
X136691158Y-77478936D01*
X136691116Y-77478901D01*
X136683271Y-77456734D01*
X136669934Y-77402217D01*
X136652430Y-77321480D01*
X136632083Y-77220650D01*
X136610218Y-77105856D01*
X136608429Y-77096178D01*
X136586496Y-76977904D01*
X136566360Y-76870542D01*
X136549320Y-76780917D01*
X136536672Y-76715851D01*
X136529716Y-76682168D01*
X136529594Y-76681654D01*
X136525361Y-76667325D01*
X136517129Y-76656507D01*
X136499967Y-76648706D01*
X136468942Y-76643429D01*
X136419122Y-76640182D01*
X136345576Y-76638472D01*
X136243371Y-76637807D01*
X136107575Y-76637693D01*
X136090000Y-76637692D01*
X135950122Y-76637776D01*
G36*
X131844776Y-82997838D02*
G01*
X131767472Y-83048361D01*
X131730186Y-83093590D01*
X131700647Y-83175663D01*
X131698301Y-83240607D01*
X131703615Y-83327445D01*
X131903885Y-83415103D01*
X132001261Y-83459887D01*
X132064887Y-83495913D01*
X132097971Y-83527117D01*
X132103720Y-83557436D01*
X132085342Y-83590805D01*
X132065077Y-83612923D01*
X132006111Y-83648393D01*
X131941976Y-83650879D01*
X131883074Y-83623235D01*
X131839803Y-83568320D01*
X131832064Y-83548928D01*
X131794994Y-83488364D01*
X131752346Y-83462552D01*
X131693846Y-83440471D01*
X131693846Y-83524184D01*
X131699018Y-83581150D01*
X131719277Y-83629189D01*
X131761738Y-83684346D01*
X131768049Y-83691514D01*
X131815280Y-83740585D01*
X131855879Y-83766920D01*
X131906672Y-83779035D01*
X131948780Y-83783003D01*
X132024098Y-83783991D01*
X132077714Y-83771466D01*
X132111162Y-83752869D01*
X132163732Y-83711975D01*
X132200121Y-83667748D01*
X132223150Y-83612126D01*
X132235641Y-83537047D01*
X132240413Y-83434449D01*
X132240794Y-83382376D01*
X132239499Y-83319948D01*
X132121529Y-83319948D01*
X132120161Y-83353438D01*
X132116751Y-83358923D01*
X132094247Y-83351472D01*
X132045818Y-83331753D01*
X131981092Y-83303718D01*
X131967557Y-83297692D01*
X131885756Y-83256096D01*
X131840688Y-83219538D01*
X131830783Y-83185296D01*
X131854474Y-83150648D01*
X131874040Y-83135339D01*
X131944640Y-83104721D01*
X132010720Y-83109780D01*
X132066041Y-83147151D01*
X132104364Y-83213473D01*
X132116651Y-83266116D01*
X132121529Y-83319948D01*
X132239499Y-83319948D01*
X132238270Y-83260720D01*
X132228968Y-83170710D01*
X132210540Y-83105167D01*
X132180640Y-83056912D01*
X132136920Y-83018767D01*
X132117859Y-83006440D01*
X132031274Y-82974336D01*
X131936478Y-82972316D01*
X131844776Y-82997838D01*
X131844776Y-82997838D01*
G37*
X131844776Y-82997838D02*
X131767472Y-83048361D01*
X131730186Y-83093590D01*
X131700647Y-83175663D01*
X131698301Y-83240607D01*
X131703615Y-83327445D01*
X131903885Y-83415103D01*
X132001261Y-83459887D01*
X132064887Y-83495913D01*
X132097971Y-83527117D01*
X132103720Y-83557436D01*
X132085342Y-83590805D01*
X132065077Y-83612923D01*
X132006111Y-83648393D01*
X131941976Y-83650879D01*
X131883074Y-83623235D01*
X131839803Y-83568320D01*
X131832064Y-83548928D01*
X131794994Y-83488364D01*
X131752346Y-83462552D01*
X131693846Y-83440471D01*
X131693846Y-83524184D01*
X131699018Y-83581150D01*
X131719277Y-83629189D01*
X131761738Y-83684346D01*
X131768049Y-83691514D01*
X131815280Y-83740585D01*
X131855879Y-83766920D01*
X131906672Y-83779035D01*
X131948780Y-83783003D01*
X132024098Y-83783991D01*
X132077714Y-83771466D01*
X132111162Y-83752869D01*
X132163732Y-83711975D01*
X132200121Y-83667748D01*
X132223150Y-83612126D01*
X132235641Y-83537047D01*
X132240413Y-83434449D01*
X132240794Y-83382376D01*
X132239499Y-83319948D01*
X132121529Y-83319948D01*
X132120161Y-83353438D01*
X132116751Y-83358923D01*
X132094247Y-83351472D01*
X132045818Y-83331753D01*
X131981092Y-83303718D01*
X131967557Y-83297692D01*
X131885756Y-83256096D01*
X131840688Y-83219538D01*
X131830783Y-83185296D01*
X131854474Y-83150648D01*
X131874040Y-83135339D01*
X131944640Y-83104721D01*
X132010720Y-83109780D01*
X132066041Y-83147151D01*
X132104364Y-83213473D01*
X132116651Y-83266116D01*
X132121529Y-83319948D01*
X132239499Y-83319948D01*
X132238270Y-83260720D01*
X132228968Y-83170710D01*
X132210540Y-83105167D01*
X132180640Y-83056912D01*
X132136920Y-83018767D01*
X132117859Y-83006440D01*
X132031274Y-82974336D01*
X131936478Y-82972316D01*
X131844776Y-82997838D01*
G36*
X132519193Y-82986782D02*
G01*
X132495839Y-82996988D01*
X132440098Y-83041134D01*
X132392431Y-83104967D01*
X132362952Y-83173087D01*
X132358154Y-83206670D01*
X132374240Y-83253556D01*
X132409525Y-83278365D01*
X132447356Y-83293387D01*
X132464679Y-83296155D01*
X132473114Y-83276066D01*
X132489770Y-83232351D01*
X132497077Y-83212598D01*
X132538052Y-83144271D01*
X132597378Y-83110191D01*
X132673448Y-83111239D01*
X132679082Y-83112581D01*
X132719695Y-83131836D01*
X132749552Y-83169375D01*
X132769945Y-83229809D01*
X132782164Y-83317751D01*
X132787500Y-83437813D01*
X132788000Y-83501698D01*
X132788248Y-83602403D01*
X132789874Y-83671054D01*
X132794199Y-83714673D01*
X132802546Y-83740282D01*
X132816235Y-83754903D01*
X132836589Y-83765558D01*
X132837766Y-83766095D01*
X132876962Y-83782667D01*
X132896381Y-83788769D01*
X132899365Y-83770319D01*
X132901919Y-83719323D01*
X132903860Y-83642308D01*
X132905003Y-83545805D01*
X132905231Y-83475184D01*
X132904068Y-83338525D01*
X132899521Y-83234851D01*
X132890001Y-83158108D01*
X132873919Y-83102246D01*
X132849687Y-83061212D01*
X132815714Y-83028954D01*
X132782167Y-83006440D01*
X132701501Y-82976476D01*
X132607619Y-82969718D01*
X132519193Y-82986782D01*
X132519193Y-82986782D01*
G37*
X132519193Y-82986782D02*
X132495839Y-82996988D01*
X132440098Y-83041134D01*
X132392431Y-83104967D01*
X132362952Y-83173087D01*
X132358154Y-83206670D01*
X132374240Y-83253556D01*
X132409525Y-83278365D01*
X132447356Y-83293387D01*
X132464679Y-83296155D01*
X132473114Y-83276066D01*
X132489770Y-83232351D01*
X132497077Y-83212598D01*
X132538052Y-83144271D01*
X132597378Y-83110191D01*
X132673448Y-83111239D01*
X132679082Y-83112581D01*
X132719695Y-83131836D01*
X132749552Y-83169375D01*
X132769945Y-83229809D01*
X132782164Y-83317751D01*
X132787500Y-83437813D01*
X132788000Y-83501698D01*
X132788248Y-83602403D01*
X132789874Y-83671054D01*
X132794199Y-83714673D01*
X132802546Y-83740282D01*
X132816235Y-83754903D01*
X132836589Y-83765558D01*
X132837766Y-83766095D01*
X132876962Y-83782667D01*
X132896381Y-83788769D01*
X132899365Y-83770319D01*
X132901919Y-83719323D01*
X132903860Y-83642308D01*
X132905003Y-83545805D01*
X132905231Y-83475184D01*
X132904068Y-83338525D01*
X132899521Y-83234851D01*
X132890001Y-83158108D01*
X132873919Y-83102246D01*
X132849687Y-83061212D01*
X132815714Y-83028954D01*
X132782167Y-83006440D01*
X132701501Y-82976476D01*
X132607619Y-82969718D01*
X132519193Y-82986782D01*
G36*
X133202667Y-82983528D02*
G01*
X133146410Y-83009117D01*
X133102253Y-83040124D01*
X133069899Y-83074795D01*
X133047562Y-83119520D01*
X133033454Y-83180692D01*
X133025789Y-83264701D01*
X133022780Y-83377940D01*
X133022462Y-83452509D01*
X133022462Y-83743420D01*
X133072227Y-83766095D01*
X133111424Y-83782667D01*
X133130843Y-83788769D01*
X133134558Y-83770610D01*
X133137505Y-83721648D01*
X133139309Y-83650153D01*
X133139692Y-83593385D01*
X133141339Y-83511371D01*
X133145778Y-83446309D01*
X133152260Y-83406467D01*
X133157410Y-83398000D01*
X133192023Y-83406646D01*
X133246360Y-83428823D01*
X133309278Y-83458886D01*
X133369632Y-83491192D01*
X133416279Y-83520098D01*
X133438074Y-83539961D01*
X133438161Y-83540175D01*
X133436286Y-83576935D01*
X133419475Y-83612026D01*
X133389961Y-83640528D01*
X133346884Y-83650061D01*
X133310068Y-83648950D01*
X133257926Y-83648133D01*
X133230556Y-83660349D01*
X133214118Y-83692624D01*
X133212045Y-83698710D01*
X133204919Y-83744739D01*
X133223976Y-83772687D01*
X133273647Y-83786007D01*
X133327303Y-83788470D01*
X133423858Y-83770210D01*
X133473841Y-83744131D01*
X133535571Y-83682868D01*
X133568310Y-83607670D01*
X133571247Y-83528211D01*
X133543576Y-83454167D01*
X133501953Y-83407769D01*
X133460396Y-83381793D01*
X133395078Y-83348907D01*
X133318962Y-83315557D01*
X133306274Y-83310461D01*
X133222667Y-83273565D01*
X133174470Y-83241046D01*
X133158970Y-83208718D01*
X133173450Y-83172394D01*
X133198308Y-83144000D01*
X133257061Y-83109039D01*
X133321707Y-83106417D01*
X133380992Y-83133358D01*
X133423661Y-83187088D01*
X133429261Y-83200950D01*
X133461867Y-83251936D01*
X133509470Y-83289787D01*
X133569539Y-83320850D01*
X133569539Y-83232768D01*
X133566003Y-83178951D01*
X133550844Y-83136534D01*
X133517232Y-83091279D01*
X133484965Y-83056420D01*
X133434791Y-83007062D01*
X133395807Y-82980547D01*
X133353936Y-82969911D01*
X133306540Y-82968154D01*
X133202667Y-82983528D01*
X133202667Y-82983528D01*
G37*
X133202667Y-82983528D02*
X133146410Y-83009117D01*
X133102253Y-83040124D01*
X133069899Y-83074795D01*
X133047562Y-83119520D01*
X133033454Y-83180692D01*
X133025789Y-83264701D01*
X133022780Y-83377940D01*
X133022462Y-83452509D01*
X133022462Y-83743420D01*
X133072227Y-83766095D01*
X133111424Y-83782667D01*
X133130843Y-83788769D01*
X133134558Y-83770610D01*
X133137505Y-83721648D01*
X133139309Y-83650153D01*
X133139692Y-83593385D01*
X133141339Y-83511371D01*
X133145778Y-83446309D01*
X133152260Y-83406467D01*
X133157410Y-83398000D01*
X133192023Y-83406646D01*
X133246360Y-83428823D01*
X133309278Y-83458886D01*
X133369632Y-83491192D01*
X133416279Y-83520098D01*
X133438074Y-83539961D01*
X133438161Y-83540175D01*
X133436286Y-83576935D01*
X133419475Y-83612026D01*
X133389961Y-83640528D01*
X133346884Y-83650061D01*
X133310068Y-83648950D01*
X133257926Y-83648133D01*
X133230556Y-83660349D01*
X133214118Y-83692624D01*
X133212045Y-83698710D01*
X133204919Y-83744739D01*
X133223976Y-83772687D01*
X133273647Y-83786007D01*
X133327303Y-83788470D01*
X133423858Y-83770210D01*
X133473841Y-83744131D01*
X133535571Y-83682868D01*
X133568310Y-83607670D01*
X133571247Y-83528211D01*
X133543576Y-83454167D01*
X133501953Y-83407769D01*
X133460396Y-83381793D01*
X133395078Y-83348907D01*
X133318962Y-83315557D01*
X133306274Y-83310461D01*
X133222667Y-83273565D01*
X133174470Y-83241046D01*
X133158970Y-83208718D01*
X133173450Y-83172394D01*
X133198308Y-83144000D01*
X133257061Y-83109039D01*
X133321707Y-83106417D01*
X133380992Y-83133358D01*
X133423661Y-83187088D01*
X133429261Y-83200950D01*
X133461867Y-83251936D01*
X133509470Y-83289787D01*
X133569539Y-83320850D01*
X133569539Y-83232768D01*
X133566003Y-83178951D01*
X133550844Y-83136534D01*
X133517232Y-83091279D01*
X133484965Y-83056420D01*
X133434791Y-83007062D01*
X133395807Y-82980547D01*
X133353936Y-82969911D01*
X133306540Y-82968154D01*
X133202667Y-82983528D01*
G36*
X133694071Y-82986662D02*
G01*
X133691089Y-83038068D01*
X133688753Y-83116192D01*
X133687251Y-83214857D01*
X133686769Y-83318343D01*
X133686769Y-83668533D01*
X133748599Y-83730363D01*
X133791207Y-83768462D01*
X133828610Y-83783895D01*
X133879730Y-83782918D01*
X133900022Y-83780433D01*
X133963446Y-83773200D01*
X134015905Y-83769055D01*
X134028692Y-83768672D01*
X134071801Y-83771176D01*
X134133456Y-83777462D01*
X134157362Y-83780433D01*
X134216078Y-83785028D01*
X134255536Y-83775046D01*
X134294662Y-83744228D01*
X134308785Y-83730363D01*
X134370615Y-83668533D01*
X134370615Y-83013503D01*
X134320850Y-82990829D01*
X134277998Y-82974034D01*
X134252927Y-82968154D01*
X134246499Y-82986736D01*
X134240491Y-83038655D01*
X134235303Y-83118172D01*
X134231336Y-83219546D01*
X134229423Y-83305192D01*
X134224077Y-83642231D01*
X134177440Y-83648825D01*
X134135024Y-83644214D01*
X134114240Y-83629287D01*
X134108430Y-83601377D01*
X134103470Y-83541925D01*
X134099754Y-83458466D01*
X134097676Y-83358532D01*
X134097376Y-83307104D01*
X134097077Y-83011054D01*
X134035546Y-82989604D01*
X133991996Y-82975020D01*
X133968306Y-82968219D01*
X133967623Y-82968154D01*
X133965246Y-82986642D01*
X133962634Y-83037906D01*
X133960005Y-83115649D01*
X133957579Y-83213574D01*
X133955885Y-83305192D01*
X133950539Y-83642231D01*
X133833308Y-83642231D01*
X133827928Y-83334746D01*
X133822549Y-83027261D01*
X133765399Y-82997707D01*
X133723203Y-82977413D01*
X133698230Y-82968204D01*
X133697509Y-82968154D01*
X133694071Y-82986662D01*
X133694071Y-82986662D01*
G37*
X133694071Y-82986662D02*
X133691089Y-83038068D01*
X133688753Y-83116192D01*
X133687251Y-83214857D01*
X133686769Y-83318343D01*
X133686769Y-83668533D01*
X133748599Y-83730363D01*
X133791207Y-83768462D01*
X133828610Y-83783895D01*
X133879730Y-83782918D01*
X133900022Y-83780433D01*
X133963446Y-83773200D01*
X134015905Y-83769055D01*
X134028692Y-83768672D01*
X134071801Y-83771176D01*
X134133456Y-83777462D01*
X134157362Y-83780433D01*
X134216078Y-83785028D01*
X134255536Y-83775046D01*
X134294662Y-83744228D01*
X134308785Y-83730363D01*
X134370615Y-83668533D01*
X134370615Y-83013503D01*
X134320850Y-82990829D01*
X134277998Y-82974034D01*
X134252927Y-82968154D01*
X134246499Y-82986736D01*
X134240491Y-83038655D01*
X134235303Y-83118172D01*
X134231336Y-83219546D01*
X134229423Y-83305192D01*
X134224077Y-83642231D01*
X134177440Y-83648825D01*
X134135024Y-83644214D01*
X134114240Y-83629287D01*
X134108430Y-83601377D01*
X134103470Y-83541925D01*
X134099754Y-83458466D01*
X134097676Y-83358532D01*
X134097376Y-83307104D01*
X134097077Y-83011054D01*
X134035546Y-82989604D01*
X133991996Y-82975020D01*
X133968306Y-82968219D01*
X133967623Y-82968154D01*
X133965246Y-82986642D01*
X133962634Y-83037906D01*
X133960005Y-83115649D01*
X133957579Y-83213574D01*
X133955885Y-83305192D01*
X133950539Y-83642231D01*
X133833308Y-83642231D01*
X133827928Y-83334746D01*
X133822549Y-83027261D01*
X133765399Y-82997707D01*
X133723203Y-82977413D01*
X133698230Y-82968204D01*
X133697509Y-82968154D01*
X133694071Y-82986662D01*
G36*
X134487919Y-83130289D02*
G01*
X134488167Y-83276320D01*
X134489128Y-83388655D01*
X134491206Y-83472678D01*
X134494807Y-83533769D01*
X134500335Y-83577309D01*
X134508196Y-83608679D01*
X134518793Y-83633262D01*
X134526818Y-83647294D01*
X134593272Y-83723388D01*
X134677530Y-83771084D01*
X134770751Y-83788199D01*
X134864100Y-83772546D01*
X134919688Y-83744418D01*
X134978043Y-83695760D01*
X135017814Y-83636333D01*
X135041810Y-83558507D01*
X135052839Y-83454652D01*
X135054401Y-83378462D01*
X135054191Y-83372986D01*
X134917692Y-83372986D01*
X134916859Y-83460355D01*
X134913039Y-83518192D01*
X134904254Y-83556029D01*
X134888526Y-83583398D01*
X134869734Y-83604042D01*
X134806625Y-83643890D01*
X134738863Y-83647295D01*
X134674821Y-83614025D01*
X134669836Y-83609517D01*
X134648561Y-83586067D01*
X134635221Y-83558166D01*
X134627999Y-83516641D01*
X134625077Y-83452316D01*
X134624615Y-83381200D01*
X134625617Y-83291858D01*
X134629762Y-83232258D01*
X134638764Y-83193089D01*
X134654333Y-83165040D01*
X134667098Y-83150144D01*
X134726400Y-83112575D01*
X134794699Y-83108057D01*
X134859890Y-83136753D01*
X134872472Y-83147406D01*
X134893889Y-83171063D01*
X134907256Y-83199251D01*
X134914434Y-83241245D01*
X134917281Y-83306319D01*
X134917692Y-83372986D01*
X135054191Y-83372986D01*
X135049678Y-83255765D01*
X135033638Y-83163577D01*
X135003472Y-83094269D01*
X134956371Y-83040211D01*
X134919688Y-83012505D01*
X134853010Y-82982572D01*
X134775728Y-82968678D01*
X134703890Y-82972397D01*
X134663692Y-82987400D01*
X134647918Y-82991670D01*
X134637450Y-82975750D01*
X134630144Y-82933089D01*
X134624615Y-82868106D01*
X134618563Y-82795732D01*
X134610156Y-82752187D01*
X134594859Y-82727287D01*
X134568136Y-82710845D01*
X134551346Y-82703564D01*
X134487846Y-82676963D01*
X134487919Y-83130289D01*
X134487919Y-83130289D01*
G37*
X134487919Y-83130289D02*
X134488167Y-83276320D01*
X134489128Y-83388655D01*
X134491206Y-83472678D01*
X134494807Y-83533769D01*
X134500335Y-83577309D01*
X134508196Y-83608679D01*
X134518793Y-83633262D01*
X134526818Y-83647294D01*
X134593272Y-83723388D01*
X134677530Y-83771084D01*
X134770751Y-83788199D01*
X134864100Y-83772546D01*
X134919688Y-83744418D01*
X134978043Y-83695760D01*
X135017814Y-83636333D01*
X135041810Y-83558507D01*
X135052839Y-83454652D01*
X135054401Y-83378462D01*
X135054191Y-83372986D01*
X134917692Y-83372986D01*
X134916859Y-83460355D01*
X134913039Y-83518192D01*
X134904254Y-83556029D01*
X134888526Y-83583398D01*
X134869734Y-83604042D01*
X134806625Y-83643890D01*
X134738863Y-83647295D01*
X134674821Y-83614025D01*
X134669836Y-83609517D01*
X134648561Y-83586067D01*
X134635221Y-83558166D01*
X134627999Y-83516641D01*
X134625077Y-83452316D01*
X134624615Y-83381200D01*
X134625617Y-83291858D01*
X134629762Y-83232258D01*
X134638764Y-83193089D01*
X134654333Y-83165040D01*
X134667098Y-83150144D01*
X134726400Y-83112575D01*
X134794699Y-83108057D01*
X134859890Y-83136753D01*
X134872472Y-83147406D01*
X134893889Y-83171063D01*
X134907256Y-83199251D01*
X134914434Y-83241245D01*
X134917281Y-83306319D01*
X134917692Y-83372986D01*
X135054191Y-83372986D01*
X135049678Y-83255765D01*
X135033638Y-83163577D01*
X135003472Y-83094269D01*
X134956371Y-83040211D01*
X134919688Y-83012505D01*
X134853010Y-82982572D01*
X134775728Y-82968678D01*
X134703890Y-82972397D01*
X134663692Y-82987400D01*
X134647918Y-82991670D01*
X134637450Y-82975750D01*
X134630144Y-82933089D01*
X134624615Y-82868106D01*
X134618563Y-82795732D01*
X134610156Y-82752187D01*
X134594859Y-82727287D01*
X134568136Y-82710845D01*
X134551346Y-82703564D01*
X134487846Y-82676963D01*
X134487919Y-83130289D01*
G36*
X135376638Y-82974670D02*
G01*
X135287883Y-83007421D01*
X135215978Y-83065350D01*
X135187856Y-83106128D01*
X135157198Y-83180954D01*
X135157835Y-83235058D01*
X135190013Y-83271446D01*
X135201919Y-83277633D01*
X135253325Y-83296925D01*
X135279578Y-83291982D01*
X135288470Y-83259587D01*
X135288923Y-83241692D01*
X135305203Y-83175859D01*
X135347635Y-83129807D01*
X135406612Y-83107564D01*
X135472525Y-83113161D01*
X135526105Y-83142229D01*
X135544202Y-83158810D01*
X135557029Y-83178925D01*
X135565694Y-83209332D01*
X135571304Y-83256788D01*
X135574965Y-83328050D01*
X135577785Y-83429875D01*
X135578516Y-83462115D01*
X135581180Y-83572410D01*
X135584208Y-83650036D01*
X135588750Y-83701396D01*
X135595954Y-83732890D01*
X135606967Y-83750920D01*
X135622940Y-83761888D01*
X135633166Y-83766733D01*
X135676594Y-83783301D01*
X135702158Y-83788769D01*
X135710605Y-83770507D01*
X135715761Y-83715296D01*
X135717654Y-83622499D01*
X135716311Y-83491478D01*
X135715893Y-83471269D01*
X135712942Y-83351733D01*
X135709452Y-83264449D01*
X135704486Y-83202591D01*
X135697107Y-83159336D01*
X135686376Y-83127860D01*
X135671355Y-83101339D01*
X135663498Y-83089975D01*
X135618447Y-83039692D01*
X135568060Y-83000581D01*
X135561892Y-82997167D01*
X135471542Y-82970212D01*
X135376638Y-82974670D01*
X135376638Y-82974670D01*
G37*
X135376638Y-82974670D02*
X135287883Y-83007421D01*
X135215978Y-83065350D01*
X135187856Y-83106128D01*
X135157198Y-83180954D01*
X135157835Y-83235058D01*
X135190013Y-83271446D01*
X135201919Y-83277633D01*
X135253325Y-83296925D01*
X135279578Y-83291982D01*
X135288470Y-83259587D01*
X135288923Y-83241692D01*
X135305203Y-83175859D01*
X135347635Y-83129807D01*
X135406612Y-83107564D01*
X135472525Y-83113161D01*
X135526105Y-83142229D01*
X135544202Y-83158810D01*
X135557029Y-83178925D01*
X135565694Y-83209332D01*
X135571304Y-83256788D01*
X135574965Y-83328050D01*
X135577785Y-83429875D01*
X135578516Y-83462115D01*
X135581180Y-83572410D01*
X135584208Y-83650036D01*
X135588750Y-83701396D01*
X135595954Y-83732890D01*
X135606967Y-83750920D01*
X135622940Y-83761888D01*
X135633166Y-83766733D01*
X135676594Y-83783301D01*
X135702158Y-83788769D01*
X135710605Y-83770507D01*
X135715761Y-83715296D01*
X135717654Y-83622499D01*
X135716311Y-83491478D01*
X135715893Y-83471269D01*
X135712942Y-83351733D01*
X135709452Y-83264449D01*
X135704486Y-83202591D01*
X135697107Y-83159336D01*
X135686376Y-83127860D01*
X135671355Y-83101339D01*
X135663498Y-83089975D01*
X135618447Y-83039692D01*
X135568060Y-83000581D01*
X135561892Y-82997167D01*
X135471542Y-82970212D01*
X135376638Y-82974670D01*
G36*
X136036499Y-82976303D02*
G01*
X135959940Y-83004733D01*
X135959064Y-83005279D01*
X135911715Y-83040127D01*
X135876759Y-83080852D01*
X135852175Y-83133925D01*
X135835938Y-83205814D01*
X135826025Y-83302992D01*
X135820414Y-83431928D01*
X135819923Y-83450298D01*
X135812859Y-83727287D01*
X135872305Y-83758028D01*
X135915319Y-83778802D01*
X135941290Y-83788646D01*
X135942491Y-83788769D01*
X135946986Y-83770606D01*
X135950556Y-83721612D01*
X135952752Y-83650031D01*
X135953231Y-83592068D01*
X135953242Y-83498170D01*
X135957534Y-83439203D01*
X135972497Y-83411079D01*
X136004518Y-83409706D01*
X136059986Y-83430998D01*
X136143731Y-83470136D01*
X136205311Y-83502643D01*
X136236983Y-83530845D01*
X136246294Y-83561582D01*
X136246308Y-83563104D01*
X136230943Y-83616054D01*
X136185453Y-83644660D01*
X136115834Y-83648803D01*
X136065687Y-83648084D01*
X136039246Y-83662527D01*
X136022757Y-83697218D01*
X136013267Y-83741416D01*
X136026943Y-83766493D01*
X136032093Y-83770082D01*
X136080575Y-83784496D01*
X136148469Y-83786537D01*
X136218388Y-83776983D01*
X136267932Y-83759522D01*
X136336430Y-83701364D01*
X136375366Y-83620408D01*
X136383077Y-83557160D01*
X136377193Y-83500111D01*
X136355899Y-83453542D01*
X136313735Y-83412181D01*
X136245241Y-83370755D01*
X136144956Y-83323993D01*
X136138846Y-83321350D01*
X136048510Y-83279617D01*
X135992765Y-83245391D01*
X135968871Y-83214635D01*
X135974087Y-83183311D01*
X136005672Y-83147383D01*
X136015117Y-83139116D01*
X136078383Y-83107058D01*
X136143936Y-83108407D01*
X136201028Y-83139838D01*
X136238907Y-83198024D01*
X136242426Y-83209446D01*
X136276700Y-83264837D01*
X136320191Y-83291518D01*
X136383077Y-83317960D01*
X136383077Y-83249548D01*
X136363948Y-83150110D01*
X136307169Y-83058902D01*
X136277622Y-83028389D01*
X136210458Y-82989228D01*
X136125044Y-82971500D01*
X136036499Y-82976303D01*
X136036499Y-82976303D01*
G37*
X136036499Y-82976303D02*
X135959940Y-83004733D01*
X135959064Y-83005279D01*
X135911715Y-83040127D01*
X135876759Y-83080852D01*
X135852175Y-83133925D01*
X135835938Y-83205814D01*
X135826025Y-83302992D01*
X135820414Y-83431928D01*
X135819923Y-83450298D01*
X135812859Y-83727287D01*
X135872305Y-83758028D01*
X135915319Y-83778802D01*
X135941290Y-83788646D01*
X135942491Y-83788769D01*
X135946986Y-83770606D01*
X135950556Y-83721612D01*
X135952752Y-83650031D01*
X135953231Y-83592068D01*
X135953242Y-83498170D01*
X135957534Y-83439203D01*
X135972497Y-83411079D01*
X136004518Y-83409706D01*
X136059986Y-83430998D01*
X136143731Y-83470136D01*
X136205311Y-83502643D01*
X136236983Y-83530845D01*
X136246294Y-83561582D01*
X136246308Y-83563104D01*
X136230943Y-83616054D01*
X136185453Y-83644660D01*
X136115834Y-83648803D01*
X136065687Y-83648084D01*
X136039246Y-83662527D01*
X136022757Y-83697218D01*
X136013267Y-83741416D01*
X136026943Y-83766493D01*
X136032093Y-83770082D01*
X136080575Y-83784496D01*
X136148469Y-83786537D01*
X136218388Y-83776983D01*
X136267932Y-83759522D01*
X136336430Y-83701364D01*
X136375366Y-83620408D01*
X136383077Y-83557160D01*
X136377193Y-83500111D01*
X136355899Y-83453542D01*
X136313735Y-83412181D01*
X136245241Y-83370755D01*
X136144956Y-83323993D01*
X136138846Y-83321350D01*
X136048510Y-83279617D01*
X135992765Y-83245391D01*
X135968871Y-83214635D01*
X135974087Y-83183311D01*
X136005672Y-83147383D01*
X136015117Y-83139116D01*
X136078383Y-83107058D01*
X136143936Y-83108407D01*
X136201028Y-83139838D01*
X136238907Y-83198024D01*
X136242426Y-83209446D01*
X136276700Y-83264837D01*
X136320191Y-83291518D01*
X136383077Y-83317960D01*
X136383077Y-83249548D01*
X136363948Y-83150110D01*
X136307169Y-83058902D01*
X136277622Y-83028389D01*
X136210458Y-82989228D01*
X136125044Y-82971500D01*
X136036499Y-82976303D01*
G36*
X136930154Y-82842120D02*
G01*
X136924428Y-82921980D01*
X136917851Y-82969039D01*
X136908738Y-82989566D01*
X136895402Y-82989829D01*
X136891077Y-82987378D01*
X136833556Y-82969636D01*
X136758732Y-82970672D01*
X136682661Y-82988910D01*
X136635082Y-83012505D01*
X136586298Y-83050198D01*
X136550636Y-83092855D01*
X136526155Y-83147057D01*
X136510913Y-83219384D01*
X136502970Y-83316419D01*
X136500384Y-83444742D01*
X136500338Y-83469358D01*
X136500308Y-83745870D01*
X136561839Y-83767320D01*
X136605541Y-83781912D01*
X136629518Y-83788706D01*
X136630223Y-83788769D01*
X136632585Y-83770345D01*
X136634594Y-83719526D01*
X136636099Y-83642993D01*
X136636947Y-83547430D01*
X136637077Y-83489329D01*
X136637349Y-83374771D01*
X136638748Y-83292667D01*
X136642151Y-83236393D01*
X136648433Y-83199326D01*
X136658471Y-83174844D01*
X136673139Y-83156325D01*
X136682298Y-83147406D01*
X136745211Y-83111466D01*
X136813864Y-83108775D01*
X136876152Y-83139170D01*
X136887671Y-83150144D01*
X136904567Y-83170779D01*
X136916286Y-83195256D01*
X136923767Y-83230647D01*
X136927946Y-83284026D01*
X136929763Y-83362466D01*
X136930154Y-83470617D01*
X136930154Y-83745870D01*
X136991685Y-83767320D01*
X137035387Y-83781912D01*
X137059364Y-83788706D01*
X137060070Y-83788769D01*
X137061874Y-83770069D01*
X137063500Y-83717322D01*
X137064883Y-83635557D01*
X137065958Y-83529805D01*
X137066660Y-83405094D01*
X137066923Y-83266455D01*
X137066923Y-82731806D01*
X136939923Y-82678236D01*
X136930154Y-82842120D01*
X136930154Y-82842120D01*
G37*
X136930154Y-82842120D02*
X136924428Y-82921980D01*
X136917851Y-82969039D01*
X136908738Y-82989566D01*
X136895402Y-82989829D01*
X136891077Y-82987378D01*
X136833556Y-82969636D01*
X136758732Y-82970672D01*
X136682661Y-82988910D01*
X136635082Y-83012505D01*
X136586298Y-83050198D01*
X136550636Y-83092855D01*
X136526155Y-83147057D01*
X136510913Y-83219384D01*
X136502970Y-83316419D01*
X136500384Y-83444742D01*
X136500338Y-83469358D01*
X136500308Y-83745870D01*
X136561839Y-83767320D01*
X136605541Y-83781912D01*
X136629518Y-83788706D01*
X136630223Y-83788769D01*
X136632585Y-83770345D01*
X136634594Y-83719526D01*
X136636099Y-83642993D01*
X136636947Y-83547430D01*
X136637077Y-83489329D01*
X136637349Y-83374771D01*
X136638748Y-83292667D01*
X136642151Y-83236393D01*
X136648433Y-83199326D01*
X136658471Y-83174844D01*
X136673139Y-83156325D01*
X136682298Y-83147406D01*
X136745211Y-83111466D01*
X136813864Y-83108775D01*
X136876152Y-83139170D01*
X136887671Y-83150144D01*
X136904567Y-83170779D01*
X136916286Y-83195256D01*
X136923767Y-83230647D01*
X136927946Y-83284026D01*
X136929763Y-83362466D01*
X136930154Y-83470617D01*
X136930154Y-83745870D01*
X136991685Y-83767320D01*
X137035387Y-83781912D01*
X137059364Y-83788706D01*
X137060070Y-83788769D01*
X137061874Y-83770069D01*
X137063500Y-83717322D01*
X137064883Y-83635557D01*
X137065958Y-83529805D01*
X137066660Y-83405094D01*
X137066923Y-83266455D01*
X137066923Y-82731806D01*
X136939923Y-82678236D01*
X136930154Y-82842120D01*
G36*
X138555746Y-82949745D02*
G01*
X138478714Y-83001567D01*
X138419184Y-83076412D01*
X138383622Y-83171654D01*
X138376429Y-83241756D01*
X138377246Y-83271009D01*
X138384086Y-83293407D01*
X138402888Y-83313474D01*
X138439592Y-83335733D01*
X138500138Y-83364709D01*
X138590466Y-83404927D01*
X138590923Y-83405129D01*
X138674067Y-83443210D01*
X138742247Y-83477025D01*
X138788495Y-83502933D01*
X138805842Y-83517295D01*
X138805846Y-83517411D01*
X138790557Y-83548685D01*
X138754804Y-83583157D01*
X138713758Y-83607990D01*
X138692963Y-83612923D01*
X138636230Y-83595862D01*
X138587373Y-83553133D01*
X138563535Y-83506155D01*
X138540603Y-83471522D01*
X138495682Y-83432081D01*
X138442877Y-83398009D01*
X138396290Y-83379480D01*
X138386548Y-83378462D01*
X138375582Y-83395215D01*
X138374921Y-83438039D01*
X138382980Y-83495781D01*
X138398173Y-83557289D01*
X138418914Y-83611409D01*
X138419962Y-83613510D01*
X138482379Y-83700660D01*
X138563274Y-83759939D01*
X138655144Y-83789034D01*
X138750487Y-83785634D01*
X138841802Y-83747428D01*
X138845862Y-83744741D01*
X138917694Y-83679642D01*
X138964927Y-83594705D01*
X138991066Y-83483021D01*
X138994574Y-83451643D01*
X139000787Y-83303536D01*
X138993339Y-83234468D01*
X138805846Y-83234468D01*
X138803410Y-83277552D01*
X138790086Y-83290126D01*
X138756868Y-83280719D01*
X138704506Y-83258483D01*
X138645976Y-83230610D01*
X138644521Y-83229872D01*
X138594911Y-83203777D01*
X138575000Y-83186363D01*
X138579910Y-83168107D01*
X138600584Y-83144120D01*
X138653181Y-83109406D01*
X138709823Y-83106856D01*
X138760631Y-83132119D01*
X138795724Y-83180847D01*
X138805846Y-83234468D01*
X138993339Y-83234468D01*
X138988008Y-83185036D01*
X138955222Y-83091055D01*
X138909579Y-83025215D01*
X138827198Y-82958681D01*
X138736454Y-82925676D01*
X138643815Y-82923573D01*
X138555746Y-82949745D01*
X138555746Y-82949745D01*
G37*
X138555746Y-82949745D02*
X138478714Y-83001567D01*
X138419184Y-83076412D01*
X138383622Y-83171654D01*
X138376429Y-83241756D01*
X138377246Y-83271009D01*
X138384086Y-83293407D01*
X138402888Y-83313474D01*
X138439592Y-83335733D01*
X138500138Y-83364709D01*
X138590466Y-83404927D01*
X138590923Y-83405129D01*
X138674067Y-83443210D01*
X138742247Y-83477025D01*
X138788495Y-83502933D01*
X138805842Y-83517295D01*
X138805846Y-83517411D01*
X138790557Y-83548685D01*
X138754804Y-83583157D01*
X138713758Y-83607990D01*
X138692963Y-83612923D01*
X138636230Y-83595862D01*
X138587373Y-83553133D01*
X138563535Y-83506155D01*
X138540603Y-83471522D01*
X138495682Y-83432081D01*
X138442877Y-83398009D01*
X138396290Y-83379480D01*
X138386548Y-83378462D01*
X138375582Y-83395215D01*
X138374921Y-83438039D01*
X138382980Y-83495781D01*
X138398173Y-83557289D01*
X138418914Y-83611409D01*
X138419962Y-83613510D01*
X138482379Y-83700660D01*
X138563274Y-83759939D01*
X138655144Y-83789034D01*
X138750487Y-83785634D01*
X138841802Y-83747428D01*
X138845862Y-83744741D01*
X138917694Y-83679642D01*
X138964927Y-83594705D01*
X138991066Y-83483021D01*
X138994574Y-83451643D01*
X139000787Y-83303536D01*
X138993339Y-83234468D01*
X138805846Y-83234468D01*
X138803410Y-83277552D01*
X138790086Y-83290126D01*
X138756868Y-83280719D01*
X138704506Y-83258483D01*
X138645976Y-83230610D01*
X138644521Y-83229872D01*
X138594911Y-83203777D01*
X138575000Y-83186363D01*
X138579910Y-83168107D01*
X138600584Y-83144120D01*
X138653181Y-83109406D01*
X138709823Y-83106856D01*
X138760631Y-83132119D01*
X138795724Y-83180847D01*
X138805846Y-83234468D01*
X138993339Y-83234468D01*
X138988008Y-83185036D01*
X138955222Y-83091055D01*
X138909579Y-83025215D01*
X138827198Y-82958681D01*
X138736454Y-82925676D01*
X138643815Y-82923573D01*
X138555746Y-82949745D01*
G36*
X140073114Y-82937256D02*
G01*
X139981536Y-82985409D01*
X139913951Y-83062905D01*
X139889943Y-83112727D01*
X139871262Y-83187533D01*
X139861699Y-83282052D01*
X139860792Y-83385210D01*
X139868079Y-83485935D01*
X139883097Y-83573153D01*
X139905385Y-83635791D01*
X139912235Y-83646579D01*
X139993368Y-83727105D01*
X140089734Y-83775336D01*
X140194299Y-83789450D01*
X140300032Y-83767629D01*
X140329457Y-83754547D01*
X140386759Y-83714231D01*
X140437050Y-83660775D01*
X140441803Y-83653995D01*
X140461122Y-83621321D01*
X140473892Y-83586394D01*
X140481436Y-83540414D01*
X140485076Y-83474584D01*
X140486135Y-83380105D01*
X140486154Y-83358923D01*
X140486106Y-83352182D01*
X140290769Y-83352182D01*
X140289632Y-83441349D01*
X140285159Y-83500520D01*
X140275754Y-83538741D01*
X140259824Y-83565053D01*
X140251692Y-83573846D01*
X140204942Y-83607261D01*
X140159553Y-83605737D01*
X140113660Y-83576752D01*
X140086288Y-83545809D01*
X140070077Y-83500643D01*
X140060974Y-83429420D01*
X140060349Y-83421114D01*
X140058796Y-83292037D01*
X140075035Y-83196172D01*
X140108848Y-83134107D01*
X140160016Y-83106432D01*
X140178280Y-83104923D01*
X140226240Y-83112513D01*
X140259047Y-83138808D01*
X140279105Y-83189095D01*
X140288822Y-83268664D01*
X140290769Y-83352182D01*
X140486106Y-83352182D01*
X140485426Y-83258249D01*
X140482371Y-83187906D01*
X140475678Y-83139163D01*
X140464040Y-83103288D01*
X140446147Y-83071548D01*
X140442192Y-83065648D01*
X140375733Y-82986104D01*
X140303315Y-82939929D01*
X140215151Y-82921599D01*
X140185213Y-82920703D01*
X140073114Y-82937256D01*
X140073114Y-82937256D01*
G37*
X140073114Y-82937256D02*
X139981536Y-82985409D01*
X139913951Y-83062905D01*
X139889943Y-83112727D01*
X139871262Y-83187533D01*
X139861699Y-83282052D01*
X139860792Y-83385210D01*
X139868079Y-83485935D01*
X139883097Y-83573153D01*
X139905385Y-83635791D01*
X139912235Y-83646579D01*
X139993368Y-83727105D01*
X140089734Y-83775336D01*
X140194299Y-83789450D01*
X140300032Y-83767629D01*
X140329457Y-83754547D01*
X140386759Y-83714231D01*
X140437050Y-83660775D01*
X140441803Y-83653995D01*
X140461122Y-83621321D01*
X140473892Y-83586394D01*
X140481436Y-83540414D01*
X140485076Y-83474584D01*
X140486135Y-83380105D01*
X140486154Y-83358923D01*
X140486106Y-83352182D01*
X140290769Y-83352182D01*
X140289632Y-83441349D01*
X140285159Y-83500520D01*
X140275754Y-83538741D01*
X140259824Y-83565053D01*
X140251692Y-83573846D01*
X140204942Y-83607261D01*
X140159553Y-83605737D01*
X140113660Y-83576752D01*
X140086288Y-83545809D01*
X140070077Y-83500643D01*
X140060974Y-83429420D01*
X140060349Y-83421114D01*
X140058796Y-83292037D01*
X140075035Y-83196172D01*
X140108848Y-83134107D01*
X140160016Y-83106432D01*
X140178280Y-83104923D01*
X140226240Y-83112513D01*
X140259047Y-83138808D01*
X140279105Y-83189095D01*
X140288822Y-83268664D01*
X140290769Y-83352182D01*
X140486106Y-83352182D01*
X140485426Y-83258249D01*
X140482371Y-83187906D01*
X140475678Y-83139163D01*
X140464040Y-83103288D01*
X140446147Y-83071548D01*
X140442192Y-83065648D01*
X140375733Y-82986104D01*
X140303315Y-82939929D01*
X140215151Y-82921599D01*
X140185213Y-82920703D01*
X140073114Y-82937256D01*
G36*
X137818336Y-82945089D02*
G01*
X137755633Y-82981358D01*
X137712039Y-83017358D01*
X137680155Y-83055075D01*
X137658190Y-83101199D01*
X137644351Y-83162421D01*
X137636847Y-83245431D01*
X137633883Y-83356919D01*
X137633539Y-83437062D01*
X137633539Y-83732065D01*
X137799615Y-83806515D01*
X137809385Y-83483402D01*
X137813421Y-83362729D01*
X137817656Y-83275141D01*
X137822903Y-83214650D01*
X137829975Y-83175268D01*
X137839689Y-83151007D01*
X137852856Y-83135880D01*
X137857081Y-83132606D01*
X137921091Y-83107034D01*
X137985792Y-83117153D01*
X138024308Y-83144000D01*
X138039975Y-83163024D01*
X138050820Y-83187988D01*
X138057712Y-83225834D01*
X138061521Y-83283502D01*
X138063117Y-83367935D01*
X138063385Y-83455928D01*
X138063437Y-83566323D01*
X138065328Y-83644463D01*
X138071655Y-83697165D01*
X138085017Y-83731242D01*
X138108015Y-83753511D01*
X138143246Y-83770787D01*
X138190303Y-83788738D01*
X138241697Y-83808278D01*
X138235579Y-83461485D01*
X138233116Y-83336468D01*
X138230233Y-83244082D01*
X138226102Y-83177881D01*
X138219893Y-83131420D01*
X138210774Y-83098256D01*
X138197917Y-83071944D01*
X138182416Y-83048729D01*
X138107629Y-82974569D01*
X138016372Y-82931684D01*
X137917117Y-82921412D01*
X137818336Y-82945089D01*
X137818336Y-82945089D01*
G37*
X137818336Y-82945089D02*
X137755633Y-82981358D01*
X137712039Y-83017358D01*
X137680155Y-83055075D01*
X137658190Y-83101199D01*
X137644351Y-83162421D01*
X137636847Y-83245431D01*
X137633883Y-83356919D01*
X137633539Y-83437062D01*
X137633539Y-83732065D01*
X137799615Y-83806515D01*
X137809385Y-83483402D01*
X137813421Y-83362729D01*
X137817656Y-83275141D01*
X137822903Y-83214650D01*
X137829975Y-83175268D01*
X137839689Y-83151007D01*
X137852856Y-83135880D01*
X137857081Y-83132606D01*
X137921091Y-83107034D01*
X137985792Y-83117153D01*
X138024308Y-83144000D01*
X138039975Y-83163024D01*
X138050820Y-83187988D01*
X138057712Y-83225834D01*
X138061521Y-83283502D01*
X138063117Y-83367935D01*
X138063385Y-83455928D01*
X138063437Y-83566323D01*
X138065328Y-83644463D01*
X138071655Y-83697165D01*
X138085017Y-83731242D01*
X138108015Y-83753511D01*
X138143246Y-83770787D01*
X138190303Y-83788738D01*
X138241697Y-83808278D01*
X138235579Y-83461485D01*
X138233116Y-83336468D01*
X138230233Y-83244082D01*
X138226102Y-83177881D01*
X138219893Y-83131420D01*
X138210774Y-83098256D01*
X138197917Y-83071944D01*
X138182416Y-83048729D01*
X138107629Y-82974569D01*
X138016372Y-82931684D01*
X137917117Y-82921412D01*
X137818336Y-82945089D01*
G36*
X139321114Y-82934505D02*
G01*
X139246461Y-82971727D01*
X139180569Y-83040261D01*
X139162423Y-83065648D01*
X139142655Y-83098866D01*
X139129828Y-83134945D01*
X139122490Y-83183098D01*
X139119187Y-83252536D01*
X139118462Y-83344206D01*
X139121737Y-83469830D01*
X139133123Y-83564154D01*
X139154959Y-83634523D01*
X139189581Y-83688286D01*
X139239330Y-83732788D01*
X139242986Y-83735423D01*
X139292015Y-83762377D01*
X139351055Y-83775712D01*
X139426141Y-83779000D01*
X139548205Y-83779000D01*
X139548256Y-83897497D01*
X139549392Y-83963492D01*
X139556314Y-84002202D01*
X139574402Y-84025419D01*
X139609038Y-84044933D01*
X139617355Y-84048920D01*
X139656280Y-84067603D01*
X139686417Y-84079403D01*
X139708826Y-84080422D01*
X139724567Y-84066761D01*
X139734698Y-84034522D01*
X139740277Y-83979804D01*
X139742365Y-83898711D01*
X139742019Y-83787344D01*
X139740300Y-83641802D01*
X139739763Y-83598269D01*
X139737828Y-83448205D01*
X139736096Y-83350042D01*
X139548308Y-83350042D01*
X139547252Y-83433364D01*
X139542562Y-83487880D01*
X139531949Y-83523837D01*
X139513128Y-83551482D01*
X139500350Y-83564965D01*
X139448110Y-83604417D01*
X139401858Y-83607628D01*
X139354133Y-83575049D01*
X139352923Y-83573846D01*
X139333506Y-83548668D01*
X139321693Y-83514447D01*
X139315735Y-83461748D01*
X139313880Y-83381131D01*
X139313846Y-83363271D01*
X139318330Y-83252175D01*
X139332926Y-83175161D01*
X139359350Y-83128147D01*
X139399317Y-83107050D01*
X139422416Y-83104923D01*
X139477238Y-83114900D01*
X139514842Y-83147752D01*
X139537477Y-83207857D01*
X139547394Y-83299598D01*
X139548308Y-83350042D01*
X139736096Y-83350042D01*
X139735778Y-83332060D01*
X139733127Y-83244679D01*
X139729394Y-83180905D01*
X139724093Y-83135582D01*
X139716742Y-83103555D01*
X139706857Y-83079668D01*
X139693954Y-83058764D01*
X139688421Y-83050898D01*
X139615031Y-82976595D01*
X139522240Y-82934467D01*
X139414904Y-82922722D01*
X139321114Y-82934505D01*
X139321114Y-82934505D01*
G37*
X139321114Y-82934505D02*
X139246461Y-82971727D01*
X139180569Y-83040261D01*
X139162423Y-83065648D01*
X139142655Y-83098866D01*
X139129828Y-83134945D01*
X139122490Y-83183098D01*
X139119187Y-83252536D01*
X139118462Y-83344206D01*
X139121737Y-83469830D01*
X139133123Y-83564154D01*
X139154959Y-83634523D01*
X139189581Y-83688286D01*
X139239330Y-83732788D01*
X139242986Y-83735423D01*
X139292015Y-83762377D01*
X139351055Y-83775712D01*
X139426141Y-83779000D01*
X139548205Y-83779000D01*
X139548256Y-83897497D01*
X139549392Y-83963492D01*
X139556314Y-84002202D01*
X139574402Y-84025419D01*
X139609038Y-84044933D01*
X139617355Y-84048920D01*
X139656280Y-84067603D01*
X139686417Y-84079403D01*
X139708826Y-84080422D01*
X139724567Y-84066761D01*
X139734698Y-84034522D01*
X139740277Y-83979804D01*
X139742365Y-83898711D01*
X139742019Y-83787344D01*
X139740300Y-83641802D01*
X139739763Y-83598269D01*
X139737828Y-83448205D01*
X139736096Y-83350042D01*
X139548308Y-83350042D01*
X139547252Y-83433364D01*
X139542562Y-83487880D01*
X139531949Y-83523837D01*
X139513128Y-83551482D01*
X139500350Y-83564965D01*
X139448110Y-83604417D01*
X139401858Y-83607628D01*
X139354133Y-83575049D01*
X139352923Y-83573846D01*
X139333506Y-83548668D01*
X139321693Y-83514447D01*
X139315735Y-83461748D01*
X139313880Y-83381131D01*
X139313846Y-83363271D01*
X139318330Y-83252175D01*
X139332926Y-83175161D01*
X139359350Y-83128147D01*
X139399317Y-83107050D01*
X139422416Y-83104923D01*
X139477238Y-83114900D01*
X139514842Y-83147752D01*
X139537477Y-83207857D01*
X139547394Y-83299598D01*
X139548308Y-83350042D01*
X139736096Y-83350042D01*
X139735778Y-83332060D01*
X139733127Y-83244679D01*
X139729394Y-83180905D01*
X139724093Y-83135582D01*
X139716742Y-83103555D01*
X139706857Y-83079668D01*
X139693954Y-83058764D01*
X139688421Y-83050898D01*
X139615031Y-82976595D01*
X139522240Y-82934467D01*
X139414904Y-82922722D01*
X139321114Y-82934505D01*
D17*
X140925000Y-92900000D02*
X142325000Y-92900000D01*
X143025000Y-92200000D02*
X143025000Y-91600000D01*
X142325000Y-90900000D02*
X140925000Y-90900000D01*
X140225000Y-91600000D02*
X140225000Y-92200000D01*
X140225000Y-92200000D02*
G75*
G03X140925000Y-92900000I700000J0D01*
G01*
X140925000Y-90900000D02*
G75*
G03X140225000Y-91600000I0J-700000D01*
G01*
X143025000Y-91600000D02*
G75*
G03X142325000Y-90900000I-700000J0D01*
G01*
X142325000Y-92900000D02*
G75*
G03X143025000Y-92200000I0J700000D01*
G01*
X146640000Y-78950000D02*
G75*
G03X145940000Y-78250000I-700000J0D01*
G01*
X145340000Y-78250000D02*
G75*
G03X144640000Y-78950000I0J-700000D01*
G01*
X144640000Y-80350000D02*
G75*
G03X145340000Y-81050000I700000J0D01*
G01*
X145940000Y-81050000D02*
G75*
G03X146640000Y-80350000I0J700000D01*
G01*
X145340000Y-81050000D02*
X145940000Y-81050000D01*
X144640000Y-78950000D02*
X144640000Y-80350000D01*
X145940000Y-78250000D02*
X145340000Y-78250000D01*
X146640000Y-80350000D02*
X146640000Y-78950000D01*
X143475000Y-87100000D02*
X142075000Y-87100000D01*
X141375000Y-87800000D02*
X141375000Y-88400000D01*
X142075000Y-89100000D02*
X143475000Y-89100000D01*
X144175000Y-88400000D02*
X144175000Y-87800000D01*
X144175000Y-87800000D02*
G75*
G03X143475000Y-87100000I-700000J0D01*
G01*
X143475000Y-89100000D02*
G75*
G03X144175000Y-88400000I0J700000D01*
G01*
X141375000Y-88400000D02*
G75*
G03X142075000Y-89100000I700000J0D01*
G01*
X142075000Y-87100000D02*
G75*
G03X141375000Y-87800000I0J-700000D01*
G01*
X140060000Y-101270000D02*
G75*
G03X139360000Y-100570000I-700000J0D01*
G01*
X138760000Y-100570000D02*
G75*
G03X138060000Y-101270000I0J-700000D01*
G01*
X138060000Y-102670000D02*
G75*
G03X138760000Y-103370000I700000J0D01*
G01*
X139360000Y-103370000D02*
G75*
G03X140060000Y-102670000I0J700000D01*
G01*
X138760000Y-103370000D02*
X139360000Y-103370000D01*
X138060000Y-101270000D02*
X138060000Y-102670000D01*
X139360000Y-100570000D02*
X138760000Y-100570000D01*
X140060000Y-102670000D02*
X140060000Y-101270000D01*
D18*
X139727332Y-91859285D02*
X139794296Y-92395000D01*
X139850546Y-92502142D01*
X139945189Y-92573571D01*
X140078225Y-92609285D01*
X140163939Y-92609285D01*
X139392511Y-92609285D02*
X139298761Y-91859285D01*
X138955904Y-91859285D01*
X138874654Y-91895000D01*
X138836261Y-91930714D01*
X138802332Y-92002142D01*
X138815725Y-92109285D01*
X138867511Y-92180714D01*
X138914832Y-92216428D01*
X139005011Y-92252142D01*
X139347868Y-92252142D01*
X138450546Y-91930714D02*
X138403225Y-91895000D01*
X138313046Y-91859285D01*
X138098761Y-91859285D01*
X138017511Y-91895000D01*
X137979118Y-91930714D01*
X137945189Y-92002142D01*
X137954118Y-92073571D01*
X138010368Y-92180714D01*
X138578225Y-92609285D01*
X138021082Y-92609285D01*
X146317332Y-77239285D02*
X146384296Y-77775000D01*
X146440546Y-77882142D01*
X146535189Y-77953571D01*
X146668225Y-77989285D01*
X146753939Y-77989285D01*
X145982511Y-77989285D02*
X145888761Y-77239285D01*
X145545904Y-77239285D01*
X145464654Y-77275000D01*
X145426261Y-77310714D01*
X145392332Y-77382142D01*
X145405725Y-77489285D01*
X145457511Y-77560714D01*
X145504832Y-77596428D01*
X145595011Y-77632142D01*
X145937868Y-77632142D01*
X145074475Y-77239285D02*
X144517332Y-77239285D01*
X144853046Y-77525000D01*
X144724475Y-77525000D01*
X144643225Y-77560714D01*
X144604832Y-77596428D01*
X144570904Y-77667857D01*
X144593225Y-77846428D01*
X144645011Y-77917857D01*
X144692332Y-77953571D01*
X144782511Y-77989285D01*
X145039654Y-77989285D01*
X145120904Y-77953571D01*
X145159296Y-77917857D01*
X140717332Y-87569285D02*
X140784296Y-88105000D01*
X140840546Y-88212142D01*
X140935189Y-88283571D01*
X141068225Y-88319285D01*
X141153939Y-88319285D01*
X140382511Y-88319285D02*
X140288761Y-87569285D01*
X139945904Y-87569285D01*
X139864654Y-87605000D01*
X139826261Y-87640714D01*
X139792332Y-87712142D01*
X139805725Y-87819285D01*
X139857511Y-87890714D01*
X139904832Y-87926428D01*
X139995011Y-87962142D01*
X140337868Y-87962142D01*
X139034296Y-87819285D02*
X139096796Y-88319285D01*
X139212868Y-87533571D02*
X139494118Y-88069285D01*
X138936975Y-88069285D01*
X137417332Y-100439285D02*
X137484296Y-100975000D01*
X137540546Y-101082142D01*
X137635189Y-101153571D01*
X137768225Y-101189285D01*
X137853939Y-101189285D01*
X137082511Y-101189285D02*
X136988761Y-100439285D01*
X136645904Y-100439285D01*
X136564654Y-100475000D01*
X136526261Y-100510714D01*
X136492332Y-100582142D01*
X136505725Y-100689285D01*
X136557511Y-100760714D01*
X136604832Y-100796428D01*
X136695011Y-100832142D01*
X137037868Y-100832142D01*
X135660189Y-100439285D02*
X136088761Y-100439285D01*
X136176261Y-100796428D01*
X136128939Y-100760714D01*
X136038761Y-100725000D01*
X135824475Y-100725000D01*
X135743225Y-100760714D01*
X135704832Y-100796428D01*
X135670904Y-100867857D01*
X135693225Y-101046428D01*
X135745011Y-101117857D01*
X135792332Y-101153571D01*
X135882511Y-101189285D01*
X136096796Y-101189285D01*
X136178046Y-101153571D01*
X136216439Y-101117857D01*
M02*
