G04 #@! TF.GenerationSoftware,KiCad,Pcbnew,(5.0.1-3-g963ef8bb5)*
G04 #@! TF.CreationDate,2019-03-11T11:49:31+01:00*
G04 #@! TF.ProjectId,TLM-v1,544C4D2D76312E6B696361645F706362,1.1*
G04 #@! TF.SameCoordinates,Original*
G04 #@! TF.FileFunction,Copper,L4,Bot,Signal*
G04 #@! TF.FilePolarity,Positive*
%FSLAX46Y46*%
G04 Gerber Fmt 4.6, Leading zero omitted, Abs format (unit mm)*
G04 Created by KiCad (PCBNEW (5.0.1-3-g963ef8bb5)) date 2019 March 11, Monday 11:49:31*
%MOMM*%
%LPD*%
G01*
G04 APERTURE LIST*
G04 #@! TA.AperFunction,Conductor*
%ADD10C,0.100000*%
G04 #@! TD*
G04 #@! TA.AperFunction,ComponentPad*
%ADD11C,0.900000*%
G04 #@! TD*
G04 #@! TA.AperFunction,ConnectorPad*
%ADD12C,0.700000*%
G04 #@! TD*
G04 #@! TA.AperFunction,ViaPad*
%ADD13C,0.355600*%
G04 #@! TD*
G04 #@! TA.AperFunction,ViaPad*
%ADD14C,0.482600*%
G04 #@! TD*
G04 #@! TA.AperFunction,Conductor*
%ADD15C,0.127000*%
G04 #@! TD*
G04 #@! TA.AperFunction,Conductor*
%ADD16C,0.508000*%
G04 #@! TD*
G04 #@! TA.AperFunction,Conductor*
%ADD17C,0.635000*%
G04 #@! TD*
G04 #@! TA.AperFunction,Conductor*
%ADD18C,0.101600*%
G04 #@! TD*
G04 #@! TA.AperFunction,Conductor*
%ADD19C,0.152400*%
G04 #@! TD*
G04 #@! TA.AperFunction,Conductor*
%ADD20C,0.381000*%
G04 #@! TD*
G04 #@! TA.AperFunction,Conductor*
%ADD21C,0.203200*%
G04 #@! TD*
G04 #@! TA.AperFunction,Conductor*
%ADD22C,0.200000*%
G04 #@! TD*
G04 APERTURE END LIST*
D10*
G04 #@! TO.N,GND*
G04 #@! TO.C,U1*
G36*
X129873643Y-75750867D02*
X129891116Y-75753459D01*
X129908251Y-75757751D01*
X129924883Y-75763702D01*
X129940851Y-75771254D01*
X129956003Y-75780335D01*
X129970191Y-75790858D01*
X129983279Y-75802721D01*
X129995142Y-75815809D01*
X130005665Y-75829997D01*
X130014746Y-75845149D01*
X130022298Y-75861117D01*
X130028249Y-75877749D01*
X130032541Y-75894884D01*
X130035133Y-75912357D01*
X130036000Y-75930000D01*
X130036000Y-76470000D01*
X130035133Y-76487643D01*
X130032541Y-76505116D01*
X130028249Y-76522251D01*
X130022298Y-76538883D01*
X130014746Y-76554851D01*
X130005665Y-76570003D01*
X129995142Y-76584191D01*
X129983279Y-76597279D01*
X129970191Y-76609142D01*
X129956003Y-76619665D01*
X129940851Y-76628746D01*
X129924883Y-76636298D01*
X129908251Y-76642249D01*
X129891116Y-76646541D01*
X129873643Y-76649133D01*
X129856000Y-76650000D01*
X129016000Y-76650000D01*
X128998357Y-76649133D01*
X128980884Y-76646541D01*
X128963749Y-76642249D01*
X128947117Y-76636298D01*
X128931149Y-76628746D01*
X128915997Y-76619665D01*
X128901809Y-76609142D01*
X128888721Y-76597279D01*
X128876858Y-76584191D01*
X128866335Y-76570003D01*
X128857254Y-76554851D01*
X128849702Y-76538883D01*
X128843751Y-76522251D01*
X128839459Y-76505116D01*
X128836867Y-76487643D01*
X128836000Y-76470000D01*
X128836000Y-75930000D01*
X128836867Y-75912357D01*
X128839459Y-75894884D01*
X128843751Y-75877749D01*
X128849702Y-75861117D01*
X128857254Y-75845149D01*
X128866335Y-75829997D01*
X128876858Y-75815809D01*
X128888721Y-75802721D01*
X128901809Y-75790858D01*
X128915997Y-75780335D01*
X128931149Y-75771254D01*
X128947117Y-75763702D01*
X128963749Y-75757751D01*
X128980884Y-75753459D01*
X128998357Y-75750867D01*
X129016000Y-75750000D01*
X129856000Y-75750000D01*
X129873643Y-75750867D01*
X129873643Y-75750867D01*
G37*
D11*
G04 #@! TD*
G04 #@! TO.P,U1,1*
G04 #@! TO.N,GND*
X129436000Y-76200000D03*
D10*
G04 #@! TO.N,GND*
G04 #@! TO.C,U1*
G36*
X130309722Y-75750674D02*
X130323313Y-75752690D01*
X130336640Y-75756028D01*
X130349576Y-75760657D01*
X130361996Y-75766531D01*
X130373780Y-75773594D01*
X130384815Y-75781779D01*
X130394995Y-75791005D01*
X130404221Y-75801185D01*
X130412406Y-75812220D01*
X130419469Y-75824004D01*
X130425343Y-75836424D01*
X130429972Y-75849360D01*
X130433310Y-75862687D01*
X130435326Y-75876278D01*
X130436000Y-75890000D01*
X130436000Y-76510000D01*
X130435326Y-76523722D01*
X130433310Y-76537313D01*
X130429972Y-76550640D01*
X130425343Y-76563576D01*
X130419469Y-76575996D01*
X130412406Y-76587780D01*
X130404221Y-76598815D01*
X130394995Y-76608995D01*
X130384815Y-76618221D01*
X130373780Y-76626406D01*
X130361996Y-76633469D01*
X130349576Y-76639343D01*
X130336640Y-76643972D01*
X130323313Y-76647310D01*
X130309722Y-76649326D01*
X130296000Y-76650000D01*
X129876000Y-76650000D01*
X129862278Y-76649326D01*
X129848687Y-76647310D01*
X129835360Y-76643972D01*
X129822424Y-76639343D01*
X129810004Y-76633469D01*
X129798220Y-76626406D01*
X129787185Y-76618221D01*
X129777005Y-76608995D01*
X129767779Y-76598815D01*
X129759594Y-76587780D01*
X129752531Y-76575996D01*
X129746657Y-76563576D01*
X129742028Y-76550640D01*
X129738690Y-76537313D01*
X129736674Y-76523722D01*
X129736000Y-76510000D01*
X129736000Y-75890000D01*
X129736674Y-75876278D01*
X129738690Y-75862687D01*
X129742028Y-75849360D01*
X129746657Y-75836424D01*
X129752531Y-75824004D01*
X129759594Y-75812220D01*
X129767779Y-75801185D01*
X129777005Y-75791005D01*
X129787185Y-75781779D01*
X129798220Y-75773594D01*
X129810004Y-75766531D01*
X129822424Y-75760657D01*
X129835360Y-75756028D01*
X129848687Y-75752690D01*
X129862278Y-75750674D01*
X129876000Y-75750000D01*
X130296000Y-75750000D01*
X130309722Y-75750674D01*
X130309722Y-75750674D01*
G37*
D12*
G04 #@! TD*
G04 #@! TO.P,U1,1*
G04 #@! TO.N,GND*
X130086000Y-76200000D03*
D10*
G04 #@! TO.N,PA06_ADC6*
G04 #@! TO.C,U1*
G36*
X129873643Y-77020867D02*
X129891116Y-77023459D01*
X129908251Y-77027751D01*
X129924883Y-77033702D01*
X129940851Y-77041254D01*
X129956003Y-77050335D01*
X129970191Y-77060858D01*
X129983279Y-77072721D01*
X129995142Y-77085809D01*
X130005665Y-77099997D01*
X130014746Y-77115149D01*
X130022298Y-77131117D01*
X130028249Y-77147749D01*
X130032541Y-77164884D01*
X130035133Y-77182357D01*
X130036000Y-77200000D01*
X130036000Y-77740000D01*
X130035133Y-77757643D01*
X130032541Y-77775116D01*
X130028249Y-77792251D01*
X130022298Y-77808883D01*
X130014746Y-77824851D01*
X130005665Y-77840003D01*
X129995142Y-77854191D01*
X129983279Y-77867279D01*
X129970191Y-77879142D01*
X129956003Y-77889665D01*
X129940851Y-77898746D01*
X129924883Y-77906298D01*
X129908251Y-77912249D01*
X129891116Y-77916541D01*
X129873643Y-77919133D01*
X129856000Y-77920000D01*
X129016000Y-77920000D01*
X128998357Y-77919133D01*
X128980884Y-77916541D01*
X128963749Y-77912249D01*
X128947117Y-77906298D01*
X128931149Y-77898746D01*
X128915997Y-77889665D01*
X128901809Y-77879142D01*
X128888721Y-77867279D01*
X128876858Y-77854191D01*
X128866335Y-77840003D01*
X128857254Y-77824851D01*
X128849702Y-77808883D01*
X128843751Y-77792251D01*
X128839459Y-77775116D01*
X128836867Y-77757643D01*
X128836000Y-77740000D01*
X128836000Y-77200000D01*
X128836867Y-77182357D01*
X128839459Y-77164884D01*
X128843751Y-77147749D01*
X128849702Y-77131117D01*
X128857254Y-77115149D01*
X128866335Y-77099997D01*
X128876858Y-77085809D01*
X128888721Y-77072721D01*
X128901809Y-77060858D01*
X128915997Y-77050335D01*
X128931149Y-77041254D01*
X128947117Y-77033702D01*
X128963749Y-77027751D01*
X128980884Y-77023459D01*
X128998357Y-77020867D01*
X129016000Y-77020000D01*
X129856000Y-77020000D01*
X129873643Y-77020867D01*
X129873643Y-77020867D01*
G37*
D11*
G04 #@! TD*
G04 #@! TO.P,U1,2*
G04 #@! TO.N,PA06_ADC6*
X129436000Y-77470000D03*
D10*
G04 #@! TO.N,PA27_GPIO*
G04 #@! TO.C,U1*
G36*
X129873643Y-78290867D02*
X129891116Y-78293459D01*
X129908251Y-78297751D01*
X129924883Y-78303702D01*
X129940851Y-78311254D01*
X129956003Y-78320335D01*
X129970191Y-78330858D01*
X129983279Y-78342721D01*
X129995142Y-78355809D01*
X130005665Y-78369997D01*
X130014746Y-78385149D01*
X130022298Y-78401117D01*
X130028249Y-78417749D01*
X130032541Y-78434884D01*
X130035133Y-78452357D01*
X130036000Y-78470000D01*
X130036000Y-79010000D01*
X130035133Y-79027643D01*
X130032541Y-79045116D01*
X130028249Y-79062251D01*
X130022298Y-79078883D01*
X130014746Y-79094851D01*
X130005665Y-79110003D01*
X129995142Y-79124191D01*
X129983279Y-79137279D01*
X129970191Y-79149142D01*
X129956003Y-79159665D01*
X129940851Y-79168746D01*
X129924883Y-79176298D01*
X129908251Y-79182249D01*
X129891116Y-79186541D01*
X129873643Y-79189133D01*
X129856000Y-79190000D01*
X129016000Y-79190000D01*
X128998357Y-79189133D01*
X128980884Y-79186541D01*
X128963749Y-79182249D01*
X128947117Y-79176298D01*
X128931149Y-79168746D01*
X128915997Y-79159665D01*
X128901809Y-79149142D01*
X128888721Y-79137279D01*
X128876858Y-79124191D01*
X128866335Y-79110003D01*
X128857254Y-79094851D01*
X128849702Y-79078883D01*
X128843751Y-79062251D01*
X128839459Y-79045116D01*
X128836867Y-79027643D01*
X128836000Y-79010000D01*
X128836000Y-78470000D01*
X128836867Y-78452357D01*
X128839459Y-78434884D01*
X128843751Y-78417749D01*
X128849702Y-78401117D01*
X128857254Y-78385149D01*
X128866335Y-78369997D01*
X128876858Y-78355809D01*
X128888721Y-78342721D01*
X128901809Y-78330858D01*
X128915997Y-78320335D01*
X128931149Y-78311254D01*
X128947117Y-78303702D01*
X128963749Y-78297751D01*
X128980884Y-78293459D01*
X128998357Y-78290867D01*
X129016000Y-78290000D01*
X129856000Y-78290000D01*
X129873643Y-78290867D01*
X129873643Y-78290867D01*
G37*
D11*
G04 #@! TD*
G04 #@! TO.P,U1,3*
G04 #@! TO.N,PA27_GPIO*
X129436000Y-78740000D03*
D10*
G04 #@! TO.N,PA07_ADC7*
G04 #@! TO.C,U1*
G36*
X129873643Y-79560867D02*
X129891116Y-79563459D01*
X129908251Y-79567751D01*
X129924883Y-79573702D01*
X129940851Y-79581254D01*
X129956003Y-79590335D01*
X129970191Y-79600858D01*
X129983279Y-79612721D01*
X129995142Y-79625809D01*
X130005665Y-79639997D01*
X130014746Y-79655149D01*
X130022298Y-79671117D01*
X130028249Y-79687749D01*
X130032541Y-79704884D01*
X130035133Y-79722357D01*
X130036000Y-79740000D01*
X130036000Y-80280000D01*
X130035133Y-80297643D01*
X130032541Y-80315116D01*
X130028249Y-80332251D01*
X130022298Y-80348883D01*
X130014746Y-80364851D01*
X130005665Y-80380003D01*
X129995142Y-80394191D01*
X129983279Y-80407279D01*
X129970191Y-80419142D01*
X129956003Y-80429665D01*
X129940851Y-80438746D01*
X129924883Y-80446298D01*
X129908251Y-80452249D01*
X129891116Y-80456541D01*
X129873643Y-80459133D01*
X129856000Y-80460000D01*
X129016000Y-80460000D01*
X128998357Y-80459133D01*
X128980884Y-80456541D01*
X128963749Y-80452249D01*
X128947117Y-80446298D01*
X128931149Y-80438746D01*
X128915997Y-80429665D01*
X128901809Y-80419142D01*
X128888721Y-80407279D01*
X128876858Y-80394191D01*
X128866335Y-80380003D01*
X128857254Y-80364851D01*
X128849702Y-80348883D01*
X128843751Y-80332251D01*
X128839459Y-80315116D01*
X128836867Y-80297643D01*
X128836000Y-80280000D01*
X128836000Y-79740000D01*
X128836867Y-79722357D01*
X128839459Y-79704884D01*
X128843751Y-79687749D01*
X128849702Y-79671117D01*
X128857254Y-79655149D01*
X128866335Y-79639997D01*
X128876858Y-79625809D01*
X128888721Y-79612721D01*
X128901809Y-79600858D01*
X128915997Y-79590335D01*
X128931149Y-79581254D01*
X128947117Y-79573702D01*
X128963749Y-79567751D01*
X128980884Y-79563459D01*
X128998357Y-79560867D01*
X129016000Y-79560000D01*
X129856000Y-79560000D01*
X129873643Y-79560867D01*
X129873643Y-79560867D01*
G37*
D11*
G04 #@! TD*
G04 #@! TO.P,U1,4*
G04 #@! TO.N,PA07_ADC7*
X129436000Y-80010000D03*
D10*
G04 #@! TO.N,PB22_S5_SPI_MOSI*
G04 #@! TO.C,U1*
G36*
X129873643Y-80830867D02*
X129891116Y-80833459D01*
X129908251Y-80837751D01*
X129924883Y-80843702D01*
X129940851Y-80851254D01*
X129956003Y-80860335D01*
X129970191Y-80870858D01*
X129983279Y-80882721D01*
X129995142Y-80895809D01*
X130005665Y-80909997D01*
X130014746Y-80925149D01*
X130022298Y-80941117D01*
X130028249Y-80957749D01*
X130032541Y-80974884D01*
X130035133Y-80992357D01*
X130036000Y-81010000D01*
X130036000Y-81550000D01*
X130035133Y-81567643D01*
X130032541Y-81585116D01*
X130028249Y-81602251D01*
X130022298Y-81618883D01*
X130014746Y-81634851D01*
X130005665Y-81650003D01*
X129995142Y-81664191D01*
X129983279Y-81677279D01*
X129970191Y-81689142D01*
X129956003Y-81699665D01*
X129940851Y-81708746D01*
X129924883Y-81716298D01*
X129908251Y-81722249D01*
X129891116Y-81726541D01*
X129873643Y-81729133D01*
X129856000Y-81730000D01*
X129016000Y-81730000D01*
X128998357Y-81729133D01*
X128980884Y-81726541D01*
X128963749Y-81722249D01*
X128947117Y-81716298D01*
X128931149Y-81708746D01*
X128915997Y-81699665D01*
X128901809Y-81689142D01*
X128888721Y-81677279D01*
X128876858Y-81664191D01*
X128866335Y-81650003D01*
X128857254Y-81634851D01*
X128849702Y-81618883D01*
X128843751Y-81602251D01*
X128839459Y-81585116D01*
X128836867Y-81567643D01*
X128836000Y-81550000D01*
X128836000Y-81010000D01*
X128836867Y-80992357D01*
X128839459Y-80974884D01*
X128843751Y-80957749D01*
X128849702Y-80941117D01*
X128857254Y-80925149D01*
X128866335Y-80909997D01*
X128876858Y-80895809D01*
X128888721Y-80882721D01*
X128901809Y-80870858D01*
X128915997Y-80860335D01*
X128931149Y-80851254D01*
X128947117Y-80843702D01*
X128963749Y-80837751D01*
X128980884Y-80833459D01*
X128998357Y-80830867D01*
X129016000Y-80830000D01*
X129856000Y-80830000D01*
X129873643Y-80830867D01*
X129873643Y-80830867D01*
G37*
D11*
G04 #@! TD*
G04 #@! TO.P,U1,5*
G04 #@! TO.N,PB22_S5_SPI_MOSI*
X129436000Y-81280000D03*
D10*
G04 #@! TO.N,PA08_GPIO*
G04 #@! TO.C,U1*
G36*
X129873643Y-82100867D02*
X129891116Y-82103459D01*
X129908251Y-82107751D01*
X129924883Y-82113702D01*
X129940851Y-82121254D01*
X129956003Y-82130335D01*
X129970191Y-82140858D01*
X129983279Y-82152721D01*
X129995142Y-82165809D01*
X130005665Y-82179997D01*
X130014746Y-82195149D01*
X130022298Y-82211117D01*
X130028249Y-82227749D01*
X130032541Y-82244884D01*
X130035133Y-82262357D01*
X130036000Y-82280000D01*
X130036000Y-82820000D01*
X130035133Y-82837643D01*
X130032541Y-82855116D01*
X130028249Y-82872251D01*
X130022298Y-82888883D01*
X130014746Y-82904851D01*
X130005665Y-82920003D01*
X129995142Y-82934191D01*
X129983279Y-82947279D01*
X129970191Y-82959142D01*
X129956003Y-82969665D01*
X129940851Y-82978746D01*
X129924883Y-82986298D01*
X129908251Y-82992249D01*
X129891116Y-82996541D01*
X129873643Y-82999133D01*
X129856000Y-83000000D01*
X129016000Y-83000000D01*
X128998357Y-82999133D01*
X128980884Y-82996541D01*
X128963749Y-82992249D01*
X128947117Y-82986298D01*
X128931149Y-82978746D01*
X128915997Y-82969665D01*
X128901809Y-82959142D01*
X128888721Y-82947279D01*
X128876858Y-82934191D01*
X128866335Y-82920003D01*
X128857254Y-82904851D01*
X128849702Y-82888883D01*
X128843751Y-82872251D01*
X128839459Y-82855116D01*
X128836867Y-82837643D01*
X128836000Y-82820000D01*
X128836000Y-82280000D01*
X128836867Y-82262357D01*
X128839459Y-82244884D01*
X128843751Y-82227749D01*
X128849702Y-82211117D01*
X128857254Y-82195149D01*
X128866335Y-82179997D01*
X128876858Y-82165809D01*
X128888721Y-82152721D01*
X128901809Y-82140858D01*
X128915997Y-82130335D01*
X128931149Y-82121254D01*
X128947117Y-82113702D01*
X128963749Y-82107751D01*
X128980884Y-82103459D01*
X128998357Y-82100867D01*
X129016000Y-82100000D01*
X129856000Y-82100000D01*
X129873643Y-82100867D01*
X129873643Y-82100867D01*
G37*
D11*
G04 #@! TD*
G04 #@! TO.P,U1,6*
G04 #@! TO.N,PA08_GPIO*
X129436000Y-82550000D03*
D10*
G04 #@! TO.N,PB23_S5_SPI_SCK*
G04 #@! TO.C,U1*
G36*
X129873643Y-83370867D02*
X129891116Y-83373459D01*
X129908251Y-83377751D01*
X129924883Y-83383702D01*
X129940851Y-83391254D01*
X129956003Y-83400335D01*
X129970191Y-83410858D01*
X129983279Y-83422721D01*
X129995142Y-83435809D01*
X130005665Y-83449997D01*
X130014746Y-83465149D01*
X130022298Y-83481117D01*
X130028249Y-83497749D01*
X130032541Y-83514884D01*
X130035133Y-83532357D01*
X130036000Y-83550000D01*
X130036000Y-84090000D01*
X130035133Y-84107643D01*
X130032541Y-84125116D01*
X130028249Y-84142251D01*
X130022298Y-84158883D01*
X130014746Y-84174851D01*
X130005665Y-84190003D01*
X129995142Y-84204191D01*
X129983279Y-84217279D01*
X129970191Y-84229142D01*
X129956003Y-84239665D01*
X129940851Y-84248746D01*
X129924883Y-84256298D01*
X129908251Y-84262249D01*
X129891116Y-84266541D01*
X129873643Y-84269133D01*
X129856000Y-84270000D01*
X129016000Y-84270000D01*
X128998357Y-84269133D01*
X128980884Y-84266541D01*
X128963749Y-84262249D01*
X128947117Y-84256298D01*
X128931149Y-84248746D01*
X128915997Y-84239665D01*
X128901809Y-84229142D01*
X128888721Y-84217279D01*
X128876858Y-84204191D01*
X128866335Y-84190003D01*
X128857254Y-84174851D01*
X128849702Y-84158883D01*
X128843751Y-84142251D01*
X128839459Y-84125116D01*
X128836867Y-84107643D01*
X128836000Y-84090000D01*
X128836000Y-83550000D01*
X128836867Y-83532357D01*
X128839459Y-83514884D01*
X128843751Y-83497749D01*
X128849702Y-83481117D01*
X128857254Y-83465149D01*
X128866335Y-83449997D01*
X128876858Y-83435809D01*
X128888721Y-83422721D01*
X128901809Y-83410858D01*
X128915997Y-83400335D01*
X128931149Y-83391254D01*
X128947117Y-83383702D01*
X128963749Y-83377751D01*
X128980884Y-83373459D01*
X128998357Y-83370867D01*
X129016000Y-83370000D01*
X129856000Y-83370000D01*
X129873643Y-83370867D01*
X129873643Y-83370867D01*
G37*
D11*
G04 #@! TD*
G04 #@! TO.P,U1,7*
G04 #@! TO.N,PB23_S5_SPI_SCK*
X129436000Y-83820000D03*
D10*
G04 #@! TO.N,PA17_S1_I2C_SCL*
G04 #@! TO.C,U1*
G36*
X129873643Y-84640867D02*
X129891116Y-84643459D01*
X129908251Y-84647751D01*
X129924883Y-84653702D01*
X129940851Y-84661254D01*
X129956003Y-84670335D01*
X129970191Y-84680858D01*
X129983279Y-84692721D01*
X129995142Y-84705809D01*
X130005665Y-84719997D01*
X130014746Y-84735149D01*
X130022298Y-84751117D01*
X130028249Y-84767749D01*
X130032541Y-84784884D01*
X130035133Y-84802357D01*
X130036000Y-84820000D01*
X130036000Y-85360000D01*
X130035133Y-85377643D01*
X130032541Y-85395116D01*
X130028249Y-85412251D01*
X130022298Y-85428883D01*
X130014746Y-85444851D01*
X130005665Y-85460003D01*
X129995142Y-85474191D01*
X129983279Y-85487279D01*
X129970191Y-85499142D01*
X129956003Y-85509665D01*
X129940851Y-85518746D01*
X129924883Y-85526298D01*
X129908251Y-85532249D01*
X129891116Y-85536541D01*
X129873643Y-85539133D01*
X129856000Y-85540000D01*
X129016000Y-85540000D01*
X128998357Y-85539133D01*
X128980884Y-85536541D01*
X128963749Y-85532249D01*
X128947117Y-85526298D01*
X128931149Y-85518746D01*
X128915997Y-85509665D01*
X128901809Y-85499142D01*
X128888721Y-85487279D01*
X128876858Y-85474191D01*
X128866335Y-85460003D01*
X128857254Y-85444851D01*
X128849702Y-85428883D01*
X128843751Y-85412251D01*
X128839459Y-85395116D01*
X128836867Y-85377643D01*
X128836000Y-85360000D01*
X128836000Y-84820000D01*
X128836867Y-84802357D01*
X128839459Y-84784884D01*
X128843751Y-84767749D01*
X128849702Y-84751117D01*
X128857254Y-84735149D01*
X128866335Y-84719997D01*
X128876858Y-84705809D01*
X128888721Y-84692721D01*
X128901809Y-84680858D01*
X128915997Y-84670335D01*
X128931149Y-84661254D01*
X128947117Y-84653702D01*
X128963749Y-84647751D01*
X128980884Y-84643459D01*
X128998357Y-84640867D01*
X129016000Y-84640000D01*
X129856000Y-84640000D01*
X129873643Y-84640867D01*
X129873643Y-84640867D01*
G37*
D11*
G04 #@! TD*
G04 #@! TO.P,U1,8*
G04 #@! TO.N,PA17_S1_I2C_SCL*
X129436000Y-85090000D03*
D10*
G04 #@! TO.N,PA16_S1_I2C_SDA*
G04 #@! TO.C,U1*
G36*
X129873643Y-85910867D02*
X129891116Y-85913459D01*
X129908251Y-85917751D01*
X129924883Y-85923702D01*
X129940851Y-85931254D01*
X129956003Y-85940335D01*
X129970191Y-85950858D01*
X129983279Y-85962721D01*
X129995142Y-85975809D01*
X130005665Y-85989997D01*
X130014746Y-86005149D01*
X130022298Y-86021117D01*
X130028249Y-86037749D01*
X130032541Y-86054884D01*
X130035133Y-86072357D01*
X130036000Y-86090000D01*
X130036000Y-86630000D01*
X130035133Y-86647643D01*
X130032541Y-86665116D01*
X130028249Y-86682251D01*
X130022298Y-86698883D01*
X130014746Y-86714851D01*
X130005665Y-86730003D01*
X129995142Y-86744191D01*
X129983279Y-86757279D01*
X129970191Y-86769142D01*
X129956003Y-86779665D01*
X129940851Y-86788746D01*
X129924883Y-86796298D01*
X129908251Y-86802249D01*
X129891116Y-86806541D01*
X129873643Y-86809133D01*
X129856000Y-86810000D01*
X129016000Y-86810000D01*
X128998357Y-86809133D01*
X128980884Y-86806541D01*
X128963749Y-86802249D01*
X128947117Y-86796298D01*
X128931149Y-86788746D01*
X128915997Y-86779665D01*
X128901809Y-86769142D01*
X128888721Y-86757279D01*
X128876858Y-86744191D01*
X128866335Y-86730003D01*
X128857254Y-86714851D01*
X128849702Y-86698883D01*
X128843751Y-86682251D01*
X128839459Y-86665116D01*
X128836867Y-86647643D01*
X128836000Y-86630000D01*
X128836000Y-86090000D01*
X128836867Y-86072357D01*
X128839459Y-86054884D01*
X128843751Y-86037749D01*
X128849702Y-86021117D01*
X128857254Y-86005149D01*
X128866335Y-85989997D01*
X128876858Y-85975809D01*
X128888721Y-85962721D01*
X128901809Y-85950858D01*
X128915997Y-85940335D01*
X128931149Y-85931254D01*
X128947117Y-85923702D01*
X128963749Y-85917751D01*
X128980884Y-85913459D01*
X128998357Y-85910867D01*
X129016000Y-85910000D01*
X129856000Y-85910000D01*
X129873643Y-85910867D01*
X129873643Y-85910867D01*
G37*
D11*
G04 #@! TD*
G04 #@! TO.P,U1,9*
G04 #@! TO.N,PA16_S1_I2C_SDA*
X129436000Y-86360000D03*
D10*
G04 #@! TO.N,PA18_PWM_T0_W2*
G04 #@! TO.C,U1*
G36*
X129873643Y-87180867D02*
X129891116Y-87183459D01*
X129908251Y-87187751D01*
X129924883Y-87193702D01*
X129940851Y-87201254D01*
X129956003Y-87210335D01*
X129970191Y-87220858D01*
X129983279Y-87232721D01*
X129995142Y-87245809D01*
X130005665Y-87259997D01*
X130014746Y-87275149D01*
X130022298Y-87291117D01*
X130028249Y-87307749D01*
X130032541Y-87324884D01*
X130035133Y-87342357D01*
X130036000Y-87360000D01*
X130036000Y-87900000D01*
X130035133Y-87917643D01*
X130032541Y-87935116D01*
X130028249Y-87952251D01*
X130022298Y-87968883D01*
X130014746Y-87984851D01*
X130005665Y-88000003D01*
X129995142Y-88014191D01*
X129983279Y-88027279D01*
X129970191Y-88039142D01*
X129956003Y-88049665D01*
X129940851Y-88058746D01*
X129924883Y-88066298D01*
X129908251Y-88072249D01*
X129891116Y-88076541D01*
X129873643Y-88079133D01*
X129856000Y-88080000D01*
X129016000Y-88080000D01*
X128998357Y-88079133D01*
X128980884Y-88076541D01*
X128963749Y-88072249D01*
X128947117Y-88066298D01*
X128931149Y-88058746D01*
X128915997Y-88049665D01*
X128901809Y-88039142D01*
X128888721Y-88027279D01*
X128876858Y-88014191D01*
X128866335Y-88000003D01*
X128857254Y-87984851D01*
X128849702Y-87968883D01*
X128843751Y-87952251D01*
X128839459Y-87935116D01*
X128836867Y-87917643D01*
X128836000Y-87900000D01*
X128836000Y-87360000D01*
X128836867Y-87342357D01*
X128839459Y-87324884D01*
X128843751Y-87307749D01*
X128849702Y-87291117D01*
X128857254Y-87275149D01*
X128866335Y-87259997D01*
X128876858Y-87245809D01*
X128888721Y-87232721D01*
X128901809Y-87220858D01*
X128915997Y-87210335D01*
X128931149Y-87201254D01*
X128947117Y-87193702D01*
X128963749Y-87187751D01*
X128980884Y-87183459D01*
X128998357Y-87180867D01*
X129016000Y-87180000D01*
X129856000Y-87180000D01*
X129873643Y-87180867D01*
X129873643Y-87180867D01*
G37*
D11*
G04 #@! TD*
G04 #@! TO.P,U1,10*
G04 #@! TO.N,PA18_PWM_T0_W2*
X129436000Y-87630000D03*
D10*
G04 #@! TO.N,PA06_ADC6*
G04 #@! TO.C,U1*
G36*
X130309722Y-77020674D02*
X130323313Y-77022690D01*
X130336640Y-77026028D01*
X130349576Y-77030657D01*
X130361996Y-77036531D01*
X130373780Y-77043594D01*
X130384815Y-77051779D01*
X130394995Y-77061005D01*
X130404221Y-77071185D01*
X130412406Y-77082220D01*
X130419469Y-77094004D01*
X130425343Y-77106424D01*
X130429972Y-77119360D01*
X130433310Y-77132687D01*
X130435326Y-77146278D01*
X130436000Y-77160000D01*
X130436000Y-77780000D01*
X130435326Y-77793722D01*
X130433310Y-77807313D01*
X130429972Y-77820640D01*
X130425343Y-77833576D01*
X130419469Y-77845996D01*
X130412406Y-77857780D01*
X130404221Y-77868815D01*
X130394995Y-77878995D01*
X130384815Y-77888221D01*
X130373780Y-77896406D01*
X130361996Y-77903469D01*
X130349576Y-77909343D01*
X130336640Y-77913972D01*
X130323313Y-77917310D01*
X130309722Y-77919326D01*
X130296000Y-77920000D01*
X129876000Y-77920000D01*
X129862278Y-77919326D01*
X129848687Y-77917310D01*
X129835360Y-77913972D01*
X129822424Y-77909343D01*
X129810004Y-77903469D01*
X129798220Y-77896406D01*
X129787185Y-77888221D01*
X129777005Y-77878995D01*
X129767779Y-77868815D01*
X129759594Y-77857780D01*
X129752531Y-77845996D01*
X129746657Y-77833576D01*
X129742028Y-77820640D01*
X129738690Y-77807313D01*
X129736674Y-77793722D01*
X129736000Y-77780000D01*
X129736000Y-77160000D01*
X129736674Y-77146278D01*
X129738690Y-77132687D01*
X129742028Y-77119360D01*
X129746657Y-77106424D01*
X129752531Y-77094004D01*
X129759594Y-77082220D01*
X129767779Y-77071185D01*
X129777005Y-77061005D01*
X129787185Y-77051779D01*
X129798220Y-77043594D01*
X129810004Y-77036531D01*
X129822424Y-77030657D01*
X129835360Y-77026028D01*
X129848687Y-77022690D01*
X129862278Y-77020674D01*
X129876000Y-77020000D01*
X130296000Y-77020000D01*
X130309722Y-77020674D01*
X130309722Y-77020674D01*
G37*
D12*
G04 #@! TD*
G04 #@! TO.P,U1,2*
G04 #@! TO.N,PA06_ADC6*
X130086000Y-77470000D03*
D10*
G04 #@! TO.N,PA27_GPIO*
G04 #@! TO.C,U1*
G36*
X130309722Y-78290674D02*
X130323313Y-78292690D01*
X130336640Y-78296028D01*
X130349576Y-78300657D01*
X130361996Y-78306531D01*
X130373780Y-78313594D01*
X130384815Y-78321779D01*
X130394995Y-78331005D01*
X130404221Y-78341185D01*
X130412406Y-78352220D01*
X130419469Y-78364004D01*
X130425343Y-78376424D01*
X130429972Y-78389360D01*
X130433310Y-78402687D01*
X130435326Y-78416278D01*
X130436000Y-78430000D01*
X130436000Y-79050000D01*
X130435326Y-79063722D01*
X130433310Y-79077313D01*
X130429972Y-79090640D01*
X130425343Y-79103576D01*
X130419469Y-79115996D01*
X130412406Y-79127780D01*
X130404221Y-79138815D01*
X130394995Y-79148995D01*
X130384815Y-79158221D01*
X130373780Y-79166406D01*
X130361996Y-79173469D01*
X130349576Y-79179343D01*
X130336640Y-79183972D01*
X130323313Y-79187310D01*
X130309722Y-79189326D01*
X130296000Y-79190000D01*
X129876000Y-79190000D01*
X129862278Y-79189326D01*
X129848687Y-79187310D01*
X129835360Y-79183972D01*
X129822424Y-79179343D01*
X129810004Y-79173469D01*
X129798220Y-79166406D01*
X129787185Y-79158221D01*
X129777005Y-79148995D01*
X129767779Y-79138815D01*
X129759594Y-79127780D01*
X129752531Y-79115996D01*
X129746657Y-79103576D01*
X129742028Y-79090640D01*
X129738690Y-79077313D01*
X129736674Y-79063722D01*
X129736000Y-79050000D01*
X129736000Y-78430000D01*
X129736674Y-78416278D01*
X129738690Y-78402687D01*
X129742028Y-78389360D01*
X129746657Y-78376424D01*
X129752531Y-78364004D01*
X129759594Y-78352220D01*
X129767779Y-78341185D01*
X129777005Y-78331005D01*
X129787185Y-78321779D01*
X129798220Y-78313594D01*
X129810004Y-78306531D01*
X129822424Y-78300657D01*
X129835360Y-78296028D01*
X129848687Y-78292690D01*
X129862278Y-78290674D01*
X129876000Y-78290000D01*
X130296000Y-78290000D01*
X130309722Y-78290674D01*
X130309722Y-78290674D01*
G37*
D12*
G04 #@! TD*
G04 #@! TO.P,U1,3*
G04 #@! TO.N,PA27_GPIO*
X130086000Y-78740000D03*
D10*
G04 #@! TO.N,PA07_ADC7*
G04 #@! TO.C,U1*
G36*
X130309722Y-79560674D02*
X130323313Y-79562690D01*
X130336640Y-79566028D01*
X130349576Y-79570657D01*
X130361996Y-79576531D01*
X130373780Y-79583594D01*
X130384815Y-79591779D01*
X130394995Y-79601005D01*
X130404221Y-79611185D01*
X130412406Y-79622220D01*
X130419469Y-79634004D01*
X130425343Y-79646424D01*
X130429972Y-79659360D01*
X130433310Y-79672687D01*
X130435326Y-79686278D01*
X130436000Y-79700000D01*
X130436000Y-80320000D01*
X130435326Y-80333722D01*
X130433310Y-80347313D01*
X130429972Y-80360640D01*
X130425343Y-80373576D01*
X130419469Y-80385996D01*
X130412406Y-80397780D01*
X130404221Y-80408815D01*
X130394995Y-80418995D01*
X130384815Y-80428221D01*
X130373780Y-80436406D01*
X130361996Y-80443469D01*
X130349576Y-80449343D01*
X130336640Y-80453972D01*
X130323313Y-80457310D01*
X130309722Y-80459326D01*
X130296000Y-80460000D01*
X129876000Y-80460000D01*
X129862278Y-80459326D01*
X129848687Y-80457310D01*
X129835360Y-80453972D01*
X129822424Y-80449343D01*
X129810004Y-80443469D01*
X129798220Y-80436406D01*
X129787185Y-80428221D01*
X129777005Y-80418995D01*
X129767779Y-80408815D01*
X129759594Y-80397780D01*
X129752531Y-80385996D01*
X129746657Y-80373576D01*
X129742028Y-80360640D01*
X129738690Y-80347313D01*
X129736674Y-80333722D01*
X129736000Y-80320000D01*
X129736000Y-79700000D01*
X129736674Y-79686278D01*
X129738690Y-79672687D01*
X129742028Y-79659360D01*
X129746657Y-79646424D01*
X129752531Y-79634004D01*
X129759594Y-79622220D01*
X129767779Y-79611185D01*
X129777005Y-79601005D01*
X129787185Y-79591779D01*
X129798220Y-79583594D01*
X129810004Y-79576531D01*
X129822424Y-79570657D01*
X129835360Y-79566028D01*
X129848687Y-79562690D01*
X129862278Y-79560674D01*
X129876000Y-79560000D01*
X130296000Y-79560000D01*
X130309722Y-79560674D01*
X130309722Y-79560674D01*
G37*
D12*
G04 #@! TD*
G04 #@! TO.P,U1,4*
G04 #@! TO.N,PA07_ADC7*
X130086000Y-80010000D03*
D10*
G04 #@! TO.N,PB22_S5_SPI_MOSI*
G04 #@! TO.C,U1*
G36*
X130309722Y-80830674D02*
X130323313Y-80832690D01*
X130336640Y-80836028D01*
X130349576Y-80840657D01*
X130361996Y-80846531D01*
X130373780Y-80853594D01*
X130384815Y-80861779D01*
X130394995Y-80871005D01*
X130404221Y-80881185D01*
X130412406Y-80892220D01*
X130419469Y-80904004D01*
X130425343Y-80916424D01*
X130429972Y-80929360D01*
X130433310Y-80942687D01*
X130435326Y-80956278D01*
X130436000Y-80970000D01*
X130436000Y-81590000D01*
X130435326Y-81603722D01*
X130433310Y-81617313D01*
X130429972Y-81630640D01*
X130425343Y-81643576D01*
X130419469Y-81655996D01*
X130412406Y-81667780D01*
X130404221Y-81678815D01*
X130394995Y-81688995D01*
X130384815Y-81698221D01*
X130373780Y-81706406D01*
X130361996Y-81713469D01*
X130349576Y-81719343D01*
X130336640Y-81723972D01*
X130323313Y-81727310D01*
X130309722Y-81729326D01*
X130296000Y-81730000D01*
X129876000Y-81730000D01*
X129862278Y-81729326D01*
X129848687Y-81727310D01*
X129835360Y-81723972D01*
X129822424Y-81719343D01*
X129810004Y-81713469D01*
X129798220Y-81706406D01*
X129787185Y-81698221D01*
X129777005Y-81688995D01*
X129767779Y-81678815D01*
X129759594Y-81667780D01*
X129752531Y-81655996D01*
X129746657Y-81643576D01*
X129742028Y-81630640D01*
X129738690Y-81617313D01*
X129736674Y-81603722D01*
X129736000Y-81590000D01*
X129736000Y-80970000D01*
X129736674Y-80956278D01*
X129738690Y-80942687D01*
X129742028Y-80929360D01*
X129746657Y-80916424D01*
X129752531Y-80904004D01*
X129759594Y-80892220D01*
X129767779Y-80881185D01*
X129777005Y-80871005D01*
X129787185Y-80861779D01*
X129798220Y-80853594D01*
X129810004Y-80846531D01*
X129822424Y-80840657D01*
X129835360Y-80836028D01*
X129848687Y-80832690D01*
X129862278Y-80830674D01*
X129876000Y-80830000D01*
X130296000Y-80830000D01*
X130309722Y-80830674D01*
X130309722Y-80830674D01*
G37*
D12*
G04 #@! TD*
G04 #@! TO.P,U1,5*
G04 #@! TO.N,PB22_S5_SPI_MOSI*
X130086000Y-81280000D03*
D10*
G04 #@! TO.N,PA08_GPIO*
G04 #@! TO.C,U1*
G36*
X130309722Y-82100674D02*
X130323313Y-82102690D01*
X130336640Y-82106028D01*
X130349576Y-82110657D01*
X130361996Y-82116531D01*
X130373780Y-82123594D01*
X130384815Y-82131779D01*
X130394995Y-82141005D01*
X130404221Y-82151185D01*
X130412406Y-82162220D01*
X130419469Y-82174004D01*
X130425343Y-82186424D01*
X130429972Y-82199360D01*
X130433310Y-82212687D01*
X130435326Y-82226278D01*
X130436000Y-82240000D01*
X130436000Y-82860000D01*
X130435326Y-82873722D01*
X130433310Y-82887313D01*
X130429972Y-82900640D01*
X130425343Y-82913576D01*
X130419469Y-82925996D01*
X130412406Y-82937780D01*
X130404221Y-82948815D01*
X130394995Y-82958995D01*
X130384815Y-82968221D01*
X130373780Y-82976406D01*
X130361996Y-82983469D01*
X130349576Y-82989343D01*
X130336640Y-82993972D01*
X130323313Y-82997310D01*
X130309722Y-82999326D01*
X130296000Y-83000000D01*
X129876000Y-83000000D01*
X129862278Y-82999326D01*
X129848687Y-82997310D01*
X129835360Y-82993972D01*
X129822424Y-82989343D01*
X129810004Y-82983469D01*
X129798220Y-82976406D01*
X129787185Y-82968221D01*
X129777005Y-82958995D01*
X129767779Y-82948815D01*
X129759594Y-82937780D01*
X129752531Y-82925996D01*
X129746657Y-82913576D01*
X129742028Y-82900640D01*
X129738690Y-82887313D01*
X129736674Y-82873722D01*
X129736000Y-82860000D01*
X129736000Y-82240000D01*
X129736674Y-82226278D01*
X129738690Y-82212687D01*
X129742028Y-82199360D01*
X129746657Y-82186424D01*
X129752531Y-82174004D01*
X129759594Y-82162220D01*
X129767779Y-82151185D01*
X129777005Y-82141005D01*
X129787185Y-82131779D01*
X129798220Y-82123594D01*
X129810004Y-82116531D01*
X129822424Y-82110657D01*
X129835360Y-82106028D01*
X129848687Y-82102690D01*
X129862278Y-82100674D01*
X129876000Y-82100000D01*
X130296000Y-82100000D01*
X130309722Y-82100674D01*
X130309722Y-82100674D01*
G37*
D12*
G04 #@! TD*
G04 #@! TO.P,U1,6*
G04 #@! TO.N,PA08_GPIO*
X130086000Y-82550000D03*
D10*
G04 #@! TO.N,PB23_S5_SPI_SCK*
G04 #@! TO.C,U1*
G36*
X130309722Y-83370674D02*
X130323313Y-83372690D01*
X130336640Y-83376028D01*
X130349576Y-83380657D01*
X130361996Y-83386531D01*
X130373780Y-83393594D01*
X130384815Y-83401779D01*
X130394995Y-83411005D01*
X130404221Y-83421185D01*
X130412406Y-83432220D01*
X130419469Y-83444004D01*
X130425343Y-83456424D01*
X130429972Y-83469360D01*
X130433310Y-83482687D01*
X130435326Y-83496278D01*
X130436000Y-83510000D01*
X130436000Y-84130000D01*
X130435326Y-84143722D01*
X130433310Y-84157313D01*
X130429972Y-84170640D01*
X130425343Y-84183576D01*
X130419469Y-84195996D01*
X130412406Y-84207780D01*
X130404221Y-84218815D01*
X130394995Y-84228995D01*
X130384815Y-84238221D01*
X130373780Y-84246406D01*
X130361996Y-84253469D01*
X130349576Y-84259343D01*
X130336640Y-84263972D01*
X130323313Y-84267310D01*
X130309722Y-84269326D01*
X130296000Y-84270000D01*
X129876000Y-84270000D01*
X129862278Y-84269326D01*
X129848687Y-84267310D01*
X129835360Y-84263972D01*
X129822424Y-84259343D01*
X129810004Y-84253469D01*
X129798220Y-84246406D01*
X129787185Y-84238221D01*
X129777005Y-84228995D01*
X129767779Y-84218815D01*
X129759594Y-84207780D01*
X129752531Y-84195996D01*
X129746657Y-84183576D01*
X129742028Y-84170640D01*
X129738690Y-84157313D01*
X129736674Y-84143722D01*
X129736000Y-84130000D01*
X129736000Y-83510000D01*
X129736674Y-83496278D01*
X129738690Y-83482687D01*
X129742028Y-83469360D01*
X129746657Y-83456424D01*
X129752531Y-83444004D01*
X129759594Y-83432220D01*
X129767779Y-83421185D01*
X129777005Y-83411005D01*
X129787185Y-83401779D01*
X129798220Y-83393594D01*
X129810004Y-83386531D01*
X129822424Y-83380657D01*
X129835360Y-83376028D01*
X129848687Y-83372690D01*
X129862278Y-83370674D01*
X129876000Y-83370000D01*
X130296000Y-83370000D01*
X130309722Y-83370674D01*
X130309722Y-83370674D01*
G37*
D12*
G04 #@! TD*
G04 #@! TO.P,U1,7*
G04 #@! TO.N,PB23_S5_SPI_SCK*
X130086000Y-83820000D03*
D10*
G04 #@! TO.N,PA17_S1_I2C_SCL*
G04 #@! TO.C,U1*
G36*
X130309722Y-84640674D02*
X130323313Y-84642690D01*
X130336640Y-84646028D01*
X130349576Y-84650657D01*
X130361996Y-84656531D01*
X130373780Y-84663594D01*
X130384815Y-84671779D01*
X130394995Y-84681005D01*
X130404221Y-84691185D01*
X130412406Y-84702220D01*
X130419469Y-84714004D01*
X130425343Y-84726424D01*
X130429972Y-84739360D01*
X130433310Y-84752687D01*
X130435326Y-84766278D01*
X130436000Y-84780000D01*
X130436000Y-85400000D01*
X130435326Y-85413722D01*
X130433310Y-85427313D01*
X130429972Y-85440640D01*
X130425343Y-85453576D01*
X130419469Y-85465996D01*
X130412406Y-85477780D01*
X130404221Y-85488815D01*
X130394995Y-85498995D01*
X130384815Y-85508221D01*
X130373780Y-85516406D01*
X130361996Y-85523469D01*
X130349576Y-85529343D01*
X130336640Y-85533972D01*
X130323313Y-85537310D01*
X130309722Y-85539326D01*
X130296000Y-85540000D01*
X129876000Y-85540000D01*
X129862278Y-85539326D01*
X129848687Y-85537310D01*
X129835360Y-85533972D01*
X129822424Y-85529343D01*
X129810004Y-85523469D01*
X129798220Y-85516406D01*
X129787185Y-85508221D01*
X129777005Y-85498995D01*
X129767779Y-85488815D01*
X129759594Y-85477780D01*
X129752531Y-85465996D01*
X129746657Y-85453576D01*
X129742028Y-85440640D01*
X129738690Y-85427313D01*
X129736674Y-85413722D01*
X129736000Y-85400000D01*
X129736000Y-84780000D01*
X129736674Y-84766278D01*
X129738690Y-84752687D01*
X129742028Y-84739360D01*
X129746657Y-84726424D01*
X129752531Y-84714004D01*
X129759594Y-84702220D01*
X129767779Y-84691185D01*
X129777005Y-84681005D01*
X129787185Y-84671779D01*
X129798220Y-84663594D01*
X129810004Y-84656531D01*
X129822424Y-84650657D01*
X129835360Y-84646028D01*
X129848687Y-84642690D01*
X129862278Y-84640674D01*
X129876000Y-84640000D01*
X130296000Y-84640000D01*
X130309722Y-84640674D01*
X130309722Y-84640674D01*
G37*
D12*
G04 #@! TD*
G04 #@! TO.P,U1,8*
G04 #@! TO.N,PA17_S1_I2C_SCL*
X130086000Y-85090000D03*
D10*
G04 #@! TO.N,PA16_S1_I2C_SDA*
G04 #@! TO.C,U1*
G36*
X130309722Y-85910674D02*
X130323313Y-85912690D01*
X130336640Y-85916028D01*
X130349576Y-85920657D01*
X130361996Y-85926531D01*
X130373780Y-85933594D01*
X130384815Y-85941779D01*
X130394995Y-85951005D01*
X130404221Y-85961185D01*
X130412406Y-85972220D01*
X130419469Y-85984004D01*
X130425343Y-85996424D01*
X130429972Y-86009360D01*
X130433310Y-86022687D01*
X130435326Y-86036278D01*
X130436000Y-86050000D01*
X130436000Y-86670000D01*
X130435326Y-86683722D01*
X130433310Y-86697313D01*
X130429972Y-86710640D01*
X130425343Y-86723576D01*
X130419469Y-86735996D01*
X130412406Y-86747780D01*
X130404221Y-86758815D01*
X130394995Y-86768995D01*
X130384815Y-86778221D01*
X130373780Y-86786406D01*
X130361996Y-86793469D01*
X130349576Y-86799343D01*
X130336640Y-86803972D01*
X130323313Y-86807310D01*
X130309722Y-86809326D01*
X130296000Y-86810000D01*
X129876000Y-86810000D01*
X129862278Y-86809326D01*
X129848687Y-86807310D01*
X129835360Y-86803972D01*
X129822424Y-86799343D01*
X129810004Y-86793469D01*
X129798220Y-86786406D01*
X129787185Y-86778221D01*
X129777005Y-86768995D01*
X129767779Y-86758815D01*
X129759594Y-86747780D01*
X129752531Y-86735996D01*
X129746657Y-86723576D01*
X129742028Y-86710640D01*
X129738690Y-86697313D01*
X129736674Y-86683722D01*
X129736000Y-86670000D01*
X129736000Y-86050000D01*
X129736674Y-86036278D01*
X129738690Y-86022687D01*
X129742028Y-86009360D01*
X129746657Y-85996424D01*
X129752531Y-85984004D01*
X129759594Y-85972220D01*
X129767779Y-85961185D01*
X129777005Y-85951005D01*
X129787185Y-85941779D01*
X129798220Y-85933594D01*
X129810004Y-85926531D01*
X129822424Y-85920657D01*
X129835360Y-85916028D01*
X129848687Y-85912690D01*
X129862278Y-85910674D01*
X129876000Y-85910000D01*
X130296000Y-85910000D01*
X130309722Y-85910674D01*
X130309722Y-85910674D01*
G37*
D12*
G04 #@! TD*
G04 #@! TO.P,U1,9*
G04 #@! TO.N,PA16_S1_I2C_SDA*
X130086000Y-86360000D03*
D10*
G04 #@! TO.N,PA18_PWM_T0_W2*
G04 #@! TO.C,U1*
G36*
X130309722Y-87180674D02*
X130323313Y-87182690D01*
X130336640Y-87186028D01*
X130349576Y-87190657D01*
X130361996Y-87196531D01*
X130373780Y-87203594D01*
X130384815Y-87211779D01*
X130394995Y-87221005D01*
X130404221Y-87231185D01*
X130412406Y-87242220D01*
X130419469Y-87254004D01*
X130425343Y-87266424D01*
X130429972Y-87279360D01*
X130433310Y-87292687D01*
X130435326Y-87306278D01*
X130436000Y-87320000D01*
X130436000Y-87940000D01*
X130435326Y-87953722D01*
X130433310Y-87967313D01*
X130429972Y-87980640D01*
X130425343Y-87993576D01*
X130419469Y-88005996D01*
X130412406Y-88017780D01*
X130404221Y-88028815D01*
X130394995Y-88038995D01*
X130384815Y-88048221D01*
X130373780Y-88056406D01*
X130361996Y-88063469D01*
X130349576Y-88069343D01*
X130336640Y-88073972D01*
X130323313Y-88077310D01*
X130309722Y-88079326D01*
X130296000Y-88080000D01*
X129876000Y-88080000D01*
X129862278Y-88079326D01*
X129848687Y-88077310D01*
X129835360Y-88073972D01*
X129822424Y-88069343D01*
X129810004Y-88063469D01*
X129798220Y-88056406D01*
X129787185Y-88048221D01*
X129777005Y-88038995D01*
X129767779Y-88028815D01*
X129759594Y-88017780D01*
X129752531Y-88005996D01*
X129746657Y-87993576D01*
X129742028Y-87980640D01*
X129738690Y-87967313D01*
X129736674Y-87953722D01*
X129736000Y-87940000D01*
X129736000Y-87320000D01*
X129736674Y-87306278D01*
X129738690Y-87292687D01*
X129742028Y-87279360D01*
X129746657Y-87266424D01*
X129752531Y-87254004D01*
X129759594Y-87242220D01*
X129767779Y-87231185D01*
X129777005Y-87221005D01*
X129787185Y-87211779D01*
X129798220Y-87203594D01*
X129810004Y-87196531D01*
X129822424Y-87190657D01*
X129835360Y-87186028D01*
X129848687Y-87182690D01*
X129862278Y-87180674D01*
X129876000Y-87180000D01*
X130296000Y-87180000D01*
X130309722Y-87180674D01*
X130309722Y-87180674D01*
G37*
D12*
G04 #@! TD*
G04 #@! TO.P,U1,10*
G04 #@! TO.N,PA18_PWM_T0_W2*
X130086000Y-87630000D03*
D10*
G04 #@! TO.N,GND*
G04 #@! TO.C,U1*
G36*
X143543643Y-75750867D02*
X143561116Y-75753459D01*
X143578251Y-75757751D01*
X143594883Y-75763702D01*
X143610851Y-75771254D01*
X143626003Y-75780335D01*
X143640191Y-75790858D01*
X143653279Y-75802721D01*
X143665142Y-75815809D01*
X143675665Y-75829997D01*
X143684746Y-75845149D01*
X143692298Y-75861117D01*
X143698249Y-75877749D01*
X143702541Y-75894884D01*
X143705133Y-75912357D01*
X143706000Y-75930000D01*
X143706000Y-76470000D01*
X143705133Y-76487643D01*
X143702541Y-76505116D01*
X143698249Y-76522251D01*
X143692298Y-76538883D01*
X143684746Y-76554851D01*
X143675665Y-76570003D01*
X143665142Y-76584191D01*
X143653279Y-76597279D01*
X143640191Y-76609142D01*
X143626003Y-76619665D01*
X143610851Y-76628746D01*
X143594883Y-76636298D01*
X143578251Y-76642249D01*
X143561116Y-76646541D01*
X143543643Y-76649133D01*
X143526000Y-76650000D01*
X142686000Y-76650000D01*
X142668357Y-76649133D01*
X142650884Y-76646541D01*
X142633749Y-76642249D01*
X142617117Y-76636298D01*
X142601149Y-76628746D01*
X142585997Y-76619665D01*
X142571809Y-76609142D01*
X142558721Y-76597279D01*
X142546858Y-76584191D01*
X142536335Y-76570003D01*
X142527254Y-76554851D01*
X142519702Y-76538883D01*
X142513751Y-76522251D01*
X142509459Y-76505116D01*
X142506867Y-76487643D01*
X142506000Y-76470000D01*
X142506000Y-75930000D01*
X142506867Y-75912357D01*
X142509459Y-75894884D01*
X142513751Y-75877749D01*
X142519702Y-75861117D01*
X142527254Y-75845149D01*
X142536335Y-75829997D01*
X142546858Y-75815809D01*
X142558721Y-75802721D01*
X142571809Y-75790858D01*
X142585997Y-75780335D01*
X142601149Y-75771254D01*
X142617117Y-75763702D01*
X142633749Y-75757751D01*
X142650884Y-75753459D01*
X142668357Y-75750867D01*
X142686000Y-75750000D01*
X143526000Y-75750000D01*
X143543643Y-75750867D01*
X143543643Y-75750867D01*
G37*
D11*
G04 #@! TD*
G04 #@! TO.P,U1,28*
G04 #@! TO.N,GND*
X143106000Y-76200000D03*
D10*
G04 #@! TO.N,PA04_S0_UART_TX*
G04 #@! TO.C,U1*
G36*
X143543643Y-77020867D02*
X143561116Y-77023459D01*
X143578251Y-77027751D01*
X143594883Y-77033702D01*
X143610851Y-77041254D01*
X143626003Y-77050335D01*
X143640191Y-77060858D01*
X143653279Y-77072721D01*
X143665142Y-77085809D01*
X143675665Y-77099997D01*
X143684746Y-77115149D01*
X143692298Y-77131117D01*
X143698249Y-77147749D01*
X143702541Y-77164884D01*
X143705133Y-77182357D01*
X143706000Y-77200000D01*
X143706000Y-77740000D01*
X143705133Y-77757643D01*
X143702541Y-77775116D01*
X143698249Y-77792251D01*
X143692298Y-77808883D01*
X143684746Y-77824851D01*
X143675665Y-77840003D01*
X143665142Y-77854191D01*
X143653279Y-77867279D01*
X143640191Y-77879142D01*
X143626003Y-77889665D01*
X143610851Y-77898746D01*
X143594883Y-77906298D01*
X143578251Y-77912249D01*
X143561116Y-77916541D01*
X143543643Y-77919133D01*
X143526000Y-77920000D01*
X142686000Y-77920000D01*
X142668357Y-77919133D01*
X142650884Y-77916541D01*
X142633749Y-77912249D01*
X142617117Y-77906298D01*
X142601149Y-77898746D01*
X142585997Y-77889665D01*
X142571809Y-77879142D01*
X142558721Y-77867279D01*
X142546858Y-77854191D01*
X142536335Y-77840003D01*
X142527254Y-77824851D01*
X142519702Y-77808883D01*
X142513751Y-77792251D01*
X142509459Y-77775116D01*
X142506867Y-77757643D01*
X142506000Y-77740000D01*
X142506000Y-77200000D01*
X142506867Y-77182357D01*
X142509459Y-77164884D01*
X142513751Y-77147749D01*
X142519702Y-77131117D01*
X142527254Y-77115149D01*
X142536335Y-77099997D01*
X142546858Y-77085809D01*
X142558721Y-77072721D01*
X142571809Y-77060858D01*
X142585997Y-77050335D01*
X142601149Y-77041254D01*
X142617117Y-77033702D01*
X142633749Y-77027751D01*
X142650884Y-77023459D01*
X142668357Y-77020867D01*
X142686000Y-77020000D01*
X143526000Y-77020000D01*
X143543643Y-77020867D01*
X143543643Y-77020867D01*
G37*
D11*
G04 #@! TD*
G04 #@! TO.P,U1,27*
G04 #@! TO.N,PA04_S0_UART_TX*
X143106000Y-77470000D03*
D10*
G04 #@! TO.N,PA05_S0_UART_RX*
G04 #@! TO.C,U1*
G36*
X143543643Y-78290867D02*
X143561116Y-78293459D01*
X143578251Y-78297751D01*
X143594883Y-78303702D01*
X143610851Y-78311254D01*
X143626003Y-78320335D01*
X143640191Y-78330858D01*
X143653279Y-78342721D01*
X143665142Y-78355809D01*
X143675665Y-78369997D01*
X143684746Y-78385149D01*
X143692298Y-78401117D01*
X143698249Y-78417749D01*
X143702541Y-78434884D01*
X143705133Y-78452357D01*
X143706000Y-78470000D01*
X143706000Y-79010000D01*
X143705133Y-79027643D01*
X143702541Y-79045116D01*
X143698249Y-79062251D01*
X143692298Y-79078883D01*
X143684746Y-79094851D01*
X143675665Y-79110003D01*
X143665142Y-79124191D01*
X143653279Y-79137279D01*
X143640191Y-79149142D01*
X143626003Y-79159665D01*
X143610851Y-79168746D01*
X143594883Y-79176298D01*
X143578251Y-79182249D01*
X143561116Y-79186541D01*
X143543643Y-79189133D01*
X143526000Y-79190000D01*
X142686000Y-79190000D01*
X142668357Y-79189133D01*
X142650884Y-79186541D01*
X142633749Y-79182249D01*
X142617117Y-79176298D01*
X142601149Y-79168746D01*
X142585997Y-79159665D01*
X142571809Y-79149142D01*
X142558721Y-79137279D01*
X142546858Y-79124191D01*
X142536335Y-79110003D01*
X142527254Y-79094851D01*
X142519702Y-79078883D01*
X142513751Y-79062251D01*
X142509459Y-79045116D01*
X142506867Y-79027643D01*
X142506000Y-79010000D01*
X142506000Y-78470000D01*
X142506867Y-78452357D01*
X142509459Y-78434884D01*
X142513751Y-78417749D01*
X142519702Y-78401117D01*
X142527254Y-78385149D01*
X142536335Y-78369997D01*
X142546858Y-78355809D01*
X142558721Y-78342721D01*
X142571809Y-78330858D01*
X142585997Y-78320335D01*
X142601149Y-78311254D01*
X142617117Y-78303702D01*
X142633749Y-78297751D01*
X142650884Y-78293459D01*
X142668357Y-78290867D01*
X142686000Y-78290000D01*
X143526000Y-78290000D01*
X143543643Y-78290867D01*
X143543643Y-78290867D01*
G37*
D11*
G04 #@! TD*
G04 #@! TO.P,U1,26*
G04 #@! TO.N,PA05_S0_UART_RX*
X143106000Y-78740000D03*
D10*
G04 #@! TO.N,PB02_S5_SPI_MISO*
G04 #@! TO.C,U1*
G36*
X143543643Y-79560867D02*
X143561116Y-79563459D01*
X143578251Y-79567751D01*
X143594883Y-79573702D01*
X143610851Y-79581254D01*
X143626003Y-79590335D01*
X143640191Y-79600858D01*
X143653279Y-79612721D01*
X143665142Y-79625809D01*
X143675665Y-79639997D01*
X143684746Y-79655149D01*
X143692298Y-79671117D01*
X143698249Y-79687749D01*
X143702541Y-79704884D01*
X143705133Y-79722357D01*
X143706000Y-79740000D01*
X143706000Y-80280000D01*
X143705133Y-80297643D01*
X143702541Y-80315116D01*
X143698249Y-80332251D01*
X143692298Y-80348883D01*
X143684746Y-80364851D01*
X143675665Y-80380003D01*
X143665142Y-80394191D01*
X143653279Y-80407279D01*
X143640191Y-80419142D01*
X143626003Y-80429665D01*
X143610851Y-80438746D01*
X143594883Y-80446298D01*
X143578251Y-80452249D01*
X143561116Y-80456541D01*
X143543643Y-80459133D01*
X143526000Y-80460000D01*
X142686000Y-80460000D01*
X142668357Y-80459133D01*
X142650884Y-80456541D01*
X142633749Y-80452249D01*
X142617117Y-80446298D01*
X142601149Y-80438746D01*
X142585997Y-80429665D01*
X142571809Y-80419142D01*
X142558721Y-80407279D01*
X142546858Y-80394191D01*
X142536335Y-80380003D01*
X142527254Y-80364851D01*
X142519702Y-80348883D01*
X142513751Y-80332251D01*
X142509459Y-80315116D01*
X142506867Y-80297643D01*
X142506000Y-80280000D01*
X142506000Y-79740000D01*
X142506867Y-79722357D01*
X142509459Y-79704884D01*
X142513751Y-79687749D01*
X142519702Y-79671117D01*
X142527254Y-79655149D01*
X142536335Y-79639997D01*
X142546858Y-79625809D01*
X142558721Y-79612721D01*
X142571809Y-79600858D01*
X142585997Y-79590335D01*
X142601149Y-79581254D01*
X142617117Y-79573702D01*
X142633749Y-79567751D01*
X142650884Y-79563459D01*
X142668357Y-79560867D01*
X142686000Y-79560000D01*
X143526000Y-79560000D01*
X143543643Y-79560867D01*
X143543643Y-79560867D01*
G37*
D11*
G04 #@! TD*
G04 #@! TO.P,U1,25*
G04 #@! TO.N,PB02_S5_SPI_MISO*
X143106000Y-80010000D03*
D10*
G04 #@! TO.N,PA28_GPIO*
G04 #@! TO.C,U1*
G36*
X143543643Y-80830867D02*
X143561116Y-80833459D01*
X143578251Y-80837751D01*
X143594883Y-80843702D01*
X143610851Y-80851254D01*
X143626003Y-80860335D01*
X143640191Y-80870858D01*
X143653279Y-80882721D01*
X143665142Y-80895809D01*
X143675665Y-80909997D01*
X143684746Y-80925149D01*
X143692298Y-80941117D01*
X143698249Y-80957749D01*
X143702541Y-80974884D01*
X143705133Y-80992357D01*
X143706000Y-81010000D01*
X143706000Y-81550000D01*
X143705133Y-81567643D01*
X143702541Y-81585116D01*
X143698249Y-81602251D01*
X143692298Y-81618883D01*
X143684746Y-81634851D01*
X143675665Y-81650003D01*
X143665142Y-81664191D01*
X143653279Y-81677279D01*
X143640191Y-81689142D01*
X143626003Y-81699665D01*
X143610851Y-81708746D01*
X143594883Y-81716298D01*
X143578251Y-81722249D01*
X143561116Y-81726541D01*
X143543643Y-81729133D01*
X143526000Y-81730000D01*
X142686000Y-81730000D01*
X142668357Y-81729133D01*
X142650884Y-81726541D01*
X142633749Y-81722249D01*
X142617117Y-81716298D01*
X142601149Y-81708746D01*
X142585997Y-81699665D01*
X142571809Y-81689142D01*
X142558721Y-81677279D01*
X142546858Y-81664191D01*
X142536335Y-81650003D01*
X142527254Y-81634851D01*
X142519702Y-81618883D01*
X142513751Y-81602251D01*
X142509459Y-81585116D01*
X142506867Y-81567643D01*
X142506000Y-81550000D01*
X142506000Y-81010000D01*
X142506867Y-80992357D01*
X142509459Y-80974884D01*
X142513751Y-80957749D01*
X142519702Y-80941117D01*
X142527254Y-80925149D01*
X142536335Y-80909997D01*
X142546858Y-80895809D01*
X142558721Y-80882721D01*
X142571809Y-80870858D01*
X142585997Y-80860335D01*
X142601149Y-80851254D01*
X142617117Y-80843702D01*
X142633749Y-80837751D01*
X142650884Y-80833459D01*
X142668357Y-80830867D01*
X142686000Y-80830000D01*
X143526000Y-80830000D01*
X143543643Y-80830867D01*
X143543643Y-80830867D01*
G37*
D11*
G04 #@! TD*
G04 #@! TO.P,U1,24*
G04 #@! TO.N,PA28_GPIO*
X143106000Y-81280000D03*
D10*
G04 #@! TO.N,+BATT*
G04 #@! TO.C,U1*
G36*
X143543643Y-82100867D02*
X143561116Y-82103459D01*
X143578251Y-82107751D01*
X143594883Y-82113702D01*
X143610851Y-82121254D01*
X143626003Y-82130335D01*
X143640191Y-82140858D01*
X143653279Y-82152721D01*
X143665142Y-82165809D01*
X143675665Y-82179997D01*
X143684746Y-82195149D01*
X143692298Y-82211117D01*
X143698249Y-82227749D01*
X143702541Y-82244884D01*
X143705133Y-82262357D01*
X143706000Y-82280000D01*
X143706000Y-82820000D01*
X143705133Y-82837643D01*
X143702541Y-82855116D01*
X143698249Y-82872251D01*
X143692298Y-82888883D01*
X143684746Y-82904851D01*
X143675665Y-82920003D01*
X143665142Y-82934191D01*
X143653279Y-82947279D01*
X143640191Y-82959142D01*
X143626003Y-82969665D01*
X143610851Y-82978746D01*
X143594883Y-82986298D01*
X143578251Y-82992249D01*
X143561116Y-82996541D01*
X143543643Y-82999133D01*
X143526000Y-83000000D01*
X142686000Y-83000000D01*
X142668357Y-82999133D01*
X142650884Y-82996541D01*
X142633749Y-82992249D01*
X142617117Y-82986298D01*
X142601149Y-82978746D01*
X142585997Y-82969665D01*
X142571809Y-82959142D01*
X142558721Y-82947279D01*
X142546858Y-82934191D01*
X142536335Y-82920003D01*
X142527254Y-82904851D01*
X142519702Y-82888883D01*
X142513751Y-82872251D01*
X142509459Y-82855116D01*
X142506867Y-82837643D01*
X142506000Y-82820000D01*
X142506000Y-82280000D01*
X142506867Y-82262357D01*
X142509459Y-82244884D01*
X142513751Y-82227749D01*
X142519702Y-82211117D01*
X142527254Y-82195149D01*
X142536335Y-82179997D01*
X142546858Y-82165809D01*
X142558721Y-82152721D01*
X142571809Y-82140858D01*
X142585997Y-82130335D01*
X142601149Y-82121254D01*
X142617117Y-82113702D01*
X142633749Y-82107751D01*
X142650884Y-82103459D01*
X142668357Y-82100867D01*
X142686000Y-82100000D01*
X143526000Y-82100000D01*
X143543643Y-82100867D01*
X143543643Y-82100867D01*
G37*
D11*
G04 #@! TD*
G04 #@! TO.P,U1,23*
G04 #@! TO.N,+BATT*
X143106000Y-82550000D03*
D10*
G04 #@! TO.N,PA31_SWDIO*
G04 #@! TO.C,U1*
G36*
X143543643Y-83370867D02*
X143561116Y-83373459D01*
X143578251Y-83377751D01*
X143594883Y-83383702D01*
X143610851Y-83391254D01*
X143626003Y-83400335D01*
X143640191Y-83410858D01*
X143653279Y-83422721D01*
X143665142Y-83435809D01*
X143675665Y-83449997D01*
X143684746Y-83465149D01*
X143692298Y-83481117D01*
X143698249Y-83497749D01*
X143702541Y-83514884D01*
X143705133Y-83532357D01*
X143706000Y-83550000D01*
X143706000Y-84090000D01*
X143705133Y-84107643D01*
X143702541Y-84125116D01*
X143698249Y-84142251D01*
X143692298Y-84158883D01*
X143684746Y-84174851D01*
X143675665Y-84190003D01*
X143665142Y-84204191D01*
X143653279Y-84217279D01*
X143640191Y-84229142D01*
X143626003Y-84239665D01*
X143610851Y-84248746D01*
X143594883Y-84256298D01*
X143578251Y-84262249D01*
X143561116Y-84266541D01*
X143543643Y-84269133D01*
X143526000Y-84270000D01*
X142686000Y-84270000D01*
X142668357Y-84269133D01*
X142650884Y-84266541D01*
X142633749Y-84262249D01*
X142617117Y-84256298D01*
X142601149Y-84248746D01*
X142585997Y-84239665D01*
X142571809Y-84229142D01*
X142558721Y-84217279D01*
X142546858Y-84204191D01*
X142536335Y-84190003D01*
X142527254Y-84174851D01*
X142519702Y-84158883D01*
X142513751Y-84142251D01*
X142509459Y-84125116D01*
X142506867Y-84107643D01*
X142506000Y-84090000D01*
X142506000Y-83550000D01*
X142506867Y-83532357D01*
X142509459Y-83514884D01*
X142513751Y-83497749D01*
X142519702Y-83481117D01*
X142527254Y-83465149D01*
X142536335Y-83449997D01*
X142546858Y-83435809D01*
X142558721Y-83422721D01*
X142571809Y-83410858D01*
X142585997Y-83400335D01*
X142601149Y-83391254D01*
X142617117Y-83383702D01*
X142633749Y-83377751D01*
X142650884Y-83373459D01*
X142668357Y-83370867D01*
X142686000Y-83370000D01*
X143526000Y-83370000D01*
X143543643Y-83370867D01*
X143543643Y-83370867D01*
G37*
D11*
G04 #@! TD*
G04 #@! TO.P,U1,22*
G04 #@! TO.N,PA31_SWDIO*
X143106000Y-83820000D03*
D10*
G04 #@! TO.N,PA30_SWDCLK*
G04 #@! TO.C,U1*
G36*
X143543643Y-84640867D02*
X143561116Y-84643459D01*
X143578251Y-84647751D01*
X143594883Y-84653702D01*
X143610851Y-84661254D01*
X143626003Y-84670335D01*
X143640191Y-84680858D01*
X143653279Y-84692721D01*
X143665142Y-84705809D01*
X143675665Y-84719997D01*
X143684746Y-84735149D01*
X143692298Y-84751117D01*
X143698249Y-84767749D01*
X143702541Y-84784884D01*
X143705133Y-84802357D01*
X143706000Y-84820000D01*
X143706000Y-85360000D01*
X143705133Y-85377643D01*
X143702541Y-85395116D01*
X143698249Y-85412251D01*
X143692298Y-85428883D01*
X143684746Y-85444851D01*
X143675665Y-85460003D01*
X143665142Y-85474191D01*
X143653279Y-85487279D01*
X143640191Y-85499142D01*
X143626003Y-85509665D01*
X143610851Y-85518746D01*
X143594883Y-85526298D01*
X143578251Y-85532249D01*
X143561116Y-85536541D01*
X143543643Y-85539133D01*
X143526000Y-85540000D01*
X142686000Y-85540000D01*
X142668357Y-85539133D01*
X142650884Y-85536541D01*
X142633749Y-85532249D01*
X142617117Y-85526298D01*
X142601149Y-85518746D01*
X142585997Y-85509665D01*
X142571809Y-85499142D01*
X142558721Y-85487279D01*
X142546858Y-85474191D01*
X142536335Y-85460003D01*
X142527254Y-85444851D01*
X142519702Y-85428883D01*
X142513751Y-85412251D01*
X142509459Y-85395116D01*
X142506867Y-85377643D01*
X142506000Y-85360000D01*
X142506000Y-84820000D01*
X142506867Y-84802357D01*
X142509459Y-84784884D01*
X142513751Y-84767749D01*
X142519702Y-84751117D01*
X142527254Y-84735149D01*
X142536335Y-84719997D01*
X142546858Y-84705809D01*
X142558721Y-84692721D01*
X142571809Y-84680858D01*
X142585997Y-84670335D01*
X142601149Y-84661254D01*
X142617117Y-84653702D01*
X142633749Y-84647751D01*
X142650884Y-84643459D01*
X142668357Y-84640867D01*
X142686000Y-84640000D01*
X143526000Y-84640000D01*
X143543643Y-84640867D01*
X143543643Y-84640867D01*
G37*
D11*
G04 #@! TD*
G04 #@! TO.P,U1,21*
G04 #@! TO.N,PA30_SWDCLK*
X143106000Y-85090000D03*
D10*
G04 #@! TO.N,~RESET*
G04 #@! TO.C,U1*
G36*
X143543643Y-85910867D02*
X143561116Y-85913459D01*
X143578251Y-85917751D01*
X143594883Y-85923702D01*
X143610851Y-85931254D01*
X143626003Y-85940335D01*
X143640191Y-85950858D01*
X143653279Y-85962721D01*
X143665142Y-85975809D01*
X143675665Y-85989997D01*
X143684746Y-86005149D01*
X143692298Y-86021117D01*
X143698249Y-86037749D01*
X143702541Y-86054884D01*
X143705133Y-86072357D01*
X143706000Y-86090000D01*
X143706000Y-86630000D01*
X143705133Y-86647643D01*
X143702541Y-86665116D01*
X143698249Y-86682251D01*
X143692298Y-86698883D01*
X143684746Y-86714851D01*
X143675665Y-86730003D01*
X143665142Y-86744191D01*
X143653279Y-86757279D01*
X143640191Y-86769142D01*
X143626003Y-86779665D01*
X143610851Y-86788746D01*
X143594883Y-86796298D01*
X143578251Y-86802249D01*
X143561116Y-86806541D01*
X143543643Y-86809133D01*
X143526000Y-86810000D01*
X142686000Y-86810000D01*
X142668357Y-86809133D01*
X142650884Y-86806541D01*
X142633749Y-86802249D01*
X142617117Y-86796298D01*
X142601149Y-86788746D01*
X142585997Y-86779665D01*
X142571809Y-86769142D01*
X142558721Y-86757279D01*
X142546858Y-86744191D01*
X142536335Y-86730003D01*
X142527254Y-86714851D01*
X142519702Y-86698883D01*
X142513751Y-86682251D01*
X142509459Y-86665116D01*
X142506867Y-86647643D01*
X142506000Y-86630000D01*
X142506000Y-86090000D01*
X142506867Y-86072357D01*
X142509459Y-86054884D01*
X142513751Y-86037749D01*
X142519702Y-86021117D01*
X142527254Y-86005149D01*
X142536335Y-85989997D01*
X142546858Y-85975809D01*
X142558721Y-85962721D01*
X142571809Y-85950858D01*
X142585997Y-85940335D01*
X142601149Y-85931254D01*
X142617117Y-85923702D01*
X142633749Y-85917751D01*
X142650884Y-85913459D01*
X142668357Y-85910867D01*
X142686000Y-85910000D01*
X143526000Y-85910000D01*
X143543643Y-85910867D01*
X143543643Y-85910867D01*
G37*
D11*
G04 #@! TD*
G04 #@! TO.P,U1,20*
G04 #@! TO.N,~RESET*
X143106000Y-86360000D03*
D10*
G04 #@! TO.N,VDD*
G04 #@! TO.C,U1*
G36*
X143543643Y-87180867D02*
X143561116Y-87183459D01*
X143578251Y-87187751D01*
X143594883Y-87193702D01*
X143610851Y-87201254D01*
X143626003Y-87210335D01*
X143640191Y-87220858D01*
X143653279Y-87232721D01*
X143665142Y-87245809D01*
X143675665Y-87259997D01*
X143684746Y-87275149D01*
X143692298Y-87291117D01*
X143698249Y-87307749D01*
X143702541Y-87324884D01*
X143705133Y-87342357D01*
X143706000Y-87360000D01*
X143706000Y-87900000D01*
X143705133Y-87917643D01*
X143702541Y-87935116D01*
X143698249Y-87952251D01*
X143692298Y-87968883D01*
X143684746Y-87984851D01*
X143675665Y-88000003D01*
X143665142Y-88014191D01*
X143653279Y-88027279D01*
X143640191Y-88039142D01*
X143626003Y-88049665D01*
X143610851Y-88058746D01*
X143594883Y-88066298D01*
X143578251Y-88072249D01*
X143561116Y-88076541D01*
X143543643Y-88079133D01*
X143526000Y-88080000D01*
X142686000Y-88080000D01*
X142668357Y-88079133D01*
X142650884Y-88076541D01*
X142633749Y-88072249D01*
X142617117Y-88066298D01*
X142601149Y-88058746D01*
X142585997Y-88049665D01*
X142571809Y-88039142D01*
X142558721Y-88027279D01*
X142546858Y-88014191D01*
X142536335Y-88000003D01*
X142527254Y-87984851D01*
X142519702Y-87968883D01*
X142513751Y-87952251D01*
X142509459Y-87935116D01*
X142506867Y-87917643D01*
X142506000Y-87900000D01*
X142506000Y-87360000D01*
X142506867Y-87342357D01*
X142509459Y-87324884D01*
X142513751Y-87307749D01*
X142519702Y-87291117D01*
X142527254Y-87275149D01*
X142536335Y-87259997D01*
X142546858Y-87245809D01*
X142558721Y-87232721D01*
X142571809Y-87220858D01*
X142585997Y-87210335D01*
X142601149Y-87201254D01*
X142617117Y-87193702D01*
X142633749Y-87187751D01*
X142650884Y-87183459D01*
X142668357Y-87180867D01*
X142686000Y-87180000D01*
X143526000Y-87180000D01*
X143543643Y-87180867D01*
X143543643Y-87180867D01*
G37*
D11*
G04 #@! TD*
G04 #@! TO.P,U1,19*
G04 #@! TO.N,VDD*
X143106000Y-87630000D03*
D10*
G04 #@! TO.N,PA15_GPIO*
G04 #@! TO.C,U1*
G36*
X132113643Y-88785867D02*
X132131116Y-88788459D01*
X132148251Y-88792751D01*
X132164883Y-88798702D01*
X132180851Y-88806254D01*
X132196003Y-88815335D01*
X132210191Y-88825858D01*
X132223279Y-88837721D01*
X132235142Y-88850809D01*
X132245665Y-88864997D01*
X132254746Y-88880149D01*
X132262298Y-88896117D01*
X132268249Y-88912749D01*
X132272541Y-88929884D01*
X132275133Y-88947357D01*
X132276000Y-88965000D01*
X132276000Y-89805000D01*
X132275133Y-89822643D01*
X132272541Y-89840116D01*
X132268249Y-89857251D01*
X132262298Y-89873883D01*
X132254746Y-89889851D01*
X132245665Y-89905003D01*
X132235142Y-89919191D01*
X132223279Y-89932279D01*
X132210191Y-89944142D01*
X132196003Y-89954665D01*
X132180851Y-89963746D01*
X132164883Y-89971298D01*
X132148251Y-89977249D01*
X132131116Y-89981541D01*
X132113643Y-89984133D01*
X132096000Y-89985000D01*
X131556000Y-89985000D01*
X131538357Y-89984133D01*
X131520884Y-89981541D01*
X131503749Y-89977249D01*
X131487117Y-89971298D01*
X131471149Y-89963746D01*
X131455997Y-89954665D01*
X131441809Y-89944142D01*
X131428721Y-89932279D01*
X131416858Y-89919191D01*
X131406335Y-89905003D01*
X131397254Y-89889851D01*
X131389702Y-89873883D01*
X131383751Y-89857251D01*
X131379459Y-89840116D01*
X131376867Y-89822643D01*
X131376000Y-89805000D01*
X131376000Y-88965000D01*
X131376867Y-88947357D01*
X131379459Y-88929884D01*
X131383751Y-88912749D01*
X131389702Y-88896117D01*
X131397254Y-88880149D01*
X131406335Y-88864997D01*
X131416858Y-88850809D01*
X131428721Y-88837721D01*
X131441809Y-88825858D01*
X131455997Y-88815335D01*
X131471149Y-88806254D01*
X131487117Y-88798702D01*
X131503749Y-88792751D01*
X131520884Y-88788459D01*
X131538357Y-88785867D01*
X131556000Y-88785000D01*
X132096000Y-88785000D01*
X132113643Y-88785867D01*
X132113643Y-88785867D01*
G37*
D11*
G04 #@! TD*
G04 #@! TO.P,U1,11*
G04 #@! TO.N,PA15_GPIO*
X131826000Y-89385000D03*
D10*
G04 #@! TO.N,PA14_GPIO*
G04 #@! TO.C,U1*
G36*
X133383643Y-88785867D02*
X133401116Y-88788459D01*
X133418251Y-88792751D01*
X133434883Y-88798702D01*
X133450851Y-88806254D01*
X133466003Y-88815335D01*
X133480191Y-88825858D01*
X133493279Y-88837721D01*
X133505142Y-88850809D01*
X133515665Y-88864997D01*
X133524746Y-88880149D01*
X133532298Y-88896117D01*
X133538249Y-88912749D01*
X133542541Y-88929884D01*
X133545133Y-88947357D01*
X133546000Y-88965000D01*
X133546000Y-89805000D01*
X133545133Y-89822643D01*
X133542541Y-89840116D01*
X133538249Y-89857251D01*
X133532298Y-89873883D01*
X133524746Y-89889851D01*
X133515665Y-89905003D01*
X133505142Y-89919191D01*
X133493279Y-89932279D01*
X133480191Y-89944142D01*
X133466003Y-89954665D01*
X133450851Y-89963746D01*
X133434883Y-89971298D01*
X133418251Y-89977249D01*
X133401116Y-89981541D01*
X133383643Y-89984133D01*
X133366000Y-89985000D01*
X132826000Y-89985000D01*
X132808357Y-89984133D01*
X132790884Y-89981541D01*
X132773749Y-89977249D01*
X132757117Y-89971298D01*
X132741149Y-89963746D01*
X132725997Y-89954665D01*
X132711809Y-89944142D01*
X132698721Y-89932279D01*
X132686858Y-89919191D01*
X132676335Y-89905003D01*
X132667254Y-89889851D01*
X132659702Y-89873883D01*
X132653751Y-89857251D01*
X132649459Y-89840116D01*
X132646867Y-89822643D01*
X132646000Y-89805000D01*
X132646000Y-88965000D01*
X132646867Y-88947357D01*
X132649459Y-88929884D01*
X132653751Y-88912749D01*
X132659702Y-88896117D01*
X132667254Y-88880149D01*
X132676335Y-88864997D01*
X132686858Y-88850809D01*
X132698721Y-88837721D01*
X132711809Y-88825858D01*
X132725997Y-88815335D01*
X132741149Y-88806254D01*
X132757117Y-88798702D01*
X132773749Y-88792751D01*
X132790884Y-88788459D01*
X132808357Y-88785867D01*
X132826000Y-88785000D01*
X133366000Y-88785000D01*
X133383643Y-88785867D01*
X133383643Y-88785867D01*
G37*
D11*
G04 #@! TD*
G04 #@! TO.P,U1,12*
G04 #@! TO.N,PA14_GPIO*
X133096000Y-89385000D03*
D10*
G04 #@! TO.N,PA19_PWM_T0_W3*
G04 #@! TO.C,U1*
G36*
X134653643Y-88785867D02*
X134671116Y-88788459D01*
X134688251Y-88792751D01*
X134704883Y-88798702D01*
X134720851Y-88806254D01*
X134736003Y-88815335D01*
X134750191Y-88825858D01*
X134763279Y-88837721D01*
X134775142Y-88850809D01*
X134785665Y-88864997D01*
X134794746Y-88880149D01*
X134802298Y-88896117D01*
X134808249Y-88912749D01*
X134812541Y-88929884D01*
X134815133Y-88947357D01*
X134816000Y-88965000D01*
X134816000Y-89805000D01*
X134815133Y-89822643D01*
X134812541Y-89840116D01*
X134808249Y-89857251D01*
X134802298Y-89873883D01*
X134794746Y-89889851D01*
X134785665Y-89905003D01*
X134775142Y-89919191D01*
X134763279Y-89932279D01*
X134750191Y-89944142D01*
X134736003Y-89954665D01*
X134720851Y-89963746D01*
X134704883Y-89971298D01*
X134688251Y-89977249D01*
X134671116Y-89981541D01*
X134653643Y-89984133D01*
X134636000Y-89985000D01*
X134096000Y-89985000D01*
X134078357Y-89984133D01*
X134060884Y-89981541D01*
X134043749Y-89977249D01*
X134027117Y-89971298D01*
X134011149Y-89963746D01*
X133995997Y-89954665D01*
X133981809Y-89944142D01*
X133968721Y-89932279D01*
X133956858Y-89919191D01*
X133946335Y-89905003D01*
X133937254Y-89889851D01*
X133929702Y-89873883D01*
X133923751Y-89857251D01*
X133919459Y-89840116D01*
X133916867Y-89822643D01*
X133916000Y-89805000D01*
X133916000Y-88965000D01*
X133916867Y-88947357D01*
X133919459Y-88929884D01*
X133923751Y-88912749D01*
X133929702Y-88896117D01*
X133937254Y-88880149D01*
X133946335Y-88864997D01*
X133956858Y-88850809D01*
X133968721Y-88837721D01*
X133981809Y-88825858D01*
X133995997Y-88815335D01*
X134011149Y-88806254D01*
X134027117Y-88798702D01*
X134043749Y-88792751D01*
X134060884Y-88788459D01*
X134078357Y-88785867D01*
X134096000Y-88785000D01*
X134636000Y-88785000D01*
X134653643Y-88785867D01*
X134653643Y-88785867D01*
G37*
D11*
G04 #@! TD*
G04 #@! TO.P,U1,13*
G04 #@! TO.N,PA19_PWM_T0_W3*
X134366000Y-89385000D03*
D10*
G04 #@! TO.N,PA22_GPIO*
G04 #@! TO.C,U1*
G36*
X135923643Y-88785867D02*
X135941116Y-88788459D01*
X135958251Y-88792751D01*
X135974883Y-88798702D01*
X135990851Y-88806254D01*
X136006003Y-88815335D01*
X136020191Y-88825858D01*
X136033279Y-88837721D01*
X136045142Y-88850809D01*
X136055665Y-88864997D01*
X136064746Y-88880149D01*
X136072298Y-88896117D01*
X136078249Y-88912749D01*
X136082541Y-88929884D01*
X136085133Y-88947357D01*
X136086000Y-88965000D01*
X136086000Y-89805000D01*
X136085133Y-89822643D01*
X136082541Y-89840116D01*
X136078249Y-89857251D01*
X136072298Y-89873883D01*
X136064746Y-89889851D01*
X136055665Y-89905003D01*
X136045142Y-89919191D01*
X136033279Y-89932279D01*
X136020191Y-89944142D01*
X136006003Y-89954665D01*
X135990851Y-89963746D01*
X135974883Y-89971298D01*
X135958251Y-89977249D01*
X135941116Y-89981541D01*
X135923643Y-89984133D01*
X135906000Y-89985000D01*
X135366000Y-89985000D01*
X135348357Y-89984133D01*
X135330884Y-89981541D01*
X135313749Y-89977249D01*
X135297117Y-89971298D01*
X135281149Y-89963746D01*
X135265997Y-89954665D01*
X135251809Y-89944142D01*
X135238721Y-89932279D01*
X135226858Y-89919191D01*
X135216335Y-89905003D01*
X135207254Y-89889851D01*
X135199702Y-89873883D01*
X135193751Y-89857251D01*
X135189459Y-89840116D01*
X135186867Y-89822643D01*
X135186000Y-89805000D01*
X135186000Y-88965000D01*
X135186867Y-88947357D01*
X135189459Y-88929884D01*
X135193751Y-88912749D01*
X135199702Y-88896117D01*
X135207254Y-88880149D01*
X135216335Y-88864997D01*
X135226858Y-88850809D01*
X135238721Y-88837721D01*
X135251809Y-88825858D01*
X135265997Y-88815335D01*
X135281149Y-88806254D01*
X135297117Y-88798702D01*
X135313749Y-88792751D01*
X135330884Y-88788459D01*
X135348357Y-88785867D01*
X135366000Y-88785000D01*
X135906000Y-88785000D01*
X135923643Y-88785867D01*
X135923643Y-88785867D01*
G37*
D11*
G04 #@! TD*
G04 #@! TO.P,U1,14*
G04 #@! TO.N,PA22_GPIO*
X135636000Y-89385000D03*
D10*
G04 #@! TO.N,PA23_S5_SPI_SS*
G04 #@! TO.C,U1*
G36*
X137193643Y-88785867D02*
X137211116Y-88788459D01*
X137228251Y-88792751D01*
X137244883Y-88798702D01*
X137260851Y-88806254D01*
X137276003Y-88815335D01*
X137290191Y-88825858D01*
X137303279Y-88837721D01*
X137315142Y-88850809D01*
X137325665Y-88864997D01*
X137334746Y-88880149D01*
X137342298Y-88896117D01*
X137348249Y-88912749D01*
X137352541Y-88929884D01*
X137355133Y-88947357D01*
X137356000Y-88965000D01*
X137356000Y-89805000D01*
X137355133Y-89822643D01*
X137352541Y-89840116D01*
X137348249Y-89857251D01*
X137342298Y-89873883D01*
X137334746Y-89889851D01*
X137325665Y-89905003D01*
X137315142Y-89919191D01*
X137303279Y-89932279D01*
X137290191Y-89944142D01*
X137276003Y-89954665D01*
X137260851Y-89963746D01*
X137244883Y-89971298D01*
X137228251Y-89977249D01*
X137211116Y-89981541D01*
X137193643Y-89984133D01*
X137176000Y-89985000D01*
X136636000Y-89985000D01*
X136618357Y-89984133D01*
X136600884Y-89981541D01*
X136583749Y-89977249D01*
X136567117Y-89971298D01*
X136551149Y-89963746D01*
X136535997Y-89954665D01*
X136521809Y-89944142D01*
X136508721Y-89932279D01*
X136496858Y-89919191D01*
X136486335Y-89905003D01*
X136477254Y-89889851D01*
X136469702Y-89873883D01*
X136463751Y-89857251D01*
X136459459Y-89840116D01*
X136456867Y-89822643D01*
X136456000Y-89805000D01*
X136456000Y-88965000D01*
X136456867Y-88947357D01*
X136459459Y-88929884D01*
X136463751Y-88912749D01*
X136469702Y-88896117D01*
X136477254Y-88880149D01*
X136486335Y-88864997D01*
X136496858Y-88850809D01*
X136508721Y-88837721D01*
X136521809Y-88825858D01*
X136535997Y-88815335D01*
X136551149Y-88806254D01*
X136567117Y-88798702D01*
X136583749Y-88792751D01*
X136600884Y-88788459D01*
X136618357Y-88785867D01*
X136636000Y-88785000D01*
X137176000Y-88785000D01*
X137193643Y-88785867D01*
X137193643Y-88785867D01*
G37*
D11*
G04 #@! TD*
G04 #@! TO.P,U1,15*
G04 #@! TO.N,PA23_S5_SPI_SS*
X136906000Y-89385000D03*
D10*
G04 #@! TO.N,USB_P*
G04 #@! TO.C,U1*
G36*
X138463643Y-88785867D02*
X138481116Y-88788459D01*
X138498251Y-88792751D01*
X138514883Y-88798702D01*
X138530851Y-88806254D01*
X138546003Y-88815335D01*
X138560191Y-88825858D01*
X138573279Y-88837721D01*
X138585142Y-88850809D01*
X138595665Y-88864997D01*
X138604746Y-88880149D01*
X138612298Y-88896117D01*
X138618249Y-88912749D01*
X138622541Y-88929884D01*
X138625133Y-88947357D01*
X138626000Y-88965000D01*
X138626000Y-89805000D01*
X138625133Y-89822643D01*
X138622541Y-89840116D01*
X138618249Y-89857251D01*
X138612298Y-89873883D01*
X138604746Y-89889851D01*
X138595665Y-89905003D01*
X138585142Y-89919191D01*
X138573279Y-89932279D01*
X138560191Y-89944142D01*
X138546003Y-89954665D01*
X138530851Y-89963746D01*
X138514883Y-89971298D01*
X138498251Y-89977249D01*
X138481116Y-89981541D01*
X138463643Y-89984133D01*
X138446000Y-89985000D01*
X137906000Y-89985000D01*
X137888357Y-89984133D01*
X137870884Y-89981541D01*
X137853749Y-89977249D01*
X137837117Y-89971298D01*
X137821149Y-89963746D01*
X137805997Y-89954665D01*
X137791809Y-89944142D01*
X137778721Y-89932279D01*
X137766858Y-89919191D01*
X137756335Y-89905003D01*
X137747254Y-89889851D01*
X137739702Y-89873883D01*
X137733751Y-89857251D01*
X137729459Y-89840116D01*
X137726867Y-89822643D01*
X137726000Y-89805000D01*
X137726000Y-88965000D01*
X137726867Y-88947357D01*
X137729459Y-88929884D01*
X137733751Y-88912749D01*
X137739702Y-88896117D01*
X137747254Y-88880149D01*
X137756335Y-88864997D01*
X137766858Y-88850809D01*
X137778721Y-88837721D01*
X137791809Y-88825858D01*
X137805997Y-88815335D01*
X137821149Y-88806254D01*
X137837117Y-88798702D01*
X137853749Y-88792751D01*
X137870884Y-88788459D01*
X137888357Y-88785867D01*
X137906000Y-88785000D01*
X138446000Y-88785000D01*
X138463643Y-88785867D01*
X138463643Y-88785867D01*
G37*
D11*
G04 #@! TD*
G04 #@! TO.P,U1,16*
G04 #@! TO.N,USB_P*
X138176000Y-89385000D03*
D10*
G04 #@! TO.N,USB_N*
G04 #@! TO.C,U1*
G36*
X139733643Y-88785867D02*
X139751116Y-88788459D01*
X139768251Y-88792751D01*
X139784883Y-88798702D01*
X139800851Y-88806254D01*
X139816003Y-88815335D01*
X139830191Y-88825858D01*
X139843279Y-88837721D01*
X139855142Y-88850809D01*
X139865665Y-88864997D01*
X139874746Y-88880149D01*
X139882298Y-88896117D01*
X139888249Y-88912749D01*
X139892541Y-88929884D01*
X139895133Y-88947357D01*
X139896000Y-88965000D01*
X139896000Y-89805000D01*
X139895133Y-89822643D01*
X139892541Y-89840116D01*
X139888249Y-89857251D01*
X139882298Y-89873883D01*
X139874746Y-89889851D01*
X139865665Y-89905003D01*
X139855142Y-89919191D01*
X139843279Y-89932279D01*
X139830191Y-89944142D01*
X139816003Y-89954665D01*
X139800851Y-89963746D01*
X139784883Y-89971298D01*
X139768251Y-89977249D01*
X139751116Y-89981541D01*
X139733643Y-89984133D01*
X139716000Y-89985000D01*
X139176000Y-89985000D01*
X139158357Y-89984133D01*
X139140884Y-89981541D01*
X139123749Y-89977249D01*
X139107117Y-89971298D01*
X139091149Y-89963746D01*
X139075997Y-89954665D01*
X139061809Y-89944142D01*
X139048721Y-89932279D01*
X139036858Y-89919191D01*
X139026335Y-89905003D01*
X139017254Y-89889851D01*
X139009702Y-89873883D01*
X139003751Y-89857251D01*
X138999459Y-89840116D01*
X138996867Y-89822643D01*
X138996000Y-89805000D01*
X138996000Y-88965000D01*
X138996867Y-88947357D01*
X138999459Y-88929884D01*
X139003751Y-88912749D01*
X139009702Y-88896117D01*
X139017254Y-88880149D01*
X139026335Y-88864997D01*
X139036858Y-88850809D01*
X139048721Y-88837721D01*
X139061809Y-88825858D01*
X139075997Y-88815335D01*
X139091149Y-88806254D01*
X139107117Y-88798702D01*
X139123749Y-88792751D01*
X139140884Y-88788459D01*
X139158357Y-88785867D01*
X139176000Y-88785000D01*
X139716000Y-88785000D01*
X139733643Y-88785867D01*
X139733643Y-88785867D01*
G37*
D11*
G04 #@! TD*
G04 #@! TO.P,U1,17*
G04 #@! TO.N,USB_N*
X139446000Y-89385000D03*
D10*
G04 #@! TO.N,GND*
G04 #@! TO.C,U1*
G36*
X141003643Y-88785867D02*
X141021116Y-88788459D01*
X141038251Y-88792751D01*
X141054883Y-88798702D01*
X141070851Y-88806254D01*
X141086003Y-88815335D01*
X141100191Y-88825858D01*
X141113279Y-88837721D01*
X141125142Y-88850809D01*
X141135665Y-88864997D01*
X141144746Y-88880149D01*
X141152298Y-88896117D01*
X141158249Y-88912749D01*
X141162541Y-88929884D01*
X141165133Y-88947357D01*
X141166000Y-88965000D01*
X141166000Y-89805000D01*
X141165133Y-89822643D01*
X141162541Y-89840116D01*
X141158249Y-89857251D01*
X141152298Y-89873883D01*
X141144746Y-89889851D01*
X141135665Y-89905003D01*
X141125142Y-89919191D01*
X141113279Y-89932279D01*
X141100191Y-89944142D01*
X141086003Y-89954665D01*
X141070851Y-89963746D01*
X141054883Y-89971298D01*
X141038251Y-89977249D01*
X141021116Y-89981541D01*
X141003643Y-89984133D01*
X140986000Y-89985000D01*
X140446000Y-89985000D01*
X140428357Y-89984133D01*
X140410884Y-89981541D01*
X140393749Y-89977249D01*
X140377117Y-89971298D01*
X140361149Y-89963746D01*
X140345997Y-89954665D01*
X140331809Y-89944142D01*
X140318721Y-89932279D01*
X140306858Y-89919191D01*
X140296335Y-89905003D01*
X140287254Y-89889851D01*
X140279702Y-89873883D01*
X140273751Y-89857251D01*
X140269459Y-89840116D01*
X140266867Y-89822643D01*
X140266000Y-89805000D01*
X140266000Y-88965000D01*
X140266867Y-88947357D01*
X140269459Y-88929884D01*
X140273751Y-88912749D01*
X140279702Y-88896117D01*
X140287254Y-88880149D01*
X140296335Y-88864997D01*
X140306858Y-88850809D01*
X140318721Y-88837721D01*
X140331809Y-88825858D01*
X140345997Y-88815335D01*
X140361149Y-88806254D01*
X140377117Y-88798702D01*
X140393749Y-88792751D01*
X140410884Y-88788459D01*
X140428357Y-88785867D01*
X140446000Y-88785000D01*
X140986000Y-88785000D01*
X141003643Y-88785867D01*
X141003643Y-88785867D01*
G37*
D11*
G04 #@! TD*
G04 #@! TO.P,U1,18*
G04 #@! TO.N,GND*
X140716000Y-89385000D03*
D10*
G04 #@! TO.N,PA15_GPIO*
G04 #@! TO.C,U1*
G36*
X132149722Y-88388774D02*
X132163313Y-88390790D01*
X132176640Y-88394128D01*
X132189576Y-88398757D01*
X132201996Y-88404631D01*
X132213780Y-88411694D01*
X132224815Y-88419879D01*
X132234995Y-88429105D01*
X132244221Y-88439285D01*
X132252406Y-88450320D01*
X132259469Y-88462104D01*
X132265343Y-88474524D01*
X132269972Y-88487460D01*
X132273310Y-88500787D01*
X132275326Y-88514378D01*
X132276000Y-88528100D01*
X132276000Y-88948100D01*
X132275326Y-88961822D01*
X132273310Y-88975413D01*
X132269972Y-88988740D01*
X132265343Y-89001676D01*
X132259469Y-89014096D01*
X132252406Y-89025880D01*
X132244221Y-89036915D01*
X132234995Y-89047095D01*
X132224815Y-89056321D01*
X132213780Y-89064506D01*
X132201996Y-89071569D01*
X132189576Y-89077443D01*
X132176640Y-89082072D01*
X132163313Y-89085410D01*
X132149722Y-89087426D01*
X132136000Y-89088100D01*
X131516000Y-89088100D01*
X131502278Y-89087426D01*
X131488687Y-89085410D01*
X131475360Y-89082072D01*
X131462424Y-89077443D01*
X131450004Y-89071569D01*
X131438220Y-89064506D01*
X131427185Y-89056321D01*
X131417005Y-89047095D01*
X131407779Y-89036915D01*
X131399594Y-89025880D01*
X131392531Y-89014096D01*
X131386657Y-89001676D01*
X131382028Y-88988740D01*
X131378690Y-88975413D01*
X131376674Y-88961822D01*
X131376000Y-88948100D01*
X131376000Y-88528100D01*
X131376674Y-88514378D01*
X131378690Y-88500787D01*
X131382028Y-88487460D01*
X131386657Y-88474524D01*
X131392531Y-88462104D01*
X131399594Y-88450320D01*
X131407779Y-88439285D01*
X131417005Y-88429105D01*
X131427185Y-88419879D01*
X131438220Y-88411694D01*
X131450004Y-88404631D01*
X131462424Y-88398757D01*
X131475360Y-88394128D01*
X131488687Y-88390790D01*
X131502278Y-88388774D01*
X131516000Y-88388100D01*
X132136000Y-88388100D01*
X132149722Y-88388774D01*
X132149722Y-88388774D01*
G37*
D12*
G04 #@! TD*
G04 #@! TO.P,U1,11*
G04 #@! TO.N,PA15_GPIO*
X131826000Y-88738100D03*
D10*
G04 #@! TO.N,PA14_GPIO*
G04 #@! TO.C,U1*
G36*
X133419722Y-88388774D02*
X133433313Y-88390790D01*
X133446640Y-88394128D01*
X133459576Y-88398757D01*
X133471996Y-88404631D01*
X133483780Y-88411694D01*
X133494815Y-88419879D01*
X133504995Y-88429105D01*
X133514221Y-88439285D01*
X133522406Y-88450320D01*
X133529469Y-88462104D01*
X133535343Y-88474524D01*
X133539972Y-88487460D01*
X133543310Y-88500787D01*
X133545326Y-88514378D01*
X133546000Y-88528100D01*
X133546000Y-88948100D01*
X133545326Y-88961822D01*
X133543310Y-88975413D01*
X133539972Y-88988740D01*
X133535343Y-89001676D01*
X133529469Y-89014096D01*
X133522406Y-89025880D01*
X133514221Y-89036915D01*
X133504995Y-89047095D01*
X133494815Y-89056321D01*
X133483780Y-89064506D01*
X133471996Y-89071569D01*
X133459576Y-89077443D01*
X133446640Y-89082072D01*
X133433313Y-89085410D01*
X133419722Y-89087426D01*
X133406000Y-89088100D01*
X132786000Y-89088100D01*
X132772278Y-89087426D01*
X132758687Y-89085410D01*
X132745360Y-89082072D01*
X132732424Y-89077443D01*
X132720004Y-89071569D01*
X132708220Y-89064506D01*
X132697185Y-89056321D01*
X132687005Y-89047095D01*
X132677779Y-89036915D01*
X132669594Y-89025880D01*
X132662531Y-89014096D01*
X132656657Y-89001676D01*
X132652028Y-88988740D01*
X132648690Y-88975413D01*
X132646674Y-88961822D01*
X132646000Y-88948100D01*
X132646000Y-88528100D01*
X132646674Y-88514378D01*
X132648690Y-88500787D01*
X132652028Y-88487460D01*
X132656657Y-88474524D01*
X132662531Y-88462104D01*
X132669594Y-88450320D01*
X132677779Y-88439285D01*
X132687005Y-88429105D01*
X132697185Y-88419879D01*
X132708220Y-88411694D01*
X132720004Y-88404631D01*
X132732424Y-88398757D01*
X132745360Y-88394128D01*
X132758687Y-88390790D01*
X132772278Y-88388774D01*
X132786000Y-88388100D01*
X133406000Y-88388100D01*
X133419722Y-88388774D01*
X133419722Y-88388774D01*
G37*
D12*
G04 #@! TD*
G04 #@! TO.P,U1,12*
G04 #@! TO.N,PA14_GPIO*
X133096000Y-88738100D03*
D10*
G04 #@! TO.N,PA19_PWM_T0_W3*
G04 #@! TO.C,U1*
G36*
X134689722Y-88388774D02*
X134703313Y-88390790D01*
X134716640Y-88394128D01*
X134729576Y-88398757D01*
X134741996Y-88404631D01*
X134753780Y-88411694D01*
X134764815Y-88419879D01*
X134774995Y-88429105D01*
X134784221Y-88439285D01*
X134792406Y-88450320D01*
X134799469Y-88462104D01*
X134805343Y-88474524D01*
X134809972Y-88487460D01*
X134813310Y-88500787D01*
X134815326Y-88514378D01*
X134816000Y-88528100D01*
X134816000Y-88948100D01*
X134815326Y-88961822D01*
X134813310Y-88975413D01*
X134809972Y-88988740D01*
X134805343Y-89001676D01*
X134799469Y-89014096D01*
X134792406Y-89025880D01*
X134784221Y-89036915D01*
X134774995Y-89047095D01*
X134764815Y-89056321D01*
X134753780Y-89064506D01*
X134741996Y-89071569D01*
X134729576Y-89077443D01*
X134716640Y-89082072D01*
X134703313Y-89085410D01*
X134689722Y-89087426D01*
X134676000Y-89088100D01*
X134056000Y-89088100D01*
X134042278Y-89087426D01*
X134028687Y-89085410D01*
X134015360Y-89082072D01*
X134002424Y-89077443D01*
X133990004Y-89071569D01*
X133978220Y-89064506D01*
X133967185Y-89056321D01*
X133957005Y-89047095D01*
X133947779Y-89036915D01*
X133939594Y-89025880D01*
X133932531Y-89014096D01*
X133926657Y-89001676D01*
X133922028Y-88988740D01*
X133918690Y-88975413D01*
X133916674Y-88961822D01*
X133916000Y-88948100D01*
X133916000Y-88528100D01*
X133916674Y-88514378D01*
X133918690Y-88500787D01*
X133922028Y-88487460D01*
X133926657Y-88474524D01*
X133932531Y-88462104D01*
X133939594Y-88450320D01*
X133947779Y-88439285D01*
X133957005Y-88429105D01*
X133967185Y-88419879D01*
X133978220Y-88411694D01*
X133990004Y-88404631D01*
X134002424Y-88398757D01*
X134015360Y-88394128D01*
X134028687Y-88390790D01*
X134042278Y-88388774D01*
X134056000Y-88388100D01*
X134676000Y-88388100D01*
X134689722Y-88388774D01*
X134689722Y-88388774D01*
G37*
D12*
G04 #@! TD*
G04 #@! TO.P,U1,13*
G04 #@! TO.N,PA19_PWM_T0_W3*
X134366000Y-88738100D03*
D10*
G04 #@! TO.N,PA22_GPIO*
G04 #@! TO.C,U1*
G36*
X135959722Y-88388774D02*
X135973313Y-88390790D01*
X135986640Y-88394128D01*
X135999576Y-88398757D01*
X136011996Y-88404631D01*
X136023780Y-88411694D01*
X136034815Y-88419879D01*
X136044995Y-88429105D01*
X136054221Y-88439285D01*
X136062406Y-88450320D01*
X136069469Y-88462104D01*
X136075343Y-88474524D01*
X136079972Y-88487460D01*
X136083310Y-88500787D01*
X136085326Y-88514378D01*
X136086000Y-88528100D01*
X136086000Y-88948100D01*
X136085326Y-88961822D01*
X136083310Y-88975413D01*
X136079972Y-88988740D01*
X136075343Y-89001676D01*
X136069469Y-89014096D01*
X136062406Y-89025880D01*
X136054221Y-89036915D01*
X136044995Y-89047095D01*
X136034815Y-89056321D01*
X136023780Y-89064506D01*
X136011996Y-89071569D01*
X135999576Y-89077443D01*
X135986640Y-89082072D01*
X135973313Y-89085410D01*
X135959722Y-89087426D01*
X135946000Y-89088100D01*
X135326000Y-89088100D01*
X135312278Y-89087426D01*
X135298687Y-89085410D01*
X135285360Y-89082072D01*
X135272424Y-89077443D01*
X135260004Y-89071569D01*
X135248220Y-89064506D01*
X135237185Y-89056321D01*
X135227005Y-89047095D01*
X135217779Y-89036915D01*
X135209594Y-89025880D01*
X135202531Y-89014096D01*
X135196657Y-89001676D01*
X135192028Y-88988740D01*
X135188690Y-88975413D01*
X135186674Y-88961822D01*
X135186000Y-88948100D01*
X135186000Y-88528100D01*
X135186674Y-88514378D01*
X135188690Y-88500787D01*
X135192028Y-88487460D01*
X135196657Y-88474524D01*
X135202531Y-88462104D01*
X135209594Y-88450320D01*
X135217779Y-88439285D01*
X135227005Y-88429105D01*
X135237185Y-88419879D01*
X135248220Y-88411694D01*
X135260004Y-88404631D01*
X135272424Y-88398757D01*
X135285360Y-88394128D01*
X135298687Y-88390790D01*
X135312278Y-88388774D01*
X135326000Y-88388100D01*
X135946000Y-88388100D01*
X135959722Y-88388774D01*
X135959722Y-88388774D01*
G37*
D12*
G04 #@! TD*
G04 #@! TO.P,U1,14*
G04 #@! TO.N,PA22_GPIO*
X135636000Y-88738100D03*
D10*
G04 #@! TO.N,PA23_S5_SPI_SS*
G04 #@! TO.C,U1*
G36*
X137229722Y-88388774D02*
X137243313Y-88390790D01*
X137256640Y-88394128D01*
X137269576Y-88398757D01*
X137281996Y-88404631D01*
X137293780Y-88411694D01*
X137304815Y-88419879D01*
X137314995Y-88429105D01*
X137324221Y-88439285D01*
X137332406Y-88450320D01*
X137339469Y-88462104D01*
X137345343Y-88474524D01*
X137349972Y-88487460D01*
X137353310Y-88500787D01*
X137355326Y-88514378D01*
X137356000Y-88528100D01*
X137356000Y-88948100D01*
X137355326Y-88961822D01*
X137353310Y-88975413D01*
X137349972Y-88988740D01*
X137345343Y-89001676D01*
X137339469Y-89014096D01*
X137332406Y-89025880D01*
X137324221Y-89036915D01*
X137314995Y-89047095D01*
X137304815Y-89056321D01*
X137293780Y-89064506D01*
X137281996Y-89071569D01*
X137269576Y-89077443D01*
X137256640Y-89082072D01*
X137243313Y-89085410D01*
X137229722Y-89087426D01*
X137216000Y-89088100D01*
X136596000Y-89088100D01*
X136582278Y-89087426D01*
X136568687Y-89085410D01*
X136555360Y-89082072D01*
X136542424Y-89077443D01*
X136530004Y-89071569D01*
X136518220Y-89064506D01*
X136507185Y-89056321D01*
X136497005Y-89047095D01*
X136487779Y-89036915D01*
X136479594Y-89025880D01*
X136472531Y-89014096D01*
X136466657Y-89001676D01*
X136462028Y-88988740D01*
X136458690Y-88975413D01*
X136456674Y-88961822D01*
X136456000Y-88948100D01*
X136456000Y-88528100D01*
X136456674Y-88514378D01*
X136458690Y-88500787D01*
X136462028Y-88487460D01*
X136466657Y-88474524D01*
X136472531Y-88462104D01*
X136479594Y-88450320D01*
X136487779Y-88439285D01*
X136497005Y-88429105D01*
X136507185Y-88419879D01*
X136518220Y-88411694D01*
X136530004Y-88404631D01*
X136542424Y-88398757D01*
X136555360Y-88394128D01*
X136568687Y-88390790D01*
X136582278Y-88388774D01*
X136596000Y-88388100D01*
X137216000Y-88388100D01*
X137229722Y-88388774D01*
X137229722Y-88388774D01*
G37*
D12*
G04 #@! TD*
G04 #@! TO.P,U1,15*
G04 #@! TO.N,PA23_S5_SPI_SS*
X136906000Y-88738100D03*
D10*
G04 #@! TO.N,USB_P*
G04 #@! TO.C,U1*
G36*
X138499722Y-88388774D02*
X138513313Y-88390790D01*
X138526640Y-88394128D01*
X138539576Y-88398757D01*
X138551996Y-88404631D01*
X138563780Y-88411694D01*
X138574815Y-88419879D01*
X138584995Y-88429105D01*
X138594221Y-88439285D01*
X138602406Y-88450320D01*
X138609469Y-88462104D01*
X138615343Y-88474524D01*
X138619972Y-88487460D01*
X138623310Y-88500787D01*
X138625326Y-88514378D01*
X138626000Y-88528100D01*
X138626000Y-88948100D01*
X138625326Y-88961822D01*
X138623310Y-88975413D01*
X138619972Y-88988740D01*
X138615343Y-89001676D01*
X138609469Y-89014096D01*
X138602406Y-89025880D01*
X138594221Y-89036915D01*
X138584995Y-89047095D01*
X138574815Y-89056321D01*
X138563780Y-89064506D01*
X138551996Y-89071569D01*
X138539576Y-89077443D01*
X138526640Y-89082072D01*
X138513313Y-89085410D01*
X138499722Y-89087426D01*
X138486000Y-89088100D01*
X137866000Y-89088100D01*
X137852278Y-89087426D01*
X137838687Y-89085410D01*
X137825360Y-89082072D01*
X137812424Y-89077443D01*
X137800004Y-89071569D01*
X137788220Y-89064506D01*
X137777185Y-89056321D01*
X137767005Y-89047095D01*
X137757779Y-89036915D01*
X137749594Y-89025880D01*
X137742531Y-89014096D01*
X137736657Y-89001676D01*
X137732028Y-88988740D01*
X137728690Y-88975413D01*
X137726674Y-88961822D01*
X137726000Y-88948100D01*
X137726000Y-88528100D01*
X137726674Y-88514378D01*
X137728690Y-88500787D01*
X137732028Y-88487460D01*
X137736657Y-88474524D01*
X137742531Y-88462104D01*
X137749594Y-88450320D01*
X137757779Y-88439285D01*
X137767005Y-88429105D01*
X137777185Y-88419879D01*
X137788220Y-88411694D01*
X137800004Y-88404631D01*
X137812424Y-88398757D01*
X137825360Y-88394128D01*
X137838687Y-88390790D01*
X137852278Y-88388774D01*
X137866000Y-88388100D01*
X138486000Y-88388100D01*
X138499722Y-88388774D01*
X138499722Y-88388774D01*
G37*
D12*
G04 #@! TD*
G04 #@! TO.P,U1,16*
G04 #@! TO.N,USB_P*
X138176000Y-88738100D03*
D10*
G04 #@! TO.N,USB_N*
G04 #@! TO.C,U1*
G36*
X139769722Y-88388774D02*
X139783313Y-88390790D01*
X139796640Y-88394128D01*
X139809576Y-88398757D01*
X139821996Y-88404631D01*
X139833780Y-88411694D01*
X139844815Y-88419879D01*
X139854995Y-88429105D01*
X139864221Y-88439285D01*
X139872406Y-88450320D01*
X139879469Y-88462104D01*
X139885343Y-88474524D01*
X139889972Y-88487460D01*
X139893310Y-88500787D01*
X139895326Y-88514378D01*
X139896000Y-88528100D01*
X139896000Y-88948100D01*
X139895326Y-88961822D01*
X139893310Y-88975413D01*
X139889972Y-88988740D01*
X139885343Y-89001676D01*
X139879469Y-89014096D01*
X139872406Y-89025880D01*
X139864221Y-89036915D01*
X139854995Y-89047095D01*
X139844815Y-89056321D01*
X139833780Y-89064506D01*
X139821996Y-89071569D01*
X139809576Y-89077443D01*
X139796640Y-89082072D01*
X139783313Y-89085410D01*
X139769722Y-89087426D01*
X139756000Y-89088100D01*
X139136000Y-89088100D01*
X139122278Y-89087426D01*
X139108687Y-89085410D01*
X139095360Y-89082072D01*
X139082424Y-89077443D01*
X139070004Y-89071569D01*
X139058220Y-89064506D01*
X139047185Y-89056321D01*
X139037005Y-89047095D01*
X139027779Y-89036915D01*
X139019594Y-89025880D01*
X139012531Y-89014096D01*
X139006657Y-89001676D01*
X139002028Y-88988740D01*
X138998690Y-88975413D01*
X138996674Y-88961822D01*
X138996000Y-88948100D01*
X138996000Y-88528100D01*
X138996674Y-88514378D01*
X138998690Y-88500787D01*
X139002028Y-88487460D01*
X139006657Y-88474524D01*
X139012531Y-88462104D01*
X139019594Y-88450320D01*
X139027779Y-88439285D01*
X139037005Y-88429105D01*
X139047185Y-88419879D01*
X139058220Y-88411694D01*
X139070004Y-88404631D01*
X139082424Y-88398757D01*
X139095360Y-88394128D01*
X139108687Y-88390790D01*
X139122278Y-88388774D01*
X139136000Y-88388100D01*
X139756000Y-88388100D01*
X139769722Y-88388774D01*
X139769722Y-88388774D01*
G37*
D12*
G04 #@! TD*
G04 #@! TO.P,U1,17*
G04 #@! TO.N,USB_N*
X139446000Y-88738100D03*
D10*
G04 #@! TO.N,GND*
G04 #@! TO.C,U1*
G36*
X141039722Y-88388774D02*
X141053313Y-88390790D01*
X141066640Y-88394128D01*
X141079576Y-88398757D01*
X141091996Y-88404631D01*
X141103780Y-88411694D01*
X141114815Y-88419879D01*
X141124995Y-88429105D01*
X141134221Y-88439285D01*
X141142406Y-88450320D01*
X141149469Y-88462104D01*
X141155343Y-88474524D01*
X141159972Y-88487460D01*
X141163310Y-88500787D01*
X141165326Y-88514378D01*
X141166000Y-88528100D01*
X141166000Y-88948100D01*
X141165326Y-88961822D01*
X141163310Y-88975413D01*
X141159972Y-88988740D01*
X141155343Y-89001676D01*
X141149469Y-89014096D01*
X141142406Y-89025880D01*
X141134221Y-89036915D01*
X141124995Y-89047095D01*
X141114815Y-89056321D01*
X141103780Y-89064506D01*
X141091996Y-89071569D01*
X141079576Y-89077443D01*
X141066640Y-89082072D01*
X141053313Y-89085410D01*
X141039722Y-89087426D01*
X141026000Y-89088100D01*
X140406000Y-89088100D01*
X140392278Y-89087426D01*
X140378687Y-89085410D01*
X140365360Y-89082072D01*
X140352424Y-89077443D01*
X140340004Y-89071569D01*
X140328220Y-89064506D01*
X140317185Y-89056321D01*
X140307005Y-89047095D01*
X140297779Y-89036915D01*
X140289594Y-89025880D01*
X140282531Y-89014096D01*
X140276657Y-89001676D01*
X140272028Y-88988740D01*
X140268690Y-88975413D01*
X140266674Y-88961822D01*
X140266000Y-88948100D01*
X140266000Y-88528100D01*
X140266674Y-88514378D01*
X140268690Y-88500787D01*
X140272028Y-88487460D01*
X140276657Y-88474524D01*
X140282531Y-88462104D01*
X140289594Y-88450320D01*
X140297779Y-88439285D01*
X140307005Y-88429105D01*
X140317185Y-88419879D01*
X140328220Y-88411694D01*
X140340004Y-88404631D01*
X140352424Y-88398757D01*
X140365360Y-88394128D01*
X140378687Y-88390790D01*
X140392278Y-88388774D01*
X140406000Y-88388100D01*
X141026000Y-88388100D01*
X141039722Y-88388774D01*
X141039722Y-88388774D01*
G37*
D12*
G04 #@! TD*
G04 #@! TO.P,U1,18*
G04 #@! TO.N,GND*
X140716000Y-88738100D03*
D10*
G04 #@! TO.N,VDD*
G04 #@! TO.C,U1*
G36*
X142679722Y-87180674D02*
X142693313Y-87182690D01*
X142706640Y-87186028D01*
X142719576Y-87190657D01*
X142731996Y-87196531D01*
X142743780Y-87203594D01*
X142754815Y-87211779D01*
X142764995Y-87221005D01*
X142774221Y-87231185D01*
X142782406Y-87242220D01*
X142789469Y-87254004D01*
X142795343Y-87266424D01*
X142799972Y-87279360D01*
X142803310Y-87292687D01*
X142805326Y-87306278D01*
X142806000Y-87320000D01*
X142806000Y-87940000D01*
X142805326Y-87953722D01*
X142803310Y-87967313D01*
X142799972Y-87980640D01*
X142795343Y-87993576D01*
X142789469Y-88005996D01*
X142782406Y-88017780D01*
X142774221Y-88028815D01*
X142764995Y-88038995D01*
X142754815Y-88048221D01*
X142743780Y-88056406D01*
X142731996Y-88063469D01*
X142719576Y-88069343D01*
X142706640Y-88073972D01*
X142693313Y-88077310D01*
X142679722Y-88079326D01*
X142666000Y-88080000D01*
X142246000Y-88080000D01*
X142232278Y-88079326D01*
X142218687Y-88077310D01*
X142205360Y-88073972D01*
X142192424Y-88069343D01*
X142180004Y-88063469D01*
X142168220Y-88056406D01*
X142157185Y-88048221D01*
X142147005Y-88038995D01*
X142137779Y-88028815D01*
X142129594Y-88017780D01*
X142122531Y-88005996D01*
X142116657Y-87993576D01*
X142112028Y-87980640D01*
X142108690Y-87967313D01*
X142106674Y-87953722D01*
X142106000Y-87940000D01*
X142106000Y-87320000D01*
X142106674Y-87306278D01*
X142108690Y-87292687D01*
X142112028Y-87279360D01*
X142116657Y-87266424D01*
X142122531Y-87254004D01*
X142129594Y-87242220D01*
X142137779Y-87231185D01*
X142147005Y-87221005D01*
X142157185Y-87211779D01*
X142168220Y-87203594D01*
X142180004Y-87196531D01*
X142192424Y-87190657D01*
X142205360Y-87186028D01*
X142218687Y-87182690D01*
X142232278Y-87180674D01*
X142246000Y-87180000D01*
X142666000Y-87180000D01*
X142679722Y-87180674D01*
X142679722Y-87180674D01*
G37*
D12*
G04 #@! TD*
G04 #@! TO.P,U1,19*
G04 #@! TO.N,VDD*
X142456000Y-87630000D03*
D10*
G04 #@! TO.N,~RESET*
G04 #@! TO.C,U1*
G36*
X142679722Y-85910674D02*
X142693313Y-85912690D01*
X142706640Y-85916028D01*
X142719576Y-85920657D01*
X142731996Y-85926531D01*
X142743780Y-85933594D01*
X142754815Y-85941779D01*
X142764995Y-85951005D01*
X142774221Y-85961185D01*
X142782406Y-85972220D01*
X142789469Y-85984004D01*
X142795343Y-85996424D01*
X142799972Y-86009360D01*
X142803310Y-86022687D01*
X142805326Y-86036278D01*
X142806000Y-86050000D01*
X142806000Y-86670000D01*
X142805326Y-86683722D01*
X142803310Y-86697313D01*
X142799972Y-86710640D01*
X142795343Y-86723576D01*
X142789469Y-86735996D01*
X142782406Y-86747780D01*
X142774221Y-86758815D01*
X142764995Y-86768995D01*
X142754815Y-86778221D01*
X142743780Y-86786406D01*
X142731996Y-86793469D01*
X142719576Y-86799343D01*
X142706640Y-86803972D01*
X142693313Y-86807310D01*
X142679722Y-86809326D01*
X142666000Y-86810000D01*
X142246000Y-86810000D01*
X142232278Y-86809326D01*
X142218687Y-86807310D01*
X142205360Y-86803972D01*
X142192424Y-86799343D01*
X142180004Y-86793469D01*
X142168220Y-86786406D01*
X142157185Y-86778221D01*
X142147005Y-86768995D01*
X142137779Y-86758815D01*
X142129594Y-86747780D01*
X142122531Y-86735996D01*
X142116657Y-86723576D01*
X142112028Y-86710640D01*
X142108690Y-86697313D01*
X142106674Y-86683722D01*
X142106000Y-86670000D01*
X142106000Y-86050000D01*
X142106674Y-86036278D01*
X142108690Y-86022687D01*
X142112028Y-86009360D01*
X142116657Y-85996424D01*
X142122531Y-85984004D01*
X142129594Y-85972220D01*
X142137779Y-85961185D01*
X142147005Y-85951005D01*
X142157185Y-85941779D01*
X142168220Y-85933594D01*
X142180004Y-85926531D01*
X142192424Y-85920657D01*
X142205360Y-85916028D01*
X142218687Y-85912690D01*
X142232278Y-85910674D01*
X142246000Y-85910000D01*
X142666000Y-85910000D01*
X142679722Y-85910674D01*
X142679722Y-85910674D01*
G37*
D12*
G04 #@! TD*
G04 #@! TO.P,U1,20*
G04 #@! TO.N,~RESET*
X142456000Y-86360000D03*
D10*
G04 #@! TO.N,PA30_SWDCLK*
G04 #@! TO.C,U1*
G36*
X142679722Y-84640674D02*
X142693313Y-84642690D01*
X142706640Y-84646028D01*
X142719576Y-84650657D01*
X142731996Y-84656531D01*
X142743780Y-84663594D01*
X142754815Y-84671779D01*
X142764995Y-84681005D01*
X142774221Y-84691185D01*
X142782406Y-84702220D01*
X142789469Y-84714004D01*
X142795343Y-84726424D01*
X142799972Y-84739360D01*
X142803310Y-84752687D01*
X142805326Y-84766278D01*
X142806000Y-84780000D01*
X142806000Y-85400000D01*
X142805326Y-85413722D01*
X142803310Y-85427313D01*
X142799972Y-85440640D01*
X142795343Y-85453576D01*
X142789469Y-85465996D01*
X142782406Y-85477780D01*
X142774221Y-85488815D01*
X142764995Y-85498995D01*
X142754815Y-85508221D01*
X142743780Y-85516406D01*
X142731996Y-85523469D01*
X142719576Y-85529343D01*
X142706640Y-85533972D01*
X142693313Y-85537310D01*
X142679722Y-85539326D01*
X142666000Y-85540000D01*
X142246000Y-85540000D01*
X142232278Y-85539326D01*
X142218687Y-85537310D01*
X142205360Y-85533972D01*
X142192424Y-85529343D01*
X142180004Y-85523469D01*
X142168220Y-85516406D01*
X142157185Y-85508221D01*
X142147005Y-85498995D01*
X142137779Y-85488815D01*
X142129594Y-85477780D01*
X142122531Y-85465996D01*
X142116657Y-85453576D01*
X142112028Y-85440640D01*
X142108690Y-85427313D01*
X142106674Y-85413722D01*
X142106000Y-85400000D01*
X142106000Y-84780000D01*
X142106674Y-84766278D01*
X142108690Y-84752687D01*
X142112028Y-84739360D01*
X142116657Y-84726424D01*
X142122531Y-84714004D01*
X142129594Y-84702220D01*
X142137779Y-84691185D01*
X142147005Y-84681005D01*
X142157185Y-84671779D01*
X142168220Y-84663594D01*
X142180004Y-84656531D01*
X142192424Y-84650657D01*
X142205360Y-84646028D01*
X142218687Y-84642690D01*
X142232278Y-84640674D01*
X142246000Y-84640000D01*
X142666000Y-84640000D01*
X142679722Y-84640674D01*
X142679722Y-84640674D01*
G37*
D12*
G04 #@! TD*
G04 #@! TO.P,U1,21*
G04 #@! TO.N,PA30_SWDCLK*
X142456000Y-85090000D03*
D10*
G04 #@! TO.N,PA31_SWDIO*
G04 #@! TO.C,U1*
G36*
X142679722Y-83370674D02*
X142693313Y-83372690D01*
X142706640Y-83376028D01*
X142719576Y-83380657D01*
X142731996Y-83386531D01*
X142743780Y-83393594D01*
X142754815Y-83401779D01*
X142764995Y-83411005D01*
X142774221Y-83421185D01*
X142782406Y-83432220D01*
X142789469Y-83444004D01*
X142795343Y-83456424D01*
X142799972Y-83469360D01*
X142803310Y-83482687D01*
X142805326Y-83496278D01*
X142806000Y-83510000D01*
X142806000Y-84130000D01*
X142805326Y-84143722D01*
X142803310Y-84157313D01*
X142799972Y-84170640D01*
X142795343Y-84183576D01*
X142789469Y-84195996D01*
X142782406Y-84207780D01*
X142774221Y-84218815D01*
X142764995Y-84228995D01*
X142754815Y-84238221D01*
X142743780Y-84246406D01*
X142731996Y-84253469D01*
X142719576Y-84259343D01*
X142706640Y-84263972D01*
X142693313Y-84267310D01*
X142679722Y-84269326D01*
X142666000Y-84270000D01*
X142246000Y-84270000D01*
X142232278Y-84269326D01*
X142218687Y-84267310D01*
X142205360Y-84263972D01*
X142192424Y-84259343D01*
X142180004Y-84253469D01*
X142168220Y-84246406D01*
X142157185Y-84238221D01*
X142147005Y-84228995D01*
X142137779Y-84218815D01*
X142129594Y-84207780D01*
X142122531Y-84195996D01*
X142116657Y-84183576D01*
X142112028Y-84170640D01*
X142108690Y-84157313D01*
X142106674Y-84143722D01*
X142106000Y-84130000D01*
X142106000Y-83510000D01*
X142106674Y-83496278D01*
X142108690Y-83482687D01*
X142112028Y-83469360D01*
X142116657Y-83456424D01*
X142122531Y-83444004D01*
X142129594Y-83432220D01*
X142137779Y-83421185D01*
X142147005Y-83411005D01*
X142157185Y-83401779D01*
X142168220Y-83393594D01*
X142180004Y-83386531D01*
X142192424Y-83380657D01*
X142205360Y-83376028D01*
X142218687Y-83372690D01*
X142232278Y-83370674D01*
X142246000Y-83370000D01*
X142666000Y-83370000D01*
X142679722Y-83370674D01*
X142679722Y-83370674D01*
G37*
D12*
G04 #@! TD*
G04 #@! TO.P,U1,22*
G04 #@! TO.N,PA31_SWDIO*
X142456000Y-83820000D03*
D10*
G04 #@! TO.N,+BATT*
G04 #@! TO.C,U1*
G36*
X142679722Y-82100674D02*
X142693313Y-82102690D01*
X142706640Y-82106028D01*
X142719576Y-82110657D01*
X142731996Y-82116531D01*
X142743780Y-82123594D01*
X142754815Y-82131779D01*
X142764995Y-82141005D01*
X142774221Y-82151185D01*
X142782406Y-82162220D01*
X142789469Y-82174004D01*
X142795343Y-82186424D01*
X142799972Y-82199360D01*
X142803310Y-82212687D01*
X142805326Y-82226278D01*
X142806000Y-82240000D01*
X142806000Y-82860000D01*
X142805326Y-82873722D01*
X142803310Y-82887313D01*
X142799972Y-82900640D01*
X142795343Y-82913576D01*
X142789469Y-82925996D01*
X142782406Y-82937780D01*
X142774221Y-82948815D01*
X142764995Y-82958995D01*
X142754815Y-82968221D01*
X142743780Y-82976406D01*
X142731996Y-82983469D01*
X142719576Y-82989343D01*
X142706640Y-82993972D01*
X142693313Y-82997310D01*
X142679722Y-82999326D01*
X142666000Y-83000000D01*
X142246000Y-83000000D01*
X142232278Y-82999326D01*
X142218687Y-82997310D01*
X142205360Y-82993972D01*
X142192424Y-82989343D01*
X142180004Y-82983469D01*
X142168220Y-82976406D01*
X142157185Y-82968221D01*
X142147005Y-82958995D01*
X142137779Y-82948815D01*
X142129594Y-82937780D01*
X142122531Y-82925996D01*
X142116657Y-82913576D01*
X142112028Y-82900640D01*
X142108690Y-82887313D01*
X142106674Y-82873722D01*
X142106000Y-82860000D01*
X142106000Y-82240000D01*
X142106674Y-82226278D01*
X142108690Y-82212687D01*
X142112028Y-82199360D01*
X142116657Y-82186424D01*
X142122531Y-82174004D01*
X142129594Y-82162220D01*
X142137779Y-82151185D01*
X142147005Y-82141005D01*
X142157185Y-82131779D01*
X142168220Y-82123594D01*
X142180004Y-82116531D01*
X142192424Y-82110657D01*
X142205360Y-82106028D01*
X142218687Y-82102690D01*
X142232278Y-82100674D01*
X142246000Y-82100000D01*
X142666000Y-82100000D01*
X142679722Y-82100674D01*
X142679722Y-82100674D01*
G37*
D12*
G04 #@! TD*
G04 #@! TO.P,U1,23*
G04 #@! TO.N,+BATT*
X142456000Y-82550000D03*
D10*
G04 #@! TO.N,PA28_GPIO*
G04 #@! TO.C,U1*
G36*
X142679722Y-80830674D02*
X142693313Y-80832690D01*
X142706640Y-80836028D01*
X142719576Y-80840657D01*
X142731996Y-80846531D01*
X142743780Y-80853594D01*
X142754815Y-80861779D01*
X142764995Y-80871005D01*
X142774221Y-80881185D01*
X142782406Y-80892220D01*
X142789469Y-80904004D01*
X142795343Y-80916424D01*
X142799972Y-80929360D01*
X142803310Y-80942687D01*
X142805326Y-80956278D01*
X142806000Y-80970000D01*
X142806000Y-81590000D01*
X142805326Y-81603722D01*
X142803310Y-81617313D01*
X142799972Y-81630640D01*
X142795343Y-81643576D01*
X142789469Y-81655996D01*
X142782406Y-81667780D01*
X142774221Y-81678815D01*
X142764995Y-81688995D01*
X142754815Y-81698221D01*
X142743780Y-81706406D01*
X142731996Y-81713469D01*
X142719576Y-81719343D01*
X142706640Y-81723972D01*
X142693313Y-81727310D01*
X142679722Y-81729326D01*
X142666000Y-81730000D01*
X142246000Y-81730000D01*
X142232278Y-81729326D01*
X142218687Y-81727310D01*
X142205360Y-81723972D01*
X142192424Y-81719343D01*
X142180004Y-81713469D01*
X142168220Y-81706406D01*
X142157185Y-81698221D01*
X142147005Y-81688995D01*
X142137779Y-81678815D01*
X142129594Y-81667780D01*
X142122531Y-81655996D01*
X142116657Y-81643576D01*
X142112028Y-81630640D01*
X142108690Y-81617313D01*
X142106674Y-81603722D01*
X142106000Y-81590000D01*
X142106000Y-80970000D01*
X142106674Y-80956278D01*
X142108690Y-80942687D01*
X142112028Y-80929360D01*
X142116657Y-80916424D01*
X142122531Y-80904004D01*
X142129594Y-80892220D01*
X142137779Y-80881185D01*
X142147005Y-80871005D01*
X142157185Y-80861779D01*
X142168220Y-80853594D01*
X142180004Y-80846531D01*
X142192424Y-80840657D01*
X142205360Y-80836028D01*
X142218687Y-80832690D01*
X142232278Y-80830674D01*
X142246000Y-80830000D01*
X142666000Y-80830000D01*
X142679722Y-80830674D01*
X142679722Y-80830674D01*
G37*
D12*
G04 #@! TD*
G04 #@! TO.P,U1,24*
G04 #@! TO.N,PA28_GPIO*
X142456000Y-81280000D03*
D10*
G04 #@! TO.N,PB02_S5_SPI_MISO*
G04 #@! TO.C,U1*
G36*
X142679722Y-79560674D02*
X142693313Y-79562690D01*
X142706640Y-79566028D01*
X142719576Y-79570657D01*
X142731996Y-79576531D01*
X142743780Y-79583594D01*
X142754815Y-79591779D01*
X142764995Y-79601005D01*
X142774221Y-79611185D01*
X142782406Y-79622220D01*
X142789469Y-79634004D01*
X142795343Y-79646424D01*
X142799972Y-79659360D01*
X142803310Y-79672687D01*
X142805326Y-79686278D01*
X142806000Y-79700000D01*
X142806000Y-80320000D01*
X142805326Y-80333722D01*
X142803310Y-80347313D01*
X142799972Y-80360640D01*
X142795343Y-80373576D01*
X142789469Y-80385996D01*
X142782406Y-80397780D01*
X142774221Y-80408815D01*
X142764995Y-80418995D01*
X142754815Y-80428221D01*
X142743780Y-80436406D01*
X142731996Y-80443469D01*
X142719576Y-80449343D01*
X142706640Y-80453972D01*
X142693313Y-80457310D01*
X142679722Y-80459326D01*
X142666000Y-80460000D01*
X142246000Y-80460000D01*
X142232278Y-80459326D01*
X142218687Y-80457310D01*
X142205360Y-80453972D01*
X142192424Y-80449343D01*
X142180004Y-80443469D01*
X142168220Y-80436406D01*
X142157185Y-80428221D01*
X142147005Y-80418995D01*
X142137779Y-80408815D01*
X142129594Y-80397780D01*
X142122531Y-80385996D01*
X142116657Y-80373576D01*
X142112028Y-80360640D01*
X142108690Y-80347313D01*
X142106674Y-80333722D01*
X142106000Y-80320000D01*
X142106000Y-79700000D01*
X142106674Y-79686278D01*
X142108690Y-79672687D01*
X142112028Y-79659360D01*
X142116657Y-79646424D01*
X142122531Y-79634004D01*
X142129594Y-79622220D01*
X142137779Y-79611185D01*
X142147005Y-79601005D01*
X142157185Y-79591779D01*
X142168220Y-79583594D01*
X142180004Y-79576531D01*
X142192424Y-79570657D01*
X142205360Y-79566028D01*
X142218687Y-79562690D01*
X142232278Y-79560674D01*
X142246000Y-79560000D01*
X142666000Y-79560000D01*
X142679722Y-79560674D01*
X142679722Y-79560674D01*
G37*
D12*
G04 #@! TD*
G04 #@! TO.P,U1,25*
G04 #@! TO.N,PB02_S5_SPI_MISO*
X142456000Y-80010000D03*
D10*
G04 #@! TO.N,PA05_S0_UART_RX*
G04 #@! TO.C,U1*
G36*
X142679722Y-78290674D02*
X142693313Y-78292690D01*
X142706640Y-78296028D01*
X142719576Y-78300657D01*
X142731996Y-78306531D01*
X142743780Y-78313594D01*
X142754815Y-78321779D01*
X142764995Y-78331005D01*
X142774221Y-78341185D01*
X142782406Y-78352220D01*
X142789469Y-78364004D01*
X142795343Y-78376424D01*
X142799972Y-78389360D01*
X142803310Y-78402687D01*
X142805326Y-78416278D01*
X142806000Y-78430000D01*
X142806000Y-79050000D01*
X142805326Y-79063722D01*
X142803310Y-79077313D01*
X142799972Y-79090640D01*
X142795343Y-79103576D01*
X142789469Y-79115996D01*
X142782406Y-79127780D01*
X142774221Y-79138815D01*
X142764995Y-79148995D01*
X142754815Y-79158221D01*
X142743780Y-79166406D01*
X142731996Y-79173469D01*
X142719576Y-79179343D01*
X142706640Y-79183972D01*
X142693313Y-79187310D01*
X142679722Y-79189326D01*
X142666000Y-79190000D01*
X142246000Y-79190000D01*
X142232278Y-79189326D01*
X142218687Y-79187310D01*
X142205360Y-79183972D01*
X142192424Y-79179343D01*
X142180004Y-79173469D01*
X142168220Y-79166406D01*
X142157185Y-79158221D01*
X142147005Y-79148995D01*
X142137779Y-79138815D01*
X142129594Y-79127780D01*
X142122531Y-79115996D01*
X142116657Y-79103576D01*
X142112028Y-79090640D01*
X142108690Y-79077313D01*
X142106674Y-79063722D01*
X142106000Y-79050000D01*
X142106000Y-78430000D01*
X142106674Y-78416278D01*
X142108690Y-78402687D01*
X142112028Y-78389360D01*
X142116657Y-78376424D01*
X142122531Y-78364004D01*
X142129594Y-78352220D01*
X142137779Y-78341185D01*
X142147005Y-78331005D01*
X142157185Y-78321779D01*
X142168220Y-78313594D01*
X142180004Y-78306531D01*
X142192424Y-78300657D01*
X142205360Y-78296028D01*
X142218687Y-78292690D01*
X142232278Y-78290674D01*
X142246000Y-78290000D01*
X142666000Y-78290000D01*
X142679722Y-78290674D01*
X142679722Y-78290674D01*
G37*
D12*
G04 #@! TD*
G04 #@! TO.P,U1,26*
G04 #@! TO.N,PA05_S0_UART_RX*
X142456000Y-78740000D03*
D10*
G04 #@! TO.N,PA04_S0_UART_TX*
G04 #@! TO.C,U1*
G36*
X142679722Y-77020674D02*
X142693313Y-77022690D01*
X142706640Y-77026028D01*
X142719576Y-77030657D01*
X142731996Y-77036531D01*
X142743780Y-77043594D01*
X142754815Y-77051779D01*
X142764995Y-77061005D01*
X142774221Y-77071185D01*
X142782406Y-77082220D01*
X142789469Y-77094004D01*
X142795343Y-77106424D01*
X142799972Y-77119360D01*
X142803310Y-77132687D01*
X142805326Y-77146278D01*
X142806000Y-77160000D01*
X142806000Y-77780000D01*
X142805326Y-77793722D01*
X142803310Y-77807313D01*
X142799972Y-77820640D01*
X142795343Y-77833576D01*
X142789469Y-77845996D01*
X142782406Y-77857780D01*
X142774221Y-77868815D01*
X142764995Y-77878995D01*
X142754815Y-77888221D01*
X142743780Y-77896406D01*
X142731996Y-77903469D01*
X142719576Y-77909343D01*
X142706640Y-77913972D01*
X142693313Y-77917310D01*
X142679722Y-77919326D01*
X142666000Y-77920000D01*
X142246000Y-77920000D01*
X142232278Y-77919326D01*
X142218687Y-77917310D01*
X142205360Y-77913972D01*
X142192424Y-77909343D01*
X142180004Y-77903469D01*
X142168220Y-77896406D01*
X142157185Y-77888221D01*
X142147005Y-77878995D01*
X142137779Y-77868815D01*
X142129594Y-77857780D01*
X142122531Y-77845996D01*
X142116657Y-77833576D01*
X142112028Y-77820640D01*
X142108690Y-77807313D01*
X142106674Y-77793722D01*
X142106000Y-77780000D01*
X142106000Y-77160000D01*
X142106674Y-77146278D01*
X142108690Y-77132687D01*
X142112028Y-77119360D01*
X142116657Y-77106424D01*
X142122531Y-77094004D01*
X142129594Y-77082220D01*
X142137779Y-77071185D01*
X142147005Y-77061005D01*
X142157185Y-77051779D01*
X142168220Y-77043594D01*
X142180004Y-77036531D01*
X142192424Y-77030657D01*
X142205360Y-77026028D01*
X142218687Y-77022690D01*
X142232278Y-77020674D01*
X142246000Y-77020000D01*
X142666000Y-77020000D01*
X142679722Y-77020674D01*
X142679722Y-77020674D01*
G37*
D12*
G04 #@! TD*
G04 #@! TO.P,U1,27*
G04 #@! TO.N,PA04_S0_UART_TX*
X142456000Y-77470000D03*
D10*
G04 #@! TO.N,GND*
G04 #@! TO.C,U1*
G36*
X142679722Y-75750674D02*
X142693313Y-75752690D01*
X142706640Y-75756028D01*
X142719576Y-75760657D01*
X142731996Y-75766531D01*
X142743780Y-75773594D01*
X142754815Y-75781779D01*
X142764995Y-75791005D01*
X142774221Y-75801185D01*
X142782406Y-75812220D01*
X142789469Y-75824004D01*
X142795343Y-75836424D01*
X142799972Y-75849360D01*
X142803310Y-75862687D01*
X142805326Y-75876278D01*
X142806000Y-75890000D01*
X142806000Y-76510000D01*
X142805326Y-76523722D01*
X142803310Y-76537313D01*
X142799972Y-76550640D01*
X142795343Y-76563576D01*
X142789469Y-76575996D01*
X142782406Y-76587780D01*
X142774221Y-76598815D01*
X142764995Y-76608995D01*
X142754815Y-76618221D01*
X142743780Y-76626406D01*
X142731996Y-76633469D01*
X142719576Y-76639343D01*
X142706640Y-76643972D01*
X142693313Y-76647310D01*
X142679722Y-76649326D01*
X142666000Y-76650000D01*
X142246000Y-76650000D01*
X142232278Y-76649326D01*
X142218687Y-76647310D01*
X142205360Y-76643972D01*
X142192424Y-76639343D01*
X142180004Y-76633469D01*
X142168220Y-76626406D01*
X142157185Y-76618221D01*
X142147005Y-76608995D01*
X142137779Y-76598815D01*
X142129594Y-76587780D01*
X142122531Y-76575996D01*
X142116657Y-76563576D01*
X142112028Y-76550640D01*
X142108690Y-76537313D01*
X142106674Y-76523722D01*
X142106000Y-76510000D01*
X142106000Y-75890000D01*
X142106674Y-75876278D01*
X142108690Y-75862687D01*
X142112028Y-75849360D01*
X142116657Y-75836424D01*
X142122531Y-75824004D01*
X142129594Y-75812220D01*
X142137779Y-75801185D01*
X142147005Y-75791005D01*
X142157185Y-75781779D01*
X142168220Y-75773594D01*
X142180004Y-75766531D01*
X142192424Y-75760657D01*
X142205360Y-75756028D01*
X142218687Y-75752690D01*
X142232278Y-75750674D01*
X142246000Y-75750000D01*
X142666000Y-75750000D01*
X142679722Y-75750674D01*
X142679722Y-75750674D01*
G37*
D12*
G04 #@! TD*
G04 #@! TO.P,U1,28*
G04 #@! TO.N,GND*
X142456000Y-76200000D03*
D10*
G04 #@! TO.N,GND*
G04 #@! TO.C,U1*
G36*
X138499722Y-73475674D02*
X138513313Y-73477690D01*
X138526640Y-73481028D01*
X138539576Y-73485657D01*
X138551996Y-73491531D01*
X138563780Y-73498594D01*
X138574815Y-73506779D01*
X138584995Y-73516005D01*
X138594221Y-73526185D01*
X138602406Y-73537220D01*
X138609469Y-73549004D01*
X138615343Y-73561424D01*
X138619972Y-73574360D01*
X138623310Y-73587687D01*
X138625326Y-73601278D01*
X138626000Y-73615000D01*
X138626000Y-74035000D01*
X138625326Y-74048722D01*
X138623310Y-74062313D01*
X138619972Y-74075640D01*
X138615343Y-74088576D01*
X138609469Y-74100996D01*
X138602406Y-74112780D01*
X138594221Y-74123815D01*
X138584995Y-74133995D01*
X138574815Y-74143221D01*
X138563780Y-74151406D01*
X138551996Y-74158469D01*
X138539576Y-74164343D01*
X138526640Y-74168972D01*
X138513313Y-74172310D01*
X138499722Y-74174326D01*
X138486000Y-74175000D01*
X137866000Y-74175000D01*
X137852278Y-74174326D01*
X137838687Y-74172310D01*
X137825360Y-74168972D01*
X137812424Y-74164343D01*
X137800004Y-74158469D01*
X137788220Y-74151406D01*
X137777185Y-74143221D01*
X137767005Y-74133995D01*
X137757779Y-74123815D01*
X137749594Y-74112780D01*
X137742531Y-74100996D01*
X137736657Y-74088576D01*
X137732028Y-74075640D01*
X137728690Y-74062313D01*
X137726674Y-74048722D01*
X137726000Y-74035000D01*
X137726000Y-73615000D01*
X137726674Y-73601278D01*
X137728690Y-73587687D01*
X137732028Y-73574360D01*
X137736657Y-73561424D01*
X137742531Y-73549004D01*
X137749594Y-73537220D01*
X137757779Y-73526185D01*
X137767005Y-73516005D01*
X137777185Y-73506779D01*
X137788220Y-73498594D01*
X137800004Y-73491531D01*
X137812424Y-73485657D01*
X137825360Y-73481028D01*
X137838687Y-73477690D01*
X137852278Y-73475674D01*
X137866000Y-73475000D01*
X138486000Y-73475000D01*
X138499722Y-73475674D01*
X138499722Y-73475674D01*
G37*
D12*
G04 #@! TD*
G04 #@! TO.P,U1,31*
G04 #@! TO.N,GND*
X138176000Y-73825000D03*
D10*
G04 #@! TO.N,ANT_PAD*
G04 #@! TO.C,U1*
G36*
X139769722Y-73475674D02*
X139783313Y-73477690D01*
X139796640Y-73481028D01*
X139809576Y-73485657D01*
X139821996Y-73491531D01*
X139833780Y-73498594D01*
X139844815Y-73506779D01*
X139854995Y-73516005D01*
X139864221Y-73526185D01*
X139872406Y-73537220D01*
X139879469Y-73549004D01*
X139885343Y-73561424D01*
X139889972Y-73574360D01*
X139893310Y-73587687D01*
X139895326Y-73601278D01*
X139896000Y-73615000D01*
X139896000Y-74035000D01*
X139895326Y-74048722D01*
X139893310Y-74062313D01*
X139889972Y-74075640D01*
X139885343Y-74088576D01*
X139879469Y-74100996D01*
X139872406Y-74112780D01*
X139864221Y-74123815D01*
X139854995Y-74133995D01*
X139844815Y-74143221D01*
X139833780Y-74151406D01*
X139821996Y-74158469D01*
X139809576Y-74164343D01*
X139796640Y-74168972D01*
X139783313Y-74172310D01*
X139769722Y-74174326D01*
X139756000Y-74175000D01*
X139136000Y-74175000D01*
X139122278Y-74174326D01*
X139108687Y-74172310D01*
X139095360Y-74168972D01*
X139082424Y-74164343D01*
X139070004Y-74158469D01*
X139058220Y-74151406D01*
X139047185Y-74143221D01*
X139037005Y-74133995D01*
X139027779Y-74123815D01*
X139019594Y-74112780D01*
X139012531Y-74100996D01*
X139006657Y-74088576D01*
X139002028Y-74075640D01*
X138998690Y-74062313D01*
X138996674Y-74048722D01*
X138996000Y-74035000D01*
X138996000Y-73615000D01*
X138996674Y-73601278D01*
X138998690Y-73587687D01*
X139002028Y-73574360D01*
X139006657Y-73561424D01*
X139012531Y-73549004D01*
X139019594Y-73537220D01*
X139027779Y-73526185D01*
X139037005Y-73516005D01*
X139047185Y-73506779D01*
X139058220Y-73498594D01*
X139070004Y-73491531D01*
X139082424Y-73485657D01*
X139095360Y-73481028D01*
X139108687Y-73477690D01*
X139122278Y-73475674D01*
X139136000Y-73475000D01*
X139756000Y-73475000D01*
X139769722Y-73475674D01*
X139769722Y-73475674D01*
G37*
D12*
G04 #@! TD*
G04 #@! TO.P,U1,30*
G04 #@! TO.N,ANT_PAD*
X139446000Y-73825000D03*
D10*
G04 #@! TO.N,GND*
G04 #@! TO.C,U1*
G36*
X141039722Y-73475674D02*
X141053313Y-73477690D01*
X141066640Y-73481028D01*
X141079576Y-73485657D01*
X141091996Y-73491531D01*
X141103780Y-73498594D01*
X141114815Y-73506779D01*
X141124995Y-73516005D01*
X141134221Y-73526185D01*
X141142406Y-73537220D01*
X141149469Y-73549004D01*
X141155343Y-73561424D01*
X141159972Y-73574360D01*
X141163310Y-73587687D01*
X141165326Y-73601278D01*
X141166000Y-73615000D01*
X141166000Y-74035000D01*
X141165326Y-74048722D01*
X141163310Y-74062313D01*
X141159972Y-74075640D01*
X141155343Y-74088576D01*
X141149469Y-74100996D01*
X141142406Y-74112780D01*
X141134221Y-74123815D01*
X141124995Y-74133995D01*
X141114815Y-74143221D01*
X141103780Y-74151406D01*
X141091996Y-74158469D01*
X141079576Y-74164343D01*
X141066640Y-74168972D01*
X141053313Y-74172310D01*
X141039722Y-74174326D01*
X141026000Y-74175000D01*
X140406000Y-74175000D01*
X140392278Y-74174326D01*
X140378687Y-74172310D01*
X140365360Y-74168972D01*
X140352424Y-74164343D01*
X140340004Y-74158469D01*
X140328220Y-74151406D01*
X140317185Y-74143221D01*
X140307005Y-74133995D01*
X140297779Y-74123815D01*
X140289594Y-74112780D01*
X140282531Y-74100996D01*
X140276657Y-74088576D01*
X140272028Y-74075640D01*
X140268690Y-74062313D01*
X140266674Y-74048722D01*
X140266000Y-74035000D01*
X140266000Y-73615000D01*
X140266674Y-73601278D01*
X140268690Y-73587687D01*
X140272028Y-73574360D01*
X140276657Y-73561424D01*
X140282531Y-73549004D01*
X140289594Y-73537220D01*
X140297779Y-73526185D01*
X140307005Y-73516005D01*
X140317185Y-73506779D01*
X140328220Y-73498594D01*
X140340004Y-73491531D01*
X140352424Y-73485657D01*
X140365360Y-73481028D01*
X140378687Y-73477690D01*
X140392278Y-73475674D01*
X140406000Y-73475000D01*
X141026000Y-73475000D01*
X141039722Y-73475674D01*
X141039722Y-73475674D01*
G37*
D12*
G04 #@! TD*
G04 #@! TO.P,U1,29*
G04 #@! TO.N,GND*
X140716000Y-73825000D03*
D10*
G04 #@! TO.N,GND*
G04 #@! TO.C,U1*
G36*
X138463643Y-72575867D02*
X138481116Y-72578459D01*
X138498251Y-72582751D01*
X138514883Y-72588702D01*
X138530851Y-72596254D01*
X138546003Y-72605335D01*
X138560191Y-72615858D01*
X138573279Y-72627721D01*
X138585142Y-72640809D01*
X138595665Y-72654997D01*
X138604746Y-72670149D01*
X138612298Y-72686117D01*
X138618249Y-72702749D01*
X138622541Y-72719884D01*
X138625133Y-72737357D01*
X138626000Y-72755000D01*
X138626000Y-73595000D01*
X138625133Y-73612643D01*
X138622541Y-73630116D01*
X138618249Y-73647251D01*
X138612298Y-73663883D01*
X138604746Y-73679851D01*
X138595665Y-73695003D01*
X138585142Y-73709191D01*
X138573279Y-73722279D01*
X138560191Y-73734142D01*
X138546003Y-73744665D01*
X138530851Y-73753746D01*
X138514883Y-73761298D01*
X138498251Y-73767249D01*
X138481116Y-73771541D01*
X138463643Y-73774133D01*
X138446000Y-73775000D01*
X137906000Y-73775000D01*
X137888357Y-73774133D01*
X137870884Y-73771541D01*
X137853749Y-73767249D01*
X137837117Y-73761298D01*
X137821149Y-73753746D01*
X137805997Y-73744665D01*
X137791809Y-73734142D01*
X137778721Y-73722279D01*
X137766858Y-73709191D01*
X137756335Y-73695003D01*
X137747254Y-73679851D01*
X137739702Y-73663883D01*
X137733751Y-73647251D01*
X137729459Y-73630116D01*
X137726867Y-73612643D01*
X137726000Y-73595000D01*
X137726000Y-72755000D01*
X137726867Y-72737357D01*
X137729459Y-72719884D01*
X137733751Y-72702749D01*
X137739702Y-72686117D01*
X137747254Y-72670149D01*
X137756335Y-72654997D01*
X137766858Y-72640809D01*
X137778721Y-72627721D01*
X137791809Y-72615858D01*
X137805997Y-72605335D01*
X137821149Y-72596254D01*
X137837117Y-72588702D01*
X137853749Y-72582751D01*
X137870884Y-72578459D01*
X137888357Y-72575867D01*
X137906000Y-72575000D01*
X138446000Y-72575000D01*
X138463643Y-72575867D01*
X138463643Y-72575867D01*
G37*
D11*
G04 #@! TD*
G04 #@! TO.P,U1,31*
G04 #@! TO.N,GND*
X138176000Y-73175000D03*
D10*
G04 #@! TO.N,ANT_PAD*
G04 #@! TO.C,U1*
G36*
X139733643Y-72575867D02*
X139751116Y-72578459D01*
X139768251Y-72582751D01*
X139784883Y-72588702D01*
X139800851Y-72596254D01*
X139816003Y-72605335D01*
X139830191Y-72615858D01*
X139843279Y-72627721D01*
X139855142Y-72640809D01*
X139865665Y-72654997D01*
X139874746Y-72670149D01*
X139882298Y-72686117D01*
X139888249Y-72702749D01*
X139892541Y-72719884D01*
X139895133Y-72737357D01*
X139896000Y-72755000D01*
X139896000Y-73595000D01*
X139895133Y-73612643D01*
X139892541Y-73630116D01*
X139888249Y-73647251D01*
X139882298Y-73663883D01*
X139874746Y-73679851D01*
X139865665Y-73695003D01*
X139855142Y-73709191D01*
X139843279Y-73722279D01*
X139830191Y-73734142D01*
X139816003Y-73744665D01*
X139800851Y-73753746D01*
X139784883Y-73761298D01*
X139768251Y-73767249D01*
X139751116Y-73771541D01*
X139733643Y-73774133D01*
X139716000Y-73775000D01*
X139176000Y-73775000D01*
X139158357Y-73774133D01*
X139140884Y-73771541D01*
X139123749Y-73767249D01*
X139107117Y-73761298D01*
X139091149Y-73753746D01*
X139075997Y-73744665D01*
X139061809Y-73734142D01*
X139048721Y-73722279D01*
X139036858Y-73709191D01*
X139026335Y-73695003D01*
X139017254Y-73679851D01*
X139009702Y-73663883D01*
X139003751Y-73647251D01*
X138999459Y-73630116D01*
X138996867Y-73612643D01*
X138996000Y-73595000D01*
X138996000Y-72755000D01*
X138996867Y-72737357D01*
X138999459Y-72719884D01*
X139003751Y-72702749D01*
X139009702Y-72686117D01*
X139017254Y-72670149D01*
X139026335Y-72654997D01*
X139036858Y-72640809D01*
X139048721Y-72627721D01*
X139061809Y-72615858D01*
X139075997Y-72605335D01*
X139091149Y-72596254D01*
X139107117Y-72588702D01*
X139123749Y-72582751D01*
X139140884Y-72578459D01*
X139158357Y-72575867D01*
X139176000Y-72575000D01*
X139716000Y-72575000D01*
X139733643Y-72575867D01*
X139733643Y-72575867D01*
G37*
D11*
G04 #@! TD*
G04 #@! TO.P,U1,30*
G04 #@! TO.N,ANT_PAD*
X139446000Y-73175000D03*
D10*
G04 #@! TO.N,GND*
G04 #@! TO.C,U1*
G36*
X141003643Y-72575867D02*
X141021116Y-72578459D01*
X141038251Y-72582751D01*
X141054883Y-72588702D01*
X141070851Y-72596254D01*
X141086003Y-72605335D01*
X141100191Y-72615858D01*
X141113279Y-72627721D01*
X141125142Y-72640809D01*
X141135665Y-72654997D01*
X141144746Y-72670149D01*
X141152298Y-72686117D01*
X141158249Y-72702749D01*
X141162541Y-72719884D01*
X141165133Y-72737357D01*
X141166000Y-72755000D01*
X141166000Y-73595000D01*
X141165133Y-73612643D01*
X141162541Y-73630116D01*
X141158249Y-73647251D01*
X141152298Y-73663883D01*
X141144746Y-73679851D01*
X141135665Y-73695003D01*
X141125142Y-73709191D01*
X141113279Y-73722279D01*
X141100191Y-73734142D01*
X141086003Y-73744665D01*
X141070851Y-73753746D01*
X141054883Y-73761298D01*
X141038251Y-73767249D01*
X141021116Y-73771541D01*
X141003643Y-73774133D01*
X140986000Y-73775000D01*
X140446000Y-73775000D01*
X140428357Y-73774133D01*
X140410884Y-73771541D01*
X140393749Y-73767249D01*
X140377117Y-73761298D01*
X140361149Y-73753746D01*
X140345997Y-73744665D01*
X140331809Y-73734142D01*
X140318721Y-73722279D01*
X140306858Y-73709191D01*
X140296335Y-73695003D01*
X140287254Y-73679851D01*
X140279702Y-73663883D01*
X140273751Y-73647251D01*
X140269459Y-73630116D01*
X140266867Y-73612643D01*
X140266000Y-73595000D01*
X140266000Y-72755000D01*
X140266867Y-72737357D01*
X140269459Y-72719884D01*
X140273751Y-72702749D01*
X140279702Y-72686117D01*
X140287254Y-72670149D01*
X140296335Y-72654997D01*
X140306858Y-72640809D01*
X140318721Y-72627721D01*
X140331809Y-72615858D01*
X140345997Y-72605335D01*
X140361149Y-72596254D01*
X140377117Y-72588702D01*
X140393749Y-72582751D01*
X140410884Y-72578459D01*
X140428357Y-72575867D01*
X140446000Y-72575000D01*
X140986000Y-72575000D01*
X141003643Y-72575867D01*
X141003643Y-72575867D01*
G37*
D11*
G04 #@! TD*
G04 #@! TO.P,U1,29*
G04 #@! TO.N,GND*
X140716000Y-73175000D03*
D13*
G04 #@! TO.N,VDDA*
X137510000Y-82770000D03*
X132954500Y-83162500D03*
X133375000Y-83162500D03*
X138870000Y-78250000D03*
X137540000Y-82160000D03*
X139620000Y-82020000D03*
X139190000Y-81980000D03*
G04 #@! TO.N,GND*
X139440000Y-75610000D03*
X138690000Y-74250000D03*
X140190000Y-74270000D03*
X138188700Y-74561700D03*
X137160000Y-73660000D03*
X135890000Y-73660000D03*
X134620000Y-73660000D03*
X133350000Y-73660000D03*
X132080000Y-73660000D03*
X130810000Y-73660000D03*
X129662600Y-73660000D03*
X129662600Y-74930000D03*
X130810000Y-74930000D03*
X132080000Y-74930000D03*
X132080000Y-76200000D03*
X136804400Y-74549000D03*
X137566400Y-74549000D03*
X130810000Y-77482700D03*
X132130800Y-77470000D03*
X132892800Y-77571600D03*
X132867400Y-76911200D03*
X130886200Y-76174600D03*
X131419600Y-76885800D03*
X131521200Y-75565000D03*
X131521200Y-74244200D03*
X130327400Y-74193400D03*
X130276600Y-75412600D03*
X132840000Y-79060000D03*
X134360000Y-82230000D03*
X136240000Y-82160000D03*
X136250000Y-82820000D03*
X136320000Y-85390000D03*
X137390706Y-87600000D03*
X141804984Y-86925000D03*
X141830000Y-85810000D03*
X138860000Y-80820000D03*
X140030000Y-79590000D03*
X140420000Y-79280000D03*
X141480000Y-73510000D03*
X141860000Y-76200000D03*
X141860000Y-75520000D03*
X141710000Y-75000000D03*
X141300000Y-74720000D03*
X140820000Y-74680000D03*
X140860000Y-75540000D03*
X140850000Y-76080000D03*
X140920000Y-76920000D03*
X140910000Y-78170000D03*
X142800000Y-73450000D03*
X142790000Y-75210000D03*
X137940000Y-75620000D03*
X137350000Y-75630000D03*
X136800000Y-75650000D03*
X136275000Y-75660000D03*
X135775000Y-75670000D03*
X132918200Y-74406760D03*
X137075000Y-77600000D03*
X137075000Y-78300000D03*
X137775000Y-77825000D03*
X137930000Y-76590000D03*
X137360000Y-76570000D03*
X136800000Y-76575000D03*
X136275000Y-76575000D03*
X135775000Y-76575000D03*
X135750000Y-77075000D03*
X137575000Y-77150000D03*
X134513360Y-75671640D03*
X135225000Y-75600000D03*
X133975000Y-75675000D03*
X134000000Y-76475000D03*
X133980000Y-77230000D03*
X134000000Y-77950000D03*
X133990000Y-78600000D03*
X134490000Y-80390000D03*
X133770000Y-81020000D03*
X133390000Y-80680000D03*
X135370000Y-81260000D03*
X136855200Y-79806800D03*
X136175000Y-79450000D03*
X131300000Y-83375000D03*
X133616404Y-84699727D03*
X132250000Y-86960000D03*
X136290000Y-84120000D03*
X141850000Y-78100000D03*
X139640000Y-81470000D03*
X140686597Y-80540017D03*
X141375047Y-79925047D03*
X141745047Y-79555047D03*
X138410000Y-81240000D03*
X141540000Y-89130000D03*
X132060000Y-78280000D03*
X131230000Y-84250000D03*
X134930000Y-87570000D03*
X134164719Y-80088464D03*
X131150000Y-79620000D03*
X130688431Y-81777459D03*
X134990000Y-82210000D03*
X134350000Y-86060000D03*
X137590000Y-84760000D03*
X132200000Y-82130000D03*
X132090000Y-78880000D03*
X131240000Y-78000000D03*
X141820000Y-76890000D03*
X139275546Y-80356589D03*
X139641222Y-79971222D03*
X135900000Y-81140000D03*
X137770000Y-78320000D03*
X138540000Y-79750000D03*
X141500000Y-82160000D03*
X137620000Y-85480000D03*
X130140000Y-88820000D03*
X140390210Y-80886897D03*
X138197797Y-82821466D03*
X138930000Y-82590000D03*
X140410000Y-84870000D03*
X141010000Y-84879891D03*
X134350000Y-84750000D03*
X134359182Y-85430210D03*
G04 #@! TO.N,VDD*
X134001342Y-87412142D03*
D14*
X141782774Y-87630000D03*
X142544800Y-88747600D03*
D13*
X131500000Y-81160000D03*
X131980000Y-81140000D03*
X134340000Y-84110000D03*
X131094797Y-81160015D03*
X132989996Y-84450004D03*
G04 #@! TO.N,~RESET*
X139210000Y-87470000D03*
X138190000Y-84820000D03*
X139220000Y-85330000D03*
G04 #@! TO.N,+BATT*
X142240000Y-82289999D03*
X137530000Y-83450210D03*
G04 #@! TO.N,TCXO_PWR*
X135000000Y-84760000D03*
X132200000Y-85250000D03*
G04 #@! TO.N,PA04_S0_UART_TX*
X136888513Y-82869987D03*
G04 #@! TO.N,PA05_S0_UART_RX*
X136940000Y-83500000D03*
G04 #@! TO.N,PA30_SWDCLK*
X136920000Y-84790000D03*
G04 #@! TO.N,PA31_SWDIO*
X136920000Y-84140000D03*
G04 #@! TO.N,PB23_S5_SPI_SCK*
X133504110Y-85840000D03*
X137520000Y-86030000D03*
G04 #@! TO.N,PB22_S5_SPI_MOSI*
X135640000Y-84160000D03*
G04 #@! TO.N,PB02_S5_SPI_MISO*
X138200000Y-84119790D03*
G04 #@! TO.N,PA28_GPIO*
X136951286Y-85402592D03*
X139150000Y-84450000D03*
G04 #@! TO.N,PA27_GPIO*
X135650000Y-83520000D03*
G04 #@! TO.N,PA23_S5_SPI_SS*
X136880000Y-86040000D03*
G04 #@! TO.N,PA18_PWM_T0_W2*
X135650000Y-86060000D03*
G04 #@! TO.N,PA17_S1_I2C_SCL*
X135650000Y-85400000D03*
G04 #@! TO.N,PA16_S1_I2C_SDA*
X135020000Y-86040000D03*
G04 #@! TO.N,PA15_GPIO*
X135033503Y-87004898D03*
G04 #@! TO.N,PA14_GPIO*
X135598834Y-87230272D03*
G04 #@! TO.N,PA08_GPIO*
X134980000Y-84130000D03*
G04 #@! TO.N,PA07_ADC7*
X135002126Y-83449790D03*
G04 #@! TO.N,PA06_ADC6*
X135650000Y-82870000D03*
X139220000Y-79390000D03*
G04 #@! TO.N,BAND_SEL*
X135600000Y-84810000D03*
X138805920Y-77134720D03*
X141095215Y-80893915D03*
X139480000Y-83340000D03*
G04 #@! TO.N,TXRX_RF*
X136880000Y-82230000D03*
X139364720Y-77201508D03*
G04 #@! TO.N,USB_N*
X138337068Y-87057087D03*
G04 #@! TO.N,USB_P*
X138170000Y-87510002D03*
G04 #@! TD*
D15*
G04 #@! TO.N,GND*
X130810000Y-77470000D02*
X130810000Y-77482700D01*
X140716000Y-74025000D02*
X140716000Y-73265110D01*
X138176000Y-74025000D02*
X138176000Y-73265110D01*
X140716000Y-88624000D02*
X140716000Y-88938100D01*
X140716000Y-88938100D02*
X140716000Y-89269490D01*
D16*
G04 #@! TO.N,VDD*
X142256000Y-88458800D02*
X142544800Y-88747600D01*
X142256000Y-87630000D02*
X142256000Y-88458800D01*
D17*
X141782774Y-87630000D02*
X142256000Y-87630000D01*
D15*
G04 #@! TO.N,~RESET*
X143256000Y-86360000D02*
X142256000Y-86360000D01*
D18*
X138700000Y-85330000D02*
X138190000Y-84820000D01*
X139220000Y-85330000D02*
X138700000Y-85330000D01*
D19*
X141580000Y-86360000D02*
X142256000Y-86360000D01*
X140470000Y-87470000D02*
X141580000Y-86360000D01*
X139210000Y-87470000D02*
X140470000Y-87470000D01*
D20*
G04 #@! TO.N,+BATT*
X142248554Y-82550000D02*
X142240000Y-82541446D01*
X142256000Y-82550000D02*
X142248554Y-82550000D01*
X142240000Y-82541446D02*
X142240000Y-82289999D01*
D21*
G04 #@! TO.N,TCXO_PWR*
X132200000Y-85250000D02*
X133680000Y-85250000D01*
D18*
X133840000Y-85090000D02*
X133680000Y-85250000D01*
X134680073Y-85090000D02*
X133840000Y-85090000D01*
X134985442Y-84784631D02*
X134680073Y-85090000D01*
D15*
G04 #@! TO.N,ANT_PAD*
X139446000Y-74025000D02*
X139446000Y-73265110D01*
D19*
X139446000Y-74025000D02*
X139446000Y-73277810D01*
D15*
G04 #@! TO.N,PA04_S0_UART_TX*
X143256000Y-77470000D02*
X142774508Y-77470000D01*
D18*
X142256000Y-77470000D02*
X143256000Y-77470000D01*
X142123628Y-77470000D02*
X143256000Y-77470000D01*
X141630400Y-77470000D02*
X141376400Y-77724000D01*
X141376400Y-78853600D02*
X141344079Y-78885921D01*
X141376400Y-77724000D02*
X141376400Y-78853600D01*
D15*
X142256000Y-77470000D02*
X141630400Y-77470000D01*
D18*
X138560000Y-81670000D02*
X141376400Y-78853600D01*
X138560000Y-83160000D02*
X138560000Y-81670000D01*
X138370000Y-83350000D02*
X138560000Y-83160000D01*
X138110000Y-83350000D02*
X138370000Y-83350000D01*
X137880000Y-83120000D02*
X138110000Y-83350000D01*
X137138526Y-83120000D02*
X137880000Y-83120000D01*
X136888513Y-82869987D02*
X137138526Y-83120000D01*
G04 #@! TO.N,PA05_S0_UART_RX*
X143256000Y-78740000D02*
X142256000Y-78740000D01*
D15*
X142256000Y-78740000D02*
X141900458Y-78740000D01*
D18*
X136940000Y-83500000D02*
X136940000Y-83430000D01*
X140030000Y-80610458D02*
X141900458Y-78740000D01*
X140030000Y-82330000D02*
X140030000Y-80610458D01*
X139510000Y-82850000D02*
X140030000Y-82330000D01*
X139300000Y-82850000D02*
X139510000Y-82850000D01*
X138460000Y-83690000D02*
X139300000Y-82850000D01*
X137940000Y-83690000D02*
X138460000Y-83690000D01*
X137750000Y-83880000D02*
X137940000Y-83690000D01*
X137320000Y-83880000D02*
X137750000Y-83880000D01*
X136940000Y-83500000D02*
X137320000Y-83880000D01*
G04 #@! TO.N,PA30_SWDCLK*
X143256000Y-85090000D02*
X142256000Y-85090000D01*
X142135899Y-85210101D02*
X142256000Y-85090000D01*
D15*
X142006000Y-85340000D02*
X140750046Y-85340000D01*
X142135899Y-85210101D02*
X142006000Y-85340000D01*
D18*
X140242644Y-85847402D02*
X140750046Y-85340000D01*
X138586499Y-85847402D02*
X140242644Y-85847402D01*
X137849097Y-85110000D02*
X138586499Y-85847402D01*
X137340000Y-85110000D02*
X137849097Y-85110000D01*
X137010000Y-84780000D02*
X137340000Y-85110000D01*
X136940000Y-84780000D02*
X137010000Y-84780000D01*
G04 #@! TO.N,PA31_SWDIO*
X143256000Y-83820000D02*
X142256000Y-83820000D01*
D15*
X136912176Y-84150000D02*
X136910338Y-84148162D01*
X142256000Y-83820000D02*
X141270000Y-83820000D01*
D18*
X137618496Y-84148496D02*
X137153383Y-84148496D01*
X137930000Y-84460000D02*
X137618496Y-84148496D01*
X139600000Y-84900000D02*
X138960000Y-84900000D01*
X137153383Y-84148496D02*
X136901936Y-84148496D01*
X138520000Y-84460000D02*
X137930000Y-84460000D01*
X140680000Y-83820000D02*
X139600000Y-84900000D01*
X138960000Y-84900000D02*
X138520000Y-84460000D01*
X141270000Y-83820000D02*
X140680000Y-83820000D01*
D15*
G04 #@! TO.N,PB23_S5_SPI_SCK*
X129286000Y-83820000D02*
X130360000Y-83820000D01*
X130350000Y-83820000D02*
X129886000Y-83820000D01*
X130030000Y-83820000D02*
X129886000Y-83820000D01*
X133484110Y-85860000D02*
X131840000Y-85860000D01*
X131210000Y-85000000D02*
X130030000Y-83820000D01*
X131210000Y-85230000D02*
X131210000Y-85000000D01*
X131840000Y-85860000D02*
X131210000Y-85230000D01*
X133504110Y-85840000D02*
X133484110Y-85860000D01*
D18*
G04 #@! TO.N,PB22_S5_SPI_MOSI*
X129286000Y-81280000D02*
X130260000Y-81280000D01*
D15*
X135650000Y-84180000D02*
X135270000Y-83800000D01*
X130150000Y-81280000D02*
X129886000Y-81280000D01*
X130780000Y-80650000D02*
X130150000Y-81280000D01*
D18*
X130930000Y-80500000D02*
X130780000Y-80650000D01*
X131970000Y-80500000D02*
X130930000Y-80500000D01*
X135250000Y-83780000D02*
X134560000Y-83780000D01*
X132500000Y-81030000D02*
X131970000Y-80500000D01*
X132500000Y-81720000D02*
X132500000Y-81030000D01*
X134560000Y-83780000D02*
X132500000Y-81720000D01*
X135270000Y-83800000D02*
X135250000Y-83780000D01*
D19*
G04 #@! TO.N,PB02_S5_SPI_MISO*
X142186936Y-80079064D02*
X142256000Y-80010000D01*
X142256000Y-80010000D02*
X143003190Y-80010000D01*
D15*
X138200000Y-84110000D02*
X138277341Y-84110000D01*
X142256000Y-80010000D02*
X141650000Y-80616000D01*
D18*
X141650000Y-80932617D02*
X141650000Y-80616000D01*
X139360201Y-84009799D02*
X140630000Y-82740000D01*
X140630000Y-82740000D02*
X140630000Y-81952617D01*
X138320201Y-84009799D02*
X139360201Y-84009799D01*
X140630000Y-81952617D02*
X141650000Y-80932617D01*
X138210000Y-84120000D02*
X138320201Y-84009799D01*
G04 #@! TO.N,PA28_GPIO*
X142256000Y-81280000D02*
X143028590Y-81280000D01*
X143256000Y-81280000D02*
X142256000Y-81280000D01*
X139430000Y-84450000D02*
X139150000Y-84450000D01*
X140900000Y-82177114D02*
X140900000Y-82980000D01*
X140900000Y-82980000D02*
X139430000Y-84450000D01*
X141797114Y-81280000D02*
X140900000Y-82177114D01*
X142256000Y-81280000D02*
X141797114Y-81280000D01*
D15*
G04 #@! TO.N,PA27_GPIO*
X130707383Y-78740000D02*
X130980000Y-78740000D01*
X130710000Y-78740000D02*
X129886000Y-78740000D01*
D18*
X130980000Y-78740000D02*
X130710000Y-78740000D01*
D15*
X135489611Y-83356111D02*
X135667410Y-83533910D01*
X135133500Y-83000000D02*
X135489611Y-83356111D01*
X134520000Y-83000000D02*
X135133500Y-83000000D01*
X132944521Y-81424521D02*
X134520000Y-83000000D01*
X132944521Y-80704521D02*
X132944521Y-81424521D01*
X130980000Y-78740000D02*
X132944521Y-80704521D01*
G04 #@! TO.N,PA23_S5_SPI_SS*
X136890000Y-89519000D02*
X136906000Y-89535000D01*
X136890000Y-86060000D02*
X136890000Y-89519000D01*
D21*
G04 #@! TO.N,PA22_GPIO*
X135650000Y-88920000D02*
X135606000Y-88964000D01*
X135650000Y-88550000D02*
X135650000Y-88920000D01*
D15*
G04 #@! TO.N,PA19_PWM_T0_W3*
X134534100Y-88770000D02*
X134366000Y-88938100D01*
G04 #@! TO.N,PA18_PWM_T0_W2*
X130492500Y-87630000D02*
X129886000Y-87630000D01*
X130592500Y-87730000D02*
X130492500Y-87630000D01*
X135170118Y-86550000D02*
X134910000Y-86550000D01*
X133654011Y-86725989D02*
X132650000Y-87730000D01*
X132650000Y-87730000D02*
X130592500Y-87730000D01*
X134734011Y-86725989D02*
X133654011Y-86725989D01*
X134910000Y-86550000D02*
X134734011Y-86725989D01*
X135636239Y-86083879D02*
X135170118Y-86550000D01*
D18*
G04 #@! TO.N,PA17_S1_I2C_SCL*
X135310000Y-85740000D02*
X135650000Y-85400000D01*
X134104554Y-85740000D02*
X135310000Y-85740000D01*
X133637153Y-86207401D02*
X134104554Y-85740000D01*
X133232057Y-86207401D02*
X133637153Y-86207401D01*
D15*
X131607401Y-86207401D02*
X133232057Y-86207401D01*
X130490000Y-85090000D02*
X131607401Y-86207401D01*
X129886000Y-85090000D02*
X130490000Y-85090000D01*
G04 #@! TO.N,PA16_S1_I2C_SDA*
X135010000Y-86050000D02*
X135010000Y-86061763D01*
X135010000Y-86061763D02*
X135002397Y-86069366D01*
X129886000Y-86360000D02*
X130210000Y-86360000D01*
X134832201Y-86227799D02*
X135010000Y-86050000D01*
X130210000Y-86360000D02*
X131300000Y-87450000D01*
X131300000Y-87450000D02*
X132530000Y-87450000D01*
X133518022Y-86461978D02*
X134598022Y-86461978D01*
X132530000Y-87450000D02*
X133518022Y-86461978D01*
X134598022Y-86461978D02*
X134832201Y-86227799D01*
G04 #@! TO.N,PA15_GPIO*
X131826000Y-89535000D02*
X131826000Y-89056608D01*
X134782056Y-87004898D02*
X135033503Y-87004898D01*
X131826000Y-88938100D02*
X133759202Y-87004898D01*
X133759202Y-87004898D02*
X134782056Y-87004898D01*
G04 #@! TO.N,PA14_GPIO*
X135544728Y-87230272D02*
X135598834Y-87230272D01*
X133954100Y-88080000D02*
X133096000Y-88938100D01*
X135230000Y-88080000D02*
X133954100Y-88080000D01*
X135600000Y-87231438D02*
X135600000Y-87710000D01*
X135600000Y-87710000D02*
X135230000Y-88080000D01*
X135598834Y-87230272D02*
X135600000Y-87231438D01*
D18*
G04 #@! TO.N,PA08_GPIO*
X129286000Y-82550000D02*
X129886000Y-82550000D01*
X129286000Y-82550000D02*
X130100000Y-82550000D01*
D15*
X129886000Y-82550000D02*
X131193401Y-83857401D01*
X131206000Y-83870000D02*
X131193401Y-83857401D01*
X133350000Y-83870000D02*
X131206000Y-83870000D01*
D18*
X134812201Y-84298009D02*
X134990000Y-84120210D01*
X133930000Y-84450000D02*
X134660210Y-84450000D01*
X134660210Y-84450000D02*
X134812201Y-84298009D01*
X133350000Y-83870000D02*
X133930000Y-84450000D01*
D21*
G04 #@! TO.N,PA07_ADC7*
X129286000Y-80010000D02*
X129865446Y-80010000D01*
D18*
X135002126Y-83419959D02*
X135002126Y-83440887D01*
D15*
X129956000Y-80080000D02*
X129886000Y-80010000D01*
X132715910Y-81585910D02*
X132715910Y-80885910D01*
X132715910Y-80885910D02*
X131910000Y-80080000D01*
X131910000Y-80080000D02*
X129956000Y-80080000D01*
X134570887Y-83440887D02*
X132715910Y-81585910D01*
X135002126Y-83440887D02*
X134570887Y-83440887D01*
G04 #@! TO.N,PA06_ADC6*
X135648227Y-82852022D02*
X135648227Y-82118227D01*
D21*
X135650000Y-82120000D02*
X135648227Y-82118227D01*
X135650000Y-82870000D02*
X135650000Y-82120000D01*
X139010000Y-79180000D02*
X139220000Y-79390000D01*
X137760000Y-79530000D02*
X138110000Y-79180000D01*
X137760000Y-80000000D02*
X137760000Y-79530000D01*
X135650000Y-82110000D02*
X137760000Y-80000000D01*
X138110000Y-79180000D02*
X139010000Y-79180000D01*
X135650000Y-82120000D02*
X135650000Y-82110000D01*
D15*
X132880000Y-80290000D02*
X130060000Y-77470000D01*
X130060000Y-77470000D02*
X129886000Y-77470000D01*
X133770000Y-80290000D02*
X132880000Y-80290000D01*
X135598227Y-82118227D02*
X133770000Y-80290000D01*
X135648227Y-82118227D02*
X135598227Y-82118227D01*
D18*
G04 #@! TO.N,BAND_SEL*
X140917416Y-81071714D02*
X141095215Y-80893915D01*
X140360000Y-81629130D02*
X140917416Y-81071714D01*
X140360000Y-82470000D02*
X140360000Y-81629130D01*
X139490000Y-83340000D02*
X140360000Y-82470000D01*
X139480000Y-83340000D02*
X139490000Y-83340000D01*
D15*
G04 #@! TO.N,TXRX_RF*
X139364720Y-77201508D02*
X139400653Y-77165575D01*
D18*
X139750000Y-77586788D02*
X139364720Y-77201508D01*
X139750000Y-79350000D02*
X139750000Y-77586788D01*
X136880000Y-82220000D02*
X139750000Y-79350000D01*
X136880000Y-82230000D02*
X136880000Y-82220000D01*
D15*
G04 #@! TO.N,USB_N*
X139446000Y-88626000D02*
X139446000Y-88938100D01*
X138680000Y-87860000D02*
X139446000Y-88626000D01*
X138680000Y-87400019D02*
X138680000Y-87860000D01*
X138337068Y-87057087D02*
X138680000Y-87400019D01*
G04 #@! TO.N,USB_P*
X138170000Y-88932100D02*
X138176000Y-88938100D01*
X138170000Y-87510002D02*
X138170000Y-88932100D01*
G04 #@! TD*
D22*
G04 #@! TO.N,GND*
G36*
X131429877Y-88095131D02*
X131347064Y-88120252D01*
X131270743Y-88161047D01*
X131203847Y-88215947D01*
X131148947Y-88282843D01*
X131108152Y-88359164D01*
X131083031Y-88441977D01*
X131074549Y-88528100D01*
X131074549Y-88948100D01*
X131075381Y-88956550D01*
X131074549Y-88965000D01*
X131074549Y-89160000D01*
X129661000Y-89160000D01*
X129661000Y-88381451D01*
X129856000Y-88381451D01*
X129866000Y-88380466D01*
X129876000Y-88381451D01*
X130296000Y-88381451D01*
X130382123Y-88372969D01*
X130464936Y-88347848D01*
X130541257Y-88307053D01*
X130608153Y-88252153D01*
X130663053Y-88185257D01*
X130703848Y-88108936D01*
X130708530Y-88093500D01*
X131446438Y-88093500D01*
X131429877Y-88095131D01*
X131429877Y-88095131D01*
G37*
X131429877Y-88095131D02*
X131347064Y-88120252D01*
X131270743Y-88161047D01*
X131203847Y-88215947D01*
X131148947Y-88282843D01*
X131108152Y-88359164D01*
X131083031Y-88441977D01*
X131074549Y-88528100D01*
X131074549Y-88948100D01*
X131075381Y-88956550D01*
X131074549Y-88965000D01*
X131074549Y-89160000D01*
X129661000Y-89160000D01*
X129661000Y-88381451D01*
X129856000Y-88381451D01*
X129866000Y-88380466D01*
X129876000Y-88381451D01*
X130296000Y-88381451D01*
X130382123Y-88372969D01*
X130464936Y-88347848D01*
X130541257Y-88307053D01*
X130608153Y-88252153D01*
X130663053Y-88185257D01*
X130703848Y-88108936D01*
X130708530Y-88093500D01*
X131446438Y-88093500D01*
X131429877Y-88095131D01*
G36*
X141813031Y-86756123D02*
X141838152Y-86838936D01*
X141878947Y-86915257D01*
X141933847Y-86982153D01*
X141949501Y-86995000D01*
X141933847Y-87007847D01*
X141930028Y-87012500D01*
X141752445Y-87012500D01*
X141661723Y-87021435D01*
X141545324Y-87056745D01*
X141438050Y-87114084D01*
X141344023Y-87191249D01*
X141266858Y-87285276D01*
X141209519Y-87392550D01*
X141174209Y-87508949D01*
X141162287Y-87630000D01*
X141174209Y-87751051D01*
X141209519Y-87867450D01*
X141266858Y-87974724D01*
X141344023Y-88068751D01*
X141438050Y-88145916D01*
X141545324Y-88203255D01*
X141661723Y-88238565D01*
X141702000Y-88242532D01*
X141702000Y-88431596D01*
X141699321Y-88458800D01*
X141702000Y-88486004D01*
X141702000Y-88486012D01*
X141710016Y-88567403D01*
X141741696Y-88671832D01*
X141793138Y-88768075D01*
X141862369Y-88852432D01*
X141883505Y-88869778D01*
X142172305Y-89158579D01*
X142174037Y-89160000D01*
X140197451Y-89160000D01*
X140197451Y-88965000D01*
X140196619Y-88956550D01*
X140197451Y-88948100D01*
X140197451Y-88528100D01*
X140188969Y-88441977D01*
X140163848Y-88359164D01*
X140123053Y-88282843D01*
X140068153Y-88215947D01*
X140001257Y-88161047D01*
X139924936Y-88120252D01*
X139842123Y-88095131D01*
X139756000Y-88086649D01*
X139420716Y-88086649D01*
X139277751Y-87943684D01*
X139349369Y-87929439D01*
X139436323Y-87893421D01*
X139506995Y-87846200D01*
X140451523Y-87846200D01*
X140470000Y-87848020D01*
X140488477Y-87846200D01*
X140488478Y-87846200D01*
X140543748Y-87840756D01*
X140614662Y-87819245D01*
X140680017Y-87784312D01*
X140737301Y-87737301D01*
X140749089Y-87722937D01*
X141735827Y-86736200D01*
X141811069Y-86736200D01*
X141813031Y-86756123D01*
X141813031Y-86756123D01*
G37*
X141813031Y-86756123D02*
X141838152Y-86838936D01*
X141878947Y-86915257D01*
X141933847Y-86982153D01*
X141949501Y-86995000D01*
X141933847Y-87007847D01*
X141930028Y-87012500D01*
X141752445Y-87012500D01*
X141661723Y-87021435D01*
X141545324Y-87056745D01*
X141438050Y-87114084D01*
X141344023Y-87191249D01*
X141266858Y-87285276D01*
X141209519Y-87392550D01*
X141174209Y-87508949D01*
X141162287Y-87630000D01*
X141174209Y-87751051D01*
X141209519Y-87867450D01*
X141266858Y-87974724D01*
X141344023Y-88068751D01*
X141438050Y-88145916D01*
X141545324Y-88203255D01*
X141661723Y-88238565D01*
X141702000Y-88242532D01*
X141702000Y-88431596D01*
X141699321Y-88458800D01*
X141702000Y-88486004D01*
X141702000Y-88486012D01*
X141710016Y-88567403D01*
X141741696Y-88671832D01*
X141793138Y-88768075D01*
X141862369Y-88852432D01*
X141883505Y-88869778D01*
X142172305Y-89158579D01*
X142174037Y-89160000D01*
X140197451Y-89160000D01*
X140197451Y-88965000D01*
X140196619Y-88956550D01*
X140197451Y-88948100D01*
X140197451Y-88528100D01*
X140188969Y-88441977D01*
X140163848Y-88359164D01*
X140123053Y-88282843D01*
X140068153Y-88215947D01*
X140001257Y-88161047D01*
X139924936Y-88120252D01*
X139842123Y-88095131D01*
X139756000Y-88086649D01*
X139420716Y-88086649D01*
X139277751Y-87943684D01*
X139349369Y-87929439D01*
X139436323Y-87893421D01*
X139506995Y-87846200D01*
X140451523Y-87846200D01*
X140470000Y-87848020D01*
X140488477Y-87846200D01*
X140488478Y-87846200D01*
X140543748Y-87840756D01*
X140614662Y-87819245D01*
X140680017Y-87784312D01*
X140737301Y-87737301D01*
X140749089Y-87722937D01*
X141735827Y-86736200D01*
X141811069Y-86736200D01*
X141813031Y-86756123D01*
G36*
X138796579Y-79616323D02*
X138848868Y-79694580D01*
X138879091Y-79724803D01*
X136851695Y-81752200D01*
X136832941Y-81752200D01*
X136740631Y-81770561D01*
X136653677Y-81806579D01*
X136575420Y-81858868D01*
X136508868Y-81925420D01*
X136456579Y-82003677D01*
X136420561Y-82090631D01*
X136402200Y-82182941D01*
X136402200Y-82277059D01*
X136420561Y-82369369D01*
X136456579Y-82456323D01*
X136508868Y-82534580D01*
X136528538Y-82554250D01*
X136517381Y-82565407D01*
X136465092Y-82643664D01*
X136429074Y-82730618D01*
X136410713Y-82822928D01*
X136410713Y-82917046D01*
X136429074Y-83009356D01*
X136465092Y-83096310D01*
X136517381Y-83174567D01*
X136556598Y-83213784D01*
X136516579Y-83273677D01*
X136480561Y-83360631D01*
X136462200Y-83452941D01*
X136462200Y-83547059D01*
X136480561Y-83639369D01*
X136516579Y-83726323D01*
X136568868Y-83804580D01*
X136574288Y-83810000D01*
X136548868Y-83835420D01*
X136496579Y-83913677D01*
X136460561Y-84000631D01*
X136442200Y-84092941D01*
X136442200Y-84187059D01*
X136460561Y-84279369D01*
X136496579Y-84366323D01*
X136548868Y-84444580D01*
X136569288Y-84465000D01*
X136548868Y-84485420D01*
X136496579Y-84563677D01*
X136460561Y-84650631D01*
X136442200Y-84742941D01*
X136442200Y-84837059D01*
X136460561Y-84929369D01*
X136496579Y-85016323D01*
X136548868Y-85094580D01*
X136568997Y-85114709D01*
X136527865Y-85176269D01*
X136491847Y-85263223D01*
X136473486Y-85355533D01*
X136473486Y-85449651D01*
X136491847Y-85541961D01*
X136527865Y-85628915D01*
X136562916Y-85681372D01*
X136508868Y-85735420D01*
X136456579Y-85813677D01*
X136420561Y-85900631D01*
X136402200Y-85992941D01*
X136402200Y-86087059D01*
X136420561Y-86179369D01*
X136456579Y-86266323D01*
X136508868Y-86344580D01*
X136526500Y-86362212D01*
X136526501Y-88093494D01*
X136509877Y-88095131D01*
X136427064Y-88120252D01*
X136350743Y-88161047D01*
X136283847Y-88215947D01*
X136271000Y-88231601D01*
X136258153Y-88215947D01*
X136191257Y-88161047D01*
X136114936Y-88120252D01*
X136032123Y-88095131D01*
X135946000Y-88086649D01*
X135737418Y-88086649D01*
X135844417Y-87979650D01*
X135858276Y-87968276D01*
X135869649Y-87954418D01*
X135869655Y-87954412D01*
X135903700Y-87912927D01*
X135903701Y-87912926D01*
X135937454Y-87849778D01*
X135958240Y-87781258D01*
X135963500Y-87727850D01*
X135963500Y-87727841D01*
X135965257Y-87710001D01*
X135963500Y-87692161D01*
X135963500Y-87541318D01*
X135969966Y-87534852D01*
X136022255Y-87456595D01*
X136058273Y-87369641D01*
X136076634Y-87277331D01*
X136076634Y-87183213D01*
X136058273Y-87090903D01*
X136022255Y-87003949D01*
X135969966Y-86925692D01*
X135903414Y-86859140D01*
X135825157Y-86806851D01*
X135738203Y-86770833D01*
X135645893Y-86752472D01*
X135551775Y-86752472D01*
X135464316Y-86769868D01*
X135696385Y-86537800D01*
X135697059Y-86537800D01*
X135789369Y-86519439D01*
X135876323Y-86483421D01*
X135954580Y-86431132D01*
X136021132Y-86364580D01*
X136073421Y-86286323D01*
X136109439Y-86199369D01*
X136127800Y-86107059D01*
X136127800Y-86012941D01*
X136109439Y-85920631D01*
X136073421Y-85833677D01*
X136021132Y-85755420D01*
X135995712Y-85730000D01*
X136021132Y-85704580D01*
X136073421Y-85626323D01*
X136109439Y-85539369D01*
X136127800Y-85447059D01*
X136127800Y-85352941D01*
X136109439Y-85260631D01*
X136073421Y-85173677D01*
X136021132Y-85095420D01*
X135998833Y-85073121D01*
X136023421Y-85036323D01*
X136059439Y-84949369D01*
X136077800Y-84857059D01*
X136077800Y-84762941D01*
X136059439Y-84670631D01*
X136023421Y-84583677D01*
X135971132Y-84505420D01*
X135970712Y-84505000D01*
X136011132Y-84464580D01*
X136063421Y-84386323D01*
X136099439Y-84299369D01*
X136117800Y-84207059D01*
X136117800Y-84112941D01*
X136099439Y-84020631D01*
X136063421Y-83933677D01*
X136011132Y-83855420D01*
X136000712Y-83845000D01*
X136021132Y-83824580D01*
X136073421Y-83746323D01*
X136109439Y-83659369D01*
X136127800Y-83567059D01*
X136127800Y-83472941D01*
X136109439Y-83380631D01*
X136073421Y-83293677D01*
X136021132Y-83215420D01*
X136000712Y-83195000D01*
X136021132Y-83174580D01*
X136073421Y-83096323D01*
X136109439Y-83009369D01*
X136127800Y-82917059D01*
X136127800Y-82822941D01*
X136109439Y-82730631D01*
X136073421Y-82643677D01*
X136051600Y-82611019D01*
X136051600Y-82276347D01*
X138030025Y-80297923D01*
X138045348Y-80285348D01*
X138095534Y-80224196D01*
X138127480Y-80164429D01*
X138132825Y-80154430D01*
X138155789Y-80078728D01*
X138163543Y-80000000D01*
X138161600Y-79980272D01*
X138161600Y-79696347D01*
X138276348Y-79581600D01*
X138782196Y-79581600D01*
X138796579Y-79616323D01*
X138796579Y-79616323D01*
G37*
X138796579Y-79616323D02*
X138848868Y-79694580D01*
X138879091Y-79724803D01*
X136851695Y-81752200D01*
X136832941Y-81752200D01*
X136740631Y-81770561D01*
X136653677Y-81806579D01*
X136575420Y-81858868D01*
X136508868Y-81925420D01*
X136456579Y-82003677D01*
X136420561Y-82090631D01*
X136402200Y-82182941D01*
X136402200Y-82277059D01*
X136420561Y-82369369D01*
X136456579Y-82456323D01*
X136508868Y-82534580D01*
X136528538Y-82554250D01*
X136517381Y-82565407D01*
X136465092Y-82643664D01*
X136429074Y-82730618D01*
X136410713Y-82822928D01*
X136410713Y-82917046D01*
X136429074Y-83009356D01*
X136465092Y-83096310D01*
X136517381Y-83174567D01*
X136556598Y-83213784D01*
X136516579Y-83273677D01*
X136480561Y-83360631D01*
X136462200Y-83452941D01*
X136462200Y-83547059D01*
X136480561Y-83639369D01*
X136516579Y-83726323D01*
X136568868Y-83804580D01*
X136574288Y-83810000D01*
X136548868Y-83835420D01*
X136496579Y-83913677D01*
X136460561Y-84000631D01*
X136442200Y-84092941D01*
X136442200Y-84187059D01*
X136460561Y-84279369D01*
X136496579Y-84366323D01*
X136548868Y-84444580D01*
X136569288Y-84465000D01*
X136548868Y-84485420D01*
X136496579Y-84563677D01*
X136460561Y-84650631D01*
X136442200Y-84742941D01*
X136442200Y-84837059D01*
X136460561Y-84929369D01*
X136496579Y-85016323D01*
X136548868Y-85094580D01*
X136568997Y-85114709D01*
X136527865Y-85176269D01*
X136491847Y-85263223D01*
X136473486Y-85355533D01*
X136473486Y-85449651D01*
X136491847Y-85541961D01*
X136527865Y-85628915D01*
X136562916Y-85681372D01*
X136508868Y-85735420D01*
X136456579Y-85813677D01*
X136420561Y-85900631D01*
X136402200Y-85992941D01*
X136402200Y-86087059D01*
X136420561Y-86179369D01*
X136456579Y-86266323D01*
X136508868Y-86344580D01*
X136526500Y-86362212D01*
X136526501Y-88093494D01*
X136509877Y-88095131D01*
X136427064Y-88120252D01*
X136350743Y-88161047D01*
X136283847Y-88215947D01*
X136271000Y-88231601D01*
X136258153Y-88215947D01*
X136191257Y-88161047D01*
X136114936Y-88120252D01*
X136032123Y-88095131D01*
X135946000Y-88086649D01*
X135737418Y-88086649D01*
X135844417Y-87979650D01*
X135858276Y-87968276D01*
X135869649Y-87954418D01*
X135869655Y-87954412D01*
X135903700Y-87912927D01*
X135903701Y-87912926D01*
X135937454Y-87849778D01*
X135958240Y-87781258D01*
X135963500Y-87727850D01*
X135963500Y-87727841D01*
X135965257Y-87710001D01*
X135963500Y-87692161D01*
X135963500Y-87541318D01*
X135969966Y-87534852D01*
X136022255Y-87456595D01*
X136058273Y-87369641D01*
X136076634Y-87277331D01*
X136076634Y-87183213D01*
X136058273Y-87090903D01*
X136022255Y-87003949D01*
X135969966Y-86925692D01*
X135903414Y-86859140D01*
X135825157Y-86806851D01*
X135738203Y-86770833D01*
X135645893Y-86752472D01*
X135551775Y-86752472D01*
X135464316Y-86769868D01*
X135696385Y-86537800D01*
X135697059Y-86537800D01*
X135789369Y-86519439D01*
X135876323Y-86483421D01*
X135954580Y-86431132D01*
X136021132Y-86364580D01*
X136073421Y-86286323D01*
X136109439Y-86199369D01*
X136127800Y-86107059D01*
X136127800Y-86012941D01*
X136109439Y-85920631D01*
X136073421Y-85833677D01*
X136021132Y-85755420D01*
X135995712Y-85730000D01*
X136021132Y-85704580D01*
X136073421Y-85626323D01*
X136109439Y-85539369D01*
X136127800Y-85447059D01*
X136127800Y-85352941D01*
X136109439Y-85260631D01*
X136073421Y-85173677D01*
X136021132Y-85095420D01*
X135998833Y-85073121D01*
X136023421Y-85036323D01*
X136059439Y-84949369D01*
X136077800Y-84857059D01*
X136077800Y-84762941D01*
X136059439Y-84670631D01*
X136023421Y-84583677D01*
X135971132Y-84505420D01*
X135970712Y-84505000D01*
X136011132Y-84464580D01*
X136063421Y-84386323D01*
X136099439Y-84299369D01*
X136117800Y-84207059D01*
X136117800Y-84112941D01*
X136099439Y-84020631D01*
X136063421Y-83933677D01*
X136011132Y-83855420D01*
X136000712Y-83845000D01*
X136021132Y-83824580D01*
X136073421Y-83746323D01*
X136109439Y-83659369D01*
X136127800Y-83567059D01*
X136127800Y-83472941D01*
X136109439Y-83380631D01*
X136073421Y-83293677D01*
X136021132Y-83215420D01*
X136000712Y-83195000D01*
X136021132Y-83174580D01*
X136073421Y-83096323D01*
X136109439Y-83009369D01*
X136127800Y-82917059D01*
X136127800Y-82822941D01*
X136109439Y-82730631D01*
X136073421Y-82643677D01*
X136051600Y-82611019D01*
X136051600Y-82276347D01*
X138030025Y-80297923D01*
X138045348Y-80285348D01*
X138095534Y-80224196D01*
X138127480Y-80164429D01*
X138132825Y-80154430D01*
X138155789Y-80078728D01*
X138163543Y-80000000D01*
X138161600Y-79980272D01*
X138161600Y-79696347D01*
X138276348Y-79581600D01*
X138782196Y-79581600D01*
X138796579Y-79616323D01*
G36*
X138326261Y-86083270D02*
X138337246Y-86096655D01*
X138390662Y-86140493D01*
X138451604Y-86173067D01*
X138517730Y-86193126D01*
X138586499Y-86199899D01*
X138603729Y-86198202D01*
X140225422Y-86198202D01*
X140242644Y-86199898D01*
X140259866Y-86198202D01*
X140259874Y-86198202D01*
X140311413Y-86193126D01*
X140377539Y-86173067D01*
X140438481Y-86140493D01*
X140491897Y-86096655D01*
X140502886Y-86083265D01*
X140882652Y-85703500D01*
X141926746Y-85703500D01*
X141933847Y-85712153D01*
X141949501Y-85725000D01*
X141933847Y-85737847D01*
X141878947Y-85804743D01*
X141838152Y-85881064D01*
X141813031Y-85963877D01*
X141811069Y-85983800D01*
X141598477Y-85983800D01*
X141579999Y-85981980D01*
X141561522Y-85983800D01*
X141506252Y-85989244D01*
X141435338Y-86010755D01*
X141369983Y-86045688D01*
X141312699Y-86092699D01*
X141300915Y-86107058D01*
X140314174Y-87093800D01*
X139506995Y-87093800D01*
X139436323Y-87046579D01*
X139349369Y-87010561D01*
X139257059Y-86992200D01*
X139162941Y-86992200D01*
X139070631Y-87010561D01*
X138983677Y-87046579D01*
X138905420Y-87098868D01*
X138899168Y-87105120D01*
X138814868Y-87020820D01*
X138814868Y-87010028D01*
X138796507Y-86917718D01*
X138760489Y-86830764D01*
X138708200Y-86752507D01*
X138641648Y-86685955D01*
X138563391Y-86633666D01*
X138476437Y-86597648D01*
X138384127Y-86579287D01*
X138290009Y-86579287D01*
X138197699Y-86597648D01*
X138110745Y-86633666D01*
X138032488Y-86685955D01*
X137965936Y-86752507D01*
X137913647Y-86830764D01*
X137877629Y-86917718D01*
X137859268Y-87010028D01*
X137859268Y-87104146D01*
X137866086Y-87138425D01*
X137865420Y-87138870D01*
X137798868Y-87205422D01*
X137746579Y-87283679D01*
X137710561Y-87370633D01*
X137692200Y-87462943D01*
X137692200Y-87557061D01*
X137710561Y-87649371D01*
X137746579Y-87736325D01*
X137798868Y-87814582D01*
X137806500Y-87822214D01*
X137806500Y-88092509D01*
X137779877Y-88095131D01*
X137697064Y-88120252D01*
X137620743Y-88161047D01*
X137553847Y-88215947D01*
X137541000Y-88231601D01*
X137528153Y-88215947D01*
X137461257Y-88161047D01*
X137384936Y-88120252D01*
X137302123Y-88095131D01*
X137253500Y-88090342D01*
X137253500Y-86426576D01*
X137293677Y-86453421D01*
X137380631Y-86489439D01*
X137472941Y-86507800D01*
X137567059Y-86507800D01*
X137659369Y-86489439D01*
X137746323Y-86453421D01*
X137824580Y-86401132D01*
X137891132Y-86334580D01*
X137943421Y-86256323D01*
X137979439Y-86169369D01*
X137997800Y-86077059D01*
X137997800Y-85982941D01*
X137979439Y-85890631D01*
X137943421Y-85803677D01*
X137891132Y-85725420D01*
X137824580Y-85658868D01*
X137746323Y-85606579D01*
X137659369Y-85570561D01*
X137567059Y-85552200D01*
X137472941Y-85552200D01*
X137400517Y-85566606D01*
X137410725Y-85541961D01*
X137426868Y-85460800D01*
X137703792Y-85460800D01*
X138326261Y-86083270D01*
X138326261Y-86083270D01*
G37*
X138326261Y-86083270D02*
X138337246Y-86096655D01*
X138390662Y-86140493D01*
X138451604Y-86173067D01*
X138517730Y-86193126D01*
X138586499Y-86199899D01*
X138603729Y-86198202D01*
X140225422Y-86198202D01*
X140242644Y-86199898D01*
X140259866Y-86198202D01*
X140259874Y-86198202D01*
X140311413Y-86193126D01*
X140377539Y-86173067D01*
X140438481Y-86140493D01*
X140491897Y-86096655D01*
X140502886Y-86083265D01*
X140882652Y-85703500D01*
X141926746Y-85703500D01*
X141933847Y-85712153D01*
X141949501Y-85725000D01*
X141933847Y-85737847D01*
X141878947Y-85804743D01*
X141838152Y-85881064D01*
X141813031Y-85963877D01*
X141811069Y-85983800D01*
X141598477Y-85983800D01*
X141579999Y-85981980D01*
X141561522Y-85983800D01*
X141506252Y-85989244D01*
X141435338Y-86010755D01*
X141369983Y-86045688D01*
X141312699Y-86092699D01*
X141300915Y-86107058D01*
X140314174Y-87093800D01*
X139506995Y-87093800D01*
X139436323Y-87046579D01*
X139349369Y-87010561D01*
X139257059Y-86992200D01*
X139162941Y-86992200D01*
X139070631Y-87010561D01*
X138983677Y-87046579D01*
X138905420Y-87098868D01*
X138899168Y-87105120D01*
X138814868Y-87020820D01*
X138814868Y-87010028D01*
X138796507Y-86917718D01*
X138760489Y-86830764D01*
X138708200Y-86752507D01*
X138641648Y-86685955D01*
X138563391Y-86633666D01*
X138476437Y-86597648D01*
X138384127Y-86579287D01*
X138290009Y-86579287D01*
X138197699Y-86597648D01*
X138110745Y-86633666D01*
X138032488Y-86685955D01*
X137965936Y-86752507D01*
X137913647Y-86830764D01*
X137877629Y-86917718D01*
X137859268Y-87010028D01*
X137859268Y-87104146D01*
X137866086Y-87138425D01*
X137865420Y-87138870D01*
X137798868Y-87205422D01*
X137746579Y-87283679D01*
X137710561Y-87370633D01*
X137692200Y-87462943D01*
X137692200Y-87557061D01*
X137710561Y-87649371D01*
X137746579Y-87736325D01*
X137798868Y-87814582D01*
X137806500Y-87822214D01*
X137806500Y-88092509D01*
X137779877Y-88095131D01*
X137697064Y-88120252D01*
X137620743Y-88161047D01*
X137553847Y-88215947D01*
X137541000Y-88231601D01*
X137528153Y-88215947D01*
X137461257Y-88161047D01*
X137384936Y-88120252D01*
X137302123Y-88095131D01*
X137253500Y-88090342D01*
X137253500Y-86426576D01*
X137293677Y-86453421D01*
X137380631Y-86489439D01*
X137472941Y-86507800D01*
X137567059Y-86507800D01*
X137659369Y-86489439D01*
X137746323Y-86453421D01*
X137824580Y-86401132D01*
X137891132Y-86334580D01*
X137943421Y-86256323D01*
X137979439Y-86169369D01*
X137997800Y-86077059D01*
X137997800Y-85982941D01*
X137979439Y-85890631D01*
X137943421Y-85803677D01*
X137891132Y-85725420D01*
X137824580Y-85658868D01*
X137746323Y-85606579D01*
X137659369Y-85570561D01*
X137567059Y-85552200D01*
X137472941Y-85552200D01*
X137400517Y-85566606D01*
X137410725Y-85541961D01*
X137426868Y-85460800D01*
X137703792Y-85460800D01*
X138326261Y-86083270D01*
G36*
X134728923Y-87376030D02*
X134807180Y-87428319D01*
X134894134Y-87464337D01*
X134986444Y-87482698D01*
X135080562Y-87482698D01*
X135172872Y-87464337D01*
X135178914Y-87461834D01*
X135227702Y-87534852D01*
X135236501Y-87543651D01*
X135236501Y-87559433D01*
X135079434Y-87716500D01*
X134372622Y-87716500D01*
X134424763Y-87638465D01*
X134460781Y-87551511D01*
X134479142Y-87459201D01*
X134479142Y-87368398D01*
X134721291Y-87368398D01*
X134728923Y-87376030D01*
X134728923Y-87376030D01*
G37*
X134728923Y-87376030D02*
X134807180Y-87428319D01*
X134894134Y-87464337D01*
X134986444Y-87482698D01*
X135080562Y-87482698D01*
X135172872Y-87464337D01*
X135178914Y-87461834D01*
X135227702Y-87534852D01*
X135236501Y-87543651D01*
X135236501Y-87559433D01*
X135079434Y-87716500D01*
X134372622Y-87716500D01*
X134424763Y-87638465D01*
X134460781Y-87551511D01*
X134479142Y-87459201D01*
X134479142Y-87368398D01*
X134721291Y-87368398D01*
X134728923Y-87376030D01*
G36*
X131337751Y-86451818D02*
X131349125Y-86465677D01*
X131362983Y-86477050D01*
X131362989Y-86477056D01*
X131404474Y-86511102D01*
X131442635Y-86531499D01*
X131467623Y-86544855D01*
X131536143Y-86565641D01*
X131589551Y-86570901D01*
X131589561Y-86570901D01*
X131607401Y-86572658D01*
X131625241Y-86570901D01*
X132895032Y-86570901D01*
X132379434Y-87086500D01*
X131450567Y-87086500D01*
X130737451Y-86373385D01*
X130737451Y-86050000D01*
X130728969Y-85963877D01*
X130703848Y-85881064D01*
X130663053Y-85804743D01*
X130608153Y-85737847D01*
X130592499Y-85725000D01*
X130602624Y-85716690D01*
X131337751Y-86451818D01*
X131337751Y-86451818D01*
G37*
X131337751Y-86451818D02*
X131349125Y-86465677D01*
X131362983Y-86477050D01*
X131362989Y-86477056D01*
X131404474Y-86511102D01*
X131442635Y-86531499D01*
X131467623Y-86544855D01*
X131536143Y-86565641D01*
X131589551Y-86570901D01*
X131589561Y-86570901D01*
X131607401Y-86572658D01*
X131625241Y-86570901D01*
X132895032Y-86570901D01*
X132379434Y-87086500D01*
X131450567Y-87086500D01*
X130737451Y-86373385D01*
X130737451Y-86050000D01*
X130728969Y-85963877D01*
X130703848Y-85881064D01*
X130663053Y-85804743D01*
X130608153Y-85737847D01*
X130592499Y-85725000D01*
X130602624Y-85716690D01*
X131337751Y-86451818D01*
G36*
X134447456Y-86098478D02*
X134242182Y-86098478D01*
X134249860Y-86090800D01*
X134455134Y-86090800D01*
X134447456Y-86098478D01*
X134447456Y-86098478D01*
G37*
X134447456Y-86098478D02*
X134242182Y-86098478D01*
X134249860Y-86090800D01*
X134455134Y-86090800D01*
X134447456Y-86098478D01*
G36*
X141198742Y-84178240D02*
X141252150Y-84183500D01*
X141809818Y-84183500D01*
X141813031Y-84216123D01*
X141838152Y-84298936D01*
X141878947Y-84375257D01*
X141933847Y-84442153D01*
X141949501Y-84455000D01*
X141933847Y-84467847D01*
X141878947Y-84534743D01*
X141838152Y-84611064D01*
X141813031Y-84693877D01*
X141804549Y-84780000D01*
X141804549Y-84976500D01*
X140732196Y-84976500D01*
X140678788Y-84981760D01*
X140610268Y-85002546D01*
X140547120Y-85036299D01*
X140491770Y-85081724D01*
X140446345Y-85137074D01*
X140434264Y-85159676D01*
X140097339Y-85496602D01*
X139668159Y-85496602D01*
X139679439Y-85469369D01*
X139697800Y-85377059D01*
X139697800Y-85282941D01*
X139689167Y-85239536D01*
X139734895Y-85225665D01*
X139795837Y-85193091D01*
X139849253Y-85149253D01*
X139860242Y-85135863D01*
X140825306Y-84170800D01*
X141174216Y-84170800D01*
X141198742Y-84178240D01*
X141198742Y-84178240D01*
G37*
X141198742Y-84178240D02*
X141252150Y-84183500D01*
X141809818Y-84183500D01*
X141813031Y-84216123D01*
X141838152Y-84298936D01*
X141878947Y-84375257D01*
X141933847Y-84442153D01*
X141949501Y-84455000D01*
X141933847Y-84467847D01*
X141878947Y-84534743D01*
X141838152Y-84611064D01*
X141813031Y-84693877D01*
X141804549Y-84780000D01*
X141804549Y-84976500D01*
X140732196Y-84976500D01*
X140678788Y-84981760D01*
X140610268Y-85002546D01*
X140547120Y-85036299D01*
X140491770Y-85081724D01*
X140446345Y-85137074D01*
X140434264Y-85159676D01*
X140097339Y-85496602D01*
X139668159Y-85496602D01*
X139679439Y-85469369D01*
X139697800Y-85377059D01*
X139697800Y-85282941D01*
X139689167Y-85239536D01*
X139734895Y-85225665D01*
X139795837Y-85193091D01*
X139849253Y-85149253D01*
X139860242Y-85135863D01*
X140825306Y-84170800D01*
X141174216Y-84170800D01*
X141198742Y-84178240D01*
G36*
X130936351Y-84114418D02*
X130947724Y-84128276D01*
X130961588Y-84139654D01*
X130961589Y-84139655D01*
X131002331Y-84173091D01*
X131003074Y-84173701D01*
X131066222Y-84207454D01*
X131134742Y-84228240D01*
X131188150Y-84233500D01*
X131188160Y-84233500D01*
X131206000Y-84235257D01*
X131223840Y-84233500D01*
X132562508Y-84233500D01*
X132530557Y-84310635D01*
X132512196Y-84402945D01*
X132512196Y-84497063D01*
X132530557Y-84589373D01*
X132566575Y-84676327D01*
X132618864Y-84754584D01*
X132685416Y-84821136D01*
X132726220Y-84848400D01*
X132458981Y-84848400D01*
X132426323Y-84826579D01*
X132339369Y-84790561D01*
X132247059Y-84772200D01*
X132152941Y-84772200D01*
X132060631Y-84790561D01*
X131973677Y-84826579D01*
X131895420Y-84878868D01*
X131828868Y-84945420D01*
X131776579Y-85023677D01*
X131740561Y-85110631D01*
X131722200Y-85202941D01*
X131722200Y-85228134D01*
X131573500Y-85079434D01*
X131573500Y-85017839D01*
X131575257Y-84999999D01*
X131573500Y-84982159D01*
X131573500Y-84982151D01*
X131568240Y-84928742D01*
X131547454Y-84860222D01*
X131513701Y-84797074D01*
X131496131Y-84775665D01*
X131479655Y-84755588D01*
X131479649Y-84755582D01*
X131468276Y-84741724D01*
X131454417Y-84730350D01*
X130737451Y-84013385D01*
X130737451Y-83915518D01*
X130936351Y-84114418D01*
X130936351Y-84114418D01*
G37*
X130936351Y-84114418D02*
X130947724Y-84128276D01*
X130961588Y-84139654D01*
X130961589Y-84139655D01*
X131002331Y-84173091D01*
X131003074Y-84173701D01*
X131066222Y-84207454D01*
X131134742Y-84228240D01*
X131188150Y-84233500D01*
X131188160Y-84233500D01*
X131206000Y-84235257D01*
X131223840Y-84233500D01*
X132562508Y-84233500D01*
X132530557Y-84310635D01*
X132512196Y-84402945D01*
X132512196Y-84497063D01*
X132530557Y-84589373D01*
X132566575Y-84676327D01*
X132618864Y-84754584D01*
X132685416Y-84821136D01*
X132726220Y-84848400D01*
X132458981Y-84848400D01*
X132426323Y-84826579D01*
X132339369Y-84790561D01*
X132247059Y-84772200D01*
X132152941Y-84772200D01*
X132060631Y-84790561D01*
X131973677Y-84826579D01*
X131895420Y-84878868D01*
X131828868Y-84945420D01*
X131776579Y-85023677D01*
X131740561Y-85110631D01*
X131722200Y-85202941D01*
X131722200Y-85228134D01*
X131573500Y-85079434D01*
X131573500Y-85017839D01*
X131575257Y-84999999D01*
X131573500Y-84982159D01*
X131573500Y-84982151D01*
X131568240Y-84928742D01*
X131547454Y-84860222D01*
X131513701Y-84797074D01*
X131496131Y-84775665D01*
X131479655Y-84755588D01*
X131479649Y-84755582D01*
X131468276Y-84741724D01*
X131454417Y-84730350D01*
X130737451Y-84013385D01*
X130737451Y-83915518D01*
X130936351Y-84114418D01*
G36*
X133669762Y-84685868D02*
X133680747Y-84699253D01*
X133734163Y-84743091D01*
X133748998Y-84751020D01*
X133705105Y-84764335D01*
X133644163Y-84796909D01*
X133590747Y-84840747D01*
X133584466Y-84848400D01*
X133253772Y-84848400D01*
X133294576Y-84821136D01*
X133361128Y-84754584D01*
X133413417Y-84676327D01*
X133449435Y-84589373D01*
X133467796Y-84497063D01*
X133467796Y-84483902D01*
X133669762Y-84685868D01*
X133669762Y-84685868D01*
G37*
X133669762Y-84685868D02*
X133680747Y-84699253D01*
X133734163Y-84743091D01*
X133748998Y-84751020D01*
X133705105Y-84764335D01*
X133644163Y-84796909D01*
X133590747Y-84840747D01*
X133584466Y-84848400D01*
X133253772Y-84848400D01*
X133294576Y-84821136D01*
X133361128Y-84754584D01*
X133413417Y-84676327D01*
X133449435Y-84589373D01*
X133467796Y-84497063D01*
X133467796Y-84483902D01*
X133669762Y-84685868D01*
G36*
X137669762Y-84695868D02*
X137680747Y-84709253D01*
X137718676Y-84740381D01*
X137714933Y-84759200D01*
X137485306Y-84759200D01*
X137380110Y-84654005D01*
X137379439Y-84650631D01*
X137343421Y-84563677D01*
X137300404Y-84499296D01*
X137473191Y-84499296D01*
X137669762Y-84695868D01*
X137669762Y-84695868D01*
G37*
X137669762Y-84695868D02*
X137680747Y-84709253D01*
X137718676Y-84740381D01*
X137714933Y-84759200D01*
X137485306Y-84759200D01*
X137380110Y-84654005D01*
X137379439Y-84650631D01*
X137343421Y-84563677D01*
X137300404Y-84499296D01*
X137473191Y-84499296D01*
X137669762Y-84695868D01*
G36*
X130790217Y-81531147D02*
X130868474Y-81583436D01*
X130955428Y-81619454D01*
X131047738Y-81637815D01*
X131141856Y-81637815D01*
X131234166Y-81619454D01*
X131297417Y-81593254D01*
X131360631Y-81619439D01*
X131452941Y-81637800D01*
X131547059Y-81637800D01*
X131639369Y-81619439D01*
X131726323Y-81583421D01*
X131755269Y-81564080D01*
X131840631Y-81599439D01*
X131932941Y-81617800D01*
X132027059Y-81617800D01*
X132119369Y-81599439D01*
X132149200Y-81587082D01*
X132149200Y-81702777D01*
X132147504Y-81720000D01*
X132149200Y-81737222D01*
X132149200Y-81737229D01*
X132154276Y-81788768D01*
X132174335Y-81854894D01*
X132206909Y-81915836D01*
X132250747Y-81969252D01*
X132264133Y-81980238D01*
X132968595Y-82684700D01*
X132907441Y-82684700D01*
X132815131Y-82703061D01*
X132728177Y-82739079D01*
X132649920Y-82791368D01*
X132583368Y-82857920D01*
X132531079Y-82936177D01*
X132495061Y-83023131D01*
X132476700Y-83115441D01*
X132476700Y-83209559D01*
X132495061Y-83301869D01*
X132531079Y-83388823D01*
X132583368Y-83467080D01*
X132622788Y-83506500D01*
X131356567Y-83506500D01*
X130734996Y-82884929D01*
X130737451Y-82860000D01*
X130737451Y-82240000D01*
X130728969Y-82153877D01*
X130703848Y-82071064D01*
X130663053Y-81994743D01*
X130608153Y-81927847D01*
X130592499Y-81915000D01*
X130608153Y-81902153D01*
X130663053Y-81835257D01*
X130703848Y-81758936D01*
X130728969Y-81676123D01*
X130737451Y-81590000D01*
X130737451Y-81478381D01*
X130790217Y-81531147D01*
X130790217Y-81531147D01*
G37*
X130790217Y-81531147D02*
X130868474Y-81583436D01*
X130955428Y-81619454D01*
X131047738Y-81637815D01*
X131141856Y-81637815D01*
X131234166Y-81619454D01*
X131297417Y-81593254D01*
X131360631Y-81619439D01*
X131452941Y-81637800D01*
X131547059Y-81637800D01*
X131639369Y-81619439D01*
X131726323Y-81583421D01*
X131755269Y-81564080D01*
X131840631Y-81599439D01*
X131932941Y-81617800D01*
X132027059Y-81617800D01*
X132119369Y-81599439D01*
X132149200Y-81587082D01*
X132149200Y-81702777D01*
X132147504Y-81720000D01*
X132149200Y-81737222D01*
X132149200Y-81737229D01*
X132154276Y-81788768D01*
X132174335Y-81854894D01*
X132206909Y-81915836D01*
X132250747Y-81969252D01*
X132264133Y-81980238D01*
X132968595Y-82684700D01*
X132907441Y-82684700D01*
X132815131Y-82703061D01*
X132728177Y-82739079D01*
X132649920Y-82791368D01*
X132583368Y-82857920D01*
X132531079Y-82936177D01*
X132495061Y-83023131D01*
X132476700Y-83115441D01*
X132476700Y-83209559D01*
X132495061Y-83301869D01*
X132531079Y-83388823D01*
X132583368Y-83467080D01*
X132622788Y-83506500D01*
X131356567Y-83506500D01*
X130734996Y-82884929D01*
X130737451Y-82860000D01*
X130737451Y-82240000D01*
X130728969Y-82153877D01*
X130703848Y-82071064D01*
X130663053Y-81994743D01*
X130608153Y-81927847D01*
X130592499Y-81915000D01*
X130608153Y-81902153D01*
X130663053Y-81835257D01*
X130703848Y-81758936D01*
X130728969Y-81676123D01*
X130737451Y-81590000D01*
X130737451Y-81478381D01*
X130790217Y-81531147D01*
G36*
X141838152Y-81758936D02*
X141878947Y-81835257D01*
X141933847Y-81902153D01*
X141936630Y-81904437D01*
X141891487Y-81941485D01*
X141830192Y-82016173D01*
X141784645Y-82101385D01*
X141756597Y-82193844D01*
X141749500Y-82265904D01*
X141749500Y-82517354D01*
X141747127Y-82541446D01*
X141749500Y-82565538D01*
X141749500Y-82565540D01*
X141756597Y-82637600D01*
X141784645Y-82730059D01*
X141804549Y-82767298D01*
X141804549Y-82860000D01*
X141813031Y-82946123D01*
X141838152Y-83028936D01*
X141878947Y-83105257D01*
X141933847Y-83172153D01*
X141949501Y-83185000D01*
X141933847Y-83197847D01*
X141878947Y-83264743D01*
X141838152Y-83341064D01*
X141813031Y-83423877D01*
X141809818Y-83456500D01*
X141252150Y-83456500D01*
X141198742Y-83461760D01*
X141174216Y-83469200D01*
X140906906Y-83469200D01*
X141135868Y-83240238D01*
X141149253Y-83229253D01*
X141193091Y-83175837D01*
X141225665Y-83114895D01*
X141245724Y-83048769D01*
X141250800Y-82997230D01*
X141252497Y-82980000D01*
X141250800Y-82962770D01*
X141250800Y-82322419D01*
X141832597Y-81740623D01*
X141838152Y-81758936D01*
X141838152Y-81758936D01*
G37*
X141838152Y-81758936D02*
X141878947Y-81835257D01*
X141933847Y-81902153D01*
X141936630Y-81904437D01*
X141891487Y-81941485D01*
X141830192Y-82016173D01*
X141784645Y-82101385D01*
X141756597Y-82193844D01*
X141749500Y-82265904D01*
X141749500Y-82517354D01*
X141747127Y-82541446D01*
X141749500Y-82565538D01*
X141749500Y-82565540D01*
X141756597Y-82637600D01*
X141784645Y-82730059D01*
X141804549Y-82767298D01*
X141804549Y-82860000D01*
X141813031Y-82946123D01*
X141838152Y-83028936D01*
X141878947Y-83105257D01*
X141933847Y-83172153D01*
X141949501Y-83185000D01*
X141933847Y-83197847D01*
X141878947Y-83264743D01*
X141838152Y-83341064D01*
X141813031Y-83423877D01*
X141809818Y-83456500D01*
X141252150Y-83456500D01*
X141198742Y-83461760D01*
X141174216Y-83469200D01*
X140906906Y-83469200D01*
X141135868Y-83240238D01*
X141149253Y-83229253D01*
X141193091Y-83175837D01*
X141225665Y-83114895D01*
X141245724Y-83048769D01*
X141250800Y-82997230D01*
X141252497Y-82980000D01*
X141250800Y-82962770D01*
X141250800Y-82322419D01*
X141832597Y-81740623D01*
X141838152Y-81758936D01*
G36*
X138694549Y-73595000D02*
X138695534Y-73605000D01*
X138694549Y-73615000D01*
X138694549Y-74035000D01*
X138703031Y-74121123D01*
X138728152Y-74203936D01*
X138768947Y-74280257D01*
X138823847Y-74347153D01*
X138890743Y-74402053D01*
X138967064Y-74442848D01*
X139049877Y-74467969D01*
X139136000Y-74476451D01*
X139756000Y-74476451D01*
X139842123Y-74467969D01*
X139924936Y-74442848D01*
X140001257Y-74402053D01*
X140068153Y-74347153D01*
X140123053Y-74280257D01*
X140163848Y-74203936D01*
X140188969Y-74121123D01*
X140197451Y-74035000D01*
X140197451Y-73615000D01*
X140196466Y-73605000D01*
X140197451Y-73595000D01*
X140197451Y-73400000D01*
X142881001Y-73400000D01*
X142881001Y-76718549D01*
X142686000Y-76718549D01*
X142676000Y-76719534D01*
X142666000Y-76718549D01*
X142246000Y-76718549D01*
X142159877Y-76727031D01*
X142077064Y-76752152D01*
X142000743Y-76792947D01*
X141933847Y-76847847D01*
X141878947Y-76914743D01*
X141838152Y-76991064D01*
X141813031Y-77073877D01*
X141809818Y-77106500D01*
X141612550Y-77106500D01*
X141559142Y-77111760D01*
X141490622Y-77132546D01*
X141427474Y-77166299D01*
X141372124Y-77211724D01*
X141326699Y-77267074D01*
X141314618Y-77289676D01*
X141140533Y-77463762D01*
X141127147Y-77474748D01*
X141083309Y-77528164D01*
X141050735Y-77589106D01*
X141030676Y-77655232D01*
X141025600Y-77706771D01*
X141025600Y-77706778D01*
X141023904Y-77724000D01*
X141025600Y-77741223D01*
X141025601Y-78708293D01*
X138324133Y-81409762D01*
X138310748Y-81420747D01*
X138266910Y-81474163D01*
X138256181Y-81494236D01*
X138234335Y-81535106D01*
X138214276Y-81601232D01*
X138207504Y-81670000D01*
X138209201Y-81687232D01*
X138209200Y-82953095D01*
X138140242Y-82884137D01*
X138129253Y-82870747D01*
X138075837Y-82826909D01*
X138014895Y-82794335D01*
X137987800Y-82786116D01*
X137987800Y-82722941D01*
X137969439Y-82630631D01*
X137933421Y-82543677D01*
X137892812Y-82482900D01*
X137911132Y-82464580D01*
X137963421Y-82386323D01*
X137999439Y-82299369D01*
X138017800Y-82207059D01*
X138017800Y-82112941D01*
X137999439Y-82020631D01*
X137963421Y-81933677D01*
X137911132Y-81855420D01*
X137844580Y-81788868D01*
X137822195Y-81773911D01*
X139985873Y-79610233D01*
X139999252Y-79599253D01*
X140043091Y-79545837D01*
X140075665Y-79484895D01*
X140095724Y-79418769D01*
X140100800Y-79367230D01*
X140100800Y-79367229D01*
X140102497Y-79350000D01*
X140100800Y-79332770D01*
X140100800Y-77604010D01*
X140102496Y-77586787D01*
X140100800Y-77569564D01*
X140100800Y-77569558D01*
X140095724Y-77518019D01*
X140075665Y-77451893D01*
X140043091Y-77390951D01*
X139999253Y-77337535D01*
X139985868Y-77326550D01*
X139842520Y-77183202D01*
X139842520Y-77154449D01*
X139824159Y-77062139D01*
X139788141Y-76975185D01*
X139735852Y-76896928D01*
X139669300Y-76830376D01*
X139591043Y-76778087D01*
X139504089Y-76742069D01*
X139411779Y-76723708D01*
X139317661Y-76723708D01*
X139225351Y-76742069D01*
X139138397Y-76778087D01*
X139130365Y-76783453D01*
X139110500Y-76763588D01*
X139032243Y-76711299D01*
X138945289Y-76675281D01*
X138852979Y-76656920D01*
X138758861Y-76656920D01*
X138666551Y-76675281D01*
X138579597Y-76711299D01*
X138501340Y-76763588D01*
X138434788Y-76830140D01*
X138382499Y-76908397D01*
X138346481Y-76995351D01*
X138328120Y-77087661D01*
X138328120Y-77181779D01*
X138346481Y-77274089D01*
X138382499Y-77361043D01*
X138434788Y-77439300D01*
X138501340Y-77505852D01*
X138579597Y-77558141D01*
X138666551Y-77594159D01*
X138758861Y-77612520D01*
X138852979Y-77612520D01*
X138945289Y-77594159D01*
X139032243Y-77558141D01*
X139040275Y-77552775D01*
X139060140Y-77572640D01*
X139138397Y-77624929D01*
X139225351Y-77660947D01*
X139317661Y-77679308D01*
X139346414Y-77679308D01*
X139399201Y-77732095D01*
X139399200Y-78947060D01*
X139359369Y-78930561D01*
X139320845Y-78922898D01*
X139307929Y-78909982D01*
X139295348Y-78894652D01*
X139234196Y-78844466D01*
X139164429Y-78807175D01*
X139088727Y-78784211D01*
X139029727Y-78778400D01*
X139029725Y-78778400D01*
X139010000Y-78776457D01*
X138990275Y-78778400D01*
X138129728Y-78778400D01*
X138110000Y-78776457D01*
X138031272Y-78784211D01*
X137955570Y-78807175D01*
X137936903Y-78817153D01*
X137885804Y-78844466D01*
X137824652Y-78894652D01*
X137812075Y-78909977D01*
X137489977Y-79232076D01*
X137474653Y-79244652D01*
X137435671Y-79292152D01*
X137424467Y-79305804D01*
X137387176Y-79375571D01*
X137364212Y-79451273D01*
X137356457Y-79530000D01*
X137358401Y-79549734D01*
X137358400Y-79833652D01*
X135593059Y-81598993D01*
X134039654Y-80045588D01*
X134028276Y-80031724D01*
X133972926Y-79986299D01*
X133909778Y-79952546D01*
X133841258Y-79931760D01*
X133787850Y-79926500D01*
X133787840Y-79926500D01*
X133770000Y-79924743D01*
X133752160Y-79926500D01*
X133030566Y-79926500D01*
X131307007Y-78202941D01*
X138392200Y-78202941D01*
X138392200Y-78297059D01*
X138410561Y-78389369D01*
X138446579Y-78476323D01*
X138498868Y-78554580D01*
X138565420Y-78621132D01*
X138643677Y-78673421D01*
X138730631Y-78709439D01*
X138822941Y-78727800D01*
X138917059Y-78727800D01*
X139009369Y-78709439D01*
X139096323Y-78673421D01*
X139174580Y-78621132D01*
X139241132Y-78554580D01*
X139293421Y-78476323D01*
X139329439Y-78389369D01*
X139347800Y-78297059D01*
X139347800Y-78202941D01*
X139329439Y-78110631D01*
X139293421Y-78023677D01*
X139241132Y-77945420D01*
X139174580Y-77878868D01*
X139096323Y-77826579D01*
X139009369Y-77790561D01*
X138917059Y-77772200D01*
X138822941Y-77772200D01*
X138730631Y-77790561D01*
X138643677Y-77826579D01*
X138565420Y-77878868D01*
X138498868Y-77945420D01*
X138446579Y-78023677D01*
X138410561Y-78110631D01*
X138392200Y-78202941D01*
X131307007Y-78202941D01*
X130737451Y-77633385D01*
X130737451Y-77160000D01*
X130728969Y-77073877D01*
X130703848Y-76991064D01*
X130663053Y-76914743D01*
X130608153Y-76847847D01*
X130541257Y-76792947D01*
X130464936Y-76752152D01*
X130382123Y-76727031D01*
X130296000Y-76718549D01*
X129876000Y-76718549D01*
X129866000Y-76719534D01*
X129856000Y-76718549D01*
X129661000Y-76718549D01*
X129661000Y-73400000D01*
X138694549Y-73400000D01*
X138694549Y-73595000D01*
X138694549Y-73595000D01*
G37*
X138694549Y-73595000D02*
X138695534Y-73605000D01*
X138694549Y-73615000D01*
X138694549Y-74035000D01*
X138703031Y-74121123D01*
X138728152Y-74203936D01*
X138768947Y-74280257D01*
X138823847Y-74347153D01*
X138890743Y-74402053D01*
X138967064Y-74442848D01*
X139049877Y-74467969D01*
X139136000Y-74476451D01*
X139756000Y-74476451D01*
X139842123Y-74467969D01*
X139924936Y-74442848D01*
X140001257Y-74402053D01*
X140068153Y-74347153D01*
X140123053Y-74280257D01*
X140163848Y-74203936D01*
X140188969Y-74121123D01*
X140197451Y-74035000D01*
X140197451Y-73615000D01*
X140196466Y-73605000D01*
X140197451Y-73595000D01*
X140197451Y-73400000D01*
X142881001Y-73400000D01*
X142881001Y-76718549D01*
X142686000Y-76718549D01*
X142676000Y-76719534D01*
X142666000Y-76718549D01*
X142246000Y-76718549D01*
X142159877Y-76727031D01*
X142077064Y-76752152D01*
X142000743Y-76792947D01*
X141933847Y-76847847D01*
X141878947Y-76914743D01*
X141838152Y-76991064D01*
X141813031Y-77073877D01*
X141809818Y-77106500D01*
X141612550Y-77106500D01*
X141559142Y-77111760D01*
X141490622Y-77132546D01*
X141427474Y-77166299D01*
X141372124Y-77211724D01*
X141326699Y-77267074D01*
X141314618Y-77289676D01*
X141140533Y-77463762D01*
X141127147Y-77474748D01*
X141083309Y-77528164D01*
X141050735Y-77589106D01*
X141030676Y-77655232D01*
X141025600Y-77706771D01*
X141025600Y-77706778D01*
X141023904Y-77724000D01*
X141025600Y-77741223D01*
X141025601Y-78708293D01*
X138324133Y-81409762D01*
X138310748Y-81420747D01*
X138266910Y-81474163D01*
X138256181Y-81494236D01*
X138234335Y-81535106D01*
X138214276Y-81601232D01*
X138207504Y-81670000D01*
X138209201Y-81687232D01*
X138209200Y-82953095D01*
X138140242Y-82884137D01*
X138129253Y-82870747D01*
X138075837Y-82826909D01*
X138014895Y-82794335D01*
X137987800Y-82786116D01*
X137987800Y-82722941D01*
X137969439Y-82630631D01*
X137933421Y-82543677D01*
X137892812Y-82482900D01*
X137911132Y-82464580D01*
X137963421Y-82386323D01*
X137999439Y-82299369D01*
X138017800Y-82207059D01*
X138017800Y-82112941D01*
X137999439Y-82020631D01*
X137963421Y-81933677D01*
X137911132Y-81855420D01*
X137844580Y-81788868D01*
X137822195Y-81773911D01*
X139985873Y-79610233D01*
X139999252Y-79599253D01*
X140043091Y-79545837D01*
X140075665Y-79484895D01*
X140095724Y-79418769D01*
X140100800Y-79367230D01*
X140100800Y-79367229D01*
X140102497Y-79350000D01*
X140100800Y-79332770D01*
X140100800Y-77604010D01*
X140102496Y-77586787D01*
X140100800Y-77569564D01*
X140100800Y-77569558D01*
X140095724Y-77518019D01*
X140075665Y-77451893D01*
X140043091Y-77390951D01*
X139999253Y-77337535D01*
X139985868Y-77326550D01*
X139842520Y-77183202D01*
X139842520Y-77154449D01*
X139824159Y-77062139D01*
X139788141Y-76975185D01*
X139735852Y-76896928D01*
X139669300Y-76830376D01*
X139591043Y-76778087D01*
X139504089Y-76742069D01*
X139411779Y-76723708D01*
X139317661Y-76723708D01*
X139225351Y-76742069D01*
X139138397Y-76778087D01*
X139130365Y-76783453D01*
X139110500Y-76763588D01*
X139032243Y-76711299D01*
X138945289Y-76675281D01*
X138852979Y-76656920D01*
X138758861Y-76656920D01*
X138666551Y-76675281D01*
X138579597Y-76711299D01*
X138501340Y-76763588D01*
X138434788Y-76830140D01*
X138382499Y-76908397D01*
X138346481Y-76995351D01*
X138328120Y-77087661D01*
X138328120Y-77181779D01*
X138346481Y-77274089D01*
X138382499Y-77361043D01*
X138434788Y-77439300D01*
X138501340Y-77505852D01*
X138579597Y-77558141D01*
X138666551Y-77594159D01*
X138758861Y-77612520D01*
X138852979Y-77612520D01*
X138945289Y-77594159D01*
X139032243Y-77558141D01*
X139040275Y-77552775D01*
X139060140Y-77572640D01*
X139138397Y-77624929D01*
X139225351Y-77660947D01*
X139317661Y-77679308D01*
X139346414Y-77679308D01*
X139399201Y-77732095D01*
X139399200Y-78947060D01*
X139359369Y-78930561D01*
X139320845Y-78922898D01*
X139307929Y-78909982D01*
X139295348Y-78894652D01*
X139234196Y-78844466D01*
X139164429Y-78807175D01*
X139088727Y-78784211D01*
X139029727Y-78778400D01*
X139029725Y-78778400D01*
X139010000Y-78776457D01*
X138990275Y-78778400D01*
X138129728Y-78778400D01*
X138110000Y-78776457D01*
X138031272Y-78784211D01*
X137955570Y-78807175D01*
X137936903Y-78817153D01*
X137885804Y-78844466D01*
X137824652Y-78894652D01*
X137812075Y-78909977D01*
X137489977Y-79232076D01*
X137474653Y-79244652D01*
X137435671Y-79292152D01*
X137424467Y-79305804D01*
X137387176Y-79375571D01*
X137364212Y-79451273D01*
X137356457Y-79530000D01*
X137358401Y-79549734D01*
X137358400Y-79833652D01*
X135593059Y-81598993D01*
X134039654Y-80045588D01*
X134028276Y-80031724D01*
X133972926Y-79986299D01*
X133909778Y-79952546D01*
X133841258Y-79931760D01*
X133787850Y-79926500D01*
X133787840Y-79926500D01*
X133770000Y-79924743D01*
X133752160Y-79926500D01*
X133030566Y-79926500D01*
X131307007Y-78202941D01*
X138392200Y-78202941D01*
X138392200Y-78297059D01*
X138410561Y-78389369D01*
X138446579Y-78476323D01*
X138498868Y-78554580D01*
X138565420Y-78621132D01*
X138643677Y-78673421D01*
X138730631Y-78709439D01*
X138822941Y-78727800D01*
X138917059Y-78727800D01*
X139009369Y-78709439D01*
X139096323Y-78673421D01*
X139174580Y-78621132D01*
X139241132Y-78554580D01*
X139293421Y-78476323D01*
X139329439Y-78389369D01*
X139347800Y-78297059D01*
X139347800Y-78202941D01*
X139329439Y-78110631D01*
X139293421Y-78023677D01*
X139241132Y-77945420D01*
X139174580Y-77878868D01*
X139096323Y-77826579D01*
X139009369Y-77790561D01*
X138917059Y-77772200D01*
X138822941Y-77772200D01*
X138730631Y-77790561D01*
X138643677Y-77826579D01*
X138565420Y-77878868D01*
X138498868Y-77945420D01*
X138446579Y-78023677D01*
X138410561Y-78110631D01*
X138392200Y-78202941D01*
X131307007Y-78202941D01*
X130737451Y-77633385D01*
X130737451Y-77160000D01*
X130728969Y-77073877D01*
X130703848Y-76991064D01*
X130663053Y-76914743D01*
X130608153Y-76847847D01*
X130541257Y-76792947D01*
X130464936Y-76752152D01*
X130382123Y-76727031D01*
X130296000Y-76718549D01*
X129876000Y-76718549D01*
X129866000Y-76719534D01*
X129856000Y-76718549D01*
X129661000Y-76718549D01*
X129661000Y-73400000D01*
X138694549Y-73400000D01*
X138694549Y-73595000D01*
G36*
X138963677Y-82403421D02*
X139050631Y-82439439D01*
X139142941Y-82457800D01*
X139237059Y-82457800D01*
X139329369Y-82439439D01*
X139365388Y-82424519D01*
X139393677Y-82443421D01*
X139412625Y-82451270D01*
X139364695Y-82499200D01*
X139317222Y-82499200D01*
X139299999Y-82497504D01*
X139282776Y-82499200D01*
X139282770Y-82499200D01*
X139238305Y-82503579D01*
X139231230Y-82504276D01*
X139211171Y-82510361D01*
X139165105Y-82524335D01*
X139104163Y-82556909D01*
X139050747Y-82600747D01*
X139039763Y-82614131D01*
X138910800Y-82743094D01*
X138910800Y-82368090D01*
X138963677Y-82403421D01*
X138963677Y-82403421D01*
G37*
X138963677Y-82403421D02*
X139050631Y-82439439D01*
X139142941Y-82457800D01*
X139237059Y-82457800D01*
X139329369Y-82439439D01*
X139365388Y-82424519D01*
X139393677Y-82443421D01*
X139412625Y-82451270D01*
X139364695Y-82499200D01*
X139317222Y-82499200D01*
X139299999Y-82497504D01*
X139282776Y-82499200D01*
X139282770Y-82499200D01*
X139238305Y-82503579D01*
X139231230Y-82504276D01*
X139211171Y-82510361D01*
X139165105Y-82524335D01*
X139104163Y-82556909D01*
X139050747Y-82600747D01*
X139039763Y-82614131D01*
X138910800Y-82743094D01*
X138910800Y-82368090D01*
X138963677Y-82403421D01*
G36*
X135248401Y-82282467D02*
X135248400Y-82611019D01*
X135226579Y-82643677D01*
X135224849Y-82647855D01*
X135204758Y-82641760D01*
X135151350Y-82636500D01*
X135151340Y-82636500D01*
X135133500Y-82634743D01*
X135115660Y-82636500D01*
X134670567Y-82636500D01*
X133308021Y-81273955D01*
X133308021Y-80722360D01*
X133309778Y-80704520D01*
X133308021Y-80686680D01*
X133308021Y-80686671D01*
X133304754Y-80653500D01*
X133619434Y-80653500D01*
X135248401Y-82282467D01*
X135248401Y-82282467D01*
G37*
X135248401Y-82282467D02*
X135248400Y-82611019D01*
X135226579Y-82643677D01*
X135224849Y-82647855D01*
X135204758Y-82641760D01*
X135151350Y-82636500D01*
X135151340Y-82636500D01*
X135133500Y-82634743D01*
X135115660Y-82636500D01*
X134670567Y-82636500D01*
X133308021Y-81273955D01*
X133308021Y-80722360D01*
X133309778Y-80704520D01*
X133308021Y-80686680D01*
X133308021Y-80686671D01*
X133304754Y-80653500D01*
X133619434Y-80653500D01*
X135248401Y-82282467D01*
G36*
X139679200Y-81544615D02*
X139667059Y-81542200D01*
X139572941Y-81542200D01*
X139480631Y-81560561D01*
X139444612Y-81575481D01*
X139416323Y-81556579D01*
X139329369Y-81520561D01*
X139237059Y-81502200D01*
X139223905Y-81502200D01*
X139679201Y-81046905D01*
X139679200Y-81544615D01*
X139679200Y-81544615D01*
G37*
X139679200Y-81544615D02*
X139667059Y-81542200D01*
X139572941Y-81542200D01*
X139480631Y-81560561D01*
X139444612Y-81575481D01*
X139416323Y-81556579D01*
X139329369Y-81520561D01*
X139237059Y-81502200D01*
X139223905Y-81502200D01*
X139679201Y-81046905D01*
X139679200Y-81544615D01*
G36*
X141878947Y-79295257D02*
X141933847Y-79362153D01*
X141949501Y-79375000D01*
X141933847Y-79387847D01*
X141878947Y-79454743D01*
X141838152Y-79531064D01*
X141813031Y-79613877D01*
X141804549Y-79700000D01*
X141804549Y-79947385D01*
X141380345Y-80371589D01*
X141346300Y-80413074D01*
X141316683Y-80468483D01*
X141234584Y-80434476D01*
X141142274Y-80416115D01*
X141048156Y-80416115D01*
X140955846Y-80434476D01*
X140868892Y-80470494D01*
X140790635Y-80522783D01*
X140724083Y-80589335D01*
X140671794Y-80667592D01*
X140635776Y-80754546D01*
X140617415Y-80846856D01*
X140617415Y-80875609D01*
X140380800Y-81112225D01*
X140380800Y-80755763D01*
X141865836Y-79270728D01*
X141878947Y-79295257D01*
X141878947Y-79295257D01*
G37*
X141878947Y-79295257D02*
X141933847Y-79362153D01*
X141949501Y-79375000D01*
X141933847Y-79387847D01*
X141878947Y-79454743D01*
X141838152Y-79531064D01*
X141813031Y-79613877D01*
X141804549Y-79700000D01*
X141804549Y-79947385D01*
X141380345Y-80371589D01*
X141346300Y-80413074D01*
X141316683Y-80468483D01*
X141234584Y-80434476D01*
X141142274Y-80416115D01*
X141048156Y-80416115D01*
X140955846Y-80434476D01*
X140868892Y-80470494D01*
X140790635Y-80522783D01*
X140724083Y-80589335D01*
X140671794Y-80667592D01*
X140635776Y-80754546D01*
X140617415Y-80846856D01*
X140617415Y-80875609D01*
X140380800Y-81112225D01*
X140380800Y-80755763D01*
X141865836Y-79270728D01*
X141878947Y-79295257D01*
G36*
X131442434Y-79716500D02*
X130737451Y-79716500D01*
X130737451Y-79700000D01*
X130728969Y-79613877D01*
X130703848Y-79531064D01*
X130663053Y-79454743D01*
X130608153Y-79387847D01*
X130592499Y-79375000D01*
X130608153Y-79362153D01*
X130663053Y-79295257D01*
X130703848Y-79218936D01*
X130728969Y-79136123D01*
X130732182Y-79103500D01*
X130829434Y-79103500D01*
X131442434Y-79716500D01*
X131442434Y-79716500D01*
G37*
X131442434Y-79716500D02*
X130737451Y-79716500D01*
X130737451Y-79700000D01*
X130728969Y-79613877D01*
X130703848Y-79531064D01*
X130663053Y-79454743D01*
X130608153Y-79387847D01*
X130592499Y-79375000D01*
X130608153Y-79362153D01*
X130663053Y-79295257D01*
X130703848Y-79218936D01*
X130728969Y-79136123D01*
X130732182Y-79103500D01*
X130829434Y-79103500D01*
X131442434Y-79716500D01*
G36*
X141813031Y-77866123D02*
X141838152Y-77948936D01*
X141878947Y-78025257D01*
X141933847Y-78092153D01*
X141949501Y-78105000D01*
X141933847Y-78117847D01*
X141878947Y-78184743D01*
X141838152Y-78261064D01*
X141813031Y-78343877D01*
X141808687Y-78387983D01*
X141760680Y-78402546D01*
X141727200Y-78420441D01*
X141727200Y-77869305D01*
X141763006Y-77833500D01*
X141809818Y-77833500D01*
X141813031Y-77866123D01*
X141813031Y-77866123D01*
G37*
X141813031Y-77866123D02*
X141838152Y-77948936D01*
X141878947Y-78025257D01*
X141933847Y-78092153D01*
X141949501Y-78105000D01*
X141933847Y-78117847D01*
X141878947Y-78184743D01*
X141838152Y-78261064D01*
X141813031Y-78343877D01*
X141808687Y-78387983D01*
X141760680Y-78402546D01*
X141727200Y-78420441D01*
X141727200Y-77869305D01*
X141763006Y-77833500D01*
X141809818Y-77833500D01*
X141813031Y-77866123D01*
G04 #@! TD*
M02*
