G04 #@! TF.GenerationSoftware,KiCad,Pcbnew,(5.0.1-3-g963ef8bb5)*
G04 #@! TF.CreationDate,2019-03-11T11:49:31+01:00*
G04 #@! TF.ProjectId,TLM-v1,544C4D2D76312E6B696361645F706362,1.1*
G04 #@! TF.SameCoordinates,Original*
G04 #@! TF.FileFunction,Legend,Top*
G04 #@! TF.FilePolarity,Positive*
%FSLAX46Y46*%
G04 Gerber Fmt 4.6, Leading zero omitted, Abs format (unit mm)*
G04 Created by KiCad (PCBNEW (5.0.1-3-g963ef8bb5)) date 2019 March 11, Monday 11:49:31*
%MOMM*%
%LPD*%
G01*
G04 APERTURE LIST*
%ADD10C,0.200000*%
%ADD11C,0.175000*%
%ADD12C,0.225000*%
%ADD13C,0.120000*%
G04 APERTURE END LIST*
D10*
X138700000Y-79300000D02*
X139500000Y-79300000D01*
D11*
X131978571Y-79115238D02*
X132511904Y-78889047D01*
X131978571Y-78662857D01*
X132435714Y-78300952D02*
X132473809Y-78255714D01*
X132511904Y-78300952D01*
X132473809Y-78346190D01*
X132435714Y-78300952D01*
X132511904Y-78300952D01*
X132511904Y-76627142D02*
X132511904Y-77170000D01*
X132511904Y-76898571D02*
X131711904Y-76898571D01*
X131826190Y-76989047D01*
X131902380Y-77079523D01*
X131940476Y-77170000D01*
X132435714Y-76220000D02*
X132473809Y-76174761D01*
X132511904Y-76220000D01*
X132473809Y-76265238D01*
X132435714Y-76220000D01*
X132511904Y-76220000D01*
X132511904Y-75270000D02*
X132511904Y-75812857D01*
X132511904Y-75541428D02*
X131711904Y-75541428D01*
X131826190Y-75631904D01*
X131902380Y-75722380D01*
X131940476Y-75812857D01*
D12*
X130340561Y-80312400D02*
X130340561Y-79712400D01*
X131290561Y-80012400D02*
X130340561Y-80012400D01*
X131290561Y-79362400D02*
X130657228Y-79362400D01*
X130340561Y-79362400D02*
X130385800Y-79412400D01*
X130431038Y-79362400D01*
X130385800Y-79312400D01*
X130340561Y-79362400D01*
X130431038Y-79362400D01*
X130657228Y-78862400D02*
X131290561Y-78862400D01*
X130747704Y-78862400D02*
X130702466Y-78812400D01*
X130657228Y-78712400D01*
X130657228Y-78562400D01*
X130702466Y-78462400D01*
X130792942Y-78412400D01*
X131290561Y-78412400D01*
X130657228Y-78012400D02*
X131290561Y-77762400D01*
X130657228Y-77512400D02*
X131290561Y-77762400D01*
X131516752Y-77862400D01*
X131561990Y-77912400D01*
X131607228Y-78012400D01*
X131290561Y-76612400D02*
X131290561Y-77112400D01*
X130340561Y-77112400D01*
X131290561Y-76112400D02*
X131245323Y-76212400D01*
X131200085Y-76262400D01*
X131109609Y-76312400D01*
X130838180Y-76312400D01*
X130747704Y-76262400D01*
X130702466Y-76212400D01*
X130657228Y-76112400D01*
X130657228Y-75962400D01*
X130702466Y-75862400D01*
X130747704Y-75812400D01*
X130838180Y-75762400D01*
X131109609Y-75762400D01*
X131200085Y-75812400D01*
X131245323Y-75862400D01*
X131290561Y-75962400D01*
X131290561Y-76112400D01*
X131290561Y-74712400D02*
X130838180Y-75062400D01*
X131290561Y-75312400D02*
X130340561Y-75312400D01*
X130340561Y-74912400D01*
X130385800Y-74812400D01*
X130431038Y-74762400D01*
X130521514Y-74712400D01*
X130657228Y-74712400D01*
X130747704Y-74762400D01*
X130792942Y-74812400D01*
X130838180Y-74912400D01*
X130838180Y-75312400D01*
X131290561Y-73812400D02*
X130792942Y-73812400D01*
X130702466Y-73862400D01*
X130657228Y-73962400D01*
X130657228Y-74162400D01*
X130702466Y-74262400D01*
X131245323Y-73812400D02*
X131290561Y-73912400D01*
X131290561Y-74162400D01*
X131245323Y-74262400D01*
X131154847Y-74312400D01*
X131064371Y-74312400D01*
X130973895Y-74262400D01*
X130928657Y-74162400D01*
X130928657Y-73912400D01*
X130883419Y-73812400D01*
D10*
G04 #@! TO.C,XC1*
X130200000Y-86675000D02*
X130400000Y-87075000D01*
X130400000Y-86675000D02*
X130200000Y-86675000D01*
X131700000Y-88575000D02*
X131500000Y-88575000D01*
X131700000Y-85575000D02*
X131500000Y-85575000D01*
X132800000Y-86675000D02*
X132800000Y-87475000D01*
X130400000Y-86675000D02*
X130400000Y-87475000D01*
G04 #@! TO.C,Y1*
X142300000Y-83650000D02*
X142300000Y-84050000D01*
X141100000Y-83650000D02*
X141100000Y-84050000D01*
D13*
G04 #@! TO.C,U2*
X139371000Y-87237500D02*
X133171000Y-87237500D01*
X139371000Y-81037500D02*
X133171000Y-81037500D01*
X133171000Y-81037500D02*
X133171000Y-87237500D01*
X139371000Y-81037500D02*
X139371000Y-87237500D01*
X139571000Y-80837500D02*
X138971000Y-80837500D01*
X139571000Y-81437500D02*
X139571000Y-80837500D01*
G04 #@! TO.C,U3*
X138840000Y-74310000D02*
X138240000Y-74310000D01*
G04 #@! TD*
M02*
