G04 #@! TF.GenerationSoftware,KiCad,Pcbnew,(5.0.1-3-g963ef8bb5)*
G04 #@! TF.CreationDate,2019-03-11T11:49:31+01:00*
G04 #@! TF.ProjectId,TLM-v1,544C4D2D76312E6B696361645F706362,1.1*
G04 #@! TF.SameCoordinates,Original*
G04 #@! TF.FileFunction,Other,Fab,Top*
%FSLAX46Y46*%
G04 Gerber Fmt 4.6, Leading zero omitted, Abs format (unit mm)*
G04 Created by KiCad (PCBNEW (5.0.1-3-g963ef8bb5)) date 2019 March 11, Monday 11:49:31*
%MOMM*%
%LPD*%
G01*
G04 APERTURE LIST*
%ADD10C,0.100000*%
%ADD11C,0.150000*%
%ADD12C,0.050000*%
%ADD13C,0.037500*%
G04 APERTURE END LIST*
D10*
X141559523Y-83840476D02*
X141559523Y-84030952D01*
X141426190Y-83630952D02*
X141559523Y-83840476D01*
X141692857Y-83630952D01*
X142035714Y-84030952D02*
X141807142Y-84030952D01*
X141921428Y-84030952D02*
X141921428Y-83630952D01*
X141883333Y-83688095D01*
X141845238Y-83726190D01*
X141807142Y-83745238D01*
X130995238Y-86876190D02*
X131328571Y-87376190D01*
X131328571Y-86876190D02*
X130995238Y-87376190D01*
X131804761Y-87328571D02*
X131780952Y-87352380D01*
X131709523Y-87376190D01*
X131661904Y-87376190D01*
X131590476Y-87352380D01*
X131542857Y-87304761D01*
X131519047Y-87257142D01*
X131495238Y-87161904D01*
X131495238Y-87090476D01*
X131519047Y-86995238D01*
X131542857Y-86947619D01*
X131590476Y-86900000D01*
X131661904Y-86876190D01*
X131709523Y-86876190D01*
X131780952Y-86900000D01*
X131804761Y-86923809D01*
X132280952Y-87376190D02*
X131995238Y-87376190D01*
X132138095Y-87376190D02*
X132138095Y-86876190D01*
X132090476Y-86947619D01*
X132042857Y-86995238D01*
X131995238Y-87019047D01*
G04 #@! TO.C,C3*
X132375000Y-84350000D02*
X132375000Y-84650000D01*
X132375000Y-84650000D02*
X131775000Y-84650000D01*
X131775000Y-84650000D02*
X131775000Y-84350000D01*
X131775000Y-84350000D02*
X132375000Y-84350000D01*
D11*
G04 #@! TO.C,XC1*
X130600000Y-86275000D02*
X130600000Y-88325000D01*
X130600000Y-88325000D02*
X132600000Y-88325000D01*
X132600000Y-88325000D02*
X132600000Y-85825000D01*
X132600000Y-85825000D02*
X131050000Y-85825000D01*
X131050000Y-85825000D02*
X130600000Y-86275000D01*
G04 #@! TO.C,Y1*
X142200000Y-83350000D02*
X141900000Y-83050000D01*
X141200000Y-83050000D02*
X141900000Y-83050000D01*
X141200000Y-84650000D02*
X141200000Y-83050000D01*
X142200000Y-84650000D02*
X141200000Y-84650000D01*
X142200000Y-83350000D02*
X142200000Y-84650000D01*
D10*
G04 #@! TO.C,C1*
X132860000Y-82730000D02*
X132360000Y-82730000D01*
X132360000Y-82730000D02*
X132360000Y-81730000D01*
X132360000Y-81730000D02*
X132860000Y-81730000D01*
X132860000Y-81730000D02*
X132860000Y-82730000D01*
G04 #@! TO.C,C2*
X130890000Y-82820000D02*
X130590000Y-82820000D01*
X130590000Y-82820000D02*
X130590000Y-82220000D01*
X130590000Y-82220000D02*
X130890000Y-82220000D01*
X130890000Y-82220000D02*
X130890000Y-82820000D01*
G04 #@! TO.C,C4*
X141275000Y-86050000D02*
X141275000Y-86350000D01*
X141275000Y-86350000D02*
X140675000Y-86350000D01*
X140675000Y-86350000D02*
X140675000Y-86050000D01*
X140675000Y-86050000D02*
X141275000Y-86050000D01*
G04 #@! TO.C,C5*
X141275000Y-87075000D02*
X140675000Y-87075000D01*
X141275000Y-86775000D02*
X141275000Y-87075000D01*
X140675000Y-86775000D02*
X141275000Y-86775000D01*
X140675000Y-87075000D02*
X140675000Y-86775000D01*
G04 #@! TO.C,C6*
X130590000Y-83620000D02*
X130890000Y-83620000D01*
X130890000Y-83620000D02*
X130890000Y-84220000D01*
X130890000Y-84220000D02*
X130590000Y-84220000D01*
X130590000Y-84220000D02*
X130590000Y-83620000D01*
G04 #@! TO.C,C7*
X132630000Y-80350000D02*
X132630000Y-80650000D01*
X132630000Y-80650000D02*
X132030000Y-80650000D01*
X132030000Y-80650000D02*
X132030000Y-80350000D01*
X132030000Y-80350000D02*
X132630000Y-80350000D01*
G04 #@! TO.C,C8*
X132027000Y-79650000D02*
X132627000Y-79650000D01*
X132027000Y-79950000D02*
X132027000Y-79650000D01*
X132627000Y-79950000D02*
X132027000Y-79950000D01*
X132627000Y-79650000D02*
X132627000Y-79950000D01*
G04 #@! TO.C,C9*
X132375000Y-83650000D02*
X132375000Y-83950000D01*
X132375000Y-83950000D02*
X131775000Y-83950000D01*
X131775000Y-83950000D02*
X131775000Y-83650000D01*
X131775000Y-83650000D02*
X132375000Y-83650000D01*
G04 #@! TO.C,C10*
X139040000Y-77620000D02*
X139040000Y-77920000D01*
X139040000Y-77920000D02*
X138440000Y-77920000D01*
X138440000Y-77920000D02*
X138440000Y-77620000D01*
X138440000Y-77620000D02*
X139040000Y-77620000D01*
G04 #@! TO.C,C11*
X140320000Y-81790000D02*
X140320000Y-81490000D01*
X140320000Y-81490000D02*
X140920000Y-81490000D01*
X140920000Y-81490000D02*
X140920000Y-81790000D01*
X140920000Y-81790000D02*
X140320000Y-81790000D01*
G04 #@! TO.C,C12*
X140320000Y-82560000D02*
X140320000Y-82260000D01*
X140320000Y-82260000D02*
X140920000Y-82260000D01*
X140920000Y-82260000D02*
X140920000Y-82560000D01*
X140920000Y-82560000D02*
X140320000Y-82560000D01*
G04 #@! TO.C,C13*
X133700000Y-87950000D02*
X134300000Y-87950000D01*
X133700000Y-88250000D02*
X133700000Y-87950000D01*
X134300000Y-88250000D02*
X133700000Y-88250000D01*
X134300000Y-87950000D02*
X134300000Y-88250000D01*
G04 #@! TO.C,C14*
X141260000Y-85600000D02*
X140660000Y-85600000D01*
X141260000Y-85300000D02*
X141260000Y-85600000D01*
X140660000Y-85300000D02*
X141260000Y-85300000D01*
X140660000Y-85600000D02*
X140660000Y-85300000D01*
G04 #@! TO.C,C15*
X137876000Y-87937200D02*
X138476000Y-87937200D01*
X137876000Y-88237200D02*
X137876000Y-87937200D01*
X138476000Y-88237200D02*
X137876000Y-88237200D01*
X138476000Y-87937200D02*
X138476000Y-88237200D01*
G04 #@! TO.C,C16*
X134934680Y-74246600D02*
X135534680Y-74246600D01*
X134934680Y-74546600D02*
X134934680Y-74246600D01*
X135534680Y-74546600D02*
X134934680Y-74546600D01*
X135534680Y-74246600D02*
X135534680Y-74546600D01*
G04 #@! TO.C,C17*
X133377800Y-77531240D02*
X133377800Y-76931240D01*
X133677800Y-77531240D02*
X133377800Y-77531240D01*
X133677800Y-76931240D02*
X133677800Y-77531240D01*
X133377800Y-76931240D02*
X133677800Y-76931240D01*
G04 #@! TO.C,C18*
X132897600Y-78122640D02*
X133497600Y-78122640D01*
X132897600Y-78422640D02*
X132897600Y-78122640D01*
X133497600Y-78422640D02*
X132897600Y-78422640D01*
X133497600Y-78122640D02*
X133497600Y-78422640D01*
G04 #@! TO.C,C19*
X132872200Y-75928080D02*
X133472200Y-75928080D01*
X132872200Y-76228080D02*
X132872200Y-75928080D01*
X133472200Y-76228080D02*
X132872200Y-76228080D01*
X133472200Y-75928080D02*
X133472200Y-76228080D01*
G04 #@! TO.C,C20*
X134112280Y-74246600D02*
X134112280Y-74546600D01*
X134112280Y-74546600D02*
X133512280Y-74546600D01*
X133512280Y-74546600D02*
X133512280Y-74246600D01*
X133512280Y-74246600D02*
X134112280Y-74246600D01*
G04 #@! TO.C,C21*
X136451480Y-74490300D02*
X136451480Y-75090300D01*
X136151480Y-74490300D02*
X136451480Y-74490300D01*
X136151480Y-75090300D02*
X136151480Y-74490300D01*
X136451480Y-75090300D02*
X136151480Y-75090300D01*
G04 #@! TO.C,C22*
X141526400Y-76500000D02*
X141226400Y-76500000D01*
X141226400Y-76500000D02*
X141226400Y-75900000D01*
X141226400Y-75900000D02*
X141526400Y-75900000D01*
X141526400Y-75900000D02*
X141526400Y-76500000D01*
G04 #@! TO.C,C23*
X140813134Y-78726602D02*
X141237398Y-79150866D01*
X140601002Y-78938734D02*
X140813134Y-78726602D01*
X141025266Y-79362998D02*
X140601002Y-78938734D01*
X141237398Y-79150866D02*
X141025266Y-79362998D01*
G04 #@! TO.C,C24*
X136661000Y-80420000D02*
X136361000Y-80420000D01*
X136361000Y-80420000D02*
X136361000Y-79820000D01*
X136361000Y-79820000D02*
X136661000Y-79820000D01*
X136661000Y-79820000D02*
X136661000Y-80420000D01*
G04 #@! TO.C,C25*
X135949800Y-79820000D02*
X135949800Y-80420000D01*
X135649800Y-79820000D02*
X135949800Y-79820000D01*
X135649800Y-80420000D02*
X135649800Y-79820000D01*
X135949800Y-80420000D02*
X135649800Y-80420000D01*
G04 #@! TO.C,C26*
X134302360Y-78938400D02*
X134302360Y-78338400D01*
X134602360Y-78938400D02*
X134302360Y-78938400D01*
X134602360Y-78338400D02*
X134602360Y-78938400D01*
X134302360Y-78338400D02*
X134602360Y-78338400D01*
G04 #@! TO.C,C27*
X134302360Y-77551560D02*
X134302360Y-76951560D01*
X134602360Y-77551560D02*
X134302360Y-77551560D01*
X134602360Y-76951560D02*
X134602360Y-77551560D01*
X134302360Y-76951560D02*
X134602360Y-76951560D01*
G04 #@! TO.C,C28*
X137271600Y-79114300D02*
X137271600Y-78814300D01*
X137271600Y-78814300D02*
X137871600Y-78814300D01*
X137871600Y-78814300D02*
X137871600Y-79114300D01*
X137871600Y-79114300D02*
X137271600Y-79114300D01*
G04 #@! TO.C,C29*
X137271600Y-79550900D02*
X137871600Y-79550900D01*
X137271600Y-79850900D02*
X137271600Y-79550900D01*
X137871600Y-79850900D02*
X137271600Y-79850900D01*
X137871600Y-79550900D02*
X137871600Y-79850900D01*
G04 #@! TO.C,C30*
X135864320Y-78432800D02*
X135864320Y-78132800D01*
X135864320Y-78132800D02*
X136464320Y-78132800D01*
X136464320Y-78132800D02*
X136464320Y-78432800D01*
X136464320Y-78432800D02*
X135864320Y-78432800D01*
G04 #@! TO.C,C31*
X136464320Y-77736840D02*
X135864320Y-77736840D01*
X136464320Y-77436840D02*
X136464320Y-77736840D01*
X135864320Y-77436840D02*
X136464320Y-77436840D01*
X135864320Y-77736840D02*
X135864320Y-77436840D01*
G04 #@! TO.C,C32*
X135133360Y-75953480D02*
X135133360Y-76253480D01*
X135133360Y-76253480D02*
X134533360Y-76253480D01*
X134533360Y-76253480D02*
X134533360Y-75953480D01*
X134533360Y-75953480D02*
X135133360Y-75953480D01*
G04 #@! TO.C,C33*
X141980000Y-81420000D02*
X141680000Y-81420000D01*
X141680000Y-81420000D02*
X141680000Y-80820000D01*
X141680000Y-80820000D02*
X141980000Y-80820000D01*
X141980000Y-80820000D02*
X141980000Y-81420000D01*
G04 #@! TO.C,C34*
X140490000Y-77920000D02*
X139890000Y-77920000D01*
X140490000Y-77620000D02*
X140490000Y-77920000D01*
X139890000Y-77620000D02*
X140490000Y-77620000D01*
X139890000Y-77920000D02*
X139890000Y-77620000D01*
G04 #@! TO.C,C35*
X131675000Y-85025000D02*
X131675000Y-85325000D01*
X131675000Y-85325000D02*
X131075000Y-85325000D01*
X131075000Y-85325000D02*
X131075000Y-85025000D01*
X131075000Y-85025000D02*
X131675000Y-85025000D01*
G04 #@! TO.C,C36*
X140700000Y-83490000D02*
X140100000Y-83490000D01*
X140700000Y-83190000D02*
X140700000Y-83490000D01*
X140100000Y-83190000D02*
X140700000Y-83190000D01*
X140100000Y-83490000D02*
X140100000Y-83190000D01*
G04 #@! TO.C,C37*
X140100000Y-84530000D02*
X140100000Y-84230000D01*
X140100000Y-84230000D02*
X140700000Y-84230000D01*
X140700000Y-84230000D02*
X140700000Y-84530000D01*
X140700000Y-84530000D02*
X140100000Y-84530000D01*
G04 #@! TO.C,FB1*
X131810000Y-82730000D02*
X131310000Y-82730000D01*
X131310000Y-82730000D02*
X131310000Y-81730000D01*
X131310000Y-81730000D02*
X131810000Y-81730000D01*
X131810000Y-81730000D02*
X131810000Y-82730000D01*
G04 #@! TO.C,L4*
X133537680Y-75283200D02*
X133537680Y-74983200D01*
X133537680Y-74983200D02*
X134137680Y-74983200D01*
X134137680Y-74983200D02*
X134137680Y-75283200D01*
X134137680Y-75283200D02*
X133537680Y-75283200D01*
G04 #@! TO.C,L5*
X135534680Y-75283200D02*
X134934680Y-75283200D01*
X135534680Y-74983200D02*
X135534680Y-75283200D01*
X134934680Y-74983200D02*
X135534680Y-74983200D01*
X134934680Y-75283200D02*
X134934680Y-74983200D01*
G04 #@! TO.C,L6*
X134964000Y-80420000D02*
X134964000Y-79820000D01*
X135264000Y-80420000D02*
X134964000Y-80420000D01*
X135264000Y-79820000D02*
X135264000Y-80420000D01*
X134964000Y-79820000D02*
X135264000Y-79820000D01*
G04 #@! TO.C,L7*
X140423296Y-79785772D02*
X140635428Y-79997904D01*
X140635428Y-79997904D02*
X140211164Y-80422168D01*
X140211164Y-80422168D02*
X139999032Y-80210036D01*
X139999032Y-80210036D02*
X140423296Y-79785772D01*
G04 #@! TO.C,L8*
X137271600Y-80587500D02*
X137271600Y-80287500D01*
X137271600Y-80287500D02*
X137871600Y-80287500D01*
X137871600Y-80287500D02*
X137871600Y-80587500D01*
X137871600Y-80587500D02*
X137271600Y-80587500D01*
G04 #@! TO.C,L9*
X135869400Y-78814300D02*
X136469400Y-78814300D01*
X135869400Y-79114300D02*
X135869400Y-78814300D01*
X136469400Y-79114300D02*
X135869400Y-79114300D01*
X136469400Y-78814300D02*
X136469400Y-79114300D01*
G04 #@! TO.C,L10*
X135298320Y-78938400D02*
X134998320Y-78938400D01*
X134998320Y-78938400D02*
X134998320Y-78338400D01*
X134998320Y-78338400D02*
X135298320Y-78338400D01*
X135298320Y-78338400D02*
X135298320Y-78938400D01*
G04 #@! TO.C,L11*
X135298320Y-76946480D02*
X135298320Y-77546480D01*
X134998320Y-76946480D02*
X135298320Y-76946480D01*
X134998320Y-77546480D02*
X134998320Y-76946480D01*
X135298320Y-77546480D02*
X134998320Y-77546480D01*
G04 #@! TO.C,R1*
X140555600Y-87850000D02*
X140555600Y-88350000D01*
X140555600Y-88350000D02*
X139555600Y-88350000D01*
X139555600Y-88350000D02*
X139555600Y-87850000D01*
X139555600Y-87850000D02*
X140555600Y-87850000D01*
G04 #@! TO.C,U2*
X133271000Y-87137500D02*
X139271000Y-87137500D01*
X133271000Y-81137500D02*
X138971000Y-81137500D01*
X133271000Y-81137500D02*
X133271000Y-87137500D01*
X139271000Y-81437500D02*
X139271000Y-87137500D01*
X138971000Y-81137500D02*
X139271000Y-81437500D01*
G04 #@! TO.C,U3*
X138440000Y-74910000D02*
X138740000Y-74610000D01*
X138440000Y-76610000D02*
X138440000Y-74910000D01*
X140440000Y-76610000D02*
X138440000Y-76610000D01*
X140440000Y-74610000D02*
X140440000Y-76610000D01*
X138740000Y-74610000D02*
X140440000Y-74610000D01*
G04 #@! TO.C,L3*
X133772600Y-80084240D02*
X133272600Y-80084240D01*
X133272600Y-80084240D02*
X133272600Y-79084240D01*
X133272600Y-79084240D02*
X133772600Y-79084240D01*
X133772600Y-79084240D02*
X133772600Y-80084240D01*
G04 #@! TD*
G04 #@! TO.C,C3*
D12*
X132958956Y-84532476D02*
X132844670Y-84532476D01*
X132901813Y-84532476D02*
X132901813Y-84332476D01*
X132882765Y-84361047D01*
X132863718Y-84380095D01*
X132844670Y-84389619D01*
X133082765Y-84332476D02*
X133101813Y-84332476D01*
X133120860Y-84342000D01*
X133130384Y-84351523D01*
X133139908Y-84370571D01*
X133149432Y-84408666D01*
X133149432Y-84456285D01*
X133139908Y-84494380D01*
X133130384Y-84513428D01*
X133120860Y-84522952D01*
X133101813Y-84532476D01*
X133082765Y-84532476D01*
X133063718Y-84522952D01*
X133054194Y-84513428D01*
X133044670Y-84494380D01*
X133035146Y-84456285D01*
X133035146Y-84408666D01*
X133044670Y-84370571D01*
X133054194Y-84351523D01*
X133063718Y-84342000D01*
X133082765Y-84332476D01*
X133273241Y-84332476D02*
X133292289Y-84332476D01*
X133311337Y-84342000D01*
X133320860Y-84351523D01*
X133330384Y-84370571D01*
X133339908Y-84408666D01*
X133339908Y-84456285D01*
X133330384Y-84494380D01*
X133320860Y-84513428D01*
X133311337Y-84522952D01*
X133292289Y-84532476D01*
X133273241Y-84532476D01*
X133254194Y-84522952D01*
X133244670Y-84513428D01*
X133235146Y-84494380D01*
X133225622Y-84456285D01*
X133225622Y-84408666D01*
X133235146Y-84370571D01*
X133244670Y-84351523D01*
X133254194Y-84342000D01*
X133273241Y-84332476D01*
X133425622Y-84399142D02*
X133425622Y-84532476D01*
X133425622Y-84418190D02*
X133435146Y-84408666D01*
X133454194Y-84399142D01*
X133482765Y-84399142D01*
X133501813Y-84408666D01*
X133511337Y-84427714D01*
X133511337Y-84532476D01*
X133673241Y-84427714D02*
X133606575Y-84427714D01*
X133606575Y-84532476D02*
X133606575Y-84332476D01*
X133701813Y-84332476D01*
D13*
X132044600Y-84566691D02*
X132037457Y-84573834D01*
X132016028Y-84580977D01*
X132001742Y-84580977D01*
X131980314Y-84573834D01*
X131966028Y-84559548D01*
X131958885Y-84545262D01*
X131951742Y-84516691D01*
X131951742Y-84495262D01*
X131958885Y-84466691D01*
X131966028Y-84452405D01*
X131980314Y-84438120D01*
X132001742Y-84430977D01*
X132016028Y-84430977D01*
X132037457Y-84438120D01*
X132044600Y-84445262D01*
X132094600Y-84430977D02*
X132187457Y-84430977D01*
X132137457Y-84488120D01*
X132158885Y-84488120D01*
X132173171Y-84495262D01*
X132180314Y-84502405D01*
X132187457Y-84516691D01*
X132187457Y-84552405D01*
X132180314Y-84566691D01*
X132173171Y-84573834D01*
X132158885Y-84580977D01*
X132116028Y-84580977D01*
X132101742Y-84573834D01*
X132094600Y-84566691D01*
G04 #@! TO.C,XC1*
D12*
X130171794Y-85512596D02*
X130286080Y-85512596D01*
X130228937Y-85712596D02*
X130228937Y-85512596D01*
X130390841Y-85617358D02*
X130390841Y-85712596D01*
X130324175Y-85512596D02*
X130390841Y-85617358D01*
X130457508Y-85512596D01*
X130524175Y-85607834D02*
X130590841Y-85607834D01*
X130619413Y-85712596D02*
X130524175Y-85712596D01*
X130524175Y-85512596D01*
X130619413Y-85512596D01*
X130676556Y-85512596D02*
X130790841Y-85512596D01*
X130733699Y-85712596D02*
X130733699Y-85512596D01*
X130924175Y-85607834D02*
X130952746Y-85617358D01*
X130962270Y-85626881D01*
X130971794Y-85645929D01*
X130971794Y-85674500D01*
X130962270Y-85693548D01*
X130952746Y-85703072D01*
X130933699Y-85712596D01*
X130857508Y-85712596D01*
X130857508Y-85512596D01*
X130924175Y-85512596D01*
X130943222Y-85522120D01*
X130952746Y-85531643D01*
X130962270Y-85550691D01*
X130962270Y-85569739D01*
X130952746Y-85588786D01*
X130943222Y-85598310D01*
X130924175Y-85607834D01*
X130857508Y-85607834D01*
X131171794Y-85693548D02*
X131162270Y-85703072D01*
X131133699Y-85712596D01*
X131114651Y-85712596D01*
X131086080Y-85703072D01*
X131067032Y-85684024D01*
X131057508Y-85664977D01*
X131047984Y-85626881D01*
X131047984Y-85598310D01*
X131057508Y-85560215D01*
X131067032Y-85541167D01*
X131086080Y-85522120D01*
X131114651Y-85512596D01*
X131133699Y-85512596D01*
X131162270Y-85522120D01*
X131171794Y-85531643D01*
X131247984Y-85703072D02*
X131276556Y-85712596D01*
X131324175Y-85712596D01*
X131343222Y-85703072D01*
X131352746Y-85693548D01*
X131362270Y-85674500D01*
X131362270Y-85655453D01*
X131352746Y-85636405D01*
X131343222Y-85626881D01*
X131324175Y-85617358D01*
X131286080Y-85607834D01*
X131267032Y-85598310D01*
X131257508Y-85588786D01*
X131247984Y-85569739D01*
X131247984Y-85550691D01*
X131257508Y-85531643D01*
X131267032Y-85522120D01*
X131286080Y-85512596D01*
X131333699Y-85512596D01*
X131362270Y-85522120D01*
X131438460Y-85655453D02*
X131533699Y-85655453D01*
X131419413Y-85712596D02*
X131486080Y-85512596D01*
X131552746Y-85712596D01*
X131619413Y-85712596D02*
X131619413Y-85512596D01*
X131733699Y-85712596D01*
X131733699Y-85512596D01*
X131895603Y-85607834D02*
X131828937Y-85607834D01*
X131828937Y-85712596D02*
X131828937Y-85512596D01*
X131924175Y-85512596D01*
X132000365Y-85636405D02*
X132152746Y-85636405D01*
X132228937Y-85512596D02*
X132352746Y-85512596D01*
X132286080Y-85588786D01*
X132314651Y-85588786D01*
X132333699Y-85598310D01*
X132343222Y-85607834D01*
X132352746Y-85626881D01*
X132352746Y-85674500D01*
X132343222Y-85693548D01*
X132333699Y-85703072D01*
X132314651Y-85712596D01*
X132257508Y-85712596D01*
X132238460Y-85703072D01*
X132228937Y-85693548D01*
X132428937Y-85531643D02*
X132438460Y-85522120D01*
X132457508Y-85512596D01*
X132505127Y-85512596D01*
X132524175Y-85522120D01*
X132533699Y-85531643D01*
X132543222Y-85550691D01*
X132543222Y-85569739D01*
X132533699Y-85598310D01*
X132419413Y-85712596D01*
X132543222Y-85712596D01*
X132628937Y-85693548D02*
X132638460Y-85703072D01*
X132628937Y-85712596D01*
X132619413Y-85703072D01*
X132628937Y-85693548D01*
X132628937Y-85712596D01*
X132762270Y-85512596D02*
X132781318Y-85512596D01*
X132800365Y-85522120D01*
X132809889Y-85531643D01*
X132819413Y-85550691D01*
X132828937Y-85588786D01*
X132828937Y-85636405D01*
X132819413Y-85674500D01*
X132809889Y-85693548D01*
X132800365Y-85703072D01*
X132781318Y-85712596D01*
X132762270Y-85712596D01*
X132743222Y-85703072D01*
X132733699Y-85693548D01*
X132724175Y-85674500D01*
X132714651Y-85636405D01*
X132714651Y-85588786D01*
X132724175Y-85550691D01*
X132733699Y-85531643D01*
X132743222Y-85522120D01*
X132762270Y-85512596D01*
X132952746Y-85512596D02*
X132971794Y-85512596D01*
X132990841Y-85522120D01*
X133000365Y-85531643D01*
X133009889Y-85550691D01*
X133019413Y-85588786D01*
X133019413Y-85636405D01*
X133009889Y-85674500D01*
X133000365Y-85693548D01*
X132990841Y-85703072D01*
X132971794Y-85712596D01*
X132952746Y-85712596D01*
X132933699Y-85703072D01*
X132924175Y-85693548D01*
X132914651Y-85674500D01*
X132905127Y-85636405D01*
X132905127Y-85588786D01*
X132914651Y-85550691D01*
X132924175Y-85531643D01*
X132933699Y-85522120D01*
X132952746Y-85512596D01*
X133143222Y-85512596D02*
X133162270Y-85512596D01*
X133181318Y-85522120D01*
X133190841Y-85531643D01*
X133200365Y-85550691D01*
X133209889Y-85588786D01*
X133209889Y-85636405D01*
X133200365Y-85674500D01*
X133190841Y-85693548D01*
X133181318Y-85703072D01*
X133162270Y-85712596D01*
X133143222Y-85712596D01*
X133124175Y-85703072D01*
X133114651Y-85693548D01*
X133105127Y-85674500D01*
X133095603Y-85636405D01*
X133095603Y-85588786D01*
X133105127Y-85550691D01*
X133114651Y-85531643D01*
X133124175Y-85522120D01*
X133143222Y-85512596D01*
X133333699Y-85512596D02*
X133352746Y-85512596D01*
X133371794Y-85522120D01*
X133381318Y-85531643D01*
X133390841Y-85550691D01*
X133400365Y-85588786D01*
X133400365Y-85636405D01*
X133390841Y-85674500D01*
X133381318Y-85693548D01*
X133371794Y-85703072D01*
X133352746Y-85712596D01*
X133333699Y-85712596D01*
X133314651Y-85703072D01*
X133305127Y-85693548D01*
X133295603Y-85674500D01*
X133286080Y-85636405D01*
X133286080Y-85588786D01*
X133295603Y-85550691D01*
X133305127Y-85531643D01*
X133314651Y-85522120D01*
X133333699Y-85512596D01*
X133524175Y-85512596D02*
X133543222Y-85512596D01*
X133562270Y-85522120D01*
X133571794Y-85531643D01*
X133581318Y-85550691D01*
X133590841Y-85588786D01*
X133590841Y-85636405D01*
X133581318Y-85674500D01*
X133571794Y-85693548D01*
X133562270Y-85703072D01*
X133543222Y-85712596D01*
X133524175Y-85712596D01*
X133505127Y-85703072D01*
X133495603Y-85693548D01*
X133486080Y-85674500D01*
X133476556Y-85636405D01*
X133476556Y-85588786D01*
X133486080Y-85550691D01*
X133495603Y-85531643D01*
X133505127Y-85522120D01*
X133524175Y-85512596D01*
X133714651Y-85512596D02*
X133733699Y-85512596D01*
X133752746Y-85522120D01*
X133762270Y-85531643D01*
X133771794Y-85550691D01*
X133781318Y-85588786D01*
X133781318Y-85636405D01*
X133771794Y-85674500D01*
X133762270Y-85693548D01*
X133752746Y-85703072D01*
X133733699Y-85712596D01*
X133714651Y-85712596D01*
X133695603Y-85703072D01*
X133686080Y-85693548D01*
X133676556Y-85674500D01*
X133667032Y-85636405D01*
X133667032Y-85588786D01*
X133676556Y-85550691D01*
X133686080Y-85531643D01*
X133695603Y-85522120D01*
X133714651Y-85512596D01*
G04 #@! TO.C,U1*
X135828142Y-90695476D02*
X135942428Y-90695476D01*
X135885285Y-90895476D02*
X135885285Y-90695476D01*
X136104333Y-90895476D02*
X136009095Y-90895476D01*
X136009095Y-90695476D01*
X136171000Y-90895476D02*
X136171000Y-90695476D01*
X136237666Y-90838333D01*
X136304333Y-90695476D01*
X136304333Y-90895476D01*
X136437666Y-90695476D02*
X136456714Y-90695476D01*
X136475761Y-90705000D01*
X136485285Y-90714523D01*
X136494809Y-90733571D01*
X136504333Y-90771666D01*
X136504333Y-90819285D01*
X136494809Y-90857380D01*
X136485285Y-90876428D01*
X136475761Y-90885952D01*
X136456714Y-90895476D01*
X136437666Y-90895476D01*
X136418619Y-90885952D01*
X136409095Y-90876428D01*
X136399571Y-90857380D01*
X136390047Y-90819285D01*
X136390047Y-90771666D01*
X136399571Y-90733571D01*
X136409095Y-90714523D01*
X136418619Y-90705000D01*
X136437666Y-90695476D01*
X136694809Y-90895476D02*
X136580523Y-90895476D01*
X136637666Y-90895476D02*
X136637666Y-90695476D01*
X136618619Y-90724047D01*
X136599571Y-90743095D01*
X136580523Y-90752619D01*
G04 #@! TO.C,C1*
X133870476Y-82444285D02*
X133870476Y-82558571D01*
X133870476Y-82501428D02*
X133670476Y-82501428D01*
X133699047Y-82520476D01*
X133718095Y-82539523D01*
X133727619Y-82558571D01*
X133670476Y-82320476D02*
X133670476Y-82301428D01*
X133680000Y-82282380D01*
X133689523Y-82272857D01*
X133708571Y-82263333D01*
X133746666Y-82253809D01*
X133794285Y-82253809D01*
X133832380Y-82263333D01*
X133851428Y-82272857D01*
X133860952Y-82282380D01*
X133870476Y-82301428D01*
X133870476Y-82320476D01*
X133860952Y-82339523D01*
X133851428Y-82349047D01*
X133832380Y-82358571D01*
X133794285Y-82368095D01*
X133746666Y-82368095D01*
X133708571Y-82358571D01*
X133689523Y-82349047D01*
X133680000Y-82339523D01*
X133670476Y-82320476D01*
X133737142Y-82082380D02*
X133870476Y-82082380D01*
X133737142Y-82168095D02*
X133841904Y-82168095D01*
X133860952Y-82158571D01*
X133870476Y-82139523D01*
X133870476Y-82110952D01*
X133860952Y-82091904D01*
X133851428Y-82082380D01*
X133765714Y-81920476D02*
X133765714Y-81987142D01*
X133870476Y-81987142D02*
X133670476Y-81987142D01*
X133670476Y-81891904D01*
D13*
X132646651Y-82244800D02*
X132653794Y-82251942D01*
X132660937Y-82273371D01*
X132660937Y-82287657D01*
X132653794Y-82309085D01*
X132639508Y-82323371D01*
X132625222Y-82330514D01*
X132596651Y-82337657D01*
X132575222Y-82337657D01*
X132546651Y-82330514D01*
X132532365Y-82323371D01*
X132518080Y-82309085D01*
X132510937Y-82287657D01*
X132510937Y-82273371D01*
X132518080Y-82251942D01*
X132525222Y-82244800D01*
X132660937Y-82101942D02*
X132660937Y-82187657D01*
X132660937Y-82144800D02*
X132510937Y-82144800D01*
X132532365Y-82159085D01*
X132546651Y-82173371D01*
X132553794Y-82187657D01*
G04 #@! TO.C,C2*
D12*
X130282036Y-81771796D02*
X130167750Y-81771796D01*
X130224893Y-81771796D02*
X130224893Y-81571796D01*
X130205845Y-81600367D01*
X130186798Y-81619415D01*
X130167750Y-81628939D01*
X130405845Y-81571796D02*
X130424893Y-81571796D01*
X130443940Y-81581320D01*
X130453464Y-81590843D01*
X130462988Y-81609891D01*
X130472512Y-81647986D01*
X130472512Y-81695605D01*
X130462988Y-81733700D01*
X130453464Y-81752748D01*
X130443940Y-81762272D01*
X130424893Y-81771796D01*
X130405845Y-81771796D01*
X130386798Y-81762272D01*
X130377274Y-81752748D01*
X130367750Y-81733700D01*
X130358226Y-81695605D01*
X130358226Y-81647986D01*
X130367750Y-81609891D01*
X130377274Y-81590843D01*
X130386798Y-81581320D01*
X130405845Y-81571796D01*
X130596321Y-81571796D02*
X130615369Y-81571796D01*
X130634417Y-81581320D01*
X130643940Y-81590843D01*
X130653464Y-81609891D01*
X130662988Y-81647986D01*
X130662988Y-81695605D01*
X130653464Y-81733700D01*
X130643940Y-81752748D01*
X130634417Y-81762272D01*
X130615369Y-81771796D01*
X130596321Y-81771796D01*
X130577274Y-81762272D01*
X130567750Y-81752748D01*
X130558226Y-81733700D01*
X130548702Y-81695605D01*
X130548702Y-81647986D01*
X130558226Y-81609891D01*
X130567750Y-81590843D01*
X130577274Y-81581320D01*
X130596321Y-81571796D01*
X130748702Y-81638462D02*
X130748702Y-81771796D01*
X130748702Y-81657510D02*
X130758226Y-81647986D01*
X130777274Y-81638462D01*
X130805845Y-81638462D01*
X130824893Y-81647986D01*
X130834417Y-81667034D01*
X130834417Y-81771796D01*
X130996321Y-81667034D02*
X130929655Y-81667034D01*
X130929655Y-81771796D02*
X130929655Y-81571796D01*
X131024893Y-81571796D01*
D13*
X130792451Y-82539440D02*
X130799594Y-82546582D01*
X130806737Y-82568011D01*
X130806737Y-82582297D01*
X130799594Y-82603725D01*
X130785308Y-82618011D01*
X130771022Y-82625154D01*
X130742451Y-82632297D01*
X130721022Y-82632297D01*
X130692451Y-82625154D01*
X130678165Y-82618011D01*
X130663880Y-82603725D01*
X130656737Y-82582297D01*
X130656737Y-82568011D01*
X130663880Y-82546582D01*
X130671022Y-82539440D01*
X130671022Y-82482297D02*
X130663880Y-82475154D01*
X130656737Y-82460868D01*
X130656737Y-82425154D01*
X130663880Y-82410868D01*
X130671022Y-82403725D01*
X130685308Y-82396582D01*
X130699594Y-82396582D01*
X130721022Y-82403725D01*
X130806737Y-82489440D01*
X130806737Y-82396582D01*
G04 #@! TO.C,C4*
D12*
X139456516Y-86333636D02*
X139342230Y-86333636D01*
X139399373Y-86333636D02*
X139399373Y-86133636D01*
X139380325Y-86162207D01*
X139361278Y-86181255D01*
X139342230Y-86190779D01*
X139580325Y-86133636D02*
X139599373Y-86133636D01*
X139618420Y-86143160D01*
X139627944Y-86152683D01*
X139637468Y-86171731D01*
X139646992Y-86209826D01*
X139646992Y-86257445D01*
X139637468Y-86295540D01*
X139627944Y-86314588D01*
X139618420Y-86324112D01*
X139599373Y-86333636D01*
X139580325Y-86333636D01*
X139561278Y-86324112D01*
X139551754Y-86314588D01*
X139542230Y-86295540D01*
X139532706Y-86257445D01*
X139532706Y-86209826D01*
X139542230Y-86171731D01*
X139551754Y-86152683D01*
X139561278Y-86143160D01*
X139580325Y-86133636D01*
X139770801Y-86133636D02*
X139789849Y-86133636D01*
X139808897Y-86143160D01*
X139818420Y-86152683D01*
X139827944Y-86171731D01*
X139837468Y-86209826D01*
X139837468Y-86257445D01*
X139827944Y-86295540D01*
X139818420Y-86314588D01*
X139808897Y-86324112D01*
X139789849Y-86333636D01*
X139770801Y-86333636D01*
X139751754Y-86324112D01*
X139742230Y-86314588D01*
X139732706Y-86295540D01*
X139723182Y-86257445D01*
X139723182Y-86209826D01*
X139732706Y-86171731D01*
X139742230Y-86152683D01*
X139751754Y-86143160D01*
X139770801Y-86133636D01*
X139923182Y-86200302D02*
X139923182Y-86333636D01*
X139923182Y-86219350D02*
X139932706Y-86209826D01*
X139951754Y-86200302D01*
X139980325Y-86200302D01*
X139999373Y-86209826D01*
X140008897Y-86228874D01*
X140008897Y-86333636D01*
X140170801Y-86228874D02*
X140104135Y-86228874D01*
X140104135Y-86333636D02*
X140104135Y-86133636D01*
X140199373Y-86133636D01*
D13*
X140975480Y-86256091D02*
X140968337Y-86263234D01*
X140946908Y-86270377D01*
X140932622Y-86270377D01*
X140911194Y-86263234D01*
X140896908Y-86248948D01*
X140889765Y-86234662D01*
X140882622Y-86206091D01*
X140882622Y-86184662D01*
X140889765Y-86156091D01*
X140896908Y-86141805D01*
X140911194Y-86127520D01*
X140932622Y-86120377D01*
X140946908Y-86120377D01*
X140968337Y-86127520D01*
X140975480Y-86134662D01*
X141104051Y-86170377D02*
X141104051Y-86270377D01*
X141068337Y-86113234D02*
X141032622Y-86220377D01*
X141125480Y-86220377D01*
G04 #@! TO.C,C5*
D12*
X139461596Y-87049916D02*
X139347310Y-87049916D01*
X139404453Y-87049916D02*
X139404453Y-86849916D01*
X139385405Y-86878487D01*
X139366358Y-86897535D01*
X139347310Y-86907059D01*
X139585405Y-86849916D02*
X139604453Y-86849916D01*
X139623500Y-86859440D01*
X139633024Y-86868963D01*
X139642548Y-86888011D01*
X139652072Y-86926106D01*
X139652072Y-86973725D01*
X139642548Y-87011820D01*
X139633024Y-87030868D01*
X139623500Y-87040392D01*
X139604453Y-87049916D01*
X139585405Y-87049916D01*
X139566358Y-87040392D01*
X139556834Y-87030868D01*
X139547310Y-87011820D01*
X139537786Y-86973725D01*
X139537786Y-86926106D01*
X139547310Y-86888011D01*
X139556834Y-86868963D01*
X139566358Y-86859440D01*
X139585405Y-86849916D01*
X139775881Y-86849916D02*
X139794929Y-86849916D01*
X139813977Y-86859440D01*
X139823500Y-86868963D01*
X139833024Y-86888011D01*
X139842548Y-86926106D01*
X139842548Y-86973725D01*
X139833024Y-87011820D01*
X139823500Y-87030868D01*
X139813977Y-87040392D01*
X139794929Y-87049916D01*
X139775881Y-87049916D01*
X139756834Y-87040392D01*
X139747310Y-87030868D01*
X139737786Y-87011820D01*
X139728262Y-86973725D01*
X139728262Y-86926106D01*
X139737786Y-86888011D01*
X139747310Y-86868963D01*
X139756834Y-86859440D01*
X139775881Y-86849916D01*
X139928262Y-86916582D02*
X139928262Y-87049916D01*
X139928262Y-86935630D02*
X139937786Y-86926106D01*
X139956834Y-86916582D01*
X139985405Y-86916582D01*
X140004453Y-86926106D01*
X140013977Y-86945154D01*
X140013977Y-87049916D01*
X140175881Y-86945154D02*
X140109215Y-86945154D01*
X140109215Y-87049916D02*
X140109215Y-86849916D01*
X140204453Y-86849916D01*
D13*
X140945000Y-86992691D02*
X140937857Y-86999834D01*
X140916428Y-87006977D01*
X140902142Y-87006977D01*
X140880714Y-86999834D01*
X140866428Y-86985548D01*
X140859285Y-86971262D01*
X140852142Y-86942691D01*
X140852142Y-86921262D01*
X140859285Y-86892691D01*
X140866428Y-86878405D01*
X140880714Y-86864120D01*
X140902142Y-86856977D01*
X140916428Y-86856977D01*
X140937857Y-86864120D01*
X140945000Y-86871262D01*
X141080714Y-86856977D02*
X141009285Y-86856977D01*
X141002142Y-86928405D01*
X141009285Y-86921262D01*
X141023571Y-86914120D01*
X141059285Y-86914120D01*
X141073571Y-86921262D01*
X141080714Y-86928405D01*
X141087857Y-86942691D01*
X141087857Y-86978405D01*
X141080714Y-86992691D01*
X141073571Y-86999834D01*
X141059285Y-87006977D01*
X141023571Y-87006977D01*
X141009285Y-86999834D01*
X141002142Y-86992691D01*
G04 #@! TO.C,C6*
D12*
X130419196Y-84875676D02*
X130304910Y-84875676D01*
X130362053Y-84875676D02*
X130362053Y-84675676D01*
X130343005Y-84704247D01*
X130323958Y-84723295D01*
X130304910Y-84732819D01*
X130543005Y-84675676D02*
X130562053Y-84675676D01*
X130581100Y-84685200D01*
X130590624Y-84694723D01*
X130600148Y-84713771D01*
X130609672Y-84751866D01*
X130609672Y-84799485D01*
X130600148Y-84837580D01*
X130590624Y-84856628D01*
X130581100Y-84866152D01*
X130562053Y-84875676D01*
X130543005Y-84875676D01*
X130523958Y-84866152D01*
X130514434Y-84856628D01*
X130504910Y-84837580D01*
X130495386Y-84799485D01*
X130495386Y-84751866D01*
X130504910Y-84713771D01*
X130514434Y-84694723D01*
X130523958Y-84685200D01*
X130543005Y-84675676D01*
X130733481Y-84675676D02*
X130752529Y-84675676D01*
X130771577Y-84685200D01*
X130781100Y-84694723D01*
X130790624Y-84713771D01*
X130800148Y-84751866D01*
X130800148Y-84799485D01*
X130790624Y-84837580D01*
X130781100Y-84856628D01*
X130771577Y-84866152D01*
X130752529Y-84875676D01*
X130733481Y-84875676D01*
X130714434Y-84866152D01*
X130704910Y-84856628D01*
X130695386Y-84837580D01*
X130685862Y-84799485D01*
X130685862Y-84751866D01*
X130695386Y-84713771D01*
X130704910Y-84694723D01*
X130714434Y-84685200D01*
X130733481Y-84675676D01*
X130885862Y-84742342D02*
X130885862Y-84875676D01*
X130885862Y-84761390D02*
X130895386Y-84751866D01*
X130914434Y-84742342D01*
X130943005Y-84742342D01*
X130962053Y-84751866D01*
X130971577Y-84770914D01*
X130971577Y-84875676D01*
X131133481Y-84770914D02*
X131066815Y-84770914D01*
X131066815Y-84875676D02*
X131066815Y-84675676D01*
X131162053Y-84675676D01*
D13*
X130802611Y-83936440D02*
X130809754Y-83943582D01*
X130816897Y-83965011D01*
X130816897Y-83979297D01*
X130809754Y-84000725D01*
X130795468Y-84015011D01*
X130781182Y-84022154D01*
X130752611Y-84029297D01*
X130731182Y-84029297D01*
X130702611Y-84022154D01*
X130688325Y-84015011D01*
X130674040Y-84000725D01*
X130666897Y-83979297D01*
X130666897Y-83965011D01*
X130674040Y-83943582D01*
X130681182Y-83936440D01*
X130666897Y-83807868D02*
X130666897Y-83836440D01*
X130674040Y-83850725D01*
X130681182Y-83857868D01*
X130702611Y-83872154D01*
X130731182Y-83879297D01*
X130788325Y-83879297D01*
X130802611Y-83872154D01*
X130809754Y-83865011D01*
X130816897Y-83850725D01*
X130816897Y-83822154D01*
X130809754Y-83807868D01*
X130802611Y-83800725D01*
X130788325Y-83793582D01*
X130752611Y-83793582D01*
X130738325Y-83800725D01*
X130731182Y-83807868D01*
X130724040Y-83822154D01*
X130724040Y-83850725D01*
X130731182Y-83865011D01*
X130738325Y-83872154D01*
X130752611Y-83879297D01*
G04 #@! TO.C,C7*
D12*
X130893544Y-80418636D02*
X131017354Y-80418636D01*
X130950687Y-80494826D01*
X130979259Y-80494826D01*
X130998306Y-80504350D01*
X131007830Y-80513874D01*
X131017354Y-80532921D01*
X131017354Y-80580540D01*
X131007830Y-80599588D01*
X130998306Y-80609112D01*
X130979259Y-80618636D01*
X130922116Y-80618636D01*
X130903068Y-80609112D01*
X130893544Y-80599588D01*
X131084020Y-80418636D02*
X131207830Y-80418636D01*
X131141163Y-80494826D01*
X131169735Y-80494826D01*
X131188782Y-80504350D01*
X131198306Y-80513874D01*
X131207830Y-80532921D01*
X131207830Y-80580540D01*
X131198306Y-80599588D01*
X131188782Y-80609112D01*
X131169735Y-80618636D01*
X131112592Y-80618636D01*
X131093544Y-80609112D01*
X131084020Y-80599588D01*
X131293544Y-80485302D02*
X131293544Y-80685302D01*
X131293544Y-80494826D02*
X131312592Y-80485302D01*
X131350687Y-80485302D01*
X131369735Y-80494826D01*
X131379259Y-80504350D01*
X131388782Y-80523398D01*
X131388782Y-80580540D01*
X131379259Y-80599588D01*
X131369735Y-80609112D01*
X131350687Y-80618636D01*
X131312592Y-80618636D01*
X131293544Y-80609112D01*
X131541163Y-80513874D02*
X131474497Y-80513874D01*
X131474497Y-80618636D02*
X131474497Y-80418636D01*
X131569735Y-80418636D01*
D13*
X132324240Y-80556331D02*
X132317097Y-80563474D01*
X132295668Y-80570617D01*
X132281382Y-80570617D01*
X132259954Y-80563474D01*
X132245668Y-80549188D01*
X132238525Y-80534902D01*
X132231382Y-80506331D01*
X132231382Y-80484902D01*
X132238525Y-80456331D01*
X132245668Y-80442045D01*
X132259954Y-80427760D01*
X132281382Y-80420617D01*
X132295668Y-80420617D01*
X132317097Y-80427760D01*
X132324240Y-80434902D01*
X132374240Y-80420617D02*
X132474240Y-80420617D01*
X132409954Y-80570617D01*
G04 #@! TO.C,C8*
D12*
X130790036Y-79922676D02*
X130675750Y-79922676D01*
X130732893Y-79922676D02*
X130732893Y-79722676D01*
X130713845Y-79751247D01*
X130694798Y-79770295D01*
X130675750Y-79779819D01*
X130913845Y-79722676D02*
X130932893Y-79722676D01*
X130951940Y-79732200D01*
X130961464Y-79741723D01*
X130970988Y-79760771D01*
X130980512Y-79798866D01*
X130980512Y-79846485D01*
X130970988Y-79884580D01*
X130961464Y-79903628D01*
X130951940Y-79913152D01*
X130932893Y-79922676D01*
X130913845Y-79922676D01*
X130894798Y-79913152D01*
X130885274Y-79903628D01*
X130875750Y-79884580D01*
X130866226Y-79846485D01*
X130866226Y-79798866D01*
X130875750Y-79760771D01*
X130885274Y-79741723D01*
X130894798Y-79732200D01*
X130913845Y-79722676D01*
X131104321Y-79722676D02*
X131123369Y-79722676D01*
X131142417Y-79732200D01*
X131151940Y-79741723D01*
X131161464Y-79760771D01*
X131170988Y-79798866D01*
X131170988Y-79846485D01*
X131161464Y-79884580D01*
X131151940Y-79903628D01*
X131142417Y-79913152D01*
X131123369Y-79922676D01*
X131104321Y-79922676D01*
X131085274Y-79913152D01*
X131075750Y-79903628D01*
X131066226Y-79884580D01*
X131056702Y-79846485D01*
X131056702Y-79798866D01*
X131066226Y-79760771D01*
X131075750Y-79741723D01*
X131085274Y-79732200D01*
X131104321Y-79722676D01*
X131256702Y-79789342D02*
X131256702Y-79922676D01*
X131256702Y-79808390D02*
X131266226Y-79798866D01*
X131285274Y-79789342D01*
X131313845Y-79789342D01*
X131332893Y-79798866D01*
X131342417Y-79817914D01*
X131342417Y-79922676D01*
X131504321Y-79817914D02*
X131437655Y-79817914D01*
X131437655Y-79922676D02*
X131437655Y-79722676D01*
X131532893Y-79722676D01*
D13*
X132298840Y-79850211D02*
X132291697Y-79857354D01*
X132270268Y-79864497D01*
X132255982Y-79864497D01*
X132234554Y-79857354D01*
X132220268Y-79843068D01*
X132213125Y-79828782D01*
X132205982Y-79800211D01*
X132205982Y-79778782D01*
X132213125Y-79750211D01*
X132220268Y-79735925D01*
X132234554Y-79721640D01*
X132255982Y-79714497D01*
X132270268Y-79714497D01*
X132291697Y-79721640D01*
X132298840Y-79728782D01*
X132384554Y-79778782D02*
X132370268Y-79771640D01*
X132363125Y-79764497D01*
X132355982Y-79750211D01*
X132355982Y-79743068D01*
X132363125Y-79728782D01*
X132370268Y-79721640D01*
X132384554Y-79714497D01*
X132413125Y-79714497D01*
X132427411Y-79721640D01*
X132434554Y-79728782D01*
X132441697Y-79743068D01*
X132441697Y-79750211D01*
X132434554Y-79764497D01*
X132427411Y-79771640D01*
X132413125Y-79778782D01*
X132384554Y-79778782D01*
X132370268Y-79785925D01*
X132363125Y-79793068D01*
X132355982Y-79807354D01*
X132355982Y-79835925D01*
X132363125Y-79850211D01*
X132370268Y-79857354D01*
X132384554Y-79864497D01*
X132413125Y-79864497D01*
X132427411Y-79857354D01*
X132434554Y-79850211D01*
X132441697Y-79835925D01*
X132441697Y-79807354D01*
X132434554Y-79793068D01*
X132427411Y-79785925D01*
X132413125Y-79778782D01*
G04 #@! TO.C,C9*
D12*
X132923396Y-83866196D02*
X132809110Y-83866196D01*
X132866253Y-83866196D02*
X132866253Y-83666196D01*
X132847205Y-83694767D01*
X132828158Y-83713815D01*
X132809110Y-83723339D01*
X133047205Y-83666196D02*
X133066253Y-83666196D01*
X133085300Y-83675720D01*
X133094824Y-83685243D01*
X133104348Y-83704291D01*
X133113872Y-83742386D01*
X133113872Y-83790005D01*
X133104348Y-83828100D01*
X133094824Y-83847148D01*
X133085300Y-83856672D01*
X133066253Y-83866196D01*
X133047205Y-83866196D01*
X133028158Y-83856672D01*
X133018634Y-83847148D01*
X133009110Y-83828100D01*
X132999586Y-83790005D01*
X132999586Y-83742386D01*
X133009110Y-83704291D01*
X133018634Y-83685243D01*
X133028158Y-83675720D01*
X133047205Y-83666196D01*
X133237681Y-83666196D02*
X133256729Y-83666196D01*
X133275777Y-83675720D01*
X133285300Y-83685243D01*
X133294824Y-83704291D01*
X133304348Y-83742386D01*
X133304348Y-83790005D01*
X133294824Y-83828100D01*
X133285300Y-83847148D01*
X133275777Y-83856672D01*
X133256729Y-83866196D01*
X133237681Y-83866196D01*
X133218634Y-83856672D01*
X133209110Y-83847148D01*
X133199586Y-83828100D01*
X133190062Y-83790005D01*
X133190062Y-83742386D01*
X133199586Y-83704291D01*
X133209110Y-83685243D01*
X133218634Y-83675720D01*
X133237681Y-83666196D01*
X133390062Y-83732862D02*
X133390062Y-83866196D01*
X133390062Y-83751910D02*
X133399586Y-83742386D01*
X133418634Y-83732862D01*
X133447205Y-83732862D01*
X133466253Y-83742386D01*
X133475777Y-83761434D01*
X133475777Y-83866196D01*
X133637681Y-83761434D02*
X133571015Y-83761434D01*
X133571015Y-83866196D02*
X133571015Y-83666196D01*
X133666253Y-83666196D01*
D13*
X132039520Y-83854691D02*
X132032377Y-83861834D01*
X132010948Y-83868977D01*
X131996662Y-83868977D01*
X131975234Y-83861834D01*
X131960948Y-83847548D01*
X131953805Y-83833262D01*
X131946662Y-83804691D01*
X131946662Y-83783262D01*
X131953805Y-83754691D01*
X131960948Y-83740405D01*
X131975234Y-83726120D01*
X131996662Y-83718977D01*
X132010948Y-83718977D01*
X132032377Y-83726120D01*
X132039520Y-83733262D01*
X132110948Y-83868977D02*
X132139520Y-83868977D01*
X132153805Y-83861834D01*
X132160948Y-83854691D01*
X132175234Y-83833262D01*
X132182377Y-83804691D01*
X132182377Y-83747548D01*
X132175234Y-83733262D01*
X132168091Y-83726120D01*
X132153805Y-83718977D01*
X132125234Y-83718977D01*
X132110948Y-83726120D01*
X132103805Y-83733262D01*
X132096662Y-83747548D01*
X132096662Y-83783262D01*
X132103805Y-83797548D01*
X132110948Y-83804691D01*
X132125234Y-83811834D01*
X132153805Y-83811834D01*
X132168091Y-83804691D01*
X132175234Y-83797548D01*
X132182377Y-83783262D01*
G04 #@! TO.C,C10*
D12*
X138374476Y-77369976D02*
X138260190Y-77369976D01*
X138317333Y-77369976D02*
X138317333Y-77169976D01*
X138298285Y-77198547D01*
X138279238Y-77217595D01*
X138260190Y-77227119D01*
X138498285Y-77169976D02*
X138517333Y-77169976D01*
X138536380Y-77179500D01*
X138545904Y-77189023D01*
X138555428Y-77208071D01*
X138564952Y-77246166D01*
X138564952Y-77293785D01*
X138555428Y-77331880D01*
X138545904Y-77350928D01*
X138536380Y-77360452D01*
X138517333Y-77369976D01*
X138498285Y-77369976D01*
X138479238Y-77360452D01*
X138469714Y-77350928D01*
X138460190Y-77331880D01*
X138450666Y-77293785D01*
X138450666Y-77246166D01*
X138460190Y-77208071D01*
X138469714Y-77189023D01*
X138479238Y-77179500D01*
X138498285Y-77169976D01*
X138688761Y-77169976D02*
X138707809Y-77169976D01*
X138726857Y-77179500D01*
X138736380Y-77189023D01*
X138745904Y-77208071D01*
X138755428Y-77246166D01*
X138755428Y-77293785D01*
X138745904Y-77331880D01*
X138736380Y-77350928D01*
X138726857Y-77360452D01*
X138707809Y-77369976D01*
X138688761Y-77369976D01*
X138669714Y-77360452D01*
X138660190Y-77350928D01*
X138650666Y-77331880D01*
X138641142Y-77293785D01*
X138641142Y-77246166D01*
X138650666Y-77208071D01*
X138660190Y-77189023D01*
X138669714Y-77179500D01*
X138688761Y-77169976D01*
X138841142Y-77236642D02*
X138841142Y-77369976D01*
X138841142Y-77255690D02*
X138850666Y-77246166D01*
X138869714Y-77236642D01*
X138898285Y-77236642D01*
X138917333Y-77246166D01*
X138926857Y-77265214D01*
X138926857Y-77369976D01*
X139088761Y-77265214D02*
X139022095Y-77265214D01*
X139022095Y-77369976D02*
X139022095Y-77169976D01*
X139117333Y-77169976D01*
D13*
X138643571Y-77828371D02*
X138636428Y-77835514D01*
X138615000Y-77842657D01*
X138600714Y-77842657D01*
X138579285Y-77835514D01*
X138565000Y-77821228D01*
X138557857Y-77806942D01*
X138550714Y-77778371D01*
X138550714Y-77756942D01*
X138557857Y-77728371D01*
X138565000Y-77714085D01*
X138579285Y-77699800D01*
X138600714Y-77692657D01*
X138615000Y-77692657D01*
X138636428Y-77699800D01*
X138643571Y-77706942D01*
X138786428Y-77842657D02*
X138700714Y-77842657D01*
X138743571Y-77842657D02*
X138743571Y-77692657D01*
X138729285Y-77714085D01*
X138715000Y-77728371D01*
X138700714Y-77735514D01*
X138879285Y-77692657D02*
X138893571Y-77692657D01*
X138907857Y-77699800D01*
X138915000Y-77706942D01*
X138922142Y-77721228D01*
X138929285Y-77749800D01*
X138929285Y-77785514D01*
X138922142Y-77814085D01*
X138915000Y-77828371D01*
X138907857Y-77835514D01*
X138893571Y-77842657D01*
X138879285Y-77842657D01*
X138865000Y-77835514D01*
X138857857Y-77828371D01*
X138850714Y-77814085D01*
X138843571Y-77785514D01*
X138843571Y-77749800D01*
X138850714Y-77721228D01*
X138857857Y-77706942D01*
X138865000Y-77699800D01*
X138879285Y-77692657D01*
G04 #@! TO.C,C11*
D12*
X140310476Y-81218076D02*
X140196190Y-81218076D01*
X140253333Y-81218076D02*
X140253333Y-81018076D01*
X140234285Y-81046647D01*
X140215238Y-81065695D01*
X140196190Y-81075219D01*
X140434285Y-81018076D02*
X140453333Y-81018076D01*
X140472380Y-81027600D01*
X140481904Y-81037123D01*
X140491428Y-81056171D01*
X140500952Y-81094266D01*
X140500952Y-81141885D01*
X140491428Y-81179980D01*
X140481904Y-81199028D01*
X140472380Y-81208552D01*
X140453333Y-81218076D01*
X140434285Y-81218076D01*
X140415238Y-81208552D01*
X140405714Y-81199028D01*
X140396190Y-81179980D01*
X140386666Y-81141885D01*
X140386666Y-81094266D01*
X140396190Y-81056171D01*
X140405714Y-81037123D01*
X140415238Y-81027600D01*
X140434285Y-81018076D01*
X140624761Y-81018076D02*
X140643809Y-81018076D01*
X140662857Y-81027600D01*
X140672380Y-81037123D01*
X140681904Y-81056171D01*
X140691428Y-81094266D01*
X140691428Y-81141885D01*
X140681904Y-81179980D01*
X140672380Y-81199028D01*
X140662857Y-81208552D01*
X140643809Y-81218076D01*
X140624761Y-81218076D01*
X140605714Y-81208552D01*
X140596190Y-81199028D01*
X140586666Y-81179980D01*
X140577142Y-81141885D01*
X140577142Y-81094266D01*
X140586666Y-81056171D01*
X140596190Y-81037123D01*
X140605714Y-81027600D01*
X140624761Y-81018076D01*
X140777142Y-81084742D02*
X140777142Y-81218076D01*
X140777142Y-81103790D02*
X140786666Y-81094266D01*
X140805714Y-81084742D01*
X140834285Y-81084742D01*
X140853333Y-81094266D01*
X140862857Y-81113314D01*
X140862857Y-81218076D01*
X141024761Y-81113314D02*
X140958095Y-81113314D01*
X140958095Y-81218076D02*
X140958095Y-81018076D01*
X141053333Y-81018076D01*
D13*
X140543371Y-81699331D02*
X140536228Y-81706474D01*
X140514800Y-81713617D01*
X140500514Y-81713617D01*
X140479085Y-81706474D01*
X140464800Y-81692188D01*
X140457657Y-81677902D01*
X140450514Y-81649331D01*
X140450514Y-81627902D01*
X140457657Y-81599331D01*
X140464800Y-81585045D01*
X140479085Y-81570760D01*
X140500514Y-81563617D01*
X140514800Y-81563617D01*
X140536228Y-81570760D01*
X140543371Y-81577902D01*
X140686228Y-81713617D02*
X140600514Y-81713617D01*
X140643371Y-81713617D02*
X140643371Y-81563617D01*
X140629085Y-81585045D01*
X140614800Y-81599331D01*
X140600514Y-81606474D01*
X140829085Y-81713617D02*
X140743371Y-81713617D01*
X140786228Y-81713617D02*
X140786228Y-81563617D01*
X140771942Y-81585045D01*
X140757657Y-81599331D01*
X140743371Y-81606474D01*
G04 #@! TO.C,C12*
D12*
X139529047Y-82367142D02*
X139529047Y-82500476D01*
X139481428Y-82290952D02*
X139433809Y-82433809D01*
X139557619Y-82433809D01*
X139633809Y-82481428D02*
X139643333Y-82490952D01*
X139633809Y-82500476D01*
X139624285Y-82490952D01*
X139633809Y-82481428D01*
X139633809Y-82500476D01*
X139710000Y-82300476D02*
X139843333Y-82300476D01*
X139757619Y-82500476D01*
X139919523Y-82367142D02*
X139919523Y-82567142D01*
X139919523Y-82376666D02*
X139938571Y-82367142D01*
X139976666Y-82367142D01*
X139995714Y-82376666D01*
X140005238Y-82386190D01*
X140014761Y-82405238D01*
X140014761Y-82462380D01*
X140005238Y-82481428D01*
X139995714Y-82490952D01*
X139976666Y-82500476D01*
X139938571Y-82500476D01*
X139919523Y-82490952D01*
X140167142Y-82395714D02*
X140100476Y-82395714D01*
X140100476Y-82500476D02*
X140100476Y-82300476D01*
X140195714Y-82300476D01*
D13*
X140528131Y-82466411D02*
X140520988Y-82473554D01*
X140499560Y-82480697D01*
X140485274Y-82480697D01*
X140463845Y-82473554D01*
X140449560Y-82459268D01*
X140442417Y-82444982D01*
X140435274Y-82416411D01*
X140435274Y-82394982D01*
X140442417Y-82366411D01*
X140449560Y-82352125D01*
X140463845Y-82337840D01*
X140485274Y-82330697D01*
X140499560Y-82330697D01*
X140520988Y-82337840D01*
X140528131Y-82344982D01*
X140670988Y-82480697D02*
X140585274Y-82480697D01*
X140628131Y-82480697D02*
X140628131Y-82330697D01*
X140613845Y-82352125D01*
X140599560Y-82366411D01*
X140585274Y-82373554D01*
X140728131Y-82344982D02*
X140735274Y-82337840D01*
X140749560Y-82330697D01*
X140785274Y-82330697D01*
X140799560Y-82337840D01*
X140806702Y-82344982D01*
X140813845Y-82359268D01*
X140813845Y-82373554D01*
X140806702Y-82394982D01*
X140720988Y-82480697D01*
X140813845Y-82480697D01*
G04 #@! TO.C,C13*
D12*
X134864196Y-88167516D02*
X134749910Y-88167516D01*
X134807053Y-88167516D02*
X134807053Y-87967516D01*
X134788005Y-87996087D01*
X134768958Y-88015135D01*
X134749910Y-88024659D01*
X134988005Y-87967516D02*
X135007053Y-87967516D01*
X135026100Y-87977040D01*
X135035624Y-87986563D01*
X135045148Y-88005611D01*
X135054672Y-88043706D01*
X135054672Y-88091325D01*
X135045148Y-88129420D01*
X135035624Y-88148468D01*
X135026100Y-88157992D01*
X135007053Y-88167516D01*
X134988005Y-88167516D01*
X134968958Y-88157992D01*
X134959434Y-88148468D01*
X134949910Y-88129420D01*
X134940386Y-88091325D01*
X134940386Y-88043706D01*
X134949910Y-88005611D01*
X134959434Y-87986563D01*
X134968958Y-87977040D01*
X134988005Y-87967516D01*
X135178481Y-87967516D02*
X135197529Y-87967516D01*
X135216577Y-87977040D01*
X135226100Y-87986563D01*
X135235624Y-88005611D01*
X135245148Y-88043706D01*
X135245148Y-88091325D01*
X135235624Y-88129420D01*
X135226100Y-88148468D01*
X135216577Y-88157992D01*
X135197529Y-88167516D01*
X135178481Y-88167516D01*
X135159434Y-88157992D01*
X135149910Y-88148468D01*
X135140386Y-88129420D01*
X135130862Y-88091325D01*
X135130862Y-88043706D01*
X135140386Y-88005611D01*
X135149910Y-87986563D01*
X135159434Y-87977040D01*
X135178481Y-87967516D01*
X135330862Y-88034182D02*
X135330862Y-88167516D01*
X135330862Y-88053230D02*
X135340386Y-88043706D01*
X135359434Y-88034182D01*
X135388005Y-88034182D01*
X135407053Y-88043706D01*
X135416577Y-88062754D01*
X135416577Y-88167516D01*
X135578481Y-88062754D02*
X135511815Y-88062754D01*
X135511815Y-88167516D02*
X135511815Y-87967516D01*
X135607053Y-87967516D01*
D13*
X133893651Y-88161091D02*
X133886508Y-88168234D01*
X133865080Y-88175377D01*
X133850794Y-88175377D01*
X133829365Y-88168234D01*
X133815080Y-88153948D01*
X133807937Y-88139662D01*
X133800794Y-88111091D01*
X133800794Y-88089662D01*
X133807937Y-88061091D01*
X133815080Y-88046805D01*
X133829365Y-88032520D01*
X133850794Y-88025377D01*
X133865080Y-88025377D01*
X133886508Y-88032520D01*
X133893651Y-88039662D01*
X134036508Y-88175377D02*
X133950794Y-88175377D01*
X133993651Y-88175377D02*
X133993651Y-88025377D01*
X133979365Y-88046805D01*
X133965080Y-88061091D01*
X133950794Y-88068234D01*
X134086508Y-88025377D02*
X134179365Y-88025377D01*
X134129365Y-88082520D01*
X134150794Y-88082520D01*
X134165080Y-88089662D01*
X134172222Y-88096805D01*
X134179365Y-88111091D01*
X134179365Y-88146805D01*
X134172222Y-88161091D01*
X134165080Y-88168234D01*
X134150794Y-88175377D01*
X134107937Y-88175377D01*
X134093651Y-88168234D01*
X134086508Y-88161091D01*
G04 #@! TO.C,C14*
D12*
X139456516Y-85561476D02*
X139342230Y-85561476D01*
X139399373Y-85561476D02*
X139399373Y-85361476D01*
X139380325Y-85390047D01*
X139361278Y-85409095D01*
X139342230Y-85418619D01*
X139580325Y-85361476D02*
X139599373Y-85361476D01*
X139618420Y-85371000D01*
X139627944Y-85380523D01*
X139637468Y-85399571D01*
X139646992Y-85437666D01*
X139646992Y-85485285D01*
X139637468Y-85523380D01*
X139627944Y-85542428D01*
X139618420Y-85551952D01*
X139599373Y-85561476D01*
X139580325Y-85561476D01*
X139561278Y-85551952D01*
X139551754Y-85542428D01*
X139542230Y-85523380D01*
X139532706Y-85485285D01*
X139532706Y-85437666D01*
X139542230Y-85399571D01*
X139551754Y-85380523D01*
X139561278Y-85371000D01*
X139580325Y-85361476D01*
X139770801Y-85361476D02*
X139789849Y-85361476D01*
X139808897Y-85371000D01*
X139818420Y-85380523D01*
X139827944Y-85399571D01*
X139837468Y-85437666D01*
X139837468Y-85485285D01*
X139827944Y-85523380D01*
X139818420Y-85542428D01*
X139808897Y-85551952D01*
X139789849Y-85561476D01*
X139770801Y-85561476D01*
X139751754Y-85551952D01*
X139742230Y-85542428D01*
X139732706Y-85523380D01*
X139723182Y-85485285D01*
X139723182Y-85437666D01*
X139732706Y-85399571D01*
X139742230Y-85380523D01*
X139751754Y-85371000D01*
X139770801Y-85361476D01*
X139923182Y-85428142D02*
X139923182Y-85561476D01*
X139923182Y-85447190D02*
X139932706Y-85437666D01*
X139951754Y-85428142D01*
X139980325Y-85428142D01*
X139999373Y-85437666D01*
X140008897Y-85456714D01*
X140008897Y-85561476D01*
X140170801Y-85456714D02*
X140104135Y-85456714D01*
X140104135Y-85561476D02*
X140104135Y-85361476D01*
X140199373Y-85361476D01*
D13*
X140843091Y-85514411D02*
X140835948Y-85521554D01*
X140814520Y-85528697D01*
X140800234Y-85528697D01*
X140778805Y-85521554D01*
X140764520Y-85507268D01*
X140757377Y-85492982D01*
X140750234Y-85464411D01*
X140750234Y-85442982D01*
X140757377Y-85414411D01*
X140764520Y-85400125D01*
X140778805Y-85385840D01*
X140800234Y-85378697D01*
X140814520Y-85378697D01*
X140835948Y-85385840D01*
X140843091Y-85392982D01*
X140985948Y-85528697D02*
X140900234Y-85528697D01*
X140943091Y-85528697D02*
X140943091Y-85378697D01*
X140928805Y-85400125D01*
X140914520Y-85414411D01*
X140900234Y-85421554D01*
X141114520Y-85428697D02*
X141114520Y-85528697D01*
X141078805Y-85371554D02*
X141043091Y-85478697D01*
X141135948Y-85478697D01*
G04 #@! TO.C,C15*
D12*
X136662516Y-88182756D02*
X136548230Y-88182756D01*
X136605373Y-88182756D02*
X136605373Y-87982756D01*
X136586325Y-88011327D01*
X136567278Y-88030375D01*
X136548230Y-88039899D01*
X136786325Y-87982756D02*
X136805373Y-87982756D01*
X136824420Y-87992280D01*
X136833944Y-88001803D01*
X136843468Y-88020851D01*
X136852992Y-88058946D01*
X136852992Y-88106565D01*
X136843468Y-88144660D01*
X136833944Y-88163708D01*
X136824420Y-88173232D01*
X136805373Y-88182756D01*
X136786325Y-88182756D01*
X136767278Y-88173232D01*
X136757754Y-88163708D01*
X136748230Y-88144660D01*
X136738706Y-88106565D01*
X136738706Y-88058946D01*
X136748230Y-88020851D01*
X136757754Y-88001803D01*
X136767278Y-87992280D01*
X136786325Y-87982756D01*
X136976801Y-87982756D02*
X136995849Y-87982756D01*
X137014897Y-87992280D01*
X137024420Y-88001803D01*
X137033944Y-88020851D01*
X137043468Y-88058946D01*
X137043468Y-88106565D01*
X137033944Y-88144660D01*
X137024420Y-88163708D01*
X137014897Y-88173232D01*
X136995849Y-88182756D01*
X136976801Y-88182756D01*
X136957754Y-88173232D01*
X136948230Y-88163708D01*
X136938706Y-88144660D01*
X136929182Y-88106565D01*
X136929182Y-88058946D01*
X136938706Y-88020851D01*
X136948230Y-88001803D01*
X136957754Y-87992280D01*
X136976801Y-87982756D01*
X137129182Y-88049422D02*
X137129182Y-88182756D01*
X137129182Y-88068470D02*
X137138706Y-88058946D01*
X137157754Y-88049422D01*
X137186325Y-88049422D01*
X137205373Y-88058946D01*
X137214897Y-88077994D01*
X137214897Y-88182756D01*
X137376801Y-88077994D02*
X137310135Y-88077994D01*
X137310135Y-88182756D02*
X137310135Y-87982756D01*
X137405373Y-87982756D01*
D13*
X138069411Y-88150931D02*
X138062268Y-88158074D01*
X138040840Y-88165217D01*
X138026554Y-88165217D01*
X138005125Y-88158074D01*
X137990840Y-88143788D01*
X137983697Y-88129502D01*
X137976554Y-88100931D01*
X137976554Y-88079502D01*
X137983697Y-88050931D01*
X137990840Y-88036645D01*
X138005125Y-88022360D01*
X138026554Y-88015217D01*
X138040840Y-88015217D01*
X138062268Y-88022360D01*
X138069411Y-88029502D01*
X138212268Y-88165217D02*
X138126554Y-88165217D01*
X138169411Y-88165217D02*
X138169411Y-88015217D01*
X138155125Y-88036645D01*
X138140840Y-88050931D01*
X138126554Y-88058074D01*
X138347982Y-88015217D02*
X138276554Y-88015217D01*
X138269411Y-88086645D01*
X138276554Y-88079502D01*
X138290840Y-88072360D01*
X138326554Y-88072360D01*
X138340840Y-88079502D01*
X138347982Y-88086645D01*
X138355125Y-88100931D01*
X138355125Y-88136645D01*
X138347982Y-88150931D01*
X138340840Y-88158074D01*
X138326554Y-88165217D01*
X138290840Y-88165217D01*
X138276554Y-88158074D01*
X138269411Y-88150931D01*
G04 #@! TO.C,C16*
D12*
X135843316Y-74657868D02*
X135643316Y-74657868D01*
X135643316Y-74610249D01*
X135652840Y-74581678D01*
X135671887Y-74562630D01*
X135690935Y-74553106D01*
X135729030Y-74543582D01*
X135757601Y-74543582D01*
X135795697Y-74553106D01*
X135814744Y-74562630D01*
X135833792Y-74581678D01*
X135843316Y-74610249D01*
X135843316Y-74657868D01*
X135843316Y-74457868D02*
X135643316Y-74457868D01*
X135843316Y-74343582D01*
X135643316Y-74343582D01*
X135843316Y-74248344D02*
X135643316Y-74248344D01*
X135786173Y-74181678D01*
X135643316Y-74115011D01*
X135843316Y-74115011D01*
D13*
X135138251Y-74462871D02*
X135131108Y-74470014D01*
X135109680Y-74477157D01*
X135095394Y-74477157D01*
X135073965Y-74470014D01*
X135059680Y-74455728D01*
X135052537Y-74441442D01*
X135045394Y-74412871D01*
X135045394Y-74391442D01*
X135052537Y-74362871D01*
X135059680Y-74348585D01*
X135073965Y-74334300D01*
X135095394Y-74327157D01*
X135109680Y-74327157D01*
X135131108Y-74334300D01*
X135138251Y-74341442D01*
X135281108Y-74477157D02*
X135195394Y-74477157D01*
X135238251Y-74477157D02*
X135238251Y-74327157D01*
X135223965Y-74348585D01*
X135209680Y-74362871D01*
X135195394Y-74370014D01*
X135409680Y-74327157D02*
X135381108Y-74327157D01*
X135366822Y-74334300D01*
X135359680Y-74341442D01*
X135345394Y-74362871D01*
X135338251Y-74391442D01*
X135338251Y-74448585D01*
X135345394Y-74462871D01*
X135352537Y-74470014D01*
X135366822Y-74477157D01*
X135395394Y-74477157D01*
X135409680Y-74470014D01*
X135416822Y-74462871D01*
X135423965Y-74448585D01*
X135423965Y-74412871D01*
X135416822Y-74398585D01*
X135409680Y-74391442D01*
X135395394Y-74384300D01*
X135366822Y-74384300D01*
X135352537Y-74391442D01*
X135345394Y-74398585D01*
X135338251Y-74412871D01*
G04 #@! TO.C,C17*
D12*
X133059476Y-77445525D02*
X133059476Y-77559811D01*
X133059476Y-77502668D02*
X132859476Y-77502668D01*
X132888047Y-77521716D01*
X132907095Y-77540763D01*
X132916619Y-77559811D01*
X132945190Y-77331240D02*
X132935666Y-77350287D01*
X132926142Y-77359811D01*
X132907095Y-77369335D01*
X132897571Y-77369335D01*
X132878523Y-77359811D01*
X132869000Y-77350287D01*
X132859476Y-77331240D01*
X132859476Y-77293144D01*
X132869000Y-77274097D01*
X132878523Y-77264573D01*
X132897571Y-77255049D01*
X132907095Y-77255049D01*
X132926142Y-77264573D01*
X132935666Y-77274097D01*
X132945190Y-77293144D01*
X132945190Y-77331240D01*
X132954714Y-77350287D01*
X132964238Y-77359811D01*
X132983285Y-77369335D01*
X133021380Y-77369335D01*
X133040428Y-77359811D01*
X133049952Y-77350287D01*
X133059476Y-77331240D01*
X133059476Y-77293144D01*
X133049952Y-77274097D01*
X133040428Y-77264573D01*
X133021380Y-77255049D01*
X132983285Y-77255049D01*
X132964238Y-77264573D01*
X132954714Y-77274097D01*
X132945190Y-77293144D01*
X132926142Y-77169335D02*
X133126142Y-77169335D01*
X132935666Y-77169335D02*
X132926142Y-77150287D01*
X132926142Y-77112192D01*
X132935666Y-77093144D01*
X132945190Y-77083620D01*
X132964238Y-77074097D01*
X133021380Y-77074097D01*
X133040428Y-77083620D01*
X133049952Y-77093144D01*
X133059476Y-77112192D01*
X133059476Y-77150287D01*
X133049952Y-77169335D01*
X132954714Y-76921716D02*
X132954714Y-76988382D01*
X133059476Y-76988382D02*
X132859476Y-76988382D01*
X132859476Y-76893144D01*
D13*
X133596611Y-77327668D02*
X133603754Y-77334811D01*
X133610897Y-77356240D01*
X133610897Y-77370525D01*
X133603754Y-77391954D01*
X133589468Y-77406240D01*
X133575182Y-77413382D01*
X133546611Y-77420525D01*
X133525182Y-77420525D01*
X133496611Y-77413382D01*
X133482325Y-77406240D01*
X133468040Y-77391954D01*
X133460897Y-77370525D01*
X133460897Y-77356240D01*
X133468040Y-77334811D01*
X133475182Y-77327668D01*
X133610897Y-77184811D02*
X133610897Y-77270525D01*
X133610897Y-77227668D02*
X133460897Y-77227668D01*
X133482325Y-77241954D01*
X133496611Y-77256240D01*
X133503754Y-77270525D01*
X133460897Y-77134811D02*
X133460897Y-77034811D01*
X133610897Y-77099097D01*
G04 #@! TO.C,C18*
D12*
X131694285Y-78185976D02*
X131818095Y-78185976D01*
X131751428Y-78262166D01*
X131780000Y-78262166D01*
X131799047Y-78271690D01*
X131808571Y-78281214D01*
X131818095Y-78300261D01*
X131818095Y-78347880D01*
X131808571Y-78366928D01*
X131799047Y-78376452D01*
X131780000Y-78385976D01*
X131722857Y-78385976D01*
X131703809Y-78376452D01*
X131694285Y-78366928D01*
X131903809Y-78366928D02*
X131913333Y-78376452D01*
X131903809Y-78385976D01*
X131894285Y-78376452D01*
X131903809Y-78366928D01*
X131903809Y-78385976D01*
X132008571Y-78385976D02*
X132046666Y-78385976D01*
X132065714Y-78376452D01*
X132075238Y-78366928D01*
X132094285Y-78338357D01*
X132103809Y-78300261D01*
X132103809Y-78224071D01*
X132094285Y-78205023D01*
X132084761Y-78195500D01*
X132065714Y-78185976D01*
X132027619Y-78185976D01*
X132008571Y-78195500D01*
X131999047Y-78205023D01*
X131989523Y-78224071D01*
X131989523Y-78271690D01*
X131999047Y-78290738D01*
X132008571Y-78300261D01*
X132027619Y-78309785D01*
X132065714Y-78309785D01*
X132084761Y-78300261D01*
X132094285Y-78290738D01*
X132103809Y-78271690D01*
X132189523Y-78252642D02*
X132189523Y-78452642D01*
X132189523Y-78262166D02*
X132208571Y-78252642D01*
X132246666Y-78252642D01*
X132265714Y-78262166D01*
X132275238Y-78271690D01*
X132284761Y-78290738D01*
X132284761Y-78347880D01*
X132275238Y-78366928D01*
X132265714Y-78376452D01*
X132246666Y-78385976D01*
X132208571Y-78385976D01*
X132189523Y-78376452D01*
X132437142Y-78281214D02*
X132370476Y-78281214D01*
X132370476Y-78385976D02*
X132370476Y-78185976D01*
X132465714Y-78185976D01*
D13*
X133075771Y-78313511D02*
X133068628Y-78320654D01*
X133047200Y-78327797D01*
X133032914Y-78327797D01*
X133011485Y-78320654D01*
X132997200Y-78306368D01*
X132990057Y-78292082D01*
X132982914Y-78263511D01*
X132982914Y-78242082D01*
X132990057Y-78213511D01*
X132997200Y-78199225D01*
X133011485Y-78184940D01*
X133032914Y-78177797D01*
X133047200Y-78177797D01*
X133068628Y-78184940D01*
X133075771Y-78192082D01*
X133218628Y-78327797D02*
X133132914Y-78327797D01*
X133175771Y-78327797D02*
X133175771Y-78177797D01*
X133161485Y-78199225D01*
X133147200Y-78213511D01*
X133132914Y-78220654D01*
X133304342Y-78242082D02*
X133290057Y-78234940D01*
X133282914Y-78227797D01*
X133275771Y-78213511D01*
X133275771Y-78206368D01*
X133282914Y-78192082D01*
X133290057Y-78184940D01*
X133304342Y-78177797D01*
X133332914Y-78177797D01*
X133347200Y-78184940D01*
X133354342Y-78192082D01*
X133361485Y-78206368D01*
X133361485Y-78213511D01*
X133354342Y-78227797D01*
X133347200Y-78234940D01*
X133332914Y-78242082D01*
X133304342Y-78242082D01*
X133290057Y-78249225D01*
X133282914Y-78256368D01*
X133275771Y-78270654D01*
X133275771Y-78299225D01*
X133282914Y-78313511D01*
X133290057Y-78320654D01*
X133304342Y-78327797D01*
X133332914Y-78327797D01*
X133347200Y-78320654D01*
X133354342Y-78313511D01*
X133361485Y-78299225D01*
X133361485Y-78270654D01*
X133354342Y-78256368D01*
X133347200Y-78249225D01*
X133332914Y-78242082D01*
G04 #@! TO.C,C19*
D12*
X131694285Y-76026976D02*
X131818095Y-76026976D01*
X131751428Y-76103166D01*
X131780000Y-76103166D01*
X131799047Y-76112690D01*
X131808571Y-76122214D01*
X131818095Y-76141261D01*
X131818095Y-76188880D01*
X131808571Y-76207928D01*
X131799047Y-76217452D01*
X131780000Y-76226976D01*
X131722857Y-76226976D01*
X131703809Y-76217452D01*
X131694285Y-76207928D01*
X131903809Y-76207928D02*
X131913333Y-76217452D01*
X131903809Y-76226976D01*
X131894285Y-76217452D01*
X131903809Y-76207928D01*
X131903809Y-76226976D01*
X131980000Y-76026976D02*
X132103809Y-76026976D01*
X132037142Y-76103166D01*
X132065714Y-76103166D01*
X132084761Y-76112690D01*
X132094285Y-76122214D01*
X132103809Y-76141261D01*
X132103809Y-76188880D01*
X132094285Y-76207928D01*
X132084761Y-76217452D01*
X132065714Y-76226976D01*
X132008571Y-76226976D01*
X131989523Y-76217452D01*
X131980000Y-76207928D01*
X132189523Y-76093642D02*
X132189523Y-76293642D01*
X132189523Y-76103166D02*
X132208571Y-76093642D01*
X132246666Y-76093642D01*
X132265714Y-76103166D01*
X132275238Y-76112690D01*
X132284761Y-76131738D01*
X132284761Y-76188880D01*
X132275238Y-76207928D01*
X132265714Y-76217452D01*
X132246666Y-76226976D01*
X132208571Y-76226976D01*
X132189523Y-76217452D01*
X132437142Y-76122214D02*
X132370476Y-76122214D01*
X132370476Y-76226976D02*
X132370476Y-76026976D01*
X132465714Y-76026976D01*
D13*
X133063071Y-76131651D02*
X133055928Y-76138794D01*
X133034500Y-76145937D01*
X133020214Y-76145937D01*
X132998785Y-76138794D01*
X132984500Y-76124508D01*
X132977357Y-76110222D01*
X132970214Y-76081651D01*
X132970214Y-76060222D01*
X132977357Y-76031651D01*
X132984500Y-76017365D01*
X132998785Y-76003080D01*
X133020214Y-75995937D01*
X133034500Y-75995937D01*
X133055928Y-76003080D01*
X133063071Y-76010222D01*
X133205928Y-76145937D02*
X133120214Y-76145937D01*
X133163071Y-76145937D02*
X133163071Y-75995937D01*
X133148785Y-76017365D01*
X133134500Y-76031651D01*
X133120214Y-76038794D01*
X133277357Y-76145937D02*
X133305928Y-76145937D01*
X133320214Y-76138794D01*
X133327357Y-76131651D01*
X133341642Y-76110222D01*
X133348785Y-76081651D01*
X133348785Y-76024508D01*
X133341642Y-76010222D01*
X133334500Y-76003080D01*
X133320214Y-75995937D01*
X133291642Y-75995937D01*
X133277357Y-76003080D01*
X133270214Y-76010222D01*
X133263071Y-76024508D01*
X133263071Y-76060222D01*
X133270214Y-76074508D01*
X133277357Y-76081651D01*
X133291642Y-76088794D01*
X133320214Y-76088794D01*
X133334500Y-76081651D01*
X133341642Y-76074508D01*
X133348785Y-76060222D01*
G04 #@! TO.C,C20*
D12*
X132380071Y-74248976D02*
X132284833Y-74248976D01*
X132275309Y-74344214D01*
X132284833Y-74334690D01*
X132303880Y-74325166D01*
X132351500Y-74325166D01*
X132370547Y-74334690D01*
X132380071Y-74344214D01*
X132389595Y-74363261D01*
X132389595Y-74410880D01*
X132380071Y-74429928D01*
X132370547Y-74439452D01*
X132351500Y-74448976D01*
X132303880Y-74448976D01*
X132284833Y-74439452D01*
X132275309Y-74429928D01*
X132475309Y-74429928D02*
X132484833Y-74439452D01*
X132475309Y-74448976D01*
X132465785Y-74439452D01*
X132475309Y-74429928D01*
X132475309Y-74448976D01*
X132656261Y-74248976D02*
X132618166Y-74248976D01*
X132599119Y-74258500D01*
X132589595Y-74268023D01*
X132570547Y-74296595D01*
X132561023Y-74334690D01*
X132561023Y-74410880D01*
X132570547Y-74429928D01*
X132580071Y-74439452D01*
X132599119Y-74448976D01*
X132637214Y-74448976D01*
X132656261Y-74439452D01*
X132665785Y-74429928D01*
X132675309Y-74410880D01*
X132675309Y-74363261D01*
X132665785Y-74344214D01*
X132656261Y-74334690D01*
X132637214Y-74325166D01*
X132599119Y-74325166D01*
X132580071Y-74334690D01*
X132570547Y-74344214D01*
X132561023Y-74363261D01*
X132761023Y-74315642D02*
X132761023Y-74515642D01*
X132761023Y-74325166D02*
X132780071Y-74315642D01*
X132818166Y-74315642D01*
X132837214Y-74325166D01*
X132846738Y-74334690D01*
X132856261Y-74353738D01*
X132856261Y-74410880D01*
X132846738Y-74429928D01*
X132837214Y-74439452D01*
X132818166Y-74448976D01*
X132780071Y-74448976D01*
X132761023Y-74439452D01*
X133008642Y-74344214D02*
X132941976Y-74344214D01*
X132941976Y-74448976D02*
X132941976Y-74248976D01*
X133037214Y-74248976D01*
D13*
X133741251Y-74462871D02*
X133734108Y-74470014D01*
X133712680Y-74477157D01*
X133698394Y-74477157D01*
X133676965Y-74470014D01*
X133662680Y-74455728D01*
X133655537Y-74441442D01*
X133648394Y-74412871D01*
X133648394Y-74391442D01*
X133655537Y-74362871D01*
X133662680Y-74348585D01*
X133676965Y-74334300D01*
X133698394Y-74327157D01*
X133712680Y-74327157D01*
X133734108Y-74334300D01*
X133741251Y-74341442D01*
X133798394Y-74341442D02*
X133805537Y-74334300D01*
X133819822Y-74327157D01*
X133855537Y-74327157D01*
X133869822Y-74334300D01*
X133876965Y-74341442D01*
X133884108Y-74355728D01*
X133884108Y-74370014D01*
X133876965Y-74391442D01*
X133791251Y-74477157D01*
X133884108Y-74477157D01*
X133976965Y-74327157D02*
X133991251Y-74327157D01*
X134005537Y-74334300D01*
X134012680Y-74341442D01*
X134019822Y-74355728D01*
X134026965Y-74384300D01*
X134026965Y-74420014D01*
X134019822Y-74448585D01*
X134012680Y-74462871D01*
X134005537Y-74470014D01*
X133991251Y-74477157D01*
X133976965Y-74477157D01*
X133962680Y-74470014D01*
X133955537Y-74462871D01*
X133948394Y-74448585D01*
X133941251Y-74420014D01*
X133941251Y-74384300D01*
X133948394Y-74355728D01*
X133955537Y-74341442D01*
X133962680Y-74334300D01*
X133976965Y-74327157D01*
G04 #@! TO.C,C21*
D12*
X136075785Y-73804476D02*
X136199595Y-73804476D01*
X136132928Y-73880666D01*
X136161500Y-73880666D01*
X136180547Y-73890190D01*
X136190071Y-73899714D01*
X136199595Y-73918761D01*
X136199595Y-73966380D01*
X136190071Y-73985428D01*
X136180547Y-73994952D01*
X136161500Y-74004476D01*
X136104357Y-74004476D01*
X136085309Y-73994952D01*
X136075785Y-73985428D01*
X136285309Y-73985428D02*
X136294833Y-73994952D01*
X136285309Y-74004476D01*
X136275785Y-73994952D01*
X136285309Y-73985428D01*
X136285309Y-74004476D01*
X136361500Y-73804476D02*
X136485309Y-73804476D01*
X136418642Y-73880666D01*
X136447214Y-73880666D01*
X136466261Y-73890190D01*
X136475785Y-73899714D01*
X136485309Y-73918761D01*
X136485309Y-73966380D01*
X136475785Y-73985428D01*
X136466261Y-73994952D01*
X136447214Y-74004476D01*
X136390071Y-74004476D01*
X136371023Y-73994952D01*
X136361500Y-73985428D01*
X136571023Y-73871142D02*
X136571023Y-74071142D01*
X136571023Y-73880666D02*
X136590071Y-73871142D01*
X136628166Y-73871142D01*
X136647214Y-73880666D01*
X136656738Y-73890190D01*
X136666261Y-73909238D01*
X136666261Y-73966380D01*
X136656738Y-73985428D01*
X136647214Y-73994952D01*
X136628166Y-74004476D01*
X136590071Y-74004476D01*
X136571023Y-73994952D01*
X136818642Y-73899714D02*
X136751976Y-73899714D01*
X136751976Y-74004476D02*
X136751976Y-73804476D01*
X136847214Y-73804476D01*
D13*
X136355051Y-74861328D02*
X136362194Y-74868471D01*
X136369337Y-74889900D01*
X136369337Y-74904185D01*
X136362194Y-74925614D01*
X136347908Y-74939900D01*
X136333622Y-74947042D01*
X136305051Y-74954185D01*
X136283622Y-74954185D01*
X136255051Y-74947042D01*
X136240765Y-74939900D01*
X136226480Y-74925614D01*
X136219337Y-74904185D01*
X136219337Y-74889900D01*
X136226480Y-74868471D01*
X136233622Y-74861328D01*
X136233622Y-74804185D02*
X136226480Y-74797042D01*
X136219337Y-74782757D01*
X136219337Y-74747042D01*
X136226480Y-74732757D01*
X136233622Y-74725614D01*
X136247908Y-74718471D01*
X136262194Y-74718471D01*
X136283622Y-74725614D01*
X136369337Y-74811328D01*
X136369337Y-74718471D01*
X136369337Y-74575614D02*
X136369337Y-74661328D01*
X136369337Y-74618471D02*
X136219337Y-74618471D01*
X136240765Y-74632757D01*
X136255051Y-74647042D01*
X136262194Y-74661328D01*
G04 #@! TO.C,C22*
D12*
X141866942Y-76453653D02*
X142000276Y-76453653D01*
X141790752Y-76501272D02*
X141933609Y-76548891D01*
X141933609Y-76425081D01*
X141800276Y-76367939D02*
X141800276Y-76234605D01*
X142000276Y-76320320D01*
X141866942Y-76158415D02*
X142066942Y-76158415D01*
X141876466Y-76158415D02*
X141866942Y-76139367D01*
X141866942Y-76101272D01*
X141876466Y-76082224D01*
X141885990Y-76072700D01*
X141905038Y-76063177D01*
X141962180Y-76063177D01*
X141981228Y-76072700D01*
X141990752Y-76082224D01*
X142000276Y-76101272D01*
X142000276Y-76139367D01*
X141990752Y-76158415D01*
X141895514Y-75910796D02*
X141895514Y-75977462D01*
X142000276Y-75977462D02*
X141800276Y-75977462D01*
X141800276Y-75882224D01*
D13*
X141440131Y-76291348D02*
X141447274Y-76298491D01*
X141454417Y-76319920D01*
X141454417Y-76334205D01*
X141447274Y-76355634D01*
X141432988Y-76369920D01*
X141418702Y-76377062D01*
X141390131Y-76384205D01*
X141368702Y-76384205D01*
X141340131Y-76377062D01*
X141325845Y-76369920D01*
X141311560Y-76355634D01*
X141304417Y-76334205D01*
X141304417Y-76319920D01*
X141311560Y-76298491D01*
X141318702Y-76291348D01*
X141318702Y-76234205D02*
X141311560Y-76227062D01*
X141304417Y-76212777D01*
X141304417Y-76177062D01*
X141311560Y-76162777D01*
X141318702Y-76155634D01*
X141332988Y-76148491D01*
X141347274Y-76148491D01*
X141368702Y-76155634D01*
X141454417Y-76241348D01*
X141454417Y-76148491D01*
X141318702Y-76091348D02*
X141311560Y-76084205D01*
X141304417Y-76069920D01*
X141304417Y-76034205D01*
X141311560Y-76019920D01*
X141318702Y-76012777D01*
X141332988Y-76005634D01*
X141347274Y-76005634D01*
X141368702Y-76012777D01*
X141454417Y-76098491D01*
X141454417Y-76005634D01*
G04 #@! TO.C,C23*
D12*
X141098169Y-78384616D02*
X141111638Y-78384616D01*
X141131841Y-78391351D01*
X141165512Y-78425022D01*
X141172247Y-78445225D01*
X141172247Y-78458694D01*
X141165512Y-78478897D01*
X141152044Y-78492366D01*
X141125106Y-78505835D01*
X140963482Y-78505835D01*
X141051029Y-78593381D01*
X141125106Y-78640522D02*
X141125106Y-78653990D01*
X141111638Y-78653990D01*
X141111638Y-78640522D01*
X141125106Y-78640522D01*
X141111638Y-78653990D01*
X141306934Y-78566444D02*
X141401215Y-78660725D01*
X141199184Y-78741537D01*
X141407949Y-78761740D02*
X141266528Y-78903161D01*
X141401215Y-78768474D02*
X141421418Y-78775209D01*
X141448355Y-78802146D01*
X141455090Y-78822349D01*
X141455090Y-78835818D01*
X141448355Y-78856021D01*
X141407949Y-78896427D01*
X141387746Y-78903161D01*
X141374277Y-78903161D01*
X141354074Y-78896427D01*
X141327137Y-78869490D01*
X141320403Y-78849287D01*
X141562839Y-78957036D02*
X141515699Y-78909896D01*
X141441621Y-78983974D02*
X141583042Y-78842552D01*
X141650386Y-78909896D01*
D13*
X140813133Y-79014495D02*
X140803032Y-79014495D01*
X140782829Y-79004393D01*
X140772727Y-78994292D01*
X140762626Y-78974089D01*
X140762626Y-78953886D01*
X140767677Y-78938733D01*
X140782829Y-78913480D01*
X140797981Y-78898327D01*
X140823235Y-78883175D01*
X140838387Y-78878124D01*
X140858590Y-78878124D01*
X140878793Y-78888226D01*
X140888895Y-78898327D01*
X140898996Y-78918530D01*
X140898996Y-78928632D01*
X140939403Y-78969038D02*
X140949504Y-78969038D01*
X140964656Y-78974089D01*
X140989910Y-78999343D01*
X140994961Y-79014495D01*
X140994961Y-79024596D01*
X140989910Y-79039749D01*
X140979809Y-79049850D01*
X140959606Y-79059952D01*
X140838387Y-79059952D01*
X140904047Y-79125612D01*
X141045469Y-79054901D02*
X141111128Y-79120561D01*
X141035367Y-79125612D01*
X141050519Y-79140764D01*
X141055570Y-79155916D01*
X141055570Y-79166018D01*
X141050519Y-79181170D01*
X141025266Y-79206424D01*
X141010113Y-79211475D01*
X141000012Y-79211475D01*
X140984859Y-79206424D01*
X140954555Y-79176119D01*
X140949504Y-79160967D01*
X140949504Y-79150866D01*
G04 #@! TO.C,C24*
D12*
X136253571Y-79709316D02*
X136253571Y-79509316D01*
X136301190Y-79509316D01*
X136329761Y-79518840D01*
X136348809Y-79537887D01*
X136358333Y-79556935D01*
X136367857Y-79595030D01*
X136367857Y-79623601D01*
X136358333Y-79661697D01*
X136348809Y-79680744D01*
X136329761Y-79699792D01*
X136301190Y-79709316D01*
X136253571Y-79709316D01*
X136453571Y-79709316D02*
X136453571Y-79509316D01*
X136567857Y-79709316D01*
X136567857Y-79509316D01*
X136663095Y-79709316D02*
X136663095Y-79509316D01*
X136729761Y-79652173D01*
X136796428Y-79509316D01*
X136796428Y-79709316D01*
D13*
X136589971Y-80178328D02*
X136597114Y-80185471D01*
X136604257Y-80206900D01*
X136604257Y-80221185D01*
X136597114Y-80242614D01*
X136582828Y-80256900D01*
X136568542Y-80264042D01*
X136539971Y-80271185D01*
X136518542Y-80271185D01*
X136489971Y-80264042D01*
X136475685Y-80256900D01*
X136461400Y-80242614D01*
X136454257Y-80221185D01*
X136454257Y-80206900D01*
X136461400Y-80185471D01*
X136468542Y-80178328D01*
X136468542Y-80121185D02*
X136461400Y-80114042D01*
X136454257Y-80099757D01*
X136454257Y-80064042D01*
X136461400Y-80049757D01*
X136468542Y-80042614D01*
X136482828Y-80035471D01*
X136497114Y-80035471D01*
X136518542Y-80042614D01*
X136604257Y-80128328D01*
X136604257Y-80035471D01*
X136504257Y-79906900D02*
X136604257Y-79906900D01*
X136447114Y-79942614D02*
X136554257Y-79978328D01*
X136554257Y-79885471D01*
G04 #@! TO.C,C25*
D12*
X135558247Y-80962822D02*
X135558247Y-81096156D01*
X135510628Y-80886632D02*
X135463009Y-81029489D01*
X135586819Y-81029489D01*
X135663009Y-81077108D02*
X135672533Y-81086632D01*
X135663009Y-81096156D01*
X135653485Y-81086632D01*
X135663009Y-81077108D01*
X135663009Y-81096156D01*
X135739200Y-80896156D02*
X135872533Y-80896156D01*
X135786819Y-81096156D01*
X135948723Y-80962822D02*
X135948723Y-81096156D01*
X135948723Y-80981870D02*
X135958247Y-80972346D01*
X135977295Y-80962822D01*
X136005866Y-80962822D01*
X136024914Y-80972346D01*
X136034438Y-80991394D01*
X136034438Y-81096156D01*
X136196342Y-80991394D02*
X136129676Y-80991394D01*
X136129676Y-81096156D02*
X136129676Y-80896156D01*
X136224914Y-80896156D01*
D13*
X135878771Y-80203728D02*
X135885914Y-80210871D01*
X135893057Y-80232300D01*
X135893057Y-80246585D01*
X135885914Y-80268014D01*
X135871628Y-80282300D01*
X135857342Y-80289442D01*
X135828771Y-80296585D01*
X135807342Y-80296585D01*
X135778771Y-80289442D01*
X135764485Y-80282300D01*
X135750200Y-80268014D01*
X135743057Y-80246585D01*
X135743057Y-80232300D01*
X135750200Y-80210871D01*
X135757342Y-80203728D01*
X135757342Y-80146585D02*
X135750200Y-80139442D01*
X135743057Y-80125157D01*
X135743057Y-80089442D01*
X135750200Y-80075157D01*
X135757342Y-80068014D01*
X135771628Y-80060871D01*
X135785914Y-80060871D01*
X135807342Y-80068014D01*
X135893057Y-80153728D01*
X135893057Y-80060871D01*
X135743057Y-79925157D02*
X135743057Y-79996585D01*
X135814485Y-80003728D01*
X135807342Y-79996585D01*
X135800200Y-79982300D01*
X135800200Y-79946585D01*
X135807342Y-79932300D01*
X135814485Y-79925157D01*
X135828771Y-79918014D01*
X135864485Y-79918014D01*
X135878771Y-79925157D01*
X135885914Y-79932300D01*
X135893057Y-79946585D01*
X135893057Y-79982300D01*
X135885914Y-79996585D01*
X135878771Y-80003728D01*
G04 #@! TO.C,C26*
D12*
X134186011Y-78225956D02*
X134186011Y-78025956D01*
X134233630Y-78025956D01*
X134262201Y-78035480D01*
X134281249Y-78054527D01*
X134290773Y-78073575D01*
X134300297Y-78111670D01*
X134300297Y-78140241D01*
X134290773Y-78178337D01*
X134281249Y-78197384D01*
X134262201Y-78216432D01*
X134233630Y-78225956D01*
X134186011Y-78225956D01*
X134386011Y-78225956D02*
X134386011Y-78025956D01*
X134500297Y-78225956D01*
X134500297Y-78025956D01*
X134595535Y-78225956D02*
X134595535Y-78025956D01*
X134662201Y-78168813D01*
X134728868Y-78025956D01*
X134728868Y-78225956D01*
D13*
X134521171Y-78739908D02*
X134528314Y-78747051D01*
X134535457Y-78768480D01*
X134535457Y-78782765D01*
X134528314Y-78804194D01*
X134514028Y-78818480D01*
X134499742Y-78825622D01*
X134471171Y-78832765D01*
X134449742Y-78832765D01*
X134421171Y-78825622D01*
X134406885Y-78818480D01*
X134392600Y-78804194D01*
X134385457Y-78782765D01*
X134385457Y-78768480D01*
X134392600Y-78747051D01*
X134399742Y-78739908D01*
X134399742Y-78682765D02*
X134392600Y-78675622D01*
X134385457Y-78661337D01*
X134385457Y-78625622D01*
X134392600Y-78611337D01*
X134399742Y-78604194D01*
X134414028Y-78597051D01*
X134428314Y-78597051D01*
X134449742Y-78604194D01*
X134535457Y-78689908D01*
X134535457Y-78597051D01*
X134385457Y-78468480D02*
X134385457Y-78497051D01*
X134392600Y-78511337D01*
X134399742Y-78518480D01*
X134421171Y-78532765D01*
X134449742Y-78539908D01*
X134506885Y-78539908D01*
X134521171Y-78532765D01*
X134528314Y-78525622D01*
X134535457Y-78511337D01*
X134535457Y-78482765D01*
X134528314Y-78468480D01*
X134521171Y-78461337D01*
X134506885Y-78454194D01*
X134471171Y-78454194D01*
X134456885Y-78461337D01*
X134449742Y-78468480D01*
X134442600Y-78482765D01*
X134442600Y-78511337D01*
X134449742Y-78525622D01*
X134456885Y-78532765D01*
X134471171Y-78539908D01*
G04 #@! TO.C,C27*
D12*
X134186011Y-76844196D02*
X134186011Y-76644196D01*
X134233630Y-76644196D01*
X134262201Y-76653720D01*
X134281249Y-76672767D01*
X134290773Y-76691815D01*
X134300297Y-76729910D01*
X134300297Y-76758481D01*
X134290773Y-76796577D01*
X134281249Y-76815624D01*
X134262201Y-76834672D01*
X134233630Y-76844196D01*
X134186011Y-76844196D01*
X134386011Y-76844196D02*
X134386011Y-76644196D01*
X134500297Y-76844196D01*
X134500297Y-76644196D01*
X134595535Y-76844196D02*
X134595535Y-76644196D01*
X134662201Y-76787053D01*
X134728868Y-76644196D01*
X134728868Y-76844196D01*
D13*
X134511011Y-77347988D02*
X134518154Y-77355131D01*
X134525297Y-77376560D01*
X134525297Y-77390845D01*
X134518154Y-77412274D01*
X134503868Y-77426560D01*
X134489582Y-77433702D01*
X134461011Y-77440845D01*
X134439582Y-77440845D01*
X134411011Y-77433702D01*
X134396725Y-77426560D01*
X134382440Y-77412274D01*
X134375297Y-77390845D01*
X134375297Y-77376560D01*
X134382440Y-77355131D01*
X134389582Y-77347988D01*
X134389582Y-77290845D02*
X134382440Y-77283702D01*
X134375297Y-77269417D01*
X134375297Y-77233702D01*
X134382440Y-77219417D01*
X134389582Y-77212274D01*
X134403868Y-77205131D01*
X134418154Y-77205131D01*
X134439582Y-77212274D01*
X134525297Y-77297988D01*
X134525297Y-77205131D01*
X134375297Y-77155131D02*
X134375297Y-77055131D01*
X134525297Y-77119417D01*
G04 #@! TO.C,C28*
D12*
X138355428Y-78786683D02*
X138364952Y-78777160D01*
X138384000Y-78767636D01*
X138431619Y-78767636D01*
X138450666Y-78777160D01*
X138460190Y-78786683D01*
X138469714Y-78805731D01*
X138469714Y-78824779D01*
X138460190Y-78853350D01*
X138345904Y-78967636D01*
X138469714Y-78967636D01*
X138545904Y-78786683D02*
X138555428Y-78777160D01*
X138574476Y-78767636D01*
X138622095Y-78767636D01*
X138641142Y-78777160D01*
X138650666Y-78786683D01*
X138660190Y-78805731D01*
X138660190Y-78824779D01*
X138650666Y-78853350D01*
X138536380Y-78967636D01*
X138660190Y-78967636D01*
X138745904Y-78834302D02*
X138745904Y-79034302D01*
X138745904Y-78843826D02*
X138764952Y-78834302D01*
X138803047Y-78834302D01*
X138822095Y-78843826D01*
X138831619Y-78853350D01*
X138841142Y-78872398D01*
X138841142Y-78929540D01*
X138831619Y-78948588D01*
X138822095Y-78958112D01*
X138803047Y-78967636D01*
X138764952Y-78967636D01*
X138745904Y-78958112D01*
X138993523Y-78862874D02*
X138926857Y-78862874D01*
X138926857Y-78967636D02*
X138926857Y-78767636D01*
X139022095Y-78767636D01*
D13*
X137475171Y-79017871D02*
X137468028Y-79025014D01*
X137446600Y-79032157D01*
X137432314Y-79032157D01*
X137410885Y-79025014D01*
X137396600Y-79010728D01*
X137389457Y-78996442D01*
X137382314Y-78967871D01*
X137382314Y-78946442D01*
X137389457Y-78917871D01*
X137396600Y-78903585D01*
X137410885Y-78889300D01*
X137432314Y-78882157D01*
X137446600Y-78882157D01*
X137468028Y-78889300D01*
X137475171Y-78896442D01*
X137532314Y-78896442D02*
X137539457Y-78889300D01*
X137553742Y-78882157D01*
X137589457Y-78882157D01*
X137603742Y-78889300D01*
X137610885Y-78896442D01*
X137618028Y-78910728D01*
X137618028Y-78925014D01*
X137610885Y-78946442D01*
X137525171Y-79032157D01*
X137618028Y-79032157D01*
X137703742Y-78946442D02*
X137689457Y-78939300D01*
X137682314Y-78932157D01*
X137675171Y-78917871D01*
X137675171Y-78910728D01*
X137682314Y-78896442D01*
X137689457Y-78889300D01*
X137703742Y-78882157D01*
X137732314Y-78882157D01*
X137746600Y-78889300D01*
X137753742Y-78896442D01*
X137760885Y-78910728D01*
X137760885Y-78917871D01*
X137753742Y-78932157D01*
X137746600Y-78939300D01*
X137732314Y-78946442D01*
X137703742Y-78946442D01*
X137689457Y-78953585D01*
X137682314Y-78960728D01*
X137675171Y-78975014D01*
X137675171Y-79003585D01*
X137682314Y-79017871D01*
X137689457Y-79025014D01*
X137703742Y-79032157D01*
X137732314Y-79032157D01*
X137746600Y-79025014D01*
X137753742Y-79017871D01*
X137760885Y-79003585D01*
X137760885Y-78975014D01*
X137753742Y-78960728D01*
X137746600Y-78953585D01*
X137732314Y-78946442D01*
G04 #@! TO.C,C29*
D12*
X138349085Y-79600756D02*
X138472895Y-79600756D01*
X138406228Y-79676946D01*
X138434800Y-79676946D01*
X138453847Y-79686470D01*
X138463371Y-79695994D01*
X138472895Y-79715041D01*
X138472895Y-79762660D01*
X138463371Y-79781708D01*
X138453847Y-79791232D01*
X138434800Y-79800756D01*
X138377657Y-79800756D01*
X138358609Y-79791232D01*
X138349085Y-79781708D01*
X138558609Y-79781708D02*
X138568133Y-79791232D01*
X138558609Y-79800756D01*
X138549085Y-79791232D01*
X138558609Y-79781708D01*
X138558609Y-79800756D01*
X138663371Y-79800756D02*
X138701466Y-79800756D01*
X138720514Y-79791232D01*
X138730038Y-79781708D01*
X138749085Y-79753137D01*
X138758609Y-79715041D01*
X138758609Y-79638851D01*
X138749085Y-79619803D01*
X138739561Y-79610280D01*
X138720514Y-79600756D01*
X138682419Y-79600756D01*
X138663371Y-79610280D01*
X138653847Y-79619803D01*
X138644323Y-79638851D01*
X138644323Y-79686470D01*
X138653847Y-79705518D01*
X138663371Y-79715041D01*
X138682419Y-79724565D01*
X138720514Y-79724565D01*
X138739561Y-79715041D01*
X138749085Y-79705518D01*
X138758609Y-79686470D01*
X138844323Y-79667422D02*
X138844323Y-79867422D01*
X138844323Y-79676946D02*
X138863371Y-79667422D01*
X138901466Y-79667422D01*
X138920514Y-79676946D01*
X138930038Y-79686470D01*
X138939561Y-79705518D01*
X138939561Y-79762660D01*
X138930038Y-79781708D01*
X138920514Y-79791232D01*
X138901466Y-79800756D01*
X138863371Y-79800756D01*
X138844323Y-79791232D01*
X139091942Y-79695994D02*
X139025276Y-79695994D01*
X139025276Y-79800756D02*
X139025276Y-79600756D01*
X139120514Y-79600756D01*
D13*
X137485211Y-79758771D02*
X137478068Y-79765914D01*
X137456640Y-79773057D01*
X137442354Y-79773057D01*
X137420925Y-79765914D01*
X137406640Y-79751628D01*
X137399497Y-79737342D01*
X137392354Y-79708771D01*
X137392354Y-79687342D01*
X137399497Y-79658771D01*
X137406640Y-79644485D01*
X137420925Y-79630200D01*
X137442354Y-79623057D01*
X137456640Y-79623057D01*
X137478068Y-79630200D01*
X137485211Y-79637342D01*
X137542354Y-79637342D02*
X137549497Y-79630200D01*
X137563782Y-79623057D01*
X137599497Y-79623057D01*
X137613782Y-79630200D01*
X137620925Y-79637342D01*
X137628068Y-79651628D01*
X137628068Y-79665914D01*
X137620925Y-79687342D01*
X137535211Y-79773057D01*
X137628068Y-79773057D01*
X137699497Y-79773057D02*
X137728068Y-79773057D01*
X137742354Y-79765914D01*
X137749497Y-79758771D01*
X137763782Y-79737342D01*
X137770925Y-79708771D01*
X137770925Y-79651628D01*
X137763782Y-79637342D01*
X137756640Y-79630200D01*
X137742354Y-79623057D01*
X137713782Y-79623057D01*
X137699497Y-79630200D01*
X137692354Y-79637342D01*
X137685211Y-79651628D01*
X137685211Y-79687342D01*
X137692354Y-79701628D01*
X137699497Y-79708771D01*
X137713782Y-79715914D01*
X137742354Y-79715914D01*
X137756640Y-79708771D01*
X137763782Y-79701628D01*
X137770925Y-79687342D01*
G04 #@! TO.C,C30*
D12*
X136994624Y-77989750D02*
X136975577Y-77980226D01*
X136966053Y-77970702D01*
X136956529Y-77951655D01*
X136956529Y-77942131D01*
X136966053Y-77923083D01*
X136975577Y-77913560D01*
X136994624Y-77904036D01*
X137032720Y-77904036D01*
X137051767Y-77913560D01*
X137061291Y-77923083D01*
X137070815Y-77942131D01*
X137070815Y-77951655D01*
X137061291Y-77970702D01*
X137051767Y-77980226D01*
X137032720Y-77989750D01*
X136994624Y-77989750D01*
X136975577Y-77999274D01*
X136966053Y-78008798D01*
X136956529Y-78027845D01*
X136956529Y-78065940D01*
X136966053Y-78084988D01*
X136975577Y-78094512D01*
X136994624Y-78104036D01*
X137032720Y-78104036D01*
X137051767Y-78094512D01*
X137061291Y-78084988D01*
X137070815Y-78065940D01*
X137070815Y-78027845D01*
X137061291Y-78008798D01*
X137051767Y-77999274D01*
X137032720Y-77989750D01*
X137156529Y-78084988D02*
X137166053Y-78094512D01*
X137156529Y-78104036D01*
X137147005Y-78094512D01*
X137156529Y-78084988D01*
X137156529Y-78104036D01*
X137242243Y-77923083D02*
X137251767Y-77913560D01*
X137270815Y-77904036D01*
X137318434Y-77904036D01*
X137337481Y-77913560D01*
X137347005Y-77923083D01*
X137356529Y-77942131D01*
X137356529Y-77961179D01*
X137347005Y-77989750D01*
X137232720Y-78104036D01*
X137356529Y-78104036D01*
X137442243Y-77970702D02*
X137442243Y-78170702D01*
X137442243Y-77980226D02*
X137461291Y-77970702D01*
X137499386Y-77970702D01*
X137518434Y-77980226D01*
X137527958Y-77989750D01*
X137537481Y-78008798D01*
X137537481Y-78065940D01*
X137527958Y-78084988D01*
X137518434Y-78094512D01*
X137499386Y-78104036D01*
X137461291Y-78104036D01*
X137442243Y-78094512D01*
X137689862Y-77999274D02*
X137623196Y-77999274D01*
X137623196Y-78104036D02*
X137623196Y-77904036D01*
X137718434Y-77904036D01*
D13*
X136082691Y-78336371D02*
X136075548Y-78343514D01*
X136054120Y-78350657D01*
X136039834Y-78350657D01*
X136018405Y-78343514D01*
X136004120Y-78329228D01*
X135996977Y-78314942D01*
X135989834Y-78286371D01*
X135989834Y-78264942D01*
X135996977Y-78236371D01*
X136004120Y-78222085D01*
X136018405Y-78207800D01*
X136039834Y-78200657D01*
X136054120Y-78200657D01*
X136075548Y-78207800D01*
X136082691Y-78214942D01*
X136132691Y-78200657D02*
X136225548Y-78200657D01*
X136175548Y-78257800D01*
X136196977Y-78257800D01*
X136211262Y-78264942D01*
X136218405Y-78272085D01*
X136225548Y-78286371D01*
X136225548Y-78322085D01*
X136218405Y-78336371D01*
X136211262Y-78343514D01*
X136196977Y-78350657D01*
X136154120Y-78350657D01*
X136139834Y-78343514D01*
X136132691Y-78336371D01*
X136318405Y-78200657D02*
X136332691Y-78200657D01*
X136346977Y-78207800D01*
X136354120Y-78214942D01*
X136361262Y-78229228D01*
X136368405Y-78257800D01*
X136368405Y-78293514D01*
X136361262Y-78322085D01*
X136354120Y-78336371D01*
X136346977Y-78343514D01*
X136332691Y-78350657D01*
X136318405Y-78350657D01*
X136304120Y-78343514D01*
X136296977Y-78336371D01*
X136289834Y-78322085D01*
X136282691Y-78293514D01*
X136282691Y-78257800D01*
X136289834Y-78229228D01*
X136296977Y-78214942D01*
X136304120Y-78207800D01*
X136318405Y-78200657D01*
G04 #@! TO.C,C31*
D12*
X136497411Y-76938836D02*
X136402173Y-76938836D01*
X136392649Y-77034074D01*
X136402173Y-77024550D01*
X136421220Y-77015026D01*
X136468840Y-77015026D01*
X136487887Y-77024550D01*
X136497411Y-77034074D01*
X136506935Y-77053121D01*
X136506935Y-77100740D01*
X136497411Y-77119788D01*
X136487887Y-77129312D01*
X136468840Y-77138836D01*
X136421220Y-77138836D01*
X136402173Y-77129312D01*
X136392649Y-77119788D01*
X136592649Y-77119788D02*
X136602173Y-77129312D01*
X136592649Y-77138836D01*
X136583125Y-77129312D01*
X136592649Y-77119788D01*
X136592649Y-77138836D01*
X136773601Y-76938836D02*
X136735506Y-76938836D01*
X136716459Y-76948360D01*
X136706935Y-76957883D01*
X136687887Y-76986455D01*
X136678363Y-77024550D01*
X136678363Y-77100740D01*
X136687887Y-77119788D01*
X136697411Y-77129312D01*
X136716459Y-77138836D01*
X136754554Y-77138836D01*
X136773601Y-77129312D01*
X136783125Y-77119788D01*
X136792649Y-77100740D01*
X136792649Y-77053121D01*
X136783125Y-77034074D01*
X136773601Y-77024550D01*
X136754554Y-77015026D01*
X136716459Y-77015026D01*
X136697411Y-77024550D01*
X136687887Y-77034074D01*
X136678363Y-77053121D01*
X136878363Y-77005502D02*
X136878363Y-77205502D01*
X136878363Y-77015026D02*
X136897411Y-77005502D01*
X136935506Y-77005502D01*
X136954554Y-77015026D01*
X136964078Y-77024550D01*
X136973601Y-77043598D01*
X136973601Y-77100740D01*
X136964078Y-77119788D01*
X136954554Y-77129312D01*
X136935506Y-77138836D01*
X136897411Y-77138836D01*
X136878363Y-77129312D01*
X137125982Y-77034074D02*
X137059316Y-77034074D01*
X137059316Y-77138836D02*
X137059316Y-76938836D01*
X137154554Y-76938836D01*
D13*
X136042491Y-77665811D02*
X136035348Y-77672954D01*
X136013920Y-77680097D01*
X135999634Y-77680097D01*
X135978205Y-77672954D01*
X135963920Y-77658668D01*
X135956777Y-77644382D01*
X135949634Y-77615811D01*
X135949634Y-77594382D01*
X135956777Y-77565811D01*
X135963920Y-77551525D01*
X135978205Y-77537240D01*
X135999634Y-77530097D01*
X136013920Y-77530097D01*
X136035348Y-77537240D01*
X136042491Y-77544382D01*
X136092491Y-77530097D02*
X136185348Y-77530097D01*
X136135348Y-77587240D01*
X136156777Y-77587240D01*
X136171062Y-77594382D01*
X136178205Y-77601525D01*
X136185348Y-77615811D01*
X136185348Y-77651525D01*
X136178205Y-77665811D01*
X136171062Y-77672954D01*
X136156777Y-77680097D01*
X136113920Y-77680097D01*
X136099634Y-77672954D01*
X136092491Y-77665811D01*
X136328205Y-77680097D02*
X136242491Y-77680097D01*
X136285348Y-77680097D02*
X136285348Y-77530097D01*
X136271062Y-77551525D01*
X136256777Y-77565811D01*
X136242491Y-77572954D01*
G04 #@! TO.C,C32*
D12*
X135567785Y-76034596D02*
X135691595Y-76034596D01*
X135624928Y-76110786D01*
X135653500Y-76110786D01*
X135672547Y-76120310D01*
X135682071Y-76129834D01*
X135691595Y-76148881D01*
X135691595Y-76196500D01*
X135682071Y-76215548D01*
X135672547Y-76225072D01*
X135653500Y-76234596D01*
X135596357Y-76234596D01*
X135577309Y-76225072D01*
X135567785Y-76215548D01*
X135777309Y-76215548D02*
X135786833Y-76225072D01*
X135777309Y-76234596D01*
X135767785Y-76225072D01*
X135777309Y-76215548D01*
X135777309Y-76234596D01*
X135853500Y-76034596D02*
X135977309Y-76034596D01*
X135910642Y-76110786D01*
X135939214Y-76110786D01*
X135958261Y-76120310D01*
X135967785Y-76129834D01*
X135977309Y-76148881D01*
X135977309Y-76196500D01*
X135967785Y-76215548D01*
X135958261Y-76225072D01*
X135939214Y-76234596D01*
X135882071Y-76234596D01*
X135863023Y-76225072D01*
X135853500Y-76215548D01*
X136063023Y-76101262D02*
X136063023Y-76301262D01*
X136063023Y-76110786D02*
X136082071Y-76101262D01*
X136120166Y-76101262D01*
X136139214Y-76110786D01*
X136148738Y-76120310D01*
X136158261Y-76139358D01*
X136158261Y-76196500D01*
X136148738Y-76215548D01*
X136139214Y-76225072D01*
X136120166Y-76234596D01*
X136082071Y-76234596D01*
X136063023Y-76225072D01*
X136310642Y-76129834D02*
X136243976Y-76129834D01*
X136243976Y-76234596D02*
X136243976Y-76034596D01*
X136339214Y-76034596D01*
D13*
X134714071Y-76157051D02*
X134706928Y-76164194D01*
X134685500Y-76171337D01*
X134671214Y-76171337D01*
X134649785Y-76164194D01*
X134635500Y-76149908D01*
X134628357Y-76135622D01*
X134621214Y-76107051D01*
X134621214Y-76085622D01*
X134628357Y-76057051D01*
X134635500Y-76042765D01*
X134649785Y-76028480D01*
X134671214Y-76021337D01*
X134685500Y-76021337D01*
X134706928Y-76028480D01*
X134714071Y-76035622D01*
X134764071Y-76021337D02*
X134856928Y-76021337D01*
X134806928Y-76078480D01*
X134828357Y-76078480D01*
X134842642Y-76085622D01*
X134849785Y-76092765D01*
X134856928Y-76107051D01*
X134856928Y-76142765D01*
X134849785Y-76157051D01*
X134842642Y-76164194D01*
X134828357Y-76171337D01*
X134785500Y-76171337D01*
X134771214Y-76164194D01*
X134764071Y-76157051D01*
X134914071Y-76035622D02*
X134921214Y-76028480D01*
X134935500Y-76021337D01*
X134971214Y-76021337D01*
X134985500Y-76028480D01*
X134992642Y-76035622D01*
X134999785Y-76049908D01*
X134999785Y-76064194D01*
X134992642Y-76085622D01*
X134906928Y-76171337D01*
X134999785Y-76171337D01*
G04 #@! TO.C,C33*
D12*
X141539047Y-80547142D02*
X141539047Y-80680476D01*
X141491428Y-80470952D02*
X141443809Y-80613809D01*
X141567619Y-80613809D01*
X141643809Y-80661428D02*
X141653333Y-80670952D01*
X141643809Y-80680476D01*
X141634285Y-80670952D01*
X141643809Y-80661428D01*
X141643809Y-80680476D01*
X141720000Y-80480476D02*
X141853333Y-80480476D01*
X141767619Y-80680476D01*
X141929523Y-80547142D02*
X141929523Y-80747142D01*
X141929523Y-80556666D02*
X141948571Y-80547142D01*
X141986666Y-80547142D01*
X142005714Y-80556666D01*
X142015238Y-80566190D01*
X142024761Y-80585238D01*
X142024761Y-80642380D01*
X142015238Y-80661428D01*
X142005714Y-80670952D01*
X141986666Y-80680476D01*
X141948571Y-80680476D01*
X141929523Y-80670952D01*
X142177142Y-80575714D02*
X142110476Y-80575714D01*
X142110476Y-80680476D02*
X142110476Y-80480476D01*
X142205714Y-80480476D01*
D13*
X141897331Y-81229108D02*
X141904474Y-81236251D01*
X141911617Y-81257680D01*
X141911617Y-81271965D01*
X141904474Y-81293394D01*
X141890188Y-81307680D01*
X141875902Y-81314822D01*
X141847331Y-81321965D01*
X141825902Y-81321965D01*
X141797331Y-81314822D01*
X141783045Y-81307680D01*
X141768760Y-81293394D01*
X141761617Y-81271965D01*
X141761617Y-81257680D01*
X141768760Y-81236251D01*
X141775902Y-81229108D01*
X141761617Y-81179108D02*
X141761617Y-81086251D01*
X141818760Y-81136251D01*
X141818760Y-81114822D01*
X141825902Y-81100537D01*
X141833045Y-81093394D01*
X141847331Y-81086251D01*
X141883045Y-81086251D01*
X141897331Y-81093394D01*
X141904474Y-81100537D01*
X141911617Y-81114822D01*
X141911617Y-81157680D01*
X141904474Y-81171965D01*
X141897331Y-81179108D01*
X141761617Y-81036251D02*
X141761617Y-80943394D01*
X141818760Y-80993394D01*
X141818760Y-80971965D01*
X141825902Y-80957680D01*
X141833045Y-80950537D01*
X141847331Y-80943394D01*
X141883045Y-80943394D01*
X141897331Y-80950537D01*
X141904474Y-80957680D01*
X141911617Y-80971965D01*
X141911617Y-81014822D01*
X141904474Y-81029108D01*
X141897331Y-81036251D01*
G04 #@! TO.C,C34*
D12*
X140070952Y-77306476D02*
X139956666Y-77306476D01*
X140013809Y-77306476D02*
X140013809Y-77106476D01*
X139994761Y-77135047D01*
X139975714Y-77154095D01*
X139956666Y-77163619D01*
X140156666Y-77173142D02*
X140156666Y-77306476D01*
X140156666Y-77192190D02*
X140166190Y-77182666D01*
X140185238Y-77173142D01*
X140213809Y-77173142D01*
X140232857Y-77182666D01*
X140242380Y-77201714D01*
X140242380Y-77306476D01*
X140404285Y-77201714D02*
X140337619Y-77201714D01*
X140337619Y-77306476D02*
X140337619Y-77106476D01*
X140432857Y-77106476D01*
D13*
X140086171Y-77828371D02*
X140079028Y-77835514D01*
X140057600Y-77842657D01*
X140043314Y-77842657D01*
X140021885Y-77835514D01*
X140007600Y-77821228D01*
X140000457Y-77806942D01*
X139993314Y-77778371D01*
X139993314Y-77756942D01*
X140000457Y-77728371D01*
X140007600Y-77714085D01*
X140021885Y-77699800D01*
X140043314Y-77692657D01*
X140057600Y-77692657D01*
X140079028Y-77699800D01*
X140086171Y-77706942D01*
X140136171Y-77692657D02*
X140229028Y-77692657D01*
X140179028Y-77749800D01*
X140200457Y-77749800D01*
X140214742Y-77756942D01*
X140221885Y-77764085D01*
X140229028Y-77778371D01*
X140229028Y-77814085D01*
X140221885Y-77828371D01*
X140214742Y-77835514D01*
X140200457Y-77842657D01*
X140157600Y-77842657D01*
X140143314Y-77835514D01*
X140136171Y-77828371D01*
X140357600Y-77742657D02*
X140357600Y-77842657D01*
X140321885Y-77685514D02*
X140286171Y-77792657D01*
X140379028Y-77792657D01*
G04 #@! TO.C,C35*
D12*
X131065476Y-84215476D02*
X130951190Y-84215476D01*
X131008333Y-84215476D02*
X131008333Y-84015476D01*
X130989285Y-84044047D01*
X130970238Y-84063095D01*
X130951190Y-84072619D01*
X131189285Y-84015476D02*
X131208333Y-84015476D01*
X131227380Y-84025000D01*
X131236904Y-84034523D01*
X131246428Y-84053571D01*
X131255952Y-84091666D01*
X131255952Y-84139285D01*
X131246428Y-84177380D01*
X131236904Y-84196428D01*
X131227380Y-84205952D01*
X131208333Y-84215476D01*
X131189285Y-84215476D01*
X131170238Y-84205952D01*
X131160714Y-84196428D01*
X131151190Y-84177380D01*
X131141666Y-84139285D01*
X131141666Y-84091666D01*
X131151190Y-84053571D01*
X131160714Y-84034523D01*
X131170238Y-84025000D01*
X131189285Y-84015476D01*
X131379761Y-84015476D02*
X131398809Y-84015476D01*
X131417857Y-84025000D01*
X131427380Y-84034523D01*
X131436904Y-84053571D01*
X131446428Y-84091666D01*
X131446428Y-84139285D01*
X131436904Y-84177380D01*
X131427380Y-84196428D01*
X131417857Y-84205952D01*
X131398809Y-84215476D01*
X131379761Y-84215476D01*
X131360714Y-84205952D01*
X131351190Y-84196428D01*
X131341666Y-84177380D01*
X131332142Y-84139285D01*
X131332142Y-84091666D01*
X131341666Y-84053571D01*
X131351190Y-84034523D01*
X131360714Y-84025000D01*
X131379761Y-84015476D01*
X131532142Y-84082142D02*
X131532142Y-84215476D01*
X131532142Y-84101190D02*
X131541666Y-84091666D01*
X131560714Y-84082142D01*
X131589285Y-84082142D01*
X131608333Y-84091666D01*
X131617857Y-84110714D01*
X131617857Y-84215476D01*
X131779761Y-84110714D02*
X131713095Y-84110714D01*
X131713095Y-84215476D02*
X131713095Y-84015476D01*
X131808333Y-84015476D01*
D13*
X131293451Y-85239651D02*
X131286308Y-85246794D01*
X131264880Y-85253937D01*
X131250594Y-85253937D01*
X131229165Y-85246794D01*
X131214880Y-85232508D01*
X131207737Y-85218222D01*
X131200594Y-85189651D01*
X131200594Y-85168222D01*
X131207737Y-85139651D01*
X131214880Y-85125365D01*
X131229165Y-85111080D01*
X131250594Y-85103937D01*
X131264880Y-85103937D01*
X131286308Y-85111080D01*
X131293451Y-85118222D01*
X131343451Y-85103937D02*
X131436308Y-85103937D01*
X131386308Y-85161080D01*
X131407737Y-85161080D01*
X131422022Y-85168222D01*
X131429165Y-85175365D01*
X131436308Y-85189651D01*
X131436308Y-85225365D01*
X131429165Y-85239651D01*
X131422022Y-85246794D01*
X131407737Y-85253937D01*
X131364880Y-85253937D01*
X131350594Y-85246794D01*
X131343451Y-85239651D01*
X131572022Y-85103937D02*
X131500594Y-85103937D01*
X131493451Y-85175365D01*
X131500594Y-85168222D01*
X131514880Y-85161080D01*
X131550594Y-85161080D01*
X131564880Y-85168222D01*
X131572022Y-85175365D01*
X131579165Y-85189651D01*
X131579165Y-85225365D01*
X131572022Y-85239651D01*
X131564880Y-85246794D01*
X131550594Y-85253937D01*
X131514880Y-85253937D01*
X131500594Y-85246794D01*
X131493451Y-85239651D01*
G04 #@! TO.C,C36*
D12*
X141361956Y-83536605D02*
X141361956Y-83650891D01*
X141361956Y-83593748D02*
X141161956Y-83593748D01*
X141190527Y-83612796D01*
X141209575Y-83631843D01*
X141219099Y-83650891D01*
X141161956Y-83412796D02*
X141161956Y-83393748D01*
X141171480Y-83374700D01*
X141181003Y-83365177D01*
X141200051Y-83355653D01*
X141238146Y-83346129D01*
X141285765Y-83346129D01*
X141323860Y-83355653D01*
X141342908Y-83365177D01*
X141352432Y-83374700D01*
X141361956Y-83393748D01*
X141361956Y-83412796D01*
X141352432Y-83431843D01*
X141342908Y-83441367D01*
X141323860Y-83450891D01*
X141285765Y-83460415D01*
X141238146Y-83460415D01*
X141200051Y-83450891D01*
X141181003Y-83441367D01*
X141171480Y-83431843D01*
X141161956Y-83412796D01*
X141228622Y-83260415D02*
X141428622Y-83260415D01*
X141238146Y-83260415D02*
X141228622Y-83241367D01*
X141228622Y-83203272D01*
X141238146Y-83184224D01*
X141247670Y-83174700D01*
X141266718Y-83165177D01*
X141323860Y-83165177D01*
X141342908Y-83174700D01*
X141352432Y-83184224D01*
X141361956Y-83203272D01*
X141361956Y-83241367D01*
X141352432Y-83260415D01*
X141257194Y-83012796D02*
X141257194Y-83079462D01*
X141361956Y-83079462D02*
X141161956Y-83079462D01*
X141161956Y-82984224D01*
D13*
X140306371Y-83401291D02*
X140299228Y-83408434D01*
X140277800Y-83415577D01*
X140263514Y-83415577D01*
X140242085Y-83408434D01*
X140227800Y-83394148D01*
X140220657Y-83379862D01*
X140213514Y-83351291D01*
X140213514Y-83329862D01*
X140220657Y-83301291D01*
X140227800Y-83287005D01*
X140242085Y-83272720D01*
X140263514Y-83265577D01*
X140277800Y-83265577D01*
X140299228Y-83272720D01*
X140306371Y-83279862D01*
X140356371Y-83265577D02*
X140449228Y-83265577D01*
X140399228Y-83322720D01*
X140420657Y-83322720D01*
X140434942Y-83329862D01*
X140442085Y-83337005D01*
X140449228Y-83351291D01*
X140449228Y-83387005D01*
X140442085Y-83401291D01*
X140434942Y-83408434D01*
X140420657Y-83415577D01*
X140377800Y-83415577D01*
X140363514Y-83408434D01*
X140356371Y-83401291D01*
X140577800Y-83265577D02*
X140549228Y-83265577D01*
X140534942Y-83272720D01*
X140527800Y-83279862D01*
X140513514Y-83301291D01*
X140506371Y-83329862D01*
X140506371Y-83387005D01*
X140513514Y-83401291D01*
X140520657Y-83408434D01*
X140534942Y-83415577D01*
X140563514Y-83415577D01*
X140577800Y-83408434D01*
X140584942Y-83401291D01*
X140592085Y-83387005D01*
X140592085Y-83351291D01*
X140584942Y-83337005D01*
X140577800Y-83329862D01*
X140563514Y-83322720D01*
X140534942Y-83322720D01*
X140520657Y-83329862D01*
X140513514Y-83337005D01*
X140506371Y-83351291D01*
G04 #@! TO.C,C37*
D12*
X141281794Y-84325596D02*
X141167508Y-84325596D01*
X141224651Y-84325596D02*
X141224651Y-84125596D01*
X141205603Y-84154167D01*
X141186556Y-84173215D01*
X141167508Y-84182739D01*
X141405603Y-84125596D02*
X141424651Y-84125596D01*
X141443699Y-84135120D01*
X141453222Y-84144643D01*
X141462746Y-84163691D01*
X141472270Y-84201786D01*
X141472270Y-84249405D01*
X141462746Y-84287500D01*
X141453222Y-84306548D01*
X141443699Y-84316072D01*
X141424651Y-84325596D01*
X141405603Y-84325596D01*
X141386556Y-84316072D01*
X141377032Y-84306548D01*
X141367508Y-84287500D01*
X141357984Y-84249405D01*
X141357984Y-84201786D01*
X141367508Y-84163691D01*
X141377032Y-84144643D01*
X141386556Y-84135120D01*
X141405603Y-84125596D01*
X141557984Y-84192262D02*
X141557984Y-84392262D01*
X141557984Y-84201786D02*
X141577032Y-84192262D01*
X141615127Y-84192262D01*
X141634175Y-84201786D01*
X141643699Y-84211310D01*
X141653222Y-84230358D01*
X141653222Y-84287500D01*
X141643699Y-84306548D01*
X141634175Y-84316072D01*
X141615127Y-84325596D01*
X141577032Y-84325596D01*
X141557984Y-84316072D01*
X141805603Y-84220834D02*
X141738937Y-84220834D01*
X141738937Y-84325596D02*
X141738937Y-84125596D01*
X141834175Y-84125596D01*
D13*
X140307451Y-84415691D02*
X140300308Y-84422834D01*
X140278880Y-84429977D01*
X140264594Y-84429977D01*
X140243165Y-84422834D01*
X140228880Y-84408548D01*
X140221737Y-84394262D01*
X140214594Y-84365691D01*
X140214594Y-84344262D01*
X140221737Y-84315691D01*
X140228880Y-84301405D01*
X140243165Y-84287120D01*
X140264594Y-84279977D01*
X140278880Y-84279977D01*
X140300308Y-84287120D01*
X140307451Y-84294262D01*
X140357451Y-84279977D02*
X140450308Y-84279977D01*
X140400308Y-84337120D01*
X140421737Y-84337120D01*
X140436022Y-84344262D01*
X140443165Y-84351405D01*
X140450308Y-84365691D01*
X140450308Y-84401405D01*
X140443165Y-84415691D01*
X140436022Y-84422834D01*
X140421737Y-84429977D01*
X140378880Y-84429977D01*
X140364594Y-84422834D01*
X140357451Y-84415691D01*
X140500308Y-84279977D02*
X140600308Y-84279977D01*
X140536022Y-84429977D01*
G04 #@! TO.C,FB1*
D12*
X130211984Y-81113314D02*
X130240556Y-81122838D01*
X130250080Y-81132361D01*
X130259603Y-81151409D01*
X130259603Y-81179980D01*
X130250080Y-81199028D01*
X130240556Y-81208552D01*
X130221508Y-81218076D01*
X130145318Y-81218076D01*
X130145318Y-81018076D01*
X130211984Y-81018076D01*
X130231032Y-81027600D01*
X130240556Y-81037123D01*
X130250080Y-81056171D01*
X130250080Y-81075219D01*
X130240556Y-81094266D01*
X130231032Y-81103790D01*
X130211984Y-81113314D01*
X130145318Y-81113314D01*
X130440556Y-81218076D02*
X130345318Y-81218076D01*
X130345318Y-81018076D01*
X130507222Y-81218076D02*
X130507222Y-81018076D01*
X130573889Y-81160933D01*
X130640556Y-81018076D01*
X130640556Y-81218076D01*
X130840556Y-81218076D02*
X130726270Y-81218076D01*
X130783413Y-81218076D02*
X130783413Y-81018076D01*
X130764365Y-81046647D01*
X130745318Y-81065695D01*
X130726270Y-81075219D01*
X131021508Y-81018076D02*
X130926270Y-81018076D01*
X130916746Y-81113314D01*
X130926270Y-81103790D01*
X130945318Y-81094266D01*
X130992937Y-81094266D01*
X131011984Y-81103790D01*
X131021508Y-81113314D01*
X131031032Y-81132361D01*
X131031032Y-81179980D01*
X131021508Y-81199028D01*
X131011984Y-81208552D01*
X130992937Y-81218076D01*
X130945318Y-81218076D01*
X130926270Y-81208552D01*
X130916746Y-81199028D01*
X131107222Y-81160933D02*
X131202460Y-81160933D01*
X131088175Y-81218076D02*
X131154841Y-81018076D01*
X131221508Y-81218076D01*
X131392937Y-81027600D02*
X131373889Y-81018076D01*
X131345318Y-81018076D01*
X131316746Y-81027600D01*
X131297699Y-81046647D01*
X131288175Y-81065695D01*
X131278651Y-81103790D01*
X131278651Y-81132361D01*
X131288175Y-81170457D01*
X131297699Y-81189504D01*
X131316746Y-81208552D01*
X131345318Y-81218076D01*
X131364365Y-81218076D01*
X131392937Y-81208552D01*
X131402460Y-81199028D01*
X131402460Y-81132361D01*
X131364365Y-81132361D01*
X131592937Y-81218076D02*
X131478651Y-81218076D01*
X131535794Y-81218076D02*
X131535794Y-81018076D01*
X131516746Y-81046647D01*
X131497699Y-81065695D01*
X131478651Y-81075219D01*
X131669127Y-81037123D02*
X131678651Y-81027600D01*
X131697699Y-81018076D01*
X131745318Y-81018076D01*
X131764365Y-81027600D01*
X131773889Y-81037123D01*
X131783413Y-81056171D01*
X131783413Y-81075219D01*
X131773889Y-81103790D01*
X131659603Y-81218076D01*
X131783413Y-81218076D01*
X131973889Y-81218076D02*
X131859603Y-81218076D01*
X131916746Y-81218076D02*
X131916746Y-81018076D01*
X131897699Y-81046647D01*
X131878651Y-81065695D01*
X131859603Y-81075219D01*
X132050080Y-81208552D02*
X132078651Y-81218076D01*
X132126270Y-81218076D01*
X132145318Y-81208552D01*
X132154841Y-81199028D01*
X132164365Y-81179980D01*
X132164365Y-81160933D01*
X132154841Y-81141885D01*
X132145318Y-81132361D01*
X132126270Y-81122838D01*
X132088175Y-81113314D01*
X132069127Y-81103790D01*
X132059603Y-81094266D01*
X132050080Y-81075219D01*
X132050080Y-81056171D01*
X132059603Y-81037123D01*
X132069127Y-81027600D01*
X132088175Y-81018076D01*
X132135794Y-81018076D01*
X132164365Y-81027600D01*
X132250080Y-81218076D02*
X132250080Y-81018076D01*
X132364365Y-81218076D01*
X132364365Y-81018076D01*
X132564365Y-81218076D02*
X132450080Y-81218076D01*
X132507222Y-81218076D02*
X132507222Y-81018076D01*
X132488175Y-81046647D01*
X132469127Y-81065695D01*
X132450080Y-81075219D01*
X132650080Y-81218076D02*
X132650080Y-81018076D01*
X132697699Y-81018076D01*
X132726270Y-81027600D01*
X132745318Y-81046647D01*
X132754841Y-81065695D01*
X132764365Y-81103790D01*
X132764365Y-81132361D01*
X132754841Y-81170457D01*
X132745318Y-81189504D01*
X132726270Y-81208552D01*
X132697699Y-81218076D01*
X132650080Y-81218076D01*
D13*
X131551125Y-82349880D02*
X131551125Y-82399880D01*
X131629697Y-82399880D02*
X131479697Y-82399880D01*
X131479697Y-82328451D01*
X131551125Y-82221308D02*
X131558268Y-82199880D01*
X131565411Y-82192737D01*
X131579697Y-82185594D01*
X131601125Y-82185594D01*
X131615411Y-82192737D01*
X131622554Y-82199880D01*
X131629697Y-82214165D01*
X131629697Y-82271308D01*
X131479697Y-82271308D01*
X131479697Y-82221308D01*
X131486840Y-82207022D01*
X131493982Y-82199880D01*
X131508268Y-82192737D01*
X131522554Y-82192737D01*
X131536840Y-82199880D01*
X131543982Y-82207022D01*
X131551125Y-82221308D01*
X131551125Y-82271308D01*
X131629697Y-82042737D02*
X131629697Y-82128451D01*
X131629697Y-82085594D02*
X131479697Y-82085594D01*
X131501125Y-82099880D01*
X131515411Y-82114165D01*
X131522554Y-82128451D01*
G04 #@! TO.C,L4*
D12*
X132418166Y-75274476D02*
X132303880Y-75274476D01*
X132361023Y-75274476D02*
X132361023Y-75074476D01*
X132341976Y-75103047D01*
X132322928Y-75122095D01*
X132303880Y-75131619D01*
X132541976Y-75074476D02*
X132561023Y-75074476D01*
X132580071Y-75084000D01*
X132589595Y-75093523D01*
X132599119Y-75112571D01*
X132608642Y-75150666D01*
X132608642Y-75198285D01*
X132599119Y-75236380D01*
X132589595Y-75255428D01*
X132580071Y-75264952D01*
X132561023Y-75274476D01*
X132541976Y-75274476D01*
X132522928Y-75264952D01*
X132513404Y-75255428D01*
X132503880Y-75236380D01*
X132494357Y-75198285D01*
X132494357Y-75150666D01*
X132503880Y-75112571D01*
X132513404Y-75093523D01*
X132522928Y-75084000D01*
X132541976Y-75074476D01*
X132694357Y-75141142D02*
X132694357Y-75274476D01*
X132694357Y-75160190D02*
X132703880Y-75150666D01*
X132722928Y-75141142D01*
X132751500Y-75141142D01*
X132770547Y-75150666D01*
X132780071Y-75169714D01*
X132780071Y-75274476D01*
X132875309Y-75274476D02*
X132875309Y-75074476D01*
X132875309Y-75169714D02*
X132989595Y-75169714D01*
X132989595Y-75274476D02*
X132989595Y-75074476D01*
D13*
X133736480Y-75188357D02*
X133665051Y-75188357D01*
X133665051Y-75038357D01*
X133850765Y-75088357D02*
X133850765Y-75188357D01*
X133815051Y-75031214D02*
X133779337Y-75138357D01*
X133872194Y-75138357D01*
G04 #@! TO.C,L5*
D12*
X135219786Y-75706276D02*
X135105500Y-75706276D01*
X135162643Y-75706276D02*
X135162643Y-75506276D01*
X135143596Y-75534847D01*
X135124548Y-75553895D01*
X135105500Y-75563419D01*
X135343596Y-75506276D02*
X135362643Y-75506276D01*
X135381691Y-75515800D01*
X135391215Y-75525323D01*
X135400739Y-75544371D01*
X135410262Y-75582466D01*
X135410262Y-75630085D01*
X135400739Y-75668180D01*
X135391215Y-75687228D01*
X135381691Y-75696752D01*
X135362643Y-75706276D01*
X135343596Y-75706276D01*
X135324548Y-75696752D01*
X135315024Y-75687228D01*
X135305500Y-75668180D01*
X135295977Y-75630085D01*
X135295977Y-75582466D01*
X135305500Y-75544371D01*
X135315024Y-75525323D01*
X135324548Y-75515800D01*
X135343596Y-75506276D01*
X135495977Y-75572942D02*
X135495977Y-75706276D01*
X135495977Y-75591990D02*
X135505500Y-75582466D01*
X135524548Y-75572942D01*
X135553120Y-75572942D01*
X135572167Y-75582466D01*
X135581691Y-75601514D01*
X135581691Y-75706276D01*
X135676929Y-75706276D02*
X135676929Y-75506276D01*
X135676929Y-75601514D02*
X135791215Y-75601514D01*
X135791215Y-75706276D02*
X135791215Y-75506276D01*
D13*
X135235080Y-75213757D02*
X135163651Y-75213757D01*
X135163651Y-75063757D01*
X135356508Y-75063757D02*
X135285080Y-75063757D01*
X135277937Y-75135185D01*
X135285080Y-75128042D01*
X135299365Y-75120900D01*
X135335080Y-75120900D01*
X135349365Y-75128042D01*
X135356508Y-75135185D01*
X135363651Y-75149471D01*
X135363651Y-75185185D01*
X135356508Y-75199471D01*
X135349365Y-75206614D01*
X135335080Y-75213757D01*
X135299365Y-75213757D01*
X135285080Y-75206614D01*
X135277937Y-75199471D01*
G04 #@! TO.C,L6*
D12*
X134490156Y-80555102D02*
X134490156Y-80431293D01*
X134566346Y-80497960D01*
X134566346Y-80469388D01*
X134575870Y-80450340D01*
X134585394Y-80440817D01*
X134604441Y-80431293D01*
X134652060Y-80431293D01*
X134671108Y-80440817D01*
X134680632Y-80450340D01*
X134690156Y-80469388D01*
X134690156Y-80526531D01*
X134680632Y-80545579D01*
X134671108Y-80555102D01*
X134490156Y-80364626D02*
X134490156Y-80240817D01*
X134566346Y-80307483D01*
X134566346Y-80278912D01*
X134575870Y-80259864D01*
X134585394Y-80250340D01*
X134604441Y-80240817D01*
X134652060Y-80240817D01*
X134671108Y-80250340D01*
X134680632Y-80259864D01*
X134690156Y-80278912D01*
X134690156Y-80336055D01*
X134680632Y-80355102D01*
X134671108Y-80364626D01*
X134556822Y-80155102D02*
X134690156Y-80155102D01*
X134575870Y-80155102D02*
X134566346Y-80145579D01*
X134556822Y-80126531D01*
X134556822Y-80097960D01*
X134566346Y-80078912D01*
X134585394Y-80069388D01*
X134690156Y-80069388D01*
X134690156Y-79974150D02*
X134490156Y-79974150D01*
X134585394Y-79974150D02*
X134585394Y-79859864D01*
X134690156Y-79859864D02*
X134490156Y-79859864D01*
D13*
X135185697Y-80157700D02*
X135185697Y-80229128D01*
X135035697Y-80229128D01*
X135035697Y-80043414D02*
X135035697Y-80071985D01*
X135042840Y-80086271D01*
X135049982Y-80093414D01*
X135071411Y-80107700D01*
X135099982Y-80114842D01*
X135157125Y-80114842D01*
X135171411Y-80107700D01*
X135178554Y-80100557D01*
X135185697Y-80086271D01*
X135185697Y-80057700D01*
X135178554Y-80043414D01*
X135171411Y-80036271D01*
X135157125Y-80029128D01*
X135121411Y-80029128D01*
X135107125Y-80036271D01*
X135099982Y-80043414D01*
X135092840Y-80057700D01*
X135092840Y-80086271D01*
X135099982Y-80100557D01*
X135107125Y-80107700D01*
X135121411Y-80114842D01*
G04 #@! TO.C,L7*
D12*
X139827584Y-80015447D02*
X139746772Y-80096260D01*
X139787178Y-80055854D02*
X139645757Y-79914432D01*
X139652491Y-79948104D01*
X139652491Y-79975041D01*
X139645757Y-79995244D01*
X139773709Y-79786480D02*
X139787178Y-79773011D01*
X139807381Y-79766276D01*
X139820850Y-79766276D01*
X139841053Y-79773011D01*
X139874725Y-79793214D01*
X139908396Y-79826886D01*
X139928600Y-79860557D01*
X139935334Y-79880760D01*
X139935334Y-79894229D01*
X139928600Y-79914432D01*
X139915131Y-79927901D01*
X139894928Y-79934635D01*
X139881459Y-79934635D01*
X139861256Y-79927901D01*
X139827584Y-79907698D01*
X139793912Y-79874026D01*
X139773709Y-79840354D01*
X139766975Y-79820151D01*
X139766975Y-79806683D01*
X139773709Y-79786480D01*
X139928600Y-79725870D02*
X140022880Y-79820151D01*
X139942068Y-79739339D02*
X139942068Y-79725870D01*
X139948803Y-79705667D01*
X139969006Y-79685464D01*
X139989209Y-79678730D01*
X140009412Y-79685464D01*
X140083490Y-79759542D01*
X140150833Y-79692199D02*
X140009412Y-79550777D01*
X140076755Y-79618121D02*
X140157567Y-79537309D01*
X140231645Y-79611386D02*
X140090224Y-79469965D01*
D13*
X140350064Y-80177259D02*
X140299556Y-80227767D01*
X140193490Y-80121701D01*
X140269252Y-80045940D02*
X140339963Y-79975229D01*
X140400572Y-80126752D01*
G04 #@! TO.C,L8*
D12*
X138331937Y-80250996D02*
X138455746Y-80250996D01*
X138389080Y-80327186D01*
X138417651Y-80327186D01*
X138436699Y-80336710D01*
X138446222Y-80346234D01*
X138455746Y-80365281D01*
X138455746Y-80412900D01*
X138446222Y-80431948D01*
X138436699Y-80441472D01*
X138417651Y-80450996D01*
X138360508Y-80450996D01*
X138341460Y-80441472D01*
X138331937Y-80431948D01*
X138522413Y-80250996D02*
X138646222Y-80250996D01*
X138579556Y-80327186D01*
X138608127Y-80327186D01*
X138627175Y-80336710D01*
X138636699Y-80346234D01*
X138646222Y-80365281D01*
X138646222Y-80412900D01*
X138636699Y-80431948D01*
X138627175Y-80441472D01*
X138608127Y-80450996D01*
X138550984Y-80450996D01*
X138531937Y-80441472D01*
X138522413Y-80431948D01*
X138731937Y-80317662D02*
X138731937Y-80450996D01*
X138731937Y-80336710D02*
X138741460Y-80327186D01*
X138760508Y-80317662D01*
X138789080Y-80317662D01*
X138808127Y-80327186D01*
X138817651Y-80346234D01*
X138817651Y-80450996D01*
X138912889Y-80450996D02*
X138912889Y-80250996D01*
X138912889Y-80346234D02*
X139027175Y-80346234D01*
X139027175Y-80450996D02*
X139027175Y-80250996D01*
D13*
X137546600Y-80505357D02*
X137475171Y-80505357D01*
X137475171Y-80355357D01*
X137618028Y-80419642D02*
X137603742Y-80412500D01*
X137596600Y-80405357D01*
X137589457Y-80391071D01*
X137589457Y-80383928D01*
X137596600Y-80369642D01*
X137603742Y-80362500D01*
X137618028Y-80355357D01*
X137646600Y-80355357D01*
X137660885Y-80362500D01*
X137668028Y-80369642D01*
X137675171Y-80383928D01*
X137675171Y-80391071D01*
X137668028Y-80405357D01*
X137660885Y-80412500D01*
X137646600Y-80419642D01*
X137618028Y-80419642D01*
X137603742Y-80426785D01*
X137596600Y-80433928D01*
X137589457Y-80448214D01*
X137589457Y-80476785D01*
X137596600Y-80491071D01*
X137603742Y-80498214D01*
X137618028Y-80505357D01*
X137646600Y-80505357D01*
X137660885Y-80498214D01*
X137668028Y-80491071D01*
X137675171Y-80476785D01*
X137675171Y-80448214D01*
X137668028Y-80433928D01*
X137660885Y-80426785D01*
X137646600Y-80419642D01*
G04 #@! TO.C,L9*
D12*
X137068906Y-78444396D02*
X136954620Y-78444396D01*
X137011763Y-78444396D02*
X137011763Y-78244396D01*
X136992716Y-78272967D01*
X136973668Y-78292015D01*
X136954620Y-78301539D01*
X137259382Y-78444396D02*
X137145097Y-78444396D01*
X137202240Y-78444396D02*
X137202240Y-78244396D01*
X137183192Y-78272967D01*
X137164144Y-78292015D01*
X137145097Y-78301539D01*
X137345097Y-78311062D02*
X137345097Y-78444396D01*
X137345097Y-78330110D02*
X137354620Y-78320586D01*
X137373668Y-78311062D01*
X137402240Y-78311062D01*
X137421287Y-78320586D01*
X137430811Y-78339634D01*
X137430811Y-78444396D01*
X137526049Y-78444396D02*
X137526049Y-78244396D01*
X137526049Y-78339634D02*
X137640335Y-78339634D01*
X137640335Y-78444396D02*
X137640335Y-78244396D01*
D13*
X136154600Y-79032157D02*
X136083171Y-79032157D01*
X136083171Y-78882157D01*
X136211742Y-79032157D02*
X136240314Y-79032157D01*
X136254600Y-79025014D01*
X136261742Y-79017871D01*
X136276028Y-78996442D01*
X136283171Y-78967871D01*
X136283171Y-78910728D01*
X136276028Y-78896442D01*
X136268885Y-78889300D01*
X136254600Y-78882157D01*
X136226028Y-78882157D01*
X136211742Y-78889300D01*
X136204600Y-78896442D01*
X136197457Y-78910728D01*
X136197457Y-78946442D01*
X136204600Y-78960728D01*
X136211742Y-78967871D01*
X136226028Y-78975014D01*
X136254600Y-78975014D01*
X136268885Y-78967871D01*
X136276028Y-78960728D01*
X136283171Y-78946442D01*
G04 #@! TO.C,L10*
D12*
X134132666Y-79577236D02*
X134018380Y-79577236D01*
X134075523Y-79577236D02*
X134075523Y-79377236D01*
X134056476Y-79405807D01*
X134037428Y-79424855D01*
X134018380Y-79434379D01*
X134256476Y-79377236D02*
X134275523Y-79377236D01*
X134294571Y-79386760D01*
X134304095Y-79396283D01*
X134313619Y-79415331D01*
X134323142Y-79453426D01*
X134323142Y-79501045D01*
X134313619Y-79539140D01*
X134304095Y-79558188D01*
X134294571Y-79567712D01*
X134275523Y-79577236D01*
X134256476Y-79577236D01*
X134237428Y-79567712D01*
X134227904Y-79558188D01*
X134218380Y-79539140D01*
X134208857Y-79501045D01*
X134208857Y-79453426D01*
X134218380Y-79415331D01*
X134227904Y-79396283D01*
X134237428Y-79386760D01*
X134256476Y-79377236D01*
X134408857Y-79443902D02*
X134408857Y-79577236D01*
X134408857Y-79462950D02*
X134418380Y-79453426D01*
X134437428Y-79443902D01*
X134466000Y-79443902D01*
X134485047Y-79453426D01*
X134494571Y-79472474D01*
X134494571Y-79577236D01*
X134589809Y-79577236D02*
X134589809Y-79377236D01*
X134589809Y-79472474D02*
X134704095Y-79472474D01*
X134704095Y-79577236D02*
X134704095Y-79377236D01*
D13*
X135216177Y-78734828D02*
X135216177Y-78806257D01*
X135066177Y-78806257D01*
X135216177Y-78606257D02*
X135216177Y-78691971D01*
X135216177Y-78649114D02*
X135066177Y-78649114D01*
X135087605Y-78663400D01*
X135101891Y-78677685D01*
X135109034Y-78691971D01*
X135066177Y-78513400D02*
X135066177Y-78499114D01*
X135073320Y-78484828D01*
X135080462Y-78477685D01*
X135094748Y-78470542D01*
X135123320Y-78463400D01*
X135159034Y-78463400D01*
X135187605Y-78470542D01*
X135201891Y-78477685D01*
X135209034Y-78484828D01*
X135216177Y-78499114D01*
X135216177Y-78513400D01*
X135209034Y-78527685D01*
X135201891Y-78534828D01*
X135187605Y-78541971D01*
X135159034Y-78549114D01*
X135123320Y-78549114D01*
X135094748Y-78541971D01*
X135080462Y-78534828D01*
X135073320Y-78527685D01*
X135066177Y-78513400D01*
G04 #@! TO.C,L11*
D12*
X135671906Y-76823876D02*
X135557620Y-76823876D01*
X135614763Y-76823876D02*
X135614763Y-76623876D01*
X135595716Y-76652447D01*
X135576668Y-76671495D01*
X135557620Y-76681019D01*
X135795716Y-76623876D02*
X135814763Y-76623876D01*
X135833811Y-76633400D01*
X135843335Y-76642923D01*
X135852859Y-76661971D01*
X135862382Y-76700066D01*
X135862382Y-76747685D01*
X135852859Y-76785780D01*
X135843335Y-76804828D01*
X135833811Y-76814352D01*
X135814763Y-76823876D01*
X135795716Y-76823876D01*
X135776668Y-76814352D01*
X135767144Y-76804828D01*
X135757620Y-76785780D01*
X135748097Y-76747685D01*
X135748097Y-76700066D01*
X135757620Y-76661971D01*
X135767144Y-76642923D01*
X135776668Y-76633400D01*
X135795716Y-76623876D01*
X135948097Y-76690542D02*
X135948097Y-76823876D01*
X135948097Y-76709590D02*
X135957620Y-76700066D01*
X135976668Y-76690542D01*
X136005240Y-76690542D01*
X136024287Y-76700066D01*
X136033811Y-76719114D01*
X136033811Y-76823876D01*
X136129049Y-76823876D02*
X136129049Y-76623876D01*
X136129049Y-76719114D02*
X136243335Y-76719114D01*
X136243335Y-76823876D02*
X136243335Y-76623876D01*
D13*
X135221257Y-77312428D02*
X135221257Y-77383857D01*
X135071257Y-77383857D01*
X135221257Y-77183857D02*
X135221257Y-77269571D01*
X135221257Y-77226714D02*
X135071257Y-77226714D01*
X135092685Y-77241000D01*
X135106971Y-77255285D01*
X135114114Y-77269571D01*
X135221257Y-77041000D02*
X135221257Y-77126714D01*
X135221257Y-77083857D02*
X135071257Y-77083857D01*
X135092685Y-77098142D01*
X135106971Y-77112428D01*
X135114114Y-77126714D01*
G04 #@! TO.C,R1*
D12*
X141148146Y-88269116D02*
X141033860Y-88269116D01*
X141091003Y-88269116D02*
X141091003Y-88069116D01*
X141071956Y-88097687D01*
X141052908Y-88116735D01*
X141033860Y-88126259D01*
X141271956Y-88069116D02*
X141291003Y-88069116D01*
X141310051Y-88078640D01*
X141319575Y-88088163D01*
X141329099Y-88107211D01*
X141338622Y-88145306D01*
X141338622Y-88192925D01*
X141329099Y-88231020D01*
X141319575Y-88250068D01*
X141310051Y-88259592D01*
X141291003Y-88269116D01*
X141271956Y-88269116D01*
X141252908Y-88259592D01*
X141243384Y-88250068D01*
X141233860Y-88231020D01*
X141224337Y-88192925D01*
X141224337Y-88145306D01*
X141233860Y-88107211D01*
X141243384Y-88088163D01*
X141252908Y-88078640D01*
X141271956Y-88069116D01*
X141462432Y-88069116D02*
X141481480Y-88069116D01*
X141500527Y-88078640D01*
X141510051Y-88088163D01*
X141519575Y-88107211D01*
X141529099Y-88145306D01*
X141529099Y-88192925D01*
X141519575Y-88231020D01*
X141510051Y-88250068D01*
X141500527Y-88259592D01*
X141481480Y-88269116D01*
X141462432Y-88269116D01*
X141443384Y-88259592D01*
X141433860Y-88250068D01*
X141424337Y-88231020D01*
X141414813Y-88192925D01*
X141414813Y-88145306D01*
X141424337Y-88107211D01*
X141433860Y-88088163D01*
X141443384Y-88078640D01*
X141462432Y-88069116D01*
X141614813Y-88269116D02*
X141614813Y-88069116D01*
X141729099Y-88269116D02*
X141643384Y-88154830D01*
X141729099Y-88069116D02*
X141614813Y-88183401D01*
D13*
X140025520Y-88165217D02*
X139975520Y-88093788D01*
X139939805Y-88165217D02*
X139939805Y-88015217D01*
X139996948Y-88015217D01*
X140011234Y-88022360D01*
X140018377Y-88029502D01*
X140025520Y-88043788D01*
X140025520Y-88065217D01*
X140018377Y-88079502D01*
X140011234Y-88086645D01*
X139996948Y-88093788D01*
X139939805Y-88093788D01*
X140168377Y-88165217D02*
X140082662Y-88165217D01*
X140125520Y-88165217D02*
X140125520Y-88015217D01*
X140111234Y-88036645D01*
X140096948Y-88050931D01*
X140082662Y-88058074D01*
G04 #@! TO.C,U2*
D12*
X135250689Y-85473853D02*
X135345927Y-85473853D01*
X135231641Y-85530996D02*
X135298308Y-85330996D01*
X135364975Y-85530996D01*
X135403070Y-85330996D02*
X135517356Y-85330996D01*
X135460213Y-85530996D02*
X135460213Y-85330996D01*
X135574499Y-85521472D02*
X135603070Y-85530996D01*
X135650689Y-85530996D01*
X135669737Y-85521472D01*
X135679260Y-85511948D01*
X135688784Y-85492900D01*
X135688784Y-85473853D01*
X135679260Y-85454805D01*
X135669737Y-85445281D01*
X135650689Y-85435758D01*
X135612594Y-85426234D01*
X135593546Y-85416710D01*
X135584022Y-85407186D01*
X135574499Y-85388139D01*
X135574499Y-85369091D01*
X135584022Y-85350043D01*
X135593546Y-85340520D01*
X135612594Y-85330996D01*
X135660213Y-85330996D01*
X135688784Y-85340520D01*
X135764975Y-85473853D02*
X135860213Y-85473853D01*
X135745927Y-85530996D02*
X135812594Y-85330996D01*
X135879260Y-85530996D01*
X135945927Y-85530996D02*
X135945927Y-85330996D01*
X136012594Y-85473853D01*
X136079260Y-85330996D01*
X136079260Y-85530996D01*
X136288784Y-85530996D02*
X136222118Y-85435758D01*
X136174499Y-85530996D02*
X136174499Y-85330996D01*
X136250689Y-85330996D01*
X136269737Y-85340520D01*
X136279260Y-85350043D01*
X136288784Y-85369091D01*
X136288784Y-85397662D01*
X136279260Y-85416710D01*
X136269737Y-85426234D01*
X136250689Y-85435758D01*
X136174499Y-85435758D01*
X136355451Y-85330996D02*
X136479260Y-85330996D01*
X136412594Y-85407186D01*
X136441165Y-85407186D01*
X136460213Y-85416710D01*
X136469737Y-85426234D01*
X136479260Y-85445281D01*
X136479260Y-85492900D01*
X136469737Y-85511948D01*
X136460213Y-85521472D01*
X136441165Y-85530996D01*
X136384022Y-85530996D01*
X136364975Y-85521472D01*
X136355451Y-85511948D01*
X136650689Y-85397662D02*
X136650689Y-85530996D01*
X136603070Y-85321472D02*
X136555451Y-85464329D01*
X136679260Y-85464329D01*
X136812594Y-85330996D02*
X136812594Y-85473853D01*
X136803070Y-85502424D01*
X136784022Y-85521472D01*
X136755451Y-85530996D01*
X136736403Y-85530996D01*
X137012594Y-85530996D02*
X136898308Y-85530996D01*
X136955451Y-85530996D02*
X136955451Y-85330996D01*
X136936403Y-85359567D01*
X136917356Y-85378615D01*
X136898308Y-85388139D01*
X137126880Y-85416710D02*
X137107832Y-85407186D01*
X137098308Y-85397662D01*
X137088784Y-85378615D01*
X137088784Y-85369091D01*
X137098308Y-85350043D01*
X137107832Y-85340520D01*
X137126880Y-85330996D01*
X137164975Y-85330996D01*
X137184022Y-85340520D01*
X137193546Y-85350043D01*
X137203070Y-85369091D01*
X137203070Y-85378615D01*
X137193546Y-85397662D01*
X137184022Y-85407186D01*
X137164975Y-85416710D01*
X137126880Y-85416710D01*
X137107832Y-85426234D01*
X137098308Y-85435758D01*
X137088784Y-85454805D01*
X137088784Y-85492900D01*
X137098308Y-85511948D01*
X137107832Y-85521472D01*
X137126880Y-85530996D01*
X137164975Y-85530996D01*
X137184022Y-85521472D01*
X137193546Y-85511948D01*
X137203070Y-85492900D01*
X137203070Y-85454805D01*
X137193546Y-85435758D01*
X137184022Y-85426234D01*
X137164975Y-85416710D01*
X137355451Y-85426234D02*
X137384022Y-85435758D01*
X137393546Y-85445281D01*
X137403070Y-85464329D01*
X137403070Y-85492900D01*
X137393546Y-85511948D01*
X137384022Y-85521472D01*
X137364975Y-85530996D01*
X137288784Y-85530996D01*
X137288784Y-85330996D01*
X137355451Y-85330996D01*
X137374499Y-85340520D01*
X137384022Y-85350043D01*
X137393546Y-85369091D01*
X137393546Y-85388139D01*
X137384022Y-85407186D01*
X137374499Y-85416710D01*
X137355451Y-85426234D01*
X137288784Y-85426234D01*
D10*
X135966238Y-83918452D02*
X135966238Y-84242261D01*
X135985285Y-84280357D01*
X136004333Y-84299404D01*
X136042428Y-84318452D01*
X136118619Y-84318452D01*
X136156714Y-84299404D01*
X136175761Y-84280357D01*
X136194809Y-84242261D01*
X136194809Y-83918452D01*
X136366238Y-83956547D02*
X136385285Y-83937500D01*
X136423380Y-83918452D01*
X136518619Y-83918452D01*
X136556714Y-83937500D01*
X136575761Y-83956547D01*
X136594809Y-83994642D01*
X136594809Y-84032738D01*
X136575761Y-84089880D01*
X136347190Y-84318452D01*
X136594809Y-84318452D01*
G04 #@! TO.C,U3*
D12*
X138140601Y-74508032D02*
X138169173Y-74517556D01*
X138216792Y-74517556D01*
X138235840Y-74508032D01*
X138245363Y-74498508D01*
X138254887Y-74479460D01*
X138254887Y-74460413D01*
X138245363Y-74441365D01*
X138235840Y-74431841D01*
X138216792Y-74422318D01*
X138178697Y-74412794D01*
X138159649Y-74403270D01*
X138150125Y-74393746D01*
X138140601Y-74374699D01*
X138140601Y-74355651D01*
X138150125Y-74336603D01*
X138159649Y-74327080D01*
X138178697Y-74317556D01*
X138226316Y-74317556D01*
X138254887Y-74327080D01*
X138340601Y-74517556D02*
X138340601Y-74317556D01*
X138454887Y-74517556D02*
X138369173Y-74403270D01*
X138454887Y-74317556D02*
X138340601Y-74431841D01*
X138578697Y-74422318D02*
X138578697Y-74517556D01*
X138512030Y-74317556D02*
X138578697Y-74422318D01*
X138645363Y-74317556D01*
X138816792Y-74517556D02*
X138702506Y-74517556D01*
X138759649Y-74517556D02*
X138759649Y-74317556D01*
X138740601Y-74346127D01*
X138721554Y-74365175D01*
X138702506Y-74374699D01*
X138883459Y-74317556D02*
X139007268Y-74317556D01*
X138940601Y-74393746D01*
X138969173Y-74393746D01*
X138988220Y-74403270D01*
X138997744Y-74412794D01*
X139007268Y-74431841D01*
X139007268Y-74479460D01*
X138997744Y-74498508D01*
X138988220Y-74508032D01*
X138969173Y-74517556D01*
X138912030Y-74517556D01*
X138892982Y-74508032D01*
X138883459Y-74498508D01*
X139073935Y-74317556D02*
X139197744Y-74317556D01*
X139131078Y-74393746D01*
X139159649Y-74393746D01*
X139178697Y-74403270D01*
X139188220Y-74412794D01*
X139197744Y-74431841D01*
X139197744Y-74479460D01*
X139188220Y-74498508D01*
X139178697Y-74508032D01*
X139159649Y-74517556D01*
X139102506Y-74517556D01*
X139083459Y-74508032D01*
X139073935Y-74498508D01*
X139264411Y-74317556D02*
X139397744Y-74317556D01*
X139312030Y-74517556D01*
X139454887Y-74317556D02*
X139578697Y-74317556D01*
X139512030Y-74393746D01*
X139540601Y-74393746D01*
X139559649Y-74403270D01*
X139569173Y-74412794D01*
X139578697Y-74431841D01*
X139578697Y-74479460D01*
X139569173Y-74498508D01*
X139559649Y-74508032D01*
X139540601Y-74517556D01*
X139483459Y-74517556D01*
X139464411Y-74508032D01*
X139454887Y-74498508D01*
X139664411Y-74441365D02*
X139816792Y-74441365D01*
X139997744Y-74384222D02*
X139997744Y-74517556D01*
X139950125Y-74308032D02*
X139902506Y-74450889D01*
X140026316Y-74450889D01*
X140188220Y-74317556D02*
X140150125Y-74317556D01*
X140131078Y-74327080D01*
X140121554Y-74336603D01*
X140102506Y-74365175D01*
X140092982Y-74403270D01*
X140092982Y-74479460D01*
X140102506Y-74498508D01*
X140112030Y-74508032D01*
X140131078Y-74517556D01*
X140169173Y-74517556D01*
X140188220Y-74508032D01*
X140197744Y-74498508D01*
X140207268Y-74479460D01*
X140207268Y-74431841D01*
X140197744Y-74412794D01*
X140188220Y-74403270D01*
X140169173Y-74393746D01*
X140131078Y-74393746D01*
X140112030Y-74403270D01*
X140102506Y-74412794D01*
X140092982Y-74431841D01*
X140331078Y-74317556D02*
X140350125Y-74317556D01*
X140369173Y-74327080D01*
X140378697Y-74336603D01*
X140388220Y-74355651D01*
X140397744Y-74393746D01*
X140397744Y-74441365D01*
X140388220Y-74479460D01*
X140378697Y-74498508D01*
X140369173Y-74508032D01*
X140350125Y-74517556D01*
X140331078Y-74517556D01*
X140312030Y-74508032D01*
X140302506Y-74498508D01*
X140292982Y-74479460D01*
X140283459Y-74441365D01*
X140283459Y-74393746D01*
X140292982Y-74355651D01*
X140302506Y-74336603D01*
X140312030Y-74327080D01*
X140331078Y-74317556D01*
X140578697Y-74517556D02*
X140483459Y-74517556D01*
X140483459Y-74317556D01*
X140712030Y-74412794D02*
X140645363Y-74412794D01*
X140645363Y-74517556D02*
X140645363Y-74317556D01*
X140740601Y-74317556D01*
D13*
X139287619Y-75500476D02*
X139287619Y-75662380D01*
X139297142Y-75681428D01*
X139306666Y-75690952D01*
X139325714Y-75700476D01*
X139363809Y-75700476D01*
X139382857Y-75690952D01*
X139392380Y-75681428D01*
X139401904Y-75662380D01*
X139401904Y-75500476D01*
X139478095Y-75500476D02*
X139601904Y-75500476D01*
X139535238Y-75576666D01*
X139563809Y-75576666D01*
X139582857Y-75586190D01*
X139592380Y-75595714D01*
X139601904Y-75614761D01*
X139601904Y-75662380D01*
X139592380Y-75681428D01*
X139582857Y-75690952D01*
X139563809Y-75700476D01*
X139506666Y-75700476D01*
X139487619Y-75690952D01*
X139478095Y-75681428D01*
G04 #@! TO.C,L3*
D12*
X134067243Y-80501758D02*
X134057720Y-80492234D01*
X134048196Y-80473186D01*
X134048196Y-80425567D01*
X134057720Y-80406520D01*
X134067243Y-80396996D01*
X134086291Y-80387472D01*
X134105339Y-80387472D01*
X134133910Y-80396996D01*
X134248196Y-80511281D01*
X134248196Y-80387472D01*
X134229148Y-80301758D02*
X134238672Y-80292234D01*
X134248196Y-80301758D01*
X134238672Y-80311281D01*
X134229148Y-80301758D01*
X134248196Y-80301758D01*
X134067243Y-80216043D02*
X134057720Y-80206520D01*
X134048196Y-80187472D01*
X134048196Y-80139853D01*
X134057720Y-80120805D01*
X134067243Y-80111281D01*
X134086291Y-80101758D01*
X134105339Y-80101758D01*
X134133910Y-80111281D01*
X134248196Y-80225567D01*
X134248196Y-80101758D01*
X134114862Y-80016043D02*
X134248196Y-80016043D01*
X134133910Y-80016043D02*
X134124386Y-80006520D01*
X134114862Y-79987472D01*
X134114862Y-79958900D01*
X134124386Y-79939853D01*
X134143434Y-79930329D01*
X134248196Y-79930329D01*
X134248196Y-79835091D02*
X134048196Y-79835091D01*
X134143434Y-79835091D02*
X134143434Y-79720805D01*
X134248196Y-79720805D02*
X134048196Y-79720805D01*
D13*
X133590457Y-79609240D02*
X133590457Y-79680668D01*
X133440457Y-79680668D01*
X133440457Y-79573525D02*
X133440457Y-79480668D01*
X133497600Y-79530668D01*
X133497600Y-79509240D01*
X133504742Y-79494954D01*
X133511885Y-79487811D01*
X133526171Y-79480668D01*
X133561885Y-79480668D01*
X133576171Y-79487811D01*
X133583314Y-79494954D01*
X133590457Y-79509240D01*
X133590457Y-79552097D01*
X133583314Y-79566382D01*
X133576171Y-79573525D01*
G04 #@! TD*
M02*
