G04 #@! TF.GenerationSoftware,KiCad,Pcbnew,(5.1.2-1)-1*
G04 #@! TF.CreationDate,2019-07-04T12:10:22+02:00*
G04 #@! TF.ProjectId,TLM-breakout-v1_2,544c4d2d-6272-4656-916b-6f75742d7631,1.1*
G04 #@! TF.SameCoordinates,Original*
G04 #@! TF.FileFunction,Copper,L2,Bot*
G04 #@! TF.FilePolarity,Positive*
%FSLAX46Y46*%
G04 Gerber Fmt 4.6, Leading zero omitted, Abs format (unit mm)*
G04 Created by KiCad (PCBNEW (5.1.2-1)-1) date 2019-07-04 12:10:22*
%MOMM*%
%LPD*%
G04 APERTURE LIST*
%ADD10C,0.150000*%
%ADD11C,0.500000*%
%ADD12C,0.100000*%
%ADD13C,3.175000*%
%ADD14C,2.540000*%
%ADD15O,1.700000X1.700000*%
%ADD16R,1.350000X4.700000*%
%ADD17R,1.500000X4.700000*%
%ADD18O,1.400000X1.900000*%
%ADD19C,1.250000*%
%ADD20C,0.450000*%
%ADD21C,0.550000*%
%ADD22C,0.600000*%
%ADD23C,0.400000*%
%ADD24C,0.350000*%
%ADD25C,0.180000*%
%ADD26C,0.350000*%
%ADD27C,0.300000*%
%ADD28C,0.250000*%
%ADD29C,0.200000*%
%ADD30C,0.152400*%
%ADD31C,0.254000*%
G04 APERTURE END LIST*
D10*
X127000000Y-119380000D02*
G75*
G02X124460000Y-116840000I0J2540000D01*
G01*
X147320000Y-116840000D02*
G75*
G02X144780000Y-119380000I-2540000J0D01*
G01*
X144780000Y-68580000D02*
G75*
G02X147320000Y-71120000I0J-2540000D01*
G01*
X124460000Y-71120000D02*
G75*
G02X127000000Y-68580000I2540000J0D01*
G01*
X124460000Y-116840000D02*
X124460000Y-71120000D01*
X144780000Y-119380000D02*
X127000000Y-119380000D01*
X147320000Y-71120000D02*
X147320000Y-116840000D01*
X127000000Y-68580000D02*
X144780000Y-68580000D01*
D11*
X142275000Y-91900000D03*
D12*
G36*
X142275000Y-91150602D02*
G01*
X142299534Y-91150602D01*
X142348365Y-91155412D01*
X142396490Y-91164984D01*
X142443445Y-91179228D01*
X142488778Y-91198005D01*
X142532051Y-91221136D01*
X142572850Y-91248396D01*
X142610779Y-91279524D01*
X142645476Y-91314221D01*
X142676604Y-91352150D01*
X142703864Y-91392949D01*
X142726995Y-91436222D01*
X142745772Y-91481555D01*
X142760016Y-91528510D01*
X142769588Y-91576635D01*
X142774398Y-91625466D01*
X142774398Y-91650000D01*
X142775000Y-91650000D01*
X142775000Y-92150000D01*
X142774398Y-92150000D01*
X142774398Y-92174534D01*
X142769588Y-92223365D01*
X142760016Y-92271490D01*
X142745772Y-92318445D01*
X142726995Y-92363778D01*
X142703864Y-92407051D01*
X142676604Y-92447850D01*
X142645476Y-92485779D01*
X142610779Y-92520476D01*
X142572850Y-92551604D01*
X142532051Y-92578864D01*
X142488778Y-92601995D01*
X142443445Y-92620772D01*
X142396490Y-92635016D01*
X142348365Y-92644588D01*
X142299534Y-92649398D01*
X142275000Y-92649398D01*
X142275000Y-92650000D01*
X141775000Y-92650000D01*
X141775000Y-91150000D01*
X142275000Y-91150000D01*
X142275000Y-91150602D01*
X142275000Y-91150602D01*
G37*
D11*
X140975000Y-91900000D03*
D12*
G36*
X141475000Y-91600000D02*
G01*
X141875000Y-91600000D01*
X141875000Y-92200000D01*
X141475000Y-92200000D01*
X141475000Y-92650000D01*
X140975000Y-92650000D01*
X140975000Y-92649398D01*
X140950466Y-92649398D01*
X140901635Y-92644588D01*
X140853510Y-92635016D01*
X140806555Y-92620772D01*
X140761222Y-92601995D01*
X140717949Y-92578864D01*
X140677150Y-92551604D01*
X140639221Y-92520476D01*
X140604524Y-92485779D01*
X140573396Y-92447850D01*
X140546136Y-92407051D01*
X140523005Y-92363778D01*
X140504228Y-92318445D01*
X140489984Y-92271490D01*
X140480412Y-92223365D01*
X140475602Y-92174534D01*
X140475602Y-92150000D01*
X140475000Y-92150000D01*
X140475000Y-91650000D01*
X140475602Y-91650000D01*
X140475602Y-91625466D01*
X140480412Y-91576635D01*
X140489984Y-91528510D01*
X140504228Y-91481555D01*
X140523005Y-91436222D01*
X140546136Y-91392949D01*
X140573396Y-91352150D01*
X140604524Y-91314221D01*
X140639221Y-91279524D01*
X140677150Y-91248396D01*
X140717949Y-91221136D01*
X140761222Y-91198005D01*
X140806555Y-91179228D01*
X140853510Y-91164984D01*
X140901635Y-91155412D01*
X140950466Y-91150602D01*
X140975000Y-91150602D01*
X140975000Y-91150000D01*
X141475000Y-91150000D01*
X141475000Y-91600000D01*
X141475000Y-91600000D01*
G37*
D11*
X145640000Y-80300000D03*
D12*
G36*
X145340000Y-79800000D02*
G01*
X145340000Y-79400000D01*
X145940000Y-79400000D01*
X145940000Y-79800000D01*
X146390000Y-79800000D01*
X146390000Y-80300000D01*
X146389398Y-80300000D01*
X146389398Y-80324534D01*
X146384588Y-80373365D01*
X146375016Y-80421490D01*
X146360772Y-80468445D01*
X146341995Y-80513778D01*
X146318864Y-80557051D01*
X146291604Y-80597850D01*
X146260476Y-80635779D01*
X146225779Y-80670476D01*
X146187850Y-80701604D01*
X146147051Y-80728864D01*
X146103778Y-80751995D01*
X146058445Y-80770772D01*
X146011490Y-80785016D01*
X145963365Y-80794588D01*
X145914534Y-80799398D01*
X145890000Y-80799398D01*
X145890000Y-80800000D01*
X145390000Y-80800000D01*
X145390000Y-80799398D01*
X145365466Y-80799398D01*
X145316635Y-80794588D01*
X145268510Y-80785016D01*
X145221555Y-80770772D01*
X145176222Y-80751995D01*
X145132949Y-80728864D01*
X145092150Y-80701604D01*
X145054221Y-80670476D01*
X145019524Y-80635779D01*
X144988396Y-80597850D01*
X144961136Y-80557051D01*
X144938005Y-80513778D01*
X144919228Y-80468445D01*
X144904984Y-80421490D01*
X144895412Y-80373365D01*
X144890602Y-80324534D01*
X144890602Y-80300000D01*
X144890000Y-80300000D01*
X144890000Y-79800000D01*
X145340000Y-79800000D01*
X145340000Y-79800000D01*
G37*
D11*
X145640000Y-79000000D03*
D12*
G36*
X144890602Y-79000000D02*
G01*
X144890602Y-78975466D01*
X144895412Y-78926635D01*
X144904984Y-78878510D01*
X144919228Y-78831555D01*
X144938005Y-78786222D01*
X144961136Y-78742949D01*
X144988396Y-78702150D01*
X145019524Y-78664221D01*
X145054221Y-78629524D01*
X145092150Y-78598396D01*
X145132949Y-78571136D01*
X145176222Y-78548005D01*
X145221555Y-78529228D01*
X145268510Y-78514984D01*
X145316635Y-78505412D01*
X145365466Y-78500602D01*
X145390000Y-78500602D01*
X145390000Y-78500000D01*
X145890000Y-78500000D01*
X145890000Y-78500602D01*
X145914534Y-78500602D01*
X145963365Y-78505412D01*
X146011490Y-78514984D01*
X146058445Y-78529228D01*
X146103778Y-78548005D01*
X146147051Y-78571136D01*
X146187850Y-78598396D01*
X146225779Y-78629524D01*
X146260476Y-78664221D01*
X146291604Y-78702150D01*
X146318864Y-78742949D01*
X146341995Y-78786222D01*
X146360772Y-78831555D01*
X146375016Y-78878510D01*
X146384588Y-78926635D01*
X146389398Y-78975466D01*
X146389398Y-79000000D01*
X146390000Y-79000000D01*
X146390000Y-79500000D01*
X144890000Y-79500000D01*
X144890000Y-79000000D01*
X144890602Y-79000000D01*
X144890602Y-79000000D01*
G37*
D11*
X142125000Y-88100000D03*
D12*
G36*
X142125000Y-88849398D02*
G01*
X142100466Y-88849398D01*
X142051635Y-88844588D01*
X142003510Y-88835016D01*
X141956555Y-88820772D01*
X141911222Y-88801995D01*
X141867949Y-88778864D01*
X141827150Y-88751604D01*
X141789221Y-88720476D01*
X141754524Y-88685779D01*
X141723396Y-88647850D01*
X141696136Y-88607051D01*
X141673005Y-88563778D01*
X141654228Y-88518445D01*
X141639984Y-88471490D01*
X141630412Y-88423365D01*
X141625602Y-88374534D01*
X141625602Y-88350000D01*
X141625000Y-88350000D01*
X141625000Y-87850000D01*
X141625602Y-87850000D01*
X141625602Y-87825466D01*
X141630412Y-87776635D01*
X141639984Y-87728510D01*
X141654228Y-87681555D01*
X141673005Y-87636222D01*
X141696136Y-87592949D01*
X141723396Y-87552150D01*
X141754524Y-87514221D01*
X141789221Y-87479524D01*
X141827150Y-87448396D01*
X141867949Y-87421136D01*
X141911222Y-87398005D01*
X141956555Y-87379228D01*
X142003510Y-87364984D01*
X142051635Y-87355412D01*
X142100466Y-87350602D01*
X142125000Y-87350602D01*
X142125000Y-87350000D01*
X142625000Y-87350000D01*
X142625000Y-88850000D01*
X142125000Y-88850000D01*
X142125000Y-88849398D01*
X142125000Y-88849398D01*
G37*
D11*
X143425000Y-88100000D03*
D12*
G36*
X142925000Y-88400000D02*
G01*
X142525000Y-88400000D01*
X142525000Y-87800000D01*
X142925000Y-87800000D01*
X142925000Y-87350000D01*
X143425000Y-87350000D01*
X143425000Y-87350602D01*
X143449534Y-87350602D01*
X143498365Y-87355412D01*
X143546490Y-87364984D01*
X143593445Y-87379228D01*
X143638778Y-87398005D01*
X143682051Y-87421136D01*
X143722850Y-87448396D01*
X143760779Y-87479524D01*
X143795476Y-87514221D01*
X143826604Y-87552150D01*
X143853864Y-87592949D01*
X143876995Y-87636222D01*
X143895772Y-87681555D01*
X143910016Y-87728510D01*
X143919588Y-87776635D01*
X143924398Y-87825466D01*
X143924398Y-87850000D01*
X143925000Y-87850000D01*
X143925000Y-88350000D01*
X143924398Y-88350000D01*
X143924398Y-88374534D01*
X143919588Y-88423365D01*
X143910016Y-88471490D01*
X143895772Y-88518445D01*
X143876995Y-88563778D01*
X143853864Y-88607051D01*
X143826604Y-88647850D01*
X143795476Y-88685779D01*
X143760779Y-88720476D01*
X143722850Y-88751604D01*
X143682051Y-88778864D01*
X143638778Y-88801995D01*
X143593445Y-88820772D01*
X143546490Y-88835016D01*
X143498365Y-88844588D01*
X143449534Y-88849398D01*
X143425000Y-88849398D01*
X143425000Y-88850000D01*
X142925000Y-88850000D01*
X142925000Y-88400000D01*
X142925000Y-88400000D01*
G37*
D11*
X139060000Y-102620000D03*
D12*
G36*
X138760000Y-102120000D02*
G01*
X138760000Y-101720000D01*
X139360000Y-101720000D01*
X139360000Y-102120000D01*
X139810000Y-102120000D01*
X139810000Y-102620000D01*
X139809398Y-102620000D01*
X139809398Y-102644534D01*
X139804588Y-102693365D01*
X139795016Y-102741490D01*
X139780772Y-102788445D01*
X139761995Y-102833778D01*
X139738864Y-102877051D01*
X139711604Y-102917850D01*
X139680476Y-102955779D01*
X139645779Y-102990476D01*
X139607850Y-103021604D01*
X139567051Y-103048864D01*
X139523778Y-103071995D01*
X139478445Y-103090772D01*
X139431490Y-103105016D01*
X139383365Y-103114588D01*
X139334534Y-103119398D01*
X139310000Y-103119398D01*
X139310000Y-103120000D01*
X138810000Y-103120000D01*
X138810000Y-103119398D01*
X138785466Y-103119398D01*
X138736635Y-103114588D01*
X138688510Y-103105016D01*
X138641555Y-103090772D01*
X138596222Y-103071995D01*
X138552949Y-103048864D01*
X138512150Y-103021604D01*
X138474221Y-102990476D01*
X138439524Y-102955779D01*
X138408396Y-102917850D01*
X138381136Y-102877051D01*
X138358005Y-102833778D01*
X138339228Y-102788445D01*
X138324984Y-102741490D01*
X138315412Y-102693365D01*
X138310602Y-102644534D01*
X138310602Y-102620000D01*
X138310000Y-102620000D01*
X138310000Y-102120000D01*
X138760000Y-102120000D01*
X138760000Y-102120000D01*
G37*
D11*
X139060000Y-101320000D03*
D12*
G36*
X138310602Y-101320000D02*
G01*
X138310602Y-101295466D01*
X138315412Y-101246635D01*
X138324984Y-101198510D01*
X138339228Y-101151555D01*
X138358005Y-101106222D01*
X138381136Y-101062949D01*
X138408396Y-101022150D01*
X138439524Y-100984221D01*
X138474221Y-100949524D01*
X138512150Y-100918396D01*
X138552949Y-100891136D01*
X138596222Y-100868005D01*
X138641555Y-100849228D01*
X138688510Y-100834984D01*
X138736635Y-100825412D01*
X138785466Y-100820602D01*
X138810000Y-100820602D01*
X138810000Y-100820000D01*
X139310000Y-100820000D01*
X139310000Y-100820602D01*
X139334534Y-100820602D01*
X139383365Y-100825412D01*
X139431490Y-100834984D01*
X139478445Y-100849228D01*
X139523778Y-100868005D01*
X139567051Y-100891136D01*
X139607850Y-100918396D01*
X139645779Y-100949524D01*
X139680476Y-100984221D01*
X139711604Y-101022150D01*
X139738864Y-101062949D01*
X139761995Y-101106222D01*
X139780772Y-101151555D01*
X139795016Y-101198510D01*
X139804588Y-101246635D01*
X139809398Y-101295466D01*
X139809398Y-101320000D01*
X139810000Y-101320000D01*
X139810000Y-101820000D01*
X138310000Y-101820000D01*
X138310000Y-101320000D01*
X138310602Y-101320000D01*
X138310602Y-101320000D01*
G37*
D13*
X127000000Y-71116000D03*
X144780000Y-71116000D03*
D14*
X144780000Y-116836000D03*
X127000000Y-116836000D03*
D15*
X125730000Y-74926000D03*
X125730000Y-77466000D03*
X125730000Y-80006000D03*
X125730000Y-82546000D03*
X125730000Y-85086000D03*
X125730000Y-87626000D03*
X125730000Y-90166000D03*
X125730000Y-92706000D03*
X125730000Y-95246000D03*
X125730000Y-97786000D03*
X125730000Y-100326000D03*
X125730000Y-102866000D03*
X125730000Y-105406000D03*
X125730000Y-107946000D03*
X125730000Y-110486000D03*
X125730000Y-113026000D03*
X146050000Y-113026000D03*
X146050000Y-110486000D03*
X146050000Y-107946000D03*
X146050000Y-105406000D03*
X146050000Y-102866000D03*
X146050000Y-100326000D03*
X146050000Y-97786000D03*
X146050000Y-95246000D03*
X146050000Y-92706000D03*
X146050000Y-90166000D03*
X146050000Y-87626000D03*
X146050000Y-85086000D03*
D16*
X133065000Y-116990000D03*
D17*
X138715000Y-116990000D03*
D18*
X132275000Y-70200000D03*
X139525000Y-70200000D03*
D19*
X133475000Y-73162500D03*
X138325000Y-73162500D03*
D20*
X143020000Y-76100000D03*
X145180000Y-77500000D03*
X146350000Y-77480000D03*
X146370000Y-81770000D03*
X145650000Y-81650000D03*
X143060000Y-82980000D03*
D21*
X140900000Y-106300000D03*
D11*
X128270000Y-110490000D03*
X128270000Y-111760000D03*
X128270000Y-113030000D03*
X128270000Y-114300000D03*
X129540000Y-114300000D03*
X129540000Y-115570000D03*
X129540000Y-116840000D03*
X129540000Y-118110000D03*
X129540000Y-113030000D03*
X129540000Y-111760000D03*
X129540000Y-110490000D03*
X130810000Y-110490000D03*
X130810000Y-111760000D03*
X130810000Y-113030000D03*
X142240000Y-115570000D03*
X142240000Y-116840000D03*
X142240000Y-118110000D03*
X144780000Y-114300000D03*
X143510000Y-107950000D03*
X143510000Y-109220000D03*
X142240000Y-109220000D03*
X142240000Y-107950000D03*
X140970000Y-107950000D03*
X140970000Y-109220000D03*
X139700000Y-109220000D03*
X139700000Y-107950000D03*
X138430000Y-107950000D03*
X138430000Y-109220000D03*
X137160000Y-109220000D03*
X137160000Y-107950000D03*
X135890000Y-107950000D03*
X135890000Y-109220000D03*
X134620000Y-107950000D03*
X130810000Y-107950000D03*
X129540000Y-109220000D03*
X128270000Y-109220000D03*
X129545602Y-107987410D03*
X134048500Y-113728500D03*
X132651500Y-113728500D03*
X139700000Y-106680000D03*
X138430000Y-106680000D03*
X138430000Y-106680000D03*
X138430000Y-106680000D03*
X135890000Y-106680000D03*
X134620000Y-106680000D03*
X133350000Y-106680000D03*
X133350000Y-107950000D03*
X132080000Y-107950000D03*
X132080000Y-106680000D03*
X132080000Y-105410000D03*
X133350000Y-105410000D03*
X134620000Y-105410000D03*
X135890000Y-105410000D03*
X137160000Y-105410000D03*
X137160000Y-106680000D03*
X138430000Y-105410000D03*
X138430000Y-105410000D03*
X138430000Y-105410000D03*
X139700000Y-105410000D03*
X139700000Y-104140000D03*
X138430000Y-104140000D03*
X137160000Y-104140000D03*
X135890000Y-104140000D03*
X134620000Y-104140000D03*
X134620000Y-104140000D03*
X134620000Y-104140000D03*
X132080000Y-104140000D03*
X127000000Y-111760000D03*
X127000000Y-114300000D03*
X133350000Y-104140000D03*
D22*
X130900000Y-106300000D03*
D11*
X134620000Y-101600000D03*
X132080000Y-101600000D03*
X137160000Y-102870000D03*
X137160000Y-101600000D03*
X135890000Y-102870000D03*
X134620000Y-102870000D03*
X133350000Y-102870000D03*
X133350000Y-101600000D03*
X135890000Y-101600000D03*
X132080000Y-102870000D03*
X140130000Y-86450000D03*
X136310000Y-86460000D03*
X137260000Y-86450000D03*
X135300002Y-86450000D03*
X139300000Y-86450000D03*
X139725000Y-89050000D03*
X142339723Y-86491947D03*
X143180000Y-90360000D03*
X139440000Y-77310000D03*
X141150000Y-75400000D03*
X142500000Y-74740000D03*
D23*
X131600000Y-94840000D03*
D11*
X137160000Y-99695000D03*
X135890000Y-99695000D03*
X134620000Y-99695000D03*
X133350000Y-99695000D03*
X138430000Y-99695000D03*
X140970000Y-100330000D03*
X140970000Y-104775000D03*
X138430000Y-98425000D03*
X138430000Y-97155000D03*
X138430000Y-95885000D03*
X139700000Y-95885000D03*
X139700000Y-97155000D03*
X139700000Y-98425000D03*
X140970000Y-97155000D03*
X140970000Y-95885000D03*
X137160000Y-97155000D03*
X137160000Y-98425000D03*
X135890000Y-98425000D03*
X135890000Y-97155000D03*
X134620000Y-98425000D03*
X133350000Y-97155000D03*
X132080000Y-97155000D03*
X132080000Y-98425000D03*
X130810000Y-97155000D03*
X130810000Y-98425000D03*
X137160000Y-81788000D03*
X138684000Y-81788000D03*
X140208000Y-81788000D03*
X140208000Y-83312000D03*
X138684000Y-83312000D03*
X141732000Y-79248000D03*
X141732000Y-77724000D03*
X141732000Y-76200000D03*
X143256000Y-79248000D03*
X143256000Y-77724000D03*
X143256000Y-80772000D03*
D23*
X132230000Y-91590000D03*
D24*
X129742590Y-93637483D03*
D20*
X134683500Y-118110000D03*
X134683500Y-117348000D03*
X134683500Y-116586000D03*
X134683500Y-115824000D03*
X134683500Y-115062000D03*
X135128000Y-113538000D03*
X135128000Y-112712500D03*
X134370000Y-112700000D03*
X133710000Y-112540000D03*
X133223000Y-112077500D03*
X132778500Y-111633000D03*
X132270500Y-111188500D03*
X131889500Y-110744000D03*
X134048500Y-110934500D03*
X134556500Y-111252000D03*
X135128000Y-111252000D03*
X136398000Y-111252000D03*
X137096500Y-111252000D03*
X138938000Y-111252000D03*
X140271500Y-111252000D03*
X139573000Y-111252000D03*
X135763000Y-111252000D03*
X133604000Y-110490000D03*
X137096500Y-115062000D03*
X137096500Y-115824000D03*
X137096500Y-116586000D03*
X137096500Y-117348000D03*
X137096500Y-118110000D03*
X136652000Y-113538000D03*
X136690000Y-112780000D03*
X136652000Y-114236500D03*
X135128000Y-114236500D03*
X137414000Y-112776000D03*
X138049000Y-112776000D03*
X138938000Y-112776000D03*
X139573000Y-112776000D03*
X140271500Y-112776000D03*
D11*
X132080000Y-112585500D03*
X137795000Y-113728500D03*
X139065000Y-113728500D03*
X140589000Y-113728500D03*
D20*
X127317500Y-100901500D03*
X134162500Y-89357500D03*
X134075000Y-88100000D03*
X134175500Y-86804500D03*
X134175500Y-85534500D03*
X131826000Y-84010500D03*
X129730500Y-83883500D03*
X129410000Y-77410000D03*
X126600000Y-76200000D03*
X128300000Y-73400000D03*
X125800000Y-73300000D03*
X130300000Y-75500000D03*
X130320000Y-76200000D03*
X130800000Y-73400000D03*
X137600000Y-70900000D03*
X134200000Y-70900000D03*
X133800000Y-74400000D03*
X134600000Y-72000000D03*
X127300000Y-80300000D03*
X138300000Y-75600000D03*
X137700000Y-76400000D03*
X140300000Y-72800000D03*
X134683500Y-118745000D03*
X137096500Y-118745000D03*
D11*
X143918979Y-87520800D03*
X140060000Y-85280000D03*
X144037410Y-85649807D03*
X137675000Y-91625000D03*
X130150000Y-80260002D03*
D20*
X137200000Y-71900000D03*
X137300000Y-74800000D03*
X133500000Y-75100000D03*
X132900000Y-75100000D03*
D11*
X142516896Y-89986963D03*
X140120000Y-87350000D03*
D23*
X138240000Y-84760000D03*
D11*
X143190000Y-91529998D03*
D20*
X143005000Y-72695000D03*
X132870000Y-94800000D03*
X135930000Y-77110000D03*
X133740000Y-94770000D03*
X135860000Y-77870000D03*
X128400000Y-77200000D03*
X141462249Y-94027749D03*
X143979129Y-90185979D03*
X145226912Y-88789288D03*
D11*
X130773781Y-95409332D03*
X135660000Y-95660000D03*
X137760000Y-94910000D03*
D20*
X128110000Y-84010000D03*
D11*
X141706280Y-89731112D03*
D21*
X140750000Y-102590000D03*
D20*
X140395000Y-88655000D03*
X136240000Y-84390000D03*
D11*
X127512410Y-98545656D03*
X130590000Y-99320000D03*
X136940000Y-94890000D03*
X134980000Y-95960000D03*
X131488021Y-96036605D03*
D20*
X127750000Y-84750000D03*
D11*
X144265835Y-96663857D03*
X144800001Y-98640000D03*
X130620000Y-101930000D03*
D22*
X130700000Y-102970000D03*
D25*
X129410000Y-77410000D02*
X129410000Y-77410000D01*
X126600000Y-76200000D02*
X126600000Y-76200000D01*
X126799999Y-76999999D02*
X126799999Y-76399999D01*
X127600000Y-77800000D02*
X126799999Y-76999999D01*
X129020000Y-77800000D02*
X127600000Y-77800000D01*
X126799999Y-76399999D02*
X126600000Y-76200000D01*
X129410000Y-77410000D02*
X129020000Y-77800000D01*
D26*
X143918979Y-87606021D02*
X143425000Y-88100000D01*
X143918979Y-87520800D02*
X143918979Y-87606021D01*
X140120000Y-85220000D02*
X140060000Y-85280000D01*
X143607603Y-85220000D02*
X140120000Y-85220000D01*
X144037410Y-85649807D02*
X143607603Y-85220000D01*
D27*
X144287409Y-85899806D02*
X144037410Y-85649807D01*
X145200001Y-89316001D02*
X144878501Y-89316001D01*
X144471389Y-86083786D02*
X144287409Y-85899806D01*
X144471389Y-88908889D02*
X144471389Y-86083786D01*
X144878501Y-89316001D02*
X144471389Y-88908889D01*
X146050000Y-90166000D02*
X145200001Y-89316001D01*
X137950000Y-91900000D02*
X137675000Y-91625000D01*
X140975000Y-91900000D02*
X137950000Y-91900000D01*
D26*
X125730000Y-77466000D02*
X128524002Y-80260002D01*
X129796447Y-80260002D02*
X130150000Y-80260002D01*
X128524002Y-80260002D02*
X129796447Y-80260002D01*
D27*
X137300000Y-74800000D02*
X137100000Y-74600000D01*
X137100000Y-74600000D02*
X137100000Y-73400000D01*
X137100000Y-73400000D02*
X137100000Y-72000000D01*
D26*
X135800000Y-74800000D02*
X135500000Y-75100000D01*
X135800000Y-73700000D02*
X135800000Y-74800000D01*
X136100000Y-73400000D02*
X135800000Y-73700000D01*
X137100000Y-73400000D02*
X136100000Y-73400000D01*
X133500000Y-75100000D02*
X132900000Y-75100000D01*
X135500000Y-75100000D02*
X133500000Y-75100000D01*
D27*
X137100000Y-72000000D02*
X137200000Y-71900000D01*
D28*
X142766895Y-89736964D02*
X142516896Y-89986963D01*
X142968859Y-89535000D02*
X142766895Y-89736964D01*
X144716500Y-91335075D02*
X144716500Y-89979500D01*
X139060000Y-100480755D02*
X143771961Y-95768794D01*
X143771961Y-92279614D02*
X144716500Y-91335075D01*
X144272000Y-89535000D02*
X142968859Y-89535000D01*
X143771961Y-95768794D02*
X143771961Y-92279614D01*
X144716500Y-89979500D02*
X144272000Y-89535000D01*
X139060000Y-101320000D02*
X139060000Y-100480755D01*
D29*
X138240000Y-85042842D02*
X138240000Y-84760000D01*
X139100000Y-87350000D02*
X138240000Y-86490000D01*
X138240000Y-86490000D02*
X138240000Y-85042842D01*
X140120000Y-87350000D02*
X139100000Y-87350000D01*
D26*
X142875000Y-91900000D02*
X143190000Y-91585000D01*
X143190000Y-91585000D02*
X143190000Y-91529998D01*
X142275000Y-91900000D02*
X142875000Y-91900000D01*
D25*
X143560000Y-73250000D02*
X143030000Y-72720000D01*
X146020000Y-73250000D02*
X143560000Y-73250000D01*
X146560000Y-73790000D02*
X146020000Y-73250000D01*
X145732500Y-77207500D02*
X146560000Y-76380000D01*
X146560000Y-76380000D02*
X146560000Y-73790000D01*
X145732500Y-78907500D02*
X145732500Y-77207500D01*
X145640000Y-79000000D02*
X145732500Y-78907500D01*
X132960000Y-94710000D02*
X132870000Y-94800000D01*
D29*
X133100000Y-94570000D02*
X132870000Y-94800000D01*
X133100000Y-79681800D02*
X133100000Y-94570000D01*
X135681800Y-77100000D02*
X133100000Y-79681800D01*
X135920000Y-77100000D02*
X135930000Y-77110000D01*
X135681800Y-77100000D02*
X135920000Y-77100000D01*
D25*
X133740000Y-94770000D02*
X133620000Y-94650000D01*
D29*
X133500000Y-94530000D02*
X133740000Y-94770000D01*
X133500000Y-79918200D02*
X133500000Y-94530000D01*
X135551963Y-77866237D02*
X133500000Y-79918200D01*
X135856237Y-77866237D02*
X135860000Y-77870000D01*
X135551963Y-77866237D02*
X135856237Y-77866237D01*
D28*
X126526000Y-74926000D02*
X125730000Y-74926000D01*
X128400000Y-76800000D02*
X126526000Y-74926000D01*
X128400000Y-77200000D02*
X128400000Y-76800000D01*
D30*
X143979129Y-91510869D02*
X141659998Y-93830000D01*
X143979129Y-90185979D02*
X143979129Y-90185979D01*
X141659998Y-93830000D02*
X141462249Y-94027749D01*
X141462249Y-94027749D02*
X141459999Y-94029999D01*
X143979129Y-90185979D02*
X143979129Y-91510869D01*
X144850000Y-81090000D02*
X144850000Y-88260000D01*
X145640000Y-80300000D02*
X144850000Y-81090000D01*
X144850000Y-88412376D02*
X145226912Y-88789288D01*
X144850000Y-88260000D02*
X144850000Y-88412376D01*
D29*
X136013553Y-95660000D02*
X135660000Y-95660000D01*
X137760000Y-94910000D02*
X137010000Y-95660000D01*
X137010000Y-95660000D02*
X136013553Y-95660000D01*
X128260000Y-92895551D02*
X130773781Y-95409332D01*
X128260000Y-84160000D02*
X128260000Y-92895551D01*
X128110000Y-84010000D02*
X128260000Y-84160000D01*
D26*
X142125000Y-89312392D02*
X141706280Y-89731112D01*
X142125000Y-88100000D02*
X142125000Y-89312392D01*
D28*
X139090000Y-102590000D02*
X139060000Y-102620000D01*
X140750000Y-102590000D02*
X139090000Y-102590000D01*
D30*
X140075296Y-88335296D02*
X140395000Y-88655000D01*
X139415271Y-88335296D02*
X140075296Y-88335296D01*
X137880000Y-86030000D02*
X137880000Y-86800025D01*
X136220000Y-84370000D02*
X136240000Y-84390000D01*
X137880000Y-86800025D02*
X139415271Y-88335296D01*
X136240000Y-84390000D02*
X137880000Y-86030000D01*
D27*
X127262411Y-98295657D02*
X127512410Y-98545656D01*
X127025178Y-98058424D02*
X127262411Y-98295657D01*
X127025178Y-81301178D02*
X127025178Y-98058424D01*
X125730000Y-80006000D02*
X127025178Y-81301178D01*
D29*
X127264000Y-99320000D02*
X130236447Y-99320000D01*
X125730000Y-97786000D02*
X127264000Y-99320000D01*
X130236447Y-99320000D02*
X130590000Y-99320000D01*
X136940000Y-94890000D02*
X135696447Y-94890000D01*
X134980000Y-95606447D02*
X134980000Y-95960000D01*
X135696447Y-94890000D02*
X134980000Y-95606447D01*
X131238022Y-96286604D02*
X131488021Y-96036605D01*
X130833048Y-96286604D02*
X131238022Y-96286604D01*
X127548678Y-93002234D02*
X130833048Y-96286604D01*
X127590000Y-85590000D02*
X127548678Y-93002234D01*
X127590000Y-84910000D02*
X127750000Y-84750000D01*
X127590000Y-85590000D02*
X127590000Y-84910000D01*
X146050000Y-113026000D02*
X144265835Y-111241835D01*
X144265835Y-111241835D02*
X144265835Y-97017410D01*
X144265835Y-97017410D02*
X144265835Y-96663857D01*
X146050000Y-110486000D02*
X144800001Y-109236001D01*
X144800001Y-98993553D02*
X144800001Y-98640000D01*
X144800001Y-109236001D02*
X144800001Y-98993553D01*
D25*
X130250000Y-102300000D02*
X130620000Y-101930000D01*
X127446000Y-102300000D02*
X130250000Y-102300000D01*
X125730000Y-100584000D02*
X127446000Y-102300000D01*
X125730000Y-100326000D02*
X125730000Y-100584000D01*
D29*
X130430000Y-102700000D02*
X130700000Y-102970000D01*
X125896000Y-102700000D02*
X130430000Y-102700000D01*
X125730000Y-102866000D02*
X125896000Y-102700000D01*
D31*
G36*
X145144115Y-68979437D02*
G01*
X145374173Y-69036952D01*
X145609310Y-69107944D01*
X145859943Y-69241208D01*
X146325603Y-69590453D01*
X146584203Y-69903047D01*
X146786217Y-70276664D01*
X146911814Y-70682403D01*
X146958000Y-71121831D01*
X146958000Y-84400138D01*
X146857870Y-84278130D01*
X146684740Y-84136045D01*
X146487216Y-84030467D01*
X146272891Y-83965452D01*
X146105852Y-83949000D01*
X145994148Y-83949000D01*
X145827109Y-83965452D01*
X145612784Y-84030467D01*
X145415260Y-84136045D01*
X145242130Y-84278130D01*
X145213200Y-84313381D01*
X145213200Y-81917858D01*
X145252304Y-81976381D01*
X145323619Y-82047696D01*
X145407477Y-82103728D01*
X145500655Y-82142324D01*
X145599572Y-82162000D01*
X145700428Y-82162000D01*
X145799345Y-82142324D01*
X145892523Y-82103728D01*
X145951073Y-82064606D01*
X145972304Y-82096381D01*
X146043619Y-82167696D01*
X146127477Y-82223728D01*
X146220655Y-82262324D01*
X146319572Y-82282000D01*
X146420428Y-82282000D01*
X146519345Y-82262324D01*
X146612523Y-82223728D01*
X146696381Y-82167696D01*
X146767696Y-82096381D01*
X146823728Y-82012523D01*
X146862324Y-81919345D01*
X146882000Y-81820428D01*
X146882000Y-81719572D01*
X146862324Y-81620655D01*
X146823728Y-81527477D01*
X146767696Y-81443619D01*
X146696381Y-81372304D01*
X146612523Y-81316272D01*
X146519345Y-81277676D01*
X146420428Y-81258000D01*
X146319572Y-81258000D01*
X146220655Y-81277676D01*
X146127477Y-81316272D01*
X146068927Y-81355394D01*
X146047696Y-81323619D01*
X145976381Y-81252304D01*
X145892523Y-81196272D01*
X145799345Y-81157676D01*
X145700428Y-81138000D01*
X145599572Y-81138000D01*
X145500655Y-81157676D01*
X145407477Y-81196272D01*
X145323619Y-81252304D01*
X145252304Y-81323619D01*
X145213200Y-81382142D01*
X145213200Y-81240441D01*
X145367471Y-81086170D01*
X145390000Y-81088389D01*
X145890000Y-81088389D01*
X145914450Y-81085981D01*
X145939009Y-81085981D01*
X145995271Y-81080440D01*
X146091404Y-81061318D01*
X146145502Y-81044907D01*
X146236058Y-81007398D01*
X146285919Y-80980748D01*
X146367418Y-80926292D01*
X146411119Y-80890427D01*
X146480427Y-80821119D01*
X146516292Y-80777418D01*
X146570748Y-80695919D01*
X146597398Y-80646058D01*
X146634907Y-80555502D01*
X146651318Y-80501404D01*
X146670440Y-80405271D01*
X146675981Y-80349009D01*
X146675981Y-80324450D01*
X146678389Y-80300000D01*
X146678389Y-79800000D01*
X146672848Y-79743738D01*
X146656437Y-79689638D01*
X146635250Y-79650000D01*
X146656437Y-79610362D01*
X146672848Y-79556262D01*
X146678389Y-79500000D01*
X146678389Y-79000000D01*
X146675981Y-78975550D01*
X146675981Y-78950991D01*
X146670440Y-78894729D01*
X146651318Y-78798596D01*
X146634907Y-78744498D01*
X146597398Y-78653942D01*
X146570748Y-78604081D01*
X146516292Y-78522582D01*
X146480427Y-78478881D01*
X146411119Y-78409573D01*
X146367418Y-78373708D01*
X146285919Y-78319252D01*
X146236058Y-78292602D01*
X146145502Y-78255093D01*
X146109500Y-78244172D01*
X146109500Y-77934566D01*
X146200655Y-77972324D01*
X146299572Y-77992000D01*
X146400428Y-77992000D01*
X146499345Y-77972324D01*
X146592523Y-77933728D01*
X146676381Y-77877696D01*
X146747696Y-77806381D01*
X146803728Y-77722523D01*
X146842324Y-77629345D01*
X146862000Y-77530428D01*
X146862000Y-77429572D01*
X146842324Y-77330655D01*
X146803728Y-77237477D01*
X146747696Y-77153619D01*
X146676381Y-77082304D01*
X146592523Y-77026272D01*
X146499345Y-76987676D01*
X146487783Y-76985376D01*
X146813488Y-76659671D01*
X146827869Y-76647869D01*
X146874981Y-76590463D01*
X146909988Y-76524970D01*
X146931545Y-76453905D01*
X146937000Y-76398519D01*
X146937000Y-76398518D01*
X146938824Y-76380000D01*
X146937000Y-76361481D01*
X146937000Y-73808508D01*
X146938823Y-73789999D01*
X146937000Y-73771490D01*
X146937000Y-73771481D01*
X146931545Y-73716095D01*
X146909988Y-73645030D01*
X146874981Y-73579537D01*
X146827869Y-73522131D01*
X146813481Y-73510323D01*
X146299677Y-72996519D01*
X146287869Y-72982131D01*
X146230463Y-72935019D01*
X146164970Y-72900012D01*
X146093905Y-72878455D01*
X146038519Y-72873000D01*
X146038512Y-72873000D01*
X146020000Y-72871177D01*
X146001488Y-72873000D01*
X145436531Y-72873000D01*
X145667909Y-72777160D01*
X145974924Y-72572019D01*
X146236019Y-72310924D01*
X146441160Y-72003909D01*
X146582464Y-71662772D01*
X146654500Y-71300622D01*
X146654500Y-70931378D01*
X146582464Y-70569228D01*
X146441160Y-70228091D01*
X146236019Y-69921076D01*
X145974924Y-69659981D01*
X145667909Y-69454840D01*
X145326772Y-69313536D01*
X144964622Y-69241500D01*
X144595378Y-69241500D01*
X144233228Y-69313536D01*
X143892091Y-69454840D01*
X143585076Y-69659981D01*
X143323981Y-69921076D01*
X143118840Y-70228091D01*
X142977536Y-70569228D01*
X142905500Y-70931378D01*
X142905500Y-71300622D01*
X142977536Y-71662772D01*
X143118840Y-72003909D01*
X143301572Y-72277386D01*
X143247523Y-72241272D01*
X143154345Y-72202676D01*
X143055428Y-72183000D01*
X142954572Y-72183000D01*
X142855655Y-72202676D01*
X142762477Y-72241272D01*
X142678619Y-72297304D01*
X142607304Y-72368619D01*
X142551272Y-72452477D01*
X142512676Y-72545655D01*
X142493000Y-72644572D01*
X142493000Y-72745428D01*
X142512676Y-72844345D01*
X142551272Y-72937523D01*
X142607304Y-73021381D01*
X142678619Y-73092696D01*
X142762477Y-73148728D01*
X142855655Y-73187324D01*
X142954572Y-73207000D01*
X142983842Y-73207000D01*
X143280328Y-73503487D01*
X143292131Y-73517869D01*
X143349537Y-73564981D01*
X143415030Y-73599988D01*
X143486095Y-73621545D01*
X143541481Y-73627000D01*
X143541490Y-73627000D01*
X143559999Y-73628823D01*
X143578508Y-73627000D01*
X145863842Y-73627000D01*
X146183001Y-73946159D01*
X146183000Y-76223841D01*
X145479014Y-76927828D01*
X145464632Y-76939631D01*
X145452829Y-76954013D01*
X145452826Y-76954016D01*
X145417520Y-76997037D01*
X145396880Y-77035650D01*
X145329345Y-77007676D01*
X145230428Y-76988000D01*
X145129572Y-76988000D01*
X145030655Y-77007676D01*
X144937477Y-77046272D01*
X144853619Y-77102304D01*
X144782304Y-77173619D01*
X144726272Y-77257477D01*
X144687676Y-77350655D01*
X144668000Y-77449572D01*
X144668000Y-77550428D01*
X144687676Y-77649345D01*
X144726272Y-77742523D01*
X144782304Y-77826381D01*
X144853619Y-77897696D01*
X144937477Y-77953728D01*
X145030655Y-77992324D01*
X145129572Y-78012000D01*
X145230428Y-78012000D01*
X145329345Y-77992324D01*
X145355501Y-77981490D01*
X145355500Y-78214019D01*
X145340991Y-78214019D01*
X145284729Y-78219560D01*
X145188596Y-78238682D01*
X145134498Y-78255093D01*
X145043942Y-78292602D01*
X144994081Y-78319252D01*
X144912582Y-78373708D01*
X144868881Y-78409573D01*
X144799573Y-78478881D01*
X144763708Y-78522582D01*
X144709252Y-78604081D01*
X144682602Y-78653942D01*
X144645093Y-78744498D01*
X144628682Y-78798596D01*
X144609560Y-78894729D01*
X144604019Y-78950991D01*
X144604019Y-78975550D01*
X144601611Y-79000000D01*
X144601611Y-79500000D01*
X144607152Y-79556262D01*
X144623563Y-79610362D01*
X144644750Y-79650000D01*
X144623563Y-79689638D01*
X144607152Y-79743738D01*
X144601611Y-79800000D01*
X144601611Y-80300000D01*
X144604019Y-80324450D01*
X144604019Y-80349009D01*
X144609560Y-80405271D01*
X144628682Y-80501404D01*
X144645093Y-80555502D01*
X144682602Y-80646058D01*
X144709252Y-80695919D01*
X144717739Y-80708620D01*
X144605800Y-80820559D01*
X144591936Y-80831937D01*
X144546549Y-80887242D01*
X144512825Y-80950337D01*
X144512824Y-80950338D01*
X144492056Y-81018801D01*
X144485043Y-81090000D01*
X144486800Y-81107838D01*
X144486801Y-85355794D01*
X144454525Y-85307490D01*
X144379727Y-85232692D01*
X144291775Y-85173924D01*
X144194047Y-85133444D01*
X144169537Y-85128569D01*
X143950341Y-84909373D01*
X143935867Y-84891736D01*
X143865518Y-84834003D01*
X143785258Y-84791103D01*
X143698171Y-84764685D01*
X143630296Y-84758000D01*
X143630293Y-84758000D01*
X143607603Y-84755765D01*
X143584913Y-84758000D01*
X140188298Y-84758000D01*
X140112890Y-84743000D01*
X140007110Y-84743000D01*
X139903363Y-84763637D01*
X139805635Y-84804117D01*
X139717683Y-84862885D01*
X139642885Y-84937683D01*
X139584117Y-85025635D01*
X139543637Y-85123363D01*
X139523000Y-85227110D01*
X139523000Y-85332890D01*
X139543637Y-85436637D01*
X139584117Y-85534365D01*
X139642885Y-85622317D01*
X139717683Y-85697115D01*
X139805635Y-85755883D01*
X139903363Y-85796363D01*
X140007110Y-85817000D01*
X140112890Y-85817000D01*
X140216637Y-85796363D01*
X140314365Y-85755883D01*
X140402317Y-85697115D01*
X140417432Y-85682000D01*
X143416238Y-85682000D01*
X143516172Y-85781934D01*
X143521047Y-85806444D01*
X143561527Y-85904172D01*
X143620295Y-85992124D01*
X143695093Y-86066922D01*
X143783045Y-86125690D01*
X143880773Y-86166170D01*
X143949418Y-86179825D01*
X144034390Y-86264797D01*
X144034390Y-86996236D01*
X143971869Y-86983800D01*
X143866089Y-86983800D01*
X143762342Y-87004437D01*
X143664614Y-87044917D01*
X143605375Y-87084499D01*
X143530271Y-87069560D01*
X143474009Y-87064019D01*
X143449450Y-87064019D01*
X143425000Y-87061611D01*
X142925000Y-87061611D01*
X142868738Y-87067152D01*
X142814638Y-87083563D01*
X142775000Y-87104750D01*
X142735362Y-87083563D01*
X142681262Y-87067152D01*
X142625000Y-87061611D01*
X142125000Y-87061611D01*
X142100550Y-87064019D01*
X142075991Y-87064019D01*
X142019729Y-87069560D01*
X141923596Y-87088682D01*
X141869498Y-87105093D01*
X141778942Y-87142602D01*
X141729081Y-87169252D01*
X141647582Y-87223708D01*
X141603881Y-87259573D01*
X141534573Y-87328881D01*
X141498708Y-87372582D01*
X141444252Y-87454081D01*
X141417602Y-87503942D01*
X141380093Y-87594498D01*
X141363682Y-87648596D01*
X141344560Y-87744729D01*
X141339019Y-87800991D01*
X141339019Y-87825550D01*
X141336611Y-87850000D01*
X141336611Y-88350000D01*
X141339019Y-88374450D01*
X141339019Y-88399009D01*
X141344560Y-88455271D01*
X141363682Y-88551404D01*
X141380093Y-88605502D01*
X141417602Y-88696058D01*
X141444252Y-88745919D01*
X141498708Y-88827418D01*
X141534573Y-88871119D01*
X141603881Y-88940427D01*
X141647582Y-88976292D01*
X141663001Y-88986594D01*
X141663001Y-89121025D01*
X141574152Y-89209874D01*
X141549643Y-89214749D01*
X141451915Y-89255229D01*
X141363963Y-89313997D01*
X141289165Y-89388795D01*
X141230397Y-89476747D01*
X141189917Y-89574475D01*
X141169280Y-89678222D01*
X141169280Y-89784002D01*
X141189917Y-89887749D01*
X141230397Y-89985477D01*
X141289165Y-90073429D01*
X141363963Y-90148227D01*
X141451915Y-90206995D01*
X141549643Y-90247475D01*
X141653390Y-90268112D01*
X141759170Y-90268112D01*
X141862917Y-90247475D01*
X141960645Y-90206995D01*
X142012453Y-90172378D01*
X142041013Y-90241328D01*
X142099781Y-90329280D01*
X142174579Y-90404078D01*
X142262531Y-90462846D01*
X142360259Y-90503326D01*
X142464006Y-90523963D01*
X142569786Y-90523963D01*
X142673533Y-90503326D01*
X142771261Y-90462846D01*
X142859213Y-90404078D01*
X142934011Y-90329280D01*
X142992779Y-90241328D01*
X143033259Y-90143600D01*
X143053896Y-90039853D01*
X143053896Y-90032618D01*
X143139514Y-89947000D01*
X143523933Y-89947000D01*
X143486805Y-90036634D01*
X143467129Y-90135551D01*
X143467129Y-90236407D01*
X143486805Y-90335324D01*
X143525401Y-90428502D01*
X143581433Y-90512360D01*
X143615929Y-90546856D01*
X143615930Y-91200873D01*
X143607115Y-91187681D01*
X143532317Y-91112883D01*
X143444365Y-91054115D01*
X143346637Y-91013635D01*
X143242890Y-90992998D01*
X143137110Y-90992998D01*
X143033363Y-91013635D01*
X142935635Y-91054115D01*
X142848730Y-91112184D01*
X142796119Y-91059573D01*
X142752418Y-91023708D01*
X142670919Y-90969252D01*
X142621058Y-90942602D01*
X142530502Y-90905093D01*
X142476404Y-90888682D01*
X142380271Y-90869560D01*
X142324009Y-90864019D01*
X142299450Y-90864019D01*
X142275000Y-90861611D01*
X141775000Y-90861611D01*
X141718738Y-90867152D01*
X141664638Y-90883563D01*
X141625000Y-90904750D01*
X141585362Y-90883563D01*
X141531262Y-90867152D01*
X141475000Y-90861611D01*
X140975000Y-90861611D01*
X140950550Y-90864019D01*
X140925991Y-90864019D01*
X140869729Y-90869560D01*
X140773596Y-90888682D01*
X140719498Y-90905093D01*
X140628942Y-90942602D01*
X140579081Y-90969252D01*
X140497582Y-91023708D01*
X140453881Y-91059573D01*
X140384573Y-91128881D01*
X140348708Y-91172582D01*
X140294252Y-91254081D01*
X140267602Y-91303942D01*
X140230093Y-91394498D01*
X140213682Y-91448596D01*
X140210817Y-91463000D01*
X138189142Y-91463000D01*
X138150883Y-91370635D01*
X138092115Y-91282683D01*
X138017317Y-91207885D01*
X137929365Y-91149117D01*
X137831637Y-91108637D01*
X137727890Y-91088000D01*
X137622110Y-91088000D01*
X137518363Y-91108637D01*
X137420635Y-91149117D01*
X137332683Y-91207885D01*
X137257885Y-91282683D01*
X137199117Y-91370635D01*
X137158637Y-91468363D01*
X137138000Y-91572110D01*
X137138000Y-91677890D01*
X137158637Y-91781637D01*
X137199117Y-91879365D01*
X137257885Y-91967317D01*
X137332683Y-92042115D01*
X137420635Y-92100883D01*
X137518363Y-92141363D01*
X137587008Y-92155018D01*
X137625814Y-92193824D01*
X137639500Y-92210500D01*
X137706041Y-92265110D01*
X137781958Y-92305688D01*
X137864333Y-92330677D01*
X137928535Y-92337000D01*
X137928543Y-92337000D01*
X137950000Y-92339113D01*
X137971457Y-92337000D01*
X140210817Y-92337000D01*
X140213682Y-92351404D01*
X140230093Y-92405502D01*
X140267602Y-92496058D01*
X140294252Y-92545919D01*
X140348708Y-92627418D01*
X140384573Y-92671119D01*
X140453881Y-92740427D01*
X140497582Y-92776292D01*
X140579081Y-92830748D01*
X140628942Y-92857398D01*
X140719498Y-92894907D01*
X140773596Y-92911318D01*
X140869729Y-92930440D01*
X140925991Y-92935981D01*
X140950550Y-92935981D01*
X140975000Y-92938389D01*
X141475000Y-92938389D01*
X141531262Y-92932848D01*
X141585362Y-92916437D01*
X141625000Y-92895250D01*
X141664638Y-92916437D01*
X141718738Y-92932848D01*
X141775000Y-92938389D01*
X142037968Y-92938389D01*
X141460608Y-93515749D01*
X141411821Y-93515749D01*
X141312904Y-93535425D01*
X141219726Y-93574021D01*
X141135868Y-93630053D01*
X141064553Y-93701368D01*
X141008521Y-93785226D01*
X140969925Y-93878404D01*
X140950249Y-93977321D01*
X140950249Y-94078177D01*
X140969925Y-94177094D01*
X141008521Y-94270272D01*
X141064553Y-94354130D01*
X141135868Y-94425445D01*
X141219726Y-94481477D01*
X141312904Y-94520073D01*
X141411821Y-94539749D01*
X141512677Y-94539749D01*
X141611594Y-94520073D01*
X141704772Y-94481477D01*
X141788630Y-94425445D01*
X141859945Y-94354130D01*
X141915977Y-94270272D01*
X141954573Y-94177094D01*
X141974249Y-94078177D01*
X141974249Y-94029390D01*
X143359962Y-92643678D01*
X143359961Y-95598138D01*
X138782980Y-100175120D01*
X138767264Y-100188018D01*
X138754366Y-100203734D01*
X138754364Y-100203736D01*
X138715778Y-100250753D01*
X138677521Y-100322327D01*
X138653962Y-100399989D01*
X138646008Y-100480755D01*
X138648001Y-100500992D01*
X138648001Y-100550844D01*
X138608596Y-100558682D01*
X138554498Y-100575093D01*
X138463942Y-100612602D01*
X138414081Y-100639252D01*
X138332582Y-100693708D01*
X138288881Y-100729573D01*
X138219573Y-100798881D01*
X138183708Y-100842582D01*
X138129252Y-100924081D01*
X138102602Y-100973942D01*
X138065093Y-101064498D01*
X138048682Y-101118596D01*
X138029560Y-101214729D01*
X138024019Y-101270991D01*
X138024019Y-101295550D01*
X138021611Y-101320000D01*
X138021611Y-101820000D01*
X138027152Y-101876262D01*
X138043563Y-101930362D01*
X138064750Y-101970000D01*
X138043563Y-102009638D01*
X138027152Y-102063738D01*
X138021611Y-102120000D01*
X138021611Y-102620000D01*
X138024019Y-102644450D01*
X138024019Y-102669009D01*
X138029560Y-102725271D01*
X138048682Y-102821404D01*
X138065093Y-102875502D01*
X138102602Y-102966058D01*
X138129252Y-103015919D01*
X138183708Y-103097418D01*
X138219573Y-103141119D01*
X138288881Y-103210427D01*
X138332582Y-103246292D01*
X138414081Y-103300748D01*
X138463942Y-103327398D01*
X138554498Y-103364907D01*
X138608596Y-103381318D01*
X138704729Y-103400440D01*
X138760991Y-103405981D01*
X138785550Y-103405981D01*
X138810000Y-103408389D01*
X139310000Y-103408389D01*
X139334450Y-103405981D01*
X139359009Y-103405981D01*
X139415271Y-103400440D01*
X139511404Y-103381318D01*
X139565502Y-103364907D01*
X139656058Y-103327398D01*
X139705919Y-103300748D01*
X139787418Y-103246292D01*
X139831119Y-103210427D01*
X139900427Y-103141119D01*
X139936292Y-103097418D01*
X139990748Y-103015919D01*
X139998188Y-103002000D01*
X140367212Y-103002000D01*
X140391746Y-103026534D01*
X140483793Y-103088038D01*
X140586071Y-103130402D01*
X140694648Y-103152000D01*
X140805352Y-103152000D01*
X140913929Y-103130402D01*
X141016207Y-103088038D01*
X141108254Y-103026534D01*
X141186534Y-102948254D01*
X141248038Y-102856207D01*
X141290402Y-102753929D01*
X141312000Y-102645352D01*
X141312000Y-102534648D01*
X141290402Y-102426071D01*
X141248038Y-102323793D01*
X141186534Y-102231746D01*
X141108254Y-102153466D01*
X141016207Y-102091962D01*
X140913929Y-102049598D01*
X140805352Y-102028000D01*
X140694648Y-102028000D01*
X140586071Y-102049598D01*
X140483793Y-102091962D01*
X140391746Y-102153466D01*
X140367212Y-102178000D01*
X140098389Y-102178000D01*
X140098389Y-102120000D01*
X140092848Y-102063738D01*
X140076437Y-102009638D01*
X140055250Y-101970000D01*
X140076437Y-101930362D01*
X140092848Y-101876262D01*
X140098389Y-101820000D01*
X140098389Y-101320000D01*
X140095981Y-101295550D01*
X140095981Y-101270991D01*
X140090440Y-101214729D01*
X140071318Y-101118596D01*
X140054907Y-101064498D01*
X140017398Y-100973942D01*
X139990748Y-100924081D01*
X139936292Y-100842582D01*
X139900427Y-100798881D01*
X139831119Y-100729573D01*
X139787418Y-100693708D01*
X139705919Y-100639252D01*
X139656058Y-100612602D01*
X139565502Y-100575093D01*
X139552317Y-100571093D01*
X144048983Y-96074428D01*
X144064698Y-96061531D01*
X144116184Y-95998796D01*
X144154441Y-95927222D01*
X144177999Y-95849560D01*
X144183961Y-95789029D01*
X144183961Y-95789022D01*
X144185953Y-95768795D01*
X144183961Y-95748568D01*
X144183961Y-92450269D01*
X144993522Y-91640709D01*
X145009237Y-91627812D01*
X145025749Y-91607693D01*
X145044001Y-91585452D01*
X145060723Y-91565077D01*
X145098980Y-91493503D01*
X145122538Y-91415841D01*
X145128500Y-91355310D01*
X145128500Y-91355302D01*
X145130492Y-91335075D01*
X145128500Y-91314848D01*
X145128500Y-90835412D01*
X145242130Y-90973870D01*
X145415260Y-91115955D01*
X145612784Y-91221533D01*
X145827109Y-91286548D01*
X145994148Y-91303000D01*
X146105852Y-91303000D01*
X146272891Y-91286548D01*
X146487216Y-91221533D01*
X146684740Y-91115955D01*
X146857870Y-90973870D01*
X146958000Y-90851861D01*
X146958000Y-92020139D01*
X146857870Y-91898130D01*
X146684740Y-91756045D01*
X146487216Y-91650467D01*
X146272891Y-91585452D01*
X146105852Y-91569000D01*
X145994148Y-91569000D01*
X145827109Y-91585452D01*
X145612784Y-91650467D01*
X145415260Y-91756045D01*
X145242130Y-91898130D01*
X145100045Y-92071260D01*
X144994467Y-92268784D01*
X144929452Y-92483109D01*
X144907499Y-92706000D01*
X144929452Y-92928891D01*
X144994467Y-93143216D01*
X145100045Y-93340740D01*
X145242130Y-93513870D01*
X145415260Y-93655955D01*
X145612784Y-93761533D01*
X145827109Y-93826548D01*
X145994148Y-93843000D01*
X146105852Y-93843000D01*
X146272891Y-93826548D01*
X146487216Y-93761533D01*
X146684740Y-93655955D01*
X146857870Y-93513870D01*
X146958000Y-93391861D01*
X146958001Y-94560139D01*
X146857870Y-94438130D01*
X146684740Y-94296045D01*
X146487216Y-94190467D01*
X146272891Y-94125452D01*
X146105852Y-94109000D01*
X145994148Y-94109000D01*
X145827109Y-94125452D01*
X145612784Y-94190467D01*
X145415260Y-94296045D01*
X145242130Y-94438130D01*
X145100045Y-94611260D01*
X144994467Y-94808784D01*
X144929452Y-95023109D01*
X144907499Y-95246000D01*
X144929452Y-95468891D01*
X144994467Y-95683216D01*
X145100045Y-95880740D01*
X145242130Y-96053870D01*
X145415260Y-96195955D01*
X145612784Y-96301533D01*
X145827109Y-96366548D01*
X145994148Y-96383000D01*
X146105852Y-96383000D01*
X146272891Y-96366548D01*
X146487216Y-96301533D01*
X146684740Y-96195955D01*
X146857870Y-96053870D01*
X146958001Y-95931861D01*
X146958001Y-97100139D01*
X146857870Y-96978130D01*
X146684740Y-96836045D01*
X146487216Y-96730467D01*
X146272891Y-96665452D01*
X146105852Y-96649000D01*
X145994148Y-96649000D01*
X145827109Y-96665452D01*
X145612784Y-96730467D01*
X145415260Y-96836045D01*
X145242130Y-96978130D01*
X145100045Y-97151260D01*
X144994467Y-97348784D01*
X144929452Y-97563109D01*
X144907499Y-97786000D01*
X144929452Y-98008891D01*
X144965355Y-98127248D01*
X144956638Y-98123637D01*
X144852891Y-98103000D01*
X144747111Y-98103000D01*
X144652835Y-98121753D01*
X144652835Y-97036289D01*
X144682950Y-97006174D01*
X144741718Y-96918222D01*
X144782198Y-96820494D01*
X144802835Y-96716747D01*
X144802835Y-96610967D01*
X144782198Y-96507220D01*
X144741718Y-96409492D01*
X144682950Y-96321540D01*
X144608152Y-96246742D01*
X144520200Y-96187974D01*
X144422472Y-96147494D01*
X144318725Y-96126857D01*
X144212945Y-96126857D01*
X144109198Y-96147494D01*
X144011470Y-96187974D01*
X143923518Y-96246742D01*
X143848720Y-96321540D01*
X143789952Y-96409492D01*
X143749472Y-96507220D01*
X143728835Y-96610967D01*
X143728835Y-96716747D01*
X143749472Y-96820494D01*
X143789952Y-96918222D01*
X143848720Y-97006174D01*
X143878835Y-97036289D01*
X143878835Y-97036416D01*
X143878836Y-97036426D01*
X143878835Y-111222839D01*
X143876964Y-111241835D01*
X143878835Y-111260831D01*
X143878835Y-111260841D01*
X143884435Y-111317699D01*
X143906564Y-111390649D01*
X143942500Y-111457880D01*
X143990861Y-111516809D01*
X144005628Y-111528928D01*
X145019204Y-112542504D01*
X144994467Y-112588784D01*
X144929452Y-112803109D01*
X144907499Y-113026000D01*
X144929452Y-113248891D01*
X144994467Y-113463216D01*
X145100045Y-113660740D01*
X145242130Y-113833870D01*
X145415260Y-113975955D01*
X145612784Y-114081533D01*
X145827109Y-114146548D01*
X145994148Y-114163000D01*
X146105852Y-114163000D01*
X146272891Y-114146548D01*
X146487216Y-114081533D01*
X146684740Y-113975955D01*
X146857870Y-113833870D01*
X146958001Y-113711861D01*
X146958001Y-116822288D01*
X146914818Y-117262701D01*
X146792055Y-117669313D01*
X146592657Y-118044325D01*
X146324212Y-118373472D01*
X145996953Y-118644203D01*
X145623336Y-118846217D01*
X145217598Y-118971814D01*
X144778170Y-119018000D01*
X127017702Y-119018000D01*
X126724756Y-118989276D01*
X126084978Y-118806483D01*
X125795675Y-118652657D01*
X125466528Y-118384212D01*
X125195797Y-118056953D01*
X124993783Y-117683336D01*
X124868186Y-117277598D01*
X124822000Y-116838170D01*
X124822000Y-116682649D01*
X125443000Y-116682649D01*
X125443000Y-116989351D01*
X125502834Y-117290160D01*
X125620204Y-117573516D01*
X125790599Y-117828530D01*
X126007470Y-118045401D01*
X126262484Y-118215796D01*
X126545840Y-118333166D01*
X126846649Y-118393000D01*
X127153351Y-118393000D01*
X127454160Y-118333166D01*
X127737516Y-118215796D01*
X127992530Y-118045401D01*
X128209401Y-117828530D01*
X128379796Y-117573516D01*
X128497166Y-117290160D01*
X128557000Y-116989351D01*
X128557000Y-116682649D01*
X143223000Y-116682649D01*
X143223000Y-116989351D01*
X143282834Y-117290160D01*
X143400204Y-117573516D01*
X143570599Y-117828530D01*
X143787470Y-118045401D01*
X144042484Y-118215796D01*
X144325840Y-118333166D01*
X144626649Y-118393000D01*
X144933351Y-118393000D01*
X145234160Y-118333166D01*
X145517516Y-118215796D01*
X145772530Y-118045401D01*
X145989401Y-117828530D01*
X146159796Y-117573516D01*
X146277166Y-117290160D01*
X146337000Y-116989351D01*
X146337000Y-116682649D01*
X146277166Y-116381840D01*
X146159796Y-116098484D01*
X145989401Y-115843470D01*
X145772530Y-115626599D01*
X145517516Y-115456204D01*
X145234160Y-115338834D01*
X144933351Y-115279000D01*
X144626649Y-115279000D01*
X144325840Y-115338834D01*
X144042484Y-115456204D01*
X143787470Y-115626599D01*
X143570599Y-115843470D01*
X143400204Y-116098484D01*
X143282834Y-116381840D01*
X143223000Y-116682649D01*
X128557000Y-116682649D01*
X128497166Y-116381840D01*
X128379796Y-116098484D01*
X128209401Y-115843470D01*
X127992530Y-115626599D01*
X127737516Y-115456204D01*
X127454160Y-115338834D01*
X127153351Y-115279000D01*
X126846649Y-115279000D01*
X126545840Y-115338834D01*
X126262484Y-115456204D01*
X126007470Y-115626599D01*
X125790599Y-115843470D01*
X125620204Y-116098484D01*
X125502834Y-116381840D01*
X125443000Y-116682649D01*
X124822000Y-116682649D01*
X124822000Y-111171862D01*
X124922130Y-111293870D01*
X125095260Y-111435955D01*
X125292784Y-111541533D01*
X125507109Y-111606548D01*
X125674148Y-111623000D01*
X125785852Y-111623000D01*
X125952891Y-111606548D01*
X126167216Y-111541533D01*
X126364740Y-111435955D01*
X126537870Y-111293870D01*
X126679955Y-111120740D01*
X126785533Y-110923216D01*
X126850548Y-110708891D01*
X126872501Y-110486000D01*
X126850548Y-110263109D01*
X126785533Y-110048784D01*
X126679955Y-109851260D01*
X126537870Y-109678130D01*
X126364740Y-109536045D01*
X126167216Y-109430467D01*
X125952891Y-109365452D01*
X125785852Y-109349000D01*
X125674148Y-109349000D01*
X125507109Y-109365452D01*
X125292784Y-109430467D01*
X125095260Y-109536045D01*
X124922130Y-109678130D01*
X124822000Y-109800138D01*
X124822000Y-108631862D01*
X124922130Y-108753870D01*
X125095260Y-108895955D01*
X125292784Y-109001533D01*
X125507109Y-109066548D01*
X125674148Y-109083000D01*
X125785852Y-109083000D01*
X125952891Y-109066548D01*
X126167216Y-109001533D01*
X126364740Y-108895955D01*
X126537870Y-108753870D01*
X126679955Y-108580740D01*
X126785533Y-108383216D01*
X126850548Y-108168891D01*
X126872501Y-107946000D01*
X126850548Y-107723109D01*
X126785533Y-107508784D01*
X126679955Y-107311260D01*
X126537870Y-107138130D01*
X126364740Y-106996045D01*
X126167216Y-106890467D01*
X125952891Y-106825452D01*
X125785852Y-106809000D01*
X125674148Y-106809000D01*
X125507109Y-106825452D01*
X125292784Y-106890467D01*
X125095260Y-106996045D01*
X124922130Y-107138130D01*
X124822000Y-107260138D01*
X124822000Y-106091862D01*
X124922130Y-106213870D01*
X125095260Y-106355955D01*
X125292784Y-106461533D01*
X125507109Y-106526548D01*
X125674148Y-106543000D01*
X125785852Y-106543000D01*
X125952891Y-106526548D01*
X126167216Y-106461533D01*
X126364740Y-106355955D01*
X126537870Y-106213870D01*
X126679955Y-106040740D01*
X126785533Y-105843216D01*
X126850548Y-105628891D01*
X126872501Y-105406000D01*
X126850548Y-105183109D01*
X126785533Y-104968784D01*
X126679955Y-104771260D01*
X126537870Y-104598130D01*
X126364740Y-104456045D01*
X126167216Y-104350467D01*
X125952891Y-104285452D01*
X125785852Y-104269000D01*
X125674148Y-104269000D01*
X125507109Y-104285452D01*
X125292784Y-104350467D01*
X125095260Y-104456045D01*
X124922130Y-104598130D01*
X124822000Y-104720138D01*
X124822000Y-103551862D01*
X124922130Y-103673870D01*
X125095260Y-103815955D01*
X125292784Y-103921533D01*
X125507109Y-103986548D01*
X125674148Y-104003000D01*
X125785852Y-104003000D01*
X125952891Y-103986548D01*
X126167216Y-103921533D01*
X126364740Y-103815955D01*
X126537870Y-103673870D01*
X126679955Y-103500740D01*
X126785533Y-103303216D01*
X126850548Y-103088891D01*
X126850734Y-103087000D01*
X130124773Y-103087000D01*
X130135558Y-103141222D01*
X130179808Y-103248049D01*
X130244048Y-103344191D01*
X130325809Y-103425952D01*
X130421951Y-103490192D01*
X130528778Y-103534442D01*
X130642186Y-103557000D01*
X130757814Y-103557000D01*
X130871222Y-103534442D01*
X130978049Y-103490192D01*
X131074191Y-103425952D01*
X131155952Y-103344191D01*
X131220192Y-103248049D01*
X131264442Y-103141222D01*
X131287000Y-103027814D01*
X131287000Y-102912186D01*
X131264442Y-102798778D01*
X131220192Y-102691951D01*
X131155952Y-102595809D01*
X131074191Y-102514048D01*
X130978049Y-102449808D01*
X130873186Y-102406371D01*
X130874365Y-102405883D01*
X130962317Y-102347115D01*
X131037115Y-102272317D01*
X131095883Y-102184365D01*
X131136363Y-102086637D01*
X131157000Y-101982890D01*
X131157000Y-101877110D01*
X131136363Y-101773363D01*
X131095883Y-101675635D01*
X131037115Y-101587683D01*
X130962317Y-101512885D01*
X130874365Y-101454117D01*
X130776637Y-101413637D01*
X130672890Y-101393000D01*
X130567110Y-101393000D01*
X130463363Y-101413637D01*
X130365635Y-101454117D01*
X130277683Y-101512885D01*
X130202885Y-101587683D01*
X130144117Y-101675635D01*
X130103637Y-101773363D01*
X130083000Y-101877110D01*
X130083000Y-101923000D01*
X127602158Y-101923000D01*
X126661899Y-100982741D01*
X126679955Y-100960740D01*
X126785533Y-100763216D01*
X126850548Y-100548891D01*
X126872501Y-100326000D01*
X126850548Y-100103109D01*
X126785533Y-99888784D01*
X126679955Y-99691260D01*
X126537870Y-99518130D01*
X126364740Y-99376045D01*
X126167216Y-99270467D01*
X125952891Y-99205452D01*
X125785852Y-99189000D01*
X125674148Y-99189000D01*
X125507109Y-99205452D01*
X125292784Y-99270467D01*
X125095260Y-99376045D01*
X124922130Y-99518130D01*
X124822000Y-99640138D01*
X124822000Y-98471862D01*
X124922130Y-98593870D01*
X125095260Y-98735955D01*
X125292784Y-98841533D01*
X125507109Y-98906548D01*
X125674148Y-98923000D01*
X125785852Y-98923000D01*
X125952891Y-98906548D01*
X126167216Y-98841533D01*
X126213496Y-98816796D01*
X126976912Y-99580213D01*
X126989026Y-99594974D01*
X127003787Y-99607088D01*
X127003789Y-99607090D01*
X127047954Y-99643335D01*
X127115185Y-99679271D01*
X127188135Y-99701400D01*
X127264000Y-99708872D01*
X127283007Y-99707000D01*
X130217568Y-99707000D01*
X130247683Y-99737115D01*
X130335635Y-99795883D01*
X130433363Y-99836363D01*
X130537110Y-99857000D01*
X130642890Y-99857000D01*
X130746637Y-99836363D01*
X130844365Y-99795883D01*
X130932317Y-99737115D01*
X131007115Y-99662317D01*
X131065883Y-99574365D01*
X131106363Y-99476637D01*
X131127000Y-99372890D01*
X131127000Y-99267110D01*
X131106363Y-99163363D01*
X131065883Y-99065635D01*
X131007115Y-98977683D01*
X130932317Y-98902885D01*
X130844365Y-98844117D01*
X130746637Y-98803637D01*
X130642890Y-98783000D01*
X130537110Y-98783000D01*
X130433363Y-98803637D01*
X130335635Y-98844117D01*
X130247683Y-98902885D01*
X130217568Y-98933000D01*
X127884498Y-98933000D01*
X127929525Y-98887973D01*
X127988293Y-98800021D01*
X128028773Y-98702293D01*
X128049410Y-98598546D01*
X128049410Y-98492766D01*
X128028773Y-98389019D01*
X127988293Y-98291291D01*
X127929525Y-98203339D01*
X127854727Y-98128541D01*
X127766775Y-98069773D01*
X127669047Y-98029293D01*
X127600402Y-98015638D01*
X127462178Y-97877414D01*
X127462178Y-93463034D01*
X130545960Y-96546817D01*
X130558074Y-96561578D01*
X130572835Y-96573692D01*
X130572837Y-96573694D01*
X130617002Y-96609939D01*
X130684233Y-96645875D01*
X130757183Y-96668004D01*
X130833048Y-96675476D01*
X130852055Y-96673604D01*
X131219026Y-96673604D01*
X131238022Y-96675475D01*
X131257018Y-96673604D01*
X131257029Y-96673604D01*
X131313887Y-96668004D01*
X131386837Y-96645875D01*
X131454068Y-96609939D01*
X131498341Y-96573605D01*
X131540911Y-96573605D01*
X131644658Y-96552968D01*
X131742386Y-96512488D01*
X131830338Y-96453720D01*
X131905136Y-96378922D01*
X131963904Y-96290970D01*
X132004384Y-96193242D01*
X132025021Y-96089495D01*
X132025021Y-95983715D01*
X132009783Y-95907110D01*
X134443000Y-95907110D01*
X134443000Y-96012890D01*
X134463637Y-96116637D01*
X134504117Y-96214365D01*
X134562885Y-96302317D01*
X134637683Y-96377115D01*
X134725635Y-96435883D01*
X134823363Y-96476363D01*
X134927110Y-96497000D01*
X135032890Y-96497000D01*
X135136637Y-96476363D01*
X135234365Y-96435883D01*
X135322317Y-96377115D01*
X135397115Y-96302317D01*
X135455883Y-96214365D01*
X135476272Y-96165142D01*
X135503363Y-96176363D01*
X135607110Y-96197000D01*
X135712890Y-96197000D01*
X135816637Y-96176363D01*
X135914365Y-96135883D01*
X136002317Y-96077115D01*
X136032432Y-96047000D01*
X136991004Y-96047000D01*
X137010000Y-96048871D01*
X137028996Y-96047000D01*
X137029007Y-96047000D01*
X137085865Y-96041400D01*
X137158815Y-96019271D01*
X137226046Y-95983335D01*
X137284974Y-95934974D01*
X137297093Y-95920207D01*
X137770301Y-95447000D01*
X137812890Y-95447000D01*
X137916637Y-95426363D01*
X138014365Y-95385883D01*
X138102317Y-95327115D01*
X138177115Y-95252317D01*
X138235883Y-95164365D01*
X138276363Y-95066637D01*
X138297000Y-94962890D01*
X138297000Y-94857110D01*
X138276363Y-94753363D01*
X138235883Y-94655635D01*
X138177115Y-94567683D01*
X138102317Y-94492885D01*
X138014365Y-94434117D01*
X137916637Y-94393637D01*
X137812890Y-94373000D01*
X137707110Y-94373000D01*
X137603363Y-94393637D01*
X137505635Y-94434117D01*
X137417683Y-94492885D01*
X137359426Y-94551142D01*
X137357115Y-94547683D01*
X137282317Y-94472885D01*
X137194365Y-94414117D01*
X137096637Y-94373637D01*
X136992890Y-94353000D01*
X136887110Y-94353000D01*
X136783363Y-94373637D01*
X136685635Y-94414117D01*
X136597683Y-94472885D01*
X136567568Y-94503000D01*
X135715443Y-94503000D01*
X135696446Y-94501129D01*
X135677450Y-94503000D01*
X135677440Y-94503000D01*
X135620582Y-94508600D01*
X135554647Y-94528601D01*
X135547632Y-94530729D01*
X135480401Y-94566665D01*
X135468911Y-94576095D01*
X135421473Y-94615026D01*
X135409359Y-94629787D01*
X134719793Y-95319354D01*
X134705026Y-95331473D01*
X134656665Y-95390402D01*
X134620729Y-95457633D01*
X134598600Y-95530583D01*
X134593000Y-95587441D01*
X134593000Y-95587451D01*
X134592987Y-95587581D01*
X134562885Y-95617683D01*
X134504117Y-95705635D01*
X134463637Y-95803363D01*
X134443000Y-95907110D01*
X132009783Y-95907110D01*
X132004384Y-95879968D01*
X131963904Y-95782240D01*
X131905136Y-95694288D01*
X131830338Y-95619490D01*
X131742386Y-95560722D01*
X131644658Y-95520242D01*
X131540911Y-95499605D01*
X131435131Y-95499605D01*
X131331384Y-95520242D01*
X131296354Y-95534752D01*
X131310781Y-95462222D01*
X131310781Y-95356442D01*
X131290144Y-95252695D01*
X131249664Y-95154967D01*
X131190896Y-95067015D01*
X131116098Y-94992217D01*
X131028146Y-94933449D01*
X130930418Y-94892969D01*
X130826671Y-94872332D01*
X130784082Y-94872332D01*
X130661322Y-94749572D01*
X132358000Y-94749572D01*
X132358000Y-94850428D01*
X132377676Y-94949345D01*
X132416272Y-95042523D01*
X132472304Y-95126381D01*
X132543619Y-95197696D01*
X132627477Y-95253728D01*
X132720655Y-95292324D01*
X132819572Y-95312000D01*
X132920428Y-95312000D01*
X133019345Y-95292324D01*
X133112523Y-95253728D01*
X133196381Y-95197696D01*
X133267696Y-95126381D01*
X133315023Y-95055551D01*
X133342304Y-95096381D01*
X133413619Y-95167696D01*
X133497477Y-95223728D01*
X133590655Y-95262324D01*
X133689572Y-95282000D01*
X133790428Y-95282000D01*
X133889345Y-95262324D01*
X133982523Y-95223728D01*
X134066381Y-95167696D01*
X134137696Y-95096381D01*
X134193728Y-95012523D01*
X134232324Y-94919345D01*
X134252000Y-94820428D01*
X134252000Y-94719572D01*
X134232324Y-94620655D01*
X134193728Y-94527477D01*
X134137696Y-94443619D01*
X134066381Y-94372304D01*
X133982523Y-94316272D01*
X133889345Y-94277676D01*
X133887000Y-94277210D01*
X133887000Y-84339572D01*
X135728000Y-84339572D01*
X135728000Y-84440428D01*
X135747676Y-84539345D01*
X135786272Y-84632523D01*
X135842304Y-84716381D01*
X135913619Y-84787696D01*
X135997477Y-84843728D01*
X136090655Y-84882324D01*
X136189572Y-84902000D01*
X136238359Y-84902000D01*
X137516800Y-86180442D01*
X137516801Y-86782177D01*
X137515043Y-86800025D01*
X137522056Y-86871224D01*
X137542824Y-86939687D01*
X137542825Y-86939688D01*
X137576550Y-87002784D01*
X137621937Y-87058089D01*
X137635799Y-87069465D01*
X139145830Y-88579497D01*
X139157207Y-88593360D01*
X139212512Y-88638747D01*
X139261500Y-88664931D01*
X139275608Y-88672472D01*
X139344070Y-88693240D01*
X139415270Y-88700253D01*
X139433108Y-88698496D01*
X139883000Y-88698496D01*
X139883000Y-88705428D01*
X139902676Y-88804345D01*
X139941272Y-88897523D01*
X139997304Y-88981381D01*
X140068619Y-89052696D01*
X140152477Y-89108728D01*
X140245655Y-89147324D01*
X140344572Y-89167000D01*
X140445428Y-89167000D01*
X140544345Y-89147324D01*
X140637523Y-89108728D01*
X140721381Y-89052696D01*
X140792696Y-88981381D01*
X140848728Y-88897523D01*
X140887324Y-88804345D01*
X140907000Y-88705428D01*
X140907000Y-88604572D01*
X140887324Y-88505655D01*
X140848728Y-88412477D01*
X140792696Y-88328619D01*
X140721381Y-88257304D01*
X140637523Y-88201272D01*
X140544345Y-88162676D01*
X140445428Y-88143000D01*
X140396641Y-88143000D01*
X140344741Y-88091100D01*
X140333360Y-88077232D01*
X140278055Y-88031845D01*
X140214959Y-87998120D01*
X140146496Y-87977352D01*
X140093134Y-87972096D01*
X140075296Y-87970339D01*
X140057458Y-87972096D01*
X139565713Y-87972096D01*
X139330617Y-87737000D01*
X139747568Y-87737000D01*
X139777683Y-87767115D01*
X139865635Y-87825883D01*
X139963363Y-87866363D01*
X140067110Y-87887000D01*
X140172890Y-87887000D01*
X140276637Y-87866363D01*
X140374365Y-87825883D01*
X140462317Y-87767115D01*
X140537115Y-87692317D01*
X140595883Y-87604365D01*
X140636363Y-87506637D01*
X140657000Y-87402890D01*
X140657000Y-87297110D01*
X140636363Y-87193363D01*
X140595883Y-87095635D01*
X140537115Y-87007683D01*
X140462317Y-86932885D01*
X140374365Y-86874117D01*
X140276637Y-86833637D01*
X140172890Y-86813000D01*
X140067110Y-86813000D01*
X139963363Y-86833637D01*
X139865635Y-86874117D01*
X139777683Y-86932885D01*
X139747568Y-86963000D01*
X139260301Y-86963000D01*
X138627000Y-86329700D01*
X138627000Y-85057389D01*
X138671573Y-84990681D01*
X138708284Y-84902053D01*
X138727000Y-84807965D01*
X138727000Y-84712035D01*
X138708284Y-84617947D01*
X138671573Y-84529319D01*
X138618277Y-84449556D01*
X138550444Y-84381723D01*
X138470681Y-84328427D01*
X138382053Y-84291716D01*
X138287965Y-84273000D01*
X138192035Y-84273000D01*
X138097947Y-84291716D01*
X138009319Y-84328427D01*
X137929556Y-84381723D01*
X137861723Y-84449556D01*
X137808427Y-84529319D01*
X137771716Y-84617947D01*
X137753000Y-84712035D01*
X137753000Y-84807965D01*
X137771716Y-84902053D01*
X137808427Y-84990681D01*
X137853000Y-85057389D01*
X137853000Y-85061848D01*
X137853001Y-85061858D01*
X137853001Y-85489359D01*
X136752000Y-84388359D01*
X136752000Y-84339572D01*
X136732324Y-84240655D01*
X136693728Y-84147477D01*
X136637696Y-84063619D01*
X136566381Y-83992304D01*
X136482523Y-83936272D01*
X136389345Y-83897676D01*
X136290428Y-83878000D01*
X136189572Y-83878000D01*
X136090655Y-83897676D01*
X135997477Y-83936272D01*
X135913619Y-83992304D01*
X135842304Y-84063619D01*
X135786272Y-84147477D01*
X135747676Y-84240655D01*
X135728000Y-84339572D01*
X133887000Y-84339572D01*
X133887000Y-82929572D01*
X142548000Y-82929572D01*
X142548000Y-83030428D01*
X142567676Y-83129345D01*
X142606272Y-83222523D01*
X142662304Y-83306381D01*
X142733619Y-83377696D01*
X142817477Y-83433728D01*
X142910655Y-83472324D01*
X143009572Y-83492000D01*
X143110428Y-83492000D01*
X143209345Y-83472324D01*
X143302523Y-83433728D01*
X143386381Y-83377696D01*
X143457696Y-83306381D01*
X143513728Y-83222523D01*
X143552324Y-83129345D01*
X143572000Y-83030428D01*
X143572000Y-82929572D01*
X143552324Y-82830655D01*
X143513728Y-82737477D01*
X143457696Y-82653619D01*
X143386381Y-82582304D01*
X143302523Y-82526272D01*
X143209345Y-82487676D01*
X143110428Y-82468000D01*
X143009572Y-82468000D01*
X142910655Y-82487676D01*
X142817477Y-82526272D01*
X142733619Y-82582304D01*
X142662304Y-82653619D01*
X142606272Y-82737477D01*
X142567676Y-82830655D01*
X142548000Y-82929572D01*
X133887000Y-82929572D01*
X133887000Y-80078500D01*
X135634657Y-78330844D01*
X135710655Y-78362324D01*
X135809572Y-78382000D01*
X135910428Y-78382000D01*
X136009345Y-78362324D01*
X136102523Y-78323728D01*
X136186381Y-78267696D01*
X136257696Y-78196381D01*
X136313728Y-78112523D01*
X136352324Y-78019345D01*
X136372000Y-77920428D01*
X136372000Y-77819572D01*
X136352324Y-77720655D01*
X136313728Y-77627477D01*
X136257696Y-77543619D01*
X136235635Y-77521558D01*
X136256381Y-77507696D01*
X136327696Y-77436381D01*
X136383728Y-77352523D01*
X136422324Y-77259345D01*
X136442000Y-77160428D01*
X136442000Y-77059572D01*
X136422324Y-76960655D01*
X136383728Y-76867477D01*
X136327696Y-76783619D01*
X136256381Y-76712304D01*
X136172523Y-76656272D01*
X136079345Y-76617676D01*
X135980428Y-76598000D01*
X135879572Y-76598000D01*
X135780655Y-76617676D01*
X135687477Y-76656272D01*
X135603619Y-76712304D01*
X135593573Y-76722350D01*
X135532985Y-76740729D01*
X135465754Y-76776665D01*
X135457281Y-76783619D01*
X135406826Y-76825026D01*
X135394712Y-76839787D01*
X132839793Y-79394707D01*
X132825026Y-79406826D01*
X132776665Y-79465755D01*
X132740729Y-79532986D01*
X132718600Y-79605936D01*
X132713000Y-79662794D01*
X132713000Y-79662804D01*
X132711129Y-79681800D01*
X132713000Y-79700796D01*
X132713001Y-94310846D01*
X132627477Y-94346272D01*
X132543619Y-94402304D01*
X132472304Y-94473619D01*
X132416272Y-94557477D01*
X132377676Y-94650655D01*
X132358000Y-94749572D01*
X130661322Y-94749572D01*
X128647000Y-92735251D01*
X128647000Y-84178996D01*
X128648871Y-84159999D01*
X128647000Y-84141003D01*
X128647000Y-84140993D01*
X128641400Y-84084135D01*
X128622000Y-84020181D01*
X128622000Y-83959572D01*
X128602324Y-83860655D01*
X128563728Y-83767477D01*
X128507696Y-83683619D01*
X128436381Y-83612304D01*
X128352523Y-83556272D01*
X128259345Y-83517676D01*
X128160428Y-83498000D01*
X128059572Y-83498000D01*
X127960655Y-83517676D01*
X127867477Y-83556272D01*
X127783619Y-83612304D01*
X127712304Y-83683619D01*
X127656272Y-83767477D01*
X127617676Y-83860655D01*
X127598000Y-83959572D01*
X127598000Y-84060428D01*
X127617676Y-84159345D01*
X127654010Y-84247063D01*
X127600655Y-84257676D01*
X127507477Y-84296272D01*
X127462178Y-84326540D01*
X127462178Y-81322632D01*
X127464291Y-81301177D01*
X127462178Y-81279722D01*
X127462178Y-81279713D01*
X127455855Y-81215511D01*
X127430866Y-81133136D01*
X127406949Y-81088389D01*
X127390288Y-81057218D01*
X127349361Y-81007350D01*
X127349359Y-81007348D01*
X127335678Y-80990678D01*
X127319009Y-80976998D01*
X126785426Y-80443416D01*
X126785533Y-80443216D01*
X126850548Y-80228891D01*
X126872501Y-80006000D01*
X126850548Y-79783109D01*
X126785533Y-79568784D01*
X126679955Y-79371260D01*
X126537870Y-79198130D01*
X126364740Y-79056045D01*
X126167216Y-78950467D01*
X125952891Y-78885452D01*
X125785852Y-78869000D01*
X125674148Y-78869000D01*
X125507109Y-78885452D01*
X125292784Y-78950467D01*
X125095260Y-79056045D01*
X124922130Y-79198130D01*
X124822000Y-79320138D01*
X124822000Y-78151862D01*
X124922130Y-78273870D01*
X125095260Y-78415955D01*
X125292784Y-78521533D01*
X125507109Y-78586548D01*
X125674148Y-78603000D01*
X125785852Y-78603000D01*
X125952891Y-78586548D01*
X126140325Y-78529690D01*
X128181273Y-80570640D01*
X128195738Y-80588266D01*
X128266087Y-80645999D01*
X128346347Y-80688899D01*
X128433434Y-80715317D01*
X128501309Y-80722002D01*
X128501312Y-80722002D01*
X128524002Y-80724237D01*
X128546692Y-80722002D01*
X129874858Y-80722002D01*
X129895635Y-80735885D01*
X129993363Y-80776365D01*
X130097110Y-80797002D01*
X130202890Y-80797002D01*
X130306637Y-80776365D01*
X130404365Y-80735885D01*
X130492317Y-80677117D01*
X130567115Y-80602319D01*
X130625883Y-80514367D01*
X130666363Y-80416639D01*
X130687000Y-80312892D01*
X130687000Y-80207112D01*
X130666363Y-80103365D01*
X130625883Y-80005637D01*
X130567115Y-79917685D01*
X130492317Y-79842887D01*
X130404365Y-79784119D01*
X130306637Y-79743639D01*
X130202890Y-79723002D01*
X130097110Y-79723002D01*
X129993363Y-79743639D01*
X129895635Y-79784119D01*
X129874858Y-79798002D01*
X128715369Y-79798002D01*
X126793690Y-77876325D01*
X126850548Y-77688891D01*
X126872501Y-77466000D01*
X126850548Y-77243109D01*
X126785533Y-77028784D01*
X126679955Y-76831260D01*
X126537870Y-76658130D01*
X126364740Y-76516045D01*
X126167216Y-76410467D01*
X125952891Y-76345452D01*
X125785852Y-76329000D01*
X125674148Y-76329000D01*
X125507109Y-76345452D01*
X125292784Y-76410467D01*
X125095260Y-76516045D01*
X124922130Y-76658130D01*
X124822000Y-76780138D01*
X124822000Y-75611862D01*
X124922130Y-75733870D01*
X125095260Y-75875955D01*
X125292784Y-75981533D01*
X125507109Y-76046548D01*
X125674148Y-76063000D01*
X125785852Y-76063000D01*
X125952891Y-76046548D01*
X126167216Y-75981533D01*
X126364740Y-75875955D01*
X126537870Y-75733870D01*
X126634036Y-75616692D01*
X127957707Y-76940363D01*
X127946272Y-76957477D01*
X127907676Y-77050655D01*
X127888000Y-77149572D01*
X127888000Y-77250428D01*
X127907676Y-77349345D01*
X127946272Y-77442523D01*
X128002304Y-77526381D01*
X128073619Y-77597696D01*
X128157477Y-77653728D01*
X128250655Y-77692324D01*
X128349572Y-77712000D01*
X128450428Y-77712000D01*
X128549345Y-77692324D01*
X128642523Y-77653728D01*
X128726381Y-77597696D01*
X128797696Y-77526381D01*
X128853728Y-77442523D01*
X128892324Y-77349345D01*
X128912000Y-77250428D01*
X128912000Y-77149572D01*
X128892324Y-77050655D01*
X128853728Y-76957477D01*
X128812000Y-76895026D01*
X128812000Y-76820226D01*
X128813992Y-76799999D01*
X128812000Y-76779772D01*
X128812000Y-76779765D01*
X128806038Y-76719234D01*
X128803580Y-76711129D01*
X128796563Y-76688000D01*
X128782480Y-76641572D01*
X128744223Y-76569998D01*
X128692737Y-76507263D01*
X128677021Y-76494365D01*
X128232228Y-76049572D01*
X142508000Y-76049572D01*
X142508000Y-76150428D01*
X142527676Y-76249345D01*
X142566272Y-76342523D01*
X142622304Y-76426381D01*
X142693619Y-76497696D01*
X142777477Y-76553728D01*
X142870655Y-76592324D01*
X142969572Y-76612000D01*
X143070428Y-76612000D01*
X143169345Y-76592324D01*
X143262523Y-76553728D01*
X143346381Y-76497696D01*
X143417696Y-76426381D01*
X143473728Y-76342523D01*
X143512324Y-76249345D01*
X143532000Y-76150428D01*
X143532000Y-76049572D01*
X143512324Y-75950655D01*
X143473728Y-75857477D01*
X143417696Y-75773619D01*
X143346381Y-75702304D01*
X143262523Y-75646272D01*
X143169345Y-75607676D01*
X143070428Y-75588000D01*
X142969572Y-75588000D01*
X142870655Y-75607676D01*
X142777477Y-75646272D01*
X142693619Y-75702304D01*
X142622304Y-75773619D01*
X142566272Y-75857477D01*
X142527676Y-75950655D01*
X142508000Y-76049572D01*
X128232228Y-76049572D01*
X127232228Y-75049572D01*
X132388000Y-75049572D01*
X132388000Y-75150428D01*
X132407676Y-75249345D01*
X132446272Y-75342523D01*
X132502304Y-75426381D01*
X132573619Y-75497696D01*
X132657477Y-75553728D01*
X132750655Y-75592324D01*
X132849572Y-75612000D01*
X132950428Y-75612000D01*
X133049345Y-75592324D01*
X133122553Y-75562000D01*
X133277447Y-75562000D01*
X133350655Y-75592324D01*
X133449572Y-75612000D01*
X133550428Y-75612000D01*
X133649345Y-75592324D01*
X133722553Y-75562000D01*
X135477310Y-75562000D01*
X135500000Y-75564235D01*
X135522690Y-75562000D01*
X135522693Y-75562000D01*
X135590568Y-75555315D01*
X135677655Y-75528897D01*
X135757915Y-75485997D01*
X135828264Y-75428264D01*
X135842738Y-75410627D01*
X136110632Y-75142734D01*
X136128264Y-75128264D01*
X136165012Y-75083485D01*
X136185997Y-75057916D01*
X136211911Y-75009433D01*
X136228897Y-74977655D01*
X136255315Y-74890568D01*
X136262000Y-74822693D01*
X136262000Y-74822691D01*
X136264235Y-74800001D01*
X136262000Y-74777311D01*
X136262000Y-73891365D01*
X136291366Y-73862000D01*
X136663001Y-73862000D01*
X136663000Y-74578545D01*
X136660887Y-74600000D01*
X136663000Y-74621455D01*
X136663000Y-74621464D01*
X136669323Y-74685666D01*
X136694312Y-74768041D01*
X136734890Y-74843958D01*
X136789500Y-74910500D01*
X136801988Y-74920749D01*
X136807676Y-74949345D01*
X136846272Y-75042523D01*
X136902304Y-75126381D01*
X136973619Y-75197696D01*
X137057477Y-75253728D01*
X137150655Y-75292324D01*
X137249572Y-75312000D01*
X137350428Y-75312000D01*
X137449345Y-75292324D01*
X137542523Y-75253728D01*
X137626381Y-75197696D01*
X137697696Y-75126381D01*
X137753728Y-75042523D01*
X137792324Y-74949345D01*
X137812000Y-74850428D01*
X137812000Y-74749572D01*
X137792324Y-74650655D01*
X137753728Y-74557477D01*
X137697696Y-74473619D01*
X137626381Y-74402304D01*
X137542523Y-74346272D01*
X137537000Y-74343984D01*
X137537000Y-73624731D01*
X137616603Y-73743866D01*
X137743634Y-73870897D01*
X137893006Y-73970704D01*
X138058979Y-74039453D01*
X138235176Y-74074500D01*
X138414824Y-74074500D01*
X138591021Y-74039453D01*
X138756994Y-73970704D01*
X138906366Y-73870897D01*
X139033397Y-73743866D01*
X139133204Y-73594494D01*
X139201953Y-73428521D01*
X139237000Y-73252324D01*
X139237000Y-73072676D01*
X139201953Y-72896479D01*
X139133204Y-72730506D01*
X139033397Y-72581134D01*
X138906366Y-72454103D01*
X138756994Y-72354296D01*
X138591021Y-72285547D01*
X138414824Y-72250500D01*
X138235176Y-72250500D01*
X138058979Y-72285547D01*
X137893006Y-72354296D01*
X137743634Y-72454103D01*
X137616603Y-72581134D01*
X137537000Y-72700269D01*
X137537000Y-72287077D01*
X137597696Y-72226381D01*
X137653728Y-72142523D01*
X137692324Y-72049345D01*
X137712000Y-71950428D01*
X137712000Y-71849572D01*
X137692324Y-71750655D01*
X137653728Y-71657477D01*
X137597696Y-71573619D01*
X137526381Y-71502304D01*
X137442523Y-71446272D01*
X137349345Y-71407676D01*
X137250428Y-71388000D01*
X137149572Y-71388000D01*
X137050655Y-71407676D01*
X136957477Y-71446272D01*
X136873619Y-71502304D01*
X136802304Y-71573619D01*
X136746272Y-71657477D01*
X136707676Y-71750655D01*
X136688000Y-71849572D01*
X136688000Y-71852767D01*
X136669324Y-71914334D01*
X136660887Y-72000000D01*
X136663001Y-72021464D01*
X136663000Y-72938000D01*
X136122689Y-72938000D01*
X136099999Y-72935765D01*
X136077309Y-72938000D01*
X136077307Y-72938000D01*
X136009432Y-72944685D01*
X135922345Y-72971103D01*
X135886056Y-72990500D01*
X135842084Y-73014003D01*
X135816634Y-73034890D01*
X135771736Y-73071736D01*
X135757266Y-73089368D01*
X135489373Y-73357262D01*
X135471736Y-73371736D01*
X135433396Y-73418455D01*
X135414003Y-73442085D01*
X135404180Y-73460463D01*
X135371103Y-73522346D01*
X135344685Y-73609433D01*
X135339910Y-73657915D01*
X135335765Y-73700000D01*
X135338000Y-73722690D01*
X135338001Y-74608634D01*
X135308635Y-74638000D01*
X133722553Y-74638000D01*
X133649345Y-74607676D01*
X133550428Y-74588000D01*
X133449572Y-74588000D01*
X133350655Y-74607676D01*
X133277447Y-74638000D01*
X133122553Y-74638000D01*
X133049345Y-74607676D01*
X132950428Y-74588000D01*
X132849572Y-74588000D01*
X132750655Y-74607676D01*
X132657477Y-74646272D01*
X132573619Y-74702304D01*
X132502304Y-74773619D01*
X132446272Y-74857477D01*
X132407676Y-74950655D01*
X132388000Y-75049572D01*
X127232228Y-75049572D01*
X126835214Y-74652559D01*
X126785533Y-74488784D01*
X126679955Y-74291260D01*
X126537870Y-74118130D01*
X126364740Y-73976045D01*
X126167216Y-73870467D01*
X125952891Y-73805452D01*
X125785852Y-73789000D01*
X125674148Y-73789000D01*
X125507109Y-73805452D01*
X125292784Y-73870467D01*
X125095260Y-73976045D01*
X124922130Y-74118130D01*
X124822000Y-74240138D01*
X124822000Y-73072676D01*
X132563000Y-73072676D01*
X132563000Y-73252324D01*
X132598047Y-73428521D01*
X132666796Y-73594494D01*
X132766603Y-73743866D01*
X132893634Y-73870897D01*
X133043006Y-73970704D01*
X133208979Y-74039453D01*
X133385176Y-74074500D01*
X133564824Y-74074500D01*
X133741021Y-74039453D01*
X133906994Y-73970704D01*
X134056366Y-73870897D01*
X134183397Y-73743866D01*
X134283204Y-73594494D01*
X134351953Y-73428521D01*
X134387000Y-73252324D01*
X134387000Y-73072676D01*
X134351953Y-72896479D01*
X134283204Y-72730506D01*
X134183397Y-72581134D01*
X134056366Y-72454103D01*
X133906994Y-72354296D01*
X133741021Y-72285547D01*
X133564824Y-72250500D01*
X133385176Y-72250500D01*
X133208979Y-72285547D01*
X133043006Y-72354296D01*
X132893634Y-72454103D01*
X132766603Y-72581134D01*
X132666796Y-72730506D01*
X132598047Y-72896479D01*
X132563000Y-73072676D01*
X124822000Y-73072676D01*
X124822000Y-71137702D01*
X124842230Y-70931378D01*
X125125500Y-70931378D01*
X125125500Y-71300622D01*
X125197536Y-71662772D01*
X125338840Y-72003909D01*
X125543981Y-72310924D01*
X125805076Y-72572019D01*
X126112091Y-72777160D01*
X126453228Y-72918464D01*
X126815378Y-72990500D01*
X127184622Y-72990500D01*
X127546772Y-72918464D01*
X127887909Y-72777160D01*
X128194924Y-72572019D01*
X128456019Y-72310924D01*
X128661160Y-72003909D01*
X128802464Y-71662772D01*
X128874500Y-71300622D01*
X128874500Y-70931378D01*
X128802464Y-70569228D01*
X128661160Y-70228091D01*
X128456019Y-69921076D01*
X128436462Y-69901519D01*
X131288000Y-69901519D01*
X131288000Y-70498480D01*
X131302282Y-70643485D01*
X131358719Y-70829535D01*
X131450369Y-71001001D01*
X131573709Y-71151291D01*
X131723999Y-71274631D01*
X131895464Y-71366281D01*
X132081514Y-71422718D01*
X132275000Y-71441775D01*
X132468485Y-71422718D01*
X132654535Y-71366281D01*
X132826001Y-71274631D01*
X132976291Y-71151291D01*
X133099631Y-71001001D01*
X133191281Y-70829536D01*
X133247718Y-70643486D01*
X133262000Y-70498481D01*
X133262000Y-69901520D01*
X138538000Y-69901520D01*
X138538000Y-70498481D01*
X138552282Y-70643486D01*
X138608719Y-70829536D01*
X138700370Y-71001001D01*
X138823710Y-71151291D01*
X138974000Y-71274631D01*
X139145465Y-71366281D01*
X139331515Y-71422718D01*
X139525000Y-71441775D01*
X139718486Y-71422718D01*
X139904536Y-71366281D01*
X140076001Y-71274631D01*
X140226291Y-71151291D01*
X140349631Y-71001001D01*
X140441281Y-70829536D01*
X140497718Y-70643485D01*
X140512000Y-70498480D01*
X140512000Y-69901519D01*
X140497718Y-69756514D01*
X140441281Y-69570464D01*
X140349631Y-69398999D01*
X140226291Y-69248709D01*
X140076001Y-69125369D01*
X139904535Y-69033719D01*
X139718485Y-68977282D01*
X139525000Y-68958225D01*
X139331514Y-68977282D01*
X139145464Y-69033719D01*
X138973999Y-69125369D01*
X138823709Y-69248709D01*
X138700369Y-69398999D01*
X138608719Y-69570465D01*
X138552282Y-69756515D01*
X138538000Y-69901520D01*
X133262000Y-69901520D01*
X133247718Y-69756515D01*
X133191281Y-69570464D01*
X133099631Y-69398999D01*
X132976291Y-69248709D01*
X132826001Y-69125369D01*
X132654536Y-69033719D01*
X132468486Y-68977282D01*
X132275000Y-68958225D01*
X132081515Y-68977282D01*
X131895465Y-69033719D01*
X131724000Y-69125369D01*
X131573710Y-69248709D01*
X131450370Y-69398999D01*
X131358719Y-69570464D01*
X131302282Y-69756514D01*
X131288000Y-69901519D01*
X128436462Y-69901519D01*
X128194924Y-69659981D01*
X127887909Y-69454840D01*
X127546772Y-69313536D01*
X127184622Y-69241500D01*
X126815378Y-69241500D01*
X126453228Y-69313536D01*
X126112091Y-69454840D01*
X125805076Y-69659981D01*
X125543981Y-69921076D01*
X125338840Y-70228091D01*
X125197536Y-70569228D01*
X125125500Y-70931378D01*
X124842230Y-70931378D01*
X124865182Y-70697297D01*
X124987944Y-70290690D01*
X125187343Y-69915674D01*
X125455786Y-69586530D01*
X125783047Y-69315797D01*
X126156664Y-69113783D01*
X126562403Y-68988186D01*
X127001831Y-68942000D01*
X144762298Y-68942000D01*
X145144115Y-68979437D01*
X145144115Y-68979437D01*
G37*
X145144115Y-68979437D02*
X145374173Y-69036952D01*
X145609310Y-69107944D01*
X145859943Y-69241208D01*
X146325603Y-69590453D01*
X146584203Y-69903047D01*
X146786217Y-70276664D01*
X146911814Y-70682403D01*
X146958000Y-71121831D01*
X146958000Y-84400138D01*
X146857870Y-84278130D01*
X146684740Y-84136045D01*
X146487216Y-84030467D01*
X146272891Y-83965452D01*
X146105852Y-83949000D01*
X145994148Y-83949000D01*
X145827109Y-83965452D01*
X145612784Y-84030467D01*
X145415260Y-84136045D01*
X145242130Y-84278130D01*
X145213200Y-84313381D01*
X145213200Y-81917858D01*
X145252304Y-81976381D01*
X145323619Y-82047696D01*
X145407477Y-82103728D01*
X145500655Y-82142324D01*
X145599572Y-82162000D01*
X145700428Y-82162000D01*
X145799345Y-82142324D01*
X145892523Y-82103728D01*
X145951073Y-82064606D01*
X145972304Y-82096381D01*
X146043619Y-82167696D01*
X146127477Y-82223728D01*
X146220655Y-82262324D01*
X146319572Y-82282000D01*
X146420428Y-82282000D01*
X146519345Y-82262324D01*
X146612523Y-82223728D01*
X146696381Y-82167696D01*
X146767696Y-82096381D01*
X146823728Y-82012523D01*
X146862324Y-81919345D01*
X146882000Y-81820428D01*
X146882000Y-81719572D01*
X146862324Y-81620655D01*
X146823728Y-81527477D01*
X146767696Y-81443619D01*
X146696381Y-81372304D01*
X146612523Y-81316272D01*
X146519345Y-81277676D01*
X146420428Y-81258000D01*
X146319572Y-81258000D01*
X146220655Y-81277676D01*
X146127477Y-81316272D01*
X146068927Y-81355394D01*
X146047696Y-81323619D01*
X145976381Y-81252304D01*
X145892523Y-81196272D01*
X145799345Y-81157676D01*
X145700428Y-81138000D01*
X145599572Y-81138000D01*
X145500655Y-81157676D01*
X145407477Y-81196272D01*
X145323619Y-81252304D01*
X145252304Y-81323619D01*
X145213200Y-81382142D01*
X145213200Y-81240441D01*
X145367471Y-81086170D01*
X145390000Y-81088389D01*
X145890000Y-81088389D01*
X145914450Y-81085981D01*
X145939009Y-81085981D01*
X145995271Y-81080440D01*
X146091404Y-81061318D01*
X146145502Y-81044907D01*
X146236058Y-81007398D01*
X146285919Y-80980748D01*
X146367418Y-80926292D01*
X146411119Y-80890427D01*
X146480427Y-80821119D01*
X146516292Y-80777418D01*
X146570748Y-80695919D01*
X146597398Y-80646058D01*
X146634907Y-80555502D01*
X146651318Y-80501404D01*
X146670440Y-80405271D01*
X146675981Y-80349009D01*
X146675981Y-80324450D01*
X146678389Y-80300000D01*
X146678389Y-79800000D01*
X146672848Y-79743738D01*
X146656437Y-79689638D01*
X146635250Y-79650000D01*
X146656437Y-79610362D01*
X146672848Y-79556262D01*
X146678389Y-79500000D01*
X146678389Y-79000000D01*
X146675981Y-78975550D01*
X146675981Y-78950991D01*
X146670440Y-78894729D01*
X146651318Y-78798596D01*
X146634907Y-78744498D01*
X146597398Y-78653942D01*
X146570748Y-78604081D01*
X146516292Y-78522582D01*
X146480427Y-78478881D01*
X146411119Y-78409573D01*
X146367418Y-78373708D01*
X146285919Y-78319252D01*
X146236058Y-78292602D01*
X146145502Y-78255093D01*
X146109500Y-78244172D01*
X146109500Y-77934566D01*
X146200655Y-77972324D01*
X146299572Y-77992000D01*
X146400428Y-77992000D01*
X146499345Y-77972324D01*
X146592523Y-77933728D01*
X146676381Y-77877696D01*
X146747696Y-77806381D01*
X146803728Y-77722523D01*
X146842324Y-77629345D01*
X146862000Y-77530428D01*
X146862000Y-77429572D01*
X146842324Y-77330655D01*
X146803728Y-77237477D01*
X146747696Y-77153619D01*
X146676381Y-77082304D01*
X146592523Y-77026272D01*
X146499345Y-76987676D01*
X146487783Y-76985376D01*
X146813488Y-76659671D01*
X146827869Y-76647869D01*
X146874981Y-76590463D01*
X146909988Y-76524970D01*
X146931545Y-76453905D01*
X146937000Y-76398519D01*
X146937000Y-76398518D01*
X146938824Y-76380000D01*
X146937000Y-76361481D01*
X146937000Y-73808508D01*
X146938823Y-73789999D01*
X146937000Y-73771490D01*
X146937000Y-73771481D01*
X146931545Y-73716095D01*
X146909988Y-73645030D01*
X146874981Y-73579537D01*
X146827869Y-73522131D01*
X146813481Y-73510323D01*
X146299677Y-72996519D01*
X146287869Y-72982131D01*
X146230463Y-72935019D01*
X146164970Y-72900012D01*
X146093905Y-72878455D01*
X146038519Y-72873000D01*
X146038512Y-72873000D01*
X146020000Y-72871177D01*
X146001488Y-72873000D01*
X145436531Y-72873000D01*
X145667909Y-72777160D01*
X145974924Y-72572019D01*
X146236019Y-72310924D01*
X146441160Y-72003909D01*
X146582464Y-71662772D01*
X146654500Y-71300622D01*
X146654500Y-70931378D01*
X146582464Y-70569228D01*
X146441160Y-70228091D01*
X146236019Y-69921076D01*
X145974924Y-69659981D01*
X145667909Y-69454840D01*
X145326772Y-69313536D01*
X144964622Y-69241500D01*
X144595378Y-69241500D01*
X144233228Y-69313536D01*
X143892091Y-69454840D01*
X143585076Y-69659981D01*
X143323981Y-69921076D01*
X143118840Y-70228091D01*
X142977536Y-70569228D01*
X142905500Y-70931378D01*
X142905500Y-71300622D01*
X142977536Y-71662772D01*
X143118840Y-72003909D01*
X143301572Y-72277386D01*
X143247523Y-72241272D01*
X143154345Y-72202676D01*
X143055428Y-72183000D01*
X142954572Y-72183000D01*
X142855655Y-72202676D01*
X142762477Y-72241272D01*
X142678619Y-72297304D01*
X142607304Y-72368619D01*
X142551272Y-72452477D01*
X142512676Y-72545655D01*
X142493000Y-72644572D01*
X142493000Y-72745428D01*
X142512676Y-72844345D01*
X142551272Y-72937523D01*
X142607304Y-73021381D01*
X142678619Y-73092696D01*
X142762477Y-73148728D01*
X142855655Y-73187324D01*
X142954572Y-73207000D01*
X142983842Y-73207000D01*
X143280328Y-73503487D01*
X143292131Y-73517869D01*
X143349537Y-73564981D01*
X143415030Y-73599988D01*
X143486095Y-73621545D01*
X143541481Y-73627000D01*
X143541490Y-73627000D01*
X143559999Y-73628823D01*
X143578508Y-73627000D01*
X145863842Y-73627000D01*
X146183001Y-73946159D01*
X146183000Y-76223841D01*
X145479014Y-76927828D01*
X145464632Y-76939631D01*
X145452829Y-76954013D01*
X145452826Y-76954016D01*
X145417520Y-76997037D01*
X145396880Y-77035650D01*
X145329345Y-77007676D01*
X145230428Y-76988000D01*
X145129572Y-76988000D01*
X145030655Y-77007676D01*
X144937477Y-77046272D01*
X144853619Y-77102304D01*
X144782304Y-77173619D01*
X144726272Y-77257477D01*
X144687676Y-77350655D01*
X144668000Y-77449572D01*
X144668000Y-77550428D01*
X144687676Y-77649345D01*
X144726272Y-77742523D01*
X144782304Y-77826381D01*
X144853619Y-77897696D01*
X144937477Y-77953728D01*
X145030655Y-77992324D01*
X145129572Y-78012000D01*
X145230428Y-78012000D01*
X145329345Y-77992324D01*
X145355501Y-77981490D01*
X145355500Y-78214019D01*
X145340991Y-78214019D01*
X145284729Y-78219560D01*
X145188596Y-78238682D01*
X145134498Y-78255093D01*
X145043942Y-78292602D01*
X144994081Y-78319252D01*
X144912582Y-78373708D01*
X144868881Y-78409573D01*
X144799573Y-78478881D01*
X144763708Y-78522582D01*
X144709252Y-78604081D01*
X144682602Y-78653942D01*
X144645093Y-78744498D01*
X144628682Y-78798596D01*
X144609560Y-78894729D01*
X144604019Y-78950991D01*
X144604019Y-78975550D01*
X144601611Y-79000000D01*
X144601611Y-79500000D01*
X144607152Y-79556262D01*
X144623563Y-79610362D01*
X144644750Y-79650000D01*
X144623563Y-79689638D01*
X144607152Y-79743738D01*
X144601611Y-79800000D01*
X144601611Y-80300000D01*
X144604019Y-80324450D01*
X144604019Y-80349009D01*
X144609560Y-80405271D01*
X144628682Y-80501404D01*
X144645093Y-80555502D01*
X144682602Y-80646058D01*
X144709252Y-80695919D01*
X144717739Y-80708620D01*
X144605800Y-80820559D01*
X144591936Y-80831937D01*
X144546549Y-80887242D01*
X144512825Y-80950337D01*
X144512824Y-80950338D01*
X144492056Y-81018801D01*
X144485043Y-81090000D01*
X144486800Y-81107838D01*
X144486801Y-85355794D01*
X144454525Y-85307490D01*
X144379727Y-85232692D01*
X144291775Y-85173924D01*
X144194047Y-85133444D01*
X144169537Y-85128569D01*
X143950341Y-84909373D01*
X143935867Y-84891736D01*
X143865518Y-84834003D01*
X143785258Y-84791103D01*
X143698171Y-84764685D01*
X143630296Y-84758000D01*
X143630293Y-84758000D01*
X143607603Y-84755765D01*
X143584913Y-84758000D01*
X140188298Y-84758000D01*
X140112890Y-84743000D01*
X140007110Y-84743000D01*
X139903363Y-84763637D01*
X139805635Y-84804117D01*
X139717683Y-84862885D01*
X139642885Y-84937683D01*
X139584117Y-85025635D01*
X139543637Y-85123363D01*
X139523000Y-85227110D01*
X139523000Y-85332890D01*
X139543637Y-85436637D01*
X139584117Y-85534365D01*
X139642885Y-85622317D01*
X139717683Y-85697115D01*
X139805635Y-85755883D01*
X139903363Y-85796363D01*
X140007110Y-85817000D01*
X140112890Y-85817000D01*
X140216637Y-85796363D01*
X140314365Y-85755883D01*
X140402317Y-85697115D01*
X140417432Y-85682000D01*
X143416238Y-85682000D01*
X143516172Y-85781934D01*
X143521047Y-85806444D01*
X143561527Y-85904172D01*
X143620295Y-85992124D01*
X143695093Y-86066922D01*
X143783045Y-86125690D01*
X143880773Y-86166170D01*
X143949418Y-86179825D01*
X144034390Y-86264797D01*
X144034390Y-86996236D01*
X143971869Y-86983800D01*
X143866089Y-86983800D01*
X143762342Y-87004437D01*
X143664614Y-87044917D01*
X143605375Y-87084499D01*
X143530271Y-87069560D01*
X143474009Y-87064019D01*
X143449450Y-87064019D01*
X143425000Y-87061611D01*
X142925000Y-87061611D01*
X142868738Y-87067152D01*
X142814638Y-87083563D01*
X142775000Y-87104750D01*
X142735362Y-87083563D01*
X142681262Y-87067152D01*
X142625000Y-87061611D01*
X142125000Y-87061611D01*
X142100550Y-87064019D01*
X142075991Y-87064019D01*
X142019729Y-87069560D01*
X141923596Y-87088682D01*
X141869498Y-87105093D01*
X141778942Y-87142602D01*
X141729081Y-87169252D01*
X141647582Y-87223708D01*
X141603881Y-87259573D01*
X141534573Y-87328881D01*
X141498708Y-87372582D01*
X141444252Y-87454081D01*
X141417602Y-87503942D01*
X141380093Y-87594498D01*
X141363682Y-87648596D01*
X141344560Y-87744729D01*
X141339019Y-87800991D01*
X141339019Y-87825550D01*
X141336611Y-87850000D01*
X141336611Y-88350000D01*
X141339019Y-88374450D01*
X141339019Y-88399009D01*
X141344560Y-88455271D01*
X141363682Y-88551404D01*
X141380093Y-88605502D01*
X141417602Y-88696058D01*
X141444252Y-88745919D01*
X141498708Y-88827418D01*
X141534573Y-88871119D01*
X141603881Y-88940427D01*
X141647582Y-88976292D01*
X141663001Y-88986594D01*
X141663001Y-89121025D01*
X141574152Y-89209874D01*
X141549643Y-89214749D01*
X141451915Y-89255229D01*
X141363963Y-89313997D01*
X141289165Y-89388795D01*
X141230397Y-89476747D01*
X141189917Y-89574475D01*
X141169280Y-89678222D01*
X141169280Y-89784002D01*
X141189917Y-89887749D01*
X141230397Y-89985477D01*
X141289165Y-90073429D01*
X141363963Y-90148227D01*
X141451915Y-90206995D01*
X141549643Y-90247475D01*
X141653390Y-90268112D01*
X141759170Y-90268112D01*
X141862917Y-90247475D01*
X141960645Y-90206995D01*
X142012453Y-90172378D01*
X142041013Y-90241328D01*
X142099781Y-90329280D01*
X142174579Y-90404078D01*
X142262531Y-90462846D01*
X142360259Y-90503326D01*
X142464006Y-90523963D01*
X142569786Y-90523963D01*
X142673533Y-90503326D01*
X142771261Y-90462846D01*
X142859213Y-90404078D01*
X142934011Y-90329280D01*
X142992779Y-90241328D01*
X143033259Y-90143600D01*
X143053896Y-90039853D01*
X143053896Y-90032618D01*
X143139514Y-89947000D01*
X143523933Y-89947000D01*
X143486805Y-90036634D01*
X143467129Y-90135551D01*
X143467129Y-90236407D01*
X143486805Y-90335324D01*
X143525401Y-90428502D01*
X143581433Y-90512360D01*
X143615929Y-90546856D01*
X143615930Y-91200873D01*
X143607115Y-91187681D01*
X143532317Y-91112883D01*
X143444365Y-91054115D01*
X143346637Y-91013635D01*
X143242890Y-90992998D01*
X143137110Y-90992998D01*
X143033363Y-91013635D01*
X142935635Y-91054115D01*
X142848730Y-91112184D01*
X142796119Y-91059573D01*
X142752418Y-91023708D01*
X142670919Y-90969252D01*
X142621058Y-90942602D01*
X142530502Y-90905093D01*
X142476404Y-90888682D01*
X142380271Y-90869560D01*
X142324009Y-90864019D01*
X142299450Y-90864019D01*
X142275000Y-90861611D01*
X141775000Y-90861611D01*
X141718738Y-90867152D01*
X141664638Y-90883563D01*
X141625000Y-90904750D01*
X141585362Y-90883563D01*
X141531262Y-90867152D01*
X141475000Y-90861611D01*
X140975000Y-90861611D01*
X140950550Y-90864019D01*
X140925991Y-90864019D01*
X140869729Y-90869560D01*
X140773596Y-90888682D01*
X140719498Y-90905093D01*
X140628942Y-90942602D01*
X140579081Y-90969252D01*
X140497582Y-91023708D01*
X140453881Y-91059573D01*
X140384573Y-91128881D01*
X140348708Y-91172582D01*
X140294252Y-91254081D01*
X140267602Y-91303942D01*
X140230093Y-91394498D01*
X140213682Y-91448596D01*
X140210817Y-91463000D01*
X138189142Y-91463000D01*
X138150883Y-91370635D01*
X138092115Y-91282683D01*
X138017317Y-91207885D01*
X137929365Y-91149117D01*
X137831637Y-91108637D01*
X137727890Y-91088000D01*
X137622110Y-91088000D01*
X137518363Y-91108637D01*
X137420635Y-91149117D01*
X137332683Y-91207885D01*
X137257885Y-91282683D01*
X137199117Y-91370635D01*
X137158637Y-91468363D01*
X137138000Y-91572110D01*
X137138000Y-91677890D01*
X137158637Y-91781637D01*
X137199117Y-91879365D01*
X137257885Y-91967317D01*
X137332683Y-92042115D01*
X137420635Y-92100883D01*
X137518363Y-92141363D01*
X137587008Y-92155018D01*
X137625814Y-92193824D01*
X137639500Y-92210500D01*
X137706041Y-92265110D01*
X137781958Y-92305688D01*
X137864333Y-92330677D01*
X137928535Y-92337000D01*
X137928543Y-92337000D01*
X137950000Y-92339113D01*
X137971457Y-92337000D01*
X140210817Y-92337000D01*
X140213682Y-92351404D01*
X140230093Y-92405502D01*
X140267602Y-92496058D01*
X140294252Y-92545919D01*
X140348708Y-92627418D01*
X140384573Y-92671119D01*
X140453881Y-92740427D01*
X140497582Y-92776292D01*
X140579081Y-92830748D01*
X140628942Y-92857398D01*
X140719498Y-92894907D01*
X140773596Y-92911318D01*
X140869729Y-92930440D01*
X140925991Y-92935981D01*
X140950550Y-92935981D01*
X140975000Y-92938389D01*
X141475000Y-92938389D01*
X141531262Y-92932848D01*
X141585362Y-92916437D01*
X141625000Y-92895250D01*
X141664638Y-92916437D01*
X141718738Y-92932848D01*
X141775000Y-92938389D01*
X142037968Y-92938389D01*
X141460608Y-93515749D01*
X141411821Y-93515749D01*
X141312904Y-93535425D01*
X141219726Y-93574021D01*
X141135868Y-93630053D01*
X141064553Y-93701368D01*
X141008521Y-93785226D01*
X140969925Y-93878404D01*
X140950249Y-93977321D01*
X140950249Y-94078177D01*
X140969925Y-94177094D01*
X141008521Y-94270272D01*
X141064553Y-94354130D01*
X141135868Y-94425445D01*
X141219726Y-94481477D01*
X141312904Y-94520073D01*
X141411821Y-94539749D01*
X141512677Y-94539749D01*
X141611594Y-94520073D01*
X141704772Y-94481477D01*
X141788630Y-94425445D01*
X141859945Y-94354130D01*
X141915977Y-94270272D01*
X141954573Y-94177094D01*
X141974249Y-94078177D01*
X141974249Y-94029390D01*
X143359962Y-92643678D01*
X143359961Y-95598138D01*
X138782980Y-100175120D01*
X138767264Y-100188018D01*
X138754366Y-100203734D01*
X138754364Y-100203736D01*
X138715778Y-100250753D01*
X138677521Y-100322327D01*
X138653962Y-100399989D01*
X138646008Y-100480755D01*
X138648001Y-100500992D01*
X138648001Y-100550844D01*
X138608596Y-100558682D01*
X138554498Y-100575093D01*
X138463942Y-100612602D01*
X138414081Y-100639252D01*
X138332582Y-100693708D01*
X138288881Y-100729573D01*
X138219573Y-100798881D01*
X138183708Y-100842582D01*
X138129252Y-100924081D01*
X138102602Y-100973942D01*
X138065093Y-101064498D01*
X138048682Y-101118596D01*
X138029560Y-101214729D01*
X138024019Y-101270991D01*
X138024019Y-101295550D01*
X138021611Y-101320000D01*
X138021611Y-101820000D01*
X138027152Y-101876262D01*
X138043563Y-101930362D01*
X138064750Y-101970000D01*
X138043563Y-102009638D01*
X138027152Y-102063738D01*
X138021611Y-102120000D01*
X138021611Y-102620000D01*
X138024019Y-102644450D01*
X138024019Y-102669009D01*
X138029560Y-102725271D01*
X138048682Y-102821404D01*
X138065093Y-102875502D01*
X138102602Y-102966058D01*
X138129252Y-103015919D01*
X138183708Y-103097418D01*
X138219573Y-103141119D01*
X138288881Y-103210427D01*
X138332582Y-103246292D01*
X138414081Y-103300748D01*
X138463942Y-103327398D01*
X138554498Y-103364907D01*
X138608596Y-103381318D01*
X138704729Y-103400440D01*
X138760991Y-103405981D01*
X138785550Y-103405981D01*
X138810000Y-103408389D01*
X139310000Y-103408389D01*
X139334450Y-103405981D01*
X139359009Y-103405981D01*
X139415271Y-103400440D01*
X139511404Y-103381318D01*
X139565502Y-103364907D01*
X139656058Y-103327398D01*
X139705919Y-103300748D01*
X139787418Y-103246292D01*
X139831119Y-103210427D01*
X139900427Y-103141119D01*
X139936292Y-103097418D01*
X139990748Y-103015919D01*
X139998188Y-103002000D01*
X140367212Y-103002000D01*
X140391746Y-103026534D01*
X140483793Y-103088038D01*
X140586071Y-103130402D01*
X140694648Y-103152000D01*
X140805352Y-103152000D01*
X140913929Y-103130402D01*
X141016207Y-103088038D01*
X141108254Y-103026534D01*
X141186534Y-102948254D01*
X141248038Y-102856207D01*
X141290402Y-102753929D01*
X141312000Y-102645352D01*
X141312000Y-102534648D01*
X141290402Y-102426071D01*
X141248038Y-102323793D01*
X141186534Y-102231746D01*
X141108254Y-102153466D01*
X141016207Y-102091962D01*
X140913929Y-102049598D01*
X140805352Y-102028000D01*
X140694648Y-102028000D01*
X140586071Y-102049598D01*
X140483793Y-102091962D01*
X140391746Y-102153466D01*
X140367212Y-102178000D01*
X140098389Y-102178000D01*
X140098389Y-102120000D01*
X140092848Y-102063738D01*
X140076437Y-102009638D01*
X140055250Y-101970000D01*
X140076437Y-101930362D01*
X140092848Y-101876262D01*
X140098389Y-101820000D01*
X140098389Y-101320000D01*
X140095981Y-101295550D01*
X140095981Y-101270991D01*
X140090440Y-101214729D01*
X140071318Y-101118596D01*
X140054907Y-101064498D01*
X140017398Y-100973942D01*
X139990748Y-100924081D01*
X139936292Y-100842582D01*
X139900427Y-100798881D01*
X139831119Y-100729573D01*
X139787418Y-100693708D01*
X139705919Y-100639252D01*
X139656058Y-100612602D01*
X139565502Y-100575093D01*
X139552317Y-100571093D01*
X144048983Y-96074428D01*
X144064698Y-96061531D01*
X144116184Y-95998796D01*
X144154441Y-95927222D01*
X144177999Y-95849560D01*
X144183961Y-95789029D01*
X144183961Y-95789022D01*
X144185953Y-95768795D01*
X144183961Y-95748568D01*
X144183961Y-92450269D01*
X144993522Y-91640709D01*
X145009237Y-91627812D01*
X145025749Y-91607693D01*
X145044001Y-91585452D01*
X145060723Y-91565077D01*
X145098980Y-91493503D01*
X145122538Y-91415841D01*
X145128500Y-91355310D01*
X145128500Y-91355302D01*
X145130492Y-91335075D01*
X145128500Y-91314848D01*
X145128500Y-90835412D01*
X145242130Y-90973870D01*
X145415260Y-91115955D01*
X145612784Y-91221533D01*
X145827109Y-91286548D01*
X145994148Y-91303000D01*
X146105852Y-91303000D01*
X146272891Y-91286548D01*
X146487216Y-91221533D01*
X146684740Y-91115955D01*
X146857870Y-90973870D01*
X146958000Y-90851861D01*
X146958000Y-92020139D01*
X146857870Y-91898130D01*
X146684740Y-91756045D01*
X146487216Y-91650467D01*
X146272891Y-91585452D01*
X146105852Y-91569000D01*
X145994148Y-91569000D01*
X145827109Y-91585452D01*
X145612784Y-91650467D01*
X145415260Y-91756045D01*
X145242130Y-91898130D01*
X145100045Y-92071260D01*
X144994467Y-92268784D01*
X144929452Y-92483109D01*
X144907499Y-92706000D01*
X144929452Y-92928891D01*
X144994467Y-93143216D01*
X145100045Y-93340740D01*
X145242130Y-93513870D01*
X145415260Y-93655955D01*
X145612784Y-93761533D01*
X145827109Y-93826548D01*
X145994148Y-93843000D01*
X146105852Y-93843000D01*
X146272891Y-93826548D01*
X146487216Y-93761533D01*
X146684740Y-93655955D01*
X146857870Y-93513870D01*
X146958000Y-93391861D01*
X146958001Y-94560139D01*
X146857870Y-94438130D01*
X146684740Y-94296045D01*
X146487216Y-94190467D01*
X146272891Y-94125452D01*
X146105852Y-94109000D01*
X145994148Y-94109000D01*
X145827109Y-94125452D01*
X145612784Y-94190467D01*
X145415260Y-94296045D01*
X145242130Y-94438130D01*
X145100045Y-94611260D01*
X144994467Y-94808784D01*
X144929452Y-95023109D01*
X144907499Y-95246000D01*
X144929452Y-95468891D01*
X144994467Y-95683216D01*
X145100045Y-95880740D01*
X145242130Y-96053870D01*
X145415260Y-96195955D01*
X145612784Y-96301533D01*
X145827109Y-96366548D01*
X145994148Y-96383000D01*
X146105852Y-96383000D01*
X146272891Y-96366548D01*
X146487216Y-96301533D01*
X146684740Y-96195955D01*
X146857870Y-96053870D01*
X146958001Y-95931861D01*
X146958001Y-97100139D01*
X146857870Y-96978130D01*
X146684740Y-96836045D01*
X146487216Y-96730467D01*
X146272891Y-96665452D01*
X146105852Y-96649000D01*
X145994148Y-96649000D01*
X145827109Y-96665452D01*
X145612784Y-96730467D01*
X145415260Y-96836045D01*
X145242130Y-96978130D01*
X145100045Y-97151260D01*
X144994467Y-97348784D01*
X144929452Y-97563109D01*
X144907499Y-97786000D01*
X144929452Y-98008891D01*
X144965355Y-98127248D01*
X144956638Y-98123637D01*
X144852891Y-98103000D01*
X144747111Y-98103000D01*
X144652835Y-98121753D01*
X144652835Y-97036289D01*
X144682950Y-97006174D01*
X144741718Y-96918222D01*
X144782198Y-96820494D01*
X144802835Y-96716747D01*
X144802835Y-96610967D01*
X144782198Y-96507220D01*
X144741718Y-96409492D01*
X144682950Y-96321540D01*
X144608152Y-96246742D01*
X144520200Y-96187974D01*
X144422472Y-96147494D01*
X144318725Y-96126857D01*
X144212945Y-96126857D01*
X144109198Y-96147494D01*
X144011470Y-96187974D01*
X143923518Y-96246742D01*
X143848720Y-96321540D01*
X143789952Y-96409492D01*
X143749472Y-96507220D01*
X143728835Y-96610967D01*
X143728835Y-96716747D01*
X143749472Y-96820494D01*
X143789952Y-96918222D01*
X143848720Y-97006174D01*
X143878835Y-97036289D01*
X143878835Y-97036416D01*
X143878836Y-97036426D01*
X143878835Y-111222839D01*
X143876964Y-111241835D01*
X143878835Y-111260831D01*
X143878835Y-111260841D01*
X143884435Y-111317699D01*
X143906564Y-111390649D01*
X143942500Y-111457880D01*
X143990861Y-111516809D01*
X144005628Y-111528928D01*
X145019204Y-112542504D01*
X144994467Y-112588784D01*
X144929452Y-112803109D01*
X144907499Y-113026000D01*
X144929452Y-113248891D01*
X144994467Y-113463216D01*
X145100045Y-113660740D01*
X145242130Y-113833870D01*
X145415260Y-113975955D01*
X145612784Y-114081533D01*
X145827109Y-114146548D01*
X145994148Y-114163000D01*
X146105852Y-114163000D01*
X146272891Y-114146548D01*
X146487216Y-114081533D01*
X146684740Y-113975955D01*
X146857870Y-113833870D01*
X146958001Y-113711861D01*
X146958001Y-116822288D01*
X146914818Y-117262701D01*
X146792055Y-117669313D01*
X146592657Y-118044325D01*
X146324212Y-118373472D01*
X145996953Y-118644203D01*
X145623336Y-118846217D01*
X145217598Y-118971814D01*
X144778170Y-119018000D01*
X127017702Y-119018000D01*
X126724756Y-118989276D01*
X126084978Y-118806483D01*
X125795675Y-118652657D01*
X125466528Y-118384212D01*
X125195797Y-118056953D01*
X124993783Y-117683336D01*
X124868186Y-117277598D01*
X124822000Y-116838170D01*
X124822000Y-116682649D01*
X125443000Y-116682649D01*
X125443000Y-116989351D01*
X125502834Y-117290160D01*
X125620204Y-117573516D01*
X125790599Y-117828530D01*
X126007470Y-118045401D01*
X126262484Y-118215796D01*
X126545840Y-118333166D01*
X126846649Y-118393000D01*
X127153351Y-118393000D01*
X127454160Y-118333166D01*
X127737516Y-118215796D01*
X127992530Y-118045401D01*
X128209401Y-117828530D01*
X128379796Y-117573516D01*
X128497166Y-117290160D01*
X128557000Y-116989351D01*
X128557000Y-116682649D01*
X143223000Y-116682649D01*
X143223000Y-116989351D01*
X143282834Y-117290160D01*
X143400204Y-117573516D01*
X143570599Y-117828530D01*
X143787470Y-118045401D01*
X144042484Y-118215796D01*
X144325840Y-118333166D01*
X144626649Y-118393000D01*
X144933351Y-118393000D01*
X145234160Y-118333166D01*
X145517516Y-118215796D01*
X145772530Y-118045401D01*
X145989401Y-117828530D01*
X146159796Y-117573516D01*
X146277166Y-117290160D01*
X146337000Y-116989351D01*
X146337000Y-116682649D01*
X146277166Y-116381840D01*
X146159796Y-116098484D01*
X145989401Y-115843470D01*
X145772530Y-115626599D01*
X145517516Y-115456204D01*
X145234160Y-115338834D01*
X144933351Y-115279000D01*
X144626649Y-115279000D01*
X144325840Y-115338834D01*
X144042484Y-115456204D01*
X143787470Y-115626599D01*
X143570599Y-115843470D01*
X143400204Y-116098484D01*
X143282834Y-116381840D01*
X143223000Y-116682649D01*
X128557000Y-116682649D01*
X128497166Y-116381840D01*
X128379796Y-116098484D01*
X128209401Y-115843470D01*
X127992530Y-115626599D01*
X127737516Y-115456204D01*
X127454160Y-115338834D01*
X127153351Y-115279000D01*
X126846649Y-115279000D01*
X126545840Y-115338834D01*
X126262484Y-115456204D01*
X126007470Y-115626599D01*
X125790599Y-115843470D01*
X125620204Y-116098484D01*
X125502834Y-116381840D01*
X125443000Y-116682649D01*
X124822000Y-116682649D01*
X124822000Y-111171862D01*
X124922130Y-111293870D01*
X125095260Y-111435955D01*
X125292784Y-111541533D01*
X125507109Y-111606548D01*
X125674148Y-111623000D01*
X125785852Y-111623000D01*
X125952891Y-111606548D01*
X126167216Y-111541533D01*
X126364740Y-111435955D01*
X126537870Y-111293870D01*
X126679955Y-111120740D01*
X126785533Y-110923216D01*
X126850548Y-110708891D01*
X126872501Y-110486000D01*
X126850548Y-110263109D01*
X126785533Y-110048784D01*
X126679955Y-109851260D01*
X126537870Y-109678130D01*
X126364740Y-109536045D01*
X126167216Y-109430467D01*
X125952891Y-109365452D01*
X125785852Y-109349000D01*
X125674148Y-109349000D01*
X125507109Y-109365452D01*
X125292784Y-109430467D01*
X125095260Y-109536045D01*
X124922130Y-109678130D01*
X124822000Y-109800138D01*
X124822000Y-108631862D01*
X124922130Y-108753870D01*
X125095260Y-108895955D01*
X125292784Y-109001533D01*
X125507109Y-109066548D01*
X125674148Y-109083000D01*
X125785852Y-109083000D01*
X125952891Y-109066548D01*
X126167216Y-109001533D01*
X126364740Y-108895955D01*
X126537870Y-108753870D01*
X126679955Y-108580740D01*
X126785533Y-108383216D01*
X126850548Y-108168891D01*
X126872501Y-107946000D01*
X126850548Y-107723109D01*
X126785533Y-107508784D01*
X126679955Y-107311260D01*
X126537870Y-107138130D01*
X126364740Y-106996045D01*
X126167216Y-106890467D01*
X125952891Y-106825452D01*
X125785852Y-106809000D01*
X125674148Y-106809000D01*
X125507109Y-106825452D01*
X125292784Y-106890467D01*
X125095260Y-106996045D01*
X124922130Y-107138130D01*
X124822000Y-107260138D01*
X124822000Y-106091862D01*
X124922130Y-106213870D01*
X125095260Y-106355955D01*
X125292784Y-106461533D01*
X125507109Y-106526548D01*
X125674148Y-106543000D01*
X125785852Y-106543000D01*
X125952891Y-106526548D01*
X126167216Y-106461533D01*
X126364740Y-106355955D01*
X126537870Y-106213870D01*
X126679955Y-106040740D01*
X126785533Y-105843216D01*
X126850548Y-105628891D01*
X126872501Y-105406000D01*
X126850548Y-105183109D01*
X126785533Y-104968784D01*
X126679955Y-104771260D01*
X126537870Y-104598130D01*
X126364740Y-104456045D01*
X126167216Y-104350467D01*
X125952891Y-104285452D01*
X125785852Y-104269000D01*
X125674148Y-104269000D01*
X125507109Y-104285452D01*
X125292784Y-104350467D01*
X125095260Y-104456045D01*
X124922130Y-104598130D01*
X124822000Y-104720138D01*
X124822000Y-103551862D01*
X124922130Y-103673870D01*
X125095260Y-103815955D01*
X125292784Y-103921533D01*
X125507109Y-103986548D01*
X125674148Y-104003000D01*
X125785852Y-104003000D01*
X125952891Y-103986548D01*
X126167216Y-103921533D01*
X126364740Y-103815955D01*
X126537870Y-103673870D01*
X126679955Y-103500740D01*
X126785533Y-103303216D01*
X126850548Y-103088891D01*
X126850734Y-103087000D01*
X130124773Y-103087000D01*
X130135558Y-103141222D01*
X130179808Y-103248049D01*
X130244048Y-103344191D01*
X130325809Y-103425952D01*
X130421951Y-103490192D01*
X130528778Y-103534442D01*
X130642186Y-103557000D01*
X130757814Y-103557000D01*
X130871222Y-103534442D01*
X130978049Y-103490192D01*
X131074191Y-103425952D01*
X131155952Y-103344191D01*
X131220192Y-103248049D01*
X131264442Y-103141222D01*
X131287000Y-103027814D01*
X131287000Y-102912186D01*
X131264442Y-102798778D01*
X131220192Y-102691951D01*
X131155952Y-102595809D01*
X131074191Y-102514048D01*
X130978049Y-102449808D01*
X130873186Y-102406371D01*
X130874365Y-102405883D01*
X130962317Y-102347115D01*
X131037115Y-102272317D01*
X131095883Y-102184365D01*
X131136363Y-102086637D01*
X131157000Y-101982890D01*
X131157000Y-101877110D01*
X131136363Y-101773363D01*
X131095883Y-101675635D01*
X131037115Y-101587683D01*
X130962317Y-101512885D01*
X130874365Y-101454117D01*
X130776637Y-101413637D01*
X130672890Y-101393000D01*
X130567110Y-101393000D01*
X130463363Y-101413637D01*
X130365635Y-101454117D01*
X130277683Y-101512885D01*
X130202885Y-101587683D01*
X130144117Y-101675635D01*
X130103637Y-101773363D01*
X130083000Y-101877110D01*
X130083000Y-101923000D01*
X127602158Y-101923000D01*
X126661899Y-100982741D01*
X126679955Y-100960740D01*
X126785533Y-100763216D01*
X126850548Y-100548891D01*
X126872501Y-100326000D01*
X126850548Y-100103109D01*
X126785533Y-99888784D01*
X126679955Y-99691260D01*
X126537870Y-99518130D01*
X126364740Y-99376045D01*
X126167216Y-99270467D01*
X125952891Y-99205452D01*
X125785852Y-99189000D01*
X125674148Y-99189000D01*
X125507109Y-99205452D01*
X125292784Y-99270467D01*
X125095260Y-99376045D01*
X124922130Y-99518130D01*
X124822000Y-99640138D01*
X124822000Y-98471862D01*
X124922130Y-98593870D01*
X125095260Y-98735955D01*
X125292784Y-98841533D01*
X125507109Y-98906548D01*
X125674148Y-98923000D01*
X125785852Y-98923000D01*
X125952891Y-98906548D01*
X126167216Y-98841533D01*
X126213496Y-98816796D01*
X126976912Y-99580213D01*
X126989026Y-99594974D01*
X127003787Y-99607088D01*
X127003789Y-99607090D01*
X127047954Y-99643335D01*
X127115185Y-99679271D01*
X127188135Y-99701400D01*
X127264000Y-99708872D01*
X127283007Y-99707000D01*
X130217568Y-99707000D01*
X130247683Y-99737115D01*
X130335635Y-99795883D01*
X130433363Y-99836363D01*
X130537110Y-99857000D01*
X130642890Y-99857000D01*
X130746637Y-99836363D01*
X130844365Y-99795883D01*
X130932317Y-99737115D01*
X131007115Y-99662317D01*
X131065883Y-99574365D01*
X131106363Y-99476637D01*
X131127000Y-99372890D01*
X131127000Y-99267110D01*
X131106363Y-99163363D01*
X131065883Y-99065635D01*
X131007115Y-98977683D01*
X130932317Y-98902885D01*
X130844365Y-98844117D01*
X130746637Y-98803637D01*
X130642890Y-98783000D01*
X130537110Y-98783000D01*
X130433363Y-98803637D01*
X130335635Y-98844117D01*
X130247683Y-98902885D01*
X130217568Y-98933000D01*
X127884498Y-98933000D01*
X127929525Y-98887973D01*
X127988293Y-98800021D01*
X128028773Y-98702293D01*
X128049410Y-98598546D01*
X128049410Y-98492766D01*
X128028773Y-98389019D01*
X127988293Y-98291291D01*
X127929525Y-98203339D01*
X127854727Y-98128541D01*
X127766775Y-98069773D01*
X127669047Y-98029293D01*
X127600402Y-98015638D01*
X127462178Y-97877414D01*
X127462178Y-93463034D01*
X130545960Y-96546817D01*
X130558074Y-96561578D01*
X130572835Y-96573692D01*
X130572837Y-96573694D01*
X130617002Y-96609939D01*
X130684233Y-96645875D01*
X130757183Y-96668004D01*
X130833048Y-96675476D01*
X130852055Y-96673604D01*
X131219026Y-96673604D01*
X131238022Y-96675475D01*
X131257018Y-96673604D01*
X131257029Y-96673604D01*
X131313887Y-96668004D01*
X131386837Y-96645875D01*
X131454068Y-96609939D01*
X131498341Y-96573605D01*
X131540911Y-96573605D01*
X131644658Y-96552968D01*
X131742386Y-96512488D01*
X131830338Y-96453720D01*
X131905136Y-96378922D01*
X131963904Y-96290970D01*
X132004384Y-96193242D01*
X132025021Y-96089495D01*
X132025021Y-95983715D01*
X132009783Y-95907110D01*
X134443000Y-95907110D01*
X134443000Y-96012890D01*
X134463637Y-96116637D01*
X134504117Y-96214365D01*
X134562885Y-96302317D01*
X134637683Y-96377115D01*
X134725635Y-96435883D01*
X134823363Y-96476363D01*
X134927110Y-96497000D01*
X135032890Y-96497000D01*
X135136637Y-96476363D01*
X135234365Y-96435883D01*
X135322317Y-96377115D01*
X135397115Y-96302317D01*
X135455883Y-96214365D01*
X135476272Y-96165142D01*
X135503363Y-96176363D01*
X135607110Y-96197000D01*
X135712890Y-96197000D01*
X135816637Y-96176363D01*
X135914365Y-96135883D01*
X136002317Y-96077115D01*
X136032432Y-96047000D01*
X136991004Y-96047000D01*
X137010000Y-96048871D01*
X137028996Y-96047000D01*
X137029007Y-96047000D01*
X137085865Y-96041400D01*
X137158815Y-96019271D01*
X137226046Y-95983335D01*
X137284974Y-95934974D01*
X137297093Y-95920207D01*
X137770301Y-95447000D01*
X137812890Y-95447000D01*
X137916637Y-95426363D01*
X138014365Y-95385883D01*
X138102317Y-95327115D01*
X138177115Y-95252317D01*
X138235883Y-95164365D01*
X138276363Y-95066637D01*
X138297000Y-94962890D01*
X138297000Y-94857110D01*
X138276363Y-94753363D01*
X138235883Y-94655635D01*
X138177115Y-94567683D01*
X138102317Y-94492885D01*
X138014365Y-94434117D01*
X137916637Y-94393637D01*
X137812890Y-94373000D01*
X137707110Y-94373000D01*
X137603363Y-94393637D01*
X137505635Y-94434117D01*
X137417683Y-94492885D01*
X137359426Y-94551142D01*
X137357115Y-94547683D01*
X137282317Y-94472885D01*
X137194365Y-94414117D01*
X137096637Y-94373637D01*
X136992890Y-94353000D01*
X136887110Y-94353000D01*
X136783363Y-94373637D01*
X136685635Y-94414117D01*
X136597683Y-94472885D01*
X136567568Y-94503000D01*
X135715443Y-94503000D01*
X135696446Y-94501129D01*
X135677450Y-94503000D01*
X135677440Y-94503000D01*
X135620582Y-94508600D01*
X135554647Y-94528601D01*
X135547632Y-94530729D01*
X135480401Y-94566665D01*
X135468911Y-94576095D01*
X135421473Y-94615026D01*
X135409359Y-94629787D01*
X134719793Y-95319354D01*
X134705026Y-95331473D01*
X134656665Y-95390402D01*
X134620729Y-95457633D01*
X134598600Y-95530583D01*
X134593000Y-95587441D01*
X134593000Y-95587451D01*
X134592987Y-95587581D01*
X134562885Y-95617683D01*
X134504117Y-95705635D01*
X134463637Y-95803363D01*
X134443000Y-95907110D01*
X132009783Y-95907110D01*
X132004384Y-95879968D01*
X131963904Y-95782240D01*
X131905136Y-95694288D01*
X131830338Y-95619490D01*
X131742386Y-95560722D01*
X131644658Y-95520242D01*
X131540911Y-95499605D01*
X131435131Y-95499605D01*
X131331384Y-95520242D01*
X131296354Y-95534752D01*
X131310781Y-95462222D01*
X131310781Y-95356442D01*
X131290144Y-95252695D01*
X131249664Y-95154967D01*
X131190896Y-95067015D01*
X131116098Y-94992217D01*
X131028146Y-94933449D01*
X130930418Y-94892969D01*
X130826671Y-94872332D01*
X130784082Y-94872332D01*
X130661322Y-94749572D01*
X132358000Y-94749572D01*
X132358000Y-94850428D01*
X132377676Y-94949345D01*
X132416272Y-95042523D01*
X132472304Y-95126381D01*
X132543619Y-95197696D01*
X132627477Y-95253728D01*
X132720655Y-95292324D01*
X132819572Y-95312000D01*
X132920428Y-95312000D01*
X133019345Y-95292324D01*
X133112523Y-95253728D01*
X133196381Y-95197696D01*
X133267696Y-95126381D01*
X133315023Y-95055551D01*
X133342304Y-95096381D01*
X133413619Y-95167696D01*
X133497477Y-95223728D01*
X133590655Y-95262324D01*
X133689572Y-95282000D01*
X133790428Y-95282000D01*
X133889345Y-95262324D01*
X133982523Y-95223728D01*
X134066381Y-95167696D01*
X134137696Y-95096381D01*
X134193728Y-95012523D01*
X134232324Y-94919345D01*
X134252000Y-94820428D01*
X134252000Y-94719572D01*
X134232324Y-94620655D01*
X134193728Y-94527477D01*
X134137696Y-94443619D01*
X134066381Y-94372304D01*
X133982523Y-94316272D01*
X133889345Y-94277676D01*
X133887000Y-94277210D01*
X133887000Y-84339572D01*
X135728000Y-84339572D01*
X135728000Y-84440428D01*
X135747676Y-84539345D01*
X135786272Y-84632523D01*
X135842304Y-84716381D01*
X135913619Y-84787696D01*
X135997477Y-84843728D01*
X136090655Y-84882324D01*
X136189572Y-84902000D01*
X136238359Y-84902000D01*
X137516800Y-86180442D01*
X137516801Y-86782177D01*
X137515043Y-86800025D01*
X137522056Y-86871224D01*
X137542824Y-86939687D01*
X137542825Y-86939688D01*
X137576550Y-87002784D01*
X137621937Y-87058089D01*
X137635799Y-87069465D01*
X139145830Y-88579497D01*
X139157207Y-88593360D01*
X139212512Y-88638747D01*
X139261500Y-88664931D01*
X139275608Y-88672472D01*
X139344070Y-88693240D01*
X139415270Y-88700253D01*
X139433108Y-88698496D01*
X139883000Y-88698496D01*
X139883000Y-88705428D01*
X139902676Y-88804345D01*
X139941272Y-88897523D01*
X139997304Y-88981381D01*
X140068619Y-89052696D01*
X140152477Y-89108728D01*
X140245655Y-89147324D01*
X140344572Y-89167000D01*
X140445428Y-89167000D01*
X140544345Y-89147324D01*
X140637523Y-89108728D01*
X140721381Y-89052696D01*
X140792696Y-88981381D01*
X140848728Y-88897523D01*
X140887324Y-88804345D01*
X140907000Y-88705428D01*
X140907000Y-88604572D01*
X140887324Y-88505655D01*
X140848728Y-88412477D01*
X140792696Y-88328619D01*
X140721381Y-88257304D01*
X140637523Y-88201272D01*
X140544345Y-88162676D01*
X140445428Y-88143000D01*
X140396641Y-88143000D01*
X140344741Y-88091100D01*
X140333360Y-88077232D01*
X140278055Y-88031845D01*
X140214959Y-87998120D01*
X140146496Y-87977352D01*
X140093134Y-87972096D01*
X140075296Y-87970339D01*
X140057458Y-87972096D01*
X139565713Y-87972096D01*
X139330617Y-87737000D01*
X139747568Y-87737000D01*
X139777683Y-87767115D01*
X139865635Y-87825883D01*
X139963363Y-87866363D01*
X140067110Y-87887000D01*
X140172890Y-87887000D01*
X140276637Y-87866363D01*
X140374365Y-87825883D01*
X140462317Y-87767115D01*
X140537115Y-87692317D01*
X140595883Y-87604365D01*
X140636363Y-87506637D01*
X140657000Y-87402890D01*
X140657000Y-87297110D01*
X140636363Y-87193363D01*
X140595883Y-87095635D01*
X140537115Y-87007683D01*
X140462317Y-86932885D01*
X140374365Y-86874117D01*
X140276637Y-86833637D01*
X140172890Y-86813000D01*
X140067110Y-86813000D01*
X139963363Y-86833637D01*
X139865635Y-86874117D01*
X139777683Y-86932885D01*
X139747568Y-86963000D01*
X139260301Y-86963000D01*
X138627000Y-86329700D01*
X138627000Y-85057389D01*
X138671573Y-84990681D01*
X138708284Y-84902053D01*
X138727000Y-84807965D01*
X138727000Y-84712035D01*
X138708284Y-84617947D01*
X138671573Y-84529319D01*
X138618277Y-84449556D01*
X138550444Y-84381723D01*
X138470681Y-84328427D01*
X138382053Y-84291716D01*
X138287965Y-84273000D01*
X138192035Y-84273000D01*
X138097947Y-84291716D01*
X138009319Y-84328427D01*
X137929556Y-84381723D01*
X137861723Y-84449556D01*
X137808427Y-84529319D01*
X137771716Y-84617947D01*
X137753000Y-84712035D01*
X137753000Y-84807965D01*
X137771716Y-84902053D01*
X137808427Y-84990681D01*
X137853000Y-85057389D01*
X137853000Y-85061848D01*
X137853001Y-85061858D01*
X137853001Y-85489359D01*
X136752000Y-84388359D01*
X136752000Y-84339572D01*
X136732324Y-84240655D01*
X136693728Y-84147477D01*
X136637696Y-84063619D01*
X136566381Y-83992304D01*
X136482523Y-83936272D01*
X136389345Y-83897676D01*
X136290428Y-83878000D01*
X136189572Y-83878000D01*
X136090655Y-83897676D01*
X135997477Y-83936272D01*
X135913619Y-83992304D01*
X135842304Y-84063619D01*
X135786272Y-84147477D01*
X135747676Y-84240655D01*
X135728000Y-84339572D01*
X133887000Y-84339572D01*
X133887000Y-82929572D01*
X142548000Y-82929572D01*
X142548000Y-83030428D01*
X142567676Y-83129345D01*
X142606272Y-83222523D01*
X142662304Y-83306381D01*
X142733619Y-83377696D01*
X142817477Y-83433728D01*
X142910655Y-83472324D01*
X143009572Y-83492000D01*
X143110428Y-83492000D01*
X143209345Y-83472324D01*
X143302523Y-83433728D01*
X143386381Y-83377696D01*
X143457696Y-83306381D01*
X143513728Y-83222523D01*
X143552324Y-83129345D01*
X143572000Y-83030428D01*
X143572000Y-82929572D01*
X143552324Y-82830655D01*
X143513728Y-82737477D01*
X143457696Y-82653619D01*
X143386381Y-82582304D01*
X143302523Y-82526272D01*
X143209345Y-82487676D01*
X143110428Y-82468000D01*
X143009572Y-82468000D01*
X142910655Y-82487676D01*
X142817477Y-82526272D01*
X142733619Y-82582304D01*
X142662304Y-82653619D01*
X142606272Y-82737477D01*
X142567676Y-82830655D01*
X142548000Y-82929572D01*
X133887000Y-82929572D01*
X133887000Y-80078500D01*
X135634657Y-78330844D01*
X135710655Y-78362324D01*
X135809572Y-78382000D01*
X135910428Y-78382000D01*
X136009345Y-78362324D01*
X136102523Y-78323728D01*
X136186381Y-78267696D01*
X136257696Y-78196381D01*
X136313728Y-78112523D01*
X136352324Y-78019345D01*
X136372000Y-77920428D01*
X136372000Y-77819572D01*
X136352324Y-77720655D01*
X136313728Y-77627477D01*
X136257696Y-77543619D01*
X136235635Y-77521558D01*
X136256381Y-77507696D01*
X136327696Y-77436381D01*
X136383728Y-77352523D01*
X136422324Y-77259345D01*
X136442000Y-77160428D01*
X136442000Y-77059572D01*
X136422324Y-76960655D01*
X136383728Y-76867477D01*
X136327696Y-76783619D01*
X136256381Y-76712304D01*
X136172523Y-76656272D01*
X136079345Y-76617676D01*
X135980428Y-76598000D01*
X135879572Y-76598000D01*
X135780655Y-76617676D01*
X135687477Y-76656272D01*
X135603619Y-76712304D01*
X135593573Y-76722350D01*
X135532985Y-76740729D01*
X135465754Y-76776665D01*
X135457281Y-76783619D01*
X135406826Y-76825026D01*
X135394712Y-76839787D01*
X132839793Y-79394707D01*
X132825026Y-79406826D01*
X132776665Y-79465755D01*
X132740729Y-79532986D01*
X132718600Y-79605936D01*
X132713000Y-79662794D01*
X132713000Y-79662804D01*
X132711129Y-79681800D01*
X132713000Y-79700796D01*
X132713001Y-94310846D01*
X132627477Y-94346272D01*
X132543619Y-94402304D01*
X132472304Y-94473619D01*
X132416272Y-94557477D01*
X132377676Y-94650655D01*
X132358000Y-94749572D01*
X130661322Y-94749572D01*
X128647000Y-92735251D01*
X128647000Y-84178996D01*
X128648871Y-84159999D01*
X128647000Y-84141003D01*
X128647000Y-84140993D01*
X128641400Y-84084135D01*
X128622000Y-84020181D01*
X128622000Y-83959572D01*
X128602324Y-83860655D01*
X128563728Y-83767477D01*
X128507696Y-83683619D01*
X128436381Y-83612304D01*
X128352523Y-83556272D01*
X128259345Y-83517676D01*
X128160428Y-83498000D01*
X128059572Y-83498000D01*
X127960655Y-83517676D01*
X127867477Y-83556272D01*
X127783619Y-83612304D01*
X127712304Y-83683619D01*
X127656272Y-83767477D01*
X127617676Y-83860655D01*
X127598000Y-83959572D01*
X127598000Y-84060428D01*
X127617676Y-84159345D01*
X127654010Y-84247063D01*
X127600655Y-84257676D01*
X127507477Y-84296272D01*
X127462178Y-84326540D01*
X127462178Y-81322632D01*
X127464291Y-81301177D01*
X127462178Y-81279722D01*
X127462178Y-81279713D01*
X127455855Y-81215511D01*
X127430866Y-81133136D01*
X127406949Y-81088389D01*
X127390288Y-81057218D01*
X127349361Y-81007350D01*
X127349359Y-81007348D01*
X127335678Y-80990678D01*
X127319009Y-80976998D01*
X126785426Y-80443416D01*
X126785533Y-80443216D01*
X126850548Y-80228891D01*
X126872501Y-80006000D01*
X126850548Y-79783109D01*
X126785533Y-79568784D01*
X126679955Y-79371260D01*
X126537870Y-79198130D01*
X126364740Y-79056045D01*
X126167216Y-78950467D01*
X125952891Y-78885452D01*
X125785852Y-78869000D01*
X125674148Y-78869000D01*
X125507109Y-78885452D01*
X125292784Y-78950467D01*
X125095260Y-79056045D01*
X124922130Y-79198130D01*
X124822000Y-79320138D01*
X124822000Y-78151862D01*
X124922130Y-78273870D01*
X125095260Y-78415955D01*
X125292784Y-78521533D01*
X125507109Y-78586548D01*
X125674148Y-78603000D01*
X125785852Y-78603000D01*
X125952891Y-78586548D01*
X126140325Y-78529690D01*
X128181273Y-80570640D01*
X128195738Y-80588266D01*
X128266087Y-80645999D01*
X128346347Y-80688899D01*
X128433434Y-80715317D01*
X128501309Y-80722002D01*
X128501312Y-80722002D01*
X128524002Y-80724237D01*
X128546692Y-80722002D01*
X129874858Y-80722002D01*
X129895635Y-80735885D01*
X129993363Y-80776365D01*
X130097110Y-80797002D01*
X130202890Y-80797002D01*
X130306637Y-80776365D01*
X130404365Y-80735885D01*
X130492317Y-80677117D01*
X130567115Y-80602319D01*
X130625883Y-80514367D01*
X130666363Y-80416639D01*
X130687000Y-80312892D01*
X130687000Y-80207112D01*
X130666363Y-80103365D01*
X130625883Y-80005637D01*
X130567115Y-79917685D01*
X130492317Y-79842887D01*
X130404365Y-79784119D01*
X130306637Y-79743639D01*
X130202890Y-79723002D01*
X130097110Y-79723002D01*
X129993363Y-79743639D01*
X129895635Y-79784119D01*
X129874858Y-79798002D01*
X128715369Y-79798002D01*
X126793690Y-77876325D01*
X126850548Y-77688891D01*
X126872501Y-77466000D01*
X126850548Y-77243109D01*
X126785533Y-77028784D01*
X126679955Y-76831260D01*
X126537870Y-76658130D01*
X126364740Y-76516045D01*
X126167216Y-76410467D01*
X125952891Y-76345452D01*
X125785852Y-76329000D01*
X125674148Y-76329000D01*
X125507109Y-76345452D01*
X125292784Y-76410467D01*
X125095260Y-76516045D01*
X124922130Y-76658130D01*
X124822000Y-76780138D01*
X124822000Y-75611862D01*
X124922130Y-75733870D01*
X125095260Y-75875955D01*
X125292784Y-75981533D01*
X125507109Y-76046548D01*
X125674148Y-76063000D01*
X125785852Y-76063000D01*
X125952891Y-76046548D01*
X126167216Y-75981533D01*
X126364740Y-75875955D01*
X126537870Y-75733870D01*
X126634036Y-75616692D01*
X127957707Y-76940363D01*
X127946272Y-76957477D01*
X127907676Y-77050655D01*
X127888000Y-77149572D01*
X127888000Y-77250428D01*
X127907676Y-77349345D01*
X127946272Y-77442523D01*
X128002304Y-77526381D01*
X128073619Y-77597696D01*
X128157477Y-77653728D01*
X128250655Y-77692324D01*
X128349572Y-77712000D01*
X128450428Y-77712000D01*
X128549345Y-77692324D01*
X128642523Y-77653728D01*
X128726381Y-77597696D01*
X128797696Y-77526381D01*
X128853728Y-77442523D01*
X128892324Y-77349345D01*
X128912000Y-77250428D01*
X128912000Y-77149572D01*
X128892324Y-77050655D01*
X128853728Y-76957477D01*
X128812000Y-76895026D01*
X128812000Y-76820226D01*
X128813992Y-76799999D01*
X128812000Y-76779772D01*
X128812000Y-76779765D01*
X128806038Y-76719234D01*
X128803580Y-76711129D01*
X128796563Y-76688000D01*
X128782480Y-76641572D01*
X128744223Y-76569998D01*
X128692737Y-76507263D01*
X128677021Y-76494365D01*
X128232228Y-76049572D01*
X142508000Y-76049572D01*
X142508000Y-76150428D01*
X142527676Y-76249345D01*
X142566272Y-76342523D01*
X142622304Y-76426381D01*
X142693619Y-76497696D01*
X142777477Y-76553728D01*
X142870655Y-76592324D01*
X142969572Y-76612000D01*
X143070428Y-76612000D01*
X143169345Y-76592324D01*
X143262523Y-76553728D01*
X143346381Y-76497696D01*
X143417696Y-76426381D01*
X143473728Y-76342523D01*
X143512324Y-76249345D01*
X143532000Y-76150428D01*
X143532000Y-76049572D01*
X143512324Y-75950655D01*
X143473728Y-75857477D01*
X143417696Y-75773619D01*
X143346381Y-75702304D01*
X143262523Y-75646272D01*
X143169345Y-75607676D01*
X143070428Y-75588000D01*
X142969572Y-75588000D01*
X142870655Y-75607676D01*
X142777477Y-75646272D01*
X142693619Y-75702304D01*
X142622304Y-75773619D01*
X142566272Y-75857477D01*
X142527676Y-75950655D01*
X142508000Y-76049572D01*
X128232228Y-76049572D01*
X127232228Y-75049572D01*
X132388000Y-75049572D01*
X132388000Y-75150428D01*
X132407676Y-75249345D01*
X132446272Y-75342523D01*
X132502304Y-75426381D01*
X132573619Y-75497696D01*
X132657477Y-75553728D01*
X132750655Y-75592324D01*
X132849572Y-75612000D01*
X132950428Y-75612000D01*
X133049345Y-75592324D01*
X133122553Y-75562000D01*
X133277447Y-75562000D01*
X133350655Y-75592324D01*
X133449572Y-75612000D01*
X133550428Y-75612000D01*
X133649345Y-75592324D01*
X133722553Y-75562000D01*
X135477310Y-75562000D01*
X135500000Y-75564235D01*
X135522690Y-75562000D01*
X135522693Y-75562000D01*
X135590568Y-75555315D01*
X135677655Y-75528897D01*
X135757915Y-75485997D01*
X135828264Y-75428264D01*
X135842738Y-75410627D01*
X136110632Y-75142734D01*
X136128264Y-75128264D01*
X136165012Y-75083485D01*
X136185997Y-75057916D01*
X136211911Y-75009433D01*
X136228897Y-74977655D01*
X136255315Y-74890568D01*
X136262000Y-74822693D01*
X136262000Y-74822691D01*
X136264235Y-74800001D01*
X136262000Y-74777311D01*
X136262000Y-73891365D01*
X136291366Y-73862000D01*
X136663001Y-73862000D01*
X136663000Y-74578545D01*
X136660887Y-74600000D01*
X136663000Y-74621455D01*
X136663000Y-74621464D01*
X136669323Y-74685666D01*
X136694312Y-74768041D01*
X136734890Y-74843958D01*
X136789500Y-74910500D01*
X136801988Y-74920749D01*
X136807676Y-74949345D01*
X136846272Y-75042523D01*
X136902304Y-75126381D01*
X136973619Y-75197696D01*
X137057477Y-75253728D01*
X137150655Y-75292324D01*
X137249572Y-75312000D01*
X137350428Y-75312000D01*
X137449345Y-75292324D01*
X137542523Y-75253728D01*
X137626381Y-75197696D01*
X137697696Y-75126381D01*
X137753728Y-75042523D01*
X137792324Y-74949345D01*
X137812000Y-74850428D01*
X137812000Y-74749572D01*
X137792324Y-74650655D01*
X137753728Y-74557477D01*
X137697696Y-74473619D01*
X137626381Y-74402304D01*
X137542523Y-74346272D01*
X137537000Y-74343984D01*
X137537000Y-73624731D01*
X137616603Y-73743866D01*
X137743634Y-73870897D01*
X137893006Y-73970704D01*
X138058979Y-74039453D01*
X138235176Y-74074500D01*
X138414824Y-74074500D01*
X138591021Y-74039453D01*
X138756994Y-73970704D01*
X138906366Y-73870897D01*
X139033397Y-73743866D01*
X139133204Y-73594494D01*
X139201953Y-73428521D01*
X139237000Y-73252324D01*
X139237000Y-73072676D01*
X139201953Y-72896479D01*
X139133204Y-72730506D01*
X139033397Y-72581134D01*
X138906366Y-72454103D01*
X138756994Y-72354296D01*
X138591021Y-72285547D01*
X138414824Y-72250500D01*
X138235176Y-72250500D01*
X138058979Y-72285547D01*
X137893006Y-72354296D01*
X137743634Y-72454103D01*
X137616603Y-72581134D01*
X137537000Y-72700269D01*
X137537000Y-72287077D01*
X137597696Y-72226381D01*
X137653728Y-72142523D01*
X137692324Y-72049345D01*
X137712000Y-71950428D01*
X137712000Y-71849572D01*
X137692324Y-71750655D01*
X137653728Y-71657477D01*
X137597696Y-71573619D01*
X137526381Y-71502304D01*
X137442523Y-71446272D01*
X137349345Y-71407676D01*
X137250428Y-71388000D01*
X137149572Y-71388000D01*
X137050655Y-71407676D01*
X136957477Y-71446272D01*
X136873619Y-71502304D01*
X136802304Y-71573619D01*
X136746272Y-71657477D01*
X136707676Y-71750655D01*
X136688000Y-71849572D01*
X136688000Y-71852767D01*
X136669324Y-71914334D01*
X136660887Y-72000000D01*
X136663001Y-72021464D01*
X136663000Y-72938000D01*
X136122689Y-72938000D01*
X136099999Y-72935765D01*
X136077309Y-72938000D01*
X136077307Y-72938000D01*
X136009432Y-72944685D01*
X135922345Y-72971103D01*
X135886056Y-72990500D01*
X135842084Y-73014003D01*
X135816634Y-73034890D01*
X135771736Y-73071736D01*
X135757266Y-73089368D01*
X135489373Y-73357262D01*
X135471736Y-73371736D01*
X135433396Y-73418455D01*
X135414003Y-73442085D01*
X135404180Y-73460463D01*
X135371103Y-73522346D01*
X135344685Y-73609433D01*
X135339910Y-73657915D01*
X135335765Y-73700000D01*
X135338000Y-73722690D01*
X135338001Y-74608634D01*
X135308635Y-74638000D01*
X133722553Y-74638000D01*
X133649345Y-74607676D01*
X133550428Y-74588000D01*
X133449572Y-74588000D01*
X133350655Y-74607676D01*
X133277447Y-74638000D01*
X133122553Y-74638000D01*
X133049345Y-74607676D01*
X132950428Y-74588000D01*
X132849572Y-74588000D01*
X132750655Y-74607676D01*
X132657477Y-74646272D01*
X132573619Y-74702304D01*
X132502304Y-74773619D01*
X132446272Y-74857477D01*
X132407676Y-74950655D01*
X132388000Y-75049572D01*
X127232228Y-75049572D01*
X126835214Y-74652559D01*
X126785533Y-74488784D01*
X126679955Y-74291260D01*
X126537870Y-74118130D01*
X126364740Y-73976045D01*
X126167216Y-73870467D01*
X125952891Y-73805452D01*
X125785852Y-73789000D01*
X125674148Y-73789000D01*
X125507109Y-73805452D01*
X125292784Y-73870467D01*
X125095260Y-73976045D01*
X124922130Y-74118130D01*
X124822000Y-74240138D01*
X124822000Y-73072676D01*
X132563000Y-73072676D01*
X132563000Y-73252324D01*
X132598047Y-73428521D01*
X132666796Y-73594494D01*
X132766603Y-73743866D01*
X132893634Y-73870897D01*
X133043006Y-73970704D01*
X133208979Y-74039453D01*
X133385176Y-74074500D01*
X133564824Y-74074500D01*
X133741021Y-74039453D01*
X133906994Y-73970704D01*
X134056366Y-73870897D01*
X134183397Y-73743866D01*
X134283204Y-73594494D01*
X134351953Y-73428521D01*
X134387000Y-73252324D01*
X134387000Y-73072676D01*
X134351953Y-72896479D01*
X134283204Y-72730506D01*
X134183397Y-72581134D01*
X134056366Y-72454103D01*
X133906994Y-72354296D01*
X133741021Y-72285547D01*
X133564824Y-72250500D01*
X133385176Y-72250500D01*
X133208979Y-72285547D01*
X133043006Y-72354296D01*
X132893634Y-72454103D01*
X132766603Y-72581134D01*
X132666796Y-72730506D01*
X132598047Y-72896479D01*
X132563000Y-73072676D01*
X124822000Y-73072676D01*
X124822000Y-71137702D01*
X124842230Y-70931378D01*
X125125500Y-70931378D01*
X125125500Y-71300622D01*
X125197536Y-71662772D01*
X125338840Y-72003909D01*
X125543981Y-72310924D01*
X125805076Y-72572019D01*
X126112091Y-72777160D01*
X126453228Y-72918464D01*
X126815378Y-72990500D01*
X127184622Y-72990500D01*
X127546772Y-72918464D01*
X127887909Y-72777160D01*
X128194924Y-72572019D01*
X128456019Y-72310924D01*
X128661160Y-72003909D01*
X128802464Y-71662772D01*
X128874500Y-71300622D01*
X128874500Y-70931378D01*
X128802464Y-70569228D01*
X128661160Y-70228091D01*
X128456019Y-69921076D01*
X128436462Y-69901519D01*
X131288000Y-69901519D01*
X131288000Y-70498480D01*
X131302282Y-70643485D01*
X131358719Y-70829535D01*
X131450369Y-71001001D01*
X131573709Y-71151291D01*
X131723999Y-71274631D01*
X131895464Y-71366281D01*
X132081514Y-71422718D01*
X132275000Y-71441775D01*
X132468485Y-71422718D01*
X132654535Y-71366281D01*
X132826001Y-71274631D01*
X132976291Y-71151291D01*
X133099631Y-71001001D01*
X133191281Y-70829536D01*
X133247718Y-70643486D01*
X133262000Y-70498481D01*
X133262000Y-69901520D01*
X138538000Y-69901520D01*
X138538000Y-70498481D01*
X138552282Y-70643486D01*
X138608719Y-70829536D01*
X138700370Y-71001001D01*
X138823710Y-71151291D01*
X138974000Y-71274631D01*
X139145465Y-71366281D01*
X139331515Y-71422718D01*
X139525000Y-71441775D01*
X139718486Y-71422718D01*
X139904536Y-71366281D01*
X140076001Y-71274631D01*
X140226291Y-71151291D01*
X140349631Y-71001001D01*
X140441281Y-70829536D01*
X140497718Y-70643485D01*
X140512000Y-70498480D01*
X140512000Y-69901519D01*
X140497718Y-69756514D01*
X140441281Y-69570464D01*
X140349631Y-69398999D01*
X140226291Y-69248709D01*
X140076001Y-69125369D01*
X139904535Y-69033719D01*
X139718485Y-68977282D01*
X139525000Y-68958225D01*
X139331514Y-68977282D01*
X139145464Y-69033719D01*
X138973999Y-69125369D01*
X138823709Y-69248709D01*
X138700369Y-69398999D01*
X138608719Y-69570465D01*
X138552282Y-69756515D01*
X138538000Y-69901520D01*
X133262000Y-69901520D01*
X133247718Y-69756515D01*
X133191281Y-69570464D01*
X133099631Y-69398999D01*
X132976291Y-69248709D01*
X132826001Y-69125369D01*
X132654536Y-69033719D01*
X132468486Y-68977282D01*
X132275000Y-68958225D01*
X132081515Y-68977282D01*
X131895465Y-69033719D01*
X131724000Y-69125369D01*
X131573710Y-69248709D01*
X131450370Y-69398999D01*
X131358719Y-69570464D01*
X131302282Y-69756514D01*
X131288000Y-69901519D01*
X128436462Y-69901519D01*
X128194924Y-69659981D01*
X127887909Y-69454840D01*
X127546772Y-69313536D01*
X127184622Y-69241500D01*
X126815378Y-69241500D01*
X126453228Y-69313536D01*
X126112091Y-69454840D01*
X125805076Y-69659981D01*
X125543981Y-69921076D01*
X125338840Y-70228091D01*
X125197536Y-70569228D01*
X125125500Y-70931378D01*
X124842230Y-70931378D01*
X124865182Y-70697297D01*
X124987944Y-70290690D01*
X125187343Y-69915674D01*
X125455786Y-69586530D01*
X125783047Y-69315797D01*
X126156664Y-69113783D01*
X126562403Y-68988186D01*
X127001831Y-68942000D01*
X144762298Y-68942000D01*
X145144115Y-68979437D01*
G36*
X124922130Y-80813870D02*
G01*
X125095260Y-80955955D01*
X125292784Y-81061533D01*
X125507109Y-81126548D01*
X125674148Y-81143000D01*
X125785852Y-81143000D01*
X125952891Y-81126548D01*
X126167216Y-81061533D01*
X126167416Y-81061426D01*
X126588178Y-81482189D01*
X126588178Y-84339430D01*
X126537870Y-84278130D01*
X126364740Y-84136045D01*
X126167216Y-84030467D01*
X125952891Y-83965452D01*
X125785852Y-83949000D01*
X125674148Y-83949000D01*
X125507109Y-83965452D01*
X125292784Y-84030467D01*
X125095260Y-84136045D01*
X124922130Y-84278130D01*
X124822000Y-84400138D01*
X124822000Y-80691862D01*
X124922130Y-80813870D01*
X124922130Y-80813870D01*
G37*
X124922130Y-80813870D02*
X125095260Y-80955955D01*
X125292784Y-81061533D01*
X125507109Y-81126548D01*
X125674148Y-81143000D01*
X125785852Y-81143000D01*
X125952891Y-81126548D01*
X126167216Y-81061533D01*
X126167416Y-81061426D01*
X126588178Y-81482189D01*
X126588178Y-84339430D01*
X126537870Y-84278130D01*
X126364740Y-84136045D01*
X126167216Y-84030467D01*
X125952891Y-83965452D01*
X125785852Y-83949000D01*
X125674148Y-83949000D01*
X125507109Y-83965452D01*
X125292784Y-84030467D01*
X125095260Y-84136045D01*
X124922130Y-84278130D01*
X124822000Y-84400138D01*
X124822000Y-80691862D01*
X124922130Y-80813870D01*
M02*
