G04 #@! TF.GenerationSoftware,KiCad,Pcbnew,(5.1.4)-1*
G04 #@! TF.CreationDate,2019-11-11T12:29:28+01:00*
G04 #@! TF.ProjectId,TLM-4260-breakout-v1_0,544c4d2d-3432-4363-902d-627265616b6f,1.1*
G04 #@! TF.SameCoordinates,Original*
G04 #@! TF.FileFunction,Legend,Top*
G04 #@! TF.FilePolarity,Positive*
%FSLAX46Y46*%
G04 Gerber Fmt 4.6, Leading zero omitted, Abs format (unit mm)*
G04 Created by KiCad (PCBNEW (5.1.4)-1) date 2019-11-11 12:29:28*
%MOMM*%
%LPD*%
G04 APERTURE LIST*
%ADD10C,0.100000*%
%ADD11C,0.187500*%
%ADD12C,0.150000*%
%ADD13C,0.175000*%
%ADD14C,0.250000*%
%ADD15C,0.010000*%
%ADD16C,0.120000*%
G04 APERTURE END LIST*
D10*
G36*
X126746000Y-113722000D02*
G01*
X124600000Y-113722000D01*
X124600000Y-112522000D01*
X126746000Y-112522000D01*
X126746000Y-113722000D01*
G37*
X126746000Y-113722000D02*
X124600000Y-113722000D01*
X124600000Y-112522000D01*
X126746000Y-112522000D01*
X126746000Y-113722000D01*
D11*
X129061428Y-116045479D02*
X128528095Y-116193098D01*
X129061428Y-116474051D01*
X128528095Y-117221670D02*
X128528095Y-116707384D01*
X128528095Y-116964527D02*
X129328095Y-117064527D01*
X129213809Y-116964527D01*
X129137619Y-116869289D01*
X129099523Y-116778813D01*
X128604285Y-117616908D02*
X128566190Y-117655003D01*
X128528095Y-117607384D01*
X128566190Y-117569289D01*
X128604285Y-117616908D01*
X128528095Y-117607384D01*
X129328095Y-118307384D02*
X129328095Y-118393098D01*
X129290000Y-118474051D01*
X129251904Y-118512146D01*
X129175714Y-118545479D01*
X129023333Y-118569289D01*
X128832857Y-118545479D01*
X128680476Y-118483575D01*
X128604285Y-118431194D01*
X128566190Y-118383575D01*
X128528095Y-118293098D01*
X128528095Y-118207384D01*
X128566190Y-118126432D01*
X128604285Y-118088337D01*
X128680476Y-118055003D01*
X128832857Y-118031194D01*
X129023333Y-118055003D01*
X129175714Y-118116908D01*
X129251904Y-118169289D01*
X129290000Y-118216908D01*
X129328095Y-118307384D01*
X129638095Y-110943098D02*
X129638095Y-111457384D01*
X128838095Y-111100241D02*
X129638095Y-111200241D01*
X128838095Y-111657384D02*
X129371428Y-111724051D01*
X129638095Y-111757384D02*
X129600000Y-111709765D01*
X129561904Y-111747860D01*
X129600000Y-111795479D01*
X129638095Y-111757384D01*
X129561904Y-111747860D01*
X129371428Y-112152622D02*
X128838095Y-112085956D01*
X129295238Y-112143098D02*
X129333333Y-112190718D01*
X129371428Y-112281194D01*
X129371428Y-112409765D01*
X129333333Y-112490718D01*
X129257142Y-112524051D01*
X128838095Y-112471670D01*
X129371428Y-112881194D02*
X128838095Y-113028813D01*
X129371428Y-113309765D02*
X128838095Y-113028813D01*
X128647619Y-112919289D01*
X128609523Y-112871670D01*
X128571428Y-112781194D01*
D12*
X146050000Y-94000000D02*
X146050000Y-93650000D01*
X145350000Y-94000000D02*
X146050000Y-94000000D01*
D13*
X145095156Y-88616666D02*
X145274322Y-89316666D01*
X145628489Y-88616666D01*
X144636822Y-86250000D02*
X144903489Y-86250000D01*
X144971941Y-86616666D02*
X144590989Y-86616666D01*
X144678489Y-85916666D01*
X145059441Y-85916666D01*
X145373132Y-86150000D02*
X145314799Y-86616666D01*
X145364799Y-86216666D02*
X145407061Y-86183333D01*
X145487418Y-86150000D01*
X145601703Y-86150000D01*
X145673727Y-86183333D01*
X145703489Y-86250000D01*
X145657656Y-86616666D01*
X143436822Y-84350000D02*
X143546941Y-84383333D01*
X143580870Y-84416666D01*
X143610632Y-84483333D01*
X143598132Y-84583333D01*
X143551703Y-84650000D01*
X143509441Y-84683333D01*
X143429084Y-84716666D01*
X143124322Y-84716666D01*
X143211822Y-84016666D01*
X143478489Y-84016666D01*
X143550513Y-84050000D01*
X143584441Y-84083333D01*
X143614203Y-84150000D01*
X143605870Y-84216666D01*
X143559441Y-84283333D01*
X143517180Y-84316666D01*
X143436822Y-84350000D01*
X143170156Y-84350000D01*
X144267180Y-84716666D02*
X144313013Y-84350000D01*
X144283251Y-84283333D01*
X144211227Y-84250000D01*
X144058846Y-84250000D01*
X143978489Y-84283333D01*
X144271346Y-84683333D02*
X144190989Y-84716666D01*
X144000513Y-84716666D01*
X143928489Y-84683333D01*
X143898727Y-84616666D01*
X143907061Y-84550000D01*
X143953489Y-84483333D01*
X144033846Y-84450000D01*
X144224322Y-84450000D01*
X144304680Y-84416666D01*
X144592180Y-84250000D02*
X144896941Y-84250000D01*
X144735632Y-84016666D02*
X144660632Y-84616666D01*
X144690394Y-84683333D01*
X144762418Y-84716666D01*
X144838608Y-84716666D01*
D11*
X143769289Y-94688095D02*
X143816908Y-94650000D01*
X143907384Y-94611904D01*
X144121670Y-94611904D01*
X144202622Y-94650000D01*
X144240718Y-94688095D01*
X144274051Y-94764285D01*
X144264527Y-94840476D01*
X144207384Y-94954761D01*
X143635956Y-95411904D01*
X144193098Y-95411904D01*
X145031194Y-94878571D02*
X144964527Y-95411904D01*
X144855003Y-94573809D02*
X144569289Y-95145238D01*
X145126432Y-95145238D01*
X144319289Y-103838095D02*
X144366908Y-103800000D01*
X144457384Y-103761904D01*
X144671670Y-103761904D01*
X144752622Y-103800000D01*
X144790718Y-103838095D01*
X144824051Y-103914285D01*
X144814527Y-103990476D01*
X144757384Y-104104761D01*
X144185956Y-104561904D01*
X144743098Y-104561904D01*
X145400241Y-103761904D02*
X145485956Y-103761904D01*
X145566908Y-103800000D01*
X145605003Y-103838095D01*
X145638337Y-103914285D01*
X145662146Y-104066666D01*
X145638337Y-104257142D01*
X145576432Y-104409523D01*
X145524051Y-104485714D01*
X145476432Y-104523809D01*
X145385956Y-104561904D01*
X145300241Y-104561904D01*
X145219289Y-104523809D01*
X145181194Y-104485714D01*
X145147860Y-104409523D01*
X145124051Y-104257142D01*
X145147860Y-104066666D01*
X145209765Y-103914285D01*
X145262146Y-103838095D01*
X145309765Y-103800000D01*
X145400241Y-103761904D01*
X144593098Y-107161904D02*
X144078813Y-107161904D01*
X144335956Y-107161904D02*
X144435956Y-106361904D01*
X144335956Y-106476190D01*
X144240718Y-106552380D01*
X144150241Y-106590476D01*
X145021670Y-107161904D02*
X145193098Y-107161904D01*
X145283575Y-107123809D01*
X145331194Y-107085714D01*
X145431194Y-106971428D01*
X145493098Y-106819047D01*
X145531194Y-106514285D01*
X145497860Y-106438095D01*
X145459765Y-106400000D01*
X145378813Y-106361904D01*
X145207384Y-106361904D01*
X145116908Y-106400000D01*
X145069289Y-106438095D01*
X145016908Y-106514285D01*
X144993098Y-106704761D01*
X145026432Y-106780952D01*
X145064527Y-106819047D01*
X145145479Y-106857142D01*
X145316908Y-106857142D01*
X145407384Y-106819047D01*
X145455003Y-106780952D01*
X145507384Y-106704761D01*
D10*
G36*
X147200000Y-85728000D02*
G01*
X145000000Y-85728000D01*
X145034000Y-84582000D01*
X147200000Y-84582000D01*
X147200000Y-85728000D01*
G37*
X147200000Y-85728000D02*
X145000000Y-85728000D01*
X145034000Y-84582000D01*
X147200000Y-84582000D01*
X147200000Y-85728000D01*
G36*
X147200000Y-90900000D02*
G01*
X145000000Y-90900000D01*
X145000000Y-89700000D01*
X147200000Y-89700000D01*
X147200000Y-90900000D01*
G37*
X147200000Y-90900000D02*
X145000000Y-90900000D01*
X145000000Y-89700000D01*
X147200000Y-89700000D01*
X147200000Y-90900000D01*
G36*
X127000000Y-78100000D02*
G01*
X124600000Y-78100000D01*
X124600000Y-76900000D01*
X127000000Y-76900000D01*
X127000000Y-78100000D01*
G37*
X127000000Y-78100000D02*
X124600000Y-78100000D01*
X124600000Y-76900000D01*
X127000000Y-76900000D01*
X127000000Y-78100000D01*
D11*
X126845479Y-81000000D02*
X126764527Y-80961904D01*
X126635956Y-80961904D01*
X126502622Y-81000000D01*
X126407384Y-81076190D01*
X126355003Y-81152380D01*
X126293098Y-81304761D01*
X126278813Y-81419047D01*
X126302622Y-81571428D01*
X126335956Y-81647619D01*
X126412146Y-81723809D01*
X126535956Y-81761904D01*
X126621670Y-81761904D01*
X126755003Y-81723809D01*
X126802622Y-81685714D01*
X126835956Y-81419047D01*
X126664527Y-81419047D01*
D10*
G36*
X127000000Y-83200000D02*
G01*
X124600000Y-83200000D01*
X124600000Y-82000000D01*
X127000000Y-82000000D01*
X127000000Y-83200000D01*
G37*
X127000000Y-83200000D02*
X124600000Y-83200000D01*
X124600000Y-82000000D01*
X127000000Y-82000000D01*
X127000000Y-83200000D01*
D11*
X126107142Y-76264285D02*
X126792857Y-76264285D01*
X126450000Y-76607142D02*
X126450000Y-75921428D01*
X126460956Y-91379761D02*
X126380003Y-91341666D01*
X126341908Y-91303571D01*
X126308575Y-91227380D01*
X126313337Y-91189285D01*
X126365718Y-91113095D01*
X126413337Y-91075000D01*
X126503813Y-91036904D01*
X126675241Y-91036904D01*
X126756194Y-91075000D01*
X126794289Y-91113095D01*
X126827622Y-91189285D01*
X126822860Y-91227380D01*
X126770479Y-91303571D01*
X126722860Y-91341666D01*
X126632384Y-91379761D01*
X126460956Y-91379761D01*
X126370479Y-91417857D01*
X126322860Y-91455952D01*
X126270479Y-91532142D01*
X126251432Y-91684523D01*
X126284765Y-91760714D01*
X126322860Y-91798809D01*
X126403813Y-91836904D01*
X126575241Y-91836904D01*
X126665718Y-91798809D01*
X126713337Y-91760714D01*
X126765718Y-91684523D01*
X126784765Y-91532142D01*
X126751432Y-91455952D01*
X126713337Y-91417857D01*
X126632384Y-91379761D01*
X126364527Y-88536904D02*
X126964527Y-88536904D01*
X126478813Y-89336904D01*
X126393098Y-94261904D02*
X126564527Y-94261904D01*
X126655003Y-94223809D01*
X126702622Y-94185714D01*
X126802622Y-94071428D01*
X126864527Y-93919047D01*
X126902622Y-93614285D01*
X126869289Y-93538095D01*
X126831194Y-93500000D01*
X126750241Y-93461904D01*
X126578813Y-93461904D01*
X126488337Y-93500000D01*
X126440718Y-93538095D01*
X126388337Y-93614285D01*
X126364527Y-93804761D01*
X126397860Y-93880952D01*
X126435956Y-93919047D01*
X126516908Y-93957142D01*
X126688337Y-93957142D01*
X126778813Y-93919047D01*
X126826432Y-93880952D01*
X126878813Y-93804761D01*
X126860956Y-85936904D02*
X126689527Y-85936904D01*
X126599051Y-85975000D01*
X126551432Y-86013095D01*
X126451432Y-86127380D01*
X126389527Y-86279761D01*
X126351432Y-86584523D01*
X126384765Y-86660714D01*
X126422860Y-86698809D01*
X126503813Y-86736904D01*
X126675241Y-86736904D01*
X126765718Y-86698809D01*
X126813337Y-86660714D01*
X126865718Y-86584523D01*
X126889527Y-86394047D01*
X126856194Y-86317857D01*
X126818098Y-86279761D01*
X126737146Y-86241666D01*
X126565718Y-86241666D01*
X126475241Y-86279761D01*
X126427622Y-86317857D01*
X126375241Y-86394047D01*
X126878813Y-83411904D02*
X126450241Y-83411904D01*
X126359765Y-83792857D01*
X126407384Y-83754761D01*
X126497860Y-83716666D01*
X126712146Y-83716666D01*
X126793098Y-83754761D01*
X126831194Y-83792857D01*
X126864527Y-83869047D01*
X126840718Y-84059523D01*
X126788337Y-84135714D01*
X126740718Y-84173809D01*
X126650241Y-84211904D01*
X126435956Y-84211904D01*
X126355003Y-84173809D01*
X126316908Y-84135714D01*
X126901190Y-97058575D02*
X126863095Y-97182384D01*
X126863095Y-97396670D01*
X126901190Y-97487146D01*
X126939285Y-97534765D01*
X127015476Y-97587146D01*
X127091666Y-97596670D01*
X127167857Y-97563337D01*
X127205952Y-97525241D01*
X127244047Y-97444289D01*
X127282142Y-97277622D01*
X127320238Y-97196670D01*
X127358333Y-97158575D01*
X127434523Y-97125241D01*
X127510714Y-97134765D01*
X127586904Y-97187146D01*
X127625000Y-97234765D01*
X127663095Y-97325241D01*
X127663095Y-97539527D01*
X127625000Y-97663337D01*
X126901190Y-97915718D02*
X126863095Y-98039527D01*
X126863095Y-98253813D01*
X126901190Y-98344289D01*
X126939285Y-98391908D01*
X127015476Y-98444289D01*
X127091666Y-98453813D01*
X127167857Y-98420479D01*
X127205952Y-98382384D01*
X127244047Y-98301432D01*
X127282142Y-98134765D01*
X127320238Y-98053813D01*
X127358333Y-98015718D01*
X127434523Y-97982384D01*
X127510714Y-97991908D01*
X127586904Y-98044289D01*
X127625000Y-98091908D01*
X127663095Y-98182384D01*
X127663095Y-98396670D01*
X127625000Y-98520479D01*
X126876190Y-99037146D02*
X126838095Y-99160956D01*
X126838095Y-99375241D01*
X126876190Y-99465718D01*
X126914285Y-99513337D01*
X126990476Y-99565718D01*
X127066666Y-99575241D01*
X127142857Y-99541908D01*
X127180952Y-99503813D01*
X127219047Y-99422860D01*
X127257142Y-99256194D01*
X127295238Y-99175241D01*
X127333333Y-99137146D01*
X127409523Y-99103813D01*
X127485714Y-99113337D01*
X127561904Y-99165718D01*
X127600000Y-99213337D01*
X127638095Y-99303813D01*
X127638095Y-99518098D01*
X127600000Y-99641908D01*
X126914285Y-100456194D02*
X126876190Y-100408575D01*
X126838095Y-100275241D01*
X126838095Y-100189527D01*
X126876190Y-100065718D01*
X126952380Y-99989527D01*
X127028571Y-99956194D01*
X127180952Y-99932384D01*
X127295238Y-99946670D01*
X127447619Y-100008575D01*
X127523809Y-100060956D01*
X127600000Y-100156194D01*
X127638095Y-100289527D01*
X127638095Y-100375241D01*
X127600000Y-100499051D01*
X127561904Y-100537146D01*
X126838095Y-100832384D02*
X127638095Y-100932384D01*
X126838095Y-101346670D02*
X127295238Y-101018098D01*
X127638095Y-101446670D02*
X127180952Y-100875241D01*
X126838095Y-102168098D02*
X127638095Y-102268098D01*
X127066666Y-102496670D01*
X127638095Y-102868098D01*
X126838095Y-102768098D01*
X127638095Y-103468098D02*
X127638095Y-103639527D01*
X127600000Y-103720479D01*
X127523809Y-103796670D01*
X127371428Y-103820479D01*
X127104761Y-103787146D01*
X126952380Y-103725241D01*
X126876190Y-103630003D01*
X126838095Y-103539527D01*
X126838095Y-103368098D01*
X126876190Y-103287146D01*
X126952380Y-103210956D01*
X127104761Y-103187146D01*
X127371428Y-103220479D01*
X127523809Y-103282384D01*
X127600000Y-103377622D01*
X127638095Y-103468098D01*
X126838095Y-104850241D02*
X127638095Y-104950241D01*
X127066666Y-105178813D01*
X127638095Y-105550241D01*
X126838095Y-105450241D01*
X126838095Y-105878813D02*
X127638095Y-105978813D01*
X144948809Y-112252139D02*
X144986904Y-112128329D01*
X144986904Y-111914043D01*
X144948809Y-111823567D01*
X144910714Y-111775948D01*
X144834523Y-111723567D01*
X144758333Y-111714043D01*
X144682142Y-111747377D01*
X144644047Y-111785472D01*
X144605952Y-111866424D01*
X144567857Y-112033091D01*
X144529761Y-112114043D01*
X144491666Y-112152139D01*
X144415476Y-112185472D01*
X144339285Y-112175948D01*
X144263095Y-112123567D01*
X144225000Y-112075948D01*
X144186904Y-111985472D01*
X144186904Y-111771186D01*
X144225000Y-111647377D01*
X144910714Y-110833091D02*
X144948809Y-110880710D01*
X144986904Y-111014043D01*
X144986904Y-111099758D01*
X144948809Y-111223567D01*
X144872619Y-111299758D01*
X144796428Y-111333091D01*
X144644047Y-111356901D01*
X144529761Y-111342615D01*
X144377380Y-111280710D01*
X144301190Y-111228329D01*
X144225000Y-111133091D01*
X144186904Y-110999758D01*
X144186904Y-110914043D01*
X144225000Y-110790234D01*
X144263095Y-110752139D01*
X144986904Y-110028329D02*
X144986904Y-110456901D01*
X144186904Y-110356901D01*
X144998809Y-114873567D02*
X145036904Y-114749758D01*
X145036904Y-114535472D01*
X144998809Y-114444996D01*
X144960714Y-114397377D01*
X144884523Y-114344996D01*
X144808333Y-114335472D01*
X144732142Y-114368805D01*
X144694047Y-114406901D01*
X144655952Y-114487853D01*
X144617857Y-114654520D01*
X144579761Y-114735472D01*
X144541666Y-114773567D01*
X144465476Y-114806901D01*
X144389285Y-114797377D01*
X144313095Y-114744996D01*
X144275000Y-114697377D01*
X144236904Y-114606901D01*
X144236904Y-114392615D01*
X144275000Y-114268805D01*
X145036904Y-113978329D02*
X144236904Y-113878329D01*
X144236904Y-113664043D01*
X144275000Y-113540234D01*
X144351190Y-113464043D01*
X144427380Y-113430710D01*
X144579761Y-113406901D01*
X144694047Y-113421186D01*
X144846428Y-113483091D01*
X144922619Y-113535472D01*
X144998809Y-113630710D01*
X145036904Y-113764043D01*
X145036904Y-113978329D01*
X144808333Y-113092615D02*
X144808333Y-112664043D01*
X145036904Y-113206901D02*
X144236904Y-112806901D01*
X145036904Y-112606901D01*
X127600000Y-112324051D02*
X127638095Y-112243098D01*
X127638095Y-112114527D01*
X127600000Y-111981194D01*
X127523809Y-111885956D01*
X127447619Y-111833575D01*
X127295238Y-111771670D01*
X127180952Y-111757384D01*
X127028571Y-111781194D01*
X126952380Y-111814527D01*
X126876190Y-111890718D01*
X126838095Y-112014527D01*
X126838095Y-112100241D01*
X126876190Y-112233575D01*
X126914285Y-112281194D01*
X127180952Y-112314527D01*
X127180952Y-112143098D01*
X126838095Y-112657384D02*
X127638095Y-112757384D01*
X126838095Y-113171670D01*
X127638095Y-113271670D01*
X126838095Y-113600241D02*
X127638095Y-113700241D01*
X127638095Y-113914527D01*
X127600000Y-114038337D01*
X127523809Y-114114527D01*
X127447619Y-114147860D01*
X127295238Y-114171670D01*
X127180952Y-114157384D01*
X127028571Y-114095479D01*
X126952380Y-114043098D01*
X126876190Y-113947860D01*
X126838095Y-113814527D01*
X126838095Y-113600241D01*
X127588095Y-109943098D02*
X127588095Y-110457384D01*
X126788095Y-110100241D02*
X127588095Y-110200241D01*
X126788095Y-110571670D02*
X127321428Y-111109765D01*
X127321428Y-110638337D02*
X126788095Y-111043098D01*
X126788095Y-107778813D02*
X127169047Y-107526432D01*
X126788095Y-107264527D02*
X127588095Y-107364527D01*
X127588095Y-107707384D01*
X127550000Y-107788337D01*
X127511904Y-107826432D01*
X127435714Y-107859765D01*
X127321428Y-107845479D01*
X127245238Y-107793098D01*
X127207142Y-107745479D01*
X127169047Y-107655003D01*
X127169047Y-107312146D01*
X126788095Y-108078813D02*
X127321428Y-108616908D01*
X127321428Y-108145479D02*
X126788095Y-108550241D01*
X126681194Y-78742857D02*
X126805003Y-78780952D01*
X126843098Y-78819047D01*
X126876432Y-78895238D01*
X126862146Y-79009523D01*
X126809765Y-79085714D01*
X126762146Y-79123809D01*
X126671670Y-79161904D01*
X126328813Y-79161904D01*
X126428813Y-78361904D01*
X126728813Y-78361904D01*
X126809765Y-78400000D01*
X126847860Y-78438095D01*
X126881194Y-78514285D01*
X126871670Y-78590476D01*
X126819289Y-78666666D01*
X126771670Y-78704761D01*
X126681194Y-78742857D01*
X126381194Y-78742857D01*
X125374795Y-73907142D02*
X125095033Y-73478571D01*
X124803366Y-73907142D02*
X124915866Y-73007142D01*
X125296819Y-73007142D01*
X125386700Y-73050000D01*
X125428962Y-73092857D01*
X125465866Y-73178571D01*
X125449795Y-73307142D01*
X125391462Y-73392857D01*
X125338485Y-73435714D01*
X125237890Y-73478571D01*
X124856938Y-73478571D01*
X125761104Y-73864285D02*
X125850985Y-73907142D01*
X126041462Y-73907142D01*
X126142057Y-73864285D01*
X126200390Y-73778571D01*
X126205747Y-73735714D01*
X126168843Y-73650000D01*
X126078962Y-73607142D01*
X125936104Y-73607142D01*
X125846223Y-73564285D01*
X125809319Y-73478571D01*
X125814676Y-73435714D01*
X125873009Y-73350000D01*
X125973604Y-73307142D01*
X126116462Y-73307142D01*
X126206343Y-73350000D01*
X126545033Y-73307142D02*
X126925985Y-73307142D01*
X126725390Y-73007142D02*
X126628962Y-73778571D01*
X126665866Y-73864285D01*
X126755747Y-73907142D01*
X126850985Y-73907142D01*
X141734988Y-69692857D02*
X141687667Y-69728571D01*
X141554631Y-69764285D01*
X141468917Y-69764285D01*
X141344810Y-69728571D01*
X141268024Y-69657142D01*
X141234095Y-69585714D01*
X141209095Y-69442857D01*
X141222488Y-69335714D01*
X141283203Y-69192857D01*
X141334988Y-69121428D01*
X141429631Y-69050000D01*
X141562667Y-69014285D01*
X141648381Y-69014285D01*
X141772488Y-69050000D01*
X141810881Y-69085714D01*
X142111774Y-69764285D02*
X142205524Y-69014285D01*
X142160881Y-69371428D02*
X142675167Y-69371428D01*
X142626060Y-69764285D02*
X142719810Y-69014285D01*
D14*
X138719047Y-82121428D02*
X139480952Y-82121428D01*
X139100000Y-82502380D02*
X139100000Y-81740476D01*
D11*
X141173381Y-93614285D02*
X141097488Y-94221428D01*
X141131417Y-94292857D01*
X141169810Y-94328571D01*
X141251060Y-94364285D01*
X141422488Y-94364285D01*
X141512667Y-94328571D01*
X141559988Y-94292857D01*
X141611774Y-94221428D01*
X141687667Y-93614285D01*
X141984095Y-94328571D02*
X142065345Y-94364285D01*
X142236774Y-94364285D01*
X142326953Y-94328571D01*
X142378738Y-94257142D01*
X142383203Y-94221428D01*
X142349274Y-94150000D01*
X142268024Y-94114285D01*
X142139453Y-94114285D01*
X142058203Y-94078571D01*
X142024274Y-94007142D01*
X142028738Y-93971428D01*
X142080524Y-93900000D01*
X142170703Y-93864285D01*
X142299274Y-93864285D01*
X142380524Y-93900000D01*
X142751060Y-94364285D02*
X142813560Y-93864285D01*
X142795703Y-94007142D02*
X142847488Y-93935714D01*
X142894810Y-93900000D01*
X142984988Y-93864285D01*
X143070703Y-93864285D01*
X143657310Y-93971428D02*
X143781417Y-94007142D01*
X143819810Y-94042857D01*
X143853738Y-94114285D01*
X143840345Y-94221428D01*
X143788560Y-94292857D01*
X143741238Y-94328571D01*
X143651060Y-94364285D01*
X143308203Y-94364285D01*
X143401953Y-93614285D01*
X143701953Y-93614285D01*
X143783203Y-93650000D01*
X143821595Y-93685714D01*
X143855524Y-93757142D01*
X143846595Y-93828571D01*
X143794810Y-93900000D01*
X143747488Y-93935714D01*
X143657310Y-93971428D01*
X143357310Y-93971428D01*
X144142131Y-93864285D02*
X144484988Y-93864285D01*
X144301953Y-93614285D02*
X144221595Y-94257142D01*
X144255524Y-94328571D01*
X144336774Y-94364285D01*
X144422488Y-94364285D01*
X144784988Y-93864285D02*
X144722488Y-94364285D01*
X144776060Y-93935714D02*
X144823381Y-93900000D01*
X144913560Y-93864285D01*
X145042131Y-93864285D01*
X145123381Y-93900000D01*
X145157310Y-93971428D01*
X145108203Y-94364285D01*
X131354631Y-82889285D02*
X131099274Y-82532142D01*
X130840345Y-82889285D02*
X130934095Y-82139285D01*
X131276953Y-82139285D01*
X131358203Y-82175000D01*
X131396595Y-82210714D01*
X131430524Y-82282142D01*
X131417131Y-82389285D01*
X131365345Y-82460714D01*
X131318024Y-82496428D01*
X131227845Y-82532142D01*
X130884988Y-82532142D01*
X132087667Y-82853571D02*
X131997488Y-82889285D01*
X131826060Y-82889285D01*
X131744810Y-82853571D01*
X131710881Y-82782142D01*
X131746595Y-82496428D01*
X131798381Y-82425000D01*
X131888560Y-82389285D01*
X132059988Y-82389285D01*
X132141238Y-82425000D01*
X132175167Y-82496428D01*
X132166238Y-82567857D01*
X131728738Y-82639285D01*
X132473381Y-82853571D02*
X132554631Y-82889285D01*
X132726060Y-82889285D01*
X132816238Y-82853571D01*
X132868024Y-82782142D01*
X132872488Y-82746428D01*
X132838560Y-82675000D01*
X132757310Y-82639285D01*
X132628738Y-82639285D01*
X132547488Y-82603571D01*
X132513560Y-82532142D01*
X132518024Y-82496428D01*
X132569810Y-82425000D01*
X132659988Y-82389285D01*
X132788560Y-82389285D01*
X132869810Y-82425000D01*
X133587667Y-82853571D02*
X133497488Y-82889285D01*
X133326060Y-82889285D01*
X133244810Y-82853571D01*
X133210881Y-82782142D01*
X133246595Y-82496428D01*
X133298381Y-82425000D01*
X133388560Y-82389285D01*
X133559988Y-82389285D01*
X133641238Y-82425000D01*
X133675167Y-82496428D01*
X133666238Y-82567857D01*
X133228738Y-82639285D01*
X133945703Y-82389285D02*
X134288560Y-82389285D01*
X134105524Y-82139285D02*
X134025167Y-82782142D01*
X134059095Y-82853571D01*
X134140345Y-82889285D01*
X134226060Y-82889285D01*
D12*
X127000000Y-119380000D02*
G75*
G02X124460000Y-116840000I0J2540000D01*
G01*
X147320000Y-116840000D02*
G75*
G02X144780000Y-119380000I-2540000J0D01*
G01*
X144780000Y-68580000D02*
G75*
G02X147320000Y-71120000I0J-2540000D01*
G01*
X124460000Y-71120000D02*
G75*
G02X127000000Y-68580000I2540000J0D01*
G01*
X124460000Y-116840000D02*
X124460000Y-71120000D01*
X144780000Y-119380000D02*
X127000000Y-119380000D01*
X147320000Y-71120000D02*
X147320000Y-116840000D01*
X127000000Y-68580000D02*
X144780000Y-68580000D01*
D15*
G36*
X132099532Y-114402930D02*
G01*
X132091450Y-114545930D01*
X132075084Y-114667558D01*
X132048215Y-114778207D01*
X132008627Y-114888272D01*
X131954103Y-115008144D01*
X131921172Y-115073789D01*
X131872646Y-115168647D01*
X131838378Y-115230724D01*
X131812161Y-115264299D01*
X131787789Y-115273648D01*
X131759057Y-115263050D01*
X131719757Y-115236783D01*
X131702312Y-115224648D01*
X131643170Y-115183002D01*
X131613701Y-115157949D01*
X131608262Y-115142738D01*
X131621210Y-115130618D01*
X131622855Y-115129591D01*
X131643983Y-115102525D01*
X131675466Y-115045815D01*
X131712741Y-114969432D01*
X131751245Y-114883349D01*
X131786416Y-114797539D01*
X131813692Y-114721974D01*
X131822213Y-114693833D01*
X131851280Y-114579232D01*
X131869586Y-114479001D01*
X131879244Y-114376077D01*
X131882366Y-114253400D01*
X131882334Y-114208138D01*
X131869449Y-114010122D01*
X131831041Y-113816325D01*
X131764541Y-113617807D01*
X131667378Y-113405630D01*
X131632505Y-113339167D01*
X131644482Y-113322153D01*
X131680217Y-113292111D01*
X131727265Y-113257950D01*
X131773178Y-113228578D01*
X131805509Y-113212902D01*
X131809969Y-113212167D01*
X131831431Y-113230599D01*
X131864053Y-113280558D01*
X131903857Y-113354037D01*
X131946864Y-113443026D01*
X131989097Y-113539520D01*
X132026578Y-113635511D01*
X132041308Y-113677833D01*
X132063120Y-113746009D01*
X132078881Y-113804870D01*
X132089581Y-113863474D01*
X132096211Y-113930874D01*
X132099764Y-114016127D01*
X132101229Y-114128288D01*
X132101545Y-114228167D01*
X132099532Y-114402930D01*
X132099532Y-114402930D01*
G37*
X132099532Y-114402930D02*
X132091450Y-114545930D01*
X132075084Y-114667558D01*
X132048215Y-114778207D01*
X132008627Y-114888272D01*
X131954103Y-115008144D01*
X131921172Y-115073789D01*
X131872646Y-115168647D01*
X131838378Y-115230724D01*
X131812161Y-115264299D01*
X131787789Y-115273648D01*
X131759057Y-115263050D01*
X131719757Y-115236783D01*
X131702312Y-115224648D01*
X131643170Y-115183002D01*
X131613701Y-115157949D01*
X131608262Y-115142738D01*
X131621210Y-115130618D01*
X131622855Y-115129591D01*
X131643983Y-115102525D01*
X131675466Y-115045815D01*
X131712741Y-114969432D01*
X131751245Y-114883349D01*
X131786416Y-114797539D01*
X131813692Y-114721974D01*
X131822213Y-114693833D01*
X131851280Y-114579232D01*
X131869586Y-114479001D01*
X131879244Y-114376077D01*
X131882366Y-114253400D01*
X131882334Y-114208138D01*
X131869449Y-114010122D01*
X131831041Y-113816325D01*
X131764541Y-113617807D01*
X131667378Y-113405630D01*
X131632505Y-113339167D01*
X131644482Y-113322153D01*
X131680217Y-113292111D01*
X131727265Y-113257950D01*
X131773178Y-113228578D01*
X131805509Y-113212902D01*
X131809969Y-113212167D01*
X131831431Y-113230599D01*
X131864053Y-113280558D01*
X131903857Y-113354037D01*
X131946864Y-113443026D01*
X131989097Y-113539520D01*
X132026578Y-113635511D01*
X132041308Y-113677833D01*
X132063120Y-113746009D01*
X132078881Y-113804870D01*
X132089581Y-113863474D01*
X132096211Y-113930874D01*
X132099764Y-114016127D01*
X132101229Y-114128288D01*
X132101545Y-114228167D01*
X132099532Y-114402930D01*
G36*
X131694681Y-114462488D02*
G01*
X131678949Y-114553533D01*
X131660399Y-114621558D01*
X131631584Y-114705126D01*
X131596307Y-114795511D01*
X131558373Y-114883988D01*
X131521583Y-114961830D01*
X131489743Y-115020313D01*
X131466655Y-115050711D01*
X131461187Y-115053097D01*
X131437160Y-115039796D01*
X131395912Y-115007315D01*
X131381730Y-114994889D01*
X131317544Y-114937250D01*
X131386595Y-114799667D01*
X131468768Y-114590532D01*
X131512712Y-114371136D01*
X131518398Y-114148118D01*
X131485797Y-113928115D01*
X131414879Y-113717766D01*
X131391615Y-113668376D01*
X131328702Y-113542476D01*
X131387309Y-113494499D01*
X131432711Y-113462140D01*
X131466673Y-113446105D01*
X131469469Y-113445761D01*
X131492911Y-113463988D01*
X131525147Y-113514219D01*
X131562329Y-113588054D01*
X131600610Y-113677095D01*
X131636144Y-113772943D01*
X131665084Y-113867199D01*
X131668535Y-113880356D01*
X131700313Y-114063848D01*
X131709126Y-114264191D01*
X131694681Y-114462488D01*
X131694681Y-114462488D01*
G37*
X131694681Y-114462488D02*
X131678949Y-114553533D01*
X131660399Y-114621558D01*
X131631584Y-114705126D01*
X131596307Y-114795511D01*
X131558373Y-114883988D01*
X131521583Y-114961830D01*
X131489743Y-115020313D01*
X131466655Y-115050711D01*
X131461187Y-115053097D01*
X131437160Y-115039796D01*
X131395912Y-115007315D01*
X131381730Y-114994889D01*
X131317544Y-114937250D01*
X131386595Y-114799667D01*
X131468768Y-114590532D01*
X131512712Y-114371136D01*
X131518398Y-114148118D01*
X131485797Y-113928115D01*
X131414879Y-113717766D01*
X131391615Y-113668376D01*
X131328702Y-113542476D01*
X131387309Y-113494499D01*
X131432711Y-113462140D01*
X131466673Y-113446105D01*
X131469469Y-113445761D01*
X131492911Y-113463988D01*
X131525147Y-113514219D01*
X131562329Y-113588054D01*
X131600610Y-113677095D01*
X131636144Y-113772943D01*
X131665084Y-113867199D01*
X131668535Y-113880356D01*
X131700313Y-114063848D01*
X131709126Y-114264191D01*
X131694681Y-114462488D01*
G36*
X131296039Y-114342999D02*
G01*
X131292304Y-114426916D01*
X131284232Y-114491325D01*
X131270138Y-114547634D01*
X131248337Y-114607250D01*
X131237096Y-114634541D01*
X131197385Y-114724229D01*
X131165922Y-114778684D01*
X131137328Y-114802755D01*
X131106226Y-114801290D01*
X131072631Y-114782808D01*
X131018812Y-114746750D01*
X131084197Y-114609167D01*
X131112776Y-114546192D01*
X131131552Y-114493095D01*
X131142567Y-114437968D01*
X131147864Y-114368902D01*
X131149487Y-114273992D01*
X131149565Y-114228167D01*
X131148627Y-114118472D01*
X131144625Y-114039489D01*
X131135749Y-113979616D01*
X131120189Y-113927250D01*
X131096136Y-113870789D01*
X131092660Y-113863329D01*
X131035772Y-113741909D01*
X131081512Y-113709871D01*
X131122058Y-113685715D01*
X131144822Y-113677833D01*
X131161680Y-113695575D01*
X131190114Y-113742457D01*
X131224446Y-113808959D01*
X131230070Y-113820708D01*
X131258394Y-113882610D01*
X131277443Y-113933931D01*
X131289026Y-113985660D01*
X131294950Y-114048784D01*
X131297024Y-114134294D01*
X131297122Y-114228167D01*
X131296039Y-114342999D01*
X131296039Y-114342999D01*
G37*
X131296039Y-114342999D02*
X131292304Y-114426916D01*
X131284232Y-114491325D01*
X131270138Y-114547634D01*
X131248337Y-114607250D01*
X131237096Y-114634541D01*
X131197385Y-114724229D01*
X131165922Y-114778684D01*
X131137328Y-114802755D01*
X131106226Y-114801290D01*
X131072631Y-114782808D01*
X131018812Y-114746750D01*
X131084197Y-114609167D01*
X131112776Y-114546192D01*
X131131552Y-114493095D01*
X131142567Y-114437968D01*
X131147864Y-114368902D01*
X131149487Y-114273992D01*
X131149565Y-114228167D01*
X131148627Y-114118472D01*
X131144625Y-114039489D01*
X131135749Y-113979616D01*
X131120189Y-113927250D01*
X131096136Y-113870789D01*
X131092660Y-113863329D01*
X131035772Y-113741909D01*
X131081512Y-113709871D01*
X131122058Y-113685715D01*
X131144822Y-113677833D01*
X131161680Y-113695575D01*
X131190114Y-113742457D01*
X131224446Y-113808959D01*
X131230070Y-113820708D01*
X131258394Y-113882610D01*
X131277443Y-113933931D01*
X131289026Y-113985660D01*
X131294950Y-114048784D01*
X131297024Y-114134294D01*
X131297122Y-114228167D01*
X131296039Y-114342999D01*
G36*
X130952845Y-118297262D02*
G01*
X130917712Y-118346045D01*
X130850741Y-118389845D01*
X130780727Y-118391690D01*
X130709603Y-118351666D01*
X130692872Y-118336128D01*
X130644216Y-118271503D01*
X130636086Y-118211081D01*
X130668553Y-118148359D01*
X130695348Y-118118729D01*
X130700589Y-118114236D01*
X130700589Y-118176363D01*
X130695098Y-118208965D01*
X130694824Y-118223168D01*
X130696365Y-118268521D01*
X130707007Y-118277787D01*
X130734850Y-118257201D01*
X130736833Y-118255505D01*
X130766941Y-118223354D01*
X130779134Y-118198663D01*
X130770069Y-118191591D01*
X130755633Y-118198379D01*
X130726044Y-118196382D01*
X130713624Y-118183753D01*
X130700589Y-118176363D01*
X130700589Y-118114236D01*
X130743597Y-118077359D01*
X130785585Y-118063457D01*
X130801567Y-118064994D01*
X130801567Y-118110262D01*
X130778367Y-118112504D01*
X130743927Y-118126252D01*
X130745638Y-118136023D01*
X130785966Y-118143826D01*
X130821500Y-118147628D01*
X130826560Y-118148002D01*
X130826560Y-118195514D01*
X130823171Y-118216319D01*
X130827063Y-118243773D01*
X130834288Y-118244101D01*
X130839341Y-118215771D01*
X130835959Y-118203531D01*
X130826560Y-118195514D01*
X130826560Y-118148002D01*
X130874424Y-118151547D01*
X130903951Y-118151544D01*
X130906166Y-118150596D01*
X130888226Y-118132970D01*
X130847040Y-118117642D01*
X130801567Y-118110262D01*
X130801567Y-118064994D01*
X130827640Y-118067504D01*
X130903066Y-118099761D01*
X130923008Y-118122883D01*
X130923008Y-118194351D01*
X130915249Y-118201695D01*
X130902666Y-118234155D01*
X130877340Y-118277198D01*
X130836439Y-118288772D01*
X130824356Y-118288218D01*
X130770348Y-118291430D01*
X130737632Y-118302256D01*
X130721555Y-118319310D01*
X130743539Y-118334539D01*
X130748821Y-118336663D01*
X130795389Y-118350819D01*
X130816208Y-118354179D01*
X130856633Y-118338570D01*
X130896270Y-118298044D01*
X130922065Y-118248200D01*
X130925662Y-118223375D01*
X130923008Y-118194351D01*
X130923008Y-118122883D01*
X130951302Y-118155689D01*
X130969008Y-118224964D01*
X130952845Y-118297262D01*
X130952845Y-118297262D01*
G37*
X130952845Y-118297262D02*
X130917712Y-118346045D01*
X130850741Y-118389845D01*
X130780727Y-118391690D01*
X130709603Y-118351666D01*
X130692872Y-118336128D01*
X130644216Y-118271503D01*
X130636086Y-118211081D01*
X130668553Y-118148359D01*
X130695348Y-118118729D01*
X130700589Y-118114236D01*
X130700589Y-118176363D01*
X130695098Y-118208965D01*
X130694824Y-118223168D01*
X130696365Y-118268521D01*
X130707007Y-118277787D01*
X130734850Y-118257201D01*
X130736833Y-118255505D01*
X130766941Y-118223354D01*
X130779134Y-118198663D01*
X130770069Y-118191591D01*
X130755633Y-118198379D01*
X130726044Y-118196382D01*
X130713624Y-118183753D01*
X130700589Y-118176363D01*
X130700589Y-118114236D01*
X130743597Y-118077359D01*
X130785585Y-118063457D01*
X130801567Y-118064994D01*
X130801567Y-118110262D01*
X130778367Y-118112504D01*
X130743927Y-118126252D01*
X130745638Y-118136023D01*
X130785966Y-118143826D01*
X130821500Y-118147628D01*
X130826560Y-118148002D01*
X130826560Y-118195514D01*
X130823171Y-118216319D01*
X130827063Y-118243773D01*
X130834288Y-118244101D01*
X130839341Y-118215771D01*
X130835959Y-118203531D01*
X130826560Y-118195514D01*
X130826560Y-118148002D01*
X130874424Y-118151547D01*
X130903951Y-118151544D01*
X130906166Y-118150596D01*
X130888226Y-118132970D01*
X130847040Y-118117642D01*
X130801567Y-118110262D01*
X130801567Y-118064994D01*
X130827640Y-118067504D01*
X130903066Y-118099761D01*
X130923008Y-118122883D01*
X130923008Y-118194351D01*
X130915249Y-118201695D01*
X130902666Y-118234155D01*
X130877340Y-118277198D01*
X130836439Y-118288772D01*
X130824356Y-118288218D01*
X130770348Y-118291430D01*
X130737632Y-118302256D01*
X130721555Y-118319310D01*
X130743539Y-118334539D01*
X130748821Y-118336663D01*
X130795389Y-118350819D01*
X130816208Y-118354179D01*
X130856633Y-118338570D01*
X130896270Y-118298044D01*
X130922065Y-118248200D01*
X130925662Y-118223375D01*
X130923008Y-118194351D01*
X130923008Y-118122883D01*
X130951302Y-118155689D01*
X130969008Y-118224964D01*
X130952845Y-118297262D01*
G36*
X131328606Y-115865027D02*
G01*
X131325335Y-116018969D01*
X131318800Y-116141529D01*
X131308118Y-116238172D01*
X131292403Y-116314358D01*
X131270769Y-116375553D01*
X131242332Y-116427218D01*
X131206207Y-116474816D01*
X131198304Y-116483962D01*
X131110897Y-116566117D01*
X131014613Y-116618403D01*
X130898782Y-116645185D01*
X130789750Y-116651175D01*
X130656129Y-116642295D01*
X130547675Y-116611245D01*
X130455922Y-116552932D01*
X130372407Y-116462262D01*
X130302916Y-116358176D01*
X130291349Y-116347548D01*
X130270962Y-116346720D01*
X130236520Y-116357971D01*
X130182784Y-116383577D01*
X130104518Y-116425817D01*
X129996482Y-116486969D01*
X129964250Y-116505454D01*
X129858529Y-116565926D01*
X129764503Y-116619221D01*
X129688757Y-116661645D01*
X129637878Y-116689504D01*
X129619598Y-116698784D01*
X129607891Y-116694928D01*
X129600566Y-116668367D01*
X129597139Y-116613613D01*
X129597125Y-116525176D01*
X129598431Y-116458766D01*
X129604416Y-116207804D01*
X130218250Y-115873748D01*
X130203964Y-115626306D01*
X129904190Y-115620445D01*
X129604416Y-115614583D01*
X129598431Y-115401846D01*
X129597296Y-115310761D01*
X129599040Y-115236005D01*
X129603285Y-115187350D01*
X129607250Y-115174305D01*
X129630973Y-115171083D01*
X129692462Y-115168102D01*
X129787154Y-115165441D01*
X129910480Y-115163178D01*
X130057877Y-115161389D01*
X130224777Y-115160153D01*
X130406616Y-115159548D01*
X130475778Y-115159500D01*
X130990833Y-115159500D01*
X130990833Y-115625167D01*
X130567500Y-115625167D01*
X130567500Y-115866238D01*
X130568470Y-115974871D01*
X130572197Y-116049995D01*
X130579903Y-116100408D01*
X130592812Y-116134908D01*
X130607963Y-116157280D01*
X130640051Y-116187468D01*
X130682422Y-116202549D01*
X130749681Y-116207170D01*
X130765008Y-116207250D01*
X130842087Y-116203074D01*
X130894042Y-116187214D01*
X130936211Y-116155935D01*
X130959887Y-116131561D01*
X130975502Y-116105602D01*
X130984730Y-116069141D01*
X130989243Y-116013266D01*
X130990714Y-115929061D01*
X130990833Y-115864894D01*
X130990833Y-115625167D01*
X130990833Y-115159500D01*
X131329500Y-115159500D01*
X131329500Y-115674241D01*
X131328606Y-115865027D01*
X131328606Y-115865027D01*
G37*
X131328606Y-115865027D02*
X131325335Y-116018969D01*
X131318800Y-116141529D01*
X131308118Y-116238172D01*
X131292403Y-116314358D01*
X131270769Y-116375553D01*
X131242332Y-116427218D01*
X131206207Y-116474816D01*
X131198304Y-116483962D01*
X131110897Y-116566117D01*
X131014613Y-116618403D01*
X130898782Y-116645185D01*
X130789750Y-116651175D01*
X130656129Y-116642295D01*
X130547675Y-116611245D01*
X130455922Y-116552932D01*
X130372407Y-116462262D01*
X130302916Y-116358176D01*
X130291349Y-116347548D01*
X130270962Y-116346720D01*
X130236520Y-116357971D01*
X130182784Y-116383577D01*
X130104518Y-116425817D01*
X129996482Y-116486969D01*
X129964250Y-116505454D01*
X129858529Y-116565926D01*
X129764503Y-116619221D01*
X129688757Y-116661645D01*
X129637878Y-116689504D01*
X129619598Y-116698784D01*
X129607891Y-116694928D01*
X129600566Y-116668367D01*
X129597139Y-116613613D01*
X129597125Y-116525176D01*
X129598431Y-116458766D01*
X129604416Y-116207804D01*
X130218250Y-115873748D01*
X130203964Y-115626306D01*
X129904190Y-115620445D01*
X129604416Y-115614583D01*
X129598431Y-115401846D01*
X129597296Y-115310761D01*
X129599040Y-115236005D01*
X129603285Y-115187350D01*
X129607250Y-115174305D01*
X129630973Y-115171083D01*
X129692462Y-115168102D01*
X129787154Y-115165441D01*
X129910480Y-115163178D01*
X130057877Y-115161389D01*
X130224777Y-115160153D01*
X130406616Y-115159548D01*
X130475778Y-115159500D01*
X130990833Y-115159500D01*
X130990833Y-115625167D01*
X130567500Y-115625167D01*
X130567500Y-115866238D01*
X130568470Y-115974871D01*
X130572197Y-116049995D01*
X130579903Y-116100408D01*
X130592812Y-116134908D01*
X130607963Y-116157280D01*
X130640051Y-116187468D01*
X130682422Y-116202549D01*
X130749681Y-116207170D01*
X130765008Y-116207250D01*
X130842087Y-116203074D01*
X130894042Y-116187214D01*
X130936211Y-116155935D01*
X130959887Y-116131561D01*
X130975502Y-116105602D01*
X130984730Y-116069141D01*
X130989243Y-116013266D01*
X130990714Y-115929061D01*
X130990833Y-115864894D01*
X130990833Y-115625167D01*
X130990833Y-115159500D01*
X131329500Y-115159500D01*
X131329500Y-115674241D01*
X131328606Y-115865027D01*
G36*
X129974833Y-112767667D02*
G01*
X129974833Y-113445000D01*
X129593833Y-113445000D01*
X129593833Y-112323167D01*
X131329500Y-112323167D01*
X131329500Y-112767667D01*
X129974833Y-112767667D01*
X129974833Y-112767667D01*
G37*
X129974833Y-112767667D02*
X129974833Y-113445000D01*
X129593833Y-113445000D01*
X129593833Y-112323167D01*
X131329500Y-112323167D01*
X131329500Y-112767667D01*
X129974833Y-112767667D01*
G36*
X130921705Y-117573910D02*
G01*
X130911398Y-117671515D01*
X130903256Y-117712872D01*
X130859103Y-117815622D01*
X130787483Y-117901152D01*
X130698178Y-117958973D01*
X130662232Y-117971343D01*
X130617014Y-117977975D01*
X130536756Y-117984390D01*
X130428752Y-117990226D01*
X130300296Y-117995122D01*
X130158680Y-117998716D01*
X130085942Y-117999903D01*
X129593800Y-118006417D01*
X129593817Y-117846608D01*
X129597522Y-117747406D01*
X129610506Y-117683594D01*
X129635603Y-117648724D01*
X129675650Y-117636345D01*
X129686423Y-117636000D01*
X129713356Y-117633888D01*
X129712310Y-117620978D01*
X129682905Y-117587772D01*
X129625754Y-117499741D01*
X129589258Y-117386850D01*
X129574875Y-117261966D01*
X129584060Y-117137958D01*
X129618272Y-117027696D01*
X129619262Y-117025636D01*
X129689023Y-116924269D01*
X129783373Y-116857348D01*
X129902357Y-116824844D01*
X129964873Y-116821440D01*
X129979873Y-116823097D01*
X129979873Y-117196154D01*
X129924359Y-117221661D01*
X129885705Y-117273659D01*
X129868189Y-117344637D01*
X129876088Y-117427086D01*
X129893429Y-117475957D01*
X129946066Y-117544550D01*
X130031490Y-117589192D01*
X130122733Y-117608164D01*
X130226401Y-117620442D01*
X130182879Y-117474762D01*
X130144538Y-117356739D01*
X130110359Y-117275514D01*
X130077841Y-117226080D01*
X130047968Y-117204648D01*
X129979873Y-117196154D01*
X129979873Y-116823097D01*
X130079952Y-116834160D01*
X130175986Y-116873601D01*
X130255401Y-116942719D01*
X130320625Y-117044470D01*
X130374085Y-117181809D01*
X130418210Y-117357691D01*
X130422379Y-117378407D01*
X130442934Y-117480321D01*
X130458684Y-117547748D01*
X130472688Y-117587799D01*
X130488008Y-117607584D01*
X130507703Y-117614212D01*
X130524137Y-117614833D01*
X130601696Y-117596029D01*
X130657426Y-117543456D01*
X130682312Y-117478357D01*
X130682188Y-117393916D01*
X130652905Y-117322273D01*
X130600210Y-117274162D01*
X130566588Y-117262226D01*
X130504000Y-117249708D01*
X130504000Y-117061854D01*
X130504891Y-116966961D01*
X130511344Y-116908176D01*
X130529033Y-116879272D01*
X130563630Y-116874024D01*
X130620805Y-116886205D01*
X130655374Y-116895704D01*
X130731918Y-116934434D01*
X130807130Y-117001439D01*
X130869164Y-117083990D01*
X130904640Y-117163543D01*
X130917724Y-117239854D01*
X130924905Y-117343443D01*
X130926220Y-117459673D01*
X130921705Y-117573910D01*
X130921705Y-117573910D01*
G37*
X130921705Y-117573910D02*
X130911398Y-117671515D01*
X130903256Y-117712872D01*
X130859103Y-117815622D01*
X130787483Y-117901152D01*
X130698178Y-117958973D01*
X130662232Y-117971343D01*
X130617014Y-117977975D01*
X130536756Y-117984390D01*
X130428752Y-117990226D01*
X130300296Y-117995122D01*
X130158680Y-117998716D01*
X130085942Y-117999903D01*
X129593800Y-118006417D01*
X129593817Y-117846608D01*
X129597522Y-117747406D01*
X129610506Y-117683594D01*
X129635603Y-117648724D01*
X129675650Y-117636345D01*
X129686423Y-117636000D01*
X129713356Y-117633888D01*
X129712310Y-117620978D01*
X129682905Y-117587772D01*
X129625754Y-117499741D01*
X129589258Y-117386850D01*
X129574875Y-117261966D01*
X129584060Y-117137958D01*
X129618272Y-117027696D01*
X129619262Y-117025636D01*
X129689023Y-116924269D01*
X129783373Y-116857348D01*
X129902357Y-116824844D01*
X129964873Y-116821440D01*
X129979873Y-116823097D01*
X129979873Y-117196154D01*
X129924359Y-117221661D01*
X129885705Y-117273659D01*
X129868189Y-117344637D01*
X129876088Y-117427086D01*
X129893429Y-117475957D01*
X129946066Y-117544550D01*
X130031490Y-117589192D01*
X130122733Y-117608164D01*
X130226401Y-117620442D01*
X130182879Y-117474762D01*
X130144538Y-117356739D01*
X130110359Y-117275514D01*
X130077841Y-117226080D01*
X130047968Y-117204648D01*
X129979873Y-117196154D01*
X129979873Y-116823097D01*
X130079952Y-116834160D01*
X130175986Y-116873601D01*
X130255401Y-116942719D01*
X130320625Y-117044470D01*
X130374085Y-117181809D01*
X130418210Y-117357691D01*
X130422379Y-117378407D01*
X130442934Y-117480321D01*
X130458684Y-117547748D01*
X130472688Y-117587799D01*
X130488008Y-117607584D01*
X130507703Y-117614212D01*
X130524137Y-117614833D01*
X130601696Y-117596029D01*
X130657426Y-117543456D01*
X130682312Y-117478357D01*
X130682188Y-117393916D01*
X130652905Y-117322273D01*
X130600210Y-117274162D01*
X130566588Y-117262226D01*
X130504000Y-117249708D01*
X130504000Y-117061854D01*
X130504891Y-116966961D01*
X130511344Y-116908176D01*
X130529033Y-116879272D01*
X130563630Y-116874024D01*
X130620805Y-116886205D01*
X130655374Y-116895704D01*
X130731918Y-116934434D01*
X130807130Y-117001439D01*
X130869164Y-117083990D01*
X130904640Y-117163543D01*
X130917724Y-117239854D01*
X130924905Y-117343443D01*
X130926220Y-117459673D01*
X130921705Y-117573910D01*
G36*
X130910683Y-114423512D02*
G01*
X130861023Y-114581365D01*
X130778601Y-114713058D01*
X130663786Y-114817885D01*
X130607278Y-114853022D01*
X130555269Y-114880420D01*
X130510064Y-114898477D01*
X130460684Y-114909130D01*
X130396154Y-114914316D01*
X130305496Y-114915973D01*
X130250000Y-114916083D01*
X130118011Y-114912965D01*
X130017390Y-114901559D01*
X129937493Y-114878785D01*
X129867677Y-114841563D01*
X129797298Y-114786815D01*
X129794383Y-114784272D01*
X129698994Y-114674167D01*
X129628702Y-114537714D01*
X129585594Y-114384099D01*
X129571758Y-114222509D01*
X129589283Y-114062130D01*
X129611847Y-113981203D01*
X129680906Y-113836175D01*
X129777995Y-113722002D01*
X129904883Y-113637103D01*
X130059155Y-113580956D01*
X130231032Y-113555336D01*
X130251762Y-113556673D01*
X130251762Y-113953123D01*
X130133834Y-113962814D01*
X130028450Y-113996067D01*
X129966650Y-114035372D01*
X129910751Y-114108775D01*
X129882132Y-114202304D01*
X129882346Y-114302466D01*
X129912946Y-114395769D01*
X129923186Y-114412934D01*
X129983963Y-114474531D01*
X130073067Y-114513754D01*
X130194527Y-114532096D01*
X130250000Y-114533902D01*
X130347706Y-114531233D01*
X130417614Y-114519809D01*
X130473800Y-114497099D01*
X130482833Y-114492030D01*
X130559842Y-114426049D01*
X130608376Y-114340331D01*
X130626635Y-114245171D01*
X130612821Y-114150869D01*
X130565134Y-114067721D01*
X130558283Y-114060259D01*
X130476240Y-114002361D01*
X130369982Y-113966477D01*
X130251762Y-113953123D01*
X130251762Y-113556673D01*
X130395777Y-113565962D01*
X130547697Y-113610890D01*
X130681101Y-113688173D01*
X130790297Y-113795866D01*
X130822782Y-113842014D01*
X130876252Y-113938768D01*
X130908670Y-114033389D01*
X130924182Y-114141685D01*
X130927215Y-114240200D01*
X130910683Y-114423512D01*
X130910683Y-114423512D01*
G37*
X130910683Y-114423512D02*
X130861023Y-114581365D01*
X130778601Y-114713058D01*
X130663786Y-114817885D01*
X130607278Y-114853022D01*
X130555269Y-114880420D01*
X130510064Y-114898477D01*
X130460684Y-114909130D01*
X130396154Y-114914316D01*
X130305496Y-114915973D01*
X130250000Y-114916083D01*
X130118011Y-114912965D01*
X130017390Y-114901559D01*
X129937493Y-114878785D01*
X129867677Y-114841563D01*
X129797298Y-114786815D01*
X129794383Y-114784272D01*
X129698994Y-114674167D01*
X129628702Y-114537714D01*
X129585594Y-114384099D01*
X129571758Y-114222509D01*
X129589283Y-114062130D01*
X129611847Y-113981203D01*
X129680906Y-113836175D01*
X129777995Y-113722002D01*
X129904883Y-113637103D01*
X130059155Y-113580956D01*
X130231032Y-113555336D01*
X130251762Y-113556673D01*
X130251762Y-113953123D01*
X130133834Y-113962814D01*
X130028450Y-113996067D01*
X129966650Y-114035372D01*
X129910751Y-114108775D01*
X129882132Y-114202304D01*
X129882346Y-114302466D01*
X129912946Y-114395769D01*
X129923186Y-114412934D01*
X129983963Y-114474531D01*
X130073067Y-114513754D01*
X130194527Y-114532096D01*
X130250000Y-114533902D01*
X130347706Y-114531233D01*
X130417614Y-114519809D01*
X130473800Y-114497099D01*
X130482833Y-114492030D01*
X130559842Y-114426049D01*
X130608376Y-114340331D01*
X130626635Y-114245171D01*
X130612821Y-114150869D01*
X130565134Y-114067721D01*
X130558283Y-114060259D01*
X130476240Y-114002361D01*
X130369982Y-113966477D01*
X130251762Y-113953123D01*
X130251762Y-113556673D01*
X130395777Y-113565962D01*
X130547697Y-113610890D01*
X130681101Y-113688173D01*
X130790297Y-113795866D01*
X130822782Y-113842014D01*
X130876252Y-113938768D01*
X130908670Y-114033389D01*
X130924182Y-114141685D01*
X130927215Y-114240200D01*
X130910683Y-114423512D01*
G36*
X129447843Y-113812663D02*
G01*
X129391984Y-113936100D01*
X129356804Y-114082246D01*
X129342409Y-114239768D01*
X129348907Y-114397331D01*
X129376405Y-114543604D01*
X129425013Y-114667251D01*
X129439494Y-114691776D01*
X129459425Y-114730104D01*
X129451155Y-114756116D01*
X129421815Y-114781263D01*
X129380566Y-114809099D01*
X129354381Y-114820363D01*
X129337904Y-114802771D01*
X129310188Y-114755870D01*
X129276786Y-114689211D01*
X129271564Y-114677958D01*
X129241629Y-114608705D01*
X129222013Y-114548634D01*
X129210230Y-114484613D01*
X129203795Y-114403505D01*
X129200453Y-114302250D01*
X129199124Y-114201746D01*
X129199836Y-114112341D01*
X129202391Y-114045357D01*
X129205427Y-114016500D01*
X129220169Y-113966774D01*
X129246099Y-113900258D01*
X129278202Y-113827606D01*
X129311461Y-113759470D01*
X129340862Y-113706502D01*
X129361390Y-113679356D01*
X129364878Y-113677833D01*
X129394678Y-113688471D01*
X129435986Y-113712121D01*
X129488316Y-113746409D01*
X129447843Y-113812663D01*
X129447843Y-113812663D01*
G37*
X129447843Y-113812663D02*
X129391984Y-113936100D01*
X129356804Y-114082246D01*
X129342409Y-114239768D01*
X129348907Y-114397331D01*
X129376405Y-114543604D01*
X129425013Y-114667251D01*
X129439494Y-114691776D01*
X129459425Y-114730104D01*
X129451155Y-114756116D01*
X129421815Y-114781263D01*
X129380566Y-114809099D01*
X129354381Y-114820363D01*
X129337904Y-114802771D01*
X129310188Y-114755870D01*
X129276786Y-114689211D01*
X129271564Y-114677958D01*
X129241629Y-114608705D01*
X129222013Y-114548634D01*
X129210230Y-114484613D01*
X129203795Y-114403505D01*
X129200453Y-114302250D01*
X129199124Y-114201746D01*
X129199836Y-114112341D01*
X129202391Y-114045357D01*
X129205427Y-114016500D01*
X129220169Y-113966774D01*
X129246099Y-113900258D01*
X129278202Y-113827606D01*
X129311461Y-113759470D01*
X129340862Y-113706502D01*
X129361390Y-113679356D01*
X129364878Y-113677833D01*
X129394678Y-113688471D01*
X129435986Y-113712121D01*
X129488316Y-113746409D01*
X129447843Y-113812663D01*
G36*
X129145317Y-113627146D02*
G01*
X129101735Y-113722676D01*
X129059961Y-113823563D01*
X129025706Y-113915948D01*
X129004682Y-113985969D01*
X129003553Y-113991083D01*
X128978487Y-114211102D01*
X128992937Y-114436730D01*
X129046014Y-114660941D01*
X129108183Y-114818702D01*
X129138433Y-114885748D01*
X129158996Y-114935347D01*
X129165767Y-114957545D01*
X129165575Y-114957848D01*
X129146274Y-114971048D01*
X129105063Y-114999446D01*
X129089906Y-115009914D01*
X129044553Y-115038513D01*
X129016368Y-115051153D01*
X129013040Y-115050684D01*
X128987428Y-115010481D01*
X128953375Y-114941343D01*
X128915610Y-114854569D01*
X128878859Y-114761458D01*
X128847848Y-114673307D01*
X128830391Y-114614110D01*
X128800347Y-114441802D01*
X128790704Y-114251921D01*
X128801438Y-114062880D01*
X128831341Y-113897555D01*
X128852958Y-113828033D01*
X128883756Y-113745122D01*
X128919709Y-113657837D01*
X128956791Y-113575190D01*
X128990976Y-113506196D01*
X129018237Y-113459867D01*
X129033479Y-113445000D01*
X129058866Y-113455584D01*
X129100192Y-113481015D01*
X129143881Y-113511807D01*
X129176356Y-113538477D01*
X129184993Y-113550833D01*
X129145317Y-113627146D01*
X129145317Y-113627146D01*
G37*
X129145317Y-113627146D02*
X129101735Y-113722676D01*
X129059961Y-113823563D01*
X129025706Y-113915948D01*
X129004682Y-113985969D01*
X129003553Y-113991083D01*
X128978487Y-114211102D01*
X128992937Y-114436730D01*
X129046014Y-114660941D01*
X129108183Y-114818702D01*
X129138433Y-114885748D01*
X129158996Y-114935347D01*
X129165767Y-114957545D01*
X129165575Y-114957848D01*
X129146274Y-114971048D01*
X129105063Y-114999446D01*
X129089906Y-115009914D01*
X129044553Y-115038513D01*
X129016368Y-115051153D01*
X129013040Y-115050684D01*
X128987428Y-115010481D01*
X128953375Y-114941343D01*
X128915610Y-114854569D01*
X128878859Y-114761458D01*
X128847848Y-114673307D01*
X128830391Y-114614110D01*
X128800347Y-114441802D01*
X128790704Y-114251921D01*
X128801438Y-114062880D01*
X128831341Y-113897555D01*
X128852958Y-113828033D01*
X128883756Y-113745122D01*
X128919709Y-113657837D01*
X128956791Y-113575190D01*
X128990976Y-113506196D01*
X129018237Y-113459867D01*
X129033479Y-113445000D01*
X129058866Y-113455584D01*
X129100192Y-113481015D01*
X129143881Y-113511807D01*
X129176356Y-113538477D01*
X129184993Y-113550833D01*
X129145317Y-113627146D01*
G36*
X128828806Y-113435259D02*
G01*
X128722919Y-113660076D01*
X128653505Y-113900455D01*
X128620713Y-114150219D01*
X128624693Y-114403191D01*
X128665592Y-114653192D01*
X128743561Y-114894046D01*
X128791150Y-114998539D01*
X128826717Y-115074188D01*
X128850582Y-115134165D01*
X128859492Y-115169763D01*
X128857359Y-115175686D01*
X128829412Y-115191431D01*
X128782993Y-115222966D01*
X128766411Y-115235002D01*
X128720201Y-115266965D01*
X128693938Y-115274750D01*
X128674312Y-115260373D01*
X128666308Y-115250159D01*
X128620407Y-115176735D01*
X128568876Y-115074046D01*
X128517018Y-114953721D01*
X128470136Y-114827395D01*
X128460924Y-114799667D01*
X128437186Y-114721797D01*
X128420434Y-114651622D01*
X128409224Y-114578109D01*
X128402113Y-114490221D01*
X128397657Y-114376926D01*
X128395867Y-114302250D01*
X128395060Y-114130206D01*
X128400416Y-113991865D01*
X128411767Y-113890807D01*
X128416308Y-113868333D01*
X128476162Y-113662739D01*
X128557063Y-113460520D01*
X128651612Y-113279856D01*
X128663960Y-113259792D01*
X128688388Y-113226252D01*
X128712662Y-113216033D01*
X128747822Y-113230012D01*
X128804909Y-113269064D01*
X128807884Y-113271218D01*
X128889402Y-113330269D01*
X128828806Y-113435259D01*
X128828806Y-113435259D01*
G37*
X128828806Y-113435259D02*
X128722919Y-113660076D01*
X128653505Y-113900455D01*
X128620713Y-114150219D01*
X128624693Y-114403191D01*
X128665592Y-114653192D01*
X128743561Y-114894046D01*
X128791150Y-114998539D01*
X128826717Y-115074188D01*
X128850582Y-115134165D01*
X128859492Y-115169763D01*
X128857359Y-115175686D01*
X128829412Y-115191431D01*
X128782993Y-115222966D01*
X128766411Y-115235002D01*
X128720201Y-115266965D01*
X128693938Y-115274750D01*
X128674312Y-115260373D01*
X128666308Y-115250159D01*
X128620407Y-115176735D01*
X128568876Y-115074046D01*
X128517018Y-114953721D01*
X128470136Y-114827395D01*
X128460924Y-114799667D01*
X128437186Y-114721797D01*
X128420434Y-114651622D01*
X128409224Y-114578109D01*
X128402113Y-114490221D01*
X128397657Y-114376926D01*
X128395867Y-114302250D01*
X128395060Y-114130206D01*
X128400416Y-113991865D01*
X128411767Y-113890807D01*
X128416308Y-113868333D01*
X128476162Y-113662739D01*
X128557063Y-113460520D01*
X128651612Y-113279856D01*
X128663960Y-113259792D01*
X128688388Y-113226252D01*
X128712662Y-113216033D01*
X128747822Y-113230012D01*
X128804909Y-113269064D01*
X128807884Y-113271218D01*
X128889402Y-113330269D01*
X128828806Y-113435259D01*
D16*
X134800000Y-84450000D02*
X136800000Y-84450000D01*
X136800000Y-84450000D02*
X136800000Y-80550000D01*
X134800000Y-84450000D02*
X134800000Y-80550000D01*
X143595000Y-111690000D02*
X143595000Y-114390000D01*
X140875000Y-112280000D02*
X140245000Y-112280000D01*
X140875000Y-114440000D02*
X140875000Y-113800000D01*
X140875000Y-111640000D02*
X140875000Y-112280000D01*
X143390000Y-83810000D02*
X139140000Y-83810000D01*
X139140000Y-83810000D02*
X139140000Y-82790000D01*
X139140000Y-82790000D02*
X140740000Y-82790000D01*
X140740000Y-82790000D02*
X140740000Y-81510000D01*
X140740000Y-81510000D02*
X137850000Y-81510000D01*
X143390000Y-75690000D02*
X139140000Y-75690000D01*
X139140000Y-75690000D02*
X139140000Y-76710000D01*
X139140000Y-76710000D02*
X140740000Y-76710000D01*
X140740000Y-76710000D02*
X140740000Y-77990000D01*
X146960000Y-82090000D02*
X146960000Y-77410000D01*
X145252779Y-74720000D02*
X144927221Y-74720000D01*
X145252779Y-73700000D02*
X144927221Y-73700000D01*
X132462779Y-77110000D02*
X132137221Y-77110000D01*
X132462779Y-76090000D02*
X132137221Y-76090000D01*
X132137221Y-80010000D02*
X132462779Y-80010000D01*
X132137221Y-78990000D02*
X132462779Y-78990000D01*
X139590000Y-89837221D02*
X139590000Y-90162779D01*
X140610000Y-89837221D02*
X140610000Y-90162779D01*
X143762000Y-108498421D02*
X143762000Y-108823979D01*
X144782000Y-108498421D02*
X144782000Y-108823979D01*
X139137221Y-93160000D02*
X139462779Y-93160000D01*
X139137221Y-92140000D02*
X139462779Y-92140000D01*
X136512779Y-93160000D02*
X136187221Y-93160000D01*
X136512779Y-92140000D02*
X136187221Y-92140000D01*
X141301800Y-70523200D02*
X141301800Y-72808200D01*
X141301800Y-72808200D02*
X142771800Y-72808200D01*
X142771800Y-72808200D02*
X142771800Y-70523200D01*
X130228000Y-74718000D02*
X130228000Y-75318000D01*
X130228000Y-75318000D02*
X127328000Y-75318000D01*
X130228000Y-73018000D02*
X127328000Y-73018000D01*
X130435000Y-93035000D02*
X130435000Y-90750000D01*
X128965000Y-93035000D02*
X130435000Y-93035000D01*
X128965000Y-90750000D02*
X128965000Y-93035000D01*
X132241422Y-80490000D02*
X132758578Y-80490000D01*
X132241422Y-81910000D02*
X132758578Y-81910000D01*
X132462779Y-78560000D02*
X132137221Y-78560000D01*
X132462779Y-77540000D02*
X132137221Y-77540000D01*
X132115000Y-89585000D02*
X128585000Y-89585000D01*
X132115000Y-83115000D02*
X128585000Y-83115000D01*
X133440000Y-89520000D02*
X132115000Y-89520000D01*
X132115000Y-89585000D02*
X132115000Y-89520000D01*
X128585000Y-89585000D02*
X128585000Y-89520000D01*
X132115000Y-83180000D02*
X132115000Y-83115000D01*
X128585000Y-83180000D02*
X128585000Y-83115000D01*
X135640000Y-114430000D02*
X135890000Y-114930000D01*
X136140000Y-114430000D02*
X135640000Y-114430000D01*
X135890000Y-114930000D02*
X136140000Y-114430000D01*
X143650000Y-84740000D02*
X141850000Y-84740000D01*
X141850000Y-87960000D02*
X144300000Y-87960000D01*
X136500000Y-77040000D02*
X134600000Y-77040000D01*
X135100000Y-79360000D02*
X136500000Y-79360000D01*
X133980000Y-90990000D02*
X133050000Y-90990000D01*
X130820000Y-90990000D02*
X131750000Y-90990000D01*
X130820000Y-90990000D02*
X130820000Y-93150000D01*
X133980000Y-90990000D02*
X133980000Y-92450000D01*
X138960000Y-90900000D02*
X138960000Y-88450000D01*
X135740000Y-89100000D02*
X135740000Y-90900000D01*
X131420000Y-67042000D02*
X140360000Y-67042000D01*
X131420000Y-72552000D02*
X131420000Y-70752000D01*
X131420000Y-67042000D02*
X131420000Y-68502000D01*
X140360000Y-67042000D02*
X140360000Y-68502000D01*
X140360000Y-72552000D02*
X140360000Y-70752000D01*
X128728000Y-77336000D02*
X128828000Y-77336000D01*
X130488000Y-81956000D02*
X130488000Y-77556000D01*
X127068000Y-77556000D02*
X127068000Y-81956000D01*
X128718000Y-82166000D02*
X128818000Y-82166000D01*
X138310000Y-82887221D02*
X138310000Y-83212779D01*
X137290000Y-82887221D02*
X137290000Y-83212779D01*
X138160000Y-87930000D02*
X138160000Y-87000000D01*
X138160000Y-84770000D02*
X138160000Y-85700000D01*
X138160000Y-84770000D02*
X136000000Y-84770000D01*
X138160000Y-87930000D02*
X136700000Y-87930000D01*
X128390000Y-108601000D02*
X129390000Y-109601000D01*
X143390000Y-109601000D02*
X129390000Y-109601000D01*
X128390000Y-94601000D02*
X128390000Y-108601000D01*
X143390000Y-94601000D02*
X128390000Y-94601000D01*
X143390000Y-109601000D02*
X143390000Y-94601000D01*
X143250000Y-93240000D02*
X143150000Y-93240000D01*
X141490000Y-88620000D02*
X141490000Y-93020000D01*
X144910000Y-93020000D02*
X144910000Y-88620000D01*
X143260000Y-88410000D02*
X143160000Y-88410000D01*
M02*
