G04 #@! TF.GenerationSoftware,KiCad,Pcbnew,(5.1.4)-1*
G04 #@! TF.CreationDate,2019-11-11T12:29:28+01:00*
G04 #@! TF.ProjectId,TLM-4260-breakout-v1_0,544c4d2d-3432-4363-902d-627265616b6f,1.1*
G04 #@! TF.SameCoordinates,Original*
G04 #@! TF.FileFunction,Soldermask,Top*
G04 #@! TF.FilePolarity,Negative*
%FSLAX46Y46*%
G04 Gerber Fmt 4.6, Leading zero omitted, Abs format (unit mm)*
G04 Created by KiCad (PCBNEW (5.1.4)-1) date 2019-11-11 12:29:28*
%MOMM*%
%LPD*%
G04 APERTURE LIST*
%ADD10C,0.150000*%
%ADD11C,0.100000*%
G04 APERTURE END LIST*
D10*
X127000000Y-119380000D02*
G75*
G02X124460000Y-116840000I0J2540000D01*
G01*
X147320000Y-116840000D02*
G75*
G02X144780000Y-119380000I-2540000J0D01*
G01*
X144780000Y-68580000D02*
G75*
G02X147320000Y-71120000I0J-2540000D01*
G01*
X124460000Y-71120000D02*
G75*
G02X127000000Y-68580000I2540000J0D01*
G01*
X124460000Y-116840000D02*
X124460000Y-71120000D01*
X144780000Y-119380000D02*
X127000000Y-119380000D01*
X147320000Y-71120000D02*
X147320000Y-116840000D01*
X127000000Y-68580000D02*
X144780000Y-68580000D01*
D11*
G36*
X139516000Y-119391000D02*
G01*
X137914000Y-119391000D01*
X137914000Y-114589000D01*
X139516000Y-114589000D01*
X139516000Y-119391000D01*
X139516000Y-119391000D01*
G37*
G36*
X133791000Y-119391000D02*
G01*
X132339000Y-119391000D01*
X132339000Y-114589000D01*
X133791000Y-114589000D01*
X133791000Y-119391000D01*
X133791000Y-119391000D01*
G37*
G36*
X136691000Y-119218000D02*
G01*
X135089000Y-119218000D01*
X135089000Y-114716000D01*
X136691000Y-114716000D01*
X136691000Y-119218000D01*
X136691000Y-119218000D01*
G37*
G36*
X127257715Y-115544383D02*
G01*
X127385322Y-115569765D01*
X127526148Y-115628097D01*
X127625727Y-115669344D01*
X127625728Y-115669345D01*
X127842089Y-115813912D01*
X128026088Y-115997911D01*
X128122685Y-116142479D01*
X128170656Y-116214273D01*
X128211903Y-116313852D01*
X128270235Y-116454678D01*
X128321000Y-116709893D01*
X128321000Y-116970107D01*
X128270235Y-117225322D01*
X128211903Y-117366148D01*
X128170656Y-117465727D01*
X128170655Y-117465728D01*
X128026088Y-117682089D01*
X127842089Y-117866088D01*
X127697521Y-117962685D01*
X127625727Y-118010656D01*
X127526148Y-118051903D01*
X127385322Y-118110235D01*
X127257715Y-118135617D01*
X127130109Y-118161000D01*
X126869891Y-118161000D01*
X126742285Y-118135617D01*
X126614678Y-118110235D01*
X126473852Y-118051903D01*
X126374273Y-118010656D01*
X126302479Y-117962685D01*
X126157911Y-117866088D01*
X125973912Y-117682089D01*
X125829345Y-117465728D01*
X125829344Y-117465727D01*
X125788097Y-117366148D01*
X125729765Y-117225322D01*
X125679000Y-116970107D01*
X125679000Y-116709893D01*
X125729765Y-116454678D01*
X125788097Y-116313852D01*
X125829344Y-116214273D01*
X125877315Y-116142479D01*
X125973912Y-115997911D01*
X126157911Y-115813912D01*
X126374272Y-115669345D01*
X126374273Y-115669344D01*
X126473852Y-115628097D01*
X126614678Y-115569765D01*
X126742285Y-115544383D01*
X126869891Y-115519000D01*
X127130109Y-115519000D01*
X127257715Y-115544383D01*
X127257715Y-115544383D01*
G37*
G36*
X145037715Y-115544383D02*
G01*
X145165322Y-115569765D01*
X145306148Y-115628097D01*
X145405727Y-115669344D01*
X145405728Y-115669345D01*
X145622089Y-115813912D01*
X145806088Y-115997911D01*
X145902685Y-116142479D01*
X145950656Y-116214273D01*
X145991903Y-116313852D01*
X146050235Y-116454678D01*
X146101000Y-116709893D01*
X146101000Y-116970107D01*
X146050235Y-117225322D01*
X145991903Y-117366148D01*
X145950656Y-117465727D01*
X145950655Y-117465728D01*
X145806088Y-117682089D01*
X145622089Y-117866088D01*
X145477521Y-117962685D01*
X145405727Y-118010656D01*
X145306148Y-118051903D01*
X145165322Y-118110235D01*
X145037715Y-118135617D01*
X144910109Y-118161000D01*
X144649891Y-118161000D01*
X144522285Y-118135617D01*
X144394678Y-118110235D01*
X144253852Y-118051903D01*
X144154273Y-118010656D01*
X144082479Y-117962685D01*
X143937911Y-117866088D01*
X143753912Y-117682089D01*
X143609345Y-117465728D01*
X143609344Y-117465727D01*
X143568097Y-117366148D01*
X143509765Y-117225322D01*
X143459000Y-116970107D01*
X143459000Y-116709893D01*
X143509765Y-116454678D01*
X143568097Y-116313852D01*
X143609344Y-116214273D01*
X143657315Y-116142479D01*
X143753912Y-115997911D01*
X143937911Y-115813912D01*
X144154272Y-115669345D01*
X144154273Y-115669344D01*
X144253852Y-115628097D01*
X144394678Y-115569765D01*
X144522285Y-115544383D01*
X144649891Y-115519000D01*
X144910109Y-115519000D01*
X145037715Y-115544383D01*
X145037715Y-115544383D01*
G37*
G36*
X143386000Y-115091000D02*
G01*
X141084000Y-115091000D01*
X141084000Y-113939000D01*
X143386000Y-113939000D01*
X143386000Y-115091000D01*
X143386000Y-115091000D01*
G37*
G36*
X133582063Y-111729438D02*
G01*
X133602682Y-111735693D01*
X133621678Y-111745846D01*
X133643099Y-111763426D01*
X133967468Y-112087795D01*
X133985048Y-112109216D01*
X133995201Y-112128212D01*
X134001456Y-112148831D01*
X134004616Y-112180913D01*
X134009397Y-112204946D01*
X134018774Y-112227585D01*
X134032388Y-112247959D01*
X134049715Y-112265286D01*
X134070090Y-112278900D01*
X134092729Y-112288277D01*
X134116761Y-112293057D01*
X134121707Y-112293544D01*
X134142326Y-112299799D01*
X134161322Y-112309952D01*
X134182743Y-112327532D01*
X134534396Y-112679185D01*
X134553338Y-112694730D01*
X134574949Y-112706281D01*
X134598398Y-112713394D01*
X134622784Y-112715796D01*
X134647170Y-112713394D01*
X134670619Y-112706281D01*
X134681710Y-112701035D01*
X134687443Y-112697971D01*
X134708062Y-112691716D01*
X134735640Y-112689000D01*
X135244360Y-112689000D01*
X135271938Y-112691716D01*
X135292557Y-112697971D01*
X135311552Y-112708124D01*
X135336370Y-112728491D01*
X135356744Y-112742104D01*
X135379383Y-112751481D01*
X135403417Y-112756261D01*
X135427921Y-112756261D01*
X135451954Y-112751480D01*
X135474593Y-112742103D01*
X135494967Y-112728489D01*
X135512294Y-112711161D01*
X135520221Y-112701502D01*
X135541315Y-112684190D01*
X135560311Y-112674037D01*
X135580930Y-112667782D01*
X135608508Y-112665066D01*
X136117228Y-112665066D01*
X136144806Y-112667782D01*
X136165425Y-112674037D01*
X136184421Y-112684190D01*
X136201076Y-112697858D01*
X136214744Y-112714513D01*
X136224898Y-112733511D01*
X136225435Y-112735280D01*
X136234812Y-112757919D01*
X136248425Y-112778294D01*
X136265752Y-112795621D01*
X136286126Y-112809235D01*
X136308765Y-112818613D01*
X136332798Y-112823394D01*
X136357302Y-112823394D01*
X136381335Y-112818614D01*
X136403974Y-112809237D01*
X136424349Y-112795624D01*
X136441676Y-112778297D01*
X136455290Y-112757923D01*
X136459644Y-112747412D01*
X136472908Y-112722597D01*
X136486576Y-112705942D01*
X136503231Y-112692274D01*
X136522227Y-112682121D01*
X136542846Y-112675866D01*
X136570424Y-112673150D01*
X137029144Y-112673150D01*
X137056722Y-112675866D01*
X137077341Y-112682121D01*
X137096337Y-112692274D01*
X137112992Y-112705942D01*
X137126660Y-112722597D01*
X137136813Y-112741593D01*
X137143068Y-112762212D01*
X137145784Y-112789790D01*
X137145784Y-113298510D01*
X137143068Y-113326088D01*
X137136813Y-113346707D01*
X137126660Y-113365703D01*
X137112992Y-113382358D01*
X137096337Y-113396026D01*
X137077341Y-113406179D01*
X137056722Y-113412434D01*
X137029144Y-113415150D01*
X136570424Y-113415150D01*
X136542846Y-113412434D01*
X136522227Y-113406179D01*
X136503231Y-113396026D01*
X136486576Y-113382358D01*
X136472908Y-113365703D01*
X136462754Y-113346706D01*
X136452999Y-113314546D01*
X136443622Y-113291907D01*
X136430009Y-113271533D01*
X136412682Y-113254206D01*
X136392308Y-113240592D01*
X136369669Y-113231214D01*
X136345636Y-113226433D01*
X136321132Y-113226433D01*
X136297098Y-113231213D01*
X136274459Y-113240590D01*
X136254085Y-113254203D01*
X136236758Y-113271530D01*
X136223144Y-113291903D01*
X136214742Y-113307620D01*
X136201076Y-113324272D01*
X136178691Y-113342643D01*
X136161361Y-113359973D01*
X136142990Y-113382358D01*
X136126338Y-113396024D01*
X136110621Y-113404426D01*
X136090247Y-113418041D01*
X136072920Y-113435368D01*
X136059307Y-113455743D01*
X136049930Y-113478382D01*
X136045151Y-113502415D01*
X136045151Y-113526920D01*
X136049932Y-113550953D01*
X136059310Y-113573591D01*
X136072925Y-113593965D01*
X136090252Y-113611292D01*
X136110627Y-113624905D01*
X136133264Y-113634281D01*
X136165424Y-113644036D01*
X136184421Y-113654190D01*
X136201076Y-113667858D01*
X136214744Y-113684513D01*
X136224897Y-113703509D01*
X136231152Y-113724128D01*
X136233868Y-113751706D01*
X136233868Y-114210426D01*
X136231152Y-114238004D01*
X136224897Y-114258623D01*
X136214744Y-114277619D01*
X136201076Y-114294274D01*
X136184421Y-114307942D01*
X136165425Y-114318095D01*
X136144806Y-114324350D01*
X136117228Y-114327066D01*
X135608508Y-114327066D01*
X135580930Y-114324350D01*
X135560311Y-114318095D01*
X135541315Y-114307942D01*
X135524660Y-114294274D01*
X135510992Y-114277619D01*
X135500839Y-114258623D01*
X135494584Y-114238004D01*
X135491868Y-114210426D01*
X135491868Y-113751706D01*
X135494584Y-113724128D01*
X135500839Y-113703509D01*
X135510992Y-113684513D01*
X135524660Y-113667858D01*
X135541315Y-113654190D01*
X135566129Y-113640927D01*
X135576639Y-113636573D01*
X135597013Y-113622960D01*
X135614340Y-113605633D01*
X135627954Y-113585258D01*
X135637332Y-113562619D01*
X135642112Y-113538586D01*
X135642112Y-113514082D01*
X135637332Y-113490049D01*
X135627954Y-113467410D01*
X135614341Y-113447036D01*
X135597014Y-113429709D01*
X135576639Y-113416095D01*
X135553998Y-113406717D01*
X135552229Y-113406180D01*
X135533231Y-113396026D01*
X135516574Y-113382356D01*
X135503319Y-113366204D01*
X135485993Y-113348876D01*
X135465618Y-113335262D01*
X135442980Y-113325885D01*
X135418946Y-113321104D01*
X135394442Y-113321104D01*
X135370409Y-113325884D01*
X135347770Y-113335261D01*
X135327397Y-113348874D01*
X135311556Y-113361874D01*
X135292557Y-113372029D01*
X135271938Y-113378284D01*
X135244360Y-113381000D01*
X134735640Y-113381000D01*
X134708062Y-113378284D01*
X134687443Y-113372029D01*
X134668447Y-113361876D01*
X134651792Y-113348208D01*
X134638124Y-113331553D01*
X134627971Y-113312557D01*
X134621716Y-113291938D01*
X134619000Y-113264360D01*
X134619000Y-113077448D01*
X134616598Y-113053062D01*
X134609485Y-113029613D01*
X134597934Y-113008002D01*
X134582389Y-112989060D01*
X134563447Y-112973515D01*
X134541836Y-112961964D01*
X134518387Y-112954851D01*
X134494001Y-112952449D01*
X134469615Y-112954851D01*
X134446166Y-112961964D01*
X134424555Y-112973515D01*
X134405613Y-112989060D01*
X134218099Y-113176574D01*
X134196678Y-113194154D01*
X134177682Y-113204307D01*
X134157063Y-113210562D01*
X134135625Y-113212673D01*
X134114187Y-113210562D01*
X134093568Y-113204307D01*
X134074572Y-113194154D01*
X134053151Y-113176574D01*
X133693426Y-112816849D01*
X133675846Y-112795428D01*
X133665693Y-112776432D01*
X133657953Y-112750917D01*
X133655161Y-112736877D01*
X133645784Y-112714238D01*
X133632171Y-112693863D01*
X133614844Y-112676536D01*
X133594470Y-112662921D01*
X133571832Y-112653543D01*
X133547798Y-112648762D01*
X133527246Y-112648762D01*
X133503831Y-112646456D01*
X133483212Y-112640201D01*
X133464216Y-112630048D01*
X133442795Y-112612468D01*
X133118426Y-112288099D01*
X133100846Y-112266678D01*
X133090693Y-112247682D01*
X133084438Y-112227063D01*
X133082327Y-112205625D01*
X133084438Y-112184187D01*
X133090693Y-112163568D01*
X133100846Y-112144572D01*
X133118426Y-112123151D01*
X133478151Y-111763426D01*
X133499572Y-111745846D01*
X133518568Y-111735693D01*
X133539187Y-111729438D01*
X133560625Y-111727327D01*
X133582063Y-111729438D01*
X133582063Y-111729438D01*
G37*
G36*
X125840443Y-112135519D02*
G01*
X125906627Y-112142037D01*
X126076466Y-112193557D01*
X126076468Y-112193558D01*
X126139151Y-112227063D01*
X126232991Y-112277222D01*
X126260501Y-112299799D01*
X126370186Y-112389814D01*
X126451585Y-112489000D01*
X126482778Y-112527009D01*
X126482779Y-112527011D01*
X126562703Y-112676536D01*
X126566443Y-112683534D01*
X126617963Y-112853373D01*
X126635359Y-113030000D01*
X126617963Y-113206627D01*
X126566443Y-113376466D01*
X126482778Y-113532991D01*
X126468037Y-113550953D01*
X126370186Y-113670186D01*
X126282847Y-113741862D01*
X126232991Y-113782778D01*
X126076466Y-113866443D01*
X125906627Y-113917963D01*
X125840443Y-113924481D01*
X125774260Y-113931000D01*
X125685740Y-113931000D01*
X125619557Y-113924481D01*
X125553373Y-113917963D01*
X125383534Y-113866443D01*
X125227009Y-113782778D01*
X125177153Y-113741862D01*
X125089814Y-113670186D01*
X124991963Y-113550953D01*
X124977222Y-113532991D01*
X124893557Y-113376466D01*
X124842037Y-113206627D01*
X124824641Y-113030000D01*
X124842037Y-112853373D01*
X124893557Y-112683534D01*
X124897298Y-112676536D01*
X124977221Y-112527011D01*
X124977222Y-112527009D01*
X125008415Y-112489000D01*
X125089814Y-112389814D01*
X125199499Y-112299799D01*
X125227009Y-112277222D01*
X125320849Y-112227063D01*
X125383532Y-112193558D01*
X125383534Y-112193557D01*
X125553373Y-112142037D01*
X125619557Y-112135519D01*
X125685740Y-112129000D01*
X125774260Y-112129000D01*
X125840443Y-112135519D01*
X125840443Y-112135519D01*
G37*
G36*
X146160443Y-112135519D02*
G01*
X146226627Y-112142037D01*
X146396466Y-112193557D01*
X146396468Y-112193558D01*
X146459151Y-112227063D01*
X146552991Y-112277222D01*
X146580501Y-112299799D01*
X146690186Y-112389814D01*
X146771585Y-112489000D01*
X146802778Y-112527009D01*
X146802779Y-112527011D01*
X146882703Y-112676536D01*
X146886443Y-112683534D01*
X146937963Y-112853373D01*
X146955359Y-113030000D01*
X146937963Y-113206627D01*
X146886443Y-113376466D01*
X146802778Y-113532991D01*
X146788037Y-113550953D01*
X146690186Y-113670186D01*
X146602847Y-113741862D01*
X146552991Y-113782778D01*
X146396466Y-113866443D01*
X146226627Y-113917963D01*
X146160443Y-113924481D01*
X146094260Y-113931000D01*
X146005740Y-113931000D01*
X145939557Y-113924481D01*
X145873373Y-113917963D01*
X145703534Y-113866443D01*
X145547009Y-113782778D01*
X145497153Y-113741862D01*
X145409814Y-113670186D01*
X145311963Y-113550953D01*
X145297222Y-113532991D01*
X145213557Y-113376466D01*
X145162037Y-113206627D01*
X145144641Y-113030000D01*
X145162037Y-112853373D01*
X145213557Y-112683534D01*
X145217298Y-112676536D01*
X145297221Y-112527011D01*
X145297222Y-112527009D01*
X145328415Y-112489000D01*
X145409814Y-112389814D01*
X145519499Y-112299799D01*
X145547009Y-112277222D01*
X145640849Y-112227063D01*
X145703532Y-112193558D01*
X145703534Y-112193557D01*
X145873373Y-112142037D01*
X145939557Y-112135519D01*
X146005740Y-112129000D01*
X146094260Y-112129000D01*
X146160443Y-112135519D01*
X146160443Y-112135519D01*
G37*
G36*
X133435813Y-112979438D02*
G01*
X133456432Y-112985693D01*
X133475428Y-112995846D01*
X133496849Y-113013426D01*
X133856574Y-113373151D01*
X133874154Y-113394572D01*
X133884307Y-113413568D01*
X133890562Y-113434187D01*
X133892673Y-113455625D01*
X133890562Y-113477063D01*
X133884307Y-113497682D01*
X133874154Y-113516678D01*
X133856574Y-113538099D01*
X133532205Y-113862468D01*
X133510784Y-113880048D01*
X133491788Y-113890201D01*
X133471169Y-113896456D01*
X133449731Y-113898567D01*
X133428293Y-113896456D01*
X133407674Y-113890201D01*
X133388678Y-113880048D01*
X133367257Y-113862468D01*
X133007532Y-113502743D01*
X132989952Y-113481322D01*
X132979799Y-113462326D01*
X132973544Y-113441707D01*
X132971433Y-113420269D01*
X132973544Y-113398831D01*
X132979799Y-113378212D01*
X132989952Y-113359216D01*
X133007532Y-113337795D01*
X133331901Y-113013426D01*
X133353322Y-112995846D01*
X133372318Y-112985693D01*
X133392937Y-112979438D01*
X133414375Y-112977327D01*
X133435813Y-112979438D01*
X133435813Y-112979438D01*
G37*
G36*
X141286000Y-113591000D02*
G01*
X140134000Y-113591000D01*
X140134000Y-112489000D01*
X141286000Y-112489000D01*
X141286000Y-113591000D01*
X141286000Y-113591000D01*
G37*
G36*
X135271938Y-111721716D02*
G01*
X135292557Y-111727971D01*
X135311553Y-111738124D01*
X135328208Y-111751792D01*
X135341876Y-111768447D01*
X135352029Y-111787443D01*
X135358284Y-111808062D01*
X135361000Y-111835640D01*
X135361000Y-112294360D01*
X135358284Y-112321938D01*
X135352029Y-112342557D01*
X135341876Y-112361553D01*
X135328208Y-112378208D01*
X135311553Y-112391876D01*
X135292557Y-112402029D01*
X135271938Y-112408284D01*
X135244360Y-112411000D01*
X134735640Y-112411000D01*
X134708062Y-112408284D01*
X134687443Y-112402029D01*
X134668447Y-112391876D01*
X134651792Y-112378208D01*
X134638124Y-112361553D01*
X134627971Y-112342557D01*
X134621716Y-112321938D01*
X134619000Y-112294360D01*
X134619000Y-111835640D01*
X134621716Y-111808062D01*
X134627971Y-111787443D01*
X134638124Y-111768447D01*
X134651792Y-111751792D01*
X134668447Y-111738124D01*
X134687443Y-111727971D01*
X134708062Y-111721716D01*
X134735640Y-111719000D01*
X135244360Y-111719000D01*
X135271938Y-111721716D01*
X135271938Y-111721716D01*
G37*
G36*
X143386000Y-112141000D02*
G01*
X141084000Y-112141000D01*
X141084000Y-110989000D01*
X143386000Y-110989000D01*
X143386000Y-112141000D01*
X143386000Y-112141000D01*
G37*
G36*
X133159802Y-109078244D02*
G01*
X133185579Y-109086064D01*
X133209333Y-109098761D01*
X133230153Y-109115847D01*
X133247239Y-109136667D01*
X133259936Y-109160421D01*
X133267756Y-109186198D01*
X133271000Y-109219138D01*
X133271000Y-109982862D01*
X133267756Y-110015802D01*
X133259936Y-110041579D01*
X133247239Y-110065333D01*
X133230153Y-110086153D01*
X133209332Y-110103241D01*
X133180103Y-110118863D01*
X133159728Y-110132476D01*
X133142401Y-110149803D01*
X133128787Y-110170177D01*
X133119409Y-110192815D01*
X133114628Y-110216849D01*
X133114628Y-110241353D01*
X133119408Y-110265386D01*
X133128785Y-110288025D01*
X133142398Y-110308400D01*
X133159726Y-110325728D01*
X133173207Y-110336791D01*
X133186876Y-110353447D01*
X133197029Y-110372443D01*
X133203284Y-110393062D01*
X133206000Y-110420640D01*
X133206000Y-110929360D01*
X133203284Y-110956938D01*
X133197029Y-110977557D01*
X133186876Y-110996553D01*
X133173208Y-111013208D01*
X133156554Y-111026874D01*
X133142270Y-111034510D01*
X133121896Y-111048125D01*
X133104569Y-111065452D01*
X133090956Y-111085827D01*
X133081579Y-111108466D01*
X133076800Y-111132500D01*
X133076800Y-111157004D01*
X133081581Y-111181037D01*
X133090959Y-111203675D01*
X133112809Y-111233136D01*
X133281574Y-111401901D01*
X133299154Y-111423322D01*
X133309307Y-111442318D01*
X133315562Y-111462937D01*
X133317673Y-111484375D01*
X133315562Y-111505813D01*
X133309307Y-111526432D01*
X133299154Y-111545428D01*
X133281574Y-111566849D01*
X132921849Y-111926574D01*
X132900428Y-111944154D01*
X132881432Y-111954307D01*
X132860813Y-111960562D01*
X132839375Y-111962673D01*
X132817937Y-111960562D01*
X132797318Y-111954307D01*
X132778322Y-111944154D01*
X132756901Y-111926574D01*
X132432532Y-111602205D01*
X132414952Y-111580784D01*
X132404799Y-111561788D01*
X132398544Y-111541169D01*
X132396433Y-111519731D01*
X132398544Y-111498293D01*
X132404799Y-111477674D01*
X132414952Y-111458678D01*
X132432532Y-111437257D01*
X132627033Y-111242756D01*
X132642578Y-111223814D01*
X132654129Y-111202203D01*
X132661242Y-111178754D01*
X132663644Y-111154368D01*
X132661242Y-111129982D01*
X132654129Y-111106533D01*
X132642578Y-111084922D01*
X132627033Y-111065980D01*
X132608091Y-111050435D01*
X132593046Y-111043318D01*
X132593304Y-111042835D01*
X132563447Y-111026876D01*
X132546792Y-111013208D01*
X132533124Y-110996553D01*
X132522971Y-110977557D01*
X132516716Y-110956938D01*
X132514000Y-110929360D01*
X132514000Y-110420640D01*
X132516716Y-110393062D01*
X132522971Y-110372443D01*
X132533124Y-110353447D01*
X132546792Y-110336792D01*
X132568161Y-110319256D01*
X132585488Y-110301929D01*
X132599102Y-110281555D01*
X132608479Y-110258916D01*
X132613260Y-110234883D01*
X132613260Y-110210379D01*
X132608480Y-110186346D01*
X132599103Y-110163707D01*
X132585489Y-110143332D01*
X132568162Y-110126005D01*
X132547787Y-110112391D01*
X132530669Y-110103241D01*
X132509847Y-110086153D01*
X132492761Y-110065333D01*
X132480064Y-110041579D01*
X132472244Y-110015802D01*
X132469000Y-109982862D01*
X132469000Y-109219138D01*
X132472244Y-109186198D01*
X132480064Y-109160421D01*
X132492761Y-109136667D01*
X132509847Y-109115847D01*
X132530667Y-109098761D01*
X132554421Y-109086064D01*
X132580198Y-109078244D01*
X132613138Y-109075000D01*
X133126862Y-109075000D01*
X133159802Y-109078244D01*
X133159802Y-109078244D01*
G37*
G36*
X125840442Y-109595518D02*
G01*
X125906627Y-109602037D01*
X126076466Y-109653557D01*
X126232991Y-109737222D01*
X126237108Y-109740601D01*
X126370186Y-109849814D01*
X126438049Y-109932507D01*
X126482778Y-109987009D01*
X126482779Y-109987011D01*
X126557074Y-110126005D01*
X126566443Y-110143534D01*
X126617963Y-110313373D01*
X126635359Y-110490000D01*
X126617963Y-110666627D01*
X126566443Y-110836466D01*
X126482778Y-110992991D01*
X126466186Y-111013208D01*
X126370186Y-111130186D01*
X126280638Y-111203675D01*
X126232991Y-111242778D01*
X126076466Y-111326443D01*
X125906627Y-111377963D01*
X125840443Y-111384481D01*
X125774260Y-111391000D01*
X125685740Y-111391000D01*
X125619557Y-111384481D01*
X125553373Y-111377963D01*
X125383534Y-111326443D01*
X125227009Y-111242778D01*
X125179362Y-111203675D01*
X125089814Y-111130186D01*
X124993814Y-111013208D01*
X124977222Y-110992991D01*
X124893557Y-110836466D01*
X124842037Y-110666627D01*
X124824641Y-110490000D01*
X124842037Y-110313373D01*
X124893557Y-110143534D01*
X124902927Y-110126005D01*
X124977221Y-109987011D01*
X124977222Y-109987009D01*
X125021951Y-109932507D01*
X125089814Y-109849814D01*
X125222892Y-109740601D01*
X125227009Y-109737222D01*
X125383534Y-109653557D01*
X125553373Y-109602037D01*
X125619558Y-109595518D01*
X125685740Y-109589000D01*
X125774260Y-109589000D01*
X125840442Y-109595518D01*
X125840442Y-109595518D01*
G37*
G36*
X146160442Y-109595518D02*
G01*
X146226627Y-109602037D01*
X146396466Y-109653557D01*
X146552991Y-109737222D01*
X146557108Y-109740601D01*
X146690186Y-109849814D01*
X146758049Y-109932507D01*
X146802778Y-109987009D01*
X146802779Y-109987011D01*
X146877074Y-110126005D01*
X146886443Y-110143534D01*
X146937963Y-110313373D01*
X146955359Y-110490000D01*
X146937963Y-110666627D01*
X146886443Y-110836466D01*
X146802778Y-110992991D01*
X146786186Y-111013208D01*
X146690186Y-111130186D01*
X146600638Y-111203675D01*
X146552991Y-111242778D01*
X146396466Y-111326443D01*
X146226627Y-111377963D01*
X146160443Y-111384481D01*
X146094260Y-111391000D01*
X146005740Y-111391000D01*
X145939557Y-111384481D01*
X145873373Y-111377963D01*
X145703534Y-111326443D01*
X145547009Y-111242778D01*
X145499362Y-111203675D01*
X145409814Y-111130186D01*
X145313814Y-111013208D01*
X145297222Y-110992991D01*
X145213557Y-110836466D01*
X145162037Y-110666627D01*
X145144641Y-110490000D01*
X145162037Y-110313373D01*
X145213557Y-110143534D01*
X145222927Y-110126005D01*
X145297221Y-109987011D01*
X145297222Y-109987009D01*
X145341951Y-109932507D01*
X145409814Y-109849814D01*
X145542892Y-109740601D01*
X145547009Y-109737222D01*
X145703534Y-109653557D01*
X145873373Y-109602037D01*
X145939558Y-109595518D01*
X146005740Y-109589000D01*
X146094260Y-109589000D01*
X146160442Y-109595518D01*
X146160442Y-109595518D01*
G37*
G36*
X131959802Y-109078244D02*
G01*
X131985579Y-109086064D01*
X132009333Y-109098761D01*
X132030153Y-109115847D01*
X132047239Y-109136667D01*
X132059936Y-109160421D01*
X132067756Y-109186198D01*
X132071000Y-109219138D01*
X132071000Y-109982862D01*
X132067756Y-110015802D01*
X132059936Y-110041579D01*
X132047239Y-110065333D01*
X132026376Y-110090755D01*
X132017427Y-110099705D01*
X132003813Y-110120079D01*
X131994437Y-110142718D01*
X131989657Y-110166752D01*
X131989657Y-110191256D01*
X131994438Y-110215289D01*
X132003816Y-110237928D01*
X132017430Y-110258302D01*
X132034758Y-110275628D01*
X132055132Y-110289242D01*
X132077771Y-110298618D01*
X132114054Y-110304000D01*
X132119360Y-110304000D01*
X132146938Y-110306716D01*
X132167557Y-110312971D01*
X132186553Y-110323124D01*
X132203208Y-110336792D01*
X132216876Y-110353447D01*
X132227029Y-110372443D01*
X132233284Y-110393062D01*
X132236000Y-110420640D01*
X132236000Y-110929360D01*
X132233284Y-110956938D01*
X132227029Y-110977557D01*
X132216876Y-110996553D01*
X132203208Y-111013208D01*
X132186553Y-111026876D01*
X132167557Y-111037029D01*
X132146938Y-111043284D01*
X132119360Y-111046000D01*
X131660640Y-111046000D01*
X131633062Y-111043284D01*
X131612443Y-111037029D01*
X131593447Y-111026876D01*
X131576792Y-111013208D01*
X131563124Y-110996553D01*
X131552971Y-110977557D01*
X131546716Y-110956938D01*
X131544000Y-110929360D01*
X131544000Y-110420640D01*
X131546716Y-110393062D01*
X131552971Y-110372443D01*
X131563124Y-110353447D01*
X131581303Y-110331296D01*
X131594916Y-110310921D01*
X131604293Y-110288283D01*
X131609073Y-110264249D01*
X131609073Y-110239745D01*
X131604292Y-110215712D01*
X131594914Y-110193073D01*
X131581300Y-110172699D01*
X131563973Y-110155372D01*
X131543598Y-110141759D01*
X131520960Y-110132382D01*
X131484676Y-110127000D01*
X131413138Y-110127000D01*
X131380198Y-110123756D01*
X131354421Y-110115936D01*
X131330667Y-110103239D01*
X131309847Y-110086153D01*
X131292761Y-110065333D01*
X131280064Y-110041579D01*
X131272244Y-110015802D01*
X131269000Y-109982862D01*
X131269000Y-109219138D01*
X131272244Y-109186198D01*
X131280064Y-109160421D01*
X131292761Y-109136667D01*
X131309847Y-109115847D01*
X131330667Y-109098761D01*
X131354421Y-109086064D01*
X131380198Y-109078244D01*
X131413138Y-109075000D01*
X131926862Y-109075000D01*
X131959802Y-109078244D01*
X131959802Y-109078244D01*
G37*
G36*
X141559802Y-109078244D02*
G01*
X141585579Y-109086064D01*
X141609333Y-109098761D01*
X141630153Y-109115847D01*
X141647239Y-109136667D01*
X141659936Y-109160421D01*
X141667756Y-109186198D01*
X141671000Y-109219138D01*
X141671000Y-109982862D01*
X141667756Y-110015802D01*
X141659936Y-110041579D01*
X141647239Y-110065333D01*
X141630153Y-110086153D01*
X141609333Y-110103239D01*
X141585579Y-110115936D01*
X141559802Y-110123756D01*
X141526862Y-110127000D01*
X141013138Y-110127000D01*
X140980198Y-110123756D01*
X140954421Y-110115936D01*
X140930667Y-110103239D01*
X140909847Y-110086153D01*
X140892761Y-110065333D01*
X140880064Y-110041579D01*
X140872244Y-110015802D01*
X140869000Y-109982862D01*
X140869000Y-109219138D01*
X140872244Y-109186198D01*
X140880064Y-109160421D01*
X140892761Y-109136667D01*
X140909847Y-109115847D01*
X140930667Y-109098761D01*
X140954421Y-109086064D01*
X140980198Y-109078244D01*
X141013138Y-109075000D01*
X141526862Y-109075000D01*
X141559802Y-109078244D01*
X141559802Y-109078244D01*
G37*
G36*
X140359802Y-109078244D02*
G01*
X140385579Y-109086064D01*
X140409333Y-109098761D01*
X140430153Y-109115847D01*
X140447239Y-109136667D01*
X140459936Y-109160421D01*
X140467756Y-109186198D01*
X140471000Y-109219138D01*
X140471000Y-109982862D01*
X140467756Y-110015802D01*
X140459936Y-110041579D01*
X140447239Y-110065333D01*
X140430153Y-110086153D01*
X140409333Y-110103239D01*
X140385579Y-110115936D01*
X140359802Y-110123756D01*
X140326862Y-110127000D01*
X139813138Y-110127000D01*
X139780198Y-110123756D01*
X139754421Y-110115936D01*
X139730667Y-110103239D01*
X139709847Y-110086153D01*
X139692761Y-110065333D01*
X139680064Y-110041579D01*
X139672244Y-110015802D01*
X139669000Y-109982862D01*
X139669000Y-109219138D01*
X139672244Y-109186198D01*
X139680064Y-109160421D01*
X139692761Y-109136667D01*
X139709847Y-109115847D01*
X139730667Y-109098761D01*
X139754421Y-109086064D01*
X139780198Y-109078244D01*
X139813138Y-109075000D01*
X140326862Y-109075000D01*
X140359802Y-109078244D01*
X140359802Y-109078244D01*
G37*
G36*
X139159802Y-109078244D02*
G01*
X139185579Y-109086064D01*
X139209333Y-109098761D01*
X139230153Y-109115847D01*
X139247239Y-109136667D01*
X139259936Y-109160421D01*
X139267756Y-109186198D01*
X139271000Y-109219138D01*
X139271000Y-109982862D01*
X139267756Y-110015802D01*
X139259936Y-110041579D01*
X139247239Y-110065333D01*
X139230153Y-110086153D01*
X139209333Y-110103239D01*
X139185579Y-110115936D01*
X139159802Y-110123756D01*
X139126862Y-110127000D01*
X138613138Y-110127000D01*
X138580198Y-110123756D01*
X138554421Y-110115936D01*
X138530667Y-110103239D01*
X138509847Y-110086153D01*
X138492761Y-110065333D01*
X138480064Y-110041579D01*
X138472244Y-110015802D01*
X138469000Y-109982862D01*
X138469000Y-109219138D01*
X138472244Y-109186198D01*
X138480064Y-109160421D01*
X138492761Y-109136667D01*
X138509847Y-109115847D01*
X138530667Y-109098761D01*
X138554421Y-109086064D01*
X138580198Y-109078244D01*
X138613138Y-109075000D01*
X139126862Y-109075000D01*
X139159802Y-109078244D01*
X139159802Y-109078244D01*
G37*
G36*
X136759802Y-109078244D02*
G01*
X136785579Y-109086064D01*
X136809333Y-109098761D01*
X136830153Y-109115847D01*
X136847239Y-109136667D01*
X136859936Y-109160421D01*
X136867756Y-109186198D01*
X136871000Y-109219138D01*
X136871000Y-109982862D01*
X136867756Y-110015802D01*
X136859936Y-110041579D01*
X136847239Y-110065333D01*
X136830153Y-110086153D01*
X136809333Y-110103239D01*
X136785579Y-110115936D01*
X136759802Y-110123756D01*
X136726862Y-110127000D01*
X136213138Y-110127000D01*
X136180198Y-110123756D01*
X136154421Y-110115936D01*
X136130667Y-110103239D01*
X136109847Y-110086153D01*
X136092761Y-110065333D01*
X136080064Y-110041579D01*
X136072244Y-110015802D01*
X136069000Y-109982862D01*
X136069000Y-109219138D01*
X136072244Y-109186198D01*
X136080064Y-109160421D01*
X136092761Y-109136667D01*
X136109847Y-109115847D01*
X136130667Y-109098761D01*
X136154421Y-109086064D01*
X136180198Y-109078244D01*
X136213138Y-109075000D01*
X136726862Y-109075000D01*
X136759802Y-109078244D01*
X136759802Y-109078244D01*
G37*
G36*
X135559802Y-109078244D02*
G01*
X135585579Y-109086064D01*
X135609333Y-109098761D01*
X135630153Y-109115847D01*
X135647239Y-109136667D01*
X135659936Y-109160421D01*
X135667756Y-109186198D01*
X135671000Y-109219138D01*
X135671000Y-109982862D01*
X135667756Y-110015802D01*
X135659936Y-110041579D01*
X135647239Y-110065333D01*
X135630153Y-110086153D01*
X135609333Y-110103239D01*
X135585579Y-110115936D01*
X135559802Y-110123756D01*
X135526862Y-110127000D01*
X135013138Y-110127000D01*
X134980198Y-110123756D01*
X134954421Y-110115936D01*
X134930667Y-110103239D01*
X134909847Y-110086153D01*
X134892761Y-110065333D01*
X134880064Y-110041579D01*
X134872244Y-110015802D01*
X134869000Y-109982862D01*
X134869000Y-109219138D01*
X134872244Y-109186198D01*
X134880064Y-109160421D01*
X134892761Y-109136667D01*
X134909847Y-109115847D01*
X134930667Y-109098761D01*
X134954421Y-109086064D01*
X134980198Y-109078244D01*
X135013138Y-109075000D01*
X135526862Y-109075000D01*
X135559802Y-109078244D01*
X135559802Y-109078244D01*
G37*
G36*
X134359802Y-109078244D02*
G01*
X134385579Y-109086064D01*
X134409333Y-109098761D01*
X134430153Y-109115847D01*
X134447239Y-109136667D01*
X134459936Y-109160421D01*
X134467756Y-109186198D01*
X134471000Y-109219138D01*
X134471000Y-109982862D01*
X134467756Y-110015802D01*
X134459936Y-110041579D01*
X134447239Y-110065333D01*
X134430153Y-110086153D01*
X134409333Y-110103239D01*
X134385579Y-110115936D01*
X134359802Y-110123756D01*
X134326862Y-110127000D01*
X133813138Y-110127000D01*
X133780198Y-110123756D01*
X133754421Y-110115936D01*
X133730667Y-110103239D01*
X133709847Y-110086153D01*
X133692761Y-110065333D01*
X133680064Y-110041579D01*
X133672244Y-110015802D01*
X133669000Y-109982862D01*
X133669000Y-109219138D01*
X133672244Y-109186198D01*
X133680064Y-109160421D01*
X133692761Y-109136667D01*
X133709847Y-109115847D01*
X133730667Y-109098761D01*
X133754421Y-109086064D01*
X133780198Y-109078244D01*
X133813138Y-109075000D01*
X134326862Y-109075000D01*
X134359802Y-109078244D01*
X134359802Y-109078244D01*
G37*
G36*
X137959802Y-109078244D02*
G01*
X137985579Y-109086064D01*
X138009333Y-109098761D01*
X138030153Y-109115847D01*
X138047239Y-109136667D01*
X138059936Y-109160421D01*
X138067756Y-109186198D01*
X138071000Y-109219138D01*
X138071000Y-109982862D01*
X138067756Y-110015802D01*
X138059936Y-110041579D01*
X138047239Y-110065333D01*
X138030153Y-110086153D01*
X138009333Y-110103239D01*
X137985579Y-110115936D01*
X137959802Y-110123756D01*
X137926862Y-110127000D01*
X137413138Y-110127000D01*
X137380198Y-110123756D01*
X137354421Y-110115936D01*
X137330667Y-110103239D01*
X137309847Y-110086153D01*
X137292761Y-110065333D01*
X137280064Y-110041579D01*
X137272244Y-110015802D01*
X137269000Y-109982862D01*
X137269000Y-109219138D01*
X137272244Y-109186198D01*
X137280064Y-109160421D01*
X137292761Y-109136667D01*
X137309847Y-109115847D01*
X137330667Y-109098761D01*
X137354421Y-109086064D01*
X137380198Y-109078244D01*
X137413138Y-109075000D01*
X137926862Y-109075000D01*
X137959802Y-109078244D01*
X137959802Y-109078244D01*
G37*
G36*
X144651591Y-108964285D02*
G01*
X144685569Y-108974593D01*
X144716890Y-108991334D01*
X144744339Y-109013861D01*
X144766866Y-109041310D01*
X144783607Y-109072631D01*
X144793915Y-109106609D01*
X144798000Y-109148090D01*
X144798000Y-109749310D01*
X144793915Y-109790791D01*
X144783607Y-109824769D01*
X144766866Y-109856090D01*
X144744339Y-109883539D01*
X144716890Y-109906066D01*
X144685569Y-109922807D01*
X144651591Y-109933115D01*
X144610110Y-109937200D01*
X143933890Y-109937200D01*
X143892409Y-109933115D01*
X143858431Y-109922807D01*
X143827110Y-109906066D01*
X143799661Y-109883539D01*
X143777134Y-109856090D01*
X143760393Y-109824769D01*
X143750085Y-109790791D01*
X143746000Y-109749310D01*
X143746000Y-109148090D01*
X143750085Y-109106609D01*
X143760393Y-109072631D01*
X143777134Y-109041310D01*
X143799661Y-109013861D01*
X143827110Y-108991334D01*
X143858431Y-108974593D01*
X143892409Y-108964285D01*
X143933890Y-108960200D01*
X144610110Y-108960200D01*
X144651591Y-108964285D01*
X144651591Y-108964285D01*
G37*
G36*
X130981000Y-109512000D02*
G01*
X129379000Y-109512000D01*
X129379000Y-107910000D01*
X130981000Y-107910000D01*
X130981000Y-109512000D01*
X130981000Y-109512000D01*
G37*
G36*
X146160442Y-107055518D02*
G01*
X146226627Y-107062037D01*
X146396466Y-107113557D01*
X146552991Y-107197222D01*
X146588729Y-107226552D01*
X146690186Y-107309814D01*
X146773448Y-107411271D01*
X146802778Y-107447009D01*
X146886443Y-107603534D01*
X146937963Y-107773373D01*
X146955359Y-107950000D01*
X146937963Y-108126627D01*
X146886443Y-108296466D01*
X146802778Y-108452991D01*
X146773448Y-108488729D01*
X146690186Y-108590186D01*
X146588729Y-108673448D01*
X146552991Y-108702778D01*
X146396466Y-108786443D01*
X146226627Y-108837963D01*
X146160442Y-108844482D01*
X146094260Y-108851000D01*
X146005740Y-108851000D01*
X145939558Y-108844482D01*
X145873373Y-108837963D01*
X145703534Y-108786443D01*
X145547009Y-108702778D01*
X145511271Y-108673448D01*
X145409814Y-108590186D01*
X145326552Y-108488729D01*
X145297222Y-108452991D01*
X145213557Y-108296466D01*
X145162037Y-108126627D01*
X145144641Y-107950000D01*
X145162037Y-107773373D01*
X145213557Y-107603534D01*
X145297222Y-107447009D01*
X145326552Y-107411271D01*
X145409814Y-107309814D01*
X145511271Y-107226552D01*
X145547009Y-107197222D01*
X145703534Y-107113557D01*
X145873373Y-107062037D01*
X145939558Y-107055518D01*
X146005740Y-107049000D01*
X146094260Y-107049000D01*
X146160442Y-107055518D01*
X146160442Y-107055518D01*
G37*
G36*
X125840442Y-107055518D02*
G01*
X125906627Y-107062037D01*
X126076466Y-107113557D01*
X126232991Y-107197222D01*
X126268729Y-107226552D01*
X126370186Y-107309814D01*
X126453448Y-107411271D01*
X126482778Y-107447009D01*
X126566443Y-107603534D01*
X126617963Y-107773373D01*
X126635359Y-107950000D01*
X126617963Y-108126627D01*
X126566443Y-108296466D01*
X126482778Y-108452991D01*
X126453448Y-108488729D01*
X126370186Y-108590186D01*
X126268729Y-108673448D01*
X126232991Y-108702778D01*
X126076466Y-108786443D01*
X125906627Y-108837963D01*
X125840442Y-108844482D01*
X125774260Y-108851000D01*
X125685740Y-108851000D01*
X125619558Y-108844482D01*
X125553373Y-108837963D01*
X125383534Y-108786443D01*
X125227009Y-108702778D01*
X125191271Y-108673448D01*
X125089814Y-108590186D01*
X125006552Y-108488729D01*
X124977222Y-108452991D01*
X124893557Y-108296466D01*
X124842037Y-108126627D01*
X124824641Y-107950000D01*
X124842037Y-107773373D01*
X124893557Y-107603534D01*
X124977222Y-107447009D01*
X125006552Y-107411271D01*
X125089814Y-107309814D01*
X125191271Y-107226552D01*
X125227009Y-107197222D01*
X125383534Y-107113557D01*
X125553373Y-107062037D01*
X125619558Y-107055518D01*
X125685740Y-107049000D01*
X125774260Y-107049000D01*
X125840442Y-107055518D01*
X125840442Y-107055518D01*
G37*
G36*
X143171000Y-108752000D02*
G01*
X141569000Y-108752000D01*
X141569000Y-107150000D01*
X143171000Y-107150000D01*
X143171000Y-108752000D01*
X143171000Y-108752000D01*
G37*
G36*
X144651591Y-107389285D02*
G01*
X144685569Y-107399593D01*
X144716890Y-107416334D01*
X144744339Y-107438861D01*
X144766866Y-107466310D01*
X144783607Y-107497631D01*
X144793915Y-107531609D01*
X144798000Y-107573090D01*
X144798000Y-108174310D01*
X144793915Y-108215791D01*
X144783607Y-108249769D01*
X144766866Y-108281090D01*
X144744339Y-108308539D01*
X144716890Y-108331066D01*
X144685569Y-108347807D01*
X144651591Y-108358115D01*
X144610110Y-108362200D01*
X143933890Y-108362200D01*
X143892409Y-108358115D01*
X143858431Y-108347807D01*
X143827110Y-108331066D01*
X143799661Y-108308539D01*
X143777134Y-108281090D01*
X143760393Y-108249769D01*
X143750085Y-108215791D01*
X143746000Y-108174310D01*
X143746000Y-107573090D01*
X143750085Y-107531609D01*
X143760393Y-107497631D01*
X143777134Y-107466310D01*
X143799661Y-107438861D01*
X143827110Y-107416334D01*
X143858431Y-107399593D01*
X143892409Y-107389285D01*
X143933890Y-107385200D01*
X144610110Y-107385200D01*
X144651591Y-107389285D01*
X144651591Y-107389285D01*
G37*
G36*
X128804802Y-107243244D02*
G01*
X128830579Y-107251064D01*
X128854333Y-107263761D01*
X128875153Y-107280847D01*
X128892239Y-107301667D01*
X128904936Y-107325421D01*
X128912756Y-107351198D01*
X128916000Y-107384138D01*
X128916000Y-107897862D01*
X128912756Y-107930802D01*
X128904936Y-107956579D01*
X128892239Y-107980333D01*
X128875153Y-108001153D01*
X128854333Y-108018239D01*
X128830579Y-108030936D01*
X128804802Y-108038756D01*
X128771862Y-108042000D01*
X128008138Y-108042000D01*
X127975198Y-108038756D01*
X127949421Y-108030936D01*
X127925667Y-108018239D01*
X127904847Y-108001153D01*
X127887761Y-107980333D01*
X127875064Y-107956579D01*
X127867244Y-107930802D01*
X127864000Y-107897862D01*
X127864000Y-107384138D01*
X127867244Y-107351198D01*
X127875064Y-107325421D01*
X127887761Y-107301667D01*
X127904847Y-107280847D01*
X127925667Y-107263761D01*
X127949421Y-107251064D01*
X127975198Y-107243244D01*
X128008138Y-107240000D01*
X128771862Y-107240000D01*
X128804802Y-107243244D01*
X128804802Y-107243244D01*
G37*
G36*
X128804802Y-106043244D02*
G01*
X128830579Y-106051064D01*
X128854333Y-106063761D01*
X128875153Y-106080847D01*
X128892239Y-106101667D01*
X128904936Y-106125421D01*
X128912756Y-106151198D01*
X128916000Y-106184138D01*
X128916000Y-106697862D01*
X128912756Y-106730802D01*
X128904936Y-106756579D01*
X128892239Y-106780333D01*
X128875153Y-106801153D01*
X128854333Y-106818239D01*
X128830579Y-106830936D01*
X128804802Y-106838756D01*
X128771862Y-106842000D01*
X128008138Y-106842000D01*
X127975198Y-106838756D01*
X127949421Y-106830936D01*
X127925667Y-106818239D01*
X127904847Y-106801153D01*
X127887761Y-106780333D01*
X127875064Y-106756579D01*
X127867244Y-106730802D01*
X127864000Y-106697862D01*
X127864000Y-106184138D01*
X127867244Y-106151198D01*
X127875064Y-106125421D01*
X127887761Y-106101667D01*
X127904847Y-106080847D01*
X127925667Y-106063761D01*
X127949421Y-106051064D01*
X127975198Y-106043244D01*
X128008138Y-106040000D01*
X128771862Y-106040000D01*
X128804802Y-106043244D01*
X128804802Y-106043244D01*
G37*
G36*
X143804802Y-105903244D02*
G01*
X143830579Y-105911064D01*
X143854333Y-105923761D01*
X143875153Y-105940847D01*
X143892239Y-105961667D01*
X143904936Y-105985421D01*
X143912756Y-106011198D01*
X143916000Y-106044138D01*
X143916000Y-106557862D01*
X143912756Y-106590802D01*
X143904936Y-106616579D01*
X143892239Y-106640333D01*
X143875153Y-106661153D01*
X143854333Y-106678239D01*
X143830579Y-106690936D01*
X143804802Y-106698756D01*
X143771862Y-106702000D01*
X143008138Y-106702000D01*
X142975198Y-106698756D01*
X142949421Y-106690936D01*
X142925667Y-106678239D01*
X142904847Y-106661153D01*
X142887761Y-106640333D01*
X142875064Y-106616579D01*
X142867244Y-106590802D01*
X142864000Y-106557862D01*
X142864000Y-106044138D01*
X142867244Y-106011198D01*
X142875064Y-105985421D01*
X142887761Y-105961667D01*
X142904847Y-105940847D01*
X142925667Y-105923761D01*
X142949421Y-105911064D01*
X142975198Y-105903244D01*
X143008138Y-105900000D01*
X143771862Y-105900000D01*
X143804802Y-105903244D01*
X143804802Y-105903244D01*
G37*
G36*
X146160443Y-104515519D02*
G01*
X146226627Y-104522037D01*
X146396466Y-104573557D01*
X146552991Y-104657222D01*
X146588729Y-104686552D01*
X146690186Y-104769814D01*
X146750947Y-104843853D01*
X146802778Y-104907009D01*
X146886443Y-105063534D01*
X146937963Y-105233373D01*
X146955359Y-105410000D01*
X146937963Y-105586627D01*
X146886443Y-105756466D01*
X146802778Y-105912991D01*
X146779917Y-105940847D01*
X146690186Y-106050186D01*
X146594018Y-106129108D01*
X146552991Y-106162778D01*
X146480765Y-106201384D01*
X146407585Y-106240500D01*
X146396466Y-106246443D01*
X146226627Y-106297963D01*
X146160442Y-106304482D01*
X146094260Y-106311000D01*
X146005740Y-106311000D01*
X145939558Y-106304482D01*
X145873373Y-106297963D01*
X145703534Y-106246443D01*
X145692416Y-106240500D01*
X145619235Y-106201384D01*
X145547009Y-106162778D01*
X145505982Y-106129108D01*
X145409814Y-106050186D01*
X145320083Y-105940847D01*
X145297222Y-105912991D01*
X145213557Y-105756466D01*
X145162037Y-105586627D01*
X145144641Y-105410000D01*
X145162037Y-105233373D01*
X145213557Y-105063534D01*
X145297222Y-104907009D01*
X145349053Y-104843853D01*
X145409814Y-104769814D01*
X145511271Y-104686552D01*
X145547009Y-104657222D01*
X145703534Y-104573557D01*
X145873373Y-104522037D01*
X145939557Y-104515519D01*
X146005740Y-104509000D01*
X146094260Y-104509000D01*
X146160443Y-104515519D01*
X146160443Y-104515519D01*
G37*
G36*
X125840443Y-104515519D02*
G01*
X125906627Y-104522037D01*
X126076466Y-104573557D01*
X126232991Y-104657222D01*
X126268729Y-104686552D01*
X126370186Y-104769814D01*
X126430947Y-104843853D01*
X126482778Y-104907009D01*
X126566443Y-105063534D01*
X126617963Y-105233373D01*
X126635359Y-105410000D01*
X126617963Y-105586627D01*
X126566443Y-105756466D01*
X126482778Y-105912991D01*
X126459917Y-105940847D01*
X126370186Y-106050186D01*
X126274018Y-106129108D01*
X126232991Y-106162778D01*
X126160765Y-106201384D01*
X126087585Y-106240500D01*
X126076466Y-106246443D01*
X125906627Y-106297963D01*
X125840442Y-106304482D01*
X125774260Y-106311000D01*
X125685740Y-106311000D01*
X125619558Y-106304482D01*
X125553373Y-106297963D01*
X125383534Y-106246443D01*
X125372416Y-106240500D01*
X125299235Y-106201384D01*
X125227009Y-106162778D01*
X125185982Y-106129108D01*
X125089814Y-106050186D01*
X125000083Y-105940847D01*
X124977222Y-105912991D01*
X124893557Y-105756466D01*
X124842037Y-105586627D01*
X124824641Y-105410000D01*
X124842037Y-105233373D01*
X124893557Y-105063534D01*
X124977222Y-104907009D01*
X125029053Y-104843853D01*
X125089814Y-104769814D01*
X125191271Y-104686552D01*
X125227009Y-104657222D01*
X125383534Y-104573557D01*
X125553373Y-104522037D01*
X125619557Y-104515519D01*
X125685740Y-104509000D01*
X125774260Y-104509000D01*
X125840443Y-104515519D01*
X125840443Y-104515519D01*
G37*
G36*
X128804802Y-104843244D02*
G01*
X128830579Y-104851064D01*
X128854333Y-104863761D01*
X128875153Y-104880847D01*
X128892239Y-104901667D01*
X128904936Y-104925421D01*
X128912756Y-104951198D01*
X128916000Y-104984138D01*
X128916000Y-105497862D01*
X128912756Y-105530802D01*
X128904936Y-105556579D01*
X128892239Y-105580333D01*
X128875153Y-105601153D01*
X128854333Y-105618239D01*
X128830579Y-105630936D01*
X128804802Y-105638756D01*
X128771862Y-105642000D01*
X128008138Y-105642000D01*
X127975198Y-105638756D01*
X127949421Y-105630936D01*
X127925667Y-105618239D01*
X127904847Y-105601153D01*
X127887761Y-105580333D01*
X127875064Y-105556579D01*
X127867244Y-105530802D01*
X127864000Y-105497862D01*
X127864000Y-104984138D01*
X127867244Y-104951198D01*
X127875064Y-104925421D01*
X127887761Y-104901667D01*
X127904847Y-104880847D01*
X127925667Y-104863761D01*
X127949421Y-104851064D01*
X127975198Y-104843244D01*
X128008138Y-104840000D01*
X128771862Y-104840000D01*
X128804802Y-104843244D01*
X128804802Y-104843244D01*
G37*
G36*
X143804802Y-104703244D02*
G01*
X143830579Y-104711064D01*
X143854333Y-104723761D01*
X143875153Y-104740847D01*
X143892239Y-104761667D01*
X143904936Y-104785421D01*
X143912756Y-104811198D01*
X143916000Y-104844138D01*
X143916000Y-105357862D01*
X143912756Y-105390802D01*
X143904936Y-105416579D01*
X143892239Y-105440333D01*
X143875153Y-105461153D01*
X143854333Y-105478239D01*
X143830579Y-105490936D01*
X143804802Y-105498756D01*
X143771862Y-105502000D01*
X143008138Y-105502000D01*
X142975198Y-105498756D01*
X142949421Y-105490936D01*
X142925667Y-105478239D01*
X142904847Y-105461153D01*
X142887761Y-105440333D01*
X142875064Y-105416579D01*
X142867244Y-105390802D01*
X142864000Y-105357862D01*
X142864000Y-104844138D01*
X142867244Y-104811198D01*
X142875064Y-104785421D01*
X142887761Y-104761667D01*
X142904847Y-104740847D01*
X142925667Y-104723761D01*
X142949421Y-104711064D01*
X142975198Y-104703244D01*
X143008138Y-104700000D01*
X143771862Y-104700000D01*
X143804802Y-104703244D01*
X143804802Y-104703244D01*
G37*
G36*
X128804802Y-103643244D02*
G01*
X128830579Y-103651064D01*
X128854333Y-103663761D01*
X128875153Y-103680847D01*
X128892239Y-103701667D01*
X128904936Y-103725421D01*
X128912756Y-103751198D01*
X128916000Y-103784138D01*
X128916000Y-104297862D01*
X128912756Y-104330802D01*
X128904936Y-104356579D01*
X128892239Y-104380333D01*
X128875153Y-104401153D01*
X128854333Y-104418239D01*
X128830579Y-104430936D01*
X128804802Y-104438756D01*
X128771862Y-104442000D01*
X128008138Y-104442000D01*
X127975198Y-104438756D01*
X127949421Y-104430936D01*
X127925667Y-104418239D01*
X127904847Y-104401153D01*
X127887761Y-104380333D01*
X127875064Y-104356579D01*
X127867244Y-104330802D01*
X127864000Y-104297862D01*
X127864000Y-103784138D01*
X127867244Y-103751198D01*
X127875064Y-103725421D01*
X127887761Y-103701667D01*
X127904847Y-103680847D01*
X127925667Y-103663761D01*
X127949421Y-103651064D01*
X127975198Y-103643244D01*
X128008138Y-103640000D01*
X128771862Y-103640000D01*
X128804802Y-103643244D01*
X128804802Y-103643244D01*
G37*
G36*
X143804802Y-103503244D02*
G01*
X143830579Y-103511064D01*
X143854333Y-103523761D01*
X143875153Y-103540847D01*
X143892239Y-103561667D01*
X143904936Y-103585421D01*
X143912756Y-103611198D01*
X143916000Y-103644138D01*
X143916000Y-104157862D01*
X143912756Y-104190802D01*
X143904936Y-104216579D01*
X143892239Y-104240333D01*
X143875153Y-104261153D01*
X143854333Y-104278239D01*
X143830579Y-104290936D01*
X143804802Y-104298756D01*
X143771862Y-104302000D01*
X143008138Y-104302000D01*
X142975198Y-104298756D01*
X142949421Y-104290936D01*
X142925667Y-104278239D01*
X142904847Y-104261153D01*
X142887761Y-104240333D01*
X142875064Y-104216579D01*
X142867244Y-104190802D01*
X142864000Y-104157862D01*
X142864000Y-103644138D01*
X142867244Y-103611198D01*
X142875064Y-103585421D01*
X142887761Y-103561667D01*
X142904847Y-103540847D01*
X142925667Y-103523761D01*
X142949421Y-103511064D01*
X142975198Y-103503244D01*
X143008138Y-103500000D01*
X143771862Y-103500000D01*
X143804802Y-103503244D01*
X143804802Y-103503244D01*
G37*
G36*
X146160442Y-101975518D02*
G01*
X146226627Y-101982037D01*
X146396466Y-102033557D01*
X146552991Y-102117222D01*
X146572216Y-102133000D01*
X146690186Y-102229814D01*
X146750480Y-102303284D01*
X146802778Y-102367009D01*
X146886443Y-102523534D01*
X146937963Y-102693373D01*
X146955359Y-102870000D01*
X146937963Y-103046627D01*
X146896511Y-103183275D01*
X146886442Y-103216468D01*
X146878709Y-103230936D01*
X146802778Y-103372991D01*
X146773448Y-103408729D01*
X146690186Y-103510186D01*
X146594018Y-103589108D01*
X146552991Y-103622778D01*
X146500072Y-103651064D01*
X146407585Y-103700500D01*
X146396466Y-103706443D01*
X146226627Y-103757963D01*
X146167646Y-103763772D01*
X146094260Y-103771000D01*
X146005740Y-103771000D01*
X145932354Y-103763772D01*
X145873373Y-103757963D01*
X145703534Y-103706443D01*
X145692416Y-103700500D01*
X145599928Y-103651064D01*
X145547009Y-103622778D01*
X145505982Y-103589108D01*
X145409814Y-103510186D01*
X145326552Y-103408729D01*
X145297222Y-103372991D01*
X145221291Y-103230936D01*
X145213558Y-103216468D01*
X145203489Y-103183275D01*
X145162037Y-103046627D01*
X145144641Y-102870000D01*
X145162037Y-102693373D01*
X145213557Y-102523534D01*
X145297222Y-102367009D01*
X145349520Y-102303284D01*
X145409814Y-102229814D01*
X145527784Y-102133000D01*
X145547009Y-102117222D01*
X145703534Y-102033557D01*
X145873373Y-101982037D01*
X145939558Y-101975518D01*
X146005740Y-101969000D01*
X146094260Y-101969000D01*
X146160442Y-101975518D01*
X146160442Y-101975518D01*
G37*
G36*
X125840442Y-101975518D02*
G01*
X125906627Y-101982037D01*
X126076466Y-102033557D01*
X126232991Y-102117222D01*
X126252216Y-102133000D01*
X126370186Y-102229814D01*
X126430480Y-102303284D01*
X126482778Y-102367009D01*
X126566443Y-102523534D01*
X126617963Y-102693373D01*
X126635359Y-102870000D01*
X126617963Y-103046627D01*
X126576511Y-103183275D01*
X126566442Y-103216468D01*
X126558709Y-103230936D01*
X126482778Y-103372991D01*
X126453448Y-103408729D01*
X126370186Y-103510186D01*
X126274018Y-103589108D01*
X126232991Y-103622778D01*
X126180072Y-103651064D01*
X126087585Y-103700500D01*
X126076466Y-103706443D01*
X125906627Y-103757963D01*
X125847646Y-103763772D01*
X125774260Y-103771000D01*
X125685740Y-103771000D01*
X125612354Y-103763772D01*
X125553373Y-103757963D01*
X125383534Y-103706443D01*
X125372416Y-103700500D01*
X125279928Y-103651064D01*
X125227009Y-103622778D01*
X125185982Y-103589108D01*
X125089814Y-103510186D01*
X125006552Y-103408729D01*
X124977222Y-103372991D01*
X124901291Y-103230936D01*
X124893558Y-103216468D01*
X124883489Y-103183275D01*
X124842037Y-103046627D01*
X124824641Y-102870000D01*
X124842037Y-102693373D01*
X124893557Y-102523534D01*
X124977222Y-102367009D01*
X125029520Y-102303284D01*
X125089814Y-102229814D01*
X125207784Y-102133000D01*
X125227009Y-102117222D01*
X125383534Y-102033557D01*
X125553373Y-101982037D01*
X125619558Y-101975518D01*
X125685740Y-101969000D01*
X125774260Y-101969000D01*
X125840442Y-101975518D01*
X125840442Y-101975518D01*
G37*
G36*
X128804802Y-102443244D02*
G01*
X128830579Y-102451064D01*
X128854333Y-102463761D01*
X128875153Y-102480847D01*
X128892239Y-102501667D01*
X128904936Y-102525421D01*
X128912756Y-102551198D01*
X128916000Y-102584138D01*
X128916000Y-103097862D01*
X128912756Y-103130802D01*
X128904936Y-103156579D01*
X128892239Y-103180333D01*
X128875153Y-103201153D01*
X128854333Y-103218239D01*
X128830579Y-103230936D01*
X128804802Y-103238756D01*
X128771862Y-103242000D01*
X128008138Y-103242000D01*
X127975198Y-103238756D01*
X127949421Y-103230936D01*
X127925667Y-103218239D01*
X127904847Y-103201153D01*
X127887761Y-103180333D01*
X127875064Y-103156579D01*
X127867244Y-103130802D01*
X127864000Y-103097862D01*
X127864000Y-102584138D01*
X127867244Y-102551198D01*
X127875064Y-102525421D01*
X127887761Y-102501667D01*
X127904847Y-102480847D01*
X127925667Y-102463761D01*
X127949421Y-102451064D01*
X127975198Y-102443244D01*
X128008138Y-102440000D01*
X128771862Y-102440000D01*
X128804802Y-102443244D01*
X128804802Y-102443244D01*
G37*
G36*
X143804802Y-102303244D02*
G01*
X143830579Y-102311064D01*
X143854333Y-102323761D01*
X143875153Y-102340847D01*
X143892239Y-102361667D01*
X143904936Y-102385421D01*
X143912756Y-102411198D01*
X143916000Y-102444138D01*
X143916000Y-102957862D01*
X143912756Y-102990802D01*
X143904936Y-103016579D01*
X143892239Y-103040333D01*
X143875153Y-103061153D01*
X143854333Y-103078239D01*
X143830579Y-103090936D01*
X143804802Y-103098756D01*
X143771862Y-103102000D01*
X143008138Y-103102000D01*
X142975198Y-103098756D01*
X142949421Y-103090936D01*
X142925667Y-103078239D01*
X142904847Y-103061153D01*
X142887761Y-103040333D01*
X142875064Y-103016579D01*
X142867244Y-102990802D01*
X142864000Y-102957862D01*
X142864000Y-102444138D01*
X142867244Y-102411198D01*
X142875064Y-102385421D01*
X142887761Y-102361667D01*
X142904847Y-102340847D01*
X142925667Y-102323761D01*
X142949421Y-102311064D01*
X142975198Y-102303244D01*
X143008138Y-102300000D01*
X143771862Y-102300000D01*
X143804802Y-102303244D01*
X143804802Y-102303244D01*
G37*
G36*
X144931938Y-101616716D02*
G01*
X144952557Y-101622971D01*
X144971553Y-101633124D01*
X144988208Y-101646792D01*
X145001876Y-101663447D01*
X145012029Y-101682443D01*
X145018284Y-101703062D01*
X145021000Y-101730640D01*
X145021000Y-102189360D01*
X145018284Y-102216938D01*
X145012029Y-102237557D01*
X145001876Y-102256553D01*
X144988208Y-102273208D01*
X144971553Y-102286876D01*
X144952557Y-102297029D01*
X144931938Y-102303284D01*
X144904360Y-102306000D01*
X144395640Y-102306000D01*
X144368062Y-102303284D01*
X144347443Y-102297029D01*
X144328447Y-102286876D01*
X144311792Y-102273208D01*
X144298124Y-102256553D01*
X144287971Y-102237557D01*
X144281716Y-102216938D01*
X144279000Y-102189360D01*
X144279000Y-101730640D01*
X144281716Y-101703062D01*
X144287971Y-101682443D01*
X144298124Y-101663447D01*
X144311792Y-101646792D01*
X144328447Y-101633124D01*
X144347443Y-101622971D01*
X144368062Y-101616716D01*
X144395640Y-101614000D01*
X144904360Y-101614000D01*
X144931938Y-101616716D01*
X144931938Y-101616716D01*
G37*
G36*
X128804802Y-101243244D02*
G01*
X128830579Y-101251064D01*
X128854333Y-101263761D01*
X128875153Y-101280847D01*
X128892239Y-101301667D01*
X128904936Y-101325421D01*
X128912756Y-101351198D01*
X128916000Y-101384138D01*
X128916000Y-101897862D01*
X128912756Y-101930802D01*
X128904936Y-101956579D01*
X128892239Y-101980333D01*
X128875153Y-102001153D01*
X128854333Y-102018239D01*
X128830579Y-102030936D01*
X128804802Y-102038756D01*
X128771862Y-102042000D01*
X128008138Y-102042000D01*
X127975198Y-102038756D01*
X127949421Y-102030936D01*
X127925667Y-102018239D01*
X127904847Y-102001153D01*
X127887761Y-101980333D01*
X127875064Y-101956579D01*
X127867244Y-101930802D01*
X127864000Y-101897862D01*
X127864000Y-101384138D01*
X127867244Y-101351198D01*
X127875064Y-101325421D01*
X127887761Y-101301667D01*
X127904847Y-101280847D01*
X127925667Y-101263761D01*
X127949421Y-101251064D01*
X127975198Y-101243244D01*
X128008138Y-101240000D01*
X128771862Y-101240000D01*
X128804802Y-101243244D01*
X128804802Y-101243244D01*
G37*
G36*
X143804802Y-101103244D02*
G01*
X143830579Y-101111064D01*
X143854333Y-101123761D01*
X143875153Y-101140847D01*
X143892239Y-101161667D01*
X143904936Y-101185421D01*
X143912756Y-101211198D01*
X143916000Y-101244138D01*
X143916000Y-101757862D01*
X143912756Y-101790802D01*
X143904936Y-101816579D01*
X143892239Y-101840333D01*
X143875153Y-101861153D01*
X143854333Y-101878239D01*
X143830579Y-101890936D01*
X143804802Y-101898756D01*
X143771862Y-101902000D01*
X143008138Y-101902000D01*
X142975198Y-101898756D01*
X142949421Y-101890936D01*
X142925667Y-101878239D01*
X142904847Y-101861153D01*
X142887761Y-101840333D01*
X142875064Y-101816579D01*
X142867244Y-101790802D01*
X142864000Y-101757862D01*
X142864000Y-101244138D01*
X142867244Y-101211198D01*
X142875064Y-101185421D01*
X142887761Y-101161667D01*
X142904847Y-101140847D01*
X142925667Y-101123761D01*
X142949421Y-101111064D01*
X142975198Y-101103244D01*
X143008138Y-101100000D01*
X143771862Y-101100000D01*
X143804802Y-101103244D01*
X143804802Y-101103244D01*
G37*
G36*
X146160443Y-99435519D02*
G01*
X146226627Y-99442037D01*
X146396466Y-99493557D01*
X146552991Y-99577222D01*
X146582151Y-99601153D01*
X146690186Y-99689814D01*
X146757582Y-99771938D01*
X146802778Y-99827009D01*
X146886443Y-99983534D01*
X146937963Y-100153373D01*
X146955359Y-100330000D01*
X146937963Y-100506627D01*
X146886783Y-100675345D01*
X146886442Y-100676468D01*
X146879475Y-100689502D01*
X146802778Y-100832991D01*
X146795384Y-100842000D01*
X146690186Y-100970186D01*
X146588729Y-101053448D01*
X146552991Y-101082778D01*
X146396466Y-101166443D01*
X146226627Y-101217963D01*
X146167646Y-101223772D01*
X146094260Y-101231000D01*
X146005740Y-101231000D01*
X145932354Y-101223772D01*
X145873373Y-101217963D01*
X145703534Y-101166443D01*
X145547009Y-101082778D01*
X145511271Y-101053448D01*
X145409814Y-100970186D01*
X145304616Y-100842000D01*
X145297222Y-100832991D01*
X145256238Y-100756316D01*
X145242624Y-100735941D01*
X145225297Y-100718614D01*
X145204923Y-100705001D01*
X145182284Y-100695623D01*
X145158251Y-100690843D01*
X145133747Y-100690843D01*
X145109714Y-100695623D01*
X145087075Y-100705001D01*
X145066700Y-100718615D01*
X145049373Y-100735942D01*
X145035760Y-100756316D01*
X145026382Y-100778955D01*
X145021000Y-100815240D01*
X145021000Y-101219360D01*
X145018284Y-101246938D01*
X145012029Y-101267557D01*
X145001876Y-101286553D01*
X144988208Y-101303208D01*
X144971553Y-101316876D01*
X144952557Y-101327029D01*
X144931938Y-101333284D01*
X144904360Y-101336000D01*
X144395640Y-101336000D01*
X144368062Y-101333284D01*
X144347443Y-101327029D01*
X144328447Y-101316876D01*
X144311792Y-101303208D01*
X144298124Y-101286553D01*
X144287971Y-101267557D01*
X144281716Y-101246938D01*
X144279000Y-101219360D01*
X144279000Y-100760640D01*
X144281716Y-100733062D01*
X144287971Y-100712443D01*
X144298124Y-100693447D01*
X144311792Y-100676792D01*
X144328447Y-100663124D01*
X144347443Y-100652971D01*
X144368062Y-100646716D01*
X144395640Y-100644000D01*
X144904360Y-100644000D01*
X144931938Y-100646716D01*
X144952557Y-100652971D01*
X144973490Y-100664160D01*
X144990231Y-100675345D01*
X145012870Y-100684722D01*
X145036903Y-100689502D01*
X145061407Y-100689502D01*
X145085441Y-100684721D01*
X145108079Y-100675343D01*
X145128453Y-100661729D01*
X145145780Y-100644402D01*
X145159393Y-100624027D01*
X145168770Y-100601388D01*
X145173550Y-100577355D01*
X145173550Y-100552851D01*
X145168769Y-100528819D01*
X145162037Y-100506628D01*
X145144641Y-100330000D01*
X145153456Y-100240500D01*
X145162037Y-100153373D01*
X145213557Y-99983534D01*
X145297222Y-99827009D01*
X145342418Y-99771938D01*
X145409814Y-99689814D01*
X145517849Y-99601153D01*
X145547009Y-99577222D01*
X145703534Y-99493557D01*
X145873373Y-99442037D01*
X145939558Y-99435518D01*
X146005740Y-99429000D01*
X146094260Y-99429000D01*
X146160443Y-99435519D01*
X146160443Y-99435519D01*
G37*
G36*
X125840443Y-99435519D02*
G01*
X125906627Y-99442037D01*
X126076466Y-99493557D01*
X126232991Y-99577222D01*
X126262151Y-99601153D01*
X126370186Y-99689814D01*
X126437582Y-99771938D01*
X126482778Y-99827009D01*
X126566443Y-99983534D01*
X126617963Y-100153373D01*
X126635359Y-100330000D01*
X126617963Y-100506627D01*
X126566783Y-100675345D01*
X126566442Y-100676468D01*
X126559475Y-100689502D01*
X126482778Y-100832991D01*
X126475384Y-100842000D01*
X126370186Y-100970186D01*
X126268729Y-101053448D01*
X126232991Y-101082778D01*
X126076466Y-101166443D01*
X125906627Y-101217963D01*
X125847646Y-101223772D01*
X125774260Y-101231000D01*
X125685740Y-101231000D01*
X125612354Y-101223772D01*
X125553373Y-101217963D01*
X125383534Y-101166443D01*
X125227009Y-101082778D01*
X125191271Y-101053448D01*
X125089814Y-100970186D01*
X124984616Y-100842000D01*
X124977222Y-100832991D01*
X124900525Y-100689502D01*
X124893558Y-100676468D01*
X124893217Y-100675345D01*
X124842037Y-100506627D01*
X124824641Y-100330000D01*
X124842037Y-100153373D01*
X124893557Y-99983534D01*
X124977222Y-99827009D01*
X125022418Y-99771938D01*
X125089814Y-99689814D01*
X125197849Y-99601153D01*
X125227009Y-99577222D01*
X125383534Y-99493557D01*
X125553373Y-99442037D01*
X125619558Y-99435518D01*
X125685740Y-99429000D01*
X125774260Y-99429000D01*
X125840443Y-99435519D01*
X125840443Y-99435519D01*
G37*
G36*
X128804802Y-100043244D02*
G01*
X128830579Y-100051064D01*
X128854333Y-100063761D01*
X128875153Y-100080847D01*
X128892239Y-100101667D01*
X128904936Y-100125421D01*
X128912756Y-100151198D01*
X128916000Y-100184138D01*
X128916000Y-100697862D01*
X128912756Y-100730802D01*
X128904936Y-100756579D01*
X128892239Y-100780333D01*
X128875153Y-100801153D01*
X128854333Y-100818239D01*
X128830579Y-100830936D01*
X128804802Y-100838756D01*
X128771862Y-100842000D01*
X128008138Y-100842000D01*
X127975198Y-100838756D01*
X127949421Y-100830936D01*
X127925667Y-100818239D01*
X127904847Y-100801153D01*
X127887761Y-100780333D01*
X127875064Y-100756579D01*
X127867244Y-100730802D01*
X127864000Y-100697862D01*
X127864000Y-100184138D01*
X127867244Y-100151198D01*
X127875064Y-100125421D01*
X127887761Y-100101667D01*
X127904847Y-100080847D01*
X127925667Y-100063761D01*
X127949421Y-100051064D01*
X127975198Y-100043244D01*
X128008138Y-100040000D01*
X128771862Y-100040000D01*
X128804802Y-100043244D01*
X128804802Y-100043244D01*
G37*
G36*
X143804802Y-99903244D02*
G01*
X143830579Y-99911064D01*
X143854333Y-99923761D01*
X143875153Y-99940847D01*
X143892239Y-99961667D01*
X143904936Y-99985421D01*
X143912756Y-100011198D01*
X143916000Y-100044138D01*
X143916000Y-100557862D01*
X143912756Y-100590802D01*
X143904936Y-100616579D01*
X143892239Y-100640333D01*
X143875153Y-100661153D01*
X143854333Y-100678239D01*
X143830579Y-100690936D01*
X143804802Y-100698756D01*
X143771862Y-100702000D01*
X143008138Y-100702000D01*
X142975198Y-100698756D01*
X142949421Y-100690936D01*
X142925667Y-100678239D01*
X142904847Y-100661153D01*
X142887761Y-100640333D01*
X142875064Y-100616579D01*
X142867244Y-100590802D01*
X142864000Y-100557862D01*
X142864000Y-100044138D01*
X142867244Y-100011198D01*
X142875064Y-99985421D01*
X142887761Y-99961667D01*
X142904847Y-99940847D01*
X142925667Y-99923761D01*
X142949421Y-99911064D01*
X142975198Y-99903244D01*
X143008138Y-99900000D01*
X143771862Y-99900000D01*
X143804802Y-99903244D01*
X143804802Y-99903244D01*
G37*
G36*
X144951938Y-99171716D02*
G01*
X144972557Y-99177971D01*
X144991553Y-99188124D01*
X145008208Y-99201792D01*
X145021876Y-99218447D01*
X145032029Y-99237443D01*
X145038284Y-99258062D01*
X145041000Y-99285640D01*
X145041000Y-99744360D01*
X145038284Y-99771938D01*
X145032029Y-99792557D01*
X145021876Y-99811553D01*
X145008208Y-99828208D01*
X144991553Y-99841876D01*
X144972557Y-99852029D01*
X144951938Y-99858284D01*
X144924360Y-99861000D01*
X144415640Y-99861000D01*
X144388062Y-99858284D01*
X144367443Y-99852029D01*
X144348447Y-99841876D01*
X144331792Y-99828208D01*
X144318124Y-99811553D01*
X144307971Y-99792557D01*
X144301716Y-99771938D01*
X144299000Y-99744360D01*
X144299000Y-99285640D01*
X144301716Y-99258062D01*
X144307971Y-99237443D01*
X144318124Y-99218447D01*
X144331792Y-99201792D01*
X144348447Y-99188124D01*
X144367443Y-99177971D01*
X144388062Y-99171716D01*
X144415640Y-99169000D01*
X144924360Y-99169000D01*
X144951938Y-99171716D01*
X144951938Y-99171716D01*
G37*
G36*
X128804802Y-98843244D02*
G01*
X128830579Y-98851064D01*
X128854333Y-98863761D01*
X128875153Y-98880847D01*
X128892239Y-98901667D01*
X128904936Y-98925421D01*
X128912756Y-98951198D01*
X128916000Y-98984138D01*
X128916000Y-99497862D01*
X128912756Y-99530802D01*
X128904936Y-99556579D01*
X128892239Y-99580333D01*
X128875153Y-99601153D01*
X128854333Y-99618239D01*
X128830579Y-99630936D01*
X128804802Y-99638756D01*
X128771862Y-99642000D01*
X128008138Y-99642000D01*
X127975198Y-99638756D01*
X127949421Y-99630936D01*
X127925667Y-99618239D01*
X127904847Y-99601153D01*
X127887761Y-99580333D01*
X127875064Y-99556579D01*
X127867244Y-99530802D01*
X127864000Y-99497862D01*
X127864000Y-98984138D01*
X127867244Y-98951198D01*
X127875064Y-98925421D01*
X127887761Y-98901667D01*
X127904847Y-98880847D01*
X127925667Y-98863761D01*
X127949421Y-98851064D01*
X127975198Y-98843244D01*
X128008138Y-98840000D01*
X128771862Y-98840000D01*
X128804802Y-98843244D01*
X128804802Y-98843244D01*
G37*
G36*
X143804802Y-98703244D02*
G01*
X143830579Y-98711064D01*
X143854333Y-98723761D01*
X143875153Y-98740847D01*
X143892239Y-98761667D01*
X143904936Y-98785421D01*
X143912756Y-98811198D01*
X143916000Y-98844138D01*
X143916000Y-99357862D01*
X143912756Y-99390802D01*
X143904936Y-99416579D01*
X143892239Y-99440333D01*
X143875153Y-99461153D01*
X143854333Y-99478239D01*
X143830579Y-99490936D01*
X143804802Y-99498756D01*
X143771862Y-99502000D01*
X143008138Y-99502000D01*
X142975198Y-99498756D01*
X142949421Y-99490936D01*
X142925667Y-99478239D01*
X142904847Y-99461153D01*
X142887761Y-99440333D01*
X142875064Y-99416579D01*
X142867244Y-99390802D01*
X142864000Y-99357862D01*
X142864000Y-98844138D01*
X142867244Y-98811198D01*
X142875064Y-98785421D01*
X142887761Y-98761667D01*
X142904847Y-98740847D01*
X142925667Y-98723761D01*
X142949421Y-98711064D01*
X142975198Y-98703244D01*
X143008138Y-98700000D01*
X143771862Y-98700000D01*
X143804802Y-98703244D01*
X143804802Y-98703244D01*
G37*
G36*
X144951938Y-98201716D02*
G01*
X144972557Y-98207971D01*
X144991552Y-98218124D01*
X145001595Y-98226366D01*
X145021969Y-98239979D01*
X145044608Y-98249357D01*
X145057033Y-98251828D01*
X145055760Y-98253733D01*
X145046382Y-98276372D01*
X145041602Y-98300405D01*
X145041000Y-98312657D01*
X145041000Y-98774360D01*
X145038284Y-98801938D01*
X145032029Y-98822557D01*
X145021876Y-98841553D01*
X145008208Y-98858208D01*
X144991553Y-98871876D01*
X144972557Y-98882029D01*
X144951938Y-98888284D01*
X144924360Y-98891000D01*
X144415640Y-98891000D01*
X144388062Y-98888284D01*
X144367443Y-98882029D01*
X144348447Y-98871876D01*
X144331792Y-98858208D01*
X144318124Y-98841553D01*
X144307971Y-98822557D01*
X144301716Y-98801938D01*
X144299000Y-98774360D01*
X144299000Y-98315640D01*
X144301716Y-98288062D01*
X144307971Y-98267443D01*
X144318124Y-98248447D01*
X144331792Y-98231792D01*
X144348447Y-98218124D01*
X144367443Y-98207971D01*
X144388062Y-98201716D01*
X144415640Y-98199000D01*
X144924360Y-98199000D01*
X144951938Y-98201716D01*
X144951938Y-98201716D01*
G37*
G36*
X125840442Y-96895518D02*
G01*
X125906627Y-96902037D01*
X126076466Y-96953557D01*
X126232991Y-97037222D01*
X126262151Y-97061153D01*
X126370186Y-97149814D01*
X126439368Y-97234114D01*
X126482778Y-97287009D01*
X126566443Y-97443534D01*
X126617963Y-97613373D01*
X126635359Y-97790000D01*
X126617963Y-97966627D01*
X126566443Y-98136466D01*
X126482778Y-98292991D01*
X126476693Y-98300405D01*
X126370186Y-98430186D01*
X126268729Y-98513448D01*
X126232991Y-98542778D01*
X126076466Y-98626443D01*
X125906627Y-98677963D01*
X125840442Y-98684482D01*
X125774260Y-98691000D01*
X125685740Y-98691000D01*
X125619558Y-98684482D01*
X125553373Y-98677963D01*
X125383534Y-98626443D01*
X125227009Y-98542778D01*
X125191271Y-98513448D01*
X125089814Y-98430186D01*
X124983307Y-98300405D01*
X124977222Y-98292991D01*
X124893557Y-98136466D01*
X124842037Y-97966627D01*
X124824641Y-97790000D01*
X124842037Y-97613373D01*
X124893557Y-97443534D01*
X124977222Y-97287009D01*
X125020632Y-97234114D01*
X125089814Y-97149814D01*
X125197849Y-97061153D01*
X125227009Y-97037222D01*
X125383534Y-96953557D01*
X125553373Y-96902037D01*
X125619558Y-96895518D01*
X125685740Y-96889000D01*
X125774260Y-96889000D01*
X125840442Y-96895518D01*
X125840442Y-96895518D01*
G37*
G36*
X146160442Y-96895518D02*
G01*
X146226627Y-96902037D01*
X146396466Y-96953557D01*
X146552991Y-97037222D01*
X146582151Y-97061153D01*
X146690186Y-97149814D01*
X146759368Y-97234114D01*
X146802778Y-97287009D01*
X146886443Y-97443534D01*
X146937963Y-97613373D01*
X146955359Y-97790000D01*
X146937963Y-97966627D01*
X146886443Y-98136466D01*
X146802778Y-98292991D01*
X146796693Y-98300405D01*
X146690186Y-98430186D01*
X146588729Y-98513448D01*
X146552991Y-98542778D01*
X146396466Y-98626443D01*
X146226627Y-98677963D01*
X146160442Y-98684482D01*
X146094260Y-98691000D01*
X146005740Y-98691000D01*
X145939558Y-98684482D01*
X145873373Y-98677963D01*
X145703534Y-98626443D01*
X145547009Y-98542778D01*
X145511271Y-98513448D01*
X145409814Y-98430186D01*
X145303307Y-98300405D01*
X145297222Y-98292991D01*
X145276238Y-98253733D01*
X145262625Y-98233359D01*
X145245298Y-98216031D01*
X145224923Y-98202418D01*
X145202284Y-98193040D01*
X145189859Y-98190569D01*
X145191132Y-98188664D01*
X145200510Y-98166025D01*
X145205290Y-98141992D01*
X145205290Y-98117488D01*
X145200510Y-98093455D01*
X145162037Y-97966627D01*
X145144641Y-97790000D01*
X145162037Y-97613373D01*
X145213557Y-97443534D01*
X145297222Y-97287009D01*
X145340632Y-97234114D01*
X145409814Y-97149814D01*
X145517849Y-97061153D01*
X145547009Y-97037222D01*
X145703534Y-96953557D01*
X145873373Y-96902037D01*
X145939558Y-96895518D01*
X146005740Y-96889000D01*
X146094260Y-96889000D01*
X146160442Y-96895518D01*
X146160442Y-96895518D01*
G37*
G36*
X128804802Y-97643244D02*
G01*
X128830579Y-97651064D01*
X128854333Y-97663761D01*
X128875153Y-97680847D01*
X128892239Y-97701667D01*
X128904936Y-97725421D01*
X128912756Y-97751198D01*
X128916000Y-97784138D01*
X128916000Y-98297862D01*
X128912756Y-98330802D01*
X128904936Y-98356579D01*
X128892239Y-98380333D01*
X128875153Y-98401153D01*
X128854333Y-98418239D01*
X128830579Y-98430936D01*
X128804802Y-98438756D01*
X128771862Y-98442000D01*
X128008138Y-98442000D01*
X127975198Y-98438756D01*
X127949421Y-98430936D01*
X127925667Y-98418239D01*
X127904847Y-98401153D01*
X127887761Y-98380333D01*
X127875064Y-98356579D01*
X127867244Y-98330802D01*
X127864000Y-98297862D01*
X127864000Y-97784138D01*
X127867244Y-97751198D01*
X127875064Y-97725421D01*
X127887761Y-97701667D01*
X127904847Y-97680847D01*
X127925667Y-97663761D01*
X127949421Y-97651064D01*
X127975198Y-97643244D01*
X128008138Y-97640000D01*
X128771862Y-97640000D01*
X128804802Y-97643244D01*
X128804802Y-97643244D01*
G37*
G36*
X143804802Y-97503244D02*
G01*
X143830579Y-97511064D01*
X143854333Y-97523761D01*
X143875153Y-97540847D01*
X143892239Y-97561667D01*
X143904936Y-97585421D01*
X143912756Y-97611198D01*
X143916000Y-97644138D01*
X143916000Y-98157862D01*
X143912756Y-98190802D01*
X143904936Y-98216579D01*
X143892239Y-98240333D01*
X143875153Y-98261153D01*
X143854333Y-98278239D01*
X143830579Y-98290936D01*
X143804802Y-98298756D01*
X143771862Y-98302000D01*
X143008138Y-98302000D01*
X142975198Y-98298756D01*
X142949421Y-98290936D01*
X142925667Y-98278239D01*
X142904847Y-98261153D01*
X142887761Y-98240333D01*
X142875064Y-98216579D01*
X142867244Y-98190802D01*
X142864000Y-98157862D01*
X142864000Y-97644138D01*
X142867244Y-97611198D01*
X142875064Y-97585421D01*
X142887761Y-97561667D01*
X142904847Y-97540847D01*
X142925667Y-97523761D01*
X142949421Y-97511064D01*
X142975198Y-97503244D01*
X143008138Y-97500000D01*
X143771862Y-97500000D01*
X143804802Y-97503244D01*
X143804802Y-97503244D01*
G37*
G36*
X144941938Y-96621716D02*
G01*
X144962557Y-96627971D01*
X144981553Y-96638124D01*
X144998208Y-96651792D01*
X145011876Y-96668447D01*
X145022029Y-96687443D01*
X145028284Y-96708062D01*
X145031000Y-96735640D01*
X145031000Y-97194360D01*
X145028284Y-97221938D01*
X145022029Y-97242557D01*
X145011876Y-97261553D01*
X144998208Y-97278208D01*
X144981553Y-97291876D01*
X144962557Y-97302029D01*
X144941938Y-97308284D01*
X144914360Y-97311000D01*
X144405640Y-97311000D01*
X144378062Y-97308284D01*
X144357443Y-97302029D01*
X144338447Y-97291876D01*
X144321792Y-97278208D01*
X144308124Y-97261553D01*
X144297971Y-97242557D01*
X144291716Y-97221938D01*
X144289000Y-97194360D01*
X144289000Y-96735640D01*
X144291716Y-96708062D01*
X144297971Y-96687443D01*
X144308124Y-96668447D01*
X144321792Y-96651792D01*
X144338447Y-96638124D01*
X144357443Y-96627971D01*
X144378062Y-96621716D01*
X144405640Y-96619000D01*
X144914360Y-96619000D01*
X144941938Y-96621716D01*
X144941938Y-96621716D01*
G37*
G36*
X143804802Y-96303244D02*
G01*
X143830579Y-96311064D01*
X143854333Y-96323761D01*
X143875153Y-96340847D01*
X143892239Y-96361667D01*
X143904936Y-96385421D01*
X143912756Y-96411198D01*
X143916000Y-96444138D01*
X143916000Y-96957862D01*
X143912756Y-96990802D01*
X143904936Y-97016579D01*
X143892239Y-97040333D01*
X143875153Y-97061153D01*
X143854333Y-97078239D01*
X143830579Y-97090936D01*
X143804802Y-97098756D01*
X143771862Y-97102000D01*
X143008138Y-97102000D01*
X142975198Y-97098756D01*
X142949421Y-97090936D01*
X142925667Y-97078239D01*
X142904847Y-97061153D01*
X142887761Y-97040333D01*
X142875064Y-97016579D01*
X142867244Y-96990802D01*
X142864000Y-96957862D01*
X142864000Y-96444138D01*
X142867244Y-96411198D01*
X142875064Y-96385421D01*
X142887761Y-96361667D01*
X142904847Y-96340847D01*
X142925667Y-96323761D01*
X142949421Y-96311064D01*
X142975198Y-96303244D01*
X143008138Y-96300000D01*
X143771862Y-96300000D01*
X143804802Y-96303244D01*
X143804802Y-96303244D01*
G37*
G36*
X130221000Y-97072000D02*
G01*
X128619000Y-97072000D01*
X128619000Y-95470000D01*
X130221000Y-95470000D01*
X130221000Y-97072000D01*
X130221000Y-97072000D01*
G37*
G36*
X127731938Y-96241716D02*
G01*
X127752557Y-96247971D01*
X127771553Y-96258124D01*
X127788208Y-96271792D01*
X127801876Y-96288447D01*
X127812029Y-96307443D01*
X127818284Y-96328062D01*
X127821000Y-96355640D01*
X127821000Y-96814360D01*
X127818284Y-96841938D01*
X127812029Y-96862557D01*
X127801876Y-96881553D01*
X127788208Y-96898208D01*
X127771553Y-96911876D01*
X127752557Y-96922029D01*
X127731938Y-96928284D01*
X127704360Y-96931000D01*
X127195640Y-96931000D01*
X127168062Y-96928284D01*
X127147443Y-96922029D01*
X127128447Y-96911876D01*
X127111792Y-96898208D01*
X127098124Y-96881553D01*
X127087971Y-96862557D01*
X127081716Y-96841938D01*
X127079000Y-96814360D01*
X127079000Y-96355640D01*
X127081716Y-96328062D01*
X127087971Y-96307443D01*
X127098124Y-96288447D01*
X127111792Y-96271792D01*
X127128447Y-96258124D01*
X127147443Y-96247971D01*
X127168062Y-96241716D01*
X127195640Y-96239000D01*
X127704360Y-96239000D01*
X127731938Y-96241716D01*
X127731938Y-96241716D01*
G37*
G36*
X144941938Y-95651716D02*
G01*
X144962557Y-95657971D01*
X144981552Y-95668124D01*
X145000872Y-95683979D01*
X145021246Y-95697592D01*
X145040247Y-95705462D01*
X145035712Y-95716410D01*
X145030932Y-95740443D01*
X145030931Y-95764943D01*
X145031000Y-95765644D01*
X145031000Y-96224360D01*
X145028284Y-96251938D01*
X145022029Y-96272557D01*
X145011876Y-96291553D01*
X144998208Y-96308208D01*
X144981553Y-96321876D01*
X144962557Y-96332029D01*
X144941938Y-96338284D01*
X144914360Y-96341000D01*
X144405640Y-96341000D01*
X144378062Y-96338284D01*
X144357443Y-96332029D01*
X144338447Y-96321876D01*
X144321792Y-96308208D01*
X144308124Y-96291553D01*
X144297971Y-96272557D01*
X144291716Y-96251938D01*
X144289000Y-96224360D01*
X144289000Y-95765640D01*
X144291716Y-95738062D01*
X144297971Y-95717443D01*
X144308124Y-95698447D01*
X144321792Y-95681792D01*
X144338447Y-95668124D01*
X144357443Y-95657971D01*
X144378062Y-95651716D01*
X144405640Y-95649000D01*
X144914360Y-95649000D01*
X144941938Y-95651716D01*
X144941938Y-95651716D01*
G37*
G36*
X142541000Y-96302000D02*
G01*
X140939000Y-96302000D01*
X140939000Y-94700000D01*
X142541000Y-94700000D01*
X142541000Y-96302000D01*
X142541000Y-96302000D01*
G37*
G36*
X125831838Y-94354671D02*
G01*
X125906627Y-94362037D01*
X126076466Y-94413557D01*
X126232991Y-94497222D01*
X126268729Y-94526552D01*
X126370186Y-94609814D01*
X126453448Y-94711271D01*
X126482778Y-94747009D01*
X126566443Y-94903534D01*
X126617963Y-95073373D01*
X126635359Y-95250000D01*
X126617963Y-95426627D01*
X126566443Y-95596466D01*
X126482778Y-95752991D01*
X126454047Y-95788000D01*
X126370186Y-95890186D01*
X126268729Y-95973448D01*
X126232991Y-96002778D01*
X126076466Y-96086443D01*
X125906627Y-96137963D01*
X125840443Y-96144481D01*
X125774260Y-96151000D01*
X125685740Y-96151000D01*
X125619558Y-96144482D01*
X125553373Y-96137963D01*
X125383534Y-96086443D01*
X125227009Y-96002778D01*
X125191271Y-95973448D01*
X125089814Y-95890186D01*
X125005953Y-95788000D01*
X124977222Y-95752991D01*
X124893557Y-95596466D01*
X124842037Y-95426627D01*
X124824641Y-95250000D01*
X124842037Y-95073373D01*
X124893557Y-94903534D01*
X124977222Y-94747009D01*
X125006552Y-94711271D01*
X125089814Y-94609814D01*
X125191271Y-94526552D01*
X125227009Y-94497222D01*
X125383534Y-94413557D01*
X125553373Y-94362037D01*
X125628162Y-94354671D01*
X125685740Y-94349000D01*
X125774260Y-94349000D01*
X125831838Y-94354671D01*
X125831838Y-94354671D01*
G37*
G36*
X146151838Y-94354671D02*
G01*
X146226627Y-94362037D01*
X146396466Y-94413557D01*
X146552991Y-94497222D01*
X146588729Y-94526552D01*
X146690186Y-94609814D01*
X146773448Y-94711271D01*
X146802778Y-94747009D01*
X146886443Y-94903534D01*
X146937963Y-95073373D01*
X146955359Y-95250000D01*
X146937963Y-95426627D01*
X146886443Y-95596466D01*
X146802778Y-95752991D01*
X146774047Y-95788000D01*
X146690186Y-95890186D01*
X146588729Y-95973448D01*
X146552991Y-96002778D01*
X146396466Y-96086443D01*
X146226627Y-96137963D01*
X146160443Y-96144481D01*
X146094260Y-96151000D01*
X146005740Y-96151000D01*
X145939558Y-96144482D01*
X145873373Y-96137963D01*
X145703534Y-96086443D01*
X145547009Y-96002778D01*
X145511271Y-95973448D01*
X145409814Y-95890186D01*
X145325953Y-95788000D01*
X145297222Y-95752991D01*
X145265568Y-95693771D01*
X145251954Y-95673396D01*
X145234627Y-95656069D01*
X145214253Y-95642456D01*
X145195251Y-95634585D01*
X145199786Y-95623636D01*
X145204566Y-95599602D01*
X145204566Y-95575098D01*
X145199787Y-95551073D01*
X145162037Y-95426627D01*
X145144641Y-95250000D01*
X145162037Y-95073373D01*
X145213557Y-94903534D01*
X145297222Y-94747009D01*
X145326552Y-94711271D01*
X145409814Y-94609814D01*
X145511271Y-94526552D01*
X145547009Y-94497222D01*
X145703534Y-94413557D01*
X145873373Y-94362037D01*
X145948162Y-94354671D01*
X146005740Y-94349000D01*
X146094260Y-94349000D01*
X146151838Y-94354671D01*
X146151838Y-94354671D01*
G37*
G36*
X127731938Y-95271716D02*
G01*
X127752557Y-95277971D01*
X127771553Y-95288124D01*
X127788208Y-95301792D01*
X127801876Y-95318447D01*
X127812029Y-95337443D01*
X127818284Y-95358062D01*
X127821000Y-95385640D01*
X127821000Y-95844360D01*
X127818284Y-95871938D01*
X127812029Y-95892557D01*
X127801876Y-95911553D01*
X127788208Y-95928208D01*
X127771553Y-95941876D01*
X127752557Y-95952029D01*
X127731938Y-95958284D01*
X127704360Y-95961000D01*
X127195640Y-95961000D01*
X127168062Y-95958284D01*
X127147443Y-95952029D01*
X127128447Y-95941876D01*
X127111792Y-95928208D01*
X127098124Y-95911553D01*
X127087971Y-95892557D01*
X127081716Y-95871938D01*
X127079000Y-95844360D01*
X127079000Y-95385640D01*
X127081716Y-95358062D01*
X127087971Y-95337443D01*
X127098124Y-95318447D01*
X127111792Y-95301792D01*
X127128447Y-95288124D01*
X127147443Y-95277971D01*
X127168062Y-95271716D01*
X127195640Y-95269000D01*
X127704360Y-95269000D01*
X127731938Y-95271716D01*
X127731938Y-95271716D01*
G37*
G36*
X139229802Y-94078244D02*
G01*
X139255579Y-94086064D01*
X139279333Y-94098761D01*
X139300153Y-94115847D01*
X139317239Y-94136667D01*
X139329936Y-94160421D01*
X139337756Y-94186198D01*
X139341000Y-94219138D01*
X139341000Y-94982862D01*
X139337756Y-95015802D01*
X139329936Y-95041579D01*
X139317239Y-95065333D01*
X139300153Y-95086153D01*
X139279333Y-95103239D01*
X139255579Y-95115936D01*
X139229802Y-95123756D01*
X139196862Y-95127000D01*
X138683138Y-95127000D01*
X138650198Y-95123756D01*
X138624421Y-95115936D01*
X138600667Y-95103239D01*
X138579847Y-95086153D01*
X138562761Y-95065333D01*
X138550064Y-95041579D01*
X138542244Y-95015802D01*
X138539000Y-94982862D01*
X138539000Y-94219138D01*
X138542244Y-94186198D01*
X138550064Y-94160421D01*
X138562761Y-94136667D01*
X138579847Y-94115847D01*
X138600667Y-94098761D01*
X138624421Y-94086064D01*
X138650198Y-94078244D01*
X138683138Y-94075000D01*
X139196862Y-94075000D01*
X139229802Y-94078244D01*
X139229802Y-94078244D01*
G37*
G36*
X140429802Y-94078244D02*
G01*
X140455579Y-94086064D01*
X140479333Y-94098761D01*
X140500153Y-94115847D01*
X140517239Y-94136667D01*
X140529936Y-94160421D01*
X140537756Y-94186198D01*
X140541000Y-94219138D01*
X140541000Y-94982862D01*
X140537756Y-95015802D01*
X140529936Y-95041579D01*
X140517239Y-95065333D01*
X140500153Y-95086153D01*
X140479333Y-95103239D01*
X140455579Y-95115936D01*
X140429802Y-95123756D01*
X140396862Y-95127000D01*
X139883138Y-95127000D01*
X139850198Y-95123756D01*
X139824421Y-95115936D01*
X139800667Y-95103239D01*
X139779847Y-95086153D01*
X139762761Y-95065333D01*
X139750064Y-95041579D01*
X139742244Y-95015802D01*
X139739000Y-94982862D01*
X139739000Y-94219138D01*
X139742244Y-94186198D01*
X139750064Y-94160421D01*
X139762761Y-94136667D01*
X139779847Y-94115847D01*
X139800667Y-94098761D01*
X139824421Y-94086064D01*
X139850198Y-94078244D01*
X139883138Y-94075000D01*
X140396862Y-94075000D01*
X140429802Y-94078244D01*
X140429802Y-94078244D01*
G37*
G36*
X138029802Y-94078244D02*
G01*
X138055579Y-94086064D01*
X138079333Y-94098761D01*
X138100153Y-94115847D01*
X138117239Y-94136667D01*
X138129936Y-94160421D01*
X138137756Y-94186198D01*
X138141000Y-94219138D01*
X138141000Y-94982862D01*
X138137756Y-95015802D01*
X138129936Y-95041579D01*
X138117239Y-95065333D01*
X138100153Y-95086153D01*
X138079333Y-95103239D01*
X138055579Y-95115936D01*
X138029802Y-95123756D01*
X137996862Y-95127000D01*
X137483138Y-95127000D01*
X137450198Y-95123756D01*
X137424421Y-95115936D01*
X137400667Y-95103239D01*
X137379847Y-95086153D01*
X137362761Y-95065333D01*
X137350064Y-95041579D01*
X137342244Y-95015802D01*
X137339000Y-94982862D01*
X137339000Y-94219138D01*
X137342244Y-94186198D01*
X137350064Y-94160421D01*
X137362761Y-94136667D01*
X137379847Y-94115847D01*
X137400667Y-94098761D01*
X137424421Y-94086064D01*
X137450198Y-94078244D01*
X137483138Y-94075000D01*
X137996862Y-94075000D01*
X138029802Y-94078244D01*
X138029802Y-94078244D01*
G37*
G36*
X136829802Y-94078244D02*
G01*
X136855579Y-94086064D01*
X136879333Y-94098761D01*
X136900153Y-94115847D01*
X136917239Y-94136667D01*
X136929936Y-94160421D01*
X136937756Y-94186198D01*
X136941000Y-94219138D01*
X136941000Y-94982862D01*
X136937756Y-95015802D01*
X136929936Y-95041579D01*
X136917239Y-95065333D01*
X136900153Y-95086153D01*
X136879333Y-95103239D01*
X136855579Y-95115936D01*
X136829802Y-95123756D01*
X136796862Y-95127000D01*
X136283138Y-95127000D01*
X136250198Y-95123756D01*
X136224421Y-95115936D01*
X136200667Y-95103239D01*
X136179847Y-95086153D01*
X136162761Y-95065333D01*
X136150064Y-95041579D01*
X136142244Y-95015802D01*
X136139000Y-94982862D01*
X136139000Y-94219138D01*
X136142244Y-94186198D01*
X136150064Y-94160421D01*
X136162761Y-94136667D01*
X136179847Y-94115847D01*
X136200667Y-94098761D01*
X136224421Y-94086064D01*
X136250198Y-94078244D01*
X136283138Y-94075000D01*
X136796862Y-94075000D01*
X136829802Y-94078244D01*
X136829802Y-94078244D01*
G37*
G36*
X135629802Y-94078244D02*
G01*
X135655579Y-94086064D01*
X135679333Y-94098761D01*
X135700153Y-94115847D01*
X135717239Y-94136667D01*
X135729936Y-94160421D01*
X135737756Y-94186198D01*
X135741000Y-94219138D01*
X135741000Y-94982862D01*
X135737756Y-95015802D01*
X135729936Y-95041579D01*
X135717239Y-95065333D01*
X135700153Y-95086153D01*
X135679333Y-95103239D01*
X135655579Y-95115936D01*
X135629802Y-95123756D01*
X135596862Y-95127000D01*
X135083138Y-95127000D01*
X135050198Y-95123756D01*
X135024421Y-95115936D01*
X135000667Y-95103239D01*
X134979847Y-95086153D01*
X134962761Y-95065333D01*
X134950064Y-95041579D01*
X134942244Y-95015802D01*
X134939000Y-94982862D01*
X134939000Y-94219138D01*
X134942244Y-94186198D01*
X134950064Y-94160421D01*
X134962761Y-94136667D01*
X134979847Y-94115847D01*
X135000667Y-94098761D01*
X135024421Y-94086064D01*
X135050198Y-94078244D01*
X135083138Y-94075000D01*
X135596862Y-94075000D01*
X135629802Y-94078244D01*
X135629802Y-94078244D01*
G37*
G36*
X134429802Y-94078244D02*
G01*
X134455579Y-94086064D01*
X134479333Y-94098761D01*
X134500153Y-94115847D01*
X134517239Y-94136667D01*
X134529936Y-94160421D01*
X134537756Y-94186198D01*
X134541000Y-94219138D01*
X134541000Y-94982862D01*
X134537756Y-95015802D01*
X134529936Y-95041579D01*
X134517239Y-95065333D01*
X134500153Y-95086153D01*
X134479333Y-95103239D01*
X134455579Y-95115936D01*
X134429802Y-95123756D01*
X134396862Y-95127000D01*
X133883138Y-95127000D01*
X133850198Y-95123756D01*
X133824421Y-95115936D01*
X133800667Y-95103239D01*
X133779847Y-95086153D01*
X133762761Y-95065333D01*
X133750064Y-95041579D01*
X133742244Y-95015802D01*
X133739000Y-94982862D01*
X133739000Y-94219138D01*
X133742244Y-94186198D01*
X133750064Y-94160421D01*
X133762761Y-94136667D01*
X133779847Y-94115847D01*
X133800667Y-94098761D01*
X133824421Y-94086064D01*
X133850198Y-94078244D01*
X133883138Y-94075000D01*
X134396862Y-94075000D01*
X134429802Y-94078244D01*
X134429802Y-94078244D01*
G37*
G36*
X133229802Y-94078244D02*
G01*
X133255579Y-94086064D01*
X133279333Y-94098761D01*
X133300153Y-94115847D01*
X133317239Y-94136667D01*
X133329936Y-94160421D01*
X133337756Y-94186198D01*
X133341000Y-94219138D01*
X133341000Y-94982862D01*
X133337756Y-95015802D01*
X133329936Y-95041579D01*
X133317239Y-95065333D01*
X133300153Y-95086153D01*
X133279333Y-95103239D01*
X133255579Y-95115936D01*
X133229802Y-95123756D01*
X133196862Y-95127000D01*
X132683138Y-95127000D01*
X132650198Y-95123756D01*
X132624421Y-95115936D01*
X132600667Y-95103239D01*
X132579847Y-95086153D01*
X132562761Y-95065333D01*
X132550064Y-95041579D01*
X132542244Y-95015802D01*
X132539000Y-94982862D01*
X132539000Y-94219138D01*
X132542244Y-94186198D01*
X132550064Y-94160421D01*
X132562761Y-94136667D01*
X132579847Y-94115847D01*
X132600667Y-94098761D01*
X132624421Y-94086064D01*
X132650198Y-94078244D01*
X132683138Y-94075000D01*
X133196862Y-94075000D01*
X133229802Y-94078244D01*
X133229802Y-94078244D01*
G37*
G36*
X132029802Y-94078244D02*
G01*
X132055579Y-94086064D01*
X132079333Y-94098761D01*
X132100153Y-94115847D01*
X132117239Y-94136667D01*
X132129936Y-94160421D01*
X132137756Y-94186198D01*
X132141000Y-94219138D01*
X132141000Y-94982862D01*
X132137756Y-95015802D01*
X132129936Y-95041579D01*
X132117239Y-95065333D01*
X132100153Y-95086153D01*
X132079333Y-95103239D01*
X132055579Y-95115936D01*
X132029802Y-95123756D01*
X131996862Y-95127000D01*
X131483138Y-95127000D01*
X131450198Y-95123756D01*
X131424421Y-95115936D01*
X131400667Y-95103239D01*
X131379847Y-95086153D01*
X131362761Y-95065333D01*
X131350064Y-95041579D01*
X131342244Y-95015802D01*
X131339000Y-94982862D01*
X131339000Y-94219138D01*
X131342244Y-94186198D01*
X131350064Y-94160421D01*
X131362761Y-94136667D01*
X131379847Y-94115847D01*
X131400667Y-94098761D01*
X131424421Y-94086064D01*
X131450198Y-94078244D01*
X131483138Y-94075000D01*
X131996862Y-94075000D01*
X132029802Y-94078244D01*
X132029802Y-94078244D01*
G37*
G36*
X130829802Y-94078244D02*
G01*
X130855579Y-94086064D01*
X130879333Y-94098761D01*
X130900153Y-94115847D01*
X130917239Y-94136667D01*
X130929936Y-94160421D01*
X130937756Y-94186198D01*
X130941000Y-94219138D01*
X130941000Y-94982862D01*
X130937756Y-95015802D01*
X130929936Y-95041579D01*
X130917239Y-95065333D01*
X130900153Y-95086153D01*
X130879333Y-95103239D01*
X130855579Y-95115936D01*
X130829802Y-95123756D01*
X130796862Y-95127000D01*
X130283138Y-95127000D01*
X130250198Y-95123756D01*
X130224421Y-95115936D01*
X130200667Y-95103239D01*
X130179847Y-95086153D01*
X130162761Y-95065333D01*
X130150064Y-95041579D01*
X130142244Y-95015802D01*
X130139000Y-94982862D01*
X130139000Y-94219138D01*
X130142244Y-94186198D01*
X130150064Y-94160421D01*
X130162761Y-94136667D01*
X130179847Y-94115847D01*
X130200667Y-94098761D01*
X130224421Y-94086064D01*
X130250198Y-94078244D01*
X130283138Y-94075000D01*
X130796862Y-94075000D01*
X130829802Y-94078244D01*
X130829802Y-94078244D01*
G37*
G36*
X127731938Y-94306716D02*
G01*
X127752557Y-94312971D01*
X127771553Y-94323124D01*
X127788208Y-94336792D01*
X127801876Y-94353447D01*
X127812029Y-94372443D01*
X127818284Y-94393062D01*
X127821000Y-94420640D01*
X127821000Y-94879360D01*
X127818284Y-94906938D01*
X127812029Y-94927557D01*
X127801876Y-94946553D01*
X127788208Y-94963208D01*
X127771553Y-94976876D01*
X127752557Y-94987029D01*
X127731938Y-94993284D01*
X127704360Y-94996000D01*
X127195640Y-94996000D01*
X127168062Y-94993284D01*
X127147443Y-94987029D01*
X127128447Y-94976876D01*
X127111792Y-94963208D01*
X127098124Y-94946553D01*
X127087971Y-94927557D01*
X127081716Y-94906938D01*
X127079000Y-94879360D01*
X127079000Y-94420640D01*
X127081716Y-94393062D01*
X127087971Y-94372443D01*
X127098124Y-94353447D01*
X127111792Y-94336792D01*
X127128447Y-94323124D01*
X127147443Y-94312971D01*
X127168062Y-94306716D01*
X127195640Y-94304000D01*
X127704360Y-94304000D01*
X127731938Y-94306716D01*
X127731938Y-94306716D01*
G37*
G36*
X129741938Y-93431716D02*
G01*
X129762557Y-93437971D01*
X129781553Y-93448124D01*
X129798208Y-93461792D01*
X129811876Y-93478447D01*
X129822029Y-93497443D01*
X129828284Y-93518062D01*
X129831000Y-93545640D01*
X129831000Y-94054360D01*
X129828284Y-94081938D01*
X129822029Y-94102557D01*
X129811876Y-94121553D01*
X129798208Y-94138208D01*
X129781553Y-94151876D01*
X129762557Y-94162029D01*
X129741938Y-94168284D01*
X129714360Y-94171000D01*
X129255640Y-94171000D01*
X129228062Y-94168284D01*
X129207443Y-94162029D01*
X129188447Y-94151876D01*
X129171792Y-94138208D01*
X129158124Y-94121553D01*
X129147971Y-94102557D01*
X129141716Y-94081938D01*
X129139000Y-94054360D01*
X129139000Y-93545640D01*
X129141716Y-93518062D01*
X129147971Y-93497443D01*
X129158124Y-93478447D01*
X129171792Y-93461792D01*
X129188447Y-93448124D01*
X129207443Y-93437971D01*
X129228062Y-93431716D01*
X129255640Y-93429000D01*
X129714360Y-93429000D01*
X129741938Y-93431716D01*
X129741938Y-93431716D01*
G37*
G36*
X128771938Y-93431716D02*
G01*
X128792557Y-93437971D01*
X128811553Y-93448124D01*
X128828208Y-93461792D01*
X128841876Y-93478447D01*
X128852029Y-93497443D01*
X128858284Y-93518062D01*
X128861000Y-93545640D01*
X128861000Y-94054360D01*
X128858284Y-94081938D01*
X128852029Y-94102557D01*
X128841876Y-94121553D01*
X128828208Y-94138208D01*
X128811553Y-94151876D01*
X128792557Y-94162029D01*
X128771938Y-94168284D01*
X128744360Y-94171000D01*
X128285640Y-94171000D01*
X128258062Y-94168284D01*
X128237443Y-94162029D01*
X128218447Y-94151876D01*
X128201792Y-94138208D01*
X128188124Y-94121553D01*
X128177971Y-94102557D01*
X128171716Y-94081938D01*
X128169000Y-94054360D01*
X128169000Y-93545640D01*
X128171716Y-93518062D01*
X128177971Y-93497443D01*
X128188124Y-93478447D01*
X128201792Y-93461792D01*
X128218447Y-93448124D01*
X128237443Y-93437971D01*
X128258062Y-93431716D01*
X128285640Y-93429000D01*
X128744360Y-93429000D01*
X128771938Y-93431716D01*
X128771938Y-93431716D01*
G37*
G36*
X127731938Y-93336716D02*
G01*
X127752557Y-93342971D01*
X127771553Y-93353124D01*
X127788208Y-93366792D01*
X127801876Y-93383447D01*
X127812029Y-93402443D01*
X127818284Y-93423062D01*
X127821000Y-93450640D01*
X127821000Y-93909360D01*
X127818284Y-93936938D01*
X127812029Y-93957557D01*
X127801876Y-93976553D01*
X127788208Y-93993208D01*
X127771553Y-94006876D01*
X127752557Y-94017029D01*
X127731938Y-94023284D01*
X127704360Y-94026000D01*
X127195640Y-94026000D01*
X127168062Y-94023284D01*
X127147443Y-94017029D01*
X127128447Y-94006876D01*
X127111792Y-93993208D01*
X127098124Y-93976553D01*
X127087971Y-93957557D01*
X127081716Y-93936938D01*
X127079000Y-93909360D01*
X127079000Y-93450640D01*
X127081716Y-93423062D01*
X127087971Y-93402443D01*
X127098124Y-93383447D01*
X127111792Y-93366792D01*
X127128447Y-93353124D01*
X127147443Y-93342971D01*
X127168062Y-93336716D01*
X127195640Y-93334000D01*
X127704360Y-93334000D01*
X127731938Y-93336716D01*
X127731938Y-93336716D01*
G37*
G36*
X146160442Y-91815518D02*
G01*
X146226627Y-91822037D01*
X146396466Y-91873557D01*
X146396468Y-91873558D01*
X146408771Y-91880134D01*
X146552991Y-91957222D01*
X146588729Y-91986552D01*
X146690186Y-92069814D01*
X146773448Y-92171271D01*
X146802778Y-92207009D01*
X146818697Y-92236792D01*
X146858839Y-92311890D01*
X146886443Y-92363534D01*
X146937963Y-92533373D01*
X146955359Y-92710000D01*
X146937963Y-92886627D01*
X146886443Y-93056466D01*
X146802778Y-93212991D01*
X146773448Y-93248729D01*
X146690186Y-93350186D01*
X146601385Y-93423062D01*
X146552991Y-93462778D01*
X146396466Y-93546443D01*
X146226627Y-93597963D01*
X146160442Y-93604482D01*
X146094260Y-93611000D01*
X146005740Y-93611000D01*
X145939557Y-93604481D01*
X145873373Y-93597963D01*
X145703534Y-93546443D01*
X145547009Y-93462778D01*
X145498615Y-93423062D01*
X145409814Y-93350186D01*
X145326552Y-93248729D01*
X145297222Y-93212991D01*
X145213557Y-93056466D01*
X145162037Y-92886627D01*
X145144641Y-92710000D01*
X145162037Y-92533373D01*
X145213557Y-92363534D01*
X145241162Y-92311890D01*
X145281303Y-92236792D01*
X145297222Y-92207009D01*
X145326552Y-92171271D01*
X145409814Y-92069814D01*
X145511271Y-91986552D01*
X145547009Y-91957222D01*
X145691229Y-91880134D01*
X145703532Y-91873558D01*
X145703534Y-91873557D01*
X145873373Y-91822037D01*
X145939558Y-91815518D01*
X146005740Y-91809000D01*
X146094260Y-91809000D01*
X146160442Y-91815518D01*
X146160442Y-91815518D01*
G37*
G36*
X125840442Y-91815518D02*
G01*
X125906627Y-91822037D01*
X126076466Y-91873557D01*
X126076468Y-91873558D01*
X126088771Y-91880134D01*
X126232991Y-91957222D01*
X126268729Y-91986552D01*
X126370186Y-92069814D01*
X126453448Y-92171271D01*
X126482778Y-92207009D01*
X126498697Y-92236792D01*
X126538839Y-92311890D01*
X126566443Y-92363534D01*
X126617963Y-92533373D01*
X126635359Y-92710000D01*
X126617963Y-92886627D01*
X126566443Y-93056466D01*
X126482778Y-93212991D01*
X126453448Y-93248729D01*
X126370186Y-93350186D01*
X126281385Y-93423062D01*
X126232991Y-93462778D01*
X126076466Y-93546443D01*
X125906627Y-93597963D01*
X125840442Y-93604482D01*
X125774260Y-93611000D01*
X125685740Y-93611000D01*
X125619557Y-93604481D01*
X125553373Y-93597963D01*
X125383534Y-93546443D01*
X125227009Y-93462778D01*
X125178615Y-93423062D01*
X125089814Y-93350186D01*
X125006552Y-93248729D01*
X124977222Y-93212991D01*
X124893557Y-93056466D01*
X124842037Y-92886627D01*
X124824641Y-92710000D01*
X124842037Y-92533373D01*
X124893557Y-92363534D01*
X124921162Y-92311890D01*
X124961303Y-92236792D01*
X124977222Y-92207009D01*
X125006552Y-92171271D01*
X125089814Y-92069814D01*
X125191271Y-91986552D01*
X125227009Y-91957222D01*
X125371229Y-91880134D01*
X125383532Y-91873558D01*
X125383534Y-91873557D01*
X125553373Y-91822037D01*
X125619558Y-91815518D01*
X125685740Y-91809000D01*
X125774260Y-91809000D01*
X125840442Y-91815518D01*
X125840442Y-91815518D01*
G37*
G36*
X144651000Y-93471000D02*
G01*
X143889000Y-93471000D01*
X143889000Y-92319000D01*
X144651000Y-92319000D01*
X144651000Y-93471000D01*
X144651000Y-93471000D01*
G37*
G36*
X142511000Y-93471000D02*
G01*
X141749000Y-93471000D01*
X141749000Y-92319000D01*
X142511000Y-92319000D01*
X142511000Y-93471000D01*
X142511000Y-93471000D01*
G37*
G36*
X133801000Y-93251000D02*
G01*
X132899000Y-93251000D01*
X132899000Y-92249000D01*
X133801000Y-92249000D01*
X133801000Y-93251000D01*
X133801000Y-93251000D01*
G37*
G36*
X131901000Y-93251000D02*
G01*
X130999000Y-93251000D01*
X130999000Y-92249000D01*
X131901000Y-92249000D01*
X131901000Y-93251000D01*
X131901000Y-93251000D01*
G37*
G36*
X137479591Y-92128085D02*
G01*
X137513569Y-92138393D01*
X137544890Y-92155134D01*
X137572339Y-92177661D01*
X137594866Y-92205110D01*
X137611607Y-92236431D01*
X137621915Y-92270409D01*
X137626000Y-92311890D01*
X137626000Y-92988110D01*
X137621915Y-93029591D01*
X137611607Y-93063569D01*
X137594866Y-93094890D01*
X137572339Y-93122339D01*
X137544890Y-93144866D01*
X137513569Y-93161607D01*
X137479591Y-93171915D01*
X137438110Y-93176000D01*
X136836890Y-93176000D01*
X136795409Y-93171915D01*
X136761431Y-93161607D01*
X136730110Y-93144866D01*
X136702661Y-93122339D01*
X136680134Y-93094890D01*
X136663393Y-93063569D01*
X136653085Y-93029591D01*
X136649000Y-92988110D01*
X136649000Y-92311890D01*
X136653085Y-92270409D01*
X136663393Y-92236431D01*
X136680134Y-92205110D01*
X136702661Y-92177661D01*
X136730110Y-92155134D01*
X136761431Y-92138393D01*
X136795409Y-92128085D01*
X136836890Y-92124000D01*
X137438110Y-92124000D01*
X137479591Y-92128085D01*
X137479591Y-92128085D01*
G37*
G36*
X135904591Y-92128085D02*
G01*
X135938569Y-92138393D01*
X135969890Y-92155134D01*
X135997339Y-92177661D01*
X136019866Y-92205110D01*
X136036607Y-92236431D01*
X136046915Y-92270409D01*
X136051000Y-92311890D01*
X136051000Y-92988110D01*
X136046915Y-93029591D01*
X136036607Y-93063569D01*
X136019866Y-93094890D01*
X135997339Y-93122339D01*
X135969890Y-93144866D01*
X135938569Y-93161607D01*
X135904591Y-93171915D01*
X135863110Y-93176000D01*
X135261890Y-93176000D01*
X135220409Y-93171915D01*
X135186431Y-93161607D01*
X135155110Y-93144866D01*
X135127661Y-93122339D01*
X135105134Y-93094890D01*
X135088393Y-93063569D01*
X135078085Y-93029591D01*
X135074000Y-92988110D01*
X135074000Y-92311890D01*
X135078085Y-92270409D01*
X135088393Y-92236431D01*
X135105134Y-92205110D01*
X135127661Y-92177661D01*
X135155110Y-92155134D01*
X135186431Y-92138393D01*
X135220409Y-92128085D01*
X135261890Y-92124000D01*
X135863110Y-92124000D01*
X135904591Y-92128085D01*
X135904591Y-92128085D01*
G37*
G36*
X140429591Y-92128085D02*
G01*
X140463569Y-92138393D01*
X140494890Y-92155134D01*
X140522339Y-92177661D01*
X140544866Y-92205110D01*
X140561607Y-92236431D01*
X140571915Y-92270409D01*
X140576000Y-92311890D01*
X140576000Y-92988110D01*
X140571915Y-93029591D01*
X140561607Y-93063569D01*
X140544866Y-93094890D01*
X140522339Y-93122339D01*
X140494890Y-93144866D01*
X140463569Y-93161607D01*
X140429591Y-93171915D01*
X140388110Y-93176000D01*
X139786890Y-93176000D01*
X139745409Y-93171915D01*
X139711431Y-93161607D01*
X139680110Y-93144866D01*
X139652661Y-93122339D01*
X139630134Y-93094890D01*
X139613393Y-93063569D01*
X139603085Y-93029591D01*
X139599000Y-92988110D01*
X139599000Y-92311890D01*
X139603085Y-92270409D01*
X139613393Y-92236431D01*
X139630134Y-92205110D01*
X139652661Y-92177661D01*
X139680110Y-92155134D01*
X139711431Y-92138393D01*
X139745409Y-92128085D01*
X139786890Y-92124000D01*
X140388110Y-92124000D01*
X140429591Y-92128085D01*
X140429591Y-92128085D01*
G37*
G36*
X138854591Y-92128085D02*
G01*
X138888569Y-92138393D01*
X138919890Y-92155134D01*
X138947339Y-92177661D01*
X138969866Y-92205110D01*
X138986607Y-92236431D01*
X138996915Y-92270409D01*
X139001000Y-92311890D01*
X139001000Y-92988110D01*
X138996915Y-93029591D01*
X138986607Y-93063569D01*
X138969866Y-93094890D01*
X138947339Y-93122339D01*
X138919890Y-93144866D01*
X138888569Y-93161607D01*
X138854591Y-93171915D01*
X138813110Y-93176000D01*
X138211890Y-93176000D01*
X138170409Y-93171915D01*
X138136431Y-93161607D01*
X138105110Y-93144866D01*
X138077661Y-93122339D01*
X138055134Y-93094890D01*
X138038393Y-93063569D01*
X138028085Y-93029591D01*
X138024000Y-92988110D01*
X138024000Y-92311890D01*
X138028085Y-92270409D01*
X138038393Y-92236431D01*
X138055134Y-92205110D01*
X138077661Y-92177661D01*
X138105110Y-92155134D01*
X138136431Y-92138393D01*
X138170409Y-92128085D01*
X138211890Y-92124000D01*
X138813110Y-92124000D01*
X138854591Y-92128085D01*
X138854591Y-92128085D01*
G37*
G36*
X128641938Y-92206716D02*
G01*
X128662557Y-92212971D01*
X128681553Y-92223124D01*
X128698208Y-92236792D01*
X128711876Y-92253447D01*
X128722029Y-92272443D01*
X128728284Y-92293062D01*
X128731000Y-92320640D01*
X128731000Y-92829360D01*
X128728284Y-92856938D01*
X128722029Y-92877557D01*
X128711876Y-92896553D01*
X128698208Y-92913208D01*
X128681553Y-92926876D01*
X128662557Y-92937029D01*
X128641938Y-92943284D01*
X128614360Y-92946000D01*
X128155640Y-92946000D01*
X128128062Y-92943284D01*
X128107443Y-92937029D01*
X128088447Y-92926876D01*
X128071792Y-92913208D01*
X128058124Y-92896553D01*
X128047971Y-92877557D01*
X128041716Y-92856938D01*
X128039000Y-92829360D01*
X128039000Y-92320640D01*
X128041716Y-92293062D01*
X128047971Y-92272443D01*
X128058124Y-92253447D01*
X128071792Y-92236792D01*
X128088447Y-92223124D01*
X128107443Y-92212971D01*
X128128062Y-92206716D01*
X128155640Y-92204000D01*
X128614360Y-92204000D01*
X128641938Y-92206716D01*
X128641938Y-92206716D01*
G37*
G36*
X127671938Y-92206716D02*
G01*
X127692557Y-92212971D01*
X127711553Y-92223124D01*
X127728208Y-92236792D01*
X127741876Y-92253447D01*
X127752029Y-92272443D01*
X127758284Y-92293062D01*
X127761000Y-92320640D01*
X127761000Y-92829360D01*
X127758284Y-92856938D01*
X127752029Y-92877557D01*
X127741876Y-92896553D01*
X127728208Y-92913208D01*
X127711553Y-92926876D01*
X127692557Y-92937029D01*
X127671938Y-92943284D01*
X127644360Y-92946000D01*
X127185640Y-92946000D01*
X127158062Y-92943284D01*
X127137443Y-92937029D01*
X127118447Y-92926876D01*
X127101792Y-92913208D01*
X127088124Y-92896553D01*
X127077971Y-92877557D01*
X127071716Y-92856938D01*
X127069000Y-92829360D01*
X127069000Y-92320640D01*
X127071716Y-92293062D01*
X127077971Y-92272443D01*
X127088124Y-92253447D01*
X127101792Y-92236792D01*
X127118447Y-92223124D01*
X127137443Y-92212971D01*
X127158062Y-92206716D01*
X127185640Y-92204000D01*
X127644360Y-92204000D01*
X127671938Y-92206716D01*
X127671938Y-92206716D01*
G37*
G36*
X130079591Y-91853085D02*
G01*
X130113569Y-91863393D01*
X130144890Y-91880134D01*
X130172339Y-91902661D01*
X130194866Y-91930110D01*
X130211607Y-91961431D01*
X130221915Y-91995409D01*
X130226000Y-92036890D01*
X130226000Y-92638110D01*
X130221915Y-92679591D01*
X130211607Y-92713569D01*
X130194866Y-92744890D01*
X130172339Y-92772339D01*
X130144890Y-92794866D01*
X130113569Y-92811607D01*
X130079591Y-92821915D01*
X130038110Y-92826000D01*
X129361890Y-92826000D01*
X129320409Y-92821915D01*
X129286431Y-92811607D01*
X129255110Y-92794866D01*
X129227661Y-92772339D01*
X129205134Y-92744890D01*
X129188393Y-92713569D01*
X129178085Y-92679591D01*
X129174000Y-92638110D01*
X129174000Y-92036890D01*
X129178085Y-91995409D01*
X129188393Y-91961431D01*
X129205134Y-91930110D01*
X129227661Y-91902661D01*
X129255110Y-91880134D01*
X129286431Y-91863393D01*
X129320409Y-91853085D01*
X129361890Y-91849000D01*
X130038110Y-91849000D01*
X130079591Y-91853085D01*
X130079591Y-91853085D01*
G37*
G36*
X128681938Y-91216716D02*
G01*
X128702557Y-91222971D01*
X128721553Y-91233124D01*
X128738208Y-91246792D01*
X128751876Y-91263447D01*
X128762029Y-91282443D01*
X128768284Y-91303062D01*
X128771000Y-91330640D01*
X128771000Y-91789360D01*
X128768284Y-91816938D01*
X128762029Y-91837557D01*
X128751876Y-91856553D01*
X128738208Y-91873208D01*
X128721553Y-91886876D01*
X128702557Y-91897029D01*
X128681938Y-91903284D01*
X128654360Y-91906000D01*
X128145640Y-91906000D01*
X128118062Y-91903284D01*
X128097443Y-91897029D01*
X128078447Y-91886876D01*
X128061792Y-91873208D01*
X128048124Y-91856553D01*
X128037971Y-91837557D01*
X128031716Y-91816938D01*
X128029000Y-91789360D01*
X128029000Y-91330640D01*
X128031716Y-91303062D01*
X128037971Y-91282443D01*
X128048124Y-91263447D01*
X128061792Y-91246792D01*
X128078447Y-91233124D01*
X128097443Y-91222971D01*
X128118062Y-91216716D01*
X128145640Y-91214000D01*
X128654360Y-91214000D01*
X128681938Y-91216716D01*
X128681938Y-91216716D01*
G37*
G36*
X127681938Y-91216716D02*
G01*
X127702557Y-91222971D01*
X127721553Y-91233124D01*
X127738208Y-91246792D01*
X127751876Y-91263447D01*
X127762029Y-91282443D01*
X127768284Y-91303062D01*
X127771000Y-91330640D01*
X127771000Y-91789360D01*
X127768284Y-91816938D01*
X127762029Y-91837557D01*
X127751876Y-91856553D01*
X127738208Y-91873208D01*
X127721553Y-91886876D01*
X127702557Y-91897029D01*
X127681938Y-91903284D01*
X127654360Y-91906000D01*
X127145640Y-91906000D01*
X127118062Y-91903284D01*
X127097443Y-91897029D01*
X127078447Y-91886876D01*
X127061792Y-91873208D01*
X127048124Y-91856553D01*
X127037971Y-91837557D01*
X127031716Y-91816938D01*
X127029000Y-91789360D01*
X127029000Y-91330640D01*
X127031716Y-91303062D01*
X127037971Y-91282443D01*
X127048124Y-91263447D01*
X127061792Y-91246792D01*
X127078447Y-91233124D01*
X127097443Y-91222971D01*
X127118062Y-91216716D01*
X127145640Y-91214000D01*
X127654360Y-91214000D01*
X127681938Y-91216716D01*
X127681938Y-91216716D01*
G37*
G36*
X135081938Y-91041716D02*
G01*
X135102557Y-91047971D01*
X135121553Y-91058124D01*
X135138208Y-91071792D01*
X135151876Y-91088447D01*
X135162029Y-91107443D01*
X135168284Y-91128062D01*
X135171000Y-91155640D01*
X135171000Y-91614360D01*
X135168284Y-91641938D01*
X135162029Y-91662557D01*
X135151876Y-91681553D01*
X135138208Y-91698208D01*
X135121553Y-91711876D01*
X135102557Y-91722029D01*
X135081938Y-91728284D01*
X135054360Y-91731000D01*
X134545640Y-91731000D01*
X134518062Y-91728284D01*
X134497443Y-91722029D01*
X134478447Y-91711876D01*
X134461792Y-91698208D01*
X134448124Y-91681553D01*
X134437971Y-91662557D01*
X134431716Y-91641938D01*
X134429000Y-91614360D01*
X134429000Y-91155640D01*
X134431716Y-91128062D01*
X134437971Y-91107443D01*
X134448124Y-91088447D01*
X134461792Y-91071792D01*
X134478447Y-91058124D01*
X134497443Y-91047971D01*
X134518062Y-91041716D01*
X134545640Y-91039000D01*
X135054360Y-91039000D01*
X135081938Y-91041716D01*
X135081938Y-91041716D01*
G37*
G36*
X138676000Y-91681000D02*
G01*
X137924000Y-91681000D01*
X137924000Y-90519000D01*
X138676000Y-90519000D01*
X138676000Y-91681000D01*
X138676000Y-91681000D01*
G37*
G36*
X136776000Y-91681000D02*
G01*
X136024000Y-91681000D01*
X136024000Y-90519000D01*
X136776000Y-90519000D01*
X136776000Y-91681000D01*
X136776000Y-91681000D01*
G37*
G36*
X140479591Y-90303085D02*
G01*
X140513569Y-90313393D01*
X140544890Y-90330134D01*
X140572339Y-90352661D01*
X140594866Y-90380110D01*
X140611607Y-90411431D01*
X140621915Y-90445409D01*
X140626000Y-90486890D01*
X140626000Y-91088110D01*
X140621915Y-91129591D01*
X140611607Y-91163569D01*
X140594866Y-91194890D01*
X140572339Y-91222339D01*
X140544890Y-91244866D01*
X140513569Y-91261607D01*
X140479591Y-91271915D01*
X140438110Y-91276000D01*
X139761890Y-91276000D01*
X139720409Y-91271915D01*
X139686431Y-91261607D01*
X139655110Y-91244866D01*
X139627661Y-91222339D01*
X139605134Y-91194890D01*
X139588393Y-91163569D01*
X139578085Y-91129591D01*
X139574000Y-91088110D01*
X139574000Y-90486890D01*
X139578085Y-90445409D01*
X139588393Y-90411431D01*
X139605134Y-90380110D01*
X139627661Y-90352661D01*
X139655110Y-90330134D01*
X139686431Y-90313393D01*
X139720409Y-90303085D01*
X139761890Y-90299000D01*
X140438110Y-90299000D01*
X140479591Y-90303085D01*
X140479591Y-90303085D01*
G37*
G36*
X130079591Y-90278085D02*
G01*
X130113569Y-90288393D01*
X130144890Y-90305134D01*
X130172339Y-90327661D01*
X130194866Y-90355110D01*
X130211607Y-90386431D01*
X130221915Y-90420409D01*
X130226000Y-90461890D01*
X130226000Y-91063110D01*
X130221915Y-91104591D01*
X130211607Y-91138569D01*
X130194866Y-91169890D01*
X130172339Y-91197339D01*
X130144890Y-91219866D01*
X130113569Y-91236607D01*
X130079591Y-91246915D01*
X130038110Y-91251000D01*
X129361890Y-91251000D01*
X129320409Y-91246915D01*
X129286431Y-91236607D01*
X129255110Y-91219866D01*
X129227661Y-91197339D01*
X129205134Y-91169890D01*
X129188393Y-91138569D01*
X129178085Y-91104591D01*
X129174000Y-91063110D01*
X129174000Y-90461890D01*
X129178085Y-90420409D01*
X129188393Y-90386431D01*
X129205134Y-90355110D01*
X129227661Y-90327661D01*
X129255110Y-90305134D01*
X129286431Y-90288393D01*
X129320409Y-90278085D01*
X129361890Y-90274000D01*
X130038110Y-90274000D01*
X130079591Y-90278085D01*
X130079591Y-90278085D01*
G37*
G36*
X132851000Y-91251000D02*
G01*
X131949000Y-91251000D01*
X131949000Y-90249000D01*
X132851000Y-90249000D01*
X132851000Y-91251000D01*
X132851000Y-91251000D01*
G37*
G36*
X146160443Y-89275519D02*
G01*
X146226627Y-89282037D01*
X146396466Y-89333557D01*
X146552991Y-89417222D01*
X146588729Y-89446552D01*
X146690186Y-89529814D01*
X146764108Y-89619890D01*
X146802778Y-89667009D01*
X146886443Y-89823534D01*
X146937963Y-89993373D01*
X146955359Y-90170000D01*
X146937963Y-90346627D01*
X146886443Y-90516466D01*
X146802778Y-90672991D01*
X146786720Y-90692557D01*
X146690186Y-90810186D01*
X146597131Y-90886553D01*
X146552991Y-90922778D01*
X146396466Y-91006443D01*
X146226627Y-91057963D01*
X146160442Y-91064482D01*
X146094260Y-91071000D01*
X146005740Y-91071000D01*
X145939558Y-91064482D01*
X145873373Y-91057963D01*
X145703534Y-91006443D01*
X145547009Y-90922778D01*
X145502869Y-90886553D01*
X145409814Y-90810186D01*
X145313280Y-90692557D01*
X145297222Y-90672991D01*
X145213557Y-90516466D01*
X145162037Y-90346627D01*
X145144641Y-90170000D01*
X145162037Y-89993373D01*
X145213557Y-89823534D01*
X145297222Y-89667009D01*
X145335892Y-89619890D01*
X145409814Y-89529814D01*
X145511271Y-89446552D01*
X145547009Y-89417222D01*
X145703534Y-89333557D01*
X145873373Y-89282037D01*
X145939557Y-89275519D01*
X146005740Y-89269000D01*
X146094260Y-89269000D01*
X146160443Y-89275519D01*
X146160443Y-89275519D01*
G37*
G36*
X125840443Y-89275519D02*
G01*
X125906627Y-89282037D01*
X126076466Y-89333557D01*
X126232991Y-89417222D01*
X126268729Y-89446552D01*
X126370186Y-89529814D01*
X126444108Y-89619890D01*
X126482778Y-89667009D01*
X126566443Y-89823534D01*
X126617963Y-89993373D01*
X126635359Y-90170000D01*
X126617963Y-90346627D01*
X126566443Y-90516466D01*
X126482778Y-90672991D01*
X126466720Y-90692557D01*
X126370186Y-90810186D01*
X126277131Y-90886553D01*
X126232991Y-90922778D01*
X126076466Y-91006443D01*
X125906627Y-91057963D01*
X125840442Y-91064482D01*
X125774260Y-91071000D01*
X125685740Y-91071000D01*
X125619558Y-91064482D01*
X125553373Y-91057963D01*
X125383534Y-91006443D01*
X125227009Y-90922778D01*
X125182869Y-90886553D01*
X125089814Y-90810186D01*
X124993280Y-90692557D01*
X124977222Y-90672991D01*
X124893557Y-90516466D01*
X124842037Y-90346627D01*
X124824641Y-90170000D01*
X124842037Y-89993373D01*
X124893557Y-89823534D01*
X124977222Y-89667009D01*
X125015892Y-89619890D01*
X125089814Y-89529814D01*
X125191271Y-89446552D01*
X125227009Y-89417222D01*
X125383534Y-89333557D01*
X125553373Y-89282037D01*
X125619557Y-89275519D01*
X125685740Y-89269000D01*
X125774260Y-89269000D01*
X125840443Y-89275519D01*
X125840443Y-89275519D01*
G37*
G36*
X128681938Y-90246716D02*
G01*
X128702557Y-90252971D01*
X128721553Y-90263124D01*
X128738208Y-90276792D01*
X128751876Y-90293447D01*
X128762029Y-90312443D01*
X128768284Y-90333062D01*
X128771000Y-90360640D01*
X128771000Y-90819360D01*
X128768284Y-90846938D01*
X128762029Y-90867557D01*
X128751876Y-90886553D01*
X128738208Y-90903208D01*
X128721553Y-90916876D01*
X128702557Y-90927029D01*
X128681938Y-90933284D01*
X128654360Y-90936000D01*
X128145640Y-90936000D01*
X128118062Y-90933284D01*
X128097443Y-90927029D01*
X128078447Y-90916876D01*
X128061792Y-90903208D01*
X128048124Y-90886553D01*
X128037971Y-90867557D01*
X128031716Y-90846938D01*
X128029000Y-90819360D01*
X128029000Y-90360640D01*
X128031716Y-90333062D01*
X128037971Y-90312443D01*
X128048124Y-90293447D01*
X128061792Y-90276792D01*
X128078447Y-90263124D01*
X128097443Y-90252971D01*
X128118062Y-90246716D01*
X128145640Y-90244000D01*
X128654360Y-90244000D01*
X128681938Y-90246716D01*
X128681938Y-90246716D01*
G37*
G36*
X127681938Y-90246716D02*
G01*
X127702557Y-90252971D01*
X127721553Y-90263124D01*
X127738208Y-90276792D01*
X127751876Y-90293447D01*
X127762029Y-90312443D01*
X127768284Y-90333062D01*
X127771000Y-90360640D01*
X127771000Y-90819360D01*
X127768284Y-90846938D01*
X127762029Y-90867557D01*
X127751876Y-90886553D01*
X127738208Y-90903208D01*
X127721553Y-90916876D01*
X127702557Y-90927029D01*
X127681938Y-90933284D01*
X127654360Y-90936000D01*
X127145640Y-90936000D01*
X127118062Y-90933284D01*
X127097443Y-90927029D01*
X127078447Y-90916876D01*
X127061792Y-90903208D01*
X127048124Y-90886553D01*
X127037971Y-90867557D01*
X127031716Y-90846938D01*
X127029000Y-90819360D01*
X127029000Y-90360640D01*
X127031716Y-90333062D01*
X127037971Y-90312443D01*
X127048124Y-90293447D01*
X127061792Y-90276792D01*
X127078447Y-90263124D01*
X127097443Y-90252971D01*
X127118062Y-90246716D01*
X127145640Y-90244000D01*
X127654360Y-90244000D01*
X127681938Y-90246716D01*
X127681938Y-90246716D01*
G37*
G36*
X135081938Y-90071716D02*
G01*
X135102557Y-90077971D01*
X135121553Y-90088124D01*
X135138208Y-90101792D01*
X135151876Y-90118447D01*
X135162029Y-90137443D01*
X135168284Y-90158062D01*
X135171000Y-90185640D01*
X135171000Y-90644360D01*
X135168284Y-90671938D01*
X135162029Y-90692557D01*
X135151876Y-90711553D01*
X135138208Y-90728208D01*
X135121553Y-90741876D01*
X135102557Y-90752029D01*
X135081938Y-90758284D01*
X135054360Y-90761000D01*
X134545640Y-90761000D01*
X134518062Y-90758284D01*
X134497443Y-90752029D01*
X134478447Y-90741876D01*
X134461792Y-90728208D01*
X134448124Y-90711553D01*
X134437971Y-90692557D01*
X134431716Y-90671938D01*
X134429000Y-90644360D01*
X134429000Y-90185640D01*
X134431716Y-90158062D01*
X134437971Y-90137443D01*
X134448124Y-90118447D01*
X134461792Y-90101792D01*
X134478447Y-90088124D01*
X134497443Y-90077971D01*
X134518062Y-90071716D01*
X134545640Y-90069000D01*
X135054360Y-90069000D01*
X135081938Y-90071716D01*
X135081938Y-90071716D01*
G37*
G36*
X140479591Y-88728085D02*
G01*
X140513569Y-88738393D01*
X140544890Y-88755134D01*
X140572339Y-88777661D01*
X140594866Y-88805110D01*
X140611607Y-88836431D01*
X140621915Y-88870409D01*
X140626000Y-88911890D01*
X140626000Y-89513110D01*
X140621915Y-89554591D01*
X140611607Y-89588569D01*
X140594866Y-89619890D01*
X140572339Y-89647339D01*
X140544890Y-89669866D01*
X140513569Y-89686607D01*
X140479591Y-89696915D01*
X140438110Y-89701000D01*
X139761890Y-89701000D01*
X139720409Y-89696915D01*
X139686431Y-89686607D01*
X139655110Y-89669866D01*
X139627661Y-89647339D01*
X139605134Y-89619890D01*
X139588393Y-89588569D01*
X139578085Y-89554591D01*
X139574000Y-89513110D01*
X139574000Y-88911890D01*
X139578085Y-88870409D01*
X139588393Y-88836431D01*
X139605134Y-88805110D01*
X139627661Y-88777661D01*
X139655110Y-88755134D01*
X139686431Y-88738393D01*
X139720409Y-88728085D01*
X139761890Y-88724000D01*
X140438110Y-88724000D01*
X140479591Y-88728085D01*
X140479591Y-88728085D01*
G37*
G36*
X138676000Y-89481000D02*
G01*
X136024000Y-89481000D01*
X136024000Y-88319000D01*
X138676000Y-88319000D01*
X138676000Y-89481000D01*
X138676000Y-89481000D01*
G37*
G36*
X144651000Y-89321000D02*
G01*
X143889000Y-89321000D01*
X143889000Y-88169000D01*
X144651000Y-88169000D01*
X144651000Y-89321000D01*
X144651000Y-89321000D01*
G37*
G36*
X142511000Y-89321000D02*
G01*
X141749000Y-89321000D01*
X141749000Y-88169000D01*
X142511000Y-88169000D01*
X142511000Y-89321000D01*
X142511000Y-89321000D01*
G37*
G36*
X133551000Y-89311000D02*
G01*
X131049000Y-89311000D01*
X131049000Y-88469000D01*
X133551000Y-88469000D01*
X133551000Y-89311000D01*
X133551000Y-89311000D01*
G37*
G36*
X129651000Y-89311000D02*
G01*
X127149000Y-89311000D01*
X127149000Y-88469000D01*
X129651000Y-88469000D01*
X129651000Y-89311000D01*
X129651000Y-89311000D01*
G37*
G36*
X146160442Y-86735518D02*
G01*
X146226627Y-86742037D01*
X146396466Y-86793557D01*
X146552991Y-86877222D01*
X146588729Y-86906552D01*
X146690186Y-86989814D01*
X146770764Y-87088000D01*
X146802778Y-87127009D01*
X146802779Y-87127011D01*
X146872947Y-87258284D01*
X146886443Y-87283534D01*
X146937963Y-87453373D01*
X146955359Y-87630000D01*
X146937963Y-87806627D01*
X146886443Y-87976466D01*
X146802778Y-88132991D01*
X146778514Y-88162557D01*
X146690186Y-88270186D01*
X146588729Y-88353448D01*
X146552991Y-88382778D01*
X146396466Y-88466443D01*
X146226627Y-88517963D01*
X146160442Y-88524482D01*
X146094260Y-88531000D01*
X146005740Y-88531000D01*
X145939558Y-88524482D01*
X145873373Y-88517963D01*
X145703534Y-88466443D01*
X145547009Y-88382778D01*
X145511271Y-88353448D01*
X145409814Y-88270186D01*
X145321486Y-88162557D01*
X145297222Y-88132991D01*
X145213557Y-87976466D01*
X145162037Y-87806627D01*
X145144641Y-87630000D01*
X145162037Y-87453373D01*
X145213557Y-87283534D01*
X145227054Y-87258284D01*
X145297221Y-87127011D01*
X145297222Y-87127009D01*
X145329236Y-87088000D01*
X145409814Y-86989814D01*
X145511271Y-86906552D01*
X145547009Y-86877222D01*
X145703534Y-86793557D01*
X145873373Y-86742037D01*
X145939558Y-86735518D01*
X146005740Y-86729000D01*
X146094260Y-86729000D01*
X146160442Y-86735518D01*
X146160442Y-86735518D01*
G37*
G36*
X125840442Y-86735518D02*
G01*
X125906627Y-86742037D01*
X126076466Y-86793557D01*
X126232991Y-86877222D01*
X126268729Y-86906552D01*
X126370186Y-86989814D01*
X126450764Y-87088000D01*
X126482778Y-87127009D01*
X126482779Y-87127011D01*
X126552947Y-87258284D01*
X126566443Y-87283534D01*
X126617963Y-87453373D01*
X126635359Y-87630000D01*
X126617963Y-87806627D01*
X126566443Y-87976466D01*
X126482778Y-88132991D01*
X126458514Y-88162557D01*
X126370186Y-88270186D01*
X126268729Y-88353448D01*
X126232991Y-88382778D01*
X126076466Y-88466443D01*
X125906627Y-88517963D01*
X125840442Y-88524482D01*
X125774260Y-88531000D01*
X125685740Y-88531000D01*
X125619558Y-88524482D01*
X125553373Y-88517963D01*
X125383534Y-88466443D01*
X125227009Y-88382778D01*
X125191271Y-88353448D01*
X125089814Y-88270186D01*
X125001486Y-88162557D01*
X124977222Y-88132991D01*
X124893557Y-87976466D01*
X124842037Y-87806627D01*
X124824641Y-87630000D01*
X124842037Y-87453373D01*
X124893557Y-87283534D01*
X124907054Y-87258284D01*
X124977221Y-87127011D01*
X124977222Y-87127009D01*
X125009236Y-87088000D01*
X125089814Y-86989814D01*
X125191271Y-86906552D01*
X125227009Y-86877222D01*
X125383534Y-86793557D01*
X125553373Y-86742037D01*
X125619558Y-86735518D01*
X125685740Y-86729000D01*
X125774260Y-86729000D01*
X125840442Y-86735518D01*
X125840442Y-86735518D01*
G37*
G36*
X140281938Y-87541716D02*
G01*
X140302557Y-87547971D01*
X140321553Y-87558124D01*
X140338208Y-87571792D01*
X140351876Y-87588447D01*
X140362029Y-87607443D01*
X140368284Y-87628062D01*
X140371000Y-87655640D01*
X140371000Y-88114360D01*
X140368284Y-88141938D01*
X140362029Y-88162557D01*
X140351876Y-88181553D01*
X140338208Y-88198208D01*
X140321553Y-88211876D01*
X140302557Y-88222029D01*
X140281938Y-88228284D01*
X140254360Y-88231000D01*
X139745640Y-88231000D01*
X139718062Y-88228284D01*
X139697443Y-88222029D01*
X139678447Y-88211876D01*
X139661792Y-88198208D01*
X139648124Y-88181553D01*
X139637971Y-88162557D01*
X139631716Y-88141938D01*
X139629000Y-88114360D01*
X139629000Y-87655640D01*
X139631716Y-87628062D01*
X139637971Y-87607443D01*
X139648124Y-87588447D01*
X139661792Y-87571792D01*
X139678447Y-87558124D01*
X139697443Y-87547971D01*
X139718062Y-87541716D01*
X139745640Y-87539000D01*
X140254360Y-87539000D01*
X140281938Y-87541716D01*
X140281938Y-87541716D01*
G37*
G36*
X129651000Y-88041000D02*
G01*
X127149000Y-88041000D01*
X127149000Y-87199000D01*
X129651000Y-87199000D01*
X129651000Y-88041000D01*
X129651000Y-88041000D01*
G37*
G36*
X133551000Y-88041000D02*
G01*
X131049000Y-88041000D01*
X131049000Y-87199000D01*
X133551000Y-87199000D01*
X133551000Y-88041000D01*
X133551000Y-88041000D01*
G37*
G36*
X136901000Y-87751000D02*
G01*
X135899000Y-87751000D01*
X135899000Y-86849000D01*
X136901000Y-86849000D01*
X136901000Y-87751000D01*
X136901000Y-87751000D01*
G37*
G36*
X144431000Y-87676000D02*
G01*
X143269000Y-87676000D01*
X143269000Y-85024000D01*
X144431000Y-85024000D01*
X144431000Y-87676000D01*
X144431000Y-87676000D01*
G37*
G36*
X142231000Y-87676000D02*
G01*
X141069000Y-87676000D01*
X141069000Y-86924000D01*
X142231000Y-86924000D01*
X142231000Y-87676000D01*
X142231000Y-87676000D01*
G37*
G36*
X140281938Y-85641716D02*
G01*
X140302557Y-85647971D01*
X140321553Y-85658124D01*
X140338208Y-85671792D01*
X140351876Y-85688447D01*
X140362029Y-85707443D01*
X140368284Y-85728062D01*
X140371000Y-85755640D01*
X140371000Y-86214360D01*
X140368284Y-86241938D01*
X140362029Y-86262557D01*
X140351876Y-86281553D01*
X140338208Y-86298208D01*
X140321553Y-86311876D01*
X140302556Y-86322030D01*
X140275019Y-86330383D01*
X140252380Y-86339760D01*
X140232005Y-86353374D01*
X140214678Y-86370701D01*
X140201064Y-86391075D01*
X140191687Y-86413714D01*
X140186906Y-86437747D01*
X140186906Y-86462251D01*
X140191686Y-86486284D01*
X140201063Y-86508923D01*
X140214677Y-86529298D01*
X140232004Y-86546625D01*
X140252378Y-86560239D01*
X140275019Y-86569617D01*
X140302556Y-86577970D01*
X140321553Y-86588124D01*
X140338208Y-86601792D01*
X140351876Y-86618447D01*
X140362029Y-86637443D01*
X140368284Y-86658062D01*
X140371000Y-86685640D01*
X140371000Y-87144360D01*
X140368284Y-87171938D01*
X140362029Y-87192557D01*
X140351876Y-87211553D01*
X140338208Y-87228208D01*
X140321553Y-87241876D01*
X140302557Y-87252029D01*
X140281938Y-87258284D01*
X140254360Y-87261000D01*
X139745640Y-87261000D01*
X139718062Y-87258284D01*
X139697443Y-87252029D01*
X139678447Y-87241876D01*
X139661792Y-87228208D01*
X139648124Y-87211553D01*
X139637971Y-87192557D01*
X139631716Y-87171938D01*
X139629000Y-87144360D01*
X139629000Y-86685640D01*
X139631716Y-86658062D01*
X139637971Y-86637443D01*
X139648124Y-86618447D01*
X139661792Y-86601792D01*
X139678447Y-86588124D01*
X139697444Y-86577970D01*
X139724981Y-86569617D01*
X139747620Y-86560240D01*
X139767995Y-86546626D01*
X139785322Y-86529299D01*
X139798936Y-86508925D01*
X139808313Y-86486286D01*
X139813094Y-86462253D01*
X139813094Y-86437749D01*
X139808314Y-86413716D01*
X139798937Y-86391077D01*
X139785323Y-86370702D01*
X139767996Y-86353375D01*
X139747622Y-86339761D01*
X139724981Y-86330383D01*
X139697444Y-86322030D01*
X139678447Y-86311876D01*
X139661792Y-86298208D01*
X139648124Y-86281553D01*
X139637971Y-86262557D01*
X139631716Y-86241938D01*
X139629000Y-86214360D01*
X139629000Y-85755640D01*
X139631716Y-85728062D01*
X139637971Y-85707443D01*
X139648124Y-85688447D01*
X139661792Y-85671792D01*
X139678447Y-85658124D01*
X139697443Y-85647971D01*
X139718062Y-85641716D01*
X139745640Y-85639000D01*
X140254360Y-85639000D01*
X140281938Y-85641716D01*
X140281938Y-85641716D01*
G37*
G36*
X138901000Y-86801000D02*
G01*
X137899000Y-86801000D01*
X137899000Y-85899000D01*
X138901000Y-85899000D01*
X138901000Y-86801000D01*
X138901000Y-86801000D01*
G37*
G36*
X129651000Y-86771000D02*
G01*
X127149000Y-86771000D01*
X127149000Y-85929000D01*
X129651000Y-85929000D01*
X129651000Y-86771000D01*
X129651000Y-86771000D01*
G37*
G36*
X133551000Y-86771000D02*
G01*
X131049000Y-86771000D01*
X131049000Y-85929000D01*
X133551000Y-85929000D01*
X133551000Y-86771000D01*
X133551000Y-86771000D01*
G37*
G36*
X146160442Y-84195518D02*
G01*
X146226627Y-84202037D01*
X146396466Y-84253557D01*
X146552991Y-84337222D01*
X146569779Y-84351000D01*
X146690186Y-84449814D01*
X146773448Y-84551271D01*
X146802778Y-84587009D01*
X146886443Y-84743534D01*
X146937963Y-84913373D01*
X146955359Y-85090000D01*
X146937963Y-85266627D01*
X146886443Y-85436466D01*
X146802778Y-85592991D01*
X146773448Y-85628729D01*
X146690186Y-85730186D01*
X146590494Y-85812000D01*
X146552991Y-85842778D01*
X146396466Y-85926443D01*
X146226627Y-85977963D01*
X146160442Y-85984482D01*
X146094260Y-85991000D01*
X146005740Y-85991000D01*
X145939558Y-85984482D01*
X145873373Y-85977963D01*
X145703534Y-85926443D01*
X145547009Y-85842778D01*
X145509506Y-85812000D01*
X145409814Y-85730186D01*
X145326552Y-85628729D01*
X145297222Y-85592991D01*
X145213557Y-85436466D01*
X145162037Y-85266627D01*
X145144641Y-85090000D01*
X145162037Y-84913373D01*
X145213557Y-84743534D01*
X145297222Y-84587009D01*
X145326552Y-84551271D01*
X145409814Y-84449814D01*
X145530221Y-84351000D01*
X145547009Y-84337222D01*
X145703534Y-84253557D01*
X145873373Y-84202037D01*
X145939558Y-84195518D01*
X146005740Y-84189000D01*
X146094260Y-84189000D01*
X146160442Y-84195518D01*
X146160442Y-84195518D01*
G37*
G36*
X125840442Y-84195518D02*
G01*
X125906627Y-84202037D01*
X126076466Y-84253557D01*
X126232991Y-84337222D01*
X126249779Y-84351000D01*
X126370186Y-84449814D01*
X126453448Y-84551271D01*
X126482778Y-84587009D01*
X126566443Y-84743534D01*
X126617963Y-84913373D01*
X126635359Y-85090000D01*
X126617963Y-85266627D01*
X126566443Y-85436466D01*
X126482778Y-85592991D01*
X126453448Y-85628729D01*
X126370186Y-85730186D01*
X126270494Y-85812000D01*
X126232991Y-85842778D01*
X126076466Y-85926443D01*
X125906627Y-85977963D01*
X125840442Y-85984482D01*
X125774260Y-85991000D01*
X125685740Y-85991000D01*
X125619558Y-85984482D01*
X125553373Y-85977963D01*
X125383534Y-85926443D01*
X125227009Y-85842778D01*
X125189506Y-85812000D01*
X125089814Y-85730186D01*
X125006552Y-85628729D01*
X124977222Y-85592991D01*
X124893557Y-85436466D01*
X124842037Y-85266627D01*
X124824641Y-85090000D01*
X124842037Y-84913373D01*
X124893557Y-84743534D01*
X124977222Y-84587009D01*
X125006552Y-84551271D01*
X125089814Y-84449814D01*
X125210221Y-84351000D01*
X125227009Y-84337222D01*
X125383534Y-84253557D01*
X125553373Y-84202037D01*
X125619558Y-84195518D01*
X125685740Y-84189000D01*
X125774260Y-84189000D01*
X125840442Y-84195518D01*
X125840442Y-84195518D01*
G37*
G36*
X136901000Y-85851000D02*
G01*
X135899000Y-85851000D01*
X135899000Y-84949000D01*
X136901000Y-84949000D01*
X136901000Y-85851000D01*
X136901000Y-85851000D01*
G37*
G36*
X142231000Y-85776000D02*
G01*
X141069000Y-85776000D01*
X141069000Y-85024000D01*
X142231000Y-85024000D01*
X142231000Y-85776000D01*
X142231000Y-85776000D01*
G37*
G36*
X133551000Y-85501000D02*
G01*
X131049000Y-85501000D01*
X131049000Y-84659000D01*
X133551000Y-84659000D01*
X133551000Y-85501000D01*
X133551000Y-85501000D01*
G37*
G36*
X129651000Y-85501000D02*
G01*
X127149000Y-85501000D01*
X127149000Y-84659000D01*
X129651000Y-84659000D01*
X129651000Y-85501000D01*
X129651000Y-85501000D01*
G37*
G36*
X140281938Y-84671716D02*
G01*
X140302557Y-84677971D01*
X140321553Y-84688124D01*
X140338208Y-84701792D01*
X140351876Y-84718447D01*
X140362029Y-84737443D01*
X140368284Y-84758062D01*
X140371000Y-84785640D01*
X140371000Y-85244360D01*
X140368284Y-85271938D01*
X140362029Y-85292557D01*
X140351876Y-85311553D01*
X140338208Y-85328208D01*
X140321553Y-85341876D01*
X140302557Y-85352029D01*
X140281938Y-85358284D01*
X140254360Y-85361000D01*
X139745640Y-85361000D01*
X139718062Y-85358284D01*
X139697443Y-85352029D01*
X139678447Y-85341876D01*
X139661792Y-85328208D01*
X139648124Y-85311553D01*
X139637971Y-85292557D01*
X139631716Y-85271938D01*
X139629000Y-85244360D01*
X139629000Y-84785640D01*
X139631716Y-84758062D01*
X139637971Y-84737443D01*
X139648124Y-84718447D01*
X139661792Y-84701792D01*
X139678447Y-84688124D01*
X139697443Y-84677971D01*
X139718062Y-84671716D01*
X139745640Y-84669000D01*
X140254360Y-84669000D01*
X140281938Y-84671716D01*
X140281938Y-84671716D01*
G37*
G36*
X136451000Y-84351000D02*
G01*
X135149000Y-84351000D01*
X135149000Y-83349000D01*
X136451000Y-83349000D01*
X136451000Y-84351000D01*
X136451000Y-84351000D01*
G37*
G36*
X138179591Y-83353085D02*
G01*
X138213569Y-83363393D01*
X138244890Y-83380134D01*
X138272339Y-83402661D01*
X138294866Y-83430110D01*
X138311607Y-83461431D01*
X138321915Y-83495409D01*
X138326000Y-83536890D01*
X138326000Y-84138110D01*
X138321915Y-84179591D01*
X138311607Y-84213569D01*
X138294866Y-84244890D01*
X138272339Y-84272339D01*
X138244890Y-84294866D01*
X138213569Y-84311607D01*
X138179591Y-84321915D01*
X138138110Y-84326000D01*
X137461890Y-84326000D01*
X137420409Y-84321915D01*
X137386431Y-84311607D01*
X137355110Y-84294866D01*
X137327661Y-84272339D01*
X137305134Y-84244890D01*
X137288393Y-84213569D01*
X137278085Y-84179591D01*
X137274000Y-84138110D01*
X137274000Y-83536890D01*
X137278085Y-83495409D01*
X137288393Y-83461431D01*
X137305134Y-83430110D01*
X137327661Y-83402661D01*
X137355110Y-83380134D01*
X137386431Y-83363393D01*
X137420409Y-83353085D01*
X137461890Y-83349000D01*
X138138110Y-83349000D01*
X138179591Y-83353085D01*
X138179591Y-83353085D01*
G37*
G36*
X133551000Y-84231000D02*
G01*
X131049000Y-84231000D01*
X131049000Y-83389000D01*
X133551000Y-83389000D01*
X133551000Y-84231000D01*
X133551000Y-84231000D01*
G37*
G36*
X129651000Y-84231000D02*
G01*
X127149000Y-84231000D01*
X127149000Y-83389000D01*
X129651000Y-83389000D01*
X129651000Y-84231000D01*
X129651000Y-84231000D01*
G37*
G36*
X146953048Y-82303122D02*
G01*
X146987387Y-82313539D01*
X147019036Y-82330456D01*
X147046778Y-82353222D01*
X147069544Y-82380964D01*
X147086461Y-82412613D01*
X147096878Y-82446952D01*
X147101000Y-82488807D01*
X147101000Y-83711193D01*
X147096878Y-83753048D01*
X147086461Y-83787387D01*
X147069544Y-83819036D01*
X147046778Y-83846778D01*
X147019036Y-83869544D01*
X146987387Y-83886461D01*
X146953048Y-83896878D01*
X146911193Y-83901000D01*
X143788807Y-83901000D01*
X143746952Y-83896878D01*
X143712613Y-83886461D01*
X143680964Y-83869544D01*
X143653222Y-83846778D01*
X143630456Y-83819036D01*
X143613539Y-83787387D01*
X143603122Y-83753048D01*
X143599000Y-83711193D01*
X143599000Y-82488807D01*
X143603122Y-82446952D01*
X143613539Y-82412613D01*
X143630456Y-82380964D01*
X143653222Y-82353222D01*
X143680964Y-82330456D01*
X143712613Y-82313539D01*
X143746952Y-82303122D01*
X143788807Y-82299000D01*
X146911193Y-82299000D01*
X146953048Y-82303122D01*
X146953048Y-82303122D01*
G37*
G36*
X125840443Y-81655519D02*
G01*
X125906627Y-81662037D01*
X126076466Y-81713557D01*
X126232991Y-81797222D01*
X126268729Y-81826552D01*
X126370186Y-81909814D01*
X126453448Y-82011271D01*
X126482778Y-82047009D01*
X126566443Y-82203534D01*
X126617963Y-82373373D01*
X126635359Y-82550000D01*
X126617963Y-82726627D01*
X126566443Y-82896466D01*
X126482778Y-83052991D01*
X126453448Y-83088729D01*
X126370186Y-83190186D01*
X126268729Y-83273448D01*
X126232991Y-83302778D01*
X126232989Y-83302779D01*
X126111734Y-83367592D01*
X126076466Y-83386443D01*
X125906627Y-83437963D01*
X125840443Y-83444481D01*
X125774260Y-83451000D01*
X125685740Y-83451000D01*
X125619557Y-83444481D01*
X125553373Y-83437963D01*
X125383534Y-83386443D01*
X125348267Y-83367592D01*
X125227011Y-83302779D01*
X125227009Y-83302778D01*
X125191271Y-83273448D01*
X125089814Y-83190186D01*
X125006552Y-83088729D01*
X124977222Y-83052991D01*
X124893557Y-82896466D01*
X124842037Y-82726627D01*
X124824641Y-82550000D01*
X124842037Y-82373373D01*
X124893557Y-82203534D01*
X124977222Y-82047009D01*
X125006552Y-82011271D01*
X125089814Y-81909814D01*
X125191271Y-81826552D01*
X125227009Y-81797222D01*
X125383534Y-81713557D01*
X125553373Y-81662037D01*
X125619557Y-81655519D01*
X125685740Y-81649000D01*
X125774260Y-81649000D01*
X125840443Y-81655519D01*
X125840443Y-81655519D01*
G37*
G36*
X138179591Y-81778085D02*
G01*
X138213569Y-81788393D01*
X138244890Y-81805134D01*
X138272339Y-81827661D01*
X138294866Y-81855110D01*
X138311607Y-81886431D01*
X138321915Y-81920409D01*
X138326000Y-81961890D01*
X138326000Y-82563110D01*
X138321915Y-82604591D01*
X138311607Y-82638569D01*
X138294866Y-82669890D01*
X138272339Y-82697339D01*
X138244890Y-82719866D01*
X138213569Y-82736607D01*
X138179591Y-82746915D01*
X138138110Y-82751000D01*
X137461890Y-82751000D01*
X137420409Y-82746915D01*
X137386431Y-82736607D01*
X137355110Y-82719866D01*
X137327661Y-82697339D01*
X137305134Y-82669890D01*
X137288393Y-82638569D01*
X137278085Y-82604591D01*
X137274000Y-82563110D01*
X137274000Y-81961890D01*
X137278085Y-81920409D01*
X137288393Y-81886431D01*
X137305134Y-81855110D01*
X137327661Y-81827661D01*
X137355110Y-81805134D01*
X137386431Y-81788393D01*
X137420409Y-81778085D01*
X137461890Y-81774000D01*
X138138110Y-81774000D01*
X138179591Y-81778085D01*
X138179591Y-81778085D01*
G37*
G36*
X130229000Y-82407000D02*
G01*
X129467000Y-82407000D01*
X129467000Y-81255000D01*
X130229000Y-81255000D01*
X130229000Y-82407000D01*
X130229000Y-82407000D01*
G37*
G36*
X128089000Y-82407000D02*
G01*
X127327000Y-82407000D01*
X127327000Y-81255000D01*
X128089000Y-81255000D01*
X128089000Y-82407000D01*
X128089000Y-82407000D01*
G37*
G36*
X131934468Y-80453565D02*
G01*
X131973138Y-80465296D01*
X132008777Y-80484346D01*
X132040017Y-80509983D01*
X132065654Y-80541223D01*
X132084704Y-80576862D01*
X132096435Y-80615532D01*
X132101000Y-80661888D01*
X132101000Y-81738112D01*
X132096435Y-81784468D01*
X132084704Y-81823138D01*
X132065654Y-81858777D01*
X132040017Y-81890017D01*
X132008777Y-81915654D01*
X131973138Y-81934704D01*
X131934468Y-81946435D01*
X131888112Y-81951000D01*
X131236888Y-81951000D01*
X131190532Y-81946435D01*
X131151862Y-81934704D01*
X131116223Y-81915654D01*
X131084983Y-81890017D01*
X131059346Y-81858777D01*
X131040296Y-81823138D01*
X131028565Y-81784468D01*
X131024000Y-81738112D01*
X131024000Y-80661888D01*
X131028565Y-80615532D01*
X131040296Y-80576862D01*
X131059346Y-80541223D01*
X131084983Y-80509983D01*
X131116223Y-80484346D01*
X131151862Y-80465296D01*
X131190532Y-80453565D01*
X131236888Y-80449000D01*
X131888112Y-80449000D01*
X131934468Y-80453565D01*
X131934468Y-80453565D01*
G37*
G36*
X133809468Y-80453565D02*
G01*
X133848138Y-80465296D01*
X133883777Y-80484346D01*
X133915017Y-80509983D01*
X133940654Y-80541223D01*
X133959704Y-80576862D01*
X133971435Y-80615532D01*
X133976000Y-80661888D01*
X133976000Y-81738112D01*
X133971435Y-81784468D01*
X133959704Y-81823138D01*
X133940654Y-81858777D01*
X133915017Y-81890017D01*
X133883777Y-81915654D01*
X133848138Y-81934704D01*
X133809468Y-81946435D01*
X133763112Y-81951000D01*
X133111888Y-81951000D01*
X133065532Y-81946435D01*
X133026862Y-81934704D01*
X132991223Y-81915654D01*
X132959983Y-81890017D01*
X132934346Y-81858777D01*
X132915296Y-81823138D01*
X132903565Y-81784468D01*
X132899000Y-81738112D01*
X132899000Y-80661888D01*
X132903565Y-80615532D01*
X132915296Y-80576862D01*
X132934346Y-80541223D01*
X132959983Y-80509983D01*
X132991223Y-80484346D01*
X133026862Y-80465296D01*
X133065532Y-80453565D01*
X133111888Y-80449000D01*
X133763112Y-80449000D01*
X133809468Y-80453565D01*
X133809468Y-80453565D01*
G37*
G36*
X141229434Y-80203686D02*
G01*
X141269284Y-80215774D01*
X141305999Y-80235399D01*
X141338186Y-80261814D01*
X141364601Y-80294001D01*
X141384226Y-80330716D01*
X141396314Y-80370566D01*
X141401000Y-80418141D01*
X141401000Y-81081859D01*
X141396314Y-81129434D01*
X141384226Y-81169284D01*
X141364601Y-81205999D01*
X141338186Y-81238186D01*
X141305999Y-81264601D01*
X141269284Y-81284226D01*
X141229434Y-81296314D01*
X141181859Y-81301000D01*
X138018141Y-81301000D01*
X137970566Y-81296314D01*
X137930716Y-81284226D01*
X137894001Y-81264601D01*
X137861814Y-81238186D01*
X137835399Y-81205999D01*
X137815774Y-81169284D01*
X137803686Y-81129434D01*
X137799000Y-81081859D01*
X137799000Y-80418141D01*
X137803686Y-80370566D01*
X137815774Y-80330716D01*
X137835399Y-80294001D01*
X137861814Y-80261814D01*
X137894001Y-80235399D01*
X137930716Y-80215774D01*
X137970566Y-80203686D01*
X138018141Y-80199000D01*
X141181859Y-80199000D01*
X141229434Y-80203686D01*
X141229434Y-80203686D01*
G37*
G36*
X136451000Y-81051000D02*
G01*
X135149000Y-81051000D01*
X135149000Y-80049000D01*
X136451000Y-80049000D01*
X136451000Y-81051000D01*
X136451000Y-81051000D01*
G37*
G36*
X125840443Y-79115519D02*
G01*
X125906627Y-79122037D01*
X126076466Y-79173557D01*
X126232991Y-79257222D01*
X126241982Y-79264601D01*
X126370186Y-79369814D01*
X126453448Y-79471271D01*
X126482778Y-79507009D01*
X126566443Y-79663534D01*
X126617963Y-79833373D01*
X126635359Y-80010000D01*
X126617963Y-80186627D01*
X126566443Y-80356466D01*
X126482778Y-80512991D01*
X126470574Y-80527861D01*
X126370186Y-80650186D01*
X126268729Y-80733448D01*
X126232991Y-80762778D01*
X126076466Y-80846443D01*
X125906627Y-80897963D01*
X125840442Y-80904482D01*
X125774260Y-80911000D01*
X125685740Y-80911000D01*
X125619558Y-80904482D01*
X125553373Y-80897963D01*
X125383534Y-80846443D01*
X125227009Y-80762778D01*
X125191271Y-80733448D01*
X125089814Y-80650186D01*
X124989426Y-80527861D01*
X124977222Y-80512991D01*
X124893557Y-80356466D01*
X124842037Y-80186627D01*
X124824641Y-80010000D01*
X124842037Y-79833373D01*
X124893557Y-79663534D01*
X124977222Y-79507009D01*
X125006552Y-79471271D01*
X125089814Y-79369814D01*
X125218018Y-79264601D01*
X125227009Y-79257222D01*
X125383534Y-79173557D01*
X125553373Y-79122037D01*
X125619557Y-79115519D01*
X125685740Y-79109000D01*
X125774260Y-79109000D01*
X125840443Y-79115519D01*
X125840443Y-79115519D01*
G37*
G36*
X131854591Y-78978085D02*
G01*
X131888569Y-78988393D01*
X131919890Y-79005134D01*
X131947339Y-79027661D01*
X131969866Y-79055110D01*
X131986607Y-79086431D01*
X131996915Y-79120409D01*
X132001000Y-79161890D01*
X132001000Y-79838110D01*
X131996915Y-79879591D01*
X131986607Y-79913569D01*
X131969866Y-79944890D01*
X131947339Y-79972339D01*
X131919890Y-79994866D01*
X131888569Y-80011607D01*
X131854591Y-80021915D01*
X131813110Y-80026000D01*
X131211890Y-80026000D01*
X131170409Y-80021915D01*
X131136431Y-80011607D01*
X131105110Y-79994866D01*
X131077661Y-79972339D01*
X131055134Y-79944890D01*
X131038393Y-79913569D01*
X131028085Y-79879591D01*
X131024000Y-79838110D01*
X131024000Y-79161890D01*
X131028085Y-79120409D01*
X131038393Y-79086431D01*
X131055134Y-79055110D01*
X131077661Y-79027661D01*
X131105110Y-79005134D01*
X131136431Y-78988393D01*
X131170409Y-78978085D01*
X131211890Y-78974000D01*
X131813110Y-78974000D01*
X131854591Y-78978085D01*
X131854591Y-78978085D01*
G37*
G36*
X133429591Y-78978085D02*
G01*
X133463569Y-78988393D01*
X133494890Y-79005134D01*
X133522339Y-79027661D01*
X133544866Y-79055110D01*
X133561607Y-79086431D01*
X133571915Y-79120409D01*
X133576000Y-79161890D01*
X133576000Y-79838110D01*
X133571915Y-79879591D01*
X133561607Y-79913569D01*
X133544866Y-79944890D01*
X133522339Y-79972339D01*
X133494890Y-79994866D01*
X133463569Y-80011607D01*
X133429591Y-80021915D01*
X133388110Y-80026000D01*
X132786890Y-80026000D01*
X132745409Y-80021915D01*
X132711431Y-80011607D01*
X132680110Y-79994866D01*
X132652661Y-79972339D01*
X132630134Y-79944890D01*
X132613393Y-79913569D01*
X132603085Y-79879591D01*
X132599000Y-79838110D01*
X132599000Y-79161890D01*
X132603085Y-79120409D01*
X132613393Y-79086431D01*
X132630134Y-79055110D01*
X132652661Y-79027661D01*
X132680110Y-79005134D01*
X132711431Y-78988393D01*
X132745409Y-78978085D01*
X132786890Y-78974000D01*
X133388110Y-78974000D01*
X133429591Y-78978085D01*
X133429591Y-78978085D01*
G37*
G36*
X141229434Y-78203686D02*
G01*
X141269284Y-78215774D01*
X141305999Y-78235399D01*
X141338186Y-78261814D01*
X141364601Y-78294001D01*
X141384226Y-78330716D01*
X141396314Y-78370566D01*
X141401000Y-78418141D01*
X141401000Y-79081859D01*
X141396314Y-79129434D01*
X141384226Y-79169284D01*
X141364601Y-79205999D01*
X141338186Y-79238186D01*
X141305999Y-79264601D01*
X141269284Y-79284226D01*
X141229434Y-79296314D01*
X141181859Y-79301000D01*
X138018141Y-79301000D01*
X137970566Y-79296314D01*
X137930716Y-79284226D01*
X137894001Y-79264601D01*
X137861814Y-79238186D01*
X137835399Y-79205999D01*
X137815774Y-79169284D01*
X137803686Y-79129434D01*
X137799000Y-79081859D01*
X137799000Y-78418141D01*
X137803686Y-78370566D01*
X137815774Y-78330716D01*
X137835399Y-78294001D01*
X137861814Y-78261814D01*
X137894001Y-78235399D01*
X137930716Y-78215774D01*
X137970566Y-78203686D01*
X138018141Y-78199000D01*
X141181859Y-78199000D01*
X141229434Y-78203686D01*
X141229434Y-78203686D01*
G37*
G36*
X135226000Y-79101000D02*
G01*
X134474000Y-79101000D01*
X134474000Y-77299000D01*
X135226000Y-77299000D01*
X135226000Y-79101000D01*
X135226000Y-79101000D01*
G37*
G36*
X137126000Y-79101000D02*
G01*
X136374000Y-79101000D01*
X136374000Y-77299000D01*
X137126000Y-77299000D01*
X137126000Y-79101000D01*
X137126000Y-79101000D01*
G37*
G36*
X133429591Y-77528085D02*
G01*
X133463569Y-77538393D01*
X133494890Y-77555134D01*
X133522339Y-77577661D01*
X133544866Y-77605110D01*
X133561607Y-77636431D01*
X133571915Y-77670409D01*
X133576000Y-77711890D01*
X133576000Y-78388110D01*
X133571915Y-78429591D01*
X133561607Y-78463569D01*
X133544866Y-78494890D01*
X133522339Y-78522339D01*
X133494890Y-78544866D01*
X133463569Y-78561607D01*
X133429591Y-78571915D01*
X133388110Y-78576000D01*
X132786890Y-78576000D01*
X132745409Y-78571915D01*
X132711431Y-78561607D01*
X132680110Y-78544866D01*
X132652661Y-78522339D01*
X132630134Y-78494890D01*
X132613393Y-78463569D01*
X132603085Y-78429591D01*
X132599000Y-78388110D01*
X132599000Y-77711890D01*
X132603085Y-77670409D01*
X132613393Y-77636431D01*
X132630134Y-77605110D01*
X132652661Y-77577661D01*
X132680110Y-77555134D01*
X132711431Y-77538393D01*
X132745409Y-77528085D01*
X132786890Y-77524000D01*
X133388110Y-77524000D01*
X133429591Y-77528085D01*
X133429591Y-77528085D01*
G37*
G36*
X131854591Y-77528085D02*
G01*
X131888569Y-77538393D01*
X131919890Y-77555134D01*
X131947339Y-77577661D01*
X131969866Y-77605110D01*
X131986607Y-77636431D01*
X131996915Y-77670409D01*
X132001000Y-77711890D01*
X132001000Y-78388110D01*
X131996915Y-78429591D01*
X131986607Y-78463569D01*
X131969866Y-78494890D01*
X131947339Y-78522339D01*
X131919890Y-78544866D01*
X131888569Y-78561607D01*
X131854591Y-78571915D01*
X131813110Y-78576000D01*
X131211890Y-78576000D01*
X131170409Y-78571915D01*
X131136431Y-78561607D01*
X131105110Y-78544866D01*
X131077661Y-78522339D01*
X131055134Y-78494890D01*
X131038393Y-78463569D01*
X131028085Y-78429591D01*
X131024000Y-78388110D01*
X131024000Y-77711890D01*
X131028085Y-77670409D01*
X131038393Y-77636431D01*
X131055134Y-77605110D01*
X131077661Y-77577661D01*
X131105110Y-77555134D01*
X131136431Y-77538393D01*
X131170409Y-77528085D01*
X131211890Y-77524000D01*
X131813110Y-77524000D01*
X131854591Y-77528085D01*
X131854591Y-77528085D01*
G37*
G36*
X125840443Y-76575519D02*
G01*
X125906627Y-76582037D01*
X126076466Y-76633557D01*
X126232991Y-76717222D01*
X126268729Y-76746552D01*
X126370186Y-76829814D01*
X126451914Y-76929401D01*
X126482778Y-76967009D01*
X126506395Y-77011193D01*
X126539079Y-77072339D01*
X126566443Y-77123534D01*
X126617963Y-77293373D01*
X126635359Y-77470000D01*
X126617963Y-77646627D01*
X126566443Y-77816466D01*
X126482778Y-77972991D01*
X126453448Y-78008729D01*
X126370186Y-78110186D01*
X126268729Y-78193448D01*
X126232991Y-78222778D01*
X126076466Y-78306443D01*
X125906627Y-78357963D01*
X125840443Y-78364481D01*
X125774260Y-78371000D01*
X125685740Y-78371000D01*
X125619557Y-78364481D01*
X125553373Y-78357963D01*
X125383534Y-78306443D01*
X125227009Y-78222778D01*
X125191271Y-78193448D01*
X125089814Y-78110186D01*
X125006552Y-78008729D01*
X124977222Y-77972991D01*
X124893557Y-77816466D01*
X124842037Y-77646627D01*
X124824641Y-77470000D01*
X124842037Y-77293373D01*
X124893557Y-77123534D01*
X124920922Y-77072339D01*
X124953605Y-77011193D01*
X124977222Y-76967009D01*
X125008086Y-76929401D01*
X125089814Y-76829814D01*
X125191271Y-76746552D01*
X125227009Y-76717222D01*
X125383534Y-76633557D01*
X125553373Y-76582037D01*
X125619557Y-76575519D01*
X125685740Y-76569000D01*
X125774260Y-76569000D01*
X125840443Y-76575519D01*
X125840443Y-76575519D01*
G37*
G36*
X128089000Y-78257000D02*
G01*
X127327000Y-78257000D01*
X127327000Y-77105000D01*
X128089000Y-77105000D01*
X128089000Y-78257000D01*
X128089000Y-78257000D01*
G37*
G36*
X130229000Y-78257000D02*
G01*
X129467000Y-78257000D01*
X129467000Y-77105000D01*
X130229000Y-77105000D01*
X130229000Y-78257000D01*
X130229000Y-78257000D01*
G37*
G36*
X146953048Y-75603122D02*
G01*
X146987387Y-75613539D01*
X147019036Y-75630456D01*
X147046778Y-75653222D01*
X147069544Y-75680964D01*
X147086461Y-75712613D01*
X147096878Y-75746952D01*
X147101000Y-75788807D01*
X147101000Y-77011193D01*
X147096878Y-77053048D01*
X147086461Y-77087387D01*
X147069544Y-77119036D01*
X147046778Y-77146778D01*
X147019036Y-77169544D01*
X146987387Y-77186461D01*
X146953048Y-77196878D01*
X146911193Y-77201000D01*
X143788807Y-77201000D01*
X143746952Y-77196878D01*
X143712613Y-77186461D01*
X143680964Y-77169544D01*
X143653222Y-77146778D01*
X143630456Y-77119036D01*
X143613539Y-77087387D01*
X143603122Y-77053048D01*
X143599000Y-77011193D01*
X143599000Y-75788807D01*
X143603122Y-75746952D01*
X143613539Y-75712613D01*
X143630456Y-75680964D01*
X143653222Y-75653222D01*
X143680964Y-75630456D01*
X143712613Y-75613539D01*
X143746952Y-75603122D01*
X143788807Y-75599000D01*
X146911193Y-75599000D01*
X146953048Y-75603122D01*
X146953048Y-75603122D01*
G37*
G36*
X131854591Y-76078085D02*
G01*
X131888569Y-76088393D01*
X131919890Y-76105134D01*
X131947339Y-76127661D01*
X131969866Y-76155110D01*
X131986607Y-76186431D01*
X131996915Y-76220409D01*
X132001000Y-76261890D01*
X132001000Y-76938110D01*
X131996915Y-76979591D01*
X131986607Y-77013569D01*
X131969866Y-77044890D01*
X131947339Y-77072339D01*
X131919890Y-77094866D01*
X131888569Y-77111607D01*
X131854591Y-77121915D01*
X131813110Y-77126000D01*
X131211890Y-77126000D01*
X131170409Y-77121915D01*
X131136431Y-77111607D01*
X131105110Y-77094866D01*
X131077661Y-77072339D01*
X131055134Y-77044890D01*
X131038393Y-77013569D01*
X131028085Y-76979591D01*
X131024000Y-76938110D01*
X131024000Y-76261890D01*
X131028085Y-76220409D01*
X131038393Y-76186431D01*
X131055134Y-76155110D01*
X131077661Y-76127661D01*
X131105110Y-76105134D01*
X131136431Y-76088393D01*
X131170409Y-76078085D01*
X131211890Y-76074000D01*
X131813110Y-76074000D01*
X131854591Y-76078085D01*
X131854591Y-76078085D01*
G37*
G36*
X133429591Y-76078085D02*
G01*
X133463569Y-76088393D01*
X133494890Y-76105134D01*
X133522339Y-76127661D01*
X133544866Y-76155110D01*
X133561607Y-76186431D01*
X133571915Y-76220409D01*
X133576000Y-76261890D01*
X133576000Y-76938110D01*
X133571915Y-76979591D01*
X133561607Y-77013569D01*
X133544866Y-77044890D01*
X133522339Y-77072339D01*
X133494890Y-77094866D01*
X133463569Y-77111607D01*
X133429591Y-77121915D01*
X133388110Y-77126000D01*
X132786890Y-77126000D01*
X132745409Y-77121915D01*
X132711431Y-77111607D01*
X132680110Y-77094866D01*
X132652661Y-77072339D01*
X132630134Y-77044890D01*
X132613393Y-77013569D01*
X132603085Y-76979591D01*
X132599000Y-76938110D01*
X132599000Y-76261890D01*
X132603085Y-76220409D01*
X132613393Y-76186431D01*
X132630134Y-76155110D01*
X132652661Y-76127661D01*
X132680110Y-76105134D01*
X132711431Y-76088393D01*
X132745409Y-76078085D01*
X132786890Y-76074000D01*
X133388110Y-76074000D01*
X133429591Y-76078085D01*
X133429591Y-76078085D01*
G37*
G36*
X128516938Y-75831716D02*
G01*
X128537557Y-75837971D01*
X128556553Y-75848124D01*
X128573208Y-75861792D01*
X128586876Y-75878447D01*
X128597029Y-75897443D01*
X128601383Y-75911795D01*
X128610761Y-75934434D01*
X128624374Y-75954808D01*
X128641701Y-75972135D01*
X128662076Y-75985749D01*
X128684714Y-75995127D01*
X128708748Y-75999907D01*
X128733252Y-75999907D01*
X128757285Y-75995127D01*
X128779924Y-75985749D01*
X128800298Y-75972136D01*
X128817625Y-75954809D01*
X128831239Y-75934434D01*
X128840617Y-75911795D01*
X128844971Y-75897443D01*
X128855124Y-75878447D01*
X128868792Y-75861792D01*
X128885447Y-75848124D01*
X128904443Y-75837971D01*
X128925062Y-75831716D01*
X128952640Y-75829000D01*
X129411360Y-75829000D01*
X129438938Y-75831716D01*
X129459557Y-75837971D01*
X129478553Y-75848124D01*
X129495208Y-75861792D01*
X129508876Y-75878447D01*
X129519029Y-75897443D01*
X129525284Y-75918062D01*
X129528000Y-75945640D01*
X129528000Y-76454360D01*
X129525284Y-76481938D01*
X129519029Y-76502557D01*
X129508876Y-76521553D01*
X129495208Y-76538208D01*
X129478553Y-76551876D01*
X129459557Y-76562029D01*
X129438938Y-76568284D01*
X129411360Y-76571000D01*
X128952640Y-76571000D01*
X128925062Y-76568284D01*
X128904443Y-76562029D01*
X128885447Y-76551876D01*
X128868792Y-76538208D01*
X128855124Y-76521553D01*
X128844971Y-76502557D01*
X128840617Y-76488205D01*
X128831239Y-76465566D01*
X128817626Y-76445192D01*
X128800299Y-76427865D01*
X128779924Y-76414251D01*
X128757286Y-76404873D01*
X128733252Y-76400093D01*
X128708748Y-76400093D01*
X128684715Y-76404873D01*
X128662076Y-76414251D01*
X128641702Y-76427864D01*
X128624375Y-76445191D01*
X128610761Y-76465566D01*
X128601383Y-76488205D01*
X128597029Y-76502557D01*
X128586876Y-76521553D01*
X128573208Y-76538208D01*
X128556553Y-76551876D01*
X128537557Y-76562029D01*
X128516938Y-76568284D01*
X128489360Y-76571000D01*
X128030640Y-76571000D01*
X128003062Y-76568284D01*
X127982443Y-76562029D01*
X127963447Y-76551876D01*
X127946792Y-76538208D01*
X127933124Y-76521553D01*
X127922971Y-76502557D01*
X127916716Y-76481938D01*
X127914000Y-76454360D01*
X127914000Y-75945640D01*
X127916716Y-75918062D01*
X127922971Y-75897443D01*
X127933124Y-75878447D01*
X127946792Y-75861792D01*
X127963447Y-75848124D01*
X127982443Y-75837971D01*
X128003062Y-75831716D01*
X128030640Y-75829000D01*
X128489360Y-75829000D01*
X128516938Y-75831716D01*
X128516938Y-75831716D01*
G37*
G36*
X130408938Y-75831716D02*
G01*
X130429557Y-75837971D01*
X130448553Y-75848124D01*
X130465208Y-75861792D01*
X130478876Y-75878447D01*
X130489029Y-75897443D01*
X130495284Y-75918062D01*
X130498000Y-75945640D01*
X130498000Y-76454360D01*
X130495284Y-76481938D01*
X130489029Y-76502557D01*
X130478876Y-76521553D01*
X130465208Y-76538208D01*
X130448553Y-76551876D01*
X130429557Y-76562029D01*
X130408938Y-76568284D01*
X130381360Y-76571000D01*
X129922640Y-76571000D01*
X129895062Y-76568284D01*
X129874443Y-76562029D01*
X129855447Y-76551876D01*
X129838792Y-76538208D01*
X129825124Y-76521553D01*
X129814971Y-76502557D01*
X129808716Y-76481938D01*
X129806000Y-76454360D01*
X129806000Y-75945640D01*
X129808716Y-75918062D01*
X129814971Y-75897443D01*
X129825124Y-75878447D01*
X129838792Y-75861792D01*
X129855447Y-75848124D01*
X129874443Y-75837971D01*
X129895062Y-75831716D01*
X129922640Y-75829000D01*
X130381360Y-75829000D01*
X130408938Y-75831716D01*
X130408938Y-75831716D01*
G37*
G36*
X127546938Y-75831716D02*
G01*
X127567557Y-75837971D01*
X127586553Y-75848124D01*
X127603208Y-75861792D01*
X127616876Y-75878447D01*
X127627029Y-75897443D01*
X127633284Y-75918062D01*
X127636000Y-75945640D01*
X127636000Y-76454360D01*
X127633284Y-76481938D01*
X127627029Y-76502557D01*
X127616876Y-76521553D01*
X127603208Y-76538208D01*
X127586553Y-76551876D01*
X127567557Y-76562029D01*
X127546938Y-76568284D01*
X127519360Y-76571000D01*
X127060640Y-76571000D01*
X127033062Y-76568284D01*
X127012443Y-76562029D01*
X126993447Y-76551876D01*
X126976792Y-76538208D01*
X126963124Y-76521553D01*
X126952971Y-76502557D01*
X126946716Y-76481938D01*
X126944000Y-76454360D01*
X126944000Y-75945640D01*
X126946716Y-75918062D01*
X126952971Y-75897443D01*
X126963124Y-75878447D01*
X126976792Y-75861792D01*
X126993447Y-75848124D01*
X127012443Y-75837971D01*
X127033062Y-75831716D01*
X127060640Y-75829000D01*
X127519360Y-75829000D01*
X127546938Y-75831716D01*
X127546938Y-75831716D01*
G37*
G36*
X125840442Y-74035518D02*
G01*
X125906627Y-74042037D01*
X126076466Y-74093557D01*
X126232991Y-74177222D01*
X126261796Y-74200862D01*
X126370186Y-74289814D01*
X126449616Y-74386601D01*
X126482778Y-74427009D01*
X126566443Y-74583534D01*
X126617963Y-74753373D01*
X126635359Y-74930000D01*
X126617963Y-75106627D01*
X126566443Y-75276466D01*
X126482778Y-75432991D01*
X126453448Y-75468729D01*
X126370186Y-75570186D01*
X126280244Y-75643998D01*
X126232991Y-75682778D01*
X126076466Y-75766443D01*
X125906627Y-75817963D01*
X125840442Y-75824482D01*
X125774260Y-75831000D01*
X125685740Y-75831000D01*
X125619558Y-75824482D01*
X125553373Y-75817963D01*
X125383534Y-75766443D01*
X125227009Y-75682778D01*
X125179756Y-75643998D01*
X125089814Y-75570186D01*
X125006552Y-75468729D01*
X124977222Y-75432991D01*
X124893557Y-75276466D01*
X124842037Y-75106627D01*
X124824641Y-74930000D01*
X124842037Y-74753373D01*
X124893557Y-74583534D01*
X124977222Y-74427009D01*
X125010384Y-74386601D01*
X125089814Y-74289814D01*
X125198204Y-74200862D01*
X125227009Y-74177222D01*
X125383534Y-74093557D01*
X125553373Y-74042037D01*
X125619558Y-74035518D01*
X125685740Y-74029000D01*
X125774260Y-74029000D01*
X125840442Y-74035518D01*
X125840442Y-74035518D01*
G37*
G36*
X128579000Y-75169000D02*
G01*
X127477000Y-75169000D01*
X127477000Y-73167000D01*
X128579000Y-73167000D01*
X128579000Y-75169000D01*
X128579000Y-75169000D01*
G37*
G36*
X130079000Y-75169000D02*
G01*
X128977000Y-75169000D01*
X128977000Y-73167000D01*
X130079000Y-73167000D01*
X130079000Y-75169000D01*
X130079000Y-75169000D01*
G37*
G36*
X133102383Y-72994489D02*
G01*
X133102386Y-72994490D01*
X133102385Y-72994490D01*
X133166258Y-73020946D01*
X133223748Y-73059360D01*
X133272640Y-73108252D01*
X133311054Y-73165742D01*
X133313930Y-73172686D01*
X133337511Y-73229617D01*
X133351000Y-73297430D01*
X133351000Y-73366570D01*
X133337511Y-73434383D01*
X133337510Y-73434385D01*
X133311054Y-73498258D01*
X133266246Y-73565317D01*
X133265230Y-73566555D01*
X133253679Y-73588166D01*
X133246566Y-73611615D01*
X133244164Y-73636001D01*
X133246566Y-73660387D01*
X133253679Y-73683836D01*
X133265230Y-73705447D01*
X133280775Y-73724389D01*
X133299717Y-73739934D01*
X133321328Y-73751485D01*
X133344777Y-73758598D01*
X133369163Y-73761000D01*
X138410837Y-73761000D01*
X138435223Y-73758598D01*
X138458672Y-73751485D01*
X138480283Y-73739934D01*
X138499225Y-73724389D01*
X138514770Y-73705447D01*
X138526321Y-73683836D01*
X138533434Y-73660387D01*
X138535836Y-73636001D01*
X138533434Y-73611615D01*
X138526321Y-73588166D01*
X138514770Y-73566555D01*
X138513754Y-73565317D01*
X138468946Y-73498258D01*
X138442490Y-73434385D01*
X138442489Y-73434383D01*
X138429000Y-73366570D01*
X138429000Y-73297430D01*
X138442489Y-73229617D01*
X138466070Y-73172686D01*
X138468946Y-73165742D01*
X138507360Y-73108252D01*
X138556252Y-73059360D01*
X138613742Y-73020946D01*
X138677615Y-72994490D01*
X138677614Y-72994490D01*
X138677617Y-72994489D01*
X138745430Y-72981000D01*
X138814570Y-72981000D01*
X138882383Y-72994489D01*
X138882386Y-72994490D01*
X138882385Y-72994490D01*
X138946258Y-73020946D01*
X139003748Y-73059360D01*
X139052640Y-73108252D01*
X139091054Y-73165742D01*
X139093930Y-73172686D01*
X139117511Y-73229617D01*
X139131000Y-73297430D01*
X139131000Y-73366570D01*
X139117511Y-73434383D01*
X139117510Y-73434385D01*
X139091054Y-73498258D01*
X139046246Y-73565317D01*
X139045230Y-73566555D01*
X139033679Y-73588166D01*
X139026566Y-73611615D01*
X139024164Y-73636001D01*
X139026566Y-73660387D01*
X139033679Y-73683836D01*
X139045230Y-73705447D01*
X139060775Y-73724389D01*
X139079717Y-73739934D01*
X139101328Y-73751485D01*
X139124777Y-73758598D01*
X139149163Y-73761000D01*
X139441000Y-73761000D01*
X139441000Y-75023000D01*
X132339000Y-75023000D01*
X132339000Y-73761000D01*
X132630837Y-73761000D01*
X132655223Y-73758598D01*
X132678672Y-73751485D01*
X132700283Y-73739934D01*
X132719225Y-73724389D01*
X132734770Y-73705447D01*
X132746321Y-73683836D01*
X132753434Y-73660387D01*
X132755836Y-73636001D01*
X132753434Y-73611615D01*
X132746321Y-73588166D01*
X132734770Y-73566555D01*
X132733754Y-73565317D01*
X132688946Y-73498258D01*
X132662490Y-73434385D01*
X132662489Y-73434383D01*
X132649000Y-73366570D01*
X132649000Y-73297430D01*
X132662489Y-73229617D01*
X132686070Y-73172686D01*
X132688946Y-73165742D01*
X132727360Y-73108252D01*
X132776252Y-73059360D01*
X132833742Y-73020946D01*
X132897615Y-72994490D01*
X132897614Y-72994490D01*
X132897617Y-72994489D01*
X132965430Y-72981000D01*
X133034570Y-72981000D01*
X133102383Y-72994489D01*
X133102383Y-72994489D01*
G37*
G36*
X131668213Y-72768249D02*
G01*
X131762652Y-72796897D01*
X131849687Y-72843418D01*
X131925975Y-72906025D01*
X131988582Y-72982313D01*
X132035103Y-73069348D01*
X132063751Y-73163787D01*
X132071000Y-73237388D01*
X132071000Y-74386612D01*
X132063751Y-74460213D01*
X132035103Y-74554652D01*
X131988582Y-74641687D01*
X131925975Y-74717975D01*
X131849687Y-74780582D01*
X131762651Y-74827103D01*
X131668212Y-74855751D01*
X131570000Y-74865424D01*
X131471787Y-74855751D01*
X131377348Y-74827103D01*
X131290313Y-74780582D01*
X131214025Y-74717975D01*
X131151418Y-74641687D01*
X131104897Y-74554651D01*
X131076249Y-74460212D01*
X131069000Y-74386611D01*
X131069001Y-73237388D01*
X131076250Y-73163787D01*
X131104898Y-73069348D01*
X131151419Y-72982313D01*
X131214026Y-72906025D01*
X131290314Y-72843418D01*
X131377349Y-72796897D01*
X131471788Y-72768249D01*
X131570000Y-72758576D01*
X131668213Y-72768249D01*
X131668213Y-72768249D01*
G37*
G36*
X140308213Y-72768249D02*
G01*
X140402652Y-72796897D01*
X140489687Y-72843418D01*
X140565975Y-72906025D01*
X140628582Y-72982313D01*
X140675103Y-73069348D01*
X140703751Y-73163787D01*
X140711000Y-73237388D01*
X140711000Y-74386612D01*
X140703751Y-74460213D01*
X140675103Y-74554652D01*
X140628582Y-74641687D01*
X140565975Y-74717975D01*
X140489687Y-74780582D01*
X140402651Y-74827103D01*
X140308212Y-74855751D01*
X140210000Y-74865424D01*
X140111787Y-74855751D01*
X140017348Y-74827103D01*
X139930313Y-74780582D01*
X139854025Y-74717975D01*
X139791418Y-74641687D01*
X139744897Y-74554651D01*
X139716249Y-74460212D01*
X139709000Y-74386611D01*
X139709001Y-73237388D01*
X139716250Y-73163787D01*
X139744898Y-73069348D01*
X139791419Y-72982313D01*
X139854026Y-72906025D01*
X139930314Y-72843418D01*
X140017349Y-72796897D01*
X140111788Y-72768249D01*
X140210000Y-72758576D01*
X140308213Y-72768249D01*
X140308213Y-72768249D01*
G37*
G36*
X142014338Y-74114516D02*
G01*
X142034957Y-74120771D01*
X142053953Y-74130924D01*
X142070608Y-74144592D01*
X142084276Y-74161247D01*
X142094429Y-74180243D01*
X142100684Y-74200862D01*
X142103400Y-74228440D01*
X142103400Y-74737160D01*
X142100684Y-74764738D01*
X142094429Y-74785357D01*
X142084276Y-74804353D01*
X142070608Y-74821008D01*
X142053953Y-74834676D01*
X142034957Y-74844829D01*
X142014338Y-74851084D01*
X141986760Y-74853800D01*
X141528040Y-74853800D01*
X141500462Y-74851084D01*
X141479843Y-74844829D01*
X141460847Y-74834676D01*
X141444192Y-74821008D01*
X141430524Y-74804353D01*
X141420371Y-74785357D01*
X141414116Y-74764738D01*
X141411400Y-74737160D01*
X141411400Y-74228440D01*
X141414116Y-74200862D01*
X141420371Y-74180243D01*
X141430524Y-74161247D01*
X141444192Y-74144592D01*
X141460847Y-74130924D01*
X141479843Y-74120771D01*
X141500462Y-74114516D01*
X141528040Y-74111800D01*
X141986760Y-74111800D01*
X142014338Y-74114516D01*
X142014338Y-74114516D01*
G37*
G36*
X142984338Y-74114516D02*
G01*
X143004957Y-74120771D01*
X143023953Y-74130924D01*
X143040608Y-74144592D01*
X143054276Y-74161247D01*
X143064429Y-74180243D01*
X143070684Y-74200862D01*
X143073400Y-74228440D01*
X143073400Y-74737160D01*
X143070684Y-74764738D01*
X143064429Y-74785357D01*
X143054276Y-74804353D01*
X143040608Y-74821008D01*
X143023953Y-74834676D01*
X143004957Y-74844829D01*
X142984338Y-74851084D01*
X142956760Y-74853800D01*
X142498040Y-74853800D01*
X142470462Y-74851084D01*
X142449843Y-74844829D01*
X142430847Y-74834676D01*
X142414192Y-74821008D01*
X142400524Y-74804353D01*
X142390371Y-74785357D01*
X142384116Y-74764738D01*
X142381400Y-74737160D01*
X142381400Y-74228440D01*
X142384116Y-74200862D01*
X142390371Y-74180243D01*
X142400524Y-74161247D01*
X142414192Y-74144592D01*
X142430847Y-74130924D01*
X142449843Y-74120771D01*
X142470462Y-74114516D01*
X142498040Y-74111800D01*
X142956760Y-74111800D01*
X142984338Y-74114516D01*
X142984338Y-74114516D01*
G37*
G36*
X144644591Y-73688085D02*
G01*
X144678569Y-73698393D01*
X144709890Y-73715134D01*
X144737339Y-73737661D01*
X144759866Y-73765110D01*
X144776607Y-73796431D01*
X144786915Y-73830409D01*
X144791000Y-73871890D01*
X144791000Y-74548110D01*
X144786915Y-74589591D01*
X144776607Y-74623569D01*
X144759866Y-74654890D01*
X144737339Y-74682339D01*
X144709890Y-74704866D01*
X144678569Y-74721607D01*
X144644591Y-74731915D01*
X144603110Y-74736000D01*
X144001890Y-74736000D01*
X143960409Y-74731915D01*
X143926431Y-74721607D01*
X143895110Y-74704866D01*
X143867661Y-74682339D01*
X143845134Y-74654890D01*
X143828393Y-74623569D01*
X143818085Y-74589591D01*
X143814000Y-74548110D01*
X143814000Y-73871890D01*
X143818085Y-73830409D01*
X143828393Y-73796431D01*
X143845134Y-73765110D01*
X143867661Y-73737661D01*
X143895110Y-73715134D01*
X143926431Y-73698393D01*
X143960409Y-73688085D01*
X144001890Y-73684000D01*
X144603110Y-73684000D01*
X144644591Y-73688085D01*
X144644591Y-73688085D01*
G37*
G36*
X146219591Y-73688085D02*
G01*
X146253569Y-73698393D01*
X146284890Y-73715134D01*
X146312339Y-73737661D01*
X146334866Y-73765110D01*
X146351607Y-73796431D01*
X146361915Y-73830409D01*
X146366000Y-73871890D01*
X146366000Y-74548110D01*
X146361915Y-74589591D01*
X146351607Y-74623569D01*
X146334866Y-74654890D01*
X146312339Y-74682339D01*
X146284890Y-74704866D01*
X146253569Y-74721607D01*
X146219591Y-74731915D01*
X146178110Y-74736000D01*
X145576890Y-74736000D01*
X145535409Y-74731915D01*
X145501431Y-74721607D01*
X145470110Y-74704866D01*
X145442661Y-74682339D01*
X145420134Y-74654890D01*
X145403393Y-74623569D01*
X145393085Y-74589591D01*
X145389000Y-74548110D01*
X145389000Y-73871890D01*
X145393085Y-73830409D01*
X145403393Y-73796431D01*
X145420134Y-73765110D01*
X145442661Y-73737661D01*
X145470110Y-73715134D01*
X145501431Y-73698393D01*
X145535409Y-73688085D01*
X145576890Y-73684000D01*
X146178110Y-73684000D01*
X146219591Y-73688085D01*
X146219591Y-73688085D01*
G37*
G36*
X142014338Y-73098516D02*
G01*
X142034957Y-73104771D01*
X142053953Y-73114924D01*
X142070608Y-73128592D01*
X142084276Y-73145247D01*
X142094429Y-73164243D01*
X142100684Y-73184862D01*
X142103400Y-73212440D01*
X142103400Y-73721160D01*
X142100684Y-73748738D01*
X142094429Y-73769357D01*
X142084276Y-73788353D01*
X142070608Y-73805008D01*
X142053953Y-73818676D01*
X142034957Y-73828829D01*
X142014338Y-73835084D01*
X141986760Y-73837800D01*
X141528040Y-73837800D01*
X141500462Y-73835084D01*
X141479843Y-73828829D01*
X141460847Y-73818676D01*
X141444192Y-73805008D01*
X141430524Y-73788353D01*
X141420371Y-73769357D01*
X141414116Y-73748738D01*
X141411400Y-73721160D01*
X141411400Y-73212440D01*
X141414116Y-73184862D01*
X141420371Y-73164243D01*
X141430524Y-73145247D01*
X141444192Y-73128592D01*
X141460847Y-73114924D01*
X141479843Y-73104771D01*
X141500462Y-73098516D01*
X141528040Y-73095800D01*
X141986760Y-73095800D01*
X142014338Y-73098516D01*
X142014338Y-73098516D01*
G37*
G36*
X142984338Y-73098516D02*
G01*
X143004957Y-73104771D01*
X143023953Y-73114924D01*
X143040608Y-73128592D01*
X143054276Y-73145247D01*
X143064429Y-73164243D01*
X143070684Y-73184862D01*
X143073400Y-73212440D01*
X143073400Y-73721160D01*
X143070684Y-73748738D01*
X143064429Y-73769357D01*
X143054276Y-73788353D01*
X143040608Y-73805008D01*
X143023953Y-73818676D01*
X143004957Y-73828829D01*
X142984338Y-73835084D01*
X142956760Y-73837800D01*
X142498040Y-73837800D01*
X142470462Y-73835084D01*
X142449843Y-73828829D01*
X142430847Y-73818676D01*
X142414192Y-73805008D01*
X142400524Y-73788353D01*
X142390371Y-73769357D01*
X142384116Y-73748738D01*
X142381400Y-73721160D01*
X142381400Y-73212440D01*
X142384116Y-73184862D01*
X142390371Y-73164243D01*
X142400524Y-73145247D01*
X142414192Y-73128592D01*
X142430847Y-73114924D01*
X142449843Y-73104771D01*
X142470462Y-73098516D01*
X142498040Y-73095800D01*
X142956760Y-73095800D01*
X142984338Y-73098516D01*
X142984338Y-73098516D01*
G37*
G36*
X145257932Y-69544466D02*
G01*
X145556119Y-69667979D01*
X145556121Y-69667980D01*
X145824483Y-69847294D01*
X146052706Y-70075517D01*
X146232020Y-70343879D01*
X146232021Y-70343881D01*
X146355534Y-70642068D01*
X146418500Y-70958620D01*
X146418500Y-71281380D01*
X146355534Y-71597932D01*
X146280430Y-71779249D01*
X146232020Y-71896121D01*
X146052706Y-72164483D01*
X145824483Y-72392706D01*
X145556121Y-72572020D01*
X145556120Y-72572021D01*
X145556119Y-72572021D01*
X145257932Y-72695534D01*
X144941380Y-72758500D01*
X144618620Y-72758500D01*
X144302068Y-72695534D01*
X144003881Y-72572021D01*
X144003880Y-72572021D01*
X144003879Y-72572020D01*
X143735517Y-72392706D01*
X143507294Y-72164483D01*
X143327980Y-71896121D01*
X143279570Y-71779249D01*
X143204466Y-71597932D01*
X143141500Y-71281380D01*
X143141500Y-70958620D01*
X143204466Y-70642068D01*
X143327979Y-70343881D01*
X143327980Y-70343879D01*
X143507294Y-70075517D01*
X143735517Y-69847294D01*
X144003879Y-69667980D01*
X144003881Y-69667979D01*
X144302068Y-69544466D01*
X144618620Y-69481500D01*
X144941380Y-69481500D01*
X145257932Y-69544466D01*
X145257932Y-69544466D01*
G37*
G36*
X127477932Y-69544466D02*
G01*
X127776119Y-69667979D01*
X127776121Y-69667980D01*
X128044483Y-69847294D01*
X128272706Y-70075517D01*
X128452020Y-70343879D01*
X128452021Y-70343881D01*
X128575534Y-70642068D01*
X128638500Y-70958620D01*
X128638500Y-71281380D01*
X128575534Y-71597932D01*
X128500430Y-71779249D01*
X128452020Y-71896121D01*
X128272706Y-72164483D01*
X128044483Y-72392706D01*
X127776121Y-72572020D01*
X127776120Y-72572021D01*
X127776119Y-72572021D01*
X127477932Y-72695534D01*
X127161380Y-72758500D01*
X126838620Y-72758500D01*
X126522068Y-72695534D01*
X126223881Y-72572021D01*
X126223880Y-72572021D01*
X126223879Y-72572020D01*
X125955517Y-72392706D01*
X125727294Y-72164483D01*
X125547980Y-71896121D01*
X125499570Y-71779249D01*
X125424466Y-71597932D01*
X125361500Y-71281380D01*
X125361500Y-70958620D01*
X125424466Y-70642068D01*
X125547979Y-70343881D01*
X125547980Y-70343879D01*
X125727294Y-70075517D01*
X125955517Y-69847294D01*
X126223879Y-69667980D01*
X126223881Y-69667979D01*
X126522068Y-69544466D01*
X126838620Y-69481500D01*
X127161380Y-69481500D01*
X127477932Y-69544466D01*
X127477932Y-69544466D01*
G37*
G36*
X142416391Y-71626285D02*
G01*
X142450369Y-71636593D01*
X142481690Y-71653334D01*
X142509139Y-71675861D01*
X142531666Y-71703310D01*
X142548407Y-71734631D01*
X142558715Y-71768609D01*
X142562800Y-71810090D01*
X142562800Y-72411310D01*
X142558715Y-72452791D01*
X142548407Y-72486769D01*
X142531666Y-72518090D01*
X142509139Y-72545539D01*
X142481690Y-72568066D01*
X142450369Y-72584807D01*
X142416391Y-72595115D01*
X142374910Y-72599200D01*
X141698690Y-72599200D01*
X141657209Y-72595115D01*
X141623231Y-72584807D01*
X141591910Y-72568066D01*
X141564461Y-72545539D01*
X141541934Y-72518090D01*
X141525193Y-72486769D01*
X141514885Y-72452791D01*
X141510800Y-72411310D01*
X141510800Y-71810090D01*
X141514885Y-71768609D01*
X141525193Y-71734631D01*
X141541934Y-71703310D01*
X141564461Y-71675861D01*
X141591910Y-71653334D01*
X141623231Y-71636593D01*
X141657209Y-71626285D01*
X141698690Y-71622200D01*
X142374910Y-71622200D01*
X142416391Y-71626285D01*
X142416391Y-71626285D01*
G37*
G36*
X130202938Y-71642716D02*
G01*
X130223557Y-71648971D01*
X130242553Y-71659124D01*
X130259208Y-71672792D01*
X130272876Y-71689447D01*
X130283029Y-71708443D01*
X130289284Y-71729062D01*
X130292000Y-71756640D01*
X130292000Y-72215360D01*
X130289284Y-72242938D01*
X130283029Y-72263557D01*
X130272876Y-72282553D01*
X130259208Y-72299208D01*
X130242553Y-72312876D01*
X130223557Y-72323029D01*
X130202938Y-72329284D01*
X130175360Y-72332000D01*
X129666640Y-72332000D01*
X129639062Y-72329284D01*
X129618443Y-72323029D01*
X129599447Y-72312876D01*
X129582792Y-72299208D01*
X129569124Y-72282553D01*
X129558971Y-72263557D01*
X129552716Y-72242938D01*
X129550000Y-72215360D01*
X129550000Y-71756640D01*
X129552716Y-71729062D01*
X129558971Y-71708443D01*
X129569124Y-71689447D01*
X129582792Y-71672792D01*
X129599447Y-71659124D01*
X129618443Y-71648971D01*
X129639062Y-71642716D01*
X129666640Y-71640000D01*
X130175360Y-71640000D01*
X130202938Y-71642716D01*
X130202938Y-71642716D01*
G37*
G36*
X130202938Y-70672716D02*
G01*
X130223557Y-70678971D01*
X130242553Y-70689124D01*
X130259208Y-70702792D01*
X130272876Y-70719447D01*
X130283029Y-70738443D01*
X130289284Y-70759062D01*
X130292000Y-70786640D01*
X130292000Y-71245360D01*
X130289284Y-71272938D01*
X130283029Y-71293557D01*
X130272876Y-71312553D01*
X130259208Y-71329208D01*
X130242553Y-71342876D01*
X130223557Y-71353029D01*
X130202938Y-71359284D01*
X130175360Y-71362000D01*
X129666640Y-71362000D01*
X129639062Y-71359284D01*
X129618443Y-71353029D01*
X129599447Y-71342876D01*
X129582792Y-71329208D01*
X129569124Y-71312553D01*
X129558971Y-71293557D01*
X129552716Y-71272938D01*
X129550000Y-71245360D01*
X129550000Y-70786640D01*
X129552716Y-70759062D01*
X129558971Y-70738443D01*
X129569124Y-70719447D01*
X129582792Y-70702792D01*
X129599447Y-70689124D01*
X129618443Y-70678971D01*
X129639062Y-70672716D01*
X129666640Y-70670000D01*
X130175360Y-70670000D01*
X130202938Y-70672716D01*
X130202938Y-70672716D01*
G37*
G36*
X142416391Y-70051285D02*
G01*
X142450369Y-70061593D01*
X142481690Y-70078334D01*
X142509139Y-70100861D01*
X142531666Y-70128310D01*
X142548407Y-70159631D01*
X142558715Y-70193609D01*
X142562800Y-70235090D01*
X142562800Y-70836310D01*
X142558715Y-70877791D01*
X142548407Y-70911769D01*
X142531666Y-70943090D01*
X142509139Y-70970539D01*
X142481690Y-70993066D01*
X142450369Y-71009807D01*
X142416391Y-71020115D01*
X142374910Y-71024200D01*
X141698690Y-71024200D01*
X141657209Y-71020115D01*
X141623231Y-71009807D01*
X141591910Y-70993066D01*
X141564461Y-70970539D01*
X141541934Y-70943090D01*
X141525193Y-70911769D01*
X141514885Y-70877791D01*
X141510800Y-70836310D01*
X141510800Y-70235090D01*
X141514885Y-70193609D01*
X141525193Y-70159631D01*
X141541934Y-70128310D01*
X141564461Y-70100861D01*
X141591910Y-70078334D01*
X141623231Y-70061593D01*
X141657209Y-70051285D01*
X141698690Y-70047200D01*
X142374910Y-70047200D01*
X142416391Y-70051285D01*
X142416391Y-70051285D01*
G37*
G36*
X131668213Y-68748249D02*
G01*
X131762652Y-68776897D01*
X131849687Y-68823418D01*
X131925975Y-68886025D01*
X131988582Y-68962313D01*
X132035103Y-69049348D01*
X132063751Y-69143787D01*
X132071000Y-69217388D01*
X132071000Y-70066612D01*
X132063751Y-70140213D01*
X132035103Y-70234652D01*
X131988582Y-70321687D01*
X131925975Y-70397975D01*
X131849687Y-70460582D01*
X131762651Y-70507103D01*
X131668212Y-70535751D01*
X131570000Y-70545424D01*
X131471787Y-70535751D01*
X131377348Y-70507103D01*
X131290313Y-70460582D01*
X131214025Y-70397975D01*
X131151418Y-70321687D01*
X131104897Y-70234651D01*
X131076249Y-70140212D01*
X131069000Y-70066611D01*
X131069000Y-69217398D01*
X131076250Y-69143786D01*
X131086846Y-69108856D01*
X131104898Y-69049348D01*
X131151419Y-68962313D01*
X131214026Y-68886025D01*
X131290314Y-68823418D01*
X131377349Y-68776897D01*
X131471788Y-68748249D01*
X131570000Y-68738576D01*
X131668213Y-68748249D01*
X131668213Y-68748249D01*
G37*
G36*
X140308213Y-68748249D02*
G01*
X140402652Y-68776897D01*
X140489687Y-68823418D01*
X140565975Y-68886025D01*
X140628582Y-68962313D01*
X140675103Y-69049348D01*
X140703751Y-69143787D01*
X140711000Y-69217388D01*
X140711000Y-70066612D01*
X140703751Y-70140213D01*
X140675103Y-70234652D01*
X140628582Y-70321687D01*
X140565975Y-70397975D01*
X140489687Y-70460582D01*
X140402651Y-70507103D01*
X140308212Y-70535751D01*
X140210000Y-70545424D01*
X140111787Y-70535751D01*
X140017348Y-70507103D01*
X139930313Y-70460582D01*
X139854025Y-70397975D01*
X139791418Y-70321687D01*
X139744897Y-70234651D01*
X139716249Y-70140212D01*
X139709000Y-70066611D01*
X139709000Y-69217398D01*
X139716250Y-69143786D01*
X139726846Y-69108856D01*
X139744898Y-69049348D01*
X139791419Y-68962313D01*
X139854026Y-68886025D01*
X139930314Y-68823418D01*
X140017349Y-68776897D01*
X140111788Y-68748249D01*
X140210000Y-68738576D01*
X140308213Y-68748249D01*
X140308213Y-68748249D01*
G37*
M02*
