M48
; DRILL file {KiCad (5.1.2-1)-1} date 2019 May 17, Friday 17:37:14
; FORMAT={-:-/ absolute / metric / decimal}
; #@! TF.CreationDate,2019-05-17T17:37:14+02:00
; #@! TF.GenerationSoftware,Kicad,Pcbnew,(5.1.2-1)-1
FMAT,2
METRIC
T1C0.254
T2C0.300
T3C0.350
T4C0.400
T5C0.600
T6C0.850
T7C1.000
T8C2.540
%
G90
G05
T1
X125.19Y-73.04
X126.41Y-76.27
X126.42Y-83.8
X127.03Y-74.54
X127.19Y-80.19
X127.317Y-100.901
X127.549Y-84.805
X128.23Y-82.15
X128.24Y-81.22
X128.273Y-84.563
X128.64Y-72.73
X128.72Y-69.56
X128.75Y-77.0
X129.428Y-79.517
X130.19Y-93.62
X130.3Y-75.5
X130.3Y-76.22
X130.7Y-100.36
X130.81Y-114.097
X130.93Y-104.76
X131.0Y-74.0
X131.47Y-117.45
X131.47Y-118.77
X131.521Y-115.062
X131.521Y-116.23
X131.6Y-94.84
X132.08Y-110.744
X132.131Y-114.097
X132.23Y-91.59
X132.36Y-111.25
X132.4Y-71.8
X132.6Y-74.3
X132.86Y-111.86
X132.96Y-94.57
X133.35Y-114.148
X133.39Y-112.36
X133.62Y-94.57
X133.731Y-110.617
X133.93Y-112.7
X134.075Y-88.1
X134.15Y-110.97
X134.175Y-89.37
X134.23Y-85.58
X134.23Y-86.6
X134.26Y-90.1
X134.3Y-73.9
X134.518Y-112.76
X134.6Y-71.6
X134.62Y-114.3
X134.62Y-114.935
X134.62Y-115.57
X134.62Y-116.205
X134.62Y-116.84
X134.62Y-117.475
X134.62Y-118.11
X134.62Y-118.745
X134.66Y-111.32
X135.128Y-112.776
X135.23Y-113.69
X135.255Y-114.3
X135.27Y-111.32
X135.813Y-77.866
X135.9Y-77.1
X136.05Y-111.31
X136.22Y-84.37
X136.525Y-114.3
X136.55Y-113.741
X136.652Y-112.776
X136.84Y-111.3
X137.16Y-114.351
X137.16Y-114.935
X137.16Y-115.57
X137.16Y-116.205
X137.16Y-116.84
X137.16Y-117.475
X137.16Y-118.11
X137.16Y-118.745
X137.4Y-71.7
X137.4Y-71.7
X137.48Y-111.29
X137.7Y-76.4
X138.24Y-84.76
X138.43Y-114.148
X138.79Y-111.26
X139.23Y-88.12
X139.57Y-111.27
X139.7Y-114.148
X140.36Y-115.519
X140.36Y-116.383
X140.36Y-117.5
X140.36Y-118.618
X140.43Y-111.28
X140.5Y-71.9
X140.513Y-113.03
X141.326Y-110.795
X141.326Y-113.081
X142.615Y-94.065
X143.02Y-76.1
X143.03Y-72.72
X143.06Y-82.98
X143.979Y-90.186
X145.18Y-77.5
X145.46Y-88.87
X145.68Y-81.64
X146.35Y-77.48
X146.37Y-81.77
T2
X127.0Y-111.76
X127.0Y-114.3
X127.512Y-98.546
X128.27Y-109.22
X128.27Y-110.49
X128.27Y-111.76
X128.27Y-113.03
X128.27Y-114.3
X129.54Y-109.22
X129.54Y-110.49
X129.54Y-111.76
X129.54Y-113.03
X129.54Y-114.3
X129.54Y-115.57
X129.54Y-116.84
X129.54Y-118.11
X129.546Y-107.987
X130.13Y-81.11
X130.512Y-95.494
X130.59Y-99.32
X130.6Y-96.22
X130.62Y-101.93
X130.81Y-97.155
X130.81Y-98.425
X130.81Y-107.95
X130.81Y-110.49
X130.81Y-111.76
X130.81Y-113.03
X132.08Y-97.155
X132.08Y-98.425
X132.08Y-101.6
X132.08Y-102.87
X132.08Y-104.14
X132.08Y-105.41
X132.08Y-106.68
X132.08Y-107.95
X132.08Y-111.76
X132.08Y-113.03
X133.25Y-75.2
X133.35Y-97.155
X133.35Y-99.695
X133.35Y-101.6
X133.35Y-102.87
X133.35Y-104.14
X133.35Y-105.41
X133.35Y-106.68
X133.35Y-107.95
X133.35Y-113.03
X133.75Y-74.6
X134.62Y-98.425
X134.62Y-99.695
X134.62Y-101.6
X134.62Y-102.87
X134.62Y-104.14
X134.62Y-104.14
X134.62Y-104.14
X134.62Y-105.41
X134.62Y-106.68
X134.62Y-107.95
X134.98Y-95.96
X135.3Y-86.45
X135.66Y-95.66
X135.89Y-97.155
X135.89Y-98.425
X135.89Y-99.695
X135.89Y-101.6
X135.89Y-102.87
X135.89Y-104.14
X135.89Y-105.41
X135.89Y-106.68
X135.89Y-107.95
X135.89Y-109.22
X135.89Y-110.49
X136.31Y-86.46
X136.94Y-94.89
X137.16Y-81.788
X137.16Y-97.155
X137.16Y-98.425
X137.16Y-99.695
X137.16Y-101.6
X137.16Y-102.87
X137.16Y-104.14
X137.16Y-105.41
X137.16Y-106.68
X137.16Y-107.95
X137.16Y-109.22
X137.16Y-110.49
X137.16Y-113.03
X137.2Y-74.5
X137.26Y-86.45
X137.675Y-91.625
X137.76Y-94.91
X138.43Y-95.885
X138.43Y-97.155
X138.43Y-98.425
X138.43Y-99.695
X138.43Y-104.14
X138.43Y-105.41
X138.43Y-105.41
X138.43Y-105.41
X138.43Y-106.68
X138.43Y-106.68
X138.43Y-106.68
X138.43Y-107.95
X138.43Y-109.22
X138.43Y-113.03
X138.684Y-81.788
X138.684Y-83.312
X139.3Y-86.45
X139.44Y-77.31
X139.7Y-95.885
X139.7Y-97.155
X139.7Y-98.425
X139.7Y-104.14
X139.7Y-105.41
X139.7Y-106.68
X139.7Y-107.95
X139.7Y-109.22
X139.7Y-110.49
X139.7Y-113.03
X139.725Y-89.05
X140.06Y-85.28
X140.12Y-87.35
X140.13Y-86.45
X140.208Y-81.788
X140.208Y-83.312
X140.97Y-95.885
X140.97Y-97.155
X140.97Y-100.33
X140.97Y-104.775
X140.97Y-107.95
X140.97Y-109.22
X141.15Y-75.4
X141.706Y-89.731
X141.732Y-76.2
X141.732Y-77.724
X141.732Y-79.248
X142.24Y-107.95
X142.24Y-109.22
X142.24Y-115.57
X142.24Y-116.84
X142.24Y-118.11
X142.34Y-86.492
X142.5Y-74.74
X142.517Y-89.987
X143.18Y-90.36
X143.245Y-91.041
X143.256Y-77.724
X143.256Y-79.248
X143.256Y-80.772
X143.51Y-107.95
X143.51Y-109.22
X143.919Y-87.521
X144.037Y-85.65
X144.266Y-96.664
X144.772Y-97.38
X144.78Y-114.3
T3
X140.75Y-102.59
X140.9Y-106.3
T4
X130.7Y-102.97
X130.9Y-106.3
T6
X133.4Y-72.862
X138.4Y-72.862
T7
X125.73Y-74.926
X125.73Y-77.466
X125.73Y-80.006
X125.73Y-82.546
X125.73Y-85.086
X125.73Y-87.626
X125.73Y-90.166
X125.73Y-92.706
X125.73Y-95.246
X125.73Y-97.786
X125.73Y-100.326
X125.73Y-102.866
X125.73Y-105.406
X125.73Y-107.946
X125.73Y-110.486
X125.73Y-113.026
X146.05Y-85.086
X146.05Y-87.626
X146.05Y-90.166
X146.05Y-92.706
X146.05Y-95.246
X146.05Y-97.786
X146.05Y-100.326
X146.05Y-102.866
X146.05Y-105.406
X146.05Y-107.946
X146.05Y-110.486
X146.05Y-113.026
T8
X127.0Y-71.116
X127.0Y-116.836
X144.78Y-71.116
X144.78Y-116.836
T5
G00X132.4Y-70.513
M15
G01X132.4Y-69.812
M16
G05
G00X139.4Y-69.812
M15
G01X139.4Y-70.513
M16
G05
T0
M30
