G04 #@! TF.GenerationSoftware,KiCad,Pcbnew,(5.1.2-1)-1*
G04 #@! TF.CreationDate,2019-05-17T17:37:07+02:00*
G04 #@! TF.ProjectId,TLM-breakout-v1_1,544c4d2d-6272-4656-916b-6f75742d7631,1.1*
G04 #@! TF.SameCoordinates,Original*
G04 #@! TF.FileFunction,Copper,L2,Bot*
G04 #@! TF.FilePolarity,Positive*
%FSLAX46Y46*%
G04 Gerber Fmt 4.6, Leading zero omitted, Abs format (unit mm)*
G04 Created by KiCad (PCBNEW (5.1.2-1)-1) date 2019-05-17 17:37:07*
%MOMM*%
%LPD*%
G04 APERTURE LIST*
%ADD10C,0.500000*%
%ADD11C,0.100000*%
%ADD12C,3.175000*%
%ADD13C,2.540000*%
%ADD14O,1.700000X1.700000*%
%ADD15R,1.350000X4.700000*%
%ADD16R,1.500000X4.700000*%
%ADD17C,1.450000*%
%ADD18O,1.200000X1.900000*%
%ADD19C,0.400000*%
%ADD20C,0.550000*%
%ADD21C,0.350000*%
%ADD22C,0.600000*%
%ADD23C,0.250000*%
%ADD24C,0.350000*%
%ADD25C,0.300000*%
%ADD26C,0.600000*%
%ADD27C,0.200000*%
%ADD28C,0.180000*%
%ADD29C,0.152400*%
%ADD30C,0.254000*%
G04 APERTURE END LIST*
D10*
X142275000Y-91900000D03*
D11*
G36*
X142275000Y-91150602D02*
G01*
X142299534Y-91150602D01*
X142348365Y-91155412D01*
X142396490Y-91164984D01*
X142443445Y-91179228D01*
X142488778Y-91198005D01*
X142532051Y-91221136D01*
X142572850Y-91248396D01*
X142610779Y-91279524D01*
X142645476Y-91314221D01*
X142676604Y-91352150D01*
X142703864Y-91392949D01*
X142726995Y-91436222D01*
X142745772Y-91481555D01*
X142760016Y-91528510D01*
X142769588Y-91576635D01*
X142774398Y-91625466D01*
X142774398Y-91650000D01*
X142775000Y-91650000D01*
X142775000Y-92150000D01*
X142774398Y-92150000D01*
X142774398Y-92174534D01*
X142769588Y-92223365D01*
X142760016Y-92271490D01*
X142745772Y-92318445D01*
X142726995Y-92363778D01*
X142703864Y-92407051D01*
X142676604Y-92447850D01*
X142645476Y-92485779D01*
X142610779Y-92520476D01*
X142572850Y-92551604D01*
X142532051Y-92578864D01*
X142488778Y-92601995D01*
X142443445Y-92620772D01*
X142396490Y-92635016D01*
X142348365Y-92644588D01*
X142299534Y-92649398D01*
X142275000Y-92649398D01*
X142275000Y-92650000D01*
X141775000Y-92650000D01*
X141775000Y-91150000D01*
X142275000Y-91150000D01*
X142275000Y-91150602D01*
X142275000Y-91150602D01*
G37*
D10*
X140975000Y-91900000D03*
D11*
G36*
X141475000Y-91600000D02*
G01*
X141875000Y-91600000D01*
X141875000Y-92200000D01*
X141475000Y-92200000D01*
X141475000Y-92650000D01*
X140975000Y-92650000D01*
X140975000Y-92649398D01*
X140950466Y-92649398D01*
X140901635Y-92644588D01*
X140853510Y-92635016D01*
X140806555Y-92620772D01*
X140761222Y-92601995D01*
X140717949Y-92578864D01*
X140677150Y-92551604D01*
X140639221Y-92520476D01*
X140604524Y-92485779D01*
X140573396Y-92447850D01*
X140546136Y-92407051D01*
X140523005Y-92363778D01*
X140504228Y-92318445D01*
X140489984Y-92271490D01*
X140480412Y-92223365D01*
X140475602Y-92174534D01*
X140475602Y-92150000D01*
X140475000Y-92150000D01*
X140475000Y-91650000D01*
X140475602Y-91650000D01*
X140475602Y-91625466D01*
X140480412Y-91576635D01*
X140489984Y-91528510D01*
X140504228Y-91481555D01*
X140523005Y-91436222D01*
X140546136Y-91392949D01*
X140573396Y-91352150D01*
X140604524Y-91314221D01*
X140639221Y-91279524D01*
X140677150Y-91248396D01*
X140717949Y-91221136D01*
X140761222Y-91198005D01*
X140806555Y-91179228D01*
X140853510Y-91164984D01*
X140901635Y-91155412D01*
X140950466Y-91150602D01*
X140975000Y-91150602D01*
X140975000Y-91150000D01*
X141475000Y-91150000D01*
X141475000Y-91600000D01*
X141475000Y-91600000D01*
G37*
D10*
X145640000Y-80300000D03*
D11*
G36*
X145340000Y-79800000D02*
G01*
X145340000Y-79400000D01*
X145940000Y-79400000D01*
X145940000Y-79800000D01*
X146390000Y-79800000D01*
X146390000Y-80300000D01*
X146389398Y-80300000D01*
X146389398Y-80324534D01*
X146384588Y-80373365D01*
X146375016Y-80421490D01*
X146360772Y-80468445D01*
X146341995Y-80513778D01*
X146318864Y-80557051D01*
X146291604Y-80597850D01*
X146260476Y-80635779D01*
X146225779Y-80670476D01*
X146187850Y-80701604D01*
X146147051Y-80728864D01*
X146103778Y-80751995D01*
X146058445Y-80770772D01*
X146011490Y-80785016D01*
X145963365Y-80794588D01*
X145914534Y-80799398D01*
X145890000Y-80799398D01*
X145890000Y-80800000D01*
X145390000Y-80800000D01*
X145390000Y-80799398D01*
X145365466Y-80799398D01*
X145316635Y-80794588D01*
X145268510Y-80785016D01*
X145221555Y-80770772D01*
X145176222Y-80751995D01*
X145132949Y-80728864D01*
X145092150Y-80701604D01*
X145054221Y-80670476D01*
X145019524Y-80635779D01*
X144988396Y-80597850D01*
X144961136Y-80557051D01*
X144938005Y-80513778D01*
X144919228Y-80468445D01*
X144904984Y-80421490D01*
X144895412Y-80373365D01*
X144890602Y-80324534D01*
X144890602Y-80300000D01*
X144890000Y-80300000D01*
X144890000Y-79800000D01*
X145340000Y-79800000D01*
X145340000Y-79800000D01*
G37*
D10*
X145640000Y-79000000D03*
D11*
G36*
X144890602Y-79000000D02*
G01*
X144890602Y-78975466D01*
X144895412Y-78926635D01*
X144904984Y-78878510D01*
X144919228Y-78831555D01*
X144938005Y-78786222D01*
X144961136Y-78742949D01*
X144988396Y-78702150D01*
X145019524Y-78664221D01*
X145054221Y-78629524D01*
X145092150Y-78598396D01*
X145132949Y-78571136D01*
X145176222Y-78548005D01*
X145221555Y-78529228D01*
X145268510Y-78514984D01*
X145316635Y-78505412D01*
X145365466Y-78500602D01*
X145390000Y-78500602D01*
X145390000Y-78500000D01*
X145890000Y-78500000D01*
X145890000Y-78500602D01*
X145914534Y-78500602D01*
X145963365Y-78505412D01*
X146011490Y-78514984D01*
X146058445Y-78529228D01*
X146103778Y-78548005D01*
X146147051Y-78571136D01*
X146187850Y-78598396D01*
X146225779Y-78629524D01*
X146260476Y-78664221D01*
X146291604Y-78702150D01*
X146318864Y-78742949D01*
X146341995Y-78786222D01*
X146360772Y-78831555D01*
X146375016Y-78878510D01*
X146384588Y-78926635D01*
X146389398Y-78975466D01*
X146389398Y-79000000D01*
X146390000Y-79000000D01*
X146390000Y-79500000D01*
X144890000Y-79500000D01*
X144890000Y-79000000D01*
X144890602Y-79000000D01*
X144890602Y-79000000D01*
G37*
D10*
X142125000Y-88100000D03*
D11*
G36*
X142125000Y-88849398D02*
G01*
X142100466Y-88849398D01*
X142051635Y-88844588D01*
X142003510Y-88835016D01*
X141956555Y-88820772D01*
X141911222Y-88801995D01*
X141867949Y-88778864D01*
X141827150Y-88751604D01*
X141789221Y-88720476D01*
X141754524Y-88685779D01*
X141723396Y-88647850D01*
X141696136Y-88607051D01*
X141673005Y-88563778D01*
X141654228Y-88518445D01*
X141639984Y-88471490D01*
X141630412Y-88423365D01*
X141625602Y-88374534D01*
X141625602Y-88350000D01*
X141625000Y-88350000D01*
X141625000Y-87850000D01*
X141625602Y-87850000D01*
X141625602Y-87825466D01*
X141630412Y-87776635D01*
X141639984Y-87728510D01*
X141654228Y-87681555D01*
X141673005Y-87636222D01*
X141696136Y-87592949D01*
X141723396Y-87552150D01*
X141754524Y-87514221D01*
X141789221Y-87479524D01*
X141827150Y-87448396D01*
X141867949Y-87421136D01*
X141911222Y-87398005D01*
X141956555Y-87379228D01*
X142003510Y-87364984D01*
X142051635Y-87355412D01*
X142100466Y-87350602D01*
X142125000Y-87350602D01*
X142125000Y-87350000D01*
X142625000Y-87350000D01*
X142625000Y-88850000D01*
X142125000Y-88850000D01*
X142125000Y-88849398D01*
X142125000Y-88849398D01*
G37*
D10*
X143425000Y-88100000D03*
D11*
G36*
X142925000Y-88400000D02*
G01*
X142525000Y-88400000D01*
X142525000Y-87800000D01*
X142925000Y-87800000D01*
X142925000Y-87350000D01*
X143425000Y-87350000D01*
X143425000Y-87350602D01*
X143449534Y-87350602D01*
X143498365Y-87355412D01*
X143546490Y-87364984D01*
X143593445Y-87379228D01*
X143638778Y-87398005D01*
X143682051Y-87421136D01*
X143722850Y-87448396D01*
X143760779Y-87479524D01*
X143795476Y-87514221D01*
X143826604Y-87552150D01*
X143853864Y-87592949D01*
X143876995Y-87636222D01*
X143895772Y-87681555D01*
X143910016Y-87728510D01*
X143919588Y-87776635D01*
X143924398Y-87825466D01*
X143924398Y-87850000D01*
X143925000Y-87850000D01*
X143925000Y-88350000D01*
X143924398Y-88350000D01*
X143924398Y-88374534D01*
X143919588Y-88423365D01*
X143910016Y-88471490D01*
X143895772Y-88518445D01*
X143876995Y-88563778D01*
X143853864Y-88607051D01*
X143826604Y-88647850D01*
X143795476Y-88685779D01*
X143760779Y-88720476D01*
X143722850Y-88751604D01*
X143682051Y-88778864D01*
X143638778Y-88801995D01*
X143593445Y-88820772D01*
X143546490Y-88835016D01*
X143498365Y-88844588D01*
X143449534Y-88849398D01*
X143425000Y-88849398D01*
X143425000Y-88850000D01*
X142925000Y-88850000D01*
X142925000Y-88400000D01*
X142925000Y-88400000D01*
G37*
D10*
X139060000Y-102620000D03*
D11*
G36*
X138760000Y-102120000D02*
G01*
X138760000Y-101720000D01*
X139360000Y-101720000D01*
X139360000Y-102120000D01*
X139810000Y-102120000D01*
X139810000Y-102620000D01*
X139809398Y-102620000D01*
X139809398Y-102644534D01*
X139804588Y-102693365D01*
X139795016Y-102741490D01*
X139780772Y-102788445D01*
X139761995Y-102833778D01*
X139738864Y-102877051D01*
X139711604Y-102917850D01*
X139680476Y-102955779D01*
X139645779Y-102990476D01*
X139607850Y-103021604D01*
X139567051Y-103048864D01*
X139523778Y-103071995D01*
X139478445Y-103090772D01*
X139431490Y-103105016D01*
X139383365Y-103114588D01*
X139334534Y-103119398D01*
X139310000Y-103119398D01*
X139310000Y-103120000D01*
X138810000Y-103120000D01*
X138810000Y-103119398D01*
X138785466Y-103119398D01*
X138736635Y-103114588D01*
X138688510Y-103105016D01*
X138641555Y-103090772D01*
X138596222Y-103071995D01*
X138552949Y-103048864D01*
X138512150Y-103021604D01*
X138474221Y-102990476D01*
X138439524Y-102955779D01*
X138408396Y-102917850D01*
X138381136Y-102877051D01*
X138358005Y-102833778D01*
X138339228Y-102788445D01*
X138324984Y-102741490D01*
X138315412Y-102693365D01*
X138310602Y-102644534D01*
X138310602Y-102620000D01*
X138310000Y-102620000D01*
X138310000Y-102120000D01*
X138760000Y-102120000D01*
X138760000Y-102120000D01*
G37*
D10*
X139060000Y-101320000D03*
D11*
G36*
X138310602Y-101320000D02*
G01*
X138310602Y-101295466D01*
X138315412Y-101246635D01*
X138324984Y-101198510D01*
X138339228Y-101151555D01*
X138358005Y-101106222D01*
X138381136Y-101062949D01*
X138408396Y-101022150D01*
X138439524Y-100984221D01*
X138474221Y-100949524D01*
X138512150Y-100918396D01*
X138552949Y-100891136D01*
X138596222Y-100868005D01*
X138641555Y-100849228D01*
X138688510Y-100834984D01*
X138736635Y-100825412D01*
X138785466Y-100820602D01*
X138810000Y-100820602D01*
X138810000Y-100820000D01*
X139310000Y-100820000D01*
X139310000Y-100820602D01*
X139334534Y-100820602D01*
X139383365Y-100825412D01*
X139431490Y-100834984D01*
X139478445Y-100849228D01*
X139523778Y-100868005D01*
X139567051Y-100891136D01*
X139607850Y-100918396D01*
X139645779Y-100949524D01*
X139680476Y-100984221D01*
X139711604Y-101022150D01*
X139738864Y-101062949D01*
X139761995Y-101106222D01*
X139780772Y-101151555D01*
X139795016Y-101198510D01*
X139804588Y-101246635D01*
X139809398Y-101295466D01*
X139809398Y-101320000D01*
X139810000Y-101320000D01*
X139810000Y-101820000D01*
X138310000Y-101820000D01*
X138310000Y-101320000D01*
X138310602Y-101320000D01*
X138310602Y-101320000D01*
G37*
D12*
X127000000Y-71116000D03*
X144780000Y-71116000D03*
D13*
X144780000Y-116836000D03*
X127000000Y-116836000D03*
D14*
X125730000Y-74926000D03*
X125730000Y-77466000D03*
X125730000Y-80006000D03*
X125730000Y-82546000D03*
X125730000Y-85086000D03*
X125730000Y-87626000D03*
X125730000Y-90166000D03*
X125730000Y-92706000D03*
X125730000Y-95246000D03*
X125730000Y-97786000D03*
X125730000Y-100326000D03*
X125730000Y-102866000D03*
X125730000Y-105406000D03*
X125730000Y-107946000D03*
X125730000Y-110486000D03*
X125730000Y-113026000D03*
X146050000Y-113026000D03*
X146050000Y-110486000D03*
X146050000Y-107946000D03*
X146050000Y-105406000D03*
X146050000Y-102866000D03*
X146050000Y-100326000D03*
X146050000Y-97786000D03*
X146050000Y-95246000D03*
X146050000Y-92706000D03*
X146050000Y-90166000D03*
X146050000Y-87626000D03*
X146050000Y-85086000D03*
D15*
X133065000Y-116990000D03*
D16*
X138715000Y-116990000D03*
D17*
X138400000Y-72862500D03*
X133400000Y-72862500D03*
D18*
X139400000Y-70162500D03*
X132400000Y-70162500D03*
D19*
X143020000Y-76100000D03*
X145180000Y-77500000D03*
X143060000Y-82980000D03*
X146370000Y-81770000D03*
X146350000Y-77480000D03*
X145680000Y-81640000D03*
D20*
X140900000Y-106300000D03*
D10*
X128270000Y-110490000D03*
X128270000Y-111760000D03*
X128270000Y-113030000D03*
X128270000Y-114300000D03*
X129540000Y-114300000D03*
X129540000Y-115570000D03*
X129540000Y-116840000D03*
X129540000Y-118110000D03*
X129540000Y-113030000D03*
X129540000Y-111760000D03*
X129540000Y-110490000D03*
X130810000Y-110490000D03*
X130810000Y-111760000D03*
X130810000Y-113030000D03*
X135890000Y-110490000D03*
X137160000Y-110490000D03*
X139700000Y-110490000D03*
X139700000Y-113030000D03*
X138430000Y-113030000D03*
X137160000Y-113030000D03*
X142240000Y-115570000D03*
X142240000Y-116840000D03*
X142240000Y-118110000D03*
X144780000Y-114300000D03*
X143510000Y-107950000D03*
X143510000Y-109220000D03*
X142240000Y-109220000D03*
X142240000Y-107950000D03*
X140970000Y-107950000D03*
X140970000Y-109220000D03*
X139700000Y-109220000D03*
X139700000Y-107950000D03*
X138430000Y-107950000D03*
X138430000Y-109220000D03*
X137160000Y-109220000D03*
X137160000Y-107950000D03*
X135890000Y-107950000D03*
X135890000Y-109220000D03*
X134620000Y-107950000D03*
X130810000Y-107950000D03*
X129540000Y-109220000D03*
X128270000Y-109220000D03*
X129545602Y-107987410D03*
X133350000Y-113030000D03*
X132080000Y-111760000D03*
X132080000Y-113030000D03*
D21*
X134150000Y-110970000D03*
X134660000Y-111320000D03*
X135270000Y-111320000D03*
X136050000Y-111310000D03*
X136840000Y-111300000D03*
X137480000Y-111290000D03*
X138790000Y-111260000D03*
X139570000Y-111270000D03*
X140430000Y-111280000D03*
X135128000Y-112776000D03*
X134518400Y-112760000D03*
X133930000Y-112700000D03*
X133390000Y-112360000D03*
X132860000Y-111860000D03*
X132360000Y-111250000D03*
X135255000Y-114300000D03*
X134620000Y-114300000D03*
X134620000Y-114935000D03*
X134620000Y-115570000D03*
X136525000Y-114300000D03*
X137160000Y-114350800D03*
X137160000Y-114935000D03*
X137160000Y-115570000D03*
X137160000Y-116205000D03*
X137160000Y-116840000D03*
X137160000Y-117475000D03*
X137160000Y-118110000D03*
X137160000Y-118745000D03*
X134620000Y-118745000D03*
X134620000Y-118110000D03*
X134620000Y-117475000D03*
X134620000Y-116840000D03*
X134620000Y-116205000D03*
X136652000Y-112776000D03*
X132080000Y-110744000D03*
X133731000Y-110617000D03*
D10*
X139700000Y-106680000D03*
X138430000Y-106680000D03*
X138430000Y-106680000D03*
X138430000Y-106680000D03*
X135890000Y-106680000D03*
X134620000Y-106680000D03*
X133350000Y-106680000D03*
X133350000Y-107950000D03*
X132080000Y-107950000D03*
X132080000Y-106680000D03*
X132080000Y-105410000D03*
X133350000Y-105410000D03*
X134620000Y-105410000D03*
X135890000Y-105410000D03*
X137160000Y-105410000D03*
X137160000Y-106680000D03*
X138430000Y-105410000D03*
X138430000Y-105410000D03*
X138430000Y-105410000D03*
X139700000Y-105410000D03*
X139700000Y-104140000D03*
X138430000Y-104140000D03*
X137160000Y-104140000D03*
X135890000Y-104140000D03*
X134620000Y-104140000D03*
X134620000Y-104140000D03*
X134620000Y-104140000D03*
X132080000Y-104140000D03*
X127000000Y-111760000D03*
X127000000Y-114300000D03*
X133350000Y-104140000D03*
D22*
X130900000Y-106300000D03*
D10*
X134620000Y-101600000D03*
X132080000Y-101600000D03*
X137160000Y-102870000D03*
X137160000Y-101600000D03*
X135890000Y-102870000D03*
X134620000Y-102870000D03*
X133350000Y-102870000D03*
X133350000Y-101600000D03*
X135890000Y-101600000D03*
X132080000Y-102870000D03*
X140130000Y-86450000D03*
X136310000Y-86460000D03*
X137260000Y-86450000D03*
X135300002Y-86450000D03*
X139300000Y-86450000D03*
X139725000Y-89050000D03*
X142339723Y-86491947D03*
X143180000Y-90360000D03*
D19*
X134260000Y-90100000D03*
X134175000Y-89370000D03*
X134075000Y-88100000D03*
X125190000Y-73040000D03*
X128640000Y-72730000D03*
X128720000Y-69560000D03*
X127030000Y-74540000D03*
X126410000Y-76270000D03*
X129427590Y-79517410D03*
D10*
X139440000Y-77310000D03*
X141150000Y-75400000D03*
X142500000Y-74740000D03*
D19*
X130300000Y-75500000D03*
X130190000Y-93620000D03*
X131600000Y-94840000D03*
D10*
X137160000Y-99695000D03*
X135890000Y-99695000D03*
X134620000Y-99695000D03*
X133350000Y-99695000D03*
X138430000Y-99695000D03*
X140970000Y-100330000D03*
X140970000Y-104775000D03*
X138430000Y-98425000D03*
X138430000Y-97155000D03*
X138430000Y-95885000D03*
X139700000Y-95885000D03*
X139700000Y-97155000D03*
X139700000Y-98425000D03*
X140970000Y-97155000D03*
X140970000Y-95885000D03*
X137160000Y-97155000D03*
X137160000Y-98425000D03*
X135890000Y-98425000D03*
X135890000Y-97155000D03*
X134620000Y-98425000D03*
X133350000Y-97155000D03*
X132080000Y-97155000D03*
X132080000Y-98425000D03*
X130810000Y-97155000D03*
X130810000Y-98425000D03*
X137160000Y-81788000D03*
X138684000Y-81788000D03*
X140208000Y-81788000D03*
X140208000Y-83312000D03*
X138684000Y-83312000D03*
X141732000Y-79248000D03*
X141732000Y-77724000D03*
X141732000Y-76200000D03*
X143256000Y-79248000D03*
X143256000Y-77724000D03*
X143256000Y-80772000D03*
D19*
X136550400Y-113741200D03*
X135229600Y-113690400D03*
X130810000Y-114096800D03*
X132130800Y-114096800D03*
X133350000Y-114147600D03*
X138430000Y-114147600D03*
X139700000Y-114147600D03*
X140360400Y-115519200D03*
X140360400Y-116382800D03*
X140360400Y-117500400D03*
X140360400Y-118618000D03*
X131470400Y-118770400D03*
X131470400Y-117449600D03*
X131521200Y-116230400D03*
X131521200Y-115062000D03*
X140512800Y-113030000D03*
X141325600Y-113080800D03*
X141325600Y-110794800D03*
X128240000Y-81220000D03*
X128230000Y-82150000D03*
X127190000Y-80190000D03*
X126420000Y-83800000D03*
X134230000Y-85580000D03*
X134230000Y-86600000D03*
X132230000Y-91590000D03*
X130700000Y-100360000D03*
X130930000Y-104760000D03*
D21*
X127317500Y-100901500D03*
D19*
X130300000Y-76220000D03*
X134300000Y-73900000D03*
X134600000Y-71600000D03*
X132600000Y-74300000D03*
X132400000Y-71800000D03*
X131000000Y-74000000D03*
X140500000Y-71900000D03*
X137700000Y-76400000D03*
D10*
X143918979Y-87520800D03*
X140060000Y-85280000D03*
X144037410Y-85649807D03*
X137675000Y-91625000D03*
X130130000Y-81110000D03*
X133750000Y-74600000D03*
X133250000Y-75199986D03*
D21*
X137400000Y-71700000D03*
D10*
X137200000Y-74500010D03*
D19*
X137400000Y-71700000D03*
D10*
X142516896Y-89986963D03*
X140120000Y-87350000D03*
D19*
X138240000Y-84760000D03*
D10*
X143244560Y-91041312D03*
D19*
X143030000Y-72720000D03*
X132960000Y-94570000D03*
X135900000Y-77100000D03*
X133620000Y-94570000D03*
X135813401Y-77866237D03*
X128750000Y-77000000D03*
D10*
X137760000Y-94910000D03*
X130511910Y-95494394D03*
D19*
X143979129Y-90185979D03*
X145460000Y-88870000D03*
D10*
X135660000Y-95660000D03*
D19*
X128272590Y-84563420D03*
X142614569Y-94065431D03*
D10*
X141706280Y-89731112D03*
D20*
X140750000Y-102590000D03*
D19*
X136220000Y-84370000D03*
X139230000Y-88120000D03*
D10*
X127512410Y-98545656D03*
X130590000Y-99320000D03*
X130600000Y-96220000D03*
X136940000Y-94890000D03*
X134980000Y-95960000D03*
D19*
X127548678Y-84804648D03*
D10*
X144265835Y-96663857D03*
X144772410Y-97380000D03*
X130620000Y-101930000D03*
D22*
X130700000Y-102970000D03*
D23*
X129427590Y-79287590D02*
X129427590Y-79517410D01*
X126410000Y-76270000D02*
X129427590Y-79287590D01*
D24*
X143918979Y-87606021D02*
X143425000Y-88100000D01*
X143918979Y-87520800D02*
X143918979Y-87606021D01*
D25*
X145162445Y-89316001D02*
X144471389Y-88624945D01*
X146050000Y-90166000D02*
X145200001Y-89316001D01*
X144471389Y-88624945D02*
X144471389Y-86083786D01*
X144471389Y-86083786D02*
X144287409Y-85899806D01*
X145200001Y-89316001D02*
X145162445Y-89316001D01*
X144287409Y-85899806D02*
X144037410Y-85649807D01*
D24*
X140120000Y-85220000D02*
X140060000Y-85280000D01*
X143607603Y-85220000D02*
X140120000Y-85220000D01*
X144037410Y-85649807D02*
X143607603Y-85220000D01*
D25*
X137950000Y-91900000D02*
X137675000Y-91625000D01*
X140975000Y-91900000D02*
X137950000Y-91900000D01*
D24*
X129374000Y-81110000D02*
X126579999Y-78315999D01*
X130130000Y-81110000D02*
X129374000Y-81110000D01*
X126579999Y-78315999D02*
X125730000Y-77466000D01*
D26*
X133250000Y-75100000D02*
X133750000Y-74600000D01*
X133250000Y-75199986D02*
X133250000Y-75100000D01*
X137200000Y-71900000D02*
X137200000Y-74146457D01*
X137400000Y-71700000D02*
X137200000Y-71900000D01*
X137200000Y-74146457D02*
X137200000Y-74500010D01*
X133750000Y-74600000D02*
X137100010Y-74600000D01*
X137100010Y-74600000D02*
X137200000Y-74500010D01*
X132400000Y-70162500D02*
X139400000Y-70162500D01*
D25*
X133300000Y-70162500D02*
X132400000Y-70162500D01*
X133400000Y-70262500D02*
X133300000Y-70162500D01*
X133400000Y-72862500D02*
X133400000Y-70262500D01*
X139400000Y-71862500D02*
X139400000Y-70162500D01*
X138400000Y-72862500D02*
X139400000Y-71862500D01*
D23*
X139060000Y-101320000D02*
X139060000Y-100480755D01*
X139060000Y-100480755D02*
X143771961Y-95768794D01*
X142795282Y-89708577D02*
X142766895Y-89736964D01*
X143771961Y-95768794D02*
X143771961Y-92279614D01*
X143771961Y-92279614D02*
X144456531Y-91595044D01*
X144456531Y-89956825D02*
X144208283Y-89708577D01*
X144456531Y-91595044D02*
X144456531Y-89956825D01*
X144208283Y-89708577D02*
X142795282Y-89708577D01*
X142766895Y-89736964D02*
X142516896Y-89986963D01*
D27*
X138240000Y-85042842D02*
X138240000Y-84760000D01*
X139100000Y-87350000D02*
X138240000Y-86490000D01*
X138240000Y-86490000D02*
X138240000Y-85042842D01*
X140120000Y-87350000D02*
X139100000Y-87350000D01*
D24*
X142385872Y-91900000D02*
X143244560Y-91041312D01*
X142275000Y-91900000D02*
X142385872Y-91900000D01*
D28*
X143560000Y-73250000D02*
X143030000Y-72720000D01*
X146020000Y-73250000D02*
X143560000Y-73250000D01*
X146560000Y-73790000D02*
X146020000Y-73250000D01*
X145732500Y-77207500D02*
X146560000Y-76380000D01*
X146560000Y-76380000D02*
X146560000Y-73790000D01*
X145732500Y-78907500D02*
X145732500Y-77207500D01*
X145640000Y-79000000D02*
X145732500Y-78907500D01*
D27*
X133100000Y-93779845D02*
X132955097Y-93924748D01*
X133100000Y-79681800D02*
X133100000Y-93779845D01*
X132955097Y-93924748D02*
X132960000Y-94570000D01*
X135681800Y-77100000D02*
X133100000Y-79681800D01*
X135900000Y-77100000D02*
X135681800Y-77100000D01*
X133500000Y-79918200D02*
X133500000Y-93809748D01*
X133615000Y-93924748D02*
X133620000Y-94570000D01*
X133500000Y-93809748D02*
X133615000Y-93924748D01*
X135551963Y-77866237D02*
X133500000Y-79918200D01*
X135813401Y-77866237D02*
X135551963Y-77866237D01*
D23*
X128450000Y-77000000D02*
X128750000Y-77000000D01*
X126376000Y-74926000D02*
X128450000Y-77000000D01*
X125730000Y-74926000D02*
X126376000Y-74926000D01*
D27*
X137010000Y-95660000D02*
X136013553Y-95660000D01*
X137760000Y-94910000D02*
X137010000Y-95660000D01*
X136013553Y-95660000D02*
X135660000Y-95660000D01*
D29*
X142614569Y-93782589D02*
X142614569Y-94065431D01*
X143380000Y-92171495D02*
X143380000Y-93017158D01*
X143380000Y-93017158D02*
X142614569Y-93782589D01*
X143979129Y-91572366D02*
X143380000Y-92171495D01*
X143979129Y-90185979D02*
X143979129Y-91572366D01*
X144850000Y-88260000D02*
X145460000Y-88870000D01*
X144850000Y-81090000D02*
X144850000Y-88260000D01*
X145640000Y-80300000D02*
X144850000Y-81090000D01*
D27*
X128000000Y-92982484D02*
X130511910Y-95494394D01*
X128272590Y-84563420D02*
X128000000Y-84836010D01*
X128000000Y-84836010D02*
X128000000Y-92982484D01*
D24*
X142125000Y-89312392D02*
X141706280Y-89731112D01*
X142125000Y-88100000D02*
X142125000Y-89312392D01*
D23*
X139090000Y-102590000D02*
X139060000Y-102620000D01*
X140750000Y-102590000D02*
X139090000Y-102590000D01*
D29*
X136220000Y-84370000D02*
X137880000Y-86030000D01*
X137880000Y-86030000D02*
X137880000Y-86770000D01*
X137880000Y-86770000D02*
X139030001Y-87920001D01*
X139030001Y-87920001D02*
X139230000Y-88120000D01*
D25*
X127262411Y-98295657D02*
X127512410Y-98545656D01*
X127025178Y-98058424D02*
X127262411Y-98295657D01*
X127025178Y-81301178D02*
X127025178Y-98058424D01*
X125730000Y-80006000D02*
X127025178Y-81301178D01*
D27*
X127264000Y-99320000D02*
X130236447Y-99320000D01*
X125730000Y-97786000D02*
X127264000Y-99320000D01*
X130236447Y-99320000D02*
X130590000Y-99320000D01*
X136940000Y-94890000D02*
X135696447Y-94890000D01*
X134980000Y-95606447D02*
X134980000Y-95960000D01*
X135696447Y-94890000D02*
X134980000Y-95606447D01*
X127548678Y-85087490D02*
X127548678Y-84804648D01*
X127497589Y-93197589D02*
X127497589Y-85138579D01*
X130520000Y-96220000D02*
X127497589Y-93197589D01*
X127497589Y-85138579D02*
X127548678Y-85087490D01*
X130600000Y-96220000D02*
X130520000Y-96220000D01*
X144270000Y-96668022D02*
X144265835Y-96663857D01*
X144270000Y-111246000D02*
X144270000Y-96668022D01*
X146050000Y-113026000D02*
X144270000Y-111246000D01*
X146050000Y-110486000D02*
X144772410Y-109208410D01*
X144772410Y-97733553D02*
X144772410Y-97380000D01*
X144772410Y-109208410D02*
X144772410Y-97733553D01*
D28*
X130250000Y-102300000D02*
X130620000Y-101930000D01*
X127446000Y-102300000D02*
X130250000Y-102300000D01*
X125730000Y-100584000D02*
X127446000Y-102300000D01*
X125730000Y-100326000D02*
X125730000Y-100584000D01*
D27*
X130430000Y-102700000D02*
X130700000Y-102970000D01*
X125896000Y-102700000D02*
X130430000Y-102700000D01*
X125730000Y-102866000D02*
X125896000Y-102700000D01*
D30*
G36*
X132227608Y-68945824D02*
G01*
X132061841Y-68996109D01*
X131909069Y-69077768D01*
X131775163Y-69187662D01*
X131665269Y-69321568D01*
X131583610Y-69474340D01*
X131533324Y-69640107D01*
X131520600Y-69769298D01*
X131520600Y-70555701D01*
X131533324Y-70684892D01*
X131583609Y-70850659D01*
X131665268Y-71003431D01*
X131775162Y-71137338D01*
X131909068Y-71247232D01*
X132061840Y-71328891D01*
X132227607Y-71379176D01*
X132400000Y-71396155D01*
X132572392Y-71379176D01*
X132738159Y-71328891D01*
X132890931Y-71247232D01*
X132970601Y-71181849D01*
X132970600Y-71953208D01*
X132924238Y-71972412D01*
X132759732Y-72082331D01*
X132619831Y-72222232D01*
X132509912Y-72386738D01*
X132434198Y-72569527D01*
X132395600Y-72763575D01*
X132395600Y-72961425D01*
X132434198Y-73155473D01*
X132509912Y-73338262D01*
X132619831Y-73502768D01*
X132759732Y-73642669D01*
X132924238Y-73752588D01*
X133107027Y-73828302D01*
X133301075Y-73866900D01*
X133498925Y-73866900D01*
X133692973Y-73828302D01*
X133875762Y-73752588D01*
X134040268Y-73642669D01*
X134180169Y-73502768D01*
X134290088Y-73338262D01*
X134365802Y-73155473D01*
X134404400Y-72961425D01*
X134404400Y-72763575D01*
X134365802Y-72569527D01*
X134290088Y-72386738D01*
X134180169Y-72222232D01*
X134040268Y-72082331D01*
X133875762Y-71972412D01*
X133829400Y-71953208D01*
X133829400Y-70741900D01*
X138550617Y-70741900D01*
X138583610Y-70850660D01*
X138665269Y-71003432D01*
X138775163Y-71137338D01*
X138909069Y-71247232D01*
X138970600Y-71280121D01*
X138970600Y-71684637D01*
X138739335Y-71915902D01*
X138692973Y-71896698D01*
X138498925Y-71858100D01*
X138301075Y-71858100D01*
X138107027Y-71896698D01*
X137924238Y-71972412D01*
X137904215Y-71985791D01*
X137937885Y-71922799D01*
X137971016Y-71813582D01*
X137982203Y-71700000D01*
X137971016Y-71586418D01*
X137937885Y-71477201D01*
X137884084Y-71376546D01*
X137811679Y-71288321D01*
X137723454Y-71215916D01*
X137622799Y-71162115D01*
X137513582Y-71128984D01*
X137400000Y-71117797D01*
X137286418Y-71128984D01*
X137177201Y-71162115D01*
X137076546Y-71215916D01*
X137010427Y-71270179D01*
X136810432Y-71470174D01*
X136788320Y-71488320D01*
X136715916Y-71576546D01*
X136662115Y-71677202D01*
X136641623Y-71744755D01*
X136628984Y-71786419D01*
X136617797Y-71900000D01*
X136620600Y-71928459D01*
X136620601Y-74020600D01*
X133778459Y-74020600D01*
X133750000Y-74017797D01*
X133721541Y-74020600D01*
X133636418Y-74028984D01*
X133527201Y-74062115D01*
X133426545Y-74115916D01*
X133338320Y-74188320D01*
X133320174Y-74210431D01*
X132860426Y-74670179D01*
X132838321Y-74688320D01*
X132765916Y-74776545D01*
X132712115Y-74877201D01*
X132690268Y-74949221D01*
X132678984Y-74986419D01*
X132667797Y-75100000D01*
X132670600Y-75128459D01*
X132670600Y-75228444D01*
X132678984Y-75313567D01*
X132712115Y-75422784D01*
X132765916Y-75523440D01*
X132838320Y-75611666D01*
X132926545Y-75684070D01*
X133027201Y-75737871D01*
X133136418Y-75771002D01*
X133250000Y-75782189D01*
X133363581Y-75771002D01*
X133472798Y-75737871D01*
X133573454Y-75684070D01*
X133661680Y-75611666D01*
X133734084Y-75523441D01*
X133787885Y-75422785D01*
X133805858Y-75363537D01*
X133989995Y-75179400D01*
X137071551Y-75179400D01*
X137100010Y-75182203D01*
X137128469Y-75179400D01*
X137213592Y-75171016D01*
X137322809Y-75137885D01*
X137423465Y-75084084D01*
X137511690Y-75011680D01*
X137529836Y-74989569D01*
X137589569Y-74929836D01*
X137611680Y-74911690D01*
X137684084Y-74823465D01*
X137737885Y-74722809D01*
X137771016Y-74613591D01*
X137776478Y-74558137D01*
X137782203Y-74500011D01*
X137779400Y-74471552D01*
X137779400Y-73655811D01*
X137924238Y-73752588D01*
X138107027Y-73828302D01*
X138301075Y-73866900D01*
X138498925Y-73866900D01*
X138692973Y-73828302D01*
X138875762Y-73752588D01*
X139040268Y-73642669D01*
X139180169Y-73502768D01*
X139290088Y-73338262D01*
X139365802Y-73155473D01*
X139404400Y-72961425D01*
X139404400Y-72763575D01*
X139365802Y-72569527D01*
X139346598Y-72523165D01*
X139688722Y-72181041D01*
X139705100Y-72167600D01*
X139758760Y-72102216D01*
X139769389Y-72082331D01*
X139798633Y-72027620D01*
X139823186Y-71946677D01*
X139827783Y-71900000D01*
X139829400Y-71883587D01*
X139829400Y-71883580D01*
X139831476Y-71862500D01*
X139829400Y-71841420D01*
X139829400Y-71280122D01*
X139890932Y-71247232D01*
X140024838Y-71137338D01*
X140134732Y-71003432D01*
X140216391Y-70850660D01*
X140266676Y-70684893D01*
X140279400Y-70555702D01*
X140279400Y-69769298D01*
X140266676Y-69640107D01*
X140216391Y-69474340D01*
X140134732Y-69321568D01*
X140024838Y-69187662D01*
X139890931Y-69077768D01*
X139738159Y-68996109D01*
X139572392Y-68945824D01*
X139432033Y-68932000D01*
X144762785Y-68932000D01*
X145077992Y-68962907D01*
X145575363Y-69087249D01*
X145613140Y-69098655D01*
X145808059Y-69202295D01*
X146359796Y-69616097D01*
X146592535Y-69897431D01*
X146795480Y-70272769D01*
X146921657Y-70680381D01*
X146968000Y-71121308D01*
X146968000Y-84424304D01*
X146852470Y-84283530D01*
X146680497Y-84142395D01*
X146484294Y-84037522D01*
X146271401Y-83972942D01*
X146105477Y-83956600D01*
X145994523Y-83956600D01*
X145828599Y-83972942D01*
X145615706Y-84037522D01*
X145419503Y-84142395D01*
X145247530Y-84283530D01*
X145205600Y-84334622D01*
X145205600Y-81712354D01*
X145219023Y-81779836D01*
X145255161Y-81867081D01*
X145307625Y-81945600D01*
X145374400Y-82012375D01*
X145452919Y-82064839D01*
X145540164Y-82100977D01*
X145632783Y-82119400D01*
X145727217Y-82119400D01*
X145819836Y-82100977D01*
X145907081Y-82064839D01*
X145964707Y-82026335D01*
X145997625Y-82075600D01*
X146064400Y-82142375D01*
X146142919Y-82194839D01*
X146230164Y-82230977D01*
X146322783Y-82249400D01*
X146417217Y-82249400D01*
X146509836Y-82230977D01*
X146597081Y-82194839D01*
X146675600Y-82142375D01*
X146742375Y-82075600D01*
X146794839Y-81997081D01*
X146830977Y-81909836D01*
X146849400Y-81817217D01*
X146849400Y-81722783D01*
X146830977Y-81630164D01*
X146794839Y-81542919D01*
X146742375Y-81464400D01*
X146675600Y-81397625D01*
X146597081Y-81345161D01*
X146509836Y-81309023D01*
X146417217Y-81290600D01*
X146322783Y-81290600D01*
X146230164Y-81309023D01*
X146142919Y-81345161D01*
X146085293Y-81383665D01*
X146052375Y-81334400D01*
X145985600Y-81267625D01*
X145907081Y-81215161D01*
X145819836Y-81179023D01*
X145727217Y-81160600D01*
X145632783Y-81160600D01*
X145540164Y-81179023D01*
X145452919Y-81215161D01*
X145374400Y-81267625D01*
X145307625Y-81334400D01*
X145255161Y-81412919D01*
X145219023Y-81500164D01*
X145205600Y-81567646D01*
X145205600Y-81237293D01*
X145364549Y-81078344D01*
X145365553Y-81078344D01*
X145390000Y-81080752D01*
X145890000Y-81080752D01*
X145914447Y-81078344D01*
X145939009Y-81078344D01*
X145993781Y-81072949D01*
X146089914Y-81053827D01*
X146142580Y-81037852D01*
X146233136Y-81000343D01*
X146281676Y-80974398D01*
X146363175Y-80919942D01*
X146405719Y-80885027D01*
X146475027Y-80815719D01*
X146509942Y-80773175D01*
X146564398Y-80691676D01*
X146590343Y-80643136D01*
X146627852Y-80552580D01*
X146643827Y-80499914D01*
X146662949Y-80403781D01*
X146668344Y-80349009D01*
X146668344Y-80324447D01*
X146670752Y-80300000D01*
X146670752Y-79800000D01*
X146665357Y-79745228D01*
X146649381Y-79692561D01*
X146626632Y-79650000D01*
X146649381Y-79607439D01*
X146665357Y-79554772D01*
X146670752Y-79500000D01*
X146670752Y-79000000D01*
X146668344Y-78975553D01*
X146668344Y-78950991D01*
X146662949Y-78896219D01*
X146643827Y-78800086D01*
X146627852Y-78747420D01*
X146590343Y-78656864D01*
X146564398Y-78608324D01*
X146509942Y-78526825D01*
X146475027Y-78484281D01*
X146405719Y-78414973D01*
X146363175Y-78380058D01*
X146281676Y-78325602D01*
X146233136Y-78299657D01*
X146142580Y-78262148D01*
X146101900Y-78249809D01*
X146101900Y-77890795D01*
X146122919Y-77904839D01*
X146210164Y-77940977D01*
X146302783Y-77959400D01*
X146397217Y-77959400D01*
X146489836Y-77940977D01*
X146577081Y-77904839D01*
X146655600Y-77852375D01*
X146722375Y-77785600D01*
X146774839Y-77707081D01*
X146810977Y-77619836D01*
X146829400Y-77527217D01*
X146829400Y-77432783D01*
X146810977Y-77340164D01*
X146774839Y-77252919D01*
X146722375Y-77174400D01*
X146655600Y-77107625D01*
X146577081Y-77055161D01*
X146489836Y-77019023D01*
X146451093Y-77011317D01*
X146808378Y-76654033D01*
X146822469Y-76642469D01*
X146834651Y-76627625D01*
X146868631Y-76586221D01*
X146902932Y-76522047D01*
X146918000Y-76472375D01*
X146924055Y-76452415D01*
X146929400Y-76398144D01*
X146929400Y-76398142D01*
X146931187Y-76380000D01*
X146929400Y-76361858D01*
X146929400Y-73808133D01*
X146931186Y-73789999D01*
X146929400Y-73771865D01*
X146929400Y-73771856D01*
X146924055Y-73717585D01*
X146902932Y-73647953D01*
X146868631Y-73583780D01*
X146822469Y-73527531D01*
X146808372Y-73515962D01*
X146294042Y-73001633D01*
X146282469Y-72987531D01*
X146226220Y-72941369D01*
X146162047Y-72907068D01*
X146092415Y-72885945D01*
X146038144Y-72880600D01*
X146038142Y-72880600D01*
X146020000Y-72878813D01*
X146001858Y-72880600D01*
X145398324Y-72880600D01*
X145664309Y-72770425D01*
X145970079Y-72566116D01*
X146230116Y-72306079D01*
X146434425Y-72000309D01*
X146575156Y-71660555D01*
X146646900Y-71299874D01*
X146646900Y-70932126D01*
X146575156Y-70571445D01*
X146434425Y-70231691D01*
X146230116Y-69925921D01*
X145970079Y-69665884D01*
X145664309Y-69461575D01*
X145324555Y-69320844D01*
X144963874Y-69249100D01*
X144596126Y-69249100D01*
X144235445Y-69320844D01*
X143895691Y-69461575D01*
X143589921Y-69665884D01*
X143329884Y-69925921D01*
X143125575Y-70231691D01*
X142984844Y-70571445D01*
X142913100Y-70932126D01*
X142913100Y-71299874D01*
X142984844Y-71660555D01*
X143125575Y-72000309D01*
X143329884Y-72306079D01*
X143589921Y-72566116D01*
X143895691Y-72770425D01*
X144161676Y-72880600D01*
X143713010Y-72880600D01*
X143509400Y-72676991D01*
X143509400Y-72672783D01*
X143490977Y-72580164D01*
X143454839Y-72492919D01*
X143402375Y-72414400D01*
X143335600Y-72347625D01*
X143257081Y-72295161D01*
X143169836Y-72259023D01*
X143077217Y-72240600D01*
X142982783Y-72240600D01*
X142890164Y-72259023D01*
X142802919Y-72295161D01*
X142724400Y-72347625D01*
X142657625Y-72414400D01*
X142605161Y-72492919D01*
X142569023Y-72580164D01*
X142550600Y-72672783D01*
X142550600Y-72767217D01*
X142569023Y-72859836D01*
X142605161Y-72947081D01*
X142657625Y-73025600D01*
X142724400Y-73092375D01*
X142802919Y-73144839D01*
X142890164Y-73180977D01*
X142982783Y-73199400D01*
X142986991Y-73199400D01*
X143285962Y-73498372D01*
X143297531Y-73512469D01*
X143353780Y-73558631D01*
X143417953Y-73592932D01*
X143487585Y-73614055D01*
X143541856Y-73619400D01*
X143541857Y-73619400D01*
X143559999Y-73621187D01*
X143578141Y-73619400D01*
X145866991Y-73619400D01*
X146190601Y-73943011D01*
X146190600Y-76226989D01*
X145484129Y-76933462D01*
X145470032Y-76945031D01*
X145457613Y-76960164D01*
X145423870Y-77001280D01*
X145389569Y-77065453D01*
X145388908Y-77067633D01*
X145319836Y-77039023D01*
X145227217Y-77020600D01*
X145132783Y-77020600D01*
X145040164Y-77039023D01*
X144952919Y-77075161D01*
X144874400Y-77127625D01*
X144807625Y-77194400D01*
X144755161Y-77272919D01*
X144719023Y-77360164D01*
X144700600Y-77452783D01*
X144700600Y-77547217D01*
X144719023Y-77639836D01*
X144755161Y-77727081D01*
X144807625Y-77805600D01*
X144874400Y-77872375D01*
X144952919Y-77924839D01*
X145040164Y-77960977D01*
X145132783Y-77979400D01*
X145227217Y-77979400D01*
X145319836Y-77960977D01*
X145363101Y-77943056D01*
X145363100Y-78221656D01*
X145340991Y-78221656D01*
X145286219Y-78227051D01*
X145190086Y-78246173D01*
X145137420Y-78262148D01*
X145046864Y-78299657D01*
X144998324Y-78325602D01*
X144916825Y-78380058D01*
X144874281Y-78414973D01*
X144804973Y-78484281D01*
X144770058Y-78526825D01*
X144715602Y-78608324D01*
X144689657Y-78656864D01*
X144652148Y-78747420D01*
X144636173Y-78800086D01*
X144617051Y-78896219D01*
X144611656Y-78950991D01*
X144611656Y-78975553D01*
X144609248Y-79000000D01*
X144609248Y-79500000D01*
X144614643Y-79554772D01*
X144630619Y-79607439D01*
X144653368Y-79650000D01*
X144630619Y-79692561D01*
X144614643Y-79745228D01*
X144609248Y-79800000D01*
X144609248Y-80300000D01*
X144611656Y-80324447D01*
X144611656Y-80349009D01*
X144617051Y-80403781D01*
X144636173Y-80499914D01*
X144652148Y-80552580D01*
X144689657Y-80643136D01*
X144715602Y-80691676D01*
X144727550Y-80709557D01*
X144610901Y-80826206D01*
X144597337Y-80837338D01*
X144552899Y-80891485D01*
X144525675Y-80942418D01*
X144519880Y-80953259D01*
X144501923Y-81012456D01*
X144499546Y-81020291D01*
X144494400Y-81072538D01*
X144494400Y-81072545D01*
X144492681Y-81090000D01*
X144494400Y-81107455D01*
X144494401Y-85380846D01*
X144448622Y-85312334D01*
X144374883Y-85238595D01*
X144288175Y-85180658D01*
X144191830Y-85140751D01*
X144165794Y-85135572D01*
X143944698Y-84914477D01*
X143930467Y-84897136D01*
X143861275Y-84840353D01*
X143782335Y-84798158D01*
X143696681Y-84772175D01*
X143629921Y-84765600D01*
X143629918Y-84765600D01*
X143607603Y-84763402D01*
X143585288Y-84765600D01*
X140187553Y-84765600D01*
X140112141Y-84750600D01*
X140007859Y-84750600D01*
X139905580Y-84770944D01*
X139809235Y-84810851D01*
X139722527Y-84868788D01*
X139648788Y-84942527D01*
X139590851Y-85029235D01*
X139550944Y-85125580D01*
X139530600Y-85227859D01*
X139530600Y-85332141D01*
X139550944Y-85434420D01*
X139590851Y-85530765D01*
X139648788Y-85617473D01*
X139722527Y-85691212D01*
X139809235Y-85749149D01*
X139905580Y-85789056D01*
X140007859Y-85809400D01*
X140112141Y-85809400D01*
X140214420Y-85789056D01*
X140310765Y-85749149D01*
X140397473Y-85691212D01*
X140414285Y-85674400D01*
X143419385Y-85674400D01*
X143523175Y-85778191D01*
X143528354Y-85804227D01*
X143568261Y-85900572D01*
X143626198Y-85987280D01*
X143699937Y-86061019D01*
X143786645Y-86118956D01*
X143882990Y-86158863D01*
X143953162Y-86172821D01*
X144041990Y-86261649D01*
X144041990Y-87005496D01*
X143971120Y-86991400D01*
X143866838Y-86991400D01*
X143764559Y-87011744D01*
X143668214Y-87051651D01*
X143606935Y-87092597D01*
X143528781Y-87077051D01*
X143474009Y-87071656D01*
X143449447Y-87071656D01*
X143425000Y-87069248D01*
X142925000Y-87069248D01*
X142870228Y-87074643D01*
X142817561Y-87090619D01*
X142775000Y-87113368D01*
X142732439Y-87090619D01*
X142679772Y-87074643D01*
X142625000Y-87069248D01*
X142125000Y-87069248D01*
X142100553Y-87071656D01*
X142075991Y-87071656D01*
X142021219Y-87077051D01*
X141925086Y-87096173D01*
X141872420Y-87112148D01*
X141781864Y-87149657D01*
X141733324Y-87175602D01*
X141651825Y-87230058D01*
X141609281Y-87264973D01*
X141539973Y-87334281D01*
X141505058Y-87376825D01*
X141450602Y-87458324D01*
X141424657Y-87506864D01*
X141387148Y-87597420D01*
X141371173Y-87650086D01*
X141352051Y-87746219D01*
X141346656Y-87800991D01*
X141346656Y-87825553D01*
X141344248Y-87850000D01*
X141344248Y-88350000D01*
X141346656Y-88374447D01*
X141346656Y-88399009D01*
X141352051Y-88453781D01*
X141371173Y-88549914D01*
X141387148Y-88602580D01*
X141424657Y-88693136D01*
X141450602Y-88741676D01*
X141505058Y-88823175D01*
X141539973Y-88865719D01*
X141609281Y-88935027D01*
X141651825Y-88969942D01*
X141670601Y-88982488D01*
X141670601Y-89124173D01*
X141577897Y-89216877D01*
X141551860Y-89222056D01*
X141455515Y-89261963D01*
X141368807Y-89319900D01*
X141295068Y-89393639D01*
X141237131Y-89480347D01*
X141197224Y-89576692D01*
X141176880Y-89678971D01*
X141176880Y-89783253D01*
X141197224Y-89885532D01*
X141237131Y-89981877D01*
X141295068Y-90068585D01*
X141368807Y-90142324D01*
X141455515Y-90200261D01*
X141551860Y-90240168D01*
X141654139Y-90260512D01*
X141758421Y-90260512D01*
X141860700Y-90240168D01*
X141957045Y-90200261D01*
X142015930Y-90160915D01*
X142047747Y-90237728D01*
X142105684Y-90324436D01*
X142179423Y-90398175D01*
X142266131Y-90456112D01*
X142362476Y-90496019D01*
X142464755Y-90516363D01*
X142569037Y-90516363D01*
X142671316Y-90496019D01*
X142767661Y-90456112D01*
X142854369Y-90398175D01*
X142928108Y-90324436D01*
X142986045Y-90237728D01*
X143025952Y-90141383D01*
X143031602Y-90112977D01*
X143504858Y-90112977D01*
X143499729Y-90138762D01*
X143499729Y-90233196D01*
X143518152Y-90325815D01*
X143554290Y-90413060D01*
X143606754Y-90491579D01*
X143623529Y-90508354D01*
X143623529Y-90671596D01*
X143582033Y-90630100D01*
X143495325Y-90572163D01*
X143398980Y-90532256D01*
X143296701Y-90511912D01*
X143192419Y-90511912D01*
X143090140Y-90532256D01*
X142993795Y-90572163D01*
X142907087Y-90630100D01*
X142833348Y-90703839D01*
X142775411Y-90790547D01*
X142735504Y-90886892D01*
X142730325Y-90912928D01*
X142667261Y-90975993D01*
X142666676Y-90975602D01*
X142618136Y-90949657D01*
X142527580Y-90912148D01*
X142474914Y-90896173D01*
X142378781Y-90877051D01*
X142324009Y-90871656D01*
X142299447Y-90871656D01*
X142275000Y-90869248D01*
X141775000Y-90869248D01*
X141720228Y-90874643D01*
X141667561Y-90890619D01*
X141625000Y-90913368D01*
X141582439Y-90890619D01*
X141529772Y-90874643D01*
X141475000Y-90869248D01*
X140975000Y-90869248D01*
X140950553Y-90871656D01*
X140925991Y-90871656D01*
X140871219Y-90877051D01*
X140775086Y-90896173D01*
X140722420Y-90912148D01*
X140631864Y-90949657D01*
X140583324Y-90975602D01*
X140501825Y-91030058D01*
X140459281Y-91064973D01*
X140389973Y-91134281D01*
X140355058Y-91176825D01*
X140300602Y-91258324D01*
X140274657Y-91306864D01*
X140237148Y-91397420D01*
X140221173Y-91450086D01*
X140217093Y-91470600D01*
X138184060Y-91470600D01*
X138184056Y-91470580D01*
X138144149Y-91374235D01*
X138086212Y-91287527D01*
X138012473Y-91213788D01*
X137925765Y-91155851D01*
X137829420Y-91115944D01*
X137727141Y-91095600D01*
X137622859Y-91095600D01*
X137520580Y-91115944D01*
X137424235Y-91155851D01*
X137337527Y-91213788D01*
X137263788Y-91287527D01*
X137205851Y-91374235D01*
X137165944Y-91470580D01*
X137145600Y-91572859D01*
X137145600Y-91677141D01*
X137165944Y-91779420D01*
X137205851Y-91875765D01*
X137263788Y-91962473D01*
X137337527Y-92036212D01*
X137424235Y-92094149D01*
X137520580Y-92134056D01*
X137590752Y-92148014D01*
X137631453Y-92188715D01*
X137644900Y-92205100D01*
X137704217Y-92253781D01*
X137710284Y-92258760D01*
X137784880Y-92298633D01*
X137816538Y-92308236D01*
X137865823Y-92323186D01*
X137928913Y-92329400D01*
X137928920Y-92329400D01*
X137950000Y-92331476D01*
X137971080Y-92329400D01*
X140217093Y-92329400D01*
X140221173Y-92349914D01*
X140237148Y-92402580D01*
X140274657Y-92493136D01*
X140300602Y-92541676D01*
X140355058Y-92623175D01*
X140389973Y-92665719D01*
X140459281Y-92735027D01*
X140501825Y-92769942D01*
X140583324Y-92824398D01*
X140631864Y-92850343D01*
X140722420Y-92887852D01*
X140775086Y-92903827D01*
X140871219Y-92922949D01*
X140925991Y-92928344D01*
X140950553Y-92928344D01*
X140975000Y-92930752D01*
X141475000Y-92930752D01*
X141529772Y-92925357D01*
X141582439Y-92909381D01*
X141625000Y-92886632D01*
X141667561Y-92909381D01*
X141720228Y-92925357D01*
X141775000Y-92930752D01*
X142275000Y-92930752D01*
X142299447Y-92928344D01*
X142324009Y-92928344D01*
X142378781Y-92922949D01*
X142474914Y-92903827D01*
X142527580Y-92887852D01*
X142618136Y-92850343D01*
X142666676Y-92824398D01*
X142748175Y-92769942D01*
X142790719Y-92735027D01*
X142860027Y-92665719D01*
X142894942Y-92623175D01*
X142949398Y-92541676D01*
X142975343Y-92493136D01*
X143012852Y-92402580D01*
X143024400Y-92364508D01*
X143024401Y-92869863D01*
X142375470Y-93518795D01*
X142361906Y-93529927D01*
X142317468Y-93584074D01*
X142284448Y-93645850D01*
X142264115Y-93712880D01*
X142261380Y-93740645D01*
X142242194Y-93759831D01*
X142189730Y-93838350D01*
X142153592Y-93925595D01*
X142135169Y-94018214D01*
X142135169Y-94112648D01*
X142153592Y-94205267D01*
X142189730Y-94292512D01*
X142242194Y-94371031D01*
X142308969Y-94437806D01*
X142387488Y-94490270D01*
X142474733Y-94526408D01*
X142567352Y-94544831D01*
X142661786Y-94544831D01*
X142754405Y-94526408D01*
X142841650Y-94490270D01*
X142920169Y-94437806D01*
X142986944Y-94371031D01*
X143039408Y-94292512D01*
X143075546Y-94205267D01*
X143093969Y-94112648D01*
X143093969Y-94018214D01*
X143075546Y-93925595D01*
X143045938Y-93854114D01*
X143367562Y-93532490D01*
X143367561Y-95601286D01*
X138788089Y-100180759D01*
X138772664Y-100193418D01*
X138760005Y-100208843D01*
X138760003Y-100208845D01*
X138722128Y-100254996D01*
X138684576Y-100325250D01*
X138661452Y-100401479D01*
X138653645Y-100480755D01*
X138655601Y-100500617D01*
X138655601Y-100557120D01*
X138610086Y-100566173D01*
X138557420Y-100582148D01*
X138466864Y-100619657D01*
X138418324Y-100645602D01*
X138336825Y-100700058D01*
X138294281Y-100734973D01*
X138224973Y-100804281D01*
X138190058Y-100846825D01*
X138135602Y-100928324D01*
X138109657Y-100976864D01*
X138072148Y-101067420D01*
X138056173Y-101120086D01*
X138037051Y-101216219D01*
X138031656Y-101270991D01*
X138031656Y-101295553D01*
X138029248Y-101320000D01*
X138029248Y-101820000D01*
X138034643Y-101874772D01*
X138050619Y-101927439D01*
X138073368Y-101970000D01*
X138050619Y-102012561D01*
X138034643Y-102065228D01*
X138029248Y-102120000D01*
X138029248Y-102620000D01*
X138031656Y-102644447D01*
X138031656Y-102669009D01*
X138037051Y-102723781D01*
X138056173Y-102819914D01*
X138072148Y-102872580D01*
X138109657Y-102963136D01*
X138135602Y-103011676D01*
X138190058Y-103093175D01*
X138224973Y-103135719D01*
X138294281Y-103205027D01*
X138336825Y-103239942D01*
X138418324Y-103294398D01*
X138466864Y-103320343D01*
X138557420Y-103357852D01*
X138610086Y-103373827D01*
X138706219Y-103392949D01*
X138760991Y-103398344D01*
X138785553Y-103398344D01*
X138810000Y-103400752D01*
X139310000Y-103400752D01*
X139334447Y-103398344D01*
X139359009Y-103398344D01*
X139413781Y-103392949D01*
X139509914Y-103373827D01*
X139562580Y-103357852D01*
X139653136Y-103320343D01*
X139701676Y-103294398D01*
X139783175Y-103239942D01*
X139825719Y-103205027D01*
X139895027Y-103135719D01*
X139929942Y-103093175D01*
X139984398Y-103011676D01*
X139993632Y-102994400D01*
X140370359Y-102994400D01*
X140396590Y-103020631D01*
X140487393Y-103081303D01*
X140588287Y-103123095D01*
X140695396Y-103144400D01*
X140804604Y-103144400D01*
X140911713Y-103123095D01*
X141012607Y-103081303D01*
X141103410Y-103020631D01*
X141180631Y-102943410D01*
X141241303Y-102852607D01*
X141283095Y-102751713D01*
X141304400Y-102644604D01*
X141304400Y-102535396D01*
X141283095Y-102428287D01*
X141241303Y-102327393D01*
X141180631Y-102236590D01*
X141103410Y-102159369D01*
X141012607Y-102098697D01*
X140911713Y-102056905D01*
X140804604Y-102035600D01*
X140695396Y-102035600D01*
X140588287Y-102056905D01*
X140487393Y-102098697D01*
X140396590Y-102159369D01*
X140370359Y-102185600D01*
X140090752Y-102185600D01*
X140090752Y-102120000D01*
X140085357Y-102065228D01*
X140069381Y-102012561D01*
X140046632Y-101970000D01*
X140069381Y-101927439D01*
X140085357Y-101874772D01*
X140090752Y-101820000D01*
X140090752Y-101320000D01*
X140088344Y-101295553D01*
X140088344Y-101270991D01*
X140082949Y-101216219D01*
X140063827Y-101120086D01*
X140047852Y-101067420D01*
X140010343Y-100976864D01*
X139984398Y-100928324D01*
X139929942Y-100846825D01*
X139895027Y-100804281D01*
X139825719Y-100734973D01*
X139783175Y-100700058D01*
X139701676Y-100645602D01*
X139653136Y-100619657D01*
X139562580Y-100582148D01*
X139537977Y-100574685D01*
X144043874Y-96068789D01*
X144059298Y-96056131D01*
X144109834Y-95994553D01*
X144147385Y-95924300D01*
X144170509Y-95848070D01*
X144176361Y-95788654D01*
X144176361Y-95788644D01*
X144178316Y-95768795D01*
X144176361Y-95748945D01*
X144176361Y-92447121D01*
X144728438Y-91895044D01*
X144743868Y-91882381D01*
X144794404Y-91820803D01*
X144831955Y-91750550D01*
X144855079Y-91674320D01*
X144860931Y-91614904D01*
X144860931Y-91614894D01*
X144862886Y-91595045D01*
X144860931Y-91575195D01*
X144860931Y-89976685D01*
X144862887Y-89956825D01*
X144855079Y-89877548D01*
X144831955Y-89801319D01*
X144824757Y-89787853D01*
X144794404Y-89731066D01*
X144743868Y-89669488D01*
X144728437Y-89656824D01*
X144508284Y-89436671D01*
X144495620Y-89421240D01*
X144434042Y-89370704D01*
X144363789Y-89333153D01*
X144287559Y-89310029D01*
X144228143Y-89304177D01*
X144228135Y-89304177D01*
X144208283Y-89302222D01*
X144188431Y-89304177D01*
X142815131Y-89304177D01*
X142795281Y-89302222D01*
X142775432Y-89304177D01*
X142775422Y-89304177D01*
X142716006Y-89310029D01*
X142639776Y-89333153D01*
X142576207Y-89367131D01*
X142579400Y-89334710D01*
X142579400Y-89334707D01*
X142581598Y-89312392D01*
X142579400Y-89290077D01*
X142579400Y-89130752D01*
X142625000Y-89130752D01*
X142679772Y-89125357D01*
X142732439Y-89109381D01*
X142775000Y-89086632D01*
X142817561Y-89109381D01*
X142870228Y-89125357D01*
X142925000Y-89130752D01*
X143425000Y-89130752D01*
X143449447Y-89128344D01*
X143474009Y-89128344D01*
X143528781Y-89122949D01*
X143624914Y-89103827D01*
X143677580Y-89087852D01*
X143768136Y-89050343D01*
X143816676Y-89024398D01*
X143898175Y-88969942D01*
X143940719Y-88935027D01*
X144010027Y-88865719D01*
X144044942Y-88823175D01*
X144070980Y-88784207D01*
X144072756Y-88790063D01*
X144112629Y-88864660D01*
X144166289Y-88930045D01*
X144182674Y-88943492D01*
X144843902Y-89604721D01*
X144857345Y-89621101D01*
X144922729Y-89674761D01*
X144955054Y-89692039D01*
X144984535Y-89707798D01*
X145003933Y-89727195D01*
X145001522Y-89731706D01*
X144936942Y-89944599D01*
X144915136Y-90166000D01*
X144936942Y-90387401D01*
X145001522Y-90600294D01*
X145106395Y-90796497D01*
X145247530Y-90968470D01*
X145419503Y-91109605D01*
X145615706Y-91214478D01*
X145828599Y-91279058D01*
X145994523Y-91295400D01*
X146105477Y-91295400D01*
X146271401Y-91279058D01*
X146484294Y-91214478D01*
X146680497Y-91109605D01*
X146852470Y-90968470D01*
X146968000Y-90827696D01*
X146968000Y-92044304D01*
X146852470Y-91903530D01*
X146680497Y-91762395D01*
X146484294Y-91657522D01*
X146271401Y-91592942D01*
X146105477Y-91576600D01*
X145994523Y-91576600D01*
X145828599Y-91592942D01*
X145615706Y-91657522D01*
X145419503Y-91762395D01*
X145247530Y-91903530D01*
X145106395Y-92075503D01*
X145001522Y-92271706D01*
X144936942Y-92484599D01*
X144915136Y-92706000D01*
X144936942Y-92927401D01*
X145001522Y-93140294D01*
X145106395Y-93336497D01*
X145247530Y-93508470D01*
X145419503Y-93649605D01*
X145615706Y-93754478D01*
X145828599Y-93819058D01*
X145994523Y-93835400D01*
X146105477Y-93835400D01*
X146271401Y-93819058D01*
X146484294Y-93754478D01*
X146680497Y-93649605D01*
X146852470Y-93508470D01*
X146968000Y-93367696D01*
X146968001Y-94584304D01*
X146852470Y-94443530D01*
X146680497Y-94302395D01*
X146484294Y-94197522D01*
X146271401Y-94132942D01*
X146105477Y-94116600D01*
X145994523Y-94116600D01*
X145828599Y-94132942D01*
X145615706Y-94197522D01*
X145419503Y-94302395D01*
X145247530Y-94443530D01*
X145106395Y-94615503D01*
X145001522Y-94811706D01*
X144936942Y-95024599D01*
X144915136Y-95246000D01*
X144936942Y-95467401D01*
X145001522Y-95680294D01*
X145106395Y-95876497D01*
X145247530Y-96048470D01*
X145419503Y-96189605D01*
X145615706Y-96294478D01*
X145828599Y-96359058D01*
X145994523Y-96375400D01*
X146105477Y-96375400D01*
X146271401Y-96359058D01*
X146484294Y-96294478D01*
X146680497Y-96189605D01*
X146852470Y-96048470D01*
X146968001Y-95907696D01*
X146968001Y-97124304D01*
X146852470Y-96983530D01*
X146680497Y-96842395D01*
X146484294Y-96737522D01*
X146271401Y-96672942D01*
X146105477Y-96656600D01*
X145994523Y-96656600D01*
X145828599Y-96672942D01*
X145615706Y-96737522D01*
X145419503Y-96842395D01*
X145247530Y-96983530D01*
X145190574Y-97052931D01*
X145183622Y-97042527D01*
X145109883Y-96968788D01*
X145023175Y-96910851D01*
X144926830Y-96870944D01*
X144824551Y-96850600D01*
X144761503Y-96850600D01*
X144774891Y-96818277D01*
X144795235Y-96715998D01*
X144795235Y-96611716D01*
X144774891Y-96509437D01*
X144734984Y-96413092D01*
X144677047Y-96326384D01*
X144603308Y-96252645D01*
X144516600Y-96194708D01*
X144420255Y-96154801D01*
X144317976Y-96134457D01*
X144213694Y-96134457D01*
X144111415Y-96154801D01*
X144015070Y-96194708D01*
X143928362Y-96252645D01*
X143854623Y-96326384D01*
X143796686Y-96413092D01*
X143756779Y-96509437D01*
X143736435Y-96611716D01*
X143736435Y-96715998D01*
X143756779Y-96818277D01*
X143796686Y-96914622D01*
X143854623Y-97001330D01*
X143890601Y-97037308D01*
X143890600Y-111227371D01*
X143888765Y-111246000D01*
X143890600Y-111264629D01*
X143890600Y-111264631D01*
X143896090Y-111320374D01*
X143917785Y-111391891D01*
X143917786Y-111391892D01*
X143953015Y-111457803D01*
X143977513Y-111487653D01*
X144000426Y-111515574D01*
X144014902Y-111527454D01*
X145028563Y-112541116D01*
X145001522Y-112591706D01*
X144936942Y-112804599D01*
X144915136Y-113026000D01*
X144936942Y-113247401D01*
X145001522Y-113460294D01*
X145106395Y-113656497D01*
X145247530Y-113828470D01*
X145419503Y-113969605D01*
X145615706Y-114074478D01*
X145828599Y-114139058D01*
X145994523Y-114155400D01*
X146105477Y-114155400D01*
X146271401Y-114139058D01*
X146484294Y-114074478D01*
X146680497Y-113969605D01*
X146852470Y-113828470D01*
X146968001Y-113687696D01*
X146968001Y-116822775D01*
X146924674Y-117264659D01*
X146801346Y-117673139D01*
X146601025Y-118049889D01*
X146331346Y-118380548D01*
X146002569Y-118652535D01*
X145627231Y-118855480D01*
X145219621Y-118981657D01*
X144778692Y-119028000D01*
X127017215Y-119028000D01*
X126778298Y-119004574D01*
X126038938Y-118793328D01*
X125790111Y-118661025D01*
X125459452Y-118391346D01*
X125187465Y-118062569D01*
X124984520Y-117687231D01*
X124858343Y-117279621D01*
X124812000Y-116838692D01*
X124812000Y-116683397D01*
X125450600Y-116683397D01*
X125450600Y-116988603D01*
X125510142Y-117287943D01*
X125626939Y-117569916D01*
X125796502Y-117823685D01*
X126012315Y-118039498D01*
X126266084Y-118209061D01*
X126548057Y-118325858D01*
X126847397Y-118385400D01*
X127152603Y-118385400D01*
X127451943Y-118325858D01*
X127733916Y-118209061D01*
X127987685Y-118039498D01*
X128203498Y-117823685D01*
X128373061Y-117569916D01*
X128489858Y-117287943D01*
X128549400Y-116988603D01*
X128549400Y-116683397D01*
X143230600Y-116683397D01*
X143230600Y-116988603D01*
X143290142Y-117287943D01*
X143406939Y-117569916D01*
X143576502Y-117823685D01*
X143792315Y-118039498D01*
X144046084Y-118209061D01*
X144328057Y-118325858D01*
X144627397Y-118385400D01*
X144932603Y-118385400D01*
X145231943Y-118325858D01*
X145513916Y-118209061D01*
X145767685Y-118039498D01*
X145983498Y-117823685D01*
X146153061Y-117569916D01*
X146269858Y-117287943D01*
X146329400Y-116988603D01*
X146329400Y-116683397D01*
X146269858Y-116384057D01*
X146153061Y-116102084D01*
X145983498Y-115848315D01*
X145767685Y-115632502D01*
X145513916Y-115462939D01*
X145231943Y-115346142D01*
X144932603Y-115286600D01*
X144627397Y-115286600D01*
X144328057Y-115346142D01*
X144046084Y-115462939D01*
X143792315Y-115632502D01*
X143576502Y-115848315D01*
X143406939Y-116102084D01*
X143290142Y-116384057D01*
X143230600Y-116683397D01*
X128549400Y-116683397D01*
X128489858Y-116384057D01*
X128373061Y-116102084D01*
X128203498Y-115848315D01*
X127987685Y-115632502D01*
X127733916Y-115462939D01*
X127451943Y-115346142D01*
X127152603Y-115286600D01*
X126847397Y-115286600D01*
X126548057Y-115346142D01*
X126266084Y-115462939D01*
X126012315Y-115632502D01*
X125796502Y-115848315D01*
X125626939Y-116102084D01*
X125510142Y-116384057D01*
X125450600Y-116683397D01*
X124812000Y-116683397D01*
X124812000Y-111147697D01*
X124927530Y-111288470D01*
X125099503Y-111429605D01*
X125295706Y-111534478D01*
X125508599Y-111599058D01*
X125674523Y-111615400D01*
X125785477Y-111615400D01*
X125951401Y-111599058D01*
X126164294Y-111534478D01*
X126360497Y-111429605D01*
X126532470Y-111288470D01*
X126673605Y-111116497D01*
X126778478Y-110920294D01*
X126843058Y-110707401D01*
X126864864Y-110486000D01*
X126843058Y-110264599D01*
X126778478Y-110051706D01*
X126673605Y-109855503D01*
X126532470Y-109683530D01*
X126360497Y-109542395D01*
X126164294Y-109437522D01*
X125951401Y-109372942D01*
X125785477Y-109356600D01*
X125674523Y-109356600D01*
X125508599Y-109372942D01*
X125295706Y-109437522D01*
X125099503Y-109542395D01*
X124927530Y-109683530D01*
X124812000Y-109824303D01*
X124812000Y-108607697D01*
X124927530Y-108748470D01*
X125099503Y-108889605D01*
X125295706Y-108994478D01*
X125508599Y-109059058D01*
X125674523Y-109075400D01*
X125785477Y-109075400D01*
X125951401Y-109059058D01*
X126164294Y-108994478D01*
X126360497Y-108889605D01*
X126532470Y-108748470D01*
X126673605Y-108576497D01*
X126778478Y-108380294D01*
X126843058Y-108167401D01*
X126864864Y-107946000D01*
X126843058Y-107724599D01*
X126778478Y-107511706D01*
X126673605Y-107315503D01*
X126532470Y-107143530D01*
X126360497Y-107002395D01*
X126164294Y-106897522D01*
X125951401Y-106832942D01*
X125785477Y-106816600D01*
X125674523Y-106816600D01*
X125508599Y-106832942D01*
X125295706Y-106897522D01*
X125099503Y-107002395D01*
X124927530Y-107143530D01*
X124812000Y-107284303D01*
X124812000Y-106067697D01*
X124927530Y-106208470D01*
X125099503Y-106349605D01*
X125295706Y-106454478D01*
X125508599Y-106519058D01*
X125674523Y-106535400D01*
X125785477Y-106535400D01*
X125951401Y-106519058D01*
X126164294Y-106454478D01*
X126360497Y-106349605D01*
X126532470Y-106208470D01*
X126673605Y-106036497D01*
X126778478Y-105840294D01*
X126843058Y-105627401D01*
X126864864Y-105406000D01*
X126843058Y-105184599D01*
X126778478Y-104971706D01*
X126673605Y-104775503D01*
X126532470Y-104603530D01*
X126360497Y-104462395D01*
X126164294Y-104357522D01*
X125951401Y-104292942D01*
X125785477Y-104276600D01*
X125674523Y-104276600D01*
X125508599Y-104292942D01*
X125295706Y-104357522D01*
X125099503Y-104462395D01*
X124927530Y-104603530D01*
X124812000Y-104744303D01*
X124812000Y-103527697D01*
X124927530Y-103668470D01*
X125099503Y-103809605D01*
X125295706Y-103914478D01*
X125508599Y-103979058D01*
X125674523Y-103995400D01*
X125785477Y-103995400D01*
X125951401Y-103979058D01*
X126164294Y-103914478D01*
X126360497Y-103809605D01*
X126532470Y-103668470D01*
X126673605Y-103496497D01*
X126778478Y-103300294D01*
X126843058Y-103087401D01*
X126843846Y-103079400D01*
X130131010Y-103079400D01*
X130142866Y-103139005D01*
X130186543Y-103244449D01*
X130249951Y-103339346D01*
X130330654Y-103420049D01*
X130425551Y-103483457D01*
X130530995Y-103527134D01*
X130642934Y-103549400D01*
X130757066Y-103549400D01*
X130869005Y-103527134D01*
X130974449Y-103483457D01*
X131069346Y-103420049D01*
X131150049Y-103339346D01*
X131213457Y-103244449D01*
X131257134Y-103139005D01*
X131279400Y-103027066D01*
X131279400Y-102912934D01*
X131257134Y-102800995D01*
X131213457Y-102695551D01*
X131150049Y-102600654D01*
X131069346Y-102519951D01*
X130974449Y-102456543D01*
X130869005Y-102412866D01*
X130847822Y-102408652D01*
X130870765Y-102399149D01*
X130957473Y-102341212D01*
X131031212Y-102267473D01*
X131089149Y-102180765D01*
X131129056Y-102084420D01*
X131149400Y-101982141D01*
X131149400Y-101877859D01*
X131129056Y-101775580D01*
X131089149Y-101679235D01*
X131031212Y-101592527D01*
X130957473Y-101518788D01*
X130870765Y-101460851D01*
X130774420Y-101420944D01*
X130672141Y-101400600D01*
X130567859Y-101400600D01*
X130465580Y-101420944D01*
X130369235Y-101460851D01*
X130282527Y-101518788D01*
X130208788Y-101592527D01*
X130150851Y-101679235D01*
X130110944Y-101775580D01*
X130090600Y-101877859D01*
X130090600Y-101930600D01*
X127599010Y-101930600D01*
X126651654Y-100983244D01*
X126673605Y-100956497D01*
X126778478Y-100760294D01*
X126843058Y-100547401D01*
X126864864Y-100326000D01*
X126843058Y-100104599D01*
X126778478Y-99891706D01*
X126673605Y-99695503D01*
X126532470Y-99523530D01*
X126360497Y-99382395D01*
X126164294Y-99277522D01*
X125951401Y-99212942D01*
X125785477Y-99196600D01*
X125674523Y-99196600D01*
X125508599Y-99212942D01*
X125295706Y-99277522D01*
X125099503Y-99382395D01*
X124927530Y-99523530D01*
X124812000Y-99664303D01*
X124812000Y-98447697D01*
X124927530Y-98588470D01*
X125099503Y-98729605D01*
X125295706Y-98834478D01*
X125508599Y-98899058D01*
X125674523Y-98915400D01*
X125785477Y-98915400D01*
X125951401Y-98899058D01*
X126164294Y-98834478D01*
X126214884Y-98807437D01*
X126982550Y-99575103D01*
X126994426Y-99589574D01*
X127008897Y-99601450D01*
X127008898Y-99601451D01*
X127052197Y-99636985D01*
X127118107Y-99672215D01*
X127134753Y-99677264D01*
X127189625Y-99693910D01*
X127245368Y-99699400D01*
X127245371Y-99699400D01*
X127264000Y-99701235D01*
X127282629Y-99699400D01*
X130220715Y-99699400D01*
X130252527Y-99731212D01*
X130339235Y-99789149D01*
X130435580Y-99829056D01*
X130537859Y-99849400D01*
X130642141Y-99849400D01*
X130744420Y-99829056D01*
X130840765Y-99789149D01*
X130927473Y-99731212D01*
X131001212Y-99657473D01*
X131059149Y-99570765D01*
X131099056Y-99474420D01*
X131119400Y-99372141D01*
X131119400Y-99267859D01*
X131099056Y-99165580D01*
X131059149Y-99069235D01*
X131001212Y-98982527D01*
X130927473Y-98908788D01*
X130840765Y-98850851D01*
X130744420Y-98810944D01*
X130642141Y-98790600D01*
X130537859Y-98790600D01*
X130435580Y-98810944D01*
X130339235Y-98850851D01*
X130252527Y-98908788D01*
X130220715Y-98940600D01*
X127866151Y-98940600D01*
X127923622Y-98883129D01*
X127981559Y-98796421D01*
X128021466Y-98700076D01*
X128041810Y-98597797D01*
X128041810Y-98493515D01*
X128021466Y-98391236D01*
X127981559Y-98294891D01*
X127923622Y-98208183D01*
X127849883Y-98134444D01*
X127763175Y-98076507D01*
X127666830Y-98036600D01*
X127596658Y-98022642D01*
X127454578Y-97880562D01*
X127454578Y-93691130D01*
X130079293Y-96315846D01*
X130090944Y-96374420D01*
X130130851Y-96470765D01*
X130188788Y-96557473D01*
X130262527Y-96631212D01*
X130349235Y-96689149D01*
X130445580Y-96729056D01*
X130547859Y-96749400D01*
X130652141Y-96749400D01*
X130754420Y-96729056D01*
X130850765Y-96689149D01*
X130937473Y-96631212D01*
X131011212Y-96557473D01*
X131069149Y-96470765D01*
X131109056Y-96374420D01*
X131129400Y-96272141D01*
X131129400Y-96167859D01*
X131109056Y-96065580D01*
X131069149Y-95969235D01*
X131028139Y-95907859D01*
X134450600Y-95907859D01*
X134450600Y-96012141D01*
X134470944Y-96114420D01*
X134510851Y-96210765D01*
X134568788Y-96297473D01*
X134642527Y-96371212D01*
X134729235Y-96429149D01*
X134825580Y-96469056D01*
X134927859Y-96489400D01*
X135032141Y-96489400D01*
X135134420Y-96469056D01*
X135230765Y-96429149D01*
X135317473Y-96371212D01*
X135391212Y-96297473D01*
X135449149Y-96210765D01*
X135472159Y-96155213D01*
X135505580Y-96169056D01*
X135607859Y-96189400D01*
X135712141Y-96189400D01*
X135814420Y-96169056D01*
X135910765Y-96129149D01*
X135997473Y-96071212D01*
X136029285Y-96039400D01*
X136991371Y-96039400D01*
X137010000Y-96041235D01*
X137028629Y-96039400D01*
X137028632Y-96039400D01*
X137084375Y-96033910D01*
X137155892Y-96012215D01*
X137221803Y-95976985D01*
X137279574Y-95929574D01*
X137291454Y-95915098D01*
X137767153Y-95439400D01*
X137812141Y-95439400D01*
X137914420Y-95419056D01*
X138010765Y-95379149D01*
X138097473Y-95321212D01*
X138171212Y-95247473D01*
X138229149Y-95160765D01*
X138269056Y-95064420D01*
X138289400Y-94962141D01*
X138289400Y-94857859D01*
X138269056Y-94755580D01*
X138229149Y-94659235D01*
X138171212Y-94572527D01*
X138097473Y-94498788D01*
X138010765Y-94440851D01*
X137914420Y-94400944D01*
X137812141Y-94380600D01*
X137707859Y-94380600D01*
X137605580Y-94400944D01*
X137509235Y-94440851D01*
X137422527Y-94498788D01*
X137358252Y-94563063D01*
X137351212Y-94552527D01*
X137277473Y-94478788D01*
X137190765Y-94420851D01*
X137094420Y-94380944D01*
X136992141Y-94360600D01*
X136887859Y-94360600D01*
X136785580Y-94380944D01*
X136689235Y-94420851D01*
X136602527Y-94478788D01*
X136570715Y-94510600D01*
X135715075Y-94510600D01*
X135696446Y-94508765D01*
X135677817Y-94510600D01*
X135677815Y-94510600D01*
X135622072Y-94516090D01*
X135550555Y-94537785D01*
X135537373Y-94544831D01*
X135484643Y-94573015D01*
X135441345Y-94608549D01*
X135426873Y-94620426D01*
X135414997Y-94634897D01*
X134724902Y-95324993D01*
X134710426Y-95336873D01*
X134698549Y-95351346D01*
X134663015Y-95394644D01*
X134649967Y-95419056D01*
X134627785Y-95460556D01*
X134606090Y-95532073D01*
X134602476Y-95568768D01*
X134600283Y-95591032D01*
X134568788Y-95622527D01*
X134510851Y-95709235D01*
X134470944Y-95805580D01*
X134450600Y-95907859D01*
X131028139Y-95907859D01*
X131011212Y-95882527D01*
X130938114Y-95809429D01*
X130981059Y-95745159D01*
X131020966Y-95648814D01*
X131041310Y-95546535D01*
X131041310Y-95442253D01*
X131020966Y-95339974D01*
X130981059Y-95243629D01*
X130923122Y-95156921D01*
X130849383Y-95083182D01*
X130762675Y-95025245D01*
X130666330Y-94985338D01*
X130564051Y-94964994D01*
X130519062Y-94964994D01*
X130076851Y-94522783D01*
X132480600Y-94522783D01*
X132480600Y-94617217D01*
X132499023Y-94709836D01*
X132535161Y-94797081D01*
X132587625Y-94875600D01*
X132654400Y-94942375D01*
X132732919Y-94994839D01*
X132820164Y-95030977D01*
X132912783Y-95049400D01*
X133007217Y-95049400D01*
X133099836Y-95030977D01*
X133187081Y-94994839D01*
X133265600Y-94942375D01*
X133290000Y-94917975D01*
X133314400Y-94942375D01*
X133392919Y-94994839D01*
X133480164Y-95030977D01*
X133572783Y-95049400D01*
X133667217Y-95049400D01*
X133759836Y-95030977D01*
X133847081Y-94994839D01*
X133925600Y-94942375D01*
X133992375Y-94875600D01*
X134044839Y-94797081D01*
X134080977Y-94709836D01*
X134099400Y-94617217D01*
X134099400Y-94522783D01*
X134080977Y-94430164D01*
X134044839Y-94342919D01*
X133997097Y-94271468D01*
X133994544Y-93941914D01*
X133996235Y-93924748D01*
X133994255Y-93904651D01*
X133994244Y-93903177D01*
X133992426Y-93886073D01*
X133988909Y-93850373D01*
X133988479Y-93848956D01*
X133988322Y-93847478D01*
X133977647Y-93813247D01*
X133967215Y-93778856D01*
X133966513Y-93777542D01*
X133966073Y-93776132D01*
X133948951Y-93744686D01*
X133931985Y-93712946D01*
X133931043Y-93711798D01*
X133930334Y-93710496D01*
X133907360Y-93682940D01*
X133896451Y-93669647D01*
X133895408Y-93668604D01*
X133882477Y-93653094D01*
X133879400Y-93650608D01*
X133879400Y-84322783D01*
X135740600Y-84322783D01*
X135740600Y-84417217D01*
X135759023Y-84509836D01*
X135795161Y-84597081D01*
X135847625Y-84675600D01*
X135914400Y-84742375D01*
X135992919Y-84794839D01*
X136080164Y-84830977D01*
X136172783Y-84849400D01*
X136196507Y-84849400D01*
X137524400Y-86177294D01*
X137524401Y-86752535D01*
X137522681Y-86770000D01*
X137529546Y-86839710D01*
X137549880Y-86906741D01*
X137566390Y-86937628D01*
X137582900Y-86968516D01*
X137627338Y-87022663D01*
X137640901Y-87033794D01*
X138750600Y-88143494D01*
X138750600Y-88167217D01*
X138769023Y-88259836D01*
X138805161Y-88347081D01*
X138857625Y-88425600D01*
X138924400Y-88492375D01*
X139002919Y-88544839D01*
X139090164Y-88580977D01*
X139182783Y-88599400D01*
X139277217Y-88599400D01*
X139369836Y-88580977D01*
X139457081Y-88544839D01*
X139535600Y-88492375D01*
X139602375Y-88425600D01*
X139654839Y-88347081D01*
X139690977Y-88259836D01*
X139709400Y-88167217D01*
X139709400Y-88072783D01*
X139690977Y-87980164D01*
X139654839Y-87892919D01*
X139602375Y-87814400D01*
X139535600Y-87747625D01*
X139508324Y-87729400D01*
X139750715Y-87729400D01*
X139782527Y-87761212D01*
X139869235Y-87819149D01*
X139965580Y-87859056D01*
X140067859Y-87879400D01*
X140172141Y-87879400D01*
X140274420Y-87859056D01*
X140370765Y-87819149D01*
X140457473Y-87761212D01*
X140531212Y-87687473D01*
X140589149Y-87600765D01*
X140629056Y-87504420D01*
X140649400Y-87402141D01*
X140649400Y-87297859D01*
X140629056Y-87195580D01*
X140589149Y-87099235D01*
X140531212Y-87012527D01*
X140457473Y-86938788D01*
X140370765Y-86880851D01*
X140274420Y-86840944D01*
X140172141Y-86820600D01*
X140067859Y-86820600D01*
X139965580Y-86840944D01*
X139869235Y-86880851D01*
X139782527Y-86938788D01*
X139750715Y-86970600D01*
X139257153Y-86970600D01*
X138619400Y-86332848D01*
X138619400Y-85055086D01*
X138664839Y-84987081D01*
X138700977Y-84899836D01*
X138719400Y-84807217D01*
X138719400Y-84712783D01*
X138700977Y-84620164D01*
X138664839Y-84532919D01*
X138612375Y-84454400D01*
X138545600Y-84387625D01*
X138467081Y-84335161D01*
X138379836Y-84299023D01*
X138287217Y-84280600D01*
X138192783Y-84280600D01*
X138100164Y-84299023D01*
X138012919Y-84335161D01*
X137934400Y-84387625D01*
X137867625Y-84454400D01*
X137815161Y-84532919D01*
X137779023Y-84620164D01*
X137760600Y-84712783D01*
X137760600Y-84807217D01*
X137779023Y-84899836D01*
X137815161Y-84987081D01*
X137860600Y-85055086D01*
X137860600Y-85061473D01*
X137860601Y-85061483D01*
X137860601Y-85507707D01*
X136699400Y-84346507D01*
X136699400Y-84322783D01*
X136680977Y-84230164D01*
X136644839Y-84142919D01*
X136592375Y-84064400D01*
X136525600Y-83997625D01*
X136447081Y-83945161D01*
X136359836Y-83909023D01*
X136267217Y-83890600D01*
X136172783Y-83890600D01*
X136080164Y-83909023D01*
X135992919Y-83945161D01*
X135914400Y-83997625D01*
X135847625Y-84064400D01*
X135795161Y-84142919D01*
X135759023Y-84230164D01*
X135740600Y-84322783D01*
X133879400Y-84322783D01*
X133879400Y-82932783D01*
X142580600Y-82932783D01*
X142580600Y-83027217D01*
X142599023Y-83119836D01*
X142635161Y-83207081D01*
X142687625Y-83285600D01*
X142754400Y-83352375D01*
X142832919Y-83404839D01*
X142920164Y-83440977D01*
X143012783Y-83459400D01*
X143107217Y-83459400D01*
X143199836Y-83440977D01*
X143287081Y-83404839D01*
X143365600Y-83352375D01*
X143432375Y-83285600D01*
X143484839Y-83207081D01*
X143520977Y-83119836D01*
X143539400Y-83027217D01*
X143539400Y-82932783D01*
X143520977Y-82840164D01*
X143484839Y-82752919D01*
X143432375Y-82674400D01*
X143365600Y-82607625D01*
X143287081Y-82555161D01*
X143199836Y-82519023D01*
X143107217Y-82500600D01*
X143012783Y-82500600D01*
X142920164Y-82519023D01*
X142832919Y-82555161D01*
X142754400Y-82607625D01*
X142687625Y-82674400D01*
X142635161Y-82752919D01*
X142599023Y-82840164D01*
X142580600Y-82932783D01*
X133879400Y-82932783D01*
X133879400Y-80075352D01*
X135641020Y-78313733D01*
X135673565Y-78327214D01*
X135766184Y-78345637D01*
X135860618Y-78345637D01*
X135953237Y-78327214D01*
X136040482Y-78291076D01*
X136119001Y-78238612D01*
X136185776Y-78171837D01*
X136238240Y-78093318D01*
X136274378Y-78006073D01*
X136292801Y-77913454D01*
X136292801Y-77819020D01*
X136274378Y-77726401D01*
X136238240Y-77639156D01*
X136185776Y-77560637D01*
X136140807Y-77515668D01*
X136205600Y-77472375D01*
X136272375Y-77405600D01*
X136324839Y-77327081D01*
X136360977Y-77239836D01*
X136379400Y-77147217D01*
X136379400Y-77052783D01*
X136360977Y-76960164D01*
X136324839Y-76872919D01*
X136272375Y-76794400D01*
X136205600Y-76727625D01*
X136127081Y-76675161D01*
X136039836Y-76639023D01*
X135947217Y-76620600D01*
X135852783Y-76620600D01*
X135760164Y-76639023D01*
X135672919Y-76675161D01*
X135594400Y-76727625D01*
X135590932Y-76731093D01*
X135552553Y-76742736D01*
X135535907Y-76747785D01*
X135488885Y-76772919D01*
X135469997Y-76783015D01*
X135412226Y-76830426D01*
X135400350Y-76844897D01*
X132844902Y-79400346D01*
X132830426Y-79412226D01*
X132818549Y-79426699D01*
X132783015Y-79469997D01*
X132766979Y-79500000D01*
X132747785Y-79535909D01*
X132726090Y-79607426D01*
X132720607Y-79663099D01*
X132718765Y-79681800D01*
X132720600Y-79700429D01*
X132720601Y-93622692D01*
X132698970Y-93644323D01*
X132683483Y-93657231D01*
X132660935Y-93685135D01*
X132638112Y-93712945D01*
X132637425Y-93714230D01*
X132636512Y-93715360D01*
X132619817Y-93747174D01*
X132602883Y-93778856D01*
X132602461Y-93780247D01*
X132601784Y-93781537D01*
X132591596Y-93816065D01*
X132581188Y-93850374D01*
X132581046Y-93851818D01*
X132580633Y-93853217D01*
X132577384Y-93888991D01*
X132573862Y-93924748D01*
X132575839Y-93944820D01*
X132578373Y-94278247D01*
X132535161Y-94342919D01*
X132499023Y-94430164D01*
X132480600Y-94522783D01*
X130076851Y-94522783D01*
X128379400Y-92825332D01*
X128379400Y-85030966D01*
X128412426Y-85024397D01*
X128499671Y-84988259D01*
X128578190Y-84935795D01*
X128644965Y-84869020D01*
X128697429Y-84790501D01*
X128733567Y-84703256D01*
X128751990Y-84610637D01*
X128751990Y-84516203D01*
X128733567Y-84423584D01*
X128697429Y-84336339D01*
X128644965Y-84257820D01*
X128578190Y-84191045D01*
X128499671Y-84138581D01*
X128412426Y-84102443D01*
X128319807Y-84084020D01*
X128225373Y-84084020D01*
X128132754Y-84102443D01*
X128045509Y-84138581D01*
X127966990Y-84191045D01*
X127900215Y-84257820D01*
X127847751Y-84336339D01*
X127818043Y-84408062D01*
X127775759Y-84379809D01*
X127688514Y-84343671D01*
X127595895Y-84325248D01*
X127501461Y-84325248D01*
X127454578Y-84334574D01*
X127454578Y-81322257D01*
X127456654Y-81301177D01*
X127454578Y-81280097D01*
X127454578Y-81280091D01*
X127448364Y-81217001D01*
X127423811Y-81136059D01*
X127383938Y-81061462D01*
X127360796Y-81033264D01*
X127343720Y-81012456D01*
X127343716Y-81012452D01*
X127330278Y-80996078D01*
X127313905Y-80982641D01*
X126776067Y-80444804D01*
X126778478Y-80440294D01*
X126843058Y-80227401D01*
X126864864Y-80006000D01*
X126843058Y-79784599D01*
X126778478Y-79571706D01*
X126673605Y-79375503D01*
X126532470Y-79203530D01*
X126360497Y-79062395D01*
X126164294Y-78957522D01*
X125951401Y-78892942D01*
X125785477Y-78876600D01*
X125674523Y-78876600D01*
X125508599Y-78892942D01*
X125295706Y-78957522D01*
X125099503Y-79062395D01*
X124927530Y-79203530D01*
X124812000Y-79344303D01*
X124812000Y-78127697D01*
X124927530Y-78268470D01*
X125099503Y-78409605D01*
X125295706Y-78514478D01*
X125508599Y-78579058D01*
X125674523Y-78595400D01*
X125785477Y-78595400D01*
X125951401Y-78579058D01*
X126142477Y-78521096D01*
X126274470Y-78653089D01*
X126274476Y-78653094D01*
X129036909Y-81415528D01*
X129051136Y-81432864D01*
X129068471Y-81447090D01*
X129120327Y-81489647D01*
X129179381Y-81521212D01*
X129199268Y-81531842D01*
X129284922Y-81557825D01*
X129351682Y-81564400D01*
X129351684Y-81564400D01*
X129373999Y-81566598D01*
X129396314Y-81564400D01*
X129857162Y-81564400D01*
X129879235Y-81579149D01*
X129975580Y-81619056D01*
X130077859Y-81639400D01*
X130182141Y-81639400D01*
X130284420Y-81619056D01*
X130380765Y-81579149D01*
X130467473Y-81521212D01*
X130541212Y-81447473D01*
X130599149Y-81360765D01*
X130639056Y-81264420D01*
X130659400Y-81162141D01*
X130659400Y-81057859D01*
X130639056Y-80955580D01*
X130599149Y-80859235D01*
X130541212Y-80772527D01*
X130467473Y-80698788D01*
X130380765Y-80640851D01*
X130284420Y-80600944D01*
X130182141Y-80580600D01*
X130077859Y-80580600D01*
X129975580Y-80600944D01*
X129879235Y-80640851D01*
X129857162Y-80655600D01*
X129562219Y-80655600D01*
X126917094Y-78010476D01*
X126917089Y-78010470D01*
X126785096Y-77878477D01*
X126843058Y-77687401D01*
X126864864Y-77466000D01*
X126843058Y-77244599D01*
X126778478Y-77031706D01*
X126673605Y-76835503D01*
X126532470Y-76663530D01*
X126360497Y-76522395D01*
X126164294Y-76417522D01*
X125951401Y-76352942D01*
X125785477Y-76336600D01*
X125674523Y-76336600D01*
X125508599Y-76352942D01*
X125295706Y-76417522D01*
X125099503Y-76522395D01*
X124927530Y-76663530D01*
X124812000Y-76804303D01*
X124812000Y-75587697D01*
X124927530Y-75728470D01*
X125099503Y-75869605D01*
X125295706Y-75974478D01*
X125508599Y-76039058D01*
X125674523Y-76055400D01*
X125785477Y-76055400D01*
X125951401Y-76039058D01*
X126164294Y-75974478D01*
X126360497Y-75869605D01*
X126532470Y-75728470D01*
X126565868Y-75687775D01*
X128150004Y-77271912D01*
X128162663Y-77287337D01*
X128224241Y-77337873D01*
X128288790Y-77372375D01*
X128294494Y-77375424D01*
X128370723Y-77398548D01*
X128377516Y-77399217D01*
X128430140Y-77404400D01*
X128430148Y-77404400D01*
X128450000Y-77406355D01*
X128469852Y-77404400D01*
X128492329Y-77404400D01*
X128522919Y-77424839D01*
X128610164Y-77460977D01*
X128702783Y-77479400D01*
X128797217Y-77479400D01*
X128889836Y-77460977D01*
X128977081Y-77424839D01*
X129055600Y-77372375D01*
X129122375Y-77305600D01*
X129174839Y-77227081D01*
X129210977Y-77139836D01*
X129229400Y-77047217D01*
X129229400Y-76952783D01*
X129210977Y-76860164D01*
X129174839Y-76772919D01*
X129122375Y-76694400D01*
X129055600Y-76627625D01*
X128977081Y-76575161D01*
X128889836Y-76539023D01*
X128797217Y-76520600D01*
X128702783Y-76520600D01*
X128610164Y-76539023D01*
X128575351Y-76553443D01*
X128074691Y-76052783D01*
X142540600Y-76052783D01*
X142540600Y-76147217D01*
X142559023Y-76239836D01*
X142595161Y-76327081D01*
X142647625Y-76405600D01*
X142714400Y-76472375D01*
X142792919Y-76524839D01*
X142880164Y-76560977D01*
X142972783Y-76579400D01*
X143067217Y-76579400D01*
X143159836Y-76560977D01*
X143247081Y-76524839D01*
X143325600Y-76472375D01*
X143392375Y-76405600D01*
X143444839Y-76327081D01*
X143480977Y-76239836D01*
X143499400Y-76147217D01*
X143499400Y-76052783D01*
X143480977Y-75960164D01*
X143444839Y-75872919D01*
X143392375Y-75794400D01*
X143325600Y-75727625D01*
X143247081Y-75675161D01*
X143159836Y-75639023D01*
X143067217Y-75620600D01*
X142972783Y-75620600D01*
X142880164Y-75639023D01*
X142792919Y-75675161D01*
X142714400Y-75727625D01*
X142647625Y-75794400D01*
X142595161Y-75872919D01*
X142559023Y-75960164D01*
X142540600Y-76052783D01*
X128074691Y-76052783D01*
X126855791Y-74833884D01*
X126843058Y-74704599D01*
X126778478Y-74491706D01*
X126673605Y-74295503D01*
X126532470Y-74123530D01*
X126360497Y-73982395D01*
X126164294Y-73877522D01*
X125951401Y-73812942D01*
X125785477Y-73796600D01*
X125674523Y-73796600D01*
X125508599Y-73812942D01*
X125295706Y-73877522D01*
X125099503Y-73982395D01*
X124927530Y-74123530D01*
X124812000Y-74264303D01*
X124812000Y-71137215D01*
X124832109Y-70932126D01*
X125133100Y-70932126D01*
X125133100Y-71299874D01*
X125204844Y-71660555D01*
X125345575Y-72000309D01*
X125549884Y-72306079D01*
X125809921Y-72566116D01*
X126115691Y-72770425D01*
X126455445Y-72911156D01*
X126816126Y-72982900D01*
X127183874Y-72982900D01*
X127544555Y-72911156D01*
X127884309Y-72770425D01*
X128190079Y-72566116D01*
X128450116Y-72306079D01*
X128654425Y-72000309D01*
X128795156Y-71660555D01*
X128866900Y-71299874D01*
X128866900Y-70932126D01*
X128795156Y-70571445D01*
X128654425Y-70231691D01*
X128450116Y-69925921D01*
X128190079Y-69665884D01*
X127884309Y-69461575D01*
X127544555Y-69320844D01*
X127183874Y-69249100D01*
X126816126Y-69249100D01*
X126455445Y-69320844D01*
X126115691Y-69461575D01*
X125809921Y-69665884D01*
X125549884Y-69925921D01*
X125345575Y-70231691D01*
X125204844Y-70571445D01*
X125133100Y-70932126D01*
X124832109Y-70932126D01*
X124855326Y-70695346D01*
X124978655Y-70286860D01*
X125178974Y-69910112D01*
X125448657Y-69579450D01*
X125777431Y-69307465D01*
X126152769Y-69104520D01*
X126560381Y-68978343D01*
X127001308Y-68932000D01*
X132367967Y-68932000D01*
X132227608Y-68945824D01*
X132227608Y-68945824D01*
G37*
X132227608Y-68945824D02*
X132061841Y-68996109D01*
X131909069Y-69077768D01*
X131775163Y-69187662D01*
X131665269Y-69321568D01*
X131583610Y-69474340D01*
X131533324Y-69640107D01*
X131520600Y-69769298D01*
X131520600Y-70555701D01*
X131533324Y-70684892D01*
X131583609Y-70850659D01*
X131665268Y-71003431D01*
X131775162Y-71137338D01*
X131909068Y-71247232D01*
X132061840Y-71328891D01*
X132227607Y-71379176D01*
X132400000Y-71396155D01*
X132572392Y-71379176D01*
X132738159Y-71328891D01*
X132890931Y-71247232D01*
X132970601Y-71181849D01*
X132970600Y-71953208D01*
X132924238Y-71972412D01*
X132759732Y-72082331D01*
X132619831Y-72222232D01*
X132509912Y-72386738D01*
X132434198Y-72569527D01*
X132395600Y-72763575D01*
X132395600Y-72961425D01*
X132434198Y-73155473D01*
X132509912Y-73338262D01*
X132619831Y-73502768D01*
X132759732Y-73642669D01*
X132924238Y-73752588D01*
X133107027Y-73828302D01*
X133301075Y-73866900D01*
X133498925Y-73866900D01*
X133692973Y-73828302D01*
X133875762Y-73752588D01*
X134040268Y-73642669D01*
X134180169Y-73502768D01*
X134290088Y-73338262D01*
X134365802Y-73155473D01*
X134404400Y-72961425D01*
X134404400Y-72763575D01*
X134365802Y-72569527D01*
X134290088Y-72386738D01*
X134180169Y-72222232D01*
X134040268Y-72082331D01*
X133875762Y-71972412D01*
X133829400Y-71953208D01*
X133829400Y-70741900D01*
X138550617Y-70741900D01*
X138583610Y-70850660D01*
X138665269Y-71003432D01*
X138775163Y-71137338D01*
X138909069Y-71247232D01*
X138970600Y-71280121D01*
X138970600Y-71684637D01*
X138739335Y-71915902D01*
X138692973Y-71896698D01*
X138498925Y-71858100D01*
X138301075Y-71858100D01*
X138107027Y-71896698D01*
X137924238Y-71972412D01*
X137904215Y-71985791D01*
X137937885Y-71922799D01*
X137971016Y-71813582D01*
X137982203Y-71700000D01*
X137971016Y-71586418D01*
X137937885Y-71477201D01*
X137884084Y-71376546D01*
X137811679Y-71288321D01*
X137723454Y-71215916D01*
X137622799Y-71162115D01*
X137513582Y-71128984D01*
X137400000Y-71117797D01*
X137286418Y-71128984D01*
X137177201Y-71162115D01*
X137076546Y-71215916D01*
X137010427Y-71270179D01*
X136810432Y-71470174D01*
X136788320Y-71488320D01*
X136715916Y-71576546D01*
X136662115Y-71677202D01*
X136641623Y-71744755D01*
X136628984Y-71786419D01*
X136617797Y-71900000D01*
X136620600Y-71928459D01*
X136620601Y-74020600D01*
X133778459Y-74020600D01*
X133750000Y-74017797D01*
X133721541Y-74020600D01*
X133636418Y-74028984D01*
X133527201Y-74062115D01*
X133426545Y-74115916D01*
X133338320Y-74188320D01*
X133320174Y-74210431D01*
X132860426Y-74670179D01*
X132838321Y-74688320D01*
X132765916Y-74776545D01*
X132712115Y-74877201D01*
X132690268Y-74949221D01*
X132678984Y-74986419D01*
X132667797Y-75100000D01*
X132670600Y-75128459D01*
X132670600Y-75228444D01*
X132678984Y-75313567D01*
X132712115Y-75422784D01*
X132765916Y-75523440D01*
X132838320Y-75611666D01*
X132926545Y-75684070D01*
X133027201Y-75737871D01*
X133136418Y-75771002D01*
X133250000Y-75782189D01*
X133363581Y-75771002D01*
X133472798Y-75737871D01*
X133573454Y-75684070D01*
X133661680Y-75611666D01*
X133734084Y-75523441D01*
X133787885Y-75422785D01*
X133805858Y-75363537D01*
X133989995Y-75179400D01*
X137071551Y-75179400D01*
X137100010Y-75182203D01*
X137128469Y-75179400D01*
X137213592Y-75171016D01*
X137322809Y-75137885D01*
X137423465Y-75084084D01*
X137511690Y-75011680D01*
X137529836Y-74989569D01*
X137589569Y-74929836D01*
X137611680Y-74911690D01*
X137684084Y-74823465D01*
X137737885Y-74722809D01*
X137771016Y-74613591D01*
X137776478Y-74558137D01*
X137782203Y-74500011D01*
X137779400Y-74471552D01*
X137779400Y-73655811D01*
X137924238Y-73752588D01*
X138107027Y-73828302D01*
X138301075Y-73866900D01*
X138498925Y-73866900D01*
X138692973Y-73828302D01*
X138875762Y-73752588D01*
X139040268Y-73642669D01*
X139180169Y-73502768D01*
X139290088Y-73338262D01*
X139365802Y-73155473D01*
X139404400Y-72961425D01*
X139404400Y-72763575D01*
X139365802Y-72569527D01*
X139346598Y-72523165D01*
X139688722Y-72181041D01*
X139705100Y-72167600D01*
X139758760Y-72102216D01*
X139769389Y-72082331D01*
X139798633Y-72027620D01*
X139823186Y-71946677D01*
X139827783Y-71900000D01*
X139829400Y-71883587D01*
X139829400Y-71883580D01*
X139831476Y-71862500D01*
X139829400Y-71841420D01*
X139829400Y-71280122D01*
X139890932Y-71247232D01*
X140024838Y-71137338D01*
X140134732Y-71003432D01*
X140216391Y-70850660D01*
X140266676Y-70684893D01*
X140279400Y-70555702D01*
X140279400Y-69769298D01*
X140266676Y-69640107D01*
X140216391Y-69474340D01*
X140134732Y-69321568D01*
X140024838Y-69187662D01*
X139890931Y-69077768D01*
X139738159Y-68996109D01*
X139572392Y-68945824D01*
X139432033Y-68932000D01*
X144762785Y-68932000D01*
X145077992Y-68962907D01*
X145575363Y-69087249D01*
X145613140Y-69098655D01*
X145808059Y-69202295D01*
X146359796Y-69616097D01*
X146592535Y-69897431D01*
X146795480Y-70272769D01*
X146921657Y-70680381D01*
X146968000Y-71121308D01*
X146968000Y-84424304D01*
X146852470Y-84283530D01*
X146680497Y-84142395D01*
X146484294Y-84037522D01*
X146271401Y-83972942D01*
X146105477Y-83956600D01*
X145994523Y-83956600D01*
X145828599Y-83972942D01*
X145615706Y-84037522D01*
X145419503Y-84142395D01*
X145247530Y-84283530D01*
X145205600Y-84334622D01*
X145205600Y-81712354D01*
X145219023Y-81779836D01*
X145255161Y-81867081D01*
X145307625Y-81945600D01*
X145374400Y-82012375D01*
X145452919Y-82064839D01*
X145540164Y-82100977D01*
X145632783Y-82119400D01*
X145727217Y-82119400D01*
X145819836Y-82100977D01*
X145907081Y-82064839D01*
X145964707Y-82026335D01*
X145997625Y-82075600D01*
X146064400Y-82142375D01*
X146142919Y-82194839D01*
X146230164Y-82230977D01*
X146322783Y-82249400D01*
X146417217Y-82249400D01*
X146509836Y-82230977D01*
X146597081Y-82194839D01*
X146675600Y-82142375D01*
X146742375Y-82075600D01*
X146794839Y-81997081D01*
X146830977Y-81909836D01*
X146849400Y-81817217D01*
X146849400Y-81722783D01*
X146830977Y-81630164D01*
X146794839Y-81542919D01*
X146742375Y-81464400D01*
X146675600Y-81397625D01*
X146597081Y-81345161D01*
X146509836Y-81309023D01*
X146417217Y-81290600D01*
X146322783Y-81290600D01*
X146230164Y-81309023D01*
X146142919Y-81345161D01*
X146085293Y-81383665D01*
X146052375Y-81334400D01*
X145985600Y-81267625D01*
X145907081Y-81215161D01*
X145819836Y-81179023D01*
X145727217Y-81160600D01*
X145632783Y-81160600D01*
X145540164Y-81179023D01*
X145452919Y-81215161D01*
X145374400Y-81267625D01*
X145307625Y-81334400D01*
X145255161Y-81412919D01*
X145219023Y-81500164D01*
X145205600Y-81567646D01*
X145205600Y-81237293D01*
X145364549Y-81078344D01*
X145365553Y-81078344D01*
X145390000Y-81080752D01*
X145890000Y-81080752D01*
X145914447Y-81078344D01*
X145939009Y-81078344D01*
X145993781Y-81072949D01*
X146089914Y-81053827D01*
X146142580Y-81037852D01*
X146233136Y-81000343D01*
X146281676Y-80974398D01*
X146363175Y-80919942D01*
X146405719Y-80885027D01*
X146475027Y-80815719D01*
X146509942Y-80773175D01*
X146564398Y-80691676D01*
X146590343Y-80643136D01*
X146627852Y-80552580D01*
X146643827Y-80499914D01*
X146662949Y-80403781D01*
X146668344Y-80349009D01*
X146668344Y-80324447D01*
X146670752Y-80300000D01*
X146670752Y-79800000D01*
X146665357Y-79745228D01*
X146649381Y-79692561D01*
X146626632Y-79650000D01*
X146649381Y-79607439D01*
X146665357Y-79554772D01*
X146670752Y-79500000D01*
X146670752Y-79000000D01*
X146668344Y-78975553D01*
X146668344Y-78950991D01*
X146662949Y-78896219D01*
X146643827Y-78800086D01*
X146627852Y-78747420D01*
X146590343Y-78656864D01*
X146564398Y-78608324D01*
X146509942Y-78526825D01*
X146475027Y-78484281D01*
X146405719Y-78414973D01*
X146363175Y-78380058D01*
X146281676Y-78325602D01*
X146233136Y-78299657D01*
X146142580Y-78262148D01*
X146101900Y-78249809D01*
X146101900Y-77890795D01*
X146122919Y-77904839D01*
X146210164Y-77940977D01*
X146302783Y-77959400D01*
X146397217Y-77959400D01*
X146489836Y-77940977D01*
X146577081Y-77904839D01*
X146655600Y-77852375D01*
X146722375Y-77785600D01*
X146774839Y-77707081D01*
X146810977Y-77619836D01*
X146829400Y-77527217D01*
X146829400Y-77432783D01*
X146810977Y-77340164D01*
X146774839Y-77252919D01*
X146722375Y-77174400D01*
X146655600Y-77107625D01*
X146577081Y-77055161D01*
X146489836Y-77019023D01*
X146451093Y-77011317D01*
X146808378Y-76654033D01*
X146822469Y-76642469D01*
X146834651Y-76627625D01*
X146868631Y-76586221D01*
X146902932Y-76522047D01*
X146918000Y-76472375D01*
X146924055Y-76452415D01*
X146929400Y-76398144D01*
X146929400Y-76398142D01*
X146931187Y-76380000D01*
X146929400Y-76361858D01*
X146929400Y-73808133D01*
X146931186Y-73789999D01*
X146929400Y-73771865D01*
X146929400Y-73771856D01*
X146924055Y-73717585D01*
X146902932Y-73647953D01*
X146868631Y-73583780D01*
X146822469Y-73527531D01*
X146808372Y-73515962D01*
X146294042Y-73001633D01*
X146282469Y-72987531D01*
X146226220Y-72941369D01*
X146162047Y-72907068D01*
X146092415Y-72885945D01*
X146038144Y-72880600D01*
X146038142Y-72880600D01*
X146020000Y-72878813D01*
X146001858Y-72880600D01*
X145398324Y-72880600D01*
X145664309Y-72770425D01*
X145970079Y-72566116D01*
X146230116Y-72306079D01*
X146434425Y-72000309D01*
X146575156Y-71660555D01*
X146646900Y-71299874D01*
X146646900Y-70932126D01*
X146575156Y-70571445D01*
X146434425Y-70231691D01*
X146230116Y-69925921D01*
X145970079Y-69665884D01*
X145664309Y-69461575D01*
X145324555Y-69320844D01*
X144963874Y-69249100D01*
X144596126Y-69249100D01*
X144235445Y-69320844D01*
X143895691Y-69461575D01*
X143589921Y-69665884D01*
X143329884Y-69925921D01*
X143125575Y-70231691D01*
X142984844Y-70571445D01*
X142913100Y-70932126D01*
X142913100Y-71299874D01*
X142984844Y-71660555D01*
X143125575Y-72000309D01*
X143329884Y-72306079D01*
X143589921Y-72566116D01*
X143895691Y-72770425D01*
X144161676Y-72880600D01*
X143713010Y-72880600D01*
X143509400Y-72676991D01*
X143509400Y-72672783D01*
X143490977Y-72580164D01*
X143454839Y-72492919D01*
X143402375Y-72414400D01*
X143335600Y-72347625D01*
X143257081Y-72295161D01*
X143169836Y-72259023D01*
X143077217Y-72240600D01*
X142982783Y-72240600D01*
X142890164Y-72259023D01*
X142802919Y-72295161D01*
X142724400Y-72347625D01*
X142657625Y-72414400D01*
X142605161Y-72492919D01*
X142569023Y-72580164D01*
X142550600Y-72672783D01*
X142550600Y-72767217D01*
X142569023Y-72859836D01*
X142605161Y-72947081D01*
X142657625Y-73025600D01*
X142724400Y-73092375D01*
X142802919Y-73144839D01*
X142890164Y-73180977D01*
X142982783Y-73199400D01*
X142986991Y-73199400D01*
X143285962Y-73498372D01*
X143297531Y-73512469D01*
X143353780Y-73558631D01*
X143417953Y-73592932D01*
X143487585Y-73614055D01*
X143541856Y-73619400D01*
X143541857Y-73619400D01*
X143559999Y-73621187D01*
X143578141Y-73619400D01*
X145866991Y-73619400D01*
X146190601Y-73943011D01*
X146190600Y-76226989D01*
X145484129Y-76933462D01*
X145470032Y-76945031D01*
X145457613Y-76960164D01*
X145423870Y-77001280D01*
X145389569Y-77065453D01*
X145388908Y-77067633D01*
X145319836Y-77039023D01*
X145227217Y-77020600D01*
X145132783Y-77020600D01*
X145040164Y-77039023D01*
X144952919Y-77075161D01*
X144874400Y-77127625D01*
X144807625Y-77194400D01*
X144755161Y-77272919D01*
X144719023Y-77360164D01*
X144700600Y-77452783D01*
X144700600Y-77547217D01*
X144719023Y-77639836D01*
X144755161Y-77727081D01*
X144807625Y-77805600D01*
X144874400Y-77872375D01*
X144952919Y-77924839D01*
X145040164Y-77960977D01*
X145132783Y-77979400D01*
X145227217Y-77979400D01*
X145319836Y-77960977D01*
X145363101Y-77943056D01*
X145363100Y-78221656D01*
X145340991Y-78221656D01*
X145286219Y-78227051D01*
X145190086Y-78246173D01*
X145137420Y-78262148D01*
X145046864Y-78299657D01*
X144998324Y-78325602D01*
X144916825Y-78380058D01*
X144874281Y-78414973D01*
X144804973Y-78484281D01*
X144770058Y-78526825D01*
X144715602Y-78608324D01*
X144689657Y-78656864D01*
X144652148Y-78747420D01*
X144636173Y-78800086D01*
X144617051Y-78896219D01*
X144611656Y-78950991D01*
X144611656Y-78975553D01*
X144609248Y-79000000D01*
X144609248Y-79500000D01*
X144614643Y-79554772D01*
X144630619Y-79607439D01*
X144653368Y-79650000D01*
X144630619Y-79692561D01*
X144614643Y-79745228D01*
X144609248Y-79800000D01*
X144609248Y-80300000D01*
X144611656Y-80324447D01*
X144611656Y-80349009D01*
X144617051Y-80403781D01*
X144636173Y-80499914D01*
X144652148Y-80552580D01*
X144689657Y-80643136D01*
X144715602Y-80691676D01*
X144727550Y-80709557D01*
X144610901Y-80826206D01*
X144597337Y-80837338D01*
X144552899Y-80891485D01*
X144525675Y-80942418D01*
X144519880Y-80953259D01*
X144501923Y-81012456D01*
X144499546Y-81020291D01*
X144494400Y-81072538D01*
X144494400Y-81072545D01*
X144492681Y-81090000D01*
X144494400Y-81107455D01*
X144494401Y-85380846D01*
X144448622Y-85312334D01*
X144374883Y-85238595D01*
X144288175Y-85180658D01*
X144191830Y-85140751D01*
X144165794Y-85135572D01*
X143944698Y-84914477D01*
X143930467Y-84897136D01*
X143861275Y-84840353D01*
X143782335Y-84798158D01*
X143696681Y-84772175D01*
X143629921Y-84765600D01*
X143629918Y-84765600D01*
X143607603Y-84763402D01*
X143585288Y-84765600D01*
X140187553Y-84765600D01*
X140112141Y-84750600D01*
X140007859Y-84750600D01*
X139905580Y-84770944D01*
X139809235Y-84810851D01*
X139722527Y-84868788D01*
X139648788Y-84942527D01*
X139590851Y-85029235D01*
X139550944Y-85125580D01*
X139530600Y-85227859D01*
X139530600Y-85332141D01*
X139550944Y-85434420D01*
X139590851Y-85530765D01*
X139648788Y-85617473D01*
X139722527Y-85691212D01*
X139809235Y-85749149D01*
X139905580Y-85789056D01*
X140007859Y-85809400D01*
X140112141Y-85809400D01*
X140214420Y-85789056D01*
X140310765Y-85749149D01*
X140397473Y-85691212D01*
X140414285Y-85674400D01*
X143419385Y-85674400D01*
X143523175Y-85778191D01*
X143528354Y-85804227D01*
X143568261Y-85900572D01*
X143626198Y-85987280D01*
X143699937Y-86061019D01*
X143786645Y-86118956D01*
X143882990Y-86158863D01*
X143953162Y-86172821D01*
X144041990Y-86261649D01*
X144041990Y-87005496D01*
X143971120Y-86991400D01*
X143866838Y-86991400D01*
X143764559Y-87011744D01*
X143668214Y-87051651D01*
X143606935Y-87092597D01*
X143528781Y-87077051D01*
X143474009Y-87071656D01*
X143449447Y-87071656D01*
X143425000Y-87069248D01*
X142925000Y-87069248D01*
X142870228Y-87074643D01*
X142817561Y-87090619D01*
X142775000Y-87113368D01*
X142732439Y-87090619D01*
X142679772Y-87074643D01*
X142625000Y-87069248D01*
X142125000Y-87069248D01*
X142100553Y-87071656D01*
X142075991Y-87071656D01*
X142021219Y-87077051D01*
X141925086Y-87096173D01*
X141872420Y-87112148D01*
X141781864Y-87149657D01*
X141733324Y-87175602D01*
X141651825Y-87230058D01*
X141609281Y-87264973D01*
X141539973Y-87334281D01*
X141505058Y-87376825D01*
X141450602Y-87458324D01*
X141424657Y-87506864D01*
X141387148Y-87597420D01*
X141371173Y-87650086D01*
X141352051Y-87746219D01*
X141346656Y-87800991D01*
X141346656Y-87825553D01*
X141344248Y-87850000D01*
X141344248Y-88350000D01*
X141346656Y-88374447D01*
X141346656Y-88399009D01*
X141352051Y-88453781D01*
X141371173Y-88549914D01*
X141387148Y-88602580D01*
X141424657Y-88693136D01*
X141450602Y-88741676D01*
X141505058Y-88823175D01*
X141539973Y-88865719D01*
X141609281Y-88935027D01*
X141651825Y-88969942D01*
X141670601Y-88982488D01*
X141670601Y-89124173D01*
X141577897Y-89216877D01*
X141551860Y-89222056D01*
X141455515Y-89261963D01*
X141368807Y-89319900D01*
X141295068Y-89393639D01*
X141237131Y-89480347D01*
X141197224Y-89576692D01*
X141176880Y-89678971D01*
X141176880Y-89783253D01*
X141197224Y-89885532D01*
X141237131Y-89981877D01*
X141295068Y-90068585D01*
X141368807Y-90142324D01*
X141455515Y-90200261D01*
X141551860Y-90240168D01*
X141654139Y-90260512D01*
X141758421Y-90260512D01*
X141860700Y-90240168D01*
X141957045Y-90200261D01*
X142015930Y-90160915D01*
X142047747Y-90237728D01*
X142105684Y-90324436D01*
X142179423Y-90398175D01*
X142266131Y-90456112D01*
X142362476Y-90496019D01*
X142464755Y-90516363D01*
X142569037Y-90516363D01*
X142671316Y-90496019D01*
X142767661Y-90456112D01*
X142854369Y-90398175D01*
X142928108Y-90324436D01*
X142986045Y-90237728D01*
X143025952Y-90141383D01*
X143031602Y-90112977D01*
X143504858Y-90112977D01*
X143499729Y-90138762D01*
X143499729Y-90233196D01*
X143518152Y-90325815D01*
X143554290Y-90413060D01*
X143606754Y-90491579D01*
X143623529Y-90508354D01*
X143623529Y-90671596D01*
X143582033Y-90630100D01*
X143495325Y-90572163D01*
X143398980Y-90532256D01*
X143296701Y-90511912D01*
X143192419Y-90511912D01*
X143090140Y-90532256D01*
X142993795Y-90572163D01*
X142907087Y-90630100D01*
X142833348Y-90703839D01*
X142775411Y-90790547D01*
X142735504Y-90886892D01*
X142730325Y-90912928D01*
X142667261Y-90975993D01*
X142666676Y-90975602D01*
X142618136Y-90949657D01*
X142527580Y-90912148D01*
X142474914Y-90896173D01*
X142378781Y-90877051D01*
X142324009Y-90871656D01*
X142299447Y-90871656D01*
X142275000Y-90869248D01*
X141775000Y-90869248D01*
X141720228Y-90874643D01*
X141667561Y-90890619D01*
X141625000Y-90913368D01*
X141582439Y-90890619D01*
X141529772Y-90874643D01*
X141475000Y-90869248D01*
X140975000Y-90869248D01*
X140950553Y-90871656D01*
X140925991Y-90871656D01*
X140871219Y-90877051D01*
X140775086Y-90896173D01*
X140722420Y-90912148D01*
X140631864Y-90949657D01*
X140583324Y-90975602D01*
X140501825Y-91030058D01*
X140459281Y-91064973D01*
X140389973Y-91134281D01*
X140355058Y-91176825D01*
X140300602Y-91258324D01*
X140274657Y-91306864D01*
X140237148Y-91397420D01*
X140221173Y-91450086D01*
X140217093Y-91470600D01*
X138184060Y-91470600D01*
X138184056Y-91470580D01*
X138144149Y-91374235D01*
X138086212Y-91287527D01*
X138012473Y-91213788D01*
X137925765Y-91155851D01*
X137829420Y-91115944D01*
X137727141Y-91095600D01*
X137622859Y-91095600D01*
X137520580Y-91115944D01*
X137424235Y-91155851D01*
X137337527Y-91213788D01*
X137263788Y-91287527D01*
X137205851Y-91374235D01*
X137165944Y-91470580D01*
X137145600Y-91572859D01*
X137145600Y-91677141D01*
X137165944Y-91779420D01*
X137205851Y-91875765D01*
X137263788Y-91962473D01*
X137337527Y-92036212D01*
X137424235Y-92094149D01*
X137520580Y-92134056D01*
X137590752Y-92148014D01*
X137631453Y-92188715D01*
X137644900Y-92205100D01*
X137704217Y-92253781D01*
X137710284Y-92258760D01*
X137784880Y-92298633D01*
X137816538Y-92308236D01*
X137865823Y-92323186D01*
X137928913Y-92329400D01*
X137928920Y-92329400D01*
X137950000Y-92331476D01*
X137971080Y-92329400D01*
X140217093Y-92329400D01*
X140221173Y-92349914D01*
X140237148Y-92402580D01*
X140274657Y-92493136D01*
X140300602Y-92541676D01*
X140355058Y-92623175D01*
X140389973Y-92665719D01*
X140459281Y-92735027D01*
X140501825Y-92769942D01*
X140583324Y-92824398D01*
X140631864Y-92850343D01*
X140722420Y-92887852D01*
X140775086Y-92903827D01*
X140871219Y-92922949D01*
X140925991Y-92928344D01*
X140950553Y-92928344D01*
X140975000Y-92930752D01*
X141475000Y-92930752D01*
X141529772Y-92925357D01*
X141582439Y-92909381D01*
X141625000Y-92886632D01*
X141667561Y-92909381D01*
X141720228Y-92925357D01*
X141775000Y-92930752D01*
X142275000Y-92930752D01*
X142299447Y-92928344D01*
X142324009Y-92928344D01*
X142378781Y-92922949D01*
X142474914Y-92903827D01*
X142527580Y-92887852D01*
X142618136Y-92850343D01*
X142666676Y-92824398D01*
X142748175Y-92769942D01*
X142790719Y-92735027D01*
X142860027Y-92665719D01*
X142894942Y-92623175D01*
X142949398Y-92541676D01*
X142975343Y-92493136D01*
X143012852Y-92402580D01*
X143024400Y-92364508D01*
X143024401Y-92869863D01*
X142375470Y-93518795D01*
X142361906Y-93529927D01*
X142317468Y-93584074D01*
X142284448Y-93645850D01*
X142264115Y-93712880D01*
X142261380Y-93740645D01*
X142242194Y-93759831D01*
X142189730Y-93838350D01*
X142153592Y-93925595D01*
X142135169Y-94018214D01*
X142135169Y-94112648D01*
X142153592Y-94205267D01*
X142189730Y-94292512D01*
X142242194Y-94371031D01*
X142308969Y-94437806D01*
X142387488Y-94490270D01*
X142474733Y-94526408D01*
X142567352Y-94544831D01*
X142661786Y-94544831D01*
X142754405Y-94526408D01*
X142841650Y-94490270D01*
X142920169Y-94437806D01*
X142986944Y-94371031D01*
X143039408Y-94292512D01*
X143075546Y-94205267D01*
X143093969Y-94112648D01*
X143093969Y-94018214D01*
X143075546Y-93925595D01*
X143045938Y-93854114D01*
X143367562Y-93532490D01*
X143367561Y-95601286D01*
X138788089Y-100180759D01*
X138772664Y-100193418D01*
X138760005Y-100208843D01*
X138760003Y-100208845D01*
X138722128Y-100254996D01*
X138684576Y-100325250D01*
X138661452Y-100401479D01*
X138653645Y-100480755D01*
X138655601Y-100500617D01*
X138655601Y-100557120D01*
X138610086Y-100566173D01*
X138557420Y-100582148D01*
X138466864Y-100619657D01*
X138418324Y-100645602D01*
X138336825Y-100700058D01*
X138294281Y-100734973D01*
X138224973Y-100804281D01*
X138190058Y-100846825D01*
X138135602Y-100928324D01*
X138109657Y-100976864D01*
X138072148Y-101067420D01*
X138056173Y-101120086D01*
X138037051Y-101216219D01*
X138031656Y-101270991D01*
X138031656Y-101295553D01*
X138029248Y-101320000D01*
X138029248Y-101820000D01*
X138034643Y-101874772D01*
X138050619Y-101927439D01*
X138073368Y-101970000D01*
X138050619Y-102012561D01*
X138034643Y-102065228D01*
X138029248Y-102120000D01*
X138029248Y-102620000D01*
X138031656Y-102644447D01*
X138031656Y-102669009D01*
X138037051Y-102723781D01*
X138056173Y-102819914D01*
X138072148Y-102872580D01*
X138109657Y-102963136D01*
X138135602Y-103011676D01*
X138190058Y-103093175D01*
X138224973Y-103135719D01*
X138294281Y-103205027D01*
X138336825Y-103239942D01*
X138418324Y-103294398D01*
X138466864Y-103320343D01*
X138557420Y-103357852D01*
X138610086Y-103373827D01*
X138706219Y-103392949D01*
X138760991Y-103398344D01*
X138785553Y-103398344D01*
X138810000Y-103400752D01*
X139310000Y-103400752D01*
X139334447Y-103398344D01*
X139359009Y-103398344D01*
X139413781Y-103392949D01*
X139509914Y-103373827D01*
X139562580Y-103357852D01*
X139653136Y-103320343D01*
X139701676Y-103294398D01*
X139783175Y-103239942D01*
X139825719Y-103205027D01*
X139895027Y-103135719D01*
X139929942Y-103093175D01*
X139984398Y-103011676D01*
X139993632Y-102994400D01*
X140370359Y-102994400D01*
X140396590Y-103020631D01*
X140487393Y-103081303D01*
X140588287Y-103123095D01*
X140695396Y-103144400D01*
X140804604Y-103144400D01*
X140911713Y-103123095D01*
X141012607Y-103081303D01*
X141103410Y-103020631D01*
X141180631Y-102943410D01*
X141241303Y-102852607D01*
X141283095Y-102751713D01*
X141304400Y-102644604D01*
X141304400Y-102535396D01*
X141283095Y-102428287D01*
X141241303Y-102327393D01*
X141180631Y-102236590D01*
X141103410Y-102159369D01*
X141012607Y-102098697D01*
X140911713Y-102056905D01*
X140804604Y-102035600D01*
X140695396Y-102035600D01*
X140588287Y-102056905D01*
X140487393Y-102098697D01*
X140396590Y-102159369D01*
X140370359Y-102185600D01*
X140090752Y-102185600D01*
X140090752Y-102120000D01*
X140085357Y-102065228D01*
X140069381Y-102012561D01*
X140046632Y-101970000D01*
X140069381Y-101927439D01*
X140085357Y-101874772D01*
X140090752Y-101820000D01*
X140090752Y-101320000D01*
X140088344Y-101295553D01*
X140088344Y-101270991D01*
X140082949Y-101216219D01*
X140063827Y-101120086D01*
X140047852Y-101067420D01*
X140010343Y-100976864D01*
X139984398Y-100928324D01*
X139929942Y-100846825D01*
X139895027Y-100804281D01*
X139825719Y-100734973D01*
X139783175Y-100700058D01*
X139701676Y-100645602D01*
X139653136Y-100619657D01*
X139562580Y-100582148D01*
X139537977Y-100574685D01*
X144043874Y-96068789D01*
X144059298Y-96056131D01*
X144109834Y-95994553D01*
X144147385Y-95924300D01*
X144170509Y-95848070D01*
X144176361Y-95788654D01*
X144176361Y-95788644D01*
X144178316Y-95768795D01*
X144176361Y-95748945D01*
X144176361Y-92447121D01*
X144728438Y-91895044D01*
X144743868Y-91882381D01*
X144794404Y-91820803D01*
X144831955Y-91750550D01*
X144855079Y-91674320D01*
X144860931Y-91614904D01*
X144860931Y-91614894D01*
X144862886Y-91595045D01*
X144860931Y-91575195D01*
X144860931Y-89976685D01*
X144862887Y-89956825D01*
X144855079Y-89877548D01*
X144831955Y-89801319D01*
X144824757Y-89787853D01*
X144794404Y-89731066D01*
X144743868Y-89669488D01*
X144728437Y-89656824D01*
X144508284Y-89436671D01*
X144495620Y-89421240D01*
X144434042Y-89370704D01*
X144363789Y-89333153D01*
X144287559Y-89310029D01*
X144228143Y-89304177D01*
X144228135Y-89304177D01*
X144208283Y-89302222D01*
X144188431Y-89304177D01*
X142815131Y-89304177D01*
X142795281Y-89302222D01*
X142775432Y-89304177D01*
X142775422Y-89304177D01*
X142716006Y-89310029D01*
X142639776Y-89333153D01*
X142576207Y-89367131D01*
X142579400Y-89334710D01*
X142579400Y-89334707D01*
X142581598Y-89312392D01*
X142579400Y-89290077D01*
X142579400Y-89130752D01*
X142625000Y-89130752D01*
X142679772Y-89125357D01*
X142732439Y-89109381D01*
X142775000Y-89086632D01*
X142817561Y-89109381D01*
X142870228Y-89125357D01*
X142925000Y-89130752D01*
X143425000Y-89130752D01*
X143449447Y-89128344D01*
X143474009Y-89128344D01*
X143528781Y-89122949D01*
X143624914Y-89103827D01*
X143677580Y-89087852D01*
X143768136Y-89050343D01*
X143816676Y-89024398D01*
X143898175Y-88969942D01*
X143940719Y-88935027D01*
X144010027Y-88865719D01*
X144044942Y-88823175D01*
X144070980Y-88784207D01*
X144072756Y-88790063D01*
X144112629Y-88864660D01*
X144166289Y-88930045D01*
X144182674Y-88943492D01*
X144843902Y-89604721D01*
X144857345Y-89621101D01*
X144922729Y-89674761D01*
X144955054Y-89692039D01*
X144984535Y-89707798D01*
X145003933Y-89727195D01*
X145001522Y-89731706D01*
X144936942Y-89944599D01*
X144915136Y-90166000D01*
X144936942Y-90387401D01*
X145001522Y-90600294D01*
X145106395Y-90796497D01*
X145247530Y-90968470D01*
X145419503Y-91109605D01*
X145615706Y-91214478D01*
X145828599Y-91279058D01*
X145994523Y-91295400D01*
X146105477Y-91295400D01*
X146271401Y-91279058D01*
X146484294Y-91214478D01*
X146680497Y-91109605D01*
X146852470Y-90968470D01*
X146968000Y-90827696D01*
X146968000Y-92044304D01*
X146852470Y-91903530D01*
X146680497Y-91762395D01*
X146484294Y-91657522D01*
X146271401Y-91592942D01*
X146105477Y-91576600D01*
X145994523Y-91576600D01*
X145828599Y-91592942D01*
X145615706Y-91657522D01*
X145419503Y-91762395D01*
X145247530Y-91903530D01*
X145106395Y-92075503D01*
X145001522Y-92271706D01*
X144936942Y-92484599D01*
X144915136Y-92706000D01*
X144936942Y-92927401D01*
X145001522Y-93140294D01*
X145106395Y-93336497D01*
X145247530Y-93508470D01*
X145419503Y-93649605D01*
X145615706Y-93754478D01*
X145828599Y-93819058D01*
X145994523Y-93835400D01*
X146105477Y-93835400D01*
X146271401Y-93819058D01*
X146484294Y-93754478D01*
X146680497Y-93649605D01*
X146852470Y-93508470D01*
X146968000Y-93367696D01*
X146968001Y-94584304D01*
X146852470Y-94443530D01*
X146680497Y-94302395D01*
X146484294Y-94197522D01*
X146271401Y-94132942D01*
X146105477Y-94116600D01*
X145994523Y-94116600D01*
X145828599Y-94132942D01*
X145615706Y-94197522D01*
X145419503Y-94302395D01*
X145247530Y-94443530D01*
X145106395Y-94615503D01*
X145001522Y-94811706D01*
X144936942Y-95024599D01*
X144915136Y-95246000D01*
X144936942Y-95467401D01*
X145001522Y-95680294D01*
X145106395Y-95876497D01*
X145247530Y-96048470D01*
X145419503Y-96189605D01*
X145615706Y-96294478D01*
X145828599Y-96359058D01*
X145994523Y-96375400D01*
X146105477Y-96375400D01*
X146271401Y-96359058D01*
X146484294Y-96294478D01*
X146680497Y-96189605D01*
X146852470Y-96048470D01*
X146968001Y-95907696D01*
X146968001Y-97124304D01*
X146852470Y-96983530D01*
X146680497Y-96842395D01*
X146484294Y-96737522D01*
X146271401Y-96672942D01*
X146105477Y-96656600D01*
X145994523Y-96656600D01*
X145828599Y-96672942D01*
X145615706Y-96737522D01*
X145419503Y-96842395D01*
X145247530Y-96983530D01*
X145190574Y-97052931D01*
X145183622Y-97042527D01*
X145109883Y-96968788D01*
X145023175Y-96910851D01*
X144926830Y-96870944D01*
X144824551Y-96850600D01*
X144761503Y-96850600D01*
X144774891Y-96818277D01*
X144795235Y-96715998D01*
X144795235Y-96611716D01*
X144774891Y-96509437D01*
X144734984Y-96413092D01*
X144677047Y-96326384D01*
X144603308Y-96252645D01*
X144516600Y-96194708D01*
X144420255Y-96154801D01*
X144317976Y-96134457D01*
X144213694Y-96134457D01*
X144111415Y-96154801D01*
X144015070Y-96194708D01*
X143928362Y-96252645D01*
X143854623Y-96326384D01*
X143796686Y-96413092D01*
X143756779Y-96509437D01*
X143736435Y-96611716D01*
X143736435Y-96715998D01*
X143756779Y-96818277D01*
X143796686Y-96914622D01*
X143854623Y-97001330D01*
X143890601Y-97037308D01*
X143890600Y-111227371D01*
X143888765Y-111246000D01*
X143890600Y-111264629D01*
X143890600Y-111264631D01*
X143896090Y-111320374D01*
X143917785Y-111391891D01*
X143917786Y-111391892D01*
X143953015Y-111457803D01*
X143977513Y-111487653D01*
X144000426Y-111515574D01*
X144014902Y-111527454D01*
X145028563Y-112541116D01*
X145001522Y-112591706D01*
X144936942Y-112804599D01*
X144915136Y-113026000D01*
X144936942Y-113247401D01*
X145001522Y-113460294D01*
X145106395Y-113656497D01*
X145247530Y-113828470D01*
X145419503Y-113969605D01*
X145615706Y-114074478D01*
X145828599Y-114139058D01*
X145994523Y-114155400D01*
X146105477Y-114155400D01*
X146271401Y-114139058D01*
X146484294Y-114074478D01*
X146680497Y-113969605D01*
X146852470Y-113828470D01*
X146968001Y-113687696D01*
X146968001Y-116822775D01*
X146924674Y-117264659D01*
X146801346Y-117673139D01*
X146601025Y-118049889D01*
X146331346Y-118380548D01*
X146002569Y-118652535D01*
X145627231Y-118855480D01*
X145219621Y-118981657D01*
X144778692Y-119028000D01*
X127017215Y-119028000D01*
X126778298Y-119004574D01*
X126038938Y-118793328D01*
X125790111Y-118661025D01*
X125459452Y-118391346D01*
X125187465Y-118062569D01*
X124984520Y-117687231D01*
X124858343Y-117279621D01*
X124812000Y-116838692D01*
X124812000Y-116683397D01*
X125450600Y-116683397D01*
X125450600Y-116988603D01*
X125510142Y-117287943D01*
X125626939Y-117569916D01*
X125796502Y-117823685D01*
X126012315Y-118039498D01*
X126266084Y-118209061D01*
X126548057Y-118325858D01*
X126847397Y-118385400D01*
X127152603Y-118385400D01*
X127451943Y-118325858D01*
X127733916Y-118209061D01*
X127987685Y-118039498D01*
X128203498Y-117823685D01*
X128373061Y-117569916D01*
X128489858Y-117287943D01*
X128549400Y-116988603D01*
X128549400Y-116683397D01*
X143230600Y-116683397D01*
X143230600Y-116988603D01*
X143290142Y-117287943D01*
X143406939Y-117569916D01*
X143576502Y-117823685D01*
X143792315Y-118039498D01*
X144046084Y-118209061D01*
X144328057Y-118325858D01*
X144627397Y-118385400D01*
X144932603Y-118385400D01*
X145231943Y-118325858D01*
X145513916Y-118209061D01*
X145767685Y-118039498D01*
X145983498Y-117823685D01*
X146153061Y-117569916D01*
X146269858Y-117287943D01*
X146329400Y-116988603D01*
X146329400Y-116683397D01*
X146269858Y-116384057D01*
X146153061Y-116102084D01*
X145983498Y-115848315D01*
X145767685Y-115632502D01*
X145513916Y-115462939D01*
X145231943Y-115346142D01*
X144932603Y-115286600D01*
X144627397Y-115286600D01*
X144328057Y-115346142D01*
X144046084Y-115462939D01*
X143792315Y-115632502D01*
X143576502Y-115848315D01*
X143406939Y-116102084D01*
X143290142Y-116384057D01*
X143230600Y-116683397D01*
X128549400Y-116683397D01*
X128489858Y-116384057D01*
X128373061Y-116102084D01*
X128203498Y-115848315D01*
X127987685Y-115632502D01*
X127733916Y-115462939D01*
X127451943Y-115346142D01*
X127152603Y-115286600D01*
X126847397Y-115286600D01*
X126548057Y-115346142D01*
X126266084Y-115462939D01*
X126012315Y-115632502D01*
X125796502Y-115848315D01*
X125626939Y-116102084D01*
X125510142Y-116384057D01*
X125450600Y-116683397D01*
X124812000Y-116683397D01*
X124812000Y-111147697D01*
X124927530Y-111288470D01*
X125099503Y-111429605D01*
X125295706Y-111534478D01*
X125508599Y-111599058D01*
X125674523Y-111615400D01*
X125785477Y-111615400D01*
X125951401Y-111599058D01*
X126164294Y-111534478D01*
X126360497Y-111429605D01*
X126532470Y-111288470D01*
X126673605Y-111116497D01*
X126778478Y-110920294D01*
X126843058Y-110707401D01*
X126864864Y-110486000D01*
X126843058Y-110264599D01*
X126778478Y-110051706D01*
X126673605Y-109855503D01*
X126532470Y-109683530D01*
X126360497Y-109542395D01*
X126164294Y-109437522D01*
X125951401Y-109372942D01*
X125785477Y-109356600D01*
X125674523Y-109356600D01*
X125508599Y-109372942D01*
X125295706Y-109437522D01*
X125099503Y-109542395D01*
X124927530Y-109683530D01*
X124812000Y-109824303D01*
X124812000Y-108607697D01*
X124927530Y-108748470D01*
X125099503Y-108889605D01*
X125295706Y-108994478D01*
X125508599Y-109059058D01*
X125674523Y-109075400D01*
X125785477Y-109075400D01*
X125951401Y-109059058D01*
X126164294Y-108994478D01*
X126360497Y-108889605D01*
X126532470Y-108748470D01*
X126673605Y-108576497D01*
X126778478Y-108380294D01*
X126843058Y-108167401D01*
X126864864Y-107946000D01*
X126843058Y-107724599D01*
X126778478Y-107511706D01*
X126673605Y-107315503D01*
X126532470Y-107143530D01*
X126360497Y-107002395D01*
X126164294Y-106897522D01*
X125951401Y-106832942D01*
X125785477Y-106816600D01*
X125674523Y-106816600D01*
X125508599Y-106832942D01*
X125295706Y-106897522D01*
X125099503Y-107002395D01*
X124927530Y-107143530D01*
X124812000Y-107284303D01*
X124812000Y-106067697D01*
X124927530Y-106208470D01*
X125099503Y-106349605D01*
X125295706Y-106454478D01*
X125508599Y-106519058D01*
X125674523Y-106535400D01*
X125785477Y-106535400D01*
X125951401Y-106519058D01*
X126164294Y-106454478D01*
X126360497Y-106349605D01*
X126532470Y-106208470D01*
X126673605Y-106036497D01*
X126778478Y-105840294D01*
X126843058Y-105627401D01*
X126864864Y-105406000D01*
X126843058Y-105184599D01*
X126778478Y-104971706D01*
X126673605Y-104775503D01*
X126532470Y-104603530D01*
X126360497Y-104462395D01*
X126164294Y-104357522D01*
X125951401Y-104292942D01*
X125785477Y-104276600D01*
X125674523Y-104276600D01*
X125508599Y-104292942D01*
X125295706Y-104357522D01*
X125099503Y-104462395D01*
X124927530Y-104603530D01*
X124812000Y-104744303D01*
X124812000Y-103527697D01*
X124927530Y-103668470D01*
X125099503Y-103809605D01*
X125295706Y-103914478D01*
X125508599Y-103979058D01*
X125674523Y-103995400D01*
X125785477Y-103995400D01*
X125951401Y-103979058D01*
X126164294Y-103914478D01*
X126360497Y-103809605D01*
X126532470Y-103668470D01*
X126673605Y-103496497D01*
X126778478Y-103300294D01*
X126843058Y-103087401D01*
X126843846Y-103079400D01*
X130131010Y-103079400D01*
X130142866Y-103139005D01*
X130186543Y-103244449D01*
X130249951Y-103339346D01*
X130330654Y-103420049D01*
X130425551Y-103483457D01*
X130530995Y-103527134D01*
X130642934Y-103549400D01*
X130757066Y-103549400D01*
X130869005Y-103527134D01*
X130974449Y-103483457D01*
X131069346Y-103420049D01*
X131150049Y-103339346D01*
X131213457Y-103244449D01*
X131257134Y-103139005D01*
X131279400Y-103027066D01*
X131279400Y-102912934D01*
X131257134Y-102800995D01*
X131213457Y-102695551D01*
X131150049Y-102600654D01*
X131069346Y-102519951D01*
X130974449Y-102456543D01*
X130869005Y-102412866D01*
X130847822Y-102408652D01*
X130870765Y-102399149D01*
X130957473Y-102341212D01*
X131031212Y-102267473D01*
X131089149Y-102180765D01*
X131129056Y-102084420D01*
X131149400Y-101982141D01*
X131149400Y-101877859D01*
X131129056Y-101775580D01*
X131089149Y-101679235D01*
X131031212Y-101592527D01*
X130957473Y-101518788D01*
X130870765Y-101460851D01*
X130774420Y-101420944D01*
X130672141Y-101400600D01*
X130567859Y-101400600D01*
X130465580Y-101420944D01*
X130369235Y-101460851D01*
X130282527Y-101518788D01*
X130208788Y-101592527D01*
X130150851Y-101679235D01*
X130110944Y-101775580D01*
X130090600Y-101877859D01*
X130090600Y-101930600D01*
X127599010Y-101930600D01*
X126651654Y-100983244D01*
X126673605Y-100956497D01*
X126778478Y-100760294D01*
X126843058Y-100547401D01*
X126864864Y-100326000D01*
X126843058Y-100104599D01*
X126778478Y-99891706D01*
X126673605Y-99695503D01*
X126532470Y-99523530D01*
X126360497Y-99382395D01*
X126164294Y-99277522D01*
X125951401Y-99212942D01*
X125785477Y-99196600D01*
X125674523Y-99196600D01*
X125508599Y-99212942D01*
X125295706Y-99277522D01*
X125099503Y-99382395D01*
X124927530Y-99523530D01*
X124812000Y-99664303D01*
X124812000Y-98447697D01*
X124927530Y-98588470D01*
X125099503Y-98729605D01*
X125295706Y-98834478D01*
X125508599Y-98899058D01*
X125674523Y-98915400D01*
X125785477Y-98915400D01*
X125951401Y-98899058D01*
X126164294Y-98834478D01*
X126214884Y-98807437D01*
X126982550Y-99575103D01*
X126994426Y-99589574D01*
X127008897Y-99601450D01*
X127008898Y-99601451D01*
X127052197Y-99636985D01*
X127118107Y-99672215D01*
X127134753Y-99677264D01*
X127189625Y-99693910D01*
X127245368Y-99699400D01*
X127245371Y-99699400D01*
X127264000Y-99701235D01*
X127282629Y-99699400D01*
X130220715Y-99699400D01*
X130252527Y-99731212D01*
X130339235Y-99789149D01*
X130435580Y-99829056D01*
X130537859Y-99849400D01*
X130642141Y-99849400D01*
X130744420Y-99829056D01*
X130840765Y-99789149D01*
X130927473Y-99731212D01*
X131001212Y-99657473D01*
X131059149Y-99570765D01*
X131099056Y-99474420D01*
X131119400Y-99372141D01*
X131119400Y-99267859D01*
X131099056Y-99165580D01*
X131059149Y-99069235D01*
X131001212Y-98982527D01*
X130927473Y-98908788D01*
X130840765Y-98850851D01*
X130744420Y-98810944D01*
X130642141Y-98790600D01*
X130537859Y-98790600D01*
X130435580Y-98810944D01*
X130339235Y-98850851D01*
X130252527Y-98908788D01*
X130220715Y-98940600D01*
X127866151Y-98940600D01*
X127923622Y-98883129D01*
X127981559Y-98796421D01*
X128021466Y-98700076D01*
X128041810Y-98597797D01*
X128041810Y-98493515D01*
X128021466Y-98391236D01*
X127981559Y-98294891D01*
X127923622Y-98208183D01*
X127849883Y-98134444D01*
X127763175Y-98076507D01*
X127666830Y-98036600D01*
X127596658Y-98022642D01*
X127454578Y-97880562D01*
X127454578Y-93691130D01*
X130079293Y-96315846D01*
X130090944Y-96374420D01*
X130130851Y-96470765D01*
X130188788Y-96557473D01*
X130262527Y-96631212D01*
X130349235Y-96689149D01*
X130445580Y-96729056D01*
X130547859Y-96749400D01*
X130652141Y-96749400D01*
X130754420Y-96729056D01*
X130850765Y-96689149D01*
X130937473Y-96631212D01*
X131011212Y-96557473D01*
X131069149Y-96470765D01*
X131109056Y-96374420D01*
X131129400Y-96272141D01*
X131129400Y-96167859D01*
X131109056Y-96065580D01*
X131069149Y-95969235D01*
X131028139Y-95907859D01*
X134450600Y-95907859D01*
X134450600Y-96012141D01*
X134470944Y-96114420D01*
X134510851Y-96210765D01*
X134568788Y-96297473D01*
X134642527Y-96371212D01*
X134729235Y-96429149D01*
X134825580Y-96469056D01*
X134927859Y-96489400D01*
X135032141Y-96489400D01*
X135134420Y-96469056D01*
X135230765Y-96429149D01*
X135317473Y-96371212D01*
X135391212Y-96297473D01*
X135449149Y-96210765D01*
X135472159Y-96155213D01*
X135505580Y-96169056D01*
X135607859Y-96189400D01*
X135712141Y-96189400D01*
X135814420Y-96169056D01*
X135910765Y-96129149D01*
X135997473Y-96071212D01*
X136029285Y-96039400D01*
X136991371Y-96039400D01*
X137010000Y-96041235D01*
X137028629Y-96039400D01*
X137028632Y-96039400D01*
X137084375Y-96033910D01*
X137155892Y-96012215D01*
X137221803Y-95976985D01*
X137279574Y-95929574D01*
X137291454Y-95915098D01*
X137767153Y-95439400D01*
X137812141Y-95439400D01*
X137914420Y-95419056D01*
X138010765Y-95379149D01*
X138097473Y-95321212D01*
X138171212Y-95247473D01*
X138229149Y-95160765D01*
X138269056Y-95064420D01*
X138289400Y-94962141D01*
X138289400Y-94857859D01*
X138269056Y-94755580D01*
X138229149Y-94659235D01*
X138171212Y-94572527D01*
X138097473Y-94498788D01*
X138010765Y-94440851D01*
X137914420Y-94400944D01*
X137812141Y-94380600D01*
X137707859Y-94380600D01*
X137605580Y-94400944D01*
X137509235Y-94440851D01*
X137422527Y-94498788D01*
X137358252Y-94563063D01*
X137351212Y-94552527D01*
X137277473Y-94478788D01*
X137190765Y-94420851D01*
X137094420Y-94380944D01*
X136992141Y-94360600D01*
X136887859Y-94360600D01*
X136785580Y-94380944D01*
X136689235Y-94420851D01*
X136602527Y-94478788D01*
X136570715Y-94510600D01*
X135715075Y-94510600D01*
X135696446Y-94508765D01*
X135677817Y-94510600D01*
X135677815Y-94510600D01*
X135622072Y-94516090D01*
X135550555Y-94537785D01*
X135537373Y-94544831D01*
X135484643Y-94573015D01*
X135441345Y-94608549D01*
X135426873Y-94620426D01*
X135414997Y-94634897D01*
X134724902Y-95324993D01*
X134710426Y-95336873D01*
X134698549Y-95351346D01*
X134663015Y-95394644D01*
X134649967Y-95419056D01*
X134627785Y-95460556D01*
X134606090Y-95532073D01*
X134602476Y-95568768D01*
X134600283Y-95591032D01*
X134568788Y-95622527D01*
X134510851Y-95709235D01*
X134470944Y-95805580D01*
X134450600Y-95907859D01*
X131028139Y-95907859D01*
X131011212Y-95882527D01*
X130938114Y-95809429D01*
X130981059Y-95745159D01*
X131020966Y-95648814D01*
X131041310Y-95546535D01*
X131041310Y-95442253D01*
X131020966Y-95339974D01*
X130981059Y-95243629D01*
X130923122Y-95156921D01*
X130849383Y-95083182D01*
X130762675Y-95025245D01*
X130666330Y-94985338D01*
X130564051Y-94964994D01*
X130519062Y-94964994D01*
X130076851Y-94522783D01*
X132480600Y-94522783D01*
X132480600Y-94617217D01*
X132499023Y-94709836D01*
X132535161Y-94797081D01*
X132587625Y-94875600D01*
X132654400Y-94942375D01*
X132732919Y-94994839D01*
X132820164Y-95030977D01*
X132912783Y-95049400D01*
X133007217Y-95049400D01*
X133099836Y-95030977D01*
X133187081Y-94994839D01*
X133265600Y-94942375D01*
X133290000Y-94917975D01*
X133314400Y-94942375D01*
X133392919Y-94994839D01*
X133480164Y-95030977D01*
X133572783Y-95049400D01*
X133667217Y-95049400D01*
X133759836Y-95030977D01*
X133847081Y-94994839D01*
X133925600Y-94942375D01*
X133992375Y-94875600D01*
X134044839Y-94797081D01*
X134080977Y-94709836D01*
X134099400Y-94617217D01*
X134099400Y-94522783D01*
X134080977Y-94430164D01*
X134044839Y-94342919D01*
X133997097Y-94271468D01*
X133994544Y-93941914D01*
X133996235Y-93924748D01*
X133994255Y-93904651D01*
X133994244Y-93903177D01*
X133992426Y-93886073D01*
X133988909Y-93850373D01*
X133988479Y-93848956D01*
X133988322Y-93847478D01*
X133977647Y-93813247D01*
X133967215Y-93778856D01*
X133966513Y-93777542D01*
X133966073Y-93776132D01*
X133948951Y-93744686D01*
X133931985Y-93712946D01*
X133931043Y-93711798D01*
X133930334Y-93710496D01*
X133907360Y-93682940D01*
X133896451Y-93669647D01*
X133895408Y-93668604D01*
X133882477Y-93653094D01*
X133879400Y-93650608D01*
X133879400Y-84322783D01*
X135740600Y-84322783D01*
X135740600Y-84417217D01*
X135759023Y-84509836D01*
X135795161Y-84597081D01*
X135847625Y-84675600D01*
X135914400Y-84742375D01*
X135992919Y-84794839D01*
X136080164Y-84830977D01*
X136172783Y-84849400D01*
X136196507Y-84849400D01*
X137524400Y-86177294D01*
X137524401Y-86752535D01*
X137522681Y-86770000D01*
X137529546Y-86839710D01*
X137549880Y-86906741D01*
X137566390Y-86937628D01*
X137582900Y-86968516D01*
X137627338Y-87022663D01*
X137640901Y-87033794D01*
X138750600Y-88143494D01*
X138750600Y-88167217D01*
X138769023Y-88259836D01*
X138805161Y-88347081D01*
X138857625Y-88425600D01*
X138924400Y-88492375D01*
X139002919Y-88544839D01*
X139090164Y-88580977D01*
X139182783Y-88599400D01*
X139277217Y-88599400D01*
X139369836Y-88580977D01*
X139457081Y-88544839D01*
X139535600Y-88492375D01*
X139602375Y-88425600D01*
X139654839Y-88347081D01*
X139690977Y-88259836D01*
X139709400Y-88167217D01*
X139709400Y-88072783D01*
X139690977Y-87980164D01*
X139654839Y-87892919D01*
X139602375Y-87814400D01*
X139535600Y-87747625D01*
X139508324Y-87729400D01*
X139750715Y-87729400D01*
X139782527Y-87761212D01*
X139869235Y-87819149D01*
X139965580Y-87859056D01*
X140067859Y-87879400D01*
X140172141Y-87879400D01*
X140274420Y-87859056D01*
X140370765Y-87819149D01*
X140457473Y-87761212D01*
X140531212Y-87687473D01*
X140589149Y-87600765D01*
X140629056Y-87504420D01*
X140649400Y-87402141D01*
X140649400Y-87297859D01*
X140629056Y-87195580D01*
X140589149Y-87099235D01*
X140531212Y-87012527D01*
X140457473Y-86938788D01*
X140370765Y-86880851D01*
X140274420Y-86840944D01*
X140172141Y-86820600D01*
X140067859Y-86820600D01*
X139965580Y-86840944D01*
X139869235Y-86880851D01*
X139782527Y-86938788D01*
X139750715Y-86970600D01*
X139257153Y-86970600D01*
X138619400Y-86332848D01*
X138619400Y-85055086D01*
X138664839Y-84987081D01*
X138700977Y-84899836D01*
X138719400Y-84807217D01*
X138719400Y-84712783D01*
X138700977Y-84620164D01*
X138664839Y-84532919D01*
X138612375Y-84454400D01*
X138545600Y-84387625D01*
X138467081Y-84335161D01*
X138379836Y-84299023D01*
X138287217Y-84280600D01*
X138192783Y-84280600D01*
X138100164Y-84299023D01*
X138012919Y-84335161D01*
X137934400Y-84387625D01*
X137867625Y-84454400D01*
X137815161Y-84532919D01*
X137779023Y-84620164D01*
X137760600Y-84712783D01*
X137760600Y-84807217D01*
X137779023Y-84899836D01*
X137815161Y-84987081D01*
X137860600Y-85055086D01*
X137860600Y-85061473D01*
X137860601Y-85061483D01*
X137860601Y-85507707D01*
X136699400Y-84346507D01*
X136699400Y-84322783D01*
X136680977Y-84230164D01*
X136644839Y-84142919D01*
X136592375Y-84064400D01*
X136525600Y-83997625D01*
X136447081Y-83945161D01*
X136359836Y-83909023D01*
X136267217Y-83890600D01*
X136172783Y-83890600D01*
X136080164Y-83909023D01*
X135992919Y-83945161D01*
X135914400Y-83997625D01*
X135847625Y-84064400D01*
X135795161Y-84142919D01*
X135759023Y-84230164D01*
X135740600Y-84322783D01*
X133879400Y-84322783D01*
X133879400Y-82932783D01*
X142580600Y-82932783D01*
X142580600Y-83027217D01*
X142599023Y-83119836D01*
X142635161Y-83207081D01*
X142687625Y-83285600D01*
X142754400Y-83352375D01*
X142832919Y-83404839D01*
X142920164Y-83440977D01*
X143012783Y-83459400D01*
X143107217Y-83459400D01*
X143199836Y-83440977D01*
X143287081Y-83404839D01*
X143365600Y-83352375D01*
X143432375Y-83285600D01*
X143484839Y-83207081D01*
X143520977Y-83119836D01*
X143539400Y-83027217D01*
X143539400Y-82932783D01*
X143520977Y-82840164D01*
X143484839Y-82752919D01*
X143432375Y-82674400D01*
X143365600Y-82607625D01*
X143287081Y-82555161D01*
X143199836Y-82519023D01*
X143107217Y-82500600D01*
X143012783Y-82500600D01*
X142920164Y-82519023D01*
X142832919Y-82555161D01*
X142754400Y-82607625D01*
X142687625Y-82674400D01*
X142635161Y-82752919D01*
X142599023Y-82840164D01*
X142580600Y-82932783D01*
X133879400Y-82932783D01*
X133879400Y-80075352D01*
X135641020Y-78313733D01*
X135673565Y-78327214D01*
X135766184Y-78345637D01*
X135860618Y-78345637D01*
X135953237Y-78327214D01*
X136040482Y-78291076D01*
X136119001Y-78238612D01*
X136185776Y-78171837D01*
X136238240Y-78093318D01*
X136274378Y-78006073D01*
X136292801Y-77913454D01*
X136292801Y-77819020D01*
X136274378Y-77726401D01*
X136238240Y-77639156D01*
X136185776Y-77560637D01*
X136140807Y-77515668D01*
X136205600Y-77472375D01*
X136272375Y-77405600D01*
X136324839Y-77327081D01*
X136360977Y-77239836D01*
X136379400Y-77147217D01*
X136379400Y-77052783D01*
X136360977Y-76960164D01*
X136324839Y-76872919D01*
X136272375Y-76794400D01*
X136205600Y-76727625D01*
X136127081Y-76675161D01*
X136039836Y-76639023D01*
X135947217Y-76620600D01*
X135852783Y-76620600D01*
X135760164Y-76639023D01*
X135672919Y-76675161D01*
X135594400Y-76727625D01*
X135590932Y-76731093D01*
X135552553Y-76742736D01*
X135535907Y-76747785D01*
X135488885Y-76772919D01*
X135469997Y-76783015D01*
X135412226Y-76830426D01*
X135400350Y-76844897D01*
X132844902Y-79400346D01*
X132830426Y-79412226D01*
X132818549Y-79426699D01*
X132783015Y-79469997D01*
X132766979Y-79500000D01*
X132747785Y-79535909D01*
X132726090Y-79607426D01*
X132720607Y-79663099D01*
X132718765Y-79681800D01*
X132720600Y-79700429D01*
X132720601Y-93622692D01*
X132698970Y-93644323D01*
X132683483Y-93657231D01*
X132660935Y-93685135D01*
X132638112Y-93712945D01*
X132637425Y-93714230D01*
X132636512Y-93715360D01*
X132619817Y-93747174D01*
X132602883Y-93778856D01*
X132602461Y-93780247D01*
X132601784Y-93781537D01*
X132591596Y-93816065D01*
X132581188Y-93850374D01*
X132581046Y-93851818D01*
X132580633Y-93853217D01*
X132577384Y-93888991D01*
X132573862Y-93924748D01*
X132575839Y-93944820D01*
X132578373Y-94278247D01*
X132535161Y-94342919D01*
X132499023Y-94430164D01*
X132480600Y-94522783D01*
X130076851Y-94522783D01*
X128379400Y-92825332D01*
X128379400Y-85030966D01*
X128412426Y-85024397D01*
X128499671Y-84988259D01*
X128578190Y-84935795D01*
X128644965Y-84869020D01*
X128697429Y-84790501D01*
X128733567Y-84703256D01*
X128751990Y-84610637D01*
X128751990Y-84516203D01*
X128733567Y-84423584D01*
X128697429Y-84336339D01*
X128644965Y-84257820D01*
X128578190Y-84191045D01*
X128499671Y-84138581D01*
X128412426Y-84102443D01*
X128319807Y-84084020D01*
X128225373Y-84084020D01*
X128132754Y-84102443D01*
X128045509Y-84138581D01*
X127966990Y-84191045D01*
X127900215Y-84257820D01*
X127847751Y-84336339D01*
X127818043Y-84408062D01*
X127775759Y-84379809D01*
X127688514Y-84343671D01*
X127595895Y-84325248D01*
X127501461Y-84325248D01*
X127454578Y-84334574D01*
X127454578Y-81322257D01*
X127456654Y-81301177D01*
X127454578Y-81280097D01*
X127454578Y-81280091D01*
X127448364Y-81217001D01*
X127423811Y-81136059D01*
X127383938Y-81061462D01*
X127360796Y-81033264D01*
X127343720Y-81012456D01*
X127343716Y-81012452D01*
X127330278Y-80996078D01*
X127313905Y-80982641D01*
X126776067Y-80444804D01*
X126778478Y-80440294D01*
X126843058Y-80227401D01*
X126864864Y-80006000D01*
X126843058Y-79784599D01*
X126778478Y-79571706D01*
X126673605Y-79375503D01*
X126532470Y-79203530D01*
X126360497Y-79062395D01*
X126164294Y-78957522D01*
X125951401Y-78892942D01*
X125785477Y-78876600D01*
X125674523Y-78876600D01*
X125508599Y-78892942D01*
X125295706Y-78957522D01*
X125099503Y-79062395D01*
X124927530Y-79203530D01*
X124812000Y-79344303D01*
X124812000Y-78127697D01*
X124927530Y-78268470D01*
X125099503Y-78409605D01*
X125295706Y-78514478D01*
X125508599Y-78579058D01*
X125674523Y-78595400D01*
X125785477Y-78595400D01*
X125951401Y-78579058D01*
X126142477Y-78521096D01*
X126274470Y-78653089D01*
X126274476Y-78653094D01*
X129036909Y-81415528D01*
X129051136Y-81432864D01*
X129068471Y-81447090D01*
X129120327Y-81489647D01*
X129179381Y-81521212D01*
X129199268Y-81531842D01*
X129284922Y-81557825D01*
X129351682Y-81564400D01*
X129351684Y-81564400D01*
X129373999Y-81566598D01*
X129396314Y-81564400D01*
X129857162Y-81564400D01*
X129879235Y-81579149D01*
X129975580Y-81619056D01*
X130077859Y-81639400D01*
X130182141Y-81639400D01*
X130284420Y-81619056D01*
X130380765Y-81579149D01*
X130467473Y-81521212D01*
X130541212Y-81447473D01*
X130599149Y-81360765D01*
X130639056Y-81264420D01*
X130659400Y-81162141D01*
X130659400Y-81057859D01*
X130639056Y-80955580D01*
X130599149Y-80859235D01*
X130541212Y-80772527D01*
X130467473Y-80698788D01*
X130380765Y-80640851D01*
X130284420Y-80600944D01*
X130182141Y-80580600D01*
X130077859Y-80580600D01*
X129975580Y-80600944D01*
X129879235Y-80640851D01*
X129857162Y-80655600D01*
X129562219Y-80655600D01*
X126917094Y-78010476D01*
X126917089Y-78010470D01*
X126785096Y-77878477D01*
X126843058Y-77687401D01*
X126864864Y-77466000D01*
X126843058Y-77244599D01*
X126778478Y-77031706D01*
X126673605Y-76835503D01*
X126532470Y-76663530D01*
X126360497Y-76522395D01*
X126164294Y-76417522D01*
X125951401Y-76352942D01*
X125785477Y-76336600D01*
X125674523Y-76336600D01*
X125508599Y-76352942D01*
X125295706Y-76417522D01*
X125099503Y-76522395D01*
X124927530Y-76663530D01*
X124812000Y-76804303D01*
X124812000Y-75587697D01*
X124927530Y-75728470D01*
X125099503Y-75869605D01*
X125295706Y-75974478D01*
X125508599Y-76039058D01*
X125674523Y-76055400D01*
X125785477Y-76055400D01*
X125951401Y-76039058D01*
X126164294Y-75974478D01*
X126360497Y-75869605D01*
X126532470Y-75728470D01*
X126565868Y-75687775D01*
X128150004Y-77271912D01*
X128162663Y-77287337D01*
X128224241Y-77337873D01*
X128288790Y-77372375D01*
X128294494Y-77375424D01*
X128370723Y-77398548D01*
X128377516Y-77399217D01*
X128430140Y-77404400D01*
X128430148Y-77404400D01*
X128450000Y-77406355D01*
X128469852Y-77404400D01*
X128492329Y-77404400D01*
X128522919Y-77424839D01*
X128610164Y-77460977D01*
X128702783Y-77479400D01*
X128797217Y-77479400D01*
X128889836Y-77460977D01*
X128977081Y-77424839D01*
X129055600Y-77372375D01*
X129122375Y-77305600D01*
X129174839Y-77227081D01*
X129210977Y-77139836D01*
X129229400Y-77047217D01*
X129229400Y-76952783D01*
X129210977Y-76860164D01*
X129174839Y-76772919D01*
X129122375Y-76694400D01*
X129055600Y-76627625D01*
X128977081Y-76575161D01*
X128889836Y-76539023D01*
X128797217Y-76520600D01*
X128702783Y-76520600D01*
X128610164Y-76539023D01*
X128575351Y-76553443D01*
X128074691Y-76052783D01*
X142540600Y-76052783D01*
X142540600Y-76147217D01*
X142559023Y-76239836D01*
X142595161Y-76327081D01*
X142647625Y-76405600D01*
X142714400Y-76472375D01*
X142792919Y-76524839D01*
X142880164Y-76560977D01*
X142972783Y-76579400D01*
X143067217Y-76579400D01*
X143159836Y-76560977D01*
X143247081Y-76524839D01*
X143325600Y-76472375D01*
X143392375Y-76405600D01*
X143444839Y-76327081D01*
X143480977Y-76239836D01*
X143499400Y-76147217D01*
X143499400Y-76052783D01*
X143480977Y-75960164D01*
X143444839Y-75872919D01*
X143392375Y-75794400D01*
X143325600Y-75727625D01*
X143247081Y-75675161D01*
X143159836Y-75639023D01*
X143067217Y-75620600D01*
X142972783Y-75620600D01*
X142880164Y-75639023D01*
X142792919Y-75675161D01*
X142714400Y-75727625D01*
X142647625Y-75794400D01*
X142595161Y-75872919D01*
X142559023Y-75960164D01*
X142540600Y-76052783D01*
X128074691Y-76052783D01*
X126855791Y-74833884D01*
X126843058Y-74704599D01*
X126778478Y-74491706D01*
X126673605Y-74295503D01*
X126532470Y-74123530D01*
X126360497Y-73982395D01*
X126164294Y-73877522D01*
X125951401Y-73812942D01*
X125785477Y-73796600D01*
X125674523Y-73796600D01*
X125508599Y-73812942D01*
X125295706Y-73877522D01*
X125099503Y-73982395D01*
X124927530Y-74123530D01*
X124812000Y-74264303D01*
X124812000Y-71137215D01*
X124832109Y-70932126D01*
X125133100Y-70932126D01*
X125133100Y-71299874D01*
X125204844Y-71660555D01*
X125345575Y-72000309D01*
X125549884Y-72306079D01*
X125809921Y-72566116D01*
X126115691Y-72770425D01*
X126455445Y-72911156D01*
X126816126Y-72982900D01*
X127183874Y-72982900D01*
X127544555Y-72911156D01*
X127884309Y-72770425D01*
X128190079Y-72566116D01*
X128450116Y-72306079D01*
X128654425Y-72000309D01*
X128795156Y-71660555D01*
X128866900Y-71299874D01*
X128866900Y-70932126D01*
X128795156Y-70571445D01*
X128654425Y-70231691D01*
X128450116Y-69925921D01*
X128190079Y-69665884D01*
X127884309Y-69461575D01*
X127544555Y-69320844D01*
X127183874Y-69249100D01*
X126816126Y-69249100D01*
X126455445Y-69320844D01*
X126115691Y-69461575D01*
X125809921Y-69665884D01*
X125549884Y-69925921D01*
X125345575Y-70231691D01*
X125204844Y-70571445D01*
X125133100Y-70932126D01*
X124832109Y-70932126D01*
X124855326Y-70695346D01*
X124978655Y-70286860D01*
X125178974Y-69910112D01*
X125448657Y-69579450D01*
X125777431Y-69307465D01*
X126152769Y-69104520D01*
X126560381Y-68978343D01*
X127001308Y-68932000D01*
X132367967Y-68932000D01*
X132227608Y-68945824D01*
G36*
X124927530Y-80808470D02*
G01*
X125099503Y-80949605D01*
X125295706Y-81054478D01*
X125508599Y-81119058D01*
X125674523Y-81135400D01*
X125785477Y-81135400D01*
X125951401Y-81119058D01*
X126164294Y-81054478D01*
X126168804Y-81052067D01*
X126595778Y-81479042D01*
X126595778Y-84360671D01*
X126532470Y-84283530D01*
X126360497Y-84142395D01*
X126164294Y-84037522D01*
X125951401Y-83972942D01*
X125785477Y-83956600D01*
X125674523Y-83956600D01*
X125508599Y-83972942D01*
X125295706Y-84037522D01*
X125099503Y-84142395D01*
X124927530Y-84283530D01*
X124812000Y-84424303D01*
X124812000Y-80667697D01*
X124927530Y-80808470D01*
X124927530Y-80808470D01*
G37*
X124927530Y-80808470D02*
X125099503Y-80949605D01*
X125295706Y-81054478D01*
X125508599Y-81119058D01*
X125674523Y-81135400D01*
X125785477Y-81135400D01*
X125951401Y-81119058D01*
X126164294Y-81054478D01*
X126168804Y-81052067D01*
X126595778Y-81479042D01*
X126595778Y-84360671D01*
X126532470Y-84283530D01*
X126360497Y-84142395D01*
X126164294Y-84037522D01*
X125951401Y-83972942D01*
X125785477Y-83956600D01*
X125674523Y-83956600D01*
X125508599Y-83972942D01*
X125295706Y-84037522D01*
X125099503Y-84142395D01*
X124927530Y-84283530D01*
X124812000Y-84424303D01*
X124812000Y-80667697D01*
X124927530Y-80808470D01*
M02*
