G04 #@! TF.GenerationSoftware,KiCad,Pcbnew,(5.0.1-3-g963ef8bb5)*
G04 #@! TF.CreationDate,2019-02-27T23:12:09+01:00*
G04 #@! TF.ProjectId,TLM-v1,544C4D2D76312E6B696361645F706362,1.0*
G04 #@! TF.SameCoordinates,Original*
G04 #@! TF.FileFunction,Legend,Top*
G04 #@! TF.FilePolarity,Positive*
%FSLAX46Y46*%
G04 Gerber Fmt 4.6, Leading zero omitted, Abs format (unit mm)*
G04 Created by KiCad (PCBNEW (5.0.1-3-g963ef8bb5)) date 2019 February 27, Wednesday 23:12:09*
%MOMM*%
%LPD*%
G01*
G04 APERTURE LIST*
%ADD10C,0.175000*%
%ADD11C,0.225000*%
%ADD12C,0.120000*%
%ADD13C,0.200000*%
G04 APERTURE END LIST*
D10*
X131848571Y-79015238D02*
X132381904Y-78789047D01*
X131848571Y-78562857D01*
X132305714Y-78200952D02*
X132343809Y-78155714D01*
X132381904Y-78200952D01*
X132343809Y-78246190D01*
X132305714Y-78200952D01*
X132381904Y-78200952D01*
X132381904Y-76527142D02*
X132381904Y-77070000D01*
X132381904Y-76798571D02*
X131581904Y-76798571D01*
X131696190Y-76889047D01*
X131772380Y-76979523D01*
X131810476Y-77070000D01*
X132305714Y-76120000D02*
X132343809Y-76074761D01*
X132381904Y-76120000D01*
X132343809Y-76165238D01*
X132305714Y-76120000D01*
X132381904Y-76120000D01*
X131581904Y-75486666D02*
X131581904Y-75396190D01*
X131620000Y-75305714D01*
X131658095Y-75260476D01*
X131734285Y-75215238D01*
X131886666Y-75170000D01*
X132077142Y-75170000D01*
X132229523Y-75215238D01*
X132305714Y-75260476D01*
X132343809Y-75305714D01*
X132381904Y-75396190D01*
X132381904Y-75486666D01*
X132343809Y-75577142D01*
X132305714Y-75622380D01*
X132229523Y-75667619D01*
X132077142Y-75712857D01*
X131886666Y-75712857D01*
X131734285Y-75667619D01*
X131658095Y-75622380D01*
X131620000Y-75577142D01*
X131581904Y-75486666D01*
D11*
X130340561Y-80312400D02*
X130340561Y-79712400D01*
X131290561Y-80012400D02*
X130340561Y-80012400D01*
X131290561Y-79362400D02*
X130657228Y-79362400D01*
X130340561Y-79362400D02*
X130385800Y-79412400D01*
X130431038Y-79362400D01*
X130385800Y-79312400D01*
X130340561Y-79362400D01*
X130431038Y-79362400D01*
X130657228Y-78862400D02*
X131290561Y-78862400D01*
X130747704Y-78862400D02*
X130702466Y-78812400D01*
X130657228Y-78712400D01*
X130657228Y-78562400D01*
X130702466Y-78462400D01*
X130792942Y-78412400D01*
X131290561Y-78412400D01*
X130657228Y-78012400D02*
X131290561Y-77762400D01*
X130657228Y-77512400D02*
X131290561Y-77762400D01*
X131516752Y-77862400D01*
X131561990Y-77912400D01*
X131607228Y-78012400D01*
X131290561Y-76612400D02*
X131290561Y-77112400D01*
X130340561Y-77112400D01*
X131290561Y-76112400D02*
X131245323Y-76212400D01*
X131200085Y-76262400D01*
X131109609Y-76312400D01*
X130838180Y-76312400D01*
X130747704Y-76262400D01*
X130702466Y-76212400D01*
X130657228Y-76112400D01*
X130657228Y-75962400D01*
X130702466Y-75862400D01*
X130747704Y-75812400D01*
X130838180Y-75762400D01*
X131109609Y-75762400D01*
X131200085Y-75812400D01*
X131245323Y-75862400D01*
X131290561Y-75962400D01*
X131290561Y-76112400D01*
X131290561Y-74712400D02*
X130838180Y-75062400D01*
X131290561Y-75312400D02*
X130340561Y-75312400D01*
X130340561Y-74912400D01*
X130385800Y-74812400D01*
X130431038Y-74762400D01*
X130521514Y-74712400D01*
X130657228Y-74712400D01*
X130747704Y-74762400D01*
X130792942Y-74812400D01*
X130838180Y-74912400D01*
X130838180Y-75312400D01*
X131290561Y-73812400D02*
X130792942Y-73812400D01*
X130702466Y-73862400D01*
X130657228Y-73962400D01*
X130657228Y-74162400D01*
X130702466Y-74262400D01*
X131245323Y-73812400D02*
X131290561Y-73912400D01*
X131290561Y-74162400D01*
X131245323Y-74262400D01*
X131154847Y-74312400D01*
X131064371Y-74312400D01*
X130973895Y-74262400D01*
X130928657Y-74162400D01*
X130928657Y-73912400D01*
X130883419Y-73812400D01*
D12*
G04 #@! TO.C,U2*
X139371000Y-87237500D02*
X133171000Y-87237500D01*
X139371000Y-81037500D02*
X133171000Y-81037500D01*
X133171000Y-81037500D02*
X133171000Y-87237500D01*
X139371000Y-81037500D02*
X139371000Y-87237500D01*
X139571000Y-80837500D02*
X138971000Y-80837500D01*
X139571000Y-81437500D02*
X139571000Y-80837500D01*
G04 #@! TO.C,U3*
X138840000Y-74310000D02*
X138240000Y-74310000D01*
D13*
G04 #@! TO.C,XC1*
X130172000Y-86214000D02*
X130372000Y-86614000D01*
X130372000Y-86214000D02*
X130172000Y-86214000D01*
X131672000Y-88114000D02*
X131472000Y-88114000D01*
X131672000Y-85114000D02*
X131472000Y-85114000D01*
X132772000Y-86214000D02*
X132772000Y-87014000D01*
X130372000Y-86214000D02*
X130372000Y-87014000D01*
G04 #@! TO.C,Y1*
X140070000Y-83510000D02*
X140070000Y-83910000D01*
X141270000Y-83510000D02*
X141270000Y-83910000D01*
G04 #@! TD*
M02*
