G04 #@! TF.GenerationSoftware,KiCad,Pcbnew,(5.0.1-3-g963ef8bb5)*
G04 #@! TF.CreationDate,2019-02-27T23:12:09+01:00*
G04 #@! TF.ProjectId,TLM-v1,544C4D2D76312E6B696361645F706362,1.0*
G04 #@! TF.SameCoordinates,Original*
G04 #@! TF.FileFunction,Copper,L4,Bot,Signal*
G04 #@! TF.FilePolarity,Positive*
%FSLAX46Y46*%
G04 Gerber Fmt 4.6, Leading zero omitted, Abs format (unit mm)*
G04 Created by KiCad (PCBNEW (5.0.1-3-g963ef8bb5)) date 2019 February 27, Wednesday 23:12:09*
%MOMM*%
%LPD*%
G01*
G04 APERTURE LIST*
G04 #@! TA.AperFunction,Conductor*
%ADD10C,0.100000*%
G04 #@! TD*
G04 #@! TA.AperFunction,ComponentPad*
%ADD11C,0.900000*%
G04 #@! TD*
G04 #@! TA.AperFunction,ConnectorPad*
%ADD12C,0.700000*%
G04 #@! TD*
G04 #@! TA.AperFunction,ViaPad*
%ADD13C,0.355600*%
G04 #@! TD*
G04 #@! TA.AperFunction,ViaPad*
%ADD14C,0.482600*%
G04 #@! TD*
G04 #@! TA.AperFunction,Conductor*
%ADD15C,0.127000*%
G04 #@! TD*
G04 #@! TA.AperFunction,Conductor*
%ADD16C,0.508000*%
G04 #@! TD*
G04 #@! TA.AperFunction,Conductor*
%ADD17C,0.635000*%
G04 #@! TD*
G04 #@! TA.AperFunction,Conductor*
%ADD18C,0.152400*%
G04 #@! TD*
G04 #@! TA.AperFunction,Conductor*
%ADD19C,0.101600*%
G04 #@! TD*
G04 #@! TA.AperFunction,Conductor*
%ADD20C,0.254000*%
G04 #@! TD*
G04 #@! TA.AperFunction,Conductor*
%ADD21C,0.381000*%
G04 #@! TD*
G04 #@! TA.AperFunction,Conductor*
%ADD22C,0.203200*%
G04 #@! TD*
G04 #@! TA.AperFunction,Conductor*
%ADD23C,0.200000*%
G04 #@! TD*
G04 APERTURE END LIST*
D10*
G04 #@! TO.N,GND*
G04 #@! TO.C,U1*
G36*
X129873643Y-75750867D02*
X129891116Y-75753459D01*
X129908251Y-75757751D01*
X129924883Y-75763702D01*
X129940851Y-75771254D01*
X129956003Y-75780335D01*
X129970191Y-75790858D01*
X129983279Y-75802721D01*
X129995142Y-75815809D01*
X130005665Y-75829997D01*
X130014746Y-75845149D01*
X130022298Y-75861117D01*
X130028249Y-75877749D01*
X130032541Y-75894884D01*
X130035133Y-75912357D01*
X130036000Y-75930000D01*
X130036000Y-76470000D01*
X130035133Y-76487643D01*
X130032541Y-76505116D01*
X130028249Y-76522251D01*
X130022298Y-76538883D01*
X130014746Y-76554851D01*
X130005665Y-76570003D01*
X129995142Y-76584191D01*
X129983279Y-76597279D01*
X129970191Y-76609142D01*
X129956003Y-76619665D01*
X129940851Y-76628746D01*
X129924883Y-76636298D01*
X129908251Y-76642249D01*
X129891116Y-76646541D01*
X129873643Y-76649133D01*
X129856000Y-76650000D01*
X129016000Y-76650000D01*
X128998357Y-76649133D01*
X128980884Y-76646541D01*
X128963749Y-76642249D01*
X128947117Y-76636298D01*
X128931149Y-76628746D01*
X128915997Y-76619665D01*
X128901809Y-76609142D01*
X128888721Y-76597279D01*
X128876858Y-76584191D01*
X128866335Y-76570003D01*
X128857254Y-76554851D01*
X128849702Y-76538883D01*
X128843751Y-76522251D01*
X128839459Y-76505116D01*
X128836867Y-76487643D01*
X128836000Y-76470000D01*
X128836000Y-75930000D01*
X128836867Y-75912357D01*
X128839459Y-75894884D01*
X128843751Y-75877749D01*
X128849702Y-75861117D01*
X128857254Y-75845149D01*
X128866335Y-75829997D01*
X128876858Y-75815809D01*
X128888721Y-75802721D01*
X128901809Y-75790858D01*
X128915997Y-75780335D01*
X128931149Y-75771254D01*
X128947117Y-75763702D01*
X128963749Y-75757751D01*
X128980884Y-75753459D01*
X128998357Y-75750867D01*
X129016000Y-75750000D01*
X129856000Y-75750000D01*
X129873643Y-75750867D01*
X129873643Y-75750867D01*
G37*
D11*
G04 #@! TD*
G04 #@! TO.P,U1,1*
G04 #@! TO.N,GND*
X129436000Y-76200000D03*
D10*
G04 #@! TO.N,GND*
G04 #@! TO.C,U1*
G36*
X130309722Y-75750674D02*
X130323313Y-75752690D01*
X130336640Y-75756028D01*
X130349576Y-75760657D01*
X130361996Y-75766531D01*
X130373780Y-75773594D01*
X130384815Y-75781779D01*
X130394995Y-75791005D01*
X130404221Y-75801185D01*
X130412406Y-75812220D01*
X130419469Y-75824004D01*
X130425343Y-75836424D01*
X130429972Y-75849360D01*
X130433310Y-75862687D01*
X130435326Y-75876278D01*
X130436000Y-75890000D01*
X130436000Y-76510000D01*
X130435326Y-76523722D01*
X130433310Y-76537313D01*
X130429972Y-76550640D01*
X130425343Y-76563576D01*
X130419469Y-76575996D01*
X130412406Y-76587780D01*
X130404221Y-76598815D01*
X130394995Y-76608995D01*
X130384815Y-76618221D01*
X130373780Y-76626406D01*
X130361996Y-76633469D01*
X130349576Y-76639343D01*
X130336640Y-76643972D01*
X130323313Y-76647310D01*
X130309722Y-76649326D01*
X130296000Y-76650000D01*
X129876000Y-76650000D01*
X129862278Y-76649326D01*
X129848687Y-76647310D01*
X129835360Y-76643972D01*
X129822424Y-76639343D01*
X129810004Y-76633469D01*
X129798220Y-76626406D01*
X129787185Y-76618221D01*
X129777005Y-76608995D01*
X129767779Y-76598815D01*
X129759594Y-76587780D01*
X129752531Y-76575996D01*
X129746657Y-76563576D01*
X129742028Y-76550640D01*
X129738690Y-76537313D01*
X129736674Y-76523722D01*
X129736000Y-76510000D01*
X129736000Y-75890000D01*
X129736674Y-75876278D01*
X129738690Y-75862687D01*
X129742028Y-75849360D01*
X129746657Y-75836424D01*
X129752531Y-75824004D01*
X129759594Y-75812220D01*
X129767779Y-75801185D01*
X129777005Y-75791005D01*
X129787185Y-75781779D01*
X129798220Y-75773594D01*
X129810004Y-75766531D01*
X129822424Y-75760657D01*
X129835360Y-75756028D01*
X129848687Y-75752690D01*
X129862278Y-75750674D01*
X129876000Y-75750000D01*
X130296000Y-75750000D01*
X130309722Y-75750674D01*
X130309722Y-75750674D01*
G37*
D12*
G04 #@! TD*
G04 #@! TO.P,U1,1*
G04 #@! TO.N,GND*
X130086000Y-76200000D03*
D10*
G04 #@! TO.N,PA06_ADC6*
G04 #@! TO.C,U1*
G36*
X129873643Y-77020867D02*
X129891116Y-77023459D01*
X129908251Y-77027751D01*
X129924883Y-77033702D01*
X129940851Y-77041254D01*
X129956003Y-77050335D01*
X129970191Y-77060858D01*
X129983279Y-77072721D01*
X129995142Y-77085809D01*
X130005665Y-77099997D01*
X130014746Y-77115149D01*
X130022298Y-77131117D01*
X130028249Y-77147749D01*
X130032541Y-77164884D01*
X130035133Y-77182357D01*
X130036000Y-77200000D01*
X130036000Y-77740000D01*
X130035133Y-77757643D01*
X130032541Y-77775116D01*
X130028249Y-77792251D01*
X130022298Y-77808883D01*
X130014746Y-77824851D01*
X130005665Y-77840003D01*
X129995142Y-77854191D01*
X129983279Y-77867279D01*
X129970191Y-77879142D01*
X129956003Y-77889665D01*
X129940851Y-77898746D01*
X129924883Y-77906298D01*
X129908251Y-77912249D01*
X129891116Y-77916541D01*
X129873643Y-77919133D01*
X129856000Y-77920000D01*
X129016000Y-77920000D01*
X128998357Y-77919133D01*
X128980884Y-77916541D01*
X128963749Y-77912249D01*
X128947117Y-77906298D01*
X128931149Y-77898746D01*
X128915997Y-77889665D01*
X128901809Y-77879142D01*
X128888721Y-77867279D01*
X128876858Y-77854191D01*
X128866335Y-77840003D01*
X128857254Y-77824851D01*
X128849702Y-77808883D01*
X128843751Y-77792251D01*
X128839459Y-77775116D01*
X128836867Y-77757643D01*
X128836000Y-77740000D01*
X128836000Y-77200000D01*
X128836867Y-77182357D01*
X128839459Y-77164884D01*
X128843751Y-77147749D01*
X128849702Y-77131117D01*
X128857254Y-77115149D01*
X128866335Y-77099997D01*
X128876858Y-77085809D01*
X128888721Y-77072721D01*
X128901809Y-77060858D01*
X128915997Y-77050335D01*
X128931149Y-77041254D01*
X128947117Y-77033702D01*
X128963749Y-77027751D01*
X128980884Y-77023459D01*
X128998357Y-77020867D01*
X129016000Y-77020000D01*
X129856000Y-77020000D01*
X129873643Y-77020867D01*
X129873643Y-77020867D01*
G37*
D11*
G04 #@! TD*
G04 #@! TO.P,U1,2*
G04 #@! TO.N,PA06_ADC6*
X129436000Y-77470000D03*
D10*
G04 #@! TO.N,PA27_GPIO*
G04 #@! TO.C,U1*
G36*
X129873643Y-78290867D02*
X129891116Y-78293459D01*
X129908251Y-78297751D01*
X129924883Y-78303702D01*
X129940851Y-78311254D01*
X129956003Y-78320335D01*
X129970191Y-78330858D01*
X129983279Y-78342721D01*
X129995142Y-78355809D01*
X130005665Y-78369997D01*
X130014746Y-78385149D01*
X130022298Y-78401117D01*
X130028249Y-78417749D01*
X130032541Y-78434884D01*
X130035133Y-78452357D01*
X130036000Y-78470000D01*
X130036000Y-79010000D01*
X130035133Y-79027643D01*
X130032541Y-79045116D01*
X130028249Y-79062251D01*
X130022298Y-79078883D01*
X130014746Y-79094851D01*
X130005665Y-79110003D01*
X129995142Y-79124191D01*
X129983279Y-79137279D01*
X129970191Y-79149142D01*
X129956003Y-79159665D01*
X129940851Y-79168746D01*
X129924883Y-79176298D01*
X129908251Y-79182249D01*
X129891116Y-79186541D01*
X129873643Y-79189133D01*
X129856000Y-79190000D01*
X129016000Y-79190000D01*
X128998357Y-79189133D01*
X128980884Y-79186541D01*
X128963749Y-79182249D01*
X128947117Y-79176298D01*
X128931149Y-79168746D01*
X128915997Y-79159665D01*
X128901809Y-79149142D01*
X128888721Y-79137279D01*
X128876858Y-79124191D01*
X128866335Y-79110003D01*
X128857254Y-79094851D01*
X128849702Y-79078883D01*
X128843751Y-79062251D01*
X128839459Y-79045116D01*
X128836867Y-79027643D01*
X128836000Y-79010000D01*
X128836000Y-78470000D01*
X128836867Y-78452357D01*
X128839459Y-78434884D01*
X128843751Y-78417749D01*
X128849702Y-78401117D01*
X128857254Y-78385149D01*
X128866335Y-78369997D01*
X128876858Y-78355809D01*
X128888721Y-78342721D01*
X128901809Y-78330858D01*
X128915997Y-78320335D01*
X128931149Y-78311254D01*
X128947117Y-78303702D01*
X128963749Y-78297751D01*
X128980884Y-78293459D01*
X128998357Y-78290867D01*
X129016000Y-78290000D01*
X129856000Y-78290000D01*
X129873643Y-78290867D01*
X129873643Y-78290867D01*
G37*
D11*
G04 #@! TD*
G04 #@! TO.P,U1,3*
G04 #@! TO.N,PA27_GPIO*
X129436000Y-78740000D03*
D10*
G04 #@! TO.N,PA07_ADC7*
G04 #@! TO.C,U1*
G36*
X129873643Y-79560867D02*
X129891116Y-79563459D01*
X129908251Y-79567751D01*
X129924883Y-79573702D01*
X129940851Y-79581254D01*
X129956003Y-79590335D01*
X129970191Y-79600858D01*
X129983279Y-79612721D01*
X129995142Y-79625809D01*
X130005665Y-79639997D01*
X130014746Y-79655149D01*
X130022298Y-79671117D01*
X130028249Y-79687749D01*
X130032541Y-79704884D01*
X130035133Y-79722357D01*
X130036000Y-79740000D01*
X130036000Y-80280000D01*
X130035133Y-80297643D01*
X130032541Y-80315116D01*
X130028249Y-80332251D01*
X130022298Y-80348883D01*
X130014746Y-80364851D01*
X130005665Y-80380003D01*
X129995142Y-80394191D01*
X129983279Y-80407279D01*
X129970191Y-80419142D01*
X129956003Y-80429665D01*
X129940851Y-80438746D01*
X129924883Y-80446298D01*
X129908251Y-80452249D01*
X129891116Y-80456541D01*
X129873643Y-80459133D01*
X129856000Y-80460000D01*
X129016000Y-80460000D01*
X128998357Y-80459133D01*
X128980884Y-80456541D01*
X128963749Y-80452249D01*
X128947117Y-80446298D01*
X128931149Y-80438746D01*
X128915997Y-80429665D01*
X128901809Y-80419142D01*
X128888721Y-80407279D01*
X128876858Y-80394191D01*
X128866335Y-80380003D01*
X128857254Y-80364851D01*
X128849702Y-80348883D01*
X128843751Y-80332251D01*
X128839459Y-80315116D01*
X128836867Y-80297643D01*
X128836000Y-80280000D01*
X128836000Y-79740000D01*
X128836867Y-79722357D01*
X128839459Y-79704884D01*
X128843751Y-79687749D01*
X128849702Y-79671117D01*
X128857254Y-79655149D01*
X128866335Y-79639997D01*
X128876858Y-79625809D01*
X128888721Y-79612721D01*
X128901809Y-79600858D01*
X128915997Y-79590335D01*
X128931149Y-79581254D01*
X128947117Y-79573702D01*
X128963749Y-79567751D01*
X128980884Y-79563459D01*
X128998357Y-79560867D01*
X129016000Y-79560000D01*
X129856000Y-79560000D01*
X129873643Y-79560867D01*
X129873643Y-79560867D01*
G37*
D11*
G04 #@! TD*
G04 #@! TO.P,U1,4*
G04 #@! TO.N,PA07_ADC7*
X129436000Y-80010000D03*
D10*
G04 #@! TO.N,PB22_S5_SPI_MOSI*
G04 #@! TO.C,U1*
G36*
X129873643Y-80830867D02*
X129891116Y-80833459D01*
X129908251Y-80837751D01*
X129924883Y-80843702D01*
X129940851Y-80851254D01*
X129956003Y-80860335D01*
X129970191Y-80870858D01*
X129983279Y-80882721D01*
X129995142Y-80895809D01*
X130005665Y-80909997D01*
X130014746Y-80925149D01*
X130022298Y-80941117D01*
X130028249Y-80957749D01*
X130032541Y-80974884D01*
X130035133Y-80992357D01*
X130036000Y-81010000D01*
X130036000Y-81550000D01*
X130035133Y-81567643D01*
X130032541Y-81585116D01*
X130028249Y-81602251D01*
X130022298Y-81618883D01*
X130014746Y-81634851D01*
X130005665Y-81650003D01*
X129995142Y-81664191D01*
X129983279Y-81677279D01*
X129970191Y-81689142D01*
X129956003Y-81699665D01*
X129940851Y-81708746D01*
X129924883Y-81716298D01*
X129908251Y-81722249D01*
X129891116Y-81726541D01*
X129873643Y-81729133D01*
X129856000Y-81730000D01*
X129016000Y-81730000D01*
X128998357Y-81729133D01*
X128980884Y-81726541D01*
X128963749Y-81722249D01*
X128947117Y-81716298D01*
X128931149Y-81708746D01*
X128915997Y-81699665D01*
X128901809Y-81689142D01*
X128888721Y-81677279D01*
X128876858Y-81664191D01*
X128866335Y-81650003D01*
X128857254Y-81634851D01*
X128849702Y-81618883D01*
X128843751Y-81602251D01*
X128839459Y-81585116D01*
X128836867Y-81567643D01*
X128836000Y-81550000D01*
X128836000Y-81010000D01*
X128836867Y-80992357D01*
X128839459Y-80974884D01*
X128843751Y-80957749D01*
X128849702Y-80941117D01*
X128857254Y-80925149D01*
X128866335Y-80909997D01*
X128876858Y-80895809D01*
X128888721Y-80882721D01*
X128901809Y-80870858D01*
X128915997Y-80860335D01*
X128931149Y-80851254D01*
X128947117Y-80843702D01*
X128963749Y-80837751D01*
X128980884Y-80833459D01*
X128998357Y-80830867D01*
X129016000Y-80830000D01*
X129856000Y-80830000D01*
X129873643Y-80830867D01*
X129873643Y-80830867D01*
G37*
D11*
G04 #@! TD*
G04 #@! TO.P,U1,5*
G04 #@! TO.N,PB22_S5_SPI_MOSI*
X129436000Y-81280000D03*
D10*
G04 #@! TO.N,PA08_GPIO*
G04 #@! TO.C,U1*
G36*
X129873643Y-82100867D02*
X129891116Y-82103459D01*
X129908251Y-82107751D01*
X129924883Y-82113702D01*
X129940851Y-82121254D01*
X129956003Y-82130335D01*
X129970191Y-82140858D01*
X129983279Y-82152721D01*
X129995142Y-82165809D01*
X130005665Y-82179997D01*
X130014746Y-82195149D01*
X130022298Y-82211117D01*
X130028249Y-82227749D01*
X130032541Y-82244884D01*
X130035133Y-82262357D01*
X130036000Y-82280000D01*
X130036000Y-82820000D01*
X130035133Y-82837643D01*
X130032541Y-82855116D01*
X130028249Y-82872251D01*
X130022298Y-82888883D01*
X130014746Y-82904851D01*
X130005665Y-82920003D01*
X129995142Y-82934191D01*
X129983279Y-82947279D01*
X129970191Y-82959142D01*
X129956003Y-82969665D01*
X129940851Y-82978746D01*
X129924883Y-82986298D01*
X129908251Y-82992249D01*
X129891116Y-82996541D01*
X129873643Y-82999133D01*
X129856000Y-83000000D01*
X129016000Y-83000000D01*
X128998357Y-82999133D01*
X128980884Y-82996541D01*
X128963749Y-82992249D01*
X128947117Y-82986298D01*
X128931149Y-82978746D01*
X128915997Y-82969665D01*
X128901809Y-82959142D01*
X128888721Y-82947279D01*
X128876858Y-82934191D01*
X128866335Y-82920003D01*
X128857254Y-82904851D01*
X128849702Y-82888883D01*
X128843751Y-82872251D01*
X128839459Y-82855116D01*
X128836867Y-82837643D01*
X128836000Y-82820000D01*
X128836000Y-82280000D01*
X128836867Y-82262357D01*
X128839459Y-82244884D01*
X128843751Y-82227749D01*
X128849702Y-82211117D01*
X128857254Y-82195149D01*
X128866335Y-82179997D01*
X128876858Y-82165809D01*
X128888721Y-82152721D01*
X128901809Y-82140858D01*
X128915997Y-82130335D01*
X128931149Y-82121254D01*
X128947117Y-82113702D01*
X128963749Y-82107751D01*
X128980884Y-82103459D01*
X128998357Y-82100867D01*
X129016000Y-82100000D01*
X129856000Y-82100000D01*
X129873643Y-82100867D01*
X129873643Y-82100867D01*
G37*
D11*
G04 #@! TD*
G04 #@! TO.P,U1,6*
G04 #@! TO.N,PA08_GPIO*
X129436000Y-82550000D03*
D10*
G04 #@! TO.N,PB23_S5_SPI_SCK*
G04 #@! TO.C,U1*
G36*
X129873643Y-83370867D02*
X129891116Y-83373459D01*
X129908251Y-83377751D01*
X129924883Y-83383702D01*
X129940851Y-83391254D01*
X129956003Y-83400335D01*
X129970191Y-83410858D01*
X129983279Y-83422721D01*
X129995142Y-83435809D01*
X130005665Y-83449997D01*
X130014746Y-83465149D01*
X130022298Y-83481117D01*
X130028249Y-83497749D01*
X130032541Y-83514884D01*
X130035133Y-83532357D01*
X130036000Y-83550000D01*
X130036000Y-84090000D01*
X130035133Y-84107643D01*
X130032541Y-84125116D01*
X130028249Y-84142251D01*
X130022298Y-84158883D01*
X130014746Y-84174851D01*
X130005665Y-84190003D01*
X129995142Y-84204191D01*
X129983279Y-84217279D01*
X129970191Y-84229142D01*
X129956003Y-84239665D01*
X129940851Y-84248746D01*
X129924883Y-84256298D01*
X129908251Y-84262249D01*
X129891116Y-84266541D01*
X129873643Y-84269133D01*
X129856000Y-84270000D01*
X129016000Y-84270000D01*
X128998357Y-84269133D01*
X128980884Y-84266541D01*
X128963749Y-84262249D01*
X128947117Y-84256298D01*
X128931149Y-84248746D01*
X128915997Y-84239665D01*
X128901809Y-84229142D01*
X128888721Y-84217279D01*
X128876858Y-84204191D01*
X128866335Y-84190003D01*
X128857254Y-84174851D01*
X128849702Y-84158883D01*
X128843751Y-84142251D01*
X128839459Y-84125116D01*
X128836867Y-84107643D01*
X128836000Y-84090000D01*
X128836000Y-83550000D01*
X128836867Y-83532357D01*
X128839459Y-83514884D01*
X128843751Y-83497749D01*
X128849702Y-83481117D01*
X128857254Y-83465149D01*
X128866335Y-83449997D01*
X128876858Y-83435809D01*
X128888721Y-83422721D01*
X128901809Y-83410858D01*
X128915997Y-83400335D01*
X128931149Y-83391254D01*
X128947117Y-83383702D01*
X128963749Y-83377751D01*
X128980884Y-83373459D01*
X128998357Y-83370867D01*
X129016000Y-83370000D01*
X129856000Y-83370000D01*
X129873643Y-83370867D01*
X129873643Y-83370867D01*
G37*
D11*
G04 #@! TD*
G04 #@! TO.P,U1,7*
G04 #@! TO.N,PB23_S5_SPI_SCK*
X129436000Y-83820000D03*
D10*
G04 #@! TO.N,PA17_S1_I2C_SCL*
G04 #@! TO.C,U1*
G36*
X129873643Y-84640867D02*
X129891116Y-84643459D01*
X129908251Y-84647751D01*
X129924883Y-84653702D01*
X129940851Y-84661254D01*
X129956003Y-84670335D01*
X129970191Y-84680858D01*
X129983279Y-84692721D01*
X129995142Y-84705809D01*
X130005665Y-84719997D01*
X130014746Y-84735149D01*
X130022298Y-84751117D01*
X130028249Y-84767749D01*
X130032541Y-84784884D01*
X130035133Y-84802357D01*
X130036000Y-84820000D01*
X130036000Y-85360000D01*
X130035133Y-85377643D01*
X130032541Y-85395116D01*
X130028249Y-85412251D01*
X130022298Y-85428883D01*
X130014746Y-85444851D01*
X130005665Y-85460003D01*
X129995142Y-85474191D01*
X129983279Y-85487279D01*
X129970191Y-85499142D01*
X129956003Y-85509665D01*
X129940851Y-85518746D01*
X129924883Y-85526298D01*
X129908251Y-85532249D01*
X129891116Y-85536541D01*
X129873643Y-85539133D01*
X129856000Y-85540000D01*
X129016000Y-85540000D01*
X128998357Y-85539133D01*
X128980884Y-85536541D01*
X128963749Y-85532249D01*
X128947117Y-85526298D01*
X128931149Y-85518746D01*
X128915997Y-85509665D01*
X128901809Y-85499142D01*
X128888721Y-85487279D01*
X128876858Y-85474191D01*
X128866335Y-85460003D01*
X128857254Y-85444851D01*
X128849702Y-85428883D01*
X128843751Y-85412251D01*
X128839459Y-85395116D01*
X128836867Y-85377643D01*
X128836000Y-85360000D01*
X128836000Y-84820000D01*
X128836867Y-84802357D01*
X128839459Y-84784884D01*
X128843751Y-84767749D01*
X128849702Y-84751117D01*
X128857254Y-84735149D01*
X128866335Y-84719997D01*
X128876858Y-84705809D01*
X128888721Y-84692721D01*
X128901809Y-84680858D01*
X128915997Y-84670335D01*
X128931149Y-84661254D01*
X128947117Y-84653702D01*
X128963749Y-84647751D01*
X128980884Y-84643459D01*
X128998357Y-84640867D01*
X129016000Y-84640000D01*
X129856000Y-84640000D01*
X129873643Y-84640867D01*
X129873643Y-84640867D01*
G37*
D11*
G04 #@! TD*
G04 #@! TO.P,U1,8*
G04 #@! TO.N,PA17_S1_I2C_SCL*
X129436000Y-85090000D03*
D10*
G04 #@! TO.N,PA16_S1_I2C_SDA*
G04 #@! TO.C,U1*
G36*
X129873643Y-85910867D02*
X129891116Y-85913459D01*
X129908251Y-85917751D01*
X129924883Y-85923702D01*
X129940851Y-85931254D01*
X129956003Y-85940335D01*
X129970191Y-85950858D01*
X129983279Y-85962721D01*
X129995142Y-85975809D01*
X130005665Y-85989997D01*
X130014746Y-86005149D01*
X130022298Y-86021117D01*
X130028249Y-86037749D01*
X130032541Y-86054884D01*
X130035133Y-86072357D01*
X130036000Y-86090000D01*
X130036000Y-86630000D01*
X130035133Y-86647643D01*
X130032541Y-86665116D01*
X130028249Y-86682251D01*
X130022298Y-86698883D01*
X130014746Y-86714851D01*
X130005665Y-86730003D01*
X129995142Y-86744191D01*
X129983279Y-86757279D01*
X129970191Y-86769142D01*
X129956003Y-86779665D01*
X129940851Y-86788746D01*
X129924883Y-86796298D01*
X129908251Y-86802249D01*
X129891116Y-86806541D01*
X129873643Y-86809133D01*
X129856000Y-86810000D01*
X129016000Y-86810000D01*
X128998357Y-86809133D01*
X128980884Y-86806541D01*
X128963749Y-86802249D01*
X128947117Y-86796298D01*
X128931149Y-86788746D01*
X128915997Y-86779665D01*
X128901809Y-86769142D01*
X128888721Y-86757279D01*
X128876858Y-86744191D01*
X128866335Y-86730003D01*
X128857254Y-86714851D01*
X128849702Y-86698883D01*
X128843751Y-86682251D01*
X128839459Y-86665116D01*
X128836867Y-86647643D01*
X128836000Y-86630000D01*
X128836000Y-86090000D01*
X128836867Y-86072357D01*
X128839459Y-86054884D01*
X128843751Y-86037749D01*
X128849702Y-86021117D01*
X128857254Y-86005149D01*
X128866335Y-85989997D01*
X128876858Y-85975809D01*
X128888721Y-85962721D01*
X128901809Y-85950858D01*
X128915997Y-85940335D01*
X128931149Y-85931254D01*
X128947117Y-85923702D01*
X128963749Y-85917751D01*
X128980884Y-85913459D01*
X128998357Y-85910867D01*
X129016000Y-85910000D01*
X129856000Y-85910000D01*
X129873643Y-85910867D01*
X129873643Y-85910867D01*
G37*
D11*
G04 #@! TD*
G04 #@! TO.P,U1,9*
G04 #@! TO.N,PA16_S1_I2C_SDA*
X129436000Y-86360000D03*
D10*
G04 #@! TO.N,PA18_PWM_T0_W2*
G04 #@! TO.C,U1*
G36*
X129873643Y-87180867D02*
X129891116Y-87183459D01*
X129908251Y-87187751D01*
X129924883Y-87193702D01*
X129940851Y-87201254D01*
X129956003Y-87210335D01*
X129970191Y-87220858D01*
X129983279Y-87232721D01*
X129995142Y-87245809D01*
X130005665Y-87259997D01*
X130014746Y-87275149D01*
X130022298Y-87291117D01*
X130028249Y-87307749D01*
X130032541Y-87324884D01*
X130035133Y-87342357D01*
X130036000Y-87360000D01*
X130036000Y-87900000D01*
X130035133Y-87917643D01*
X130032541Y-87935116D01*
X130028249Y-87952251D01*
X130022298Y-87968883D01*
X130014746Y-87984851D01*
X130005665Y-88000003D01*
X129995142Y-88014191D01*
X129983279Y-88027279D01*
X129970191Y-88039142D01*
X129956003Y-88049665D01*
X129940851Y-88058746D01*
X129924883Y-88066298D01*
X129908251Y-88072249D01*
X129891116Y-88076541D01*
X129873643Y-88079133D01*
X129856000Y-88080000D01*
X129016000Y-88080000D01*
X128998357Y-88079133D01*
X128980884Y-88076541D01*
X128963749Y-88072249D01*
X128947117Y-88066298D01*
X128931149Y-88058746D01*
X128915997Y-88049665D01*
X128901809Y-88039142D01*
X128888721Y-88027279D01*
X128876858Y-88014191D01*
X128866335Y-88000003D01*
X128857254Y-87984851D01*
X128849702Y-87968883D01*
X128843751Y-87952251D01*
X128839459Y-87935116D01*
X128836867Y-87917643D01*
X128836000Y-87900000D01*
X128836000Y-87360000D01*
X128836867Y-87342357D01*
X128839459Y-87324884D01*
X128843751Y-87307749D01*
X128849702Y-87291117D01*
X128857254Y-87275149D01*
X128866335Y-87259997D01*
X128876858Y-87245809D01*
X128888721Y-87232721D01*
X128901809Y-87220858D01*
X128915997Y-87210335D01*
X128931149Y-87201254D01*
X128947117Y-87193702D01*
X128963749Y-87187751D01*
X128980884Y-87183459D01*
X128998357Y-87180867D01*
X129016000Y-87180000D01*
X129856000Y-87180000D01*
X129873643Y-87180867D01*
X129873643Y-87180867D01*
G37*
D11*
G04 #@! TD*
G04 #@! TO.P,U1,10*
G04 #@! TO.N,PA18_PWM_T0_W2*
X129436000Y-87630000D03*
D10*
G04 #@! TO.N,PA06_ADC6*
G04 #@! TO.C,U1*
G36*
X130309722Y-77020674D02*
X130323313Y-77022690D01*
X130336640Y-77026028D01*
X130349576Y-77030657D01*
X130361996Y-77036531D01*
X130373780Y-77043594D01*
X130384815Y-77051779D01*
X130394995Y-77061005D01*
X130404221Y-77071185D01*
X130412406Y-77082220D01*
X130419469Y-77094004D01*
X130425343Y-77106424D01*
X130429972Y-77119360D01*
X130433310Y-77132687D01*
X130435326Y-77146278D01*
X130436000Y-77160000D01*
X130436000Y-77780000D01*
X130435326Y-77793722D01*
X130433310Y-77807313D01*
X130429972Y-77820640D01*
X130425343Y-77833576D01*
X130419469Y-77845996D01*
X130412406Y-77857780D01*
X130404221Y-77868815D01*
X130394995Y-77878995D01*
X130384815Y-77888221D01*
X130373780Y-77896406D01*
X130361996Y-77903469D01*
X130349576Y-77909343D01*
X130336640Y-77913972D01*
X130323313Y-77917310D01*
X130309722Y-77919326D01*
X130296000Y-77920000D01*
X129876000Y-77920000D01*
X129862278Y-77919326D01*
X129848687Y-77917310D01*
X129835360Y-77913972D01*
X129822424Y-77909343D01*
X129810004Y-77903469D01*
X129798220Y-77896406D01*
X129787185Y-77888221D01*
X129777005Y-77878995D01*
X129767779Y-77868815D01*
X129759594Y-77857780D01*
X129752531Y-77845996D01*
X129746657Y-77833576D01*
X129742028Y-77820640D01*
X129738690Y-77807313D01*
X129736674Y-77793722D01*
X129736000Y-77780000D01*
X129736000Y-77160000D01*
X129736674Y-77146278D01*
X129738690Y-77132687D01*
X129742028Y-77119360D01*
X129746657Y-77106424D01*
X129752531Y-77094004D01*
X129759594Y-77082220D01*
X129767779Y-77071185D01*
X129777005Y-77061005D01*
X129787185Y-77051779D01*
X129798220Y-77043594D01*
X129810004Y-77036531D01*
X129822424Y-77030657D01*
X129835360Y-77026028D01*
X129848687Y-77022690D01*
X129862278Y-77020674D01*
X129876000Y-77020000D01*
X130296000Y-77020000D01*
X130309722Y-77020674D01*
X130309722Y-77020674D01*
G37*
D12*
G04 #@! TD*
G04 #@! TO.P,U1,2*
G04 #@! TO.N,PA06_ADC6*
X130086000Y-77470000D03*
D10*
G04 #@! TO.N,PA27_GPIO*
G04 #@! TO.C,U1*
G36*
X130309722Y-78290674D02*
X130323313Y-78292690D01*
X130336640Y-78296028D01*
X130349576Y-78300657D01*
X130361996Y-78306531D01*
X130373780Y-78313594D01*
X130384815Y-78321779D01*
X130394995Y-78331005D01*
X130404221Y-78341185D01*
X130412406Y-78352220D01*
X130419469Y-78364004D01*
X130425343Y-78376424D01*
X130429972Y-78389360D01*
X130433310Y-78402687D01*
X130435326Y-78416278D01*
X130436000Y-78430000D01*
X130436000Y-79050000D01*
X130435326Y-79063722D01*
X130433310Y-79077313D01*
X130429972Y-79090640D01*
X130425343Y-79103576D01*
X130419469Y-79115996D01*
X130412406Y-79127780D01*
X130404221Y-79138815D01*
X130394995Y-79148995D01*
X130384815Y-79158221D01*
X130373780Y-79166406D01*
X130361996Y-79173469D01*
X130349576Y-79179343D01*
X130336640Y-79183972D01*
X130323313Y-79187310D01*
X130309722Y-79189326D01*
X130296000Y-79190000D01*
X129876000Y-79190000D01*
X129862278Y-79189326D01*
X129848687Y-79187310D01*
X129835360Y-79183972D01*
X129822424Y-79179343D01*
X129810004Y-79173469D01*
X129798220Y-79166406D01*
X129787185Y-79158221D01*
X129777005Y-79148995D01*
X129767779Y-79138815D01*
X129759594Y-79127780D01*
X129752531Y-79115996D01*
X129746657Y-79103576D01*
X129742028Y-79090640D01*
X129738690Y-79077313D01*
X129736674Y-79063722D01*
X129736000Y-79050000D01*
X129736000Y-78430000D01*
X129736674Y-78416278D01*
X129738690Y-78402687D01*
X129742028Y-78389360D01*
X129746657Y-78376424D01*
X129752531Y-78364004D01*
X129759594Y-78352220D01*
X129767779Y-78341185D01*
X129777005Y-78331005D01*
X129787185Y-78321779D01*
X129798220Y-78313594D01*
X129810004Y-78306531D01*
X129822424Y-78300657D01*
X129835360Y-78296028D01*
X129848687Y-78292690D01*
X129862278Y-78290674D01*
X129876000Y-78290000D01*
X130296000Y-78290000D01*
X130309722Y-78290674D01*
X130309722Y-78290674D01*
G37*
D12*
G04 #@! TD*
G04 #@! TO.P,U1,3*
G04 #@! TO.N,PA27_GPIO*
X130086000Y-78740000D03*
D10*
G04 #@! TO.N,PA07_ADC7*
G04 #@! TO.C,U1*
G36*
X130309722Y-79560674D02*
X130323313Y-79562690D01*
X130336640Y-79566028D01*
X130349576Y-79570657D01*
X130361996Y-79576531D01*
X130373780Y-79583594D01*
X130384815Y-79591779D01*
X130394995Y-79601005D01*
X130404221Y-79611185D01*
X130412406Y-79622220D01*
X130419469Y-79634004D01*
X130425343Y-79646424D01*
X130429972Y-79659360D01*
X130433310Y-79672687D01*
X130435326Y-79686278D01*
X130436000Y-79700000D01*
X130436000Y-80320000D01*
X130435326Y-80333722D01*
X130433310Y-80347313D01*
X130429972Y-80360640D01*
X130425343Y-80373576D01*
X130419469Y-80385996D01*
X130412406Y-80397780D01*
X130404221Y-80408815D01*
X130394995Y-80418995D01*
X130384815Y-80428221D01*
X130373780Y-80436406D01*
X130361996Y-80443469D01*
X130349576Y-80449343D01*
X130336640Y-80453972D01*
X130323313Y-80457310D01*
X130309722Y-80459326D01*
X130296000Y-80460000D01*
X129876000Y-80460000D01*
X129862278Y-80459326D01*
X129848687Y-80457310D01*
X129835360Y-80453972D01*
X129822424Y-80449343D01*
X129810004Y-80443469D01*
X129798220Y-80436406D01*
X129787185Y-80428221D01*
X129777005Y-80418995D01*
X129767779Y-80408815D01*
X129759594Y-80397780D01*
X129752531Y-80385996D01*
X129746657Y-80373576D01*
X129742028Y-80360640D01*
X129738690Y-80347313D01*
X129736674Y-80333722D01*
X129736000Y-80320000D01*
X129736000Y-79700000D01*
X129736674Y-79686278D01*
X129738690Y-79672687D01*
X129742028Y-79659360D01*
X129746657Y-79646424D01*
X129752531Y-79634004D01*
X129759594Y-79622220D01*
X129767779Y-79611185D01*
X129777005Y-79601005D01*
X129787185Y-79591779D01*
X129798220Y-79583594D01*
X129810004Y-79576531D01*
X129822424Y-79570657D01*
X129835360Y-79566028D01*
X129848687Y-79562690D01*
X129862278Y-79560674D01*
X129876000Y-79560000D01*
X130296000Y-79560000D01*
X130309722Y-79560674D01*
X130309722Y-79560674D01*
G37*
D12*
G04 #@! TD*
G04 #@! TO.P,U1,4*
G04 #@! TO.N,PA07_ADC7*
X130086000Y-80010000D03*
D10*
G04 #@! TO.N,PB22_S5_SPI_MOSI*
G04 #@! TO.C,U1*
G36*
X130309722Y-80830674D02*
X130323313Y-80832690D01*
X130336640Y-80836028D01*
X130349576Y-80840657D01*
X130361996Y-80846531D01*
X130373780Y-80853594D01*
X130384815Y-80861779D01*
X130394995Y-80871005D01*
X130404221Y-80881185D01*
X130412406Y-80892220D01*
X130419469Y-80904004D01*
X130425343Y-80916424D01*
X130429972Y-80929360D01*
X130433310Y-80942687D01*
X130435326Y-80956278D01*
X130436000Y-80970000D01*
X130436000Y-81590000D01*
X130435326Y-81603722D01*
X130433310Y-81617313D01*
X130429972Y-81630640D01*
X130425343Y-81643576D01*
X130419469Y-81655996D01*
X130412406Y-81667780D01*
X130404221Y-81678815D01*
X130394995Y-81688995D01*
X130384815Y-81698221D01*
X130373780Y-81706406D01*
X130361996Y-81713469D01*
X130349576Y-81719343D01*
X130336640Y-81723972D01*
X130323313Y-81727310D01*
X130309722Y-81729326D01*
X130296000Y-81730000D01*
X129876000Y-81730000D01*
X129862278Y-81729326D01*
X129848687Y-81727310D01*
X129835360Y-81723972D01*
X129822424Y-81719343D01*
X129810004Y-81713469D01*
X129798220Y-81706406D01*
X129787185Y-81698221D01*
X129777005Y-81688995D01*
X129767779Y-81678815D01*
X129759594Y-81667780D01*
X129752531Y-81655996D01*
X129746657Y-81643576D01*
X129742028Y-81630640D01*
X129738690Y-81617313D01*
X129736674Y-81603722D01*
X129736000Y-81590000D01*
X129736000Y-80970000D01*
X129736674Y-80956278D01*
X129738690Y-80942687D01*
X129742028Y-80929360D01*
X129746657Y-80916424D01*
X129752531Y-80904004D01*
X129759594Y-80892220D01*
X129767779Y-80881185D01*
X129777005Y-80871005D01*
X129787185Y-80861779D01*
X129798220Y-80853594D01*
X129810004Y-80846531D01*
X129822424Y-80840657D01*
X129835360Y-80836028D01*
X129848687Y-80832690D01*
X129862278Y-80830674D01*
X129876000Y-80830000D01*
X130296000Y-80830000D01*
X130309722Y-80830674D01*
X130309722Y-80830674D01*
G37*
D12*
G04 #@! TD*
G04 #@! TO.P,U1,5*
G04 #@! TO.N,PB22_S5_SPI_MOSI*
X130086000Y-81280000D03*
D10*
G04 #@! TO.N,PA08_GPIO*
G04 #@! TO.C,U1*
G36*
X130309722Y-82100674D02*
X130323313Y-82102690D01*
X130336640Y-82106028D01*
X130349576Y-82110657D01*
X130361996Y-82116531D01*
X130373780Y-82123594D01*
X130384815Y-82131779D01*
X130394995Y-82141005D01*
X130404221Y-82151185D01*
X130412406Y-82162220D01*
X130419469Y-82174004D01*
X130425343Y-82186424D01*
X130429972Y-82199360D01*
X130433310Y-82212687D01*
X130435326Y-82226278D01*
X130436000Y-82240000D01*
X130436000Y-82860000D01*
X130435326Y-82873722D01*
X130433310Y-82887313D01*
X130429972Y-82900640D01*
X130425343Y-82913576D01*
X130419469Y-82925996D01*
X130412406Y-82937780D01*
X130404221Y-82948815D01*
X130394995Y-82958995D01*
X130384815Y-82968221D01*
X130373780Y-82976406D01*
X130361996Y-82983469D01*
X130349576Y-82989343D01*
X130336640Y-82993972D01*
X130323313Y-82997310D01*
X130309722Y-82999326D01*
X130296000Y-83000000D01*
X129876000Y-83000000D01*
X129862278Y-82999326D01*
X129848687Y-82997310D01*
X129835360Y-82993972D01*
X129822424Y-82989343D01*
X129810004Y-82983469D01*
X129798220Y-82976406D01*
X129787185Y-82968221D01*
X129777005Y-82958995D01*
X129767779Y-82948815D01*
X129759594Y-82937780D01*
X129752531Y-82925996D01*
X129746657Y-82913576D01*
X129742028Y-82900640D01*
X129738690Y-82887313D01*
X129736674Y-82873722D01*
X129736000Y-82860000D01*
X129736000Y-82240000D01*
X129736674Y-82226278D01*
X129738690Y-82212687D01*
X129742028Y-82199360D01*
X129746657Y-82186424D01*
X129752531Y-82174004D01*
X129759594Y-82162220D01*
X129767779Y-82151185D01*
X129777005Y-82141005D01*
X129787185Y-82131779D01*
X129798220Y-82123594D01*
X129810004Y-82116531D01*
X129822424Y-82110657D01*
X129835360Y-82106028D01*
X129848687Y-82102690D01*
X129862278Y-82100674D01*
X129876000Y-82100000D01*
X130296000Y-82100000D01*
X130309722Y-82100674D01*
X130309722Y-82100674D01*
G37*
D12*
G04 #@! TD*
G04 #@! TO.P,U1,6*
G04 #@! TO.N,PA08_GPIO*
X130086000Y-82550000D03*
D10*
G04 #@! TO.N,PB23_S5_SPI_SCK*
G04 #@! TO.C,U1*
G36*
X130309722Y-83370674D02*
X130323313Y-83372690D01*
X130336640Y-83376028D01*
X130349576Y-83380657D01*
X130361996Y-83386531D01*
X130373780Y-83393594D01*
X130384815Y-83401779D01*
X130394995Y-83411005D01*
X130404221Y-83421185D01*
X130412406Y-83432220D01*
X130419469Y-83444004D01*
X130425343Y-83456424D01*
X130429972Y-83469360D01*
X130433310Y-83482687D01*
X130435326Y-83496278D01*
X130436000Y-83510000D01*
X130436000Y-84130000D01*
X130435326Y-84143722D01*
X130433310Y-84157313D01*
X130429972Y-84170640D01*
X130425343Y-84183576D01*
X130419469Y-84195996D01*
X130412406Y-84207780D01*
X130404221Y-84218815D01*
X130394995Y-84228995D01*
X130384815Y-84238221D01*
X130373780Y-84246406D01*
X130361996Y-84253469D01*
X130349576Y-84259343D01*
X130336640Y-84263972D01*
X130323313Y-84267310D01*
X130309722Y-84269326D01*
X130296000Y-84270000D01*
X129876000Y-84270000D01*
X129862278Y-84269326D01*
X129848687Y-84267310D01*
X129835360Y-84263972D01*
X129822424Y-84259343D01*
X129810004Y-84253469D01*
X129798220Y-84246406D01*
X129787185Y-84238221D01*
X129777005Y-84228995D01*
X129767779Y-84218815D01*
X129759594Y-84207780D01*
X129752531Y-84195996D01*
X129746657Y-84183576D01*
X129742028Y-84170640D01*
X129738690Y-84157313D01*
X129736674Y-84143722D01*
X129736000Y-84130000D01*
X129736000Y-83510000D01*
X129736674Y-83496278D01*
X129738690Y-83482687D01*
X129742028Y-83469360D01*
X129746657Y-83456424D01*
X129752531Y-83444004D01*
X129759594Y-83432220D01*
X129767779Y-83421185D01*
X129777005Y-83411005D01*
X129787185Y-83401779D01*
X129798220Y-83393594D01*
X129810004Y-83386531D01*
X129822424Y-83380657D01*
X129835360Y-83376028D01*
X129848687Y-83372690D01*
X129862278Y-83370674D01*
X129876000Y-83370000D01*
X130296000Y-83370000D01*
X130309722Y-83370674D01*
X130309722Y-83370674D01*
G37*
D12*
G04 #@! TD*
G04 #@! TO.P,U1,7*
G04 #@! TO.N,PB23_S5_SPI_SCK*
X130086000Y-83820000D03*
D10*
G04 #@! TO.N,PA17_S1_I2C_SCL*
G04 #@! TO.C,U1*
G36*
X130309722Y-84640674D02*
X130323313Y-84642690D01*
X130336640Y-84646028D01*
X130349576Y-84650657D01*
X130361996Y-84656531D01*
X130373780Y-84663594D01*
X130384815Y-84671779D01*
X130394995Y-84681005D01*
X130404221Y-84691185D01*
X130412406Y-84702220D01*
X130419469Y-84714004D01*
X130425343Y-84726424D01*
X130429972Y-84739360D01*
X130433310Y-84752687D01*
X130435326Y-84766278D01*
X130436000Y-84780000D01*
X130436000Y-85400000D01*
X130435326Y-85413722D01*
X130433310Y-85427313D01*
X130429972Y-85440640D01*
X130425343Y-85453576D01*
X130419469Y-85465996D01*
X130412406Y-85477780D01*
X130404221Y-85488815D01*
X130394995Y-85498995D01*
X130384815Y-85508221D01*
X130373780Y-85516406D01*
X130361996Y-85523469D01*
X130349576Y-85529343D01*
X130336640Y-85533972D01*
X130323313Y-85537310D01*
X130309722Y-85539326D01*
X130296000Y-85540000D01*
X129876000Y-85540000D01*
X129862278Y-85539326D01*
X129848687Y-85537310D01*
X129835360Y-85533972D01*
X129822424Y-85529343D01*
X129810004Y-85523469D01*
X129798220Y-85516406D01*
X129787185Y-85508221D01*
X129777005Y-85498995D01*
X129767779Y-85488815D01*
X129759594Y-85477780D01*
X129752531Y-85465996D01*
X129746657Y-85453576D01*
X129742028Y-85440640D01*
X129738690Y-85427313D01*
X129736674Y-85413722D01*
X129736000Y-85400000D01*
X129736000Y-84780000D01*
X129736674Y-84766278D01*
X129738690Y-84752687D01*
X129742028Y-84739360D01*
X129746657Y-84726424D01*
X129752531Y-84714004D01*
X129759594Y-84702220D01*
X129767779Y-84691185D01*
X129777005Y-84681005D01*
X129787185Y-84671779D01*
X129798220Y-84663594D01*
X129810004Y-84656531D01*
X129822424Y-84650657D01*
X129835360Y-84646028D01*
X129848687Y-84642690D01*
X129862278Y-84640674D01*
X129876000Y-84640000D01*
X130296000Y-84640000D01*
X130309722Y-84640674D01*
X130309722Y-84640674D01*
G37*
D12*
G04 #@! TD*
G04 #@! TO.P,U1,8*
G04 #@! TO.N,PA17_S1_I2C_SCL*
X130086000Y-85090000D03*
D10*
G04 #@! TO.N,PA16_S1_I2C_SDA*
G04 #@! TO.C,U1*
G36*
X130309722Y-85910674D02*
X130323313Y-85912690D01*
X130336640Y-85916028D01*
X130349576Y-85920657D01*
X130361996Y-85926531D01*
X130373780Y-85933594D01*
X130384815Y-85941779D01*
X130394995Y-85951005D01*
X130404221Y-85961185D01*
X130412406Y-85972220D01*
X130419469Y-85984004D01*
X130425343Y-85996424D01*
X130429972Y-86009360D01*
X130433310Y-86022687D01*
X130435326Y-86036278D01*
X130436000Y-86050000D01*
X130436000Y-86670000D01*
X130435326Y-86683722D01*
X130433310Y-86697313D01*
X130429972Y-86710640D01*
X130425343Y-86723576D01*
X130419469Y-86735996D01*
X130412406Y-86747780D01*
X130404221Y-86758815D01*
X130394995Y-86768995D01*
X130384815Y-86778221D01*
X130373780Y-86786406D01*
X130361996Y-86793469D01*
X130349576Y-86799343D01*
X130336640Y-86803972D01*
X130323313Y-86807310D01*
X130309722Y-86809326D01*
X130296000Y-86810000D01*
X129876000Y-86810000D01*
X129862278Y-86809326D01*
X129848687Y-86807310D01*
X129835360Y-86803972D01*
X129822424Y-86799343D01*
X129810004Y-86793469D01*
X129798220Y-86786406D01*
X129787185Y-86778221D01*
X129777005Y-86768995D01*
X129767779Y-86758815D01*
X129759594Y-86747780D01*
X129752531Y-86735996D01*
X129746657Y-86723576D01*
X129742028Y-86710640D01*
X129738690Y-86697313D01*
X129736674Y-86683722D01*
X129736000Y-86670000D01*
X129736000Y-86050000D01*
X129736674Y-86036278D01*
X129738690Y-86022687D01*
X129742028Y-86009360D01*
X129746657Y-85996424D01*
X129752531Y-85984004D01*
X129759594Y-85972220D01*
X129767779Y-85961185D01*
X129777005Y-85951005D01*
X129787185Y-85941779D01*
X129798220Y-85933594D01*
X129810004Y-85926531D01*
X129822424Y-85920657D01*
X129835360Y-85916028D01*
X129848687Y-85912690D01*
X129862278Y-85910674D01*
X129876000Y-85910000D01*
X130296000Y-85910000D01*
X130309722Y-85910674D01*
X130309722Y-85910674D01*
G37*
D12*
G04 #@! TD*
G04 #@! TO.P,U1,9*
G04 #@! TO.N,PA16_S1_I2C_SDA*
X130086000Y-86360000D03*
D10*
G04 #@! TO.N,PA18_PWM_T0_W2*
G04 #@! TO.C,U1*
G36*
X130309722Y-87180674D02*
X130323313Y-87182690D01*
X130336640Y-87186028D01*
X130349576Y-87190657D01*
X130361996Y-87196531D01*
X130373780Y-87203594D01*
X130384815Y-87211779D01*
X130394995Y-87221005D01*
X130404221Y-87231185D01*
X130412406Y-87242220D01*
X130419469Y-87254004D01*
X130425343Y-87266424D01*
X130429972Y-87279360D01*
X130433310Y-87292687D01*
X130435326Y-87306278D01*
X130436000Y-87320000D01*
X130436000Y-87940000D01*
X130435326Y-87953722D01*
X130433310Y-87967313D01*
X130429972Y-87980640D01*
X130425343Y-87993576D01*
X130419469Y-88005996D01*
X130412406Y-88017780D01*
X130404221Y-88028815D01*
X130394995Y-88038995D01*
X130384815Y-88048221D01*
X130373780Y-88056406D01*
X130361996Y-88063469D01*
X130349576Y-88069343D01*
X130336640Y-88073972D01*
X130323313Y-88077310D01*
X130309722Y-88079326D01*
X130296000Y-88080000D01*
X129876000Y-88080000D01*
X129862278Y-88079326D01*
X129848687Y-88077310D01*
X129835360Y-88073972D01*
X129822424Y-88069343D01*
X129810004Y-88063469D01*
X129798220Y-88056406D01*
X129787185Y-88048221D01*
X129777005Y-88038995D01*
X129767779Y-88028815D01*
X129759594Y-88017780D01*
X129752531Y-88005996D01*
X129746657Y-87993576D01*
X129742028Y-87980640D01*
X129738690Y-87967313D01*
X129736674Y-87953722D01*
X129736000Y-87940000D01*
X129736000Y-87320000D01*
X129736674Y-87306278D01*
X129738690Y-87292687D01*
X129742028Y-87279360D01*
X129746657Y-87266424D01*
X129752531Y-87254004D01*
X129759594Y-87242220D01*
X129767779Y-87231185D01*
X129777005Y-87221005D01*
X129787185Y-87211779D01*
X129798220Y-87203594D01*
X129810004Y-87196531D01*
X129822424Y-87190657D01*
X129835360Y-87186028D01*
X129848687Y-87182690D01*
X129862278Y-87180674D01*
X129876000Y-87180000D01*
X130296000Y-87180000D01*
X130309722Y-87180674D01*
X130309722Y-87180674D01*
G37*
D12*
G04 #@! TD*
G04 #@! TO.P,U1,10*
G04 #@! TO.N,PA18_PWM_T0_W2*
X130086000Y-87630000D03*
D10*
G04 #@! TO.N,GND*
G04 #@! TO.C,U1*
G36*
X143543643Y-75750867D02*
X143561116Y-75753459D01*
X143578251Y-75757751D01*
X143594883Y-75763702D01*
X143610851Y-75771254D01*
X143626003Y-75780335D01*
X143640191Y-75790858D01*
X143653279Y-75802721D01*
X143665142Y-75815809D01*
X143675665Y-75829997D01*
X143684746Y-75845149D01*
X143692298Y-75861117D01*
X143698249Y-75877749D01*
X143702541Y-75894884D01*
X143705133Y-75912357D01*
X143706000Y-75930000D01*
X143706000Y-76470000D01*
X143705133Y-76487643D01*
X143702541Y-76505116D01*
X143698249Y-76522251D01*
X143692298Y-76538883D01*
X143684746Y-76554851D01*
X143675665Y-76570003D01*
X143665142Y-76584191D01*
X143653279Y-76597279D01*
X143640191Y-76609142D01*
X143626003Y-76619665D01*
X143610851Y-76628746D01*
X143594883Y-76636298D01*
X143578251Y-76642249D01*
X143561116Y-76646541D01*
X143543643Y-76649133D01*
X143526000Y-76650000D01*
X142686000Y-76650000D01*
X142668357Y-76649133D01*
X142650884Y-76646541D01*
X142633749Y-76642249D01*
X142617117Y-76636298D01*
X142601149Y-76628746D01*
X142585997Y-76619665D01*
X142571809Y-76609142D01*
X142558721Y-76597279D01*
X142546858Y-76584191D01*
X142536335Y-76570003D01*
X142527254Y-76554851D01*
X142519702Y-76538883D01*
X142513751Y-76522251D01*
X142509459Y-76505116D01*
X142506867Y-76487643D01*
X142506000Y-76470000D01*
X142506000Y-75930000D01*
X142506867Y-75912357D01*
X142509459Y-75894884D01*
X142513751Y-75877749D01*
X142519702Y-75861117D01*
X142527254Y-75845149D01*
X142536335Y-75829997D01*
X142546858Y-75815809D01*
X142558721Y-75802721D01*
X142571809Y-75790858D01*
X142585997Y-75780335D01*
X142601149Y-75771254D01*
X142617117Y-75763702D01*
X142633749Y-75757751D01*
X142650884Y-75753459D01*
X142668357Y-75750867D01*
X142686000Y-75750000D01*
X143526000Y-75750000D01*
X143543643Y-75750867D01*
X143543643Y-75750867D01*
G37*
D11*
G04 #@! TD*
G04 #@! TO.P,U1,28*
G04 #@! TO.N,GND*
X143106000Y-76200000D03*
D10*
G04 #@! TO.N,PA04_S0_UART_TX*
G04 #@! TO.C,U1*
G36*
X143543643Y-77020867D02*
X143561116Y-77023459D01*
X143578251Y-77027751D01*
X143594883Y-77033702D01*
X143610851Y-77041254D01*
X143626003Y-77050335D01*
X143640191Y-77060858D01*
X143653279Y-77072721D01*
X143665142Y-77085809D01*
X143675665Y-77099997D01*
X143684746Y-77115149D01*
X143692298Y-77131117D01*
X143698249Y-77147749D01*
X143702541Y-77164884D01*
X143705133Y-77182357D01*
X143706000Y-77200000D01*
X143706000Y-77740000D01*
X143705133Y-77757643D01*
X143702541Y-77775116D01*
X143698249Y-77792251D01*
X143692298Y-77808883D01*
X143684746Y-77824851D01*
X143675665Y-77840003D01*
X143665142Y-77854191D01*
X143653279Y-77867279D01*
X143640191Y-77879142D01*
X143626003Y-77889665D01*
X143610851Y-77898746D01*
X143594883Y-77906298D01*
X143578251Y-77912249D01*
X143561116Y-77916541D01*
X143543643Y-77919133D01*
X143526000Y-77920000D01*
X142686000Y-77920000D01*
X142668357Y-77919133D01*
X142650884Y-77916541D01*
X142633749Y-77912249D01*
X142617117Y-77906298D01*
X142601149Y-77898746D01*
X142585997Y-77889665D01*
X142571809Y-77879142D01*
X142558721Y-77867279D01*
X142546858Y-77854191D01*
X142536335Y-77840003D01*
X142527254Y-77824851D01*
X142519702Y-77808883D01*
X142513751Y-77792251D01*
X142509459Y-77775116D01*
X142506867Y-77757643D01*
X142506000Y-77740000D01*
X142506000Y-77200000D01*
X142506867Y-77182357D01*
X142509459Y-77164884D01*
X142513751Y-77147749D01*
X142519702Y-77131117D01*
X142527254Y-77115149D01*
X142536335Y-77099997D01*
X142546858Y-77085809D01*
X142558721Y-77072721D01*
X142571809Y-77060858D01*
X142585997Y-77050335D01*
X142601149Y-77041254D01*
X142617117Y-77033702D01*
X142633749Y-77027751D01*
X142650884Y-77023459D01*
X142668357Y-77020867D01*
X142686000Y-77020000D01*
X143526000Y-77020000D01*
X143543643Y-77020867D01*
X143543643Y-77020867D01*
G37*
D11*
G04 #@! TD*
G04 #@! TO.P,U1,27*
G04 #@! TO.N,PA04_S0_UART_TX*
X143106000Y-77470000D03*
D10*
G04 #@! TO.N,PA05_S0_UART_RX*
G04 #@! TO.C,U1*
G36*
X143543643Y-78290867D02*
X143561116Y-78293459D01*
X143578251Y-78297751D01*
X143594883Y-78303702D01*
X143610851Y-78311254D01*
X143626003Y-78320335D01*
X143640191Y-78330858D01*
X143653279Y-78342721D01*
X143665142Y-78355809D01*
X143675665Y-78369997D01*
X143684746Y-78385149D01*
X143692298Y-78401117D01*
X143698249Y-78417749D01*
X143702541Y-78434884D01*
X143705133Y-78452357D01*
X143706000Y-78470000D01*
X143706000Y-79010000D01*
X143705133Y-79027643D01*
X143702541Y-79045116D01*
X143698249Y-79062251D01*
X143692298Y-79078883D01*
X143684746Y-79094851D01*
X143675665Y-79110003D01*
X143665142Y-79124191D01*
X143653279Y-79137279D01*
X143640191Y-79149142D01*
X143626003Y-79159665D01*
X143610851Y-79168746D01*
X143594883Y-79176298D01*
X143578251Y-79182249D01*
X143561116Y-79186541D01*
X143543643Y-79189133D01*
X143526000Y-79190000D01*
X142686000Y-79190000D01*
X142668357Y-79189133D01*
X142650884Y-79186541D01*
X142633749Y-79182249D01*
X142617117Y-79176298D01*
X142601149Y-79168746D01*
X142585997Y-79159665D01*
X142571809Y-79149142D01*
X142558721Y-79137279D01*
X142546858Y-79124191D01*
X142536335Y-79110003D01*
X142527254Y-79094851D01*
X142519702Y-79078883D01*
X142513751Y-79062251D01*
X142509459Y-79045116D01*
X142506867Y-79027643D01*
X142506000Y-79010000D01*
X142506000Y-78470000D01*
X142506867Y-78452357D01*
X142509459Y-78434884D01*
X142513751Y-78417749D01*
X142519702Y-78401117D01*
X142527254Y-78385149D01*
X142536335Y-78369997D01*
X142546858Y-78355809D01*
X142558721Y-78342721D01*
X142571809Y-78330858D01*
X142585997Y-78320335D01*
X142601149Y-78311254D01*
X142617117Y-78303702D01*
X142633749Y-78297751D01*
X142650884Y-78293459D01*
X142668357Y-78290867D01*
X142686000Y-78290000D01*
X143526000Y-78290000D01*
X143543643Y-78290867D01*
X143543643Y-78290867D01*
G37*
D11*
G04 #@! TD*
G04 #@! TO.P,U1,26*
G04 #@! TO.N,PA05_S0_UART_RX*
X143106000Y-78740000D03*
D10*
G04 #@! TO.N,PB02_S5_SPI_MISO*
G04 #@! TO.C,U1*
G36*
X143543643Y-79560867D02*
X143561116Y-79563459D01*
X143578251Y-79567751D01*
X143594883Y-79573702D01*
X143610851Y-79581254D01*
X143626003Y-79590335D01*
X143640191Y-79600858D01*
X143653279Y-79612721D01*
X143665142Y-79625809D01*
X143675665Y-79639997D01*
X143684746Y-79655149D01*
X143692298Y-79671117D01*
X143698249Y-79687749D01*
X143702541Y-79704884D01*
X143705133Y-79722357D01*
X143706000Y-79740000D01*
X143706000Y-80280000D01*
X143705133Y-80297643D01*
X143702541Y-80315116D01*
X143698249Y-80332251D01*
X143692298Y-80348883D01*
X143684746Y-80364851D01*
X143675665Y-80380003D01*
X143665142Y-80394191D01*
X143653279Y-80407279D01*
X143640191Y-80419142D01*
X143626003Y-80429665D01*
X143610851Y-80438746D01*
X143594883Y-80446298D01*
X143578251Y-80452249D01*
X143561116Y-80456541D01*
X143543643Y-80459133D01*
X143526000Y-80460000D01*
X142686000Y-80460000D01*
X142668357Y-80459133D01*
X142650884Y-80456541D01*
X142633749Y-80452249D01*
X142617117Y-80446298D01*
X142601149Y-80438746D01*
X142585997Y-80429665D01*
X142571809Y-80419142D01*
X142558721Y-80407279D01*
X142546858Y-80394191D01*
X142536335Y-80380003D01*
X142527254Y-80364851D01*
X142519702Y-80348883D01*
X142513751Y-80332251D01*
X142509459Y-80315116D01*
X142506867Y-80297643D01*
X142506000Y-80280000D01*
X142506000Y-79740000D01*
X142506867Y-79722357D01*
X142509459Y-79704884D01*
X142513751Y-79687749D01*
X142519702Y-79671117D01*
X142527254Y-79655149D01*
X142536335Y-79639997D01*
X142546858Y-79625809D01*
X142558721Y-79612721D01*
X142571809Y-79600858D01*
X142585997Y-79590335D01*
X142601149Y-79581254D01*
X142617117Y-79573702D01*
X142633749Y-79567751D01*
X142650884Y-79563459D01*
X142668357Y-79560867D01*
X142686000Y-79560000D01*
X143526000Y-79560000D01*
X143543643Y-79560867D01*
X143543643Y-79560867D01*
G37*
D11*
G04 #@! TD*
G04 #@! TO.P,U1,25*
G04 #@! TO.N,PB02_S5_SPI_MISO*
X143106000Y-80010000D03*
D10*
G04 #@! TO.N,PA28_GPIO*
G04 #@! TO.C,U1*
G36*
X143543643Y-80830867D02*
X143561116Y-80833459D01*
X143578251Y-80837751D01*
X143594883Y-80843702D01*
X143610851Y-80851254D01*
X143626003Y-80860335D01*
X143640191Y-80870858D01*
X143653279Y-80882721D01*
X143665142Y-80895809D01*
X143675665Y-80909997D01*
X143684746Y-80925149D01*
X143692298Y-80941117D01*
X143698249Y-80957749D01*
X143702541Y-80974884D01*
X143705133Y-80992357D01*
X143706000Y-81010000D01*
X143706000Y-81550000D01*
X143705133Y-81567643D01*
X143702541Y-81585116D01*
X143698249Y-81602251D01*
X143692298Y-81618883D01*
X143684746Y-81634851D01*
X143675665Y-81650003D01*
X143665142Y-81664191D01*
X143653279Y-81677279D01*
X143640191Y-81689142D01*
X143626003Y-81699665D01*
X143610851Y-81708746D01*
X143594883Y-81716298D01*
X143578251Y-81722249D01*
X143561116Y-81726541D01*
X143543643Y-81729133D01*
X143526000Y-81730000D01*
X142686000Y-81730000D01*
X142668357Y-81729133D01*
X142650884Y-81726541D01*
X142633749Y-81722249D01*
X142617117Y-81716298D01*
X142601149Y-81708746D01*
X142585997Y-81699665D01*
X142571809Y-81689142D01*
X142558721Y-81677279D01*
X142546858Y-81664191D01*
X142536335Y-81650003D01*
X142527254Y-81634851D01*
X142519702Y-81618883D01*
X142513751Y-81602251D01*
X142509459Y-81585116D01*
X142506867Y-81567643D01*
X142506000Y-81550000D01*
X142506000Y-81010000D01*
X142506867Y-80992357D01*
X142509459Y-80974884D01*
X142513751Y-80957749D01*
X142519702Y-80941117D01*
X142527254Y-80925149D01*
X142536335Y-80909997D01*
X142546858Y-80895809D01*
X142558721Y-80882721D01*
X142571809Y-80870858D01*
X142585997Y-80860335D01*
X142601149Y-80851254D01*
X142617117Y-80843702D01*
X142633749Y-80837751D01*
X142650884Y-80833459D01*
X142668357Y-80830867D01*
X142686000Y-80830000D01*
X143526000Y-80830000D01*
X143543643Y-80830867D01*
X143543643Y-80830867D01*
G37*
D11*
G04 #@! TD*
G04 #@! TO.P,U1,24*
G04 #@! TO.N,PA28_GPIO*
X143106000Y-81280000D03*
D10*
G04 #@! TO.N,+BATT*
G04 #@! TO.C,U1*
G36*
X143543643Y-82100867D02*
X143561116Y-82103459D01*
X143578251Y-82107751D01*
X143594883Y-82113702D01*
X143610851Y-82121254D01*
X143626003Y-82130335D01*
X143640191Y-82140858D01*
X143653279Y-82152721D01*
X143665142Y-82165809D01*
X143675665Y-82179997D01*
X143684746Y-82195149D01*
X143692298Y-82211117D01*
X143698249Y-82227749D01*
X143702541Y-82244884D01*
X143705133Y-82262357D01*
X143706000Y-82280000D01*
X143706000Y-82820000D01*
X143705133Y-82837643D01*
X143702541Y-82855116D01*
X143698249Y-82872251D01*
X143692298Y-82888883D01*
X143684746Y-82904851D01*
X143675665Y-82920003D01*
X143665142Y-82934191D01*
X143653279Y-82947279D01*
X143640191Y-82959142D01*
X143626003Y-82969665D01*
X143610851Y-82978746D01*
X143594883Y-82986298D01*
X143578251Y-82992249D01*
X143561116Y-82996541D01*
X143543643Y-82999133D01*
X143526000Y-83000000D01*
X142686000Y-83000000D01*
X142668357Y-82999133D01*
X142650884Y-82996541D01*
X142633749Y-82992249D01*
X142617117Y-82986298D01*
X142601149Y-82978746D01*
X142585997Y-82969665D01*
X142571809Y-82959142D01*
X142558721Y-82947279D01*
X142546858Y-82934191D01*
X142536335Y-82920003D01*
X142527254Y-82904851D01*
X142519702Y-82888883D01*
X142513751Y-82872251D01*
X142509459Y-82855116D01*
X142506867Y-82837643D01*
X142506000Y-82820000D01*
X142506000Y-82280000D01*
X142506867Y-82262357D01*
X142509459Y-82244884D01*
X142513751Y-82227749D01*
X142519702Y-82211117D01*
X142527254Y-82195149D01*
X142536335Y-82179997D01*
X142546858Y-82165809D01*
X142558721Y-82152721D01*
X142571809Y-82140858D01*
X142585997Y-82130335D01*
X142601149Y-82121254D01*
X142617117Y-82113702D01*
X142633749Y-82107751D01*
X142650884Y-82103459D01*
X142668357Y-82100867D01*
X142686000Y-82100000D01*
X143526000Y-82100000D01*
X143543643Y-82100867D01*
X143543643Y-82100867D01*
G37*
D11*
G04 #@! TD*
G04 #@! TO.P,U1,23*
G04 #@! TO.N,+BATT*
X143106000Y-82550000D03*
D10*
G04 #@! TO.N,PA31_SWDIO*
G04 #@! TO.C,U1*
G36*
X143543643Y-83370867D02*
X143561116Y-83373459D01*
X143578251Y-83377751D01*
X143594883Y-83383702D01*
X143610851Y-83391254D01*
X143626003Y-83400335D01*
X143640191Y-83410858D01*
X143653279Y-83422721D01*
X143665142Y-83435809D01*
X143675665Y-83449997D01*
X143684746Y-83465149D01*
X143692298Y-83481117D01*
X143698249Y-83497749D01*
X143702541Y-83514884D01*
X143705133Y-83532357D01*
X143706000Y-83550000D01*
X143706000Y-84090000D01*
X143705133Y-84107643D01*
X143702541Y-84125116D01*
X143698249Y-84142251D01*
X143692298Y-84158883D01*
X143684746Y-84174851D01*
X143675665Y-84190003D01*
X143665142Y-84204191D01*
X143653279Y-84217279D01*
X143640191Y-84229142D01*
X143626003Y-84239665D01*
X143610851Y-84248746D01*
X143594883Y-84256298D01*
X143578251Y-84262249D01*
X143561116Y-84266541D01*
X143543643Y-84269133D01*
X143526000Y-84270000D01*
X142686000Y-84270000D01*
X142668357Y-84269133D01*
X142650884Y-84266541D01*
X142633749Y-84262249D01*
X142617117Y-84256298D01*
X142601149Y-84248746D01*
X142585997Y-84239665D01*
X142571809Y-84229142D01*
X142558721Y-84217279D01*
X142546858Y-84204191D01*
X142536335Y-84190003D01*
X142527254Y-84174851D01*
X142519702Y-84158883D01*
X142513751Y-84142251D01*
X142509459Y-84125116D01*
X142506867Y-84107643D01*
X142506000Y-84090000D01*
X142506000Y-83550000D01*
X142506867Y-83532357D01*
X142509459Y-83514884D01*
X142513751Y-83497749D01*
X142519702Y-83481117D01*
X142527254Y-83465149D01*
X142536335Y-83449997D01*
X142546858Y-83435809D01*
X142558721Y-83422721D01*
X142571809Y-83410858D01*
X142585997Y-83400335D01*
X142601149Y-83391254D01*
X142617117Y-83383702D01*
X142633749Y-83377751D01*
X142650884Y-83373459D01*
X142668357Y-83370867D01*
X142686000Y-83370000D01*
X143526000Y-83370000D01*
X143543643Y-83370867D01*
X143543643Y-83370867D01*
G37*
D11*
G04 #@! TD*
G04 #@! TO.P,U1,22*
G04 #@! TO.N,PA31_SWDIO*
X143106000Y-83820000D03*
D10*
G04 #@! TO.N,PA30_SWDCLK*
G04 #@! TO.C,U1*
G36*
X143543643Y-84640867D02*
X143561116Y-84643459D01*
X143578251Y-84647751D01*
X143594883Y-84653702D01*
X143610851Y-84661254D01*
X143626003Y-84670335D01*
X143640191Y-84680858D01*
X143653279Y-84692721D01*
X143665142Y-84705809D01*
X143675665Y-84719997D01*
X143684746Y-84735149D01*
X143692298Y-84751117D01*
X143698249Y-84767749D01*
X143702541Y-84784884D01*
X143705133Y-84802357D01*
X143706000Y-84820000D01*
X143706000Y-85360000D01*
X143705133Y-85377643D01*
X143702541Y-85395116D01*
X143698249Y-85412251D01*
X143692298Y-85428883D01*
X143684746Y-85444851D01*
X143675665Y-85460003D01*
X143665142Y-85474191D01*
X143653279Y-85487279D01*
X143640191Y-85499142D01*
X143626003Y-85509665D01*
X143610851Y-85518746D01*
X143594883Y-85526298D01*
X143578251Y-85532249D01*
X143561116Y-85536541D01*
X143543643Y-85539133D01*
X143526000Y-85540000D01*
X142686000Y-85540000D01*
X142668357Y-85539133D01*
X142650884Y-85536541D01*
X142633749Y-85532249D01*
X142617117Y-85526298D01*
X142601149Y-85518746D01*
X142585997Y-85509665D01*
X142571809Y-85499142D01*
X142558721Y-85487279D01*
X142546858Y-85474191D01*
X142536335Y-85460003D01*
X142527254Y-85444851D01*
X142519702Y-85428883D01*
X142513751Y-85412251D01*
X142509459Y-85395116D01*
X142506867Y-85377643D01*
X142506000Y-85360000D01*
X142506000Y-84820000D01*
X142506867Y-84802357D01*
X142509459Y-84784884D01*
X142513751Y-84767749D01*
X142519702Y-84751117D01*
X142527254Y-84735149D01*
X142536335Y-84719997D01*
X142546858Y-84705809D01*
X142558721Y-84692721D01*
X142571809Y-84680858D01*
X142585997Y-84670335D01*
X142601149Y-84661254D01*
X142617117Y-84653702D01*
X142633749Y-84647751D01*
X142650884Y-84643459D01*
X142668357Y-84640867D01*
X142686000Y-84640000D01*
X143526000Y-84640000D01*
X143543643Y-84640867D01*
X143543643Y-84640867D01*
G37*
D11*
G04 #@! TD*
G04 #@! TO.P,U1,21*
G04 #@! TO.N,PA30_SWDCLK*
X143106000Y-85090000D03*
D10*
G04 #@! TO.N,~RESET*
G04 #@! TO.C,U1*
G36*
X143543643Y-85910867D02*
X143561116Y-85913459D01*
X143578251Y-85917751D01*
X143594883Y-85923702D01*
X143610851Y-85931254D01*
X143626003Y-85940335D01*
X143640191Y-85950858D01*
X143653279Y-85962721D01*
X143665142Y-85975809D01*
X143675665Y-85989997D01*
X143684746Y-86005149D01*
X143692298Y-86021117D01*
X143698249Y-86037749D01*
X143702541Y-86054884D01*
X143705133Y-86072357D01*
X143706000Y-86090000D01*
X143706000Y-86630000D01*
X143705133Y-86647643D01*
X143702541Y-86665116D01*
X143698249Y-86682251D01*
X143692298Y-86698883D01*
X143684746Y-86714851D01*
X143675665Y-86730003D01*
X143665142Y-86744191D01*
X143653279Y-86757279D01*
X143640191Y-86769142D01*
X143626003Y-86779665D01*
X143610851Y-86788746D01*
X143594883Y-86796298D01*
X143578251Y-86802249D01*
X143561116Y-86806541D01*
X143543643Y-86809133D01*
X143526000Y-86810000D01*
X142686000Y-86810000D01*
X142668357Y-86809133D01*
X142650884Y-86806541D01*
X142633749Y-86802249D01*
X142617117Y-86796298D01*
X142601149Y-86788746D01*
X142585997Y-86779665D01*
X142571809Y-86769142D01*
X142558721Y-86757279D01*
X142546858Y-86744191D01*
X142536335Y-86730003D01*
X142527254Y-86714851D01*
X142519702Y-86698883D01*
X142513751Y-86682251D01*
X142509459Y-86665116D01*
X142506867Y-86647643D01*
X142506000Y-86630000D01*
X142506000Y-86090000D01*
X142506867Y-86072357D01*
X142509459Y-86054884D01*
X142513751Y-86037749D01*
X142519702Y-86021117D01*
X142527254Y-86005149D01*
X142536335Y-85989997D01*
X142546858Y-85975809D01*
X142558721Y-85962721D01*
X142571809Y-85950858D01*
X142585997Y-85940335D01*
X142601149Y-85931254D01*
X142617117Y-85923702D01*
X142633749Y-85917751D01*
X142650884Y-85913459D01*
X142668357Y-85910867D01*
X142686000Y-85910000D01*
X143526000Y-85910000D01*
X143543643Y-85910867D01*
X143543643Y-85910867D01*
G37*
D11*
G04 #@! TD*
G04 #@! TO.P,U1,20*
G04 #@! TO.N,~RESET*
X143106000Y-86360000D03*
D10*
G04 #@! TO.N,VDD*
G04 #@! TO.C,U1*
G36*
X143543643Y-87180867D02*
X143561116Y-87183459D01*
X143578251Y-87187751D01*
X143594883Y-87193702D01*
X143610851Y-87201254D01*
X143626003Y-87210335D01*
X143640191Y-87220858D01*
X143653279Y-87232721D01*
X143665142Y-87245809D01*
X143675665Y-87259997D01*
X143684746Y-87275149D01*
X143692298Y-87291117D01*
X143698249Y-87307749D01*
X143702541Y-87324884D01*
X143705133Y-87342357D01*
X143706000Y-87360000D01*
X143706000Y-87900000D01*
X143705133Y-87917643D01*
X143702541Y-87935116D01*
X143698249Y-87952251D01*
X143692298Y-87968883D01*
X143684746Y-87984851D01*
X143675665Y-88000003D01*
X143665142Y-88014191D01*
X143653279Y-88027279D01*
X143640191Y-88039142D01*
X143626003Y-88049665D01*
X143610851Y-88058746D01*
X143594883Y-88066298D01*
X143578251Y-88072249D01*
X143561116Y-88076541D01*
X143543643Y-88079133D01*
X143526000Y-88080000D01*
X142686000Y-88080000D01*
X142668357Y-88079133D01*
X142650884Y-88076541D01*
X142633749Y-88072249D01*
X142617117Y-88066298D01*
X142601149Y-88058746D01*
X142585997Y-88049665D01*
X142571809Y-88039142D01*
X142558721Y-88027279D01*
X142546858Y-88014191D01*
X142536335Y-88000003D01*
X142527254Y-87984851D01*
X142519702Y-87968883D01*
X142513751Y-87952251D01*
X142509459Y-87935116D01*
X142506867Y-87917643D01*
X142506000Y-87900000D01*
X142506000Y-87360000D01*
X142506867Y-87342357D01*
X142509459Y-87324884D01*
X142513751Y-87307749D01*
X142519702Y-87291117D01*
X142527254Y-87275149D01*
X142536335Y-87259997D01*
X142546858Y-87245809D01*
X142558721Y-87232721D01*
X142571809Y-87220858D01*
X142585997Y-87210335D01*
X142601149Y-87201254D01*
X142617117Y-87193702D01*
X142633749Y-87187751D01*
X142650884Y-87183459D01*
X142668357Y-87180867D01*
X142686000Y-87180000D01*
X143526000Y-87180000D01*
X143543643Y-87180867D01*
X143543643Y-87180867D01*
G37*
D11*
G04 #@! TD*
G04 #@! TO.P,U1,19*
G04 #@! TO.N,VDD*
X143106000Y-87630000D03*
D10*
G04 #@! TO.N,PA15_GPIO*
G04 #@! TO.C,U1*
G36*
X132113643Y-88785867D02*
X132131116Y-88788459D01*
X132148251Y-88792751D01*
X132164883Y-88798702D01*
X132180851Y-88806254D01*
X132196003Y-88815335D01*
X132210191Y-88825858D01*
X132223279Y-88837721D01*
X132235142Y-88850809D01*
X132245665Y-88864997D01*
X132254746Y-88880149D01*
X132262298Y-88896117D01*
X132268249Y-88912749D01*
X132272541Y-88929884D01*
X132275133Y-88947357D01*
X132276000Y-88965000D01*
X132276000Y-89805000D01*
X132275133Y-89822643D01*
X132272541Y-89840116D01*
X132268249Y-89857251D01*
X132262298Y-89873883D01*
X132254746Y-89889851D01*
X132245665Y-89905003D01*
X132235142Y-89919191D01*
X132223279Y-89932279D01*
X132210191Y-89944142D01*
X132196003Y-89954665D01*
X132180851Y-89963746D01*
X132164883Y-89971298D01*
X132148251Y-89977249D01*
X132131116Y-89981541D01*
X132113643Y-89984133D01*
X132096000Y-89985000D01*
X131556000Y-89985000D01*
X131538357Y-89984133D01*
X131520884Y-89981541D01*
X131503749Y-89977249D01*
X131487117Y-89971298D01*
X131471149Y-89963746D01*
X131455997Y-89954665D01*
X131441809Y-89944142D01*
X131428721Y-89932279D01*
X131416858Y-89919191D01*
X131406335Y-89905003D01*
X131397254Y-89889851D01*
X131389702Y-89873883D01*
X131383751Y-89857251D01*
X131379459Y-89840116D01*
X131376867Y-89822643D01*
X131376000Y-89805000D01*
X131376000Y-88965000D01*
X131376867Y-88947357D01*
X131379459Y-88929884D01*
X131383751Y-88912749D01*
X131389702Y-88896117D01*
X131397254Y-88880149D01*
X131406335Y-88864997D01*
X131416858Y-88850809D01*
X131428721Y-88837721D01*
X131441809Y-88825858D01*
X131455997Y-88815335D01*
X131471149Y-88806254D01*
X131487117Y-88798702D01*
X131503749Y-88792751D01*
X131520884Y-88788459D01*
X131538357Y-88785867D01*
X131556000Y-88785000D01*
X132096000Y-88785000D01*
X132113643Y-88785867D01*
X132113643Y-88785867D01*
G37*
D11*
G04 #@! TD*
G04 #@! TO.P,U1,11*
G04 #@! TO.N,PA15_GPIO*
X131826000Y-89385000D03*
D10*
G04 #@! TO.N,PA14_GPIO*
G04 #@! TO.C,U1*
G36*
X133383643Y-88785867D02*
X133401116Y-88788459D01*
X133418251Y-88792751D01*
X133434883Y-88798702D01*
X133450851Y-88806254D01*
X133466003Y-88815335D01*
X133480191Y-88825858D01*
X133493279Y-88837721D01*
X133505142Y-88850809D01*
X133515665Y-88864997D01*
X133524746Y-88880149D01*
X133532298Y-88896117D01*
X133538249Y-88912749D01*
X133542541Y-88929884D01*
X133545133Y-88947357D01*
X133546000Y-88965000D01*
X133546000Y-89805000D01*
X133545133Y-89822643D01*
X133542541Y-89840116D01*
X133538249Y-89857251D01*
X133532298Y-89873883D01*
X133524746Y-89889851D01*
X133515665Y-89905003D01*
X133505142Y-89919191D01*
X133493279Y-89932279D01*
X133480191Y-89944142D01*
X133466003Y-89954665D01*
X133450851Y-89963746D01*
X133434883Y-89971298D01*
X133418251Y-89977249D01*
X133401116Y-89981541D01*
X133383643Y-89984133D01*
X133366000Y-89985000D01*
X132826000Y-89985000D01*
X132808357Y-89984133D01*
X132790884Y-89981541D01*
X132773749Y-89977249D01*
X132757117Y-89971298D01*
X132741149Y-89963746D01*
X132725997Y-89954665D01*
X132711809Y-89944142D01*
X132698721Y-89932279D01*
X132686858Y-89919191D01*
X132676335Y-89905003D01*
X132667254Y-89889851D01*
X132659702Y-89873883D01*
X132653751Y-89857251D01*
X132649459Y-89840116D01*
X132646867Y-89822643D01*
X132646000Y-89805000D01*
X132646000Y-88965000D01*
X132646867Y-88947357D01*
X132649459Y-88929884D01*
X132653751Y-88912749D01*
X132659702Y-88896117D01*
X132667254Y-88880149D01*
X132676335Y-88864997D01*
X132686858Y-88850809D01*
X132698721Y-88837721D01*
X132711809Y-88825858D01*
X132725997Y-88815335D01*
X132741149Y-88806254D01*
X132757117Y-88798702D01*
X132773749Y-88792751D01*
X132790884Y-88788459D01*
X132808357Y-88785867D01*
X132826000Y-88785000D01*
X133366000Y-88785000D01*
X133383643Y-88785867D01*
X133383643Y-88785867D01*
G37*
D11*
G04 #@! TD*
G04 #@! TO.P,U1,12*
G04 #@! TO.N,PA14_GPIO*
X133096000Y-89385000D03*
D10*
G04 #@! TO.N,PA19_PWM_T0_W3*
G04 #@! TO.C,U1*
G36*
X134653643Y-88785867D02*
X134671116Y-88788459D01*
X134688251Y-88792751D01*
X134704883Y-88798702D01*
X134720851Y-88806254D01*
X134736003Y-88815335D01*
X134750191Y-88825858D01*
X134763279Y-88837721D01*
X134775142Y-88850809D01*
X134785665Y-88864997D01*
X134794746Y-88880149D01*
X134802298Y-88896117D01*
X134808249Y-88912749D01*
X134812541Y-88929884D01*
X134815133Y-88947357D01*
X134816000Y-88965000D01*
X134816000Y-89805000D01*
X134815133Y-89822643D01*
X134812541Y-89840116D01*
X134808249Y-89857251D01*
X134802298Y-89873883D01*
X134794746Y-89889851D01*
X134785665Y-89905003D01*
X134775142Y-89919191D01*
X134763279Y-89932279D01*
X134750191Y-89944142D01*
X134736003Y-89954665D01*
X134720851Y-89963746D01*
X134704883Y-89971298D01*
X134688251Y-89977249D01*
X134671116Y-89981541D01*
X134653643Y-89984133D01*
X134636000Y-89985000D01*
X134096000Y-89985000D01*
X134078357Y-89984133D01*
X134060884Y-89981541D01*
X134043749Y-89977249D01*
X134027117Y-89971298D01*
X134011149Y-89963746D01*
X133995997Y-89954665D01*
X133981809Y-89944142D01*
X133968721Y-89932279D01*
X133956858Y-89919191D01*
X133946335Y-89905003D01*
X133937254Y-89889851D01*
X133929702Y-89873883D01*
X133923751Y-89857251D01*
X133919459Y-89840116D01*
X133916867Y-89822643D01*
X133916000Y-89805000D01*
X133916000Y-88965000D01*
X133916867Y-88947357D01*
X133919459Y-88929884D01*
X133923751Y-88912749D01*
X133929702Y-88896117D01*
X133937254Y-88880149D01*
X133946335Y-88864997D01*
X133956858Y-88850809D01*
X133968721Y-88837721D01*
X133981809Y-88825858D01*
X133995997Y-88815335D01*
X134011149Y-88806254D01*
X134027117Y-88798702D01*
X134043749Y-88792751D01*
X134060884Y-88788459D01*
X134078357Y-88785867D01*
X134096000Y-88785000D01*
X134636000Y-88785000D01*
X134653643Y-88785867D01*
X134653643Y-88785867D01*
G37*
D11*
G04 #@! TD*
G04 #@! TO.P,U1,13*
G04 #@! TO.N,PA19_PWM_T0_W3*
X134366000Y-89385000D03*
D10*
G04 #@! TO.N,PA22_GPIO*
G04 #@! TO.C,U1*
G36*
X135923643Y-88785867D02*
X135941116Y-88788459D01*
X135958251Y-88792751D01*
X135974883Y-88798702D01*
X135990851Y-88806254D01*
X136006003Y-88815335D01*
X136020191Y-88825858D01*
X136033279Y-88837721D01*
X136045142Y-88850809D01*
X136055665Y-88864997D01*
X136064746Y-88880149D01*
X136072298Y-88896117D01*
X136078249Y-88912749D01*
X136082541Y-88929884D01*
X136085133Y-88947357D01*
X136086000Y-88965000D01*
X136086000Y-89805000D01*
X136085133Y-89822643D01*
X136082541Y-89840116D01*
X136078249Y-89857251D01*
X136072298Y-89873883D01*
X136064746Y-89889851D01*
X136055665Y-89905003D01*
X136045142Y-89919191D01*
X136033279Y-89932279D01*
X136020191Y-89944142D01*
X136006003Y-89954665D01*
X135990851Y-89963746D01*
X135974883Y-89971298D01*
X135958251Y-89977249D01*
X135941116Y-89981541D01*
X135923643Y-89984133D01*
X135906000Y-89985000D01*
X135366000Y-89985000D01*
X135348357Y-89984133D01*
X135330884Y-89981541D01*
X135313749Y-89977249D01*
X135297117Y-89971298D01*
X135281149Y-89963746D01*
X135265997Y-89954665D01*
X135251809Y-89944142D01*
X135238721Y-89932279D01*
X135226858Y-89919191D01*
X135216335Y-89905003D01*
X135207254Y-89889851D01*
X135199702Y-89873883D01*
X135193751Y-89857251D01*
X135189459Y-89840116D01*
X135186867Y-89822643D01*
X135186000Y-89805000D01*
X135186000Y-88965000D01*
X135186867Y-88947357D01*
X135189459Y-88929884D01*
X135193751Y-88912749D01*
X135199702Y-88896117D01*
X135207254Y-88880149D01*
X135216335Y-88864997D01*
X135226858Y-88850809D01*
X135238721Y-88837721D01*
X135251809Y-88825858D01*
X135265997Y-88815335D01*
X135281149Y-88806254D01*
X135297117Y-88798702D01*
X135313749Y-88792751D01*
X135330884Y-88788459D01*
X135348357Y-88785867D01*
X135366000Y-88785000D01*
X135906000Y-88785000D01*
X135923643Y-88785867D01*
X135923643Y-88785867D01*
G37*
D11*
G04 #@! TD*
G04 #@! TO.P,U1,14*
G04 #@! TO.N,PA22_GPIO*
X135636000Y-89385000D03*
D10*
G04 #@! TO.N,PA23_S5_SPI_SS*
G04 #@! TO.C,U1*
G36*
X137193643Y-88785867D02*
X137211116Y-88788459D01*
X137228251Y-88792751D01*
X137244883Y-88798702D01*
X137260851Y-88806254D01*
X137276003Y-88815335D01*
X137290191Y-88825858D01*
X137303279Y-88837721D01*
X137315142Y-88850809D01*
X137325665Y-88864997D01*
X137334746Y-88880149D01*
X137342298Y-88896117D01*
X137348249Y-88912749D01*
X137352541Y-88929884D01*
X137355133Y-88947357D01*
X137356000Y-88965000D01*
X137356000Y-89805000D01*
X137355133Y-89822643D01*
X137352541Y-89840116D01*
X137348249Y-89857251D01*
X137342298Y-89873883D01*
X137334746Y-89889851D01*
X137325665Y-89905003D01*
X137315142Y-89919191D01*
X137303279Y-89932279D01*
X137290191Y-89944142D01*
X137276003Y-89954665D01*
X137260851Y-89963746D01*
X137244883Y-89971298D01*
X137228251Y-89977249D01*
X137211116Y-89981541D01*
X137193643Y-89984133D01*
X137176000Y-89985000D01*
X136636000Y-89985000D01*
X136618357Y-89984133D01*
X136600884Y-89981541D01*
X136583749Y-89977249D01*
X136567117Y-89971298D01*
X136551149Y-89963746D01*
X136535997Y-89954665D01*
X136521809Y-89944142D01*
X136508721Y-89932279D01*
X136496858Y-89919191D01*
X136486335Y-89905003D01*
X136477254Y-89889851D01*
X136469702Y-89873883D01*
X136463751Y-89857251D01*
X136459459Y-89840116D01*
X136456867Y-89822643D01*
X136456000Y-89805000D01*
X136456000Y-88965000D01*
X136456867Y-88947357D01*
X136459459Y-88929884D01*
X136463751Y-88912749D01*
X136469702Y-88896117D01*
X136477254Y-88880149D01*
X136486335Y-88864997D01*
X136496858Y-88850809D01*
X136508721Y-88837721D01*
X136521809Y-88825858D01*
X136535997Y-88815335D01*
X136551149Y-88806254D01*
X136567117Y-88798702D01*
X136583749Y-88792751D01*
X136600884Y-88788459D01*
X136618357Y-88785867D01*
X136636000Y-88785000D01*
X137176000Y-88785000D01*
X137193643Y-88785867D01*
X137193643Y-88785867D01*
G37*
D11*
G04 #@! TD*
G04 #@! TO.P,U1,15*
G04 #@! TO.N,PA23_S5_SPI_SS*
X136906000Y-89385000D03*
D10*
G04 #@! TO.N,USB_P*
G04 #@! TO.C,U1*
G36*
X138463643Y-88785867D02*
X138481116Y-88788459D01*
X138498251Y-88792751D01*
X138514883Y-88798702D01*
X138530851Y-88806254D01*
X138546003Y-88815335D01*
X138560191Y-88825858D01*
X138573279Y-88837721D01*
X138585142Y-88850809D01*
X138595665Y-88864997D01*
X138604746Y-88880149D01*
X138612298Y-88896117D01*
X138618249Y-88912749D01*
X138622541Y-88929884D01*
X138625133Y-88947357D01*
X138626000Y-88965000D01*
X138626000Y-89805000D01*
X138625133Y-89822643D01*
X138622541Y-89840116D01*
X138618249Y-89857251D01*
X138612298Y-89873883D01*
X138604746Y-89889851D01*
X138595665Y-89905003D01*
X138585142Y-89919191D01*
X138573279Y-89932279D01*
X138560191Y-89944142D01*
X138546003Y-89954665D01*
X138530851Y-89963746D01*
X138514883Y-89971298D01*
X138498251Y-89977249D01*
X138481116Y-89981541D01*
X138463643Y-89984133D01*
X138446000Y-89985000D01*
X137906000Y-89985000D01*
X137888357Y-89984133D01*
X137870884Y-89981541D01*
X137853749Y-89977249D01*
X137837117Y-89971298D01*
X137821149Y-89963746D01*
X137805997Y-89954665D01*
X137791809Y-89944142D01*
X137778721Y-89932279D01*
X137766858Y-89919191D01*
X137756335Y-89905003D01*
X137747254Y-89889851D01*
X137739702Y-89873883D01*
X137733751Y-89857251D01*
X137729459Y-89840116D01*
X137726867Y-89822643D01*
X137726000Y-89805000D01*
X137726000Y-88965000D01*
X137726867Y-88947357D01*
X137729459Y-88929884D01*
X137733751Y-88912749D01*
X137739702Y-88896117D01*
X137747254Y-88880149D01*
X137756335Y-88864997D01*
X137766858Y-88850809D01*
X137778721Y-88837721D01*
X137791809Y-88825858D01*
X137805997Y-88815335D01*
X137821149Y-88806254D01*
X137837117Y-88798702D01*
X137853749Y-88792751D01*
X137870884Y-88788459D01*
X137888357Y-88785867D01*
X137906000Y-88785000D01*
X138446000Y-88785000D01*
X138463643Y-88785867D01*
X138463643Y-88785867D01*
G37*
D11*
G04 #@! TD*
G04 #@! TO.P,U1,16*
G04 #@! TO.N,USB_P*
X138176000Y-89385000D03*
D10*
G04 #@! TO.N,USB_N*
G04 #@! TO.C,U1*
G36*
X139733643Y-88785867D02*
X139751116Y-88788459D01*
X139768251Y-88792751D01*
X139784883Y-88798702D01*
X139800851Y-88806254D01*
X139816003Y-88815335D01*
X139830191Y-88825858D01*
X139843279Y-88837721D01*
X139855142Y-88850809D01*
X139865665Y-88864997D01*
X139874746Y-88880149D01*
X139882298Y-88896117D01*
X139888249Y-88912749D01*
X139892541Y-88929884D01*
X139895133Y-88947357D01*
X139896000Y-88965000D01*
X139896000Y-89805000D01*
X139895133Y-89822643D01*
X139892541Y-89840116D01*
X139888249Y-89857251D01*
X139882298Y-89873883D01*
X139874746Y-89889851D01*
X139865665Y-89905003D01*
X139855142Y-89919191D01*
X139843279Y-89932279D01*
X139830191Y-89944142D01*
X139816003Y-89954665D01*
X139800851Y-89963746D01*
X139784883Y-89971298D01*
X139768251Y-89977249D01*
X139751116Y-89981541D01*
X139733643Y-89984133D01*
X139716000Y-89985000D01*
X139176000Y-89985000D01*
X139158357Y-89984133D01*
X139140884Y-89981541D01*
X139123749Y-89977249D01*
X139107117Y-89971298D01*
X139091149Y-89963746D01*
X139075997Y-89954665D01*
X139061809Y-89944142D01*
X139048721Y-89932279D01*
X139036858Y-89919191D01*
X139026335Y-89905003D01*
X139017254Y-89889851D01*
X139009702Y-89873883D01*
X139003751Y-89857251D01*
X138999459Y-89840116D01*
X138996867Y-89822643D01*
X138996000Y-89805000D01*
X138996000Y-88965000D01*
X138996867Y-88947357D01*
X138999459Y-88929884D01*
X139003751Y-88912749D01*
X139009702Y-88896117D01*
X139017254Y-88880149D01*
X139026335Y-88864997D01*
X139036858Y-88850809D01*
X139048721Y-88837721D01*
X139061809Y-88825858D01*
X139075997Y-88815335D01*
X139091149Y-88806254D01*
X139107117Y-88798702D01*
X139123749Y-88792751D01*
X139140884Y-88788459D01*
X139158357Y-88785867D01*
X139176000Y-88785000D01*
X139716000Y-88785000D01*
X139733643Y-88785867D01*
X139733643Y-88785867D01*
G37*
D11*
G04 #@! TD*
G04 #@! TO.P,U1,17*
G04 #@! TO.N,USB_N*
X139446000Y-89385000D03*
D10*
G04 #@! TO.N,GND*
G04 #@! TO.C,U1*
G36*
X141003643Y-88785867D02*
X141021116Y-88788459D01*
X141038251Y-88792751D01*
X141054883Y-88798702D01*
X141070851Y-88806254D01*
X141086003Y-88815335D01*
X141100191Y-88825858D01*
X141113279Y-88837721D01*
X141125142Y-88850809D01*
X141135665Y-88864997D01*
X141144746Y-88880149D01*
X141152298Y-88896117D01*
X141158249Y-88912749D01*
X141162541Y-88929884D01*
X141165133Y-88947357D01*
X141166000Y-88965000D01*
X141166000Y-89805000D01*
X141165133Y-89822643D01*
X141162541Y-89840116D01*
X141158249Y-89857251D01*
X141152298Y-89873883D01*
X141144746Y-89889851D01*
X141135665Y-89905003D01*
X141125142Y-89919191D01*
X141113279Y-89932279D01*
X141100191Y-89944142D01*
X141086003Y-89954665D01*
X141070851Y-89963746D01*
X141054883Y-89971298D01*
X141038251Y-89977249D01*
X141021116Y-89981541D01*
X141003643Y-89984133D01*
X140986000Y-89985000D01*
X140446000Y-89985000D01*
X140428357Y-89984133D01*
X140410884Y-89981541D01*
X140393749Y-89977249D01*
X140377117Y-89971298D01*
X140361149Y-89963746D01*
X140345997Y-89954665D01*
X140331809Y-89944142D01*
X140318721Y-89932279D01*
X140306858Y-89919191D01*
X140296335Y-89905003D01*
X140287254Y-89889851D01*
X140279702Y-89873883D01*
X140273751Y-89857251D01*
X140269459Y-89840116D01*
X140266867Y-89822643D01*
X140266000Y-89805000D01*
X140266000Y-88965000D01*
X140266867Y-88947357D01*
X140269459Y-88929884D01*
X140273751Y-88912749D01*
X140279702Y-88896117D01*
X140287254Y-88880149D01*
X140296335Y-88864997D01*
X140306858Y-88850809D01*
X140318721Y-88837721D01*
X140331809Y-88825858D01*
X140345997Y-88815335D01*
X140361149Y-88806254D01*
X140377117Y-88798702D01*
X140393749Y-88792751D01*
X140410884Y-88788459D01*
X140428357Y-88785867D01*
X140446000Y-88785000D01*
X140986000Y-88785000D01*
X141003643Y-88785867D01*
X141003643Y-88785867D01*
G37*
D11*
G04 #@! TD*
G04 #@! TO.P,U1,18*
G04 #@! TO.N,GND*
X140716000Y-89385000D03*
D10*
G04 #@! TO.N,PA15_GPIO*
G04 #@! TO.C,U1*
G36*
X132149722Y-88388774D02*
X132163313Y-88390790D01*
X132176640Y-88394128D01*
X132189576Y-88398757D01*
X132201996Y-88404631D01*
X132213780Y-88411694D01*
X132224815Y-88419879D01*
X132234995Y-88429105D01*
X132244221Y-88439285D01*
X132252406Y-88450320D01*
X132259469Y-88462104D01*
X132265343Y-88474524D01*
X132269972Y-88487460D01*
X132273310Y-88500787D01*
X132275326Y-88514378D01*
X132276000Y-88528100D01*
X132276000Y-88948100D01*
X132275326Y-88961822D01*
X132273310Y-88975413D01*
X132269972Y-88988740D01*
X132265343Y-89001676D01*
X132259469Y-89014096D01*
X132252406Y-89025880D01*
X132244221Y-89036915D01*
X132234995Y-89047095D01*
X132224815Y-89056321D01*
X132213780Y-89064506D01*
X132201996Y-89071569D01*
X132189576Y-89077443D01*
X132176640Y-89082072D01*
X132163313Y-89085410D01*
X132149722Y-89087426D01*
X132136000Y-89088100D01*
X131516000Y-89088100D01*
X131502278Y-89087426D01*
X131488687Y-89085410D01*
X131475360Y-89082072D01*
X131462424Y-89077443D01*
X131450004Y-89071569D01*
X131438220Y-89064506D01*
X131427185Y-89056321D01*
X131417005Y-89047095D01*
X131407779Y-89036915D01*
X131399594Y-89025880D01*
X131392531Y-89014096D01*
X131386657Y-89001676D01*
X131382028Y-88988740D01*
X131378690Y-88975413D01*
X131376674Y-88961822D01*
X131376000Y-88948100D01*
X131376000Y-88528100D01*
X131376674Y-88514378D01*
X131378690Y-88500787D01*
X131382028Y-88487460D01*
X131386657Y-88474524D01*
X131392531Y-88462104D01*
X131399594Y-88450320D01*
X131407779Y-88439285D01*
X131417005Y-88429105D01*
X131427185Y-88419879D01*
X131438220Y-88411694D01*
X131450004Y-88404631D01*
X131462424Y-88398757D01*
X131475360Y-88394128D01*
X131488687Y-88390790D01*
X131502278Y-88388774D01*
X131516000Y-88388100D01*
X132136000Y-88388100D01*
X132149722Y-88388774D01*
X132149722Y-88388774D01*
G37*
D12*
G04 #@! TD*
G04 #@! TO.P,U1,11*
G04 #@! TO.N,PA15_GPIO*
X131826000Y-88738100D03*
D10*
G04 #@! TO.N,PA14_GPIO*
G04 #@! TO.C,U1*
G36*
X133419722Y-88388774D02*
X133433313Y-88390790D01*
X133446640Y-88394128D01*
X133459576Y-88398757D01*
X133471996Y-88404631D01*
X133483780Y-88411694D01*
X133494815Y-88419879D01*
X133504995Y-88429105D01*
X133514221Y-88439285D01*
X133522406Y-88450320D01*
X133529469Y-88462104D01*
X133535343Y-88474524D01*
X133539972Y-88487460D01*
X133543310Y-88500787D01*
X133545326Y-88514378D01*
X133546000Y-88528100D01*
X133546000Y-88948100D01*
X133545326Y-88961822D01*
X133543310Y-88975413D01*
X133539972Y-88988740D01*
X133535343Y-89001676D01*
X133529469Y-89014096D01*
X133522406Y-89025880D01*
X133514221Y-89036915D01*
X133504995Y-89047095D01*
X133494815Y-89056321D01*
X133483780Y-89064506D01*
X133471996Y-89071569D01*
X133459576Y-89077443D01*
X133446640Y-89082072D01*
X133433313Y-89085410D01*
X133419722Y-89087426D01*
X133406000Y-89088100D01*
X132786000Y-89088100D01*
X132772278Y-89087426D01*
X132758687Y-89085410D01*
X132745360Y-89082072D01*
X132732424Y-89077443D01*
X132720004Y-89071569D01*
X132708220Y-89064506D01*
X132697185Y-89056321D01*
X132687005Y-89047095D01*
X132677779Y-89036915D01*
X132669594Y-89025880D01*
X132662531Y-89014096D01*
X132656657Y-89001676D01*
X132652028Y-88988740D01*
X132648690Y-88975413D01*
X132646674Y-88961822D01*
X132646000Y-88948100D01*
X132646000Y-88528100D01*
X132646674Y-88514378D01*
X132648690Y-88500787D01*
X132652028Y-88487460D01*
X132656657Y-88474524D01*
X132662531Y-88462104D01*
X132669594Y-88450320D01*
X132677779Y-88439285D01*
X132687005Y-88429105D01*
X132697185Y-88419879D01*
X132708220Y-88411694D01*
X132720004Y-88404631D01*
X132732424Y-88398757D01*
X132745360Y-88394128D01*
X132758687Y-88390790D01*
X132772278Y-88388774D01*
X132786000Y-88388100D01*
X133406000Y-88388100D01*
X133419722Y-88388774D01*
X133419722Y-88388774D01*
G37*
D12*
G04 #@! TD*
G04 #@! TO.P,U1,12*
G04 #@! TO.N,PA14_GPIO*
X133096000Y-88738100D03*
D10*
G04 #@! TO.N,PA19_PWM_T0_W3*
G04 #@! TO.C,U1*
G36*
X134689722Y-88388774D02*
X134703313Y-88390790D01*
X134716640Y-88394128D01*
X134729576Y-88398757D01*
X134741996Y-88404631D01*
X134753780Y-88411694D01*
X134764815Y-88419879D01*
X134774995Y-88429105D01*
X134784221Y-88439285D01*
X134792406Y-88450320D01*
X134799469Y-88462104D01*
X134805343Y-88474524D01*
X134809972Y-88487460D01*
X134813310Y-88500787D01*
X134815326Y-88514378D01*
X134816000Y-88528100D01*
X134816000Y-88948100D01*
X134815326Y-88961822D01*
X134813310Y-88975413D01*
X134809972Y-88988740D01*
X134805343Y-89001676D01*
X134799469Y-89014096D01*
X134792406Y-89025880D01*
X134784221Y-89036915D01*
X134774995Y-89047095D01*
X134764815Y-89056321D01*
X134753780Y-89064506D01*
X134741996Y-89071569D01*
X134729576Y-89077443D01*
X134716640Y-89082072D01*
X134703313Y-89085410D01*
X134689722Y-89087426D01*
X134676000Y-89088100D01*
X134056000Y-89088100D01*
X134042278Y-89087426D01*
X134028687Y-89085410D01*
X134015360Y-89082072D01*
X134002424Y-89077443D01*
X133990004Y-89071569D01*
X133978220Y-89064506D01*
X133967185Y-89056321D01*
X133957005Y-89047095D01*
X133947779Y-89036915D01*
X133939594Y-89025880D01*
X133932531Y-89014096D01*
X133926657Y-89001676D01*
X133922028Y-88988740D01*
X133918690Y-88975413D01*
X133916674Y-88961822D01*
X133916000Y-88948100D01*
X133916000Y-88528100D01*
X133916674Y-88514378D01*
X133918690Y-88500787D01*
X133922028Y-88487460D01*
X133926657Y-88474524D01*
X133932531Y-88462104D01*
X133939594Y-88450320D01*
X133947779Y-88439285D01*
X133957005Y-88429105D01*
X133967185Y-88419879D01*
X133978220Y-88411694D01*
X133990004Y-88404631D01*
X134002424Y-88398757D01*
X134015360Y-88394128D01*
X134028687Y-88390790D01*
X134042278Y-88388774D01*
X134056000Y-88388100D01*
X134676000Y-88388100D01*
X134689722Y-88388774D01*
X134689722Y-88388774D01*
G37*
D12*
G04 #@! TD*
G04 #@! TO.P,U1,13*
G04 #@! TO.N,PA19_PWM_T0_W3*
X134366000Y-88738100D03*
D10*
G04 #@! TO.N,PA22_GPIO*
G04 #@! TO.C,U1*
G36*
X135959722Y-88388774D02*
X135973313Y-88390790D01*
X135986640Y-88394128D01*
X135999576Y-88398757D01*
X136011996Y-88404631D01*
X136023780Y-88411694D01*
X136034815Y-88419879D01*
X136044995Y-88429105D01*
X136054221Y-88439285D01*
X136062406Y-88450320D01*
X136069469Y-88462104D01*
X136075343Y-88474524D01*
X136079972Y-88487460D01*
X136083310Y-88500787D01*
X136085326Y-88514378D01*
X136086000Y-88528100D01*
X136086000Y-88948100D01*
X136085326Y-88961822D01*
X136083310Y-88975413D01*
X136079972Y-88988740D01*
X136075343Y-89001676D01*
X136069469Y-89014096D01*
X136062406Y-89025880D01*
X136054221Y-89036915D01*
X136044995Y-89047095D01*
X136034815Y-89056321D01*
X136023780Y-89064506D01*
X136011996Y-89071569D01*
X135999576Y-89077443D01*
X135986640Y-89082072D01*
X135973313Y-89085410D01*
X135959722Y-89087426D01*
X135946000Y-89088100D01*
X135326000Y-89088100D01*
X135312278Y-89087426D01*
X135298687Y-89085410D01*
X135285360Y-89082072D01*
X135272424Y-89077443D01*
X135260004Y-89071569D01*
X135248220Y-89064506D01*
X135237185Y-89056321D01*
X135227005Y-89047095D01*
X135217779Y-89036915D01*
X135209594Y-89025880D01*
X135202531Y-89014096D01*
X135196657Y-89001676D01*
X135192028Y-88988740D01*
X135188690Y-88975413D01*
X135186674Y-88961822D01*
X135186000Y-88948100D01*
X135186000Y-88528100D01*
X135186674Y-88514378D01*
X135188690Y-88500787D01*
X135192028Y-88487460D01*
X135196657Y-88474524D01*
X135202531Y-88462104D01*
X135209594Y-88450320D01*
X135217779Y-88439285D01*
X135227005Y-88429105D01*
X135237185Y-88419879D01*
X135248220Y-88411694D01*
X135260004Y-88404631D01*
X135272424Y-88398757D01*
X135285360Y-88394128D01*
X135298687Y-88390790D01*
X135312278Y-88388774D01*
X135326000Y-88388100D01*
X135946000Y-88388100D01*
X135959722Y-88388774D01*
X135959722Y-88388774D01*
G37*
D12*
G04 #@! TD*
G04 #@! TO.P,U1,14*
G04 #@! TO.N,PA22_GPIO*
X135636000Y-88738100D03*
D10*
G04 #@! TO.N,PA23_S5_SPI_SS*
G04 #@! TO.C,U1*
G36*
X137229722Y-88388774D02*
X137243313Y-88390790D01*
X137256640Y-88394128D01*
X137269576Y-88398757D01*
X137281996Y-88404631D01*
X137293780Y-88411694D01*
X137304815Y-88419879D01*
X137314995Y-88429105D01*
X137324221Y-88439285D01*
X137332406Y-88450320D01*
X137339469Y-88462104D01*
X137345343Y-88474524D01*
X137349972Y-88487460D01*
X137353310Y-88500787D01*
X137355326Y-88514378D01*
X137356000Y-88528100D01*
X137356000Y-88948100D01*
X137355326Y-88961822D01*
X137353310Y-88975413D01*
X137349972Y-88988740D01*
X137345343Y-89001676D01*
X137339469Y-89014096D01*
X137332406Y-89025880D01*
X137324221Y-89036915D01*
X137314995Y-89047095D01*
X137304815Y-89056321D01*
X137293780Y-89064506D01*
X137281996Y-89071569D01*
X137269576Y-89077443D01*
X137256640Y-89082072D01*
X137243313Y-89085410D01*
X137229722Y-89087426D01*
X137216000Y-89088100D01*
X136596000Y-89088100D01*
X136582278Y-89087426D01*
X136568687Y-89085410D01*
X136555360Y-89082072D01*
X136542424Y-89077443D01*
X136530004Y-89071569D01*
X136518220Y-89064506D01*
X136507185Y-89056321D01*
X136497005Y-89047095D01*
X136487779Y-89036915D01*
X136479594Y-89025880D01*
X136472531Y-89014096D01*
X136466657Y-89001676D01*
X136462028Y-88988740D01*
X136458690Y-88975413D01*
X136456674Y-88961822D01*
X136456000Y-88948100D01*
X136456000Y-88528100D01*
X136456674Y-88514378D01*
X136458690Y-88500787D01*
X136462028Y-88487460D01*
X136466657Y-88474524D01*
X136472531Y-88462104D01*
X136479594Y-88450320D01*
X136487779Y-88439285D01*
X136497005Y-88429105D01*
X136507185Y-88419879D01*
X136518220Y-88411694D01*
X136530004Y-88404631D01*
X136542424Y-88398757D01*
X136555360Y-88394128D01*
X136568687Y-88390790D01*
X136582278Y-88388774D01*
X136596000Y-88388100D01*
X137216000Y-88388100D01*
X137229722Y-88388774D01*
X137229722Y-88388774D01*
G37*
D12*
G04 #@! TD*
G04 #@! TO.P,U1,15*
G04 #@! TO.N,PA23_S5_SPI_SS*
X136906000Y-88738100D03*
D10*
G04 #@! TO.N,USB_P*
G04 #@! TO.C,U1*
G36*
X138499722Y-88388774D02*
X138513313Y-88390790D01*
X138526640Y-88394128D01*
X138539576Y-88398757D01*
X138551996Y-88404631D01*
X138563780Y-88411694D01*
X138574815Y-88419879D01*
X138584995Y-88429105D01*
X138594221Y-88439285D01*
X138602406Y-88450320D01*
X138609469Y-88462104D01*
X138615343Y-88474524D01*
X138619972Y-88487460D01*
X138623310Y-88500787D01*
X138625326Y-88514378D01*
X138626000Y-88528100D01*
X138626000Y-88948100D01*
X138625326Y-88961822D01*
X138623310Y-88975413D01*
X138619972Y-88988740D01*
X138615343Y-89001676D01*
X138609469Y-89014096D01*
X138602406Y-89025880D01*
X138594221Y-89036915D01*
X138584995Y-89047095D01*
X138574815Y-89056321D01*
X138563780Y-89064506D01*
X138551996Y-89071569D01*
X138539576Y-89077443D01*
X138526640Y-89082072D01*
X138513313Y-89085410D01*
X138499722Y-89087426D01*
X138486000Y-89088100D01*
X137866000Y-89088100D01*
X137852278Y-89087426D01*
X137838687Y-89085410D01*
X137825360Y-89082072D01*
X137812424Y-89077443D01*
X137800004Y-89071569D01*
X137788220Y-89064506D01*
X137777185Y-89056321D01*
X137767005Y-89047095D01*
X137757779Y-89036915D01*
X137749594Y-89025880D01*
X137742531Y-89014096D01*
X137736657Y-89001676D01*
X137732028Y-88988740D01*
X137728690Y-88975413D01*
X137726674Y-88961822D01*
X137726000Y-88948100D01*
X137726000Y-88528100D01*
X137726674Y-88514378D01*
X137728690Y-88500787D01*
X137732028Y-88487460D01*
X137736657Y-88474524D01*
X137742531Y-88462104D01*
X137749594Y-88450320D01*
X137757779Y-88439285D01*
X137767005Y-88429105D01*
X137777185Y-88419879D01*
X137788220Y-88411694D01*
X137800004Y-88404631D01*
X137812424Y-88398757D01*
X137825360Y-88394128D01*
X137838687Y-88390790D01*
X137852278Y-88388774D01*
X137866000Y-88388100D01*
X138486000Y-88388100D01*
X138499722Y-88388774D01*
X138499722Y-88388774D01*
G37*
D12*
G04 #@! TD*
G04 #@! TO.P,U1,16*
G04 #@! TO.N,USB_P*
X138176000Y-88738100D03*
D10*
G04 #@! TO.N,USB_N*
G04 #@! TO.C,U1*
G36*
X139769722Y-88388774D02*
X139783313Y-88390790D01*
X139796640Y-88394128D01*
X139809576Y-88398757D01*
X139821996Y-88404631D01*
X139833780Y-88411694D01*
X139844815Y-88419879D01*
X139854995Y-88429105D01*
X139864221Y-88439285D01*
X139872406Y-88450320D01*
X139879469Y-88462104D01*
X139885343Y-88474524D01*
X139889972Y-88487460D01*
X139893310Y-88500787D01*
X139895326Y-88514378D01*
X139896000Y-88528100D01*
X139896000Y-88948100D01*
X139895326Y-88961822D01*
X139893310Y-88975413D01*
X139889972Y-88988740D01*
X139885343Y-89001676D01*
X139879469Y-89014096D01*
X139872406Y-89025880D01*
X139864221Y-89036915D01*
X139854995Y-89047095D01*
X139844815Y-89056321D01*
X139833780Y-89064506D01*
X139821996Y-89071569D01*
X139809576Y-89077443D01*
X139796640Y-89082072D01*
X139783313Y-89085410D01*
X139769722Y-89087426D01*
X139756000Y-89088100D01*
X139136000Y-89088100D01*
X139122278Y-89087426D01*
X139108687Y-89085410D01*
X139095360Y-89082072D01*
X139082424Y-89077443D01*
X139070004Y-89071569D01*
X139058220Y-89064506D01*
X139047185Y-89056321D01*
X139037005Y-89047095D01*
X139027779Y-89036915D01*
X139019594Y-89025880D01*
X139012531Y-89014096D01*
X139006657Y-89001676D01*
X139002028Y-88988740D01*
X138998690Y-88975413D01*
X138996674Y-88961822D01*
X138996000Y-88948100D01*
X138996000Y-88528100D01*
X138996674Y-88514378D01*
X138998690Y-88500787D01*
X139002028Y-88487460D01*
X139006657Y-88474524D01*
X139012531Y-88462104D01*
X139019594Y-88450320D01*
X139027779Y-88439285D01*
X139037005Y-88429105D01*
X139047185Y-88419879D01*
X139058220Y-88411694D01*
X139070004Y-88404631D01*
X139082424Y-88398757D01*
X139095360Y-88394128D01*
X139108687Y-88390790D01*
X139122278Y-88388774D01*
X139136000Y-88388100D01*
X139756000Y-88388100D01*
X139769722Y-88388774D01*
X139769722Y-88388774D01*
G37*
D12*
G04 #@! TD*
G04 #@! TO.P,U1,17*
G04 #@! TO.N,USB_N*
X139446000Y-88738100D03*
D10*
G04 #@! TO.N,GND*
G04 #@! TO.C,U1*
G36*
X141039722Y-88388774D02*
X141053313Y-88390790D01*
X141066640Y-88394128D01*
X141079576Y-88398757D01*
X141091996Y-88404631D01*
X141103780Y-88411694D01*
X141114815Y-88419879D01*
X141124995Y-88429105D01*
X141134221Y-88439285D01*
X141142406Y-88450320D01*
X141149469Y-88462104D01*
X141155343Y-88474524D01*
X141159972Y-88487460D01*
X141163310Y-88500787D01*
X141165326Y-88514378D01*
X141166000Y-88528100D01*
X141166000Y-88948100D01*
X141165326Y-88961822D01*
X141163310Y-88975413D01*
X141159972Y-88988740D01*
X141155343Y-89001676D01*
X141149469Y-89014096D01*
X141142406Y-89025880D01*
X141134221Y-89036915D01*
X141124995Y-89047095D01*
X141114815Y-89056321D01*
X141103780Y-89064506D01*
X141091996Y-89071569D01*
X141079576Y-89077443D01*
X141066640Y-89082072D01*
X141053313Y-89085410D01*
X141039722Y-89087426D01*
X141026000Y-89088100D01*
X140406000Y-89088100D01*
X140392278Y-89087426D01*
X140378687Y-89085410D01*
X140365360Y-89082072D01*
X140352424Y-89077443D01*
X140340004Y-89071569D01*
X140328220Y-89064506D01*
X140317185Y-89056321D01*
X140307005Y-89047095D01*
X140297779Y-89036915D01*
X140289594Y-89025880D01*
X140282531Y-89014096D01*
X140276657Y-89001676D01*
X140272028Y-88988740D01*
X140268690Y-88975413D01*
X140266674Y-88961822D01*
X140266000Y-88948100D01*
X140266000Y-88528100D01*
X140266674Y-88514378D01*
X140268690Y-88500787D01*
X140272028Y-88487460D01*
X140276657Y-88474524D01*
X140282531Y-88462104D01*
X140289594Y-88450320D01*
X140297779Y-88439285D01*
X140307005Y-88429105D01*
X140317185Y-88419879D01*
X140328220Y-88411694D01*
X140340004Y-88404631D01*
X140352424Y-88398757D01*
X140365360Y-88394128D01*
X140378687Y-88390790D01*
X140392278Y-88388774D01*
X140406000Y-88388100D01*
X141026000Y-88388100D01*
X141039722Y-88388774D01*
X141039722Y-88388774D01*
G37*
D12*
G04 #@! TD*
G04 #@! TO.P,U1,18*
G04 #@! TO.N,GND*
X140716000Y-88738100D03*
D10*
G04 #@! TO.N,VDD*
G04 #@! TO.C,U1*
G36*
X142679722Y-87180674D02*
X142693313Y-87182690D01*
X142706640Y-87186028D01*
X142719576Y-87190657D01*
X142731996Y-87196531D01*
X142743780Y-87203594D01*
X142754815Y-87211779D01*
X142764995Y-87221005D01*
X142774221Y-87231185D01*
X142782406Y-87242220D01*
X142789469Y-87254004D01*
X142795343Y-87266424D01*
X142799972Y-87279360D01*
X142803310Y-87292687D01*
X142805326Y-87306278D01*
X142806000Y-87320000D01*
X142806000Y-87940000D01*
X142805326Y-87953722D01*
X142803310Y-87967313D01*
X142799972Y-87980640D01*
X142795343Y-87993576D01*
X142789469Y-88005996D01*
X142782406Y-88017780D01*
X142774221Y-88028815D01*
X142764995Y-88038995D01*
X142754815Y-88048221D01*
X142743780Y-88056406D01*
X142731996Y-88063469D01*
X142719576Y-88069343D01*
X142706640Y-88073972D01*
X142693313Y-88077310D01*
X142679722Y-88079326D01*
X142666000Y-88080000D01*
X142246000Y-88080000D01*
X142232278Y-88079326D01*
X142218687Y-88077310D01*
X142205360Y-88073972D01*
X142192424Y-88069343D01*
X142180004Y-88063469D01*
X142168220Y-88056406D01*
X142157185Y-88048221D01*
X142147005Y-88038995D01*
X142137779Y-88028815D01*
X142129594Y-88017780D01*
X142122531Y-88005996D01*
X142116657Y-87993576D01*
X142112028Y-87980640D01*
X142108690Y-87967313D01*
X142106674Y-87953722D01*
X142106000Y-87940000D01*
X142106000Y-87320000D01*
X142106674Y-87306278D01*
X142108690Y-87292687D01*
X142112028Y-87279360D01*
X142116657Y-87266424D01*
X142122531Y-87254004D01*
X142129594Y-87242220D01*
X142137779Y-87231185D01*
X142147005Y-87221005D01*
X142157185Y-87211779D01*
X142168220Y-87203594D01*
X142180004Y-87196531D01*
X142192424Y-87190657D01*
X142205360Y-87186028D01*
X142218687Y-87182690D01*
X142232278Y-87180674D01*
X142246000Y-87180000D01*
X142666000Y-87180000D01*
X142679722Y-87180674D01*
X142679722Y-87180674D01*
G37*
D12*
G04 #@! TD*
G04 #@! TO.P,U1,19*
G04 #@! TO.N,VDD*
X142456000Y-87630000D03*
D10*
G04 #@! TO.N,~RESET*
G04 #@! TO.C,U1*
G36*
X142679722Y-85910674D02*
X142693313Y-85912690D01*
X142706640Y-85916028D01*
X142719576Y-85920657D01*
X142731996Y-85926531D01*
X142743780Y-85933594D01*
X142754815Y-85941779D01*
X142764995Y-85951005D01*
X142774221Y-85961185D01*
X142782406Y-85972220D01*
X142789469Y-85984004D01*
X142795343Y-85996424D01*
X142799972Y-86009360D01*
X142803310Y-86022687D01*
X142805326Y-86036278D01*
X142806000Y-86050000D01*
X142806000Y-86670000D01*
X142805326Y-86683722D01*
X142803310Y-86697313D01*
X142799972Y-86710640D01*
X142795343Y-86723576D01*
X142789469Y-86735996D01*
X142782406Y-86747780D01*
X142774221Y-86758815D01*
X142764995Y-86768995D01*
X142754815Y-86778221D01*
X142743780Y-86786406D01*
X142731996Y-86793469D01*
X142719576Y-86799343D01*
X142706640Y-86803972D01*
X142693313Y-86807310D01*
X142679722Y-86809326D01*
X142666000Y-86810000D01*
X142246000Y-86810000D01*
X142232278Y-86809326D01*
X142218687Y-86807310D01*
X142205360Y-86803972D01*
X142192424Y-86799343D01*
X142180004Y-86793469D01*
X142168220Y-86786406D01*
X142157185Y-86778221D01*
X142147005Y-86768995D01*
X142137779Y-86758815D01*
X142129594Y-86747780D01*
X142122531Y-86735996D01*
X142116657Y-86723576D01*
X142112028Y-86710640D01*
X142108690Y-86697313D01*
X142106674Y-86683722D01*
X142106000Y-86670000D01*
X142106000Y-86050000D01*
X142106674Y-86036278D01*
X142108690Y-86022687D01*
X142112028Y-86009360D01*
X142116657Y-85996424D01*
X142122531Y-85984004D01*
X142129594Y-85972220D01*
X142137779Y-85961185D01*
X142147005Y-85951005D01*
X142157185Y-85941779D01*
X142168220Y-85933594D01*
X142180004Y-85926531D01*
X142192424Y-85920657D01*
X142205360Y-85916028D01*
X142218687Y-85912690D01*
X142232278Y-85910674D01*
X142246000Y-85910000D01*
X142666000Y-85910000D01*
X142679722Y-85910674D01*
X142679722Y-85910674D01*
G37*
D12*
G04 #@! TD*
G04 #@! TO.P,U1,20*
G04 #@! TO.N,~RESET*
X142456000Y-86360000D03*
D10*
G04 #@! TO.N,PA30_SWDCLK*
G04 #@! TO.C,U1*
G36*
X142679722Y-84640674D02*
X142693313Y-84642690D01*
X142706640Y-84646028D01*
X142719576Y-84650657D01*
X142731996Y-84656531D01*
X142743780Y-84663594D01*
X142754815Y-84671779D01*
X142764995Y-84681005D01*
X142774221Y-84691185D01*
X142782406Y-84702220D01*
X142789469Y-84714004D01*
X142795343Y-84726424D01*
X142799972Y-84739360D01*
X142803310Y-84752687D01*
X142805326Y-84766278D01*
X142806000Y-84780000D01*
X142806000Y-85400000D01*
X142805326Y-85413722D01*
X142803310Y-85427313D01*
X142799972Y-85440640D01*
X142795343Y-85453576D01*
X142789469Y-85465996D01*
X142782406Y-85477780D01*
X142774221Y-85488815D01*
X142764995Y-85498995D01*
X142754815Y-85508221D01*
X142743780Y-85516406D01*
X142731996Y-85523469D01*
X142719576Y-85529343D01*
X142706640Y-85533972D01*
X142693313Y-85537310D01*
X142679722Y-85539326D01*
X142666000Y-85540000D01*
X142246000Y-85540000D01*
X142232278Y-85539326D01*
X142218687Y-85537310D01*
X142205360Y-85533972D01*
X142192424Y-85529343D01*
X142180004Y-85523469D01*
X142168220Y-85516406D01*
X142157185Y-85508221D01*
X142147005Y-85498995D01*
X142137779Y-85488815D01*
X142129594Y-85477780D01*
X142122531Y-85465996D01*
X142116657Y-85453576D01*
X142112028Y-85440640D01*
X142108690Y-85427313D01*
X142106674Y-85413722D01*
X142106000Y-85400000D01*
X142106000Y-84780000D01*
X142106674Y-84766278D01*
X142108690Y-84752687D01*
X142112028Y-84739360D01*
X142116657Y-84726424D01*
X142122531Y-84714004D01*
X142129594Y-84702220D01*
X142137779Y-84691185D01*
X142147005Y-84681005D01*
X142157185Y-84671779D01*
X142168220Y-84663594D01*
X142180004Y-84656531D01*
X142192424Y-84650657D01*
X142205360Y-84646028D01*
X142218687Y-84642690D01*
X142232278Y-84640674D01*
X142246000Y-84640000D01*
X142666000Y-84640000D01*
X142679722Y-84640674D01*
X142679722Y-84640674D01*
G37*
D12*
G04 #@! TD*
G04 #@! TO.P,U1,21*
G04 #@! TO.N,PA30_SWDCLK*
X142456000Y-85090000D03*
D10*
G04 #@! TO.N,PA31_SWDIO*
G04 #@! TO.C,U1*
G36*
X142679722Y-83370674D02*
X142693313Y-83372690D01*
X142706640Y-83376028D01*
X142719576Y-83380657D01*
X142731996Y-83386531D01*
X142743780Y-83393594D01*
X142754815Y-83401779D01*
X142764995Y-83411005D01*
X142774221Y-83421185D01*
X142782406Y-83432220D01*
X142789469Y-83444004D01*
X142795343Y-83456424D01*
X142799972Y-83469360D01*
X142803310Y-83482687D01*
X142805326Y-83496278D01*
X142806000Y-83510000D01*
X142806000Y-84130000D01*
X142805326Y-84143722D01*
X142803310Y-84157313D01*
X142799972Y-84170640D01*
X142795343Y-84183576D01*
X142789469Y-84195996D01*
X142782406Y-84207780D01*
X142774221Y-84218815D01*
X142764995Y-84228995D01*
X142754815Y-84238221D01*
X142743780Y-84246406D01*
X142731996Y-84253469D01*
X142719576Y-84259343D01*
X142706640Y-84263972D01*
X142693313Y-84267310D01*
X142679722Y-84269326D01*
X142666000Y-84270000D01*
X142246000Y-84270000D01*
X142232278Y-84269326D01*
X142218687Y-84267310D01*
X142205360Y-84263972D01*
X142192424Y-84259343D01*
X142180004Y-84253469D01*
X142168220Y-84246406D01*
X142157185Y-84238221D01*
X142147005Y-84228995D01*
X142137779Y-84218815D01*
X142129594Y-84207780D01*
X142122531Y-84195996D01*
X142116657Y-84183576D01*
X142112028Y-84170640D01*
X142108690Y-84157313D01*
X142106674Y-84143722D01*
X142106000Y-84130000D01*
X142106000Y-83510000D01*
X142106674Y-83496278D01*
X142108690Y-83482687D01*
X142112028Y-83469360D01*
X142116657Y-83456424D01*
X142122531Y-83444004D01*
X142129594Y-83432220D01*
X142137779Y-83421185D01*
X142147005Y-83411005D01*
X142157185Y-83401779D01*
X142168220Y-83393594D01*
X142180004Y-83386531D01*
X142192424Y-83380657D01*
X142205360Y-83376028D01*
X142218687Y-83372690D01*
X142232278Y-83370674D01*
X142246000Y-83370000D01*
X142666000Y-83370000D01*
X142679722Y-83370674D01*
X142679722Y-83370674D01*
G37*
D12*
G04 #@! TD*
G04 #@! TO.P,U1,22*
G04 #@! TO.N,PA31_SWDIO*
X142456000Y-83820000D03*
D10*
G04 #@! TO.N,+BATT*
G04 #@! TO.C,U1*
G36*
X142679722Y-82100674D02*
X142693313Y-82102690D01*
X142706640Y-82106028D01*
X142719576Y-82110657D01*
X142731996Y-82116531D01*
X142743780Y-82123594D01*
X142754815Y-82131779D01*
X142764995Y-82141005D01*
X142774221Y-82151185D01*
X142782406Y-82162220D01*
X142789469Y-82174004D01*
X142795343Y-82186424D01*
X142799972Y-82199360D01*
X142803310Y-82212687D01*
X142805326Y-82226278D01*
X142806000Y-82240000D01*
X142806000Y-82860000D01*
X142805326Y-82873722D01*
X142803310Y-82887313D01*
X142799972Y-82900640D01*
X142795343Y-82913576D01*
X142789469Y-82925996D01*
X142782406Y-82937780D01*
X142774221Y-82948815D01*
X142764995Y-82958995D01*
X142754815Y-82968221D01*
X142743780Y-82976406D01*
X142731996Y-82983469D01*
X142719576Y-82989343D01*
X142706640Y-82993972D01*
X142693313Y-82997310D01*
X142679722Y-82999326D01*
X142666000Y-83000000D01*
X142246000Y-83000000D01*
X142232278Y-82999326D01*
X142218687Y-82997310D01*
X142205360Y-82993972D01*
X142192424Y-82989343D01*
X142180004Y-82983469D01*
X142168220Y-82976406D01*
X142157185Y-82968221D01*
X142147005Y-82958995D01*
X142137779Y-82948815D01*
X142129594Y-82937780D01*
X142122531Y-82925996D01*
X142116657Y-82913576D01*
X142112028Y-82900640D01*
X142108690Y-82887313D01*
X142106674Y-82873722D01*
X142106000Y-82860000D01*
X142106000Y-82240000D01*
X142106674Y-82226278D01*
X142108690Y-82212687D01*
X142112028Y-82199360D01*
X142116657Y-82186424D01*
X142122531Y-82174004D01*
X142129594Y-82162220D01*
X142137779Y-82151185D01*
X142147005Y-82141005D01*
X142157185Y-82131779D01*
X142168220Y-82123594D01*
X142180004Y-82116531D01*
X142192424Y-82110657D01*
X142205360Y-82106028D01*
X142218687Y-82102690D01*
X142232278Y-82100674D01*
X142246000Y-82100000D01*
X142666000Y-82100000D01*
X142679722Y-82100674D01*
X142679722Y-82100674D01*
G37*
D12*
G04 #@! TD*
G04 #@! TO.P,U1,23*
G04 #@! TO.N,+BATT*
X142456000Y-82550000D03*
D10*
G04 #@! TO.N,PA28_GPIO*
G04 #@! TO.C,U1*
G36*
X142679722Y-80830674D02*
X142693313Y-80832690D01*
X142706640Y-80836028D01*
X142719576Y-80840657D01*
X142731996Y-80846531D01*
X142743780Y-80853594D01*
X142754815Y-80861779D01*
X142764995Y-80871005D01*
X142774221Y-80881185D01*
X142782406Y-80892220D01*
X142789469Y-80904004D01*
X142795343Y-80916424D01*
X142799972Y-80929360D01*
X142803310Y-80942687D01*
X142805326Y-80956278D01*
X142806000Y-80970000D01*
X142806000Y-81590000D01*
X142805326Y-81603722D01*
X142803310Y-81617313D01*
X142799972Y-81630640D01*
X142795343Y-81643576D01*
X142789469Y-81655996D01*
X142782406Y-81667780D01*
X142774221Y-81678815D01*
X142764995Y-81688995D01*
X142754815Y-81698221D01*
X142743780Y-81706406D01*
X142731996Y-81713469D01*
X142719576Y-81719343D01*
X142706640Y-81723972D01*
X142693313Y-81727310D01*
X142679722Y-81729326D01*
X142666000Y-81730000D01*
X142246000Y-81730000D01*
X142232278Y-81729326D01*
X142218687Y-81727310D01*
X142205360Y-81723972D01*
X142192424Y-81719343D01*
X142180004Y-81713469D01*
X142168220Y-81706406D01*
X142157185Y-81698221D01*
X142147005Y-81688995D01*
X142137779Y-81678815D01*
X142129594Y-81667780D01*
X142122531Y-81655996D01*
X142116657Y-81643576D01*
X142112028Y-81630640D01*
X142108690Y-81617313D01*
X142106674Y-81603722D01*
X142106000Y-81590000D01*
X142106000Y-80970000D01*
X142106674Y-80956278D01*
X142108690Y-80942687D01*
X142112028Y-80929360D01*
X142116657Y-80916424D01*
X142122531Y-80904004D01*
X142129594Y-80892220D01*
X142137779Y-80881185D01*
X142147005Y-80871005D01*
X142157185Y-80861779D01*
X142168220Y-80853594D01*
X142180004Y-80846531D01*
X142192424Y-80840657D01*
X142205360Y-80836028D01*
X142218687Y-80832690D01*
X142232278Y-80830674D01*
X142246000Y-80830000D01*
X142666000Y-80830000D01*
X142679722Y-80830674D01*
X142679722Y-80830674D01*
G37*
D12*
G04 #@! TD*
G04 #@! TO.P,U1,24*
G04 #@! TO.N,PA28_GPIO*
X142456000Y-81280000D03*
D10*
G04 #@! TO.N,PB02_S5_SPI_MISO*
G04 #@! TO.C,U1*
G36*
X142679722Y-79560674D02*
X142693313Y-79562690D01*
X142706640Y-79566028D01*
X142719576Y-79570657D01*
X142731996Y-79576531D01*
X142743780Y-79583594D01*
X142754815Y-79591779D01*
X142764995Y-79601005D01*
X142774221Y-79611185D01*
X142782406Y-79622220D01*
X142789469Y-79634004D01*
X142795343Y-79646424D01*
X142799972Y-79659360D01*
X142803310Y-79672687D01*
X142805326Y-79686278D01*
X142806000Y-79700000D01*
X142806000Y-80320000D01*
X142805326Y-80333722D01*
X142803310Y-80347313D01*
X142799972Y-80360640D01*
X142795343Y-80373576D01*
X142789469Y-80385996D01*
X142782406Y-80397780D01*
X142774221Y-80408815D01*
X142764995Y-80418995D01*
X142754815Y-80428221D01*
X142743780Y-80436406D01*
X142731996Y-80443469D01*
X142719576Y-80449343D01*
X142706640Y-80453972D01*
X142693313Y-80457310D01*
X142679722Y-80459326D01*
X142666000Y-80460000D01*
X142246000Y-80460000D01*
X142232278Y-80459326D01*
X142218687Y-80457310D01*
X142205360Y-80453972D01*
X142192424Y-80449343D01*
X142180004Y-80443469D01*
X142168220Y-80436406D01*
X142157185Y-80428221D01*
X142147005Y-80418995D01*
X142137779Y-80408815D01*
X142129594Y-80397780D01*
X142122531Y-80385996D01*
X142116657Y-80373576D01*
X142112028Y-80360640D01*
X142108690Y-80347313D01*
X142106674Y-80333722D01*
X142106000Y-80320000D01*
X142106000Y-79700000D01*
X142106674Y-79686278D01*
X142108690Y-79672687D01*
X142112028Y-79659360D01*
X142116657Y-79646424D01*
X142122531Y-79634004D01*
X142129594Y-79622220D01*
X142137779Y-79611185D01*
X142147005Y-79601005D01*
X142157185Y-79591779D01*
X142168220Y-79583594D01*
X142180004Y-79576531D01*
X142192424Y-79570657D01*
X142205360Y-79566028D01*
X142218687Y-79562690D01*
X142232278Y-79560674D01*
X142246000Y-79560000D01*
X142666000Y-79560000D01*
X142679722Y-79560674D01*
X142679722Y-79560674D01*
G37*
D12*
G04 #@! TD*
G04 #@! TO.P,U1,25*
G04 #@! TO.N,PB02_S5_SPI_MISO*
X142456000Y-80010000D03*
D10*
G04 #@! TO.N,PA05_S0_UART_RX*
G04 #@! TO.C,U1*
G36*
X142679722Y-78290674D02*
X142693313Y-78292690D01*
X142706640Y-78296028D01*
X142719576Y-78300657D01*
X142731996Y-78306531D01*
X142743780Y-78313594D01*
X142754815Y-78321779D01*
X142764995Y-78331005D01*
X142774221Y-78341185D01*
X142782406Y-78352220D01*
X142789469Y-78364004D01*
X142795343Y-78376424D01*
X142799972Y-78389360D01*
X142803310Y-78402687D01*
X142805326Y-78416278D01*
X142806000Y-78430000D01*
X142806000Y-79050000D01*
X142805326Y-79063722D01*
X142803310Y-79077313D01*
X142799972Y-79090640D01*
X142795343Y-79103576D01*
X142789469Y-79115996D01*
X142782406Y-79127780D01*
X142774221Y-79138815D01*
X142764995Y-79148995D01*
X142754815Y-79158221D01*
X142743780Y-79166406D01*
X142731996Y-79173469D01*
X142719576Y-79179343D01*
X142706640Y-79183972D01*
X142693313Y-79187310D01*
X142679722Y-79189326D01*
X142666000Y-79190000D01*
X142246000Y-79190000D01*
X142232278Y-79189326D01*
X142218687Y-79187310D01*
X142205360Y-79183972D01*
X142192424Y-79179343D01*
X142180004Y-79173469D01*
X142168220Y-79166406D01*
X142157185Y-79158221D01*
X142147005Y-79148995D01*
X142137779Y-79138815D01*
X142129594Y-79127780D01*
X142122531Y-79115996D01*
X142116657Y-79103576D01*
X142112028Y-79090640D01*
X142108690Y-79077313D01*
X142106674Y-79063722D01*
X142106000Y-79050000D01*
X142106000Y-78430000D01*
X142106674Y-78416278D01*
X142108690Y-78402687D01*
X142112028Y-78389360D01*
X142116657Y-78376424D01*
X142122531Y-78364004D01*
X142129594Y-78352220D01*
X142137779Y-78341185D01*
X142147005Y-78331005D01*
X142157185Y-78321779D01*
X142168220Y-78313594D01*
X142180004Y-78306531D01*
X142192424Y-78300657D01*
X142205360Y-78296028D01*
X142218687Y-78292690D01*
X142232278Y-78290674D01*
X142246000Y-78290000D01*
X142666000Y-78290000D01*
X142679722Y-78290674D01*
X142679722Y-78290674D01*
G37*
D12*
G04 #@! TD*
G04 #@! TO.P,U1,26*
G04 #@! TO.N,PA05_S0_UART_RX*
X142456000Y-78740000D03*
D10*
G04 #@! TO.N,PA04_S0_UART_TX*
G04 #@! TO.C,U1*
G36*
X142679722Y-77020674D02*
X142693313Y-77022690D01*
X142706640Y-77026028D01*
X142719576Y-77030657D01*
X142731996Y-77036531D01*
X142743780Y-77043594D01*
X142754815Y-77051779D01*
X142764995Y-77061005D01*
X142774221Y-77071185D01*
X142782406Y-77082220D01*
X142789469Y-77094004D01*
X142795343Y-77106424D01*
X142799972Y-77119360D01*
X142803310Y-77132687D01*
X142805326Y-77146278D01*
X142806000Y-77160000D01*
X142806000Y-77780000D01*
X142805326Y-77793722D01*
X142803310Y-77807313D01*
X142799972Y-77820640D01*
X142795343Y-77833576D01*
X142789469Y-77845996D01*
X142782406Y-77857780D01*
X142774221Y-77868815D01*
X142764995Y-77878995D01*
X142754815Y-77888221D01*
X142743780Y-77896406D01*
X142731996Y-77903469D01*
X142719576Y-77909343D01*
X142706640Y-77913972D01*
X142693313Y-77917310D01*
X142679722Y-77919326D01*
X142666000Y-77920000D01*
X142246000Y-77920000D01*
X142232278Y-77919326D01*
X142218687Y-77917310D01*
X142205360Y-77913972D01*
X142192424Y-77909343D01*
X142180004Y-77903469D01*
X142168220Y-77896406D01*
X142157185Y-77888221D01*
X142147005Y-77878995D01*
X142137779Y-77868815D01*
X142129594Y-77857780D01*
X142122531Y-77845996D01*
X142116657Y-77833576D01*
X142112028Y-77820640D01*
X142108690Y-77807313D01*
X142106674Y-77793722D01*
X142106000Y-77780000D01*
X142106000Y-77160000D01*
X142106674Y-77146278D01*
X142108690Y-77132687D01*
X142112028Y-77119360D01*
X142116657Y-77106424D01*
X142122531Y-77094004D01*
X142129594Y-77082220D01*
X142137779Y-77071185D01*
X142147005Y-77061005D01*
X142157185Y-77051779D01*
X142168220Y-77043594D01*
X142180004Y-77036531D01*
X142192424Y-77030657D01*
X142205360Y-77026028D01*
X142218687Y-77022690D01*
X142232278Y-77020674D01*
X142246000Y-77020000D01*
X142666000Y-77020000D01*
X142679722Y-77020674D01*
X142679722Y-77020674D01*
G37*
D12*
G04 #@! TD*
G04 #@! TO.P,U1,27*
G04 #@! TO.N,PA04_S0_UART_TX*
X142456000Y-77470000D03*
D10*
G04 #@! TO.N,GND*
G04 #@! TO.C,U1*
G36*
X142679722Y-75750674D02*
X142693313Y-75752690D01*
X142706640Y-75756028D01*
X142719576Y-75760657D01*
X142731996Y-75766531D01*
X142743780Y-75773594D01*
X142754815Y-75781779D01*
X142764995Y-75791005D01*
X142774221Y-75801185D01*
X142782406Y-75812220D01*
X142789469Y-75824004D01*
X142795343Y-75836424D01*
X142799972Y-75849360D01*
X142803310Y-75862687D01*
X142805326Y-75876278D01*
X142806000Y-75890000D01*
X142806000Y-76510000D01*
X142805326Y-76523722D01*
X142803310Y-76537313D01*
X142799972Y-76550640D01*
X142795343Y-76563576D01*
X142789469Y-76575996D01*
X142782406Y-76587780D01*
X142774221Y-76598815D01*
X142764995Y-76608995D01*
X142754815Y-76618221D01*
X142743780Y-76626406D01*
X142731996Y-76633469D01*
X142719576Y-76639343D01*
X142706640Y-76643972D01*
X142693313Y-76647310D01*
X142679722Y-76649326D01*
X142666000Y-76650000D01*
X142246000Y-76650000D01*
X142232278Y-76649326D01*
X142218687Y-76647310D01*
X142205360Y-76643972D01*
X142192424Y-76639343D01*
X142180004Y-76633469D01*
X142168220Y-76626406D01*
X142157185Y-76618221D01*
X142147005Y-76608995D01*
X142137779Y-76598815D01*
X142129594Y-76587780D01*
X142122531Y-76575996D01*
X142116657Y-76563576D01*
X142112028Y-76550640D01*
X142108690Y-76537313D01*
X142106674Y-76523722D01*
X142106000Y-76510000D01*
X142106000Y-75890000D01*
X142106674Y-75876278D01*
X142108690Y-75862687D01*
X142112028Y-75849360D01*
X142116657Y-75836424D01*
X142122531Y-75824004D01*
X142129594Y-75812220D01*
X142137779Y-75801185D01*
X142147005Y-75791005D01*
X142157185Y-75781779D01*
X142168220Y-75773594D01*
X142180004Y-75766531D01*
X142192424Y-75760657D01*
X142205360Y-75756028D01*
X142218687Y-75752690D01*
X142232278Y-75750674D01*
X142246000Y-75750000D01*
X142666000Y-75750000D01*
X142679722Y-75750674D01*
X142679722Y-75750674D01*
G37*
D12*
G04 #@! TD*
G04 #@! TO.P,U1,28*
G04 #@! TO.N,GND*
X142456000Y-76200000D03*
D10*
G04 #@! TO.N,GND*
G04 #@! TO.C,U1*
G36*
X138499722Y-73475674D02*
X138513313Y-73477690D01*
X138526640Y-73481028D01*
X138539576Y-73485657D01*
X138551996Y-73491531D01*
X138563780Y-73498594D01*
X138574815Y-73506779D01*
X138584995Y-73516005D01*
X138594221Y-73526185D01*
X138602406Y-73537220D01*
X138609469Y-73549004D01*
X138615343Y-73561424D01*
X138619972Y-73574360D01*
X138623310Y-73587687D01*
X138625326Y-73601278D01*
X138626000Y-73615000D01*
X138626000Y-74035000D01*
X138625326Y-74048722D01*
X138623310Y-74062313D01*
X138619972Y-74075640D01*
X138615343Y-74088576D01*
X138609469Y-74100996D01*
X138602406Y-74112780D01*
X138594221Y-74123815D01*
X138584995Y-74133995D01*
X138574815Y-74143221D01*
X138563780Y-74151406D01*
X138551996Y-74158469D01*
X138539576Y-74164343D01*
X138526640Y-74168972D01*
X138513313Y-74172310D01*
X138499722Y-74174326D01*
X138486000Y-74175000D01*
X137866000Y-74175000D01*
X137852278Y-74174326D01*
X137838687Y-74172310D01*
X137825360Y-74168972D01*
X137812424Y-74164343D01*
X137800004Y-74158469D01*
X137788220Y-74151406D01*
X137777185Y-74143221D01*
X137767005Y-74133995D01*
X137757779Y-74123815D01*
X137749594Y-74112780D01*
X137742531Y-74100996D01*
X137736657Y-74088576D01*
X137732028Y-74075640D01*
X137728690Y-74062313D01*
X137726674Y-74048722D01*
X137726000Y-74035000D01*
X137726000Y-73615000D01*
X137726674Y-73601278D01*
X137728690Y-73587687D01*
X137732028Y-73574360D01*
X137736657Y-73561424D01*
X137742531Y-73549004D01*
X137749594Y-73537220D01*
X137757779Y-73526185D01*
X137767005Y-73516005D01*
X137777185Y-73506779D01*
X137788220Y-73498594D01*
X137800004Y-73491531D01*
X137812424Y-73485657D01*
X137825360Y-73481028D01*
X137838687Y-73477690D01*
X137852278Y-73475674D01*
X137866000Y-73475000D01*
X138486000Y-73475000D01*
X138499722Y-73475674D01*
X138499722Y-73475674D01*
G37*
D12*
G04 #@! TD*
G04 #@! TO.P,U1,31*
G04 #@! TO.N,GND*
X138176000Y-73825000D03*
D10*
G04 #@! TO.N,ANT_PAD*
G04 #@! TO.C,U1*
G36*
X139769722Y-73475674D02*
X139783313Y-73477690D01*
X139796640Y-73481028D01*
X139809576Y-73485657D01*
X139821996Y-73491531D01*
X139833780Y-73498594D01*
X139844815Y-73506779D01*
X139854995Y-73516005D01*
X139864221Y-73526185D01*
X139872406Y-73537220D01*
X139879469Y-73549004D01*
X139885343Y-73561424D01*
X139889972Y-73574360D01*
X139893310Y-73587687D01*
X139895326Y-73601278D01*
X139896000Y-73615000D01*
X139896000Y-74035000D01*
X139895326Y-74048722D01*
X139893310Y-74062313D01*
X139889972Y-74075640D01*
X139885343Y-74088576D01*
X139879469Y-74100996D01*
X139872406Y-74112780D01*
X139864221Y-74123815D01*
X139854995Y-74133995D01*
X139844815Y-74143221D01*
X139833780Y-74151406D01*
X139821996Y-74158469D01*
X139809576Y-74164343D01*
X139796640Y-74168972D01*
X139783313Y-74172310D01*
X139769722Y-74174326D01*
X139756000Y-74175000D01*
X139136000Y-74175000D01*
X139122278Y-74174326D01*
X139108687Y-74172310D01*
X139095360Y-74168972D01*
X139082424Y-74164343D01*
X139070004Y-74158469D01*
X139058220Y-74151406D01*
X139047185Y-74143221D01*
X139037005Y-74133995D01*
X139027779Y-74123815D01*
X139019594Y-74112780D01*
X139012531Y-74100996D01*
X139006657Y-74088576D01*
X139002028Y-74075640D01*
X138998690Y-74062313D01*
X138996674Y-74048722D01*
X138996000Y-74035000D01*
X138996000Y-73615000D01*
X138996674Y-73601278D01*
X138998690Y-73587687D01*
X139002028Y-73574360D01*
X139006657Y-73561424D01*
X139012531Y-73549004D01*
X139019594Y-73537220D01*
X139027779Y-73526185D01*
X139037005Y-73516005D01*
X139047185Y-73506779D01*
X139058220Y-73498594D01*
X139070004Y-73491531D01*
X139082424Y-73485657D01*
X139095360Y-73481028D01*
X139108687Y-73477690D01*
X139122278Y-73475674D01*
X139136000Y-73475000D01*
X139756000Y-73475000D01*
X139769722Y-73475674D01*
X139769722Y-73475674D01*
G37*
D12*
G04 #@! TD*
G04 #@! TO.P,U1,30*
G04 #@! TO.N,ANT_PAD*
X139446000Y-73825000D03*
D10*
G04 #@! TO.N,GND*
G04 #@! TO.C,U1*
G36*
X141039722Y-73475674D02*
X141053313Y-73477690D01*
X141066640Y-73481028D01*
X141079576Y-73485657D01*
X141091996Y-73491531D01*
X141103780Y-73498594D01*
X141114815Y-73506779D01*
X141124995Y-73516005D01*
X141134221Y-73526185D01*
X141142406Y-73537220D01*
X141149469Y-73549004D01*
X141155343Y-73561424D01*
X141159972Y-73574360D01*
X141163310Y-73587687D01*
X141165326Y-73601278D01*
X141166000Y-73615000D01*
X141166000Y-74035000D01*
X141165326Y-74048722D01*
X141163310Y-74062313D01*
X141159972Y-74075640D01*
X141155343Y-74088576D01*
X141149469Y-74100996D01*
X141142406Y-74112780D01*
X141134221Y-74123815D01*
X141124995Y-74133995D01*
X141114815Y-74143221D01*
X141103780Y-74151406D01*
X141091996Y-74158469D01*
X141079576Y-74164343D01*
X141066640Y-74168972D01*
X141053313Y-74172310D01*
X141039722Y-74174326D01*
X141026000Y-74175000D01*
X140406000Y-74175000D01*
X140392278Y-74174326D01*
X140378687Y-74172310D01*
X140365360Y-74168972D01*
X140352424Y-74164343D01*
X140340004Y-74158469D01*
X140328220Y-74151406D01*
X140317185Y-74143221D01*
X140307005Y-74133995D01*
X140297779Y-74123815D01*
X140289594Y-74112780D01*
X140282531Y-74100996D01*
X140276657Y-74088576D01*
X140272028Y-74075640D01*
X140268690Y-74062313D01*
X140266674Y-74048722D01*
X140266000Y-74035000D01*
X140266000Y-73615000D01*
X140266674Y-73601278D01*
X140268690Y-73587687D01*
X140272028Y-73574360D01*
X140276657Y-73561424D01*
X140282531Y-73549004D01*
X140289594Y-73537220D01*
X140297779Y-73526185D01*
X140307005Y-73516005D01*
X140317185Y-73506779D01*
X140328220Y-73498594D01*
X140340004Y-73491531D01*
X140352424Y-73485657D01*
X140365360Y-73481028D01*
X140378687Y-73477690D01*
X140392278Y-73475674D01*
X140406000Y-73475000D01*
X141026000Y-73475000D01*
X141039722Y-73475674D01*
X141039722Y-73475674D01*
G37*
D12*
G04 #@! TD*
G04 #@! TO.P,U1,29*
G04 #@! TO.N,GND*
X140716000Y-73825000D03*
D10*
G04 #@! TO.N,GND*
G04 #@! TO.C,U1*
G36*
X138463643Y-72575867D02*
X138481116Y-72578459D01*
X138498251Y-72582751D01*
X138514883Y-72588702D01*
X138530851Y-72596254D01*
X138546003Y-72605335D01*
X138560191Y-72615858D01*
X138573279Y-72627721D01*
X138585142Y-72640809D01*
X138595665Y-72654997D01*
X138604746Y-72670149D01*
X138612298Y-72686117D01*
X138618249Y-72702749D01*
X138622541Y-72719884D01*
X138625133Y-72737357D01*
X138626000Y-72755000D01*
X138626000Y-73595000D01*
X138625133Y-73612643D01*
X138622541Y-73630116D01*
X138618249Y-73647251D01*
X138612298Y-73663883D01*
X138604746Y-73679851D01*
X138595665Y-73695003D01*
X138585142Y-73709191D01*
X138573279Y-73722279D01*
X138560191Y-73734142D01*
X138546003Y-73744665D01*
X138530851Y-73753746D01*
X138514883Y-73761298D01*
X138498251Y-73767249D01*
X138481116Y-73771541D01*
X138463643Y-73774133D01*
X138446000Y-73775000D01*
X137906000Y-73775000D01*
X137888357Y-73774133D01*
X137870884Y-73771541D01*
X137853749Y-73767249D01*
X137837117Y-73761298D01*
X137821149Y-73753746D01*
X137805997Y-73744665D01*
X137791809Y-73734142D01*
X137778721Y-73722279D01*
X137766858Y-73709191D01*
X137756335Y-73695003D01*
X137747254Y-73679851D01*
X137739702Y-73663883D01*
X137733751Y-73647251D01*
X137729459Y-73630116D01*
X137726867Y-73612643D01*
X137726000Y-73595000D01*
X137726000Y-72755000D01*
X137726867Y-72737357D01*
X137729459Y-72719884D01*
X137733751Y-72702749D01*
X137739702Y-72686117D01*
X137747254Y-72670149D01*
X137756335Y-72654997D01*
X137766858Y-72640809D01*
X137778721Y-72627721D01*
X137791809Y-72615858D01*
X137805997Y-72605335D01*
X137821149Y-72596254D01*
X137837117Y-72588702D01*
X137853749Y-72582751D01*
X137870884Y-72578459D01*
X137888357Y-72575867D01*
X137906000Y-72575000D01*
X138446000Y-72575000D01*
X138463643Y-72575867D01*
X138463643Y-72575867D01*
G37*
D11*
G04 #@! TD*
G04 #@! TO.P,U1,31*
G04 #@! TO.N,GND*
X138176000Y-73175000D03*
D10*
G04 #@! TO.N,ANT_PAD*
G04 #@! TO.C,U1*
G36*
X139733643Y-72575867D02*
X139751116Y-72578459D01*
X139768251Y-72582751D01*
X139784883Y-72588702D01*
X139800851Y-72596254D01*
X139816003Y-72605335D01*
X139830191Y-72615858D01*
X139843279Y-72627721D01*
X139855142Y-72640809D01*
X139865665Y-72654997D01*
X139874746Y-72670149D01*
X139882298Y-72686117D01*
X139888249Y-72702749D01*
X139892541Y-72719884D01*
X139895133Y-72737357D01*
X139896000Y-72755000D01*
X139896000Y-73595000D01*
X139895133Y-73612643D01*
X139892541Y-73630116D01*
X139888249Y-73647251D01*
X139882298Y-73663883D01*
X139874746Y-73679851D01*
X139865665Y-73695003D01*
X139855142Y-73709191D01*
X139843279Y-73722279D01*
X139830191Y-73734142D01*
X139816003Y-73744665D01*
X139800851Y-73753746D01*
X139784883Y-73761298D01*
X139768251Y-73767249D01*
X139751116Y-73771541D01*
X139733643Y-73774133D01*
X139716000Y-73775000D01*
X139176000Y-73775000D01*
X139158357Y-73774133D01*
X139140884Y-73771541D01*
X139123749Y-73767249D01*
X139107117Y-73761298D01*
X139091149Y-73753746D01*
X139075997Y-73744665D01*
X139061809Y-73734142D01*
X139048721Y-73722279D01*
X139036858Y-73709191D01*
X139026335Y-73695003D01*
X139017254Y-73679851D01*
X139009702Y-73663883D01*
X139003751Y-73647251D01*
X138999459Y-73630116D01*
X138996867Y-73612643D01*
X138996000Y-73595000D01*
X138996000Y-72755000D01*
X138996867Y-72737357D01*
X138999459Y-72719884D01*
X139003751Y-72702749D01*
X139009702Y-72686117D01*
X139017254Y-72670149D01*
X139026335Y-72654997D01*
X139036858Y-72640809D01*
X139048721Y-72627721D01*
X139061809Y-72615858D01*
X139075997Y-72605335D01*
X139091149Y-72596254D01*
X139107117Y-72588702D01*
X139123749Y-72582751D01*
X139140884Y-72578459D01*
X139158357Y-72575867D01*
X139176000Y-72575000D01*
X139716000Y-72575000D01*
X139733643Y-72575867D01*
X139733643Y-72575867D01*
G37*
D11*
G04 #@! TD*
G04 #@! TO.P,U1,30*
G04 #@! TO.N,ANT_PAD*
X139446000Y-73175000D03*
D10*
G04 #@! TO.N,GND*
G04 #@! TO.C,U1*
G36*
X141003643Y-72575867D02*
X141021116Y-72578459D01*
X141038251Y-72582751D01*
X141054883Y-72588702D01*
X141070851Y-72596254D01*
X141086003Y-72605335D01*
X141100191Y-72615858D01*
X141113279Y-72627721D01*
X141125142Y-72640809D01*
X141135665Y-72654997D01*
X141144746Y-72670149D01*
X141152298Y-72686117D01*
X141158249Y-72702749D01*
X141162541Y-72719884D01*
X141165133Y-72737357D01*
X141166000Y-72755000D01*
X141166000Y-73595000D01*
X141165133Y-73612643D01*
X141162541Y-73630116D01*
X141158249Y-73647251D01*
X141152298Y-73663883D01*
X141144746Y-73679851D01*
X141135665Y-73695003D01*
X141125142Y-73709191D01*
X141113279Y-73722279D01*
X141100191Y-73734142D01*
X141086003Y-73744665D01*
X141070851Y-73753746D01*
X141054883Y-73761298D01*
X141038251Y-73767249D01*
X141021116Y-73771541D01*
X141003643Y-73774133D01*
X140986000Y-73775000D01*
X140446000Y-73775000D01*
X140428357Y-73774133D01*
X140410884Y-73771541D01*
X140393749Y-73767249D01*
X140377117Y-73761298D01*
X140361149Y-73753746D01*
X140345997Y-73744665D01*
X140331809Y-73734142D01*
X140318721Y-73722279D01*
X140306858Y-73709191D01*
X140296335Y-73695003D01*
X140287254Y-73679851D01*
X140279702Y-73663883D01*
X140273751Y-73647251D01*
X140269459Y-73630116D01*
X140266867Y-73612643D01*
X140266000Y-73595000D01*
X140266000Y-72755000D01*
X140266867Y-72737357D01*
X140269459Y-72719884D01*
X140273751Y-72702749D01*
X140279702Y-72686117D01*
X140287254Y-72670149D01*
X140296335Y-72654997D01*
X140306858Y-72640809D01*
X140318721Y-72627721D01*
X140331809Y-72615858D01*
X140345997Y-72605335D01*
X140361149Y-72596254D01*
X140377117Y-72588702D01*
X140393749Y-72582751D01*
X140410884Y-72578459D01*
X140428357Y-72575867D01*
X140446000Y-72575000D01*
X140986000Y-72575000D01*
X141003643Y-72575867D01*
X141003643Y-72575867D01*
G37*
D11*
G04 #@! TD*
G04 #@! TO.P,U1,29*
G04 #@! TO.N,GND*
X140716000Y-73175000D03*
D13*
G04 #@! TO.N,VDDA*
X137560000Y-82170000D03*
X137510000Y-82770000D03*
X139940000Y-77050000D03*
X139940000Y-78450000D03*
X132954500Y-83162500D03*
X133375000Y-83162500D03*
X139507575Y-82193458D03*
G04 #@! TO.N,GND*
X139440000Y-75610000D03*
X138690000Y-74250000D03*
X140190000Y-74270000D03*
X138188700Y-74561700D03*
X137160000Y-73660000D03*
X135890000Y-73660000D03*
X134620000Y-73660000D03*
X133350000Y-73660000D03*
X132080000Y-73660000D03*
X130810000Y-73660000D03*
X129662600Y-73660000D03*
X129662600Y-74930000D03*
X130810000Y-74930000D03*
X132080000Y-74930000D03*
X132080000Y-76200000D03*
X136804400Y-74549000D03*
X137566400Y-74549000D03*
X130810000Y-77482700D03*
X132130800Y-77470000D03*
X132892800Y-77571600D03*
X132867400Y-76911200D03*
X130886200Y-76174600D03*
X131419600Y-76885800D03*
X131521200Y-75565000D03*
X131521200Y-74244200D03*
X130327400Y-74193400D03*
X130276600Y-75412600D03*
X132840000Y-79060000D03*
X134350000Y-82220000D03*
X136240000Y-82160000D03*
X136250000Y-82820000D03*
X136310000Y-85410000D03*
X137390706Y-87600000D03*
X141804984Y-86925000D03*
X141830000Y-85810000D03*
X141300000Y-84780000D03*
X138860000Y-80820000D03*
X139270000Y-80350000D03*
X139640000Y-79970000D03*
X140350000Y-80900000D03*
X140030000Y-79590000D03*
X140420000Y-79280000D03*
X141480000Y-73510000D03*
X141860000Y-76200000D03*
X141860000Y-75520000D03*
X141710000Y-75000000D03*
X141300000Y-74720000D03*
X140820000Y-74680000D03*
X140860000Y-75540000D03*
X140850000Y-76080000D03*
X140920000Y-76920000D03*
X140910000Y-78170000D03*
X142800000Y-73450000D03*
X142790000Y-75210000D03*
X137940000Y-75620000D03*
X137350000Y-75630000D03*
X136800000Y-75650000D03*
X136275000Y-75660000D03*
X135775000Y-75670000D03*
X132918200Y-74406760D03*
X137075000Y-77600000D03*
X137075000Y-78300000D03*
X138725000Y-78500000D03*
X137775000Y-77825000D03*
X137930000Y-76590000D03*
X137360000Y-76570000D03*
X136800000Y-76575000D03*
X136275000Y-76575000D03*
X135775000Y-76575000D03*
X135750000Y-77075000D03*
X137575000Y-77150000D03*
X138525000Y-79525000D03*
X138504190Y-80029190D03*
X139301253Y-78388272D03*
X134513360Y-75671640D03*
X135225000Y-75600000D03*
X133975000Y-75675000D03*
X134000000Y-76475000D03*
X133980000Y-77230000D03*
X134000000Y-77950000D03*
X133990000Y-78600000D03*
X134525000Y-80425000D03*
X133800000Y-81100000D03*
X133390000Y-80680000D03*
X135950000Y-81230000D03*
X135370000Y-81260000D03*
X136855200Y-79806800D03*
X136175000Y-79450000D03*
X131320000Y-83450000D03*
X133616404Y-84699727D03*
X132240000Y-86790000D03*
X130875000Y-86950000D03*
X141535042Y-82815051D03*
X136290000Y-84120000D03*
X138947053Y-82759024D03*
X141850000Y-78100000D03*
X139680000Y-81540000D03*
X140686597Y-80540017D03*
X141375047Y-79925047D03*
X141745047Y-79555047D03*
X138410000Y-81240000D03*
X141540000Y-89130000D03*
X132060000Y-78280000D03*
X131230000Y-84250000D03*
X134930000Y-87570000D03*
X134164719Y-80088464D03*
X131150000Y-79620000D03*
X130688431Y-81777459D03*
X134990000Y-82210000D03*
X138200210Y-82820000D03*
X134340000Y-86070210D03*
X137590000Y-84760000D03*
X134340000Y-84759790D03*
X134330000Y-85440210D03*
X137610000Y-85480000D03*
X132200000Y-82130000D03*
X132090000Y-78880000D03*
X131240000Y-78000000D03*
X141820000Y-76890000D03*
G04 #@! TO.N,VDD*
X134001342Y-87412142D03*
D14*
X140710000Y-87520000D03*
X141782774Y-87630000D03*
X142544800Y-88747600D03*
D13*
X131500000Y-81160000D03*
X131980000Y-81140000D03*
X134340000Y-84110000D03*
X131094797Y-81160015D03*
X132989996Y-84450004D03*
G04 #@! TO.N,~RESET*
X139210000Y-87470000D03*
X138190000Y-84820000D03*
X139220000Y-85330000D03*
G04 #@! TO.N,+BATT*
X142240000Y-82289999D03*
X137530000Y-83450000D03*
G04 #@! TO.N,TCXO_PWR*
X134985442Y-84770000D03*
X131882984Y-85175000D03*
G04 #@! TO.N,PA04_S0_UART_TX*
X136888513Y-82869987D03*
G04 #@! TO.N,PA05_S0_UART_RX*
X136940000Y-83500000D03*
G04 #@! TO.N,PA30_SWDCLK*
X136940000Y-84770000D03*
G04 #@! TO.N,PA31_SWDIO*
X136890000Y-84160000D03*
G04 #@! TO.N,PB23_S5_SPI_SCK*
X133504110Y-85840000D03*
X137520000Y-86030000D03*
G04 #@! TO.N,PB22_S5_SPI_MOSI*
X135640000Y-84160000D03*
G04 #@! TO.N,PB02_S5_SPI_MISO*
X138200000Y-84119790D03*
G04 #@! TO.N,PA28_GPIO*
X136951286Y-85402592D03*
X139728128Y-84448853D03*
G04 #@! TO.N,PA27_GPIO*
X135650000Y-83520000D03*
G04 #@! TO.N,PA23_S5_SPI_SS*
X136890000Y-86050000D03*
G04 #@! TO.N,PA18_PWM_T0_W2*
X135650000Y-86060000D03*
G04 #@! TO.N,PA17_S1_I2C_SCL*
X135650000Y-85400000D03*
G04 #@! TO.N,PA16_S1_I2C_SDA*
X135010000Y-86050000D03*
G04 #@! TO.N,PA15_GPIO*
X135033503Y-87004898D03*
G04 #@! TO.N,PA14_GPIO*
X135598834Y-87230272D03*
G04 #@! TO.N,PA08_GPIO*
X134980000Y-84130000D03*
G04 #@! TO.N,PA07_ADC7*
X135002126Y-83449790D03*
G04 #@! TO.N,PA06_ADC6*
X135650000Y-82870000D03*
G04 #@! TO.N,BAND_SEL*
X135600000Y-84810000D03*
X138805920Y-77134720D03*
X141095215Y-80893915D03*
X139595056Y-83349371D03*
G04 #@! TO.N,TXRX_RF*
X136880000Y-82230000D03*
X139364720Y-77201508D03*
G04 #@! TO.N,USB_N*
X138337068Y-87057087D03*
G04 #@! TO.N,USB_P*
X138170000Y-87510002D03*
G04 #@! TD*
D15*
G04 #@! TO.N,GND*
X130810000Y-77482700D02*
X130810000Y-77482700D01*
X130810000Y-77470000D02*
X130810000Y-77482700D01*
X140716000Y-74025000D02*
X140716000Y-73265110D01*
X138176000Y-74025000D02*
X138176000Y-73265110D01*
X140716000Y-88624000D02*
X140716000Y-88938100D01*
X140716000Y-88938100D02*
X140716000Y-89269490D01*
D16*
G04 #@! TO.N,VDD*
X142256000Y-88458800D02*
X142544800Y-88747600D01*
X142256000Y-87630000D02*
X142256000Y-88458800D01*
D17*
X141782774Y-87630000D02*
X142256000Y-87630000D01*
D15*
G04 #@! TO.N,~RESET*
X143256000Y-86360000D02*
X142256000Y-86360000D01*
D18*
X140320000Y-86360000D02*
X142256000Y-86360000D01*
X139210000Y-87470000D02*
X140320000Y-86360000D01*
D19*
X138700000Y-85330000D02*
X138190000Y-84820000D01*
X139220000Y-85330000D02*
X138700000Y-85330000D01*
D20*
G04 #@! TO.N,+BATT*
X142256000Y-82550000D02*
X142952390Y-82550000D01*
D21*
X142248554Y-82550000D02*
X142240000Y-82541446D01*
X142256000Y-82550000D02*
X142248554Y-82550000D01*
X142240000Y-82541446D02*
X142240000Y-82289999D01*
D19*
G04 #@! TO.N,TCXO_PWR*
X131957984Y-85100000D02*
X131882984Y-85175000D01*
X134670073Y-85100000D02*
X131957984Y-85100000D01*
X134985442Y-84784631D02*
X134670073Y-85100000D01*
D15*
G04 #@! TO.N,ANT_PAD*
X139446000Y-74025000D02*
X139446000Y-73265110D01*
D18*
X139446000Y-74025000D02*
X139446000Y-73277810D01*
D15*
G04 #@! TO.N,PA04_S0_UART_TX*
X143256000Y-77470000D02*
X142774508Y-77470000D01*
D19*
X142256000Y-77470000D02*
X143256000Y-77470000D01*
X142123628Y-77470000D02*
X143256000Y-77470000D01*
X141630400Y-77470000D02*
X141376400Y-77724000D01*
X141376400Y-78853600D02*
X141344079Y-78885921D01*
X141376400Y-77724000D02*
X141376400Y-78853600D01*
X141376400Y-78853600D02*
X138470000Y-81760000D01*
X137410000Y-81760000D02*
X138470000Y-81760000D01*
X137215395Y-82554605D02*
X137215395Y-81954605D01*
X137215395Y-81954605D02*
X137410000Y-81760000D01*
X136900013Y-82869987D02*
X137215395Y-82554605D01*
D15*
X142256000Y-77470000D02*
X141630400Y-77470000D01*
D19*
G04 #@! TO.N,PA05_S0_UART_RX*
X143256000Y-78740000D02*
X142256000Y-78740000D01*
X137870000Y-82380000D02*
X138240000Y-82010000D01*
X137260000Y-83110000D02*
X137720000Y-83110000D01*
X137870000Y-82960000D02*
X137870000Y-82380000D01*
X137720000Y-83110000D02*
X137870000Y-82960000D01*
X136940000Y-83430000D02*
X137260000Y-83110000D01*
X136940000Y-83500000D02*
X136940000Y-83430000D01*
D15*
X142256000Y-78740000D02*
X141900458Y-78740000D01*
D19*
X138630458Y-82010000D02*
X141900458Y-78740000D01*
X138630458Y-82010000D02*
X138240000Y-82010000D01*
G04 #@! TO.N,PA30_SWDCLK*
X143256000Y-85090000D02*
X142256000Y-85090000D01*
D15*
X142135899Y-85210101D02*
X140620147Y-85210101D01*
X142256000Y-85090000D02*
X142135899Y-85210101D01*
D19*
X139979899Y-85210101D02*
X140620147Y-85210101D01*
X138586499Y-85847402D02*
X139342598Y-85847402D01*
X139342598Y-85847402D02*
X139979899Y-85210101D01*
X137869097Y-85130000D02*
X138586499Y-85847402D01*
X137290000Y-85130000D02*
X137869097Y-85130000D01*
X136940000Y-84780000D02*
X137290000Y-85130000D01*
G04 #@! TO.N,PA31_SWDIO*
X143256000Y-83820000D02*
X142256000Y-83820000D01*
D15*
X136912176Y-84150000D02*
X136910338Y-84148162D01*
X142256000Y-83820000D02*
X141270000Y-83820000D01*
D19*
X137420000Y-84160000D02*
X136890000Y-84160000D01*
X137930000Y-84460000D02*
X137630000Y-84160000D01*
X138520000Y-84460000D02*
X137930000Y-84460000D01*
X137630000Y-84160000D02*
X137420000Y-84160000D01*
X139030000Y-84970000D02*
X138520000Y-84460000D01*
X140120000Y-84970000D02*
X139030000Y-84970000D01*
X141270000Y-83820000D02*
X140120000Y-84970000D01*
D15*
G04 #@! TO.N,PB23_S5_SPI_SCK*
X129286000Y-83820000D02*
X130360000Y-83820000D01*
X130350000Y-83820000D02*
X129886000Y-83820000D01*
X130030000Y-83820000D02*
X129886000Y-83820000D01*
X131210000Y-85144000D02*
X131210000Y-85000000D01*
X133214110Y-85550000D02*
X131616000Y-85550000D01*
X131616000Y-85550000D02*
X131210000Y-85144000D01*
X131210000Y-85000000D02*
X130030000Y-83820000D01*
X133504110Y-85840000D02*
X133214110Y-85550000D01*
D19*
G04 #@! TO.N,PB22_S5_SPI_MOSI*
X129286000Y-81280000D02*
X130260000Y-81280000D01*
D15*
X135650000Y-84180000D02*
X135270000Y-83800000D01*
X130150000Y-81280000D02*
X129886000Y-81280000D01*
X130780000Y-80650000D02*
X130150000Y-81280000D01*
X132470000Y-81710000D02*
X132470000Y-81090000D01*
X132470000Y-81090000D02*
X132030000Y-80650000D01*
X132030000Y-80650000D02*
X130780000Y-80650000D01*
D19*
X132500000Y-81710000D02*
X132470000Y-81710000D01*
X134570000Y-83780000D02*
X132500000Y-81710000D01*
X135250000Y-83780000D02*
X134570000Y-83780000D01*
X135270000Y-83800000D02*
X135250000Y-83780000D01*
D18*
G04 #@! TO.N,PB02_S5_SPI_MISO*
X142186936Y-80079064D02*
X142256000Y-80010000D01*
X142256000Y-80010000D02*
X143003190Y-80010000D01*
D15*
X138200000Y-84110000D02*
X138277341Y-84110000D01*
D19*
X140230000Y-83190000D02*
X141650000Y-81770000D01*
X140230000Y-83490000D02*
X140230000Y-83190000D01*
X138559757Y-84021690D02*
X139698310Y-84021690D01*
X138461447Y-84120000D02*
X138559757Y-84021690D01*
X139698310Y-84021690D02*
X140230000Y-83490000D01*
X141650000Y-81770000D02*
X141650000Y-80616000D01*
X138210000Y-84120000D02*
X138461447Y-84120000D01*
D15*
X142256000Y-80010000D02*
X141650000Y-80616000D01*
D19*
G04 #@! TO.N,PA28_GPIO*
X142256000Y-81280000D02*
X143028590Y-81280000D01*
X143256000Y-81280000D02*
X142256000Y-81280000D01*
X139905927Y-84271054D02*
X139728128Y-84448853D01*
X140620000Y-83209224D02*
X140620000Y-83556981D01*
X142256000Y-81573224D02*
X140620000Y-83209224D01*
X140620000Y-83556981D02*
X139905927Y-84271054D01*
X142256000Y-81280000D02*
X142256000Y-81573224D01*
D15*
G04 #@! TO.N,PA27_GPIO*
X135489611Y-83356111D02*
X135667410Y-83533910D01*
X130980000Y-78740000D02*
X133081822Y-80841822D01*
X133081822Y-81448726D02*
X134633096Y-83000000D01*
X133081822Y-80841822D02*
X133081822Y-81448726D01*
X134633096Y-83000000D02*
X135133500Y-83000000D01*
X130707383Y-78740000D02*
X130980000Y-78740000D01*
X135133500Y-83000000D02*
X135489611Y-83356111D01*
X130710000Y-78740000D02*
X129886000Y-78740000D01*
D19*
X130980000Y-78740000D02*
X130710000Y-78740000D01*
D15*
G04 #@! TO.N,PA23_S5_SPI_SS*
X136890000Y-89519000D02*
X136906000Y-89535000D01*
X136890000Y-86060000D02*
X136890000Y-89519000D01*
D22*
G04 #@! TO.N,PA22_GPIO*
X135650000Y-88920000D02*
X135606000Y-88964000D01*
X135650000Y-88550000D02*
X135650000Y-88920000D01*
D15*
G04 #@! TO.N,PA19_PWM_T0_W3*
X134534100Y-88770000D02*
X134366000Y-88938100D01*
G04 #@! TO.N,PA18_PWM_T0_W2*
X130492500Y-87630000D02*
X129886000Y-87630000D01*
X132750000Y-87630000D02*
X130492500Y-87630000D01*
X134834011Y-86725989D02*
X133654011Y-86725989D01*
X134960000Y-86600000D02*
X134834011Y-86725989D01*
X135120118Y-86600000D02*
X134960000Y-86600000D01*
X135636239Y-86083879D02*
X135120118Y-86600000D01*
X133654011Y-86725989D02*
X132750000Y-87630000D01*
D19*
G04 #@! TO.N,PA17_S1_I2C_SCL*
X135310000Y-85740000D02*
X135650000Y-85400000D01*
X134104554Y-85740000D02*
X135310000Y-85740000D01*
X133637153Y-86207401D02*
X134104554Y-85740000D01*
X133232057Y-86207401D02*
X133637153Y-86207401D01*
D15*
X131607401Y-86207401D02*
X133232057Y-86207401D01*
X130490000Y-85090000D02*
X131607401Y-86207401D01*
X129886000Y-85090000D02*
X130490000Y-85090000D01*
G04 #@! TO.N,PA16_S1_I2C_SDA*
X135010000Y-86050000D02*
X135010000Y-86061763D01*
X135010000Y-86061763D02*
X135002397Y-86069366D01*
X134658022Y-86461978D02*
X135010000Y-86110000D01*
X133518022Y-86461978D02*
X134658022Y-86461978D01*
X132820823Y-87159177D02*
X133518022Y-86461978D01*
X131060000Y-86360000D02*
X131859177Y-87159177D01*
X129886000Y-86360000D02*
X131060000Y-86360000D01*
X135010000Y-86110000D02*
X135010000Y-86050000D01*
X131859177Y-87159177D02*
X132820823Y-87159177D01*
G04 #@! TO.N,PA15_GPIO*
X131826000Y-89535000D02*
X131826000Y-89056608D01*
X134782056Y-87004898D02*
X135033503Y-87004898D01*
X131826000Y-88938100D02*
X133759202Y-87004898D01*
X133759202Y-87004898D02*
X134782056Y-87004898D01*
G04 #@! TO.N,PA14_GPIO*
X135544728Y-87230272D02*
X135598834Y-87230272D01*
X133954100Y-88080000D02*
X133096000Y-88938100D01*
X135230000Y-88080000D02*
X133954100Y-88080000D01*
X135600000Y-87231438D02*
X135600000Y-87710000D01*
X135600000Y-87710000D02*
X135230000Y-88080000D01*
X135598834Y-87230272D02*
X135600000Y-87231438D01*
D19*
G04 #@! TO.N,PA08_GPIO*
X129286000Y-82550000D02*
X129886000Y-82550000D01*
X129286000Y-82550000D02*
X130100000Y-82550000D01*
D15*
X129886000Y-82550000D02*
X131193401Y-83857401D01*
X131206000Y-83870000D02*
X131193401Y-83857401D01*
X133350000Y-83870000D02*
X131206000Y-83870000D01*
D19*
X134812201Y-84298009D02*
X134990000Y-84120210D01*
X133930000Y-84450000D02*
X134660210Y-84450000D01*
X134660210Y-84450000D02*
X134812201Y-84298009D01*
X133350000Y-83870000D02*
X133930000Y-84450000D01*
D22*
G04 #@! TO.N,PA07_ADC7*
X129286000Y-80010000D02*
X129865446Y-80010000D01*
D19*
X135002126Y-83419959D02*
X135002126Y-83440887D01*
D15*
X131783304Y-80010000D02*
X129886000Y-80010000D01*
X132770000Y-80996696D02*
X131783304Y-80010000D01*
X132770000Y-81580000D02*
X132770000Y-80996696D01*
X134630887Y-83440887D02*
X132770000Y-81580000D01*
X135002126Y-83440887D02*
X134630887Y-83440887D01*
G04 #@! TO.N,PA06_ADC6*
X130033304Y-77470000D02*
X129886000Y-77470000D01*
X135222970Y-81924844D02*
X132757816Y-79459690D01*
X132757816Y-79459690D02*
X132022994Y-79459690D01*
X132022994Y-79459690D02*
X130033304Y-77470000D01*
X135454844Y-81924844D02*
X135222970Y-81924844D01*
X135648227Y-82118227D02*
X135454844Y-81924844D01*
X135648227Y-82852022D02*
X135648227Y-82118227D01*
D19*
G04 #@! TO.N,BAND_SEL*
X141095215Y-81849212D02*
X139595056Y-83349371D01*
X141095215Y-80893915D02*
X141095215Y-81849212D01*
D15*
G04 #@! TO.N,TXRX_RF*
X139364720Y-77201508D02*
X139400653Y-77165575D01*
X137933002Y-80766998D02*
X136887994Y-81812006D01*
X136887994Y-81812006D02*
X136887994Y-82237225D01*
X137933002Y-78633226D02*
X137933002Y-80766998D01*
X139364720Y-77201508D02*
X137933002Y-78633226D01*
G04 #@! TO.N,USB_N*
X138680000Y-88172100D02*
X139446000Y-88938100D01*
X138680000Y-87400019D02*
X138680000Y-88172100D01*
X138337068Y-87057087D02*
X138680000Y-87400019D01*
G04 #@! TO.N,USB_P*
X138170000Y-88932100D02*
X138176000Y-88938100D01*
X138170000Y-87510002D02*
X138170000Y-88932100D01*
G04 #@! TD*
D23*
G04 #@! TO.N,GND*
G36*
X141837670Y-86751222D02*
X141861361Y-86829323D01*
X141899834Y-86901301D01*
X141951610Y-86964390D01*
X141988908Y-86995000D01*
X141951610Y-87025610D01*
X141941852Y-87037500D01*
X141753676Y-87037500D01*
X141666624Y-87046074D01*
X141554937Y-87079954D01*
X141452006Y-87134971D01*
X141361787Y-87209013D01*
X141287745Y-87299232D01*
X141232728Y-87402163D01*
X141220798Y-87441490D01*
X141206459Y-87369401D01*
X141167539Y-87275440D01*
X141111036Y-87190878D01*
X141039122Y-87118964D01*
X140954560Y-87062461D01*
X140860599Y-87023541D01*
X140760851Y-87003700D01*
X140659149Y-87003700D01*
X140559401Y-87023541D01*
X140465440Y-87062461D01*
X140380878Y-87118964D01*
X140308964Y-87190878D01*
X140252461Y-87275440D01*
X140213541Y-87369401D01*
X140193700Y-87469149D01*
X140193700Y-87570851D01*
X140213541Y-87670599D01*
X140252461Y-87764560D01*
X140308964Y-87849122D01*
X140380878Y-87921036D01*
X140465440Y-87977539D01*
X140559401Y-88016459D01*
X140659149Y-88036300D01*
X140760851Y-88036300D01*
X140860599Y-88016459D01*
X140954560Y-87977539D01*
X141039122Y-87921036D01*
X141111036Y-87849122D01*
X141167539Y-87764560D01*
X141194298Y-87699957D01*
X141198848Y-87746150D01*
X141232728Y-87857837D01*
X141287745Y-87960768D01*
X141361787Y-88050987D01*
X141452006Y-88125029D01*
X141554937Y-88180046D01*
X141666624Y-88213926D01*
X141727000Y-88219873D01*
X141727000Y-88432821D01*
X141724441Y-88458800D01*
X141734656Y-88562502D01*
X141764904Y-88662218D01*
X141791234Y-88711477D01*
X141814026Y-88754118D01*
X141880132Y-88834669D01*
X141900313Y-88851231D01*
X142189112Y-89140030D01*
X142243907Y-89185000D01*
X140172330Y-89185000D01*
X140172330Y-88965000D01*
X140171498Y-88956550D01*
X140172330Y-88948100D01*
X140172330Y-88528100D01*
X140164330Y-88446878D01*
X140140639Y-88368777D01*
X140102166Y-88296799D01*
X140050390Y-88233710D01*
X139987301Y-88181934D01*
X139915323Y-88143461D01*
X139837222Y-88119770D01*
X139756000Y-88111770D01*
X139136000Y-88111770D01*
X139101754Y-88115143D01*
X139018500Y-88031890D01*
X139018500Y-87880785D01*
X139077923Y-87905399D01*
X139165403Y-87922800D01*
X139254597Y-87922800D01*
X139342077Y-87905399D01*
X139424481Y-87871266D01*
X139498643Y-87821713D01*
X139561713Y-87758643D01*
X139611266Y-87684481D01*
X139645399Y-87602077D01*
X139662800Y-87514597D01*
X139662800Y-87513871D01*
X140465472Y-86711200D01*
X141833728Y-86711200D01*
X141837670Y-86751222D01*
X141837670Y-86751222D01*
G37*
X141837670Y-86751222D02*
X141861361Y-86829323D01*
X141899834Y-86901301D01*
X141951610Y-86964390D01*
X141988908Y-86995000D01*
X141951610Y-87025610D01*
X141941852Y-87037500D01*
X141753676Y-87037500D01*
X141666624Y-87046074D01*
X141554937Y-87079954D01*
X141452006Y-87134971D01*
X141361787Y-87209013D01*
X141287745Y-87299232D01*
X141232728Y-87402163D01*
X141220798Y-87441490D01*
X141206459Y-87369401D01*
X141167539Y-87275440D01*
X141111036Y-87190878D01*
X141039122Y-87118964D01*
X140954560Y-87062461D01*
X140860599Y-87023541D01*
X140760851Y-87003700D01*
X140659149Y-87003700D01*
X140559401Y-87023541D01*
X140465440Y-87062461D01*
X140380878Y-87118964D01*
X140308964Y-87190878D01*
X140252461Y-87275440D01*
X140213541Y-87369401D01*
X140193700Y-87469149D01*
X140193700Y-87570851D01*
X140213541Y-87670599D01*
X140252461Y-87764560D01*
X140308964Y-87849122D01*
X140380878Y-87921036D01*
X140465440Y-87977539D01*
X140559401Y-88016459D01*
X140659149Y-88036300D01*
X140760851Y-88036300D01*
X140860599Y-88016459D01*
X140954560Y-87977539D01*
X141039122Y-87921036D01*
X141111036Y-87849122D01*
X141167539Y-87764560D01*
X141194298Y-87699957D01*
X141198848Y-87746150D01*
X141232728Y-87857837D01*
X141287745Y-87960768D01*
X141361787Y-88050987D01*
X141452006Y-88125029D01*
X141554937Y-88180046D01*
X141666624Y-88213926D01*
X141727000Y-88219873D01*
X141727000Y-88432821D01*
X141724441Y-88458800D01*
X141734656Y-88562502D01*
X141764904Y-88662218D01*
X141791234Y-88711477D01*
X141814026Y-88754118D01*
X141880132Y-88834669D01*
X141900313Y-88851231D01*
X142189112Y-89140030D01*
X142243907Y-89185000D01*
X140172330Y-89185000D01*
X140172330Y-88965000D01*
X140171498Y-88956550D01*
X140172330Y-88948100D01*
X140172330Y-88528100D01*
X140164330Y-88446878D01*
X140140639Y-88368777D01*
X140102166Y-88296799D01*
X140050390Y-88233710D01*
X139987301Y-88181934D01*
X139915323Y-88143461D01*
X139837222Y-88119770D01*
X139756000Y-88111770D01*
X139136000Y-88111770D01*
X139101754Y-88115143D01*
X139018500Y-88031890D01*
X139018500Y-87880785D01*
X139077923Y-87905399D01*
X139165403Y-87922800D01*
X139254597Y-87922800D01*
X139342077Y-87905399D01*
X139424481Y-87871266D01*
X139498643Y-87821713D01*
X139561713Y-87758643D01*
X139611266Y-87684481D01*
X139645399Y-87602077D01*
X139662800Y-87514597D01*
X139662800Y-87513871D01*
X140465472Y-86711200D01*
X141833728Y-86711200D01*
X141837670Y-86751222D01*
G36*
X138344809Y-86066463D02*
X138355009Y-86078892D01*
X138367438Y-86089092D01*
X138367439Y-86089093D01*
X138404618Y-86119605D01*
X138434773Y-86135723D01*
X138461218Y-86149858D01*
X138522631Y-86168488D01*
X138570496Y-86173202D01*
X138570499Y-86173202D01*
X138586499Y-86174778D01*
X138602499Y-86173202D01*
X139326598Y-86173202D01*
X139342598Y-86174778D01*
X139358598Y-86173202D01*
X139358601Y-86173202D01*
X139406466Y-86168488D01*
X139467879Y-86149858D01*
X139524478Y-86119605D01*
X139574088Y-86078892D01*
X139584292Y-86066458D01*
X140114850Y-85535901D01*
X140528072Y-85535901D01*
X140553790Y-85543702D01*
X140603527Y-85548601D01*
X141858109Y-85548601D01*
X141861361Y-85559323D01*
X141899834Y-85631301D01*
X141951610Y-85694390D01*
X141988908Y-85725000D01*
X141951610Y-85755610D01*
X141899834Y-85818699D01*
X141861361Y-85890677D01*
X141837670Y-85968778D01*
X141833728Y-86008800D01*
X140337241Y-86008800D01*
X140319999Y-86007102D01*
X140302757Y-86008800D01*
X140302750Y-86008800D01*
X140257779Y-86013229D01*
X140251152Y-86013882D01*
X140186876Y-86033380D01*
X140184951Y-86033964D01*
X140123940Y-86066575D01*
X140123938Y-86066576D01*
X140123939Y-86066576D01*
X140089796Y-86094597D01*
X140070463Y-86110463D01*
X140059469Y-86123859D01*
X139166129Y-87017200D01*
X139165403Y-87017200D01*
X139077923Y-87034601D01*
X138995519Y-87068734D01*
X138921357Y-87118287D01*
X138899168Y-87140476D01*
X138789868Y-87031176D01*
X138789868Y-87012490D01*
X138772467Y-86925010D01*
X138738334Y-86842606D01*
X138688781Y-86768444D01*
X138625711Y-86705374D01*
X138551549Y-86655821D01*
X138469145Y-86621688D01*
X138381665Y-86604287D01*
X138292471Y-86604287D01*
X138204991Y-86621688D01*
X138122587Y-86655821D01*
X138048425Y-86705374D01*
X137985355Y-86768444D01*
X137935802Y-86842606D01*
X137901669Y-86925010D01*
X137884268Y-87012490D01*
X137884268Y-87101684D01*
X137893865Y-87149931D01*
X137881357Y-87158289D01*
X137818287Y-87221359D01*
X137768734Y-87295521D01*
X137734601Y-87377925D01*
X137717200Y-87465405D01*
X137717200Y-87554599D01*
X137734601Y-87642079D01*
X137768734Y-87724483D01*
X137818287Y-87798645D01*
X137831500Y-87811858D01*
X137831500Y-88115168D01*
X137784778Y-88119770D01*
X137706677Y-88143461D01*
X137634699Y-88181934D01*
X137571610Y-88233710D01*
X137541000Y-88271008D01*
X137510390Y-88233710D01*
X137447301Y-88181934D01*
X137375323Y-88143461D01*
X137297222Y-88119770D01*
X137228500Y-88113001D01*
X137228500Y-86378856D01*
X137231357Y-86381713D01*
X137305519Y-86431266D01*
X137387923Y-86465399D01*
X137475403Y-86482800D01*
X137564597Y-86482800D01*
X137652077Y-86465399D01*
X137734481Y-86431266D01*
X137808643Y-86381713D01*
X137871713Y-86318643D01*
X137921266Y-86244481D01*
X137955399Y-86162077D01*
X137972800Y-86074597D01*
X137972800Y-85985403D01*
X137955399Y-85897923D01*
X137921266Y-85815519D01*
X137871713Y-85741357D01*
X137808643Y-85678287D01*
X137734481Y-85628734D01*
X137652077Y-85594601D01*
X137564597Y-85577200D01*
X137475403Y-85577200D01*
X137387923Y-85594601D01*
X137356462Y-85607632D01*
X137386685Y-85534669D01*
X137402373Y-85455800D01*
X137734147Y-85455800D01*
X138344809Y-86066463D01*
X138344809Y-86066463D01*
G37*
X138344809Y-86066463D02*
X138355009Y-86078892D01*
X138367438Y-86089092D01*
X138367439Y-86089093D01*
X138404618Y-86119605D01*
X138434773Y-86135723D01*
X138461218Y-86149858D01*
X138522631Y-86168488D01*
X138570496Y-86173202D01*
X138570499Y-86173202D01*
X138586499Y-86174778D01*
X138602499Y-86173202D01*
X139326598Y-86173202D01*
X139342598Y-86174778D01*
X139358598Y-86173202D01*
X139358601Y-86173202D01*
X139406466Y-86168488D01*
X139467879Y-86149858D01*
X139524478Y-86119605D01*
X139574088Y-86078892D01*
X139584292Y-86066458D01*
X140114850Y-85535901D01*
X140528072Y-85535901D01*
X140553790Y-85543702D01*
X140603527Y-85548601D01*
X141858109Y-85548601D01*
X141861361Y-85559323D01*
X141899834Y-85631301D01*
X141951610Y-85694390D01*
X141988908Y-85725000D01*
X141951610Y-85755610D01*
X141899834Y-85818699D01*
X141861361Y-85890677D01*
X141837670Y-85968778D01*
X141833728Y-86008800D01*
X140337241Y-86008800D01*
X140319999Y-86007102D01*
X140302757Y-86008800D01*
X140302750Y-86008800D01*
X140257779Y-86013229D01*
X140251152Y-86013882D01*
X140186876Y-86033380D01*
X140184951Y-86033964D01*
X140123940Y-86066575D01*
X140123938Y-86066576D01*
X140123939Y-86066576D01*
X140089796Y-86094597D01*
X140070463Y-86110463D01*
X140059469Y-86123859D01*
X139166129Y-87017200D01*
X139165403Y-87017200D01*
X139077923Y-87034601D01*
X138995519Y-87068734D01*
X138921357Y-87118287D01*
X138899168Y-87140476D01*
X138789868Y-87031176D01*
X138789868Y-87012490D01*
X138772467Y-86925010D01*
X138738334Y-86842606D01*
X138688781Y-86768444D01*
X138625711Y-86705374D01*
X138551549Y-86655821D01*
X138469145Y-86621688D01*
X138381665Y-86604287D01*
X138292471Y-86604287D01*
X138204991Y-86621688D01*
X138122587Y-86655821D01*
X138048425Y-86705374D01*
X137985355Y-86768444D01*
X137935802Y-86842606D01*
X137901669Y-86925010D01*
X137884268Y-87012490D01*
X137884268Y-87101684D01*
X137893865Y-87149931D01*
X137881357Y-87158289D01*
X137818287Y-87221359D01*
X137768734Y-87295521D01*
X137734601Y-87377925D01*
X137717200Y-87465405D01*
X137717200Y-87554599D01*
X137734601Y-87642079D01*
X137768734Y-87724483D01*
X137818287Y-87798645D01*
X137831500Y-87811858D01*
X137831500Y-88115168D01*
X137784778Y-88119770D01*
X137706677Y-88143461D01*
X137634699Y-88181934D01*
X137571610Y-88233710D01*
X137541000Y-88271008D01*
X137510390Y-88233710D01*
X137447301Y-88181934D01*
X137375323Y-88143461D01*
X137297222Y-88119770D01*
X137228500Y-88113001D01*
X137228500Y-86378856D01*
X137231357Y-86381713D01*
X137305519Y-86431266D01*
X137387923Y-86465399D01*
X137475403Y-86482800D01*
X137564597Y-86482800D01*
X137652077Y-86465399D01*
X137734481Y-86431266D01*
X137808643Y-86381713D01*
X137871713Y-86318643D01*
X137921266Y-86244481D01*
X137955399Y-86162077D01*
X137972800Y-86074597D01*
X137972800Y-85985403D01*
X137955399Y-85897923D01*
X137921266Y-85815519D01*
X137871713Y-85741357D01*
X137808643Y-85678287D01*
X137734481Y-85628734D01*
X137652077Y-85594601D01*
X137564597Y-85577200D01*
X137475403Y-85577200D01*
X137387923Y-85594601D01*
X137356462Y-85607632D01*
X137386685Y-85534669D01*
X137402373Y-85455800D01*
X137734147Y-85455800D01*
X138344809Y-86066463D01*
G36*
X138719670Y-73595000D02*
X138720655Y-73605000D01*
X138719670Y-73615000D01*
X138719670Y-74035000D01*
X138727670Y-74116222D01*
X138751361Y-74194323D01*
X138789834Y-74266301D01*
X138841610Y-74329390D01*
X138904699Y-74381166D01*
X138976677Y-74419639D01*
X139054778Y-74443330D01*
X139136000Y-74451330D01*
X139756000Y-74451330D01*
X139837222Y-74443330D01*
X139915323Y-74419639D01*
X139987301Y-74381166D01*
X140050390Y-74329390D01*
X140102166Y-74266301D01*
X140140639Y-74194323D01*
X140164330Y-74116222D01*
X140172330Y-74035000D01*
X140172330Y-73615000D01*
X140171345Y-73605000D01*
X140172330Y-73595000D01*
X140172330Y-73375000D01*
X142906001Y-73375000D01*
X142906001Y-76743670D01*
X142686000Y-76743670D01*
X142676000Y-76744655D01*
X142666000Y-76743670D01*
X142246000Y-76743670D01*
X142164778Y-76751670D01*
X142086677Y-76775361D01*
X142014699Y-76813834D01*
X141951610Y-76865610D01*
X141899834Y-76928699D01*
X141861361Y-77000677D01*
X141837670Y-77078778D01*
X141832477Y-77131500D01*
X141613780Y-77131500D01*
X141564043Y-77136399D01*
X141500235Y-77155754D01*
X141441430Y-77187186D01*
X141389887Y-77229487D01*
X141347586Y-77281030D01*
X141334917Y-77304733D01*
X141157344Y-77482306D01*
X141144910Y-77492510D01*
X141134709Y-77504941D01*
X141104197Y-77542120D01*
X141098264Y-77553221D01*
X141073944Y-77598720D01*
X141055314Y-77660133D01*
X141051624Y-77697603D01*
X141049024Y-77724000D01*
X141050600Y-77740000D01*
X141050601Y-78718648D01*
X138335050Y-81434200D01*
X137744511Y-81434200D01*
X138160604Y-81018107D01*
X138173515Y-81007511D01*
X138215816Y-80955968D01*
X138247248Y-80897163D01*
X138257794Y-80862396D01*
X138266603Y-80833357D01*
X138268837Y-80810677D01*
X138271502Y-80783618D01*
X138271502Y-80783611D01*
X138273138Y-80766999D01*
X138271502Y-80750387D01*
X138271502Y-78773436D01*
X138639535Y-78405403D01*
X139487200Y-78405403D01*
X139487200Y-78494597D01*
X139504601Y-78582077D01*
X139538734Y-78664481D01*
X139588287Y-78738643D01*
X139651357Y-78801713D01*
X139725519Y-78851266D01*
X139807923Y-78885399D01*
X139895403Y-78902800D01*
X139984597Y-78902800D01*
X140072077Y-78885399D01*
X140154481Y-78851266D01*
X140228643Y-78801713D01*
X140291713Y-78738643D01*
X140341266Y-78664481D01*
X140375399Y-78582077D01*
X140392800Y-78494597D01*
X140392800Y-78405403D01*
X140375399Y-78317923D01*
X140341266Y-78235519D01*
X140291713Y-78161357D01*
X140228643Y-78098287D01*
X140154481Y-78048734D01*
X140072077Y-78014601D01*
X139984597Y-77997200D01*
X139895403Y-77997200D01*
X139807923Y-78014601D01*
X139725519Y-78048734D01*
X139651357Y-78098287D01*
X139588287Y-78161357D01*
X139538734Y-78235519D01*
X139504601Y-78317923D01*
X139487200Y-78405403D01*
X138639535Y-78405403D01*
X139390631Y-77654308D01*
X139409317Y-77654308D01*
X139496797Y-77636907D01*
X139579201Y-77602774D01*
X139653363Y-77553221D01*
X139716433Y-77490151D01*
X139738752Y-77456747D01*
X139807923Y-77485399D01*
X139895403Y-77502800D01*
X139984597Y-77502800D01*
X140072077Y-77485399D01*
X140154481Y-77451266D01*
X140228643Y-77401713D01*
X140291713Y-77338643D01*
X140341266Y-77264481D01*
X140375399Y-77182077D01*
X140392800Y-77094597D01*
X140392800Y-77005403D01*
X140375399Y-76917923D01*
X140341266Y-76835519D01*
X140291713Y-76761357D01*
X140228643Y-76698287D01*
X140154481Y-76648734D01*
X140072077Y-76614601D01*
X139984597Y-76597200D01*
X139895403Y-76597200D01*
X139807923Y-76614601D01*
X139725519Y-76648734D01*
X139651357Y-76698287D01*
X139588287Y-76761357D01*
X139565968Y-76794761D01*
X139496797Y-76766109D01*
X139409317Y-76748708D01*
X139320123Y-76748708D01*
X139232643Y-76766109D01*
X139150239Y-76800242D01*
X139127195Y-76815639D01*
X139094563Y-76783007D01*
X139020401Y-76733454D01*
X138937997Y-76699321D01*
X138850517Y-76681920D01*
X138761323Y-76681920D01*
X138673843Y-76699321D01*
X138591439Y-76733454D01*
X138517277Y-76783007D01*
X138454207Y-76846077D01*
X138404654Y-76920239D01*
X138370521Y-77002643D01*
X138353120Y-77090123D01*
X138353120Y-77179317D01*
X138370521Y-77266797D01*
X138404654Y-77349201D01*
X138454207Y-77423363D01*
X138517277Y-77486433D01*
X138567516Y-77520001D01*
X137705401Y-78382117D01*
X137692489Y-78392714D01*
X137650188Y-78444257D01*
X137618756Y-78503062D01*
X137599401Y-78566870D01*
X137594502Y-78616607D01*
X137594502Y-78616614D01*
X137592866Y-78633226D01*
X137594502Y-78649838D01*
X137594503Y-80626786D01*
X136660393Y-81560897D01*
X136647481Y-81571494D01*
X136605180Y-81623037D01*
X136581504Y-81667332D01*
X136573748Y-81681842D01*
X136557359Y-81735873D01*
X136554393Y-81745650D01*
X136549494Y-81795387D01*
X136549494Y-81795394D01*
X136547858Y-81812006D01*
X136549494Y-81828618D01*
X136549494Y-81920150D01*
X136528287Y-81941357D01*
X136478734Y-82015519D01*
X136444601Y-82097923D01*
X136427200Y-82185403D01*
X136427200Y-82274597D01*
X136444601Y-82362077D01*
X136478734Y-82444481D01*
X136528287Y-82518643D01*
X136563894Y-82554250D01*
X136536800Y-82581344D01*
X136487247Y-82655506D01*
X136453114Y-82737910D01*
X136435713Y-82825390D01*
X136435713Y-82914584D01*
X136453114Y-83002064D01*
X136487247Y-83084468D01*
X136536800Y-83158630D01*
X136588907Y-83210737D01*
X136588287Y-83211357D01*
X136538734Y-83285519D01*
X136504601Y-83367923D01*
X136487200Y-83455403D01*
X136487200Y-83544597D01*
X136504601Y-83632077D01*
X136538734Y-83714481D01*
X136588287Y-83788643D01*
X136605298Y-83805654D01*
X136601357Y-83808287D01*
X136538287Y-83871357D01*
X136488734Y-83945519D01*
X136454601Y-84027923D01*
X136437200Y-84115403D01*
X136437200Y-84204597D01*
X136454601Y-84292077D01*
X136488734Y-84374481D01*
X136538287Y-84448643D01*
X136581363Y-84491719D01*
X136538734Y-84555519D01*
X136504601Y-84637923D01*
X136487200Y-84725403D01*
X136487200Y-84814597D01*
X136504601Y-84902077D01*
X136538734Y-84984481D01*
X136588287Y-85058643D01*
X136621583Y-85091939D01*
X136599573Y-85113949D01*
X136550020Y-85188111D01*
X136515887Y-85270515D01*
X136498486Y-85357995D01*
X136498486Y-85447189D01*
X136515887Y-85534669D01*
X136550020Y-85617073D01*
X136599573Y-85691235D01*
X136604515Y-85696177D01*
X136601357Y-85698287D01*
X136538287Y-85761357D01*
X136488734Y-85835519D01*
X136454601Y-85917923D01*
X136437200Y-86005403D01*
X136437200Y-86094597D01*
X136454601Y-86182077D01*
X136488734Y-86264481D01*
X136538287Y-86338643D01*
X136551500Y-86351856D01*
X136551501Y-88116153D01*
X136514778Y-88119770D01*
X136436677Y-88143461D01*
X136364699Y-88181934D01*
X136301610Y-88233710D01*
X136271000Y-88271008D01*
X136240390Y-88233710D01*
X136177301Y-88181934D01*
X136105323Y-88143461D01*
X136027222Y-88119770D01*
X135946000Y-88111770D01*
X135676941Y-88111770D01*
X135827602Y-87961109D01*
X135840513Y-87950513D01*
X135882814Y-87898970D01*
X135914246Y-87840165D01*
X135916734Y-87831964D01*
X135933601Y-87776358D01*
X135935346Y-87758643D01*
X135938500Y-87726620D01*
X135938500Y-87726613D01*
X135940136Y-87710001D01*
X135938500Y-87693389D01*
X135938500Y-87530962D01*
X135950547Y-87518915D01*
X136000100Y-87444753D01*
X136034233Y-87362349D01*
X136051634Y-87274869D01*
X136051634Y-87185675D01*
X136034233Y-87098195D01*
X136000100Y-87015791D01*
X135950547Y-86941629D01*
X135887477Y-86878559D01*
X135813315Y-86829006D01*
X135730911Y-86794873D01*
X135643431Y-86777472D01*
X135554237Y-86777472D01*
X135466757Y-86794873D01*
X135441029Y-86805530D01*
X135434769Y-86790417D01*
X135424212Y-86774617D01*
X135686029Y-86512800D01*
X135694597Y-86512800D01*
X135782077Y-86495399D01*
X135864481Y-86461266D01*
X135938643Y-86411713D01*
X136001713Y-86348643D01*
X136051266Y-86274481D01*
X136085399Y-86192077D01*
X136102800Y-86104597D01*
X136102800Y-86015403D01*
X136085399Y-85927923D01*
X136051266Y-85845519D01*
X136001713Y-85771357D01*
X135960356Y-85730000D01*
X136001713Y-85688643D01*
X136051266Y-85614481D01*
X136085399Y-85532077D01*
X136102800Y-85444597D01*
X136102800Y-85355403D01*
X136085399Y-85267923D01*
X136051266Y-85185519D01*
X136001713Y-85111357D01*
X135966648Y-85076292D01*
X136001266Y-85024481D01*
X136035399Y-84942077D01*
X136052800Y-84854597D01*
X136052800Y-84765403D01*
X136035399Y-84677923D01*
X136001266Y-84595519D01*
X135951713Y-84521357D01*
X135935356Y-84505000D01*
X135991713Y-84448643D01*
X136041266Y-84374481D01*
X136075399Y-84292077D01*
X136092800Y-84204597D01*
X136092800Y-84115403D01*
X136075399Y-84027923D01*
X136041266Y-83945519D01*
X135991713Y-83871357D01*
X135965356Y-83845000D01*
X136001713Y-83808643D01*
X136051266Y-83734481D01*
X136085399Y-83652077D01*
X136102800Y-83564597D01*
X136102800Y-83475403D01*
X136085399Y-83387923D01*
X136051266Y-83305519D01*
X136001713Y-83231357D01*
X135965356Y-83195000D01*
X136001713Y-83158643D01*
X136051266Y-83084481D01*
X136085399Y-83002077D01*
X136102800Y-82914597D01*
X136102800Y-82825403D01*
X136085399Y-82737923D01*
X136051266Y-82655519D01*
X136001713Y-82581357D01*
X135986727Y-82566371D01*
X135986727Y-82134839D01*
X135988363Y-82118227D01*
X135986727Y-82101615D01*
X135986727Y-82101607D01*
X135981828Y-82051870D01*
X135981303Y-82050137D01*
X135962473Y-81988062D01*
X135955220Y-81974493D01*
X135931041Y-81929257D01*
X135888740Y-81877714D01*
X135875824Y-81867114D01*
X135705957Y-81697247D01*
X135695357Y-81684331D01*
X135643814Y-81642030D01*
X135585009Y-81610598D01*
X135521201Y-81591243D01*
X135471464Y-81586344D01*
X135471456Y-81586344D01*
X135454844Y-81584708D01*
X135438232Y-81586344D01*
X135363181Y-81586344D01*
X133008929Y-79232093D01*
X132998329Y-79219177D01*
X132946786Y-79176876D01*
X132887981Y-79145444D01*
X132824173Y-79126089D01*
X132774436Y-79121190D01*
X132774428Y-79121190D01*
X132757816Y-79119554D01*
X132741204Y-79121190D01*
X132163206Y-79121190D01*
X130712330Y-77670316D01*
X130712330Y-77160000D01*
X130704330Y-77078778D01*
X130680639Y-77000677D01*
X130642166Y-76928699D01*
X130590390Y-76865610D01*
X130527301Y-76813834D01*
X130455323Y-76775361D01*
X130377222Y-76751670D01*
X130296000Y-76743670D01*
X129876000Y-76743670D01*
X129866000Y-76744655D01*
X129856000Y-76743670D01*
X129636000Y-76743670D01*
X129636000Y-73375000D01*
X138719670Y-73375000D01*
X138719670Y-73595000D01*
X138719670Y-73595000D01*
G37*
X138719670Y-73595000D02*
X138720655Y-73605000D01*
X138719670Y-73615000D01*
X138719670Y-74035000D01*
X138727670Y-74116222D01*
X138751361Y-74194323D01*
X138789834Y-74266301D01*
X138841610Y-74329390D01*
X138904699Y-74381166D01*
X138976677Y-74419639D01*
X139054778Y-74443330D01*
X139136000Y-74451330D01*
X139756000Y-74451330D01*
X139837222Y-74443330D01*
X139915323Y-74419639D01*
X139987301Y-74381166D01*
X140050390Y-74329390D01*
X140102166Y-74266301D01*
X140140639Y-74194323D01*
X140164330Y-74116222D01*
X140172330Y-74035000D01*
X140172330Y-73615000D01*
X140171345Y-73605000D01*
X140172330Y-73595000D01*
X140172330Y-73375000D01*
X142906001Y-73375000D01*
X142906001Y-76743670D01*
X142686000Y-76743670D01*
X142676000Y-76744655D01*
X142666000Y-76743670D01*
X142246000Y-76743670D01*
X142164778Y-76751670D01*
X142086677Y-76775361D01*
X142014699Y-76813834D01*
X141951610Y-76865610D01*
X141899834Y-76928699D01*
X141861361Y-77000677D01*
X141837670Y-77078778D01*
X141832477Y-77131500D01*
X141613780Y-77131500D01*
X141564043Y-77136399D01*
X141500235Y-77155754D01*
X141441430Y-77187186D01*
X141389887Y-77229487D01*
X141347586Y-77281030D01*
X141334917Y-77304733D01*
X141157344Y-77482306D01*
X141144910Y-77492510D01*
X141134709Y-77504941D01*
X141104197Y-77542120D01*
X141098264Y-77553221D01*
X141073944Y-77598720D01*
X141055314Y-77660133D01*
X141051624Y-77697603D01*
X141049024Y-77724000D01*
X141050600Y-77740000D01*
X141050601Y-78718648D01*
X138335050Y-81434200D01*
X137744511Y-81434200D01*
X138160604Y-81018107D01*
X138173515Y-81007511D01*
X138215816Y-80955968D01*
X138247248Y-80897163D01*
X138257794Y-80862396D01*
X138266603Y-80833357D01*
X138268837Y-80810677D01*
X138271502Y-80783618D01*
X138271502Y-80783611D01*
X138273138Y-80766999D01*
X138271502Y-80750387D01*
X138271502Y-78773436D01*
X138639535Y-78405403D01*
X139487200Y-78405403D01*
X139487200Y-78494597D01*
X139504601Y-78582077D01*
X139538734Y-78664481D01*
X139588287Y-78738643D01*
X139651357Y-78801713D01*
X139725519Y-78851266D01*
X139807923Y-78885399D01*
X139895403Y-78902800D01*
X139984597Y-78902800D01*
X140072077Y-78885399D01*
X140154481Y-78851266D01*
X140228643Y-78801713D01*
X140291713Y-78738643D01*
X140341266Y-78664481D01*
X140375399Y-78582077D01*
X140392800Y-78494597D01*
X140392800Y-78405403D01*
X140375399Y-78317923D01*
X140341266Y-78235519D01*
X140291713Y-78161357D01*
X140228643Y-78098287D01*
X140154481Y-78048734D01*
X140072077Y-78014601D01*
X139984597Y-77997200D01*
X139895403Y-77997200D01*
X139807923Y-78014601D01*
X139725519Y-78048734D01*
X139651357Y-78098287D01*
X139588287Y-78161357D01*
X139538734Y-78235519D01*
X139504601Y-78317923D01*
X139487200Y-78405403D01*
X138639535Y-78405403D01*
X139390631Y-77654308D01*
X139409317Y-77654308D01*
X139496797Y-77636907D01*
X139579201Y-77602774D01*
X139653363Y-77553221D01*
X139716433Y-77490151D01*
X139738752Y-77456747D01*
X139807923Y-77485399D01*
X139895403Y-77502800D01*
X139984597Y-77502800D01*
X140072077Y-77485399D01*
X140154481Y-77451266D01*
X140228643Y-77401713D01*
X140291713Y-77338643D01*
X140341266Y-77264481D01*
X140375399Y-77182077D01*
X140392800Y-77094597D01*
X140392800Y-77005403D01*
X140375399Y-76917923D01*
X140341266Y-76835519D01*
X140291713Y-76761357D01*
X140228643Y-76698287D01*
X140154481Y-76648734D01*
X140072077Y-76614601D01*
X139984597Y-76597200D01*
X139895403Y-76597200D01*
X139807923Y-76614601D01*
X139725519Y-76648734D01*
X139651357Y-76698287D01*
X139588287Y-76761357D01*
X139565968Y-76794761D01*
X139496797Y-76766109D01*
X139409317Y-76748708D01*
X139320123Y-76748708D01*
X139232643Y-76766109D01*
X139150239Y-76800242D01*
X139127195Y-76815639D01*
X139094563Y-76783007D01*
X139020401Y-76733454D01*
X138937997Y-76699321D01*
X138850517Y-76681920D01*
X138761323Y-76681920D01*
X138673843Y-76699321D01*
X138591439Y-76733454D01*
X138517277Y-76783007D01*
X138454207Y-76846077D01*
X138404654Y-76920239D01*
X138370521Y-77002643D01*
X138353120Y-77090123D01*
X138353120Y-77179317D01*
X138370521Y-77266797D01*
X138404654Y-77349201D01*
X138454207Y-77423363D01*
X138517277Y-77486433D01*
X138567516Y-77520001D01*
X137705401Y-78382117D01*
X137692489Y-78392714D01*
X137650188Y-78444257D01*
X137618756Y-78503062D01*
X137599401Y-78566870D01*
X137594502Y-78616607D01*
X137594502Y-78616614D01*
X137592866Y-78633226D01*
X137594502Y-78649838D01*
X137594503Y-80626786D01*
X136660393Y-81560897D01*
X136647481Y-81571494D01*
X136605180Y-81623037D01*
X136581504Y-81667332D01*
X136573748Y-81681842D01*
X136557359Y-81735873D01*
X136554393Y-81745650D01*
X136549494Y-81795387D01*
X136549494Y-81795394D01*
X136547858Y-81812006D01*
X136549494Y-81828618D01*
X136549494Y-81920150D01*
X136528287Y-81941357D01*
X136478734Y-82015519D01*
X136444601Y-82097923D01*
X136427200Y-82185403D01*
X136427200Y-82274597D01*
X136444601Y-82362077D01*
X136478734Y-82444481D01*
X136528287Y-82518643D01*
X136563894Y-82554250D01*
X136536800Y-82581344D01*
X136487247Y-82655506D01*
X136453114Y-82737910D01*
X136435713Y-82825390D01*
X136435713Y-82914584D01*
X136453114Y-83002064D01*
X136487247Y-83084468D01*
X136536800Y-83158630D01*
X136588907Y-83210737D01*
X136588287Y-83211357D01*
X136538734Y-83285519D01*
X136504601Y-83367923D01*
X136487200Y-83455403D01*
X136487200Y-83544597D01*
X136504601Y-83632077D01*
X136538734Y-83714481D01*
X136588287Y-83788643D01*
X136605298Y-83805654D01*
X136601357Y-83808287D01*
X136538287Y-83871357D01*
X136488734Y-83945519D01*
X136454601Y-84027923D01*
X136437200Y-84115403D01*
X136437200Y-84204597D01*
X136454601Y-84292077D01*
X136488734Y-84374481D01*
X136538287Y-84448643D01*
X136581363Y-84491719D01*
X136538734Y-84555519D01*
X136504601Y-84637923D01*
X136487200Y-84725403D01*
X136487200Y-84814597D01*
X136504601Y-84902077D01*
X136538734Y-84984481D01*
X136588287Y-85058643D01*
X136621583Y-85091939D01*
X136599573Y-85113949D01*
X136550020Y-85188111D01*
X136515887Y-85270515D01*
X136498486Y-85357995D01*
X136498486Y-85447189D01*
X136515887Y-85534669D01*
X136550020Y-85617073D01*
X136599573Y-85691235D01*
X136604515Y-85696177D01*
X136601357Y-85698287D01*
X136538287Y-85761357D01*
X136488734Y-85835519D01*
X136454601Y-85917923D01*
X136437200Y-86005403D01*
X136437200Y-86094597D01*
X136454601Y-86182077D01*
X136488734Y-86264481D01*
X136538287Y-86338643D01*
X136551500Y-86351856D01*
X136551501Y-88116153D01*
X136514778Y-88119770D01*
X136436677Y-88143461D01*
X136364699Y-88181934D01*
X136301610Y-88233710D01*
X136271000Y-88271008D01*
X136240390Y-88233710D01*
X136177301Y-88181934D01*
X136105323Y-88143461D01*
X136027222Y-88119770D01*
X135946000Y-88111770D01*
X135676941Y-88111770D01*
X135827602Y-87961109D01*
X135840513Y-87950513D01*
X135882814Y-87898970D01*
X135914246Y-87840165D01*
X135916734Y-87831964D01*
X135933601Y-87776358D01*
X135935346Y-87758643D01*
X135938500Y-87726620D01*
X135938500Y-87726613D01*
X135940136Y-87710001D01*
X135938500Y-87693389D01*
X135938500Y-87530962D01*
X135950547Y-87518915D01*
X136000100Y-87444753D01*
X136034233Y-87362349D01*
X136051634Y-87274869D01*
X136051634Y-87185675D01*
X136034233Y-87098195D01*
X136000100Y-87015791D01*
X135950547Y-86941629D01*
X135887477Y-86878559D01*
X135813315Y-86829006D01*
X135730911Y-86794873D01*
X135643431Y-86777472D01*
X135554237Y-86777472D01*
X135466757Y-86794873D01*
X135441029Y-86805530D01*
X135434769Y-86790417D01*
X135424212Y-86774617D01*
X135686029Y-86512800D01*
X135694597Y-86512800D01*
X135782077Y-86495399D01*
X135864481Y-86461266D01*
X135938643Y-86411713D01*
X136001713Y-86348643D01*
X136051266Y-86274481D01*
X136085399Y-86192077D01*
X136102800Y-86104597D01*
X136102800Y-86015403D01*
X136085399Y-85927923D01*
X136051266Y-85845519D01*
X136001713Y-85771357D01*
X135960356Y-85730000D01*
X136001713Y-85688643D01*
X136051266Y-85614481D01*
X136085399Y-85532077D01*
X136102800Y-85444597D01*
X136102800Y-85355403D01*
X136085399Y-85267923D01*
X136051266Y-85185519D01*
X136001713Y-85111357D01*
X135966648Y-85076292D01*
X136001266Y-85024481D01*
X136035399Y-84942077D01*
X136052800Y-84854597D01*
X136052800Y-84765403D01*
X136035399Y-84677923D01*
X136001266Y-84595519D01*
X135951713Y-84521357D01*
X135935356Y-84505000D01*
X135991713Y-84448643D01*
X136041266Y-84374481D01*
X136075399Y-84292077D01*
X136092800Y-84204597D01*
X136092800Y-84115403D01*
X136075399Y-84027923D01*
X136041266Y-83945519D01*
X135991713Y-83871357D01*
X135965356Y-83845000D01*
X136001713Y-83808643D01*
X136051266Y-83734481D01*
X136085399Y-83652077D01*
X136102800Y-83564597D01*
X136102800Y-83475403D01*
X136085399Y-83387923D01*
X136051266Y-83305519D01*
X136001713Y-83231357D01*
X135965356Y-83195000D01*
X136001713Y-83158643D01*
X136051266Y-83084481D01*
X136085399Y-83002077D01*
X136102800Y-82914597D01*
X136102800Y-82825403D01*
X136085399Y-82737923D01*
X136051266Y-82655519D01*
X136001713Y-82581357D01*
X135986727Y-82566371D01*
X135986727Y-82134839D01*
X135988363Y-82118227D01*
X135986727Y-82101615D01*
X135986727Y-82101607D01*
X135981828Y-82051870D01*
X135981303Y-82050137D01*
X135962473Y-81988062D01*
X135955220Y-81974493D01*
X135931041Y-81929257D01*
X135888740Y-81877714D01*
X135875824Y-81867114D01*
X135705957Y-81697247D01*
X135695357Y-81684331D01*
X135643814Y-81642030D01*
X135585009Y-81610598D01*
X135521201Y-81591243D01*
X135471464Y-81586344D01*
X135471456Y-81586344D01*
X135454844Y-81584708D01*
X135438232Y-81586344D01*
X135363181Y-81586344D01*
X133008929Y-79232093D01*
X132998329Y-79219177D01*
X132946786Y-79176876D01*
X132887981Y-79145444D01*
X132824173Y-79126089D01*
X132774436Y-79121190D01*
X132774428Y-79121190D01*
X132757816Y-79119554D01*
X132741204Y-79121190D01*
X132163206Y-79121190D01*
X130712330Y-77670316D01*
X130712330Y-77160000D01*
X130704330Y-77078778D01*
X130680639Y-77000677D01*
X130642166Y-76928699D01*
X130590390Y-76865610D01*
X130527301Y-76813834D01*
X130455323Y-76775361D01*
X130377222Y-76751670D01*
X130296000Y-76743670D01*
X129876000Y-76743670D01*
X129866000Y-76744655D01*
X129856000Y-76743670D01*
X129636000Y-76743670D01*
X129636000Y-73375000D01*
X138719670Y-73375000D01*
X138719670Y-73595000D01*
G36*
X134744860Y-87356611D02*
X134819022Y-87406164D01*
X134901426Y-87440297D01*
X134988906Y-87457698D01*
X135078100Y-87457698D01*
X135165580Y-87440297D01*
X135191308Y-87429640D01*
X135197568Y-87444753D01*
X135247121Y-87518915D01*
X135261501Y-87533295D01*
X135261501Y-87569789D01*
X135089790Y-87741500D01*
X134312340Y-87741500D01*
X134353055Y-87700785D01*
X134402608Y-87626623D01*
X134436741Y-87544219D01*
X134454142Y-87456739D01*
X134454142Y-87367545D01*
X134449339Y-87343398D01*
X134731647Y-87343398D01*
X134744860Y-87356611D01*
X134744860Y-87356611D01*
G37*
X134744860Y-87356611D02*
X134819022Y-87406164D01*
X134901426Y-87440297D01*
X134988906Y-87457698D01*
X135078100Y-87457698D01*
X135165580Y-87440297D01*
X135191308Y-87429640D01*
X135197568Y-87444753D01*
X135247121Y-87518915D01*
X135261501Y-87533295D01*
X135261501Y-87569789D01*
X135089790Y-87741500D01*
X134312340Y-87741500D01*
X134353055Y-87700785D01*
X134402608Y-87626623D01*
X134436741Y-87544219D01*
X134454142Y-87456739D01*
X134454142Y-87367545D01*
X134449339Y-87343398D01*
X134731647Y-87343398D01*
X134744860Y-87356611D01*
G36*
X131512789Y-87291500D02*
X130709523Y-87291500D01*
X130704330Y-87238778D01*
X130680639Y-87160677D01*
X130642166Y-87088699D01*
X130590390Y-87025610D01*
X130553092Y-86995000D01*
X130590390Y-86964390D01*
X130642166Y-86901301D01*
X130680639Y-86829323D01*
X130704330Y-86751222D01*
X130709523Y-86698500D01*
X130919790Y-86698500D01*
X131512789Y-87291500D01*
X131512789Y-87291500D01*
G37*
X131512789Y-87291500D02*
X130709523Y-87291500D01*
X130704330Y-87238778D01*
X130680639Y-87160677D01*
X130642166Y-87088699D01*
X130590390Y-87025610D01*
X130553092Y-86995000D01*
X130590390Y-86964390D01*
X130642166Y-86901301D01*
X130680639Y-86829323D01*
X130704330Y-86751222D01*
X130709523Y-86698500D01*
X130919790Y-86698500D01*
X131512789Y-87291500D01*
G36*
X132680613Y-86820677D02*
X131999388Y-86820677D01*
X131724612Y-86545901D01*
X132955388Y-86545901D01*
X132680613Y-86820677D01*
X132680613Y-86820677D01*
G37*
X132680613Y-86820677D02*
X131999388Y-86820677D01*
X131724612Y-86545901D01*
X132955388Y-86545901D01*
X132680613Y-86820677D01*
G36*
X134557200Y-86084090D02*
X134517812Y-86123478D01*
X134181827Y-86123478D01*
X134239505Y-86065800D01*
X134557200Y-86065800D01*
X134557200Y-86084090D01*
X134557200Y-86084090D01*
G37*
X134557200Y-86084090D02*
X134517812Y-86123478D01*
X134181827Y-86123478D01*
X134239505Y-86065800D01*
X134557200Y-86065800D01*
X134557200Y-86084090D01*
G36*
X130954891Y-84097602D02*
X130965487Y-84110513D01*
X131017030Y-84152814D01*
X131075835Y-84184246D01*
X131139643Y-84203601D01*
X131189380Y-84208500D01*
X131189388Y-84208500D01*
X131206000Y-84210136D01*
X131222612Y-84208500D01*
X132606786Y-84208500D01*
X132588730Y-84235523D01*
X132554597Y-84317927D01*
X132537196Y-84405407D01*
X132537196Y-84494601D01*
X132554597Y-84582081D01*
X132588730Y-84664485D01*
X132638283Y-84738647D01*
X132673836Y-84774200D01*
X132098162Y-84774200D01*
X132097465Y-84773734D01*
X132015061Y-84739601D01*
X131927581Y-84722200D01*
X131838387Y-84722200D01*
X131750907Y-84739601D01*
X131668503Y-84773734D01*
X131594341Y-84823287D01*
X131531271Y-84886357D01*
X131529886Y-84888429D01*
X131524246Y-84869835D01*
X131521446Y-84864597D01*
X131492814Y-84811030D01*
X131450513Y-84759487D01*
X131437602Y-84748891D01*
X130712330Y-84023620D01*
X130712330Y-83855041D01*
X130954891Y-84097602D01*
X130954891Y-84097602D01*
G37*
X130954891Y-84097602D02*
X130965487Y-84110513D01*
X131017030Y-84152814D01*
X131075835Y-84184246D01*
X131139643Y-84203601D01*
X131189380Y-84208500D01*
X131189388Y-84208500D01*
X131206000Y-84210136D01*
X131222612Y-84208500D01*
X132606786Y-84208500D01*
X132588730Y-84235523D01*
X132554597Y-84317927D01*
X132537196Y-84405407D01*
X132537196Y-84494601D01*
X132554597Y-84582081D01*
X132588730Y-84664485D01*
X132638283Y-84738647D01*
X132673836Y-84774200D01*
X132098162Y-84774200D01*
X132097465Y-84773734D01*
X132015061Y-84739601D01*
X131927581Y-84722200D01*
X131838387Y-84722200D01*
X131750907Y-84739601D01*
X131668503Y-84773734D01*
X131594341Y-84823287D01*
X131531271Y-84886357D01*
X131529886Y-84888429D01*
X131524246Y-84869835D01*
X131521446Y-84864597D01*
X131492814Y-84811030D01*
X131450513Y-84759487D01*
X131437602Y-84748891D01*
X130712330Y-84023620D01*
X130712330Y-83855041D01*
X130954891Y-84097602D01*
G36*
X141837670Y-84211222D02*
X141861361Y-84289323D01*
X141899834Y-84361301D01*
X141951610Y-84424390D01*
X141988908Y-84455000D01*
X141951610Y-84485610D01*
X141899834Y-84548699D01*
X141861361Y-84620677D01*
X141837670Y-84698778D01*
X141829670Y-84780000D01*
X141829670Y-84871601D01*
X140679149Y-84871601D01*
X141392251Y-84158500D01*
X141832477Y-84158500D01*
X141837670Y-84211222D01*
X141837670Y-84211222D01*
G37*
X141837670Y-84211222D02*
X141861361Y-84289323D01*
X141899834Y-84361301D01*
X141951610Y-84424390D01*
X141988908Y-84455000D01*
X141951610Y-84485610D01*
X141899834Y-84548699D01*
X141861361Y-84620677D01*
X141837670Y-84698778D01*
X141829670Y-84780000D01*
X141829670Y-84871601D01*
X140679149Y-84871601D01*
X141392251Y-84158500D01*
X141832477Y-84158500D01*
X141837670Y-84211222D01*
G36*
X137688308Y-84679059D02*
X137698510Y-84691490D01*
X137710939Y-84701690D01*
X137710940Y-84701691D01*
X137746119Y-84730562D01*
X137737200Y-84775403D01*
X137737200Y-84804200D01*
X137424951Y-84804200D01*
X137392800Y-84772049D01*
X137392800Y-84725403D01*
X137375399Y-84637923D01*
X137341266Y-84555519D01*
X137294682Y-84485800D01*
X137495050Y-84485800D01*
X137688308Y-84679059D01*
X137688308Y-84679059D01*
G37*
X137688308Y-84679059D02*
X137698510Y-84691490D01*
X137710939Y-84701690D01*
X137710940Y-84701691D01*
X137746119Y-84730562D01*
X137737200Y-84775403D01*
X137737200Y-84804200D01*
X137424951Y-84804200D01*
X137392800Y-84772049D01*
X137392800Y-84725403D01*
X137375399Y-84637923D01*
X137341266Y-84555519D01*
X137294682Y-84485800D01*
X137495050Y-84485800D01*
X137688308Y-84679059D01*
G36*
X133688310Y-84669061D02*
X133698510Y-84681490D01*
X133710939Y-84691690D01*
X133710940Y-84691691D01*
X133748119Y-84722203D01*
X133776731Y-84737496D01*
X133804719Y-84752456D01*
X133866132Y-84771086D01*
X133897751Y-84774200D01*
X133306156Y-84774200D01*
X133341709Y-84738647D01*
X133391262Y-84664485D01*
X133425395Y-84582081D01*
X133442796Y-84494601D01*
X133442796Y-84423547D01*
X133688310Y-84669061D01*
X133688310Y-84669061D01*
G37*
X133688310Y-84669061D02*
X133698510Y-84681490D01*
X133710939Y-84691690D01*
X133710940Y-84691691D01*
X133748119Y-84722203D01*
X133776731Y-84737496D01*
X133804719Y-84752456D01*
X133866132Y-84771086D01*
X133897751Y-84774200D01*
X133306156Y-84774200D01*
X133341709Y-84738647D01*
X133391262Y-84664485D01*
X133425395Y-84582081D01*
X133442796Y-84494601D01*
X133442796Y-84423547D01*
X133688310Y-84669061D01*
G36*
X141899834Y-79281301D02*
X141951610Y-79344390D01*
X141988908Y-79375000D01*
X141951610Y-79405610D01*
X141899834Y-79468699D01*
X141861361Y-79540677D01*
X141837670Y-79618778D01*
X141829670Y-79700000D01*
X141829670Y-79957619D01*
X141398893Y-80388397D01*
X141367187Y-80427030D01*
X141335754Y-80485836D01*
X141329644Y-80505978D01*
X141309696Y-80492649D01*
X141227292Y-80458516D01*
X141139812Y-80441115D01*
X141050618Y-80441115D01*
X140963138Y-80458516D01*
X140880734Y-80492649D01*
X140806572Y-80542202D01*
X140743502Y-80605272D01*
X140693949Y-80679434D01*
X140659816Y-80761838D01*
X140642415Y-80849318D01*
X140642415Y-80938512D01*
X140659816Y-81025992D01*
X140693949Y-81108396D01*
X140743502Y-81182558D01*
X140769415Y-81208471D01*
X140769416Y-81714260D01*
X139587106Y-82896571D01*
X139550459Y-82896571D01*
X139462979Y-82913972D01*
X139380575Y-82948105D01*
X139306413Y-82997658D01*
X139243343Y-83060728D01*
X139193790Y-83134890D01*
X139159657Y-83217294D01*
X139142256Y-83304774D01*
X139142256Y-83393968D01*
X139159657Y-83481448D01*
X139193790Y-83563852D01*
X139243343Y-83638014D01*
X139301219Y-83695890D01*
X138575753Y-83695890D01*
X138559756Y-83694314D01*
X138543759Y-83695890D01*
X138543754Y-83695890D01*
X138495889Y-83700604D01*
X138434476Y-83719234D01*
X138423958Y-83724856D01*
X138414481Y-83718524D01*
X138332077Y-83684391D01*
X138244597Y-83666990D01*
X138155403Y-83666990D01*
X138067923Y-83684391D01*
X137985519Y-83718524D01*
X137911357Y-83768077D01*
X137848287Y-83831147D01*
X137810815Y-83887228D01*
X137755281Y-83857544D01*
X137740298Y-83852999D01*
X137744481Y-83851266D01*
X137818643Y-83801713D01*
X137881713Y-83738643D01*
X137931266Y-83664481D01*
X137965399Y-83582077D01*
X137982800Y-83494597D01*
X137982800Y-83405403D01*
X137966631Y-83324119D01*
X138089057Y-83201693D01*
X138101490Y-83191490D01*
X138142203Y-83141880D01*
X138172456Y-83085281D01*
X138191086Y-83023868D01*
X138195800Y-82976003D01*
X138195800Y-82976001D01*
X138197376Y-82960001D01*
X138195800Y-82944001D01*
X138195800Y-82514950D01*
X138374951Y-82335800D01*
X138614458Y-82335800D01*
X138630458Y-82337376D01*
X138646458Y-82335800D01*
X138646461Y-82335800D01*
X138694326Y-82331086D01*
X138755739Y-82312456D01*
X138812338Y-82282203D01*
X138861948Y-82241490D01*
X138872153Y-82229055D01*
X139095050Y-82006158D01*
X139072176Y-82061381D01*
X139054775Y-82148861D01*
X139054775Y-82238055D01*
X139072176Y-82325535D01*
X139106309Y-82407939D01*
X139155862Y-82482101D01*
X139218932Y-82545171D01*
X139293094Y-82594724D01*
X139375498Y-82628857D01*
X139462978Y-82646258D01*
X139552172Y-82646258D01*
X139639652Y-82628857D01*
X139722056Y-82594724D01*
X139796218Y-82545171D01*
X139859288Y-82482101D01*
X139908841Y-82407939D01*
X139942974Y-82325535D01*
X139960375Y-82238055D01*
X139960375Y-82148861D01*
X139942974Y-82061381D01*
X139908841Y-81978977D01*
X139859288Y-81904815D01*
X139796218Y-81841745D01*
X139722056Y-81792192D01*
X139639652Y-81758059D01*
X139552172Y-81740658D01*
X139462978Y-81740658D01*
X139375498Y-81758059D01*
X139320275Y-81780933D01*
X141871993Y-79229215D01*
X141899834Y-79281301D01*
X141899834Y-79281301D01*
G37*
X141899834Y-79281301D02*
X141951610Y-79344390D01*
X141988908Y-79375000D01*
X141951610Y-79405610D01*
X141899834Y-79468699D01*
X141861361Y-79540677D01*
X141837670Y-79618778D01*
X141829670Y-79700000D01*
X141829670Y-79957619D01*
X141398893Y-80388397D01*
X141367187Y-80427030D01*
X141335754Y-80485836D01*
X141329644Y-80505978D01*
X141309696Y-80492649D01*
X141227292Y-80458516D01*
X141139812Y-80441115D01*
X141050618Y-80441115D01*
X140963138Y-80458516D01*
X140880734Y-80492649D01*
X140806572Y-80542202D01*
X140743502Y-80605272D01*
X140693949Y-80679434D01*
X140659816Y-80761838D01*
X140642415Y-80849318D01*
X140642415Y-80938512D01*
X140659816Y-81025992D01*
X140693949Y-81108396D01*
X140743502Y-81182558D01*
X140769415Y-81208471D01*
X140769416Y-81714260D01*
X139587106Y-82896571D01*
X139550459Y-82896571D01*
X139462979Y-82913972D01*
X139380575Y-82948105D01*
X139306413Y-82997658D01*
X139243343Y-83060728D01*
X139193790Y-83134890D01*
X139159657Y-83217294D01*
X139142256Y-83304774D01*
X139142256Y-83393968D01*
X139159657Y-83481448D01*
X139193790Y-83563852D01*
X139243343Y-83638014D01*
X139301219Y-83695890D01*
X138575753Y-83695890D01*
X138559756Y-83694314D01*
X138543759Y-83695890D01*
X138543754Y-83695890D01*
X138495889Y-83700604D01*
X138434476Y-83719234D01*
X138423958Y-83724856D01*
X138414481Y-83718524D01*
X138332077Y-83684391D01*
X138244597Y-83666990D01*
X138155403Y-83666990D01*
X138067923Y-83684391D01*
X137985519Y-83718524D01*
X137911357Y-83768077D01*
X137848287Y-83831147D01*
X137810815Y-83887228D01*
X137755281Y-83857544D01*
X137740298Y-83852999D01*
X137744481Y-83851266D01*
X137818643Y-83801713D01*
X137881713Y-83738643D01*
X137931266Y-83664481D01*
X137965399Y-83582077D01*
X137982800Y-83494597D01*
X137982800Y-83405403D01*
X137966631Y-83324119D01*
X138089057Y-83201693D01*
X138101490Y-83191490D01*
X138142203Y-83141880D01*
X138172456Y-83085281D01*
X138191086Y-83023868D01*
X138195800Y-82976003D01*
X138195800Y-82976001D01*
X138197376Y-82960001D01*
X138195800Y-82944001D01*
X138195800Y-82514950D01*
X138374951Y-82335800D01*
X138614458Y-82335800D01*
X138630458Y-82337376D01*
X138646458Y-82335800D01*
X138646461Y-82335800D01*
X138694326Y-82331086D01*
X138755739Y-82312456D01*
X138812338Y-82282203D01*
X138861948Y-82241490D01*
X138872153Y-82229055D01*
X139095050Y-82006158D01*
X139072176Y-82061381D01*
X139054775Y-82148861D01*
X139054775Y-82238055D01*
X139072176Y-82325535D01*
X139106309Y-82407939D01*
X139155862Y-82482101D01*
X139218932Y-82545171D01*
X139293094Y-82594724D01*
X139375498Y-82628857D01*
X139462978Y-82646258D01*
X139552172Y-82646258D01*
X139639652Y-82628857D01*
X139722056Y-82594724D01*
X139796218Y-82545171D01*
X139859288Y-82482101D01*
X139908841Y-82407939D01*
X139942974Y-82325535D01*
X139960375Y-82238055D01*
X139960375Y-82148861D01*
X139942974Y-82061381D01*
X139908841Y-81978977D01*
X139859288Y-81904815D01*
X139796218Y-81841745D01*
X139722056Y-81792192D01*
X139639652Y-81758059D01*
X139552172Y-81740658D01*
X139462978Y-81740658D01*
X139375498Y-81758059D01*
X139320275Y-81780933D01*
X141871993Y-79229215D01*
X141899834Y-79281301D01*
G36*
X141774500Y-82518582D02*
X141772248Y-82541446D01*
X141781236Y-82632700D01*
X141791459Y-82666399D01*
X141807854Y-82720446D01*
X141829670Y-82761262D01*
X141829670Y-82860000D01*
X141837670Y-82941222D01*
X141861361Y-83019323D01*
X141899834Y-83091301D01*
X141951610Y-83154390D01*
X141988908Y-83185000D01*
X141951610Y-83215610D01*
X141899834Y-83278699D01*
X141861361Y-83350677D01*
X141837670Y-83428778D01*
X141832477Y-83481500D01*
X141253380Y-83481500D01*
X141203643Y-83486399D01*
X141139835Y-83505754D01*
X141081030Y-83537186D01*
X141029487Y-83579487D01*
X140987186Y-83631030D01*
X140974517Y-83654732D01*
X140894288Y-83734961D01*
X140914981Y-83696247D01*
X140922456Y-83682262D01*
X140941086Y-83620849D01*
X140945800Y-83572984D01*
X140945800Y-83572981D01*
X140947376Y-83556981D01*
X140945800Y-83540981D01*
X140945800Y-83344174D01*
X141774500Y-82515474D01*
X141774500Y-82518582D01*
X141774500Y-82518582D01*
G37*
X141774500Y-82518582D02*
X141772248Y-82541446D01*
X141781236Y-82632700D01*
X141791459Y-82666399D01*
X141807854Y-82720446D01*
X141829670Y-82761262D01*
X141829670Y-82860000D01*
X141837670Y-82941222D01*
X141861361Y-83019323D01*
X141899834Y-83091301D01*
X141951610Y-83154390D01*
X141988908Y-83185000D01*
X141951610Y-83215610D01*
X141899834Y-83278699D01*
X141861361Y-83350677D01*
X141837670Y-83428778D01*
X141832477Y-83481500D01*
X141253380Y-83481500D01*
X141203643Y-83486399D01*
X141139835Y-83505754D01*
X141081030Y-83537186D01*
X141029487Y-83579487D01*
X140987186Y-83631030D01*
X140974517Y-83654732D01*
X140894288Y-83734961D01*
X140914981Y-83696247D01*
X140922456Y-83682262D01*
X140941086Y-83620849D01*
X140945800Y-83572984D01*
X140945800Y-83572981D01*
X140947376Y-83556981D01*
X140945800Y-83540981D01*
X140945800Y-83344174D01*
X141774500Y-82515474D01*
X141774500Y-82518582D01*
G36*
X130743084Y-81448658D02*
X130806154Y-81511728D01*
X130880316Y-81561281D01*
X130962720Y-81595414D01*
X131050200Y-81612815D01*
X131139394Y-81612815D01*
X131226874Y-81595414D01*
X131297417Y-81566194D01*
X131367923Y-81595399D01*
X131455403Y-81612800D01*
X131544597Y-81612800D01*
X131632077Y-81595399D01*
X131714481Y-81561266D01*
X131754966Y-81534215D01*
X131765519Y-81541266D01*
X131847923Y-81575399D01*
X131935403Y-81592800D01*
X132024597Y-81592800D01*
X132112077Y-81575399D01*
X132131500Y-81567354D01*
X132131500Y-81726619D01*
X132136399Y-81776356D01*
X132155754Y-81840164D01*
X132187186Y-81898969D01*
X132229487Y-81950512D01*
X132281030Y-81992814D01*
X132339835Y-82024246D01*
X132359444Y-82030194D01*
X133048845Y-82719596D01*
X132999097Y-82709700D01*
X132909903Y-82709700D01*
X132822423Y-82727101D01*
X132740019Y-82761234D01*
X132665857Y-82810787D01*
X132602787Y-82873857D01*
X132553234Y-82948019D01*
X132519101Y-83030423D01*
X132501700Y-83117903D01*
X132501700Y-83207097D01*
X132519101Y-83294577D01*
X132553234Y-83376981D01*
X132602787Y-83451143D01*
X132665857Y-83514213D01*
X132691729Y-83531500D01*
X131346211Y-83531500D01*
X130708957Y-82894246D01*
X130712330Y-82860000D01*
X130712330Y-82240000D01*
X130704330Y-82158778D01*
X130680639Y-82080677D01*
X130642166Y-82008699D01*
X130590390Y-81945610D01*
X130553092Y-81915000D01*
X130590390Y-81884390D01*
X130642166Y-81821301D01*
X130680639Y-81749323D01*
X130704330Y-81671222D01*
X130712330Y-81590000D01*
X130712330Y-81402631D01*
X130743084Y-81448658D01*
X130743084Y-81448658D01*
G37*
X130743084Y-81448658D02*
X130806154Y-81511728D01*
X130880316Y-81561281D01*
X130962720Y-81595414D01*
X131050200Y-81612815D01*
X131139394Y-81612815D01*
X131226874Y-81595414D01*
X131297417Y-81566194D01*
X131367923Y-81595399D01*
X131455403Y-81612800D01*
X131544597Y-81612800D01*
X131632077Y-81595399D01*
X131714481Y-81561266D01*
X131754966Y-81534215D01*
X131765519Y-81541266D01*
X131847923Y-81575399D01*
X131935403Y-81592800D01*
X132024597Y-81592800D01*
X132112077Y-81575399D01*
X132131500Y-81567354D01*
X132131500Y-81726619D01*
X132136399Y-81776356D01*
X132155754Y-81840164D01*
X132187186Y-81898969D01*
X132229487Y-81950512D01*
X132281030Y-81992814D01*
X132339835Y-82024246D01*
X132359444Y-82030194D01*
X133048845Y-82719596D01*
X132999097Y-82709700D01*
X132909903Y-82709700D01*
X132822423Y-82727101D01*
X132740019Y-82761234D01*
X132665857Y-82810787D01*
X132602787Y-82873857D01*
X132553234Y-82948019D01*
X132519101Y-83030423D01*
X132501700Y-83117903D01*
X132501700Y-83207097D01*
X132519101Y-83294577D01*
X132553234Y-83376981D01*
X132602787Y-83451143D01*
X132665857Y-83514213D01*
X132691729Y-83531500D01*
X131346211Y-83531500D01*
X130708957Y-82894246D01*
X130712330Y-82860000D01*
X130712330Y-82240000D01*
X130704330Y-82158778D01*
X130680639Y-82080677D01*
X130642166Y-82008699D01*
X130590390Y-81945610D01*
X130553092Y-81915000D01*
X130590390Y-81884390D01*
X130642166Y-81821301D01*
X130680639Y-81749323D01*
X130704330Y-81671222D01*
X130712330Y-81590000D01*
X130712330Y-81402631D01*
X130743084Y-81448658D01*
G36*
X134971861Y-82152446D02*
X134982457Y-82165357D01*
X135034000Y-82207658D01*
X135092805Y-82239090D01*
X135134347Y-82251691D01*
X135156612Y-82258445D01*
X135162906Y-82259065D01*
X135206350Y-82263344D01*
X135206357Y-82263344D01*
X135222969Y-82264980D01*
X135239581Y-82263344D01*
X135309728Y-82263344D01*
X135309727Y-82569917D01*
X135298287Y-82581357D01*
X135248734Y-82655519D01*
X135239275Y-82678356D01*
X135199857Y-82666399D01*
X135150120Y-82661500D01*
X135150112Y-82661500D01*
X135133500Y-82659864D01*
X135116888Y-82661500D01*
X134773307Y-82661500D01*
X133420322Y-81308516D01*
X133420322Y-80858433D01*
X133421958Y-80841821D01*
X133420322Y-80825209D01*
X133420322Y-80825202D01*
X133415886Y-80780164D01*
X133415423Y-80775464D01*
X133404281Y-80738734D01*
X133396068Y-80711657D01*
X133364636Y-80652852D01*
X133322334Y-80601309D01*
X133309429Y-80590718D01*
X132516901Y-79798190D01*
X132617606Y-79798190D01*
X134971861Y-82152446D01*
X134971861Y-82152446D01*
G37*
X134971861Y-82152446D02*
X134982457Y-82165357D01*
X135034000Y-82207658D01*
X135092805Y-82239090D01*
X135134347Y-82251691D01*
X135156612Y-82258445D01*
X135162906Y-82259065D01*
X135206350Y-82263344D01*
X135206357Y-82263344D01*
X135222969Y-82264980D01*
X135239581Y-82263344D01*
X135309728Y-82263344D01*
X135309727Y-82569917D01*
X135298287Y-82581357D01*
X135248734Y-82655519D01*
X135239275Y-82678356D01*
X135199857Y-82666399D01*
X135150120Y-82661500D01*
X135150112Y-82661500D01*
X135133500Y-82659864D01*
X135116888Y-82661500D01*
X134773307Y-82661500D01*
X133420322Y-81308516D01*
X133420322Y-80858433D01*
X133421958Y-80841821D01*
X133420322Y-80825209D01*
X133420322Y-80825202D01*
X133415886Y-80780164D01*
X133415423Y-80775464D01*
X133404281Y-80738734D01*
X133396068Y-80711657D01*
X133364636Y-80652852D01*
X133322334Y-80601309D01*
X133309429Y-80590718D01*
X132516901Y-79798190D01*
X132617606Y-79798190D01*
X134971861Y-82152446D01*
G36*
X131432790Y-79671500D02*
X130709523Y-79671500D01*
X130704330Y-79618778D01*
X130680639Y-79540677D01*
X130642166Y-79468699D01*
X130590390Y-79405610D01*
X130553092Y-79375000D01*
X130590390Y-79344390D01*
X130642166Y-79281301D01*
X130680639Y-79209323D01*
X130704330Y-79131222D01*
X130709523Y-79078500D01*
X130839790Y-79078500D01*
X131432790Y-79671500D01*
X131432790Y-79671500D01*
G37*
X131432790Y-79671500D02*
X130709523Y-79671500D01*
X130704330Y-79618778D01*
X130680639Y-79540677D01*
X130642166Y-79468699D01*
X130590390Y-79405610D01*
X130553092Y-79375000D01*
X130590390Y-79344390D01*
X130642166Y-79281301D01*
X130680639Y-79209323D01*
X130704330Y-79131222D01*
X130709523Y-79078500D01*
X130839790Y-79078500D01*
X131432790Y-79671500D01*
G36*
X141837670Y-77861222D02*
X141861361Y-77939323D01*
X141899834Y-78011301D01*
X141951610Y-78074390D01*
X141988908Y-78105000D01*
X141951610Y-78135610D01*
X141899834Y-78198699D01*
X141861361Y-78270677D01*
X141837670Y-78348778D01*
X141831930Y-78407058D01*
X141770293Y-78425754D01*
X141711488Y-78457186D01*
X141702200Y-78464809D01*
X141702200Y-77858950D01*
X141752651Y-77808500D01*
X141832477Y-77808500D01*
X141837670Y-77861222D01*
X141837670Y-77861222D01*
G37*
X141837670Y-77861222D02*
X141861361Y-77939323D01*
X141899834Y-78011301D01*
X141951610Y-78074390D01*
X141988908Y-78105000D01*
X141951610Y-78135610D01*
X141899834Y-78198699D01*
X141861361Y-78270677D01*
X141837670Y-78348778D01*
X141831930Y-78407058D01*
X141770293Y-78425754D01*
X141711488Y-78457186D01*
X141702200Y-78464809D01*
X141702200Y-77858950D01*
X141752651Y-77808500D01*
X141832477Y-77808500D01*
X141837670Y-77861222D01*
G04 #@! TD*
M02*
