G04 #@! TF.GenerationSoftware,KiCad,Pcbnew,(5.0.1-3-g963ef8bb5)*
G04 #@! TF.CreationDate,2019-02-27T23:12:09+01:00*
G04 #@! TF.ProjectId,TLM-v1,544C4D2D76312E6B696361645F706362,1.0*
G04 #@! TF.SameCoordinates,Original*
G04 #@! TF.FileFunction,Copper,L2,Inr,Signal*
G04 #@! TF.FilePolarity,Positive*
%FSLAX46Y46*%
G04 Gerber Fmt 4.6, Leading zero omitted, Abs format (unit mm)*
G04 Created by KiCad (PCBNEW (5.0.1-3-g963ef8bb5)) date 2019 February 27, Wednesday 23:12:09*
%MOMM*%
%LPD*%
G01*
G04 APERTURE LIST*
G04 #@! TA.AperFunction,Conductor*
%ADD10C,0.100000*%
G04 #@! TD*
G04 #@! TA.AperFunction,ViaPad*
%ADD11C,0.900000*%
G04 #@! TD*
G04 #@! TA.AperFunction,ViaPad*
%ADD12C,0.355600*%
G04 #@! TD*
G04 #@! TA.AperFunction,ViaPad*
%ADD13C,0.482600*%
G04 #@! TD*
G04 #@! TA.AperFunction,Conductor*
%ADD14C,0.200000*%
G04 #@! TD*
G04 APERTURE END LIST*
D10*
G04 #@! TO.N,GND*
G04 #@! TO.C,U1*
G36*
X129873643Y-75750867D02*
X129891116Y-75753459D01*
X129908251Y-75757751D01*
X129924883Y-75763702D01*
X129940851Y-75771254D01*
X129956003Y-75780335D01*
X129970191Y-75790858D01*
X129983279Y-75802721D01*
X129995142Y-75815809D01*
X130005665Y-75829997D01*
X130014746Y-75845149D01*
X130022298Y-75861117D01*
X130028249Y-75877749D01*
X130032541Y-75894884D01*
X130035133Y-75912357D01*
X130036000Y-75930000D01*
X130036000Y-76470000D01*
X130035133Y-76487643D01*
X130032541Y-76505116D01*
X130028249Y-76522251D01*
X130022298Y-76538883D01*
X130014746Y-76554851D01*
X130005665Y-76570003D01*
X129995142Y-76584191D01*
X129983279Y-76597279D01*
X129970191Y-76609142D01*
X129956003Y-76619665D01*
X129940851Y-76628746D01*
X129924883Y-76636298D01*
X129908251Y-76642249D01*
X129891116Y-76646541D01*
X129873643Y-76649133D01*
X129856000Y-76650000D01*
X129016000Y-76650000D01*
X128998357Y-76649133D01*
X128980884Y-76646541D01*
X128963749Y-76642249D01*
X128947117Y-76636298D01*
X128931149Y-76628746D01*
X128915997Y-76619665D01*
X128901809Y-76609142D01*
X128888721Y-76597279D01*
X128876858Y-76584191D01*
X128866335Y-76570003D01*
X128857254Y-76554851D01*
X128849702Y-76538883D01*
X128843751Y-76522251D01*
X128839459Y-76505116D01*
X128836867Y-76487643D01*
X128836000Y-76470000D01*
X128836000Y-75930000D01*
X128836867Y-75912357D01*
X128839459Y-75894884D01*
X128843751Y-75877749D01*
X128849702Y-75861117D01*
X128857254Y-75845149D01*
X128866335Y-75829997D01*
X128876858Y-75815809D01*
X128888721Y-75802721D01*
X128901809Y-75790858D01*
X128915997Y-75780335D01*
X128931149Y-75771254D01*
X128947117Y-75763702D01*
X128963749Y-75757751D01*
X128980884Y-75753459D01*
X128998357Y-75750867D01*
X129016000Y-75750000D01*
X129856000Y-75750000D01*
X129873643Y-75750867D01*
X129873643Y-75750867D01*
G37*
D11*
X129436000Y-76200000D03*
D10*
G04 #@! TO.N,PA06_ADC6*
G36*
X129873643Y-77020867D02*
X129891116Y-77023459D01*
X129908251Y-77027751D01*
X129924883Y-77033702D01*
X129940851Y-77041254D01*
X129956003Y-77050335D01*
X129970191Y-77060858D01*
X129983279Y-77072721D01*
X129995142Y-77085809D01*
X130005665Y-77099997D01*
X130014746Y-77115149D01*
X130022298Y-77131117D01*
X130028249Y-77147749D01*
X130032541Y-77164884D01*
X130035133Y-77182357D01*
X130036000Y-77200000D01*
X130036000Y-77740000D01*
X130035133Y-77757643D01*
X130032541Y-77775116D01*
X130028249Y-77792251D01*
X130022298Y-77808883D01*
X130014746Y-77824851D01*
X130005665Y-77840003D01*
X129995142Y-77854191D01*
X129983279Y-77867279D01*
X129970191Y-77879142D01*
X129956003Y-77889665D01*
X129940851Y-77898746D01*
X129924883Y-77906298D01*
X129908251Y-77912249D01*
X129891116Y-77916541D01*
X129873643Y-77919133D01*
X129856000Y-77920000D01*
X129016000Y-77920000D01*
X128998357Y-77919133D01*
X128980884Y-77916541D01*
X128963749Y-77912249D01*
X128947117Y-77906298D01*
X128931149Y-77898746D01*
X128915997Y-77889665D01*
X128901809Y-77879142D01*
X128888721Y-77867279D01*
X128876858Y-77854191D01*
X128866335Y-77840003D01*
X128857254Y-77824851D01*
X128849702Y-77808883D01*
X128843751Y-77792251D01*
X128839459Y-77775116D01*
X128836867Y-77757643D01*
X128836000Y-77740000D01*
X128836000Y-77200000D01*
X128836867Y-77182357D01*
X128839459Y-77164884D01*
X128843751Y-77147749D01*
X128849702Y-77131117D01*
X128857254Y-77115149D01*
X128866335Y-77099997D01*
X128876858Y-77085809D01*
X128888721Y-77072721D01*
X128901809Y-77060858D01*
X128915997Y-77050335D01*
X128931149Y-77041254D01*
X128947117Y-77033702D01*
X128963749Y-77027751D01*
X128980884Y-77023459D01*
X128998357Y-77020867D01*
X129016000Y-77020000D01*
X129856000Y-77020000D01*
X129873643Y-77020867D01*
X129873643Y-77020867D01*
G37*
D11*
X129436000Y-77470000D03*
D10*
G04 #@! TO.N,PA27_GPIO*
G36*
X129873643Y-78290867D02*
X129891116Y-78293459D01*
X129908251Y-78297751D01*
X129924883Y-78303702D01*
X129940851Y-78311254D01*
X129956003Y-78320335D01*
X129970191Y-78330858D01*
X129983279Y-78342721D01*
X129995142Y-78355809D01*
X130005665Y-78369997D01*
X130014746Y-78385149D01*
X130022298Y-78401117D01*
X130028249Y-78417749D01*
X130032541Y-78434884D01*
X130035133Y-78452357D01*
X130036000Y-78470000D01*
X130036000Y-79010000D01*
X130035133Y-79027643D01*
X130032541Y-79045116D01*
X130028249Y-79062251D01*
X130022298Y-79078883D01*
X130014746Y-79094851D01*
X130005665Y-79110003D01*
X129995142Y-79124191D01*
X129983279Y-79137279D01*
X129970191Y-79149142D01*
X129956003Y-79159665D01*
X129940851Y-79168746D01*
X129924883Y-79176298D01*
X129908251Y-79182249D01*
X129891116Y-79186541D01*
X129873643Y-79189133D01*
X129856000Y-79190000D01*
X129016000Y-79190000D01*
X128998357Y-79189133D01*
X128980884Y-79186541D01*
X128963749Y-79182249D01*
X128947117Y-79176298D01*
X128931149Y-79168746D01*
X128915997Y-79159665D01*
X128901809Y-79149142D01*
X128888721Y-79137279D01*
X128876858Y-79124191D01*
X128866335Y-79110003D01*
X128857254Y-79094851D01*
X128849702Y-79078883D01*
X128843751Y-79062251D01*
X128839459Y-79045116D01*
X128836867Y-79027643D01*
X128836000Y-79010000D01*
X128836000Y-78470000D01*
X128836867Y-78452357D01*
X128839459Y-78434884D01*
X128843751Y-78417749D01*
X128849702Y-78401117D01*
X128857254Y-78385149D01*
X128866335Y-78369997D01*
X128876858Y-78355809D01*
X128888721Y-78342721D01*
X128901809Y-78330858D01*
X128915997Y-78320335D01*
X128931149Y-78311254D01*
X128947117Y-78303702D01*
X128963749Y-78297751D01*
X128980884Y-78293459D01*
X128998357Y-78290867D01*
X129016000Y-78290000D01*
X129856000Y-78290000D01*
X129873643Y-78290867D01*
X129873643Y-78290867D01*
G37*
D11*
X129436000Y-78740000D03*
D10*
G04 #@! TO.N,PA07_ADC7*
G36*
X129873643Y-79560867D02*
X129891116Y-79563459D01*
X129908251Y-79567751D01*
X129924883Y-79573702D01*
X129940851Y-79581254D01*
X129956003Y-79590335D01*
X129970191Y-79600858D01*
X129983279Y-79612721D01*
X129995142Y-79625809D01*
X130005665Y-79639997D01*
X130014746Y-79655149D01*
X130022298Y-79671117D01*
X130028249Y-79687749D01*
X130032541Y-79704884D01*
X130035133Y-79722357D01*
X130036000Y-79740000D01*
X130036000Y-80280000D01*
X130035133Y-80297643D01*
X130032541Y-80315116D01*
X130028249Y-80332251D01*
X130022298Y-80348883D01*
X130014746Y-80364851D01*
X130005665Y-80380003D01*
X129995142Y-80394191D01*
X129983279Y-80407279D01*
X129970191Y-80419142D01*
X129956003Y-80429665D01*
X129940851Y-80438746D01*
X129924883Y-80446298D01*
X129908251Y-80452249D01*
X129891116Y-80456541D01*
X129873643Y-80459133D01*
X129856000Y-80460000D01*
X129016000Y-80460000D01*
X128998357Y-80459133D01*
X128980884Y-80456541D01*
X128963749Y-80452249D01*
X128947117Y-80446298D01*
X128931149Y-80438746D01*
X128915997Y-80429665D01*
X128901809Y-80419142D01*
X128888721Y-80407279D01*
X128876858Y-80394191D01*
X128866335Y-80380003D01*
X128857254Y-80364851D01*
X128849702Y-80348883D01*
X128843751Y-80332251D01*
X128839459Y-80315116D01*
X128836867Y-80297643D01*
X128836000Y-80280000D01*
X128836000Y-79740000D01*
X128836867Y-79722357D01*
X128839459Y-79704884D01*
X128843751Y-79687749D01*
X128849702Y-79671117D01*
X128857254Y-79655149D01*
X128866335Y-79639997D01*
X128876858Y-79625809D01*
X128888721Y-79612721D01*
X128901809Y-79600858D01*
X128915997Y-79590335D01*
X128931149Y-79581254D01*
X128947117Y-79573702D01*
X128963749Y-79567751D01*
X128980884Y-79563459D01*
X128998357Y-79560867D01*
X129016000Y-79560000D01*
X129856000Y-79560000D01*
X129873643Y-79560867D01*
X129873643Y-79560867D01*
G37*
D11*
X129436000Y-80010000D03*
D10*
G04 #@! TO.N,PB22_S5_SPI_MOSI*
G36*
X129873643Y-80830867D02*
X129891116Y-80833459D01*
X129908251Y-80837751D01*
X129924883Y-80843702D01*
X129940851Y-80851254D01*
X129956003Y-80860335D01*
X129970191Y-80870858D01*
X129983279Y-80882721D01*
X129995142Y-80895809D01*
X130005665Y-80909997D01*
X130014746Y-80925149D01*
X130022298Y-80941117D01*
X130028249Y-80957749D01*
X130032541Y-80974884D01*
X130035133Y-80992357D01*
X130036000Y-81010000D01*
X130036000Y-81550000D01*
X130035133Y-81567643D01*
X130032541Y-81585116D01*
X130028249Y-81602251D01*
X130022298Y-81618883D01*
X130014746Y-81634851D01*
X130005665Y-81650003D01*
X129995142Y-81664191D01*
X129983279Y-81677279D01*
X129970191Y-81689142D01*
X129956003Y-81699665D01*
X129940851Y-81708746D01*
X129924883Y-81716298D01*
X129908251Y-81722249D01*
X129891116Y-81726541D01*
X129873643Y-81729133D01*
X129856000Y-81730000D01*
X129016000Y-81730000D01*
X128998357Y-81729133D01*
X128980884Y-81726541D01*
X128963749Y-81722249D01*
X128947117Y-81716298D01*
X128931149Y-81708746D01*
X128915997Y-81699665D01*
X128901809Y-81689142D01*
X128888721Y-81677279D01*
X128876858Y-81664191D01*
X128866335Y-81650003D01*
X128857254Y-81634851D01*
X128849702Y-81618883D01*
X128843751Y-81602251D01*
X128839459Y-81585116D01*
X128836867Y-81567643D01*
X128836000Y-81550000D01*
X128836000Y-81010000D01*
X128836867Y-80992357D01*
X128839459Y-80974884D01*
X128843751Y-80957749D01*
X128849702Y-80941117D01*
X128857254Y-80925149D01*
X128866335Y-80909997D01*
X128876858Y-80895809D01*
X128888721Y-80882721D01*
X128901809Y-80870858D01*
X128915997Y-80860335D01*
X128931149Y-80851254D01*
X128947117Y-80843702D01*
X128963749Y-80837751D01*
X128980884Y-80833459D01*
X128998357Y-80830867D01*
X129016000Y-80830000D01*
X129856000Y-80830000D01*
X129873643Y-80830867D01*
X129873643Y-80830867D01*
G37*
D11*
X129436000Y-81280000D03*
D10*
G04 #@! TO.N,PA08_GPIO*
G36*
X129873643Y-82100867D02*
X129891116Y-82103459D01*
X129908251Y-82107751D01*
X129924883Y-82113702D01*
X129940851Y-82121254D01*
X129956003Y-82130335D01*
X129970191Y-82140858D01*
X129983279Y-82152721D01*
X129995142Y-82165809D01*
X130005665Y-82179997D01*
X130014746Y-82195149D01*
X130022298Y-82211117D01*
X130028249Y-82227749D01*
X130032541Y-82244884D01*
X130035133Y-82262357D01*
X130036000Y-82280000D01*
X130036000Y-82820000D01*
X130035133Y-82837643D01*
X130032541Y-82855116D01*
X130028249Y-82872251D01*
X130022298Y-82888883D01*
X130014746Y-82904851D01*
X130005665Y-82920003D01*
X129995142Y-82934191D01*
X129983279Y-82947279D01*
X129970191Y-82959142D01*
X129956003Y-82969665D01*
X129940851Y-82978746D01*
X129924883Y-82986298D01*
X129908251Y-82992249D01*
X129891116Y-82996541D01*
X129873643Y-82999133D01*
X129856000Y-83000000D01*
X129016000Y-83000000D01*
X128998357Y-82999133D01*
X128980884Y-82996541D01*
X128963749Y-82992249D01*
X128947117Y-82986298D01*
X128931149Y-82978746D01*
X128915997Y-82969665D01*
X128901809Y-82959142D01*
X128888721Y-82947279D01*
X128876858Y-82934191D01*
X128866335Y-82920003D01*
X128857254Y-82904851D01*
X128849702Y-82888883D01*
X128843751Y-82872251D01*
X128839459Y-82855116D01*
X128836867Y-82837643D01*
X128836000Y-82820000D01*
X128836000Y-82280000D01*
X128836867Y-82262357D01*
X128839459Y-82244884D01*
X128843751Y-82227749D01*
X128849702Y-82211117D01*
X128857254Y-82195149D01*
X128866335Y-82179997D01*
X128876858Y-82165809D01*
X128888721Y-82152721D01*
X128901809Y-82140858D01*
X128915997Y-82130335D01*
X128931149Y-82121254D01*
X128947117Y-82113702D01*
X128963749Y-82107751D01*
X128980884Y-82103459D01*
X128998357Y-82100867D01*
X129016000Y-82100000D01*
X129856000Y-82100000D01*
X129873643Y-82100867D01*
X129873643Y-82100867D01*
G37*
D11*
X129436000Y-82550000D03*
D10*
G04 #@! TO.N,PB23_S5_SPI_SCK*
G36*
X129873643Y-83370867D02*
X129891116Y-83373459D01*
X129908251Y-83377751D01*
X129924883Y-83383702D01*
X129940851Y-83391254D01*
X129956003Y-83400335D01*
X129970191Y-83410858D01*
X129983279Y-83422721D01*
X129995142Y-83435809D01*
X130005665Y-83449997D01*
X130014746Y-83465149D01*
X130022298Y-83481117D01*
X130028249Y-83497749D01*
X130032541Y-83514884D01*
X130035133Y-83532357D01*
X130036000Y-83550000D01*
X130036000Y-84090000D01*
X130035133Y-84107643D01*
X130032541Y-84125116D01*
X130028249Y-84142251D01*
X130022298Y-84158883D01*
X130014746Y-84174851D01*
X130005665Y-84190003D01*
X129995142Y-84204191D01*
X129983279Y-84217279D01*
X129970191Y-84229142D01*
X129956003Y-84239665D01*
X129940851Y-84248746D01*
X129924883Y-84256298D01*
X129908251Y-84262249D01*
X129891116Y-84266541D01*
X129873643Y-84269133D01*
X129856000Y-84270000D01*
X129016000Y-84270000D01*
X128998357Y-84269133D01*
X128980884Y-84266541D01*
X128963749Y-84262249D01*
X128947117Y-84256298D01*
X128931149Y-84248746D01*
X128915997Y-84239665D01*
X128901809Y-84229142D01*
X128888721Y-84217279D01*
X128876858Y-84204191D01*
X128866335Y-84190003D01*
X128857254Y-84174851D01*
X128849702Y-84158883D01*
X128843751Y-84142251D01*
X128839459Y-84125116D01*
X128836867Y-84107643D01*
X128836000Y-84090000D01*
X128836000Y-83550000D01*
X128836867Y-83532357D01*
X128839459Y-83514884D01*
X128843751Y-83497749D01*
X128849702Y-83481117D01*
X128857254Y-83465149D01*
X128866335Y-83449997D01*
X128876858Y-83435809D01*
X128888721Y-83422721D01*
X128901809Y-83410858D01*
X128915997Y-83400335D01*
X128931149Y-83391254D01*
X128947117Y-83383702D01*
X128963749Y-83377751D01*
X128980884Y-83373459D01*
X128998357Y-83370867D01*
X129016000Y-83370000D01*
X129856000Y-83370000D01*
X129873643Y-83370867D01*
X129873643Y-83370867D01*
G37*
D11*
X129436000Y-83820000D03*
D10*
G04 #@! TO.N,PA17_S1_I2C_SCL*
G36*
X129873643Y-84640867D02*
X129891116Y-84643459D01*
X129908251Y-84647751D01*
X129924883Y-84653702D01*
X129940851Y-84661254D01*
X129956003Y-84670335D01*
X129970191Y-84680858D01*
X129983279Y-84692721D01*
X129995142Y-84705809D01*
X130005665Y-84719997D01*
X130014746Y-84735149D01*
X130022298Y-84751117D01*
X130028249Y-84767749D01*
X130032541Y-84784884D01*
X130035133Y-84802357D01*
X130036000Y-84820000D01*
X130036000Y-85360000D01*
X130035133Y-85377643D01*
X130032541Y-85395116D01*
X130028249Y-85412251D01*
X130022298Y-85428883D01*
X130014746Y-85444851D01*
X130005665Y-85460003D01*
X129995142Y-85474191D01*
X129983279Y-85487279D01*
X129970191Y-85499142D01*
X129956003Y-85509665D01*
X129940851Y-85518746D01*
X129924883Y-85526298D01*
X129908251Y-85532249D01*
X129891116Y-85536541D01*
X129873643Y-85539133D01*
X129856000Y-85540000D01*
X129016000Y-85540000D01*
X128998357Y-85539133D01*
X128980884Y-85536541D01*
X128963749Y-85532249D01*
X128947117Y-85526298D01*
X128931149Y-85518746D01*
X128915997Y-85509665D01*
X128901809Y-85499142D01*
X128888721Y-85487279D01*
X128876858Y-85474191D01*
X128866335Y-85460003D01*
X128857254Y-85444851D01*
X128849702Y-85428883D01*
X128843751Y-85412251D01*
X128839459Y-85395116D01*
X128836867Y-85377643D01*
X128836000Y-85360000D01*
X128836000Y-84820000D01*
X128836867Y-84802357D01*
X128839459Y-84784884D01*
X128843751Y-84767749D01*
X128849702Y-84751117D01*
X128857254Y-84735149D01*
X128866335Y-84719997D01*
X128876858Y-84705809D01*
X128888721Y-84692721D01*
X128901809Y-84680858D01*
X128915997Y-84670335D01*
X128931149Y-84661254D01*
X128947117Y-84653702D01*
X128963749Y-84647751D01*
X128980884Y-84643459D01*
X128998357Y-84640867D01*
X129016000Y-84640000D01*
X129856000Y-84640000D01*
X129873643Y-84640867D01*
X129873643Y-84640867D01*
G37*
D11*
X129436000Y-85090000D03*
D10*
G04 #@! TO.N,PA16_S1_I2C_SDA*
G36*
X129873643Y-85910867D02*
X129891116Y-85913459D01*
X129908251Y-85917751D01*
X129924883Y-85923702D01*
X129940851Y-85931254D01*
X129956003Y-85940335D01*
X129970191Y-85950858D01*
X129983279Y-85962721D01*
X129995142Y-85975809D01*
X130005665Y-85989997D01*
X130014746Y-86005149D01*
X130022298Y-86021117D01*
X130028249Y-86037749D01*
X130032541Y-86054884D01*
X130035133Y-86072357D01*
X130036000Y-86090000D01*
X130036000Y-86630000D01*
X130035133Y-86647643D01*
X130032541Y-86665116D01*
X130028249Y-86682251D01*
X130022298Y-86698883D01*
X130014746Y-86714851D01*
X130005665Y-86730003D01*
X129995142Y-86744191D01*
X129983279Y-86757279D01*
X129970191Y-86769142D01*
X129956003Y-86779665D01*
X129940851Y-86788746D01*
X129924883Y-86796298D01*
X129908251Y-86802249D01*
X129891116Y-86806541D01*
X129873643Y-86809133D01*
X129856000Y-86810000D01*
X129016000Y-86810000D01*
X128998357Y-86809133D01*
X128980884Y-86806541D01*
X128963749Y-86802249D01*
X128947117Y-86796298D01*
X128931149Y-86788746D01*
X128915997Y-86779665D01*
X128901809Y-86769142D01*
X128888721Y-86757279D01*
X128876858Y-86744191D01*
X128866335Y-86730003D01*
X128857254Y-86714851D01*
X128849702Y-86698883D01*
X128843751Y-86682251D01*
X128839459Y-86665116D01*
X128836867Y-86647643D01*
X128836000Y-86630000D01*
X128836000Y-86090000D01*
X128836867Y-86072357D01*
X128839459Y-86054884D01*
X128843751Y-86037749D01*
X128849702Y-86021117D01*
X128857254Y-86005149D01*
X128866335Y-85989997D01*
X128876858Y-85975809D01*
X128888721Y-85962721D01*
X128901809Y-85950858D01*
X128915997Y-85940335D01*
X128931149Y-85931254D01*
X128947117Y-85923702D01*
X128963749Y-85917751D01*
X128980884Y-85913459D01*
X128998357Y-85910867D01*
X129016000Y-85910000D01*
X129856000Y-85910000D01*
X129873643Y-85910867D01*
X129873643Y-85910867D01*
G37*
D11*
X129436000Y-86360000D03*
D10*
G04 #@! TO.N,PA18_PWM_T0_W2*
G36*
X129873643Y-87180867D02*
X129891116Y-87183459D01*
X129908251Y-87187751D01*
X129924883Y-87193702D01*
X129940851Y-87201254D01*
X129956003Y-87210335D01*
X129970191Y-87220858D01*
X129983279Y-87232721D01*
X129995142Y-87245809D01*
X130005665Y-87259997D01*
X130014746Y-87275149D01*
X130022298Y-87291117D01*
X130028249Y-87307749D01*
X130032541Y-87324884D01*
X130035133Y-87342357D01*
X130036000Y-87360000D01*
X130036000Y-87900000D01*
X130035133Y-87917643D01*
X130032541Y-87935116D01*
X130028249Y-87952251D01*
X130022298Y-87968883D01*
X130014746Y-87984851D01*
X130005665Y-88000003D01*
X129995142Y-88014191D01*
X129983279Y-88027279D01*
X129970191Y-88039142D01*
X129956003Y-88049665D01*
X129940851Y-88058746D01*
X129924883Y-88066298D01*
X129908251Y-88072249D01*
X129891116Y-88076541D01*
X129873643Y-88079133D01*
X129856000Y-88080000D01*
X129016000Y-88080000D01*
X128998357Y-88079133D01*
X128980884Y-88076541D01*
X128963749Y-88072249D01*
X128947117Y-88066298D01*
X128931149Y-88058746D01*
X128915997Y-88049665D01*
X128901809Y-88039142D01*
X128888721Y-88027279D01*
X128876858Y-88014191D01*
X128866335Y-88000003D01*
X128857254Y-87984851D01*
X128849702Y-87968883D01*
X128843751Y-87952251D01*
X128839459Y-87935116D01*
X128836867Y-87917643D01*
X128836000Y-87900000D01*
X128836000Y-87360000D01*
X128836867Y-87342357D01*
X128839459Y-87324884D01*
X128843751Y-87307749D01*
X128849702Y-87291117D01*
X128857254Y-87275149D01*
X128866335Y-87259997D01*
X128876858Y-87245809D01*
X128888721Y-87232721D01*
X128901809Y-87220858D01*
X128915997Y-87210335D01*
X128931149Y-87201254D01*
X128947117Y-87193702D01*
X128963749Y-87187751D01*
X128980884Y-87183459D01*
X128998357Y-87180867D01*
X129016000Y-87180000D01*
X129856000Y-87180000D01*
X129873643Y-87180867D01*
X129873643Y-87180867D01*
G37*
D11*
X129436000Y-87630000D03*
D10*
G04 #@! TO.N,GND*
G36*
X143543643Y-75750867D02*
X143561116Y-75753459D01*
X143578251Y-75757751D01*
X143594883Y-75763702D01*
X143610851Y-75771254D01*
X143626003Y-75780335D01*
X143640191Y-75790858D01*
X143653279Y-75802721D01*
X143665142Y-75815809D01*
X143675665Y-75829997D01*
X143684746Y-75845149D01*
X143692298Y-75861117D01*
X143698249Y-75877749D01*
X143702541Y-75894884D01*
X143705133Y-75912357D01*
X143706000Y-75930000D01*
X143706000Y-76470000D01*
X143705133Y-76487643D01*
X143702541Y-76505116D01*
X143698249Y-76522251D01*
X143692298Y-76538883D01*
X143684746Y-76554851D01*
X143675665Y-76570003D01*
X143665142Y-76584191D01*
X143653279Y-76597279D01*
X143640191Y-76609142D01*
X143626003Y-76619665D01*
X143610851Y-76628746D01*
X143594883Y-76636298D01*
X143578251Y-76642249D01*
X143561116Y-76646541D01*
X143543643Y-76649133D01*
X143526000Y-76650000D01*
X142686000Y-76650000D01*
X142668357Y-76649133D01*
X142650884Y-76646541D01*
X142633749Y-76642249D01*
X142617117Y-76636298D01*
X142601149Y-76628746D01*
X142585997Y-76619665D01*
X142571809Y-76609142D01*
X142558721Y-76597279D01*
X142546858Y-76584191D01*
X142536335Y-76570003D01*
X142527254Y-76554851D01*
X142519702Y-76538883D01*
X142513751Y-76522251D01*
X142509459Y-76505116D01*
X142506867Y-76487643D01*
X142506000Y-76470000D01*
X142506000Y-75930000D01*
X142506867Y-75912357D01*
X142509459Y-75894884D01*
X142513751Y-75877749D01*
X142519702Y-75861117D01*
X142527254Y-75845149D01*
X142536335Y-75829997D01*
X142546858Y-75815809D01*
X142558721Y-75802721D01*
X142571809Y-75790858D01*
X142585997Y-75780335D01*
X142601149Y-75771254D01*
X142617117Y-75763702D01*
X142633749Y-75757751D01*
X142650884Y-75753459D01*
X142668357Y-75750867D01*
X142686000Y-75750000D01*
X143526000Y-75750000D01*
X143543643Y-75750867D01*
X143543643Y-75750867D01*
G37*
D11*
X143106000Y-76200000D03*
D10*
G04 #@! TO.N,PA04_S0_UART_TX*
G36*
X143543643Y-77020867D02*
X143561116Y-77023459D01*
X143578251Y-77027751D01*
X143594883Y-77033702D01*
X143610851Y-77041254D01*
X143626003Y-77050335D01*
X143640191Y-77060858D01*
X143653279Y-77072721D01*
X143665142Y-77085809D01*
X143675665Y-77099997D01*
X143684746Y-77115149D01*
X143692298Y-77131117D01*
X143698249Y-77147749D01*
X143702541Y-77164884D01*
X143705133Y-77182357D01*
X143706000Y-77200000D01*
X143706000Y-77740000D01*
X143705133Y-77757643D01*
X143702541Y-77775116D01*
X143698249Y-77792251D01*
X143692298Y-77808883D01*
X143684746Y-77824851D01*
X143675665Y-77840003D01*
X143665142Y-77854191D01*
X143653279Y-77867279D01*
X143640191Y-77879142D01*
X143626003Y-77889665D01*
X143610851Y-77898746D01*
X143594883Y-77906298D01*
X143578251Y-77912249D01*
X143561116Y-77916541D01*
X143543643Y-77919133D01*
X143526000Y-77920000D01*
X142686000Y-77920000D01*
X142668357Y-77919133D01*
X142650884Y-77916541D01*
X142633749Y-77912249D01*
X142617117Y-77906298D01*
X142601149Y-77898746D01*
X142585997Y-77889665D01*
X142571809Y-77879142D01*
X142558721Y-77867279D01*
X142546858Y-77854191D01*
X142536335Y-77840003D01*
X142527254Y-77824851D01*
X142519702Y-77808883D01*
X142513751Y-77792251D01*
X142509459Y-77775116D01*
X142506867Y-77757643D01*
X142506000Y-77740000D01*
X142506000Y-77200000D01*
X142506867Y-77182357D01*
X142509459Y-77164884D01*
X142513751Y-77147749D01*
X142519702Y-77131117D01*
X142527254Y-77115149D01*
X142536335Y-77099997D01*
X142546858Y-77085809D01*
X142558721Y-77072721D01*
X142571809Y-77060858D01*
X142585997Y-77050335D01*
X142601149Y-77041254D01*
X142617117Y-77033702D01*
X142633749Y-77027751D01*
X142650884Y-77023459D01*
X142668357Y-77020867D01*
X142686000Y-77020000D01*
X143526000Y-77020000D01*
X143543643Y-77020867D01*
X143543643Y-77020867D01*
G37*
D11*
X143106000Y-77470000D03*
D10*
G04 #@! TO.N,PA05_S0_UART_RX*
G36*
X143543643Y-78290867D02*
X143561116Y-78293459D01*
X143578251Y-78297751D01*
X143594883Y-78303702D01*
X143610851Y-78311254D01*
X143626003Y-78320335D01*
X143640191Y-78330858D01*
X143653279Y-78342721D01*
X143665142Y-78355809D01*
X143675665Y-78369997D01*
X143684746Y-78385149D01*
X143692298Y-78401117D01*
X143698249Y-78417749D01*
X143702541Y-78434884D01*
X143705133Y-78452357D01*
X143706000Y-78470000D01*
X143706000Y-79010000D01*
X143705133Y-79027643D01*
X143702541Y-79045116D01*
X143698249Y-79062251D01*
X143692298Y-79078883D01*
X143684746Y-79094851D01*
X143675665Y-79110003D01*
X143665142Y-79124191D01*
X143653279Y-79137279D01*
X143640191Y-79149142D01*
X143626003Y-79159665D01*
X143610851Y-79168746D01*
X143594883Y-79176298D01*
X143578251Y-79182249D01*
X143561116Y-79186541D01*
X143543643Y-79189133D01*
X143526000Y-79190000D01*
X142686000Y-79190000D01*
X142668357Y-79189133D01*
X142650884Y-79186541D01*
X142633749Y-79182249D01*
X142617117Y-79176298D01*
X142601149Y-79168746D01*
X142585997Y-79159665D01*
X142571809Y-79149142D01*
X142558721Y-79137279D01*
X142546858Y-79124191D01*
X142536335Y-79110003D01*
X142527254Y-79094851D01*
X142519702Y-79078883D01*
X142513751Y-79062251D01*
X142509459Y-79045116D01*
X142506867Y-79027643D01*
X142506000Y-79010000D01*
X142506000Y-78470000D01*
X142506867Y-78452357D01*
X142509459Y-78434884D01*
X142513751Y-78417749D01*
X142519702Y-78401117D01*
X142527254Y-78385149D01*
X142536335Y-78369997D01*
X142546858Y-78355809D01*
X142558721Y-78342721D01*
X142571809Y-78330858D01*
X142585997Y-78320335D01*
X142601149Y-78311254D01*
X142617117Y-78303702D01*
X142633749Y-78297751D01*
X142650884Y-78293459D01*
X142668357Y-78290867D01*
X142686000Y-78290000D01*
X143526000Y-78290000D01*
X143543643Y-78290867D01*
X143543643Y-78290867D01*
G37*
D11*
X143106000Y-78740000D03*
D10*
G04 #@! TO.N,PB02_S5_SPI_MISO*
G36*
X143543643Y-79560867D02*
X143561116Y-79563459D01*
X143578251Y-79567751D01*
X143594883Y-79573702D01*
X143610851Y-79581254D01*
X143626003Y-79590335D01*
X143640191Y-79600858D01*
X143653279Y-79612721D01*
X143665142Y-79625809D01*
X143675665Y-79639997D01*
X143684746Y-79655149D01*
X143692298Y-79671117D01*
X143698249Y-79687749D01*
X143702541Y-79704884D01*
X143705133Y-79722357D01*
X143706000Y-79740000D01*
X143706000Y-80280000D01*
X143705133Y-80297643D01*
X143702541Y-80315116D01*
X143698249Y-80332251D01*
X143692298Y-80348883D01*
X143684746Y-80364851D01*
X143675665Y-80380003D01*
X143665142Y-80394191D01*
X143653279Y-80407279D01*
X143640191Y-80419142D01*
X143626003Y-80429665D01*
X143610851Y-80438746D01*
X143594883Y-80446298D01*
X143578251Y-80452249D01*
X143561116Y-80456541D01*
X143543643Y-80459133D01*
X143526000Y-80460000D01*
X142686000Y-80460000D01*
X142668357Y-80459133D01*
X142650884Y-80456541D01*
X142633749Y-80452249D01*
X142617117Y-80446298D01*
X142601149Y-80438746D01*
X142585997Y-80429665D01*
X142571809Y-80419142D01*
X142558721Y-80407279D01*
X142546858Y-80394191D01*
X142536335Y-80380003D01*
X142527254Y-80364851D01*
X142519702Y-80348883D01*
X142513751Y-80332251D01*
X142509459Y-80315116D01*
X142506867Y-80297643D01*
X142506000Y-80280000D01*
X142506000Y-79740000D01*
X142506867Y-79722357D01*
X142509459Y-79704884D01*
X142513751Y-79687749D01*
X142519702Y-79671117D01*
X142527254Y-79655149D01*
X142536335Y-79639997D01*
X142546858Y-79625809D01*
X142558721Y-79612721D01*
X142571809Y-79600858D01*
X142585997Y-79590335D01*
X142601149Y-79581254D01*
X142617117Y-79573702D01*
X142633749Y-79567751D01*
X142650884Y-79563459D01*
X142668357Y-79560867D01*
X142686000Y-79560000D01*
X143526000Y-79560000D01*
X143543643Y-79560867D01*
X143543643Y-79560867D01*
G37*
D11*
X143106000Y-80010000D03*
D10*
G04 #@! TO.N,PA28_GPIO*
G36*
X143543643Y-80830867D02*
X143561116Y-80833459D01*
X143578251Y-80837751D01*
X143594883Y-80843702D01*
X143610851Y-80851254D01*
X143626003Y-80860335D01*
X143640191Y-80870858D01*
X143653279Y-80882721D01*
X143665142Y-80895809D01*
X143675665Y-80909997D01*
X143684746Y-80925149D01*
X143692298Y-80941117D01*
X143698249Y-80957749D01*
X143702541Y-80974884D01*
X143705133Y-80992357D01*
X143706000Y-81010000D01*
X143706000Y-81550000D01*
X143705133Y-81567643D01*
X143702541Y-81585116D01*
X143698249Y-81602251D01*
X143692298Y-81618883D01*
X143684746Y-81634851D01*
X143675665Y-81650003D01*
X143665142Y-81664191D01*
X143653279Y-81677279D01*
X143640191Y-81689142D01*
X143626003Y-81699665D01*
X143610851Y-81708746D01*
X143594883Y-81716298D01*
X143578251Y-81722249D01*
X143561116Y-81726541D01*
X143543643Y-81729133D01*
X143526000Y-81730000D01*
X142686000Y-81730000D01*
X142668357Y-81729133D01*
X142650884Y-81726541D01*
X142633749Y-81722249D01*
X142617117Y-81716298D01*
X142601149Y-81708746D01*
X142585997Y-81699665D01*
X142571809Y-81689142D01*
X142558721Y-81677279D01*
X142546858Y-81664191D01*
X142536335Y-81650003D01*
X142527254Y-81634851D01*
X142519702Y-81618883D01*
X142513751Y-81602251D01*
X142509459Y-81585116D01*
X142506867Y-81567643D01*
X142506000Y-81550000D01*
X142506000Y-81010000D01*
X142506867Y-80992357D01*
X142509459Y-80974884D01*
X142513751Y-80957749D01*
X142519702Y-80941117D01*
X142527254Y-80925149D01*
X142536335Y-80909997D01*
X142546858Y-80895809D01*
X142558721Y-80882721D01*
X142571809Y-80870858D01*
X142585997Y-80860335D01*
X142601149Y-80851254D01*
X142617117Y-80843702D01*
X142633749Y-80837751D01*
X142650884Y-80833459D01*
X142668357Y-80830867D01*
X142686000Y-80830000D01*
X143526000Y-80830000D01*
X143543643Y-80830867D01*
X143543643Y-80830867D01*
G37*
D11*
X143106000Y-81280000D03*
D10*
G04 #@! TO.N,+BATT*
G36*
X143543643Y-82100867D02*
X143561116Y-82103459D01*
X143578251Y-82107751D01*
X143594883Y-82113702D01*
X143610851Y-82121254D01*
X143626003Y-82130335D01*
X143640191Y-82140858D01*
X143653279Y-82152721D01*
X143665142Y-82165809D01*
X143675665Y-82179997D01*
X143684746Y-82195149D01*
X143692298Y-82211117D01*
X143698249Y-82227749D01*
X143702541Y-82244884D01*
X143705133Y-82262357D01*
X143706000Y-82280000D01*
X143706000Y-82820000D01*
X143705133Y-82837643D01*
X143702541Y-82855116D01*
X143698249Y-82872251D01*
X143692298Y-82888883D01*
X143684746Y-82904851D01*
X143675665Y-82920003D01*
X143665142Y-82934191D01*
X143653279Y-82947279D01*
X143640191Y-82959142D01*
X143626003Y-82969665D01*
X143610851Y-82978746D01*
X143594883Y-82986298D01*
X143578251Y-82992249D01*
X143561116Y-82996541D01*
X143543643Y-82999133D01*
X143526000Y-83000000D01*
X142686000Y-83000000D01*
X142668357Y-82999133D01*
X142650884Y-82996541D01*
X142633749Y-82992249D01*
X142617117Y-82986298D01*
X142601149Y-82978746D01*
X142585997Y-82969665D01*
X142571809Y-82959142D01*
X142558721Y-82947279D01*
X142546858Y-82934191D01*
X142536335Y-82920003D01*
X142527254Y-82904851D01*
X142519702Y-82888883D01*
X142513751Y-82872251D01*
X142509459Y-82855116D01*
X142506867Y-82837643D01*
X142506000Y-82820000D01*
X142506000Y-82280000D01*
X142506867Y-82262357D01*
X142509459Y-82244884D01*
X142513751Y-82227749D01*
X142519702Y-82211117D01*
X142527254Y-82195149D01*
X142536335Y-82179997D01*
X142546858Y-82165809D01*
X142558721Y-82152721D01*
X142571809Y-82140858D01*
X142585997Y-82130335D01*
X142601149Y-82121254D01*
X142617117Y-82113702D01*
X142633749Y-82107751D01*
X142650884Y-82103459D01*
X142668357Y-82100867D01*
X142686000Y-82100000D01*
X143526000Y-82100000D01*
X143543643Y-82100867D01*
X143543643Y-82100867D01*
G37*
D11*
X143106000Y-82550000D03*
D10*
G04 #@! TO.N,PA31_SWDIO*
G36*
X143543643Y-83370867D02*
X143561116Y-83373459D01*
X143578251Y-83377751D01*
X143594883Y-83383702D01*
X143610851Y-83391254D01*
X143626003Y-83400335D01*
X143640191Y-83410858D01*
X143653279Y-83422721D01*
X143665142Y-83435809D01*
X143675665Y-83449997D01*
X143684746Y-83465149D01*
X143692298Y-83481117D01*
X143698249Y-83497749D01*
X143702541Y-83514884D01*
X143705133Y-83532357D01*
X143706000Y-83550000D01*
X143706000Y-84090000D01*
X143705133Y-84107643D01*
X143702541Y-84125116D01*
X143698249Y-84142251D01*
X143692298Y-84158883D01*
X143684746Y-84174851D01*
X143675665Y-84190003D01*
X143665142Y-84204191D01*
X143653279Y-84217279D01*
X143640191Y-84229142D01*
X143626003Y-84239665D01*
X143610851Y-84248746D01*
X143594883Y-84256298D01*
X143578251Y-84262249D01*
X143561116Y-84266541D01*
X143543643Y-84269133D01*
X143526000Y-84270000D01*
X142686000Y-84270000D01*
X142668357Y-84269133D01*
X142650884Y-84266541D01*
X142633749Y-84262249D01*
X142617117Y-84256298D01*
X142601149Y-84248746D01*
X142585997Y-84239665D01*
X142571809Y-84229142D01*
X142558721Y-84217279D01*
X142546858Y-84204191D01*
X142536335Y-84190003D01*
X142527254Y-84174851D01*
X142519702Y-84158883D01*
X142513751Y-84142251D01*
X142509459Y-84125116D01*
X142506867Y-84107643D01*
X142506000Y-84090000D01*
X142506000Y-83550000D01*
X142506867Y-83532357D01*
X142509459Y-83514884D01*
X142513751Y-83497749D01*
X142519702Y-83481117D01*
X142527254Y-83465149D01*
X142536335Y-83449997D01*
X142546858Y-83435809D01*
X142558721Y-83422721D01*
X142571809Y-83410858D01*
X142585997Y-83400335D01*
X142601149Y-83391254D01*
X142617117Y-83383702D01*
X142633749Y-83377751D01*
X142650884Y-83373459D01*
X142668357Y-83370867D01*
X142686000Y-83370000D01*
X143526000Y-83370000D01*
X143543643Y-83370867D01*
X143543643Y-83370867D01*
G37*
D11*
X143106000Y-83820000D03*
D10*
G04 #@! TO.N,PA30_SWDCLK*
G36*
X143543643Y-84640867D02*
X143561116Y-84643459D01*
X143578251Y-84647751D01*
X143594883Y-84653702D01*
X143610851Y-84661254D01*
X143626003Y-84670335D01*
X143640191Y-84680858D01*
X143653279Y-84692721D01*
X143665142Y-84705809D01*
X143675665Y-84719997D01*
X143684746Y-84735149D01*
X143692298Y-84751117D01*
X143698249Y-84767749D01*
X143702541Y-84784884D01*
X143705133Y-84802357D01*
X143706000Y-84820000D01*
X143706000Y-85360000D01*
X143705133Y-85377643D01*
X143702541Y-85395116D01*
X143698249Y-85412251D01*
X143692298Y-85428883D01*
X143684746Y-85444851D01*
X143675665Y-85460003D01*
X143665142Y-85474191D01*
X143653279Y-85487279D01*
X143640191Y-85499142D01*
X143626003Y-85509665D01*
X143610851Y-85518746D01*
X143594883Y-85526298D01*
X143578251Y-85532249D01*
X143561116Y-85536541D01*
X143543643Y-85539133D01*
X143526000Y-85540000D01*
X142686000Y-85540000D01*
X142668357Y-85539133D01*
X142650884Y-85536541D01*
X142633749Y-85532249D01*
X142617117Y-85526298D01*
X142601149Y-85518746D01*
X142585997Y-85509665D01*
X142571809Y-85499142D01*
X142558721Y-85487279D01*
X142546858Y-85474191D01*
X142536335Y-85460003D01*
X142527254Y-85444851D01*
X142519702Y-85428883D01*
X142513751Y-85412251D01*
X142509459Y-85395116D01*
X142506867Y-85377643D01*
X142506000Y-85360000D01*
X142506000Y-84820000D01*
X142506867Y-84802357D01*
X142509459Y-84784884D01*
X142513751Y-84767749D01*
X142519702Y-84751117D01*
X142527254Y-84735149D01*
X142536335Y-84719997D01*
X142546858Y-84705809D01*
X142558721Y-84692721D01*
X142571809Y-84680858D01*
X142585997Y-84670335D01*
X142601149Y-84661254D01*
X142617117Y-84653702D01*
X142633749Y-84647751D01*
X142650884Y-84643459D01*
X142668357Y-84640867D01*
X142686000Y-84640000D01*
X143526000Y-84640000D01*
X143543643Y-84640867D01*
X143543643Y-84640867D01*
G37*
D11*
X143106000Y-85090000D03*
D10*
G04 #@! TO.N,~RESET*
G36*
X143543643Y-85910867D02*
X143561116Y-85913459D01*
X143578251Y-85917751D01*
X143594883Y-85923702D01*
X143610851Y-85931254D01*
X143626003Y-85940335D01*
X143640191Y-85950858D01*
X143653279Y-85962721D01*
X143665142Y-85975809D01*
X143675665Y-85989997D01*
X143684746Y-86005149D01*
X143692298Y-86021117D01*
X143698249Y-86037749D01*
X143702541Y-86054884D01*
X143705133Y-86072357D01*
X143706000Y-86090000D01*
X143706000Y-86630000D01*
X143705133Y-86647643D01*
X143702541Y-86665116D01*
X143698249Y-86682251D01*
X143692298Y-86698883D01*
X143684746Y-86714851D01*
X143675665Y-86730003D01*
X143665142Y-86744191D01*
X143653279Y-86757279D01*
X143640191Y-86769142D01*
X143626003Y-86779665D01*
X143610851Y-86788746D01*
X143594883Y-86796298D01*
X143578251Y-86802249D01*
X143561116Y-86806541D01*
X143543643Y-86809133D01*
X143526000Y-86810000D01*
X142686000Y-86810000D01*
X142668357Y-86809133D01*
X142650884Y-86806541D01*
X142633749Y-86802249D01*
X142617117Y-86796298D01*
X142601149Y-86788746D01*
X142585997Y-86779665D01*
X142571809Y-86769142D01*
X142558721Y-86757279D01*
X142546858Y-86744191D01*
X142536335Y-86730003D01*
X142527254Y-86714851D01*
X142519702Y-86698883D01*
X142513751Y-86682251D01*
X142509459Y-86665116D01*
X142506867Y-86647643D01*
X142506000Y-86630000D01*
X142506000Y-86090000D01*
X142506867Y-86072357D01*
X142509459Y-86054884D01*
X142513751Y-86037749D01*
X142519702Y-86021117D01*
X142527254Y-86005149D01*
X142536335Y-85989997D01*
X142546858Y-85975809D01*
X142558721Y-85962721D01*
X142571809Y-85950858D01*
X142585997Y-85940335D01*
X142601149Y-85931254D01*
X142617117Y-85923702D01*
X142633749Y-85917751D01*
X142650884Y-85913459D01*
X142668357Y-85910867D01*
X142686000Y-85910000D01*
X143526000Y-85910000D01*
X143543643Y-85910867D01*
X143543643Y-85910867D01*
G37*
D11*
X143106000Y-86360000D03*
D10*
G04 #@! TO.N,VDD*
G36*
X143543643Y-87180867D02*
X143561116Y-87183459D01*
X143578251Y-87187751D01*
X143594883Y-87193702D01*
X143610851Y-87201254D01*
X143626003Y-87210335D01*
X143640191Y-87220858D01*
X143653279Y-87232721D01*
X143665142Y-87245809D01*
X143675665Y-87259997D01*
X143684746Y-87275149D01*
X143692298Y-87291117D01*
X143698249Y-87307749D01*
X143702541Y-87324884D01*
X143705133Y-87342357D01*
X143706000Y-87360000D01*
X143706000Y-87900000D01*
X143705133Y-87917643D01*
X143702541Y-87935116D01*
X143698249Y-87952251D01*
X143692298Y-87968883D01*
X143684746Y-87984851D01*
X143675665Y-88000003D01*
X143665142Y-88014191D01*
X143653279Y-88027279D01*
X143640191Y-88039142D01*
X143626003Y-88049665D01*
X143610851Y-88058746D01*
X143594883Y-88066298D01*
X143578251Y-88072249D01*
X143561116Y-88076541D01*
X143543643Y-88079133D01*
X143526000Y-88080000D01*
X142686000Y-88080000D01*
X142668357Y-88079133D01*
X142650884Y-88076541D01*
X142633749Y-88072249D01*
X142617117Y-88066298D01*
X142601149Y-88058746D01*
X142585997Y-88049665D01*
X142571809Y-88039142D01*
X142558721Y-88027279D01*
X142546858Y-88014191D01*
X142536335Y-88000003D01*
X142527254Y-87984851D01*
X142519702Y-87968883D01*
X142513751Y-87952251D01*
X142509459Y-87935116D01*
X142506867Y-87917643D01*
X142506000Y-87900000D01*
X142506000Y-87360000D01*
X142506867Y-87342357D01*
X142509459Y-87324884D01*
X142513751Y-87307749D01*
X142519702Y-87291117D01*
X142527254Y-87275149D01*
X142536335Y-87259997D01*
X142546858Y-87245809D01*
X142558721Y-87232721D01*
X142571809Y-87220858D01*
X142585997Y-87210335D01*
X142601149Y-87201254D01*
X142617117Y-87193702D01*
X142633749Y-87187751D01*
X142650884Y-87183459D01*
X142668357Y-87180867D01*
X142686000Y-87180000D01*
X143526000Y-87180000D01*
X143543643Y-87180867D01*
X143543643Y-87180867D01*
G37*
D11*
X143106000Y-87630000D03*
D10*
G04 #@! TO.N,PA15_GPIO*
G36*
X132113643Y-88785867D02*
X132131116Y-88788459D01*
X132148251Y-88792751D01*
X132164883Y-88798702D01*
X132180851Y-88806254D01*
X132196003Y-88815335D01*
X132210191Y-88825858D01*
X132223279Y-88837721D01*
X132235142Y-88850809D01*
X132245665Y-88864997D01*
X132254746Y-88880149D01*
X132262298Y-88896117D01*
X132268249Y-88912749D01*
X132272541Y-88929884D01*
X132275133Y-88947357D01*
X132276000Y-88965000D01*
X132276000Y-89805000D01*
X132275133Y-89822643D01*
X132272541Y-89840116D01*
X132268249Y-89857251D01*
X132262298Y-89873883D01*
X132254746Y-89889851D01*
X132245665Y-89905003D01*
X132235142Y-89919191D01*
X132223279Y-89932279D01*
X132210191Y-89944142D01*
X132196003Y-89954665D01*
X132180851Y-89963746D01*
X132164883Y-89971298D01*
X132148251Y-89977249D01*
X132131116Y-89981541D01*
X132113643Y-89984133D01*
X132096000Y-89985000D01*
X131556000Y-89985000D01*
X131538357Y-89984133D01*
X131520884Y-89981541D01*
X131503749Y-89977249D01*
X131487117Y-89971298D01*
X131471149Y-89963746D01*
X131455997Y-89954665D01*
X131441809Y-89944142D01*
X131428721Y-89932279D01*
X131416858Y-89919191D01*
X131406335Y-89905003D01*
X131397254Y-89889851D01*
X131389702Y-89873883D01*
X131383751Y-89857251D01*
X131379459Y-89840116D01*
X131376867Y-89822643D01*
X131376000Y-89805000D01*
X131376000Y-88965000D01*
X131376867Y-88947357D01*
X131379459Y-88929884D01*
X131383751Y-88912749D01*
X131389702Y-88896117D01*
X131397254Y-88880149D01*
X131406335Y-88864997D01*
X131416858Y-88850809D01*
X131428721Y-88837721D01*
X131441809Y-88825858D01*
X131455997Y-88815335D01*
X131471149Y-88806254D01*
X131487117Y-88798702D01*
X131503749Y-88792751D01*
X131520884Y-88788459D01*
X131538357Y-88785867D01*
X131556000Y-88785000D01*
X132096000Y-88785000D01*
X132113643Y-88785867D01*
X132113643Y-88785867D01*
G37*
D11*
X131826000Y-89385000D03*
D10*
G04 #@! TO.N,PA14_GPIO*
G36*
X133383643Y-88785867D02*
X133401116Y-88788459D01*
X133418251Y-88792751D01*
X133434883Y-88798702D01*
X133450851Y-88806254D01*
X133466003Y-88815335D01*
X133480191Y-88825858D01*
X133493279Y-88837721D01*
X133505142Y-88850809D01*
X133515665Y-88864997D01*
X133524746Y-88880149D01*
X133532298Y-88896117D01*
X133538249Y-88912749D01*
X133542541Y-88929884D01*
X133545133Y-88947357D01*
X133546000Y-88965000D01*
X133546000Y-89805000D01*
X133545133Y-89822643D01*
X133542541Y-89840116D01*
X133538249Y-89857251D01*
X133532298Y-89873883D01*
X133524746Y-89889851D01*
X133515665Y-89905003D01*
X133505142Y-89919191D01*
X133493279Y-89932279D01*
X133480191Y-89944142D01*
X133466003Y-89954665D01*
X133450851Y-89963746D01*
X133434883Y-89971298D01*
X133418251Y-89977249D01*
X133401116Y-89981541D01*
X133383643Y-89984133D01*
X133366000Y-89985000D01*
X132826000Y-89985000D01*
X132808357Y-89984133D01*
X132790884Y-89981541D01*
X132773749Y-89977249D01*
X132757117Y-89971298D01*
X132741149Y-89963746D01*
X132725997Y-89954665D01*
X132711809Y-89944142D01*
X132698721Y-89932279D01*
X132686858Y-89919191D01*
X132676335Y-89905003D01*
X132667254Y-89889851D01*
X132659702Y-89873883D01*
X132653751Y-89857251D01*
X132649459Y-89840116D01*
X132646867Y-89822643D01*
X132646000Y-89805000D01*
X132646000Y-88965000D01*
X132646867Y-88947357D01*
X132649459Y-88929884D01*
X132653751Y-88912749D01*
X132659702Y-88896117D01*
X132667254Y-88880149D01*
X132676335Y-88864997D01*
X132686858Y-88850809D01*
X132698721Y-88837721D01*
X132711809Y-88825858D01*
X132725997Y-88815335D01*
X132741149Y-88806254D01*
X132757117Y-88798702D01*
X132773749Y-88792751D01*
X132790884Y-88788459D01*
X132808357Y-88785867D01*
X132826000Y-88785000D01*
X133366000Y-88785000D01*
X133383643Y-88785867D01*
X133383643Y-88785867D01*
G37*
D11*
X133096000Y-89385000D03*
D10*
G04 #@! TO.N,PA19_PWM_T0_W3*
G36*
X134653643Y-88785867D02*
X134671116Y-88788459D01*
X134688251Y-88792751D01*
X134704883Y-88798702D01*
X134720851Y-88806254D01*
X134736003Y-88815335D01*
X134750191Y-88825858D01*
X134763279Y-88837721D01*
X134775142Y-88850809D01*
X134785665Y-88864997D01*
X134794746Y-88880149D01*
X134802298Y-88896117D01*
X134808249Y-88912749D01*
X134812541Y-88929884D01*
X134815133Y-88947357D01*
X134816000Y-88965000D01*
X134816000Y-89805000D01*
X134815133Y-89822643D01*
X134812541Y-89840116D01*
X134808249Y-89857251D01*
X134802298Y-89873883D01*
X134794746Y-89889851D01*
X134785665Y-89905003D01*
X134775142Y-89919191D01*
X134763279Y-89932279D01*
X134750191Y-89944142D01*
X134736003Y-89954665D01*
X134720851Y-89963746D01*
X134704883Y-89971298D01*
X134688251Y-89977249D01*
X134671116Y-89981541D01*
X134653643Y-89984133D01*
X134636000Y-89985000D01*
X134096000Y-89985000D01*
X134078357Y-89984133D01*
X134060884Y-89981541D01*
X134043749Y-89977249D01*
X134027117Y-89971298D01*
X134011149Y-89963746D01*
X133995997Y-89954665D01*
X133981809Y-89944142D01*
X133968721Y-89932279D01*
X133956858Y-89919191D01*
X133946335Y-89905003D01*
X133937254Y-89889851D01*
X133929702Y-89873883D01*
X133923751Y-89857251D01*
X133919459Y-89840116D01*
X133916867Y-89822643D01*
X133916000Y-89805000D01*
X133916000Y-88965000D01*
X133916867Y-88947357D01*
X133919459Y-88929884D01*
X133923751Y-88912749D01*
X133929702Y-88896117D01*
X133937254Y-88880149D01*
X133946335Y-88864997D01*
X133956858Y-88850809D01*
X133968721Y-88837721D01*
X133981809Y-88825858D01*
X133995997Y-88815335D01*
X134011149Y-88806254D01*
X134027117Y-88798702D01*
X134043749Y-88792751D01*
X134060884Y-88788459D01*
X134078357Y-88785867D01*
X134096000Y-88785000D01*
X134636000Y-88785000D01*
X134653643Y-88785867D01*
X134653643Y-88785867D01*
G37*
D11*
X134366000Y-89385000D03*
D10*
G04 #@! TO.N,PA22_GPIO*
G36*
X135923643Y-88785867D02*
X135941116Y-88788459D01*
X135958251Y-88792751D01*
X135974883Y-88798702D01*
X135990851Y-88806254D01*
X136006003Y-88815335D01*
X136020191Y-88825858D01*
X136033279Y-88837721D01*
X136045142Y-88850809D01*
X136055665Y-88864997D01*
X136064746Y-88880149D01*
X136072298Y-88896117D01*
X136078249Y-88912749D01*
X136082541Y-88929884D01*
X136085133Y-88947357D01*
X136086000Y-88965000D01*
X136086000Y-89805000D01*
X136085133Y-89822643D01*
X136082541Y-89840116D01*
X136078249Y-89857251D01*
X136072298Y-89873883D01*
X136064746Y-89889851D01*
X136055665Y-89905003D01*
X136045142Y-89919191D01*
X136033279Y-89932279D01*
X136020191Y-89944142D01*
X136006003Y-89954665D01*
X135990851Y-89963746D01*
X135974883Y-89971298D01*
X135958251Y-89977249D01*
X135941116Y-89981541D01*
X135923643Y-89984133D01*
X135906000Y-89985000D01*
X135366000Y-89985000D01*
X135348357Y-89984133D01*
X135330884Y-89981541D01*
X135313749Y-89977249D01*
X135297117Y-89971298D01*
X135281149Y-89963746D01*
X135265997Y-89954665D01*
X135251809Y-89944142D01*
X135238721Y-89932279D01*
X135226858Y-89919191D01*
X135216335Y-89905003D01*
X135207254Y-89889851D01*
X135199702Y-89873883D01*
X135193751Y-89857251D01*
X135189459Y-89840116D01*
X135186867Y-89822643D01*
X135186000Y-89805000D01*
X135186000Y-88965000D01*
X135186867Y-88947357D01*
X135189459Y-88929884D01*
X135193751Y-88912749D01*
X135199702Y-88896117D01*
X135207254Y-88880149D01*
X135216335Y-88864997D01*
X135226858Y-88850809D01*
X135238721Y-88837721D01*
X135251809Y-88825858D01*
X135265997Y-88815335D01*
X135281149Y-88806254D01*
X135297117Y-88798702D01*
X135313749Y-88792751D01*
X135330884Y-88788459D01*
X135348357Y-88785867D01*
X135366000Y-88785000D01*
X135906000Y-88785000D01*
X135923643Y-88785867D01*
X135923643Y-88785867D01*
G37*
D11*
X135636000Y-89385000D03*
D10*
G04 #@! TO.N,PA23_S5_SPI_SS*
G36*
X137193643Y-88785867D02*
X137211116Y-88788459D01*
X137228251Y-88792751D01*
X137244883Y-88798702D01*
X137260851Y-88806254D01*
X137276003Y-88815335D01*
X137290191Y-88825858D01*
X137303279Y-88837721D01*
X137315142Y-88850809D01*
X137325665Y-88864997D01*
X137334746Y-88880149D01*
X137342298Y-88896117D01*
X137348249Y-88912749D01*
X137352541Y-88929884D01*
X137355133Y-88947357D01*
X137356000Y-88965000D01*
X137356000Y-89805000D01*
X137355133Y-89822643D01*
X137352541Y-89840116D01*
X137348249Y-89857251D01*
X137342298Y-89873883D01*
X137334746Y-89889851D01*
X137325665Y-89905003D01*
X137315142Y-89919191D01*
X137303279Y-89932279D01*
X137290191Y-89944142D01*
X137276003Y-89954665D01*
X137260851Y-89963746D01*
X137244883Y-89971298D01*
X137228251Y-89977249D01*
X137211116Y-89981541D01*
X137193643Y-89984133D01*
X137176000Y-89985000D01*
X136636000Y-89985000D01*
X136618357Y-89984133D01*
X136600884Y-89981541D01*
X136583749Y-89977249D01*
X136567117Y-89971298D01*
X136551149Y-89963746D01*
X136535997Y-89954665D01*
X136521809Y-89944142D01*
X136508721Y-89932279D01*
X136496858Y-89919191D01*
X136486335Y-89905003D01*
X136477254Y-89889851D01*
X136469702Y-89873883D01*
X136463751Y-89857251D01*
X136459459Y-89840116D01*
X136456867Y-89822643D01*
X136456000Y-89805000D01*
X136456000Y-88965000D01*
X136456867Y-88947357D01*
X136459459Y-88929884D01*
X136463751Y-88912749D01*
X136469702Y-88896117D01*
X136477254Y-88880149D01*
X136486335Y-88864997D01*
X136496858Y-88850809D01*
X136508721Y-88837721D01*
X136521809Y-88825858D01*
X136535997Y-88815335D01*
X136551149Y-88806254D01*
X136567117Y-88798702D01*
X136583749Y-88792751D01*
X136600884Y-88788459D01*
X136618357Y-88785867D01*
X136636000Y-88785000D01*
X137176000Y-88785000D01*
X137193643Y-88785867D01*
X137193643Y-88785867D01*
G37*
D11*
X136906000Y-89385000D03*
D10*
G04 #@! TO.N,USB_P*
G36*
X138463643Y-88785867D02*
X138481116Y-88788459D01*
X138498251Y-88792751D01*
X138514883Y-88798702D01*
X138530851Y-88806254D01*
X138546003Y-88815335D01*
X138560191Y-88825858D01*
X138573279Y-88837721D01*
X138585142Y-88850809D01*
X138595665Y-88864997D01*
X138604746Y-88880149D01*
X138612298Y-88896117D01*
X138618249Y-88912749D01*
X138622541Y-88929884D01*
X138625133Y-88947357D01*
X138626000Y-88965000D01*
X138626000Y-89805000D01*
X138625133Y-89822643D01*
X138622541Y-89840116D01*
X138618249Y-89857251D01*
X138612298Y-89873883D01*
X138604746Y-89889851D01*
X138595665Y-89905003D01*
X138585142Y-89919191D01*
X138573279Y-89932279D01*
X138560191Y-89944142D01*
X138546003Y-89954665D01*
X138530851Y-89963746D01*
X138514883Y-89971298D01*
X138498251Y-89977249D01*
X138481116Y-89981541D01*
X138463643Y-89984133D01*
X138446000Y-89985000D01*
X137906000Y-89985000D01*
X137888357Y-89984133D01*
X137870884Y-89981541D01*
X137853749Y-89977249D01*
X137837117Y-89971298D01*
X137821149Y-89963746D01*
X137805997Y-89954665D01*
X137791809Y-89944142D01*
X137778721Y-89932279D01*
X137766858Y-89919191D01*
X137756335Y-89905003D01*
X137747254Y-89889851D01*
X137739702Y-89873883D01*
X137733751Y-89857251D01*
X137729459Y-89840116D01*
X137726867Y-89822643D01*
X137726000Y-89805000D01*
X137726000Y-88965000D01*
X137726867Y-88947357D01*
X137729459Y-88929884D01*
X137733751Y-88912749D01*
X137739702Y-88896117D01*
X137747254Y-88880149D01*
X137756335Y-88864997D01*
X137766858Y-88850809D01*
X137778721Y-88837721D01*
X137791809Y-88825858D01*
X137805997Y-88815335D01*
X137821149Y-88806254D01*
X137837117Y-88798702D01*
X137853749Y-88792751D01*
X137870884Y-88788459D01*
X137888357Y-88785867D01*
X137906000Y-88785000D01*
X138446000Y-88785000D01*
X138463643Y-88785867D01*
X138463643Y-88785867D01*
G37*
D11*
X138176000Y-89385000D03*
D10*
G04 #@! TO.N,USB_N*
G36*
X139733643Y-88785867D02*
X139751116Y-88788459D01*
X139768251Y-88792751D01*
X139784883Y-88798702D01*
X139800851Y-88806254D01*
X139816003Y-88815335D01*
X139830191Y-88825858D01*
X139843279Y-88837721D01*
X139855142Y-88850809D01*
X139865665Y-88864997D01*
X139874746Y-88880149D01*
X139882298Y-88896117D01*
X139888249Y-88912749D01*
X139892541Y-88929884D01*
X139895133Y-88947357D01*
X139896000Y-88965000D01*
X139896000Y-89805000D01*
X139895133Y-89822643D01*
X139892541Y-89840116D01*
X139888249Y-89857251D01*
X139882298Y-89873883D01*
X139874746Y-89889851D01*
X139865665Y-89905003D01*
X139855142Y-89919191D01*
X139843279Y-89932279D01*
X139830191Y-89944142D01*
X139816003Y-89954665D01*
X139800851Y-89963746D01*
X139784883Y-89971298D01*
X139768251Y-89977249D01*
X139751116Y-89981541D01*
X139733643Y-89984133D01*
X139716000Y-89985000D01*
X139176000Y-89985000D01*
X139158357Y-89984133D01*
X139140884Y-89981541D01*
X139123749Y-89977249D01*
X139107117Y-89971298D01*
X139091149Y-89963746D01*
X139075997Y-89954665D01*
X139061809Y-89944142D01*
X139048721Y-89932279D01*
X139036858Y-89919191D01*
X139026335Y-89905003D01*
X139017254Y-89889851D01*
X139009702Y-89873883D01*
X139003751Y-89857251D01*
X138999459Y-89840116D01*
X138996867Y-89822643D01*
X138996000Y-89805000D01*
X138996000Y-88965000D01*
X138996867Y-88947357D01*
X138999459Y-88929884D01*
X139003751Y-88912749D01*
X139009702Y-88896117D01*
X139017254Y-88880149D01*
X139026335Y-88864997D01*
X139036858Y-88850809D01*
X139048721Y-88837721D01*
X139061809Y-88825858D01*
X139075997Y-88815335D01*
X139091149Y-88806254D01*
X139107117Y-88798702D01*
X139123749Y-88792751D01*
X139140884Y-88788459D01*
X139158357Y-88785867D01*
X139176000Y-88785000D01*
X139716000Y-88785000D01*
X139733643Y-88785867D01*
X139733643Y-88785867D01*
G37*
D11*
X139446000Y-89385000D03*
D10*
G04 #@! TO.N,GND*
G36*
X141003643Y-88785867D02*
X141021116Y-88788459D01*
X141038251Y-88792751D01*
X141054883Y-88798702D01*
X141070851Y-88806254D01*
X141086003Y-88815335D01*
X141100191Y-88825858D01*
X141113279Y-88837721D01*
X141125142Y-88850809D01*
X141135665Y-88864997D01*
X141144746Y-88880149D01*
X141152298Y-88896117D01*
X141158249Y-88912749D01*
X141162541Y-88929884D01*
X141165133Y-88947357D01*
X141166000Y-88965000D01*
X141166000Y-89805000D01*
X141165133Y-89822643D01*
X141162541Y-89840116D01*
X141158249Y-89857251D01*
X141152298Y-89873883D01*
X141144746Y-89889851D01*
X141135665Y-89905003D01*
X141125142Y-89919191D01*
X141113279Y-89932279D01*
X141100191Y-89944142D01*
X141086003Y-89954665D01*
X141070851Y-89963746D01*
X141054883Y-89971298D01*
X141038251Y-89977249D01*
X141021116Y-89981541D01*
X141003643Y-89984133D01*
X140986000Y-89985000D01*
X140446000Y-89985000D01*
X140428357Y-89984133D01*
X140410884Y-89981541D01*
X140393749Y-89977249D01*
X140377117Y-89971298D01*
X140361149Y-89963746D01*
X140345997Y-89954665D01*
X140331809Y-89944142D01*
X140318721Y-89932279D01*
X140306858Y-89919191D01*
X140296335Y-89905003D01*
X140287254Y-89889851D01*
X140279702Y-89873883D01*
X140273751Y-89857251D01*
X140269459Y-89840116D01*
X140266867Y-89822643D01*
X140266000Y-89805000D01*
X140266000Y-88965000D01*
X140266867Y-88947357D01*
X140269459Y-88929884D01*
X140273751Y-88912749D01*
X140279702Y-88896117D01*
X140287254Y-88880149D01*
X140296335Y-88864997D01*
X140306858Y-88850809D01*
X140318721Y-88837721D01*
X140331809Y-88825858D01*
X140345997Y-88815335D01*
X140361149Y-88806254D01*
X140377117Y-88798702D01*
X140393749Y-88792751D01*
X140410884Y-88788459D01*
X140428357Y-88785867D01*
X140446000Y-88785000D01*
X140986000Y-88785000D01*
X141003643Y-88785867D01*
X141003643Y-88785867D01*
G37*
D11*
X140716000Y-89385000D03*
D10*
G36*
X138463643Y-72575867D02*
X138481116Y-72578459D01*
X138498251Y-72582751D01*
X138514883Y-72588702D01*
X138530851Y-72596254D01*
X138546003Y-72605335D01*
X138560191Y-72615858D01*
X138573279Y-72627721D01*
X138585142Y-72640809D01*
X138595665Y-72654997D01*
X138604746Y-72670149D01*
X138612298Y-72686117D01*
X138618249Y-72702749D01*
X138622541Y-72719884D01*
X138625133Y-72737357D01*
X138626000Y-72755000D01*
X138626000Y-73595000D01*
X138625133Y-73612643D01*
X138622541Y-73630116D01*
X138618249Y-73647251D01*
X138612298Y-73663883D01*
X138604746Y-73679851D01*
X138595665Y-73695003D01*
X138585142Y-73709191D01*
X138573279Y-73722279D01*
X138560191Y-73734142D01*
X138546003Y-73744665D01*
X138530851Y-73753746D01*
X138514883Y-73761298D01*
X138498251Y-73767249D01*
X138481116Y-73771541D01*
X138463643Y-73774133D01*
X138446000Y-73775000D01*
X137906000Y-73775000D01*
X137888357Y-73774133D01*
X137870884Y-73771541D01*
X137853749Y-73767249D01*
X137837117Y-73761298D01*
X137821149Y-73753746D01*
X137805997Y-73744665D01*
X137791809Y-73734142D01*
X137778721Y-73722279D01*
X137766858Y-73709191D01*
X137756335Y-73695003D01*
X137747254Y-73679851D01*
X137739702Y-73663883D01*
X137733751Y-73647251D01*
X137729459Y-73630116D01*
X137726867Y-73612643D01*
X137726000Y-73595000D01*
X137726000Y-72755000D01*
X137726867Y-72737357D01*
X137729459Y-72719884D01*
X137733751Y-72702749D01*
X137739702Y-72686117D01*
X137747254Y-72670149D01*
X137756335Y-72654997D01*
X137766858Y-72640809D01*
X137778721Y-72627721D01*
X137791809Y-72615858D01*
X137805997Y-72605335D01*
X137821149Y-72596254D01*
X137837117Y-72588702D01*
X137853749Y-72582751D01*
X137870884Y-72578459D01*
X137888357Y-72575867D01*
X137906000Y-72575000D01*
X138446000Y-72575000D01*
X138463643Y-72575867D01*
X138463643Y-72575867D01*
G37*
D11*
X138176000Y-73175000D03*
D10*
G04 #@! TO.N,ANT_PAD*
G36*
X139733643Y-72575867D02*
X139751116Y-72578459D01*
X139768251Y-72582751D01*
X139784883Y-72588702D01*
X139800851Y-72596254D01*
X139816003Y-72605335D01*
X139830191Y-72615858D01*
X139843279Y-72627721D01*
X139855142Y-72640809D01*
X139865665Y-72654997D01*
X139874746Y-72670149D01*
X139882298Y-72686117D01*
X139888249Y-72702749D01*
X139892541Y-72719884D01*
X139895133Y-72737357D01*
X139896000Y-72755000D01*
X139896000Y-73595000D01*
X139895133Y-73612643D01*
X139892541Y-73630116D01*
X139888249Y-73647251D01*
X139882298Y-73663883D01*
X139874746Y-73679851D01*
X139865665Y-73695003D01*
X139855142Y-73709191D01*
X139843279Y-73722279D01*
X139830191Y-73734142D01*
X139816003Y-73744665D01*
X139800851Y-73753746D01*
X139784883Y-73761298D01*
X139768251Y-73767249D01*
X139751116Y-73771541D01*
X139733643Y-73774133D01*
X139716000Y-73775000D01*
X139176000Y-73775000D01*
X139158357Y-73774133D01*
X139140884Y-73771541D01*
X139123749Y-73767249D01*
X139107117Y-73761298D01*
X139091149Y-73753746D01*
X139075997Y-73744665D01*
X139061809Y-73734142D01*
X139048721Y-73722279D01*
X139036858Y-73709191D01*
X139026335Y-73695003D01*
X139017254Y-73679851D01*
X139009702Y-73663883D01*
X139003751Y-73647251D01*
X138999459Y-73630116D01*
X138996867Y-73612643D01*
X138996000Y-73595000D01*
X138996000Y-72755000D01*
X138996867Y-72737357D01*
X138999459Y-72719884D01*
X139003751Y-72702749D01*
X139009702Y-72686117D01*
X139017254Y-72670149D01*
X139026335Y-72654997D01*
X139036858Y-72640809D01*
X139048721Y-72627721D01*
X139061809Y-72615858D01*
X139075997Y-72605335D01*
X139091149Y-72596254D01*
X139107117Y-72588702D01*
X139123749Y-72582751D01*
X139140884Y-72578459D01*
X139158357Y-72575867D01*
X139176000Y-72575000D01*
X139716000Y-72575000D01*
X139733643Y-72575867D01*
X139733643Y-72575867D01*
G37*
D11*
X139446000Y-73175000D03*
D10*
G04 #@! TO.N,GND*
G36*
X141003643Y-72575867D02*
X141021116Y-72578459D01*
X141038251Y-72582751D01*
X141054883Y-72588702D01*
X141070851Y-72596254D01*
X141086003Y-72605335D01*
X141100191Y-72615858D01*
X141113279Y-72627721D01*
X141125142Y-72640809D01*
X141135665Y-72654997D01*
X141144746Y-72670149D01*
X141152298Y-72686117D01*
X141158249Y-72702749D01*
X141162541Y-72719884D01*
X141165133Y-72737357D01*
X141166000Y-72755000D01*
X141166000Y-73595000D01*
X141165133Y-73612643D01*
X141162541Y-73630116D01*
X141158249Y-73647251D01*
X141152298Y-73663883D01*
X141144746Y-73679851D01*
X141135665Y-73695003D01*
X141125142Y-73709191D01*
X141113279Y-73722279D01*
X141100191Y-73734142D01*
X141086003Y-73744665D01*
X141070851Y-73753746D01*
X141054883Y-73761298D01*
X141038251Y-73767249D01*
X141021116Y-73771541D01*
X141003643Y-73774133D01*
X140986000Y-73775000D01*
X140446000Y-73775000D01*
X140428357Y-73774133D01*
X140410884Y-73771541D01*
X140393749Y-73767249D01*
X140377117Y-73761298D01*
X140361149Y-73753746D01*
X140345997Y-73744665D01*
X140331809Y-73734142D01*
X140318721Y-73722279D01*
X140306858Y-73709191D01*
X140296335Y-73695003D01*
X140287254Y-73679851D01*
X140279702Y-73663883D01*
X140273751Y-73647251D01*
X140269459Y-73630116D01*
X140266867Y-73612643D01*
X140266000Y-73595000D01*
X140266000Y-72755000D01*
X140266867Y-72737357D01*
X140269459Y-72719884D01*
X140273751Y-72702749D01*
X140279702Y-72686117D01*
X140287254Y-72670149D01*
X140296335Y-72654997D01*
X140306858Y-72640809D01*
X140318721Y-72627721D01*
X140331809Y-72615858D01*
X140345997Y-72605335D01*
X140361149Y-72596254D01*
X140377117Y-72588702D01*
X140393749Y-72582751D01*
X140410884Y-72578459D01*
X140428357Y-72575867D01*
X140446000Y-72575000D01*
X140986000Y-72575000D01*
X141003643Y-72575867D01*
X141003643Y-72575867D01*
G37*
D11*
X140716000Y-73175000D03*
G04 #@! TD*
D12*
G04 #@! TO.N,VDDA*
X137560000Y-82170000D03*
X137510000Y-82770000D03*
X139940000Y-77050000D03*
X139940000Y-78450000D03*
X132954500Y-83162500D03*
X133375000Y-83162500D03*
X139507575Y-82193458D03*
G04 #@! TO.N,GND*
X139440000Y-75610000D03*
X138690000Y-74250000D03*
X140190000Y-74270000D03*
X138188700Y-74561700D03*
X137160000Y-73660000D03*
X135890000Y-73660000D03*
X134620000Y-73660000D03*
X133350000Y-73660000D03*
X132080000Y-73660000D03*
X130810000Y-73660000D03*
X129662600Y-73660000D03*
X129662600Y-74930000D03*
X130810000Y-74930000D03*
X132080000Y-74930000D03*
X132080000Y-76200000D03*
X136804400Y-74549000D03*
X137566400Y-74549000D03*
X130810000Y-77482700D03*
X132130800Y-77470000D03*
X132892800Y-77571600D03*
X132867400Y-76911200D03*
X130886200Y-76174600D03*
X131419600Y-76885800D03*
X131521200Y-75565000D03*
X131521200Y-74244200D03*
X130327400Y-74193400D03*
X130276600Y-75412600D03*
X132840000Y-79060000D03*
X134350000Y-82220000D03*
X136240000Y-82160000D03*
X136250000Y-82820000D03*
X136310000Y-85410000D03*
X137390706Y-87600000D03*
X141804984Y-86925000D03*
X141830000Y-85810000D03*
X141300000Y-84780000D03*
X138860000Y-80820000D03*
X139270000Y-80350000D03*
X139640000Y-79970000D03*
X140350000Y-80900000D03*
X140030000Y-79590000D03*
X140420000Y-79280000D03*
X141480000Y-73510000D03*
X141860000Y-76200000D03*
X141860000Y-75520000D03*
X141710000Y-75000000D03*
X141300000Y-74720000D03*
X140820000Y-74680000D03*
X140860000Y-75540000D03*
X140850000Y-76080000D03*
X140920000Y-76920000D03*
X140910000Y-78170000D03*
X142800000Y-73450000D03*
X142790000Y-75210000D03*
X137940000Y-75620000D03*
X137350000Y-75630000D03*
X136800000Y-75650000D03*
X136275000Y-75660000D03*
X135775000Y-75670000D03*
X132918200Y-74406760D03*
X137075000Y-77600000D03*
X137075000Y-78300000D03*
X138725000Y-78500000D03*
X137775000Y-77825000D03*
X137930000Y-76590000D03*
X137360000Y-76570000D03*
X136800000Y-76575000D03*
X136275000Y-76575000D03*
X135775000Y-76575000D03*
X135750000Y-77075000D03*
X137575000Y-77150000D03*
X138525000Y-79525000D03*
X138504190Y-80029190D03*
X139301253Y-78388272D03*
X134513360Y-75671640D03*
X135225000Y-75600000D03*
X133975000Y-75675000D03*
X134000000Y-76475000D03*
X133980000Y-77230000D03*
X134000000Y-77950000D03*
X133990000Y-78600000D03*
X134525000Y-80425000D03*
X133800000Y-81100000D03*
X133390000Y-80680000D03*
X135950000Y-81230000D03*
X135370000Y-81260000D03*
X136855200Y-79806800D03*
X136175000Y-79450000D03*
X131320000Y-83450000D03*
X133616404Y-84699727D03*
X132240000Y-86790000D03*
X130875000Y-86950000D03*
X141535042Y-82815051D03*
X136290000Y-84120000D03*
X138947053Y-82759024D03*
X141850000Y-78100000D03*
X139680000Y-81540000D03*
X140686597Y-80540017D03*
X141375047Y-79925047D03*
X141745047Y-79555047D03*
X138410000Y-81240000D03*
X141540000Y-89130000D03*
X132060000Y-78280000D03*
X131230000Y-84250000D03*
X134930000Y-87570000D03*
X134164719Y-80088464D03*
X131150000Y-79620000D03*
X130688431Y-81777459D03*
X134990000Y-82210000D03*
X138200210Y-82820000D03*
X134340000Y-86070210D03*
X137590000Y-84760000D03*
X134340000Y-84759790D03*
X134330000Y-85440210D03*
X137610000Y-85480000D03*
X132200000Y-82130000D03*
X132090000Y-78880000D03*
X131240000Y-78000000D03*
X141820000Y-76890000D03*
G04 #@! TO.N,VDD*
X134001342Y-87412142D03*
D13*
X140710000Y-87520000D03*
X141782774Y-87630000D03*
X142544800Y-88747600D03*
D12*
X131500000Y-81160000D03*
X131980000Y-81140000D03*
X134340000Y-84110000D03*
X131094797Y-81160015D03*
X132989996Y-84450004D03*
G04 #@! TO.N,~RESET*
X139210000Y-87470000D03*
X138190000Y-84820000D03*
X139220000Y-85330000D03*
G04 #@! TO.N,+BATT*
X142240000Y-82289999D03*
X137530000Y-83450000D03*
G04 #@! TO.N,TCXO_PWR*
X134985442Y-84770000D03*
X131882984Y-85175000D03*
G04 #@! TO.N,PA04_S0_UART_TX*
X136888513Y-82869987D03*
G04 #@! TO.N,PA05_S0_UART_RX*
X136940000Y-83500000D03*
G04 #@! TO.N,PA30_SWDCLK*
X136940000Y-84770000D03*
G04 #@! TO.N,PA31_SWDIO*
X136890000Y-84160000D03*
G04 #@! TO.N,PB23_S5_SPI_SCK*
X133504110Y-85840000D03*
X137520000Y-86030000D03*
G04 #@! TO.N,PB22_S5_SPI_MOSI*
X135640000Y-84160000D03*
G04 #@! TO.N,PB02_S5_SPI_MISO*
X138200000Y-84119790D03*
G04 #@! TO.N,PA28_GPIO*
X136951286Y-85402592D03*
X139728128Y-84448853D03*
G04 #@! TO.N,PA27_GPIO*
X135650000Y-83520000D03*
G04 #@! TO.N,PA23_S5_SPI_SS*
X136890000Y-86050000D03*
G04 #@! TO.N,PA18_PWM_T0_W2*
X135650000Y-86060000D03*
G04 #@! TO.N,PA17_S1_I2C_SCL*
X135650000Y-85400000D03*
G04 #@! TO.N,PA16_S1_I2C_SDA*
X135010000Y-86050000D03*
G04 #@! TO.N,PA15_GPIO*
X135033503Y-87004898D03*
G04 #@! TO.N,PA14_GPIO*
X135598834Y-87230272D03*
G04 #@! TO.N,PA08_GPIO*
X134980000Y-84130000D03*
G04 #@! TO.N,PA07_ADC7*
X135002126Y-83449790D03*
G04 #@! TO.N,PA06_ADC6*
X135650000Y-82870000D03*
G04 #@! TO.N,BAND_SEL*
X135600000Y-84810000D03*
X138805920Y-77134720D03*
X141095215Y-80893915D03*
X139595056Y-83349371D03*
G04 #@! TO.N,TXRX_RF*
X136880000Y-82230000D03*
X139364720Y-77201508D03*
G04 #@! TO.N,USB_N*
X138337068Y-87057087D03*
G04 #@! TO.N,USB_P*
X138170000Y-87510002D03*
G04 #@! TD*
D14*
G04 #@! TO.N,GND*
G36*
X137326000Y-73814397D02*
X137341372Y-73891676D01*
X137371525Y-73964471D01*
X137415300Y-74029986D01*
X137471015Y-74085701D01*
X137536529Y-74129476D01*
X137609325Y-74159628D01*
X137686604Y-74175000D01*
X138026000Y-74175000D01*
X138126000Y-74075000D01*
X138126000Y-73375000D01*
X138226000Y-73375000D01*
X138226000Y-74075000D01*
X138326000Y-74175000D01*
X138665396Y-74175000D01*
X138742675Y-74159628D01*
X138815471Y-74129476D01*
X138880985Y-74085701D01*
X138936700Y-74029986D01*
X138960312Y-73994648D01*
X139001370Y-74016594D01*
X139086974Y-74042562D01*
X139176000Y-74051330D01*
X139716000Y-74051330D01*
X139805026Y-74042562D01*
X139890630Y-74016594D01*
X139931688Y-73994648D01*
X139955300Y-74029986D01*
X140011015Y-74085701D01*
X140076529Y-74129476D01*
X140149325Y-74159628D01*
X140226604Y-74175000D01*
X140566000Y-74175000D01*
X140666000Y-74075000D01*
X140666000Y-73375000D01*
X140766000Y-73375000D01*
X140766000Y-74075000D01*
X140866000Y-74175000D01*
X141205396Y-74175000D01*
X141282675Y-74159628D01*
X141355471Y-74129476D01*
X141420985Y-74085701D01*
X141476700Y-74029986D01*
X141520475Y-73964471D01*
X141550628Y-73891676D01*
X141566000Y-73814397D01*
X141566000Y-73375000D01*
X142906001Y-73375000D01*
X142906001Y-75350000D01*
X142466603Y-75350000D01*
X142389324Y-75365372D01*
X142316529Y-75395525D01*
X142251014Y-75439300D01*
X142195299Y-75495015D01*
X142151524Y-75560529D01*
X142121372Y-75633325D01*
X142106000Y-75710604D01*
X142106000Y-76050000D01*
X142206000Y-76150000D01*
X142906001Y-76150000D01*
X142906001Y-76250000D01*
X142206000Y-76250000D01*
X142106000Y-76350000D01*
X142106000Y-76689396D01*
X142121372Y-76766675D01*
X142151524Y-76839471D01*
X142195299Y-76904985D01*
X142251014Y-76960700D01*
X142286352Y-76984312D01*
X142264406Y-77025370D01*
X142238438Y-77110974D01*
X142229670Y-77200000D01*
X142229670Y-77740000D01*
X142238438Y-77829026D01*
X142264406Y-77914630D01*
X142306575Y-77993523D01*
X142363326Y-78062674D01*
X142414900Y-78105000D01*
X142363326Y-78147326D01*
X142306575Y-78216477D01*
X142264406Y-78295370D01*
X142238438Y-78380974D01*
X142229670Y-78470000D01*
X142229670Y-79010000D01*
X142238438Y-79099026D01*
X142264406Y-79184630D01*
X142306575Y-79263523D01*
X142363326Y-79332674D01*
X142414900Y-79375000D01*
X142363326Y-79417326D01*
X142306575Y-79486477D01*
X142264406Y-79565370D01*
X142238438Y-79650974D01*
X142229670Y-79740000D01*
X142229670Y-80280000D01*
X142238438Y-80369026D01*
X142264406Y-80454630D01*
X142306575Y-80533523D01*
X142363326Y-80602674D01*
X142414900Y-80645000D01*
X142363326Y-80687326D01*
X142306575Y-80756477D01*
X142264406Y-80835370D01*
X142238438Y-80920974D01*
X142229670Y-81010000D01*
X142229670Y-81550000D01*
X142238438Y-81639026D01*
X142264406Y-81724630D01*
X142306575Y-81803523D01*
X142343892Y-81848994D01*
X142284597Y-81837199D01*
X142195403Y-81837199D01*
X142107923Y-81854600D01*
X142025519Y-81888733D01*
X141951357Y-81938286D01*
X141888287Y-82001356D01*
X141838734Y-82075518D01*
X141804601Y-82157922D01*
X141787200Y-82245402D01*
X141787200Y-82334596D01*
X141804601Y-82422076D01*
X141838734Y-82504480D01*
X141888287Y-82578642D01*
X141951357Y-82641712D01*
X142025519Y-82691265D01*
X142107923Y-82725398D01*
X142195403Y-82742799D01*
X142229670Y-82742799D01*
X142229670Y-82820000D01*
X142238438Y-82909026D01*
X142264406Y-82994630D01*
X142306575Y-83073523D01*
X142363326Y-83142674D01*
X142414900Y-83185000D01*
X142363326Y-83227326D01*
X142306575Y-83296477D01*
X142264406Y-83375370D01*
X142238438Y-83460974D01*
X142229670Y-83550000D01*
X142229670Y-84090000D01*
X142238438Y-84179026D01*
X142264406Y-84264630D01*
X142306575Y-84343523D01*
X142363326Y-84412674D01*
X142414900Y-84455000D01*
X142363326Y-84497326D01*
X142306575Y-84566477D01*
X142264406Y-84645370D01*
X142238438Y-84730974D01*
X142229670Y-84820000D01*
X142229670Y-85360000D01*
X142238438Y-85449026D01*
X142264406Y-85534630D01*
X142306575Y-85613523D01*
X142363326Y-85682674D01*
X142414900Y-85725000D01*
X142363326Y-85767326D01*
X142306575Y-85836477D01*
X142264406Y-85915370D01*
X142238438Y-86000974D01*
X142229670Y-86090000D01*
X142229670Y-86630000D01*
X142238438Y-86719026D01*
X142264406Y-86804630D01*
X142306575Y-86883523D01*
X142363326Y-86952674D01*
X142414900Y-86995000D01*
X142363326Y-87037326D01*
X142306575Y-87106477D01*
X142264406Y-87185370D01*
X142238438Y-87270974D01*
X142229670Y-87360000D01*
X142229670Y-87369512D01*
X142183810Y-87300878D01*
X142111896Y-87228964D01*
X142027334Y-87172461D01*
X141933373Y-87133541D01*
X141833625Y-87113700D01*
X141731923Y-87113700D01*
X141632175Y-87133541D01*
X141538214Y-87172461D01*
X141453652Y-87228964D01*
X141381738Y-87300878D01*
X141325235Y-87385440D01*
X141286315Y-87479401D01*
X141266474Y-87579149D01*
X141266474Y-87680851D01*
X141286315Y-87780599D01*
X141325235Y-87874560D01*
X141381738Y-87959122D01*
X141453652Y-88031036D01*
X141538214Y-88087539D01*
X141632175Y-88126459D01*
X141731923Y-88146300D01*
X141833625Y-88146300D01*
X141933373Y-88126459D01*
X142027334Y-88087539D01*
X142111896Y-88031036D01*
X142183810Y-87959122D01*
X142229670Y-87890488D01*
X142229670Y-87900000D01*
X142238438Y-87989026D01*
X142264406Y-88074630D01*
X142306575Y-88153523D01*
X142363326Y-88222674D01*
X142397269Y-88250531D01*
X142394201Y-88251141D01*
X142300240Y-88290061D01*
X142215678Y-88346564D01*
X142143764Y-88418478D01*
X142087261Y-88503040D01*
X142048341Y-88597001D01*
X142028500Y-88696749D01*
X142028500Y-88798451D01*
X142048341Y-88898199D01*
X142087261Y-88992160D01*
X142143764Y-89076722D01*
X142215678Y-89148636D01*
X142270100Y-89185000D01*
X141566000Y-89185000D01*
X141566000Y-88745603D01*
X141550628Y-88668324D01*
X141520475Y-88595529D01*
X141476700Y-88530014D01*
X141420985Y-88474299D01*
X141355471Y-88430524D01*
X141282675Y-88400372D01*
X141205396Y-88385000D01*
X140866000Y-88385000D01*
X140766000Y-88485000D01*
X140766000Y-89185000D01*
X140666000Y-89185000D01*
X140666000Y-88485000D01*
X140566000Y-88385000D01*
X140226604Y-88385000D01*
X140149325Y-88400372D01*
X140076529Y-88430524D01*
X140011015Y-88474299D01*
X139955300Y-88530014D01*
X139931688Y-88565352D01*
X139890630Y-88543406D01*
X139805026Y-88517438D01*
X139716000Y-88508670D01*
X139176000Y-88508670D01*
X139086974Y-88517438D01*
X139001370Y-88543406D01*
X138922477Y-88585575D01*
X138853326Y-88642326D01*
X138811000Y-88693900D01*
X138768674Y-88642326D01*
X138699523Y-88585575D01*
X138620630Y-88543406D01*
X138535026Y-88517438D01*
X138446000Y-88508670D01*
X137906000Y-88508670D01*
X137816974Y-88517438D01*
X137731370Y-88543406D01*
X137652477Y-88585575D01*
X137583326Y-88642326D01*
X137541000Y-88693900D01*
X137498674Y-88642326D01*
X137429523Y-88585575D01*
X137350630Y-88543406D01*
X137265026Y-88517438D01*
X137176000Y-88508670D01*
X136636000Y-88508670D01*
X136546974Y-88517438D01*
X136461370Y-88543406D01*
X136382477Y-88585575D01*
X136313326Y-88642326D01*
X136271000Y-88693900D01*
X136228674Y-88642326D01*
X136159523Y-88585575D01*
X136080630Y-88543406D01*
X135995026Y-88517438D01*
X135906000Y-88508670D01*
X135366000Y-88508670D01*
X135276974Y-88517438D01*
X135191370Y-88543406D01*
X135112477Y-88585575D01*
X135043326Y-88642326D01*
X135001000Y-88693900D01*
X134958674Y-88642326D01*
X134889523Y-88585575D01*
X134810630Y-88543406D01*
X134725026Y-88517438D01*
X134636000Y-88508670D01*
X134096000Y-88508670D01*
X134006974Y-88517438D01*
X133921370Y-88543406D01*
X133842477Y-88585575D01*
X133773326Y-88642326D01*
X133731000Y-88693900D01*
X133688674Y-88642326D01*
X133619523Y-88585575D01*
X133540630Y-88543406D01*
X133455026Y-88517438D01*
X133366000Y-88508670D01*
X132826000Y-88508670D01*
X132736974Y-88517438D01*
X132651370Y-88543406D01*
X132572477Y-88585575D01*
X132503326Y-88642326D01*
X132461000Y-88693900D01*
X132418674Y-88642326D01*
X132349523Y-88585575D01*
X132270630Y-88543406D01*
X132185026Y-88517438D01*
X132096000Y-88508670D01*
X131556000Y-88508670D01*
X131466974Y-88517438D01*
X131381370Y-88543406D01*
X131302477Y-88585575D01*
X131233326Y-88642326D01*
X131176575Y-88711477D01*
X131134406Y-88790370D01*
X131108438Y-88875974D01*
X131099670Y-88965000D01*
X131099670Y-89185000D01*
X129636000Y-89185000D01*
X129636000Y-88356330D01*
X129856000Y-88356330D01*
X129945026Y-88347562D01*
X130030630Y-88321594D01*
X130109523Y-88279425D01*
X130178674Y-88222674D01*
X130235425Y-88153523D01*
X130277594Y-88074630D01*
X130303562Y-87989026D01*
X130312330Y-87900000D01*
X130312330Y-87367545D01*
X133548542Y-87367545D01*
X133548542Y-87456739D01*
X133565943Y-87544219D01*
X133600076Y-87626623D01*
X133649629Y-87700785D01*
X133712699Y-87763855D01*
X133786861Y-87813408D01*
X133869265Y-87847541D01*
X133956745Y-87864942D01*
X134045939Y-87864942D01*
X134133419Y-87847541D01*
X134215823Y-87813408D01*
X134289985Y-87763855D01*
X134353055Y-87700785D01*
X134402608Y-87626623D01*
X134436741Y-87544219D01*
X134454142Y-87456739D01*
X134454142Y-87367545D01*
X134436741Y-87280065D01*
X134402608Y-87197661D01*
X134353055Y-87123499D01*
X134289985Y-87060429D01*
X134215823Y-87010876D01*
X134133419Y-86976743D01*
X134050761Y-86960301D01*
X134580703Y-86960301D01*
X134580703Y-87049495D01*
X134598104Y-87136975D01*
X134632237Y-87219379D01*
X134681790Y-87293541D01*
X134744860Y-87356611D01*
X134819022Y-87406164D01*
X134901426Y-87440297D01*
X134988906Y-87457698D01*
X135078100Y-87457698D01*
X135165580Y-87440297D01*
X135191308Y-87429640D01*
X135197568Y-87444753D01*
X135247121Y-87518915D01*
X135310191Y-87581985D01*
X135384353Y-87631538D01*
X135466757Y-87665671D01*
X135554237Y-87683072D01*
X135643431Y-87683072D01*
X135730911Y-87665671D01*
X135813315Y-87631538D01*
X135887477Y-87581985D01*
X135950547Y-87518915D01*
X135986300Y-87465405D01*
X137717200Y-87465405D01*
X137717200Y-87554599D01*
X137734601Y-87642079D01*
X137768734Y-87724483D01*
X137818287Y-87798645D01*
X137881357Y-87861715D01*
X137955519Y-87911268D01*
X138037923Y-87945401D01*
X138125403Y-87962802D01*
X138214597Y-87962802D01*
X138302077Y-87945401D01*
X138384481Y-87911268D01*
X138458643Y-87861715D01*
X138521713Y-87798645D01*
X138571266Y-87724483D01*
X138605399Y-87642079D01*
X138622800Y-87554599D01*
X138622800Y-87465405D01*
X138614844Y-87425403D01*
X138757200Y-87425403D01*
X138757200Y-87514597D01*
X138774601Y-87602077D01*
X138808734Y-87684481D01*
X138858287Y-87758643D01*
X138921357Y-87821713D01*
X138995519Y-87871266D01*
X139077923Y-87905399D01*
X139165403Y-87922800D01*
X139254597Y-87922800D01*
X139342077Y-87905399D01*
X139424481Y-87871266D01*
X139498643Y-87821713D01*
X139561713Y-87758643D01*
X139611266Y-87684481D01*
X139645399Y-87602077D01*
X139662800Y-87514597D01*
X139662800Y-87469149D01*
X140193700Y-87469149D01*
X140193700Y-87570851D01*
X140213541Y-87670599D01*
X140252461Y-87764560D01*
X140308964Y-87849122D01*
X140380878Y-87921036D01*
X140465440Y-87977539D01*
X140559401Y-88016459D01*
X140659149Y-88036300D01*
X140760851Y-88036300D01*
X140860599Y-88016459D01*
X140954560Y-87977539D01*
X141039122Y-87921036D01*
X141111036Y-87849122D01*
X141167539Y-87764560D01*
X141206459Y-87670599D01*
X141226300Y-87570851D01*
X141226300Y-87469149D01*
X141206459Y-87369401D01*
X141167539Y-87275440D01*
X141111036Y-87190878D01*
X141039122Y-87118964D01*
X140954560Y-87062461D01*
X140860599Y-87023541D01*
X140760851Y-87003700D01*
X140659149Y-87003700D01*
X140559401Y-87023541D01*
X140465440Y-87062461D01*
X140380878Y-87118964D01*
X140308964Y-87190878D01*
X140252461Y-87275440D01*
X140213541Y-87369401D01*
X140193700Y-87469149D01*
X139662800Y-87469149D01*
X139662800Y-87425403D01*
X139645399Y-87337923D01*
X139611266Y-87255519D01*
X139561713Y-87181357D01*
X139498643Y-87118287D01*
X139424481Y-87068734D01*
X139342077Y-87034601D01*
X139254597Y-87017200D01*
X139165403Y-87017200D01*
X139077923Y-87034601D01*
X138995519Y-87068734D01*
X138921357Y-87118287D01*
X138858287Y-87181357D01*
X138808734Y-87255519D01*
X138774601Y-87337923D01*
X138757200Y-87425403D01*
X138614844Y-87425403D01*
X138613203Y-87417158D01*
X138625711Y-87408800D01*
X138688781Y-87345730D01*
X138738334Y-87271568D01*
X138772467Y-87189164D01*
X138789868Y-87101684D01*
X138789868Y-87012490D01*
X138772467Y-86925010D01*
X138738334Y-86842606D01*
X138688781Y-86768444D01*
X138625711Y-86705374D01*
X138551549Y-86655821D01*
X138469145Y-86621688D01*
X138381665Y-86604287D01*
X138292471Y-86604287D01*
X138204991Y-86621688D01*
X138122587Y-86655821D01*
X138048425Y-86705374D01*
X137985355Y-86768444D01*
X137935802Y-86842606D01*
X137901669Y-86925010D01*
X137884268Y-87012490D01*
X137884268Y-87101684D01*
X137893865Y-87149931D01*
X137881357Y-87158289D01*
X137818287Y-87221359D01*
X137768734Y-87295521D01*
X137734601Y-87377925D01*
X137717200Y-87465405D01*
X135986300Y-87465405D01*
X136000100Y-87444753D01*
X136034233Y-87362349D01*
X136051634Y-87274869D01*
X136051634Y-87185675D01*
X136034233Y-87098195D01*
X136000100Y-87015791D01*
X135950547Y-86941629D01*
X135887477Y-86878559D01*
X135813315Y-86829006D01*
X135730911Y-86794873D01*
X135643431Y-86777472D01*
X135554237Y-86777472D01*
X135466757Y-86794873D01*
X135441029Y-86805530D01*
X135434769Y-86790417D01*
X135385216Y-86716255D01*
X135322146Y-86653185D01*
X135247984Y-86603632D01*
X135165580Y-86569499D01*
X135078100Y-86552098D01*
X134988906Y-86552098D01*
X134901426Y-86569499D01*
X134819022Y-86603632D01*
X134744860Y-86653185D01*
X134681790Y-86716255D01*
X134632237Y-86790417D01*
X134598104Y-86872821D01*
X134580703Y-86960301D01*
X134050761Y-86960301D01*
X134045939Y-86959342D01*
X133956745Y-86959342D01*
X133869265Y-86976743D01*
X133786861Y-87010876D01*
X133712699Y-87060429D01*
X133649629Y-87123499D01*
X133600076Y-87197661D01*
X133565943Y-87280065D01*
X133548542Y-87367545D01*
X130312330Y-87367545D01*
X130312330Y-87360000D01*
X130303562Y-87270974D01*
X130277594Y-87185370D01*
X130235425Y-87106477D01*
X130178674Y-87037326D01*
X130127100Y-86995000D01*
X130178674Y-86952674D01*
X130235425Y-86883523D01*
X130277594Y-86804630D01*
X130303562Y-86719026D01*
X130312330Y-86630000D01*
X130312330Y-86090000D01*
X130303562Y-86000974D01*
X130277594Y-85915370D01*
X130235425Y-85836477D01*
X130201717Y-85795403D01*
X133051310Y-85795403D01*
X133051310Y-85884597D01*
X133068711Y-85972077D01*
X133102844Y-86054481D01*
X133152397Y-86128643D01*
X133215467Y-86191713D01*
X133289629Y-86241266D01*
X133372033Y-86275399D01*
X133459513Y-86292800D01*
X133548707Y-86292800D01*
X133636187Y-86275399D01*
X133718591Y-86241266D01*
X133792753Y-86191713D01*
X133855823Y-86128643D01*
X133905376Y-86054481D01*
X133939509Y-85972077D01*
X133956910Y-85884597D01*
X133956910Y-85795403D01*
X133939509Y-85707923D01*
X133905376Y-85625519D01*
X133855823Y-85551357D01*
X133792753Y-85488287D01*
X133718591Y-85438734D01*
X133636187Y-85404601D01*
X133548707Y-85387200D01*
X133459513Y-85387200D01*
X133372033Y-85404601D01*
X133289629Y-85438734D01*
X133215467Y-85488287D01*
X133152397Y-85551357D01*
X133102844Y-85625519D01*
X133068711Y-85707923D01*
X133051310Y-85795403D01*
X130201717Y-85795403D01*
X130178674Y-85767326D01*
X130127100Y-85725000D01*
X130178674Y-85682674D01*
X130235425Y-85613523D01*
X130277594Y-85534630D01*
X130303562Y-85449026D01*
X130312330Y-85360000D01*
X130312330Y-85130403D01*
X131430184Y-85130403D01*
X131430184Y-85219597D01*
X131447585Y-85307077D01*
X131481718Y-85389481D01*
X131531271Y-85463643D01*
X131594341Y-85526713D01*
X131668503Y-85576266D01*
X131750907Y-85610399D01*
X131838387Y-85627800D01*
X131927581Y-85627800D01*
X132015061Y-85610399D01*
X132097465Y-85576266D01*
X132171627Y-85526713D01*
X132234697Y-85463643D01*
X132284250Y-85389481D01*
X132318383Y-85307077D01*
X132335784Y-85219597D01*
X132335784Y-85130403D01*
X132318383Y-85042923D01*
X132284250Y-84960519D01*
X132234697Y-84886357D01*
X132171627Y-84823287D01*
X132097465Y-84773734D01*
X132015061Y-84739601D01*
X131927581Y-84722200D01*
X131838387Y-84722200D01*
X131750907Y-84739601D01*
X131668503Y-84773734D01*
X131594341Y-84823287D01*
X131531271Y-84886357D01*
X131481718Y-84960519D01*
X131447585Y-85042923D01*
X131430184Y-85130403D01*
X130312330Y-85130403D01*
X130312330Y-84820000D01*
X130303562Y-84730974D01*
X130277594Y-84645370D01*
X130235425Y-84566477D01*
X130178674Y-84497326D01*
X130127100Y-84455000D01*
X130178674Y-84412674D01*
X130184637Y-84405407D01*
X132537196Y-84405407D01*
X132537196Y-84494601D01*
X132554597Y-84582081D01*
X132588730Y-84664485D01*
X132638283Y-84738647D01*
X132701353Y-84801717D01*
X132775515Y-84851270D01*
X132857919Y-84885403D01*
X132945399Y-84902804D01*
X133034593Y-84902804D01*
X133122073Y-84885403D01*
X133204477Y-84851270D01*
X133278639Y-84801717D01*
X133341709Y-84738647D01*
X133391262Y-84664485D01*
X133425395Y-84582081D01*
X133442796Y-84494601D01*
X133442796Y-84405407D01*
X133425395Y-84317927D01*
X133391262Y-84235523D01*
X133341709Y-84161361D01*
X133278639Y-84098291D01*
X133229419Y-84065403D01*
X133887200Y-84065403D01*
X133887200Y-84154597D01*
X133904601Y-84242077D01*
X133938734Y-84324481D01*
X133988287Y-84398643D01*
X134051357Y-84461713D01*
X134125519Y-84511266D01*
X134207923Y-84545399D01*
X134295403Y-84562800D01*
X134384597Y-84562800D01*
X134472077Y-84545399D01*
X134554481Y-84511266D01*
X134628643Y-84461713D01*
X134650000Y-84440356D01*
X134662365Y-84452721D01*
X134633729Y-84481357D01*
X134584176Y-84555519D01*
X134550043Y-84637923D01*
X134532642Y-84725403D01*
X134532642Y-84814597D01*
X134550043Y-84902077D01*
X134584176Y-84984481D01*
X134633729Y-85058643D01*
X134696799Y-85121713D01*
X134770961Y-85171266D01*
X134853365Y-85205399D01*
X134940845Y-85222800D01*
X135030039Y-85222800D01*
X135117519Y-85205399D01*
X135199923Y-85171266D01*
X135272450Y-85122806D01*
X135283352Y-85133708D01*
X135248734Y-85185519D01*
X135214601Y-85267923D01*
X135197200Y-85355403D01*
X135197200Y-85444597D01*
X135214601Y-85532077D01*
X135248734Y-85614481D01*
X135298287Y-85688643D01*
X135339644Y-85730000D01*
X135335000Y-85734644D01*
X135298643Y-85698287D01*
X135224481Y-85648734D01*
X135142077Y-85614601D01*
X135054597Y-85597200D01*
X134965403Y-85597200D01*
X134877923Y-85614601D01*
X134795519Y-85648734D01*
X134721357Y-85698287D01*
X134658287Y-85761357D01*
X134608734Y-85835519D01*
X134574601Y-85917923D01*
X134557200Y-86005403D01*
X134557200Y-86094597D01*
X134574601Y-86182077D01*
X134608734Y-86264481D01*
X134658287Y-86338643D01*
X134721357Y-86401713D01*
X134795519Y-86451266D01*
X134877923Y-86485399D01*
X134965403Y-86502800D01*
X135054597Y-86502800D01*
X135142077Y-86485399D01*
X135224481Y-86451266D01*
X135298643Y-86401713D01*
X135325000Y-86375356D01*
X135361357Y-86411713D01*
X135435519Y-86461266D01*
X135517923Y-86495399D01*
X135605403Y-86512800D01*
X135694597Y-86512800D01*
X135782077Y-86495399D01*
X135864481Y-86461266D01*
X135938643Y-86411713D01*
X136001713Y-86348643D01*
X136051266Y-86274481D01*
X136085399Y-86192077D01*
X136102800Y-86104597D01*
X136102800Y-86015403D01*
X136085399Y-85927923D01*
X136051266Y-85845519D01*
X136001713Y-85771357D01*
X135960356Y-85730000D01*
X136001713Y-85688643D01*
X136051266Y-85614481D01*
X136085399Y-85532077D01*
X136102800Y-85444597D01*
X136102800Y-85355403D01*
X136085399Y-85267923D01*
X136051266Y-85185519D01*
X136001713Y-85111357D01*
X135966648Y-85076292D01*
X136001266Y-85024481D01*
X136035399Y-84942077D01*
X136052800Y-84854597D01*
X136052800Y-84765403D01*
X136035399Y-84677923D01*
X136001266Y-84595519D01*
X135951713Y-84521357D01*
X135935356Y-84505000D01*
X135991713Y-84448643D01*
X136041266Y-84374481D01*
X136075399Y-84292077D01*
X136092800Y-84204597D01*
X136092800Y-84115403D01*
X136075399Y-84027923D01*
X136041266Y-83945519D01*
X135991713Y-83871357D01*
X135965356Y-83845000D01*
X136001713Y-83808643D01*
X136051266Y-83734481D01*
X136085399Y-83652077D01*
X136102800Y-83564597D01*
X136102800Y-83475403D01*
X136085399Y-83387923D01*
X136051266Y-83305519D01*
X136001713Y-83231357D01*
X135965356Y-83195000D01*
X136001713Y-83158643D01*
X136051266Y-83084481D01*
X136085399Y-83002077D01*
X136102800Y-82914597D01*
X136102800Y-82825403D01*
X136085399Y-82737923D01*
X136051266Y-82655519D01*
X136001713Y-82581357D01*
X135938643Y-82518287D01*
X135864481Y-82468734D01*
X135782077Y-82434601D01*
X135694597Y-82417200D01*
X135605403Y-82417200D01*
X135517923Y-82434601D01*
X135435519Y-82468734D01*
X135361357Y-82518287D01*
X135298287Y-82581357D01*
X135248734Y-82655519D01*
X135214601Y-82737923D01*
X135197200Y-82825403D01*
X135197200Y-82914597D01*
X135214601Y-83002077D01*
X135240435Y-83064445D01*
X135216607Y-83048524D01*
X135134203Y-83014391D01*
X135046723Y-82996990D01*
X134957529Y-82996990D01*
X134870049Y-83014391D01*
X134787645Y-83048524D01*
X134713483Y-83098077D01*
X134650413Y-83161147D01*
X134600860Y-83235309D01*
X134566727Y-83317713D01*
X134549326Y-83405193D01*
X134549326Y-83494387D01*
X134566727Y-83581867D01*
X134600860Y-83664271D01*
X134650413Y-83738433D01*
X134690812Y-83778832D01*
X134670000Y-83799644D01*
X134628643Y-83758287D01*
X134554481Y-83708734D01*
X134472077Y-83674601D01*
X134384597Y-83657200D01*
X134295403Y-83657200D01*
X134207923Y-83674601D01*
X134125519Y-83708734D01*
X134051357Y-83758287D01*
X133988287Y-83821357D01*
X133938734Y-83895519D01*
X133904601Y-83977923D01*
X133887200Y-84065403D01*
X133229419Y-84065403D01*
X133204477Y-84048738D01*
X133122073Y-84014605D01*
X133034593Y-83997204D01*
X132945399Y-83997204D01*
X132857919Y-84014605D01*
X132775515Y-84048738D01*
X132701353Y-84098291D01*
X132638283Y-84161361D01*
X132588730Y-84235523D01*
X132554597Y-84317927D01*
X132537196Y-84405407D01*
X130184637Y-84405407D01*
X130235425Y-84343523D01*
X130277594Y-84264630D01*
X130303562Y-84179026D01*
X130312330Y-84090000D01*
X130312330Y-83550000D01*
X130303562Y-83460974D01*
X130277594Y-83375370D01*
X130235425Y-83296477D01*
X130178674Y-83227326D01*
X130127100Y-83185000D01*
X130178674Y-83142674D01*
X130199003Y-83117903D01*
X132501700Y-83117903D01*
X132501700Y-83207097D01*
X132519101Y-83294577D01*
X132553234Y-83376981D01*
X132602787Y-83451143D01*
X132665857Y-83514213D01*
X132740019Y-83563766D01*
X132822423Y-83597899D01*
X132909903Y-83615300D01*
X132999097Y-83615300D01*
X133086577Y-83597899D01*
X133164750Y-83565519D01*
X133242923Y-83597899D01*
X133330403Y-83615300D01*
X133419597Y-83615300D01*
X133507077Y-83597899D01*
X133589481Y-83563766D01*
X133663643Y-83514213D01*
X133726713Y-83451143D01*
X133776266Y-83376981D01*
X133810399Y-83294577D01*
X133827800Y-83207097D01*
X133827800Y-83117903D01*
X133810399Y-83030423D01*
X133776266Y-82948019D01*
X133726713Y-82873857D01*
X133663643Y-82810787D01*
X133589481Y-82761234D01*
X133507077Y-82727101D01*
X133419597Y-82709700D01*
X133330403Y-82709700D01*
X133242923Y-82727101D01*
X133164750Y-82759481D01*
X133086577Y-82727101D01*
X132999097Y-82709700D01*
X132909903Y-82709700D01*
X132822423Y-82727101D01*
X132740019Y-82761234D01*
X132665857Y-82810787D01*
X132602787Y-82873857D01*
X132553234Y-82948019D01*
X132519101Y-83030423D01*
X132501700Y-83117903D01*
X130199003Y-83117903D01*
X130235425Y-83073523D01*
X130277594Y-82994630D01*
X130303562Y-82909026D01*
X130312330Y-82820000D01*
X130312330Y-82280000D01*
X130303562Y-82190974D01*
X130301873Y-82185403D01*
X136427200Y-82185403D01*
X136427200Y-82274597D01*
X136444601Y-82362077D01*
X136478734Y-82444481D01*
X136528287Y-82518643D01*
X136563894Y-82554250D01*
X136536800Y-82581344D01*
X136487247Y-82655506D01*
X136453114Y-82737910D01*
X136435713Y-82825390D01*
X136435713Y-82914584D01*
X136453114Y-83002064D01*
X136487247Y-83084468D01*
X136536800Y-83158630D01*
X136588907Y-83210737D01*
X136588287Y-83211357D01*
X136538734Y-83285519D01*
X136504601Y-83367923D01*
X136487200Y-83455403D01*
X136487200Y-83544597D01*
X136504601Y-83632077D01*
X136538734Y-83714481D01*
X136588287Y-83788643D01*
X136605298Y-83805654D01*
X136601357Y-83808287D01*
X136538287Y-83871357D01*
X136488734Y-83945519D01*
X136454601Y-84027923D01*
X136437200Y-84115403D01*
X136437200Y-84204597D01*
X136454601Y-84292077D01*
X136488734Y-84374481D01*
X136538287Y-84448643D01*
X136581363Y-84491719D01*
X136538734Y-84555519D01*
X136504601Y-84637923D01*
X136487200Y-84725403D01*
X136487200Y-84814597D01*
X136504601Y-84902077D01*
X136538734Y-84984481D01*
X136588287Y-85058643D01*
X136621583Y-85091939D01*
X136599573Y-85113949D01*
X136550020Y-85188111D01*
X136515887Y-85270515D01*
X136498486Y-85357995D01*
X136498486Y-85447189D01*
X136515887Y-85534669D01*
X136550020Y-85617073D01*
X136599573Y-85691235D01*
X136604515Y-85696177D01*
X136601357Y-85698287D01*
X136538287Y-85761357D01*
X136488734Y-85835519D01*
X136454601Y-85917923D01*
X136437200Y-86005403D01*
X136437200Y-86094597D01*
X136454601Y-86182077D01*
X136488734Y-86264481D01*
X136538287Y-86338643D01*
X136601357Y-86401713D01*
X136675519Y-86451266D01*
X136757923Y-86485399D01*
X136845403Y-86502800D01*
X136934597Y-86502800D01*
X137022077Y-86485399D01*
X137104481Y-86451266D01*
X137178643Y-86401713D01*
X137215000Y-86365356D01*
X137231357Y-86381713D01*
X137305519Y-86431266D01*
X137387923Y-86465399D01*
X137475403Y-86482800D01*
X137564597Y-86482800D01*
X137652077Y-86465399D01*
X137734481Y-86431266D01*
X137808643Y-86381713D01*
X137871713Y-86318643D01*
X137921266Y-86244481D01*
X137955399Y-86162077D01*
X137972800Y-86074597D01*
X137972800Y-85985403D01*
X137955399Y-85897923D01*
X137921266Y-85815519D01*
X137871713Y-85741357D01*
X137808643Y-85678287D01*
X137734481Y-85628734D01*
X137652077Y-85594601D01*
X137564597Y-85577200D01*
X137475403Y-85577200D01*
X137387923Y-85594601D01*
X137356462Y-85607632D01*
X137386685Y-85534669D01*
X137404086Y-85447189D01*
X137404086Y-85357995D01*
X137389647Y-85285403D01*
X138767200Y-85285403D01*
X138767200Y-85374597D01*
X138784601Y-85462077D01*
X138818734Y-85544481D01*
X138868287Y-85618643D01*
X138931357Y-85681713D01*
X139005519Y-85731266D01*
X139087923Y-85765399D01*
X139175403Y-85782800D01*
X139264597Y-85782800D01*
X139352077Y-85765399D01*
X139434481Y-85731266D01*
X139508643Y-85681713D01*
X139571713Y-85618643D01*
X139621266Y-85544481D01*
X139655399Y-85462077D01*
X139672800Y-85374597D01*
X139672800Y-85285403D01*
X139655399Y-85197923D01*
X139621266Y-85115519D01*
X139571713Y-85041357D01*
X139508643Y-84978287D01*
X139434481Y-84928734D01*
X139352077Y-84894601D01*
X139264597Y-84877200D01*
X139175403Y-84877200D01*
X139087923Y-84894601D01*
X139005519Y-84928734D01*
X138931357Y-84978287D01*
X138868287Y-85041357D01*
X138818734Y-85115519D01*
X138784601Y-85197923D01*
X138767200Y-85285403D01*
X137389647Y-85285403D01*
X137386685Y-85270515D01*
X137352552Y-85188111D01*
X137302999Y-85113949D01*
X137269703Y-85080653D01*
X137291713Y-85058643D01*
X137341266Y-84984481D01*
X137375399Y-84902077D01*
X137392800Y-84814597D01*
X137392800Y-84775403D01*
X137737200Y-84775403D01*
X137737200Y-84864597D01*
X137754601Y-84952077D01*
X137788734Y-85034481D01*
X137838287Y-85108643D01*
X137901357Y-85171713D01*
X137975519Y-85221266D01*
X138057923Y-85255399D01*
X138145403Y-85272800D01*
X138234597Y-85272800D01*
X138322077Y-85255399D01*
X138404481Y-85221266D01*
X138478643Y-85171713D01*
X138541713Y-85108643D01*
X138591266Y-85034481D01*
X138625399Y-84952077D01*
X138642800Y-84864597D01*
X138642800Y-84775403D01*
X138625399Y-84687923D01*
X138591266Y-84605519D01*
X138541713Y-84531357D01*
X138484576Y-84474220D01*
X138488643Y-84471503D01*
X138551713Y-84408433D01*
X138554503Y-84404256D01*
X139275328Y-84404256D01*
X139275328Y-84493450D01*
X139292729Y-84580930D01*
X139326862Y-84663334D01*
X139376415Y-84737496D01*
X139439485Y-84800566D01*
X139513647Y-84850119D01*
X139596051Y-84884252D01*
X139683531Y-84901653D01*
X139772725Y-84901653D01*
X139860205Y-84884252D01*
X139942609Y-84850119D01*
X140016771Y-84800566D01*
X140079841Y-84737496D01*
X140129394Y-84663334D01*
X140163527Y-84580930D01*
X140180928Y-84493450D01*
X140180928Y-84404256D01*
X140163527Y-84316776D01*
X140129394Y-84234372D01*
X140079841Y-84160210D01*
X140016771Y-84097140D01*
X139942609Y-84047587D01*
X139860205Y-84013454D01*
X139772725Y-83996053D01*
X139683531Y-83996053D01*
X139596051Y-84013454D01*
X139513647Y-84047587D01*
X139439485Y-84097140D01*
X139376415Y-84160210D01*
X139326862Y-84234372D01*
X139292729Y-84316776D01*
X139275328Y-84404256D01*
X138554503Y-84404256D01*
X138601266Y-84334271D01*
X138635399Y-84251867D01*
X138652800Y-84164387D01*
X138652800Y-84075193D01*
X138635399Y-83987713D01*
X138601266Y-83905309D01*
X138551713Y-83831147D01*
X138488643Y-83768077D01*
X138414481Y-83718524D01*
X138332077Y-83684391D01*
X138244597Y-83666990D01*
X138155403Y-83666990D01*
X138067923Y-83684391D01*
X137985519Y-83718524D01*
X137911357Y-83768077D01*
X137848287Y-83831147D01*
X137798734Y-83905309D01*
X137764601Y-83987713D01*
X137747200Y-84075193D01*
X137747200Y-84164387D01*
X137764601Y-84251867D01*
X137798734Y-84334271D01*
X137848287Y-84408433D01*
X137905424Y-84465570D01*
X137901357Y-84468287D01*
X137838287Y-84531357D01*
X137788734Y-84605519D01*
X137754601Y-84687923D01*
X137737200Y-84775403D01*
X137392800Y-84775403D01*
X137392800Y-84725403D01*
X137375399Y-84637923D01*
X137341266Y-84555519D01*
X137291713Y-84481357D01*
X137248637Y-84438281D01*
X137291266Y-84374481D01*
X137325399Y-84292077D01*
X137342800Y-84204597D01*
X137342800Y-84115403D01*
X137325399Y-84027923D01*
X137291266Y-83945519D01*
X137241713Y-83871357D01*
X137224702Y-83854346D01*
X137228643Y-83851713D01*
X137263708Y-83816648D01*
X137315519Y-83851266D01*
X137397923Y-83885399D01*
X137485403Y-83902800D01*
X137574597Y-83902800D01*
X137662077Y-83885399D01*
X137744481Y-83851266D01*
X137818643Y-83801713D01*
X137881713Y-83738643D01*
X137931266Y-83664481D01*
X137965399Y-83582077D01*
X137982800Y-83494597D01*
X137982800Y-83405403D01*
X137965399Y-83317923D01*
X137959953Y-83304774D01*
X139142256Y-83304774D01*
X139142256Y-83393968D01*
X139159657Y-83481448D01*
X139193790Y-83563852D01*
X139243343Y-83638014D01*
X139306413Y-83701084D01*
X139380575Y-83750637D01*
X139462979Y-83784770D01*
X139550459Y-83802171D01*
X139639653Y-83802171D01*
X139727133Y-83784770D01*
X139809537Y-83750637D01*
X139883699Y-83701084D01*
X139946769Y-83638014D01*
X139996322Y-83563852D01*
X140030455Y-83481448D01*
X140047856Y-83393968D01*
X140047856Y-83304774D01*
X140030455Y-83217294D01*
X139996322Y-83134890D01*
X139946769Y-83060728D01*
X139883699Y-82997658D01*
X139809537Y-82948105D01*
X139727133Y-82913972D01*
X139639653Y-82896571D01*
X139550459Y-82896571D01*
X139462979Y-82913972D01*
X139380575Y-82948105D01*
X139306413Y-82997658D01*
X139243343Y-83060728D01*
X139193790Y-83134890D01*
X139159657Y-83217294D01*
X139142256Y-83304774D01*
X137959953Y-83304774D01*
X137931266Y-83235519D01*
X137881713Y-83161357D01*
X137820356Y-83100000D01*
X137861713Y-83058643D01*
X137911266Y-82984481D01*
X137945399Y-82902077D01*
X137962800Y-82814597D01*
X137962800Y-82725403D01*
X137945399Y-82637923D01*
X137911266Y-82555519D01*
X137872642Y-82497714D01*
X137911713Y-82458643D01*
X137961266Y-82384481D01*
X137995399Y-82302077D01*
X138012800Y-82214597D01*
X138012800Y-82148861D01*
X139054775Y-82148861D01*
X139054775Y-82238055D01*
X139072176Y-82325535D01*
X139106309Y-82407939D01*
X139155862Y-82482101D01*
X139218932Y-82545171D01*
X139293094Y-82594724D01*
X139375498Y-82628857D01*
X139462978Y-82646258D01*
X139552172Y-82646258D01*
X139639652Y-82628857D01*
X139722056Y-82594724D01*
X139796218Y-82545171D01*
X139859288Y-82482101D01*
X139908841Y-82407939D01*
X139942974Y-82325535D01*
X139960375Y-82238055D01*
X139960375Y-82148861D01*
X139942974Y-82061381D01*
X139908841Y-81978977D01*
X139859288Y-81904815D01*
X139796218Y-81841745D01*
X139722056Y-81792192D01*
X139639652Y-81758059D01*
X139552172Y-81740658D01*
X139462978Y-81740658D01*
X139375498Y-81758059D01*
X139293094Y-81792192D01*
X139218932Y-81841745D01*
X139155862Y-81904815D01*
X139106309Y-81978977D01*
X139072176Y-82061381D01*
X139054775Y-82148861D01*
X138012800Y-82148861D01*
X138012800Y-82125403D01*
X137995399Y-82037923D01*
X137961266Y-81955519D01*
X137911713Y-81881357D01*
X137848643Y-81818287D01*
X137774481Y-81768734D01*
X137692077Y-81734601D01*
X137604597Y-81717200D01*
X137515403Y-81717200D01*
X137427923Y-81734601D01*
X137345519Y-81768734D01*
X137271357Y-81818287D01*
X137208287Y-81881357D01*
X137193638Y-81903282D01*
X137168643Y-81878287D01*
X137094481Y-81828734D01*
X137012077Y-81794601D01*
X136924597Y-81777200D01*
X136835403Y-81777200D01*
X136747923Y-81794601D01*
X136665519Y-81828734D01*
X136591357Y-81878287D01*
X136528287Y-81941357D01*
X136478734Y-82015519D01*
X136444601Y-82097923D01*
X136427200Y-82185403D01*
X130301873Y-82185403D01*
X130277594Y-82105370D01*
X130235425Y-82026477D01*
X130178674Y-81957326D01*
X130127100Y-81915000D01*
X130178674Y-81872674D01*
X130235425Y-81803523D01*
X130277594Y-81724630D01*
X130303562Y-81639026D01*
X130312330Y-81550000D01*
X130312330Y-81115418D01*
X130641997Y-81115418D01*
X130641997Y-81204612D01*
X130659398Y-81292092D01*
X130693531Y-81374496D01*
X130743084Y-81448658D01*
X130806154Y-81511728D01*
X130880316Y-81561281D01*
X130962720Y-81595414D01*
X131050200Y-81612815D01*
X131139394Y-81612815D01*
X131226874Y-81595414D01*
X131297417Y-81566194D01*
X131367923Y-81595399D01*
X131455403Y-81612800D01*
X131544597Y-81612800D01*
X131632077Y-81595399D01*
X131714481Y-81561266D01*
X131754966Y-81534215D01*
X131765519Y-81541266D01*
X131847923Y-81575399D01*
X131935403Y-81592800D01*
X132024597Y-81592800D01*
X132112077Y-81575399D01*
X132194481Y-81541266D01*
X132268643Y-81491713D01*
X132331713Y-81428643D01*
X132381266Y-81354481D01*
X132415399Y-81272077D01*
X132432800Y-81184597D01*
X132432800Y-81095403D01*
X132415399Y-81007923D01*
X132381266Y-80925519D01*
X132331713Y-80851357D01*
X132329674Y-80849318D01*
X140642415Y-80849318D01*
X140642415Y-80938512D01*
X140659816Y-81025992D01*
X140693949Y-81108396D01*
X140743502Y-81182558D01*
X140806572Y-81245628D01*
X140880734Y-81295181D01*
X140963138Y-81329314D01*
X141050618Y-81346715D01*
X141139812Y-81346715D01*
X141227292Y-81329314D01*
X141309696Y-81295181D01*
X141383858Y-81245628D01*
X141446928Y-81182558D01*
X141496481Y-81108396D01*
X141530614Y-81025992D01*
X141548015Y-80938512D01*
X141548015Y-80849318D01*
X141530614Y-80761838D01*
X141496481Y-80679434D01*
X141446928Y-80605272D01*
X141383858Y-80542202D01*
X141309696Y-80492649D01*
X141227292Y-80458516D01*
X141139812Y-80441115D01*
X141050618Y-80441115D01*
X140963138Y-80458516D01*
X140880734Y-80492649D01*
X140806572Y-80542202D01*
X140743502Y-80605272D01*
X140693949Y-80679434D01*
X140659816Y-80761838D01*
X140642415Y-80849318D01*
X132329674Y-80849318D01*
X132268643Y-80788287D01*
X132194481Y-80738734D01*
X132112077Y-80704601D01*
X132024597Y-80687200D01*
X131935403Y-80687200D01*
X131847923Y-80704601D01*
X131765519Y-80738734D01*
X131725034Y-80765785D01*
X131714481Y-80758734D01*
X131632077Y-80724601D01*
X131544597Y-80707200D01*
X131455403Y-80707200D01*
X131367923Y-80724601D01*
X131297380Y-80753821D01*
X131226874Y-80724616D01*
X131139394Y-80707215D01*
X131050200Y-80707215D01*
X130962720Y-80724616D01*
X130880316Y-80758749D01*
X130806154Y-80808302D01*
X130743084Y-80871372D01*
X130693531Y-80945534D01*
X130659398Y-81027938D01*
X130641997Y-81115418D01*
X130312330Y-81115418D01*
X130312330Y-81010000D01*
X130303562Y-80920974D01*
X130277594Y-80835370D01*
X130235425Y-80756477D01*
X130178674Y-80687326D01*
X130127100Y-80645000D01*
X130178674Y-80602674D01*
X130235425Y-80533523D01*
X130277594Y-80454630D01*
X130303562Y-80369026D01*
X130312330Y-80280000D01*
X130312330Y-79740000D01*
X130303562Y-79650974D01*
X130277594Y-79565370D01*
X130235425Y-79486477D01*
X130178674Y-79417326D01*
X130127100Y-79375000D01*
X130178674Y-79332674D01*
X130235425Y-79263523D01*
X130277594Y-79184630D01*
X130303562Y-79099026D01*
X130312330Y-79010000D01*
X130312330Y-78470000D01*
X130305968Y-78405403D01*
X139487200Y-78405403D01*
X139487200Y-78494597D01*
X139504601Y-78582077D01*
X139538734Y-78664481D01*
X139588287Y-78738643D01*
X139651357Y-78801713D01*
X139725519Y-78851266D01*
X139807923Y-78885399D01*
X139895403Y-78902800D01*
X139984597Y-78902800D01*
X140072077Y-78885399D01*
X140154481Y-78851266D01*
X140228643Y-78801713D01*
X140291713Y-78738643D01*
X140341266Y-78664481D01*
X140375399Y-78582077D01*
X140392800Y-78494597D01*
X140392800Y-78405403D01*
X140375399Y-78317923D01*
X140341266Y-78235519D01*
X140291713Y-78161357D01*
X140228643Y-78098287D01*
X140154481Y-78048734D01*
X140072077Y-78014601D01*
X139984597Y-77997200D01*
X139895403Y-77997200D01*
X139807923Y-78014601D01*
X139725519Y-78048734D01*
X139651357Y-78098287D01*
X139588287Y-78161357D01*
X139538734Y-78235519D01*
X139504601Y-78317923D01*
X139487200Y-78405403D01*
X130305968Y-78405403D01*
X130303562Y-78380974D01*
X130277594Y-78295370D01*
X130235425Y-78216477D01*
X130178674Y-78147326D01*
X130127100Y-78105000D01*
X130178674Y-78062674D01*
X130235425Y-77993523D01*
X130277594Y-77914630D01*
X130303562Y-77829026D01*
X130312330Y-77740000D01*
X130312330Y-77200000D01*
X130303562Y-77110974D01*
X130297237Y-77090123D01*
X138353120Y-77090123D01*
X138353120Y-77179317D01*
X138370521Y-77266797D01*
X138404654Y-77349201D01*
X138454207Y-77423363D01*
X138517277Y-77486433D01*
X138591439Y-77535986D01*
X138673843Y-77570119D01*
X138761323Y-77587520D01*
X138850517Y-77587520D01*
X138937997Y-77570119D01*
X139020401Y-77535986D01*
X139043445Y-77520589D01*
X139076077Y-77553221D01*
X139150239Y-77602774D01*
X139232643Y-77636907D01*
X139320123Y-77654308D01*
X139409317Y-77654308D01*
X139496797Y-77636907D01*
X139579201Y-77602774D01*
X139653363Y-77553221D01*
X139716433Y-77490151D01*
X139738752Y-77456747D01*
X139807923Y-77485399D01*
X139895403Y-77502800D01*
X139984597Y-77502800D01*
X140072077Y-77485399D01*
X140154481Y-77451266D01*
X140228643Y-77401713D01*
X140291713Y-77338643D01*
X140341266Y-77264481D01*
X140375399Y-77182077D01*
X140392800Y-77094597D01*
X140392800Y-77005403D01*
X140375399Y-76917923D01*
X140341266Y-76835519D01*
X140291713Y-76761357D01*
X140228643Y-76698287D01*
X140154481Y-76648734D01*
X140072077Y-76614601D01*
X139984597Y-76597200D01*
X139895403Y-76597200D01*
X139807923Y-76614601D01*
X139725519Y-76648734D01*
X139651357Y-76698287D01*
X139588287Y-76761357D01*
X139565968Y-76794761D01*
X139496797Y-76766109D01*
X139409317Y-76748708D01*
X139320123Y-76748708D01*
X139232643Y-76766109D01*
X139150239Y-76800242D01*
X139127195Y-76815639D01*
X139094563Y-76783007D01*
X139020401Y-76733454D01*
X138937997Y-76699321D01*
X138850517Y-76681920D01*
X138761323Y-76681920D01*
X138673843Y-76699321D01*
X138591439Y-76733454D01*
X138517277Y-76783007D01*
X138454207Y-76846077D01*
X138404654Y-76920239D01*
X138370521Y-77002643D01*
X138353120Y-77090123D01*
X130297237Y-77090123D01*
X130277594Y-77025370D01*
X130255648Y-76984312D01*
X130290986Y-76960700D01*
X130346701Y-76904985D01*
X130390476Y-76839471D01*
X130420628Y-76766675D01*
X130436000Y-76689396D01*
X130436000Y-76350000D01*
X130336000Y-76250000D01*
X129636000Y-76250000D01*
X129636000Y-76150000D01*
X130336000Y-76150000D01*
X130436000Y-76050000D01*
X130436000Y-75710604D01*
X130420628Y-75633325D01*
X130390476Y-75560529D01*
X130346701Y-75495015D01*
X130290986Y-75439300D01*
X130225471Y-75395525D01*
X130152676Y-75365372D01*
X130075397Y-75350000D01*
X129636000Y-75350000D01*
X129636000Y-73375000D01*
X137326000Y-73375000D01*
X137326000Y-73814397D01*
X137326000Y-73814397D01*
G37*
X137326000Y-73814397D02*
X137341372Y-73891676D01*
X137371525Y-73964471D01*
X137415300Y-74029986D01*
X137471015Y-74085701D01*
X137536529Y-74129476D01*
X137609325Y-74159628D01*
X137686604Y-74175000D01*
X138026000Y-74175000D01*
X138126000Y-74075000D01*
X138126000Y-73375000D01*
X138226000Y-73375000D01*
X138226000Y-74075000D01*
X138326000Y-74175000D01*
X138665396Y-74175000D01*
X138742675Y-74159628D01*
X138815471Y-74129476D01*
X138880985Y-74085701D01*
X138936700Y-74029986D01*
X138960312Y-73994648D01*
X139001370Y-74016594D01*
X139086974Y-74042562D01*
X139176000Y-74051330D01*
X139716000Y-74051330D01*
X139805026Y-74042562D01*
X139890630Y-74016594D01*
X139931688Y-73994648D01*
X139955300Y-74029986D01*
X140011015Y-74085701D01*
X140076529Y-74129476D01*
X140149325Y-74159628D01*
X140226604Y-74175000D01*
X140566000Y-74175000D01*
X140666000Y-74075000D01*
X140666000Y-73375000D01*
X140766000Y-73375000D01*
X140766000Y-74075000D01*
X140866000Y-74175000D01*
X141205396Y-74175000D01*
X141282675Y-74159628D01*
X141355471Y-74129476D01*
X141420985Y-74085701D01*
X141476700Y-74029986D01*
X141520475Y-73964471D01*
X141550628Y-73891676D01*
X141566000Y-73814397D01*
X141566000Y-73375000D01*
X142906001Y-73375000D01*
X142906001Y-75350000D01*
X142466603Y-75350000D01*
X142389324Y-75365372D01*
X142316529Y-75395525D01*
X142251014Y-75439300D01*
X142195299Y-75495015D01*
X142151524Y-75560529D01*
X142121372Y-75633325D01*
X142106000Y-75710604D01*
X142106000Y-76050000D01*
X142206000Y-76150000D01*
X142906001Y-76150000D01*
X142906001Y-76250000D01*
X142206000Y-76250000D01*
X142106000Y-76350000D01*
X142106000Y-76689396D01*
X142121372Y-76766675D01*
X142151524Y-76839471D01*
X142195299Y-76904985D01*
X142251014Y-76960700D01*
X142286352Y-76984312D01*
X142264406Y-77025370D01*
X142238438Y-77110974D01*
X142229670Y-77200000D01*
X142229670Y-77740000D01*
X142238438Y-77829026D01*
X142264406Y-77914630D01*
X142306575Y-77993523D01*
X142363326Y-78062674D01*
X142414900Y-78105000D01*
X142363326Y-78147326D01*
X142306575Y-78216477D01*
X142264406Y-78295370D01*
X142238438Y-78380974D01*
X142229670Y-78470000D01*
X142229670Y-79010000D01*
X142238438Y-79099026D01*
X142264406Y-79184630D01*
X142306575Y-79263523D01*
X142363326Y-79332674D01*
X142414900Y-79375000D01*
X142363326Y-79417326D01*
X142306575Y-79486477D01*
X142264406Y-79565370D01*
X142238438Y-79650974D01*
X142229670Y-79740000D01*
X142229670Y-80280000D01*
X142238438Y-80369026D01*
X142264406Y-80454630D01*
X142306575Y-80533523D01*
X142363326Y-80602674D01*
X142414900Y-80645000D01*
X142363326Y-80687326D01*
X142306575Y-80756477D01*
X142264406Y-80835370D01*
X142238438Y-80920974D01*
X142229670Y-81010000D01*
X142229670Y-81550000D01*
X142238438Y-81639026D01*
X142264406Y-81724630D01*
X142306575Y-81803523D01*
X142343892Y-81848994D01*
X142284597Y-81837199D01*
X142195403Y-81837199D01*
X142107923Y-81854600D01*
X142025519Y-81888733D01*
X141951357Y-81938286D01*
X141888287Y-82001356D01*
X141838734Y-82075518D01*
X141804601Y-82157922D01*
X141787200Y-82245402D01*
X141787200Y-82334596D01*
X141804601Y-82422076D01*
X141838734Y-82504480D01*
X141888287Y-82578642D01*
X141951357Y-82641712D01*
X142025519Y-82691265D01*
X142107923Y-82725398D01*
X142195403Y-82742799D01*
X142229670Y-82742799D01*
X142229670Y-82820000D01*
X142238438Y-82909026D01*
X142264406Y-82994630D01*
X142306575Y-83073523D01*
X142363326Y-83142674D01*
X142414900Y-83185000D01*
X142363326Y-83227326D01*
X142306575Y-83296477D01*
X142264406Y-83375370D01*
X142238438Y-83460974D01*
X142229670Y-83550000D01*
X142229670Y-84090000D01*
X142238438Y-84179026D01*
X142264406Y-84264630D01*
X142306575Y-84343523D01*
X142363326Y-84412674D01*
X142414900Y-84455000D01*
X142363326Y-84497326D01*
X142306575Y-84566477D01*
X142264406Y-84645370D01*
X142238438Y-84730974D01*
X142229670Y-84820000D01*
X142229670Y-85360000D01*
X142238438Y-85449026D01*
X142264406Y-85534630D01*
X142306575Y-85613523D01*
X142363326Y-85682674D01*
X142414900Y-85725000D01*
X142363326Y-85767326D01*
X142306575Y-85836477D01*
X142264406Y-85915370D01*
X142238438Y-86000974D01*
X142229670Y-86090000D01*
X142229670Y-86630000D01*
X142238438Y-86719026D01*
X142264406Y-86804630D01*
X142306575Y-86883523D01*
X142363326Y-86952674D01*
X142414900Y-86995000D01*
X142363326Y-87037326D01*
X142306575Y-87106477D01*
X142264406Y-87185370D01*
X142238438Y-87270974D01*
X142229670Y-87360000D01*
X142229670Y-87369512D01*
X142183810Y-87300878D01*
X142111896Y-87228964D01*
X142027334Y-87172461D01*
X141933373Y-87133541D01*
X141833625Y-87113700D01*
X141731923Y-87113700D01*
X141632175Y-87133541D01*
X141538214Y-87172461D01*
X141453652Y-87228964D01*
X141381738Y-87300878D01*
X141325235Y-87385440D01*
X141286315Y-87479401D01*
X141266474Y-87579149D01*
X141266474Y-87680851D01*
X141286315Y-87780599D01*
X141325235Y-87874560D01*
X141381738Y-87959122D01*
X141453652Y-88031036D01*
X141538214Y-88087539D01*
X141632175Y-88126459D01*
X141731923Y-88146300D01*
X141833625Y-88146300D01*
X141933373Y-88126459D01*
X142027334Y-88087539D01*
X142111896Y-88031036D01*
X142183810Y-87959122D01*
X142229670Y-87890488D01*
X142229670Y-87900000D01*
X142238438Y-87989026D01*
X142264406Y-88074630D01*
X142306575Y-88153523D01*
X142363326Y-88222674D01*
X142397269Y-88250531D01*
X142394201Y-88251141D01*
X142300240Y-88290061D01*
X142215678Y-88346564D01*
X142143764Y-88418478D01*
X142087261Y-88503040D01*
X142048341Y-88597001D01*
X142028500Y-88696749D01*
X142028500Y-88798451D01*
X142048341Y-88898199D01*
X142087261Y-88992160D01*
X142143764Y-89076722D01*
X142215678Y-89148636D01*
X142270100Y-89185000D01*
X141566000Y-89185000D01*
X141566000Y-88745603D01*
X141550628Y-88668324D01*
X141520475Y-88595529D01*
X141476700Y-88530014D01*
X141420985Y-88474299D01*
X141355471Y-88430524D01*
X141282675Y-88400372D01*
X141205396Y-88385000D01*
X140866000Y-88385000D01*
X140766000Y-88485000D01*
X140766000Y-89185000D01*
X140666000Y-89185000D01*
X140666000Y-88485000D01*
X140566000Y-88385000D01*
X140226604Y-88385000D01*
X140149325Y-88400372D01*
X140076529Y-88430524D01*
X140011015Y-88474299D01*
X139955300Y-88530014D01*
X139931688Y-88565352D01*
X139890630Y-88543406D01*
X139805026Y-88517438D01*
X139716000Y-88508670D01*
X139176000Y-88508670D01*
X139086974Y-88517438D01*
X139001370Y-88543406D01*
X138922477Y-88585575D01*
X138853326Y-88642326D01*
X138811000Y-88693900D01*
X138768674Y-88642326D01*
X138699523Y-88585575D01*
X138620630Y-88543406D01*
X138535026Y-88517438D01*
X138446000Y-88508670D01*
X137906000Y-88508670D01*
X137816974Y-88517438D01*
X137731370Y-88543406D01*
X137652477Y-88585575D01*
X137583326Y-88642326D01*
X137541000Y-88693900D01*
X137498674Y-88642326D01*
X137429523Y-88585575D01*
X137350630Y-88543406D01*
X137265026Y-88517438D01*
X137176000Y-88508670D01*
X136636000Y-88508670D01*
X136546974Y-88517438D01*
X136461370Y-88543406D01*
X136382477Y-88585575D01*
X136313326Y-88642326D01*
X136271000Y-88693900D01*
X136228674Y-88642326D01*
X136159523Y-88585575D01*
X136080630Y-88543406D01*
X135995026Y-88517438D01*
X135906000Y-88508670D01*
X135366000Y-88508670D01*
X135276974Y-88517438D01*
X135191370Y-88543406D01*
X135112477Y-88585575D01*
X135043326Y-88642326D01*
X135001000Y-88693900D01*
X134958674Y-88642326D01*
X134889523Y-88585575D01*
X134810630Y-88543406D01*
X134725026Y-88517438D01*
X134636000Y-88508670D01*
X134096000Y-88508670D01*
X134006974Y-88517438D01*
X133921370Y-88543406D01*
X133842477Y-88585575D01*
X133773326Y-88642326D01*
X133731000Y-88693900D01*
X133688674Y-88642326D01*
X133619523Y-88585575D01*
X133540630Y-88543406D01*
X133455026Y-88517438D01*
X133366000Y-88508670D01*
X132826000Y-88508670D01*
X132736974Y-88517438D01*
X132651370Y-88543406D01*
X132572477Y-88585575D01*
X132503326Y-88642326D01*
X132461000Y-88693900D01*
X132418674Y-88642326D01*
X132349523Y-88585575D01*
X132270630Y-88543406D01*
X132185026Y-88517438D01*
X132096000Y-88508670D01*
X131556000Y-88508670D01*
X131466974Y-88517438D01*
X131381370Y-88543406D01*
X131302477Y-88585575D01*
X131233326Y-88642326D01*
X131176575Y-88711477D01*
X131134406Y-88790370D01*
X131108438Y-88875974D01*
X131099670Y-88965000D01*
X131099670Y-89185000D01*
X129636000Y-89185000D01*
X129636000Y-88356330D01*
X129856000Y-88356330D01*
X129945026Y-88347562D01*
X130030630Y-88321594D01*
X130109523Y-88279425D01*
X130178674Y-88222674D01*
X130235425Y-88153523D01*
X130277594Y-88074630D01*
X130303562Y-87989026D01*
X130312330Y-87900000D01*
X130312330Y-87367545D01*
X133548542Y-87367545D01*
X133548542Y-87456739D01*
X133565943Y-87544219D01*
X133600076Y-87626623D01*
X133649629Y-87700785D01*
X133712699Y-87763855D01*
X133786861Y-87813408D01*
X133869265Y-87847541D01*
X133956745Y-87864942D01*
X134045939Y-87864942D01*
X134133419Y-87847541D01*
X134215823Y-87813408D01*
X134289985Y-87763855D01*
X134353055Y-87700785D01*
X134402608Y-87626623D01*
X134436741Y-87544219D01*
X134454142Y-87456739D01*
X134454142Y-87367545D01*
X134436741Y-87280065D01*
X134402608Y-87197661D01*
X134353055Y-87123499D01*
X134289985Y-87060429D01*
X134215823Y-87010876D01*
X134133419Y-86976743D01*
X134050761Y-86960301D01*
X134580703Y-86960301D01*
X134580703Y-87049495D01*
X134598104Y-87136975D01*
X134632237Y-87219379D01*
X134681790Y-87293541D01*
X134744860Y-87356611D01*
X134819022Y-87406164D01*
X134901426Y-87440297D01*
X134988906Y-87457698D01*
X135078100Y-87457698D01*
X135165580Y-87440297D01*
X135191308Y-87429640D01*
X135197568Y-87444753D01*
X135247121Y-87518915D01*
X135310191Y-87581985D01*
X135384353Y-87631538D01*
X135466757Y-87665671D01*
X135554237Y-87683072D01*
X135643431Y-87683072D01*
X135730911Y-87665671D01*
X135813315Y-87631538D01*
X135887477Y-87581985D01*
X135950547Y-87518915D01*
X135986300Y-87465405D01*
X137717200Y-87465405D01*
X137717200Y-87554599D01*
X137734601Y-87642079D01*
X137768734Y-87724483D01*
X137818287Y-87798645D01*
X137881357Y-87861715D01*
X137955519Y-87911268D01*
X138037923Y-87945401D01*
X138125403Y-87962802D01*
X138214597Y-87962802D01*
X138302077Y-87945401D01*
X138384481Y-87911268D01*
X138458643Y-87861715D01*
X138521713Y-87798645D01*
X138571266Y-87724483D01*
X138605399Y-87642079D01*
X138622800Y-87554599D01*
X138622800Y-87465405D01*
X138614844Y-87425403D01*
X138757200Y-87425403D01*
X138757200Y-87514597D01*
X138774601Y-87602077D01*
X138808734Y-87684481D01*
X138858287Y-87758643D01*
X138921357Y-87821713D01*
X138995519Y-87871266D01*
X139077923Y-87905399D01*
X139165403Y-87922800D01*
X139254597Y-87922800D01*
X139342077Y-87905399D01*
X139424481Y-87871266D01*
X139498643Y-87821713D01*
X139561713Y-87758643D01*
X139611266Y-87684481D01*
X139645399Y-87602077D01*
X139662800Y-87514597D01*
X139662800Y-87469149D01*
X140193700Y-87469149D01*
X140193700Y-87570851D01*
X140213541Y-87670599D01*
X140252461Y-87764560D01*
X140308964Y-87849122D01*
X140380878Y-87921036D01*
X140465440Y-87977539D01*
X140559401Y-88016459D01*
X140659149Y-88036300D01*
X140760851Y-88036300D01*
X140860599Y-88016459D01*
X140954560Y-87977539D01*
X141039122Y-87921036D01*
X141111036Y-87849122D01*
X141167539Y-87764560D01*
X141206459Y-87670599D01*
X141226300Y-87570851D01*
X141226300Y-87469149D01*
X141206459Y-87369401D01*
X141167539Y-87275440D01*
X141111036Y-87190878D01*
X141039122Y-87118964D01*
X140954560Y-87062461D01*
X140860599Y-87023541D01*
X140760851Y-87003700D01*
X140659149Y-87003700D01*
X140559401Y-87023541D01*
X140465440Y-87062461D01*
X140380878Y-87118964D01*
X140308964Y-87190878D01*
X140252461Y-87275440D01*
X140213541Y-87369401D01*
X140193700Y-87469149D01*
X139662800Y-87469149D01*
X139662800Y-87425403D01*
X139645399Y-87337923D01*
X139611266Y-87255519D01*
X139561713Y-87181357D01*
X139498643Y-87118287D01*
X139424481Y-87068734D01*
X139342077Y-87034601D01*
X139254597Y-87017200D01*
X139165403Y-87017200D01*
X139077923Y-87034601D01*
X138995519Y-87068734D01*
X138921357Y-87118287D01*
X138858287Y-87181357D01*
X138808734Y-87255519D01*
X138774601Y-87337923D01*
X138757200Y-87425403D01*
X138614844Y-87425403D01*
X138613203Y-87417158D01*
X138625711Y-87408800D01*
X138688781Y-87345730D01*
X138738334Y-87271568D01*
X138772467Y-87189164D01*
X138789868Y-87101684D01*
X138789868Y-87012490D01*
X138772467Y-86925010D01*
X138738334Y-86842606D01*
X138688781Y-86768444D01*
X138625711Y-86705374D01*
X138551549Y-86655821D01*
X138469145Y-86621688D01*
X138381665Y-86604287D01*
X138292471Y-86604287D01*
X138204991Y-86621688D01*
X138122587Y-86655821D01*
X138048425Y-86705374D01*
X137985355Y-86768444D01*
X137935802Y-86842606D01*
X137901669Y-86925010D01*
X137884268Y-87012490D01*
X137884268Y-87101684D01*
X137893865Y-87149931D01*
X137881357Y-87158289D01*
X137818287Y-87221359D01*
X137768734Y-87295521D01*
X137734601Y-87377925D01*
X137717200Y-87465405D01*
X135986300Y-87465405D01*
X136000100Y-87444753D01*
X136034233Y-87362349D01*
X136051634Y-87274869D01*
X136051634Y-87185675D01*
X136034233Y-87098195D01*
X136000100Y-87015791D01*
X135950547Y-86941629D01*
X135887477Y-86878559D01*
X135813315Y-86829006D01*
X135730911Y-86794873D01*
X135643431Y-86777472D01*
X135554237Y-86777472D01*
X135466757Y-86794873D01*
X135441029Y-86805530D01*
X135434769Y-86790417D01*
X135385216Y-86716255D01*
X135322146Y-86653185D01*
X135247984Y-86603632D01*
X135165580Y-86569499D01*
X135078100Y-86552098D01*
X134988906Y-86552098D01*
X134901426Y-86569499D01*
X134819022Y-86603632D01*
X134744860Y-86653185D01*
X134681790Y-86716255D01*
X134632237Y-86790417D01*
X134598104Y-86872821D01*
X134580703Y-86960301D01*
X134050761Y-86960301D01*
X134045939Y-86959342D01*
X133956745Y-86959342D01*
X133869265Y-86976743D01*
X133786861Y-87010876D01*
X133712699Y-87060429D01*
X133649629Y-87123499D01*
X133600076Y-87197661D01*
X133565943Y-87280065D01*
X133548542Y-87367545D01*
X130312330Y-87367545D01*
X130312330Y-87360000D01*
X130303562Y-87270974D01*
X130277594Y-87185370D01*
X130235425Y-87106477D01*
X130178674Y-87037326D01*
X130127100Y-86995000D01*
X130178674Y-86952674D01*
X130235425Y-86883523D01*
X130277594Y-86804630D01*
X130303562Y-86719026D01*
X130312330Y-86630000D01*
X130312330Y-86090000D01*
X130303562Y-86000974D01*
X130277594Y-85915370D01*
X130235425Y-85836477D01*
X130201717Y-85795403D01*
X133051310Y-85795403D01*
X133051310Y-85884597D01*
X133068711Y-85972077D01*
X133102844Y-86054481D01*
X133152397Y-86128643D01*
X133215467Y-86191713D01*
X133289629Y-86241266D01*
X133372033Y-86275399D01*
X133459513Y-86292800D01*
X133548707Y-86292800D01*
X133636187Y-86275399D01*
X133718591Y-86241266D01*
X133792753Y-86191713D01*
X133855823Y-86128643D01*
X133905376Y-86054481D01*
X133939509Y-85972077D01*
X133956910Y-85884597D01*
X133956910Y-85795403D01*
X133939509Y-85707923D01*
X133905376Y-85625519D01*
X133855823Y-85551357D01*
X133792753Y-85488287D01*
X133718591Y-85438734D01*
X133636187Y-85404601D01*
X133548707Y-85387200D01*
X133459513Y-85387200D01*
X133372033Y-85404601D01*
X133289629Y-85438734D01*
X133215467Y-85488287D01*
X133152397Y-85551357D01*
X133102844Y-85625519D01*
X133068711Y-85707923D01*
X133051310Y-85795403D01*
X130201717Y-85795403D01*
X130178674Y-85767326D01*
X130127100Y-85725000D01*
X130178674Y-85682674D01*
X130235425Y-85613523D01*
X130277594Y-85534630D01*
X130303562Y-85449026D01*
X130312330Y-85360000D01*
X130312330Y-85130403D01*
X131430184Y-85130403D01*
X131430184Y-85219597D01*
X131447585Y-85307077D01*
X131481718Y-85389481D01*
X131531271Y-85463643D01*
X131594341Y-85526713D01*
X131668503Y-85576266D01*
X131750907Y-85610399D01*
X131838387Y-85627800D01*
X131927581Y-85627800D01*
X132015061Y-85610399D01*
X132097465Y-85576266D01*
X132171627Y-85526713D01*
X132234697Y-85463643D01*
X132284250Y-85389481D01*
X132318383Y-85307077D01*
X132335784Y-85219597D01*
X132335784Y-85130403D01*
X132318383Y-85042923D01*
X132284250Y-84960519D01*
X132234697Y-84886357D01*
X132171627Y-84823287D01*
X132097465Y-84773734D01*
X132015061Y-84739601D01*
X131927581Y-84722200D01*
X131838387Y-84722200D01*
X131750907Y-84739601D01*
X131668503Y-84773734D01*
X131594341Y-84823287D01*
X131531271Y-84886357D01*
X131481718Y-84960519D01*
X131447585Y-85042923D01*
X131430184Y-85130403D01*
X130312330Y-85130403D01*
X130312330Y-84820000D01*
X130303562Y-84730974D01*
X130277594Y-84645370D01*
X130235425Y-84566477D01*
X130178674Y-84497326D01*
X130127100Y-84455000D01*
X130178674Y-84412674D01*
X130184637Y-84405407D01*
X132537196Y-84405407D01*
X132537196Y-84494601D01*
X132554597Y-84582081D01*
X132588730Y-84664485D01*
X132638283Y-84738647D01*
X132701353Y-84801717D01*
X132775515Y-84851270D01*
X132857919Y-84885403D01*
X132945399Y-84902804D01*
X133034593Y-84902804D01*
X133122073Y-84885403D01*
X133204477Y-84851270D01*
X133278639Y-84801717D01*
X133341709Y-84738647D01*
X133391262Y-84664485D01*
X133425395Y-84582081D01*
X133442796Y-84494601D01*
X133442796Y-84405407D01*
X133425395Y-84317927D01*
X133391262Y-84235523D01*
X133341709Y-84161361D01*
X133278639Y-84098291D01*
X133229419Y-84065403D01*
X133887200Y-84065403D01*
X133887200Y-84154597D01*
X133904601Y-84242077D01*
X133938734Y-84324481D01*
X133988287Y-84398643D01*
X134051357Y-84461713D01*
X134125519Y-84511266D01*
X134207923Y-84545399D01*
X134295403Y-84562800D01*
X134384597Y-84562800D01*
X134472077Y-84545399D01*
X134554481Y-84511266D01*
X134628643Y-84461713D01*
X134650000Y-84440356D01*
X134662365Y-84452721D01*
X134633729Y-84481357D01*
X134584176Y-84555519D01*
X134550043Y-84637923D01*
X134532642Y-84725403D01*
X134532642Y-84814597D01*
X134550043Y-84902077D01*
X134584176Y-84984481D01*
X134633729Y-85058643D01*
X134696799Y-85121713D01*
X134770961Y-85171266D01*
X134853365Y-85205399D01*
X134940845Y-85222800D01*
X135030039Y-85222800D01*
X135117519Y-85205399D01*
X135199923Y-85171266D01*
X135272450Y-85122806D01*
X135283352Y-85133708D01*
X135248734Y-85185519D01*
X135214601Y-85267923D01*
X135197200Y-85355403D01*
X135197200Y-85444597D01*
X135214601Y-85532077D01*
X135248734Y-85614481D01*
X135298287Y-85688643D01*
X135339644Y-85730000D01*
X135335000Y-85734644D01*
X135298643Y-85698287D01*
X135224481Y-85648734D01*
X135142077Y-85614601D01*
X135054597Y-85597200D01*
X134965403Y-85597200D01*
X134877923Y-85614601D01*
X134795519Y-85648734D01*
X134721357Y-85698287D01*
X134658287Y-85761357D01*
X134608734Y-85835519D01*
X134574601Y-85917923D01*
X134557200Y-86005403D01*
X134557200Y-86094597D01*
X134574601Y-86182077D01*
X134608734Y-86264481D01*
X134658287Y-86338643D01*
X134721357Y-86401713D01*
X134795519Y-86451266D01*
X134877923Y-86485399D01*
X134965403Y-86502800D01*
X135054597Y-86502800D01*
X135142077Y-86485399D01*
X135224481Y-86451266D01*
X135298643Y-86401713D01*
X135325000Y-86375356D01*
X135361357Y-86411713D01*
X135435519Y-86461266D01*
X135517923Y-86495399D01*
X135605403Y-86512800D01*
X135694597Y-86512800D01*
X135782077Y-86495399D01*
X135864481Y-86461266D01*
X135938643Y-86411713D01*
X136001713Y-86348643D01*
X136051266Y-86274481D01*
X136085399Y-86192077D01*
X136102800Y-86104597D01*
X136102800Y-86015403D01*
X136085399Y-85927923D01*
X136051266Y-85845519D01*
X136001713Y-85771357D01*
X135960356Y-85730000D01*
X136001713Y-85688643D01*
X136051266Y-85614481D01*
X136085399Y-85532077D01*
X136102800Y-85444597D01*
X136102800Y-85355403D01*
X136085399Y-85267923D01*
X136051266Y-85185519D01*
X136001713Y-85111357D01*
X135966648Y-85076292D01*
X136001266Y-85024481D01*
X136035399Y-84942077D01*
X136052800Y-84854597D01*
X136052800Y-84765403D01*
X136035399Y-84677923D01*
X136001266Y-84595519D01*
X135951713Y-84521357D01*
X135935356Y-84505000D01*
X135991713Y-84448643D01*
X136041266Y-84374481D01*
X136075399Y-84292077D01*
X136092800Y-84204597D01*
X136092800Y-84115403D01*
X136075399Y-84027923D01*
X136041266Y-83945519D01*
X135991713Y-83871357D01*
X135965356Y-83845000D01*
X136001713Y-83808643D01*
X136051266Y-83734481D01*
X136085399Y-83652077D01*
X136102800Y-83564597D01*
X136102800Y-83475403D01*
X136085399Y-83387923D01*
X136051266Y-83305519D01*
X136001713Y-83231357D01*
X135965356Y-83195000D01*
X136001713Y-83158643D01*
X136051266Y-83084481D01*
X136085399Y-83002077D01*
X136102800Y-82914597D01*
X136102800Y-82825403D01*
X136085399Y-82737923D01*
X136051266Y-82655519D01*
X136001713Y-82581357D01*
X135938643Y-82518287D01*
X135864481Y-82468734D01*
X135782077Y-82434601D01*
X135694597Y-82417200D01*
X135605403Y-82417200D01*
X135517923Y-82434601D01*
X135435519Y-82468734D01*
X135361357Y-82518287D01*
X135298287Y-82581357D01*
X135248734Y-82655519D01*
X135214601Y-82737923D01*
X135197200Y-82825403D01*
X135197200Y-82914597D01*
X135214601Y-83002077D01*
X135240435Y-83064445D01*
X135216607Y-83048524D01*
X135134203Y-83014391D01*
X135046723Y-82996990D01*
X134957529Y-82996990D01*
X134870049Y-83014391D01*
X134787645Y-83048524D01*
X134713483Y-83098077D01*
X134650413Y-83161147D01*
X134600860Y-83235309D01*
X134566727Y-83317713D01*
X134549326Y-83405193D01*
X134549326Y-83494387D01*
X134566727Y-83581867D01*
X134600860Y-83664271D01*
X134650413Y-83738433D01*
X134690812Y-83778832D01*
X134670000Y-83799644D01*
X134628643Y-83758287D01*
X134554481Y-83708734D01*
X134472077Y-83674601D01*
X134384597Y-83657200D01*
X134295403Y-83657200D01*
X134207923Y-83674601D01*
X134125519Y-83708734D01*
X134051357Y-83758287D01*
X133988287Y-83821357D01*
X133938734Y-83895519D01*
X133904601Y-83977923D01*
X133887200Y-84065403D01*
X133229419Y-84065403D01*
X133204477Y-84048738D01*
X133122073Y-84014605D01*
X133034593Y-83997204D01*
X132945399Y-83997204D01*
X132857919Y-84014605D01*
X132775515Y-84048738D01*
X132701353Y-84098291D01*
X132638283Y-84161361D01*
X132588730Y-84235523D01*
X132554597Y-84317927D01*
X132537196Y-84405407D01*
X130184637Y-84405407D01*
X130235425Y-84343523D01*
X130277594Y-84264630D01*
X130303562Y-84179026D01*
X130312330Y-84090000D01*
X130312330Y-83550000D01*
X130303562Y-83460974D01*
X130277594Y-83375370D01*
X130235425Y-83296477D01*
X130178674Y-83227326D01*
X130127100Y-83185000D01*
X130178674Y-83142674D01*
X130199003Y-83117903D01*
X132501700Y-83117903D01*
X132501700Y-83207097D01*
X132519101Y-83294577D01*
X132553234Y-83376981D01*
X132602787Y-83451143D01*
X132665857Y-83514213D01*
X132740019Y-83563766D01*
X132822423Y-83597899D01*
X132909903Y-83615300D01*
X132999097Y-83615300D01*
X133086577Y-83597899D01*
X133164750Y-83565519D01*
X133242923Y-83597899D01*
X133330403Y-83615300D01*
X133419597Y-83615300D01*
X133507077Y-83597899D01*
X133589481Y-83563766D01*
X133663643Y-83514213D01*
X133726713Y-83451143D01*
X133776266Y-83376981D01*
X133810399Y-83294577D01*
X133827800Y-83207097D01*
X133827800Y-83117903D01*
X133810399Y-83030423D01*
X133776266Y-82948019D01*
X133726713Y-82873857D01*
X133663643Y-82810787D01*
X133589481Y-82761234D01*
X133507077Y-82727101D01*
X133419597Y-82709700D01*
X133330403Y-82709700D01*
X133242923Y-82727101D01*
X133164750Y-82759481D01*
X133086577Y-82727101D01*
X132999097Y-82709700D01*
X132909903Y-82709700D01*
X132822423Y-82727101D01*
X132740019Y-82761234D01*
X132665857Y-82810787D01*
X132602787Y-82873857D01*
X132553234Y-82948019D01*
X132519101Y-83030423D01*
X132501700Y-83117903D01*
X130199003Y-83117903D01*
X130235425Y-83073523D01*
X130277594Y-82994630D01*
X130303562Y-82909026D01*
X130312330Y-82820000D01*
X130312330Y-82280000D01*
X130303562Y-82190974D01*
X130301873Y-82185403D01*
X136427200Y-82185403D01*
X136427200Y-82274597D01*
X136444601Y-82362077D01*
X136478734Y-82444481D01*
X136528287Y-82518643D01*
X136563894Y-82554250D01*
X136536800Y-82581344D01*
X136487247Y-82655506D01*
X136453114Y-82737910D01*
X136435713Y-82825390D01*
X136435713Y-82914584D01*
X136453114Y-83002064D01*
X136487247Y-83084468D01*
X136536800Y-83158630D01*
X136588907Y-83210737D01*
X136588287Y-83211357D01*
X136538734Y-83285519D01*
X136504601Y-83367923D01*
X136487200Y-83455403D01*
X136487200Y-83544597D01*
X136504601Y-83632077D01*
X136538734Y-83714481D01*
X136588287Y-83788643D01*
X136605298Y-83805654D01*
X136601357Y-83808287D01*
X136538287Y-83871357D01*
X136488734Y-83945519D01*
X136454601Y-84027923D01*
X136437200Y-84115403D01*
X136437200Y-84204597D01*
X136454601Y-84292077D01*
X136488734Y-84374481D01*
X136538287Y-84448643D01*
X136581363Y-84491719D01*
X136538734Y-84555519D01*
X136504601Y-84637923D01*
X136487200Y-84725403D01*
X136487200Y-84814597D01*
X136504601Y-84902077D01*
X136538734Y-84984481D01*
X136588287Y-85058643D01*
X136621583Y-85091939D01*
X136599573Y-85113949D01*
X136550020Y-85188111D01*
X136515887Y-85270515D01*
X136498486Y-85357995D01*
X136498486Y-85447189D01*
X136515887Y-85534669D01*
X136550020Y-85617073D01*
X136599573Y-85691235D01*
X136604515Y-85696177D01*
X136601357Y-85698287D01*
X136538287Y-85761357D01*
X136488734Y-85835519D01*
X136454601Y-85917923D01*
X136437200Y-86005403D01*
X136437200Y-86094597D01*
X136454601Y-86182077D01*
X136488734Y-86264481D01*
X136538287Y-86338643D01*
X136601357Y-86401713D01*
X136675519Y-86451266D01*
X136757923Y-86485399D01*
X136845403Y-86502800D01*
X136934597Y-86502800D01*
X137022077Y-86485399D01*
X137104481Y-86451266D01*
X137178643Y-86401713D01*
X137215000Y-86365356D01*
X137231357Y-86381713D01*
X137305519Y-86431266D01*
X137387923Y-86465399D01*
X137475403Y-86482800D01*
X137564597Y-86482800D01*
X137652077Y-86465399D01*
X137734481Y-86431266D01*
X137808643Y-86381713D01*
X137871713Y-86318643D01*
X137921266Y-86244481D01*
X137955399Y-86162077D01*
X137972800Y-86074597D01*
X137972800Y-85985403D01*
X137955399Y-85897923D01*
X137921266Y-85815519D01*
X137871713Y-85741357D01*
X137808643Y-85678287D01*
X137734481Y-85628734D01*
X137652077Y-85594601D01*
X137564597Y-85577200D01*
X137475403Y-85577200D01*
X137387923Y-85594601D01*
X137356462Y-85607632D01*
X137386685Y-85534669D01*
X137404086Y-85447189D01*
X137404086Y-85357995D01*
X137389647Y-85285403D01*
X138767200Y-85285403D01*
X138767200Y-85374597D01*
X138784601Y-85462077D01*
X138818734Y-85544481D01*
X138868287Y-85618643D01*
X138931357Y-85681713D01*
X139005519Y-85731266D01*
X139087923Y-85765399D01*
X139175403Y-85782800D01*
X139264597Y-85782800D01*
X139352077Y-85765399D01*
X139434481Y-85731266D01*
X139508643Y-85681713D01*
X139571713Y-85618643D01*
X139621266Y-85544481D01*
X139655399Y-85462077D01*
X139672800Y-85374597D01*
X139672800Y-85285403D01*
X139655399Y-85197923D01*
X139621266Y-85115519D01*
X139571713Y-85041357D01*
X139508643Y-84978287D01*
X139434481Y-84928734D01*
X139352077Y-84894601D01*
X139264597Y-84877200D01*
X139175403Y-84877200D01*
X139087923Y-84894601D01*
X139005519Y-84928734D01*
X138931357Y-84978287D01*
X138868287Y-85041357D01*
X138818734Y-85115519D01*
X138784601Y-85197923D01*
X138767200Y-85285403D01*
X137389647Y-85285403D01*
X137386685Y-85270515D01*
X137352552Y-85188111D01*
X137302999Y-85113949D01*
X137269703Y-85080653D01*
X137291713Y-85058643D01*
X137341266Y-84984481D01*
X137375399Y-84902077D01*
X137392800Y-84814597D01*
X137392800Y-84775403D01*
X137737200Y-84775403D01*
X137737200Y-84864597D01*
X137754601Y-84952077D01*
X137788734Y-85034481D01*
X137838287Y-85108643D01*
X137901357Y-85171713D01*
X137975519Y-85221266D01*
X138057923Y-85255399D01*
X138145403Y-85272800D01*
X138234597Y-85272800D01*
X138322077Y-85255399D01*
X138404481Y-85221266D01*
X138478643Y-85171713D01*
X138541713Y-85108643D01*
X138591266Y-85034481D01*
X138625399Y-84952077D01*
X138642800Y-84864597D01*
X138642800Y-84775403D01*
X138625399Y-84687923D01*
X138591266Y-84605519D01*
X138541713Y-84531357D01*
X138484576Y-84474220D01*
X138488643Y-84471503D01*
X138551713Y-84408433D01*
X138554503Y-84404256D01*
X139275328Y-84404256D01*
X139275328Y-84493450D01*
X139292729Y-84580930D01*
X139326862Y-84663334D01*
X139376415Y-84737496D01*
X139439485Y-84800566D01*
X139513647Y-84850119D01*
X139596051Y-84884252D01*
X139683531Y-84901653D01*
X139772725Y-84901653D01*
X139860205Y-84884252D01*
X139942609Y-84850119D01*
X140016771Y-84800566D01*
X140079841Y-84737496D01*
X140129394Y-84663334D01*
X140163527Y-84580930D01*
X140180928Y-84493450D01*
X140180928Y-84404256D01*
X140163527Y-84316776D01*
X140129394Y-84234372D01*
X140079841Y-84160210D01*
X140016771Y-84097140D01*
X139942609Y-84047587D01*
X139860205Y-84013454D01*
X139772725Y-83996053D01*
X139683531Y-83996053D01*
X139596051Y-84013454D01*
X139513647Y-84047587D01*
X139439485Y-84097140D01*
X139376415Y-84160210D01*
X139326862Y-84234372D01*
X139292729Y-84316776D01*
X139275328Y-84404256D01*
X138554503Y-84404256D01*
X138601266Y-84334271D01*
X138635399Y-84251867D01*
X138652800Y-84164387D01*
X138652800Y-84075193D01*
X138635399Y-83987713D01*
X138601266Y-83905309D01*
X138551713Y-83831147D01*
X138488643Y-83768077D01*
X138414481Y-83718524D01*
X138332077Y-83684391D01*
X138244597Y-83666990D01*
X138155403Y-83666990D01*
X138067923Y-83684391D01*
X137985519Y-83718524D01*
X137911357Y-83768077D01*
X137848287Y-83831147D01*
X137798734Y-83905309D01*
X137764601Y-83987713D01*
X137747200Y-84075193D01*
X137747200Y-84164387D01*
X137764601Y-84251867D01*
X137798734Y-84334271D01*
X137848287Y-84408433D01*
X137905424Y-84465570D01*
X137901357Y-84468287D01*
X137838287Y-84531357D01*
X137788734Y-84605519D01*
X137754601Y-84687923D01*
X137737200Y-84775403D01*
X137392800Y-84775403D01*
X137392800Y-84725403D01*
X137375399Y-84637923D01*
X137341266Y-84555519D01*
X137291713Y-84481357D01*
X137248637Y-84438281D01*
X137291266Y-84374481D01*
X137325399Y-84292077D01*
X137342800Y-84204597D01*
X137342800Y-84115403D01*
X137325399Y-84027923D01*
X137291266Y-83945519D01*
X137241713Y-83871357D01*
X137224702Y-83854346D01*
X137228643Y-83851713D01*
X137263708Y-83816648D01*
X137315519Y-83851266D01*
X137397923Y-83885399D01*
X137485403Y-83902800D01*
X137574597Y-83902800D01*
X137662077Y-83885399D01*
X137744481Y-83851266D01*
X137818643Y-83801713D01*
X137881713Y-83738643D01*
X137931266Y-83664481D01*
X137965399Y-83582077D01*
X137982800Y-83494597D01*
X137982800Y-83405403D01*
X137965399Y-83317923D01*
X137959953Y-83304774D01*
X139142256Y-83304774D01*
X139142256Y-83393968D01*
X139159657Y-83481448D01*
X139193790Y-83563852D01*
X139243343Y-83638014D01*
X139306413Y-83701084D01*
X139380575Y-83750637D01*
X139462979Y-83784770D01*
X139550459Y-83802171D01*
X139639653Y-83802171D01*
X139727133Y-83784770D01*
X139809537Y-83750637D01*
X139883699Y-83701084D01*
X139946769Y-83638014D01*
X139996322Y-83563852D01*
X140030455Y-83481448D01*
X140047856Y-83393968D01*
X140047856Y-83304774D01*
X140030455Y-83217294D01*
X139996322Y-83134890D01*
X139946769Y-83060728D01*
X139883699Y-82997658D01*
X139809537Y-82948105D01*
X139727133Y-82913972D01*
X139639653Y-82896571D01*
X139550459Y-82896571D01*
X139462979Y-82913972D01*
X139380575Y-82948105D01*
X139306413Y-82997658D01*
X139243343Y-83060728D01*
X139193790Y-83134890D01*
X139159657Y-83217294D01*
X139142256Y-83304774D01*
X137959953Y-83304774D01*
X137931266Y-83235519D01*
X137881713Y-83161357D01*
X137820356Y-83100000D01*
X137861713Y-83058643D01*
X137911266Y-82984481D01*
X137945399Y-82902077D01*
X137962800Y-82814597D01*
X137962800Y-82725403D01*
X137945399Y-82637923D01*
X137911266Y-82555519D01*
X137872642Y-82497714D01*
X137911713Y-82458643D01*
X137961266Y-82384481D01*
X137995399Y-82302077D01*
X138012800Y-82214597D01*
X138012800Y-82148861D01*
X139054775Y-82148861D01*
X139054775Y-82238055D01*
X139072176Y-82325535D01*
X139106309Y-82407939D01*
X139155862Y-82482101D01*
X139218932Y-82545171D01*
X139293094Y-82594724D01*
X139375498Y-82628857D01*
X139462978Y-82646258D01*
X139552172Y-82646258D01*
X139639652Y-82628857D01*
X139722056Y-82594724D01*
X139796218Y-82545171D01*
X139859288Y-82482101D01*
X139908841Y-82407939D01*
X139942974Y-82325535D01*
X139960375Y-82238055D01*
X139960375Y-82148861D01*
X139942974Y-82061381D01*
X139908841Y-81978977D01*
X139859288Y-81904815D01*
X139796218Y-81841745D01*
X139722056Y-81792192D01*
X139639652Y-81758059D01*
X139552172Y-81740658D01*
X139462978Y-81740658D01*
X139375498Y-81758059D01*
X139293094Y-81792192D01*
X139218932Y-81841745D01*
X139155862Y-81904815D01*
X139106309Y-81978977D01*
X139072176Y-82061381D01*
X139054775Y-82148861D01*
X138012800Y-82148861D01*
X138012800Y-82125403D01*
X137995399Y-82037923D01*
X137961266Y-81955519D01*
X137911713Y-81881357D01*
X137848643Y-81818287D01*
X137774481Y-81768734D01*
X137692077Y-81734601D01*
X137604597Y-81717200D01*
X137515403Y-81717200D01*
X137427923Y-81734601D01*
X137345519Y-81768734D01*
X137271357Y-81818287D01*
X137208287Y-81881357D01*
X137193638Y-81903282D01*
X137168643Y-81878287D01*
X137094481Y-81828734D01*
X137012077Y-81794601D01*
X136924597Y-81777200D01*
X136835403Y-81777200D01*
X136747923Y-81794601D01*
X136665519Y-81828734D01*
X136591357Y-81878287D01*
X136528287Y-81941357D01*
X136478734Y-82015519D01*
X136444601Y-82097923D01*
X136427200Y-82185403D01*
X130301873Y-82185403D01*
X130277594Y-82105370D01*
X130235425Y-82026477D01*
X130178674Y-81957326D01*
X130127100Y-81915000D01*
X130178674Y-81872674D01*
X130235425Y-81803523D01*
X130277594Y-81724630D01*
X130303562Y-81639026D01*
X130312330Y-81550000D01*
X130312330Y-81115418D01*
X130641997Y-81115418D01*
X130641997Y-81204612D01*
X130659398Y-81292092D01*
X130693531Y-81374496D01*
X130743084Y-81448658D01*
X130806154Y-81511728D01*
X130880316Y-81561281D01*
X130962720Y-81595414D01*
X131050200Y-81612815D01*
X131139394Y-81612815D01*
X131226874Y-81595414D01*
X131297417Y-81566194D01*
X131367923Y-81595399D01*
X131455403Y-81612800D01*
X131544597Y-81612800D01*
X131632077Y-81595399D01*
X131714481Y-81561266D01*
X131754966Y-81534215D01*
X131765519Y-81541266D01*
X131847923Y-81575399D01*
X131935403Y-81592800D01*
X132024597Y-81592800D01*
X132112077Y-81575399D01*
X132194481Y-81541266D01*
X132268643Y-81491713D01*
X132331713Y-81428643D01*
X132381266Y-81354481D01*
X132415399Y-81272077D01*
X132432800Y-81184597D01*
X132432800Y-81095403D01*
X132415399Y-81007923D01*
X132381266Y-80925519D01*
X132331713Y-80851357D01*
X132329674Y-80849318D01*
X140642415Y-80849318D01*
X140642415Y-80938512D01*
X140659816Y-81025992D01*
X140693949Y-81108396D01*
X140743502Y-81182558D01*
X140806572Y-81245628D01*
X140880734Y-81295181D01*
X140963138Y-81329314D01*
X141050618Y-81346715D01*
X141139812Y-81346715D01*
X141227292Y-81329314D01*
X141309696Y-81295181D01*
X141383858Y-81245628D01*
X141446928Y-81182558D01*
X141496481Y-81108396D01*
X141530614Y-81025992D01*
X141548015Y-80938512D01*
X141548015Y-80849318D01*
X141530614Y-80761838D01*
X141496481Y-80679434D01*
X141446928Y-80605272D01*
X141383858Y-80542202D01*
X141309696Y-80492649D01*
X141227292Y-80458516D01*
X141139812Y-80441115D01*
X141050618Y-80441115D01*
X140963138Y-80458516D01*
X140880734Y-80492649D01*
X140806572Y-80542202D01*
X140743502Y-80605272D01*
X140693949Y-80679434D01*
X140659816Y-80761838D01*
X140642415Y-80849318D01*
X132329674Y-80849318D01*
X132268643Y-80788287D01*
X132194481Y-80738734D01*
X132112077Y-80704601D01*
X132024597Y-80687200D01*
X131935403Y-80687200D01*
X131847923Y-80704601D01*
X131765519Y-80738734D01*
X131725034Y-80765785D01*
X131714481Y-80758734D01*
X131632077Y-80724601D01*
X131544597Y-80707200D01*
X131455403Y-80707200D01*
X131367923Y-80724601D01*
X131297380Y-80753821D01*
X131226874Y-80724616D01*
X131139394Y-80707215D01*
X131050200Y-80707215D01*
X130962720Y-80724616D01*
X130880316Y-80758749D01*
X130806154Y-80808302D01*
X130743084Y-80871372D01*
X130693531Y-80945534D01*
X130659398Y-81027938D01*
X130641997Y-81115418D01*
X130312330Y-81115418D01*
X130312330Y-81010000D01*
X130303562Y-80920974D01*
X130277594Y-80835370D01*
X130235425Y-80756477D01*
X130178674Y-80687326D01*
X130127100Y-80645000D01*
X130178674Y-80602674D01*
X130235425Y-80533523D01*
X130277594Y-80454630D01*
X130303562Y-80369026D01*
X130312330Y-80280000D01*
X130312330Y-79740000D01*
X130303562Y-79650974D01*
X130277594Y-79565370D01*
X130235425Y-79486477D01*
X130178674Y-79417326D01*
X130127100Y-79375000D01*
X130178674Y-79332674D01*
X130235425Y-79263523D01*
X130277594Y-79184630D01*
X130303562Y-79099026D01*
X130312330Y-79010000D01*
X130312330Y-78470000D01*
X130305968Y-78405403D01*
X139487200Y-78405403D01*
X139487200Y-78494597D01*
X139504601Y-78582077D01*
X139538734Y-78664481D01*
X139588287Y-78738643D01*
X139651357Y-78801713D01*
X139725519Y-78851266D01*
X139807923Y-78885399D01*
X139895403Y-78902800D01*
X139984597Y-78902800D01*
X140072077Y-78885399D01*
X140154481Y-78851266D01*
X140228643Y-78801713D01*
X140291713Y-78738643D01*
X140341266Y-78664481D01*
X140375399Y-78582077D01*
X140392800Y-78494597D01*
X140392800Y-78405403D01*
X140375399Y-78317923D01*
X140341266Y-78235519D01*
X140291713Y-78161357D01*
X140228643Y-78098287D01*
X140154481Y-78048734D01*
X140072077Y-78014601D01*
X139984597Y-77997200D01*
X139895403Y-77997200D01*
X139807923Y-78014601D01*
X139725519Y-78048734D01*
X139651357Y-78098287D01*
X139588287Y-78161357D01*
X139538734Y-78235519D01*
X139504601Y-78317923D01*
X139487200Y-78405403D01*
X130305968Y-78405403D01*
X130303562Y-78380974D01*
X130277594Y-78295370D01*
X130235425Y-78216477D01*
X130178674Y-78147326D01*
X130127100Y-78105000D01*
X130178674Y-78062674D01*
X130235425Y-77993523D01*
X130277594Y-77914630D01*
X130303562Y-77829026D01*
X130312330Y-77740000D01*
X130312330Y-77200000D01*
X130303562Y-77110974D01*
X130297237Y-77090123D01*
X138353120Y-77090123D01*
X138353120Y-77179317D01*
X138370521Y-77266797D01*
X138404654Y-77349201D01*
X138454207Y-77423363D01*
X138517277Y-77486433D01*
X138591439Y-77535986D01*
X138673843Y-77570119D01*
X138761323Y-77587520D01*
X138850517Y-77587520D01*
X138937997Y-77570119D01*
X139020401Y-77535986D01*
X139043445Y-77520589D01*
X139076077Y-77553221D01*
X139150239Y-77602774D01*
X139232643Y-77636907D01*
X139320123Y-77654308D01*
X139409317Y-77654308D01*
X139496797Y-77636907D01*
X139579201Y-77602774D01*
X139653363Y-77553221D01*
X139716433Y-77490151D01*
X139738752Y-77456747D01*
X139807923Y-77485399D01*
X139895403Y-77502800D01*
X139984597Y-77502800D01*
X140072077Y-77485399D01*
X140154481Y-77451266D01*
X140228643Y-77401713D01*
X140291713Y-77338643D01*
X140341266Y-77264481D01*
X140375399Y-77182077D01*
X140392800Y-77094597D01*
X140392800Y-77005403D01*
X140375399Y-76917923D01*
X140341266Y-76835519D01*
X140291713Y-76761357D01*
X140228643Y-76698287D01*
X140154481Y-76648734D01*
X140072077Y-76614601D01*
X139984597Y-76597200D01*
X139895403Y-76597200D01*
X139807923Y-76614601D01*
X139725519Y-76648734D01*
X139651357Y-76698287D01*
X139588287Y-76761357D01*
X139565968Y-76794761D01*
X139496797Y-76766109D01*
X139409317Y-76748708D01*
X139320123Y-76748708D01*
X139232643Y-76766109D01*
X139150239Y-76800242D01*
X139127195Y-76815639D01*
X139094563Y-76783007D01*
X139020401Y-76733454D01*
X138937997Y-76699321D01*
X138850517Y-76681920D01*
X138761323Y-76681920D01*
X138673843Y-76699321D01*
X138591439Y-76733454D01*
X138517277Y-76783007D01*
X138454207Y-76846077D01*
X138404654Y-76920239D01*
X138370521Y-77002643D01*
X138353120Y-77090123D01*
X130297237Y-77090123D01*
X130277594Y-77025370D01*
X130255648Y-76984312D01*
X130290986Y-76960700D01*
X130346701Y-76904985D01*
X130390476Y-76839471D01*
X130420628Y-76766675D01*
X130436000Y-76689396D01*
X130436000Y-76350000D01*
X130336000Y-76250000D01*
X129636000Y-76250000D01*
X129636000Y-76150000D01*
X130336000Y-76150000D01*
X130436000Y-76050000D01*
X130436000Y-75710604D01*
X130420628Y-75633325D01*
X130390476Y-75560529D01*
X130346701Y-75495015D01*
X130290986Y-75439300D01*
X130225471Y-75395525D01*
X130152676Y-75365372D01*
X130075397Y-75350000D01*
X129636000Y-75350000D01*
X129636000Y-73375000D01*
X137326000Y-73375000D01*
X137326000Y-73814397D01*
G04 #@! TD*
M02*
