G04 #@! TF.GenerationSoftware,KiCad,Pcbnew,(5.1.4)-1*
G04 #@! TF.CreationDate,2019-11-09T19:33:29+01:00*
G04 #@! TF.ProjectId,TLM-4260-breakout-v1_0,544c4d2d-3432-4363-902d-627265616b6f,1.1*
G04 #@! TF.SameCoordinates,Original*
G04 #@! TF.FileFunction,Legend,Top*
G04 #@! TF.FilePolarity,Positive*
%FSLAX46Y46*%
G04 Gerber Fmt 4.6, Leading zero omitted, Abs format (unit mm)*
G04 Created by KiCad (PCBNEW (5.1.4)-1) date 2019-11-09 19:33:29*
%MOMM*%
%LPD*%
G04 APERTURE LIST*
%ADD10C,0.150000*%
%ADD11C,0.175000*%
%ADD12C,0.187500*%
%ADD13C,0.100000*%
%ADD14C,0.250000*%
%ADD15C,0.010000*%
%ADD16C,0.120000*%
G04 APERTURE END LIST*
D10*
X146050000Y-94000000D02*
X146050000Y-93650000D01*
X145350000Y-94000000D02*
X146050000Y-94000000D01*
D11*
X145095156Y-88616666D02*
X145274322Y-89316666D01*
X145628489Y-88616666D01*
X144636822Y-86250000D02*
X144903489Y-86250000D01*
X144971941Y-86616666D02*
X144590989Y-86616666D01*
X144678489Y-85916666D01*
X145059441Y-85916666D01*
X145373132Y-86150000D02*
X145314799Y-86616666D01*
X145364799Y-86216666D02*
X145407061Y-86183333D01*
X145487418Y-86150000D01*
X145601703Y-86150000D01*
X145673727Y-86183333D01*
X145703489Y-86250000D01*
X145657656Y-86616666D01*
X143436822Y-84350000D02*
X143546941Y-84383333D01*
X143580870Y-84416666D01*
X143610632Y-84483333D01*
X143598132Y-84583333D01*
X143551703Y-84650000D01*
X143509441Y-84683333D01*
X143429084Y-84716666D01*
X143124322Y-84716666D01*
X143211822Y-84016666D01*
X143478489Y-84016666D01*
X143550513Y-84050000D01*
X143584441Y-84083333D01*
X143614203Y-84150000D01*
X143605870Y-84216666D01*
X143559441Y-84283333D01*
X143517180Y-84316666D01*
X143436822Y-84350000D01*
X143170156Y-84350000D01*
X144267180Y-84716666D02*
X144313013Y-84350000D01*
X144283251Y-84283333D01*
X144211227Y-84250000D01*
X144058846Y-84250000D01*
X143978489Y-84283333D01*
X144271346Y-84683333D02*
X144190989Y-84716666D01*
X144000513Y-84716666D01*
X143928489Y-84683333D01*
X143898727Y-84616666D01*
X143907061Y-84550000D01*
X143953489Y-84483333D01*
X144033846Y-84450000D01*
X144224322Y-84450000D01*
X144304680Y-84416666D01*
X144592180Y-84250000D02*
X144896941Y-84250000D01*
X144735632Y-84016666D02*
X144660632Y-84616666D01*
X144690394Y-84683333D01*
X144762418Y-84716666D01*
X144838608Y-84716666D01*
D12*
X143769289Y-94688095D02*
X143816908Y-94650000D01*
X143907384Y-94611904D01*
X144121670Y-94611904D01*
X144202622Y-94650000D01*
X144240718Y-94688095D01*
X144274051Y-94764285D01*
X144264527Y-94840476D01*
X144207384Y-94954761D01*
X143635956Y-95411904D01*
X144193098Y-95411904D01*
X145031194Y-94878571D02*
X144964527Y-95411904D01*
X144855003Y-94573809D02*
X144569289Y-95145238D01*
X145126432Y-95145238D01*
X144319289Y-103838095D02*
X144366908Y-103800000D01*
X144457384Y-103761904D01*
X144671670Y-103761904D01*
X144752622Y-103800000D01*
X144790718Y-103838095D01*
X144824051Y-103914285D01*
X144814527Y-103990476D01*
X144757384Y-104104761D01*
X144185956Y-104561904D01*
X144743098Y-104561904D01*
X145400241Y-103761904D02*
X145485956Y-103761904D01*
X145566908Y-103800000D01*
X145605003Y-103838095D01*
X145638337Y-103914285D01*
X145662146Y-104066666D01*
X145638337Y-104257142D01*
X145576432Y-104409523D01*
X145524051Y-104485714D01*
X145476432Y-104523809D01*
X145385956Y-104561904D01*
X145300241Y-104561904D01*
X145219289Y-104523809D01*
X145181194Y-104485714D01*
X145147860Y-104409523D01*
X145124051Y-104257142D01*
X145147860Y-104066666D01*
X145209765Y-103914285D01*
X145262146Y-103838095D01*
X145309765Y-103800000D01*
X145400241Y-103761904D01*
X144593098Y-107161904D02*
X144078813Y-107161904D01*
X144335956Y-107161904D02*
X144435956Y-106361904D01*
X144335956Y-106476190D01*
X144240718Y-106552380D01*
X144150241Y-106590476D01*
X145021670Y-107161904D02*
X145193098Y-107161904D01*
X145283575Y-107123809D01*
X145331194Y-107085714D01*
X145431194Y-106971428D01*
X145493098Y-106819047D01*
X145531194Y-106514285D01*
X145497860Y-106438095D01*
X145459765Y-106400000D01*
X145378813Y-106361904D01*
X145207384Y-106361904D01*
X145116908Y-106400000D01*
X145069289Y-106438095D01*
X145016908Y-106514285D01*
X144993098Y-106704761D01*
X145026432Y-106780952D01*
X145064527Y-106819047D01*
X145145479Y-106857142D01*
X145316908Y-106857142D01*
X145407384Y-106819047D01*
X145455003Y-106780952D01*
X145507384Y-106704761D01*
D13*
G36*
X147200000Y-85600000D02*
G01*
X145000000Y-85600000D01*
X145000000Y-84200000D01*
X147200000Y-84200000D01*
X147200000Y-85600000D01*
G37*
X147200000Y-85600000D02*
X145000000Y-85600000D01*
X145000000Y-84200000D01*
X147200000Y-84200000D01*
X147200000Y-85600000D01*
G36*
X147200000Y-90900000D02*
G01*
X145000000Y-90900000D01*
X145000000Y-89700000D01*
X147200000Y-89700000D01*
X147200000Y-90900000D01*
G37*
X147200000Y-90900000D02*
X145000000Y-90900000D01*
X145000000Y-89700000D01*
X147200000Y-89700000D01*
X147200000Y-90900000D01*
G36*
X126700000Y-114200000D02*
G01*
X124600000Y-114200000D01*
X124600000Y-111800000D01*
X126700000Y-111800000D01*
X126700000Y-114200000D01*
G37*
X126700000Y-114200000D02*
X124600000Y-114200000D01*
X124600000Y-111800000D01*
X126700000Y-111800000D01*
X126700000Y-114200000D01*
G36*
X127000000Y-78100000D02*
G01*
X124600000Y-78100000D01*
X124600000Y-76900000D01*
X127000000Y-76900000D01*
X127000000Y-78100000D01*
G37*
X127000000Y-78100000D02*
X124600000Y-78100000D01*
X124600000Y-76900000D01*
X127000000Y-76900000D01*
X127000000Y-78100000D01*
D12*
X126845479Y-81000000D02*
X126764527Y-80961904D01*
X126635956Y-80961904D01*
X126502622Y-81000000D01*
X126407384Y-81076190D01*
X126355003Y-81152380D01*
X126293098Y-81304761D01*
X126278813Y-81419047D01*
X126302622Y-81571428D01*
X126335956Y-81647619D01*
X126412146Y-81723809D01*
X126535956Y-81761904D01*
X126621670Y-81761904D01*
X126755003Y-81723809D01*
X126802622Y-81685714D01*
X126835956Y-81419047D01*
X126664527Y-81419047D01*
D13*
G36*
X127000000Y-83200000D02*
G01*
X124600000Y-83200000D01*
X124600000Y-82000000D01*
X127000000Y-82000000D01*
X127000000Y-83200000D01*
G37*
X127000000Y-83200000D02*
X124600000Y-83200000D01*
X124600000Y-82000000D01*
X127000000Y-82000000D01*
X127000000Y-83200000D01*
D12*
X126107142Y-76264285D02*
X126792857Y-76264285D01*
X126450000Y-76607142D02*
X126450000Y-75921428D01*
X126460956Y-91379761D02*
X126380003Y-91341666D01*
X126341908Y-91303571D01*
X126308575Y-91227380D01*
X126313337Y-91189285D01*
X126365718Y-91113095D01*
X126413337Y-91075000D01*
X126503813Y-91036904D01*
X126675241Y-91036904D01*
X126756194Y-91075000D01*
X126794289Y-91113095D01*
X126827622Y-91189285D01*
X126822860Y-91227380D01*
X126770479Y-91303571D01*
X126722860Y-91341666D01*
X126632384Y-91379761D01*
X126460956Y-91379761D01*
X126370479Y-91417857D01*
X126322860Y-91455952D01*
X126270479Y-91532142D01*
X126251432Y-91684523D01*
X126284765Y-91760714D01*
X126322860Y-91798809D01*
X126403813Y-91836904D01*
X126575241Y-91836904D01*
X126665718Y-91798809D01*
X126713337Y-91760714D01*
X126765718Y-91684523D01*
X126784765Y-91532142D01*
X126751432Y-91455952D01*
X126713337Y-91417857D01*
X126632384Y-91379761D01*
X126364527Y-88536904D02*
X126964527Y-88536904D01*
X126478813Y-89336904D01*
X126393098Y-94261904D02*
X126564527Y-94261904D01*
X126655003Y-94223809D01*
X126702622Y-94185714D01*
X126802622Y-94071428D01*
X126864527Y-93919047D01*
X126902622Y-93614285D01*
X126869289Y-93538095D01*
X126831194Y-93500000D01*
X126750241Y-93461904D01*
X126578813Y-93461904D01*
X126488337Y-93500000D01*
X126440718Y-93538095D01*
X126388337Y-93614285D01*
X126364527Y-93804761D01*
X126397860Y-93880952D01*
X126435956Y-93919047D01*
X126516908Y-93957142D01*
X126688337Y-93957142D01*
X126778813Y-93919047D01*
X126826432Y-93880952D01*
X126878813Y-93804761D01*
X126860956Y-85936904D02*
X126689527Y-85936904D01*
X126599051Y-85975000D01*
X126551432Y-86013095D01*
X126451432Y-86127380D01*
X126389527Y-86279761D01*
X126351432Y-86584523D01*
X126384765Y-86660714D01*
X126422860Y-86698809D01*
X126503813Y-86736904D01*
X126675241Y-86736904D01*
X126765718Y-86698809D01*
X126813337Y-86660714D01*
X126865718Y-86584523D01*
X126889527Y-86394047D01*
X126856194Y-86317857D01*
X126818098Y-86279761D01*
X126737146Y-86241666D01*
X126565718Y-86241666D01*
X126475241Y-86279761D01*
X126427622Y-86317857D01*
X126375241Y-86394047D01*
X126878813Y-83411904D02*
X126450241Y-83411904D01*
X126359765Y-83792857D01*
X126407384Y-83754761D01*
X126497860Y-83716666D01*
X126712146Y-83716666D01*
X126793098Y-83754761D01*
X126831194Y-83792857D01*
X126864527Y-83869047D01*
X126840718Y-84059523D01*
X126788337Y-84135714D01*
X126740718Y-84173809D01*
X126650241Y-84211904D01*
X126435956Y-84211904D01*
X126355003Y-84173809D01*
X126316908Y-84135714D01*
X126901190Y-97058575D02*
X126863095Y-97182384D01*
X126863095Y-97396670D01*
X126901190Y-97487146D01*
X126939285Y-97534765D01*
X127015476Y-97587146D01*
X127091666Y-97596670D01*
X127167857Y-97563337D01*
X127205952Y-97525241D01*
X127244047Y-97444289D01*
X127282142Y-97277622D01*
X127320238Y-97196670D01*
X127358333Y-97158575D01*
X127434523Y-97125241D01*
X127510714Y-97134765D01*
X127586904Y-97187146D01*
X127625000Y-97234765D01*
X127663095Y-97325241D01*
X127663095Y-97539527D01*
X127625000Y-97663337D01*
X126901190Y-97915718D02*
X126863095Y-98039527D01*
X126863095Y-98253813D01*
X126901190Y-98344289D01*
X126939285Y-98391908D01*
X127015476Y-98444289D01*
X127091666Y-98453813D01*
X127167857Y-98420479D01*
X127205952Y-98382384D01*
X127244047Y-98301432D01*
X127282142Y-98134765D01*
X127320238Y-98053813D01*
X127358333Y-98015718D01*
X127434523Y-97982384D01*
X127510714Y-97991908D01*
X127586904Y-98044289D01*
X127625000Y-98091908D01*
X127663095Y-98182384D01*
X127663095Y-98396670D01*
X127625000Y-98520479D01*
X126876190Y-99037146D02*
X126838095Y-99160956D01*
X126838095Y-99375241D01*
X126876190Y-99465718D01*
X126914285Y-99513337D01*
X126990476Y-99565718D01*
X127066666Y-99575241D01*
X127142857Y-99541908D01*
X127180952Y-99503813D01*
X127219047Y-99422860D01*
X127257142Y-99256194D01*
X127295238Y-99175241D01*
X127333333Y-99137146D01*
X127409523Y-99103813D01*
X127485714Y-99113337D01*
X127561904Y-99165718D01*
X127600000Y-99213337D01*
X127638095Y-99303813D01*
X127638095Y-99518098D01*
X127600000Y-99641908D01*
X126914285Y-100456194D02*
X126876190Y-100408575D01*
X126838095Y-100275241D01*
X126838095Y-100189527D01*
X126876190Y-100065718D01*
X126952380Y-99989527D01*
X127028571Y-99956194D01*
X127180952Y-99932384D01*
X127295238Y-99946670D01*
X127447619Y-100008575D01*
X127523809Y-100060956D01*
X127600000Y-100156194D01*
X127638095Y-100289527D01*
X127638095Y-100375241D01*
X127600000Y-100499051D01*
X127561904Y-100537146D01*
X126838095Y-100832384D02*
X127638095Y-100932384D01*
X126838095Y-101346670D02*
X127295238Y-101018098D01*
X127638095Y-101446670D02*
X127180952Y-100875241D01*
X126838095Y-102168098D02*
X127638095Y-102268098D01*
X127066666Y-102496670D01*
X127638095Y-102868098D01*
X126838095Y-102768098D01*
X127638095Y-103468098D02*
X127638095Y-103639527D01*
X127600000Y-103720479D01*
X127523809Y-103796670D01*
X127371428Y-103820479D01*
X127104761Y-103787146D01*
X126952380Y-103725241D01*
X126876190Y-103630003D01*
X126838095Y-103539527D01*
X126838095Y-103368098D01*
X126876190Y-103287146D01*
X126952380Y-103210956D01*
X127104761Y-103187146D01*
X127371428Y-103220479D01*
X127523809Y-103282384D01*
X127600000Y-103377622D01*
X127638095Y-103468098D01*
X126838095Y-104850241D02*
X127638095Y-104950241D01*
X127066666Y-105178813D01*
X127638095Y-105550241D01*
X126838095Y-105450241D01*
X126838095Y-105878813D02*
X127638095Y-105978813D01*
X144948809Y-112252139D02*
X144986904Y-112128329D01*
X144986904Y-111914043D01*
X144948809Y-111823567D01*
X144910714Y-111775948D01*
X144834523Y-111723567D01*
X144758333Y-111714043D01*
X144682142Y-111747377D01*
X144644047Y-111785472D01*
X144605952Y-111866424D01*
X144567857Y-112033091D01*
X144529761Y-112114043D01*
X144491666Y-112152139D01*
X144415476Y-112185472D01*
X144339285Y-112175948D01*
X144263095Y-112123567D01*
X144225000Y-112075948D01*
X144186904Y-111985472D01*
X144186904Y-111771186D01*
X144225000Y-111647377D01*
X144910714Y-110833091D02*
X144948809Y-110880710D01*
X144986904Y-111014043D01*
X144986904Y-111099758D01*
X144948809Y-111223567D01*
X144872619Y-111299758D01*
X144796428Y-111333091D01*
X144644047Y-111356901D01*
X144529761Y-111342615D01*
X144377380Y-111280710D01*
X144301190Y-111228329D01*
X144225000Y-111133091D01*
X144186904Y-110999758D01*
X144186904Y-110914043D01*
X144225000Y-110790234D01*
X144263095Y-110752139D01*
X144986904Y-110028329D02*
X144986904Y-110456901D01*
X144186904Y-110356901D01*
X144998809Y-114873567D02*
X145036904Y-114749758D01*
X145036904Y-114535472D01*
X144998809Y-114444996D01*
X144960714Y-114397377D01*
X144884523Y-114344996D01*
X144808333Y-114335472D01*
X144732142Y-114368805D01*
X144694047Y-114406901D01*
X144655952Y-114487853D01*
X144617857Y-114654520D01*
X144579761Y-114735472D01*
X144541666Y-114773567D01*
X144465476Y-114806901D01*
X144389285Y-114797377D01*
X144313095Y-114744996D01*
X144275000Y-114697377D01*
X144236904Y-114606901D01*
X144236904Y-114392615D01*
X144275000Y-114268805D01*
X145036904Y-113978329D02*
X144236904Y-113878329D01*
X144236904Y-113664043D01*
X144275000Y-113540234D01*
X144351190Y-113464043D01*
X144427380Y-113430710D01*
X144579761Y-113406901D01*
X144694047Y-113421186D01*
X144846428Y-113483091D01*
X144922619Y-113535472D01*
X144998809Y-113630710D01*
X145036904Y-113764043D01*
X145036904Y-113978329D01*
X144808333Y-113092615D02*
X144808333Y-112664043D01*
X145036904Y-113206901D02*
X144236904Y-112806901D01*
X145036904Y-112606901D01*
X127600000Y-112324051D02*
X127638095Y-112243098D01*
X127638095Y-112114527D01*
X127600000Y-111981194D01*
X127523809Y-111885956D01*
X127447619Y-111833575D01*
X127295238Y-111771670D01*
X127180952Y-111757384D01*
X127028571Y-111781194D01*
X126952380Y-111814527D01*
X126876190Y-111890718D01*
X126838095Y-112014527D01*
X126838095Y-112100241D01*
X126876190Y-112233575D01*
X126914285Y-112281194D01*
X127180952Y-112314527D01*
X127180952Y-112143098D01*
X126838095Y-112657384D02*
X127638095Y-112757384D01*
X126838095Y-113171670D01*
X127638095Y-113271670D01*
X126838095Y-113600241D02*
X127638095Y-113700241D01*
X127638095Y-113914527D01*
X127600000Y-114038337D01*
X127523809Y-114114527D01*
X127447619Y-114147860D01*
X127295238Y-114171670D01*
X127180952Y-114157384D01*
X127028571Y-114095479D01*
X126952380Y-114043098D01*
X126876190Y-113947860D01*
X126838095Y-113814527D01*
X126838095Y-113600241D01*
X127588095Y-109943098D02*
X127588095Y-110457384D01*
X126788095Y-110100241D02*
X127588095Y-110200241D01*
X126788095Y-110571670D02*
X127321428Y-111109765D01*
X127321428Y-110638337D02*
X126788095Y-111043098D01*
X126788095Y-107778813D02*
X127169047Y-107526432D01*
X126788095Y-107264527D02*
X127588095Y-107364527D01*
X127588095Y-107707384D01*
X127550000Y-107788337D01*
X127511904Y-107826432D01*
X127435714Y-107859765D01*
X127321428Y-107845479D01*
X127245238Y-107793098D01*
X127207142Y-107745479D01*
X127169047Y-107655003D01*
X127169047Y-107312146D01*
X126788095Y-108078813D02*
X127321428Y-108616908D01*
X127321428Y-108145479D02*
X126788095Y-108550241D01*
X126681194Y-78742857D02*
X126805003Y-78780952D01*
X126843098Y-78819047D01*
X126876432Y-78895238D01*
X126862146Y-79009523D01*
X126809765Y-79085714D01*
X126762146Y-79123809D01*
X126671670Y-79161904D01*
X126328813Y-79161904D01*
X126428813Y-78361904D01*
X126728813Y-78361904D01*
X126809765Y-78400000D01*
X126847860Y-78438095D01*
X126881194Y-78514285D01*
X126871670Y-78590476D01*
X126819289Y-78666666D01*
X126771670Y-78704761D01*
X126681194Y-78742857D01*
X126381194Y-78742857D01*
X125374795Y-73907142D02*
X125095033Y-73478571D01*
X124803366Y-73907142D02*
X124915866Y-73007142D01*
X125296819Y-73007142D01*
X125386700Y-73050000D01*
X125428962Y-73092857D01*
X125465866Y-73178571D01*
X125449795Y-73307142D01*
X125391462Y-73392857D01*
X125338485Y-73435714D01*
X125237890Y-73478571D01*
X124856938Y-73478571D01*
X125761104Y-73864285D02*
X125850985Y-73907142D01*
X126041462Y-73907142D01*
X126142057Y-73864285D01*
X126200390Y-73778571D01*
X126205747Y-73735714D01*
X126168843Y-73650000D01*
X126078962Y-73607142D01*
X125936104Y-73607142D01*
X125846223Y-73564285D01*
X125809319Y-73478571D01*
X125814676Y-73435714D01*
X125873009Y-73350000D01*
X125973604Y-73307142D01*
X126116462Y-73307142D01*
X126206343Y-73350000D01*
X126545033Y-73307142D02*
X126925985Y-73307142D01*
X126725390Y-73007142D02*
X126628962Y-73778571D01*
X126665866Y-73864285D01*
X126755747Y-73907142D01*
X126850985Y-73907142D01*
X141734988Y-69692857D02*
X141687667Y-69728571D01*
X141554631Y-69764285D01*
X141468917Y-69764285D01*
X141344810Y-69728571D01*
X141268024Y-69657142D01*
X141234095Y-69585714D01*
X141209095Y-69442857D01*
X141222488Y-69335714D01*
X141283203Y-69192857D01*
X141334988Y-69121428D01*
X141429631Y-69050000D01*
X141562667Y-69014285D01*
X141648381Y-69014285D01*
X141772488Y-69050000D01*
X141810881Y-69085714D01*
X142111774Y-69764285D02*
X142205524Y-69014285D01*
X142160881Y-69371428D02*
X142675167Y-69371428D01*
X142626060Y-69764285D02*
X142719810Y-69014285D01*
D14*
X138719047Y-82121428D02*
X139480952Y-82121428D01*
X139100000Y-82502380D02*
X139100000Y-81740476D01*
D12*
X141173381Y-93614285D02*
X141097488Y-94221428D01*
X141131417Y-94292857D01*
X141169810Y-94328571D01*
X141251060Y-94364285D01*
X141422488Y-94364285D01*
X141512667Y-94328571D01*
X141559988Y-94292857D01*
X141611774Y-94221428D01*
X141687667Y-93614285D01*
X141984095Y-94328571D02*
X142065345Y-94364285D01*
X142236774Y-94364285D01*
X142326953Y-94328571D01*
X142378738Y-94257142D01*
X142383203Y-94221428D01*
X142349274Y-94150000D01*
X142268024Y-94114285D01*
X142139453Y-94114285D01*
X142058203Y-94078571D01*
X142024274Y-94007142D01*
X142028738Y-93971428D01*
X142080524Y-93900000D01*
X142170703Y-93864285D01*
X142299274Y-93864285D01*
X142380524Y-93900000D01*
X142751060Y-94364285D02*
X142813560Y-93864285D01*
X142795703Y-94007142D02*
X142847488Y-93935714D01*
X142894810Y-93900000D01*
X142984988Y-93864285D01*
X143070703Y-93864285D01*
X143657310Y-93971428D02*
X143781417Y-94007142D01*
X143819810Y-94042857D01*
X143853738Y-94114285D01*
X143840345Y-94221428D01*
X143788560Y-94292857D01*
X143741238Y-94328571D01*
X143651060Y-94364285D01*
X143308203Y-94364285D01*
X143401953Y-93614285D01*
X143701953Y-93614285D01*
X143783203Y-93650000D01*
X143821595Y-93685714D01*
X143855524Y-93757142D01*
X143846595Y-93828571D01*
X143794810Y-93900000D01*
X143747488Y-93935714D01*
X143657310Y-93971428D01*
X143357310Y-93971428D01*
X144142131Y-93864285D02*
X144484988Y-93864285D01*
X144301953Y-93614285D02*
X144221595Y-94257142D01*
X144255524Y-94328571D01*
X144336774Y-94364285D01*
X144422488Y-94364285D01*
X144784988Y-93864285D02*
X144722488Y-94364285D01*
X144776060Y-93935714D02*
X144823381Y-93900000D01*
X144913560Y-93864285D01*
X145042131Y-93864285D01*
X145123381Y-93900000D01*
X145157310Y-93971428D01*
X145108203Y-94364285D01*
X131354631Y-82889285D02*
X131099274Y-82532142D01*
X130840345Y-82889285D02*
X130934095Y-82139285D01*
X131276953Y-82139285D01*
X131358203Y-82175000D01*
X131396595Y-82210714D01*
X131430524Y-82282142D01*
X131417131Y-82389285D01*
X131365345Y-82460714D01*
X131318024Y-82496428D01*
X131227845Y-82532142D01*
X130884988Y-82532142D01*
X132087667Y-82853571D02*
X131997488Y-82889285D01*
X131826060Y-82889285D01*
X131744810Y-82853571D01*
X131710881Y-82782142D01*
X131746595Y-82496428D01*
X131798381Y-82425000D01*
X131888560Y-82389285D01*
X132059988Y-82389285D01*
X132141238Y-82425000D01*
X132175167Y-82496428D01*
X132166238Y-82567857D01*
X131728738Y-82639285D01*
X132473381Y-82853571D02*
X132554631Y-82889285D01*
X132726060Y-82889285D01*
X132816238Y-82853571D01*
X132868024Y-82782142D01*
X132872488Y-82746428D01*
X132838560Y-82675000D01*
X132757310Y-82639285D01*
X132628738Y-82639285D01*
X132547488Y-82603571D01*
X132513560Y-82532142D01*
X132518024Y-82496428D01*
X132569810Y-82425000D01*
X132659988Y-82389285D01*
X132788560Y-82389285D01*
X132869810Y-82425000D01*
X133587667Y-82853571D02*
X133497488Y-82889285D01*
X133326060Y-82889285D01*
X133244810Y-82853571D01*
X133210881Y-82782142D01*
X133246595Y-82496428D01*
X133298381Y-82425000D01*
X133388560Y-82389285D01*
X133559988Y-82389285D01*
X133641238Y-82425000D01*
X133675167Y-82496428D01*
X133666238Y-82567857D01*
X133228738Y-82639285D01*
X133945703Y-82389285D02*
X134288560Y-82389285D01*
X134105524Y-82139285D02*
X134025167Y-82782142D01*
X134059095Y-82853571D01*
X134140345Y-82889285D01*
X134226060Y-82889285D01*
D10*
X127000000Y-119380000D02*
G75*
G02X124460000Y-116840000I0J2540000D01*
G01*
X147320000Y-116840000D02*
G75*
G02X144780000Y-119380000I-2540000J0D01*
G01*
X144780000Y-68580000D02*
G75*
G02X147320000Y-71120000I0J-2540000D01*
G01*
X124460000Y-71120000D02*
G75*
G02X127000000Y-68580000I2540000J0D01*
G01*
X124460000Y-116840000D02*
X124460000Y-71120000D01*
X144780000Y-119380000D02*
X127000000Y-119380000D01*
X147320000Y-71120000D02*
X147320000Y-116840000D01*
X127000000Y-68580000D02*
X144780000Y-68580000D01*
D15*
G36*
X132630698Y-113425079D02*
G01*
X132627889Y-113530000D01*
X132621708Y-113689641D01*
X132612912Y-113812567D01*
X132599566Y-113912857D01*
X132579732Y-114004591D01*
X132551474Y-114101849D01*
X132547541Y-114114200D01*
X132514449Y-114206126D01*
X132469445Y-114316183D01*
X132418008Y-114432583D01*
X132365621Y-114543541D01*
X132317765Y-114637272D01*
X132279921Y-114701991D01*
X132265319Y-114720992D01*
X132239085Y-114712000D01*
X132176125Y-114670972D01*
X132078177Y-114599059D01*
X132054159Y-114580780D01*
X132060469Y-114556467D01*
X132085304Y-114497282D01*
X132124145Y-114413625D01*
X132148877Y-114362891D01*
X132267037Y-114071214D01*
X132339112Y-113770518D01*
X132365072Y-113466748D01*
X132344884Y-113165847D01*
X132278517Y-112873758D01*
X132165937Y-112596425D01*
X132158461Y-112581829D01*
X132113787Y-112495537D01*
X132078800Y-112427865D01*
X132059514Y-112390447D01*
X132057758Y-112387000D01*
X132073430Y-112367402D01*
X132120474Y-112331262D01*
X132158341Y-112305939D01*
X132238311Y-112263204D01*
X132287118Y-112257689D01*
X132294968Y-112262213D01*
X132331356Y-112309432D01*
X132377714Y-112394214D01*
X132429297Y-112505499D01*
X132481363Y-112632229D01*
X132529167Y-112763344D01*
X132567967Y-112887784D01*
X132575829Y-112917038D01*
X132601357Y-113021333D01*
X132618398Y-113110039D01*
X132628162Y-113197400D01*
X132631859Y-113297665D01*
X132630698Y-113425079D01*
X132630698Y-113425079D01*
G37*
X132630698Y-113425079D02*
X132627889Y-113530000D01*
X132621708Y-113689641D01*
X132612912Y-113812567D01*
X132599566Y-113912857D01*
X132579732Y-114004591D01*
X132551474Y-114101849D01*
X132547541Y-114114200D01*
X132514449Y-114206126D01*
X132469445Y-114316183D01*
X132418008Y-114432583D01*
X132365621Y-114543541D01*
X132317765Y-114637272D01*
X132279921Y-114701991D01*
X132265319Y-114720992D01*
X132239085Y-114712000D01*
X132176125Y-114670972D01*
X132078177Y-114599059D01*
X132054159Y-114580780D01*
X132060469Y-114556467D01*
X132085304Y-114497282D01*
X132124145Y-114413625D01*
X132148877Y-114362891D01*
X132267037Y-114071214D01*
X132339112Y-113770518D01*
X132365072Y-113466748D01*
X132344884Y-113165847D01*
X132278517Y-112873758D01*
X132165937Y-112596425D01*
X132158461Y-112581829D01*
X132113787Y-112495537D01*
X132078800Y-112427865D01*
X132059514Y-112390447D01*
X132057758Y-112387000D01*
X132073430Y-112367402D01*
X132120474Y-112331262D01*
X132158341Y-112305939D01*
X132238311Y-112263204D01*
X132287118Y-112257689D01*
X132294968Y-112262213D01*
X132331356Y-112309432D01*
X132377714Y-112394214D01*
X132429297Y-112505499D01*
X132481363Y-112632229D01*
X132529167Y-112763344D01*
X132567967Y-112887784D01*
X132575829Y-112917038D01*
X132601357Y-113021333D01*
X132618398Y-113110039D01*
X132628162Y-113197400D01*
X132631859Y-113297665D01*
X132630698Y-113425079D01*
G36*
X132105120Y-113859170D02*
G01*
X132013149Y-114142091D01*
X131958803Y-114260250D01*
X131914176Y-114345414D01*
X131877117Y-114409519D01*
X131853953Y-114441828D01*
X131850670Y-114443716D01*
X131823559Y-114427962D01*
X131774750Y-114389431D01*
X131756736Y-114373866D01*
X131678371Y-114304700D01*
X131762027Y-114152300D01*
X131854607Y-113932959D01*
X131908867Y-113684019D01*
X131924000Y-113447772D01*
X131908433Y-113221048D01*
X131859264Y-113002652D01*
X131772796Y-112779093D01*
X131701786Y-112637452D01*
X131716024Y-112617394D01*
X131757747Y-112583574D01*
X131810399Y-112547556D01*
X131857426Y-112520902D01*
X131878543Y-112514000D01*
X131893978Y-112535354D01*
X131924894Y-112592384D01*
X131965701Y-112674542D01*
X131983917Y-112712878D01*
X132087736Y-112992084D01*
X132142491Y-113279388D01*
X132148260Y-113570009D01*
X132105120Y-113859170D01*
X132105120Y-113859170D01*
G37*
X132105120Y-113859170D02*
X132013149Y-114142091D01*
X131958803Y-114260250D01*
X131914176Y-114345414D01*
X131877117Y-114409519D01*
X131853953Y-114441828D01*
X131850670Y-114443716D01*
X131823559Y-114427962D01*
X131774750Y-114389431D01*
X131756736Y-114373866D01*
X131678371Y-114304700D01*
X131762027Y-114152300D01*
X131854607Y-113932959D01*
X131908867Y-113684019D01*
X131924000Y-113447772D01*
X131908433Y-113221048D01*
X131859264Y-113002652D01*
X131772796Y-112779093D01*
X131701786Y-112637452D01*
X131716024Y-112617394D01*
X131757747Y-112583574D01*
X131810399Y-112547556D01*
X131857426Y-112520902D01*
X131878543Y-112514000D01*
X131893978Y-112535354D01*
X131924894Y-112592384D01*
X131965701Y-112674542D01*
X131983917Y-112712878D01*
X132087736Y-112992084D01*
X132142491Y-113279388D01*
X132148260Y-113570009D01*
X132105120Y-113859170D01*
G36*
X131640422Y-113728086D02*
G01*
X131595914Y-113908301D01*
X131528268Y-114060848D01*
X131488373Y-114119776D01*
X131461087Y-114147393D01*
X131432842Y-114144217D01*
X131390600Y-114114551D01*
X131348756Y-114076169D01*
X131344253Y-114043212D01*
X131361161Y-114010370D01*
X131441185Y-113836098D01*
X131486785Y-113637003D01*
X131497404Y-113426124D01*
X131472485Y-113216501D01*
X131411473Y-113021174D01*
X131404077Y-113004488D01*
X131344020Y-112872677D01*
X131409644Y-112829679D01*
X131457370Y-112802169D01*
X131484965Y-112805049D01*
X131509117Y-112832970D01*
X131583204Y-112971107D01*
X131633184Y-113141715D01*
X131659251Y-113332766D01*
X131661599Y-113532232D01*
X131640422Y-113728086D01*
X131640422Y-113728086D01*
G37*
X131640422Y-113728086D02*
X131595914Y-113908301D01*
X131528268Y-114060848D01*
X131488373Y-114119776D01*
X131461087Y-114147393D01*
X131432842Y-114144217D01*
X131390600Y-114114551D01*
X131348756Y-114076169D01*
X131344253Y-114043212D01*
X131361161Y-114010370D01*
X131441185Y-113836098D01*
X131486785Y-113637003D01*
X131497404Y-113426124D01*
X131472485Y-113216501D01*
X131411473Y-113021174D01*
X131404077Y-113004488D01*
X131344020Y-112872677D01*
X131409644Y-112829679D01*
X131457370Y-112802169D01*
X131484965Y-112805049D01*
X131509117Y-112832970D01*
X131583204Y-112971107D01*
X131633184Y-113141715D01*
X131659251Y-113332766D01*
X131661599Y-113532232D01*
X131640422Y-113728086D01*
G36*
X131252435Y-118318670D02*
G01*
X131201255Y-118395254D01*
X131120890Y-118447814D01*
X131036873Y-118450028D01*
X130951525Y-118401999D01*
X130931447Y-118383353D01*
X130872782Y-118305085D01*
X130863357Y-118231923D01*
X130903172Y-118156482D01*
X130931447Y-118125446D01*
X130948033Y-118111924D01*
X130948033Y-118165626D01*
X130933645Y-118190900D01*
X130922975Y-118273316D01*
X130953823Y-118349424D01*
X130978920Y-118375050D01*
X131035527Y-118402164D01*
X131065255Y-118406800D01*
X131126122Y-118385052D01*
X131179895Y-118332360D01*
X131209315Y-118267553D01*
X131210795Y-118248050D01*
X131207449Y-118214224D01*
X131197778Y-118223761D01*
X131182419Y-118263329D01*
X131156096Y-118313802D01*
X131117385Y-118326226D01*
X131086528Y-118321855D01*
X131025393Y-118321166D01*
X130987905Y-118337055D01*
X130964037Y-118350378D01*
X130958800Y-118325697D01*
X130979375Y-118281904D01*
X130996900Y-118270614D01*
X131030557Y-118243742D01*
X131035000Y-118229797D01*
X131014440Y-118206560D01*
X130996900Y-118203600D01*
X130962092Y-118186393D01*
X130957015Y-118171850D01*
X130948033Y-118165626D01*
X130948033Y-118111924D01*
X131000460Y-118069182D01*
X131023714Y-118063793D01*
X131023714Y-118106221D01*
X131001134Y-118118933D01*
X130987551Y-118136120D01*
X130998427Y-118145949D01*
X131044031Y-118152989D01*
X131087392Y-118157305D01*
X131091873Y-118157604D01*
X131091873Y-118214616D01*
X131087806Y-118239583D01*
X131092476Y-118272527D01*
X131101146Y-118272920D01*
X131107210Y-118238925D01*
X131103152Y-118224237D01*
X131091873Y-118214616D01*
X131091873Y-118157604D01*
X131149306Y-118161439D01*
X131167815Y-118155678D01*
X131149798Y-118137356D01*
X131146037Y-118134572D01*
X131083146Y-118106274D01*
X131023714Y-118106221D01*
X131023714Y-118063793D01*
X131063799Y-118054502D01*
X131140102Y-118078384D01*
X131160184Y-118088360D01*
X131233088Y-118150167D01*
X131264387Y-118231039D01*
X131252435Y-118318670D01*
X131252435Y-118318670D01*
G37*
X131252435Y-118318670D02*
X131201255Y-118395254D01*
X131120890Y-118447814D01*
X131036873Y-118450028D01*
X130951525Y-118401999D01*
X130931447Y-118383353D01*
X130872782Y-118305085D01*
X130863357Y-118231923D01*
X130903172Y-118156482D01*
X130931447Y-118125446D01*
X130948033Y-118111924D01*
X130948033Y-118165626D01*
X130933645Y-118190900D01*
X130922975Y-118273316D01*
X130953823Y-118349424D01*
X130978920Y-118375050D01*
X131035527Y-118402164D01*
X131065255Y-118406800D01*
X131126122Y-118385052D01*
X131179895Y-118332360D01*
X131209315Y-118267553D01*
X131210795Y-118248050D01*
X131207449Y-118214224D01*
X131197778Y-118223761D01*
X131182419Y-118263329D01*
X131156096Y-118313802D01*
X131117385Y-118326226D01*
X131086528Y-118321855D01*
X131025393Y-118321166D01*
X130987905Y-118337055D01*
X130964037Y-118350378D01*
X130958800Y-118325697D01*
X130979375Y-118281904D01*
X130996900Y-118270614D01*
X131030557Y-118243742D01*
X131035000Y-118229797D01*
X131014440Y-118206560D01*
X130996900Y-118203600D01*
X130962092Y-118186393D01*
X130957015Y-118171850D01*
X130948033Y-118165626D01*
X130948033Y-118111924D01*
X131000460Y-118069182D01*
X131023714Y-118063793D01*
X131023714Y-118106221D01*
X131001134Y-118118933D01*
X130987551Y-118136120D01*
X130998427Y-118145949D01*
X131044031Y-118152989D01*
X131087392Y-118157305D01*
X131091873Y-118157604D01*
X131091873Y-118214616D01*
X131087806Y-118239583D01*
X131092476Y-118272527D01*
X131101146Y-118272920D01*
X131107210Y-118238925D01*
X131103152Y-118224237D01*
X131091873Y-118214616D01*
X131091873Y-118157604D01*
X131149306Y-118161439D01*
X131167815Y-118155678D01*
X131149798Y-118137356D01*
X131146037Y-118134572D01*
X131083146Y-118106274D01*
X131023714Y-118106221D01*
X131023714Y-118063793D01*
X131063799Y-118054502D01*
X131140102Y-118078384D01*
X131160184Y-118088360D01*
X131233088Y-118150167D01*
X131264387Y-118231039D01*
X131252435Y-118318670D01*
G36*
X131682119Y-115451698D02*
G01*
X131679678Y-115627431D01*
X131674338Y-115765625D01*
X131665055Y-115872908D01*
X131650787Y-115955907D01*
X131630494Y-116021250D01*
X131603132Y-116075563D01*
X131567661Y-116125474D01*
X131536367Y-116162574D01*
X131410622Y-116270685D01*
X131256489Y-116339238D01*
X131082380Y-116369109D01*
X130976440Y-116372657D01*
X130894497Y-116362207D01*
X130810670Y-116333376D01*
X130772992Y-116316714D01*
X130682406Y-116262919D01*
X130596783Y-116191142D01*
X130527106Y-116113005D01*
X130484361Y-116040131D01*
X130476200Y-116002689D01*
X130464084Y-115971371D01*
X130455801Y-115968400D01*
X130428095Y-115980472D01*
X130364053Y-116013935D01*
X130271263Y-116064654D01*
X130157312Y-116128494D01*
X130055751Y-116186386D01*
X129930262Y-116258033D01*
X129819891Y-116320280D01*
X129732231Y-116368907D01*
X129674876Y-116399692D01*
X129655917Y-116408636D01*
X129647906Y-116386659D01*
X129641230Y-116323718D01*
X129636612Y-116229646D01*
X129634787Y-116120800D01*
X129633841Y-115828700D01*
X130003846Y-115625500D01*
X130373850Y-115422300D01*
X130374600Y-115131558D01*
X129625300Y-115117500D01*
X129618057Y-114856695D01*
X129616356Y-114729316D01*
X129620090Y-114645709D01*
X129629893Y-114599074D01*
X129643457Y-114583428D01*
X129675317Y-114580846D01*
X129752328Y-114578771D01*
X129868841Y-114577237D01*
X130019209Y-114576276D01*
X130197785Y-114575919D01*
X130398921Y-114576199D01*
X130616970Y-114577148D01*
X130679400Y-114577533D01*
X130757704Y-114578045D01*
X130757704Y-115130200D01*
X130764934Y-115403250D01*
X130770954Y-115526146D01*
X130781287Y-115631967D01*
X130794439Y-115707898D01*
X130803526Y-115734665D01*
X130864060Y-115798416D01*
X130952133Y-115833633D01*
X131053097Y-115840079D01*
X131152302Y-115817517D01*
X131235099Y-115765710D01*
X131256443Y-115742001D01*
X131272305Y-115693374D01*
X131282895Y-115597763D01*
X131287864Y-115458745D01*
X131288193Y-115415950D01*
X131289000Y-115130200D01*
X130757704Y-115130200D01*
X130757704Y-114578045D01*
X131682700Y-114584100D01*
X131682700Y-115231800D01*
X131682119Y-115451698D01*
X131682119Y-115451698D01*
G37*
X131682119Y-115451698D02*
X131679678Y-115627431D01*
X131674338Y-115765625D01*
X131665055Y-115872908D01*
X131650787Y-115955907D01*
X131630494Y-116021250D01*
X131603132Y-116075563D01*
X131567661Y-116125474D01*
X131536367Y-116162574D01*
X131410622Y-116270685D01*
X131256489Y-116339238D01*
X131082380Y-116369109D01*
X130976440Y-116372657D01*
X130894497Y-116362207D01*
X130810670Y-116333376D01*
X130772992Y-116316714D01*
X130682406Y-116262919D01*
X130596783Y-116191142D01*
X130527106Y-116113005D01*
X130484361Y-116040131D01*
X130476200Y-116002689D01*
X130464084Y-115971371D01*
X130455801Y-115968400D01*
X130428095Y-115980472D01*
X130364053Y-116013935D01*
X130271263Y-116064654D01*
X130157312Y-116128494D01*
X130055751Y-116186386D01*
X129930262Y-116258033D01*
X129819891Y-116320280D01*
X129732231Y-116368907D01*
X129674876Y-116399692D01*
X129655917Y-116408636D01*
X129647906Y-116386659D01*
X129641230Y-116323718D01*
X129636612Y-116229646D01*
X129634787Y-116120800D01*
X129633841Y-115828700D01*
X130003846Y-115625500D01*
X130373850Y-115422300D01*
X130374600Y-115131558D01*
X129625300Y-115117500D01*
X129618057Y-114856695D01*
X129616356Y-114729316D01*
X129620090Y-114645709D01*
X129629893Y-114599074D01*
X129643457Y-114583428D01*
X129675317Y-114580846D01*
X129752328Y-114578771D01*
X129868841Y-114577237D01*
X130019209Y-114576276D01*
X130197785Y-114575919D01*
X130398921Y-114576199D01*
X130616970Y-114577148D01*
X130679400Y-114577533D01*
X130757704Y-114578045D01*
X130757704Y-115130200D01*
X130764934Y-115403250D01*
X130770954Y-115526146D01*
X130781287Y-115631967D01*
X130794439Y-115707898D01*
X130803526Y-115734665D01*
X130864060Y-115798416D01*
X130952133Y-115833633D01*
X131053097Y-115840079D01*
X131152302Y-115817517D01*
X131235099Y-115765710D01*
X131256443Y-115742001D01*
X131272305Y-115693374D01*
X131282895Y-115597763D01*
X131287864Y-115458745D01*
X131288193Y-115415950D01*
X131289000Y-115130200D01*
X130757704Y-115130200D01*
X130757704Y-114578045D01*
X131682700Y-114584100D01*
X131682700Y-115231800D01*
X131682119Y-115451698D01*
G36*
X130069800Y-111701200D02*
G01*
X130069800Y-112515977D01*
X129847550Y-112508638D01*
X129625300Y-112501300D01*
X129618529Y-111834550D01*
X129611757Y-111167800D01*
X131695400Y-111167800D01*
X131695400Y-111701200D01*
X130069800Y-111701200D01*
X130069800Y-111701200D01*
G37*
X130069800Y-111701200D02*
X130069800Y-112515977D01*
X129847550Y-112508638D01*
X129625300Y-112501300D01*
X129618529Y-111834550D01*
X129611757Y-111167800D01*
X131695400Y-111167800D01*
X131695400Y-111701200D01*
X130069800Y-111701200D01*
G36*
X131210298Y-117372770D02*
G01*
X131196716Y-117521983D01*
X131172091Y-117651681D01*
X131140563Y-117739678D01*
X131103955Y-117804286D01*
X131063992Y-117855715D01*
X131014639Y-117895518D01*
X130949859Y-117925249D01*
X130863618Y-117946462D01*
X130749879Y-117960710D01*
X130602608Y-117969547D01*
X130415768Y-117974527D01*
X130218989Y-117976908D01*
X129632920Y-117981977D01*
X129632920Y-117781961D01*
X129633868Y-117681456D01*
X129639056Y-117619795D01*
X129652001Y-117585025D01*
X129676221Y-117565196D01*
X129699829Y-117554595D01*
X129745454Y-117533077D01*
X129747888Y-117512980D01*
X129716582Y-117481855D01*
X129652213Y-117393052D01*
X129610290Y-117271806D01*
X129592237Y-117131923D01*
X129599480Y-116987205D01*
X129633442Y-116851457D01*
X129647966Y-116816864D01*
X129724970Y-116694340D01*
X129824925Y-116614297D01*
X129953765Y-116573111D01*
X130059272Y-116565448D01*
X130123696Y-116572025D01*
X130123696Y-117015511D01*
X130049287Y-117022161D01*
X129990652Y-117063548D01*
X129958115Y-117106114D01*
X129945600Y-117158651D01*
X129948745Y-117240430D01*
X129949292Y-117246219D01*
X129964147Y-117334954D01*
X129993703Y-117393726D01*
X130034371Y-117433104D01*
X130100135Y-117470006D01*
X130186573Y-117499743D01*
X130272950Y-117516915D01*
X130338531Y-117516122D01*
X130345359Y-117514095D01*
X130351292Y-117487323D01*
X130341038Y-117426641D01*
X130318766Y-117344684D01*
X130288643Y-117254086D01*
X130254839Y-117167483D01*
X130221519Y-117097508D01*
X130195245Y-117059044D01*
X130123696Y-117015511D01*
X130123696Y-116572025D01*
X130188732Y-116578666D01*
X130298518Y-116620933D01*
X130391017Y-116695762D01*
X130468612Y-116806666D01*
X130533689Y-116957160D01*
X130588631Y-117150756D01*
X130635825Y-117390970D01*
X130640993Y-117422550D01*
X130656075Y-117485681D01*
X130682259Y-117512573D01*
X130725700Y-117517800D01*
X130820923Y-117495558D01*
X130888577Y-117432839D01*
X130918775Y-117354028D01*
X130918626Y-117252699D01*
X130883487Y-117166728D01*
X130820253Y-117108994D01*
X130779907Y-117094671D01*
X130704800Y-117079650D01*
X130704800Y-116854225D01*
X130705972Y-116740144D01*
X130713851Y-116669424D01*
X130734979Y-116634625D01*
X130775903Y-116628306D01*
X130843165Y-116643028D01*
X130881121Y-116653775D01*
X130989751Y-116708794D01*
X131086480Y-116802007D01*
X131159380Y-116920806D01*
X131177259Y-116966701D01*
X131201323Y-117079262D01*
X131212085Y-117219907D01*
X131210298Y-117372770D01*
X131210298Y-117372770D01*
G37*
X131210298Y-117372770D02*
X131196716Y-117521983D01*
X131172091Y-117651681D01*
X131140563Y-117739678D01*
X131103955Y-117804286D01*
X131063992Y-117855715D01*
X131014639Y-117895518D01*
X130949859Y-117925249D01*
X130863618Y-117946462D01*
X130749879Y-117960710D01*
X130602608Y-117969547D01*
X130415768Y-117974527D01*
X130218989Y-117976908D01*
X129632920Y-117981977D01*
X129632920Y-117781961D01*
X129633868Y-117681456D01*
X129639056Y-117619795D01*
X129652001Y-117585025D01*
X129676221Y-117565196D01*
X129699829Y-117554595D01*
X129745454Y-117533077D01*
X129747888Y-117512980D01*
X129716582Y-117481855D01*
X129652213Y-117393052D01*
X129610290Y-117271806D01*
X129592237Y-117131923D01*
X129599480Y-116987205D01*
X129633442Y-116851457D01*
X129647966Y-116816864D01*
X129724970Y-116694340D01*
X129824925Y-116614297D01*
X129953765Y-116573111D01*
X130059272Y-116565448D01*
X130123696Y-116572025D01*
X130123696Y-117015511D01*
X130049287Y-117022161D01*
X129990652Y-117063548D01*
X129958115Y-117106114D01*
X129945600Y-117158651D01*
X129948745Y-117240430D01*
X129949292Y-117246219D01*
X129964147Y-117334954D01*
X129993703Y-117393726D01*
X130034371Y-117433104D01*
X130100135Y-117470006D01*
X130186573Y-117499743D01*
X130272950Y-117516915D01*
X130338531Y-117516122D01*
X130345359Y-117514095D01*
X130351292Y-117487323D01*
X130341038Y-117426641D01*
X130318766Y-117344684D01*
X130288643Y-117254086D01*
X130254839Y-117167483D01*
X130221519Y-117097508D01*
X130195245Y-117059044D01*
X130123696Y-117015511D01*
X130123696Y-116572025D01*
X130188732Y-116578666D01*
X130298518Y-116620933D01*
X130391017Y-116695762D01*
X130468612Y-116806666D01*
X130533689Y-116957160D01*
X130588631Y-117150756D01*
X130635825Y-117390970D01*
X130640993Y-117422550D01*
X130656075Y-117485681D01*
X130682259Y-117512573D01*
X130725700Y-117517800D01*
X130820923Y-117495558D01*
X130888577Y-117432839D01*
X130918775Y-117354028D01*
X130918626Y-117252699D01*
X130883487Y-117166728D01*
X130820253Y-117108994D01*
X130779907Y-117094671D01*
X130704800Y-117079650D01*
X130704800Y-116854225D01*
X130705972Y-116740144D01*
X130713851Y-116669424D01*
X130734979Y-116634625D01*
X130775903Y-116628306D01*
X130843165Y-116643028D01*
X130881121Y-116653775D01*
X130989751Y-116708794D01*
X131086480Y-116802007D01*
X131159380Y-116920806D01*
X131177259Y-116966701D01*
X131201323Y-117079262D01*
X131212085Y-117219907D01*
X131210298Y-117372770D01*
G36*
X131198347Y-113601382D02*
G01*
X131191857Y-113699098D01*
X131178784Y-113773196D01*
X131157285Y-113837227D01*
X131146183Y-113862470D01*
X131055807Y-114005835D01*
X130930328Y-114132858D01*
X130799376Y-114220329D01*
X130689707Y-114258971D01*
X130548519Y-114282883D01*
X130393145Y-114291263D01*
X130240918Y-114283307D01*
X130109175Y-114258212D01*
X130092759Y-114253088D01*
X129949428Y-114182134D01*
X129816890Y-114073739D01*
X129709404Y-113941141D01*
X129661750Y-113852929D01*
X129623312Y-113728499D01*
X129599976Y-113576939D01*
X129592859Y-113417913D01*
X129603080Y-113271084D01*
X129623438Y-113178802D01*
X129704330Y-113006597D01*
X129821517Y-112865039D01*
X129968949Y-112756708D01*
X130140577Y-112684188D01*
X130330351Y-112650058D01*
X130400001Y-112652418D01*
X130400001Y-113123600D01*
X130237992Y-113140577D01*
X130109294Y-113189598D01*
X130017128Y-113267795D01*
X129964722Y-113372300D01*
X129955298Y-113500248D01*
X129957243Y-113517300D01*
X129975477Y-113598632D01*
X130002813Y-113667158D01*
X130007823Y-113675521D01*
X130080654Y-113749424D01*
X130187268Y-113796392D01*
X130332573Y-113818239D01*
X130400000Y-113820336D01*
X130569250Y-113805677D01*
X130699846Y-113760142D01*
X130790775Y-113684575D01*
X130841022Y-113579819D01*
X130849572Y-113446717D01*
X130849563Y-113446621D01*
X130816652Y-113321433D01*
X130743281Y-113225546D01*
X130631484Y-113160421D01*
X130483294Y-113127518D01*
X130400001Y-113123600D01*
X130400001Y-112652418D01*
X130532223Y-112656901D01*
X130733589Y-112705030D01*
X130886504Y-112783262D01*
X131021227Y-112903876D01*
X131124710Y-113050986D01*
X131158173Y-113114779D01*
X131179943Y-113170383D01*
X131192516Y-113231547D01*
X131198386Y-113312025D01*
X131200049Y-113425566D01*
X131200100Y-113466500D01*
X131198347Y-113601382D01*
X131198347Y-113601382D01*
G37*
X131198347Y-113601382D02*
X131191857Y-113699098D01*
X131178784Y-113773196D01*
X131157285Y-113837227D01*
X131146183Y-113862470D01*
X131055807Y-114005835D01*
X130930328Y-114132858D01*
X130799376Y-114220329D01*
X130689707Y-114258971D01*
X130548519Y-114282883D01*
X130393145Y-114291263D01*
X130240918Y-114283307D01*
X130109175Y-114258212D01*
X130092759Y-114253088D01*
X129949428Y-114182134D01*
X129816890Y-114073739D01*
X129709404Y-113941141D01*
X129661750Y-113852929D01*
X129623312Y-113728499D01*
X129599976Y-113576939D01*
X129592859Y-113417913D01*
X129603080Y-113271084D01*
X129623438Y-113178802D01*
X129704330Y-113006597D01*
X129821517Y-112865039D01*
X129968949Y-112756708D01*
X130140577Y-112684188D01*
X130330351Y-112650058D01*
X130400001Y-112652418D01*
X130400001Y-113123600D01*
X130237992Y-113140577D01*
X130109294Y-113189598D01*
X130017128Y-113267795D01*
X129964722Y-113372300D01*
X129955298Y-113500248D01*
X129957243Y-113517300D01*
X129975477Y-113598632D01*
X130002813Y-113667158D01*
X130007823Y-113675521D01*
X130080654Y-113749424D01*
X130187268Y-113796392D01*
X130332573Y-113818239D01*
X130400000Y-113820336D01*
X130569250Y-113805677D01*
X130699846Y-113760142D01*
X130790775Y-113684575D01*
X130841022Y-113579819D01*
X130849572Y-113446717D01*
X130849563Y-113446621D01*
X130816652Y-113321433D01*
X130743281Y-113225546D01*
X130631484Y-113160421D01*
X130483294Y-113127518D01*
X130400001Y-113123600D01*
X130400001Y-112652418D01*
X130532223Y-112656901D01*
X130733589Y-112705030D01*
X130886504Y-112783262D01*
X131021227Y-112903876D01*
X131124710Y-113050986D01*
X131158173Y-113114779D01*
X131179943Y-113170383D01*
X131192516Y-113231547D01*
X131198386Y-113312025D01*
X131200049Y-113425566D01*
X131200100Y-113466500D01*
X131198347Y-113601382D01*
G36*
X129399435Y-113022131D02*
G01*
X129326997Y-113238761D01*
X129299050Y-113466214D01*
X129315657Y-113693545D01*
X129376880Y-113909809D01*
X129394058Y-113949836D01*
X129452250Y-114077572D01*
X129388972Y-114125303D01*
X129343458Y-114156401D01*
X129317420Y-114156193D01*
X129291365Y-114126086D01*
X129228661Y-114008870D01*
X129180451Y-113856305D01*
X129148305Y-113682168D01*
X129133796Y-113500239D01*
X129138492Y-113324298D01*
X129163966Y-113168122D01*
X129177088Y-113123600D01*
X129217856Y-113012027D01*
X129259511Y-112913875D01*
X129297223Y-112839237D01*
X129326161Y-112798208D01*
X129335091Y-112793400D01*
X129366039Y-112807820D01*
X129408028Y-112837981D01*
X129463084Y-112882562D01*
X129399435Y-113022131D01*
X129399435Y-113022131D01*
G37*
X129399435Y-113022131D02*
X129326997Y-113238761D01*
X129299050Y-113466214D01*
X129315657Y-113693545D01*
X129376880Y-113909809D01*
X129394058Y-113949836D01*
X129452250Y-114077572D01*
X129388972Y-114125303D01*
X129343458Y-114156401D01*
X129317420Y-114156193D01*
X129291365Y-114126086D01*
X129228661Y-114008870D01*
X129180451Y-113856305D01*
X129148305Y-113682168D01*
X129133796Y-113500239D01*
X129138492Y-113324298D01*
X129163966Y-113168122D01*
X129177088Y-113123600D01*
X129217856Y-113012027D01*
X129259511Y-112913875D01*
X129297223Y-112839237D01*
X129326161Y-112798208D01*
X129335091Y-112793400D01*
X129366039Y-112807820D01*
X129408028Y-112837981D01*
X129463084Y-112882562D01*
X129399435Y-113022131D01*
G36*
X129034648Y-112797258D02*
G01*
X128941150Y-113026803D01*
X128889994Y-113256505D01*
X128876376Y-113478186D01*
X128896162Y-113747979D01*
X128955742Y-113992189D01*
X129029830Y-114167831D01*
X129067721Y-114245784D01*
X129092885Y-114303224D01*
X129100042Y-114328072D01*
X129099914Y-114328195D01*
X129075859Y-114344878D01*
X129026101Y-114379265D01*
X129010523Y-114390020D01*
X128929145Y-114446190D01*
X128891189Y-114388145D01*
X128802507Y-114218633D01*
X128731305Y-114014835D01*
X128680311Y-113791077D01*
X128652253Y-113561684D01*
X128649861Y-113340980D01*
X128664840Y-113199800D01*
X128685223Y-113110720D01*
X128718328Y-113002780D01*
X128760031Y-112885913D01*
X128806210Y-112770053D01*
X128852742Y-112665135D01*
X128895505Y-112581095D01*
X128930375Y-112527865D01*
X128949389Y-112514126D01*
X128977478Y-112528633D01*
X129027303Y-112564350D01*
X129039896Y-112574257D01*
X129114891Y-112634263D01*
X129034648Y-112797258D01*
X129034648Y-112797258D01*
G37*
X129034648Y-112797258D02*
X128941150Y-113026803D01*
X128889994Y-113256505D01*
X128876376Y-113478186D01*
X128896162Y-113747979D01*
X128955742Y-113992189D01*
X129029830Y-114167831D01*
X129067721Y-114245784D01*
X129092885Y-114303224D01*
X129100042Y-114328072D01*
X129099914Y-114328195D01*
X129075859Y-114344878D01*
X129026101Y-114379265D01*
X129010523Y-114390020D01*
X128929145Y-114446190D01*
X128891189Y-114388145D01*
X128802507Y-114218633D01*
X128731305Y-114014835D01*
X128680311Y-113791077D01*
X128652253Y-113561684D01*
X128649861Y-113340980D01*
X128664840Y-113199800D01*
X128685223Y-113110720D01*
X128718328Y-113002780D01*
X128760031Y-112885913D01*
X128806210Y-112770053D01*
X128852742Y-112665135D01*
X128895505Y-112581095D01*
X128930375Y-112527865D01*
X128949389Y-112514126D01*
X128977478Y-112528633D01*
X129027303Y-112564350D01*
X129039896Y-112574257D01*
X129114891Y-112634263D01*
X129034648Y-112797258D01*
G36*
X128738710Y-112403001D02*
G01*
X128710948Y-112465580D01*
X128670378Y-112553237D01*
X128637275Y-112623114D01*
X128541084Y-112849527D01*
X128478780Y-113062343D01*
X128445958Y-113281341D01*
X128438110Y-113517300D01*
X128463943Y-113826514D01*
X128534204Y-114118425D01*
X128647453Y-114387255D01*
X128660735Y-114412004D01*
X128747330Y-114570109D01*
X128635704Y-114646909D01*
X128524078Y-114723710D01*
X128448002Y-114590405D01*
X128309320Y-114298622D01*
X128217684Y-113990727D01*
X128172410Y-113664020D01*
X128166998Y-113479200D01*
X128171044Y-113341644D01*
X128180490Y-113203354D01*
X128193772Y-113083520D01*
X128204274Y-113022000D01*
X128247331Y-112851245D01*
X128302975Y-112692014D01*
X128379347Y-112522063D01*
X128408771Y-112463200D01*
X128463692Y-112355614D01*
X128502188Y-112287189D01*
X128531985Y-112252392D01*
X128560811Y-112245692D01*
X128596393Y-112261559D01*
X128645438Y-112293786D01*
X128705441Y-112336008D01*
X128742823Y-112367152D01*
X128749000Y-112375824D01*
X128738710Y-112403001D01*
X128738710Y-112403001D01*
G37*
X128738710Y-112403001D02*
X128710948Y-112465580D01*
X128670378Y-112553237D01*
X128637275Y-112623114D01*
X128541084Y-112849527D01*
X128478780Y-113062343D01*
X128445958Y-113281341D01*
X128438110Y-113517300D01*
X128463943Y-113826514D01*
X128534204Y-114118425D01*
X128647453Y-114387255D01*
X128660735Y-114412004D01*
X128747330Y-114570109D01*
X128635704Y-114646909D01*
X128524078Y-114723710D01*
X128448002Y-114590405D01*
X128309320Y-114298622D01*
X128217684Y-113990727D01*
X128172410Y-113664020D01*
X128166998Y-113479200D01*
X128171044Y-113341644D01*
X128180490Y-113203354D01*
X128193772Y-113083520D01*
X128204274Y-113022000D01*
X128247331Y-112851245D01*
X128302975Y-112692014D01*
X128379347Y-112522063D01*
X128408771Y-112463200D01*
X128463692Y-112355614D01*
X128502188Y-112287189D01*
X128531985Y-112252392D01*
X128560811Y-112245692D01*
X128596393Y-112261559D01*
X128645438Y-112293786D01*
X128705441Y-112336008D01*
X128742823Y-112367152D01*
X128749000Y-112375824D01*
X128738710Y-112403001D01*
D16*
X134800000Y-84450000D02*
X136800000Y-84450000D01*
X136800000Y-84450000D02*
X136800000Y-80550000D01*
X134800000Y-84450000D02*
X134800000Y-80550000D01*
X143595000Y-111690000D02*
X143595000Y-114390000D01*
X140875000Y-112280000D02*
X140245000Y-112280000D01*
X140875000Y-114440000D02*
X140875000Y-113800000D01*
X140875000Y-111640000D02*
X140875000Y-112280000D01*
X143390000Y-83810000D02*
X139140000Y-83810000D01*
X139140000Y-83810000D02*
X139140000Y-82790000D01*
X139140000Y-82790000D02*
X140740000Y-82790000D01*
X140740000Y-82790000D02*
X140740000Y-81510000D01*
X140740000Y-81510000D02*
X137850000Y-81510000D01*
X143390000Y-75690000D02*
X139140000Y-75690000D01*
X139140000Y-75690000D02*
X139140000Y-76710000D01*
X139140000Y-76710000D02*
X140740000Y-76710000D01*
X140740000Y-76710000D02*
X140740000Y-77990000D01*
X146960000Y-82090000D02*
X146960000Y-77410000D01*
X145252779Y-74720000D02*
X144927221Y-74720000D01*
X145252779Y-73700000D02*
X144927221Y-73700000D01*
X132462779Y-77110000D02*
X132137221Y-77110000D01*
X132462779Y-76090000D02*
X132137221Y-76090000D01*
X132137221Y-80010000D02*
X132462779Y-80010000D01*
X132137221Y-78990000D02*
X132462779Y-78990000D01*
X139590000Y-89837221D02*
X139590000Y-90162779D01*
X140610000Y-89837221D02*
X140610000Y-90162779D01*
X143762000Y-108498421D02*
X143762000Y-108823979D01*
X144782000Y-108498421D02*
X144782000Y-108823979D01*
X139137221Y-93160000D02*
X139462779Y-93160000D01*
X139137221Y-92140000D02*
X139462779Y-92140000D01*
X136512779Y-93160000D02*
X136187221Y-93160000D01*
X136512779Y-92140000D02*
X136187221Y-92140000D01*
X141301800Y-70523200D02*
X141301800Y-72808200D01*
X141301800Y-72808200D02*
X142771800Y-72808200D01*
X142771800Y-72808200D02*
X142771800Y-70523200D01*
X130228000Y-74718000D02*
X130228000Y-75318000D01*
X130228000Y-75318000D02*
X127328000Y-75318000D01*
X130228000Y-73018000D02*
X127328000Y-73018000D01*
X130435000Y-93035000D02*
X130435000Y-90750000D01*
X128965000Y-93035000D02*
X130435000Y-93035000D01*
X128965000Y-90750000D02*
X128965000Y-93035000D01*
X132241422Y-80490000D02*
X132758578Y-80490000D01*
X132241422Y-81910000D02*
X132758578Y-81910000D01*
X132462779Y-78560000D02*
X132137221Y-78560000D01*
X132462779Y-77540000D02*
X132137221Y-77540000D01*
X132115000Y-89585000D02*
X128585000Y-89585000D01*
X132115000Y-83115000D02*
X128585000Y-83115000D01*
X133440000Y-89520000D02*
X132115000Y-89520000D01*
X132115000Y-89585000D02*
X132115000Y-89520000D01*
X128585000Y-89585000D02*
X128585000Y-89520000D01*
X132115000Y-83180000D02*
X132115000Y-83115000D01*
X128585000Y-83180000D02*
X128585000Y-83115000D01*
X135640000Y-114430000D02*
X135890000Y-114930000D01*
X136140000Y-114430000D02*
X135640000Y-114430000D01*
X135890000Y-114930000D02*
X136140000Y-114430000D01*
X143650000Y-84740000D02*
X141850000Y-84740000D01*
X141850000Y-87960000D02*
X144300000Y-87960000D01*
X136500000Y-77040000D02*
X134600000Y-77040000D01*
X135100000Y-79360000D02*
X136500000Y-79360000D01*
X133980000Y-90990000D02*
X133050000Y-90990000D01*
X130820000Y-90990000D02*
X131750000Y-90990000D01*
X130820000Y-90990000D02*
X130820000Y-93150000D01*
X133980000Y-90990000D02*
X133980000Y-92450000D01*
X138960000Y-90900000D02*
X138960000Y-88450000D01*
X135740000Y-89100000D02*
X135740000Y-90900000D01*
X131420000Y-67042000D02*
X140360000Y-67042000D01*
X131420000Y-72552000D02*
X131420000Y-70752000D01*
X131420000Y-67042000D02*
X131420000Y-68502000D01*
X140360000Y-67042000D02*
X140360000Y-68502000D01*
X140360000Y-72552000D02*
X140360000Y-70752000D01*
X128728000Y-77336000D02*
X128828000Y-77336000D01*
X130488000Y-81956000D02*
X130488000Y-77556000D01*
X127068000Y-77556000D02*
X127068000Y-81956000D01*
X128718000Y-82166000D02*
X128818000Y-82166000D01*
X138310000Y-82887221D02*
X138310000Y-83212779D01*
X137290000Y-82887221D02*
X137290000Y-83212779D01*
X138160000Y-87930000D02*
X138160000Y-87000000D01*
X138160000Y-84770000D02*
X138160000Y-85700000D01*
X138160000Y-84770000D02*
X136000000Y-84770000D01*
X138160000Y-87930000D02*
X136700000Y-87930000D01*
X128390000Y-108601000D02*
X129390000Y-109601000D01*
X143390000Y-109601000D02*
X129390000Y-109601000D01*
X128390000Y-94601000D02*
X128390000Y-108601000D01*
X143390000Y-94601000D02*
X128390000Y-94601000D01*
X143390000Y-109601000D02*
X143390000Y-94601000D01*
X143250000Y-93240000D02*
X143150000Y-93240000D01*
X141490000Y-88620000D02*
X141490000Y-93020000D01*
X144910000Y-93020000D02*
X144910000Y-88620000D01*
X143260000Y-88410000D02*
X143160000Y-88410000D01*
M02*
