G04 #@! TF.GenerationSoftware,KiCad,Pcbnew,(5.1.4)-1*
G04 #@! TF.CreationDate,2019-11-09T19:33:29+01:00*
G04 #@! TF.ProjectId,TLM-4260-breakout-v1_0,544c4d2d-3432-4363-902d-627265616b6f,1.1*
G04 #@! TF.SameCoordinates,Original*
G04 #@! TF.FileFunction,Legend,Bot*
G04 #@! TF.FilePolarity,Positive*
%FSLAX46Y46*%
G04 Gerber Fmt 4.6, Leading zero omitted, Abs format (unit mm)*
G04 Created by KiCad (PCBNEW (5.1.4)-1) date 2019-11-09 19:33:29*
%MOMM*%
%LPD*%
G04 APERTURE LIST*
%ADD10C,0.250000*%
%ADD11C,0.330000*%
%ADD12C,0.150000*%
%ADD13C,0.010000*%
%ADD14C,0.120000*%
G04 APERTURE END LIST*
D10*
X138398824Y-111319761D02*
X138247633Y-111367380D01*
X137985729Y-111367380D01*
X137875014Y-111319761D01*
X137816681Y-111272142D01*
X137752395Y-111176904D01*
X137740491Y-111081666D01*
X137780967Y-110986428D01*
X137827395Y-110938809D01*
X137926205Y-110891190D01*
X138129776Y-110843571D01*
X138228586Y-110795952D01*
X138275014Y-110748333D01*
X138315491Y-110653095D01*
X138303586Y-110557857D01*
X138239300Y-110462619D01*
X138180967Y-110415000D01*
X138070252Y-110367380D01*
X137808348Y-110367380D01*
X137657157Y-110415000D01*
X136879776Y-111319761D02*
X136990491Y-111367380D01*
X137200014Y-111367380D01*
X137298824Y-111319761D01*
X137339300Y-111224523D01*
X137291681Y-110843571D01*
X137227395Y-110748333D01*
X137116681Y-110700714D01*
X136907157Y-110700714D01*
X136808348Y-110748333D01*
X136767872Y-110843571D01*
X136779776Y-110938809D01*
X137315491Y-111034047D01*
X135884538Y-111319761D02*
X135995252Y-111367380D01*
X136204776Y-111367380D01*
X136303586Y-111319761D01*
X136350014Y-111272142D01*
X136390491Y-111176904D01*
X136354776Y-110891190D01*
X136290491Y-110795952D01*
X136232157Y-110748333D01*
X136121443Y-110700714D01*
X135911919Y-110700714D01*
X135813110Y-110748333D01*
X134864300Y-110700714D02*
X134947633Y-111367380D01*
X135335729Y-110700714D02*
X135401205Y-111224523D01*
X135360729Y-111319761D01*
X135261919Y-111367380D01*
X135104776Y-111367380D01*
X134994062Y-111319761D01*
X134935729Y-111272142D01*
X134423824Y-111367380D02*
X134340491Y-110700714D01*
X134364300Y-110891190D02*
X134300014Y-110795952D01*
X134241681Y-110748333D01*
X134130967Y-110700714D01*
X134026205Y-110700714D01*
X133317872Y-111319761D02*
X133428586Y-111367380D01*
X133638110Y-111367380D01*
X133736919Y-111319761D01*
X133777395Y-111224523D01*
X133729776Y-110843571D01*
X133665491Y-110748333D01*
X133554776Y-110700714D01*
X133345252Y-110700714D01*
X133246443Y-110748333D01*
X133205967Y-110843571D01*
X133217872Y-110938809D01*
X133753586Y-111034047D01*
X138784538Y-112593571D02*
X138417872Y-112593571D01*
X138326205Y-113117380D02*
X138850014Y-113117380D01*
X138725014Y-112117380D01*
X138201205Y-112117380D01*
X137697633Y-113117380D02*
X137796443Y-113069761D01*
X137836919Y-112974523D01*
X137729776Y-112117380D01*
X136853586Y-113069761D02*
X136964300Y-113117380D01*
X137173824Y-113117380D01*
X137272633Y-113069761D01*
X137313110Y-112974523D01*
X137265491Y-112593571D01*
X137201205Y-112498333D01*
X137090491Y-112450714D01*
X136880967Y-112450714D01*
X136782157Y-112498333D01*
X136741681Y-112593571D01*
X136753586Y-112688809D01*
X137289300Y-112784047D01*
X136335729Y-113117380D02*
X136252395Y-112450714D01*
X136264300Y-112545952D02*
X136205967Y-112498333D01*
X136095252Y-112450714D01*
X135938110Y-112450714D01*
X135839300Y-112498333D01*
X135798824Y-112593571D01*
X135864300Y-113117380D01*
X135798824Y-112593571D02*
X135734538Y-112498333D01*
X135623824Y-112450714D01*
X135466681Y-112450714D01*
X135367872Y-112498333D01*
X135327395Y-112593571D01*
X135392872Y-113117380D01*
X134444062Y-113069761D02*
X134554776Y-113117380D01*
X134764300Y-113117380D01*
X134863110Y-113069761D01*
X134903586Y-112974523D01*
X134855967Y-112593571D01*
X134791681Y-112498333D01*
X134680967Y-112450714D01*
X134471443Y-112450714D01*
X134372633Y-112498333D01*
X134332157Y-112593571D01*
X134344062Y-112688809D01*
X134879776Y-112784047D01*
X133842872Y-112450714D02*
X133926205Y-113117380D01*
X133854776Y-112545952D02*
X133796443Y-112498333D01*
X133685729Y-112450714D01*
X133528586Y-112450714D01*
X133429776Y-112498333D01*
X133389300Y-112593571D01*
X133454776Y-113117380D01*
X133004776Y-112450714D02*
X132585729Y-112450714D01*
X132805967Y-112117380D02*
X132913110Y-112974523D01*
X132872633Y-113069761D01*
X132773824Y-113117380D01*
X132669062Y-113117380D01*
X137554062Y-98138571D02*
X137920729Y-98138571D01*
X137986205Y-98662380D02*
X137861205Y-97662380D01*
X137337395Y-97662380D01*
X136886205Y-98662380D02*
X136985014Y-98614761D01*
X137025491Y-98519523D01*
X136918348Y-97662380D01*
X135995729Y-98662380D02*
X135930252Y-98138571D01*
X135970729Y-98043333D01*
X136069538Y-97995714D01*
X136279062Y-97995714D01*
X136389776Y-98043333D01*
X135989776Y-98614761D02*
X136100491Y-98662380D01*
X136362395Y-98662380D01*
X136461205Y-98614761D01*
X136501681Y-98519523D01*
X136489776Y-98424285D01*
X136425491Y-98329047D01*
X136314776Y-98281428D01*
X136052872Y-98281428D01*
X135942157Y-98233809D01*
X135518348Y-98614761D02*
X135419538Y-98662380D01*
X135210014Y-98662380D01*
X135099300Y-98614761D01*
X135035014Y-98519523D01*
X135029062Y-98471904D01*
X135069538Y-98376666D01*
X135168348Y-98329047D01*
X135325491Y-98329047D01*
X135424300Y-98281428D01*
X135464776Y-98186190D01*
X135458824Y-98138571D01*
X135394538Y-98043333D01*
X135283824Y-97995714D01*
X135126681Y-97995714D01*
X135027872Y-98043333D01*
X134581443Y-98662380D02*
X134456443Y-97662380D01*
X134110014Y-98662380D02*
X134044538Y-98138571D01*
X134085014Y-98043333D01*
X134183824Y-97995714D01*
X134340967Y-97995714D01*
X134451681Y-98043333D01*
X134510014Y-98090952D01*
X140289776Y-85842380D02*
X140379062Y-86556666D01*
X140449300Y-86699523D01*
X140565967Y-86794761D01*
X140729062Y-86842380D01*
X140833824Y-86842380D01*
X139890967Y-86842380D02*
X139765967Y-85842380D01*
X139346919Y-85842380D01*
X139248110Y-85890000D01*
X139201681Y-85937619D01*
X139161205Y-86032857D01*
X139179062Y-86175714D01*
X139243348Y-86270952D01*
X139301681Y-86318571D01*
X139412395Y-86366190D01*
X139831443Y-86366190D01*
X138770729Y-85842380D02*
X138089776Y-85842380D01*
X138504062Y-86223333D01*
X138346919Y-86223333D01*
X138248110Y-86270952D01*
X138201681Y-86318571D01*
X138161205Y-86413809D01*
X138190967Y-86651904D01*
X138255252Y-86747142D01*
X138313586Y-86794761D01*
X138424300Y-86842380D01*
X138738586Y-86842380D01*
X138837395Y-86794761D01*
X138883824Y-86747142D01*
X141589776Y-95142380D02*
X141679062Y-95856666D01*
X141749300Y-95999523D01*
X141865967Y-96094761D01*
X142029062Y-96142380D01*
X142133824Y-96142380D01*
X141190967Y-96142380D02*
X141065967Y-95142380D01*
X140646919Y-95142380D01*
X140548110Y-95190000D01*
X140501681Y-95237619D01*
X140461205Y-95332857D01*
X140479062Y-95475714D01*
X140543348Y-95570952D01*
X140601681Y-95618571D01*
X140712395Y-95666190D01*
X141131443Y-95666190D01*
X139536205Y-95475714D02*
X139619538Y-96142380D01*
X139750491Y-95094761D02*
X140101681Y-95809047D01*
X139420729Y-95809047D01*
X129419776Y-73652380D02*
X129509062Y-74366666D01*
X129579300Y-74509523D01*
X129695967Y-74604761D01*
X129859062Y-74652380D01*
X129963824Y-74652380D01*
X129020967Y-74652380D02*
X128895967Y-73652380D01*
X128476919Y-73652380D01*
X128378110Y-73700000D01*
X128331681Y-73747619D01*
X128291205Y-73842857D01*
X128309062Y-73985714D01*
X128373348Y-74080952D01*
X128431681Y-74128571D01*
X128542395Y-74176190D01*
X128961443Y-74176190D01*
X127860252Y-73747619D02*
X127801919Y-73700000D01*
X127691205Y-73652380D01*
X127429300Y-73652380D01*
X127330491Y-73700000D01*
X127284062Y-73747619D01*
X127243586Y-73842857D01*
X127255491Y-73938095D01*
X127325729Y-74080952D01*
X128025729Y-74652380D01*
X127344776Y-74652380D01*
X138889776Y-92062380D02*
X138979062Y-92776666D01*
X139049300Y-92919523D01*
X139165967Y-93014761D01*
X139329062Y-93062380D01*
X139433824Y-93062380D01*
X138490967Y-93062380D02*
X138365967Y-92062380D01*
X137946919Y-92062380D01*
X137848110Y-92110000D01*
X137801681Y-92157619D01*
X137761205Y-92252857D01*
X137779062Y-92395714D01*
X137843348Y-92490952D01*
X137901681Y-92538571D01*
X138012395Y-92586190D01*
X138431443Y-92586190D01*
X136814776Y-93062380D02*
X137443348Y-93062380D01*
X137129062Y-93062380D02*
X137004062Y-92062380D01*
X137126681Y-92205238D01*
X137243348Y-92300476D01*
X137354062Y-92348095D01*
D11*
X129705952Y-91439035D02*
X129705952Y-92410464D01*
X131155952Y-91743500D02*
X129705952Y-91924750D01*
X131155952Y-92795880D02*
X130189285Y-92916714D01*
X129705952Y-92977130D02*
X129775000Y-92887547D01*
X129844047Y-92959869D01*
X129775000Y-93049452D01*
X129705952Y-92977130D01*
X129844047Y-92959869D01*
X130189285Y-93726238D02*
X131155952Y-93605404D01*
X130327380Y-93708976D02*
X130258333Y-93798559D01*
X130189285Y-93969095D01*
X130189285Y-94211952D01*
X130258333Y-94365226D01*
X130396428Y-94428916D01*
X131155952Y-94333976D01*
X130189285Y-95102428D02*
X131155952Y-95386357D01*
X130189285Y-95911952D02*
X131155952Y-95386357D01*
X131501190Y-95181297D01*
X131570238Y-95091714D01*
X131639285Y-94921178D01*
X131155952Y-97248261D02*
X131155952Y-96438738D01*
X129705952Y-96619988D01*
X131155952Y-98057785D02*
X131086904Y-97904511D01*
X131017857Y-97832190D01*
X130879761Y-97768500D01*
X130465476Y-97820285D01*
X130327380Y-97918500D01*
X130258333Y-98008083D01*
X130189285Y-98178619D01*
X130189285Y-98421476D01*
X130258333Y-98574750D01*
X130327380Y-98647071D01*
X130465476Y-98710761D01*
X130879761Y-98658976D01*
X131017857Y-98560761D01*
X131086904Y-98471178D01*
X131155952Y-98300642D01*
X131155952Y-98057785D01*
X131155952Y-100324452D02*
X130465476Y-99844095D01*
X131155952Y-99353023D02*
X129705952Y-99534273D01*
X129705952Y-100181892D01*
X129775000Y-100335166D01*
X129844047Y-100407488D01*
X129982142Y-100471178D01*
X130189285Y-100445285D01*
X130327380Y-100347071D01*
X130396428Y-100257488D01*
X130465476Y-100086952D01*
X130465476Y-99439333D01*
X131155952Y-101781595D02*
X130396428Y-101876535D01*
X130258333Y-101812845D01*
X130189285Y-101659571D01*
X130189285Y-101335761D01*
X130258333Y-101165226D01*
X131086904Y-101790226D02*
X131155952Y-101619690D01*
X131155952Y-101214928D01*
X131086904Y-101061654D01*
X130948809Y-100997964D01*
X130810714Y-101015226D01*
X130672619Y-101113440D01*
X130603571Y-101283976D01*
X130603571Y-101688738D01*
X130534523Y-101859273D01*
X130189285Y-104735761D02*
X131155952Y-104614928D01*
X129636904Y-104400047D02*
X130672619Y-103865821D01*
X130672619Y-104918202D01*
X129844047Y-105588440D02*
X129775000Y-105678023D01*
X129705952Y-105848559D01*
X129705952Y-106253321D01*
X129775000Y-106406595D01*
X129844047Y-106478916D01*
X129982142Y-106542607D01*
X130120238Y-106525345D01*
X130327380Y-106418500D01*
X131155952Y-105343500D01*
X131155952Y-106395880D01*
X129705952Y-108034273D02*
X129705952Y-107710464D01*
X129775000Y-107539928D01*
X129844047Y-107450345D01*
X130051190Y-107262547D01*
X130327380Y-107147071D01*
X130879761Y-107078023D01*
X131017857Y-107141714D01*
X131086904Y-107214035D01*
X131155952Y-107367309D01*
X131155952Y-107691119D01*
X131086904Y-107861654D01*
X131017857Y-107951238D01*
X130879761Y-108049452D01*
X130534523Y-108092607D01*
X130396428Y-108028916D01*
X130327380Y-107956595D01*
X130258333Y-107803321D01*
X130258333Y-107479511D01*
X130327380Y-107308976D01*
X130396428Y-107219392D01*
X130534523Y-107121178D01*
X129705952Y-109248559D02*
X129705952Y-109410464D01*
X129775000Y-109563738D01*
X129844047Y-109636059D01*
X129982142Y-109699750D01*
X130258333Y-109746178D01*
X130603571Y-109703023D01*
X130879761Y-109587547D01*
X131017857Y-109489333D01*
X131086904Y-109399750D01*
X131155952Y-109229214D01*
X131155952Y-109067309D01*
X131086904Y-108914035D01*
X131017857Y-108841714D01*
X130879761Y-108778023D01*
X130603571Y-108731595D01*
X130258333Y-108774750D01*
X129982142Y-108890226D01*
X129844047Y-108988440D01*
X129775000Y-109078023D01*
X129705952Y-109248559D01*
X130189285Y-111616714D02*
X131155952Y-111900642D01*
X130189285Y-112426238D01*
X131155952Y-113843500D02*
X131155952Y-112872071D01*
X131155952Y-113357785D02*
X129705952Y-113539035D01*
X129913095Y-113351238D01*
X130051190Y-113172071D01*
X130120238Y-113001535D01*
X131017857Y-114589333D02*
X131086904Y-114661654D01*
X131155952Y-114572071D01*
X131086904Y-114499750D01*
X131017857Y-114589333D01*
X131155952Y-114572071D01*
X129705952Y-115886654D02*
X129705952Y-116048559D01*
X129775000Y-116201833D01*
X129844047Y-116274154D01*
X129982142Y-116337845D01*
X130258333Y-116384273D01*
X130603571Y-116341119D01*
X130879761Y-116225642D01*
X131017857Y-116127428D01*
X131086904Y-116037845D01*
X131155952Y-115867309D01*
X131155952Y-115705404D01*
X131086904Y-115552130D01*
X131017857Y-115479809D01*
X130879761Y-115416119D01*
X130603571Y-115369690D01*
X130258333Y-115412845D01*
X129982142Y-115528321D01*
X129844047Y-115626535D01*
X129775000Y-115716119D01*
X129705952Y-115886654D01*
D12*
X127000000Y-119380000D02*
G75*
G02X124460000Y-116840000I0J2540000D01*
G01*
X147320000Y-116840000D02*
G75*
G02X144780000Y-119380000I-2540000J0D01*
G01*
X144780000Y-68580000D02*
G75*
G02X147320000Y-71120000I0J-2540000D01*
G01*
X124460000Y-71120000D02*
G75*
G02X127000000Y-68580000I2540000J0D01*
G01*
X124460000Y-116840000D02*
X124460000Y-71120000D01*
X144780000Y-119380000D02*
X127000000Y-119380000D01*
X147320000Y-71120000D02*
X147320000Y-116840000D01*
X127000000Y-68580000D02*
X144780000Y-68580000D01*
D13*
G36*
X134735232Y-74528380D02*
G01*
X134734074Y-74575984D01*
X134737289Y-74644234D01*
X134744011Y-74718239D01*
X134753376Y-74783106D01*
X134758470Y-74806300D01*
X134766993Y-74824938D01*
X134769620Y-74796449D01*
X134766144Y-74724187D01*
X134764692Y-74704700D01*
X134756618Y-74615223D01*
X134748461Y-74547949D01*
X134741918Y-74516725D01*
X134741628Y-74516316D01*
X134735232Y-74528380D01*
X134735232Y-74528380D01*
G37*
X134735232Y-74528380D02*
X134734074Y-74575984D01*
X134737289Y-74644234D01*
X134744011Y-74718239D01*
X134753376Y-74783106D01*
X134758470Y-74806300D01*
X134766993Y-74824938D01*
X134769620Y-74796449D01*
X134766144Y-74724187D01*
X134764692Y-74704700D01*
X134756618Y-74615223D01*
X134748461Y-74547949D01*
X134741918Y-74516725D01*
X134741628Y-74516316D01*
X134735232Y-74528380D01*
G36*
X135482897Y-70284390D02*
G01*
X135448166Y-70294419D01*
X135347622Y-70332255D01*
X135252600Y-70378739D01*
X135199774Y-70412304D01*
X135128159Y-70457450D01*
X135065782Y-70469862D01*
X135029102Y-70465619D01*
X134881801Y-70440376D01*
X134774655Y-70429465D01*
X134698825Y-70433782D01*
X134645474Y-70454224D01*
X134605765Y-70491688D01*
X134592870Y-70509876D01*
X134568566Y-70564968D01*
X134574890Y-70625905D01*
X134582602Y-70649945D01*
X134612770Y-70707296D01*
X134664372Y-70753077D01*
X134747416Y-70793966D01*
X134853949Y-70831047D01*
X134977738Y-70890416D01*
X135059649Y-70976632D01*
X135096805Y-71079108D01*
X135117276Y-71143315D01*
X135158975Y-71233754D01*
X135214379Y-71334777D01*
X135239710Y-71376260D01*
X135303839Y-71482759D01*
X135345731Y-71571394D01*
X135364997Y-71652648D01*
X135361248Y-71737003D01*
X135334093Y-71834943D01*
X135283143Y-71956949D01*
X135212648Y-72104079D01*
X135074828Y-72373427D01*
X134925906Y-72642147D01*
X134757930Y-72924162D01*
X134604937Y-73168000D01*
X134531230Y-73285636D01*
X134460767Y-73402221D01*
X134402093Y-73503379D01*
X134366954Y-73568311D01*
X134305202Y-73712838D01*
X134251890Y-73880371D01*
X134208418Y-74060979D01*
X134176184Y-74244732D01*
X134156587Y-74421702D01*
X134151026Y-74581958D01*
X134160899Y-74715570D01*
X134187606Y-74812608D01*
X134190774Y-74819000D01*
X134236119Y-74883984D01*
X134292078Y-74912107D01*
X134314653Y-74915486D01*
X134405560Y-74904606D01*
X134477908Y-74850694D01*
X134533893Y-74751461D01*
X134564250Y-74654880D01*
X134593727Y-74554927D01*
X134628139Y-74463108D01*
X134654541Y-74409222D01*
X134703241Y-74329142D01*
X134713756Y-74415321D01*
X134720071Y-74456503D01*
X134724328Y-74452635D01*
X134727500Y-74401199D01*
X134728336Y-74377691D01*
X134737292Y-74280827D01*
X134757526Y-74147788D01*
X134786431Y-73991265D01*
X134821399Y-73823948D01*
X134859822Y-73658528D01*
X134899091Y-73507695D01*
X134925555Y-73418006D01*
X135019591Y-73162535D01*
X135125348Y-72956076D01*
X135243297Y-72798101D01*
X135373909Y-72688085D01*
X135517653Y-72625501D01*
X135648300Y-72609199D01*
X135767055Y-72620259D01*
X135874113Y-72657385D01*
X135980923Y-72726501D01*
X136098932Y-72833532D01*
X136116700Y-72851573D01*
X136275534Y-73043828D01*
X136420978Y-73277752D01*
X136549736Y-73545227D01*
X136658508Y-73838136D01*
X136743999Y-74148359D01*
X136802910Y-74467780D01*
X136815840Y-74572753D01*
X136827196Y-74819621D01*
X136805723Y-75037048D01*
X136752279Y-75222007D01*
X136667722Y-75371467D01*
X136559601Y-75477638D01*
X136462870Y-75532518D01*
X136363610Y-75553557D01*
X136250809Y-75540794D01*
X136113456Y-75494271D01*
X136078600Y-75479400D01*
X135946150Y-75428634D01*
X135838538Y-75408096D01*
X135739843Y-75417688D01*
X135634149Y-75457314D01*
X135596000Y-75476451D01*
X135455184Y-75540764D01*
X135340269Y-75568742D01*
X135241066Y-75559801D01*
X135147387Y-75513355D01*
X135066725Y-75446092D01*
X134975214Y-75336900D01*
X134895691Y-75193050D01*
X134828846Y-75022200D01*
X134804236Y-74953896D01*
X134792645Y-74933172D01*
X134793213Y-74958737D01*
X134795030Y-74971400D01*
X134821362Y-75068865D01*
X134869259Y-75183878D01*
X134930428Y-75301019D01*
X134996574Y-75404866D01*
X135059405Y-75480000D01*
X135076502Y-75494738D01*
X135142254Y-75557678D01*
X135166703Y-75619490D01*
X135148692Y-75686490D01*
X135087067Y-75764995D01*
X135014781Y-75832418D01*
X134941280Y-75901013D01*
X134883942Y-75963689D01*
X134853585Y-76008436D01*
X134851942Y-76013178D01*
X134856153Y-76076442D01*
X134900010Y-76118854D01*
X134974326Y-76133567D01*
X135009186Y-76130383D01*
X135096543Y-76128177D01*
X135188098Y-76142461D01*
X135195340Y-76144520D01*
X135285907Y-76160343D01*
X135350423Y-76146370D01*
X135419727Y-76132244D01*
X135517495Y-76144247D01*
X135529095Y-76146823D01*
X135607288Y-76161089D01*
X135654457Y-76157631D01*
X135686891Y-76135995D01*
X135709649Y-76089809D01*
X135697241Y-76027546D01*
X135647699Y-75944584D01*
X135559563Y-75836872D01*
X135482633Y-75741770D01*
X135446651Y-75669534D01*
X135452519Y-75611773D01*
X135501143Y-75560093D01*
X135593425Y-75506101D01*
X135595276Y-75505165D01*
X135717183Y-75452479D01*
X135820606Y-75432941D01*
X135924487Y-75446157D01*
X136047767Y-75491732D01*
X136056374Y-75495568D01*
X136147017Y-75541806D01*
X136194493Y-75581157D01*
X136205600Y-75611477D01*
X136188812Y-75649133D01*
X136143394Y-75712878D01*
X136076772Y-75793011D01*
X136015100Y-75860400D01*
X135909386Y-75980217D01*
X135846078Y-76073051D01*
X135825170Y-76138696D01*
X135846652Y-76176943D01*
X135910515Y-76187587D01*
X136016751Y-76170419D01*
X136028157Y-76167563D01*
X136107511Y-76150908D01*
X136164551Y-76153406D01*
X136224961Y-76177575D01*
X136246774Y-76188996D01*
X136309020Y-76219849D01*
X136350521Y-76235779D01*
X136357624Y-76236353D01*
X136387661Y-76232749D01*
X136454556Y-76227974D01*
X136544416Y-76223006D01*
X136553483Y-76222567D01*
X136651500Y-76215800D01*
X136710017Y-76204944D01*
X136740328Y-76186742D01*
X136751642Y-76165384D01*
X136753662Y-76115754D01*
X136729817Y-76050096D01*
X136676864Y-75962138D01*
X136591562Y-75845607D01*
X136576025Y-75825593D01*
X136499482Y-75714108D01*
X136464157Y-75628909D01*
X136470262Y-75570887D01*
X136508425Y-75543527D01*
X136575840Y-75501319D01*
X136648568Y-75422634D01*
X136719013Y-75320129D01*
X136779582Y-75206459D01*
X136822681Y-75094281D01*
X136840716Y-74996251D01*
X136840849Y-74989497D01*
X136851505Y-74936541D01*
X136878792Y-74858028D01*
X136906486Y-74793600D01*
X136959102Y-74641512D01*
X136984005Y-74463400D01*
X136991727Y-74360928D01*
X137000603Y-74270980D01*
X137008793Y-74212061D01*
X137009255Y-74209759D01*
X137020826Y-74167052D01*
X137034641Y-74170500D01*
X137049235Y-74194613D01*
X137061985Y-74248214D01*
X137065917Y-74341113D01*
X137061564Y-74448254D01*
X137058504Y-74611535D01*
X137076500Y-74733058D01*
X137116913Y-74817893D01*
X137174224Y-74867431D01*
X137227385Y-74890608D01*
X137270670Y-74883206D01*
X137307247Y-74861567D01*
X137386836Y-74781041D01*
X137450095Y-74657412D01*
X137495316Y-74496228D01*
X137520791Y-74303036D01*
X137525959Y-74150999D01*
X137522214Y-74014693D01*
X137515060Y-73942700D01*
X136866000Y-73942700D01*
X136853300Y-73955400D01*
X136840600Y-73942700D01*
X136853300Y-73930000D01*
X136866000Y-73942700D01*
X137515060Y-73942700D01*
X137510012Y-73891900D01*
X136842166Y-73891900D01*
X136744179Y-73625200D01*
X136697752Y-73503051D01*
X136650545Y-73385934D01*
X136609124Y-73289807D01*
X136587421Y-73244200D01*
X136461800Y-73030663D01*
X136320957Y-72845452D01*
X136169644Y-72692377D01*
X136012615Y-72575248D01*
X135854622Y-72497876D01*
X135700419Y-72464072D01*
X135616416Y-72465716D01*
X135523754Y-72483596D01*
X135437562Y-72511491D01*
X135416661Y-72521095D01*
X135315453Y-72588321D01*
X135207358Y-72683720D01*
X135109496Y-72790695D01*
X135045693Y-72880788D01*
X135007336Y-72943475D01*
X134980000Y-72983060D01*
X134972655Y-72990200D01*
X134975468Y-72968441D01*
X134991713Y-72911805D01*
X135013954Y-72844150D01*
X135103052Y-72637051D01*
X135213127Y-72468391D01*
X135341012Y-72340463D01*
X135483542Y-72255560D01*
X135637549Y-72215975D01*
X135799868Y-72224002D01*
X135852496Y-72236840D01*
X136047606Y-72319951D01*
X136228343Y-72451432D01*
X136361335Y-72590237D01*
X136495074Y-72779343D01*
X136614825Y-73003189D01*
X136714266Y-73246296D01*
X136787073Y-73493185D01*
X136826926Y-73728378D01*
X136827142Y-73730671D01*
X136842166Y-73891900D01*
X137510012Y-73891900D01*
X137509793Y-73889705D01*
X137485998Y-73766965D01*
X137448130Y-73637396D01*
X137393491Y-73491928D01*
X137319382Y-73321486D01*
X137223104Y-73116996D01*
X137210930Y-73091800D01*
X137130837Y-72924825D01*
X137050034Y-72753667D01*
X136974187Y-72590521D01*
X136908959Y-72447578D01*
X136860016Y-72337033D01*
X136856908Y-72329800D01*
X136796757Y-72190003D01*
X136730253Y-72036401D01*
X136667799Y-71892986D01*
X136640214Y-71830032D01*
X136539285Y-71544274D01*
X136499589Y-71360132D01*
X136470123Y-71223160D01*
X136295196Y-71223160D01*
X136291527Y-71401814D01*
X136257465Y-71572463D01*
X136194880Y-71725805D01*
X136105642Y-71852538D01*
X135991620Y-71943362D01*
X135989700Y-71944420D01*
X135924490Y-71961477D01*
X135851049Y-71940819D01*
X135760780Y-71879778D01*
X135748400Y-71869606D01*
X135677156Y-71810409D01*
X135590664Y-71738857D01*
X135538587Y-71695917D01*
X135454591Y-71615254D01*
X135366790Y-71511704D01*
X135282226Y-71396000D01*
X135207942Y-71278877D01*
X135150983Y-71171068D01*
X135118390Y-71083308D01*
X135113400Y-71047915D01*
X135121024Y-71017083D01*
X135146264Y-71014823D01*
X135192675Y-71043514D01*
X135263814Y-71105535D01*
X135363234Y-71203264D01*
X135396865Y-71237600D01*
X135493051Y-71334708D01*
X135563148Y-71400147D01*
X135615194Y-71439881D01*
X135657224Y-71459872D01*
X135697274Y-71466084D01*
X135704899Y-71466200D01*
X135800353Y-71444237D01*
X135870268Y-71379394D01*
X135913706Y-71273236D01*
X135929728Y-71127330D01*
X135929518Y-71091675D01*
X135900893Y-70913743D01*
X135827034Y-70748520D01*
X135735410Y-70635359D01*
X135511488Y-70635359D01*
X135492962Y-70670765D01*
X135469000Y-70678800D01*
X135436424Y-70660297D01*
X135429533Y-70651186D01*
X135426566Y-70612449D01*
X135453439Y-70586460D01*
X135490300Y-70589599D01*
X135497267Y-70595306D01*
X135511488Y-70635359D01*
X135735410Y-70635359D01*
X135713506Y-70608307D01*
X135708925Y-70604043D01*
X135630966Y-70538493D01*
X135560707Y-70499649D01*
X135477619Y-70479070D01*
X135382064Y-70469670D01*
X135304799Y-70455286D01*
X135275450Y-70428339D01*
X135295010Y-70392572D01*
X135352200Y-70357376D01*
X135413393Y-70331398D01*
X135450461Y-70329533D01*
X135483773Y-70351373D01*
X135487495Y-70354678D01*
X135528602Y-70382114D01*
X135603964Y-70424245D01*
X135701644Y-70474615D01*
X135778270Y-70511967D01*
X135923768Y-70586956D01*
X136031209Y-70658202D01*
X136111587Y-70735188D01*
X136175895Y-70827395D01*
X136203875Y-70879041D01*
X136266602Y-71045802D01*
X136295196Y-71223160D01*
X136470123Y-71223160D01*
X136440582Y-71085841D01*
X136358462Y-70846668D01*
X136254895Y-70645673D01*
X136131549Y-70485918D01*
X135990093Y-70370463D01*
X135947231Y-70346370D01*
X135787522Y-70282465D01*
X135637330Y-70262282D01*
X135482897Y-70284390D01*
X135482897Y-70284390D01*
G37*
X135482897Y-70284390D02*
X135448166Y-70294419D01*
X135347622Y-70332255D01*
X135252600Y-70378739D01*
X135199774Y-70412304D01*
X135128159Y-70457450D01*
X135065782Y-70469862D01*
X135029102Y-70465619D01*
X134881801Y-70440376D01*
X134774655Y-70429465D01*
X134698825Y-70433782D01*
X134645474Y-70454224D01*
X134605765Y-70491688D01*
X134592870Y-70509876D01*
X134568566Y-70564968D01*
X134574890Y-70625905D01*
X134582602Y-70649945D01*
X134612770Y-70707296D01*
X134664372Y-70753077D01*
X134747416Y-70793966D01*
X134853949Y-70831047D01*
X134977738Y-70890416D01*
X135059649Y-70976632D01*
X135096805Y-71079108D01*
X135117276Y-71143315D01*
X135158975Y-71233754D01*
X135214379Y-71334777D01*
X135239710Y-71376260D01*
X135303839Y-71482759D01*
X135345731Y-71571394D01*
X135364997Y-71652648D01*
X135361248Y-71737003D01*
X135334093Y-71834943D01*
X135283143Y-71956949D01*
X135212648Y-72104079D01*
X135074828Y-72373427D01*
X134925906Y-72642147D01*
X134757930Y-72924162D01*
X134604937Y-73168000D01*
X134531230Y-73285636D01*
X134460767Y-73402221D01*
X134402093Y-73503379D01*
X134366954Y-73568311D01*
X134305202Y-73712838D01*
X134251890Y-73880371D01*
X134208418Y-74060979D01*
X134176184Y-74244732D01*
X134156587Y-74421702D01*
X134151026Y-74581958D01*
X134160899Y-74715570D01*
X134187606Y-74812608D01*
X134190774Y-74819000D01*
X134236119Y-74883984D01*
X134292078Y-74912107D01*
X134314653Y-74915486D01*
X134405560Y-74904606D01*
X134477908Y-74850694D01*
X134533893Y-74751461D01*
X134564250Y-74654880D01*
X134593727Y-74554927D01*
X134628139Y-74463108D01*
X134654541Y-74409222D01*
X134703241Y-74329142D01*
X134713756Y-74415321D01*
X134720071Y-74456503D01*
X134724328Y-74452635D01*
X134727500Y-74401199D01*
X134728336Y-74377691D01*
X134737292Y-74280827D01*
X134757526Y-74147788D01*
X134786431Y-73991265D01*
X134821399Y-73823948D01*
X134859822Y-73658528D01*
X134899091Y-73507695D01*
X134925555Y-73418006D01*
X135019591Y-73162535D01*
X135125348Y-72956076D01*
X135243297Y-72798101D01*
X135373909Y-72688085D01*
X135517653Y-72625501D01*
X135648300Y-72609199D01*
X135767055Y-72620259D01*
X135874113Y-72657385D01*
X135980923Y-72726501D01*
X136098932Y-72833532D01*
X136116700Y-72851573D01*
X136275534Y-73043828D01*
X136420978Y-73277752D01*
X136549736Y-73545227D01*
X136658508Y-73838136D01*
X136743999Y-74148359D01*
X136802910Y-74467780D01*
X136815840Y-74572753D01*
X136827196Y-74819621D01*
X136805723Y-75037048D01*
X136752279Y-75222007D01*
X136667722Y-75371467D01*
X136559601Y-75477638D01*
X136462870Y-75532518D01*
X136363610Y-75553557D01*
X136250809Y-75540794D01*
X136113456Y-75494271D01*
X136078600Y-75479400D01*
X135946150Y-75428634D01*
X135838538Y-75408096D01*
X135739843Y-75417688D01*
X135634149Y-75457314D01*
X135596000Y-75476451D01*
X135455184Y-75540764D01*
X135340269Y-75568742D01*
X135241066Y-75559801D01*
X135147387Y-75513355D01*
X135066725Y-75446092D01*
X134975214Y-75336900D01*
X134895691Y-75193050D01*
X134828846Y-75022200D01*
X134804236Y-74953896D01*
X134792645Y-74933172D01*
X134793213Y-74958737D01*
X134795030Y-74971400D01*
X134821362Y-75068865D01*
X134869259Y-75183878D01*
X134930428Y-75301019D01*
X134996574Y-75404866D01*
X135059405Y-75480000D01*
X135076502Y-75494738D01*
X135142254Y-75557678D01*
X135166703Y-75619490D01*
X135148692Y-75686490D01*
X135087067Y-75764995D01*
X135014781Y-75832418D01*
X134941280Y-75901013D01*
X134883942Y-75963689D01*
X134853585Y-76008436D01*
X134851942Y-76013178D01*
X134856153Y-76076442D01*
X134900010Y-76118854D01*
X134974326Y-76133567D01*
X135009186Y-76130383D01*
X135096543Y-76128177D01*
X135188098Y-76142461D01*
X135195340Y-76144520D01*
X135285907Y-76160343D01*
X135350423Y-76146370D01*
X135419727Y-76132244D01*
X135517495Y-76144247D01*
X135529095Y-76146823D01*
X135607288Y-76161089D01*
X135654457Y-76157631D01*
X135686891Y-76135995D01*
X135709649Y-76089809D01*
X135697241Y-76027546D01*
X135647699Y-75944584D01*
X135559563Y-75836872D01*
X135482633Y-75741770D01*
X135446651Y-75669534D01*
X135452519Y-75611773D01*
X135501143Y-75560093D01*
X135593425Y-75506101D01*
X135595276Y-75505165D01*
X135717183Y-75452479D01*
X135820606Y-75432941D01*
X135924487Y-75446157D01*
X136047767Y-75491732D01*
X136056374Y-75495568D01*
X136147017Y-75541806D01*
X136194493Y-75581157D01*
X136205600Y-75611477D01*
X136188812Y-75649133D01*
X136143394Y-75712878D01*
X136076772Y-75793011D01*
X136015100Y-75860400D01*
X135909386Y-75980217D01*
X135846078Y-76073051D01*
X135825170Y-76138696D01*
X135846652Y-76176943D01*
X135910515Y-76187587D01*
X136016751Y-76170419D01*
X136028157Y-76167563D01*
X136107511Y-76150908D01*
X136164551Y-76153406D01*
X136224961Y-76177575D01*
X136246774Y-76188996D01*
X136309020Y-76219849D01*
X136350521Y-76235779D01*
X136357624Y-76236353D01*
X136387661Y-76232749D01*
X136454556Y-76227974D01*
X136544416Y-76223006D01*
X136553483Y-76222567D01*
X136651500Y-76215800D01*
X136710017Y-76204944D01*
X136740328Y-76186742D01*
X136751642Y-76165384D01*
X136753662Y-76115754D01*
X136729817Y-76050096D01*
X136676864Y-75962138D01*
X136591562Y-75845607D01*
X136576025Y-75825593D01*
X136499482Y-75714108D01*
X136464157Y-75628909D01*
X136470262Y-75570887D01*
X136508425Y-75543527D01*
X136575840Y-75501319D01*
X136648568Y-75422634D01*
X136719013Y-75320129D01*
X136779582Y-75206459D01*
X136822681Y-75094281D01*
X136840716Y-74996251D01*
X136840849Y-74989497D01*
X136851505Y-74936541D01*
X136878792Y-74858028D01*
X136906486Y-74793600D01*
X136959102Y-74641512D01*
X136984005Y-74463400D01*
X136991727Y-74360928D01*
X137000603Y-74270980D01*
X137008793Y-74212061D01*
X137009255Y-74209759D01*
X137020826Y-74167052D01*
X137034641Y-74170500D01*
X137049235Y-74194613D01*
X137061985Y-74248214D01*
X137065917Y-74341113D01*
X137061564Y-74448254D01*
X137058504Y-74611535D01*
X137076500Y-74733058D01*
X137116913Y-74817893D01*
X137174224Y-74867431D01*
X137227385Y-74890608D01*
X137270670Y-74883206D01*
X137307247Y-74861567D01*
X137386836Y-74781041D01*
X137450095Y-74657412D01*
X137495316Y-74496228D01*
X137520791Y-74303036D01*
X137525959Y-74150999D01*
X137522214Y-74014693D01*
X137515060Y-73942700D01*
X136866000Y-73942700D01*
X136853300Y-73955400D01*
X136840600Y-73942700D01*
X136853300Y-73930000D01*
X136866000Y-73942700D01*
X137515060Y-73942700D01*
X137510012Y-73891900D01*
X136842166Y-73891900D01*
X136744179Y-73625200D01*
X136697752Y-73503051D01*
X136650545Y-73385934D01*
X136609124Y-73289807D01*
X136587421Y-73244200D01*
X136461800Y-73030663D01*
X136320957Y-72845452D01*
X136169644Y-72692377D01*
X136012615Y-72575248D01*
X135854622Y-72497876D01*
X135700419Y-72464072D01*
X135616416Y-72465716D01*
X135523754Y-72483596D01*
X135437562Y-72511491D01*
X135416661Y-72521095D01*
X135315453Y-72588321D01*
X135207358Y-72683720D01*
X135109496Y-72790695D01*
X135045693Y-72880788D01*
X135007336Y-72943475D01*
X134980000Y-72983060D01*
X134972655Y-72990200D01*
X134975468Y-72968441D01*
X134991713Y-72911805D01*
X135013954Y-72844150D01*
X135103052Y-72637051D01*
X135213127Y-72468391D01*
X135341012Y-72340463D01*
X135483542Y-72255560D01*
X135637549Y-72215975D01*
X135799868Y-72224002D01*
X135852496Y-72236840D01*
X136047606Y-72319951D01*
X136228343Y-72451432D01*
X136361335Y-72590237D01*
X136495074Y-72779343D01*
X136614825Y-73003189D01*
X136714266Y-73246296D01*
X136787073Y-73493185D01*
X136826926Y-73728378D01*
X136827142Y-73730671D01*
X136842166Y-73891900D01*
X137510012Y-73891900D01*
X137509793Y-73889705D01*
X137485998Y-73766965D01*
X137448130Y-73637396D01*
X137393491Y-73491928D01*
X137319382Y-73321486D01*
X137223104Y-73116996D01*
X137210930Y-73091800D01*
X137130837Y-72924825D01*
X137050034Y-72753667D01*
X136974187Y-72590521D01*
X136908959Y-72447578D01*
X136860016Y-72337033D01*
X136856908Y-72329800D01*
X136796757Y-72190003D01*
X136730253Y-72036401D01*
X136667799Y-71892986D01*
X136640214Y-71830032D01*
X136539285Y-71544274D01*
X136499589Y-71360132D01*
X136470123Y-71223160D01*
X136295196Y-71223160D01*
X136291527Y-71401814D01*
X136257465Y-71572463D01*
X136194880Y-71725805D01*
X136105642Y-71852538D01*
X135991620Y-71943362D01*
X135989700Y-71944420D01*
X135924490Y-71961477D01*
X135851049Y-71940819D01*
X135760780Y-71879778D01*
X135748400Y-71869606D01*
X135677156Y-71810409D01*
X135590664Y-71738857D01*
X135538587Y-71695917D01*
X135454591Y-71615254D01*
X135366790Y-71511704D01*
X135282226Y-71396000D01*
X135207942Y-71278877D01*
X135150983Y-71171068D01*
X135118390Y-71083308D01*
X135113400Y-71047915D01*
X135121024Y-71017083D01*
X135146264Y-71014823D01*
X135192675Y-71043514D01*
X135263814Y-71105535D01*
X135363234Y-71203264D01*
X135396865Y-71237600D01*
X135493051Y-71334708D01*
X135563148Y-71400147D01*
X135615194Y-71439881D01*
X135657224Y-71459872D01*
X135697274Y-71466084D01*
X135704899Y-71466200D01*
X135800353Y-71444237D01*
X135870268Y-71379394D01*
X135913706Y-71273236D01*
X135929728Y-71127330D01*
X135929518Y-71091675D01*
X135900893Y-70913743D01*
X135827034Y-70748520D01*
X135735410Y-70635359D01*
X135511488Y-70635359D01*
X135492962Y-70670765D01*
X135469000Y-70678800D01*
X135436424Y-70660297D01*
X135429533Y-70651186D01*
X135426566Y-70612449D01*
X135453439Y-70586460D01*
X135490300Y-70589599D01*
X135497267Y-70595306D01*
X135511488Y-70635359D01*
X135735410Y-70635359D01*
X135713506Y-70608307D01*
X135708925Y-70604043D01*
X135630966Y-70538493D01*
X135560707Y-70499649D01*
X135477619Y-70479070D01*
X135382064Y-70469670D01*
X135304799Y-70455286D01*
X135275450Y-70428339D01*
X135295010Y-70392572D01*
X135352200Y-70357376D01*
X135413393Y-70331398D01*
X135450461Y-70329533D01*
X135483773Y-70351373D01*
X135487495Y-70354678D01*
X135528602Y-70382114D01*
X135603964Y-70424245D01*
X135701644Y-70474615D01*
X135778270Y-70511967D01*
X135923768Y-70586956D01*
X136031209Y-70658202D01*
X136111587Y-70735188D01*
X136175895Y-70827395D01*
X136203875Y-70879041D01*
X136266602Y-71045802D01*
X136295196Y-71223160D01*
X136470123Y-71223160D01*
X136440582Y-71085841D01*
X136358462Y-70846668D01*
X136254895Y-70645673D01*
X136131549Y-70485918D01*
X135990093Y-70370463D01*
X135947231Y-70346370D01*
X135787522Y-70282465D01*
X135637330Y-70262282D01*
X135482897Y-70284390D01*
G36*
X135415384Y-69683935D02*
G01*
X135004386Y-69758271D01*
X134606362Y-69881157D01*
X134223366Y-70051858D01*
X133857454Y-70269638D01*
X133600678Y-70459231D01*
X133286756Y-70743041D01*
X133010738Y-71057930D01*
X132774676Y-71400054D01*
X132580624Y-71765567D01*
X132430636Y-72150623D01*
X132326766Y-72551376D01*
X132272407Y-72946508D01*
X132263402Y-73372803D01*
X132303279Y-73790848D01*
X132390347Y-74197193D01*
X132522914Y-74588387D01*
X132699291Y-74960978D01*
X132917786Y-75311516D01*
X133176707Y-75636548D01*
X133474365Y-75932624D01*
X133809067Y-76196292D01*
X133892433Y-76252861D01*
X134244322Y-76458644D01*
X134607665Y-76618372D01*
X134988818Y-76734233D01*
X135394138Y-76808416D01*
X135557900Y-76826321D01*
X135681389Y-76837141D01*
X135774302Y-76843462D01*
X135853235Y-76845223D01*
X135934782Y-76842363D01*
X136035540Y-76834821D01*
X136154800Y-76824122D01*
X136569184Y-76761138D01*
X136969624Y-76650850D01*
X137352479Y-76495701D01*
X137714111Y-76298130D01*
X138050877Y-76060579D01*
X138359139Y-75785490D01*
X138635256Y-75475302D01*
X138875588Y-75132458D01*
X138998337Y-74917349D01*
X139174506Y-74530118D01*
X139302385Y-74134046D01*
X139382910Y-73732766D01*
X139417016Y-73329913D01*
X139410858Y-73112956D01*
X139195483Y-73112956D01*
X139194327Y-73462375D01*
X139163463Y-73783591D01*
X139100413Y-74091287D01*
X139002701Y-74400147D01*
X138959344Y-74512508D01*
X138789933Y-74868639D01*
X138579588Y-75201824D01*
X138332635Y-75508435D01*
X138053400Y-75784844D01*
X137746210Y-76027423D01*
X137415392Y-76232546D01*
X137065271Y-76396583D01*
X136700176Y-76515907D01*
X136522239Y-76555975D01*
X136420309Y-76575716D01*
X136332847Y-76592873D01*
X136275844Y-76604305D01*
X136269100Y-76605713D01*
X136194280Y-76614558D01*
X136080858Y-76619390D01*
X135940852Y-76620486D01*
X135786280Y-76618128D01*
X135629158Y-76612594D01*
X135481505Y-76604164D01*
X135355336Y-76593118D01*
X135278500Y-76582680D01*
X134883075Y-76489161D01*
X134506618Y-76350344D01*
X134152171Y-76169172D01*
X133822775Y-75948585D01*
X133521473Y-75691526D01*
X133251306Y-75400936D01*
X133015314Y-75079757D01*
X132816541Y-74730929D01*
X132658026Y-74357395D01*
X132542813Y-73962096D01*
X132535640Y-73930000D01*
X132512586Y-73791603D01*
X132494708Y-73619302D01*
X132482520Y-73427796D01*
X132476539Y-73231786D01*
X132477282Y-73045975D01*
X132485264Y-72885063D01*
X132495736Y-72793176D01*
X132581238Y-72381893D01*
X132704759Y-72002302D01*
X132868487Y-71650085D01*
X133074608Y-71320923D01*
X133325312Y-71010499D01*
X133481137Y-70848018D01*
X133790503Y-70577145D01*
X134124516Y-70348295D01*
X134479109Y-70162461D01*
X134850217Y-70020639D01*
X135233774Y-69923822D01*
X135625714Y-69873005D01*
X136021971Y-69869183D01*
X136418479Y-69913351D01*
X136811171Y-70006502D01*
X136859714Y-70021616D01*
X137235951Y-70167755D01*
X137590781Y-70357125D01*
X137920104Y-70586091D01*
X138219823Y-70851022D01*
X138485839Y-71148283D01*
X138714054Y-71474241D01*
X138900371Y-71825263D01*
X138904534Y-71834500D01*
X139009065Y-72086015D01*
X139086579Y-72319788D01*
X139140792Y-72552138D01*
X139175415Y-72799382D01*
X139194164Y-73077840D01*
X139195483Y-73112956D01*
X139410858Y-73112956D01*
X139405639Y-72929120D01*
X139349714Y-72534021D01*
X139250177Y-72148252D01*
X139107964Y-71775445D01*
X138924009Y-71419234D01*
X138699249Y-71083255D01*
X138434618Y-70771141D01*
X138131053Y-70486526D01*
X137793100Y-70235420D01*
X137431760Y-70025255D01*
X137058088Y-69863363D01*
X136669225Y-69748899D01*
X136262312Y-69681021D01*
X135837300Y-69658884D01*
X135415384Y-69683935D01*
X135415384Y-69683935D01*
G37*
X135415384Y-69683935D02*
X135004386Y-69758271D01*
X134606362Y-69881157D01*
X134223366Y-70051858D01*
X133857454Y-70269638D01*
X133600678Y-70459231D01*
X133286756Y-70743041D01*
X133010738Y-71057930D01*
X132774676Y-71400054D01*
X132580624Y-71765567D01*
X132430636Y-72150623D01*
X132326766Y-72551376D01*
X132272407Y-72946508D01*
X132263402Y-73372803D01*
X132303279Y-73790848D01*
X132390347Y-74197193D01*
X132522914Y-74588387D01*
X132699291Y-74960978D01*
X132917786Y-75311516D01*
X133176707Y-75636548D01*
X133474365Y-75932624D01*
X133809067Y-76196292D01*
X133892433Y-76252861D01*
X134244322Y-76458644D01*
X134607665Y-76618372D01*
X134988818Y-76734233D01*
X135394138Y-76808416D01*
X135557900Y-76826321D01*
X135681389Y-76837141D01*
X135774302Y-76843462D01*
X135853235Y-76845223D01*
X135934782Y-76842363D01*
X136035540Y-76834821D01*
X136154800Y-76824122D01*
X136569184Y-76761138D01*
X136969624Y-76650850D01*
X137352479Y-76495701D01*
X137714111Y-76298130D01*
X138050877Y-76060579D01*
X138359139Y-75785490D01*
X138635256Y-75475302D01*
X138875588Y-75132458D01*
X138998337Y-74917349D01*
X139174506Y-74530118D01*
X139302385Y-74134046D01*
X139382910Y-73732766D01*
X139417016Y-73329913D01*
X139410858Y-73112956D01*
X139195483Y-73112956D01*
X139194327Y-73462375D01*
X139163463Y-73783591D01*
X139100413Y-74091287D01*
X139002701Y-74400147D01*
X138959344Y-74512508D01*
X138789933Y-74868639D01*
X138579588Y-75201824D01*
X138332635Y-75508435D01*
X138053400Y-75784844D01*
X137746210Y-76027423D01*
X137415392Y-76232546D01*
X137065271Y-76396583D01*
X136700176Y-76515907D01*
X136522239Y-76555975D01*
X136420309Y-76575716D01*
X136332847Y-76592873D01*
X136275844Y-76604305D01*
X136269100Y-76605713D01*
X136194280Y-76614558D01*
X136080858Y-76619390D01*
X135940852Y-76620486D01*
X135786280Y-76618128D01*
X135629158Y-76612594D01*
X135481505Y-76604164D01*
X135355336Y-76593118D01*
X135278500Y-76582680D01*
X134883075Y-76489161D01*
X134506618Y-76350344D01*
X134152171Y-76169172D01*
X133822775Y-75948585D01*
X133521473Y-75691526D01*
X133251306Y-75400936D01*
X133015314Y-75079757D01*
X132816541Y-74730929D01*
X132658026Y-74357395D01*
X132542813Y-73962096D01*
X132535640Y-73930000D01*
X132512586Y-73791603D01*
X132494708Y-73619302D01*
X132482520Y-73427796D01*
X132476539Y-73231786D01*
X132477282Y-73045975D01*
X132485264Y-72885063D01*
X132495736Y-72793176D01*
X132581238Y-72381893D01*
X132704759Y-72002302D01*
X132868487Y-71650085D01*
X133074608Y-71320923D01*
X133325312Y-71010499D01*
X133481137Y-70848018D01*
X133790503Y-70577145D01*
X134124516Y-70348295D01*
X134479109Y-70162461D01*
X134850217Y-70020639D01*
X135233774Y-69923822D01*
X135625714Y-69873005D01*
X136021971Y-69869183D01*
X136418479Y-69913351D01*
X136811171Y-70006502D01*
X136859714Y-70021616D01*
X137235951Y-70167755D01*
X137590781Y-70357125D01*
X137920104Y-70586091D01*
X138219823Y-70851022D01*
X138485839Y-71148283D01*
X138714054Y-71474241D01*
X138900371Y-71825263D01*
X138904534Y-71834500D01*
X139009065Y-72086015D01*
X139086579Y-72319788D01*
X139140792Y-72552138D01*
X139175415Y-72799382D01*
X139194164Y-73077840D01*
X139195483Y-73112956D01*
X139410858Y-73112956D01*
X139405639Y-72929120D01*
X139349714Y-72534021D01*
X139250177Y-72148252D01*
X139107964Y-71775445D01*
X138924009Y-71419234D01*
X138699249Y-71083255D01*
X138434618Y-70771141D01*
X138131053Y-70486526D01*
X137793100Y-70235420D01*
X137431760Y-70025255D01*
X137058088Y-69863363D01*
X136669225Y-69748899D01*
X136262312Y-69681021D01*
X135837300Y-69658884D01*
X135415384Y-69683935D01*
G36*
X131745163Y-77232127D02*
G01*
X131677182Y-77290444D01*
X131638347Y-77375679D01*
X131633600Y-77422500D01*
X131654955Y-77515626D01*
X131710839Y-77586754D01*
X131788987Y-77630765D01*
X131877129Y-77642539D01*
X131962998Y-77616960D01*
X132010173Y-77579612D01*
X132057244Y-77495657D01*
X132064594Y-77398604D01*
X132032637Y-77306501D01*
X132003055Y-77268945D01*
X131920192Y-77216352D01*
X131830197Y-77205754D01*
X131745163Y-77232127D01*
X131745163Y-77232127D01*
G37*
X131745163Y-77232127D02*
X131677182Y-77290444D01*
X131638347Y-77375679D01*
X131633600Y-77422500D01*
X131654955Y-77515626D01*
X131710839Y-77586754D01*
X131788987Y-77630765D01*
X131877129Y-77642539D01*
X131962998Y-77616960D01*
X132010173Y-77579612D01*
X132057244Y-77495657D01*
X132064594Y-77398604D01*
X132032637Y-77306501D01*
X132003055Y-77268945D01*
X131920192Y-77216352D01*
X131830197Y-77205754D01*
X131745163Y-77232127D01*
G36*
X131032163Y-77240771D02*
G01*
X131032092Y-77240842D01*
X131031984Y-77269329D01*
X131041262Y-77337577D01*
X131058343Y-77435741D01*
X131081648Y-77553981D01*
X131084889Y-77569535D01*
X131109910Y-77690287D01*
X131130588Y-77792737D01*
X131144929Y-77866802D01*
X131150934Y-77902393D01*
X131151000Y-77903544D01*
X131132886Y-77897620D01*
X131084607Y-77865667D01*
X131015265Y-77813890D01*
X130987217Y-77791847D01*
X130823434Y-77661521D01*
X130637967Y-77669010D01*
X130452500Y-77676500D01*
X130685882Y-77817573D01*
X130919263Y-77958647D01*
X130845889Y-77986342D01*
X130771664Y-78037397D01*
X130710112Y-78120081D01*
X130673619Y-78215224D01*
X130668637Y-78260700D01*
X130675766Y-78337384D01*
X130693152Y-78424613D01*
X130695977Y-78435195D01*
X130709436Y-78516006D01*
X130695358Y-78557295D01*
X130655244Y-78556938D01*
X130622916Y-78538424D01*
X130577089Y-78480402D01*
X130576123Y-78474196D01*
X130133839Y-78474196D01*
X130122732Y-78547721D01*
X130096121Y-78574930D01*
X130053116Y-78557123D01*
X130015050Y-78521050D01*
X129991482Y-78478132D01*
X129963336Y-78401444D01*
X129933568Y-78302941D01*
X129905136Y-78194578D01*
X129880996Y-78088309D01*
X129864104Y-77996091D01*
X129857418Y-77929878D01*
X129862148Y-77902786D01*
X129895504Y-77897387D01*
X129928666Y-77904105D01*
X129975953Y-77941103D01*
X130025370Y-78015389D01*
X130071126Y-78114071D01*
X130107430Y-78224258D01*
X130128492Y-78333059D01*
X130130333Y-78353058D01*
X130133839Y-78474196D01*
X130576123Y-78474196D01*
X130566800Y-78414335D01*
X130552873Y-78303656D01*
X130515739Y-78171529D01*
X130462367Y-78037371D01*
X130399730Y-77920600D01*
X130378338Y-77889358D01*
X130310468Y-77807319D01*
X130239866Y-77747753D01*
X130157128Y-77707504D01*
X130052849Y-77683415D01*
X129917624Y-77672330D01*
X129742050Y-77671093D01*
X129728600Y-77671284D01*
X129584829Y-77675281D01*
X129477065Y-77682101D01*
X129410302Y-77691292D01*
X129389415Y-77701900D01*
X129395541Y-77734230D01*
X129410115Y-77807440D01*
X129431347Y-77912653D01*
X129457449Y-78040992D01*
X129477449Y-78138799D01*
X129504646Y-78276947D01*
X129526241Y-78397316D01*
X129540860Y-78491312D01*
X129547128Y-78550340D01*
X129545759Y-78566307D01*
X129513977Y-78568039D01*
X129474600Y-78552800D01*
X129427304Y-78535559D01*
X129404618Y-78538115D01*
X129404285Y-78570231D01*
X129425759Y-78629643D01*
X129461547Y-78702148D01*
X129504156Y-78773542D01*
X129546097Y-78829621D01*
X129569861Y-78851403D01*
X129649480Y-78876614D01*
X129744654Y-78869129D01*
X129834927Y-78832081D01*
X129869758Y-78805430D01*
X129927432Y-78751249D01*
X130001917Y-78806318D01*
X130117650Y-78862442D01*
X130246035Y-78876266D01*
X130370101Y-78846087D01*
X130375096Y-78843769D01*
X130437799Y-78808036D01*
X130477562Y-78774272D01*
X130482246Y-78766535D01*
X130504395Y-78755619D01*
X130555042Y-78775072D01*
X130611886Y-78808636D01*
X130726049Y-78865557D01*
X130830856Y-78880076D01*
X130942088Y-78853938D01*
X130959341Y-78847021D01*
X131038206Y-78804145D01*
X131088689Y-78747884D01*
X131114743Y-78668491D01*
X131120318Y-78556221D01*
X131115005Y-78463123D01*
X131107799Y-78355447D01*
X131107964Y-78289475D01*
X131116190Y-78256550D01*
X131132121Y-78248000D01*
X131193151Y-78270574D01*
X131240322Y-78339387D01*
X131273778Y-78451200D01*
X131296921Y-78562720D01*
X131321701Y-78681759D01*
X131330975Y-78726198D01*
X131359246Y-78861496D01*
X131604373Y-78857863D01*
X131726457Y-78858016D01*
X131843468Y-78861527D01*
X131936509Y-78867708D01*
X131963800Y-78870922D01*
X132047097Y-78876759D01*
X132111208Y-78860036D01*
X132169160Y-78825416D01*
X132260219Y-78763218D01*
X132328412Y-78812893D01*
X132437605Y-78865968D01*
X132553735Y-78878770D01*
X132664536Y-78853777D01*
X132757742Y-78793467D01*
X132814745Y-78714674D01*
X132835084Y-78669183D01*
X132846138Y-78629050D01*
X132847629Y-78582164D01*
X132839279Y-78516411D01*
X132820813Y-78419678D01*
X132806392Y-78349600D01*
X132776939Y-78201589D01*
X132759456Y-78096273D01*
X132753636Y-78027052D01*
X132759172Y-77987325D01*
X132775756Y-77970494D01*
X132788648Y-77968600D01*
X132829419Y-77991034D01*
X132868853Y-78059463D01*
X132907698Y-78175576D01*
X132940485Y-78311500D01*
X132967700Y-78437559D01*
X132997057Y-78572350D01*
X133022080Y-78686150D01*
X133060072Y-78857600D01*
X133261236Y-78857600D01*
X133355075Y-78854972D01*
X133425550Y-78847996D01*
X133460585Y-78838028D01*
X133462400Y-78834996D01*
X133457492Y-78801783D01*
X133444477Y-78731548D01*
X133425920Y-78636938D01*
X133404384Y-78530596D01*
X133382436Y-78425168D01*
X133362639Y-78333300D01*
X133347557Y-78267635D01*
X133346338Y-78262720D01*
X133341402Y-78213411D01*
X133364522Y-78197436D01*
X133370747Y-78197200D01*
X133404774Y-78218341D01*
X133411600Y-78247112D01*
X133423973Y-78324296D01*
X133456390Y-78425794D01*
X133501799Y-78532946D01*
X133553148Y-78627096D01*
X133558105Y-78634726D01*
X133655761Y-78743131D01*
X133778869Y-78821048D01*
X133915066Y-78863866D01*
X134051991Y-78866973D01*
X134129391Y-78847844D01*
X134229859Y-78801825D01*
X134295183Y-78745623D01*
X134340906Y-78665661D01*
X134342635Y-78661565D01*
X134372865Y-78530118D01*
X134370435Y-78455810D01*
X133945000Y-78455810D01*
X133942141Y-78530240D01*
X133930027Y-78566702D01*
X133903360Y-78577873D01*
X133893827Y-78578200D01*
X133843790Y-78556095D01*
X133793816Y-78498172D01*
X133792258Y-78495650D01*
X133725053Y-78363266D01*
X133701089Y-78257172D01*
X133716731Y-78183882D01*
X133736568Y-78100564D01*
X133725040Y-77997504D01*
X133704575Y-77936850D01*
X133700798Y-77900224D01*
X133724311Y-77892400D01*
X133768423Y-77915811D01*
X133815060Y-77978977D01*
X133860068Y-78071292D01*
X133899293Y-78182150D01*
X133928582Y-78300946D01*
X133943779Y-78417075D01*
X133945000Y-78455810D01*
X134370435Y-78455810D01*
X134367681Y-78371648D01*
X134329302Y-78201511D01*
X134281803Y-78048897D01*
X134340129Y-78075472D01*
X134420111Y-78091885D01*
X134491472Y-78072870D01*
X134538051Y-78023902D01*
X134544267Y-78006313D01*
X134562796Y-77958978D01*
X134579644Y-77943200D01*
X134608271Y-77955640D01*
X134636434Y-77996217D01*
X134665903Y-78069816D01*
X134698449Y-78181323D01*
X134735843Y-78335622D01*
X134757960Y-78435168D01*
X134847020Y-78844900D01*
X135057155Y-78852289D01*
X135159813Y-78855345D01*
X135221237Y-78853980D01*
X135250953Y-78845735D01*
X135258488Y-78828152D01*
X135253992Y-78801489D01*
X135244741Y-78759089D01*
X135226925Y-78675789D01*
X135202417Y-78560405D01*
X135173088Y-78421751D01*
X135140811Y-78268645D01*
X135139139Y-78260700D01*
X135106766Y-78107184D01*
X135077238Y-77967761D01*
X135052427Y-77851225D01*
X135034206Y-77766366D01*
X135024447Y-77721979D01*
X135024208Y-77720950D01*
X135013792Y-77692325D01*
X134991702Y-77675275D01*
X134946821Y-77666829D01*
X134868028Y-77664019D01*
X134810233Y-77663800D01*
X134696613Y-77667487D01*
X134624864Y-77678130D01*
X134599953Y-77692842D01*
X134580118Y-77709181D01*
X134536006Y-77692842D01*
X134445659Y-77668128D01*
X134356609Y-77682186D01*
X134281863Y-77728180D01*
X134234428Y-77799272D01*
X134224400Y-77856621D01*
X134222804Y-77891203D01*
X134212537Y-77901976D01*
X134185387Y-77885740D01*
X134133138Y-77839295D01*
X134099595Y-77808010D01*
X134023872Y-77744311D01*
X133950999Y-77694722D01*
X133902745Y-77672155D01*
X133793388Y-77654778D01*
X133680771Y-77655469D01*
X133586436Y-77673430D01*
X133559446Y-77684840D01*
X133490950Y-77742198D01*
X133437062Y-77823379D01*
X133412000Y-77906137D01*
X133411600Y-77916166D01*
X133393941Y-77966062D01*
X133353634Y-77990273D01*
X133309684Y-77978189D01*
X133306232Y-77974991D01*
X133286597Y-77937063D01*
X133263844Y-77867337D01*
X133250199Y-77812868D01*
X133219919Y-77676500D01*
X132890310Y-77670818D01*
X132723678Y-77670273D01*
X132599793Y-77676460D01*
X132510833Y-77691261D01*
X132448977Y-77716557D01*
X132406403Y-77754227D01*
X132381703Y-77793116D01*
X132355546Y-77866229D01*
X132346950Y-77956730D01*
X132356220Y-78073463D01*
X132383658Y-78225268D01*
X132398922Y-78294033D01*
X132426213Y-78429662D01*
X132434594Y-78519400D01*
X132423701Y-78564647D01*
X132393174Y-78566805D01*
X132342651Y-78527274D01*
X132339532Y-78524167D01*
X132313328Y-78489440D01*
X132288597Y-78435929D01*
X132262948Y-78356046D01*
X132233988Y-78242200D01*
X132199323Y-78086800D01*
X132194422Y-78063850D01*
X132109305Y-77663800D01*
X131909553Y-77663800D01*
X131808742Y-77665113D01*
X131748611Y-77670597D01*
X131719072Y-77682566D01*
X131710038Y-77703337D01*
X131709800Y-77709651D01*
X131715043Y-77750306D01*
X131729422Y-77830057D01*
X131750918Y-77938440D01*
X131777508Y-78064994D01*
X131786000Y-78104134D01*
X131822927Y-78277247D01*
X131847470Y-78405797D01*
X131859436Y-78494540D01*
X131858631Y-78548230D01*
X131844860Y-78571621D01*
X131817929Y-78569469D01*
X131777645Y-78546526D01*
X131768196Y-78540021D01*
X131745181Y-78521459D01*
X131725209Y-78496963D01*
X131706483Y-78460499D01*
X131687206Y-78406034D01*
X131665583Y-78327534D01*
X131639814Y-78218966D01*
X131608105Y-78074296D01*
X131568658Y-77887490D01*
X131556416Y-77828900D01*
X131519494Y-77658991D01*
X131485069Y-77513981D01*
X131454820Y-77400199D01*
X131430424Y-77323976D01*
X131414061Y-77292007D01*
X131373981Y-77276014D01*
X131303038Y-77260131D01*
X131217309Y-77246511D01*
X131132869Y-77237310D01*
X131065795Y-77234678D01*
X131032163Y-77240771D01*
X131032163Y-77240771D01*
G37*
X131032163Y-77240771D02*
X131032092Y-77240842D01*
X131031984Y-77269329D01*
X131041262Y-77337577D01*
X131058343Y-77435741D01*
X131081648Y-77553981D01*
X131084889Y-77569535D01*
X131109910Y-77690287D01*
X131130588Y-77792737D01*
X131144929Y-77866802D01*
X131150934Y-77902393D01*
X131151000Y-77903544D01*
X131132886Y-77897620D01*
X131084607Y-77865667D01*
X131015265Y-77813890D01*
X130987217Y-77791847D01*
X130823434Y-77661521D01*
X130637967Y-77669010D01*
X130452500Y-77676500D01*
X130685882Y-77817573D01*
X130919263Y-77958647D01*
X130845889Y-77986342D01*
X130771664Y-78037397D01*
X130710112Y-78120081D01*
X130673619Y-78215224D01*
X130668637Y-78260700D01*
X130675766Y-78337384D01*
X130693152Y-78424613D01*
X130695977Y-78435195D01*
X130709436Y-78516006D01*
X130695358Y-78557295D01*
X130655244Y-78556938D01*
X130622916Y-78538424D01*
X130577089Y-78480402D01*
X130576123Y-78474196D01*
X130133839Y-78474196D01*
X130122732Y-78547721D01*
X130096121Y-78574930D01*
X130053116Y-78557123D01*
X130015050Y-78521050D01*
X129991482Y-78478132D01*
X129963336Y-78401444D01*
X129933568Y-78302941D01*
X129905136Y-78194578D01*
X129880996Y-78088309D01*
X129864104Y-77996091D01*
X129857418Y-77929878D01*
X129862148Y-77902786D01*
X129895504Y-77897387D01*
X129928666Y-77904105D01*
X129975953Y-77941103D01*
X130025370Y-78015389D01*
X130071126Y-78114071D01*
X130107430Y-78224258D01*
X130128492Y-78333059D01*
X130130333Y-78353058D01*
X130133839Y-78474196D01*
X130576123Y-78474196D01*
X130566800Y-78414335D01*
X130552873Y-78303656D01*
X130515739Y-78171529D01*
X130462367Y-78037371D01*
X130399730Y-77920600D01*
X130378338Y-77889358D01*
X130310468Y-77807319D01*
X130239866Y-77747753D01*
X130157128Y-77707504D01*
X130052849Y-77683415D01*
X129917624Y-77672330D01*
X129742050Y-77671093D01*
X129728600Y-77671284D01*
X129584829Y-77675281D01*
X129477065Y-77682101D01*
X129410302Y-77691292D01*
X129389415Y-77701900D01*
X129395541Y-77734230D01*
X129410115Y-77807440D01*
X129431347Y-77912653D01*
X129457449Y-78040992D01*
X129477449Y-78138799D01*
X129504646Y-78276947D01*
X129526241Y-78397316D01*
X129540860Y-78491312D01*
X129547128Y-78550340D01*
X129545759Y-78566307D01*
X129513977Y-78568039D01*
X129474600Y-78552800D01*
X129427304Y-78535559D01*
X129404618Y-78538115D01*
X129404285Y-78570231D01*
X129425759Y-78629643D01*
X129461547Y-78702148D01*
X129504156Y-78773542D01*
X129546097Y-78829621D01*
X129569861Y-78851403D01*
X129649480Y-78876614D01*
X129744654Y-78869129D01*
X129834927Y-78832081D01*
X129869758Y-78805430D01*
X129927432Y-78751249D01*
X130001917Y-78806318D01*
X130117650Y-78862442D01*
X130246035Y-78876266D01*
X130370101Y-78846087D01*
X130375096Y-78843769D01*
X130437799Y-78808036D01*
X130477562Y-78774272D01*
X130482246Y-78766535D01*
X130504395Y-78755619D01*
X130555042Y-78775072D01*
X130611886Y-78808636D01*
X130726049Y-78865557D01*
X130830856Y-78880076D01*
X130942088Y-78853938D01*
X130959341Y-78847021D01*
X131038206Y-78804145D01*
X131088689Y-78747884D01*
X131114743Y-78668491D01*
X131120318Y-78556221D01*
X131115005Y-78463123D01*
X131107799Y-78355447D01*
X131107964Y-78289475D01*
X131116190Y-78256550D01*
X131132121Y-78248000D01*
X131193151Y-78270574D01*
X131240322Y-78339387D01*
X131273778Y-78451200D01*
X131296921Y-78562720D01*
X131321701Y-78681759D01*
X131330975Y-78726198D01*
X131359246Y-78861496D01*
X131604373Y-78857863D01*
X131726457Y-78858016D01*
X131843468Y-78861527D01*
X131936509Y-78867708D01*
X131963800Y-78870922D01*
X132047097Y-78876759D01*
X132111208Y-78860036D01*
X132169160Y-78825416D01*
X132260219Y-78763218D01*
X132328412Y-78812893D01*
X132437605Y-78865968D01*
X132553735Y-78878770D01*
X132664536Y-78853777D01*
X132757742Y-78793467D01*
X132814745Y-78714674D01*
X132835084Y-78669183D01*
X132846138Y-78629050D01*
X132847629Y-78582164D01*
X132839279Y-78516411D01*
X132820813Y-78419678D01*
X132806392Y-78349600D01*
X132776939Y-78201589D01*
X132759456Y-78096273D01*
X132753636Y-78027052D01*
X132759172Y-77987325D01*
X132775756Y-77970494D01*
X132788648Y-77968600D01*
X132829419Y-77991034D01*
X132868853Y-78059463D01*
X132907698Y-78175576D01*
X132940485Y-78311500D01*
X132967700Y-78437559D01*
X132997057Y-78572350D01*
X133022080Y-78686150D01*
X133060072Y-78857600D01*
X133261236Y-78857600D01*
X133355075Y-78854972D01*
X133425550Y-78847996D01*
X133460585Y-78838028D01*
X133462400Y-78834996D01*
X133457492Y-78801783D01*
X133444477Y-78731548D01*
X133425920Y-78636938D01*
X133404384Y-78530596D01*
X133382436Y-78425168D01*
X133362639Y-78333300D01*
X133347557Y-78267635D01*
X133346338Y-78262720D01*
X133341402Y-78213411D01*
X133364522Y-78197436D01*
X133370747Y-78197200D01*
X133404774Y-78218341D01*
X133411600Y-78247112D01*
X133423973Y-78324296D01*
X133456390Y-78425794D01*
X133501799Y-78532946D01*
X133553148Y-78627096D01*
X133558105Y-78634726D01*
X133655761Y-78743131D01*
X133778869Y-78821048D01*
X133915066Y-78863866D01*
X134051991Y-78866973D01*
X134129391Y-78847844D01*
X134229859Y-78801825D01*
X134295183Y-78745623D01*
X134340906Y-78665661D01*
X134342635Y-78661565D01*
X134372865Y-78530118D01*
X134370435Y-78455810D01*
X133945000Y-78455810D01*
X133942141Y-78530240D01*
X133930027Y-78566702D01*
X133903360Y-78577873D01*
X133893827Y-78578200D01*
X133843790Y-78556095D01*
X133793816Y-78498172D01*
X133792258Y-78495650D01*
X133725053Y-78363266D01*
X133701089Y-78257172D01*
X133716731Y-78183882D01*
X133736568Y-78100564D01*
X133725040Y-77997504D01*
X133704575Y-77936850D01*
X133700798Y-77900224D01*
X133724311Y-77892400D01*
X133768423Y-77915811D01*
X133815060Y-77978977D01*
X133860068Y-78071292D01*
X133899293Y-78182150D01*
X133928582Y-78300946D01*
X133943779Y-78417075D01*
X133945000Y-78455810D01*
X134370435Y-78455810D01*
X134367681Y-78371648D01*
X134329302Y-78201511D01*
X134281803Y-78048897D01*
X134340129Y-78075472D01*
X134420111Y-78091885D01*
X134491472Y-78072870D01*
X134538051Y-78023902D01*
X134544267Y-78006313D01*
X134562796Y-77958978D01*
X134579644Y-77943200D01*
X134608271Y-77955640D01*
X134636434Y-77996217D01*
X134665903Y-78069816D01*
X134698449Y-78181323D01*
X134735843Y-78335622D01*
X134757960Y-78435168D01*
X134847020Y-78844900D01*
X135057155Y-78852289D01*
X135159813Y-78855345D01*
X135221237Y-78853980D01*
X135250953Y-78845735D01*
X135258488Y-78828152D01*
X135253992Y-78801489D01*
X135244741Y-78759089D01*
X135226925Y-78675789D01*
X135202417Y-78560405D01*
X135173088Y-78421751D01*
X135140811Y-78268645D01*
X135139139Y-78260700D01*
X135106766Y-78107184D01*
X135077238Y-77967761D01*
X135052427Y-77851225D01*
X135034206Y-77766366D01*
X135024447Y-77721979D01*
X135024208Y-77720950D01*
X135013792Y-77692325D01*
X134991702Y-77675275D01*
X134946821Y-77666829D01*
X134868028Y-77664019D01*
X134810233Y-77663800D01*
X134696613Y-77667487D01*
X134624864Y-77678130D01*
X134599953Y-77692842D01*
X134580118Y-77709181D01*
X134536006Y-77692842D01*
X134445659Y-77668128D01*
X134356609Y-77682186D01*
X134281863Y-77728180D01*
X134234428Y-77799272D01*
X134224400Y-77856621D01*
X134222804Y-77891203D01*
X134212537Y-77901976D01*
X134185387Y-77885740D01*
X134133138Y-77839295D01*
X134099595Y-77808010D01*
X134023872Y-77744311D01*
X133950999Y-77694722D01*
X133902745Y-77672155D01*
X133793388Y-77654778D01*
X133680771Y-77655469D01*
X133586436Y-77673430D01*
X133559446Y-77684840D01*
X133490950Y-77742198D01*
X133437062Y-77823379D01*
X133412000Y-77906137D01*
X133411600Y-77916166D01*
X133393941Y-77966062D01*
X133353634Y-77990273D01*
X133309684Y-77978189D01*
X133306232Y-77974991D01*
X133286597Y-77937063D01*
X133263844Y-77867337D01*
X133250199Y-77812868D01*
X133219919Y-77676500D01*
X132890310Y-77670818D01*
X132723678Y-77670273D01*
X132599793Y-77676460D01*
X132510833Y-77691261D01*
X132448977Y-77716557D01*
X132406403Y-77754227D01*
X132381703Y-77793116D01*
X132355546Y-77866229D01*
X132346950Y-77956730D01*
X132356220Y-78073463D01*
X132383658Y-78225268D01*
X132398922Y-78294033D01*
X132426213Y-78429662D01*
X132434594Y-78519400D01*
X132423701Y-78564647D01*
X132393174Y-78566805D01*
X132342651Y-78527274D01*
X132339532Y-78524167D01*
X132313328Y-78489440D01*
X132288597Y-78435929D01*
X132262948Y-78356046D01*
X132233988Y-78242200D01*
X132199323Y-78086800D01*
X132194422Y-78063850D01*
X132109305Y-77663800D01*
X131909553Y-77663800D01*
X131808742Y-77665113D01*
X131748611Y-77670597D01*
X131719072Y-77682566D01*
X131710038Y-77703337D01*
X131709800Y-77709651D01*
X131715043Y-77750306D01*
X131729422Y-77830057D01*
X131750918Y-77938440D01*
X131777508Y-78064994D01*
X131786000Y-78104134D01*
X131822927Y-78277247D01*
X131847470Y-78405797D01*
X131859436Y-78494540D01*
X131858631Y-78548230D01*
X131844860Y-78571621D01*
X131817929Y-78569469D01*
X131777645Y-78546526D01*
X131768196Y-78540021D01*
X131745181Y-78521459D01*
X131725209Y-78496963D01*
X131706483Y-78460499D01*
X131687206Y-78406034D01*
X131665583Y-78327534D01*
X131639814Y-78218966D01*
X131608105Y-78074296D01*
X131568658Y-77887490D01*
X131556416Y-77828900D01*
X131519494Y-77658991D01*
X131485069Y-77513981D01*
X131454820Y-77400199D01*
X131430424Y-77323976D01*
X131414061Y-77292007D01*
X131373981Y-77276014D01*
X131303038Y-77260131D01*
X131217309Y-77246511D01*
X131132869Y-77237310D01*
X131065795Y-77234678D01*
X131032163Y-77240771D01*
G36*
X134557925Y-77118609D02*
G01*
X134555677Y-77147081D01*
X134560947Y-77208062D01*
X134565460Y-77241282D01*
X134604024Y-77361015D01*
X134677725Y-77444550D01*
X134785506Y-77491336D01*
X134926310Y-77500819D01*
X135034962Y-77486732D01*
X135111302Y-77473323D01*
X135163526Y-77466500D01*
X135177809Y-77466827D01*
X135184280Y-77492358D01*
X135199862Y-77561207D01*
X135223161Y-77666992D01*
X135252783Y-77803330D01*
X135287334Y-77963838D01*
X135325420Y-78142132D01*
X135330381Y-78165450D01*
X135477567Y-78857600D01*
X135688386Y-78857600D01*
X135796986Y-78855518D01*
X135861340Y-78848595D01*
X135887858Y-78835814D01*
X135888615Y-78825850D01*
X135873707Y-78773010D01*
X135851244Y-78682983D01*
X135822902Y-78563421D01*
X135790356Y-78421975D01*
X135755283Y-78266297D01*
X135719358Y-78104039D01*
X135684257Y-77942852D01*
X135651655Y-77790390D01*
X135623229Y-77654302D01*
X135600653Y-77542242D01*
X135585604Y-77461861D01*
X135579758Y-77420811D01*
X135580129Y-77417204D01*
X135615625Y-77412337D01*
X135677353Y-77426374D01*
X135747450Y-77452999D01*
X135808051Y-77485894D01*
X135832953Y-77506596D01*
X135870304Y-77574163D01*
X135897068Y-77671558D01*
X135909739Y-77778300D01*
X135904808Y-77873914D01*
X135899699Y-77896240D01*
X135883416Y-77955545D01*
X135875536Y-77989211D01*
X135875400Y-77990713D01*
X135898105Y-77994123D01*
X135956088Y-77992078D01*
X136000134Y-77988477D01*
X136083716Y-77985181D01*
X136134870Y-77997877D01*
X136164390Y-78022650D01*
X136227467Y-78068424D01*
X136306367Y-78091701D01*
X136371025Y-78086290D01*
X136408412Y-78052950D01*
X136434342Y-78006328D01*
X136458847Y-77961815D01*
X136490564Y-77959020D01*
X136505869Y-77966174D01*
X136528962Y-77990540D01*
X136552111Y-78042560D01*
X136577418Y-78128775D01*
X136606984Y-78255727D01*
X136622498Y-78329146D01*
X136650540Y-78463125D01*
X136677182Y-78587496D01*
X136699647Y-78689488D01*
X136715160Y-78756328D01*
X136716669Y-78762350D01*
X136740959Y-78857600D01*
X137150908Y-78857600D01*
X137134970Y-78794100D01*
X137127557Y-78746177D01*
X137142912Y-78734446D01*
X137187423Y-78757726D01*
X137217912Y-78778773D01*
X137335356Y-78838847D01*
X137468345Y-78869565D01*
X137602213Y-78870508D01*
X137722292Y-78841256D01*
X137799094Y-78795387D01*
X137867635Y-78736431D01*
X137950067Y-78799304D01*
X138058513Y-78856470D01*
X138175415Y-78876361D01*
X138288497Y-78860683D01*
X138385485Y-78811138D01*
X138454104Y-78729432D01*
X138454166Y-78729312D01*
X138476002Y-78674524D01*
X138485532Y-78609828D01*
X138484100Y-78519756D01*
X138478609Y-78447911D01*
X138471173Y-78344826D01*
X138471798Y-78283172D01*
X138481223Y-78254113D01*
X138495307Y-78248388D01*
X138539719Y-78257983D01*
X138574473Y-78290896D01*
X138604005Y-78355039D01*
X138632749Y-78458324D01*
X138646114Y-78517401D01*
X138669633Y-78625443D01*
X138690414Y-78720313D01*
X138705126Y-78786824D01*
X138708578Y-78802141D01*
X138717576Y-78829753D01*
X138736022Y-78846856D01*
X138774139Y-78855765D01*
X138842150Y-78858797D01*
X138950279Y-78858266D01*
X138956059Y-78858198D01*
X139076483Y-78858775D01*
X139192472Y-78862745D01*
X139284126Y-78869325D01*
X139305570Y-78871926D01*
X139384595Y-78878291D01*
X139439813Y-78864771D01*
X139496372Y-78825046D01*
X139498181Y-78823528D01*
X139575323Y-78758617D01*
X139698167Y-78820808D01*
X139812788Y-78867760D01*
X139910577Y-78878886D01*
X140009372Y-78855486D01*
X140034150Y-78845342D01*
X140128190Y-78777893D01*
X140190746Y-78673398D01*
X140219254Y-78536579D01*
X140220711Y-78502000D01*
X140221844Y-78463464D01*
X139804291Y-78463464D01*
X139795010Y-78526568D01*
X139787981Y-78538918D01*
X139743197Y-78560049D01*
X139689553Y-78541792D01*
X139641845Y-78489717D01*
X139637704Y-78482367D01*
X139620977Y-78436651D01*
X139599800Y-78358741D01*
X139576694Y-78260865D01*
X139554183Y-78155252D01*
X139534789Y-78054132D01*
X139521035Y-77969732D01*
X139515443Y-77914283D01*
X139517463Y-77899470D01*
X139554850Y-77893407D01*
X139606363Y-77922563D01*
X139660958Y-77978030D01*
X139707590Y-78050905D01*
X139709108Y-78054003D01*
X139748346Y-78152855D01*
X139778757Y-78263072D01*
X139798139Y-78371120D01*
X139804291Y-78463464D01*
X140221844Y-78463464D01*
X140222896Y-78427721D01*
X140227149Y-78394346D01*
X140234258Y-78403989D01*
X140245010Y-78458762D01*
X140260191Y-78560779D01*
X140270386Y-78635350D01*
X140300248Y-78857600D01*
X140500824Y-78857600D01*
X140602130Y-78856224D01*
X140662644Y-78850624D01*
X140692333Y-78838590D01*
X140701163Y-78817911D01*
X140701307Y-78813150D01*
X140696621Y-78773767D01*
X140683754Y-78694255D01*
X140664391Y-78584314D01*
X140640218Y-78453647D01*
X140625200Y-78375000D01*
X140599275Y-78238820D01*
X140598235Y-78233183D01*
X140216795Y-78233183D01*
X140212125Y-78266127D01*
X140203455Y-78266520D01*
X140197391Y-78232525D01*
X140201449Y-78217837D01*
X140212728Y-78208216D01*
X140216795Y-78233183D01*
X140598235Y-78233183D01*
X140577298Y-78119749D01*
X140560901Y-78026918D01*
X140551715Y-77969461D01*
X140550337Y-77955900D01*
X140559021Y-77970428D01*
X140582544Y-78025880D01*
X140618221Y-78115498D01*
X140663368Y-78232523D01*
X140715301Y-78370198D01*
X140721829Y-78387700D01*
X140892171Y-78844900D01*
X141091953Y-78852373D01*
X141291735Y-78859847D01*
X141276503Y-78725373D01*
X141261556Y-78586340D01*
X141247402Y-78441917D01*
X141234769Y-78301171D01*
X141224385Y-78173169D01*
X141216979Y-78066978D01*
X141213278Y-77991663D01*
X141214012Y-77956292D01*
X141214618Y-77954915D01*
X141225350Y-77974468D01*
X141248944Y-78035187D01*
X141282818Y-78129841D01*
X141324388Y-78251202D01*
X141371071Y-78392039D01*
X141373989Y-78400983D01*
X141522812Y-78857600D01*
X141658206Y-78857600D01*
X141733380Y-78855602D01*
X141782542Y-78850466D01*
X141793601Y-78845813D01*
X141785149Y-78819314D01*
X141761726Y-78753241D01*
X141726228Y-78655577D01*
X141681549Y-78534301D01*
X141641201Y-78425800D01*
X141591269Y-78291396D01*
X141548204Y-78174228D01*
X141514901Y-78082276D01*
X141494256Y-78023521D01*
X141488801Y-78005786D01*
X141510233Y-77996298D01*
X141541270Y-77994000D01*
X141626744Y-77974060D01*
X141707635Y-77923996D01*
X141735643Y-77894601D01*
X141760613Y-77828694D01*
X141762366Y-77796334D01*
X141461975Y-77796334D01*
X141460549Y-77930500D01*
X141360679Y-77663800D01*
X141320724Y-77556266D01*
X141288321Y-77467466D01*
X141267084Y-77407414D01*
X141260504Y-77386322D01*
X141276495Y-77394235D01*
X141316385Y-77427489D01*
X141326974Y-77437122D01*
X141410512Y-77546077D01*
X141454298Y-77683621D01*
X141461975Y-77796334D01*
X141762366Y-77796334D01*
X141765675Y-77735251D01*
X141751702Y-77633094D01*
X141719564Y-77541042D01*
X141719240Y-77540405D01*
X141628419Y-77411611D01*
X141500963Y-77297155D01*
X141350637Y-77205562D01*
X141191209Y-77145354D01*
X141048300Y-77125009D01*
X140971961Y-77124270D01*
X140914212Y-77127645D01*
X140873065Y-77141198D01*
X140846536Y-77170991D01*
X140832638Y-77223087D01*
X140829386Y-77303548D01*
X140834793Y-77418437D01*
X140846873Y-77573818D01*
X140857927Y-77706192D01*
X140871103Y-77866641D01*
X140882716Y-78011222D01*
X140892134Y-78131797D01*
X140898724Y-78220225D01*
X140901854Y-78268367D01*
X140902024Y-78273400D01*
X140893631Y-78261479D01*
X140869927Y-78207853D01*
X140833298Y-78118434D01*
X140786127Y-77999138D01*
X140730799Y-77855875D01*
X140684400Y-77733650D01*
X140466578Y-77155800D01*
X140266489Y-77155800D01*
X140161572Y-77157899D01*
X140099028Y-77165183D01*
X140070567Y-77179134D01*
X140066400Y-77191541D01*
X140069922Y-77227460D01*
X140079683Y-77304656D01*
X140094475Y-77414153D01*
X140113092Y-77546977D01*
X140129900Y-77663800D01*
X140155831Y-77843550D01*
X140174250Y-77977267D01*
X140185195Y-78069149D01*
X140188707Y-78123398D01*
X140184824Y-78144216D01*
X140173587Y-78135802D01*
X140155034Y-78102357D01*
X140133594Y-78057500D01*
X140036136Y-77890722D01*
X139921099Y-77768751D01*
X139838305Y-77714857D01*
X139790356Y-77694506D01*
X139733457Y-77680551D01*
X139657287Y-77671838D01*
X139551523Y-77667212D01*
X139405846Y-77665518D01*
X139397000Y-77665489D01*
X139257862Y-77665585D01*
X139161699Y-77667534D01*
X139100696Y-77672340D01*
X139067036Y-77681005D01*
X139052903Y-77694534D01*
X139050400Y-77709969D01*
X139055642Y-77750502D01*
X139070019Y-77830143D01*
X139091510Y-77938441D01*
X139118097Y-78064944D01*
X139126600Y-78104134D01*
X139162198Y-78271441D01*
X139185849Y-78395458D01*
X139198039Y-78482148D01*
X139199255Y-78537476D01*
X139189985Y-78567407D01*
X139170714Y-78577905D01*
X139165286Y-78578200D01*
X139136771Y-78570481D01*
X139110036Y-78544035D01*
X139083394Y-78493920D01*
X139055160Y-78415200D01*
X139023649Y-78302934D01*
X138987175Y-78152185D01*
X138944053Y-77958013D01*
X138927841Y-77882461D01*
X138891445Y-77717213D01*
X138856499Y-77568613D01*
X138824886Y-77443895D01*
X138798489Y-77350291D01*
X138779189Y-77295036D01*
X138771970Y-77283399D01*
X138735522Y-77272540D01*
X138667384Y-77260344D01*
X138582840Y-77248631D01*
X138497174Y-77239221D01*
X138425672Y-77233935D01*
X138383617Y-77234591D01*
X138378676Y-77236570D01*
X138381437Y-77262961D01*
X138393516Y-77329495D01*
X138413074Y-77426755D01*
X138438276Y-77545326D01*
X138444338Y-77573075D01*
X138470506Y-77694865D01*
X138491427Y-77797222D01*
X138505269Y-77870791D01*
X138510200Y-77906215D01*
X138509907Y-77907960D01*
X138488389Y-77896602D01*
X138436940Y-77860665D01*
X138365428Y-77807135D01*
X138342109Y-77789135D01*
X138259949Y-77726800D01*
X138200010Y-77689561D01*
X138144704Y-77670956D01*
X138076442Y-77664523D01*
X138000931Y-77663800D01*
X137908800Y-77666687D01*
X137854789Y-77674726D01*
X137845170Y-77686961D01*
X137876308Y-77709320D01*
X137940444Y-77750630D01*
X138026810Y-77804056D01*
X138085200Y-77839312D01*
X138170863Y-77892970D01*
X138231524Y-77935747D01*
X138260160Y-77962362D01*
X138257051Y-77968551D01*
X138211149Y-77984668D01*
X138151107Y-78024743D01*
X138133904Y-78039273D01*
X138068380Y-78130469D01*
X138038036Y-78249901D01*
X138044849Y-78387359D01*
X138056603Y-78438660D01*
X138070910Y-78522372D01*
X138059013Y-78563747D01*
X138024146Y-78571873D01*
X137986583Y-78536760D01*
X137950557Y-78465496D01*
X137920301Y-78365165D01*
X137910028Y-78314331D01*
X137878464Y-78193567D01*
X137457689Y-78193567D01*
X137431546Y-78186731D01*
X137378693Y-78137727D01*
X137351232Y-78107416D01*
X137291125Y-78017470D01*
X137272400Y-77942316D01*
X137280423Y-77883538D01*
X137303127Y-77872185D01*
X137338470Y-77907712D01*
X137374442Y-77969465D01*
X137429278Y-78084094D01*
X137456980Y-78159075D01*
X137457689Y-78193567D01*
X137878464Y-78193567D01*
X137855736Y-78106612D01*
X137773078Y-77934725D01*
X137664517Y-77801327D01*
X137532517Y-77709071D01*
X137379544Y-77660613D01*
X137296730Y-77653648D01*
X137204146Y-77656362D01*
X137143025Y-77671104D01*
X137094485Y-77703108D01*
X137084048Y-77712582D01*
X137020660Y-77804227D01*
X136999901Y-77914099D01*
X137020963Y-78034087D01*
X137083036Y-78156081D01*
X137134872Y-78221659D01*
X137249092Y-78317354D01*
X137401626Y-78391342D01*
X137456550Y-78410149D01*
X137492833Y-78446958D01*
X137501000Y-78500718D01*
X137490976Y-78560070D01*
X137453059Y-78588686D01*
X137438849Y-78592831D01*
X137343475Y-78593114D01*
X137239342Y-78555024D01*
X137142102Y-78484741D01*
X137127129Y-78469771D01*
X137094375Y-78430882D01*
X137067873Y-78385545D01*
X137044282Y-78324146D01*
X137020260Y-78237067D01*
X136992465Y-78114693D01*
X136975032Y-78032100D01*
X136901044Y-77676500D01*
X136689891Y-77669072D01*
X136586318Y-77666583D01*
X136524637Y-77669042D01*
X136496060Y-77677885D01*
X136491801Y-77694549D01*
X136493887Y-77701121D01*
X136498873Y-77724728D01*
X136479483Y-77723567D01*
X136430000Y-77699728D01*
X136347818Y-77673350D01*
X136281330Y-77672784D01*
X136234965Y-77677134D01*
X136211500Y-77657002D01*
X136197835Y-77599922D01*
X136196572Y-77592136D01*
X136152024Y-77465635D01*
X136065223Y-77349112D01*
X135944688Y-77250910D01*
X135798942Y-77179375D01*
X135763163Y-77167694D01*
X135651083Y-77146051D01*
X135502836Y-77134391D01*
X135332109Y-77132933D01*
X135152589Y-77141901D01*
X135020071Y-77155646D01*
X134888164Y-77166798D01*
X134779484Y-77160226D01*
X134702605Y-77144244D01*
X134626611Y-77126508D01*
X134573448Y-77117811D01*
X134557925Y-77118609D01*
X134557925Y-77118609D01*
G37*
X134557925Y-77118609D02*
X134555677Y-77147081D01*
X134560947Y-77208062D01*
X134565460Y-77241282D01*
X134604024Y-77361015D01*
X134677725Y-77444550D01*
X134785506Y-77491336D01*
X134926310Y-77500819D01*
X135034962Y-77486732D01*
X135111302Y-77473323D01*
X135163526Y-77466500D01*
X135177809Y-77466827D01*
X135184280Y-77492358D01*
X135199862Y-77561207D01*
X135223161Y-77666992D01*
X135252783Y-77803330D01*
X135287334Y-77963838D01*
X135325420Y-78142132D01*
X135330381Y-78165450D01*
X135477567Y-78857600D01*
X135688386Y-78857600D01*
X135796986Y-78855518D01*
X135861340Y-78848595D01*
X135887858Y-78835814D01*
X135888615Y-78825850D01*
X135873707Y-78773010D01*
X135851244Y-78682983D01*
X135822902Y-78563421D01*
X135790356Y-78421975D01*
X135755283Y-78266297D01*
X135719358Y-78104039D01*
X135684257Y-77942852D01*
X135651655Y-77790390D01*
X135623229Y-77654302D01*
X135600653Y-77542242D01*
X135585604Y-77461861D01*
X135579758Y-77420811D01*
X135580129Y-77417204D01*
X135615625Y-77412337D01*
X135677353Y-77426374D01*
X135747450Y-77452999D01*
X135808051Y-77485894D01*
X135832953Y-77506596D01*
X135870304Y-77574163D01*
X135897068Y-77671558D01*
X135909739Y-77778300D01*
X135904808Y-77873914D01*
X135899699Y-77896240D01*
X135883416Y-77955545D01*
X135875536Y-77989211D01*
X135875400Y-77990713D01*
X135898105Y-77994123D01*
X135956088Y-77992078D01*
X136000134Y-77988477D01*
X136083716Y-77985181D01*
X136134870Y-77997877D01*
X136164390Y-78022650D01*
X136227467Y-78068424D01*
X136306367Y-78091701D01*
X136371025Y-78086290D01*
X136408412Y-78052950D01*
X136434342Y-78006328D01*
X136458847Y-77961815D01*
X136490564Y-77959020D01*
X136505869Y-77966174D01*
X136528962Y-77990540D01*
X136552111Y-78042560D01*
X136577418Y-78128775D01*
X136606984Y-78255727D01*
X136622498Y-78329146D01*
X136650540Y-78463125D01*
X136677182Y-78587496D01*
X136699647Y-78689488D01*
X136715160Y-78756328D01*
X136716669Y-78762350D01*
X136740959Y-78857600D01*
X137150908Y-78857600D01*
X137134970Y-78794100D01*
X137127557Y-78746177D01*
X137142912Y-78734446D01*
X137187423Y-78757726D01*
X137217912Y-78778773D01*
X137335356Y-78838847D01*
X137468345Y-78869565D01*
X137602213Y-78870508D01*
X137722292Y-78841256D01*
X137799094Y-78795387D01*
X137867635Y-78736431D01*
X137950067Y-78799304D01*
X138058513Y-78856470D01*
X138175415Y-78876361D01*
X138288497Y-78860683D01*
X138385485Y-78811138D01*
X138454104Y-78729432D01*
X138454166Y-78729312D01*
X138476002Y-78674524D01*
X138485532Y-78609828D01*
X138484100Y-78519756D01*
X138478609Y-78447911D01*
X138471173Y-78344826D01*
X138471798Y-78283172D01*
X138481223Y-78254113D01*
X138495307Y-78248388D01*
X138539719Y-78257983D01*
X138574473Y-78290896D01*
X138604005Y-78355039D01*
X138632749Y-78458324D01*
X138646114Y-78517401D01*
X138669633Y-78625443D01*
X138690414Y-78720313D01*
X138705126Y-78786824D01*
X138708578Y-78802141D01*
X138717576Y-78829753D01*
X138736022Y-78846856D01*
X138774139Y-78855765D01*
X138842150Y-78858797D01*
X138950279Y-78858266D01*
X138956059Y-78858198D01*
X139076483Y-78858775D01*
X139192472Y-78862745D01*
X139284126Y-78869325D01*
X139305570Y-78871926D01*
X139384595Y-78878291D01*
X139439813Y-78864771D01*
X139496372Y-78825046D01*
X139498181Y-78823528D01*
X139575323Y-78758617D01*
X139698167Y-78820808D01*
X139812788Y-78867760D01*
X139910577Y-78878886D01*
X140009372Y-78855486D01*
X140034150Y-78845342D01*
X140128190Y-78777893D01*
X140190746Y-78673398D01*
X140219254Y-78536579D01*
X140220711Y-78502000D01*
X140221844Y-78463464D01*
X139804291Y-78463464D01*
X139795010Y-78526568D01*
X139787981Y-78538918D01*
X139743197Y-78560049D01*
X139689553Y-78541792D01*
X139641845Y-78489717D01*
X139637704Y-78482367D01*
X139620977Y-78436651D01*
X139599800Y-78358741D01*
X139576694Y-78260865D01*
X139554183Y-78155252D01*
X139534789Y-78054132D01*
X139521035Y-77969732D01*
X139515443Y-77914283D01*
X139517463Y-77899470D01*
X139554850Y-77893407D01*
X139606363Y-77922563D01*
X139660958Y-77978030D01*
X139707590Y-78050905D01*
X139709108Y-78054003D01*
X139748346Y-78152855D01*
X139778757Y-78263072D01*
X139798139Y-78371120D01*
X139804291Y-78463464D01*
X140221844Y-78463464D01*
X140222896Y-78427721D01*
X140227149Y-78394346D01*
X140234258Y-78403989D01*
X140245010Y-78458762D01*
X140260191Y-78560779D01*
X140270386Y-78635350D01*
X140300248Y-78857600D01*
X140500824Y-78857600D01*
X140602130Y-78856224D01*
X140662644Y-78850624D01*
X140692333Y-78838590D01*
X140701163Y-78817911D01*
X140701307Y-78813150D01*
X140696621Y-78773767D01*
X140683754Y-78694255D01*
X140664391Y-78584314D01*
X140640218Y-78453647D01*
X140625200Y-78375000D01*
X140599275Y-78238820D01*
X140598235Y-78233183D01*
X140216795Y-78233183D01*
X140212125Y-78266127D01*
X140203455Y-78266520D01*
X140197391Y-78232525D01*
X140201449Y-78217837D01*
X140212728Y-78208216D01*
X140216795Y-78233183D01*
X140598235Y-78233183D01*
X140577298Y-78119749D01*
X140560901Y-78026918D01*
X140551715Y-77969461D01*
X140550337Y-77955900D01*
X140559021Y-77970428D01*
X140582544Y-78025880D01*
X140618221Y-78115498D01*
X140663368Y-78232523D01*
X140715301Y-78370198D01*
X140721829Y-78387700D01*
X140892171Y-78844900D01*
X141091953Y-78852373D01*
X141291735Y-78859847D01*
X141276503Y-78725373D01*
X141261556Y-78586340D01*
X141247402Y-78441917D01*
X141234769Y-78301171D01*
X141224385Y-78173169D01*
X141216979Y-78066978D01*
X141213278Y-77991663D01*
X141214012Y-77956292D01*
X141214618Y-77954915D01*
X141225350Y-77974468D01*
X141248944Y-78035187D01*
X141282818Y-78129841D01*
X141324388Y-78251202D01*
X141371071Y-78392039D01*
X141373989Y-78400983D01*
X141522812Y-78857600D01*
X141658206Y-78857600D01*
X141733380Y-78855602D01*
X141782542Y-78850466D01*
X141793601Y-78845813D01*
X141785149Y-78819314D01*
X141761726Y-78753241D01*
X141726228Y-78655577D01*
X141681549Y-78534301D01*
X141641201Y-78425800D01*
X141591269Y-78291396D01*
X141548204Y-78174228D01*
X141514901Y-78082276D01*
X141494256Y-78023521D01*
X141488801Y-78005786D01*
X141510233Y-77996298D01*
X141541270Y-77994000D01*
X141626744Y-77974060D01*
X141707635Y-77923996D01*
X141735643Y-77894601D01*
X141760613Y-77828694D01*
X141762366Y-77796334D01*
X141461975Y-77796334D01*
X141460549Y-77930500D01*
X141360679Y-77663800D01*
X141320724Y-77556266D01*
X141288321Y-77467466D01*
X141267084Y-77407414D01*
X141260504Y-77386322D01*
X141276495Y-77394235D01*
X141316385Y-77427489D01*
X141326974Y-77437122D01*
X141410512Y-77546077D01*
X141454298Y-77683621D01*
X141461975Y-77796334D01*
X141762366Y-77796334D01*
X141765675Y-77735251D01*
X141751702Y-77633094D01*
X141719564Y-77541042D01*
X141719240Y-77540405D01*
X141628419Y-77411611D01*
X141500963Y-77297155D01*
X141350637Y-77205562D01*
X141191209Y-77145354D01*
X141048300Y-77125009D01*
X140971961Y-77124270D01*
X140914212Y-77127645D01*
X140873065Y-77141198D01*
X140846536Y-77170991D01*
X140832638Y-77223087D01*
X140829386Y-77303548D01*
X140834793Y-77418437D01*
X140846873Y-77573818D01*
X140857927Y-77706192D01*
X140871103Y-77866641D01*
X140882716Y-78011222D01*
X140892134Y-78131797D01*
X140898724Y-78220225D01*
X140901854Y-78268367D01*
X140902024Y-78273400D01*
X140893631Y-78261479D01*
X140869927Y-78207853D01*
X140833298Y-78118434D01*
X140786127Y-77999138D01*
X140730799Y-77855875D01*
X140684400Y-77733650D01*
X140466578Y-77155800D01*
X140266489Y-77155800D01*
X140161572Y-77157899D01*
X140099028Y-77165183D01*
X140070567Y-77179134D01*
X140066400Y-77191541D01*
X140069922Y-77227460D01*
X140079683Y-77304656D01*
X140094475Y-77414153D01*
X140113092Y-77546977D01*
X140129900Y-77663800D01*
X140155831Y-77843550D01*
X140174250Y-77977267D01*
X140185195Y-78069149D01*
X140188707Y-78123398D01*
X140184824Y-78144216D01*
X140173587Y-78135802D01*
X140155034Y-78102357D01*
X140133594Y-78057500D01*
X140036136Y-77890722D01*
X139921099Y-77768751D01*
X139838305Y-77714857D01*
X139790356Y-77694506D01*
X139733457Y-77680551D01*
X139657287Y-77671838D01*
X139551523Y-77667212D01*
X139405846Y-77665518D01*
X139397000Y-77665489D01*
X139257862Y-77665585D01*
X139161699Y-77667534D01*
X139100696Y-77672340D01*
X139067036Y-77681005D01*
X139052903Y-77694534D01*
X139050400Y-77709969D01*
X139055642Y-77750502D01*
X139070019Y-77830143D01*
X139091510Y-77938441D01*
X139118097Y-78064944D01*
X139126600Y-78104134D01*
X139162198Y-78271441D01*
X139185849Y-78395458D01*
X139198039Y-78482148D01*
X139199255Y-78537476D01*
X139189985Y-78567407D01*
X139170714Y-78577905D01*
X139165286Y-78578200D01*
X139136771Y-78570481D01*
X139110036Y-78544035D01*
X139083394Y-78493920D01*
X139055160Y-78415200D01*
X139023649Y-78302934D01*
X138987175Y-78152185D01*
X138944053Y-77958013D01*
X138927841Y-77882461D01*
X138891445Y-77717213D01*
X138856499Y-77568613D01*
X138824886Y-77443895D01*
X138798489Y-77350291D01*
X138779189Y-77295036D01*
X138771970Y-77283399D01*
X138735522Y-77272540D01*
X138667384Y-77260344D01*
X138582840Y-77248631D01*
X138497174Y-77239221D01*
X138425672Y-77233935D01*
X138383617Y-77234591D01*
X138378676Y-77236570D01*
X138381437Y-77262961D01*
X138393516Y-77329495D01*
X138413074Y-77426755D01*
X138438276Y-77545326D01*
X138444338Y-77573075D01*
X138470506Y-77694865D01*
X138491427Y-77797222D01*
X138505269Y-77870791D01*
X138510200Y-77906215D01*
X138509907Y-77907960D01*
X138488389Y-77896602D01*
X138436940Y-77860665D01*
X138365428Y-77807135D01*
X138342109Y-77789135D01*
X138259949Y-77726800D01*
X138200010Y-77689561D01*
X138144704Y-77670956D01*
X138076442Y-77664523D01*
X138000931Y-77663800D01*
X137908800Y-77666687D01*
X137854789Y-77674726D01*
X137845170Y-77686961D01*
X137876308Y-77709320D01*
X137940444Y-77750630D01*
X138026810Y-77804056D01*
X138085200Y-77839312D01*
X138170863Y-77892970D01*
X138231524Y-77935747D01*
X138260160Y-77962362D01*
X138257051Y-77968551D01*
X138211149Y-77984668D01*
X138151107Y-78024743D01*
X138133904Y-78039273D01*
X138068380Y-78130469D01*
X138038036Y-78249901D01*
X138044849Y-78387359D01*
X138056603Y-78438660D01*
X138070910Y-78522372D01*
X138059013Y-78563747D01*
X138024146Y-78571873D01*
X137986583Y-78536760D01*
X137950557Y-78465496D01*
X137920301Y-78365165D01*
X137910028Y-78314331D01*
X137878464Y-78193567D01*
X137457689Y-78193567D01*
X137431546Y-78186731D01*
X137378693Y-78137727D01*
X137351232Y-78107416D01*
X137291125Y-78017470D01*
X137272400Y-77942316D01*
X137280423Y-77883538D01*
X137303127Y-77872185D01*
X137338470Y-77907712D01*
X137374442Y-77969465D01*
X137429278Y-78084094D01*
X137456980Y-78159075D01*
X137457689Y-78193567D01*
X137878464Y-78193567D01*
X137855736Y-78106612D01*
X137773078Y-77934725D01*
X137664517Y-77801327D01*
X137532517Y-77709071D01*
X137379544Y-77660613D01*
X137296730Y-77653648D01*
X137204146Y-77656362D01*
X137143025Y-77671104D01*
X137094485Y-77703108D01*
X137084048Y-77712582D01*
X137020660Y-77804227D01*
X136999901Y-77914099D01*
X137020963Y-78034087D01*
X137083036Y-78156081D01*
X137134872Y-78221659D01*
X137249092Y-78317354D01*
X137401626Y-78391342D01*
X137456550Y-78410149D01*
X137492833Y-78446958D01*
X137501000Y-78500718D01*
X137490976Y-78560070D01*
X137453059Y-78588686D01*
X137438849Y-78592831D01*
X137343475Y-78593114D01*
X137239342Y-78555024D01*
X137142102Y-78484741D01*
X137127129Y-78469771D01*
X137094375Y-78430882D01*
X137067873Y-78385545D01*
X137044282Y-78324146D01*
X137020260Y-78237067D01*
X136992465Y-78114693D01*
X136975032Y-78032100D01*
X136901044Y-77676500D01*
X136689891Y-77669072D01*
X136586318Y-77666583D01*
X136524637Y-77669042D01*
X136496060Y-77677885D01*
X136491801Y-77694549D01*
X136493887Y-77701121D01*
X136498873Y-77724728D01*
X136479483Y-77723567D01*
X136430000Y-77699728D01*
X136347818Y-77673350D01*
X136281330Y-77672784D01*
X136234965Y-77677134D01*
X136211500Y-77657002D01*
X136197835Y-77599922D01*
X136196572Y-77592136D01*
X136152024Y-77465635D01*
X136065223Y-77349112D01*
X135944688Y-77250910D01*
X135798942Y-77179375D01*
X135763163Y-77167694D01*
X135651083Y-77146051D01*
X135502836Y-77134391D01*
X135332109Y-77132933D01*
X135152589Y-77141901D01*
X135020071Y-77155646D01*
X134888164Y-77166798D01*
X134779484Y-77160226D01*
X134702605Y-77144244D01*
X134626611Y-77126508D01*
X134573448Y-77117811D01*
X134557925Y-77118609D01*
G36*
X135066480Y-79273868D02*
G01*
X135044964Y-79292897D01*
X135043591Y-79337792D01*
X135059036Y-79416767D01*
X135084642Y-79524081D01*
X135131686Y-79720662D01*
X135039993Y-79707049D01*
X134921309Y-79711655D01*
X134823770Y-79761226D01*
X134752369Y-79852562D01*
X134730462Y-79905333D01*
X134690424Y-80025966D01*
X134638465Y-79968833D01*
X134592653Y-79912184D01*
X134538321Y-79836638D01*
X134517640Y-79805656D01*
X134476738Y-79745240D01*
X134440777Y-79707098D01*
X134396051Y-79684421D01*
X134328854Y-79670404D01*
X134225478Y-79658238D01*
X134219532Y-79657601D01*
X134157183Y-79650461D01*
X134110028Y-79648205D01*
X134075682Y-79656854D01*
X134051764Y-79682431D01*
X134035893Y-79730955D01*
X134025686Y-79808448D01*
X134018761Y-79920931D01*
X134012736Y-80074425D01*
X134008472Y-80191100D01*
X134002958Y-80352122D01*
X134000619Y-80471121D01*
X134001959Y-80556805D01*
X134007478Y-80617881D01*
X134017679Y-80663056D01*
X134033064Y-80701036D01*
X134038490Y-80711800D01*
X134109696Y-80798146D01*
X134214605Y-80863613D01*
X134339009Y-80904202D01*
X134468699Y-80915919D01*
X134589467Y-80894765D01*
X134628913Y-80877875D01*
X134685103Y-80827764D01*
X134736785Y-80747651D01*
X134772915Y-80657916D01*
X134776783Y-80633566D01*
X134567300Y-80633566D01*
X134499162Y-80634583D01*
X134438450Y-80619352D01*
X134414293Y-80582885D01*
X134406946Y-80534605D01*
X134412581Y-80515152D01*
X134426530Y-80519367D01*
X134427600Y-80528955D01*
X134447781Y-80560119D01*
X134496424Y-80595112D01*
X134497450Y-80595671D01*
X134567300Y-80633566D01*
X134776783Y-80633566D01*
X134783200Y-80593175D01*
X134795666Y-80586616D01*
X134828963Y-80617962D01*
X134859205Y-80656699D01*
X134974479Y-80783994D01*
X135105828Y-80865524D01*
X135261067Y-80905648D01*
X135313793Y-80910281D01*
X135411518Y-80912842D01*
X135478546Y-80904590D01*
X135534540Y-80881379D01*
X135576383Y-80854912D01*
X135671066Y-80790300D01*
X135779583Y-80852344D01*
X135906636Y-80903818D01*
X136028010Y-80913248D01*
X136134334Y-80880581D01*
X136171908Y-80854580D01*
X136243713Y-80794160D01*
X136331890Y-80854580D01*
X136438888Y-80901027D01*
X136561602Y-80913918D01*
X136675500Y-80890767D01*
X136768014Y-80826898D01*
X136831926Y-80728798D01*
X136867367Y-80604132D01*
X136873236Y-80485407D01*
X136454022Y-80485407D01*
X136446852Y-80568001D01*
X136421030Y-80609661D01*
X136378205Y-80607727D01*
X136320103Y-80559623D01*
X136296057Y-80515294D01*
X136268295Y-80437345D01*
X136239615Y-80337869D01*
X136212817Y-80228962D01*
X136190699Y-80122718D01*
X136176060Y-80031232D01*
X136171699Y-79966600D01*
X136177304Y-79942536D01*
X136219076Y-79929194D01*
X136267556Y-79958272D01*
X136318286Y-80022632D01*
X136366809Y-80115137D01*
X136408666Y-80228648D01*
X136439398Y-80356028D01*
X136440892Y-80364541D01*
X136454022Y-80485407D01*
X136873236Y-80485407D01*
X136874465Y-80460566D01*
X136853348Y-80305764D01*
X136804146Y-80147391D01*
X136726988Y-79993113D01*
X136658769Y-79894649D01*
X136593204Y-79822579D01*
X136520546Y-79770105D01*
X136431614Y-79734347D01*
X136317221Y-79712422D01*
X136168186Y-79701451D01*
X136034150Y-79698716D01*
X135889797Y-79698950D01*
X135790189Y-79702305D01*
X135729337Y-79709312D01*
X135701251Y-79720501D01*
X135697600Y-79728546D01*
X135702596Y-79763163D01*
X135716416Y-79838452D01*
X135737311Y-79945398D01*
X135763531Y-80074986D01*
X135784137Y-80174439D01*
X135815810Y-80328414D01*
X135837068Y-80439906D01*
X135848684Y-80515983D01*
X135851429Y-80563714D01*
X135846075Y-80590170D01*
X135833393Y-80602419D01*
X135830980Y-80603439D01*
X135794092Y-80604444D01*
X135759708Y-80574918D01*
X135743996Y-80544964D01*
X135283334Y-80544964D01*
X135281470Y-80573520D01*
X135249604Y-80607091D01*
X135202872Y-80598298D01*
X135150669Y-80549411D01*
X135144056Y-80540350D01*
X135080957Y-80417936D01*
X135074708Y-80388119D01*
X134730929Y-80388119D01*
X134725245Y-80403201D01*
X134698362Y-80383480D01*
X134689124Y-80375250D01*
X134627533Y-80342700D01*
X134560765Y-80330800D01*
X134492837Y-80341927D01*
X134446047Y-80366782D01*
X134425651Y-80381291D01*
X134416961Y-80365432D01*
X134417808Y-80311040D01*
X134420745Y-80271532D01*
X134430077Y-80171799D01*
X134441811Y-80115871D01*
X134461808Y-80096871D01*
X134495933Y-80107920D01*
X134537882Y-80134128D01*
X134603468Y-80177196D01*
X134655951Y-80211538D01*
X134663570Y-80216500D01*
X134694836Y-80257344D01*
X134719015Y-80323124D01*
X134720696Y-80330800D01*
X134730929Y-80388119D01*
X135074708Y-80388119D01*
X135050443Y-80272349D01*
X135048058Y-80127600D01*
X135058874Y-80022731D01*
X135080572Y-79964833D01*
X135115168Y-79950857D01*
X135152966Y-79968881D01*
X135169621Y-80001233D01*
X135191388Y-80071203D01*
X135215595Y-80166209D01*
X135239567Y-80273670D01*
X135260630Y-80381004D01*
X135276111Y-80475629D01*
X135283334Y-80544964D01*
X135743996Y-80544964D01*
X135726000Y-80510659D01*
X135691145Y-80407466D01*
X135653318Y-80261136D01*
X135622554Y-80123622D01*
X135589533Y-79969354D01*
X135556251Y-79813797D01*
X135525984Y-79672257D01*
X135502003Y-79560040D01*
X135496034Y-79532080D01*
X135474225Y-79434145D01*
X135451944Y-79369565D01*
X135418728Y-79329927D01*
X135364111Y-79306814D01*
X135277629Y-79291812D01*
X135183250Y-79280552D01*
X135111467Y-79272491D01*
X135066480Y-79273868D01*
X135066480Y-79273868D01*
G37*
X135066480Y-79273868D02*
X135044964Y-79292897D01*
X135043591Y-79337792D01*
X135059036Y-79416767D01*
X135084642Y-79524081D01*
X135131686Y-79720662D01*
X135039993Y-79707049D01*
X134921309Y-79711655D01*
X134823770Y-79761226D01*
X134752369Y-79852562D01*
X134730462Y-79905333D01*
X134690424Y-80025966D01*
X134638465Y-79968833D01*
X134592653Y-79912184D01*
X134538321Y-79836638D01*
X134517640Y-79805656D01*
X134476738Y-79745240D01*
X134440777Y-79707098D01*
X134396051Y-79684421D01*
X134328854Y-79670404D01*
X134225478Y-79658238D01*
X134219532Y-79657601D01*
X134157183Y-79650461D01*
X134110028Y-79648205D01*
X134075682Y-79656854D01*
X134051764Y-79682431D01*
X134035893Y-79730955D01*
X134025686Y-79808448D01*
X134018761Y-79920931D01*
X134012736Y-80074425D01*
X134008472Y-80191100D01*
X134002958Y-80352122D01*
X134000619Y-80471121D01*
X134001959Y-80556805D01*
X134007478Y-80617881D01*
X134017679Y-80663056D01*
X134033064Y-80701036D01*
X134038490Y-80711800D01*
X134109696Y-80798146D01*
X134214605Y-80863613D01*
X134339009Y-80904202D01*
X134468699Y-80915919D01*
X134589467Y-80894765D01*
X134628913Y-80877875D01*
X134685103Y-80827764D01*
X134736785Y-80747651D01*
X134772915Y-80657916D01*
X134776783Y-80633566D01*
X134567300Y-80633566D01*
X134499162Y-80634583D01*
X134438450Y-80619352D01*
X134414293Y-80582885D01*
X134406946Y-80534605D01*
X134412581Y-80515152D01*
X134426530Y-80519367D01*
X134427600Y-80528955D01*
X134447781Y-80560119D01*
X134496424Y-80595112D01*
X134497450Y-80595671D01*
X134567300Y-80633566D01*
X134776783Y-80633566D01*
X134783200Y-80593175D01*
X134795666Y-80586616D01*
X134828963Y-80617962D01*
X134859205Y-80656699D01*
X134974479Y-80783994D01*
X135105828Y-80865524D01*
X135261067Y-80905648D01*
X135313793Y-80910281D01*
X135411518Y-80912842D01*
X135478546Y-80904590D01*
X135534540Y-80881379D01*
X135576383Y-80854912D01*
X135671066Y-80790300D01*
X135779583Y-80852344D01*
X135906636Y-80903818D01*
X136028010Y-80913248D01*
X136134334Y-80880581D01*
X136171908Y-80854580D01*
X136243713Y-80794160D01*
X136331890Y-80854580D01*
X136438888Y-80901027D01*
X136561602Y-80913918D01*
X136675500Y-80890767D01*
X136768014Y-80826898D01*
X136831926Y-80728798D01*
X136867367Y-80604132D01*
X136873236Y-80485407D01*
X136454022Y-80485407D01*
X136446852Y-80568001D01*
X136421030Y-80609661D01*
X136378205Y-80607727D01*
X136320103Y-80559623D01*
X136296057Y-80515294D01*
X136268295Y-80437345D01*
X136239615Y-80337869D01*
X136212817Y-80228962D01*
X136190699Y-80122718D01*
X136176060Y-80031232D01*
X136171699Y-79966600D01*
X136177304Y-79942536D01*
X136219076Y-79929194D01*
X136267556Y-79958272D01*
X136318286Y-80022632D01*
X136366809Y-80115137D01*
X136408666Y-80228648D01*
X136439398Y-80356028D01*
X136440892Y-80364541D01*
X136454022Y-80485407D01*
X136873236Y-80485407D01*
X136874465Y-80460566D01*
X136853348Y-80305764D01*
X136804146Y-80147391D01*
X136726988Y-79993113D01*
X136658769Y-79894649D01*
X136593204Y-79822579D01*
X136520546Y-79770105D01*
X136431614Y-79734347D01*
X136317221Y-79712422D01*
X136168186Y-79701451D01*
X136034150Y-79698716D01*
X135889797Y-79698950D01*
X135790189Y-79702305D01*
X135729337Y-79709312D01*
X135701251Y-79720501D01*
X135697600Y-79728546D01*
X135702596Y-79763163D01*
X135716416Y-79838452D01*
X135737311Y-79945398D01*
X135763531Y-80074986D01*
X135784137Y-80174439D01*
X135815810Y-80328414D01*
X135837068Y-80439906D01*
X135848684Y-80515983D01*
X135851429Y-80563714D01*
X135846075Y-80590170D01*
X135833393Y-80602419D01*
X135830980Y-80603439D01*
X135794092Y-80604444D01*
X135759708Y-80574918D01*
X135743996Y-80544964D01*
X135283334Y-80544964D01*
X135281470Y-80573520D01*
X135249604Y-80607091D01*
X135202872Y-80598298D01*
X135150669Y-80549411D01*
X135144056Y-80540350D01*
X135080957Y-80417936D01*
X135074708Y-80388119D01*
X134730929Y-80388119D01*
X134725245Y-80403201D01*
X134698362Y-80383480D01*
X134689124Y-80375250D01*
X134627533Y-80342700D01*
X134560765Y-80330800D01*
X134492837Y-80341927D01*
X134446047Y-80366782D01*
X134425651Y-80381291D01*
X134416961Y-80365432D01*
X134417808Y-80311040D01*
X134420745Y-80271532D01*
X134430077Y-80171799D01*
X134441811Y-80115871D01*
X134461808Y-80096871D01*
X134495933Y-80107920D01*
X134537882Y-80134128D01*
X134603468Y-80177196D01*
X134655951Y-80211538D01*
X134663570Y-80216500D01*
X134694836Y-80257344D01*
X134719015Y-80323124D01*
X134720696Y-80330800D01*
X134730929Y-80388119D01*
X135074708Y-80388119D01*
X135050443Y-80272349D01*
X135048058Y-80127600D01*
X135058874Y-80022731D01*
X135080572Y-79964833D01*
X135115168Y-79950857D01*
X135152966Y-79968881D01*
X135169621Y-80001233D01*
X135191388Y-80071203D01*
X135215595Y-80166209D01*
X135239567Y-80273670D01*
X135260630Y-80381004D01*
X135276111Y-80475629D01*
X135283334Y-80544964D01*
X135743996Y-80544964D01*
X135726000Y-80510659D01*
X135691145Y-80407466D01*
X135653318Y-80261136D01*
X135622554Y-80123622D01*
X135589533Y-79969354D01*
X135556251Y-79813797D01*
X135525984Y-79672257D01*
X135502003Y-79560040D01*
X135496034Y-79532080D01*
X135474225Y-79434145D01*
X135451944Y-79369565D01*
X135418728Y-79329927D01*
X135364111Y-79306814D01*
X135277629Y-79291812D01*
X135183250Y-79280552D01*
X135111467Y-79272491D01*
X135066480Y-79273868D01*
G36*
X136728496Y-79197347D02*
G01*
X136713600Y-79210689D01*
X136718756Y-79241766D01*
X136733357Y-79316214D01*
X136756104Y-79427750D01*
X136785696Y-79570095D01*
X136820834Y-79736968D01*
X136860218Y-79922088D01*
X136878123Y-80005677D01*
X136918614Y-80195302D01*
X136955119Y-80368129D01*
X136986396Y-80518132D01*
X137011206Y-80639288D01*
X137028307Y-80725571D01*
X137036459Y-80770956D01*
X137036873Y-80776434D01*
X137013170Y-80788555D01*
X136952990Y-80818393D01*
X136865520Y-80861413D01*
X136763550Y-80911322D01*
X136614557Y-80979719D01*
X136496048Y-81022171D01*
X136396269Y-81040958D01*
X136303466Y-81038362D01*
X136211783Y-81018373D01*
X136156029Y-81005781D01*
X136133485Y-81016049D01*
X136129542Y-81050123D01*
X136148068Y-81170801D01*
X136196025Y-81293332D01*
X136246935Y-81371411D01*
X136301919Y-81423927D01*
X136363006Y-81444987D01*
X136417408Y-81447383D01*
X136506382Y-81436412D01*
X136588351Y-81410752D01*
X136599300Y-81405343D01*
X136653731Y-81371545D01*
X136734210Y-81316209D01*
X136826754Y-81249071D01*
X136866000Y-81219588D01*
X137012561Y-81113271D01*
X137132230Y-81039029D01*
X137233666Y-80992645D01*
X137325528Y-80969907D01*
X137387400Y-80965800D01*
X137458581Y-80963002D01*
X137490086Y-80951488D01*
X137492880Y-80926576D01*
X137491488Y-80921350D01*
X137482954Y-80885435D01*
X137465471Y-80806779D01*
X137440548Y-80692350D01*
X137409694Y-80549120D01*
X137374417Y-80384057D01*
X137336226Y-80204132D01*
X137336156Y-80203800D01*
X137298046Y-80024265D01*
X137262921Y-79859956D01*
X137232274Y-79717756D01*
X137207597Y-79604554D01*
X137190381Y-79527236D01*
X137182117Y-79492687D01*
X137182090Y-79492600D01*
X137189636Y-79485864D01*
X137221996Y-79511836D01*
X137245564Y-79536055D01*
X137323180Y-79656292D01*
X137362442Y-79801284D01*
X137361245Y-79950200D01*
X137344673Y-80070697D01*
X137448965Y-80051625D01*
X137563788Y-80012495D01*
X137637401Y-79944234D01*
X137666212Y-79873091D01*
X137668591Y-79750164D01*
X137626919Y-79626720D01*
X137547571Y-79508418D01*
X137436918Y-79400917D01*
X137301333Y-79309875D01*
X137147190Y-79240953D01*
X136980862Y-79199809D01*
X136898737Y-79191596D01*
X136789417Y-79189624D01*
X136728496Y-79197347D01*
X136728496Y-79197347D01*
G37*
X136728496Y-79197347D02*
X136713600Y-79210689D01*
X136718756Y-79241766D01*
X136733357Y-79316214D01*
X136756104Y-79427750D01*
X136785696Y-79570095D01*
X136820834Y-79736968D01*
X136860218Y-79922088D01*
X136878123Y-80005677D01*
X136918614Y-80195302D01*
X136955119Y-80368129D01*
X136986396Y-80518132D01*
X137011206Y-80639288D01*
X137028307Y-80725571D01*
X137036459Y-80770956D01*
X137036873Y-80776434D01*
X137013170Y-80788555D01*
X136952990Y-80818393D01*
X136865520Y-80861413D01*
X136763550Y-80911322D01*
X136614557Y-80979719D01*
X136496048Y-81022171D01*
X136396269Y-81040958D01*
X136303466Y-81038362D01*
X136211783Y-81018373D01*
X136156029Y-81005781D01*
X136133485Y-81016049D01*
X136129542Y-81050123D01*
X136148068Y-81170801D01*
X136196025Y-81293332D01*
X136246935Y-81371411D01*
X136301919Y-81423927D01*
X136363006Y-81444987D01*
X136417408Y-81447383D01*
X136506382Y-81436412D01*
X136588351Y-81410752D01*
X136599300Y-81405343D01*
X136653731Y-81371545D01*
X136734210Y-81316209D01*
X136826754Y-81249071D01*
X136866000Y-81219588D01*
X137012561Y-81113271D01*
X137132230Y-81039029D01*
X137233666Y-80992645D01*
X137325528Y-80969907D01*
X137387400Y-80965800D01*
X137458581Y-80963002D01*
X137490086Y-80951488D01*
X137492880Y-80926576D01*
X137491488Y-80921350D01*
X137482954Y-80885435D01*
X137465471Y-80806779D01*
X137440548Y-80692350D01*
X137409694Y-80549120D01*
X137374417Y-80384057D01*
X137336226Y-80204132D01*
X137336156Y-80203800D01*
X137298046Y-80024265D01*
X137262921Y-79859956D01*
X137232274Y-79717756D01*
X137207597Y-79604554D01*
X137190381Y-79527236D01*
X137182117Y-79492687D01*
X137182090Y-79492600D01*
X137189636Y-79485864D01*
X137221996Y-79511836D01*
X137245564Y-79536055D01*
X137323180Y-79656292D01*
X137362442Y-79801284D01*
X137361245Y-79950200D01*
X137344673Y-80070697D01*
X137448965Y-80051625D01*
X137563788Y-80012495D01*
X137637401Y-79944234D01*
X137666212Y-79873091D01*
X137668591Y-79750164D01*
X137626919Y-79626720D01*
X137547571Y-79508418D01*
X137436918Y-79400917D01*
X137301333Y-79309875D01*
X137147190Y-79240953D01*
X136980862Y-79199809D01*
X136898737Y-79191596D01*
X136789417Y-79189624D01*
X136728496Y-79197347D01*
G36*
X129694186Y-84318931D02*
G01*
X129610365Y-84763555D01*
X129301080Y-84891053D01*
X128991794Y-85018551D01*
X128620754Y-84766246D01*
X128516843Y-84695996D01*
X128422913Y-84633272D01*
X128343348Y-84580938D01*
X128282530Y-84541857D01*
X128244843Y-84518893D01*
X128234579Y-84513942D01*
X128216090Y-84526676D01*
X128176580Y-84561882D01*
X128120478Y-84615062D01*
X128052213Y-84681718D01*
X127976214Y-84757354D01*
X127896908Y-84837472D01*
X127818725Y-84917574D01*
X127746093Y-84993164D01*
X127683441Y-85059745D01*
X127635197Y-85112818D01*
X127605790Y-85147887D01*
X127598759Y-85159623D01*
X127608877Y-85181260D01*
X127637241Y-85228662D01*
X127680871Y-85297193D01*
X127736782Y-85382215D01*
X127801994Y-85479093D01*
X127839781Y-85534350D01*
X127908657Y-85635248D01*
X127969860Y-85726299D01*
X128020422Y-85802970D01*
X128057372Y-85860728D01*
X128077742Y-85895043D01*
X128080803Y-85902254D01*
X128073864Y-85922748D01*
X128054949Y-85970513D01*
X128026913Y-86038832D01*
X127992609Y-86120989D01*
X127954891Y-86210270D01*
X127916613Y-86299958D01*
X127880630Y-86383338D01*
X127849794Y-86453694D01*
X127826961Y-86504310D01*
X127814983Y-86528471D01*
X127814276Y-86529422D01*
X127795469Y-86534036D01*
X127745382Y-86544328D01*
X127669207Y-86559287D01*
X127572135Y-86577901D01*
X127459357Y-86599159D01*
X127393558Y-86611418D01*
X127273050Y-86634362D01*
X127164203Y-86656195D01*
X127072524Y-86675722D01*
X127003519Y-86691748D01*
X126962696Y-86703079D01*
X126954489Y-86706674D01*
X126946452Y-86731006D01*
X126939967Y-86785959D01*
X126935030Y-86865108D01*
X126931636Y-86962026D01*
X126929782Y-87070287D01*
X126929462Y-87183465D01*
X126930673Y-87295135D01*
X126933410Y-87398868D01*
X126937669Y-87488241D01*
X126943445Y-87556826D01*
X126950733Y-87598197D01*
X126955105Y-87606810D01*
X126981236Y-87617133D01*
X127036607Y-87631892D01*
X127113893Y-87649352D01*
X127205770Y-87667780D01*
X127237842Y-87673741D01*
X127392476Y-87702066D01*
X127514625Y-87724876D01*
X127608327Y-87743080D01*
X127677616Y-87757583D01*
X127726529Y-87769292D01*
X127759103Y-87779115D01*
X127779372Y-87787956D01*
X127791374Y-87796724D01*
X127793053Y-87798457D01*
X127809816Y-87826371D01*
X127835386Y-87880695D01*
X127867212Y-87954777D01*
X127902740Y-88041965D01*
X127939417Y-88135608D01*
X127974689Y-88229052D01*
X128006004Y-88315647D01*
X128030807Y-88388740D01*
X128046546Y-88441678D01*
X128050668Y-88467811D01*
X128050324Y-88468726D01*
X128036359Y-88490086D01*
X128004678Y-88537084D01*
X127958609Y-88604827D01*
X127901482Y-88688423D01*
X127836627Y-88782982D01*
X127818157Y-88809854D01*
X127752301Y-88907275D01*
X127694350Y-88996163D01*
X127647462Y-89071412D01*
X127614793Y-89127920D01*
X127599500Y-89160581D01*
X127598759Y-89164593D01*
X127611608Y-89185684D01*
X127647112Y-89227464D01*
X127700707Y-89285445D01*
X127767829Y-89355135D01*
X127843913Y-89432045D01*
X127924396Y-89511683D01*
X128004713Y-89589561D01*
X128080301Y-89661186D01*
X128146595Y-89722070D01*
X128199031Y-89767721D01*
X128233045Y-89793650D01*
X128242455Y-89797883D01*
X128264357Y-89787912D01*
X128309200Y-89761020D01*
X128369679Y-89721736D01*
X128416211Y-89690117D01*
X128500525Y-89632098D01*
X128600374Y-89563784D01*
X128700527Y-89495579D01*
X128754373Y-89459075D01*
X128936629Y-89335800D01*
X129089619Y-89418520D01*
X129159318Y-89454759D01*
X129218586Y-89482926D01*
X129258689Y-89498991D01*
X129268897Y-89501226D01*
X129281171Y-89484722D01*
X129305387Y-89438082D01*
X129339737Y-89365609D01*
X129382412Y-89271606D01*
X129431606Y-89160374D01*
X129485510Y-89036215D01*
X129542316Y-88903432D01*
X129600218Y-88766327D01*
X129657407Y-88629202D01*
X129712076Y-88496358D01*
X129762416Y-88372098D01*
X129806620Y-88260725D01*
X129842881Y-88166539D01*
X129869391Y-88093844D01*
X129884342Y-88046941D01*
X129886746Y-88030833D01*
X129867689Y-88010286D01*
X129825964Y-87976933D01*
X129770294Y-87937702D01*
X129765622Y-87934599D01*
X129621736Y-87819423D01*
X129505717Y-87685053D01*
X129418570Y-87535784D01*
X129361301Y-87375913D01*
X129334914Y-87209737D01*
X129340415Y-87041552D01*
X129378810Y-86875655D01*
X129451105Y-86716342D01*
X129472374Y-86681487D01*
X129583004Y-86540737D01*
X129713698Y-86427714D01*
X129859936Y-86343003D01*
X130017192Y-86287194D01*
X130180943Y-86260874D01*
X130346667Y-86264630D01*
X130509838Y-86299050D01*
X130665935Y-86364723D01*
X130810433Y-86462235D01*
X130855131Y-86501813D01*
X130968888Y-86625703D01*
X131051782Y-86756124D01*
X131108644Y-86902315D01*
X131140313Y-87047088D01*
X131148131Y-87209860D01*
X131122062Y-87373440D01*
X131064755Y-87532298D01*
X130978856Y-87680906D01*
X130867014Y-87813735D01*
X130731877Y-87925256D01*
X130714117Y-87937011D01*
X130657850Y-87975508D01*
X130615077Y-88008863D01*
X130594628Y-88030160D01*
X130594331Y-88030833D01*
X130598721Y-88053871D01*
X130616124Y-88106157D01*
X130644732Y-88183390D01*
X130682735Y-88281268D01*
X130728326Y-88395491D01*
X130779697Y-88521758D01*
X130835038Y-88655767D01*
X130892542Y-88793218D01*
X130950399Y-88929808D01*
X131006802Y-89061237D01*
X131059942Y-89183205D01*
X131108010Y-89291409D01*
X131149199Y-89381549D01*
X131181699Y-89449323D01*
X131203703Y-89490430D01*
X131212564Y-89501226D01*
X131239640Y-89492819D01*
X131290303Y-89470272D01*
X131355817Y-89437613D01*
X131391841Y-89418520D01*
X131544832Y-89335800D01*
X131727088Y-89459075D01*
X131820125Y-89522228D01*
X131921985Y-89591727D01*
X132017438Y-89657165D01*
X132065250Y-89690117D01*
X132132495Y-89735273D01*
X132189436Y-89771057D01*
X132228646Y-89792938D01*
X132241381Y-89797563D01*
X132259917Y-89785085D01*
X132300941Y-89750252D01*
X132360475Y-89696678D01*
X132434542Y-89627983D01*
X132519165Y-89547781D01*
X132572685Y-89496286D01*
X132666319Y-89404286D01*
X132747241Y-89321999D01*
X132812177Y-89252945D01*
X132857858Y-89200644D01*
X132881011Y-89168616D01*
X132883232Y-89162116D01*
X132872924Y-89137394D01*
X132844439Y-89087405D01*
X132800937Y-89017212D01*
X132745577Y-88931875D01*
X132681520Y-88836456D01*
X132663303Y-88809854D01*
X132596927Y-88713167D01*
X132537378Y-88626117D01*
X132487984Y-88553595D01*
X132452075Y-88500493D01*
X132432981Y-88471703D01*
X132431136Y-88468726D01*
X132433895Y-88445782D01*
X132448538Y-88395336D01*
X132472513Y-88324041D01*
X132503266Y-88238547D01*
X132538244Y-88145507D01*
X132574893Y-88051574D01*
X132610661Y-87963399D01*
X132642994Y-87887634D01*
X132669338Y-87830931D01*
X132687142Y-87799943D01*
X132688407Y-87798457D01*
X132699294Y-87789601D01*
X132717682Y-87780843D01*
X132747606Y-87771277D01*
X132793103Y-87759996D01*
X132858209Y-87746093D01*
X132946961Y-87728663D01*
X133063393Y-87706798D01*
X133211542Y-87679591D01*
X133243618Y-87673741D01*
X133338686Y-87655374D01*
X133421565Y-87637405D01*
X133484930Y-87621569D01*
X133521458Y-87609600D01*
X133526356Y-87606810D01*
X133534427Y-87582072D01*
X133540987Y-87526790D01*
X133546033Y-87447389D01*
X133549559Y-87350296D01*
X133551561Y-87241938D01*
X133552036Y-87128740D01*
X133550977Y-87017128D01*
X133548382Y-86913529D01*
X133544246Y-86824368D01*
X133538563Y-86756072D01*
X133531331Y-86715066D01*
X133526971Y-86706674D01*
X133502698Y-86698208D01*
X133447426Y-86684435D01*
X133366662Y-86666550D01*
X133265912Y-86645748D01*
X133150683Y-86623223D01*
X133087902Y-86611418D01*
X132968787Y-86589151D01*
X132862565Y-86568979D01*
X132774427Y-86551915D01*
X132709566Y-86538969D01*
X132673174Y-86531155D01*
X132667184Y-86529422D01*
X132657061Y-86509890D01*
X132635662Y-86462843D01*
X132605839Y-86395003D01*
X132570445Y-86313091D01*
X132532332Y-86223828D01*
X132494353Y-86133935D01*
X132459360Y-86050135D01*
X132430206Y-85979147D01*
X132409743Y-85927694D01*
X132400823Y-85902497D01*
X132400657Y-85901396D01*
X132410769Y-85881519D01*
X132439117Y-85835777D01*
X132482723Y-85768717D01*
X132538606Y-85684884D01*
X132603787Y-85588826D01*
X132641679Y-85533650D01*
X132710725Y-85432481D01*
X132772050Y-85340630D01*
X132822663Y-85262744D01*
X132859571Y-85203469D01*
X132879782Y-85167451D01*
X132882701Y-85159377D01*
X132870153Y-85140584D01*
X132835463Y-85100457D01*
X132783063Y-85043493D01*
X132717384Y-84974185D01*
X132642856Y-84897031D01*
X132563913Y-84816525D01*
X132484983Y-84737163D01*
X132410500Y-84663440D01*
X132344894Y-84599852D01*
X132292596Y-84550894D01*
X132258039Y-84521061D01*
X132246478Y-84513942D01*
X132227654Y-84523953D01*
X132182631Y-84552078D01*
X132115787Y-84595454D01*
X132031499Y-84651218D01*
X131934144Y-84716506D01*
X131860707Y-84766246D01*
X131489667Y-85018551D01*
X130871095Y-84763555D01*
X130787275Y-84318931D01*
X130703454Y-83874307D01*
X129778006Y-83874307D01*
X129694186Y-84318931D01*
X129694186Y-84318931D01*
G37*
X129694186Y-84318931D02*
X129610365Y-84763555D01*
X129301080Y-84891053D01*
X128991794Y-85018551D01*
X128620754Y-84766246D01*
X128516843Y-84695996D01*
X128422913Y-84633272D01*
X128343348Y-84580938D01*
X128282530Y-84541857D01*
X128244843Y-84518893D01*
X128234579Y-84513942D01*
X128216090Y-84526676D01*
X128176580Y-84561882D01*
X128120478Y-84615062D01*
X128052213Y-84681718D01*
X127976214Y-84757354D01*
X127896908Y-84837472D01*
X127818725Y-84917574D01*
X127746093Y-84993164D01*
X127683441Y-85059745D01*
X127635197Y-85112818D01*
X127605790Y-85147887D01*
X127598759Y-85159623D01*
X127608877Y-85181260D01*
X127637241Y-85228662D01*
X127680871Y-85297193D01*
X127736782Y-85382215D01*
X127801994Y-85479093D01*
X127839781Y-85534350D01*
X127908657Y-85635248D01*
X127969860Y-85726299D01*
X128020422Y-85802970D01*
X128057372Y-85860728D01*
X128077742Y-85895043D01*
X128080803Y-85902254D01*
X128073864Y-85922748D01*
X128054949Y-85970513D01*
X128026913Y-86038832D01*
X127992609Y-86120989D01*
X127954891Y-86210270D01*
X127916613Y-86299958D01*
X127880630Y-86383338D01*
X127849794Y-86453694D01*
X127826961Y-86504310D01*
X127814983Y-86528471D01*
X127814276Y-86529422D01*
X127795469Y-86534036D01*
X127745382Y-86544328D01*
X127669207Y-86559287D01*
X127572135Y-86577901D01*
X127459357Y-86599159D01*
X127393558Y-86611418D01*
X127273050Y-86634362D01*
X127164203Y-86656195D01*
X127072524Y-86675722D01*
X127003519Y-86691748D01*
X126962696Y-86703079D01*
X126954489Y-86706674D01*
X126946452Y-86731006D01*
X126939967Y-86785959D01*
X126935030Y-86865108D01*
X126931636Y-86962026D01*
X126929782Y-87070287D01*
X126929462Y-87183465D01*
X126930673Y-87295135D01*
X126933410Y-87398868D01*
X126937669Y-87488241D01*
X126943445Y-87556826D01*
X126950733Y-87598197D01*
X126955105Y-87606810D01*
X126981236Y-87617133D01*
X127036607Y-87631892D01*
X127113893Y-87649352D01*
X127205770Y-87667780D01*
X127237842Y-87673741D01*
X127392476Y-87702066D01*
X127514625Y-87724876D01*
X127608327Y-87743080D01*
X127677616Y-87757583D01*
X127726529Y-87769292D01*
X127759103Y-87779115D01*
X127779372Y-87787956D01*
X127791374Y-87796724D01*
X127793053Y-87798457D01*
X127809816Y-87826371D01*
X127835386Y-87880695D01*
X127867212Y-87954777D01*
X127902740Y-88041965D01*
X127939417Y-88135608D01*
X127974689Y-88229052D01*
X128006004Y-88315647D01*
X128030807Y-88388740D01*
X128046546Y-88441678D01*
X128050668Y-88467811D01*
X128050324Y-88468726D01*
X128036359Y-88490086D01*
X128004678Y-88537084D01*
X127958609Y-88604827D01*
X127901482Y-88688423D01*
X127836627Y-88782982D01*
X127818157Y-88809854D01*
X127752301Y-88907275D01*
X127694350Y-88996163D01*
X127647462Y-89071412D01*
X127614793Y-89127920D01*
X127599500Y-89160581D01*
X127598759Y-89164593D01*
X127611608Y-89185684D01*
X127647112Y-89227464D01*
X127700707Y-89285445D01*
X127767829Y-89355135D01*
X127843913Y-89432045D01*
X127924396Y-89511683D01*
X128004713Y-89589561D01*
X128080301Y-89661186D01*
X128146595Y-89722070D01*
X128199031Y-89767721D01*
X128233045Y-89793650D01*
X128242455Y-89797883D01*
X128264357Y-89787912D01*
X128309200Y-89761020D01*
X128369679Y-89721736D01*
X128416211Y-89690117D01*
X128500525Y-89632098D01*
X128600374Y-89563784D01*
X128700527Y-89495579D01*
X128754373Y-89459075D01*
X128936629Y-89335800D01*
X129089619Y-89418520D01*
X129159318Y-89454759D01*
X129218586Y-89482926D01*
X129258689Y-89498991D01*
X129268897Y-89501226D01*
X129281171Y-89484722D01*
X129305387Y-89438082D01*
X129339737Y-89365609D01*
X129382412Y-89271606D01*
X129431606Y-89160374D01*
X129485510Y-89036215D01*
X129542316Y-88903432D01*
X129600218Y-88766327D01*
X129657407Y-88629202D01*
X129712076Y-88496358D01*
X129762416Y-88372098D01*
X129806620Y-88260725D01*
X129842881Y-88166539D01*
X129869391Y-88093844D01*
X129884342Y-88046941D01*
X129886746Y-88030833D01*
X129867689Y-88010286D01*
X129825964Y-87976933D01*
X129770294Y-87937702D01*
X129765622Y-87934599D01*
X129621736Y-87819423D01*
X129505717Y-87685053D01*
X129418570Y-87535784D01*
X129361301Y-87375913D01*
X129334914Y-87209737D01*
X129340415Y-87041552D01*
X129378810Y-86875655D01*
X129451105Y-86716342D01*
X129472374Y-86681487D01*
X129583004Y-86540737D01*
X129713698Y-86427714D01*
X129859936Y-86343003D01*
X130017192Y-86287194D01*
X130180943Y-86260874D01*
X130346667Y-86264630D01*
X130509838Y-86299050D01*
X130665935Y-86364723D01*
X130810433Y-86462235D01*
X130855131Y-86501813D01*
X130968888Y-86625703D01*
X131051782Y-86756124D01*
X131108644Y-86902315D01*
X131140313Y-87047088D01*
X131148131Y-87209860D01*
X131122062Y-87373440D01*
X131064755Y-87532298D01*
X130978856Y-87680906D01*
X130867014Y-87813735D01*
X130731877Y-87925256D01*
X130714117Y-87937011D01*
X130657850Y-87975508D01*
X130615077Y-88008863D01*
X130594628Y-88030160D01*
X130594331Y-88030833D01*
X130598721Y-88053871D01*
X130616124Y-88106157D01*
X130644732Y-88183390D01*
X130682735Y-88281268D01*
X130728326Y-88395491D01*
X130779697Y-88521758D01*
X130835038Y-88655767D01*
X130892542Y-88793218D01*
X130950399Y-88929808D01*
X131006802Y-89061237D01*
X131059942Y-89183205D01*
X131108010Y-89291409D01*
X131149199Y-89381549D01*
X131181699Y-89449323D01*
X131203703Y-89490430D01*
X131212564Y-89501226D01*
X131239640Y-89492819D01*
X131290303Y-89470272D01*
X131355817Y-89437613D01*
X131391841Y-89418520D01*
X131544832Y-89335800D01*
X131727088Y-89459075D01*
X131820125Y-89522228D01*
X131921985Y-89591727D01*
X132017438Y-89657165D01*
X132065250Y-89690117D01*
X132132495Y-89735273D01*
X132189436Y-89771057D01*
X132228646Y-89792938D01*
X132241381Y-89797563D01*
X132259917Y-89785085D01*
X132300941Y-89750252D01*
X132360475Y-89696678D01*
X132434542Y-89627983D01*
X132519165Y-89547781D01*
X132572685Y-89496286D01*
X132666319Y-89404286D01*
X132747241Y-89321999D01*
X132812177Y-89252945D01*
X132857858Y-89200644D01*
X132881011Y-89168616D01*
X132883232Y-89162116D01*
X132872924Y-89137394D01*
X132844439Y-89087405D01*
X132800937Y-89017212D01*
X132745577Y-88931875D01*
X132681520Y-88836456D01*
X132663303Y-88809854D01*
X132596927Y-88713167D01*
X132537378Y-88626117D01*
X132487984Y-88553595D01*
X132452075Y-88500493D01*
X132432981Y-88471703D01*
X132431136Y-88468726D01*
X132433895Y-88445782D01*
X132448538Y-88395336D01*
X132472513Y-88324041D01*
X132503266Y-88238547D01*
X132538244Y-88145507D01*
X132574893Y-88051574D01*
X132610661Y-87963399D01*
X132642994Y-87887634D01*
X132669338Y-87830931D01*
X132687142Y-87799943D01*
X132688407Y-87798457D01*
X132699294Y-87789601D01*
X132717682Y-87780843D01*
X132747606Y-87771277D01*
X132793103Y-87759996D01*
X132858209Y-87746093D01*
X132946961Y-87728663D01*
X133063393Y-87706798D01*
X133211542Y-87679591D01*
X133243618Y-87673741D01*
X133338686Y-87655374D01*
X133421565Y-87637405D01*
X133484930Y-87621569D01*
X133521458Y-87609600D01*
X133526356Y-87606810D01*
X133534427Y-87582072D01*
X133540987Y-87526790D01*
X133546033Y-87447389D01*
X133549559Y-87350296D01*
X133551561Y-87241938D01*
X133552036Y-87128740D01*
X133550977Y-87017128D01*
X133548382Y-86913529D01*
X133544246Y-86824368D01*
X133538563Y-86756072D01*
X133531331Y-86715066D01*
X133526971Y-86706674D01*
X133502698Y-86698208D01*
X133447426Y-86684435D01*
X133366662Y-86666550D01*
X133265912Y-86645748D01*
X133150683Y-86623223D01*
X133087902Y-86611418D01*
X132968787Y-86589151D01*
X132862565Y-86568979D01*
X132774427Y-86551915D01*
X132709566Y-86538969D01*
X132673174Y-86531155D01*
X132667184Y-86529422D01*
X132657061Y-86509890D01*
X132635662Y-86462843D01*
X132605839Y-86395003D01*
X132570445Y-86313091D01*
X132532332Y-86223828D01*
X132494353Y-86133935D01*
X132459360Y-86050135D01*
X132430206Y-85979147D01*
X132409743Y-85927694D01*
X132400823Y-85902497D01*
X132400657Y-85901396D01*
X132410769Y-85881519D01*
X132439117Y-85835777D01*
X132482723Y-85768717D01*
X132538606Y-85684884D01*
X132603787Y-85588826D01*
X132641679Y-85533650D01*
X132710725Y-85432481D01*
X132772050Y-85340630D01*
X132822663Y-85262744D01*
X132859571Y-85203469D01*
X132879782Y-85167451D01*
X132882701Y-85159377D01*
X132870153Y-85140584D01*
X132835463Y-85100457D01*
X132783063Y-85043493D01*
X132717384Y-84974185D01*
X132642856Y-84897031D01*
X132563913Y-84816525D01*
X132484983Y-84737163D01*
X132410500Y-84663440D01*
X132344894Y-84599852D01*
X132292596Y-84550894D01*
X132258039Y-84521061D01*
X132246478Y-84513942D01*
X132227654Y-84523953D01*
X132182631Y-84552078D01*
X132115787Y-84595454D01*
X132031499Y-84651218D01*
X131934144Y-84716506D01*
X131860707Y-84766246D01*
X131489667Y-85018551D01*
X130871095Y-84763555D01*
X130787275Y-84318931D01*
X130703454Y-83874307D01*
X129778006Y-83874307D01*
X129694186Y-84318931D01*
D14*
X127900000Y-76875000D02*
X129300000Y-76875000D01*
X130000000Y-76175000D02*
X130000000Y-75575000D01*
X129300000Y-74875000D02*
X127900000Y-74875000D01*
X127200000Y-75575000D02*
X127200000Y-76175000D01*
X127200000Y-76175000D02*
G75*
G03X127900000Y-76875000I700000J0D01*
G01*
X127900000Y-74875000D02*
G75*
G03X127200000Y-75575000I0J-700000D01*
G01*
X130000000Y-75575000D02*
G75*
G03X129300000Y-74875000I-700000J0D01*
G01*
X129300000Y-76875000D02*
G75*
G03X130000000Y-76175000I0J700000D01*
G01*
X141450000Y-96500000D02*
X140050000Y-96500000D01*
X139350000Y-97200000D02*
X139350000Y-97800000D01*
X140050000Y-98500000D02*
X141450000Y-98500000D01*
X142150000Y-97800000D02*
X142150000Y-97200000D01*
X142150000Y-97200000D02*
G75*
G03X141450000Y-96500000I-700000J0D01*
G01*
X141450000Y-98500000D02*
G75*
G03X142150000Y-97800000I0J700000D01*
G01*
X139350000Y-97800000D02*
G75*
G03X140050000Y-98500000I700000J0D01*
G01*
X140050000Y-96500000D02*
G75*
G03X139350000Y-97200000I0J-700000D01*
G01*
X134500000Y-91730000D02*
G75*
G03X133800000Y-92430000I0J-700000D01*
G01*
X133800000Y-93030000D02*
G75*
G03X134500000Y-93730000I700000J0D01*
G01*
X135900000Y-93730000D02*
G75*
G03X136600000Y-93030000I0J700000D01*
G01*
X136600000Y-92430000D02*
G75*
G03X135900000Y-91730000I-700000J0D01*
G01*
X136600000Y-93030000D02*
X136600000Y-92430000D01*
X134500000Y-93730000D02*
X135900000Y-93730000D01*
X133800000Y-92430000D02*
X133800000Y-93030000D01*
X135900000Y-91730000D02*
X134500000Y-91730000D01*
X135825000Y-85650000D02*
G75*
G03X135125000Y-86350000I0J-700000D01*
G01*
X135125000Y-86950000D02*
G75*
G03X135825000Y-87650000I700000J0D01*
G01*
X137225000Y-87650000D02*
G75*
G03X137925000Y-86950000I0J700000D01*
G01*
X137925000Y-86350000D02*
G75*
G03X137225000Y-85650000I-700000J0D01*
G01*
X137925000Y-86950000D02*
X137925000Y-86350000D01*
X135825000Y-87650000D02*
X137225000Y-87650000D01*
X135125000Y-86350000D02*
X135125000Y-86950000D01*
X137225000Y-85650000D02*
X135825000Y-85650000D01*
X135890000Y-105040000D02*
X137840000Y-105040000D01*
X135890000Y-105040000D02*
X133940000Y-105040000D01*
X135890000Y-110160000D02*
X137840000Y-110160000D01*
X135890000Y-110160000D02*
X132440000Y-110160000D01*
X136000000Y-99075000D02*
X138725000Y-99075000D01*
X138725000Y-99075000D02*
X138725000Y-99335000D01*
X136000000Y-99075000D02*
X133275000Y-99075000D01*
X133275000Y-99075000D02*
X133275000Y-99335000D01*
X136000000Y-104525000D02*
X138725000Y-104525000D01*
X138725000Y-104525000D02*
X138725000Y-104265000D01*
X136000000Y-104525000D02*
X133275000Y-104525000D01*
X133275000Y-104525000D02*
X133275000Y-104265000D01*
X133275000Y-104265000D02*
X131600000Y-104265000D01*
D12*
X136791904Y-101242380D02*
X136791904Y-102051904D01*
X136744285Y-102147142D01*
X136696666Y-102194761D01*
X136601428Y-102242380D01*
X136410952Y-102242380D01*
X136315714Y-102194761D01*
X136268095Y-102147142D01*
X136220476Y-102051904D01*
X136220476Y-101242380D01*
X135601428Y-101670952D02*
X135696666Y-101623333D01*
X135744285Y-101575714D01*
X135791904Y-101480476D01*
X135791904Y-101432857D01*
X135744285Y-101337619D01*
X135696666Y-101290000D01*
X135601428Y-101242380D01*
X135410952Y-101242380D01*
X135315714Y-101290000D01*
X135268095Y-101337619D01*
X135220476Y-101432857D01*
X135220476Y-101480476D01*
X135268095Y-101575714D01*
X135315714Y-101623333D01*
X135410952Y-101670952D01*
X135601428Y-101670952D01*
X135696666Y-101718571D01*
X135744285Y-101766190D01*
X135791904Y-101861428D01*
X135791904Y-102051904D01*
X135744285Y-102147142D01*
X135696666Y-102194761D01*
X135601428Y-102242380D01*
X135410952Y-102242380D01*
X135315714Y-102194761D01*
X135268095Y-102147142D01*
X135220476Y-102051904D01*
X135220476Y-101861428D01*
X135268095Y-101766190D01*
X135315714Y-101718571D01*
X135410952Y-101670952D01*
M02*
