G04 #@! TF.GenerationSoftware,KiCad,Pcbnew,(5.0.1-3-g963ef8bb5)*
G04 #@! TF.CreationDate,2019-03-06T17:01:56+01:00*
G04 #@! TF.ProjectId,TLM-v1,544C4D2D76312E6B696361645F706362,1.1*
G04 #@! TF.SameCoordinates,Original*
G04 #@! TF.FileFunction,Soldermask,Bot*
G04 #@! TF.FilePolarity,Negative*
%FSLAX46Y46*%
G04 Gerber Fmt 4.6, Leading zero omitted, Abs format (unit mm)*
G04 Created by KiCad (PCBNEW (5.0.1-3-g963ef8bb5)) date 2019 March 06, Wednesday 17:01:56*
%MOMM*%
%LPD*%
G01*
G04 APERTURE LIST*
%ADD10C,0.100000*%
G04 APERTURE END LIST*
D10*
G36*
X141148141Y-88339334D02*
X141164051Y-88344160D01*
X141178708Y-88351995D01*
X141191559Y-88362541D01*
X141202105Y-88375392D01*
X141209940Y-88390049D01*
X141214766Y-88405959D01*
X141217000Y-88428641D01*
X141217000Y-89904462D01*
X141213998Y-89934944D01*
X141206896Y-89958355D01*
X141195361Y-89979936D01*
X141179844Y-89998844D01*
X141160936Y-90014361D01*
X141139355Y-90025896D01*
X141115944Y-90032998D01*
X141085462Y-90036000D01*
X140346538Y-90036000D01*
X140316056Y-90032998D01*
X140292645Y-90025896D01*
X140271064Y-90014361D01*
X140252156Y-89998844D01*
X140236639Y-89979936D01*
X140225104Y-89958355D01*
X140218002Y-89934944D01*
X140215000Y-89904462D01*
X140215000Y-88428641D01*
X140217234Y-88405959D01*
X140222060Y-88390049D01*
X140229895Y-88375392D01*
X140240441Y-88362541D01*
X140253292Y-88351995D01*
X140267949Y-88344160D01*
X140283859Y-88339334D01*
X140306541Y-88337100D01*
X141125459Y-88337100D01*
X141148141Y-88339334D01*
X141148141Y-88339334D01*
G37*
G36*
X139878141Y-88339334D02*
X139894051Y-88344160D01*
X139908708Y-88351995D01*
X139921559Y-88362541D01*
X139932105Y-88375392D01*
X139939940Y-88390049D01*
X139944766Y-88405959D01*
X139947000Y-88428641D01*
X139947000Y-89904462D01*
X139943998Y-89934944D01*
X139936896Y-89958355D01*
X139925361Y-89979936D01*
X139909844Y-89998844D01*
X139890936Y-90014361D01*
X139869355Y-90025896D01*
X139845944Y-90032998D01*
X139815462Y-90036000D01*
X139076538Y-90036000D01*
X139046056Y-90032998D01*
X139022645Y-90025896D01*
X139001064Y-90014361D01*
X138982156Y-89998844D01*
X138966639Y-89979936D01*
X138955104Y-89958355D01*
X138948002Y-89934944D01*
X138945000Y-89904462D01*
X138945000Y-88428641D01*
X138947234Y-88405959D01*
X138952060Y-88390049D01*
X138959895Y-88375392D01*
X138970441Y-88362541D01*
X138983292Y-88351995D01*
X138997949Y-88344160D01*
X139013859Y-88339334D01*
X139036541Y-88337100D01*
X139855459Y-88337100D01*
X139878141Y-88339334D01*
X139878141Y-88339334D01*
G37*
G36*
X138608141Y-88339334D02*
X138624051Y-88344160D01*
X138638708Y-88351995D01*
X138651559Y-88362541D01*
X138662105Y-88375392D01*
X138669940Y-88390049D01*
X138674766Y-88405959D01*
X138677000Y-88428641D01*
X138677000Y-89904462D01*
X138673998Y-89934944D01*
X138666896Y-89958355D01*
X138655361Y-89979936D01*
X138639844Y-89998844D01*
X138620936Y-90014361D01*
X138599355Y-90025896D01*
X138575944Y-90032998D01*
X138545462Y-90036000D01*
X137806538Y-90036000D01*
X137776056Y-90032998D01*
X137752645Y-90025896D01*
X137731064Y-90014361D01*
X137712156Y-89998844D01*
X137696639Y-89979936D01*
X137685104Y-89958355D01*
X137678002Y-89934944D01*
X137675000Y-89904462D01*
X137675000Y-88428641D01*
X137677234Y-88405959D01*
X137682060Y-88390049D01*
X137689895Y-88375392D01*
X137700441Y-88362541D01*
X137713292Y-88351995D01*
X137727949Y-88344160D01*
X137743859Y-88339334D01*
X137766541Y-88337100D01*
X138585459Y-88337100D01*
X138608141Y-88339334D01*
X138608141Y-88339334D01*
G37*
G36*
X137338141Y-88339334D02*
X137354051Y-88344160D01*
X137368708Y-88351995D01*
X137381559Y-88362541D01*
X137392105Y-88375392D01*
X137399940Y-88390049D01*
X137404766Y-88405959D01*
X137407000Y-88428641D01*
X137407000Y-89904462D01*
X137403998Y-89934944D01*
X137396896Y-89958355D01*
X137385361Y-89979936D01*
X137369844Y-89998844D01*
X137350936Y-90014361D01*
X137329355Y-90025896D01*
X137305944Y-90032998D01*
X137275462Y-90036000D01*
X136536538Y-90036000D01*
X136506056Y-90032998D01*
X136482645Y-90025896D01*
X136461064Y-90014361D01*
X136442156Y-89998844D01*
X136426639Y-89979936D01*
X136415104Y-89958355D01*
X136408002Y-89934944D01*
X136405000Y-89904462D01*
X136405000Y-88428641D01*
X136407234Y-88405959D01*
X136412060Y-88390049D01*
X136419895Y-88375392D01*
X136430441Y-88362541D01*
X136443292Y-88351995D01*
X136457949Y-88344160D01*
X136473859Y-88339334D01*
X136496541Y-88337100D01*
X137315459Y-88337100D01*
X137338141Y-88339334D01*
X137338141Y-88339334D01*
G37*
G36*
X136068141Y-88339334D02*
X136084051Y-88344160D01*
X136098708Y-88351995D01*
X136111559Y-88362541D01*
X136122105Y-88375392D01*
X136129940Y-88390049D01*
X136134766Y-88405959D01*
X136137000Y-88428641D01*
X136137000Y-89904462D01*
X136133998Y-89934944D01*
X136126896Y-89958355D01*
X136115361Y-89979936D01*
X136099844Y-89998844D01*
X136080936Y-90014361D01*
X136059355Y-90025896D01*
X136035944Y-90032998D01*
X136005462Y-90036000D01*
X135266538Y-90036000D01*
X135236056Y-90032998D01*
X135212645Y-90025896D01*
X135191064Y-90014361D01*
X135172156Y-89998844D01*
X135156639Y-89979936D01*
X135145104Y-89958355D01*
X135138002Y-89934944D01*
X135135000Y-89904462D01*
X135135000Y-88428641D01*
X135137234Y-88405959D01*
X135142060Y-88390049D01*
X135149895Y-88375392D01*
X135160441Y-88362541D01*
X135173292Y-88351995D01*
X135187949Y-88344160D01*
X135203859Y-88339334D01*
X135226541Y-88337100D01*
X136045459Y-88337100D01*
X136068141Y-88339334D01*
X136068141Y-88339334D01*
G37*
G36*
X134798141Y-88339334D02*
X134814051Y-88344160D01*
X134828708Y-88351995D01*
X134841559Y-88362541D01*
X134852105Y-88375392D01*
X134859940Y-88390049D01*
X134864766Y-88405959D01*
X134867000Y-88428641D01*
X134867000Y-89904462D01*
X134863998Y-89934944D01*
X134856896Y-89958355D01*
X134845361Y-89979936D01*
X134829844Y-89998844D01*
X134810936Y-90014361D01*
X134789355Y-90025896D01*
X134765944Y-90032998D01*
X134735462Y-90036000D01*
X133996538Y-90036000D01*
X133966056Y-90032998D01*
X133942645Y-90025896D01*
X133921064Y-90014361D01*
X133902156Y-89998844D01*
X133886639Y-89979936D01*
X133875104Y-89958355D01*
X133868002Y-89934944D01*
X133865000Y-89904462D01*
X133865000Y-88428641D01*
X133867234Y-88405959D01*
X133872060Y-88390049D01*
X133879895Y-88375392D01*
X133890441Y-88362541D01*
X133903292Y-88351995D01*
X133917949Y-88344160D01*
X133933859Y-88339334D01*
X133956541Y-88337100D01*
X134775459Y-88337100D01*
X134798141Y-88339334D01*
X134798141Y-88339334D01*
G37*
G36*
X133528141Y-88339334D02*
X133544051Y-88344160D01*
X133558708Y-88351995D01*
X133571559Y-88362541D01*
X133582105Y-88375392D01*
X133589940Y-88390049D01*
X133594766Y-88405959D01*
X133597000Y-88428641D01*
X133597000Y-89904462D01*
X133593998Y-89934944D01*
X133586896Y-89958355D01*
X133575361Y-89979936D01*
X133559844Y-89998844D01*
X133540936Y-90014361D01*
X133519355Y-90025896D01*
X133495944Y-90032998D01*
X133465462Y-90036000D01*
X132726538Y-90036000D01*
X132696056Y-90032998D01*
X132672645Y-90025896D01*
X132651064Y-90014361D01*
X132632156Y-89998844D01*
X132616639Y-89979936D01*
X132605104Y-89958355D01*
X132598002Y-89934944D01*
X132595000Y-89904462D01*
X132595000Y-88428641D01*
X132597234Y-88405959D01*
X132602060Y-88390049D01*
X132609895Y-88375392D01*
X132620441Y-88362541D01*
X132633292Y-88351995D01*
X132647949Y-88344160D01*
X132663859Y-88339334D01*
X132686541Y-88337100D01*
X133505459Y-88337100D01*
X133528141Y-88339334D01*
X133528141Y-88339334D01*
G37*
G36*
X132258141Y-88339334D02*
X132274051Y-88344160D01*
X132288708Y-88351995D01*
X132301559Y-88362541D01*
X132312105Y-88375392D01*
X132319940Y-88390049D01*
X132324766Y-88405959D01*
X132327000Y-88428641D01*
X132327000Y-89904462D01*
X132323998Y-89934944D01*
X132316896Y-89958355D01*
X132305361Y-89979936D01*
X132289844Y-89998844D01*
X132270936Y-90014361D01*
X132249355Y-90025896D01*
X132225944Y-90032998D01*
X132195462Y-90036000D01*
X131456538Y-90036000D01*
X131426056Y-90032998D01*
X131402645Y-90025896D01*
X131381064Y-90014361D01*
X131362156Y-89998844D01*
X131346639Y-89979936D01*
X131335104Y-89958355D01*
X131328002Y-89934944D01*
X131325000Y-89904462D01*
X131325000Y-88428641D01*
X131327234Y-88405959D01*
X131332060Y-88390049D01*
X131339895Y-88375392D01*
X131350441Y-88362541D01*
X131363292Y-88351995D01*
X131377949Y-88344160D01*
X131393859Y-88339334D01*
X131416541Y-88337100D01*
X132235459Y-88337100D01*
X132258141Y-88339334D01*
X132258141Y-88339334D01*
G37*
G36*
X143655944Y-87132002D02*
X143679355Y-87139104D01*
X143700936Y-87150639D01*
X143719844Y-87166156D01*
X143735361Y-87185064D01*
X143746896Y-87206645D01*
X143753998Y-87230056D01*
X143757000Y-87260538D01*
X143757000Y-87999462D01*
X143753998Y-88029944D01*
X143746896Y-88053355D01*
X143735361Y-88074936D01*
X143719844Y-88093844D01*
X143700936Y-88109361D01*
X143679355Y-88120896D01*
X143655944Y-88127998D01*
X143625462Y-88131000D01*
X142146541Y-88131000D01*
X142123859Y-88128766D01*
X142107949Y-88123940D01*
X142093292Y-88116105D01*
X142080441Y-88105559D01*
X142069895Y-88092708D01*
X142062060Y-88078051D01*
X142057234Y-88062141D01*
X142055000Y-88039459D01*
X142055000Y-87220541D01*
X142057234Y-87197859D01*
X142062060Y-87181949D01*
X142069895Y-87167292D01*
X142080441Y-87154441D01*
X142093292Y-87143895D01*
X142107949Y-87136060D01*
X142123859Y-87131234D01*
X142146541Y-87129000D01*
X143625462Y-87129000D01*
X143655944Y-87132002D01*
X143655944Y-87132002D01*
G37*
G36*
X130418141Y-87131234D02*
X130434051Y-87136060D01*
X130448708Y-87143895D01*
X130461559Y-87154441D01*
X130472105Y-87167292D01*
X130479940Y-87181949D01*
X130484766Y-87197859D01*
X130487000Y-87220541D01*
X130487000Y-88039459D01*
X130484766Y-88062141D01*
X130479940Y-88078051D01*
X130472105Y-88092708D01*
X130461559Y-88105559D01*
X130448708Y-88116105D01*
X130434051Y-88123940D01*
X130418141Y-88128766D01*
X130395459Y-88131000D01*
X128916538Y-88131000D01*
X128886056Y-88127998D01*
X128862645Y-88120896D01*
X128841064Y-88109361D01*
X128822156Y-88093844D01*
X128806639Y-88074936D01*
X128795104Y-88053355D01*
X128788002Y-88029944D01*
X128785000Y-87999462D01*
X128785000Y-87260538D01*
X128788002Y-87230056D01*
X128795104Y-87206645D01*
X128806639Y-87185064D01*
X128822156Y-87166156D01*
X128841064Y-87150639D01*
X128862645Y-87139104D01*
X128886056Y-87132002D01*
X128916538Y-87129000D01*
X130395459Y-87129000D01*
X130418141Y-87131234D01*
X130418141Y-87131234D01*
G37*
G36*
X130418141Y-85861234D02*
X130434051Y-85866060D01*
X130448708Y-85873895D01*
X130461559Y-85884441D01*
X130472105Y-85897292D01*
X130479940Y-85911949D01*
X130484766Y-85927859D01*
X130487000Y-85950541D01*
X130487000Y-86769459D01*
X130484766Y-86792141D01*
X130479940Y-86808051D01*
X130472105Y-86822708D01*
X130461559Y-86835559D01*
X130448708Y-86846105D01*
X130434051Y-86853940D01*
X130418141Y-86858766D01*
X130395459Y-86861000D01*
X128916538Y-86861000D01*
X128886056Y-86857998D01*
X128862645Y-86850896D01*
X128841064Y-86839361D01*
X128822156Y-86823844D01*
X128806639Y-86804936D01*
X128795104Y-86783355D01*
X128788002Y-86759944D01*
X128785000Y-86729462D01*
X128785000Y-85990538D01*
X128788002Y-85960056D01*
X128795104Y-85936645D01*
X128806639Y-85915064D01*
X128822156Y-85896156D01*
X128841064Y-85880639D01*
X128862645Y-85869104D01*
X128886056Y-85862002D01*
X128916538Y-85859000D01*
X130395459Y-85859000D01*
X130418141Y-85861234D01*
X130418141Y-85861234D01*
G37*
G36*
X143655944Y-85862002D02*
X143679355Y-85869104D01*
X143700936Y-85880639D01*
X143719844Y-85896156D01*
X143735361Y-85915064D01*
X143746896Y-85936645D01*
X143753998Y-85960056D01*
X143757000Y-85990538D01*
X143757000Y-86729462D01*
X143753998Y-86759944D01*
X143746896Y-86783355D01*
X143735361Y-86804936D01*
X143719844Y-86823844D01*
X143700936Y-86839361D01*
X143679355Y-86850896D01*
X143655944Y-86857998D01*
X143625462Y-86861000D01*
X142146541Y-86861000D01*
X142123859Y-86858766D01*
X142107949Y-86853940D01*
X142093292Y-86846105D01*
X142080441Y-86835559D01*
X142069895Y-86822708D01*
X142062060Y-86808051D01*
X142057234Y-86792141D01*
X142055000Y-86769459D01*
X142055000Y-85950541D01*
X142057234Y-85927859D01*
X142062060Y-85911949D01*
X142069895Y-85897292D01*
X142080441Y-85884441D01*
X142093292Y-85873895D01*
X142107949Y-85866060D01*
X142123859Y-85861234D01*
X142146541Y-85859000D01*
X143625462Y-85859000D01*
X143655944Y-85862002D01*
X143655944Y-85862002D01*
G37*
G36*
X143655944Y-84592002D02*
X143679355Y-84599104D01*
X143700936Y-84610639D01*
X143719844Y-84626156D01*
X143735361Y-84645064D01*
X143746896Y-84666645D01*
X143753998Y-84690056D01*
X143757000Y-84720538D01*
X143757000Y-85459462D01*
X143753998Y-85489944D01*
X143746896Y-85513355D01*
X143735361Y-85534936D01*
X143719844Y-85553844D01*
X143700936Y-85569361D01*
X143679355Y-85580896D01*
X143655944Y-85587998D01*
X143625462Y-85591000D01*
X142146541Y-85591000D01*
X142123859Y-85588766D01*
X142107949Y-85583940D01*
X142093292Y-85576105D01*
X142080441Y-85565559D01*
X142069895Y-85552708D01*
X142062060Y-85538051D01*
X142057234Y-85522141D01*
X142055000Y-85499459D01*
X142055000Y-84680541D01*
X142057234Y-84657859D01*
X142062060Y-84641949D01*
X142069895Y-84627292D01*
X142080441Y-84614441D01*
X142093292Y-84603895D01*
X142107949Y-84596060D01*
X142123859Y-84591234D01*
X142146541Y-84589000D01*
X143625462Y-84589000D01*
X143655944Y-84592002D01*
X143655944Y-84592002D01*
G37*
G36*
X130418141Y-84591234D02*
X130434051Y-84596060D01*
X130448708Y-84603895D01*
X130461559Y-84614441D01*
X130472105Y-84627292D01*
X130479940Y-84641949D01*
X130484766Y-84657859D01*
X130487000Y-84680541D01*
X130487000Y-85499459D01*
X130484766Y-85522141D01*
X130479940Y-85538051D01*
X130472105Y-85552708D01*
X130461559Y-85565559D01*
X130448708Y-85576105D01*
X130434051Y-85583940D01*
X130418141Y-85588766D01*
X130395459Y-85591000D01*
X128916538Y-85591000D01*
X128886056Y-85587998D01*
X128862645Y-85580896D01*
X128841064Y-85569361D01*
X128822156Y-85553844D01*
X128806639Y-85534936D01*
X128795104Y-85513355D01*
X128788002Y-85489944D01*
X128785000Y-85459462D01*
X128785000Y-84720538D01*
X128788002Y-84690056D01*
X128795104Y-84666645D01*
X128806639Y-84645064D01*
X128822156Y-84626156D01*
X128841064Y-84610639D01*
X128862645Y-84599104D01*
X128886056Y-84592002D01*
X128916538Y-84589000D01*
X130395459Y-84589000D01*
X130418141Y-84591234D01*
X130418141Y-84591234D01*
G37*
G36*
X130418141Y-83321234D02*
X130434051Y-83326060D01*
X130448708Y-83333895D01*
X130461559Y-83344441D01*
X130472105Y-83357292D01*
X130479940Y-83371949D01*
X130484766Y-83387859D01*
X130487000Y-83410541D01*
X130487000Y-84229459D01*
X130484766Y-84252141D01*
X130479940Y-84268051D01*
X130472105Y-84282708D01*
X130461559Y-84295559D01*
X130448708Y-84306105D01*
X130434051Y-84313940D01*
X130418141Y-84318766D01*
X130395459Y-84321000D01*
X128916538Y-84321000D01*
X128886056Y-84317998D01*
X128862645Y-84310896D01*
X128841064Y-84299361D01*
X128822156Y-84283844D01*
X128806639Y-84264936D01*
X128795104Y-84243355D01*
X128788002Y-84219944D01*
X128785000Y-84189462D01*
X128785000Y-83450538D01*
X128788002Y-83420056D01*
X128795104Y-83396645D01*
X128806639Y-83375064D01*
X128822156Y-83356156D01*
X128841064Y-83340639D01*
X128862645Y-83329104D01*
X128886056Y-83322002D01*
X128916538Y-83319000D01*
X130395459Y-83319000D01*
X130418141Y-83321234D01*
X130418141Y-83321234D01*
G37*
G36*
X143655944Y-83322002D02*
X143679355Y-83329104D01*
X143700936Y-83340639D01*
X143719844Y-83356156D01*
X143735361Y-83375064D01*
X143746896Y-83396645D01*
X143753998Y-83420056D01*
X143757000Y-83450538D01*
X143757000Y-84189462D01*
X143753998Y-84219944D01*
X143746896Y-84243355D01*
X143735361Y-84264936D01*
X143719844Y-84283844D01*
X143700936Y-84299361D01*
X143679355Y-84310896D01*
X143655944Y-84317998D01*
X143625462Y-84321000D01*
X142146541Y-84321000D01*
X142123859Y-84318766D01*
X142107949Y-84313940D01*
X142093292Y-84306105D01*
X142080441Y-84295559D01*
X142069895Y-84282708D01*
X142062060Y-84268051D01*
X142057234Y-84252141D01*
X142055000Y-84229459D01*
X142055000Y-83410541D01*
X142057234Y-83387859D01*
X142062060Y-83371949D01*
X142069895Y-83357292D01*
X142080441Y-83344441D01*
X142093292Y-83333895D01*
X142107949Y-83326060D01*
X142123859Y-83321234D01*
X142146541Y-83319000D01*
X143625462Y-83319000D01*
X143655944Y-83322002D01*
X143655944Y-83322002D01*
G37*
G36*
X130418141Y-82051234D02*
X130434051Y-82056060D01*
X130448708Y-82063895D01*
X130461559Y-82074441D01*
X130472105Y-82087292D01*
X130479940Y-82101949D01*
X130484766Y-82117859D01*
X130487000Y-82140541D01*
X130487000Y-82959459D01*
X130484766Y-82982141D01*
X130479940Y-82998051D01*
X130472105Y-83012708D01*
X130461559Y-83025559D01*
X130448708Y-83036105D01*
X130434051Y-83043940D01*
X130418141Y-83048766D01*
X130395459Y-83051000D01*
X128916538Y-83051000D01*
X128886056Y-83047998D01*
X128862645Y-83040896D01*
X128841064Y-83029361D01*
X128822156Y-83013844D01*
X128806639Y-82994936D01*
X128795104Y-82973355D01*
X128788002Y-82949944D01*
X128785000Y-82919462D01*
X128785000Y-82180538D01*
X128788002Y-82150056D01*
X128795104Y-82126645D01*
X128806639Y-82105064D01*
X128822156Y-82086156D01*
X128841064Y-82070639D01*
X128862645Y-82059104D01*
X128886056Y-82052002D01*
X128916538Y-82049000D01*
X130395459Y-82049000D01*
X130418141Y-82051234D01*
X130418141Y-82051234D01*
G37*
G36*
X143655944Y-82052002D02*
X143679355Y-82059104D01*
X143700936Y-82070639D01*
X143719844Y-82086156D01*
X143735361Y-82105064D01*
X143746896Y-82126645D01*
X143753998Y-82150056D01*
X143757000Y-82180538D01*
X143757000Y-82919462D01*
X143753998Y-82949944D01*
X143746896Y-82973355D01*
X143735361Y-82994936D01*
X143719844Y-83013844D01*
X143700936Y-83029361D01*
X143679355Y-83040896D01*
X143655944Y-83047998D01*
X143625462Y-83051000D01*
X142146541Y-83051000D01*
X142123859Y-83048766D01*
X142107949Y-83043940D01*
X142093292Y-83036105D01*
X142080441Y-83025559D01*
X142069895Y-83012708D01*
X142062060Y-82998051D01*
X142057234Y-82982141D01*
X142055000Y-82959459D01*
X142055000Y-82140541D01*
X142057234Y-82117859D01*
X142062060Y-82101949D01*
X142069895Y-82087292D01*
X142080441Y-82074441D01*
X142093292Y-82063895D01*
X142107949Y-82056060D01*
X142123859Y-82051234D01*
X142146541Y-82049000D01*
X143625462Y-82049000D01*
X143655944Y-82052002D01*
X143655944Y-82052002D01*
G37*
G36*
X130418141Y-80781234D02*
X130434051Y-80786060D01*
X130448708Y-80793895D01*
X130461559Y-80804441D01*
X130472105Y-80817292D01*
X130479940Y-80831949D01*
X130484766Y-80847859D01*
X130487000Y-80870541D01*
X130487000Y-81689459D01*
X130484766Y-81712141D01*
X130479940Y-81728051D01*
X130472105Y-81742708D01*
X130461559Y-81755559D01*
X130448708Y-81766105D01*
X130434051Y-81773940D01*
X130418141Y-81778766D01*
X130395459Y-81781000D01*
X128916538Y-81781000D01*
X128886056Y-81777998D01*
X128862645Y-81770896D01*
X128841064Y-81759361D01*
X128822156Y-81743844D01*
X128806639Y-81724936D01*
X128795104Y-81703355D01*
X128788002Y-81679944D01*
X128785000Y-81649462D01*
X128785000Y-80910538D01*
X128788002Y-80880056D01*
X128795104Y-80856645D01*
X128806639Y-80835064D01*
X128822156Y-80816156D01*
X128841064Y-80800639D01*
X128862645Y-80789104D01*
X128886056Y-80782002D01*
X128916538Y-80779000D01*
X130395459Y-80779000D01*
X130418141Y-80781234D01*
X130418141Y-80781234D01*
G37*
G36*
X143655944Y-80782002D02*
X143679355Y-80789104D01*
X143700936Y-80800639D01*
X143719844Y-80816156D01*
X143735361Y-80835064D01*
X143746896Y-80856645D01*
X143753998Y-80880056D01*
X143757000Y-80910538D01*
X143757000Y-81649462D01*
X143753998Y-81679944D01*
X143746896Y-81703355D01*
X143735361Y-81724936D01*
X143719844Y-81743844D01*
X143700936Y-81759361D01*
X143679355Y-81770896D01*
X143655944Y-81777998D01*
X143625462Y-81781000D01*
X142146541Y-81781000D01*
X142123859Y-81778766D01*
X142107949Y-81773940D01*
X142093292Y-81766105D01*
X142080441Y-81755559D01*
X142069895Y-81742708D01*
X142062060Y-81728051D01*
X142057234Y-81712141D01*
X142055000Y-81689459D01*
X142055000Y-80870541D01*
X142057234Y-80847859D01*
X142062060Y-80831949D01*
X142069895Y-80817292D01*
X142080441Y-80804441D01*
X142093292Y-80793895D01*
X142107949Y-80786060D01*
X142123859Y-80781234D01*
X142146541Y-80779000D01*
X143625462Y-80779000D01*
X143655944Y-80782002D01*
X143655944Y-80782002D01*
G37*
G36*
X130418141Y-79511234D02*
X130434051Y-79516060D01*
X130448708Y-79523895D01*
X130461559Y-79534441D01*
X130472105Y-79547292D01*
X130479940Y-79561949D01*
X130484766Y-79577859D01*
X130487000Y-79600541D01*
X130487000Y-80419459D01*
X130484766Y-80442141D01*
X130479940Y-80458051D01*
X130472105Y-80472708D01*
X130461559Y-80485559D01*
X130448708Y-80496105D01*
X130434051Y-80503940D01*
X130418141Y-80508766D01*
X130395459Y-80511000D01*
X128916538Y-80511000D01*
X128886056Y-80507998D01*
X128862645Y-80500896D01*
X128841064Y-80489361D01*
X128822156Y-80473844D01*
X128806639Y-80454936D01*
X128795104Y-80433355D01*
X128788002Y-80409944D01*
X128785000Y-80379462D01*
X128785000Y-79640538D01*
X128788002Y-79610056D01*
X128795104Y-79586645D01*
X128806639Y-79565064D01*
X128822156Y-79546156D01*
X128841064Y-79530639D01*
X128862645Y-79519104D01*
X128886056Y-79512002D01*
X128916538Y-79509000D01*
X130395459Y-79509000D01*
X130418141Y-79511234D01*
X130418141Y-79511234D01*
G37*
G36*
X143655944Y-79512002D02*
X143679355Y-79519104D01*
X143700936Y-79530639D01*
X143719844Y-79546156D01*
X143735361Y-79565064D01*
X143746896Y-79586645D01*
X143753998Y-79610056D01*
X143757000Y-79640538D01*
X143757000Y-80379462D01*
X143753998Y-80409944D01*
X143746896Y-80433355D01*
X143735361Y-80454936D01*
X143719844Y-80473844D01*
X143700936Y-80489361D01*
X143679355Y-80500896D01*
X143655944Y-80507998D01*
X143625462Y-80511000D01*
X142146541Y-80511000D01*
X142123859Y-80508766D01*
X142107949Y-80503940D01*
X142093292Y-80496105D01*
X142080441Y-80485559D01*
X142069895Y-80472708D01*
X142062060Y-80458051D01*
X142057234Y-80442141D01*
X142055000Y-80419459D01*
X142055000Y-79600541D01*
X142057234Y-79577859D01*
X142062060Y-79561949D01*
X142069895Y-79547292D01*
X142080441Y-79534441D01*
X142093292Y-79523895D01*
X142107949Y-79516060D01*
X142123859Y-79511234D01*
X142146541Y-79509000D01*
X143625462Y-79509000D01*
X143655944Y-79512002D01*
X143655944Y-79512002D01*
G37*
G36*
X143655944Y-78242002D02*
X143679355Y-78249104D01*
X143700936Y-78260639D01*
X143719844Y-78276156D01*
X143735361Y-78295064D01*
X143746896Y-78316645D01*
X143753998Y-78340056D01*
X143757000Y-78370538D01*
X143757000Y-79109462D01*
X143753998Y-79139944D01*
X143746896Y-79163355D01*
X143735361Y-79184936D01*
X143719844Y-79203844D01*
X143700936Y-79219361D01*
X143679355Y-79230896D01*
X143655944Y-79237998D01*
X143625462Y-79241000D01*
X142146541Y-79241000D01*
X142123859Y-79238766D01*
X142107949Y-79233940D01*
X142093292Y-79226105D01*
X142080441Y-79215559D01*
X142069895Y-79202708D01*
X142062060Y-79188051D01*
X142057234Y-79172141D01*
X142055000Y-79149459D01*
X142055000Y-78330541D01*
X142057234Y-78307859D01*
X142062060Y-78291949D01*
X142069895Y-78277292D01*
X142080441Y-78264441D01*
X142093292Y-78253895D01*
X142107949Y-78246060D01*
X142123859Y-78241234D01*
X142146541Y-78239000D01*
X143625462Y-78239000D01*
X143655944Y-78242002D01*
X143655944Y-78242002D01*
G37*
G36*
X130418141Y-78241234D02*
X130434051Y-78246060D01*
X130448708Y-78253895D01*
X130461559Y-78264441D01*
X130472105Y-78277292D01*
X130479940Y-78291949D01*
X130484766Y-78307859D01*
X130487000Y-78330541D01*
X130487000Y-79149459D01*
X130484766Y-79172141D01*
X130479940Y-79188051D01*
X130472105Y-79202708D01*
X130461559Y-79215559D01*
X130448708Y-79226105D01*
X130434051Y-79233940D01*
X130418141Y-79238766D01*
X130395459Y-79241000D01*
X128916538Y-79241000D01*
X128886056Y-79237998D01*
X128862645Y-79230896D01*
X128841064Y-79219361D01*
X128822156Y-79203844D01*
X128806639Y-79184936D01*
X128795104Y-79163355D01*
X128788002Y-79139944D01*
X128785000Y-79109462D01*
X128785000Y-78370538D01*
X128788002Y-78340056D01*
X128795104Y-78316645D01*
X128806639Y-78295064D01*
X128822156Y-78276156D01*
X128841064Y-78260639D01*
X128862645Y-78249104D01*
X128886056Y-78242002D01*
X128916538Y-78239000D01*
X130395459Y-78239000D01*
X130418141Y-78241234D01*
X130418141Y-78241234D01*
G37*
G36*
X143655944Y-76972002D02*
X143679355Y-76979104D01*
X143700936Y-76990639D01*
X143719844Y-77006156D01*
X143735361Y-77025064D01*
X143746896Y-77046645D01*
X143753998Y-77070056D01*
X143757000Y-77100538D01*
X143757000Y-77839462D01*
X143753998Y-77869944D01*
X143746896Y-77893355D01*
X143735361Y-77914936D01*
X143719844Y-77933844D01*
X143700936Y-77949361D01*
X143679355Y-77960896D01*
X143655944Y-77967998D01*
X143625462Y-77971000D01*
X142146541Y-77971000D01*
X142123859Y-77968766D01*
X142107949Y-77963940D01*
X142093292Y-77956105D01*
X142080441Y-77945559D01*
X142069895Y-77932708D01*
X142062060Y-77918051D01*
X142057234Y-77902141D01*
X142055000Y-77879459D01*
X142055000Y-77060541D01*
X142057234Y-77037859D01*
X142062060Y-77021949D01*
X142069895Y-77007292D01*
X142080441Y-76994441D01*
X142093292Y-76983895D01*
X142107949Y-76976060D01*
X142123859Y-76971234D01*
X142146541Y-76969000D01*
X143625462Y-76969000D01*
X143655944Y-76972002D01*
X143655944Y-76972002D01*
G37*
G36*
X130418141Y-76971234D02*
X130434051Y-76976060D01*
X130448708Y-76983895D01*
X130461559Y-76994441D01*
X130472105Y-77007292D01*
X130479940Y-77021949D01*
X130484766Y-77037859D01*
X130487000Y-77060541D01*
X130487000Y-77879459D01*
X130484766Y-77902141D01*
X130479940Y-77918051D01*
X130472105Y-77932708D01*
X130461559Y-77945559D01*
X130448708Y-77956105D01*
X130434051Y-77963940D01*
X130418141Y-77968766D01*
X130395459Y-77971000D01*
X128916538Y-77971000D01*
X128886056Y-77967998D01*
X128862645Y-77960896D01*
X128841064Y-77949361D01*
X128822156Y-77933844D01*
X128806639Y-77914936D01*
X128795104Y-77893355D01*
X128788002Y-77869944D01*
X128785000Y-77839462D01*
X128785000Y-77100538D01*
X128788002Y-77070056D01*
X128795104Y-77046645D01*
X128806639Y-77025064D01*
X128822156Y-77006156D01*
X128841064Y-76990639D01*
X128862645Y-76979104D01*
X128886056Y-76972002D01*
X128916538Y-76969000D01*
X130395459Y-76969000D01*
X130418141Y-76971234D01*
X130418141Y-76971234D01*
G37*
G36*
X143655944Y-75702002D02*
X143679355Y-75709104D01*
X143700936Y-75720639D01*
X143719844Y-75736156D01*
X143735361Y-75755064D01*
X143746896Y-75776645D01*
X143753998Y-75800056D01*
X143757000Y-75830538D01*
X143757000Y-76569462D01*
X143753998Y-76599944D01*
X143746896Y-76623355D01*
X143735361Y-76644936D01*
X143719844Y-76663844D01*
X143700936Y-76679361D01*
X143679355Y-76690896D01*
X143655944Y-76697998D01*
X143625462Y-76701000D01*
X142146541Y-76701000D01*
X142123859Y-76698766D01*
X142107949Y-76693940D01*
X142093292Y-76686105D01*
X142080441Y-76675559D01*
X142069895Y-76662708D01*
X142062060Y-76648051D01*
X142057234Y-76632141D01*
X142055000Y-76609459D01*
X142055000Y-75790541D01*
X142057234Y-75767859D01*
X142062060Y-75751949D01*
X142069895Y-75737292D01*
X142080441Y-75724441D01*
X142093292Y-75713895D01*
X142107949Y-75706060D01*
X142123859Y-75701234D01*
X142146541Y-75699000D01*
X143625462Y-75699000D01*
X143655944Y-75702002D01*
X143655944Y-75702002D01*
G37*
G36*
X130418141Y-75701234D02*
X130434051Y-75706060D01*
X130448708Y-75713895D01*
X130461559Y-75724441D01*
X130472105Y-75737292D01*
X130479940Y-75751949D01*
X130484766Y-75767859D01*
X130487000Y-75790541D01*
X130487000Y-76609459D01*
X130484766Y-76632141D01*
X130479940Y-76648051D01*
X130472105Y-76662708D01*
X130461559Y-76675559D01*
X130448708Y-76686105D01*
X130434051Y-76693940D01*
X130418141Y-76698766D01*
X130395459Y-76701000D01*
X128916538Y-76701000D01*
X128886056Y-76697998D01*
X128862645Y-76690896D01*
X128841064Y-76679361D01*
X128822156Y-76663844D01*
X128806639Y-76644936D01*
X128795104Y-76623355D01*
X128788002Y-76599944D01*
X128785000Y-76569462D01*
X128785000Y-75830538D01*
X128788002Y-75800056D01*
X128795104Y-75776645D01*
X128806639Y-75755064D01*
X128822156Y-75736156D01*
X128841064Y-75720639D01*
X128862645Y-75709104D01*
X128886056Y-75702002D01*
X128916538Y-75699000D01*
X130395459Y-75699000D01*
X130418141Y-75701234D01*
X130418141Y-75701234D01*
G37*
G36*
X141115944Y-72527002D02*
X141139355Y-72534104D01*
X141160936Y-72545639D01*
X141179844Y-72561156D01*
X141195361Y-72580064D01*
X141206896Y-72601645D01*
X141213998Y-72625056D01*
X141217000Y-72655538D01*
X141217000Y-74134459D01*
X141214766Y-74157141D01*
X141209940Y-74173051D01*
X141202105Y-74187708D01*
X141191559Y-74200559D01*
X141178708Y-74211105D01*
X141164051Y-74218940D01*
X141148141Y-74223766D01*
X141125459Y-74226000D01*
X140306541Y-74226000D01*
X140283859Y-74223766D01*
X140267949Y-74218940D01*
X140253292Y-74211105D01*
X140240441Y-74200559D01*
X140229895Y-74187708D01*
X140222060Y-74173051D01*
X140217234Y-74157141D01*
X140215000Y-74134459D01*
X140215000Y-72655538D01*
X140218002Y-72625056D01*
X140225104Y-72601645D01*
X140236639Y-72580064D01*
X140252156Y-72561156D01*
X140271064Y-72545639D01*
X140292645Y-72534104D01*
X140316056Y-72527002D01*
X140346538Y-72524000D01*
X141085462Y-72524000D01*
X141115944Y-72527002D01*
X141115944Y-72527002D01*
G37*
G36*
X139845944Y-72527002D02*
X139869355Y-72534104D01*
X139890936Y-72545639D01*
X139909844Y-72561156D01*
X139925361Y-72580064D01*
X139936896Y-72601645D01*
X139943998Y-72625056D01*
X139947000Y-72655538D01*
X139947000Y-74134459D01*
X139944766Y-74157141D01*
X139939940Y-74173051D01*
X139932105Y-74187708D01*
X139921559Y-74200559D01*
X139908708Y-74211105D01*
X139894051Y-74218940D01*
X139878141Y-74223766D01*
X139855459Y-74226000D01*
X139036541Y-74226000D01*
X139013859Y-74223766D01*
X138997949Y-74218940D01*
X138983292Y-74211105D01*
X138970441Y-74200559D01*
X138959895Y-74187708D01*
X138952060Y-74173051D01*
X138947234Y-74157141D01*
X138945000Y-74134459D01*
X138945000Y-72655538D01*
X138948002Y-72625056D01*
X138955104Y-72601645D01*
X138966639Y-72580064D01*
X138982156Y-72561156D01*
X139001064Y-72545639D01*
X139022645Y-72534104D01*
X139046056Y-72527002D01*
X139076538Y-72524000D01*
X139815462Y-72524000D01*
X139845944Y-72527002D01*
X139845944Y-72527002D01*
G37*
G36*
X138575944Y-72527002D02*
X138599355Y-72534104D01*
X138620936Y-72545639D01*
X138639844Y-72561156D01*
X138655361Y-72580064D01*
X138666896Y-72601645D01*
X138673998Y-72625056D01*
X138677000Y-72655538D01*
X138677000Y-74134459D01*
X138674766Y-74157141D01*
X138669940Y-74173051D01*
X138662105Y-74187708D01*
X138651559Y-74200559D01*
X138638708Y-74211105D01*
X138624051Y-74218940D01*
X138608141Y-74223766D01*
X138585459Y-74226000D01*
X137766541Y-74226000D01*
X137743859Y-74223766D01*
X137727949Y-74218940D01*
X137713292Y-74211105D01*
X137700441Y-74200559D01*
X137689895Y-74187708D01*
X137682060Y-74173051D01*
X137677234Y-74157141D01*
X137675000Y-74134459D01*
X137675000Y-72655538D01*
X137678002Y-72625056D01*
X137685104Y-72601645D01*
X137696639Y-72580064D01*
X137712156Y-72561156D01*
X137731064Y-72545639D01*
X137752645Y-72534104D01*
X137776056Y-72527002D01*
X137806538Y-72524000D01*
X138545462Y-72524000D01*
X138575944Y-72527002D01*
X138575944Y-72527002D01*
G37*
M02*
