G04 #@! TF.GenerationSoftware,KiCad,Pcbnew,(5.0.1-3-g963ef8bb5)*
G04 #@! TF.CreationDate,2019-02-28T22:02:17+01:00*
G04 #@! TF.ProjectId,TLM-breakout-v1,544C4D2D627265616B6F75742D76312E,1.0*
G04 #@! TF.SameCoordinates,Original*
G04 #@! TF.FileFunction,Legend,Top*
G04 #@! TF.FilePolarity,Positive*
%FSLAX46Y46*%
G04 Gerber Fmt 4.6, Leading zero omitted, Abs format (unit mm)*
G04 Created by KiCad (PCBNEW (5.0.1-3-g963ef8bb5)) date 2019 February 28, Thursday 22:02:17*
%MOMM*%
%LPD*%
G01*
G04 APERTURE LIST*
%ADD10C,0.100000*%
%ADD11C,0.200000*%
%ADD12C,0.187500*%
%ADD13C,0.175000*%
%ADD14C,0.250000*%
%ADD15C,0.120000*%
%ADD16C,0.150000*%
G04 APERTURE END LIST*
D10*
X145411994Y-114491904D02*
X145481041Y-114510952D01*
X145600089Y-114510952D01*
X145650089Y-114491904D01*
X145676279Y-114472857D01*
X145704851Y-114434761D01*
X145709613Y-114396666D01*
X145690565Y-114358571D01*
X145669136Y-114339523D01*
X145623898Y-114320476D01*
X145531041Y-114301428D01*
X145485803Y-114282380D01*
X145464375Y-114263333D01*
X145445327Y-114225238D01*
X145450089Y-114187142D01*
X145478660Y-114149047D01*
X145504851Y-114130000D01*
X145554851Y-114110952D01*
X145673898Y-114110952D01*
X145742946Y-114130000D01*
X145909613Y-114510952D02*
X145959613Y-114110952D01*
X146078660Y-114110952D01*
X146147708Y-114130000D01*
X146190565Y-114168095D01*
X146209613Y-114206190D01*
X146223898Y-114282380D01*
X146216755Y-114339523D01*
X146183422Y-114415714D01*
X146154851Y-114453809D01*
X146102470Y-114491904D01*
X146028660Y-114510952D01*
X145909613Y-114510952D01*
X146400089Y-114396666D02*
X146638184Y-114396666D01*
X146338184Y-114510952D02*
X146554851Y-114110952D01*
X146671517Y-114510952D01*
X145463898Y-111931904D02*
X145532946Y-111950952D01*
X145651994Y-111950952D01*
X145701994Y-111931904D01*
X145728184Y-111912857D01*
X145756755Y-111874761D01*
X145761517Y-111836666D01*
X145742470Y-111798571D01*
X145721041Y-111779523D01*
X145675803Y-111760476D01*
X145582946Y-111741428D01*
X145537708Y-111722380D01*
X145516279Y-111703333D01*
X145497232Y-111665238D01*
X145501994Y-111627142D01*
X145530565Y-111589047D01*
X145556755Y-111570000D01*
X145606755Y-111550952D01*
X145725803Y-111550952D01*
X145794851Y-111570000D01*
X146251994Y-111912857D02*
X146225803Y-111931904D01*
X146151994Y-111950952D01*
X146104375Y-111950952D01*
X146035327Y-111931904D01*
X145992470Y-111893809D01*
X145973422Y-111855714D01*
X145959136Y-111779523D01*
X145966279Y-111722380D01*
X145999613Y-111646190D01*
X146028184Y-111608095D01*
X146080565Y-111570000D01*
X146154375Y-111550952D01*
X146201994Y-111550952D01*
X146271041Y-111570000D01*
X146292470Y-111589047D01*
X146699613Y-111950952D02*
X146461517Y-111950952D01*
X146511517Y-111550952D01*
X145295327Y-109420952D02*
X145345327Y-109020952D01*
X145535803Y-109020952D01*
X145581041Y-109040000D01*
X145602470Y-109059047D01*
X145621517Y-109097142D01*
X145614375Y-109154285D01*
X145585803Y-109192380D01*
X145559613Y-109211428D01*
X145509613Y-109230476D01*
X145319136Y-109230476D01*
X145785803Y-109306666D02*
X146023898Y-109306666D01*
X145723898Y-109420952D02*
X145940565Y-109020952D01*
X146057232Y-109420952D01*
X146369136Y-109020952D02*
X146416755Y-109020952D01*
X146461994Y-109040000D01*
X146483422Y-109059047D01*
X146502470Y-109097142D01*
X146516755Y-109173333D01*
X146504851Y-109268571D01*
X146471517Y-109344761D01*
X146442946Y-109382857D01*
X146416755Y-109401904D01*
X146366755Y-109420952D01*
X146319136Y-109420952D01*
X146273898Y-109401904D01*
X146252470Y-109382857D01*
X146233422Y-109344761D01*
X146219136Y-109268571D01*
X146231041Y-109173333D01*
X146264375Y-109097142D01*
X146292946Y-109059047D01*
X146319136Y-109040000D01*
X146369136Y-109020952D01*
X146964375Y-109020952D02*
X146869136Y-109020952D01*
X146819136Y-109040000D01*
X146792946Y-109059047D01*
X146738184Y-109116190D01*
X146704851Y-109192380D01*
X146685803Y-109344761D01*
X146704851Y-109382857D01*
X146726279Y-109401904D01*
X146771517Y-109420952D01*
X146866755Y-109420952D01*
X146916755Y-109401904D01*
X146942946Y-109382857D01*
X146971517Y-109344761D01*
X146983422Y-109249523D01*
X146964375Y-109211428D01*
X146942946Y-109192380D01*
X146897708Y-109173333D01*
X146802470Y-109173333D01*
X146752470Y-109192380D01*
X146726279Y-109211428D01*
X146697708Y-109249523D01*
X145295327Y-106880952D02*
X145345327Y-106480952D01*
X145535803Y-106480952D01*
X145581041Y-106500000D01*
X145602470Y-106519047D01*
X145621517Y-106557142D01*
X145614375Y-106614285D01*
X145585803Y-106652380D01*
X145559613Y-106671428D01*
X145509613Y-106690476D01*
X145319136Y-106690476D01*
X145785803Y-106766666D02*
X146023898Y-106766666D01*
X145723898Y-106880952D02*
X145940565Y-106480952D01*
X146057232Y-106880952D01*
X146245327Y-106519047D02*
X146271517Y-106500000D01*
X146321517Y-106480952D01*
X146440565Y-106480952D01*
X146485803Y-106500000D01*
X146507232Y-106519047D01*
X146526279Y-106557142D01*
X146521517Y-106595238D01*
X146490565Y-106652380D01*
X146176279Y-106880952D01*
X146485803Y-106880952D01*
X146702470Y-106480952D02*
X147035803Y-106480952D01*
X146771517Y-106880952D01*
X145295327Y-104340952D02*
X145345327Y-103940952D01*
X145535803Y-103940952D01*
X145581041Y-103960000D01*
X145602470Y-103979047D01*
X145621517Y-104017142D01*
X145614375Y-104074285D01*
X145585803Y-104112380D01*
X145559613Y-104131428D01*
X145509613Y-104150476D01*
X145319136Y-104150476D01*
X145785803Y-104226666D02*
X146023898Y-104226666D01*
X145723898Y-104340952D02*
X145940565Y-103940952D01*
X146057232Y-104340952D01*
X146369136Y-103940952D02*
X146416755Y-103940952D01*
X146461994Y-103960000D01*
X146483422Y-103979047D01*
X146502470Y-104017142D01*
X146516755Y-104093333D01*
X146504851Y-104188571D01*
X146471517Y-104264761D01*
X146442946Y-104302857D01*
X146416755Y-104321904D01*
X146366755Y-104340952D01*
X146319136Y-104340952D01*
X146273898Y-104321904D01*
X146252470Y-104302857D01*
X146233422Y-104264761D01*
X146219136Y-104188571D01*
X146231041Y-104093333D01*
X146264375Y-104017142D01*
X146292946Y-103979047D01*
X146319136Y-103960000D01*
X146369136Y-103940952D01*
X146702470Y-103940952D02*
X147035803Y-103940952D01*
X146771517Y-104340952D01*
X145295327Y-101800952D02*
X145345327Y-101400952D01*
X145535803Y-101400952D01*
X145581041Y-101420000D01*
X145602470Y-101439047D01*
X145621517Y-101477142D01*
X145614375Y-101534285D01*
X145585803Y-101572380D01*
X145559613Y-101591428D01*
X145509613Y-101610476D01*
X145319136Y-101610476D01*
X145785803Y-101686666D02*
X146023898Y-101686666D01*
X145723898Y-101800952D02*
X145940565Y-101400952D01*
X146057232Y-101800952D01*
X146369136Y-101400952D02*
X146416755Y-101400952D01*
X146461994Y-101420000D01*
X146483422Y-101439047D01*
X146502470Y-101477142D01*
X146516755Y-101553333D01*
X146504851Y-101648571D01*
X146471517Y-101724761D01*
X146442946Y-101762857D01*
X146416755Y-101781904D01*
X146366755Y-101800952D01*
X146319136Y-101800952D01*
X146273898Y-101781904D01*
X146252470Y-101762857D01*
X146233422Y-101724761D01*
X146219136Y-101648571D01*
X146231041Y-101553333D01*
X146264375Y-101477142D01*
X146292946Y-101439047D01*
X146319136Y-101420000D01*
X146369136Y-101400952D01*
X146800089Y-101572380D02*
X146754851Y-101553333D01*
X146733422Y-101534285D01*
X146714375Y-101496190D01*
X146716755Y-101477142D01*
X146745327Y-101439047D01*
X146771517Y-101420000D01*
X146821517Y-101400952D01*
X146916755Y-101400952D01*
X146961994Y-101420000D01*
X146983422Y-101439047D01*
X147002470Y-101477142D01*
X147000089Y-101496190D01*
X146971517Y-101534285D01*
X146945327Y-101553333D01*
X146895327Y-101572380D01*
X146800089Y-101572380D01*
X146750089Y-101591428D01*
X146723898Y-101610476D01*
X146695327Y-101648571D01*
X146685803Y-101724761D01*
X146704851Y-101762857D01*
X146726279Y-101781904D01*
X146771517Y-101800952D01*
X146866755Y-101800952D01*
X146916755Y-101781904D01*
X146942946Y-101762857D01*
X146971517Y-101724761D01*
X146981041Y-101648571D01*
X146961994Y-101610476D01*
X146940565Y-101591428D01*
X146895327Y-101572380D01*
X145295327Y-99260952D02*
X145345327Y-98860952D01*
X145535803Y-98860952D01*
X145581041Y-98880000D01*
X145602470Y-98899047D01*
X145621517Y-98937142D01*
X145614375Y-98994285D01*
X145585803Y-99032380D01*
X145559613Y-99051428D01*
X145509613Y-99070476D01*
X145319136Y-99070476D01*
X145785803Y-99146666D02*
X146023898Y-99146666D01*
X145723898Y-99260952D02*
X145940565Y-98860952D01*
X146057232Y-99260952D01*
X146485803Y-99260952D02*
X146200089Y-99260952D01*
X146342946Y-99260952D02*
X146392946Y-98860952D01*
X146338184Y-98918095D01*
X146285803Y-98956190D01*
X146235803Y-98975238D01*
X146800089Y-99032380D02*
X146754851Y-99013333D01*
X146733422Y-98994285D01*
X146714375Y-98956190D01*
X146716755Y-98937142D01*
X146745327Y-98899047D01*
X146771517Y-98880000D01*
X146821517Y-98860952D01*
X146916755Y-98860952D01*
X146961994Y-98880000D01*
X146983422Y-98899047D01*
X147002470Y-98937142D01*
X147000089Y-98956190D01*
X146971517Y-98994285D01*
X146945327Y-99013333D01*
X146895327Y-99032380D01*
X146800089Y-99032380D01*
X146750089Y-99051428D01*
X146723898Y-99070476D01*
X146695327Y-99108571D01*
X146685803Y-99184761D01*
X146704851Y-99222857D01*
X146726279Y-99241904D01*
X146771517Y-99260952D01*
X146866755Y-99260952D01*
X146916755Y-99241904D01*
X146942946Y-99222857D01*
X146971517Y-99184761D01*
X146981041Y-99108571D01*
X146961994Y-99070476D01*
X146940565Y-99051428D01*
X146895327Y-99032380D01*
X145295327Y-96720952D02*
X145345327Y-96320952D01*
X145535803Y-96320952D01*
X145581041Y-96340000D01*
X145602470Y-96359047D01*
X145621517Y-96397142D01*
X145614375Y-96454285D01*
X145585803Y-96492380D01*
X145559613Y-96511428D01*
X145509613Y-96530476D01*
X145319136Y-96530476D01*
X145785803Y-96606666D02*
X146023898Y-96606666D01*
X145723898Y-96720952D02*
X145940565Y-96320952D01*
X146057232Y-96720952D01*
X146485803Y-96720952D02*
X146200089Y-96720952D01*
X146342946Y-96720952D02*
X146392946Y-96320952D01*
X146338184Y-96378095D01*
X146285803Y-96416190D01*
X146235803Y-96435238D01*
X146988184Y-96320952D02*
X146750089Y-96320952D01*
X146702470Y-96511428D01*
X146728660Y-96492380D01*
X146778660Y-96473333D01*
X146897708Y-96473333D01*
X146942946Y-96492380D01*
X146964375Y-96511428D01*
X146983422Y-96549523D01*
X146971517Y-96644761D01*
X146942946Y-96682857D01*
X146916755Y-96701904D01*
X146866755Y-96720952D01*
X146747708Y-96720952D01*
X146702470Y-96701904D01*
X146681041Y-96682857D01*
X145295327Y-94180952D02*
X145345327Y-93780952D01*
X145535803Y-93780952D01*
X145581041Y-93800000D01*
X145602470Y-93819047D01*
X145621517Y-93857142D01*
X145614375Y-93914285D01*
X145585803Y-93952380D01*
X145559613Y-93971428D01*
X145509613Y-93990476D01*
X145319136Y-93990476D01*
X145785803Y-94066666D02*
X146023898Y-94066666D01*
X145723898Y-94180952D02*
X145940565Y-93780952D01*
X146057232Y-94180952D01*
X146485803Y-94180952D02*
X146200089Y-94180952D01*
X146342946Y-94180952D02*
X146392946Y-93780952D01*
X146338184Y-93838095D01*
X146285803Y-93876190D01*
X146235803Y-93895238D01*
X146947708Y-93914285D02*
X146914375Y-94180952D01*
X146847708Y-93761904D02*
X146692946Y-94047619D01*
X147002470Y-94047619D01*
X145250089Y-91240952D02*
X145366755Y-91640952D01*
X145583422Y-91240952D01*
X145892946Y-91431428D02*
X145961994Y-91450476D01*
X145983422Y-91469523D01*
X146002470Y-91507619D01*
X145995327Y-91564761D01*
X145966755Y-91602857D01*
X145940565Y-91621904D01*
X145890565Y-91640952D01*
X145700089Y-91640952D01*
X145750089Y-91240952D01*
X145916755Y-91240952D01*
X145961994Y-91260000D01*
X145983422Y-91279047D01*
X146002470Y-91317142D01*
X145997708Y-91355238D01*
X145969136Y-91393333D01*
X145942946Y-91412380D01*
X145892946Y-91431428D01*
X145726279Y-91431428D01*
X146250089Y-91240952D02*
X146209613Y-91564761D01*
X146228660Y-91602857D01*
X146250089Y-91621904D01*
X146295327Y-91640952D01*
X146390565Y-91640952D01*
X146440565Y-91621904D01*
X146466755Y-91602857D01*
X146495327Y-91564761D01*
X146535803Y-91240952D01*
X146702470Y-91621904D02*
X146771517Y-91640952D01*
X146890565Y-91640952D01*
X146940565Y-91621904D01*
X146966755Y-91602857D01*
X146995327Y-91564761D01*
X147000089Y-91526666D01*
X146981041Y-91488571D01*
X146959613Y-91469523D01*
X146914375Y-91450476D01*
X146821517Y-91431428D01*
X146776279Y-91412380D01*
X146754851Y-91393333D01*
X146735803Y-91355238D01*
X146740565Y-91317142D01*
X146769136Y-91279047D01*
X146795327Y-91260000D01*
X146845327Y-91240952D01*
X146964375Y-91240952D01*
X147033422Y-91260000D01*
X145181517Y-89100952D02*
X144943422Y-89100952D01*
X144993422Y-88700952D01*
X145348184Y-89100952D02*
X145398184Y-88700952D01*
X145517232Y-88700952D01*
X145586279Y-88720000D01*
X145629136Y-88758095D01*
X145648184Y-88796190D01*
X145662470Y-88872380D01*
X145655327Y-88929523D01*
X145621994Y-89005714D01*
X145593422Y-89043809D01*
X145541041Y-89081904D01*
X145467232Y-89100952D01*
X145348184Y-89100952D01*
X145993422Y-88700952D02*
X146088660Y-88700952D01*
X146133898Y-88720000D01*
X146176755Y-88758095D01*
X146191041Y-88834285D01*
X146174375Y-88967619D01*
X146141041Y-89043809D01*
X146088660Y-89081904D01*
X146038660Y-89100952D01*
X145943422Y-89100952D01*
X145898184Y-89081904D01*
X145855327Y-89043809D01*
X145841041Y-88967619D01*
X145857708Y-88834285D01*
X145891041Y-88758095D01*
X145943422Y-88720000D01*
X145993422Y-88700952D01*
X146398184Y-88891428D02*
X146564851Y-88891428D01*
X146610089Y-89100952D02*
X146371994Y-89100952D01*
X146421994Y-88700952D01*
X146660089Y-88700952D01*
X146824375Y-89100952D02*
X146874375Y-88700952D01*
X147110089Y-89100952D01*
X147160089Y-88700952D01*
X145583422Y-86351428D02*
X145652470Y-86370476D01*
X145673898Y-86389523D01*
X145692946Y-86427619D01*
X145685803Y-86484761D01*
X145657232Y-86522857D01*
X145631041Y-86541904D01*
X145581041Y-86560952D01*
X145390565Y-86560952D01*
X145440565Y-86160952D01*
X145607232Y-86160952D01*
X145652470Y-86180000D01*
X145673898Y-86199047D01*
X145692946Y-86237142D01*
X145688184Y-86275238D01*
X145659613Y-86313333D01*
X145633422Y-86332380D01*
X145583422Y-86351428D01*
X145416755Y-86351428D01*
X145881041Y-86446666D02*
X146119136Y-86446666D01*
X145819136Y-86560952D02*
X146035803Y-86160952D01*
X146152470Y-86560952D01*
X146297708Y-86160952D02*
X146583422Y-86160952D01*
X146390565Y-86560952D02*
X146440565Y-86160952D01*
X146678660Y-86160952D02*
X146964375Y-86160952D01*
X146771517Y-86560952D02*
X146821517Y-86160952D01*
X125363422Y-114200000D02*
X125318184Y-114180952D01*
X125246755Y-114180952D01*
X125172946Y-114200000D01*
X125120565Y-114238095D01*
X125091994Y-114276190D01*
X125058660Y-114352380D01*
X125051517Y-114409523D01*
X125065803Y-114485714D01*
X125084851Y-114523809D01*
X125127708Y-114561904D01*
X125196755Y-114580952D01*
X125244375Y-114580952D01*
X125318184Y-114561904D01*
X125344375Y-114542857D01*
X125361041Y-114409523D01*
X125265803Y-114409523D01*
X125553898Y-114580952D02*
X125603898Y-114180952D01*
X125839613Y-114580952D01*
X125889613Y-114180952D01*
X126077708Y-114580952D02*
X126127708Y-114180952D01*
X126246755Y-114180952D01*
X126315803Y-114200000D01*
X126358660Y-114238095D01*
X126377708Y-114276190D01*
X126391994Y-114352380D01*
X126384851Y-114409523D01*
X126351517Y-114485714D01*
X126322946Y-114523809D01*
X126270565Y-114561904D01*
X126196755Y-114580952D01*
X126077708Y-114580952D01*
X125405803Y-111550952D02*
X125691517Y-111550952D01*
X125498660Y-111950952D02*
X125548660Y-111550952D01*
X125810565Y-111550952D02*
X126093898Y-111950952D01*
X126143898Y-111550952D02*
X125760565Y-111950952D01*
X125653422Y-109410952D02*
X125510565Y-109220476D01*
X125367708Y-109410952D02*
X125417708Y-109010952D01*
X125608184Y-109010952D01*
X125653422Y-109030000D01*
X125674851Y-109049047D01*
X125693898Y-109087142D01*
X125686755Y-109144285D01*
X125658184Y-109182380D01*
X125631994Y-109201428D01*
X125581994Y-109220476D01*
X125391517Y-109220476D01*
X125870089Y-109010952D02*
X126153422Y-109410952D01*
X126203422Y-109010952D02*
X125820089Y-109410952D01*
X124951041Y-106870952D02*
X125001041Y-106470952D01*
X125131994Y-106756666D01*
X125334375Y-106470952D01*
X125284375Y-106870952D01*
X125522470Y-106870952D02*
X125572470Y-106470952D01*
X125739136Y-106851904D02*
X125808184Y-106870952D01*
X125927232Y-106870952D01*
X125977232Y-106851904D01*
X126003422Y-106832857D01*
X126031994Y-106794761D01*
X126036755Y-106756666D01*
X126017708Y-106718571D01*
X125996279Y-106699523D01*
X125951041Y-106680476D01*
X125858184Y-106661428D01*
X125812946Y-106642380D01*
X125791517Y-106623333D01*
X125772470Y-106585238D01*
X125777232Y-106547142D01*
X125805803Y-106509047D01*
X125831994Y-106490000D01*
X125881994Y-106470952D01*
X126001041Y-106470952D01*
X126070089Y-106490000D01*
X126381994Y-106470952D02*
X126477232Y-106470952D01*
X126522470Y-106490000D01*
X126565327Y-106528095D01*
X126579613Y-106604285D01*
X126562946Y-106737619D01*
X126529613Y-106813809D01*
X126477232Y-106851904D01*
X126427232Y-106870952D01*
X126331994Y-106870952D01*
X126286755Y-106851904D01*
X126243898Y-106813809D01*
X126229613Y-106737619D01*
X126246279Y-106604285D01*
X126279613Y-106528095D01*
X126331994Y-106490000D01*
X126381994Y-106470952D01*
X124951041Y-104330952D02*
X125001041Y-103930952D01*
X125131994Y-104216666D01*
X125334375Y-103930952D01*
X125284375Y-104330952D01*
X125667708Y-103930952D02*
X125762946Y-103930952D01*
X125808184Y-103950000D01*
X125851041Y-103988095D01*
X125865327Y-104064285D01*
X125848660Y-104197619D01*
X125815327Y-104273809D01*
X125762946Y-104311904D01*
X125712946Y-104330952D01*
X125617708Y-104330952D01*
X125572470Y-104311904D01*
X125529613Y-104273809D01*
X125515327Y-104197619D01*
X125531994Y-104064285D01*
X125565327Y-103988095D01*
X125617708Y-103950000D01*
X125667708Y-103930952D01*
X126024851Y-104311904D02*
X126093898Y-104330952D01*
X126212946Y-104330952D01*
X126262946Y-104311904D01*
X126289136Y-104292857D01*
X126317708Y-104254761D01*
X126322470Y-104216666D01*
X126303422Y-104178571D01*
X126281994Y-104159523D01*
X126236755Y-104140476D01*
X126143898Y-104121428D01*
X126098660Y-104102380D01*
X126077232Y-104083333D01*
X126058184Y-104045238D01*
X126062946Y-104007142D01*
X126091517Y-103969047D01*
X126117708Y-103950000D01*
X126167708Y-103930952D01*
X126286755Y-103930952D01*
X126355803Y-103950000D01*
X126522470Y-104330952D02*
X126572470Y-103930952D01*
X125096279Y-101771904D02*
X125165327Y-101790952D01*
X125284375Y-101790952D01*
X125334375Y-101771904D01*
X125360565Y-101752857D01*
X125389136Y-101714761D01*
X125393898Y-101676666D01*
X125374851Y-101638571D01*
X125353422Y-101619523D01*
X125308184Y-101600476D01*
X125215327Y-101581428D01*
X125170089Y-101562380D01*
X125148660Y-101543333D01*
X125129613Y-101505238D01*
X125134375Y-101467142D01*
X125162946Y-101429047D01*
X125189136Y-101410000D01*
X125239136Y-101390952D01*
X125358184Y-101390952D01*
X125427232Y-101410000D01*
X125884375Y-101752857D02*
X125858184Y-101771904D01*
X125784375Y-101790952D01*
X125736755Y-101790952D01*
X125667708Y-101771904D01*
X125624851Y-101733809D01*
X125605803Y-101695714D01*
X125591517Y-101619523D01*
X125598660Y-101562380D01*
X125631994Y-101486190D01*
X125660565Y-101448095D01*
X125712946Y-101410000D01*
X125786755Y-101390952D01*
X125834375Y-101390952D01*
X125903422Y-101410000D01*
X125924851Y-101429047D01*
X126093898Y-101790952D02*
X126143898Y-101390952D01*
X126379613Y-101790952D02*
X126193898Y-101562380D01*
X126429613Y-101390952D02*
X126115327Y-101619523D01*
X125358184Y-99231904D02*
X125427232Y-99250952D01*
X125546279Y-99250952D01*
X125596279Y-99231904D01*
X125622470Y-99212857D01*
X125651041Y-99174761D01*
X125655803Y-99136666D01*
X125636755Y-99098571D01*
X125615327Y-99079523D01*
X125570089Y-99060476D01*
X125477232Y-99041428D01*
X125431994Y-99022380D01*
X125410565Y-99003333D01*
X125391517Y-98965238D01*
X125396279Y-98927142D01*
X125424851Y-98889047D01*
X125451041Y-98870000D01*
X125501041Y-98850952D01*
X125620089Y-98850952D01*
X125689136Y-98870000D01*
X125834375Y-99231904D02*
X125903422Y-99250952D01*
X126022470Y-99250952D01*
X126072470Y-99231904D01*
X126098660Y-99212857D01*
X126127232Y-99174761D01*
X126131994Y-99136666D01*
X126112946Y-99098571D01*
X126091517Y-99079523D01*
X126046279Y-99060476D01*
X125953422Y-99041428D01*
X125908184Y-99022380D01*
X125886755Y-99003333D01*
X125867708Y-98965238D01*
X125872470Y-98927142D01*
X125901041Y-98889047D01*
X125927232Y-98870000D01*
X125977232Y-98850952D01*
X126096279Y-98850952D01*
X126165327Y-98870000D01*
X124915327Y-96710952D02*
X124965327Y-96310952D01*
X125155803Y-96310952D01*
X125201041Y-96330000D01*
X125222470Y-96349047D01*
X125241517Y-96387142D01*
X125234375Y-96444285D01*
X125205803Y-96482380D01*
X125179613Y-96501428D01*
X125129613Y-96520476D01*
X124939136Y-96520476D01*
X125405803Y-96596666D02*
X125643898Y-96596666D01*
X125343898Y-96710952D02*
X125560565Y-96310952D01*
X125677232Y-96710952D01*
X125865327Y-96349047D02*
X125891517Y-96330000D01*
X125941517Y-96310952D01*
X126060565Y-96310952D01*
X126105803Y-96330000D01*
X126127232Y-96349047D01*
X126146279Y-96387142D01*
X126141517Y-96425238D01*
X126110565Y-96482380D01*
X125796279Y-96710952D01*
X126105803Y-96710952D01*
X126420089Y-96482380D02*
X126374851Y-96463333D01*
X126353422Y-96444285D01*
X126334375Y-96406190D01*
X126336755Y-96387142D01*
X126365327Y-96349047D01*
X126391517Y-96330000D01*
X126441517Y-96310952D01*
X126536755Y-96310952D01*
X126581994Y-96330000D01*
X126603422Y-96349047D01*
X126622470Y-96387142D01*
X126620089Y-96406190D01*
X126591517Y-96444285D01*
X126565327Y-96463333D01*
X126515327Y-96482380D01*
X126420089Y-96482380D01*
X126370089Y-96501428D01*
X126343898Y-96520476D01*
X126315327Y-96558571D01*
X126305803Y-96634761D01*
X126324851Y-96672857D01*
X126346279Y-96691904D01*
X126391517Y-96710952D01*
X126486755Y-96710952D01*
X126536755Y-96691904D01*
X126562946Y-96672857D01*
X126591517Y-96634761D01*
X126601041Y-96558571D01*
X126581994Y-96520476D01*
X126560565Y-96501428D01*
X126515327Y-96482380D01*
X124679613Y-94151904D02*
X124748660Y-94170952D01*
X124867708Y-94170952D01*
X124917708Y-94151904D01*
X124943898Y-94132857D01*
X124972470Y-94094761D01*
X124977232Y-94056666D01*
X124958184Y-94018571D01*
X124936755Y-93999523D01*
X124891517Y-93980476D01*
X124798660Y-93961428D01*
X124753422Y-93942380D01*
X124731994Y-93923333D01*
X124712946Y-93885238D01*
X124717708Y-93847142D01*
X124746279Y-93809047D01*
X124772470Y-93790000D01*
X124822470Y-93770952D01*
X124941517Y-93770952D01*
X125010565Y-93790000D01*
X125179613Y-93770952D02*
X125248660Y-94170952D01*
X125379613Y-93885238D01*
X125439136Y-94170952D01*
X125608184Y-93770952D01*
X125748660Y-94170952D02*
X125798660Y-93770952D01*
X125917708Y-93770952D01*
X125986755Y-93790000D01*
X126029613Y-93828095D01*
X126048660Y-93866190D01*
X126062946Y-93942380D01*
X126055803Y-93999523D01*
X126022470Y-94075714D01*
X125993898Y-94113809D01*
X125941517Y-94151904D01*
X125867708Y-94170952D01*
X125748660Y-94170952D01*
X126248660Y-94170952D02*
X126298660Y-93770952D01*
X126631994Y-93770952D02*
X126727232Y-93770952D01*
X126772470Y-93790000D01*
X126815327Y-93828095D01*
X126829613Y-93904285D01*
X126812946Y-94037619D01*
X126779613Y-94113809D01*
X126727232Y-94151904D01*
X126677232Y-94170952D01*
X126581994Y-94170952D01*
X126536755Y-94151904D01*
X126493898Y-94113809D01*
X126479613Y-94037619D01*
X126496279Y-93904285D01*
X126529613Y-93828095D01*
X126581994Y-93790000D01*
X126631994Y-93770952D01*
X124608184Y-91611904D02*
X124677232Y-91630952D01*
X124796279Y-91630952D01*
X124846279Y-91611904D01*
X124872470Y-91592857D01*
X124901041Y-91554761D01*
X124905803Y-91516666D01*
X124886755Y-91478571D01*
X124865327Y-91459523D01*
X124820089Y-91440476D01*
X124727232Y-91421428D01*
X124681994Y-91402380D01*
X124660565Y-91383333D01*
X124641517Y-91345238D01*
X124646279Y-91307142D01*
X124674851Y-91269047D01*
X124701041Y-91250000D01*
X124751041Y-91230952D01*
X124870089Y-91230952D01*
X124939136Y-91250000D01*
X125108184Y-91230952D02*
X125177232Y-91630952D01*
X125308184Y-91345238D01*
X125367708Y-91630952D01*
X125536755Y-91230952D01*
X125967708Y-91592857D02*
X125941517Y-91611904D01*
X125867708Y-91630952D01*
X125820089Y-91630952D01*
X125751041Y-91611904D01*
X125708184Y-91573809D01*
X125689136Y-91535714D01*
X125674851Y-91459523D01*
X125681994Y-91402380D01*
X125715327Y-91326190D01*
X125743898Y-91288095D01*
X125796279Y-91250000D01*
X125870089Y-91230952D01*
X125917708Y-91230952D01*
X125986755Y-91250000D01*
X126008184Y-91269047D01*
X126415327Y-91630952D02*
X126177232Y-91630952D01*
X126227232Y-91230952D01*
X126581994Y-91630952D02*
X126631994Y-91230952D01*
X126867708Y-91630952D02*
X126681994Y-91402380D01*
X126917708Y-91230952D02*
X126603422Y-91459523D01*
X124915327Y-89090952D02*
X124965327Y-88690952D01*
X125155803Y-88690952D01*
X125201041Y-88710000D01*
X125222470Y-88729047D01*
X125241517Y-88767142D01*
X125234375Y-88824285D01*
X125205803Y-88862380D01*
X125179613Y-88881428D01*
X125129613Y-88900476D01*
X124939136Y-88900476D01*
X125405803Y-88976666D02*
X125643898Y-88976666D01*
X125343898Y-89090952D02*
X125560565Y-88690952D01*
X125677232Y-89090952D01*
X125865327Y-88729047D02*
X125891517Y-88710000D01*
X125941517Y-88690952D01*
X126060565Y-88690952D01*
X126105803Y-88710000D01*
X126127232Y-88729047D01*
X126146279Y-88767142D01*
X126141517Y-88805238D01*
X126110565Y-88862380D01*
X125796279Y-89090952D01*
X126105803Y-89090952D01*
X126341517Y-88729047D02*
X126367708Y-88710000D01*
X126417708Y-88690952D01*
X126536755Y-88690952D01*
X126581994Y-88710000D01*
X126603422Y-88729047D01*
X126622470Y-88767142D01*
X126617708Y-88805238D01*
X126586755Y-88862380D01*
X126272470Y-89090952D01*
X126581994Y-89090952D01*
X124915327Y-86550952D02*
X124965327Y-86150952D01*
X125155803Y-86150952D01*
X125201041Y-86170000D01*
X125222470Y-86189047D01*
X125241517Y-86227142D01*
X125234375Y-86284285D01*
X125205803Y-86322380D01*
X125179613Y-86341428D01*
X125129613Y-86360476D01*
X124939136Y-86360476D01*
X125405803Y-86436666D02*
X125643898Y-86436666D01*
X125343898Y-86550952D02*
X125560565Y-86150952D01*
X125677232Y-86550952D01*
X126105803Y-86550952D02*
X125820089Y-86550952D01*
X125962946Y-86550952D02*
X126012946Y-86150952D01*
X125958184Y-86208095D01*
X125905803Y-86246190D01*
X125855803Y-86265238D01*
X126343898Y-86550952D02*
X126439136Y-86550952D01*
X126489136Y-86531904D01*
X126515327Y-86512857D01*
X126570089Y-86455714D01*
X126603422Y-86379523D01*
X126622470Y-86227142D01*
X126603422Y-86189047D01*
X126581994Y-86170000D01*
X126536755Y-86150952D01*
X126441517Y-86150952D01*
X126391517Y-86170000D01*
X126365327Y-86189047D01*
X126336755Y-86227142D01*
X126324851Y-86322380D01*
X126343898Y-86360476D01*
X126365327Y-86379523D01*
X126410565Y-86398571D01*
X126505803Y-86398571D01*
X126555803Y-86379523D01*
X126581994Y-86360476D01*
X126610565Y-86322380D01*
X125403422Y-83630000D02*
X125358184Y-83610952D01*
X125286755Y-83610952D01*
X125212946Y-83630000D01*
X125160565Y-83668095D01*
X125131994Y-83706190D01*
X125098660Y-83782380D01*
X125091517Y-83839523D01*
X125105803Y-83915714D01*
X125124851Y-83953809D01*
X125167708Y-83991904D01*
X125236755Y-84010952D01*
X125284375Y-84010952D01*
X125358184Y-83991904D01*
X125384375Y-83972857D01*
X125401041Y-83839523D01*
X125305803Y-83839523D01*
X125593898Y-84010952D02*
X125643898Y-83610952D01*
X125879613Y-84010952D01*
X125929613Y-83610952D01*
X126117708Y-84010952D02*
X126167708Y-83610952D01*
X126286755Y-83610952D01*
X126355803Y-83630000D01*
X126398660Y-83668095D01*
X126417708Y-83706190D01*
X126431994Y-83782380D01*
X126424851Y-83839523D01*
X126391517Y-83915714D01*
X126362946Y-83953809D01*
X126310565Y-83991904D01*
X126236755Y-84010952D01*
X126117708Y-84010952D01*
X125048660Y-81261428D02*
X125117708Y-81280476D01*
X125139136Y-81299523D01*
X125158184Y-81337619D01*
X125151041Y-81394761D01*
X125122470Y-81432857D01*
X125096279Y-81451904D01*
X125046279Y-81470952D01*
X124855803Y-81470952D01*
X124905803Y-81070952D01*
X125072470Y-81070952D01*
X125117708Y-81090000D01*
X125139136Y-81109047D01*
X125158184Y-81147142D01*
X125153422Y-81185238D01*
X125124851Y-81223333D01*
X125098660Y-81242380D01*
X125048660Y-81261428D01*
X124881994Y-81261428D01*
X125646279Y-81432857D02*
X125620089Y-81451904D01*
X125546279Y-81470952D01*
X125498660Y-81470952D01*
X125429613Y-81451904D01*
X125386755Y-81413809D01*
X125367708Y-81375714D01*
X125353422Y-81299523D01*
X125360565Y-81242380D01*
X125393898Y-81166190D01*
X125422470Y-81128095D01*
X125474851Y-81090000D01*
X125548660Y-81070952D01*
X125596279Y-81070952D01*
X125665327Y-81090000D01*
X125686755Y-81109047D01*
X125855803Y-81470952D02*
X125905803Y-81070952D01*
X126141517Y-81470952D02*
X125955803Y-81242380D01*
X126191517Y-81070952D02*
X125877232Y-81299523D01*
X126355803Y-81470952D02*
X126405803Y-81070952D01*
X126596279Y-81070952D01*
X126641517Y-81090000D01*
X126662946Y-81109047D01*
X126681994Y-81147142D01*
X126674851Y-81204285D01*
X126646279Y-81242380D01*
X126620089Y-81261428D01*
X126570089Y-81280476D01*
X126379613Y-81280476D01*
X125167708Y-78530952D02*
X125477232Y-78530952D01*
X125291517Y-78683333D01*
X125362946Y-78683333D01*
X125408184Y-78702380D01*
X125429613Y-78721428D01*
X125448660Y-78759523D01*
X125436755Y-78854761D01*
X125408184Y-78892857D01*
X125381994Y-78911904D01*
X125331994Y-78930952D01*
X125189136Y-78930952D01*
X125143898Y-78911904D01*
X125122470Y-78892857D01*
X125620089Y-78530952D02*
X125736755Y-78930952D01*
X125953422Y-78530952D01*
X126072470Y-78530952D02*
X126381994Y-78530952D01*
X126196279Y-78683333D01*
X126267708Y-78683333D01*
X126312946Y-78702380D01*
X126334375Y-78721428D01*
X126353422Y-78759523D01*
X126341517Y-78854761D01*
X126312946Y-78892857D01*
X126286755Y-78911904D01*
X126236755Y-78930952D01*
X126093898Y-78930952D01*
X126048660Y-78911904D01*
X126027232Y-78892857D01*
X125462946Y-76390952D02*
X125320089Y-76200476D01*
X125177232Y-76390952D02*
X125227232Y-75990952D01*
X125417708Y-75990952D01*
X125462946Y-76010000D01*
X125484375Y-76029047D01*
X125503422Y-76067142D01*
X125496279Y-76124285D01*
X125467708Y-76162380D01*
X125441517Y-76181428D01*
X125391517Y-76200476D01*
X125201041Y-76200476D01*
X125655803Y-76371904D02*
X125724851Y-76390952D01*
X125843898Y-76390952D01*
X125893898Y-76371904D01*
X125920089Y-76352857D01*
X125948660Y-76314761D01*
X125953422Y-76276666D01*
X125934375Y-76238571D01*
X125912946Y-76219523D01*
X125867708Y-76200476D01*
X125774851Y-76181428D01*
X125729613Y-76162380D01*
X125708184Y-76143333D01*
X125689136Y-76105238D01*
X125693898Y-76067142D01*
X125722470Y-76029047D01*
X125748660Y-76010000D01*
X125798660Y-75990952D01*
X125917708Y-75990952D01*
X125986755Y-76010000D01*
X126131994Y-75990952D02*
X126417708Y-75990952D01*
X126224851Y-76390952D02*
X126274851Y-75990952D01*
D11*
X128727200Y-84480400D02*
X128727200Y-83286600D01*
X130048000Y-84480400D02*
X128778000Y-84480400D01*
X131826000Y-80111600D02*
X132384800Y-80111600D01*
X131826000Y-80365600D02*
X131826000Y-80111600D01*
D10*
X132748184Y-80111428D02*
X132581517Y-80111428D01*
X132555327Y-80320952D02*
X132605327Y-79920952D01*
X132843422Y-79920952D01*
X133033898Y-79920952D02*
X132993422Y-80244761D01*
X133012470Y-80282857D01*
X133033898Y-80301904D01*
X133079136Y-80320952D01*
X133174375Y-80320952D01*
X133224375Y-80301904D01*
X133250565Y-80282857D01*
X133279136Y-80244761D01*
X133319613Y-79920952D01*
X133486279Y-80301904D02*
X133555327Y-80320952D01*
X133674375Y-80320952D01*
X133724375Y-80301904D01*
X133750565Y-80282857D01*
X133779136Y-80244761D01*
X133783898Y-80206666D01*
X133764851Y-80168571D01*
X133743422Y-80149523D01*
X133698184Y-80130476D01*
X133605327Y-80111428D01*
X133560089Y-80092380D01*
X133538660Y-80073333D01*
X133519613Y-80035238D01*
X133524375Y-79997142D01*
X133552946Y-79959047D01*
X133579136Y-79940000D01*
X133629136Y-79920952D01*
X133748184Y-79920952D01*
X133817232Y-79940000D01*
X134010089Y-80111428D02*
X134176755Y-80111428D01*
X134221994Y-80320952D02*
X133983898Y-80320952D01*
X134033898Y-79920952D01*
X134271994Y-79920952D01*
D12*
X142792250Y-90359285D02*
X142886000Y-89609285D01*
X143190762Y-89609285D01*
X143262488Y-89645000D01*
X143296119Y-89680714D01*
X143325286Y-89752142D01*
X143311893Y-89859285D01*
X143264869Y-89930714D01*
X143222310Y-89966428D01*
X143141655Y-90002142D01*
X142836893Y-90002142D01*
X143609810Y-89609285D02*
X143706536Y-90359285D01*
X143925881Y-89823571D01*
X144011298Y-90359285D01*
X144295524Y-89609285D01*
X144963679Y-90359285D02*
X144741655Y-90002142D01*
X144506536Y-90359285D02*
X144600286Y-89609285D01*
X144905048Y-89609285D01*
X144976774Y-89645000D01*
X145010405Y-89680714D01*
X145039572Y-89752142D01*
X145026179Y-89859285D01*
X144979155Y-89930714D01*
X144936595Y-89966428D01*
X144855941Y-90002142D01*
X144551179Y-90002142D01*
D13*
X141081742Y-69554285D02*
X140676980Y-69554285D01*
X140770730Y-68804285D01*
X141414183Y-69161428D02*
X141697516Y-69161428D01*
X141769837Y-69554285D02*
X141365075Y-69554285D01*
X141458825Y-68804285D01*
X141863587Y-68804285D01*
X142134123Y-69554285D02*
X142227873Y-68804285D01*
X142430254Y-68804285D01*
X142547218Y-68840000D01*
X142619242Y-68911428D01*
X142650790Y-68982857D01*
X142673409Y-69125714D01*
X142660016Y-69232857D01*
X142601683Y-69375714D01*
X142552278Y-69447142D01*
X142462397Y-69518571D01*
X142336504Y-69554285D01*
X142134123Y-69554285D01*
X143239778Y-68804285D02*
X143320730Y-68804285D01*
X143397218Y-68840000D01*
X143433230Y-68875714D01*
X143464778Y-68947142D01*
X143487397Y-69090000D01*
X143465075Y-69268571D01*
X143406742Y-69411428D01*
X143357337Y-69482857D01*
X143312397Y-69518571D01*
X143226980Y-69554285D01*
X143146028Y-69554285D01*
X143069540Y-69518571D01*
X143033528Y-69482857D01*
X143001980Y-69411428D01*
X142979361Y-69268571D01*
X143001683Y-69090000D01*
X143060016Y-68947142D01*
X143109421Y-68875714D01*
X143154361Y-68840000D01*
X143239778Y-68804285D01*
X125979800Y-73818704D02*
X126079800Y-73018704D01*
X126294086Y-73018704D01*
X126417895Y-73056800D01*
X126494086Y-73132990D01*
X126527419Y-73209180D01*
X126551228Y-73361561D01*
X126536943Y-73475847D01*
X126475038Y-73628228D01*
X126422657Y-73704419D01*
X126327419Y-73780609D01*
X126194086Y-73818704D01*
X125979800Y-73818704D01*
X126879800Y-73818704D02*
X126979800Y-73018704D01*
X127394086Y-73818704D01*
X127494086Y-73018704D01*
X129632209Y-69585714D02*
X129584590Y-69623809D01*
X129451257Y-69661904D01*
X129365543Y-69661904D01*
X129241733Y-69623809D01*
X129165543Y-69547619D01*
X129132209Y-69471428D01*
X129108400Y-69319047D01*
X129122686Y-69204761D01*
X129184590Y-69052380D01*
X129236971Y-68976190D01*
X129332209Y-68900000D01*
X129465543Y-68861904D01*
X129551257Y-68861904D01*
X129675066Y-68900000D01*
X129713162Y-68938095D01*
X130008400Y-69661904D02*
X130108400Y-68861904D01*
X130060781Y-69242857D02*
X130575066Y-69242857D01*
X130522686Y-69661904D02*
X130622686Y-68861904D01*
D11*
X130806369Y-84561904D02*
X130553988Y-84180952D01*
X130292083Y-84561904D02*
X130392083Y-83761904D01*
X130734940Y-83761904D01*
X130815892Y-83800000D01*
X130853988Y-83838095D01*
X130887321Y-83914285D01*
X130873035Y-84028571D01*
X130820654Y-84104761D01*
X130773035Y-84142857D01*
X130682559Y-84180952D01*
X130339702Y-84180952D01*
X131244464Y-84142857D02*
X131544464Y-84142857D01*
X131620654Y-84561904D02*
X131192083Y-84561904D01*
X131292083Y-83761904D01*
X131720654Y-83761904D01*
X131968273Y-84523809D02*
X132092083Y-84561904D01*
X132306369Y-84561904D01*
X132396845Y-84523809D01*
X132444464Y-84485714D01*
X132496845Y-84409523D01*
X132506369Y-84333333D01*
X132473035Y-84257142D01*
X132434940Y-84219047D01*
X132353988Y-84180952D01*
X132187321Y-84142857D01*
X132106369Y-84104761D01*
X132068273Y-84066666D01*
X132034940Y-83990476D01*
X132044464Y-83914285D01*
X132096845Y-83838095D01*
X132144464Y-83800000D01*
X132234940Y-83761904D01*
X132449226Y-83761904D01*
X132573035Y-83800000D01*
X132915892Y-84142857D02*
X133215892Y-84142857D01*
X133292083Y-84561904D02*
X132863511Y-84561904D01*
X132963511Y-83761904D01*
X133392083Y-83761904D01*
X133649226Y-83761904D02*
X134163511Y-83761904D01*
X133806369Y-84561904D02*
X133906369Y-83761904D01*
D14*
X136753647Y-80665628D02*
X137515552Y-80665628D01*
X137134600Y-81046580D02*
X137134600Y-80284676D01*
D15*
G04 #@! TO.C,C2*
X135349720Y-79260000D02*
X135675278Y-79260000D01*
X135349720Y-78240000D02*
X135675278Y-78240000D01*
G04 #@! TO.C,C3*
X133080000Y-82012779D02*
X133080000Y-81687221D01*
X134100000Y-82012779D02*
X134100000Y-81687221D01*
G04 #@! TO.C,C4*
X136437279Y-90040000D02*
X136111721Y-90040000D01*
X136437279Y-91060000D02*
X136111721Y-91060000D01*
G04 #@! TO.C,C5*
X136437279Y-89554100D02*
X136111721Y-89554100D01*
X136437279Y-88534100D02*
X136111721Y-88534100D01*
G04 #@! TO.C,C6*
X132512779Y-75690000D02*
X132187221Y-75690000D01*
X132512779Y-76710000D02*
X132187221Y-76710000D01*
G04 #@! TO.C,C7*
X132187221Y-78691200D02*
X132512779Y-78691200D01*
X132187221Y-79711200D02*
X132512779Y-79711200D01*
G04 #@! TO.C,C8*
X142712779Y-74460000D02*
X142387221Y-74460000D01*
X142712779Y-73440000D02*
X142387221Y-73440000D01*
G04 #@! TO.C,C9*
X138090000Y-89637221D02*
X138090000Y-89962779D01*
X139110000Y-89637221D02*
X139110000Y-89962779D01*
G04 #@! TO.C,D1*
X134570000Y-84150000D02*
X136570000Y-84150000D01*
X136570000Y-84150000D02*
X136570000Y-80250000D01*
X134570000Y-84150000D02*
X134570000Y-80250000D01*
G04 #@! TO.C,D2*
X129186000Y-70447000D02*
X129186000Y-72732000D01*
X129186000Y-72732000D02*
X130656000Y-72732000D01*
X130656000Y-72732000D02*
X130656000Y-70447000D01*
G04 #@! TO.C,D3*
X127699400Y-74598200D02*
X129984400Y-74598200D01*
X127699400Y-73128200D02*
X127699400Y-74598200D01*
X129984400Y-73128200D02*
X127699400Y-73128200D01*
G04 #@! TO.C,D4*
X143265000Y-91150000D02*
X143265000Y-93435000D01*
X143265000Y-93435000D02*
X144735000Y-93435000D01*
X144735000Y-93435000D02*
X144735000Y-91150000D01*
G04 #@! TO.C,D5*
X142594000Y-72605000D02*
X142594000Y-70320000D01*
X141124000Y-72605000D02*
X142594000Y-72605000D01*
X141124000Y-70320000D02*
X141124000Y-72605000D01*
G04 #@! TO.C,F1*
X132510000Y-81591422D02*
X132510000Y-82108578D01*
X131090000Y-81591422D02*
X131090000Y-82108578D01*
G04 #@! TO.C,FB1*
X132512779Y-78210000D02*
X132187221Y-78210000D01*
X132512779Y-77190000D02*
X132187221Y-77190000D01*
G04 #@! TO.C,J2*
X144456000Y-110664000D02*
X144456000Y-113364000D01*
X141736000Y-111254000D02*
X141106000Y-111254000D01*
X141736000Y-113414000D02*
X141736000Y-112774000D01*
X141736000Y-110614000D02*
X141736000Y-111254000D01*
D16*
G04 #@! TO.C,J4*
X140040000Y-72659000D02*
X140040000Y-71259000D01*
X140040000Y-68859000D02*
X140040000Y-68709000D01*
X140040000Y-68709000D02*
X139740000Y-68709000D01*
X139740000Y-68709000D02*
X139740000Y-68259000D01*
X132040000Y-68259000D02*
X132040000Y-68709000D01*
X132040000Y-68709000D02*
X131740000Y-68709000D01*
X131740000Y-68709000D02*
X131740000Y-68859000D01*
X131740000Y-71259000D02*
X131740000Y-72659000D01*
X136965000Y-74834000D02*
X137690000Y-74834000D01*
X137690000Y-74834000D02*
X137690000Y-74409000D01*
X137690000Y-74409000D02*
X138690000Y-74409000D01*
X134090000Y-74409000D02*
X133090000Y-74409000D01*
D15*
G04 #@! TO.C,J5*
X132115000Y-91335000D02*
X128585000Y-91335000D01*
X132115000Y-84865000D02*
X128585000Y-84865000D01*
X133440000Y-91270000D02*
X132115000Y-91270000D01*
X132115000Y-91335000D02*
X132115000Y-91270000D01*
X128585000Y-91335000D02*
X128585000Y-91270000D01*
X132115000Y-84930000D02*
X132115000Y-84865000D01*
X128585000Y-84930000D02*
X128585000Y-84865000D01*
G04 #@! TO.C,SW3*
X127000000Y-78350000D02*
X127000000Y-83250000D01*
X130500000Y-83250000D02*
X130500000Y-78350000D01*
X129100000Y-83250000D02*
X128400000Y-83250000D01*
X129100000Y-78350000D02*
X128400000Y-78350000D01*
X130500000Y-78350000D02*
X130400000Y-78350000D01*
X127100000Y-78350000D02*
X127000000Y-78350000D01*
X127000000Y-83250000D02*
X127100000Y-83250000D01*
X130500000Y-83250000D02*
X130400000Y-83250000D01*
D16*
G04 #@! TO.C,U1*
X142240000Y-109474000D02*
X142875000Y-108839000D01*
X142875000Y-92964000D02*
X142875000Y-109474000D01*
X128905000Y-92964000D02*
X142875000Y-92964000D01*
X128905000Y-109474000D02*
X128905000Y-92964000D01*
X142875000Y-109474000D02*
X128905000Y-109474000D01*
D15*
G04 #@! TO.C,U2*
X139150000Y-88060000D02*
X141600000Y-88060000D01*
X140950000Y-84840000D02*
X139150000Y-84840000D01*
G04 #@! TO.C,U3*
X144460000Y-87980000D02*
X144460000Y-87050000D01*
X144460000Y-84820000D02*
X144460000Y-85750000D01*
X144460000Y-84820000D02*
X142300000Y-84820000D01*
X144460000Y-87980000D02*
X143000000Y-87980000D01*
G04 #@! TO.C,U4*
X134690000Y-85550000D02*
X134690000Y-87350000D01*
X137910000Y-87350000D02*
X137910000Y-84900000D01*
G04 #@! TO.C,U5*
X136230000Y-77600000D02*
X134930000Y-77600000D01*
X134680000Y-75800000D02*
X136230000Y-75800000D01*
G04 #@! TO.C,J3*
X143240000Y-83660000D02*
X138990000Y-83660000D01*
X138990000Y-83660000D02*
X138990000Y-82640000D01*
X138990000Y-82640000D02*
X140590000Y-82640000D01*
X140590000Y-82640000D02*
X140590000Y-81360000D01*
X140590000Y-81360000D02*
X137700000Y-81360000D01*
X143240000Y-75540000D02*
X138990000Y-75540000D01*
X138990000Y-75540000D02*
X138990000Y-76560000D01*
X138990000Y-76560000D02*
X140590000Y-76560000D01*
X140590000Y-76560000D02*
X140590000Y-77840000D01*
X146810000Y-81940000D02*
X146810000Y-77260000D01*
G04 #@! TO.C,J1*
X135640000Y-114430000D02*
X135890000Y-114930000D01*
X136140000Y-114430000D02*
X135640000Y-114430000D01*
X135890000Y-114930000D02*
X136140000Y-114430000D01*
G04 #@! TD*
M02*
