G04 #@! TF.GenerationSoftware,KiCad,Pcbnew,(5.0.1-3-g963ef8bb5)*
G04 #@! TF.CreationDate,2019-02-28T22:02:17+01:00*
G04 #@! TF.ProjectId,TLM-breakout-v1,544C4D2D627265616B6F75742D76312E,1.0*
G04 #@! TF.SameCoordinates,Original*
G04 #@! TF.FileFunction,Legend,Bot*
G04 #@! TF.FilePolarity,Positive*
%FSLAX46Y46*%
G04 Gerber Fmt 4.6, Leading zero omitted, Abs format (unit mm)*
G04 Created by KiCad (PCBNEW (5.0.1-3-g963ef8bb5)) date 2019 February 28, Thursday 22:02:17*
%MOMM*%
%LPD*%
G01*
G04 APERTURE LIST*
%ADD10C,0.100000*%
%ADD11C,0.250000*%
%ADD12C,0.275000*%
%ADD13C,0.300000*%
%ADD14C,0.120000*%
%ADD15C,0.010000*%
G04 APERTURE END LIST*
D10*
X126047053Y-76380952D02*
X126189910Y-76190476D01*
X126332767Y-76380952D02*
X126282767Y-75980952D01*
X126092291Y-75980952D01*
X126047053Y-76000000D01*
X126025625Y-76019047D01*
X126006577Y-76057142D01*
X126013720Y-76114285D01*
X126042291Y-76152380D01*
X126068482Y-76171428D01*
X126118482Y-76190476D01*
X126308958Y-76190476D01*
X125854196Y-76361904D02*
X125785148Y-76380952D01*
X125666101Y-76380952D01*
X125616101Y-76361904D01*
X125589910Y-76342857D01*
X125561339Y-76304761D01*
X125556577Y-76266666D01*
X125575625Y-76228571D01*
X125597053Y-76209523D01*
X125642291Y-76190476D01*
X125735148Y-76171428D01*
X125780386Y-76152380D01*
X125801815Y-76133333D01*
X125820863Y-76095238D01*
X125816101Y-76057142D01*
X125787529Y-76019047D01*
X125761339Y-76000000D01*
X125711339Y-75980952D01*
X125592291Y-75980952D01*
X125523244Y-76000000D01*
X125378005Y-75980952D02*
X125092291Y-75980952D01*
X125285148Y-76380952D02*
X125235148Y-75980952D01*
X126342291Y-78520952D02*
X126032767Y-78520952D01*
X126218482Y-78673333D01*
X126147053Y-78673333D01*
X126101815Y-78692380D01*
X126080386Y-78711428D01*
X126061339Y-78749523D01*
X126073244Y-78844761D01*
X126101815Y-78882857D01*
X126128005Y-78901904D01*
X126178005Y-78920952D01*
X126320863Y-78920952D01*
X126366101Y-78901904D01*
X126387529Y-78882857D01*
X125889910Y-78520952D02*
X125773244Y-78920952D01*
X125556577Y-78520952D01*
X125437529Y-78520952D02*
X125128005Y-78520952D01*
X125313720Y-78673333D01*
X125242291Y-78673333D01*
X125197053Y-78692380D01*
X125175625Y-78711428D01*
X125156577Y-78749523D01*
X125168482Y-78844761D01*
X125197053Y-78882857D01*
X125223244Y-78901904D01*
X125273244Y-78920952D01*
X125416101Y-78920952D01*
X125461339Y-78901904D01*
X125482767Y-78882857D01*
X126461339Y-81251428D02*
X126392291Y-81270476D01*
X126370863Y-81289523D01*
X126351815Y-81327619D01*
X126358958Y-81384761D01*
X126387529Y-81422857D01*
X126413720Y-81441904D01*
X126463720Y-81460952D01*
X126654196Y-81460952D01*
X126604196Y-81060952D01*
X126437529Y-81060952D01*
X126392291Y-81080000D01*
X126370863Y-81099047D01*
X126351815Y-81137142D01*
X126356577Y-81175238D01*
X126385148Y-81213333D01*
X126411339Y-81232380D01*
X126461339Y-81251428D01*
X126628005Y-81251428D01*
X125863720Y-81422857D02*
X125889910Y-81441904D01*
X125963720Y-81460952D01*
X126011339Y-81460952D01*
X126080386Y-81441904D01*
X126123244Y-81403809D01*
X126142291Y-81365714D01*
X126156577Y-81289523D01*
X126149434Y-81232380D01*
X126116101Y-81156190D01*
X126087529Y-81118095D01*
X126035148Y-81080000D01*
X125961339Y-81060952D01*
X125913720Y-81060952D01*
X125844672Y-81080000D01*
X125823244Y-81099047D01*
X125654196Y-81460952D02*
X125604196Y-81060952D01*
X125368482Y-81460952D02*
X125554196Y-81232380D01*
X125318482Y-81060952D02*
X125632767Y-81289523D01*
X125154196Y-81460952D02*
X125104196Y-81060952D01*
X124913720Y-81060952D01*
X124868482Y-81080000D01*
X124847053Y-81099047D01*
X124828005Y-81137142D01*
X124835148Y-81194285D01*
X124863720Y-81232380D01*
X124889910Y-81251428D01*
X124939910Y-81270476D01*
X125130386Y-81270476D01*
X126106577Y-83620000D02*
X126151815Y-83600952D01*
X126223244Y-83600952D01*
X126297053Y-83620000D01*
X126349434Y-83658095D01*
X126378005Y-83696190D01*
X126411339Y-83772380D01*
X126418482Y-83829523D01*
X126404196Y-83905714D01*
X126385148Y-83943809D01*
X126342291Y-83981904D01*
X126273244Y-84000952D01*
X126225625Y-84000952D01*
X126151815Y-83981904D01*
X126125625Y-83962857D01*
X126108958Y-83829523D01*
X126204196Y-83829523D01*
X125916101Y-84000952D02*
X125866101Y-83600952D01*
X125630386Y-84000952D01*
X125580386Y-83600952D01*
X125392291Y-84000952D02*
X125342291Y-83600952D01*
X125223244Y-83600952D01*
X125154196Y-83620000D01*
X125111339Y-83658095D01*
X125092291Y-83696190D01*
X125078005Y-83772380D01*
X125085148Y-83829523D01*
X125118482Y-83905714D01*
X125147053Y-83943809D01*
X125199434Y-83981904D01*
X125273244Y-84000952D01*
X125392291Y-84000952D01*
X126594672Y-86540952D02*
X126544672Y-86140952D01*
X126354196Y-86140952D01*
X126308958Y-86160000D01*
X126287529Y-86179047D01*
X126268482Y-86217142D01*
X126275625Y-86274285D01*
X126304196Y-86312380D01*
X126330386Y-86331428D01*
X126380386Y-86350476D01*
X126570863Y-86350476D01*
X126104196Y-86426666D02*
X125866101Y-86426666D01*
X126166101Y-86540952D02*
X125949434Y-86140952D01*
X125832767Y-86540952D01*
X125404196Y-86540952D02*
X125689910Y-86540952D01*
X125547053Y-86540952D02*
X125497053Y-86140952D01*
X125551815Y-86198095D01*
X125604196Y-86236190D01*
X125654196Y-86255238D01*
X125166101Y-86540952D02*
X125070863Y-86540952D01*
X125020863Y-86521904D01*
X124994672Y-86502857D01*
X124939910Y-86445714D01*
X124906577Y-86369523D01*
X124887529Y-86217142D01*
X124906577Y-86179047D01*
X124928005Y-86160000D01*
X124973244Y-86140952D01*
X125068482Y-86140952D01*
X125118482Y-86160000D01*
X125144672Y-86179047D01*
X125173244Y-86217142D01*
X125185148Y-86312380D01*
X125166101Y-86350476D01*
X125144672Y-86369523D01*
X125099434Y-86388571D01*
X125004196Y-86388571D01*
X124954196Y-86369523D01*
X124928005Y-86350476D01*
X124899434Y-86312380D01*
X126594672Y-89080952D02*
X126544672Y-88680952D01*
X126354196Y-88680952D01*
X126308958Y-88700000D01*
X126287529Y-88719047D01*
X126268482Y-88757142D01*
X126275625Y-88814285D01*
X126304196Y-88852380D01*
X126330386Y-88871428D01*
X126380386Y-88890476D01*
X126570863Y-88890476D01*
X126104196Y-88966666D02*
X125866101Y-88966666D01*
X126166101Y-89080952D02*
X125949434Y-88680952D01*
X125832767Y-89080952D01*
X125644672Y-88719047D02*
X125618482Y-88700000D01*
X125568482Y-88680952D01*
X125449434Y-88680952D01*
X125404196Y-88700000D01*
X125382767Y-88719047D01*
X125363720Y-88757142D01*
X125368482Y-88795238D01*
X125399434Y-88852380D01*
X125713720Y-89080952D01*
X125404196Y-89080952D01*
X125168482Y-88719047D02*
X125142291Y-88700000D01*
X125092291Y-88680952D01*
X124973244Y-88680952D01*
X124928005Y-88700000D01*
X124906577Y-88719047D01*
X124887529Y-88757142D01*
X124892291Y-88795238D01*
X124923244Y-88852380D01*
X125237529Y-89080952D01*
X124928005Y-89080952D01*
X126901815Y-91601904D02*
X126832767Y-91620952D01*
X126713720Y-91620952D01*
X126663720Y-91601904D01*
X126637529Y-91582857D01*
X126608958Y-91544761D01*
X126604196Y-91506666D01*
X126623244Y-91468571D01*
X126644672Y-91449523D01*
X126689910Y-91430476D01*
X126782767Y-91411428D01*
X126828005Y-91392380D01*
X126849434Y-91373333D01*
X126868482Y-91335238D01*
X126863720Y-91297142D01*
X126835148Y-91259047D01*
X126808958Y-91240000D01*
X126758958Y-91220952D01*
X126639910Y-91220952D01*
X126570863Y-91240000D01*
X126401815Y-91220952D02*
X126332767Y-91620952D01*
X126201815Y-91335238D01*
X126142291Y-91620952D01*
X125973244Y-91220952D01*
X125542291Y-91582857D02*
X125568482Y-91601904D01*
X125642291Y-91620952D01*
X125689910Y-91620952D01*
X125758958Y-91601904D01*
X125801815Y-91563809D01*
X125820863Y-91525714D01*
X125835148Y-91449523D01*
X125828005Y-91392380D01*
X125794672Y-91316190D01*
X125766101Y-91278095D01*
X125713720Y-91240000D01*
X125639910Y-91220952D01*
X125592291Y-91220952D01*
X125523244Y-91240000D01*
X125501815Y-91259047D01*
X125094672Y-91620952D02*
X125332767Y-91620952D01*
X125282767Y-91220952D01*
X124928005Y-91620952D02*
X124878005Y-91220952D01*
X124642291Y-91620952D02*
X124828005Y-91392380D01*
X124592291Y-91220952D02*
X124906577Y-91449523D01*
X126830386Y-94141904D02*
X126761339Y-94160952D01*
X126642291Y-94160952D01*
X126592291Y-94141904D01*
X126566101Y-94122857D01*
X126537529Y-94084761D01*
X126532767Y-94046666D01*
X126551815Y-94008571D01*
X126573244Y-93989523D01*
X126618482Y-93970476D01*
X126711339Y-93951428D01*
X126756577Y-93932380D01*
X126778005Y-93913333D01*
X126797053Y-93875238D01*
X126792291Y-93837142D01*
X126763720Y-93799047D01*
X126737529Y-93780000D01*
X126687529Y-93760952D01*
X126568482Y-93760952D01*
X126499434Y-93780000D01*
X126330386Y-93760952D02*
X126261339Y-94160952D01*
X126130386Y-93875238D01*
X126070863Y-94160952D01*
X125901815Y-93760952D01*
X125761339Y-94160952D02*
X125711339Y-93760952D01*
X125592291Y-93760952D01*
X125523244Y-93780000D01*
X125480386Y-93818095D01*
X125461339Y-93856190D01*
X125447053Y-93932380D01*
X125454196Y-93989523D01*
X125487529Y-94065714D01*
X125516101Y-94103809D01*
X125568482Y-94141904D01*
X125642291Y-94160952D01*
X125761339Y-94160952D01*
X125261339Y-94160952D02*
X125211339Y-93760952D01*
X124878005Y-93760952D02*
X124782767Y-93760952D01*
X124737529Y-93780000D01*
X124694672Y-93818095D01*
X124680386Y-93894285D01*
X124697053Y-94027619D01*
X124730386Y-94103809D01*
X124782767Y-94141904D01*
X124832767Y-94160952D01*
X124928005Y-94160952D01*
X124973244Y-94141904D01*
X125016101Y-94103809D01*
X125030386Y-94027619D01*
X125013720Y-93894285D01*
X124980386Y-93818095D01*
X124928005Y-93780000D01*
X124878005Y-93760952D01*
X126594672Y-96700952D02*
X126544672Y-96300952D01*
X126354196Y-96300952D01*
X126308958Y-96320000D01*
X126287529Y-96339047D01*
X126268482Y-96377142D01*
X126275625Y-96434285D01*
X126304196Y-96472380D01*
X126330386Y-96491428D01*
X126380386Y-96510476D01*
X126570863Y-96510476D01*
X126104196Y-96586666D02*
X125866101Y-96586666D01*
X126166101Y-96700952D02*
X125949434Y-96300952D01*
X125832767Y-96700952D01*
X125644672Y-96339047D02*
X125618482Y-96320000D01*
X125568482Y-96300952D01*
X125449434Y-96300952D01*
X125404196Y-96320000D01*
X125382767Y-96339047D01*
X125363720Y-96377142D01*
X125368482Y-96415238D01*
X125399434Y-96472380D01*
X125713720Y-96700952D01*
X125404196Y-96700952D01*
X125089910Y-96472380D02*
X125135148Y-96453333D01*
X125156577Y-96434285D01*
X125175625Y-96396190D01*
X125173244Y-96377142D01*
X125144672Y-96339047D01*
X125118482Y-96320000D01*
X125068482Y-96300952D01*
X124973244Y-96300952D01*
X124928005Y-96320000D01*
X124906577Y-96339047D01*
X124887529Y-96377142D01*
X124889910Y-96396190D01*
X124918482Y-96434285D01*
X124944672Y-96453333D01*
X124994672Y-96472380D01*
X125089910Y-96472380D01*
X125139910Y-96491428D01*
X125166101Y-96510476D01*
X125194672Y-96548571D01*
X125204196Y-96624761D01*
X125185148Y-96662857D01*
X125163720Y-96681904D01*
X125118482Y-96700952D01*
X125023244Y-96700952D01*
X124973244Y-96681904D01*
X124947053Y-96662857D01*
X124918482Y-96624761D01*
X124908958Y-96548571D01*
X124928005Y-96510476D01*
X124949434Y-96491428D01*
X124994672Y-96472380D01*
X126151815Y-99241901D02*
X126082767Y-99260949D01*
X125963720Y-99260949D01*
X125913720Y-99241901D01*
X125887529Y-99222854D01*
X125858958Y-99184758D01*
X125854196Y-99146663D01*
X125873244Y-99108568D01*
X125894672Y-99089520D01*
X125939910Y-99070473D01*
X126032767Y-99051425D01*
X126078005Y-99032377D01*
X126099434Y-99013330D01*
X126118482Y-98975235D01*
X126113720Y-98937139D01*
X126085148Y-98899044D01*
X126058958Y-98879997D01*
X126008958Y-98860949D01*
X125889910Y-98860949D01*
X125820863Y-98879997D01*
X125675625Y-99241901D02*
X125606577Y-99260949D01*
X125487529Y-99260949D01*
X125437529Y-99241901D01*
X125411339Y-99222854D01*
X125382767Y-99184758D01*
X125378005Y-99146663D01*
X125397053Y-99108568D01*
X125418482Y-99089520D01*
X125463720Y-99070473D01*
X125556577Y-99051425D01*
X125601815Y-99032377D01*
X125623244Y-99013330D01*
X125642291Y-98975235D01*
X125637529Y-98937139D01*
X125608958Y-98899044D01*
X125582767Y-98879997D01*
X125532767Y-98860949D01*
X125413720Y-98860949D01*
X125344672Y-98879997D01*
X126413720Y-101805234D02*
X126344672Y-101824282D01*
X126225625Y-101824282D01*
X126175625Y-101805234D01*
X126149434Y-101786187D01*
X126120863Y-101748091D01*
X126116101Y-101709996D01*
X126135148Y-101671901D01*
X126156577Y-101652853D01*
X126201815Y-101633806D01*
X126294672Y-101614758D01*
X126339910Y-101595710D01*
X126361339Y-101576663D01*
X126380386Y-101538568D01*
X126375625Y-101500472D01*
X126347053Y-101462377D01*
X126320863Y-101443330D01*
X126270863Y-101424282D01*
X126151815Y-101424282D01*
X126082767Y-101443330D01*
X125625625Y-101786187D02*
X125651815Y-101805234D01*
X125725625Y-101824282D01*
X125773244Y-101824282D01*
X125842291Y-101805234D01*
X125885148Y-101767139D01*
X125904196Y-101729044D01*
X125918482Y-101652853D01*
X125911339Y-101595710D01*
X125878005Y-101519520D01*
X125849434Y-101481425D01*
X125797053Y-101443330D01*
X125723244Y-101424282D01*
X125675625Y-101424282D01*
X125606577Y-101443330D01*
X125585148Y-101462377D01*
X125416101Y-101824282D02*
X125366101Y-101424282D01*
X125130386Y-101824282D02*
X125316101Y-101595710D01*
X125080386Y-101424282D02*
X125394672Y-101652853D01*
X126558958Y-104320952D02*
X126508958Y-103920952D01*
X126378005Y-104206666D01*
X126175625Y-103920952D01*
X126225625Y-104320952D01*
X125842291Y-103920952D02*
X125747053Y-103920952D01*
X125701815Y-103940000D01*
X125658958Y-103978095D01*
X125644672Y-104054285D01*
X125661339Y-104187619D01*
X125694672Y-104263809D01*
X125747053Y-104301904D01*
X125797053Y-104320952D01*
X125892291Y-104320952D01*
X125937529Y-104301904D01*
X125980386Y-104263809D01*
X125994672Y-104187619D01*
X125978005Y-104054285D01*
X125944672Y-103978095D01*
X125892291Y-103940000D01*
X125842291Y-103920952D01*
X125485148Y-104301904D02*
X125416101Y-104320952D01*
X125297053Y-104320952D01*
X125247053Y-104301904D01*
X125220863Y-104282857D01*
X125192291Y-104244761D01*
X125187529Y-104206666D01*
X125206577Y-104168571D01*
X125228005Y-104149523D01*
X125273244Y-104130476D01*
X125366101Y-104111428D01*
X125411339Y-104092380D01*
X125432767Y-104073333D01*
X125451815Y-104035238D01*
X125447053Y-103997142D01*
X125418482Y-103959047D01*
X125392291Y-103940000D01*
X125342291Y-103920952D01*
X125223244Y-103920952D01*
X125154196Y-103940000D01*
X124987529Y-104320952D02*
X124937529Y-103920952D01*
X126558958Y-106860952D02*
X126508958Y-106460952D01*
X126378005Y-106746666D01*
X126175625Y-106460952D01*
X126225625Y-106860952D01*
X125987529Y-106860952D02*
X125937529Y-106460952D01*
X125770863Y-106841904D02*
X125701815Y-106860952D01*
X125582767Y-106860952D01*
X125532767Y-106841904D01*
X125506577Y-106822857D01*
X125478005Y-106784761D01*
X125473244Y-106746666D01*
X125492291Y-106708571D01*
X125513720Y-106689523D01*
X125558958Y-106670476D01*
X125651815Y-106651428D01*
X125697053Y-106632380D01*
X125718482Y-106613333D01*
X125737529Y-106575238D01*
X125732767Y-106537142D01*
X125704196Y-106499047D01*
X125678005Y-106480000D01*
X125628005Y-106460952D01*
X125508958Y-106460952D01*
X125439910Y-106480000D01*
X125128005Y-106460952D02*
X125032767Y-106460952D01*
X124987529Y-106480000D01*
X124944672Y-106518095D01*
X124930386Y-106594285D01*
X124947053Y-106727619D01*
X124980386Y-106803809D01*
X125032767Y-106841904D01*
X125082767Y-106860952D01*
X125178005Y-106860952D01*
X125223244Y-106841904D01*
X125266101Y-106803809D01*
X125280386Y-106727619D01*
X125263720Y-106594285D01*
X125230386Y-106518095D01*
X125178005Y-106480000D01*
X125128005Y-106460952D01*
X125856577Y-109400952D02*
X125999434Y-109210476D01*
X126142291Y-109400952D02*
X126092291Y-109000952D01*
X125901815Y-109000952D01*
X125856577Y-109020000D01*
X125835148Y-109039047D01*
X125816101Y-109077142D01*
X125823244Y-109134285D01*
X125851815Y-109172380D01*
X125878005Y-109191428D01*
X125928005Y-109210476D01*
X126118482Y-109210476D01*
X125639910Y-109000952D02*
X125356577Y-109400952D01*
X125306577Y-109000952D02*
X125689910Y-109400952D01*
X126104196Y-111540952D02*
X125818482Y-111540952D01*
X126011339Y-111940952D02*
X125961339Y-111540952D01*
X125699434Y-111540952D02*
X125416101Y-111940952D01*
X125366101Y-111540952D02*
X125749434Y-111940952D01*
X126106577Y-114100000D02*
X126151815Y-114080952D01*
X126223244Y-114080952D01*
X126297053Y-114100000D01*
X126349434Y-114138095D01*
X126378005Y-114176190D01*
X126411339Y-114252380D01*
X126418482Y-114309523D01*
X126404196Y-114385714D01*
X126385148Y-114423809D01*
X126342291Y-114461904D01*
X126273244Y-114480952D01*
X126225625Y-114480952D01*
X126151815Y-114461904D01*
X126125625Y-114442857D01*
X126108958Y-114309523D01*
X126204196Y-114309523D01*
X125916101Y-114480952D02*
X125866101Y-114080952D01*
X125630386Y-114480952D01*
X125580386Y-114080952D01*
X125392291Y-114480952D02*
X125342291Y-114080952D01*
X125223244Y-114080952D01*
X125154196Y-114100000D01*
X125111339Y-114138095D01*
X125092291Y-114176190D01*
X125078005Y-114252380D01*
X125085148Y-114309523D01*
X125118482Y-114385714D01*
X125147053Y-114423809D01*
X125199434Y-114461904D01*
X125273244Y-114480952D01*
X125392291Y-114480952D01*
X146726577Y-86361428D02*
X146657529Y-86380476D01*
X146636101Y-86399523D01*
X146617053Y-86437619D01*
X146624196Y-86494761D01*
X146652767Y-86532857D01*
X146678958Y-86551904D01*
X146728958Y-86570952D01*
X146919434Y-86570952D01*
X146869434Y-86170952D01*
X146702767Y-86170952D01*
X146657529Y-86190000D01*
X146636101Y-86209047D01*
X146617053Y-86247142D01*
X146621815Y-86285238D01*
X146650386Y-86323333D01*
X146676577Y-86342380D01*
X146726577Y-86361428D01*
X146893244Y-86361428D01*
X146428958Y-86456666D02*
X146190863Y-86456666D01*
X146490863Y-86570952D02*
X146274196Y-86170952D01*
X146157529Y-86570952D01*
X146012291Y-86170952D02*
X145726577Y-86170952D01*
X145919434Y-86570952D02*
X145869434Y-86170952D01*
X145631339Y-86170952D02*
X145345625Y-86170952D01*
X145538482Y-86570952D02*
X145488482Y-86170952D01*
X146908482Y-89120952D02*
X147146577Y-89120952D01*
X147096577Y-88720952D01*
X146741815Y-89120952D02*
X146691815Y-88720952D01*
X146572767Y-88720952D01*
X146503720Y-88740000D01*
X146460863Y-88778095D01*
X146441815Y-88816190D01*
X146427529Y-88892380D01*
X146434672Y-88949523D01*
X146468005Y-89025714D01*
X146496577Y-89063809D01*
X146548958Y-89101904D01*
X146622767Y-89120952D01*
X146741815Y-89120952D01*
X146096577Y-88720952D02*
X146001339Y-88720952D01*
X145956101Y-88740000D01*
X145913244Y-88778095D01*
X145898958Y-88854285D01*
X145915625Y-88987619D01*
X145948958Y-89063809D01*
X146001339Y-89101904D01*
X146051339Y-89120952D01*
X146146577Y-89120952D01*
X146191815Y-89101904D01*
X146234672Y-89063809D01*
X146248958Y-88987619D01*
X146232291Y-88854285D01*
X146198958Y-88778095D01*
X146146577Y-88740000D01*
X146096577Y-88720952D01*
X145691815Y-88911428D02*
X145525148Y-88911428D01*
X145479910Y-89120952D02*
X145718005Y-89120952D01*
X145668005Y-88720952D01*
X145429910Y-88720952D01*
X145265625Y-89120952D02*
X145215625Y-88720952D01*
X144979910Y-89120952D01*
X144929910Y-88720952D01*
X147009910Y-91230952D02*
X146893244Y-91630952D01*
X146676577Y-91230952D01*
X146367053Y-91421428D02*
X146298005Y-91440476D01*
X146276577Y-91459523D01*
X146257529Y-91497619D01*
X146264672Y-91554761D01*
X146293244Y-91592857D01*
X146319434Y-91611904D01*
X146369434Y-91630952D01*
X146559910Y-91630952D01*
X146509910Y-91230952D01*
X146343244Y-91230952D01*
X146298005Y-91250000D01*
X146276577Y-91269047D01*
X146257529Y-91307142D01*
X146262291Y-91345238D01*
X146290863Y-91383333D01*
X146317053Y-91402380D01*
X146367053Y-91421428D01*
X146533720Y-91421428D01*
X146009910Y-91230952D02*
X146050386Y-91554761D01*
X146031339Y-91592857D01*
X146009910Y-91611904D01*
X145964672Y-91630952D01*
X145869434Y-91630952D01*
X145819434Y-91611904D01*
X145793244Y-91592857D01*
X145764672Y-91554761D01*
X145724196Y-91230952D01*
X145557529Y-91611904D02*
X145488482Y-91630952D01*
X145369434Y-91630952D01*
X145319434Y-91611904D01*
X145293244Y-91592857D01*
X145264672Y-91554761D01*
X145259910Y-91516666D01*
X145278958Y-91478571D01*
X145300386Y-91459523D01*
X145345625Y-91440476D01*
X145438482Y-91421428D01*
X145483720Y-91402380D01*
X145505148Y-91383333D01*
X145524196Y-91345238D01*
X145519434Y-91307142D01*
X145490863Y-91269047D01*
X145464672Y-91250000D01*
X145414672Y-91230952D01*
X145295625Y-91230952D01*
X145226577Y-91250000D01*
X146934672Y-94150952D02*
X146884672Y-93750952D01*
X146694196Y-93750952D01*
X146648958Y-93770000D01*
X146627529Y-93789047D01*
X146608482Y-93827142D01*
X146615625Y-93884285D01*
X146644196Y-93922380D01*
X146670386Y-93941428D01*
X146720386Y-93960476D01*
X146910863Y-93960476D01*
X146444196Y-94036666D02*
X146206101Y-94036666D01*
X146506101Y-94150952D02*
X146289434Y-93750952D01*
X146172767Y-94150952D01*
X145744196Y-94150952D02*
X146029910Y-94150952D01*
X145887053Y-94150952D02*
X145837053Y-93750952D01*
X145891815Y-93808095D01*
X145944196Y-93846190D01*
X145994196Y-93865238D01*
X145282291Y-93884285D02*
X145315625Y-94150952D01*
X145382291Y-93731904D02*
X145537053Y-94017619D01*
X145227529Y-94017619D01*
X146964672Y-96720952D02*
X146914672Y-96320952D01*
X146724196Y-96320952D01*
X146678958Y-96340000D01*
X146657529Y-96359047D01*
X146638482Y-96397142D01*
X146645625Y-96454285D01*
X146674196Y-96492380D01*
X146700386Y-96511428D01*
X146750386Y-96530476D01*
X146940863Y-96530476D01*
X146474196Y-96606666D02*
X146236101Y-96606666D01*
X146536101Y-96720952D02*
X146319434Y-96320952D01*
X146202767Y-96720952D01*
X145774196Y-96720952D02*
X146059910Y-96720952D01*
X145917053Y-96720952D02*
X145867053Y-96320952D01*
X145921815Y-96378095D01*
X145974196Y-96416190D01*
X146024196Y-96435238D01*
X145271815Y-96320952D02*
X145509910Y-96320952D01*
X145557529Y-96511428D01*
X145531339Y-96492380D01*
X145481339Y-96473333D01*
X145362291Y-96473333D01*
X145317053Y-96492380D01*
X145295625Y-96511428D01*
X145276577Y-96549523D01*
X145288482Y-96644761D01*
X145317053Y-96682857D01*
X145343244Y-96701904D01*
X145393244Y-96720952D01*
X145512291Y-96720952D01*
X145557529Y-96701904D01*
X145578958Y-96682857D01*
X146964672Y-99240952D02*
X146914672Y-98840952D01*
X146724196Y-98840952D01*
X146678958Y-98860000D01*
X146657529Y-98879047D01*
X146638482Y-98917142D01*
X146645625Y-98974285D01*
X146674196Y-99012380D01*
X146700386Y-99031428D01*
X146750386Y-99050476D01*
X146940863Y-99050476D01*
X146474196Y-99126666D02*
X146236101Y-99126666D01*
X146536101Y-99240952D02*
X146319434Y-98840952D01*
X146202767Y-99240952D01*
X145774196Y-99240952D02*
X146059910Y-99240952D01*
X145917053Y-99240952D02*
X145867053Y-98840952D01*
X145921815Y-98898095D01*
X145974196Y-98936190D01*
X146024196Y-98955238D01*
X145459910Y-99012380D02*
X145505148Y-98993333D01*
X145526577Y-98974285D01*
X145545625Y-98936190D01*
X145543244Y-98917142D01*
X145514672Y-98879047D01*
X145488482Y-98860000D01*
X145438482Y-98840952D01*
X145343244Y-98840952D01*
X145298005Y-98860000D01*
X145276577Y-98879047D01*
X145257529Y-98917142D01*
X145259910Y-98936190D01*
X145288482Y-98974285D01*
X145314672Y-98993333D01*
X145364672Y-99012380D01*
X145459910Y-99012380D01*
X145509910Y-99031428D01*
X145536101Y-99050476D01*
X145564672Y-99088571D01*
X145574196Y-99164761D01*
X145555148Y-99202857D01*
X145533720Y-99221904D01*
X145488482Y-99240952D01*
X145393244Y-99240952D01*
X145343244Y-99221904D01*
X145317053Y-99202857D01*
X145288482Y-99164761D01*
X145278958Y-99088571D01*
X145298005Y-99050476D01*
X145319434Y-99031428D01*
X145364672Y-99012380D01*
X146934672Y-101830952D02*
X146884672Y-101430952D01*
X146694196Y-101430952D01*
X146648958Y-101450000D01*
X146627529Y-101469047D01*
X146608482Y-101507142D01*
X146615625Y-101564285D01*
X146644196Y-101602380D01*
X146670386Y-101621428D01*
X146720386Y-101640476D01*
X146910863Y-101640476D01*
X146444196Y-101716666D02*
X146206101Y-101716666D01*
X146506101Y-101830952D02*
X146289434Y-101430952D01*
X146172767Y-101830952D01*
X145860863Y-101430952D02*
X145813244Y-101430952D01*
X145768005Y-101450000D01*
X145746577Y-101469047D01*
X145727529Y-101507142D01*
X145713244Y-101583333D01*
X145725148Y-101678571D01*
X145758482Y-101754761D01*
X145787053Y-101792857D01*
X145813244Y-101811904D01*
X145863244Y-101830952D01*
X145910863Y-101830952D01*
X145956101Y-101811904D01*
X145977529Y-101792857D01*
X145996577Y-101754761D01*
X146010863Y-101678571D01*
X145998958Y-101583333D01*
X145965625Y-101507142D01*
X145937053Y-101469047D01*
X145910863Y-101450000D01*
X145860863Y-101430952D01*
X145429910Y-101602380D02*
X145475148Y-101583333D01*
X145496577Y-101564285D01*
X145515625Y-101526190D01*
X145513244Y-101507142D01*
X145484672Y-101469047D01*
X145458482Y-101450000D01*
X145408482Y-101430952D01*
X145313244Y-101430952D01*
X145268005Y-101450000D01*
X145246577Y-101469047D01*
X145227529Y-101507142D01*
X145229910Y-101526190D01*
X145258482Y-101564285D01*
X145284672Y-101583333D01*
X145334672Y-101602380D01*
X145429910Y-101602380D01*
X145479910Y-101621428D01*
X145506101Y-101640476D01*
X145534672Y-101678571D01*
X145544196Y-101754761D01*
X145525148Y-101792857D01*
X145503720Y-101811904D01*
X145458482Y-101830952D01*
X145363244Y-101830952D01*
X145313244Y-101811904D01*
X145287053Y-101792857D01*
X145258482Y-101754761D01*
X145248958Y-101678571D01*
X145268005Y-101640476D01*
X145289434Y-101621428D01*
X145334672Y-101602380D01*
X146944672Y-104320952D02*
X146894672Y-103920952D01*
X146704196Y-103920952D01*
X146658958Y-103940000D01*
X146637529Y-103959047D01*
X146618482Y-103997142D01*
X146625625Y-104054285D01*
X146654196Y-104092380D01*
X146680386Y-104111428D01*
X146730386Y-104130476D01*
X146920863Y-104130476D01*
X146454196Y-104206666D02*
X146216101Y-104206666D01*
X146516101Y-104320952D02*
X146299434Y-103920952D01*
X146182767Y-104320952D01*
X145870863Y-103920952D02*
X145823244Y-103920952D01*
X145778005Y-103940000D01*
X145756577Y-103959047D01*
X145737529Y-103997142D01*
X145723244Y-104073333D01*
X145735148Y-104168571D01*
X145768482Y-104244761D01*
X145797053Y-104282857D01*
X145823244Y-104301904D01*
X145873244Y-104320952D01*
X145920863Y-104320952D01*
X145966101Y-104301904D01*
X145987529Y-104282857D01*
X146006577Y-104244761D01*
X146020863Y-104168571D01*
X146008958Y-104073333D01*
X145975625Y-103997142D01*
X145947053Y-103959047D01*
X145920863Y-103940000D01*
X145870863Y-103920952D01*
X145537529Y-103920952D02*
X145204196Y-103920952D01*
X145468482Y-104320952D01*
X146914672Y-106860952D02*
X146864672Y-106460952D01*
X146674196Y-106460952D01*
X146628958Y-106480000D01*
X146607529Y-106499047D01*
X146588482Y-106537142D01*
X146595625Y-106594285D01*
X146624196Y-106632380D01*
X146650386Y-106651428D01*
X146700386Y-106670476D01*
X146890863Y-106670476D01*
X146424196Y-106746666D02*
X146186101Y-106746666D01*
X146486101Y-106860952D02*
X146269434Y-106460952D01*
X146152767Y-106860952D01*
X145964672Y-106499047D02*
X145938482Y-106480000D01*
X145888482Y-106460952D01*
X145769434Y-106460952D01*
X145724196Y-106480000D01*
X145702767Y-106499047D01*
X145683720Y-106537142D01*
X145688482Y-106575238D01*
X145719434Y-106632380D01*
X146033720Y-106860952D01*
X145724196Y-106860952D01*
X145507529Y-106460952D02*
X145174196Y-106460952D01*
X145438482Y-106860952D01*
X147014672Y-109410952D02*
X146964672Y-109010952D01*
X146774196Y-109010952D01*
X146728958Y-109030000D01*
X146707529Y-109049047D01*
X146688482Y-109087142D01*
X146695625Y-109144285D01*
X146724196Y-109182380D01*
X146750386Y-109201428D01*
X146800386Y-109220476D01*
X146990863Y-109220476D01*
X146524196Y-109296666D02*
X146286101Y-109296666D01*
X146586101Y-109410952D02*
X146369434Y-109010952D01*
X146252767Y-109410952D01*
X145940863Y-109010952D02*
X145893244Y-109010952D01*
X145848005Y-109030000D01*
X145826577Y-109049047D01*
X145807529Y-109087142D01*
X145793244Y-109163333D01*
X145805148Y-109258571D01*
X145838482Y-109334761D01*
X145867053Y-109372857D01*
X145893244Y-109391904D01*
X145943244Y-109410952D01*
X145990863Y-109410952D01*
X146036101Y-109391904D01*
X146057529Y-109372857D01*
X146076577Y-109334761D01*
X146090863Y-109258571D01*
X146078958Y-109163333D01*
X146045625Y-109087142D01*
X146017053Y-109049047D01*
X145990863Y-109030000D01*
X145940863Y-109010952D01*
X145345625Y-109010952D02*
X145440863Y-109010952D01*
X145490863Y-109030000D01*
X145517053Y-109049047D01*
X145571815Y-109106190D01*
X145605148Y-109182380D01*
X145624196Y-109334761D01*
X145605148Y-109372857D01*
X145583720Y-109391904D01*
X145538482Y-109410952D01*
X145443244Y-109410952D01*
X145393244Y-109391904D01*
X145367053Y-109372857D01*
X145338482Y-109334761D01*
X145326577Y-109239523D01*
X145345625Y-109201428D01*
X145367053Y-109182380D01*
X145412291Y-109163333D01*
X145507529Y-109163333D01*
X145557529Y-109182380D01*
X145583720Y-109201428D01*
X145612291Y-109239523D01*
X146646101Y-111941904D02*
X146577053Y-111960952D01*
X146458005Y-111960952D01*
X146408005Y-111941904D01*
X146381815Y-111922857D01*
X146353244Y-111884761D01*
X146348482Y-111846666D01*
X146367529Y-111808571D01*
X146388958Y-111789523D01*
X146434196Y-111770476D01*
X146527053Y-111751428D01*
X146572291Y-111732380D01*
X146593720Y-111713333D01*
X146612767Y-111675238D01*
X146608005Y-111637142D01*
X146579434Y-111599047D01*
X146553244Y-111580000D01*
X146503244Y-111560952D01*
X146384196Y-111560952D01*
X146315148Y-111580000D01*
X145858005Y-111922857D02*
X145884196Y-111941904D01*
X145958005Y-111960952D01*
X146005625Y-111960952D01*
X146074672Y-111941904D01*
X146117529Y-111903809D01*
X146136577Y-111865714D01*
X146150863Y-111789523D01*
X146143720Y-111732380D01*
X146110386Y-111656190D01*
X146081815Y-111618095D01*
X146029434Y-111580000D01*
X145955625Y-111560952D01*
X145908005Y-111560952D01*
X145838958Y-111580000D01*
X145817529Y-111599047D01*
X145410386Y-111960952D02*
X145648482Y-111960952D01*
X145598482Y-111560952D01*
X146728005Y-114501904D02*
X146658958Y-114520952D01*
X146539910Y-114520952D01*
X146489910Y-114501904D01*
X146463720Y-114482857D01*
X146435148Y-114444761D01*
X146430386Y-114406666D01*
X146449434Y-114368571D01*
X146470863Y-114349523D01*
X146516101Y-114330476D01*
X146608958Y-114311428D01*
X146654196Y-114292380D01*
X146675625Y-114273333D01*
X146694672Y-114235238D01*
X146689910Y-114197142D01*
X146661339Y-114159047D01*
X146635148Y-114140000D01*
X146585148Y-114120952D01*
X146466101Y-114120952D01*
X146397053Y-114140000D01*
X146230386Y-114520952D02*
X146180386Y-114120952D01*
X146061339Y-114120952D01*
X145992291Y-114140000D01*
X145949434Y-114178095D01*
X145930386Y-114216190D01*
X145916101Y-114292380D01*
X145923244Y-114349523D01*
X145956577Y-114425714D01*
X145985148Y-114463809D01*
X146037529Y-114501904D01*
X146111339Y-114520952D01*
X146230386Y-114520952D01*
X145739910Y-114406666D02*
X145501815Y-114406666D01*
X145801815Y-114520952D02*
X145585148Y-114120952D01*
X145468482Y-114520952D01*
D11*
X139010491Y-92527380D02*
X138885491Y-91527380D01*
X138933110Y-91908333D02*
X138822395Y-91860714D01*
X138612872Y-91860714D01*
X138514062Y-91908333D01*
X138467633Y-91955952D01*
X138427157Y-92051190D01*
X138462872Y-92336904D01*
X138527157Y-92432142D01*
X138585491Y-92479761D01*
X138696205Y-92527380D01*
X138905729Y-92527380D01*
X139004538Y-92479761D01*
X138036681Y-91860714D02*
X137858110Y-92527380D01*
X137512872Y-91860714D02*
X137858110Y-92527380D01*
X137992633Y-92765476D01*
X138050967Y-92813095D01*
X138161681Y-92860714D01*
X136355729Y-92241666D02*
X135831919Y-92241666D01*
X136496205Y-92527380D02*
X136004538Y-91527380D01*
X135762872Y-92527380D01*
X135417633Y-91860714D02*
X134841443Y-91860714D01*
X135500967Y-92527380D01*
X134924776Y-92527380D01*
X134080729Y-92479761D02*
X134191443Y-92527380D01*
X134400967Y-92527380D01*
X134499776Y-92479761D01*
X134540252Y-92384523D01*
X134492633Y-92003571D01*
X134428348Y-91908333D01*
X134317633Y-91860714D01*
X134108110Y-91860714D01*
X134009300Y-91908333D01*
X133968824Y-92003571D01*
X133980729Y-92098809D01*
X134516443Y-92194047D01*
X133562872Y-92527380D02*
X133479538Y-91860714D01*
X133503348Y-92051190D02*
X133439062Y-91955952D01*
X133380729Y-91908333D01*
X133270014Y-91860714D01*
X133165252Y-91860714D01*
X132881919Y-92527380D02*
X132798586Y-91860714D01*
X132756919Y-91527380D02*
X132815252Y-91575000D01*
X132768824Y-91622619D01*
X132710491Y-91575000D01*
X132756919Y-91527380D01*
X132768824Y-91622619D01*
X132358110Y-92527380D02*
X132274776Y-91860714D01*
X132286681Y-91955952D02*
X132228348Y-91908333D01*
X132117633Y-91860714D01*
X131960491Y-91860714D01*
X131861681Y-91908333D01*
X131821205Y-92003571D01*
X131886681Y-92527380D01*
X131821205Y-92003571D02*
X131756919Y-91908333D01*
X131646205Y-91860714D01*
X131489062Y-91860714D01*
X131390252Y-91908333D01*
X131349776Y-92003571D01*
X131415252Y-92527380D01*
X130420014Y-92527380D02*
X130354538Y-92003571D01*
X130395014Y-91908333D01*
X130493824Y-91860714D01*
X130703348Y-91860714D01*
X130814062Y-91908333D01*
X130414062Y-92479761D02*
X130524776Y-92527380D01*
X130786681Y-92527380D01*
X130885491Y-92479761D01*
X130925967Y-92384523D01*
X130914062Y-92289285D01*
X130849776Y-92194047D01*
X130739062Y-92146428D01*
X130477157Y-92146428D01*
X130366443Y-92098809D01*
X129896205Y-92527380D02*
X129771205Y-91527380D01*
X129743824Y-92146428D02*
X129477157Y-92527380D01*
X129393824Y-91860714D02*
X129860491Y-92241666D01*
X128580729Y-92479761D02*
X128691443Y-92527380D01*
X128900967Y-92527380D01*
X128999776Y-92479761D01*
X129040252Y-92384523D01*
X128992633Y-92003571D01*
X128928348Y-91908333D01*
X128817633Y-91860714D01*
X128608110Y-91860714D01*
X128509300Y-91908333D01*
X128468824Y-92003571D01*
X128480729Y-92098809D01*
X129016443Y-92194047D01*
X128062872Y-92527380D02*
X127979538Y-91860714D01*
X128003348Y-92051190D02*
X127939062Y-91955952D01*
X127880729Y-91908333D01*
X127770014Y-91860714D01*
X127665252Y-91860714D01*
D12*
X144395111Y-94217619D02*
X144303444Y-93484285D01*
X144316540Y-93589047D02*
X144248087Y-93536666D01*
X144117730Y-93484285D01*
X143932016Y-93484285D01*
X143814754Y-93536666D01*
X143765944Y-93641428D01*
X143837968Y-94217619D01*
X143765944Y-93641428D02*
X143690944Y-93536666D01*
X143560587Y-93484285D01*
X143374873Y-93484285D01*
X143257611Y-93536666D01*
X143208802Y-93641428D01*
X143280825Y-94217619D01*
X142104635Y-94217619D02*
X142032611Y-93641428D01*
X142081421Y-93536666D01*
X142198683Y-93484285D01*
X142446302Y-93484285D01*
X142576659Y-93536666D01*
X142098087Y-94165238D02*
X142228444Y-94217619D01*
X142537968Y-94217619D01*
X142655230Y-94165238D01*
X142704040Y-94060476D01*
X142690944Y-93955714D01*
X142615944Y-93850952D01*
X142485587Y-93798571D01*
X142176063Y-93798571D01*
X142045706Y-93746190D01*
X141485587Y-94217619D02*
X141348087Y-93117619D01*
X141309397Y-93798571D02*
X140990349Y-94217619D01*
X140898683Y-93484285D02*
X141446302Y-93903333D01*
X139931421Y-94165238D02*
X140061778Y-94217619D01*
X140309397Y-94217619D01*
X140426659Y-94165238D01*
X140475468Y-94060476D01*
X140423087Y-93641428D01*
X140348087Y-93536666D01*
X140217730Y-93484285D01*
X139970111Y-93484285D01*
X139852849Y-93536666D01*
X139804040Y-93641428D01*
X139817135Y-93746190D01*
X140449278Y-93850952D01*
X139318921Y-94217619D02*
X139227254Y-93484285D01*
X139253444Y-93693809D02*
X139178444Y-93589047D01*
X139109992Y-93536666D01*
X138979635Y-93484285D01*
X138855825Y-93484285D01*
X138608206Y-93484285D02*
X138112968Y-93484285D01*
X138376659Y-93117619D02*
X138494516Y-94060476D01*
X138445706Y-94165238D01*
X138328444Y-94217619D01*
X138204635Y-94217619D01*
X137771302Y-94217619D02*
X137679635Y-93484285D01*
X137705825Y-93693809D02*
X137630825Y-93589047D01*
X137562373Y-93536666D01*
X137432016Y-93484285D01*
X137308206Y-93484285D01*
X136780825Y-94217619D02*
X136898087Y-94165238D01*
X136953444Y-94112857D01*
X137002254Y-94008095D01*
X136962968Y-93693809D01*
X136887968Y-93589047D01*
X136819516Y-93536666D01*
X136689159Y-93484285D01*
X136503444Y-93484285D01*
X136386183Y-93536666D01*
X136330825Y-93589047D01*
X136282016Y-93693809D01*
X136321302Y-94008095D01*
X136396302Y-94112857D01*
X136464754Y-94165238D01*
X136595111Y-94217619D01*
X136780825Y-94217619D01*
X135698683Y-93484285D02*
X135790349Y-94217619D01*
X135711778Y-93589047D02*
X135643325Y-93536666D01*
X135512968Y-93484285D01*
X135327254Y-93484285D01*
X135209992Y-93536666D01*
X135161183Y-93641428D01*
X135233206Y-94217619D01*
X134614159Y-94217619D02*
X134522492Y-93484285D01*
X134476659Y-93117619D02*
X134545111Y-93170000D01*
X134489754Y-93222380D01*
X134421302Y-93170000D01*
X134476659Y-93117619D01*
X134489754Y-93222380D01*
X133995111Y-94217619D02*
X133857611Y-93117619D01*
X133818921Y-93798571D02*
X133499873Y-94217619D01*
X133408206Y-93484285D02*
X133955825Y-93903333D01*
X132385587Y-94217619D02*
X132313563Y-93641428D01*
X132362373Y-93536666D01*
X132479635Y-93484285D01*
X132727254Y-93484285D01*
X132857611Y-93536666D01*
X132379040Y-94165238D02*
X132509397Y-94217619D01*
X132818921Y-94217619D01*
X132936183Y-94165238D01*
X132984992Y-94060476D01*
X132971897Y-93955714D01*
X132896897Y-93850952D01*
X132766540Y-93798571D01*
X132457016Y-93798571D01*
X132326659Y-93746190D01*
X131753444Y-94112857D02*
X131698087Y-94165238D01*
X131766540Y-94217619D01*
X131821897Y-94165238D01*
X131753444Y-94112857D01*
X131766540Y-94217619D01*
X130583802Y-94165238D02*
X130714159Y-94217619D01*
X130961778Y-94217619D01*
X131079040Y-94165238D01*
X131134397Y-94112857D01*
X131183206Y-94008095D01*
X131143921Y-93693809D01*
X131068921Y-93589047D01*
X131000468Y-93536666D01*
X130870111Y-93484285D01*
X130622492Y-93484285D01*
X130505230Y-93536666D01*
X129847492Y-94217619D02*
X129964754Y-94165238D01*
X130020111Y-94112857D01*
X130068921Y-94008095D01*
X130029635Y-93693809D01*
X129954635Y-93589047D01*
X129886183Y-93536666D01*
X129755825Y-93484285D01*
X129570111Y-93484285D01*
X129452849Y-93536666D01*
X129397492Y-93589047D01*
X129348683Y-93693809D01*
X129387968Y-94008095D01*
X129462968Y-94112857D01*
X129531421Y-94165238D01*
X129661778Y-94217619D01*
X129847492Y-94217619D01*
X128857016Y-94217619D02*
X128765349Y-93484285D01*
X128778444Y-93589047D02*
X128709992Y-93536666D01*
X128579635Y-93484285D01*
X128393921Y-93484285D01*
X128276659Y-93536666D01*
X128227849Y-93641428D01*
X128299873Y-94217619D01*
X128227849Y-93641428D02*
X128152849Y-93536666D01*
X128022492Y-93484285D01*
X127836778Y-93484285D01*
X127719516Y-93536666D01*
X127670706Y-93641428D01*
X127742730Y-94217619D01*
D11*
X133024571Y-80979971D02*
X132881714Y-81027590D01*
X132834095Y-81075209D01*
X132786476Y-81170447D01*
X132786476Y-81313304D01*
X132834095Y-81408542D01*
X132881714Y-81456161D01*
X132976952Y-81503780D01*
X133357904Y-81503780D01*
X133357904Y-80503780D01*
X133024571Y-80503780D01*
X132929333Y-80551400D01*
X132881714Y-80599019D01*
X132834095Y-80694257D01*
X132834095Y-80789495D01*
X132881714Y-80884733D01*
X132929333Y-80932352D01*
X133024571Y-80979971D01*
X133357904Y-80979971D01*
X133396004Y-78912980D02*
X133396004Y-77912980D01*
X133157909Y-77912980D01*
X133015052Y-77960600D01*
X132919814Y-78055838D01*
X132872195Y-78151076D01*
X132824576Y-78341552D01*
X132824576Y-78484409D01*
X132872195Y-78674885D01*
X132919814Y-78770123D01*
X133015052Y-78865361D01*
X133157909Y-78912980D01*
X133396004Y-78912980D01*
X135334333Y-77147680D02*
X135334333Y-76147680D01*
X135001000Y-76861966D01*
X134667666Y-76147680D01*
X134667666Y-77147680D01*
X137131442Y-76814371D02*
X137464776Y-76814371D01*
X137464776Y-77338180D02*
X137464776Y-76338180D01*
X136988585Y-76338180D01*
X139161804Y-79039980D02*
X139161804Y-78039980D01*
X138780852Y-78039980D01*
X138685614Y-78087600D01*
X138637995Y-78135219D01*
X138590376Y-78230457D01*
X138590376Y-78373314D01*
X138637995Y-78468552D01*
X138685614Y-78516171D01*
X138780852Y-78563790D01*
X139161804Y-78563790D01*
X139312614Y-81392661D02*
X139169757Y-81440280D01*
X138931661Y-81440280D01*
X138836423Y-81392661D01*
X138788804Y-81345042D01*
X138741185Y-81249804D01*
X138741185Y-81154566D01*
X138788804Y-81059328D01*
X138836423Y-81011709D01*
X138931661Y-80964090D01*
X139122138Y-80916471D01*
X139217376Y-80868852D01*
X139264995Y-80821233D01*
X139312614Y-80725995D01*
X139312614Y-80630757D01*
X139264995Y-80535519D01*
X139217376Y-80487900D01*
X139122138Y-80440280D01*
X138884042Y-80440280D01*
X138741185Y-80487900D01*
D13*
X142219154Y-84632095D02*
X141362011Y-84632095D01*
X141953083Y-85932095D02*
X141790583Y-84632095D01*
X141024511Y-85932095D02*
X140916178Y-85065428D01*
X140862011Y-84632095D02*
X140941178Y-84694000D01*
X140877488Y-84755904D01*
X140798321Y-84694000D01*
X140862011Y-84632095D01*
X140877488Y-84755904D01*
X140201892Y-85065428D02*
X140310226Y-85932095D01*
X140217369Y-85189238D02*
X140138202Y-85127333D01*
X139987607Y-85065428D01*
X139773321Y-85065428D01*
X139638202Y-85127333D01*
X139582250Y-85251142D01*
X139667369Y-85932095D01*
X138987607Y-85065428D02*
X138738797Y-85932095D01*
X138273321Y-85065428D02*
X138738797Y-85932095D01*
X138920345Y-86241619D01*
X138999511Y-86303523D01*
X139150107Y-86365428D01*
X137095940Y-85932095D02*
X137810226Y-85932095D01*
X137647726Y-84632095D01*
X136381654Y-85932095D02*
X136516773Y-85870190D01*
X136580464Y-85808285D01*
X136636416Y-85684476D01*
X136589988Y-85313047D01*
X136503083Y-85189238D01*
X136423916Y-85127333D01*
X136273321Y-85065428D01*
X136059035Y-85065428D01*
X135923916Y-85127333D01*
X135860226Y-85189238D01*
X135804273Y-85313047D01*
X135850702Y-85684476D01*
X135937607Y-85808285D01*
X136016773Y-85870190D01*
X136167369Y-85932095D01*
X136381654Y-85932095D01*
X134381654Y-85932095D02*
X134804273Y-85313047D01*
X135238797Y-85932095D02*
X135076297Y-84632095D01*
X134504869Y-84632095D01*
X134369750Y-84694000D01*
X134306059Y-84755904D01*
X134250107Y-84879714D01*
X134273321Y-85065428D01*
X134360226Y-85189238D01*
X134439392Y-85251142D01*
X134589988Y-85313047D01*
X135161416Y-85313047D01*
X133095940Y-85932095D02*
X133010821Y-85251142D01*
X133066773Y-85127333D01*
X133201892Y-85065428D01*
X133487607Y-85065428D01*
X133638202Y-85127333D01*
X133088202Y-85870190D02*
X133238797Y-85932095D01*
X133595940Y-85932095D01*
X133731059Y-85870190D01*
X133787011Y-85746380D01*
X133771535Y-85622571D01*
X133684630Y-85498761D01*
X133534035Y-85436857D01*
X133176892Y-85436857D01*
X133026297Y-85374952D01*
X131273321Y-85065428D02*
X131024511Y-85932095D01*
X130559035Y-85065428D01*
X129310226Y-85932095D02*
X130167369Y-85932095D01*
X129738797Y-85932095D02*
X129576297Y-84632095D01*
X129742369Y-84817809D01*
X129900702Y-84941619D01*
X130051297Y-85003523D01*
D14*
G04 #@! TO.C,JP2*
X140925000Y-92900000D02*
X142325000Y-92900000D01*
X143025000Y-92200000D02*
X143025000Y-91600000D01*
X142325000Y-90900000D02*
X140925000Y-90900000D01*
X140225000Y-91600000D02*
X140225000Y-92200000D01*
X140225000Y-92200000D02*
G75*
G03X140925000Y-92900000I700000J0D01*
G01*
X140925000Y-90900000D02*
G75*
G03X140225000Y-91600000I0J-700000D01*
G01*
X143025000Y-91600000D02*
G75*
G03X142325000Y-90900000I-700000J0D01*
G01*
X142325000Y-92900000D02*
G75*
G03X143025000Y-92200000I0J700000D01*
G01*
G04 #@! TO.C,JP3*
X146640000Y-78950000D02*
G75*
G03X145940000Y-78250000I-700000J0D01*
G01*
X145340000Y-78250000D02*
G75*
G03X144640000Y-78950000I0J-700000D01*
G01*
X144640000Y-80350000D02*
G75*
G03X145340000Y-81050000I700000J0D01*
G01*
X145940000Y-81050000D02*
G75*
G03X146640000Y-80350000I0J700000D01*
G01*
X145340000Y-81050000D02*
X145940000Y-81050000D01*
X144640000Y-78950000D02*
X144640000Y-80350000D01*
X145940000Y-78250000D02*
X145340000Y-78250000D01*
X146640000Y-80350000D02*
X146640000Y-78950000D01*
G04 #@! TO.C,JP4*
X143475000Y-87100000D02*
X142075000Y-87100000D01*
X141375000Y-87800000D02*
X141375000Y-88400000D01*
X142075000Y-89100000D02*
X143475000Y-89100000D01*
X144175000Y-88400000D02*
X144175000Y-87800000D01*
X144175000Y-87800000D02*
G75*
G03X143475000Y-87100000I-700000J0D01*
G01*
X143475000Y-89100000D02*
G75*
G03X144175000Y-88400000I0J700000D01*
G01*
X141375000Y-88400000D02*
G75*
G03X142075000Y-89100000I700000J0D01*
G01*
X142075000Y-87100000D02*
G75*
G03X141375000Y-87800000I0J-700000D01*
G01*
G04 #@! TO.C,JP5*
X140060000Y-101270000D02*
G75*
G03X139360000Y-100570000I-700000J0D01*
G01*
X138760000Y-100570000D02*
G75*
G03X138060000Y-101270000I0J-700000D01*
G01*
X138060000Y-102670000D02*
G75*
G03X138760000Y-103370000I700000J0D01*
G01*
X139360000Y-103370000D02*
G75*
G03X140060000Y-102670000I0J700000D01*
G01*
X138760000Y-103370000D02*
X139360000Y-103370000D01*
X138060000Y-101270000D02*
X138060000Y-102670000D01*
X139360000Y-100570000D02*
X138760000Y-100570000D01*
X140060000Y-102670000D02*
X140060000Y-101270000D01*
D15*
G04 #@! TO.C,REF\002A\002A*
G36*
X135850122Y-76537776D02*
X135744388Y-76538355D01*
X135667868Y-76539922D01*
X135615628Y-76542972D01*
X135582737Y-76547996D01*
X135564263Y-76555489D01*
X135555273Y-76565944D01*
X135550837Y-76579853D01*
X135550406Y-76581654D01*
X135543667Y-76614145D01*
X135531192Y-76678252D01*
X135514281Y-76767151D01*
X135494229Y-76874019D01*
X135472336Y-76992033D01*
X135471571Y-76996178D01*
X135449641Y-77111831D01*
X135429123Y-77214014D01*
X135411341Y-77296598D01*
X135397619Y-77353456D01*
X135389282Y-77378458D01*
X135388884Y-77378901D01*
X135364323Y-77391110D01*
X135313685Y-77411456D01*
X135247905Y-77435545D01*
X135247539Y-77435674D01*
X135164683Y-77466818D01*
X135067000Y-77506491D01*
X134974923Y-77546381D01*
X134970566Y-77548353D01*
X134820593Y-77616420D01*
X134488502Y-77389639D01*
X134386626Y-77320504D01*
X134294343Y-77258697D01*
X134216997Y-77207733D01*
X134159936Y-77171127D01*
X134128505Y-77152394D01*
X134125521Y-77151004D01*
X134102679Y-77157190D01*
X134060018Y-77187035D01*
X133995872Y-77241947D01*
X133908579Y-77323334D01*
X133819465Y-77409922D01*
X133733559Y-77495247D01*
X133656673Y-77573108D01*
X133593436Y-77638697D01*
X133548477Y-77687205D01*
X133526424Y-77713825D01*
X133525604Y-77715195D01*
X133523166Y-77733463D01*
X133532350Y-77763295D01*
X133555426Y-77808721D01*
X133594663Y-77873770D01*
X133652330Y-77962470D01*
X133729205Y-78076657D01*
X133797430Y-78177162D01*
X133858418Y-78267303D01*
X133908644Y-78341849D01*
X133944584Y-78395565D01*
X133962713Y-78423218D01*
X133963854Y-78425095D01*
X133961641Y-78451590D01*
X133944862Y-78503086D01*
X133916858Y-78569851D01*
X133906878Y-78591172D01*
X133863328Y-78686159D01*
X133816866Y-78793937D01*
X133779123Y-78887192D01*
X133751927Y-78956406D01*
X133730325Y-79009006D01*
X133717842Y-79036497D01*
X133716291Y-79038616D01*
X133693332Y-79042124D01*
X133639214Y-79051738D01*
X133561132Y-79066089D01*
X133466281Y-79083807D01*
X133361857Y-79103525D01*
X133255056Y-79123874D01*
X133153074Y-79143486D01*
X133063106Y-79160991D01*
X132992347Y-79175022D01*
X132947994Y-79184209D01*
X132937115Y-79186807D01*
X132925878Y-79193218D01*
X132917395Y-79207697D01*
X132911286Y-79235133D01*
X132907168Y-79280411D01*
X132904659Y-79348420D01*
X132903379Y-79444047D01*
X132902946Y-79572180D01*
X132902923Y-79624701D01*
X132902923Y-80051845D01*
X133005500Y-80072091D01*
X133062569Y-80083070D01*
X133147731Y-80099095D01*
X133250628Y-80118233D01*
X133360904Y-80138551D01*
X133391385Y-80144132D01*
X133493145Y-80163917D01*
X133581795Y-80183373D01*
X133649892Y-80200697D01*
X133689996Y-80214088D01*
X133696677Y-80218079D01*
X133713081Y-80246342D01*
X133736601Y-80301109D01*
X133762684Y-80371588D01*
X133767858Y-80386769D01*
X133802044Y-80480896D01*
X133844477Y-80587101D01*
X133886003Y-80682473D01*
X133886208Y-80682916D01*
X133955360Y-80832525D01*
X133500488Y-81501617D01*
X133792500Y-81794116D01*
X133880820Y-81881170D01*
X133961375Y-81957909D01*
X134029640Y-82020237D01*
X134081092Y-82064056D01*
X134111206Y-82085270D01*
X134115526Y-82086616D01*
X134140889Y-82076016D01*
X134192642Y-82046547D01*
X134265132Y-82001705D01*
X134352706Y-81944984D01*
X134447388Y-81881462D01*
X134543484Y-81816668D01*
X134629163Y-81760287D01*
X134698984Y-81715788D01*
X134747506Y-81686639D01*
X134769218Y-81676308D01*
X134795707Y-81685050D01*
X134845938Y-81708087D01*
X134909549Y-81740631D01*
X134916292Y-81744249D01*
X135001954Y-81787210D01*
X135060694Y-81808279D01*
X135097228Y-81808503D01*
X135116269Y-81788928D01*
X135116380Y-81788654D01*
X135125898Y-81765472D01*
X135148597Y-81710441D01*
X135182718Y-81627822D01*
X135226500Y-81521872D01*
X135278184Y-81396852D01*
X135336008Y-81257020D01*
X135392009Y-81121637D01*
X135453553Y-80972234D01*
X135510061Y-80833832D01*
X135559839Y-80710673D01*
X135601194Y-80607002D01*
X135632432Y-80527059D01*
X135651859Y-80475088D01*
X135657846Y-80455692D01*
X135642832Y-80433443D01*
X135603561Y-80397982D01*
X135551193Y-80358887D01*
X135402059Y-80235245D01*
X135285489Y-80093522D01*
X135202882Y-79936704D01*
X135155634Y-79767775D01*
X135145143Y-79589722D01*
X135152769Y-79507539D01*
X135194318Y-79337031D01*
X135265877Y-79186459D01*
X135363005Y-79057309D01*
X135481266Y-78951064D01*
X135616220Y-78869210D01*
X135763429Y-78813232D01*
X135918456Y-78784615D01*
X136076861Y-78784844D01*
X136234206Y-78815405D01*
X136386054Y-78877782D01*
X136527965Y-78973460D01*
X136587197Y-79027572D01*
X136700797Y-79166520D01*
X136779894Y-79318361D01*
X136825014Y-79478667D01*
X136836684Y-79643012D01*
X136815431Y-79806971D01*
X136761780Y-79966118D01*
X136676260Y-80116025D01*
X136559395Y-80252267D01*
X136428807Y-80358887D01*
X136374412Y-80399642D01*
X136335986Y-80434718D01*
X136322154Y-80455726D01*
X136329397Y-80478635D01*
X136349995Y-80533365D01*
X136382254Y-80615672D01*
X136424479Y-80721315D01*
X136474977Y-80846050D01*
X136532052Y-80985636D01*
X136588146Y-81121670D01*
X136650033Y-81271201D01*
X136707356Y-81409767D01*
X136758356Y-81533107D01*
X136801273Y-81636964D01*
X136834347Y-81717080D01*
X136855819Y-81769195D01*
X136863775Y-81788654D01*
X136882571Y-81808423D01*
X136918926Y-81808365D01*
X136977521Y-81787441D01*
X137063032Y-81744613D01*
X137063708Y-81744249D01*
X137128093Y-81711012D01*
X137180139Y-81686802D01*
X137209488Y-81676404D01*
X137210783Y-81676308D01*
X137232876Y-81686855D01*
X137281652Y-81716184D01*
X137351669Y-81760827D01*
X137437486Y-81817314D01*
X137532612Y-81881462D01*
X137629460Y-81946411D01*
X137716747Y-82002896D01*
X137788819Y-82047421D01*
X137840023Y-82076490D01*
X137864474Y-82086616D01*
X137886990Y-82073307D01*
X137932258Y-82036112D01*
X137995756Y-81979128D01*
X138072961Y-81906449D01*
X138159349Y-81822171D01*
X138187601Y-81794016D01*
X138479713Y-81501416D01*
X138257369Y-81175104D01*
X138189798Y-81074897D01*
X138130493Y-80984963D01*
X138082783Y-80910510D01*
X138049993Y-80856751D01*
X138035452Y-80828894D01*
X138035026Y-80826912D01*
X138042692Y-80800655D01*
X138063311Y-80747837D01*
X138093315Y-80677310D01*
X138114375Y-80630093D01*
X138153752Y-80539694D01*
X138190835Y-80448366D01*
X138219585Y-80371200D01*
X138227395Y-80347692D01*
X138249583Y-80284916D01*
X138271273Y-80236411D01*
X138283187Y-80218079D01*
X138309477Y-80206859D01*
X138366858Y-80190954D01*
X138447882Y-80172167D01*
X138545105Y-80152299D01*
X138588615Y-80144132D01*
X138699104Y-80123829D01*
X138805084Y-80104170D01*
X138896199Y-80087088D01*
X138962092Y-80074518D01*
X138974500Y-80072091D01*
X139077077Y-80051845D01*
X139077077Y-79624701D01*
X139076847Y-79484246D01*
X139075901Y-79377979D01*
X139073859Y-79301013D01*
X139070338Y-79248460D01*
X139064957Y-79215433D01*
X139057334Y-79197045D01*
X139047088Y-79188408D01*
X139042885Y-79186807D01*
X139017530Y-79181127D01*
X138961516Y-79169795D01*
X138882036Y-79154179D01*
X138786288Y-79135647D01*
X138681467Y-79115569D01*
X138574768Y-79095312D01*
X138473387Y-79076246D01*
X138384521Y-79059739D01*
X138315363Y-79047159D01*
X138273111Y-79039875D01*
X138263710Y-79038616D01*
X138255193Y-79021763D01*
X138236340Y-78976870D01*
X138210676Y-78912430D01*
X138200877Y-78887192D01*
X138161352Y-78789686D01*
X138114808Y-78681959D01*
X138073123Y-78591172D01*
X138042450Y-78521753D01*
X138022044Y-78464710D01*
X138015232Y-78429777D01*
X138016318Y-78425095D01*
X138030715Y-78402991D01*
X138063588Y-78353831D01*
X138111410Y-78282848D01*
X138170652Y-78195278D01*
X138237785Y-78096357D01*
X138251059Y-78076830D01*
X138328954Y-77961140D01*
X138386213Y-77873044D01*
X138425119Y-77808486D01*
X138447956Y-77763411D01*
X138457006Y-77733763D01*
X138454552Y-77715485D01*
X138454489Y-77715369D01*
X138435173Y-77691361D01*
X138392449Y-77644947D01*
X138330949Y-77580937D01*
X138255302Y-77504145D01*
X138170139Y-77419382D01*
X138160535Y-77409922D01*
X138053210Y-77305989D01*
X137970385Y-77229675D01*
X137910395Y-77179571D01*
X137871577Y-77154270D01*
X137854480Y-77151004D01*
X137829527Y-77165250D01*
X137777745Y-77198156D01*
X137704480Y-77246208D01*
X137615080Y-77305890D01*
X137514889Y-77373688D01*
X137491499Y-77389639D01*
X137159407Y-77616420D01*
X137009435Y-77548353D01*
X136918230Y-77508685D01*
X136820331Y-77468791D01*
X136736169Y-77436983D01*
X136732462Y-77435674D01*
X136666631Y-77411576D01*
X136615884Y-77391200D01*
X136591158Y-77378936D01*
X136591116Y-77378901D01*
X136583271Y-77356734D01*
X136569934Y-77302217D01*
X136552430Y-77221480D01*
X136532083Y-77120650D01*
X136510218Y-77005856D01*
X136508429Y-76996178D01*
X136486496Y-76877904D01*
X136466360Y-76770542D01*
X136449320Y-76680917D01*
X136436672Y-76615851D01*
X136429716Y-76582168D01*
X136429594Y-76581654D01*
X136425361Y-76567325D01*
X136417129Y-76556507D01*
X136399967Y-76548706D01*
X136368942Y-76543429D01*
X136319122Y-76540182D01*
X136245576Y-76538472D01*
X136143371Y-76537807D01*
X136007575Y-76537693D01*
X135990000Y-76537692D01*
X135850122Y-76537776D01*
X135850122Y-76537776D01*
G37*
X135850122Y-76537776D02*
X135744388Y-76538355D01*
X135667868Y-76539922D01*
X135615628Y-76542972D01*
X135582737Y-76547996D01*
X135564263Y-76555489D01*
X135555273Y-76565944D01*
X135550837Y-76579853D01*
X135550406Y-76581654D01*
X135543667Y-76614145D01*
X135531192Y-76678252D01*
X135514281Y-76767151D01*
X135494229Y-76874019D01*
X135472336Y-76992033D01*
X135471571Y-76996178D01*
X135449641Y-77111831D01*
X135429123Y-77214014D01*
X135411341Y-77296598D01*
X135397619Y-77353456D01*
X135389282Y-77378458D01*
X135388884Y-77378901D01*
X135364323Y-77391110D01*
X135313685Y-77411456D01*
X135247905Y-77435545D01*
X135247539Y-77435674D01*
X135164683Y-77466818D01*
X135067000Y-77506491D01*
X134974923Y-77546381D01*
X134970566Y-77548353D01*
X134820593Y-77616420D01*
X134488502Y-77389639D01*
X134386626Y-77320504D01*
X134294343Y-77258697D01*
X134216997Y-77207733D01*
X134159936Y-77171127D01*
X134128505Y-77152394D01*
X134125521Y-77151004D01*
X134102679Y-77157190D01*
X134060018Y-77187035D01*
X133995872Y-77241947D01*
X133908579Y-77323334D01*
X133819465Y-77409922D01*
X133733559Y-77495247D01*
X133656673Y-77573108D01*
X133593436Y-77638697D01*
X133548477Y-77687205D01*
X133526424Y-77713825D01*
X133525604Y-77715195D01*
X133523166Y-77733463D01*
X133532350Y-77763295D01*
X133555426Y-77808721D01*
X133594663Y-77873770D01*
X133652330Y-77962470D01*
X133729205Y-78076657D01*
X133797430Y-78177162D01*
X133858418Y-78267303D01*
X133908644Y-78341849D01*
X133944584Y-78395565D01*
X133962713Y-78423218D01*
X133963854Y-78425095D01*
X133961641Y-78451590D01*
X133944862Y-78503086D01*
X133916858Y-78569851D01*
X133906878Y-78591172D01*
X133863328Y-78686159D01*
X133816866Y-78793937D01*
X133779123Y-78887192D01*
X133751927Y-78956406D01*
X133730325Y-79009006D01*
X133717842Y-79036497D01*
X133716291Y-79038616D01*
X133693332Y-79042124D01*
X133639214Y-79051738D01*
X133561132Y-79066089D01*
X133466281Y-79083807D01*
X133361857Y-79103525D01*
X133255056Y-79123874D01*
X133153074Y-79143486D01*
X133063106Y-79160991D01*
X132992347Y-79175022D01*
X132947994Y-79184209D01*
X132937115Y-79186807D01*
X132925878Y-79193218D01*
X132917395Y-79207697D01*
X132911286Y-79235133D01*
X132907168Y-79280411D01*
X132904659Y-79348420D01*
X132903379Y-79444047D01*
X132902946Y-79572180D01*
X132902923Y-79624701D01*
X132902923Y-80051845D01*
X133005500Y-80072091D01*
X133062569Y-80083070D01*
X133147731Y-80099095D01*
X133250628Y-80118233D01*
X133360904Y-80138551D01*
X133391385Y-80144132D01*
X133493145Y-80163917D01*
X133581795Y-80183373D01*
X133649892Y-80200697D01*
X133689996Y-80214088D01*
X133696677Y-80218079D01*
X133713081Y-80246342D01*
X133736601Y-80301109D01*
X133762684Y-80371588D01*
X133767858Y-80386769D01*
X133802044Y-80480896D01*
X133844477Y-80587101D01*
X133886003Y-80682473D01*
X133886208Y-80682916D01*
X133955360Y-80832525D01*
X133500488Y-81501617D01*
X133792500Y-81794116D01*
X133880820Y-81881170D01*
X133961375Y-81957909D01*
X134029640Y-82020237D01*
X134081092Y-82064056D01*
X134111206Y-82085270D01*
X134115526Y-82086616D01*
X134140889Y-82076016D01*
X134192642Y-82046547D01*
X134265132Y-82001705D01*
X134352706Y-81944984D01*
X134447388Y-81881462D01*
X134543484Y-81816668D01*
X134629163Y-81760287D01*
X134698984Y-81715788D01*
X134747506Y-81686639D01*
X134769218Y-81676308D01*
X134795707Y-81685050D01*
X134845938Y-81708087D01*
X134909549Y-81740631D01*
X134916292Y-81744249D01*
X135001954Y-81787210D01*
X135060694Y-81808279D01*
X135097228Y-81808503D01*
X135116269Y-81788928D01*
X135116380Y-81788654D01*
X135125898Y-81765472D01*
X135148597Y-81710441D01*
X135182718Y-81627822D01*
X135226500Y-81521872D01*
X135278184Y-81396852D01*
X135336008Y-81257020D01*
X135392009Y-81121637D01*
X135453553Y-80972234D01*
X135510061Y-80833832D01*
X135559839Y-80710673D01*
X135601194Y-80607002D01*
X135632432Y-80527059D01*
X135651859Y-80475088D01*
X135657846Y-80455692D01*
X135642832Y-80433443D01*
X135603561Y-80397982D01*
X135551193Y-80358887D01*
X135402059Y-80235245D01*
X135285489Y-80093522D01*
X135202882Y-79936704D01*
X135155634Y-79767775D01*
X135145143Y-79589722D01*
X135152769Y-79507539D01*
X135194318Y-79337031D01*
X135265877Y-79186459D01*
X135363005Y-79057309D01*
X135481266Y-78951064D01*
X135616220Y-78869210D01*
X135763429Y-78813232D01*
X135918456Y-78784615D01*
X136076861Y-78784844D01*
X136234206Y-78815405D01*
X136386054Y-78877782D01*
X136527965Y-78973460D01*
X136587197Y-79027572D01*
X136700797Y-79166520D01*
X136779894Y-79318361D01*
X136825014Y-79478667D01*
X136836684Y-79643012D01*
X136815431Y-79806971D01*
X136761780Y-79966118D01*
X136676260Y-80116025D01*
X136559395Y-80252267D01*
X136428807Y-80358887D01*
X136374412Y-80399642D01*
X136335986Y-80434718D01*
X136322154Y-80455726D01*
X136329397Y-80478635D01*
X136349995Y-80533365D01*
X136382254Y-80615672D01*
X136424479Y-80721315D01*
X136474977Y-80846050D01*
X136532052Y-80985636D01*
X136588146Y-81121670D01*
X136650033Y-81271201D01*
X136707356Y-81409767D01*
X136758356Y-81533107D01*
X136801273Y-81636964D01*
X136834347Y-81717080D01*
X136855819Y-81769195D01*
X136863775Y-81788654D01*
X136882571Y-81808423D01*
X136918926Y-81808365D01*
X136977521Y-81787441D01*
X137063032Y-81744613D01*
X137063708Y-81744249D01*
X137128093Y-81711012D01*
X137180139Y-81686802D01*
X137209488Y-81676404D01*
X137210783Y-81676308D01*
X137232876Y-81686855D01*
X137281652Y-81716184D01*
X137351669Y-81760827D01*
X137437486Y-81817314D01*
X137532612Y-81881462D01*
X137629460Y-81946411D01*
X137716747Y-82002896D01*
X137788819Y-82047421D01*
X137840023Y-82076490D01*
X137864474Y-82086616D01*
X137886990Y-82073307D01*
X137932258Y-82036112D01*
X137995756Y-81979128D01*
X138072961Y-81906449D01*
X138159349Y-81822171D01*
X138187601Y-81794016D01*
X138479713Y-81501416D01*
X138257369Y-81175104D01*
X138189798Y-81074897D01*
X138130493Y-80984963D01*
X138082783Y-80910510D01*
X138049993Y-80856751D01*
X138035452Y-80828894D01*
X138035026Y-80826912D01*
X138042692Y-80800655D01*
X138063311Y-80747837D01*
X138093315Y-80677310D01*
X138114375Y-80630093D01*
X138153752Y-80539694D01*
X138190835Y-80448366D01*
X138219585Y-80371200D01*
X138227395Y-80347692D01*
X138249583Y-80284916D01*
X138271273Y-80236411D01*
X138283187Y-80218079D01*
X138309477Y-80206859D01*
X138366858Y-80190954D01*
X138447882Y-80172167D01*
X138545105Y-80152299D01*
X138588615Y-80144132D01*
X138699104Y-80123829D01*
X138805084Y-80104170D01*
X138896199Y-80087088D01*
X138962092Y-80074518D01*
X138974500Y-80072091D01*
X139077077Y-80051845D01*
X139077077Y-79624701D01*
X139076847Y-79484246D01*
X139075901Y-79377979D01*
X139073859Y-79301013D01*
X139070338Y-79248460D01*
X139064957Y-79215433D01*
X139057334Y-79197045D01*
X139047088Y-79188408D01*
X139042885Y-79186807D01*
X139017530Y-79181127D01*
X138961516Y-79169795D01*
X138882036Y-79154179D01*
X138786288Y-79135647D01*
X138681467Y-79115569D01*
X138574768Y-79095312D01*
X138473387Y-79076246D01*
X138384521Y-79059739D01*
X138315363Y-79047159D01*
X138273111Y-79039875D01*
X138263710Y-79038616D01*
X138255193Y-79021763D01*
X138236340Y-78976870D01*
X138210676Y-78912430D01*
X138200877Y-78887192D01*
X138161352Y-78789686D01*
X138114808Y-78681959D01*
X138073123Y-78591172D01*
X138042450Y-78521753D01*
X138022044Y-78464710D01*
X138015232Y-78429777D01*
X138016318Y-78425095D01*
X138030715Y-78402991D01*
X138063588Y-78353831D01*
X138111410Y-78282848D01*
X138170652Y-78195278D01*
X138237785Y-78096357D01*
X138251059Y-78076830D01*
X138328954Y-77961140D01*
X138386213Y-77873044D01*
X138425119Y-77808486D01*
X138447956Y-77763411D01*
X138457006Y-77733763D01*
X138454552Y-77715485D01*
X138454489Y-77715369D01*
X138435173Y-77691361D01*
X138392449Y-77644947D01*
X138330949Y-77580937D01*
X138255302Y-77504145D01*
X138170139Y-77419382D01*
X138160535Y-77409922D01*
X138053210Y-77305989D01*
X137970385Y-77229675D01*
X137910395Y-77179571D01*
X137871577Y-77154270D01*
X137854480Y-77151004D01*
X137829527Y-77165250D01*
X137777745Y-77198156D01*
X137704480Y-77246208D01*
X137615080Y-77305890D01*
X137514889Y-77373688D01*
X137491499Y-77389639D01*
X137159407Y-77616420D01*
X137009435Y-77548353D01*
X136918230Y-77508685D01*
X136820331Y-77468791D01*
X136736169Y-77436983D01*
X136732462Y-77435674D01*
X136666631Y-77411576D01*
X136615884Y-77391200D01*
X136591158Y-77378936D01*
X136591116Y-77378901D01*
X136583271Y-77356734D01*
X136569934Y-77302217D01*
X136552430Y-77221480D01*
X136532083Y-77120650D01*
X136510218Y-77005856D01*
X136508429Y-76996178D01*
X136486496Y-76877904D01*
X136466360Y-76770542D01*
X136449320Y-76680917D01*
X136436672Y-76615851D01*
X136429716Y-76582168D01*
X136429594Y-76581654D01*
X136425361Y-76567325D01*
X136417129Y-76556507D01*
X136399967Y-76548706D01*
X136368942Y-76543429D01*
X136319122Y-76540182D01*
X136245576Y-76538472D01*
X136143371Y-76537807D01*
X136007575Y-76537693D01*
X135990000Y-76537692D01*
X135850122Y-76537776D01*
G36*
X131744776Y-82897838D02*
X131667472Y-82948361D01*
X131630186Y-82993590D01*
X131600647Y-83075663D01*
X131598301Y-83140607D01*
X131603615Y-83227445D01*
X131803885Y-83315103D01*
X131901261Y-83359887D01*
X131964887Y-83395913D01*
X131997971Y-83427117D01*
X132003720Y-83457436D01*
X131985342Y-83490805D01*
X131965077Y-83512923D01*
X131906111Y-83548393D01*
X131841976Y-83550879D01*
X131783074Y-83523235D01*
X131739803Y-83468320D01*
X131732064Y-83448928D01*
X131694994Y-83388364D01*
X131652346Y-83362552D01*
X131593846Y-83340471D01*
X131593846Y-83424184D01*
X131599018Y-83481150D01*
X131619277Y-83529189D01*
X131661738Y-83584346D01*
X131668049Y-83591514D01*
X131715280Y-83640585D01*
X131755879Y-83666920D01*
X131806672Y-83679035D01*
X131848780Y-83683003D01*
X131924098Y-83683991D01*
X131977714Y-83671466D01*
X132011162Y-83652869D01*
X132063732Y-83611975D01*
X132100121Y-83567748D01*
X132123150Y-83512126D01*
X132135641Y-83437047D01*
X132140413Y-83334449D01*
X132140794Y-83282376D01*
X132139499Y-83219948D01*
X132021529Y-83219948D01*
X132020161Y-83253438D01*
X132016751Y-83258923D01*
X131994247Y-83251472D01*
X131945818Y-83231753D01*
X131881092Y-83203718D01*
X131867557Y-83197692D01*
X131785756Y-83156096D01*
X131740688Y-83119538D01*
X131730783Y-83085296D01*
X131754474Y-83050648D01*
X131774040Y-83035339D01*
X131844640Y-83004721D01*
X131910720Y-83009780D01*
X131966041Y-83047151D01*
X132004364Y-83113473D01*
X132016651Y-83166116D01*
X132021529Y-83219948D01*
X132139499Y-83219948D01*
X132138270Y-83160720D01*
X132128968Y-83070710D01*
X132110540Y-83005167D01*
X132080640Y-82956912D01*
X132036920Y-82918767D01*
X132017859Y-82906440D01*
X131931274Y-82874336D01*
X131836478Y-82872316D01*
X131744776Y-82897838D01*
X131744776Y-82897838D01*
G37*
X131744776Y-82897838D02*
X131667472Y-82948361D01*
X131630186Y-82993590D01*
X131600647Y-83075663D01*
X131598301Y-83140607D01*
X131603615Y-83227445D01*
X131803885Y-83315103D01*
X131901261Y-83359887D01*
X131964887Y-83395913D01*
X131997971Y-83427117D01*
X132003720Y-83457436D01*
X131985342Y-83490805D01*
X131965077Y-83512923D01*
X131906111Y-83548393D01*
X131841976Y-83550879D01*
X131783074Y-83523235D01*
X131739803Y-83468320D01*
X131732064Y-83448928D01*
X131694994Y-83388364D01*
X131652346Y-83362552D01*
X131593846Y-83340471D01*
X131593846Y-83424184D01*
X131599018Y-83481150D01*
X131619277Y-83529189D01*
X131661738Y-83584346D01*
X131668049Y-83591514D01*
X131715280Y-83640585D01*
X131755879Y-83666920D01*
X131806672Y-83679035D01*
X131848780Y-83683003D01*
X131924098Y-83683991D01*
X131977714Y-83671466D01*
X132011162Y-83652869D01*
X132063732Y-83611975D01*
X132100121Y-83567748D01*
X132123150Y-83512126D01*
X132135641Y-83437047D01*
X132140413Y-83334449D01*
X132140794Y-83282376D01*
X132139499Y-83219948D01*
X132021529Y-83219948D01*
X132020161Y-83253438D01*
X132016751Y-83258923D01*
X131994247Y-83251472D01*
X131945818Y-83231753D01*
X131881092Y-83203718D01*
X131867557Y-83197692D01*
X131785756Y-83156096D01*
X131740688Y-83119538D01*
X131730783Y-83085296D01*
X131754474Y-83050648D01*
X131774040Y-83035339D01*
X131844640Y-83004721D01*
X131910720Y-83009780D01*
X131966041Y-83047151D01*
X132004364Y-83113473D01*
X132016651Y-83166116D01*
X132021529Y-83219948D01*
X132139499Y-83219948D01*
X132138270Y-83160720D01*
X132128968Y-83070710D01*
X132110540Y-83005167D01*
X132080640Y-82956912D01*
X132036920Y-82918767D01*
X132017859Y-82906440D01*
X131931274Y-82874336D01*
X131836478Y-82872316D01*
X131744776Y-82897838D01*
G36*
X132419193Y-82886782D02*
X132395839Y-82896988D01*
X132340098Y-82941134D01*
X132292431Y-83004967D01*
X132262952Y-83073087D01*
X132258154Y-83106670D01*
X132274240Y-83153556D01*
X132309525Y-83178365D01*
X132347356Y-83193387D01*
X132364679Y-83196155D01*
X132373114Y-83176066D01*
X132389770Y-83132351D01*
X132397077Y-83112598D01*
X132438052Y-83044271D01*
X132497378Y-83010191D01*
X132573448Y-83011239D01*
X132579082Y-83012581D01*
X132619695Y-83031836D01*
X132649552Y-83069375D01*
X132669945Y-83129809D01*
X132682164Y-83217751D01*
X132687500Y-83337813D01*
X132688000Y-83401698D01*
X132688248Y-83502403D01*
X132689874Y-83571054D01*
X132694199Y-83614673D01*
X132702546Y-83640282D01*
X132716235Y-83654903D01*
X132736589Y-83665558D01*
X132737766Y-83666095D01*
X132776962Y-83682667D01*
X132796381Y-83688769D01*
X132799365Y-83670319D01*
X132801919Y-83619323D01*
X132803860Y-83542308D01*
X132805003Y-83445805D01*
X132805231Y-83375184D01*
X132804068Y-83238525D01*
X132799521Y-83134851D01*
X132790001Y-83058108D01*
X132773919Y-83002246D01*
X132749687Y-82961212D01*
X132715714Y-82928954D01*
X132682167Y-82906440D01*
X132601501Y-82876476D01*
X132507619Y-82869718D01*
X132419193Y-82886782D01*
X132419193Y-82886782D01*
G37*
X132419193Y-82886782D02*
X132395839Y-82896988D01*
X132340098Y-82941134D01*
X132292431Y-83004967D01*
X132262952Y-83073087D01*
X132258154Y-83106670D01*
X132274240Y-83153556D01*
X132309525Y-83178365D01*
X132347356Y-83193387D01*
X132364679Y-83196155D01*
X132373114Y-83176066D01*
X132389770Y-83132351D01*
X132397077Y-83112598D01*
X132438052Y-83044271D01*
X132497378Y-83010191D01*
X132573448Y-83011239D01*
X132579082Y-83012581D01*
X132619695Y-83031836D01*
X132649552Y-83069375D01*
X132669945Y-83129809D01*
X132682164Y-83217751D01*
X132687500Y-83337813D01*
X132688000Y-83401698D01*
X132688248Y-83502403D01*
X132689874Y-83571054D01*
X132694199Y-83614673D01*
X132702546Y-83640282D01*
X132716235Y-83654903D01*
X132736589Y-83665558D01*
X132737766Y-83666095D01*
X132776962Y-83682667D01*
X132796381Y-83688769D01*
X132799365Y-83670319D01*
X132801919Y-83619323D01*
X132803860Y-83542308D01*
X132805003Y-83445805D01*
X132805231Y-83375184D01*
X132804068Y-83238525D01*
X132799521Y-83134851D01*
X132790001Y-83058108D01*
X132773919Y-83002246D01*
X132749687Y-82961212D01*
X132715714Y-82928954D01*
X132682167Y-82906440D01*
X132601501Y-82876476D01*
X132507619Y-82869718D01*
X132419193Y-82886782D01*
G36*
X133102667Y-82883528D02*
X133046410Y-82909117D01*
X133002253Y-82940124D01*
X132969899Y-82974795D01*
X132947562Y-83019520D01*
X132933454Y-83080692D01*
X132925789Y-83164701D01*
X132922780Y-83277940D01*
X132922462Y-83352509D01*
X132922462Y-83643420D01*
X132972227Y-83666095D01*
X133011424Y-83682667D01*
X133030843Y-83688769D01*
X133034558Y-83670610D01*
X133037505Y-83621648D01*
X133039309Y-83550153D01*
X133039692Y-83493385D01*
X133041339Y-83411371D01*
X133045778Y-83346309D01*
X133052260Y-83306467D01*
X133057410Y-83298000D01*
X133092023Y-83306646D01*
X133146360Y-83328823D01*
X133209278Y-83358886D01*
X133269632Y-83391192D01*
X133316279Y-83420098D01*
X133338074Y-83439961D01*
X133338161Y-83440175D01*
X133336286Y-83476935D01*
X133319475Y-83512026D01*
X133289961Y-83540528D01*
X133246884Y-83550061D01*
X133210068Y-83548950D01*
X133157926Y-83548133D01*
X133130556Y-83560349D01*
X133114118Y-83592624D01*
X133112045Y-83598710D01*
X133104919Y-83644739D01*
X133123976Y-83672687D01*
X133173647Y-83686007D01*
X133227303Y-83688470D01*
X133323858Y-83670210D01*
X133373841Y-83644131D01*
X133435571Y-83582868D01*
X133468310Y-83507670D01*
X133471247Y-83428211D01*
X133443576Y-83354167D01*
X133401953Y-83307769D01*
X133360396Y-83281793D01*
X133295078Y-83248907D01*
X133218962Y-83215557D01*
X133206274Y-83210461D01*
X133122667Y-83173565D01*
X133074470Y-83141046D01*
X133058970Y-83108718D01*
X133073450Y-83072394D01*
X133098308Y-83044000D01*
X133157061Y-83009039D01*
X133221707Y-83006417D01*
X133280992Y-83033358D01*
X133323661Y-83087088D01*
X133329261Y-83100950D01*
X133361867Y-83151936D01*
X133409470Y-83189787D01*
X133469539Y-83220850D01*
X133469539Y-83132768D01*
X133466003Y-83078951D01*
X133450844Y-83036534D01*
X133417232Y-82991279D01*
X133384965Y-82956420D01*
X133334791Y-82907062D01*
X133295807Y-82880547D01*
X133253936Y-82869911D01*
X133206540Y-82868154D01*
X133102667Y-82883528D01*
X133102667Y-82883528D01*
G37*
X133102667Y-82883528D02*
X133046410Y-82909117D01*
X133002253Y-82940124D01*
X132969899Y-82974795D01*
X132947562Y-83019520D01*
X132933454Y-83080692D01*
X132925789Y-83164701D01*
X132922780Y-83277940D01*
X132922462Y-83352509D01*
X132922462Y-83643420D01*
X132972227Y-83666095D01*
X133011424Y-83682667D01*
X133030843Y-83688769D01*
X133034558Y-83670610D01*
X133037505Y-83621648D01*
X133039309Y-83550153D01*
X133039692Y-83493385D01*
X133041339Y-83411371D01*
X133045778Y-83346309D01*
X133052260Y-83306467D01*
X133057410Y-83298000D01*
X133092023Y-83306646D01*
X133146360Y-83328823D01*
X133209278Y-83358886D01*
X133269632Y-83391192D01*
X133316279Y-83420098D01*
X133338074Y-83439961D01*
X133338161Y-83440175D01*
X133336286Y-83476935D01*
X133319475Y-83512026D01*
X133289961Y-83540528D01*
X133246884Y-83550061D01*
X133210068Y-83548950D01*
X133157926Y-83548133D01*
X133130556Y-83560349D01*
X133114118Y-83592624D01*
X133112045Y-83598710D01*
X133104919Y-83644739D01*
X133123976Y-83672687D01*
X133173647Y-83686007D01*
X133227303Y-83688470D01*
X133323858Y-83670210D01*
X133373841Y-83644131D01*
X133435571Y-83582868D01*
X133468310Y-83507670D01*
X133471247Y-83428211D01*
X133443576Y-83354167D01*
X133401953Y-83307769D01*
X133360396Y-83281793D01*
X133295078Y-83248907D01*
X133218962Y-83215557D01*
X133206274Y-83210461D01*
X133122667Y-83173565D01*
X133074470Y-83141046D01*
X133058970Y-83108718D01*
X133073450Y-83072394D01*
X133098308Y-83044000D01*
X133157061Y-83009039D01*
X133221707Y-83006417D01*
X133280992Y-83033358D01*
X133323661Y-83087088D01*
X133329261Y-83100950D01*
X133361867Y-83151936D01*
X133409470Y-83189787D01*
X133469539Y-83220850D01*
X133469539Y-83132768D01*
X133466003Y-83078951D01*
X133450844Y-83036534D01*
X133417232Y-82991279D01*
X133384965Y-82956420D01*
X133334791Y-82907062D01*
X133295807Y-82880547D01*
X133253936Y-82869911D01*
X133206540Y-82868154D01*
X133102667Y-82883528D01*
G36*
X133594071Y-82886662D02*
X133591089Y-82938068D01*
X133588753Y-83016192D01*
X133587251Y-83114857D01*
X133586769Y-83218343D01*
X133586769Y-83568533D01*
X133648599Y-83630363D01*
X133691207Y-83668462D01*
X133728610Y-83683895D01*
X133779730Y-83682918D01*
X133800022Y-83680433D01*
X133863446Y-83673200D01*
X133915905Y-83669055D01*
X133928692Y-83668672D01*
X133971801Y-83671176D01*
X134033456Y-83677462D01*
X134057362Y-83680433D01*
X134116078Y-83685028D01*
X134155536Y-83675046D01*
X134194662Y-83644228D01*
X134208785Y-83630363D01*
X134270615Y-83568533D01*
X134270615Y-82913503D01*
X134220850Y-82890829D01*
X134177998Y-82874034D01*
X134152927Y-82868154D01*
X134146499Y-82886736D01*
X134140491Y-82938655D01*
X134135303Y-83018172D01*
X134131336Y-83119546D01*
X134129423Y-83205192D01*
X134124077Y-83542231D01*
X134077440Y-83548825D01*
X134035024Y-83544214D01*
X134014240Y-83529287D01*
X134008430Y-83501377D01*
X134003470Y-83441925D01*
X133999754Y-83358466D01*
X133997676Y-83258532D01*
X133997376Y-83207104D01*
X133997077Y-82911054D01*
X133935546Y-82889604D01*
X133891996Y-82875020D01*
X133868306Y-82868219D01*
X133867623Y-82868154D01*
X133865246Y-82886642D01*
X133862634Y-82937906D01*
X133860005Y-83015649D01*
X133857579Y-83113574D01*
X133855885Y-83205192D01*
X133850539Y-83542231D01*
X133733308Y-83542231D01*
X133727928Y-83234746D01*
X133722549Y-82927261D01*
X133665399Y-82897707D01*
X133623203Y-82877413D01*
X133598230Y-82868204D01*
X133597509Y-82868154D01*
X133594071Y-82886662D01*
X133594071Y-82886662D01*
G37*
X133594071Y-82886662D02*
X133591089Y-82938068D01*
X133588753Y-83016192D01*
X133587251Y-83114857D01*
X133586769Y-83218343D01*
X133586769Y-83568533D01*
X133648599Y-83630363D01*
X133691207Y-83668462D01*
X133728610Y-83683895D01*
X133779730Y-83682918D01*
X133800022Y-83680433D01*
X133863446Y-83673200D01*
X133915905Y-83669055D01*
X133928692Y-83668672D01*
X133971801Y-83671176D01*
X134033456Y-83677462D01*
X134057362Y-83680433D01*
X134116078Y-83685028D01*
X134155536Y-83675046D01*
X134194662Y-83644228D01*
X134208785Y-83630363D01*
X134270615Y-83568533D01*
X134270615Y-82913503D01*
X134220850Y-82890829D01*
X134177998Y-82874034D01*
X134152927Y-82868154D01*
X134146499Y-82886736D01*
X134140491Y-82938655D01*
X134135303Y-83018172D01*
X134131336Y-83119546D01*
X134129423Y-83205192D01*
X134124077Y-83542231D01*
X134077440Y-83548825D01*
X134035024Y-83544214D01*
X134014240Y-83529287D01*
X134008430Y-83501377D01*
X134003470Y-83441925D01*
X133999754Y-83358466D01*
X133997676Y-83258532D01*
X133997376Y-83207104D01*
X133997077Y-82911054D01*
X133935546Y-82889604D01*
X133891996Y-82875020D01*
X133868306Y-82868219D01*
X133867623Y-82868154D01*
X133865246Y-82886642D01*
X133862634Y-82937906D01*
X133860005Y-83015649D01*
X133857579Y-83113574D01*
X133855885Y-83205192D01*
X133850539Y-83542231D01*
X133733308Y-83542231D01*
X133727928Y-83234746D01*
X133722549Y-82927261D01*
X133665399Y-82897707D01*
X133623203Y-82877413D01*
X133598230Y-82868204D01*
X133597509Y-82868154D01*
X133594071Y-82886662D01*
G36*
X134387919Y-83030289D02*
X134388167Y-83176320D01*
X134389128Y-83288655D01*
X134391206Y-83372678D01*
X134394807Y-83433769D01*
X134400335Y-83477309D01*
X134408196Y-83508679D01*
X134418793Y-83533262D01*
X134426818Y-83547294D01*
X134493272Y-83623388D01*
X134577530Y-83671084D01*
X134670751Y-83688199D01*
X134764100Y-83672546D01*
X134819688Y-83644418D01*
X134878043Y-83595760D01*
X134917814Y-83536333D01*
X134941810Y-83458507D01*
X134952839Y-83354652D01*
X134954401Y-83278462D01*
X134954191Y-83272986D01*
X134817692Y-83272986D01*
X134816859Y-83360355D01*
X134813039Y-83418192D01*
X134804254Y-83456029D01*
X134788526Y-83483398D01*
X134769734Y-83504042D01*
X134706625Y-83543890D01*
X134638863Y-83547295D01*
X134574821Y-83514025D01*
X134569836Y-83509517D01*
X134548561Y-83486067D01*
X134535221Y-83458166D01*
X134527999Y-83416641D01*
X134525077Y-83352316D01*
X134524615Y-83281200D01*
X134525617Y-83191858D01*
X134529762Y-83132258D01*
X134538764Y-83093089D01*
X134554333Y-83065040D01*
X134567098Y-83050144D01*
X134626400Y-83012575D01*
X134694699Y-83008057D01*
X134759890Y-83036753D01*
X134772472Y-83047406D01*
X134793889Y-83071063D01*
X134807256Y-83099251D01*
X134814434Y-83141245D01*
X134817281Y-83206319D01*
X134817692Y-83272986D01*
X134954191Y-83272986D01*
X134949678Y-83155765D01*
X134933638Y-83063577D01*
X134903472Y-82994269D01*
X134856371Y-82940211D01*
X134819688Y-82912505D01*
X134753010Y-82882572D01*
X134675728Y-82868678D01*
X134603890Y-82872397D01*
X134563692Y-82887400D01*
X134547918Y-82891670D01*
X134537450Y-82875750D01*
X134530144Y-82833089D01*
X134524615Y-82768106D01*
X134518563Y-82695732D01*
X134510156Y-82652187D01*
X134494859Y-82627287D01*
X134468136Y-82610845D01*
X134451346Y-82603564D01*
X134387846Y-82576963D01*
X134387919Y-83030289D01*
X134387919Y-83030289D01*
G37*
X134387919Y-83030289D02*
X134388167Y-83176320D01*
X134389128Y-83288655D01*
X134391206Y-83372678D01*
X134394807Y-83433769D01*
X134400335Y-83477309D01*
X134408196Y-83508679D01*
X134418793Y-83533262D01*
X134426818Y-83547294D01*
X134493272Y-83623388D01*
X134577530Y-83671084D01*
X134670751Y-83688199D01*
X134764100Y-83672546D01*
X134819688Y-83644418D01*
X134878043Y-83595760D01*
X134917814Y-83536333D01*
X134941810Y-83458507D01*
X134952839Y-83354652D01*
X134954401Y-83278462D01*
X134954191Y-83272986D01*
X134817692Y-83272986D01*
X134816859Y-83360355D01*
X134813039Y-83418192D01*
X134804254Y-83456029D01*
X134788526Y-83483398D01*
X134769734Y-83504042D01*
X134706625Y-83543890D01*
X134638863Y-83547295D01*
X134574821Y-83514025D01*
X134569836Y-83509517D01*
X134548561Y-83486067D01*
X134535221Y-83458166D01*
X134527999Y-83416641D01*
X134525077Y-83352316D01*
X134524615Y-83281200D01*
X134525617Y-83191858D01*
X134529762Y-83132258D01*
X134538764Y-83093089D01*
X134554333Y-83065040D01*
X134567098Y-83050144D01*
X134626400Y-83012575D01*
X134694699Y-83008057D01*
X134759890Y-83036753D01*
X134772472Y-83047406D01*
X134793889Y-83071063D01*
X134807256Y-83099251D01*
X134814434Y-83141245D01*
X134817281Y-83206319D01*
X134817692Y-83272986D01*
X134954191Y-83272986D01*
X134949678Y-83155765D01*
X134933638Y-83063577D01*
X134903472Y-82994269D01*
X134856371Y-82940211D01*
X134819688Y-82912505D01*
X134753010Y-82882572D01*
X134675728Y-82868678D01*
X134603890Y-82872397D01*
X134563692Y-82887400D01*
X134547918Y-82891670D01*
X134537450Y-82875750D01*
X134530144Y-82833089D01*
X134524615Y-82768106D01*
X134518563Y-82695732D01*
X134510156Y-82652187D01*
X134494859Y-82627287D01*
X134468136Y-82610845D01*
X134451346Y-82603564D01*
X134387846Y-82576963D01*
X134387919Y-83030289D01*
G36*
X135276638Y-82874670D02*
X135187883Y-82907421D01*
X135115978Y-82965350D01*
X135087856Y-83006128D01*
X135057198Y-83080954D01*
X135057835Y-83135058D01*
X135090013Y-83171446D01*
X135101919Y-83177633D01*
X135153325Y-83196925D01*
X135179578Y-83191982D01*
X135188470Y-83159587D01*
X135188923Y-83141692D01*
X135205203Y-83075859D01*
X135247635Y-83029807D01*
X135306612Y-83007564D01*
X135372525Y-83013161D01*
X135426105Y-83042229D01*
X135444202Y-83058810D01*
X135457029Y-83078925D01*
X135465694Y-83109332D01*
X135471304Y-83156788D01*
X135474965Y-83228050D01*
X135477785Y-83329875D01*
X135478516Y-83362115D01*
X135481180Y-83472410D01*
X135484208Y-83550036D01*
X135488750Y-83601396D01*
X135495954Y-83632890D01*
X135506967Y-83650920D01*
X135522940Y-83661888D01*
X135533166Y-83666733D01*
X135576594Y-83683301D01*
X135602158Y-83688769D01*
X135610605Y-83670507D01*
X135615761Y-83615296D01*
X135617654Y-83522499D01*
X135616311Y-83391478D01*
X135615893Y-83371269D01*
X135612942Y-83251733D01*
X135609452Y-83164449D01*
X135604486Y-83102591D01*
X135597107Y-83059336D01*
X135586376Y-83027860D01*
X135571355Y-83001339D01*
X135563498Y-82989975D01*
X135518447Y-82939692D01*
X135468060Y-82900581D01*
X135461892Y-82897167D01*
X135371542Y-82870212D01*
X135276638Y-82874670D01*
X135276638Y-82874670D01*
G37*
X135276638Y-82874670D02*
X135187883Y-82907421D01*
X135115978Y-82965350D01*
X135087856Y-83006128D01*
X135057198Y-83080954D01*
X135057835Y-83135058D01*
X135090013Y-83171446D01*
X135101919Y-83177633D01*
X135153325Y-83196925D01*
X135179578Y-83191982D01*
X135188470Y-83159587D01*
X135188923Y-83141692D01*
X135205203Y-83075859D01*
X135247635Y-83029807D01*
X135306612Y-83007564D01*
X135372525Y-83013161D01*
X135426105Y-83042229D01*
X135444202Y-83058810D01*
X135457029Y-83078925D01*
X135465694Y-83109332D01*
X135471304Y-83156788D01*
X135474965Y-83228050D01*
X135477785Y-83329875D01*
X135478516Y-83362115D01*
X135481180Y-83472410D01*
X135484208Y-83550036D01*
X135488750Y-83601396D01*
X135495954Y-83632890D01*
X135506967Y-83650920D01*
X135522940Y-83661888D01*
X135533166Y-83666733D01*
X135576594Y-83683301D01*
X135602158Y-83688769D01*
X135610605Y-83670507D01*
X135615761Y-83615296D01*
X135617654Y-83522499D01*
X135616311Y-83391478D01*
X135615893Y-83371269D01*
X135612942Y-83251733D01*
X135609452Y-83164449D01*
X135604486Y-83102591D01*
X135597107Y-83059336D01*
X135586376Y-83027860D01*
X135571355Y-83001339D01*
X135563498Y-82989975D01*
X135518447Y-82939692D01*
X135468060Y-82900581D01*
X135461892Y-82897167D01*
X135371542Y-82870212D01*
X135276638Y-82874670D01*
G36*
X135936499Y-82876303D02*
X135859940Y-82904733D01*
X135859064Y-82905279D01*
X135811715Y-82940127D01*
X135776759Y-82980852D01*
X135752175Y-83033925D01*
X135735938Y-83105814D01*
X135726025Y-83202992D01*
X135720414Y-83331928D01*
X135719923Y-83350298D01*
X135712859Y-83627287D01*
X135772305Y-83658028D01*
X135815319Y-83678802D01*
X135841290Y-83688646D01*
X135842491Y-83688769D01*
X135846986Y-83670606D01*
X135850556Y-83621612D01*
X135852752Y-83550031D01*
X135853231Y-83492068D01*
X135853242Y-83398170D01*
X135857534Y-83339203D01*
X135872497Y-83311079D01*
X135904518Y-83309706D01*
X135959986Y-83330998D01*
X136043731Y-83370136D01*
X136105311Y-83402643D01*
X136136983Y-83430845D01*
X136146294Y-83461582D01*
X136146308Y-83463104D01*
X136130943Y-83516054D01*
X136085453Y-83544660D01*
X136015834Y-83548803D01*
X135965687Y-83548084D01*
X135939246Y-83562527D01*
X135922757Y-83597218D01*
X135913267Y-83641416D01*
X135926943Y-83666493D01*
X135932093Y-83670082D01*
X135980575Y-83684496D01*
X136048469Y-83686537D01*
X136118388Y-83676983D01*
X136167932Y-83659522D01*
X136236430Y-83601364D01*
X136275366Y-83520408D01*
X136283077Y-83457160D01*
X136277193Y-83400111D01*
X136255899Y-83353542D01*
X136213735Y-83312181D01*
X136145241Y-83270755D01*
X136044956Y-83223993D01*
X136038846Y-83221350D01*
X135948510Y-83179617D01*
X135892765Y-83145391D01*
X135868871Y-83114635D01*
X135874087Y-83083311D01*
X135905672Y-83047383D01*
X135915117Y-83039116D01*
X135978383Y-83007058D01*
X136043936Y-83008407D01*
X136101028Y-83039838D01*
X136138907Y-83098024D01*
X136142426Y-83109446D01*
X136176700Y-83164837D01*
X136220191Y-83191518D01*
X136283077Y-83217960D01*
X136283077Y-83149548D01*
X136263948Y-83050110D01*
X136207169Y-82958902D01*
X136177622Y-82928389D01*
X136110458Y-82889228D01*
X136025044Y-82871500D01*
X135936499Y-82876303D01*
X135936499Y-82876303D01*
G37*
X135936499Y-82876303D02*
X135859940Y-82904733D01*
X135859064Y-82905279D01*
X135811715Y-82940127D01*
X135776759Y-82980852D01*
X135752175Y-83033925D01*
X135735938Y-83105814D01*
X135726025Y-83202992D01*
X135720414Y-83331928D01*
X135719923Y-83350298D01*
X135712859Y-83627287D01*
X135772305Y-83658028D01*
X135815319Y-83678802D01*
X135841290Y-83688646D01*
X135842491Y-83688769D01*
X135846986Y-83670606D01*
X135850556Y-83621612D01*
X135852752Y-83550031D01*
X135853231Y-83492068D01*
X135853242Y-83398170D01*
X135857534Y-83339203D01*
X135872497Y-83311079D01*
X135904518Y-83309706D01*
X135959986Y-83330998D01*
X136043731Y-83370136D01*
X136105311Y-83402643D01*
X136136983Y-83430845D01*
X136146294Y-83461582D01*
X136146308Y-83463104D01*
X136130943Y-83516054D01*
X136085453Y-83544660D01*
X136015834Y-83548803D01*
X135965687Y-83548084D01*
X135939246Y-83562527D01*
X135922757Y-83597218D01*
X135913267Y-83641416D01*
X135926943Y-83666493D01*
X135932093Y-83670082D01*
X135980575Y-83684496D01*
X136048469Y-83686537D01*
X136118388Y-83676983D01*
X136167932Y-83659522D01*
X136236430Y-83601364D01*
X136275366Y-83520408D01*
X136283077Y-83457160D01*
X136277193Y-83400111D01*
X136255899Y-83353542D01*
X136213735Y-83312181D01*
X136145241Y-83270755D01*
X136044956Y-83223993D01*
X136038846Y-83221350D01*
X135948510Y-83179617D01*
X135892765Y-83145391D01*
X135868871Y-83114635D01*
X135874087Y-83083311D01*
X135905672Y-83047383D01*
X135915117Y-83039116D01*
X135978383Y-83007058D01*
X136043936Y-83008407D01*
X136101028Y-83039838D01*
X136138907Y-83098024D01*
X136142426Y-83109446D01*
X136176700Y-83164837D01*
X136220191Y-83191518D01*
X136283077Y-83217960D01*
X136283077Y-83149548D01*
X136263948Y-83050110D01*
X136207169Y-82958902D01*
X136177622Y-82928389D01*
X136110458Y-82889228D01*
X136025044Y-82871500D01*
X135936499Y-82876303D01*
G36*
X136830154Y-82742120D02*
X136824428Y-82821980D01*
X136817851Y-82869039D01*
X136808738Y-82889566D01*
X136795402Y-82889829D01*
X136791077Y-82887378D01*
X136733556Y-82869636D01*
X136658732Y-82870672D01*
X136582661Y-82888910D01*
X136535082Y-82912505D01*
X136486298Y-82950198D01*
X136450636Y-82992855D01*
X136426155Y-83047057D01*
X136410913Y-83119384D01*
X136402970Y-83216419D01*
X136400384Y-83344742D01*
X136400338Y-83369358D01*
X136400308Y-83645870D01*
X136461839Y-83667320D01*
X136505541Y-83681912D01*
X136529518Y-83688706D01*
X136530223Y-83688769D01*
X136532585Y-83670345D01*
X136534594Y-83619526D01*
X136536099Y-83542993D01*
X136536947Y-83447430D01*
X136537077Y-83389329D01*
X136537349Y-83274771D01*
X136538748Y-83192667D01*
X136542151Y-83136393D01*
X136548433Y-83099326D01*
X136558471Y-83074844D01*
X136573139Y-83056325D01*
X136582298Y-83047406D01*
X136645211Y-83011466D01*
X136713864Y-83008775D01*
X136776152Y-83039170D01*
X136787671Y-83050144D01*
X136804567Y-83070779D01*
X136816286Y-83095256D01*
X136823767Y-83130647D01*
X136827946Y-83184026D01*
X136829763Y-83262466D01*
X136830154Y-83370617D01*
X136830154Y-83645870D01*
X136891685Y-83667320D01*
X136935387Y-83681912D01*
X136959364Y-83688706D01*
X136960070Y-83688769D01*
X136961874Y-83670069D01*
X136963500Y-83617322D01*
X136964883Y-83535557D01*
X136965958Y-83429805D01*
X136966660Y-83305094D01*
X136966923Y-83166455D01*
X136966923Y-82631806D01*
X136839923Y-82578236D01*
X136830154Y-82742120D01*
X136830154Y-82742120D01*
G37*
X136830154Y-82742120D02*
X136824428Y-82821980D01*
X136817851Y-82869039D01*
X136808738Y-82889566D01*
X136795402Y-82889829D01*
X136791077Y-82887378D01*
X136733556Y-82869636D01*
X136658732Y-82870672D01*
X136582661Y-82888910D01*
X136535082Y-82912505D01*
X136486298Y-82950198D01*
X136450636Y-82992855D01*
X136426155Y-83047057D01*
X136410913Y-83119384D01*
X136402970Y-83216419D01*
X136400384Y-83344742D01*
X136400338Y-83369358D01*
X136400308Y-83645870D01*
X136461839Y-83667320D01*
X136505541Y-83681912D01*
X136529518Y-83688706D01*
X136530223Y-83688769D01*
X136532585Y-83670345D01*
X136534594Y-83619526D01*
X136536099Y-83542993D01*
X136536947Y-83447430D01*
X136537077Y-83389329D01*
X136537349Y-83274771D01*
X136538748Y-83192667D01*
X136542151Y-83136393D01*
X136548433Y-83099326D01*
X136558471Y-83074844D01*
X136573139Y-83056325D01*
X136582298Y-83047406D01*
X136645211Y-83011466D01*
X136713864Y-83008775D01*
X136776152Y-83039170D01*
X136787671Y-83050144D01*
X136804567Y-83070779D01*
X136816286Y-83095256D01*
X136823767Y-83130647D01*
X136827946Y-83184026D01*
X136829763Y-83262466D01*
X136830154Y-83370617D01*
X136830154Y-83645870D01*
X136891685Y-83667320D01*
X136935387Y-83681912D01*
X136959364Y-83688706D01*
X136960070Y-83688769D01*
X136961874Y-83670069D01*
X136963500Y-83617322D01*
X136964883Y-83535557D01*
X136965958Y-83429805D01*
X136966660Y-83305094D01*
X136966923Y-83166455D01*
X136966923Y-82631806D01*
X136839923Y-82578236D01*
X136830154Y-82742120D01*
G36*
X138455746Y-82849745D02*
X138378714Y-82901567D01*
X138319184Y-82976412D01*
X138283622Y-83071654D01*
X138276429Y-83141756D01*
X138277246Y-83171009D01*
X138284086Y-83193407D01*
X138302888Y-83213474D01*
X138339592Y-83235733D01*
X138400138Y-83264709D01*
X138490466Y-83304927D01*
X138490923Y-83305129D01*
X138574067Y-83343210D01*
X138642247Y-83377025D01*
X138688495Y-83402933D01*
X138705842Y-83417295D01*
X138705846Y-83417411D01*
X138690557Y-83448685D01*
X138654804Y-83483157D01*
X138613758Y-83507990D01*
X138592963Y-83512923D01*
X138536230Y-83495862D01*
X138487373Y-83453133D01*
X138463535Y-83406155D01*
X138440603Y-83371522D01*
X138395682Y-83332081D01*
X138342877Y-83298009D01*
X138296290Y-83279480D01*
X138286548Y-83278462D01*
X138275582Y-83295215D01*
X138274921Y-83338039D01*
X138282980Y-83395781D01*
X138298173Y-83457289D01*
X138318914Y-83511409D01*
X138319962Y-83513510D01*
X138382379Y-83600660D01*
X138463274Y-83659939D01*
X138555144Y-83689034D01*
X138650487Y-83685634D01*
X138741802Y-83647428D01*
X138745862Y-83644741D01*
X138817694Y-83579642D01*
X138864927Y-83494705D01*
X138891066Y-83383021D01*
X138894574Y-83351643D01*
X138900787Y-83203536D01*
X138893339Y-83134468D01*
X138705846Y-83134468D01*
X138703410Y-83177552D01*
X138690086Y-83190126D01*
X138656868Y-83180719D01*
X138604506Y-83158483D01*
X138545976Y-83130610D01*
X138544521Y-83129872D01*
X138494911Y-83103777D01*
X138475000Y-83086363D01*
X138479910Y-83068107D01*
X138500584Y-83044120D01*
X138553181Y-83009406D01*
X138609823Y-83006856D01*
X138660631Y-83032119D01*
X138695724Y-83080847D01*
X138705846Y-83134468D01*
X138893339Y-83134468D01*
X138888008Y-83085036D01*
X138855222Y-82991055D01*
X138809579Y-82925215D01*
X138727198Y-82858681D01*
X138636454Y-82825676D01*
X138543815Y-82823573D01*
X138455746Y-82849745D01*
X138455746Y-82849745D01*
G37*
X138455746Y-82849745D02*
X138378714Y-82901567D01*
X138319184Y-82976412D01*
X138283622Y-83071654D01*
X138276429Y-83141756D01*
X138277246Y-83171009D01*
X138284086Y-83193407D01*
X138302888Y-83213474D01*
X138339592Y-83235733D01*
X138400138Y-83264709D01*
X138490466Y-83304927D01*
X138490923Y-83305129D01*
X138574067Y-83343210D01*
X138642247Y-83377025D01*
X138688495Y-83402933D01*
X138705842Y-83417295D01*
X138705846Y-83417411D01*
X138690557Y-83448685D01*
X138654804Y-83483157D01*
X138613758Y-83507990D01*
X138592963Y-83512923D01*
X138536230Y-83495862D01*
X138487373Y-83453133D01*
X138463535Y-83406155D01*
X138440603Y-83371522D01*
X138395682Y-83332081D01*
X138342877Y-83298009D01*
X138296290Y-83279480D01*
X138286548Y-83278462D01*
X138275582Y-83295215D01*
X138274921Y-83338039D01*
X138282980Y-83395781D01*
X138298173Y-83457289D01*
X138318914Y-83511409D01*
X138319962Y-83513510D01*
X138382379Y-83600660D01*
X138463274Y-83659939D01*
X138555144Y-83689034D01*
X138650487Y-83685634D01*
X138741802Y-83647428D01*
X138745862Y-83644741D01*
X138817694Y-83579642D01*
X138864927Y-83494705D01*
X138891066Y-83383021D01*
X138894574Y-83351643D01*
X138900787Y-83203536D01*
X138893339Y-83134468D01*
X138705846Y-83134468D01*
X138703410Y-83177552D01*
X138690086Y-83190126D01*
X138656868Y-83180719D01*
X138604506Y-83158483D01*
X138545976Y-83130610D01*
X138544521Y-83129872D01*
X138494911Y-83103777D01*
X138475000Y-83086363D01*
X138479910Y-83068107D01*
X138500584Y-83044120D01*
X138553181Y-83009406D01*
X138609823Y-83006856D01*
X138660631Y-83032119D01*
X138695724Y-83080847D01*
X138705846Y-83134468D01*
X138893339Y-83134468D01*
X138888008Y-83085036D01*
X138855222Y-82991055D01*
X138809579Y-82925215D01*
X138727198Y-82858681D01*
X138636454Y-82825676D01*
X138543815Y-82823573D01*
X138455746Y-82849745D01*
G36*
X139973114Y-82837256D02*
X139881536Y-82885409D01*
X139813951Y-82962905D01*
X139789943Y-83012727D01*
X139771262Y-83087533D01*
X139761699Y-83182052D01*
X139760792Y-83285210D01*
X139768079Y-83385935D01*
X139783097Y-83473153D01*
X139805385Y-83535791D01*
X139812235Y-83546579D01*
X139893368Y-83627105D01*
X139989734Y-83675336D01*
X140094299Y-83689450D01*
X140200032Y-83667629D01*
X140229457Y-83654547D01*
X140286759Y-83614231D01*
X140337050Y-83560775D01*
X140341803Y-83553995D01*
X140361122Y-83521321D01*
X140373892Y-83486394D01*
X140381436Y-83440414D01*
X140385076Y-83374584D01*
X140386135Y-83280105D01*
X140386154Y-83258923D01*
X140386106Y-83252182D01*
X140190769Y-83252182D01*
X140189632Y-83341349D01*
X140185159Y-83400520D01*
X140175754Y-83438741D01*
X140159824Y-83465053D01*
X140151692Y-83473846D01*
X140104942Y-83507261D01*
X140059553Y-83505737D01*
X140013660Y-83476752D01*
X139986288Y-83445809D01*
X139970077Y-83400643D01*
X139960974Y-83329420D01*
X139960349Y-83321114D01*
X139958796Y-83192037D01*
X139975035Y-83096172D01*
X140008848Y-83034107D01*
X140060016Y-83006432D01*
X140078280Y-83004923D01*
X140126240Y-83012513D01*
X140159047Y-83038808D01*
X140179105Y-83089095D01*
X140188822Y-83168664D01*
X140190769Y-83252182D01*
X140386106Y-83252182D01*
X140385426Y-83158249D01*
X140382371Y-83087906D01*
X140375678Y-83039163D01*
X140364040Y-83003288D01*
X140346147Y-82971548D01*
X140342192Y-82965648D01*
X140275733Y-82886104D01*
X140203315Y-82839929D01*
X140115151Y-82821599D01*
X140085213Y-82820703D01*
X139973114Y-82837256D01*
X139973114Y-82837256D01*
G37*
X139973114Y-82837256D02*
X139881536Y-82885409D01*
X139813951Y-82962905D01*
X139789943Y-83012727D01*
X139771262Y-83087533D01*
X139761699Y-83182052D01*
X139760792Y-83285210D01*
X139768079Y-83385935D01*
X139783097Y-83473153D01*
X139805385Y-83535791D01*
X139812235Y-83546579D01*
X139893368Y-83627105D01*
X139989734Y-83675336D01*
X140094299Y-83689450D01*
X140200032Y-83667629D01*
X140229457Y-83654547D01*
X140286759Y-83614231D01*
X140337050Y-83560775D01*
X140341803Y-83553995D01*
X140361122Y-83521321D01*
X140373892Y-83486394D01*
X140381436Y-83440414D01*
X140385076Y-83374584D01*
X140386135Y-83280105D01*
X140386154Y-83258923D01*
X140386106Y-83252182D01*
X140190769Y-83252182D01*
X140189632Y-83341349D01*
X140185159Y-83400520D01*
X140175754Y-83438741D01*
X140159824Y-83465053D01*
X140151692Y-83473846D01*
X140104942Y-83507261D01*
X140059553Y-83505737D01*
X140013660Y-83476752D01*
X139986288Y-83445809D01*
X139970077Y-83400643D01*
X139960974Y-83329420D01*
X139960349Y-83321114D01*
X139958796Y-83192037D01*
X139975035Y-83096172D01*
X140008848Y-83034107D01*
X140060016Y-83006432D01*
X140078280Y-83004923D01*
X140126240Y-83012513D01*
X140159047Y-83038808D01*
X140179105Y-83089095D01*
X140188822Y-83168664D01*
X140190769Y-83252182D01*
X140386106Y-83252182D01*
X140385426Y-83158249D01*
X140382371Y-83087906D01*
X140375678Y-83039163D01*
X140364040Y-83003288D01*
X140346147Y-82971548D01*
X140342192Y-82965648D01*
X140275733Y-82886104D01*
X140203315Y-82839929D01*
X140115151Y-82821599D01*
X140085213Y-82820703D01*
X139973114Y-82837256D01*
G36*
X137718336Y-82845089D02*
X137655633Y-82881358D01*
X137612039Y-82917358D01*
X137580155Y-82955075D01*
X137558190Y-83001199D01*
X137544351Y-83062421D01*
X137536847Y-83145431D01*
X137533883Y-83256919D01*
X137533539Y-83337062D01*
X137533539Y-83632065D01*
X137699615Y-83706515D01*
X137709385Y-83383402D01*
X137713421Y-83262729D01*
X137717656Y-83175141D01*
X137722903Y-83114650D01*
X137729975Y-83075268D01*
X137739689Y-83051007D01*
X137752856Y-83035880D01*
X137757081Y-83032606D01*
X137821091Y-83007034D01*
X137885792Y-83017153D01*
X137924308Y-83044000D01*
X137939975Y-83063024D01*
X137950820Y-83087988D01*
X137957712Y-83125834D01*
X137961521Y-83183502D01*
X137963117Y-83267935D01*
X137963385Y-83355928D01*
X137963437Y-83466323D01*
X137965328Y-83544463D01*
X137971655Y-83597165D01*
X137985017Y-83631242D01*
X138008015Y-83653511D01*
X138043246Y-83670787D01*
X138090303Y-83688738D01*
X138141697Y-83708278D01*
X138135579Y-83361485D01*
X138133116Y-83236468D01*
X138130233Y-83144082D01*
X138126102Y-83077881D01*
X138119893Y-83031420D01*
X138110774Y-82998256D01*
X138097917Y-82971944D01*
X138082416Y-82948729D01*
X138007629Y-82874569D01*
X137916372Y-82831684D01*
X137817117Y-82821412D01*
X137718336Y-82845089D01*
X137718336Y-82845089D01*
G37*
X137718336Y-82845089D02*
X137655633Y-82881358D01*
X137612039Y-82917358D01*
X137580155Y-82955075D01*
X137558190Y-83001199D01*
X137544351Y-83062421D01*
X137536847Y-83145431D01*
X137533883Y-83256919D01*
X137533539Y-83337062D01*
X137533539Y-83632065D01*
X137699615Y-83706515D01*
X137709385Y-83383402D01*
X137713421Y-83262729D01*
X137717656Y-83175141D01*
X137722903Y-83114650D01*
X137729975Y-83075268D01*
X137739689Y-83051007D01*
X137752856Y-83035880D01*
X137757081Y-83032606D01*
X137821091Y-83007034D01*
X137885792Y-83017153D01*
X137924308Y-83044000D01*
X137939975Y-83063024D01*
X137950820Y-83087988D01*
X137957712Y-83125834D01*
X137961521Y-83183502D01*
X137963117Y-83267935D01*
X137963385Y-83355928D01*
X137963437Y-83466323D01*
X137965328Y-83544463D01*
X137971655Y-83597165D01*
X137985017Y-83631242D01*
X138008015Y-83653511D01*
X138043246Y-83670787D01*
X138090303Y-83688738D01*
X138141697Y-83708278D01*
X138135579Y-83361485D01*
X138133116Y-83236468D01*
X138130233Y-83144082D01*
X138126102Y-83077881D01*
X138119893Y-83031420D01*
X138110774Y-82998256D01*
X138097917Y-82971944D01*
X138082416Y-82948729D01*
X138007629Y-82874569D01*
X137916372Y-82831684D01*
X137817117Y-82821412D01*
X137718336Y-82845089D01*
G36*
X139221114Y-82834505D02*
X139146461Y-82871727D01*
X139080569Y-82940261D01*
X139062423Y-82965648D01*
X139042655Y-82998866D01*
X139029828Y-83034945D01*
X139022490Y-83083098D01*
X139019187Y-83152536D01*
X139018462Y-83244206D01*
X139021737Y-83369830D01*
X139033123Y-83464154D01*
X139054959Y-83534523D01*
X139089581Y-83588286D01*
X139139330Y-83632788D01*
X139142986Y-83635423D01*
X139192015Y-83662377D01*
X139251055Y-83675712D01*
X139326141Y-83679000D01*
X139448205Y-83679000D01*
X139448256Y-83797497D01*
X139449392Y-83863492D01*
X139456314Y-83902202D01*
X139474402Y-83925419D01*
X139509038Y-83944933D01*
X139517355Y-83948920D01*
X139556280Y-83967603D01*
X139586417Y-83979403D01*
X139608826Y-83980422D01*
X139624567Y-83966761D01*
X139634698Y-83934522D01*
X139640277Y-83879804D01*
X139642365Y-83798711D01*
X139642019Y-83687344D01*
X139640300Y-83541802D01*
X139639763Y-83498269D01*
X139637828Y-83348205D01*
X139636096Y-83250042D01*
X139448308Y-83250042D01*
X139447252Y-83333364D01*
X139442562Y-83387880D01*
X139431949Y-83423837D01*
X139413128Y-83451482D01*
X139400350Y-83464965D01*
X139348110Y-83504417D01*
X139301858Y-83507628D01*
X139254133Y-83475049D01*
X139252923Y-83473846D01*
X139233506Y-83448668D01*
X139221693Y-83414447D01*
X139215735Y-83361748D01*
X139213880Y-83281131D01*
X139213846Y-83263271D01*
X139218330Y-83152175D01*
X139232926Y-83075161D01*
X139259350Y-83028147D01*
X139299317Y-83007050D01*
X139322416Y-83004923D01*
X139377238Y-83014900D01*
X139414842Y-83047752D01*
X139437477Y-83107857D01*
X139447394Y-83199598D01*
X139448308Y-83250042D01*
X139636096Y-83250042D01*
X139635778Y-83232060D01*
X139633127Y-83144679D01*
X139629394Y-83080905D01*
X139624093Y-83035582D01*
X139616742Y-83003555D01*
X139606857Y-82979668D01*
X139593954Y-82958764D01*
X139588421Y-82950898D01*
X139515031Y-82876595D01*
X139422240Y-82834467D01*
X139314904Y-82822722D01*
X139221114Y-82834505D01*
X139221114Y-82834505D01*
G37*
X139221114Y-82834505D02*
X139146461Y-82871727D01*
X139080569Y-82940261D01*
X139062423Y-82965648D01*
X139042655Y-82998866D01*
X139029828Y-83034945D01*
X139022490Y-83083098D01*
X139019187Y-83152536D01*
X139018462Y-83244206D01*
X139021737Y-83369830D01*
X139033123Y-83464154D01*
X139054959Y-83534523D01*
X139089581Y-83588286D01*
X139139330Y-83632788D01*
X139142986Y-83635423D01*
X139192015Y-83662377D01*
X139251055Y-83675712D01*
X139326141Y-83679000D01*
X139448205Y-83679000D01*
X139448256Y-83797497D01*
X139449392Y-83863492D01*
X139456314Y-83902202D01*
X139474402Y-83925419D01*
X139509038Y-83944933D01*
X139517355Y-83948920D01*
X139556280Y-83967603D01*
X139586417Y-83979403D01*
X139608826Y-83980422D01*
X139624567Y-83966761D01*
X139634698Y-83934522D01*
X139640277Y-83879804D01*
X139642365Y-83798711D01*
X139642019Y-83687344D01*
X139640300Y-83541802D01*
X139639763Y-83498269D01*
X139637828Y-83348205D01*
X139636096Y-83250042D01*
X139448308Y-83250042D01*
X139447252Y-83333364D01*
X139442562Y-83387880D01*
X139431949Y-83423837D01*
X139413128Y-83451482D01*
X139400350Y-83464965D01*
X139348110Y-83504417D01*
X139301858Y-83507628D01*
X139254133Y-83475049D01*
X139252923Y-83473846D01*
X139233506Y-83448668D01*
X139221693Y-83414447D01*
X139215735Y-83361748D01*
X139213880Y-83281131D01*
X139213846Y-83263271D01*
X139218330Y-83152175D01*
X139232926Y-83075161D01*
X139259350Y-83028147D01*
X139299317Y-83007050D01*
X139322416Y-83004923D01*
X139377238Y-83014900D01*
X139414842Y-83047752D01*
X139437477Y-83107857D01*
X139447394Y-83199598D01*
X139448308Y-83250042D01*
X139636096Y-83250042D01*
X139635778Y-83232060D01*
X139633127Y-83144679D01*
X139629394Y-83080905D01*
X139624093Y-83035582D01*
X139616742Y-83003555D01*
X139606857Y-82979668D01*
X139593954Y-82958764D01*
X139588421Y-82950898D01*
X139515031Y-82876595D01*
X139422240Y-82834467D01*
X139314904Y-82822722D01*
X139221114Y-82834505D01*
G04 #@! TO.C,JP2*
D10*
X144630000Y-91636190D02*
X144630000Y-91993333D01*
X144658571Y-92064761D01*
X144715714Y-92112380D01*
X144801428Y-92136190D01*
X144858571Y-92136190D01*
X144344285Y-92136190D02*
X144344285Y-91636190D01*
X144115714Y-91636190D01*
X144058571Y-91660000D01*
X144030000Y-91683809D01*
X144001428Y-91731428D01*
X144001428Y-91802857D01*
X144030000Y-91850476D01*
X144058571Y-91874285D01*
X144115714Y-91898095D01*
X144344285Y-91898095D01*
X143772857Y-91683809D02*
X143744285Y-91660000D01*
X143687142Y-91636190D01*
X143544285Y-91636190D01*
X143487142Y-91660000D01*
X143458571Y-91683809D01*
X143430000Y-91731428D01*
X143430000Y-91779047D01*
X143458571Y-91850476D01*
X143801428Y-92136190D01*
X143430000Y-92136190D01*
G04 #@! TO.C,JP3*
X144090000Y-79596190D02*
X144090000Y-79953333D01*
X144118571Y-80024761D01*
X144175714Y-80072380D01*
X144261428Y-80096190D01*
X144318571Y-80096190D01*
X143804285Y-80096190D02*
X143804285Y-79596190D01*
X143575714Y-79596190D01*
X143518571Y-79620000D01*
X143490000Y-79643809D01*
X143461428Y-79691428D01*
X143461428Y-79762857D01*
X143490000Y-79810476D01*
X143518571Y-79834285D01*
X143575714Y-79858095D01*
X143804285Y-79858095D01*
X143261428Y-79596190D02*
X142890000Y-79596190D01*
X143090000Y-79786666D01*
X143004285Y-79786666D01*
X142947142Y-79810476D01*
X142918571Y-79834285D01*
X142890000Y-79881904D01*
X142890000Y-80000952D01*
X142918571Y-80048571D01*
X142947142Y-80072380D01*
X143004285Y-80096190D01*
X143175714Y-80096190D01*
X143232857Y-80072380D01*
X143261428Y-80048571D01*
G04 #@! TO.C,JP4*
X140830000Y-87926190D02*
X140830000Y-88283333D01*
X140858571Y-88354761D01*
X140915714Y-88402380D01*
X141001428Y-88426190D01*
X141058571Y-88426190D01*
X140544285Y-88426190D02*
X140544285Y-87926190D01*
X140315714Y-87926190D01*
X140258571Y-87950000D01*
X140230000Y-87973809D01*
X140201428Y-88021428D01*
X140201428Y-88092857D01*
X140230000Y-88140476D01*
X140258571Y-88164285D01*
X140315714Y-88188095D01*
X140544285Y-88188095D01*
X139687142Y-88092857D02*
X139687142Y-88426190D01*
X139830000Y-87902380D02*
X139972857Y-88259523D01*
X139601428Y-88259523D01*
G04 #@! TO.C,JP5*
X141580000Y-101306190D02*
X141580000Y-101663333D01*
X141608571Y-101734761D01*
X141665714Y-101782380D01*
X141751428Y-101806190D01*
X141808571Y-101806190D01*
X141294285Y-101806190D02*
X141294285Y-101306190D01*
X141065714Y-101306190D01*
X141008571Y-101330000D01*
X140980000Y-101353809D01*
X140951428Y-101401428D01*
X140951428Y-101472857D01*
X140980000Y-101520476D01*
X141008571Y-101544285D01*
X141065714Y-101568095D01*
X141294285Y-101568095D01*
X140408571Y-101306190D02*
X140694285Y-101306190D01*
X140722857Y-101544285D01*
X140694285Y-101520476D01*
X140637142Y-101496666D01*
X140494285Y-101496666D01*
X140437142Y-101520476D01*
X140408571Y-101544285D01*
X140380000Y-101591904D01*
X140380000Y-101710952D01*
X140408571Y-101758571D01*
X140437142Y-101782380D01*
X140494285Y-101806190D01*
X140637142Y-101806190D01*
X140694285Y-101782380D01*
X140722857Y-101758571D01*
G04 #@! TD*
M02*
