G04 #@! TF.GenerationSoftware,KiCad,Pcbnew,(5.0.1-3-g963ef8bb5)*
G04 #@! TF.CreationDate,2019-02-28T22:02:17+01:00*
G04 #@! TF.ProjectId,TLM-breakout-v1,544C4D2D627265616B6F75742D76312E,1.0*
G04 #@! TF.SameCoordinates,Original*
G04 #@! TF.FileFunction,Soldermask,Top*
G04 #@! TF.FilePolarity,Negative*
%FSLAX46Y46*%
G04 Gerber Fmt 4.6, Leading zero omitted, Abs format (unit mm)*
G04 Created by KiCad (PCBNEW (5.0.1-3-g963ef8bb5)) date 2019 February 28, Thursday 22:02:17*
%MOMM*%
%LPD*%
G01*
G04 APERTURE LIST*
%ADD10C,0.100000*%
G04 APERTURE END LIST*
D10*
G36*
X139516000Y-119391000D02*
X137914000Y-119391000D01*
X137914000Y-114589000D01*
X139516000Y-114589000D01*
X139516000Y-119391000D01*
X139516000Y-119391000D01*
G37*
G36*
X133791000Y-119391000D02*
X132339000Y-119391000D01*
X132339000Y-114589000D01*
X133791000Y-114589000D01*
X133791000Y-119391000D01*
X133791000Y-119391000D01*
G37*
G36*
X136691000Y-119218000D02*
X135089000Y-119218000D01*
X135089000Y-114716000D01*
X136691000Y-114716000D01*
X136691000Y-119218000D01*
X136691000Y-119218000D01*
G37*
G36*
X145080250Y-115548843D02*
X145165322Y-115565765D01*
X145235735Y-115594931D01*
X145405728Y-115665344D01*
X145622092Y-115809914D01*
X145806086Y-115993908D01*
X145950656Y-116210272D01*
X146050235Y-116450679D01*
X146101000Y-116705891D01*
X146101000Y-116966109D01*
X146050235Y-117221321D01*
X145950656Y-117461728D01*
X145806086Y-117678092D01*
X145622092Y-117862086D01*
X145405728Y-118006656D01*
X145235735Y-118077069D01*
X145165322Y-118106235D01*
X145080250Y-118123157D01*
X144910109Y-118157000D01*
X144649891Y-118157000D01*
X144479750Y-118123157D01*
X144394678Y-118106235D01*
X144324265Y-118077069D01*
X144154272Y-118006656D01*
X143937908Y-117862086D01*
X143753914Y-117678092D01*
X143609344Y-117461728D01*
X143509765Y-117221321D01*
X143459000Y-116966109D01*
X143459000Y-116705891D01*
X143509765Y-116450679D01*
X143609344Y-116210272D01*
X143753914Y-115993908D01*
X143937908Y-115809914D01*
X144154272Y-115665344D01*
X144324265Y-115594931D01*
X144394678Y-115565765D01*
X144479750Y-115548843D01*
X144649891Y-115515000D01*
X144910109Y-115515000D01*
X145080250Y-115548843D01*
X145080250Y-115548843D01*
G37*
G36*
X127300250Y-115548843D02*
X127385322Y-115565765D01*
X127455735Y-115594931D01*
X127625728Y-115665344D01*
X127842092Y-115809914D01*
X128026086Y-115993908D01*
X128170656Y-116210272D01*
X128270235Y-116450679D01*
X128321000Y-116705891D01*
X128321000Y-116966109D01*
X128270235Y-117221321D01*
X128170656Y-117461728D01*
X128026086Y-117678092D01*
X127842092Y-117862086D01*
X127625728Y-118006656D01*
X127455735Y-118077069D01*
X127385322Y-118106235D01*
X127300250Y-118123157D01*
X127130109Y-118157000D01*
X126869891Y-118157000D01*
X126699750Y-118123157D01*
X126614678Y-118106235D01*
X126544265Y-118077069D01*
X126374272Y-118006656D01*
X126157908Y-117862086D01*
X125973914Y-117678092D01*
X125829344Y-117461728D01*
X125729765Y-117221321D01*
X125679000Y-116966109D01*
X125679000Y-116705891D01*
X125729765Y-116450679D01*
X125829344Y-116210272D01*
X125973914Y-115993908D01*
X126157908Y-115809914D01*
X126374272Y-115665344D01*
X126544265Y-115594931D01*
X126614678Y-115565765D01*
X126699750Y-115548843D01*
X126869891Y-115515000D01*
X127130109Y-115515000D01*
X127300250Y-115548843D01*
X127300250Y-115548843D01*
G37*
G36*
X144247000Y-114065000D02*
X141945000Y-114065000D01*
X141945000Y-112913000D01*
X144247000Y-112913000D01*
X144247000Y-114065000D01*
X144247000Y-114065000D01*
G37*
G36*
X146160443Y-112131519D02*
X146226627Y-112138037D01*
X146339853Y-112172384D01*
X146396467Y-112189557D01*
X146492634Y-112240960D01*
X146552991Y-112273222D01*
X146572406Y-112289156D01*
X146690186Y-112385814D01*
X146773448Y-112487271D01*
X146802778Y-112523009D01*
X146802779Y-112523011D01*
X146886443Y-112679533D01*
X146888487Y-112686271D01*
X146937963Y-112849373D01*
X146955359Y-113026000D01*
X146937963Y-113202627D01*
X146910000Y-113294808D01*
X146886443Y-113372467D01*
X146812348Y-113511087D01*
X146802778Y-113528991D01*
X146773448Y-113564729D01*
X146690186Y-113666186D01*
X146588729Y-113749448D01*
X146552991Y-113778778D01*
X146552989Y-113778779D01*
X146396467Y-113862443D01*
X146339853Y-113879616D01*
X146226627Y-113913963D01*
X146160443Y-113920481D01*
X146094260Y-113927000D01*
X146005740Y-113927000D01*
X145939557Y-113920481D01*
X145873373Y-113913963D01*
X145760147Y-113879616D01*
X145703533Y-113862443D01*
X145547011Y-113778779D01*
X145547009Y-113778778D01*
X145511271Y-113749448D01*
X145409814Y-113666186D01*
X145326552Y-113564729D01*
X145297222Y-113528991D01*
X145287652Y-113511087D01*
X145213557Y-113372467D01*
X145190000Y-113294808D01*
X145162037Y-113202627D01*
X145144641Y-113026000D01*
X145162037Y-112849373D01*
X145211513Y-112686271D01*
X145213557Y-112679533D01*
X145297221Y-112523011D01*
X145297222Y-112523009D01*
X145326552Y-112487271D01*
X145409814Y-112385814D01*
X145527594Y-112289156D01*
X145547009Y-112273222D01*
X145607366Y-112240960D01*
X145703533Y-112189557D01*
X145760147Y-112172384D01*
X145873373Y-112138037D01*
X145939557Y-112131519D01*
X146005740Y-112125000D01*
X146094260Y-112125000D01*
X146160443Y-112131519D01*
X146160443Y-112131519D01*
G37*
G36*
X125840443Y-112131519D02*
X125906627Y-112138037D01*
X126019853Y-112172384D01*
X126076467Y-112189557D01*
X126172634Y-112240960D01*
X126232991Y-112273222D01*
X126252406Y-112289156D01*
X126370186Y-112385814D01*
X126453448Y-112487271D01*
X126482778Y-112523009D01*
X126482779Y-112523011D01*
X126566443Y-112679533D01*
X126568487Y-112686271D01*
X126617963Y-112849373D01*
X126635359Y-113026000D01*
X126617963Y-113202627D01*
X126590000Y-113294808D01*
X126566443Y-113372467D01*
X126492348Y-113511087D01*
X126482778Y-113528991D01*
X126453448Y-113564729D01*
X126370186Y-113666186D01*
X126268729Y-113749448D01*
X126232991Y-113778778D01*
X126232989Y-113778779D01*
X126076467Y-113862443D01*
X126019853Y-113879616D01*
X125906627Y-113913963D01*
X125840443Y-113920481D01*
X125774260Y-113927000D01*
X125685740Y-113927000D01*
X125619557Y-113920481D01*
X125553373Y-113913963D01*
X125440147Y-113879616D01*
X125383533Y-113862443D01*
X125227011Y-113778779D01*
X125227009Y-113778778D01*
X125191271Y-113749448D01*
X125089814Y-113666186D01*
X125006552Y-113564729D01*
X124977222Y-113528991D01*
X124967652Y-113511087D01*
X124893557Y-113372467D01*
X124870000Y-113294808D01*
X124842037Y-113202627D01*
X124824641Y-113026000D01*
X124842037Y-112849373D01*
X124891513Y-112686271D01*
X124893557Y-112679533D01*
X124977221Y-112523011D01*
X124977222Y-112523009D01*
X125006552Y-112487271D01*
X125089814Y-112385814D01*
X125207594Y-112289156D01*
X125227009Y-112273222D01*
X125287366Y-112240960D01*
X125383533Y-112189557D01*
X125440147Y-112172384D01*
X125553373Y-112138037D01*
X125619557Y-112131519D01*
X125685740Y-112125000D01*
X125774260Y-112125000D01*
X125840443Y-112131519D01*
X125840443Y-112131519D01*
G37*
G36*
X136171938Y-112638316D02*
X136192556Y-112644570D01*
X136211556Y-112654726D01*
X136228208Y-112668392D01*
X136241874Y-112685044D01*
X136252030Y-112704044D01*
X136258284Y-112724662D01*
X136261000Y-112752240D01*
X136261000Y-113210960D01*
X136258284Y-113238538D01*
X136252030Y-113259156D01*
X136241874Y-113278156D01*
X136228208Y-113294808D01*
X136211556Y-113308474D01*
X136192556Y-113318630D01*
X136171938Y-113324884D01*
X136144360Y-113327600D01*
X135635640Y-113327600D01*
X135608062Y-113324884D01*
X135587444Y-113318630D01*
X135568444Y-113308474D01*
X135551792Y-113294808D01*
X135538126Y-113278156D01*
X135527970Y-113259156D01*
X135521716Y-113238538D01*
X135519000Y-113210960D01*
X135519000Y-112752240D01*
X135521716Y-112724662D01*
X135527970Y-112704044D01*
X135538126Y-112685044D01*
X135551792Y-112668392D01*
X135568444Y-112654726D01*
X135587444Y-112644570D01*
X135608062Y-112638316D01*
X135635640Y-112635600D01*
X136144360Y-112635600D01*
X136171938Y-112638316D01*
X136171938Y-112638316D01*
G37*
G36*
X142147000Y-112565000D02*
X140995000Y-112565000D01*
X140995000Y-111463000D01*
X142147000Y-111463000D01*
X142147000Y-112565000D01*
X142147000Y-112565000D01*
G37*
G36*
X140289538Y-111645716D02*
X140310156Y-111651970D01*
X140329156Y-111662126D01*
X140345808Y-111675792D01*
X140359474Y-111692444D01*
X140369630Y-111711444D01*
X140375884Y-111732062D01*
X140378600Y-111759640D01*
X140378600Y-112268360D01*
X140375884Y-112295938D01*
X140369630Y-112316556D01*
X140359474Y-112335556D01*
X140345808Y-112352208D01*
X140329156Y-112365874D01*
X140310156Y-112376030D01*
X140289538Y-112382284D01*
X140261960Y-112385000D01*
X139803240Y-112385000D01*
X139775662Y-112382284D01*
X139755044Y-112376030D01*
X139736044Y-112365874D01*
X139719392Y-112352208D01*
X139705726Y-112335556D01*
X139695570Y-112316556D01*
X139689316Y-112295938D01*
X139686600Y-112268360D01*
X139686600Y-111759640D01*
X139689316Y-111732062D01*
X139695570Y-111711444D01*
X139705726Y-111692444D01*
X139719392Y-111675792D01*
X139736044Y-111662126D01*
X139755044Y-111651970D01*
X139775662Y-111645716D01*
X139803240Y-111643000D01*
X140261960Y-111643000D01*
X140289538Y-111645716D01*
X140289538Y-111645716D01*
G37*
G36*
X139319538Y-111645716D02*
X139340156Y-111651970D01*
X139359156Y-111662126D01*
X139375808Y-111675792D01*
X139389474Y-111692444D01*
X139399630Y-111711444D01*
X139405884Y-111732062D01*
X139408600Y-111759640D01*
X139408600Y-112268360D01*
X139405884Y-112295938D01*
X139399630Y-112316556D01*
X139389474Y-112335556D01*
X139375808Y-112352208D01*
X139359156Y-112365874D01*
X139340156Y-112376030D01*
X139319538Y-112382284D01*
X139291960Y-112385000D01*
X138833240Y-112385000D01*
X138805662Y-112382284D01*
X138785044Y-112376030D01*
X138766044Y-112365874D01*
X138749392Y-112352208D01*
X138735726Y-112335556D01*
X138725570Y-112316556D01*
X138719316Y-112295938D01*
X138716600Y-112268360D01*
X138716600Y-111759640D01*
X138719316Y-111732062D01*
X138725570Y-111711444D01*
X138735726Y-111692444D01*
X138749392Y-111675792D01*
X138766044Y-111662126D01*
X138785044Y-111651970D01*
X138805662Y-111645716D01*
X138833240Y-111643000D01*
X139291960Y-111643000D01*
X139319538Y-111645716D01*
X139319538Y-111645716D01*
G37*
G36*
X137114538Y-111645716D02*
X137135156Y-111651970D01*
X137154156Y-111662126D01*
X137170808Y-111675792D01*
X137184474Y-111692444D01*
X137194630Y-111711444D01*
X137200884Y-111732062D01*
X137203600Y-111759640D01*
X137203600Y-112268360D01*
X137200884Y-112295938D01*
X137194630Y-112316556D01*
X137184474Y-112335556D01*
X137170808Y-112352208D01*
X137154156Y-112365874D01*
X137135156Y-112376030D01*
X137114538Y-112382284D01*
X137086960Y-112385000D01*
X136628240Y-112385000D01*
X136600662Y-112382284D01*
X136580044Y-112376030D01*
X136561044Y-112365874D01*
X136544392Y-112352208D01*
X136530726Y-112335556D01*
X136520570Y-112316556D01*
X136514316Y-112295938D01*
X136511600Y-112268360D01*
X136511600Y-111759640D01*
X136514316Y-111732062D01*
X136520570Y-111711444D01*
X136530726Y-111692444D01*
X136544392Y-111675792D01*
X136561044Y-111662126D01*
X136580044Y-111651970D01*
X136600662Y-111645716D01*
X136628240Y-111643000D01*
X137086960Y-111643000D01*
X137114538Y-111645716D01*
X137114538Y-111645716D01*
G37*
G36*
X136144538Y-111645716D02*
X136165156Y-111651970D01*
X136184156Y-111662126D01*
X136209977Y-111683317D01*
X136210613Y-111683953D01*
X136228209Y-111698393D01*
X136241874Y-111715044D01*
X136252030Y-111734044D01*
X136258284Y-111754662D01*
X136261000Y-111782240D01*
X136261000Y-112240960D01*
X136258284Y-112268538D01*
X136252030Y-112289156D01*
X136241874Y-112308156D01*
X136228205Y-112324811D01*
X136222674Y-112329351D01*
X136205351Y-112346674D01*
X136200811Y-112352205D01*
X136184156Y-112365874D01*
X136165156Y-112376030D01*
X136144538Y-112382284D01*
X136116960Y-112385000D01*
X135658240Y-112385000D01*
X135630662Y-112382284D01*
X135610044Y-112376030D01*
X135591044Y-112365874D01*
X135574393Y-112352209D01*
X135559953Y-112334613D01*
X135559317Y-112333977D01*
X135538126Y-112308156D01*
X135527970Y-112289156D01*
X135521716Y-112268538D01*
X135519000Y-112240960D01*
X135519000Y-111782240D01*
X135521716Y-111754662D01*
X135527970Y-111734044D01*
X135538126Y-111715044D01*
X135551790Y-111698394D01*
X135554688Y-111696016D01*
X135572016Y-111678688D01*
X135574394Y-111675790D01*
X135591044Y-111662126D01*
X135610044Y-111651970D01*
X135630662Y-111645716D01*
X135658240Y-111643000D01*
X136116960Y-111643000D01*
X136144538Y-111645716D01*
X136144538Y-111645716D01*
G37*
G36*
X138356338Y-111673116D02*
X138376956Y-111679370D01*
X138395956Y-111689526D01*
X138412608Y-111703192D01*
X138426274Y-111719844D01*
X138436430Y-111738844D01*
X138442684Y-111759462D01*
X138445400Y-111787040D01*
X138445400Y-112245760D01*
X138442684Y-112273338D01*
X138436430Y-112293956D01*
X138426274Y-112312956D01*
X138412608Y-112329608D01*
X138395956Y-112343274D01*
X138376956Y-112353430D01*
X138356338Y-112359684D01*
X138328760Y-112362400D01*
X137820040Y-112362400D01*
X137792462Y-112359684D01*
X137771844Y-112353430D01*
X137752844Y-112343274D01*
X137736192Y-112329608D01*
X137722526Y-112312956D01*
X137712370Y-112293956D01*
X137706116Y-112273338D01*
X137703400Y-112245760D01*
X137703400Y-111787040D01*
X137706116Y-111759462D01*
X137712370Y-111738844D01*
X137722526Y-111719844D01*
X137736192Y-111703192D01*
X137752844Y-111689526D01*
X137771844Y-111679370D01*
X137792462Y-111673116D01*
X137820040Y-111670400D01*
X138328760Y-111670400D01*
X138356338Y-111673116D01*
X138356338Y-111673116D01*
G37*
G36*
X138356338Y-110703116D02*
X138376956Y-110709370D01*
X138395956Y-110719526D01*
X138412608Y-110733192D01*
X138426274Y-110749844D01*
X138436430Y-110768844D01*
X138442684Y-110789462D01*
X138445400Y-110817040D01*
X138445400Y-111275760D01*
X138442684Y-111303338D01*
X138436430Y-111323956D01*
X138426274Y-111342956D01*
X138412608Y-111359608D01*
X138395956Y-111373274D01*
X138376956Y-111383430D01*
X138356338Y-111389684D01*
X138328760Y-111392400D01*
X137820040Y-111392400D01*
X137792462Y-111389684D01*
X137771844Y-111383430D01*
X137752844Y-111373274D01*
X137736192Y-111359608D01*
X137722526Y-111342956D01*
X137712370Y-111323956D01*
X137706116Y-111303338D01*
X137703400Y-111275760D01*
X137703400Y-110817040D01*
X137706116Y-110789462D01*
X137712370Y-110768844D01*
X137722526Y-110749844D01*
X137736192Y-110733192D01*
X137752844Y-110719526D01*
X137771844Y-110709370D01*
X137792462Y-110703116D01*
X137820040Y-110700400D01*
X138328760Y-110700400D01*
X138356338Y-110703116D01*
X138356338Y-110703116D01*
G37*
G36*
X125840442Y-109591518D02*
X125906627Y-109598037D01*
X126019853Y-109632384D01*
X126076467Y-109649557D01*
X126215087Y-109723652D01*
X126232991Y-109733222D01*
X126268729Y-109762552D01*
X126370186Y-109845814D01*
X126453448Y-109947271D01*
X126482778Y-109983009D01*
X126482779Y-109983011D01*
X126566443Y-110139533D01*
X126579536Y-110182696D01*
X126617963Y-110309373D01*
X126635359Y-110486000D01*
X126617963Y-110662627D01*
X126602510Y-110713569D01*
X126566443Y-110832467D01*
X126492348Y-110971087D01*
X126482778Y-110988991D01*
X126453448Y-111024729D01*
X126370186Y-111126186D01*
X126268729Y-111209448D01*
X126232991Y-111238778D01*
X126232989Y-111238779D01*
X126076467Y-111322443D01*
X126019853Y-111339616D01*
X125906627Y-111373963D01*
X125853139Y-111379231D01*
X125774260Y-111387000D01*
X125685740Y-111387000D01*
X125606861Y-111379231D01*
X125553373Y-111373963D01*
X125440147Y-111339616D01*
X125383533Y-111322443D01*
X125227011Y-111238779D01*
X125227009Y-111238778D01*
X125191271Y-111209448D01*
X125089814Y-111126186D01*
X125006552Y-111024729D01*
X124977222Y-110988991D01*
X124967652Y-110971087D01*
X124893557Y-110832467D01*
X124857490Y-110713569D01*
X124842037Y-110662627D01*
X124824641Y-110486000D01*
X124842037Y-110309373D01*
X124880464Y-110182696D01*
X124893557Y-110139533D01*
X124977221Y-109983011D01*
X124977222Y-109983009D01*
X125006552Y-109947271D01*
X125089814Y-109845814D01*
X125191271Y-109762552D01*
X125227009Y-109733222D01*
X125244913Y-109723652D01*
X125383533Y-109649557D01*
X125440147Y-109632384D01*
X125553373Y-109598037D01*
X125619558Y-109591518D01*
X125685740Y-109585000D01*
X125774260Y-109585000D01*
X125840442Y-109591518D01*
X125840442Y-109591518D01*
G37*
G36*
X146160442Y-109591518D02*
X146226627Y-109598037D01*
X146339853Y-109632384D01*
X146396467Y-109649557D01*
X146535087Y-109723652D01*
X146552991Y-109733222D01*
X146588729Y-109762552D01*
X146690186Y-109845814D01*
X146773448Y-109947271D01*
X146802778Y-109983009D01*
X146802779Y-109983011D01*
X146886443Y-110139533D01*
X146899536Y-110182696D01*
X146937963Y-110309373D01*
X146955359Y-110486000D01*
X146937963Y-110662627D01*
X146922510Y-110713569D01*
X146886443Y-110832467D01*
X146812348Y-110971087D01*
X146802778Y-110988991D01*
X146773448Y-111024729D01*
X146690186Y-111126186D01*
X146588729Y-111209448D01*
X146552991Y-111238778D01*
X146552989Y-111238779D01*
X146396467Y-111322443D01*
X146339853Y-111339616D01*
X146226627Y-111373963D01*
X146173139Y-111379231D01*
X146094260Y-111387000D01*
X146005740Y-111387000D01*
X145926861Y-111379231D01*
X145873373Y-111373963D01*
X145760147Y-111339616D01*
X145703533Y-111322443D01*
X145547011Y-111238779D01*
X145547009Y-111238778D01*
X145511271Y-111209448D01*
X145409814Y-111126186D01*
X145326552Y-111024729D01*
X145297222Y-110988991D01*
X145287652Y-110971087D01*
X145213557Y-110832467D01*
X145177490Y-110713569D01*
X145162037Y-110662627D01*
X145144641Y-110486000D01*
X145162037Y-110309373D01*
X145200464Y-110182696D01*
X145213557Y-110139533D01*
X145297221Y-109983011D01*
X145297222Y-109983009D01*
X145326552Y-109947271D01*
X145409814Y-109845814D01*
X145511271Y-109762552D01*
X145547009Y-109733222D01*
X145564913Y-109723652D01*
X145703533Y-109649557D01*
X145760147Y-109632384D01*
X145873373Y-109598037D01*
X145939558Y-109591518D01*
X146005740Y-109585000D01*
X146094260Y-109585000D01*
X146160442Y-109591518D01*
X146160442Y-109591518D01*
G37*
G36*
X144247000Y-111115000D02*
X141945000Y-111115000D01*
X141945000Y-109963000D01*
X144247000Y-109963000D01*
X144247000Y-111115000D01*
X144247000Y-111115000D01*
G37*
G36*
X134384944Y-108245002D02*
X134408355Y-108252104D01*
X134429936Y-108263639D01*
X134448844Y-108279156D01*
X134464361Y-108298064D01*
X134475896Y-108319645D01*
X134482998Y-108343056D01*
X134486000Y-108373538D01*
X134486000Y-110212462D01*
X134482998Y-110242944D01*
X134475896Y-110266355D01*
X134464361Y-110287936D01*
X134448844Y-110306844D01*
X134429936Y-110322361D01*
X134408355Y-110333896D01*
X134384944Y-110340998D01*
X134354462Y-110344000D01*
X133615538Y-110344000D01*
X133585056Y-110340998D01*
X133561645Y-110333896D01*
X133540064Y-110322361D01*
X133521156Y-110306844D01*
X133505639Y-110287936D01*
X133494104Y-110266355D01*
X133487002Y-110242944D01*
X133484000Y-110212462D01*
X133484000Y-108373538D01*
X133487002Y-108343056D01*
X133494104Y-108319645D01*
X133505639Y-108298064D01*
X133521156Y-108279156D01*
X133540064Y-108263639D01*
X133561645Y-108252104D01*
X133585056Y-108245002D01*
X133615538Y-108242000D01*
X134354462Y-108242000D01*
X134384944Y-108245002D01*
X134384944Y-108245002D01*
G37*
G36*
X133114944Y-108245002D02*
X133138355Y-108252104D01*
X133159936Y-108263639D01*
X133178844Y-108279156D01*
X133194361Y-108298064D01*
X133205896Y-108319645D01*
X133212998Y-108343056D01*
X133216000Y-108373538D01*
X133216000Y-110212462D01*
X133212998Y-110242944D01*
X133205896Y-110266355D01*
X133194361Y-110287936D01*
X133178844Y-110306844D01*
X133159936Y-110322361D01*
X133138355Y-110333896D01*
X133114944Y-110340998D01*
X133084462Y-110344000D01*
X132345538Y-110344000D01*
X132315056Y-110340998D01*
X132291645Y-110333896D01*
X132270064Y-110322361D01*
X132251156Y-110306844D01*
X132235639Y-110287936D01*
X132224104Y-110266355D01*
X132217002Y-110242944D01*
X132214000Y-110212462D01*
X132214000Y-108373538D01*
X132217002Y-108343056D01*
X132224104Y-108319645D01*
X132235639Y-108298064D01*
X132251156Y-108279156D01*
X132270064Y-108263639D01*
X132291645Y-108252104D01*
X132315056Y-108245002D01*
X132345538Y-108242000D01*
X133084462Y-108242000D01*
X133114944Y-108245002D01*
X133114944Y-108245002D01*
G37*
G36*
X131844944Y-108245002D02*
X131868355Y-108252104D01*
X131889936Y-108263639D01*
X131908844Y-108279156D01*
X131924361Y-108298064D01*
X131935896Y-108319645D01*
X131942998Y-108343056D01*
X131946000Y-108373538D01*
X131946000Y-110212462D01*
X131942998Y-110242944D01*
X131935896Y-110266355D01*
X131924361Y-110287936D01*
X131908844Y-110306844D01*
X131889936Y-110322361D01*
X131868355Y-110333896D01*
X131844944Y-110340998D01*
X131814462Y-110344000D01*
X131075538Y-110344000D01*
X131045056Y-110340998D01*
X131021645Y-110333896D01*
X131000064Y-110322361D01*
X130981156Y-110306844D01*
X130965639Y-110287936D01*
X130954104Y-110266355D01*
X130947002Y-110242944D01*
X130944000Y-110212462D01*
X130944000Y-108373538D01*
X130947002Y-108343056D01*
X130954104Y-108319645D01*
X130965639Y-108298064D01*
X130981156Y-108279156D01*
X131000064Y-108263639D01*
X131021645Y-108252104D01*
X131045056Y-108245002D01*
X131075538Y-108242000D01*
X131814462Y-108242000D01*
X131844944Y-108245002D01*
X131844944Y-108245002D01*
G37*
G36*
X146160443Y-107051519D02*
X146226627Y-107058037D01*
X146339853Y-107092384D01*
X146396467Y-107109557D01*
X146535087Y-107183652D01*
X146552991Y-107193222D01*
X146588729Y-107222552D01*
X146690186Y-107305814D01*
X146773448Y-107407271D01*
X146802778Y-107443009D01*
X146802779Y-107443011D01*
X146886443Y-107599533D01*
X146886443Y-107599534D01*
X146937963Y-107769373D01*
X146955359Y-107946000D01*
X146937963Y-108122627D01*
X146903616Y-108235853D01*
X146886443Y-108292467D01*
X146812348Y-108431087D01*
X146802778Y-108448991D01*
X146773448Y-108484729D01*
X146690186Y-108586186D01*
X146588729Y-108669448D01*
X146552991Y-108698778D01*
X146552989Y-108698779D01*
X146396467Y-108782443D01*
X146339853Y-108799616D01*
X146226627Y-108833963D01*
X146160443Y-108840481D01*
X146094260Y-108847000D01*
X146005740Y-108847000D01*
X145939557Y-108840481D01*
X145873373Y-108833963D01*
X145760147Y-108799616D01*
X145703533Y-108782443D01*
X145547011Y-108698779D01*
X145547009Y-108698778D01*
X145511271Y-108669448D01*
X145409814Y-108586186D01*
X145326552Y-108484729D01*
X145297222Y-108448991D01*
X145287652Y-108431087D01*
X145213557Y-108292467D01*
X145196384Y-108235853D01*
X145162037Y-108122627D01*
X145144641Y-107946000D01*
X145162037Y-107769373D01*
X145213557Y-107599534D01*
X145213557Y-107599533D01*
X145297221Y-107443011D01*
X145297222Y-107443009D01*
X145326552Y-107407271D01*
X145409814Y-107305814D01*
X145511271Y-107222552D01*
X145547009Y-107193222D01*
X145564913Y-107183652D01*
X145703533Y-107109557D01*
X145760147Y-107092384D01*
X145873373Y-107058037D01*
X145939557Y-107051519D01*
X146005740Y-107045000D01*
X146094260Y-107045000D01*
X146160443Y-107051519D01*
X146160443Y-107051519D01*
G37*
G36*
X125840443Y-107051519D02*
X125906627Y-107058037D01*
X126019853Y-107092384D01*
X126076467Y-107109557D01*
X126215087Y-107183652D01*
X126232991Y-107193222D01*
X126268729Y-107222552D01*
X126370186Y-107305814D01*
X126453448Y-107407271D01*
X126482778Y-107443009D01*
X126482779Y-107443011D01*
X126566443Y-107599533D01*
X126566443Y-107599534D01*
X126617963Y-107769373D01*
X126635359Y-107946000D01*
X126617963Y-108122627D01*
X126583616Y-108235853D01*
X126566443Y-108292467D01*
X126492348Y-108431087D01*
X126482778Y-108448991D01*
X126453448Y-108484729D01*
X126370186Y-108586186D01*
X126268729Y-108669448D01*
X126232991Y-108698778D01*
X126232989Y-108698779D01*
X126076467Y-108782443D01*
X126019853Y-108799616D01*
X125906627Y-108833963D01*
X125840443Y-108840481D01*
X125774260Y-108847000D01*
X125685740Y-108847000D01*
X125619557Y-108840481D01*
X125553373Y-108833963D01*
X125440147Y-108799616D01*
X125383533Y-108782443D01*
X125227011Y-108698779D01*
X125227009Y-108698778D01*
X125191271Y-108669448D01*
X125089814Y-108586186D01*
X125006552Y-108484729D01*
X124977222Y-108448991D01*
X124967652Y-108431087D01*
X124893557Y-108292467D01*
X124876384Y-108235853D01*
X124842037Y-108122627D01*
X124824641Y-107946000D01*
X124842037Y-107769373D01*
X124893557Y-107599534D01*
X124893557Y-107599533D01*
X124977221Y-107443011D01*
X124977222Y-107443009D01*
X125006552Y-107407271D01*
X125089814Y-107305814D01*
X125191271Y-107222552D01*
X125227009Y-107193222D01*
X125244913Y-107183652D01*
X125383533Y-107109557D01*
X125440147Y-107092384D01*
X125553373Y-107058037D01*
X125619557Y-107051519D01*
X125685740Y-107045000D01*
X125774260Y-107045000D01*
X125840443Y-107051519D01*
X125840443Y-107051519D01*
G37*
G36*
X130035944Y-105801002D02*
X130059355Y-105808104D01*
X130080936Y-105819639D01*
X130099844Y-105835156D01*
X130115361Y-105854064D01*
X130126896Y-105875645D01*
X130133998Y-105899056D01*
X130137000Y-105929538D01*
X130137000Y-106668462D01*
X130133998Y-106698944D01*
X130126896Y-106722355D01*
X130115361Y-106743936D01*
X130099844Y-106762844D01*
X130080936Y-106778361D01*
X130059355Y-106789896D01*
X130035944Y-106796998D01*
X130005462Y-106800000D01*
X128166538Y-106800000D01*
X128136056Y-106796998D01*
X128112645Y-106789896D01*
X128091064Y-106778361D01*
X128072156Y-106762844D01*
X128056639Y-106743936D01*
X128045104Y-106722355D01*
X128038002Y-106698944D01*
X128035000Y-106668462D01*
X128035000Y-105929538D01*
X128038002Y-105899056D01*
X128045104Y-105875645D01*
X128056639Y-105854064D01*
X128072156Y-105835156D01*
X128091064Y-105819639D01*
X128112645Y-105808104D01*
X128136056Y-105801002D01*
X128166538Y-105798000D01*
X130005462Y-105798000D01*
X130035944Y-105801002D01*
X130035944Y-105801002D01*
G37*
G36*
X143624944Y-105801002D02*
X143648355Y-105808104D01*
X143669936Y-105819639D01*
X143688844Y-105835156D01*
X143704361Y-105854064D01*
X143715896Y-105875645D01*
X143722998Y-105899056D01*
X143726000Y-105929538D01*
X143726000Y-106668462D01*
X143722998Y-106698944D01*
X143715896Y-106722355D01*
X143704361Y-106743936D01*
X143688844Y-106762844D01*
X143669936Y-106778361D01*
X143648355Y-106789896D01*
X143624944Y-106796998D01*
X143594462Y-106800000D01*
X141755538Y-106800000D01*
X141725056Y-106796998D01*
X141701645Y-106789896D01*
X141680064Y-106778361D01*
X141661156Y-106762844D01*
X141645639Y-106743936D01*
X141634104Y-106722355D01*
X141627002Y-106698944D01*
X141624000Y-106668462D01*
X141624000Y-105929538D01*
X141627002Y-105899056D01*
X141634104Y-105875645D01*
X141645639Y-105854064D01*
X141661156Y-105835156D01*
X141680064Y-105819639D01*
X141701645Y-105808104D01*
X141725056Y-105801002D01*
X141755538Y-105798000D01*
X143594462Y-105798000D01*
X143624944Y-105801002D01*
X143624944Y-105801002D01*
G37*
G36*
X125840443Y-104511519D02*
X125906627Y-104518037D01*
X126010805Y-104549639D01*
X126076467Y-104569557D01*
X126165345Y-104617064D01*
X126232991Y-104653222D01*
X126268729Y-104682552D01*
X126370186Y-104765814D01*
X126453448Y-104867271D01*
X126482778Y-104903009D01*
X126482779Y-104903011D01*
X126566443Y-105059533D01*
X126566443Y-105059534D01*
X126617963Y-105229373D01*
X126635359Y-105406000D01*
X126617963Y-105582627D01*
X126583616Y-105695853D01*
X126566443Y-105752467D01*
X126500602Y-105875645D01*
X126482778Y-105908991D01*
X126465915Y-105929538D01*
X126370186Y-106046186D01*
X126268729Y-106129448D01*
X126232991Y-106158778D01*
X126232989Y-106158779D01*
X126076467Y-106242443D01*
X126019853Y-106259616D01*
X125906627Y-106293963D01*
X125840442Y-106300482D01*
X125774260Y-106307000D01*
X125685740Y-106307000D01*
X125619558Y-106300482D01*
X125553373Y-106293963D01*
X125440147Y-106259616D01*
X125383533Y-106242443D01*
X125227011Y-106158779D01*
X125227009Y-106158778D01*
X125191271Y-106129448D01*
X125089814Y-106046186D01*
X124994085Y-105929538D01*
X124977222Y-105908991D01*
X124959398Y-105875645D01*
X124893557Y-105752467D01*
X124876384Y-105695853D01*
X124842037Y-105582627D01*
X124824641Y-105406000D01*
X124842037Y-105229373D01*
X124893557Y-105059534D01*
X124893557Y-105059533D01*
X124977221Y-104903011D01*
X124977222Y-104903009D01*
X125006552Y-104867271D01*
X125089814Y-104765814D01*
X125191271Y-104682552D01*
X125227009Y-104653222D01*
X125294655Y-104617064D01*
X125383533Y-104569557D01*
X125449195Y-104549639D01*
X125553373Y-104518037D01*
X125619558Y-104511518D01*
X125685740Y-104505000D01*
X125774260Y-104505000D01*
X125840443Y-104511519D01*
X125840443Y-104511519D01*
G37*
G36*
X146160443Y-104511519D02*
X146226627Y-104518037D01*
X146330805Y-104549639D01*
X146396467Y-104569557D01*
X146485345Y-104617064D01*
X146552991Y-104653222D01*
X146588729Y-104682552D01*
X146690186Y-104765814D01*
X146773448Y-104867271D01*
X146802778Y-104903009D01*
X146802779Y-104903011D01*
X146886443Y-105059533D01*
X146886443Y-105059534D01*
X146937963Y-105229373D01*
X146955359Y-105406000D01*
X146937963Y-105582627D01*
X146903616Y-105695853D01*
X146886443Y-105752467D01*
X146820602Y-105875645D01*
X146802778Y-105908991D01*
X146785915Y-105929538D01*
X146690186Y-106046186D01*
X146588729Y-106129448D01*
X146552991Y-106158778D01*
X146552989Y-106158779D01*
X146396467Y-106242443D01*
X146339853Y-106259616D01*
X146226627Y-106293963D01*
X146160442Y-106300482D01*
X146094260Y-106307000D01*
X146005740Y-106307000D01*
X145939558Y-106300482D01*
X145873373Y-106293963D01*
X145760147Y-106259616D01*
X145703533Y-106242443D01*
X145547011Y-106158779D01*
X145547009Y-106158778D01*
X145511271Y-106129448D01*
X145409814Y-106046186D01*
X145314085Y-105929538D01*
X145297222Y-105908991D01*
X145279398Y-105875645D01*
X145213557Y-105752467D01*
X145196384Y-105695853D01*
X145162037Y-105582627D01*
X145144641Y-105406000D01*
X145162037Y-105229373D01*
X145213557Y-105059534D01*
X145213557Y-105059533D01*
X145297221Y-104903011D01*
X145297222Y-104903009D01*
X145326552Y-104867271D01*
X145409814Y-104765814D01*
X145511271Y-104682552D01*
X145547009Y-104653222D01*
X145614655Y-104617064D01*
X145703533Y-104569557D01*
X145769195Y-104549639D01*
X145873373Y-104518037D01*
X145939558Y-104511518D01*
X146005740Y-104505000D01*
X146094260Y-104505000D01*
X146160443Y-104511519D01*
X146160443Y-104511519D01*
G37*
G36*
X130035944Y-104531002D02*
X130059355Y-104538104D01*
X130080936Y-104549639D01*
X130099844Y-104565156D01*
X130115361Y-104584064D01*
X130126896Y-104605645D01*
X130133998Y-104629056D01*
X130137000Y-104659538D01*
X130137000Y-105398462D01*
X130133998Y-105428944D01*
X130126896Y-105452355D01*
X130115361Y-105473936D01*
X130099844Y-105492844D01*
X130080936Y-105508361D01*
X130059355Y-105519896D01*
X130035944Y-105526998D01*
X130005462Y-105530000D01*
X128166538Y-105530000D01*
X128136056Y-105526998D01*
X128112645Y-105519896D01*
X128091064Y-105508361D01*
X128072156Y-105492844D01*
X128056639Y-105473936D01*
X128045104Y-105452355D01*
X128038002Y-105428944D01*
X128035000Y-105398462D01*
X128035000Y-104659538D01*
X128038002Y-104629056D01*
X128045104Y-104605645D01*
X128056639Y-104584064D01*
X128072156Y-104565156D01*
X128091064Y-104549639D01*
X128112645Y-104538104D01*
X128136056Y-104531002D01*
X128166538Y-104528000D01*
X130005462Y-104528000D01*
X130035944Y-104531002D01*
X130035944Y-104531002D01*
G37*
G36*
X143624944Y-104531002D02*
X143648355Y-104538104D01*
X143669936Y-104549639D01*
X143688844Y-104565156D01*
X143704361Y-104584064D01*
X143715896Y-104605645D01*
X143722998Y-104629056D01*
X143726000Y-104659538D01*
X143726000Y-105398462D01*
X143722998Y-105428944D01*
X143715896Y-105452355D01*
X143704361Y-105473936D01*
X143688844Y-105492844D01*
X143669936Y-105508361D01*
X143648355Y-105519896D01*
X143624944Y-105526998D01*
X143594462Y-105530000D01*
X141755538Y-105530000D01*
X141725056Y-105526998D01*
X141701645Y-105519896D01*
X141680064Y-105508361D01*
X141661156Y-105492844D01*
X141645639Y-105473936D01*
X141634104Y-105452355D01*
X141627002Y-105428944D01*
X141624000Y-105398462D01*
X141624000Y-104659538D01*
X141627002Y-104629056D01*
X141634104Y-104605645D01*
X141645639Y-104584064D01*
X141661156Y-104565156D01*
X141680064Y-104549639D01*
X141701645Y-104538104D01*
X141725056Y-104531002D01*
X141755538Y-104528000D01*
X143594462Y-104528000D01*
X143624944Y-104531002D01*
X143624944Y-104531002D01*
G37*
G36*
X143624944Y-103261002D02*
X143648355Y-103268104D01*
X143669936Y-103279639D01*
X143688844Y-103295156D01*
X143704361Y-103314064D01*
X143715896Y-103335645D01*
X143722998Y-103359056D01*
X143726000Y-103389538D01*
X143726000Y-104128462D01*
X143722998Y-104158944D01*
X143715896Y-104182355D01*
X143704361Y-104203936D01*
X143688844Y-104222844D01*
X143669936Y-104238361D01*
X143648355Y-104249896D01*
X143624944Y-104256998D01*
X143594462Y-104260000D01*
X141755538Y-104260000D01*
X141725056Y-104256998D01*
X141701645Y-104249896D01*
X141680064Y-104238361D01*
X141661156Y-104222844D01*
X141645639Y-104203936D01*
X141634104Y-104182355D01*
X141627002Y-104158944D01*
X141624000Y-104128462D01*
X141624000Y-103389538D01*
X141627002Y-103359056D01*
X141634104Y-103335645D01*
X141645639Y-103314064D01*
X141661156Y-103295156D01*
X141680064Y-103279639D01*
X141701645Y-103268104D01*
X141725056Y-103261002D01*
X141755538Y-103258000D01*
X143594462Y-103258000D01*
X143624944Y-103261002D01*
X143624944Y-103261002D01*
G37*
G36*
X130035944Y-103261002D02*
X130059355Y-103268104D01*
X130080936Y-103279639D01*
X130099844Y-103295156D01*
X130115361Y-103314064D01*
X130126896Y-103335645D01*
X130133998Y-103359056D01*
X130137000Y-103389538D01*
X130137000Y-104128462D01*
X130133998Y-104158944D01*
X130126896Y-104182355D01*
X130115361Y-104203936D01*
X130099844Y-104222844D01*
X130080936Y-104238361D01*
X130059355Y-104249896D01*
X130035944Y-104256998D01*
X130005462Y-104260000D01*
X128166538Y-104260000D01*
X128136056Y-104256998D01*
X128112645Y-104249896D01*
X128091064Y-104238361D01*
X128072156Y-104222844D01*
X128056639Y-104203936D01*
X128045104Y-104182355D01*
X128038002Y-104158944D01*
X128035000Y-104128462D01*
X128035000Y-103389538D01*
X128038002Y-103359056D01*
X128045104Y-103335645D01*
X128056639Y-103314064D01*
X128072156Y-103295156D01*
X128091064Y-103279639D01*
X128112645Y-103268104D01*
X128136056Y-103261002D01*
X128166538Y-103258000D01*
X130005462Y-103258000D01*
X130035944Y-103261002D01*
X130035944Y-103261002D01*
G37*
G36*
X146160442Y-101971518D02*
X146226627Y-101978037D01*
X146330805Y-102009639D01*
X146396467Y-102029557D01*
X146485345Y-102077064D01*
X146552991Y-102113222D01*
X146588729Y-102142552D01*
X146690186Y-102225814D01*
X146773448Y-102327271D01*
X146802778Y-102363009D01*
X146802779Y-102363011D01*
X146886443Y-102519533D01*
X146886443Y-102519534D01*
X146937963Y-102689373D01*
X146955359Y-102866000D01*
X146937963Y-103042627D01*
X146903616Y-103155853D01*
X146886443Y-103212467D01*
X146820602Y-103335645D01*
X146802778Y-103368991D01*
X146785915Y-103389538D01*
X146690186Y-103506186D01*
X146588729Y-103589448D01*
X146552991Y-103618778D01*
X146552989Y-103618779D01*
X146396467Y-103702443D01*
X146339853Y-103719616D01*
X146226627Y-103753963D01*
X146160443Y-103760481D01*
X146094260Y-103767000D01*
X146005740Y-103767000D01*
X145939557Y-103760481D01*
X145873373Y-103753963D01*
X145760147Y-103719616D01*
X145703533Y-103702443D01*
X145547011Y-103618779D01*
X145547009Y-103618778D01*
X145511271Y-103589448D01*
X145409814Y-103506186D01*
X145314085Y-103389538D01*
X145297222Y-103368991D01*
X145279398Y-103335645D01*
X145213557Y-103212467D01*
X145196384Y-103155853D01*
X145162037Y-103042627D01*
X145144641Y-102866000D01*
X145162037Y-102689373D01*
X145213557Y-102519534D01*
X145213557Y-102519533D01*
X145297221Y-102363011D01*
X145297222Y-102363009D01*
X145326552Y-102327271D01*
X145409814Y-102225814D01*
X145511271Y-102142552D01*
X145547009Y-102113222D01*
X145614655Y-102077064D01*
X145703533Y-102029557D01*
X145769195Y-102009639D01*
X145873373Y-101978037D01*
X145939558Y-101971518D01*
X146005740Y-101965000D01*
X146094260Y-101965000D01*
X146160442Y-101971518D01*
X146160442Y-101971518D01*
G37*
G36*
X125840442Y-101971518D02*
X125906627Y-101978037D01*
X126010805Y-102009639D01*
X126076467Y-102029557D01*
X126165345Y-102077064D01*
X126232991Y-102113222D01*
X126268729Y-102142552D01*
X126370186Y-102225814D01*
X126453448Y-102327271D01*
X126482778Y-102363009D01*
X126482779Y-102363011D01*
X126566443Y-102519533D01*
X126566443Y-102519534D01*
X126617963Y-102689373D01*
X126635359Y-102866000D01*
X126617963Y-103042627D01*
X126583616Y-103155853D01*
X126566443Y-103212467D01*
X126500602Y-103335645D01*
X126482778Y-103368991D01*
X126465915Y-103389538D01*
X126370186Y-103506186D01*
X126268729Y-103589448D01*
X126232991Y-103618778D01*
X126232989Y-103618779D01*
X126076467Y-103702443D01*
X126019853Y-103719616D01*
X125906627Y-103753963D01*
X125840443Y-103760481D01*
X125774260Y-103767000D01*
X125685740Y-103767000D01*
X125619557Y-103760481D01*
X125553373Y-103753963D01*
X125440147Y-103719616D01*
X125383533Y-103702443D01*
X125227011Y-103618779D01*
X125227009Y-103618778D01*
X125191271Y-103589448D01*
X125089814Y-103506186D01*
X124994085Y-103389538D01*
X124977222Y-103368991D01*
X124959398Y-103335645D01*
X124893557Y-103212467D01*
X124876384Y-103155853D01*
X124842037Y-103042627D01*
X124824641Y-102866000D01*
X124842037Y-102689373D01*
X124893557Y-102519534D01*
X124893557Y-102519533D01*
X124977221Y-102363011D01*
X124977222Y-102363009D01*
X125006552Y-102327271D01*
X125089814Y-102225814D01*
X125191271Y-102142552D01*
X125227009Y-102113222D01*
X125294655Y-102077064D01*
X125383533Y-102029557D01*
X125449195Y-102009639D01*
X125553373Y-101978037D01*
X125619558Y-101971518D01*
X125685740Y-101965000D01*
X125774260Y-101965000D01*
X125840442Y-101971518D01*
X125840442Y-101971518D01*
G37*
G36*
X143624944Y-101991002D02*
X143648355Y-101998104D01*
X143669936Y-102009639D01*
X143688844Y-102025156D01*
X143704361Y-102044064D01*
X143715896Y-102065645D01*
X143722998Y-102089056D01*
X143726000Y-102119538D01*
X143726000Y-102858462D01*
X143722998Y-102888944D01*
X143715896Y-102912355D01*
X143704361Y-102933936D01*
X143688844Y-102952844D01*
X143669936Y-102968361D01*
X143648355Y-102979896D01*
X143624944Y-102986998D01*
X143594462Y-102990000D01*
X141755538Y-102990000D01*
X141725056Y-102986998D01*
X141701645Y-102979896D01*
X141680064Y-102968361D01*
X141661156Y-102952844D01*
X141645639Y-102933936D01*
X141634104Y-102912355D01*
X141627002Y-102888944D01*
X141624000Y-102858462D01*
X141624000Y-102119538D01*
X141627002Y-102089056D01*
X141634104Y-102065645D01*
X141645639Y-102044064D01*
X141661156Y-102025156D01*
X141680064Y-102009639D01*
X141701645Y-101998104D01*
X141725056Y-101991002D01*
X141755538Y-101988000D01*
X143594462Y-101988000D01*
X143624944Y-101991002D01*
X143624944Y-101991002D01*
G37*
G36*
X130035944Y-101991002D02*
X130059355Y-101998104D01*
X130080936Y-102009639D01*
X130099844Y-102025156D01*
X130115361Y-102044064D01*
X130126896Y-102065645D01*
X130133998Y-102089056D01*
X130137000Y-102119538D01*
X130137000Y-102858462D01*
X130133998Y-102888944D01*
X130126896Y-102912355D01*
X130115361Y-102933936D01*
X130099844Y-102952844D01*
X130080936Y-102968361D01*
X130059355Y-102979896D01*
X130035944Y-102986998D01*
X130005462Y-102990000D01*
X128166538Y-102990000D01*
X128136056Y-102986998D01*
X128112645Y-102979896D01*
X128091064Y-102968361D01*
X128072156Y-102952844D01*
X128056639Y-102933936D01*
X128045104Y-102912355D01*
X128038002Y-102888944D01*
X128035000Y-102858462D01*
X128035000Y-102119538D01*
X128038002Y-102089056D01*
X128045104Y-102065645D01*
X128056639Y-102044064D01*
X128072156Y-102025156D01*
X128091064Y-102009639D01*
X128112645Y-101998104D01*
X128136056Y-101991002D01*
X128166538Y-101988000D01*
X130005462Y-101988000D01*
X130035944Y-101991002D01*
X130035944Y-101991002D01*
G37*
G36*
X143624944Y-100721002D02*
X143648355Y-100728104D01*
X143669936Y-100739639D01*
X143688844Y-100755156D01*
X143704361Y-100774064D01*
X143715896Y-100795645D01*
X143722998Y-100819056D01*
X143726000Y-100849538D01*
X143726000Y-101588462D01*
X143722998Y-101618944D01*
X143715896Y-101642355D01*
X143704361Y-101663936D01*
X143688844Y-101682844D01*
X143669936Y-101698361D01*
X143648355Y-101709896D01*
X143624944Y-101716998D01*
X143594462Y-101720000D01*
X141755538Y-101720000D01*
X141725056Y-101716998D01*
X141701645Y-101709896D01*
X141680064Y-101698361D01*
X141661156Y-101682844D01*
X141645639Y-101663936D01*
X141634104Y-101642355D01*
X141627002Y-101618944D01*
X141624000Y-101588462D01*
X141624000Y-100849538D01*
X141627002Y-100819056D01*
X141634104Y-100795645D01*
X141645639Y-100774064D01*
X141661156Y-100755156D01*
X141680064Y-100739639D01*
X141701645Y-100728104D01*
X141725056Y-100721002D01*
X141755538Y-100718000D01*
X143594462Y-100718000D01*
X143624944Y-100721002D01*
X143624944Y-100721002D01*
G37*
G36*
X130035944Y-100721002D02*
X130059355Y-100728104D01*
X130080936Y-100739639D01*
X130099844Y-100755156D01*
X130115361Y-100774064D01*
X130126896Y-100795645D01*
X130133998Y-100819056D01*
X130137000Y-100849538D01*
X130137000Y-101588462D01*
X130133998Y-101618944D01*
X130126896Y-101642355D01*
X130115361Y-101663936D01*
X130099844Y-101682844D01*
X130080936Y-101698361D01*
X130059355Y-101709896D01*
X130035944Y-101716998D01*
X130005462Y-101720000D01*
X128166538Y-101720000D01*
X128136056Y-101716998D01*
X128112645Y-101709896D01*
X128091064Y-101698361D01*
X128072156Y-101682844D01*
X128056639Y-101663936D01*
X128045104Y-101642355D01*
X128038002Y-101618944D01*
X128035000Y-101588462D01*
X128035000Y-100849538D01*
X128038002Y-100819056D01*
X128045104Y-100795645D01*
X128056639Y-100774064D01*
X128072156Y-100755156D01*
X128091064Y-100739639D01*
X128112645Y-100728104D01*
X128136056Y-100721002D01*
X128166538Y-100718000D01*
X130005462Y-100718000D01*
X130035944Y-100721002D01*
X130035944Y-100721002D01*
G37*
G36*
X146160443Y-99431519D02*
X146226627Y-99438037D01*
X146330805Y-99469639D01*
X146396467Y-99489557D01*
X146485345Y-99537064D01*
X146552991Y-99573222D01*
X146588729Y-99602552D01*
X146690186Y-99685814D01*
X146773448Y-99787271D01*
X146802778Y-99823009D01*
X146802779Y-99823011D01*
X146886443Y-99979533D01*
X146886443Y-99979534D01*
X146937963Y-100149373D01*
X146955359Y-100326000D01*
X146937963Y-100502627D01*
X146903616Y-100615853D01*
X146886443Y-100672467D01*
X146820602Y-100795645D01*
X146802778Y-100828991D01*
X146785915Y-100849538D01*
X146690186Y-100966186D01*
X146588729Y-101049448D01*
X146552991Y-101078778D01*
X146552989Y-101078779D01*
X146396467Y-101162443D01*
X146339853Y-101179616D01*
X146226627Y-101213963D01*
X146160443Y-101220481D01*
X146094260Y-101227000D01*
X146005740Y-101227000D01*
X145939557Y-101220481D01*
X145873373Y-101213963D01*
X145760147Y-101179616D01*
X145703533Y-101162443D01*
X145547011Y-101078779D01*
X145547009Y-101078778D01*
X145511271Y-101049448D01*
X145409814Y-100966186D01*
X145314085Y-100849538D01*
X145297222Y-100828991D01*
X145279398Y-100795645D01*
X145213557Y-100672467D01*
X145196384Y-100615853D01*
X145162037Y-100502627D01*
X145144641Y-100326000D01*
X145162037Y-100149373D01*
X145213557Y-99979534D01*
X145213557Y-99979533D01*
X145297221Y-99823011D01*
X145297222Y-99823009D01*
X145326552Y-99787271D01*
X145409814Y-99685814D01*
X145511271Y-99602552D01*
X145547009Y-99573222D01*
X145614655Y-99537064D01*
X145703533Y-99489557D01*
X145769195Y-99469639D01*
X145873373Y-99438037D01*
X145939558Y-99431518D01*
X146005740Y-99425000D01*
X146094260Y-99425000D01*
X146160443Y-99431519D01*
X146160443Y-99431519D01*
G37*
G36*
X125840443Y-99431519D02*
X125906627Y-99438037D01*
X126010805Y-99469639D01*
X126076467Y-99489557D01*
X126165345Y-99537064D01*
X126232991Y-99573222D01*
X126268729Y-99602552D01*
X126370186Y-99685814D01*
X126453448Y-99787271D01*
X126482778Y-99823009D01*
X126482779Y-99823011D01*
X126566443Y-99979533D01*
X126566443Y-99979534D01*
X126617963Y-100149373D01*
X126635359Y-100326000D01*
X126617963Y-100502627D01*
X126583616Y-100615853D01*
X126566443Y-100672467D01*
X126500602Y-100795645D01*
X126482778Y-100828991D01*
X126465915Y-100849538D01*
X126370186Y-100966186D01*
X126268729Y-101049448D01*
X126232991Y-101078778D01*
X126232989Y-101078779D01*
X126076467Y-101162443D01*
X126019853Y-101179616D01*
X125906627Y-101213963D01*
X125840443Y-101220481D01*
X125774260Y-101227000D01*
X125685740Y-101227000D01*
X125619557Y-101220481D01*
X125553373Y-101213963D01*
X125440147Y-101179616D01*
X125383533Y-101162443D01*
X125227011Y-101078779D01*
X125227009Y-101078778D01*
X125191271Y-101049448D01*
X125089814Y-100966186D01*
X124994085Y-100849538D01*
X124977222Y-100828991D01*
X124959398Y-100795645D01*
X124893557Y-100672467D01*
X124876384Y-100615853D01*
X124842037Y-100502627D01*
X124824641Y-100326000D01*
X124842037Y-100149373D01*
X124893557Y-99979534D01*
X124893557Y-99979533D01*
X124977221Y-99823011D01*
X124977222Y-99823009D01*
X125006552Y-99787271D01*
X125089814Y-99685814D01*
X125191271Y-99602552D01*
X125227009Y-99573222D01*
X125294655Y-99537064D01*
X125383533Y-99489557D01*
X125449195Y-99469639D01*
X125553373Y-99438037D01*
X125619558Y-99431518D01*
X125685740Y-99425000D01*
X125774260Y-99425000D01*
X125840443Y-99431519D01*
X125840443Y-99431519D01*
G37*
G36*
X130035944Y-99451002D02*
X130059355Y-99458104D01*
X130080936Y-99469639D01*
X130099844Y-99485156D01*
X130115361Y-99504064D01*
X130126896Y-99525645D01*
X130133998Y-99549056D01*
X130137000Y-99579538D01*
X130137000Y-100318462D01*
X130133998Y-100348944D01*
X130126896Y-100372355D01*
X130115361Y-100393936D01*
X130099844Y-100412844D01*
X130080936Y-100428361D01*
X130059355Y-100439896D01*
X130035944Y-100446998D01*
X130005462Y-100450000D01*
X128166538Y-100450000D01*
X128136056Y-100446998D01*
X128112645Y-100439896D01*
X128091064Y-100428361D01*
X128072156Y-100412844D01*
X128056639Y-100393936D01*
X128045104Y-100372355D01*
X128038002Y-100348944D01*
X128035000Y-100318462D01*
X128035000Y-99579538D01*
X128038002Y-99549056D01*
X128045104Y-99525645D01*
X128056639Y-99504064D01*
X128072156Y-99485156D01*
X128091064Y-99469639D01*
X128112645Y-99458104D01*
X128136056Y-99451002D01*
X128166538Y-99448000D01*
X130005462Y-99448000D01*
X130035944Y-99451002D01*
X130035944Y-99451002D01*
G37*
G36*
X143624944Y-99451002D02*
X143648355Y-99458104D01*
X143669936Y-99469639D01*
X143688844Y-99485156D01*
X143704361Y-99504064D01*
X143715896Y-99525645D01*
X143722998Y-99549056D01*
X143726000Y-99579538D01*
X143726000Y-100318462D01*
X143722998Y-100348944D01*
X143715896Y-100372355D01*
X143704361Y-100393936D01*
X143688844Y-100412844D01*
X143669936Y-100428361D01*
X143648355Y-100439896D01*
X143624944Y-100446998D01*
X143594462Y-100450000D01*
X141755538Y-100450000D01*
X141725056Y-100446998D01*
X141701645Y-100439896D01*
X141680064Y-100428361D01*
X141661156Y-100412844D01*
X141645639Y-100393936D01*
X141634104Y-100372355D01*
X141627002Y-100348944D01*
X141624000Y-100318462D01*
X141624000Y-99579538D01*
X141627002Y-99549056D01*
X141634104Y-99525645D01*
X141645639Y-99504064D01*
X141661156Y-99485156D01*
X141680064Y-99469639D01*
X141701645Y-99458104D01*
X141725056Y-99451002D01*
X141755538Y-99448000D01*
X143594462Y-99448000D01*
X143624944Y-99451002D01*
X143624944Y-99451002D01*
G37*
G36*
X143624944Y-98181002D02*
X143648355Y-98188104D01*
X143669936Y-98199639D01*
X143688844Y-98215156D01*
X143704361Y-98234064D01*
X143715896Y-98255645D01*
X143722998Y-98279056D01*
X143726000Y-98309538D01*
X143726000Y-99048462D01*
X143722998Y-99078944D01*
X143715896Y-99102355D01*
X143704361Y-99123936D01*
X143688844Y-99142844D01*
X143669936Y-99158361D01*
X143648355Y-99169896D01*
X143624944Y-99176998D01*
X143594462Y-99180000D01*
X141755538Y-99180000D01*
X141725056Y-99176998D01*
X141701645Y-99169896D01*
X141680064Y-99158361D01*
X141661156Y-99142844D01*
X141645639Y-99123936D01*
X141634104Y-99102355D01*
X141627002Y-99078944D01*
X141624000Y-99048462D01*
X141624000Y-98309538D01*
X141627002Y-98279056D01*
X141634104Y-98255645D01*
X141645639Y-98234064D01*
X141661156Y-98215156D01*
X141680064Y-98199639D01*
X141701645Y-98188104D01*
X141725056Y-98181002D01*
X141755538Y-98178000D01*
X143594462Y-98178000D01*
X143624944Y-98181002D01*
X143624944Y-98181002D01*
G37*
G36*
X130035944Y-98181002D02*
X130059355Y-98188104D01*
X130080936Y-98199639D01*
X130099844Y-98215156D01*
X130115361Y-98234064D01*
X130126896Y-98255645D01*
X130133998Y-98279056D01*
X130137000Y-98309538D01*
X130137000Y-99048462D01*
X130133998Y-99078944D01*
X130126896Y-99102355D01*
X130115361Y-99123936D01*
X130099844Y-99142844D01*
X130080936Y-99158361D01*
X130059355Y-99169896D01*
X130035944Y-99176998D01*
X130005462Y-99180000D01*
X128166538Y-99180000D01*
X128136056Y-99176998D01*
X128112645Y-99169896D01*
X128091064Y-99158361D01*
X128072156Y-99142844D01*
X128056639Y-99123936D01*
X128045104Y-99102355D01*
X128038002Y-99078944D01*
X128035000Y-99048462D01*
X128035000Y-98309538D01*
X128038002Y-98279056D01*
X128045104Y-98255645D01*
X128056639Y-98234064D01*
X128072156Y-98215156D01*
X128091064Y-98199639D01*
X128112645Y-98188104D01*
X128136056Y-98181002D01*
X128166538Y-98178000D01*
X130005462Y-98178000D01*
X130035944Y-98181002D01*
X130035944Y-98181002D01*
G37*
G36*
X146160442Y-96891518D02*
X146226627Y-96898037D01*
X146330805Y-96929639D01*
X146396467Y-96949557D01*
X146485345Y-96997064D01*
X146552991Y-97033222D01*
X146588729Y-97062552D01*
X146690186Y-97145814D01*
X146773448Y-97247271D01*
X146802778Y-97283009D01*
X146802779Y-97283011D01*
X146886443Y-97439533D01*
X146886443Y-97439534D01*
X146937963Y-97609373D01*
X146955359Y-97786000D01*
X146937963Y-97962627D01*
X146903616Y-98075853D01*
X146886443Y-98132467D01*
X146820602Y-98255645D01*
X146802778Y-98288991D01*
X146785915Y-98309538D01*
X146690186Y-98426186D01*
X146588729Y-98509448D01*
X146552991Y-98538778D01*
X146552989Y-98538779D01*
X146396467Y-98622443D01*
X146339853Y-98639616D01*
X146226627Y-98673963D01*
X146160442Y-98680482D01*
X146094260Y-98687000D01*
X146005740Y-98687000D01*
X145939558Y-98680482D01*
X145873373Y-98673963D01*
X145760147Y-98639616D01*
X145703533Y-98622443D01*
X145547011Y-98538779D01*
X145547009Y-98538778D01*
X145511271Y-98509448D01*
X145409814Y-98426186D01*
X145314085Y-98309538D01*
X145297222Y-98288991D01*
X145279398Y-98255645D01*
X145213557Y-98132467D01*
X145196384Y-98075853D01*
X145162037Y-97962627D01*
X145144641Y-97786000D01*
X145162037Y-97609373D01*
X145213557Y-97439534D01*
X145213557Y-97439533D01*
X145297221Y-97283011D01*
X145297222Y-97283009D01*
X145326552Y-97247271D01*
X145409814Y-97145814D01*
X145511271Y-97062552D01*
X145547009Y-97033222D01*
X145614655Y-96997064D01*
X145703533Y-96949557D01*
X145769195Y-96929639D01*
X145873373Y-96898037D01*
X145939558Y-96891518D01*
X146005740Y-96885000D01*
X146094260Y-96885000D01*
X146160442Y-96891518D01*
X146160442Y-96891518D01*
G37*
G36*
X125840442Y-96891518D02*
X125906627Y-96898037D01*
X126010805Y-96929639D01*
X126076467Y-96949557D01*
X126165345Y-96997064D01*
X126232991Y-97033222D01*
X126268729Y-97062552D01*
X126370186Y-97145814D01*
X126453448Y-97247271D01*
X126482778Y-97283009D01*
X126482779Y-97283011D01*
X126566443Y-97439533D01*
X126566443Y-97439534D01*
X126617963Y-97609373D01*
X126635359Y-97786000D01*
X126617963Y-97962627D01*
X126583616Y-98075853D01*
X126566443Y-98132467D01*
X126500602Y-98255645D01*
X126482778Y-98288991D01*
X126465915Y-98309538D01*
X126370186Y-98426186D01*
X126268729Y-98509448D01*
X126232991Y-98538778D01*
X126232989Y-98538779D01*
X126076467Y-98622443D01*
X126019853Y-98639616D01*
X125906627Y-98673963D01*
X125840442Y-98680482D01*
X125774260Y-98687000D01*
X125685740Y-98687000D01*
X125619558Y-98680482D01*
X125553373Y-98673963D01*
X125440147Y-98639616D01*
X125383533Y-98622443D01*
X125227011Y-98538779D01*
X125227009Y-98538778D01*
X125191271Y-98509448D01*
X125089814Y-98426186D01*
X124994085Y-98309538D01*
X124977222Y-98288991D01*
X124959398Y-98255645D01*
X124893557Y-98132467D01*
X124876384Y-98075853D01*
X124842037Y-97962627D01*
X124824641Y-97786000D01*
X124842037Y-97609373D01*
X124893557Y-97439534D01*
X124893557Y-97439533D01*
X124977221Y-97283011D01*
X124977222Y-97283009D01*
X125006552Y-97247271D01*
X125089814Y-97145814D01*
X125191271Y-97062552D01*
X125227009Y-97033222D01*
X125294655Y-96997064D01*
X125383533Y-96949557D01*
X125449195Y-96929639D01*
X125553373Y-96898037D01*
X125619558Y-96891518D01*
X125685740Y-96885000D01*
X125774260Y-96885000D01*
X125840442Y-96891518D01*
X125840442Y-96891518D01*
G37*
G36*
X143624944Y-96911002D02*
X143648355Y-96918104D01*
X143669936Y-96929639D01*
X143688844Y-96945156D01*
X143704361Y-96964064D01*
X143715896Y-96985645D01*
X143722998Y-97009056D01*
X143726000Y-97039538D01*
X143726000Y-97778462D01*
X143722998Y-97808944D01*
X143715896Y-97832355D01*
X143704361Y-97853936D01*
X143688844Y-97872844D01*
X143669936Y-97888361D01*
X143648355Y-97899896D01*
X143624944Y-97906998D01*
X143594462Y-97910000D01*
X141755538Y-97910000D01*
X141725056Y-97906998D01*
X141701645Y-97899896D01*
X141680064Y-97888361D01*
X141661156Y-97872844D01*
X141645639Y-97853936D01*
X141634104Y-97832355D01*
X141627002Y-97808944D01*
X141624000Y-97778462D01*
X141624000Y-97039538D01*
X141627002Y-97009056D01*
X141634104Y-96985645D01*
X141645639Y-96964064D01*
X141661156Y-96945156D01*
X141680064Y-96929639D01*
X141701645Y-96918104D01*
X141725056Y-96911002D01*
X141755538Y-96908000D01*
X143594462Y-96908000D01*
X143624944Y-96911002D01*
X143624944Y-96911002D01*
G37*
G36*
X130035944Y-96911002D02*
X130059355Y-96918104D01*
X130080936Y-96929639D01*
X130099844Y-96945156D01*
X130115361Y-96964064D01*
X130126896Y-96985645D01*
X130133998Y-97009056D01*
X130137000Y-97039538D01*
X130137000Y-97778462D01*
X130133998Y-97808944D01*
X130126896Y-97832355D01*
X130115361Y-97853936D01*
X130099844Y-97872844D01*
X130080936Y-97888361D01*
X130059355Y-97899896D01*
X130035944Y-97906998D01*
X130005462Y-97910000D01*
X128166538Y-97910000D01*
X128136056Y-97906998D01*
X128112645Y-97899896D01*
X128091064Y-97888361D01*
X128072156Y-97872844D01*
X128056639Y-97853936D01*
X128045104Y-97832355D01*
X128038002Y-97808944D01*
X128035000Y-97778462D01*
X128035000Y-97039538D01*
X128038002Y-97009056D01*
X128045104Y-96985645D01*
X128056639Y-96964064D01*
X128072156Y-96945156D01*
X128091064Y-96929639D01*
X128112645Y-96918104D01*
X128136056Y-96911002D01*
X128166538Y-96908000D01*
X130005462Y-96908000D01*
X130035944Y-96911002D01*
X130035944Y-96911002D01*
G37*
G36*
X130035944Y-95641002D02*
X130059355Y-95648104D01*
X130080936Y-95659639D01*
X130099844Y-95675156D01*
X130115361Y-95694064D01*
X130126896Y-95715645D01*
X130133998Y-95739056D01*
X130137000Y-95769538D01*
X130137000Y-96508462D01*
X130133998Y-96538944D01*
X130126896Y-96562355D01*
X130115361Y-96583936D01*
X130099844Y-96602844D01*
X130080936Y-96618361D01*
X130059355Y-96629896D01*
X130035944Y-96636998D01*
X130005462Y-96640000D01*
X128166538Y-96640000D01*
X128136056Y-96636998D01*
X128112645Y-96629896D01*
X128091064Y-96618361D01*
X128072156Y-96602844D01*
X128056639Y-96583936D01*
X128045104Y-96562355D01*
X128038002Y-96538944D01*
X128035000Y-96508462D01*
X128035000Y-95769538D01*
X128038002Y-95739056D01*
X128045104Y-95715645D01*
X128056639Y-95694064D01*
X128072156Y-95675156D01*
X128091064Y-95659639D01*
X128112645Y-95648104D01*
X128136056Y-95641002D01*
X128166538Y-95638000D01*
X130005462Y-95638000D01*
X130035944Y-95641002D01*
X130035944Y-95641002D01*
G37*
G36*
X143624944Y-95641002D02*
X143648355Y-95648104D01*
X143669936Y-95659639D01*
X143688844Y-95675156D01*
X143704361Y-95694064D01*
X143715896Y-95715645D01*
X143722998Y-95739056D01*
X143726000Y-95769538D01*
X143726000Y-96508462D01*
X143722998Y-96538944D01*
X143715896Y-96562355D01*
X143704361Y-96583936D01*
X143688844Y-96602844D01*
X143669936Y-96618361D01*
X143648355Y-96629896D01*
X143624944Y-96636998D01*
X143594462Y-96640000D01*
X141755538Y-96640000D01*
X141725056Y-96636998D01*
X141701645Y-96629896D01*
X141680064Y-96618361D01*
X141661156Y-96602844D01*
X141645639Y-96583936D01*
X141634104Y-96562355D01*
X141627002Y-96538944D01*
X141624000Y-96508462D01*
X141624000Y-95769538D01*
X141627002Y-95739056D01*
X141634104Y-95715645D01*
X141645639Y-95694064D01*
X141661156Y-95675156D01*
X141680064Y-95659639D01*
X141701645Y-95648104D01*
X141725056Y-95641002D01*
X141755538Y-95638000D01*
X143594462Y-95638000D01*
X143624944Y-95641002D01*
X143624944Y-95641002D01*
G37*
G36*
X146160443Y-94351519D02*
X146226627Y-94358037D01*
X146330805Y-94389639D01*
X146396467Y-94409557D01*
X146485345Y-94457064D01*
X146552991Y-94493222D01*
X146588729Y-94522552D01*
X146690186Y-94605814D01*
X146773448Y-94707271D01*
X146802778Y-94743009D01*
X146802779Y-94743011D01*
X146886443Y-94899533D01*
X146886443Y-94899534D01*
X146937963Y-95069373D01*
X146955359Y-95246000D01*
X146937963Y-95422627D01*
X146903616Y-95535853D01*
X146886443Y-95592467D01*
X146820602Y-95715645D01*
X146802778Y-95748991D01*
X146785915Y-95769538D01*
X146690186Y-95886186D01*
X146588729Y-95969448D01*
X146552991Y-95998778D01*
X146552989Y-95998779D01*
X146396467Y-96082443D01*
X146339853Y-96099616D01*
X146226627Y-96133963D01*
X146160442Y-96140482D01*
X146094260Y-96147000D01*
X146005740Y-96147000D01*
X145939558Y-96140482D01*
X145873373Y-96133963D01*
X145760147Y-96099616D01*
X145703533Y-96082443D01*
X145547011Y-95998779D01*
X145547009Y-95998778D01*
X145511271Y-95969448D01*
X145409814Y-95886186D01*
X145314085Y-95769538D01*
X145297222Y-95748991D01*
X145279398Y-95715645D01*
X145213557Y-95592467D01*
X145196384Y-95535853D01*
X145162037Y-95422627D01*
X145144641Y-95246000D01*
X145162037Y-95069373D01*
X145213557Y-94899534D01*
X145213557Y-94899533D01*
X145297221Y-94743011D01*
X145297222Y-94743009D01*
X145326552Y-94707271D01*
X145409814Y-94605814D01*
X145511271Y-94522552D01*
X145547009Y-94493222D01*
X145614655Y-94457064D01*
X145703533Y-94409557D01*
X145769195Y-94389639D01*
X145873373Y-94358037D01*
X145939557Y-94351519D01*
X146005740Y-94345000D01*
X146094260Y-94345000D01*
X146160443Y-94351519D01*
X146160443Y-94351519D01*
G37*
G36*
X125840443Y-94351519D02*
X125906627Y-94358037D01*
X126010805Y-94389639D01*
X126076467Y-94409557D01*
X126165345Y-94457064D01*
X126232991Y-94493222D01*
X126268729Y-94522552D01*
X126370186Y-94605814D01*
X126453448Y-94707271D01*
X126482778Y-94743009D01*
X126482779Y-94743011D01*
X126566443Y-94899533D01*
X126566443Y-94899534D01*
X126617963Y-95069373D01*
X126635359Y-95246000D01*
X126617963Y-95422627D01*
X126583616Y-95535853D01*
X126566443Y-95592467D01*
X126500602Y-95715645D01*
X126482778Y-95748991D01*
X126465915Y-95769538D01*
X126370186Y-95886186D01*
X126268729Y-95969448D01*
X126232991Y-95998778D01*
X126232989Y-95998779D01*
X126076467Y-96082443D01*
X126019853Y-96099616D01*
X125906627Y-96133963D01*
X125840442Y-96140482D01*
X125774260Y-96147000D01*
X125685740Y-96147000D01*
X125619558Y-96140482D01*
X125553373Y-96133963D01*
X125440147Y-96099616D01*
X125383533Y-96082443D01*
X125227011Y-95998779D01*
X125227009Y-95998778D01*
X125191271Y-95969448D01*
X125089814Y-95886186D01*
X124994085Y-95769538D01*
X124977222Y-95748991D01*
X124959398Y-95715645D01*
X124893557Y-95592467D01*
X124876384Y-95535853D01*
X124842037Y-95422627D01*
X124824641Y-95246000D01*
X124842037Y-95069373D01*
X124893557Y-94899534D01*
X124893557Y-94899533D01*
X124977221Y-94743011D01*
X124977222Y-94743009D01*
X125006552Y-94707271D01*
X125089814Y-94605814D01*
X125191271Y-94522552D01*
X125227009Y-94493222D01*
X125294655Y-94457064D01*
X125383533Y-94409557D01*
X125449195Y-94389639D01*
X125553373Y-94358037D01*
X125619557Y-94351519D01*
X125685740Y-94345000D01*
X125774260Y-94345000D01*
X125840443Y-94351519D01*
X125840443Y-94351519D01*
G37*
G36*
X143624944Y-94371002D02*
X143648355Y-94378104D01*
X143669936Y-94389639D01*
X143688844Y-94405156D01*
X143704361Y-94424064D01*
X143715896Y-94445645D01*
X143722998Y-94469056D01*
X143726000Y-94499538D01*
X143726000Y-95238462D01*
X143722998Y-95268944D01*
X143715896Y-95292355D01*
X143704361Y-95313936D01*
X143688844Y-95332844D01*
X143669936Y-95348361D01*
X143648355Y-95359896D01*
X143624944Y-95366998D01*
X143594462Y-95370000D01*
X141755538Y-95370000D01*
X141725056Y-95366998D01*
X141701645Y-95359896D01*
X141680064Y-95348361D01*
X141661156Y-95332844D01*
X141645639Y-95313936D01*
X141634104Y-95292355D01*
X141627002Y-95268944D01*
X141624000Y-95238462D01*
X141624000Y-94499538D01*
X141627002Y-94469056D01*
X141634104Y-94445645D01*
X141645639Y-94424064D01*
X141661156Y-94405156D01*
X141680064Y-94389639D01*
X141701645Y-94378104D01*
X141725056Y-94371002D01*
X141755538Y-94368000D01*
X143594462Y-94368000D01*
X143624944Y-94371002D01*
X143624944Y-94371002D01*
G37*
G36*
X130035944Y-94371002D02*
X130059355Y-94378104D01*
X130080936Y-94389639D01*
X130099844Y-94405156D01*
X130115361Y-94424064D01*
X130126896Y-94445645D01*
X130133998Y-94469056D01*
X130137000Y-94499538D01*
X130137000Y-95238462D01*
X130133998Y-95268944D01*
X130126896Y-95292355D01*
X130115361Y-95313936D01*
X130099844Y-95332844D01*
X130080936Y-95348361D01*
X130059355Y-95359896D01*
X130035944Y-95366998D01*
X130005462Y-95370000D01*
X128166538Y-95370000D01*
X128136056Y-95366998D01*
X128112645Y-95359896D01*
X128091064Y-95348361D01*
X128072156Y-95332844D01*
X128056639Y-95313936D01*
X128045104Y-95292355D01*
X128038002Y-95268944D01*
X128035000Y-95238462D01*
X128035000Y-94499538D01*
X128038002Y-94469056D01*
X128045104Y-94445645D01*
X128056639Y-94424064D01*
X128072156Y-94405156D01*
X128091064Y-94389639D01*
X128112645Y-94378104D01*
X128136056Y-94371002D01*
X128166538Y-94368000D01*
X130005462Y-94368000D01*
X130035944Y-94371002D01*
X130035944Y-94371002D01*
G37*
G36*
X133114944Y-92116002D02*
X133138355Y-92123104D01*
X133159936Y-92134639D01*
X133178844Y-92150156D01*
X133194361Y-92169064D01*
X133205896Y-92190645D01*
X133212998Y-92214056D01*
X133216000Y-92244538D01*
X133216000Y-94083462D01*
X133212998Y-94113944D01*
X133205896Y-94137355D01*
X133194361Y-94158936D01*
X133178844Y-94177844D01*
X133159936Y-94193361D01*
X133138355Y-94204896D01*
X133114944Y-94211998D01*
X133084462Y-94215000D01*
X132345538Y-94215000D01*
X132315056Y-94211998D01*
X132291645Y-94204896D01*
X132270064Y-94193361D01*
X132251156Y-94177844D01*
X132235639Y-94158936D01*
X132224104Y-94137355D01*
X132217002Y-94113944D01*
X132214000Y-94083462D01*
X132214000Y-92244538D01*
X132217002Y-92214056D01*
X132224104Y-92190645D01*
X132235639Y-92169064D01*
X132251156Y-92150156D01*
X132270064Y-92134639D01*
X132291645Y-92123104D01*
X132315056Y-92116002D01*
X132345538Y-92113000D01*
X133084462Y-92113000D01*
X133114944Y-92116002D01*
X133114944Y-92116002D01*
G37*
G36*
X131844944Y-92116002D02*
X131868355Y-92123104D01*
X131889936Y-92134639D01*
X131908844Y-92150156D01*
X131924361Y-92169064D01*
X131935896Y-92190645D01*
X131942998Y-92214056D01*
X131946000Y-92244538D01*
X131946000Y-94083462D01*
X131942998Y-94113944D01*
X131935896Y-94137355D01*
X131924361Y-94158936D01*
X131908844Y-94177844D01*
X131889936Y-94193361D01*
X131868355Y-94204896D01*
X131844944Y-94211998D01*
X131814462Y-94215000D01*
X131075538Y-94215000D01*
X131045056Y-94211998D01*
X131021645Y-94204896D01*
X131000064Y-94193361D01*
X130981156Y-94177844D01*
X130965639Y-94158936D01*
X130954104Y-94137355D01*
X130947002Y-94113944D01*
X130944000Y-94083462D01*
X130944000Y-92244538D01*
X130947002Y-92214056D01*
X130954104Y-92190645D01*
X130965639Y-92169064D01*
X130981156Y-92150156D01*
X131000064Y-92134639D01*
X131021645Y-92123104D01*
X131045056Y-92116002D01*
X131075538Y-92113000D01*
X131814462Y-92113000D01*
X131844944Y-92116002D01*
X131844944Y-92116002D01*
G37*
G36*
X134384944Y-92116002D02*
X134408355Y-92123104D01*
X134429936Y-92134639D01*
X134448844Y-92150156D01*
X134464361Y-92169064D01*
X134475896Y-92190645D01*
X134482998Y-92214056D01*
X134486000Y-92244538D01*
X134486000Y-94083462D01*
X134482998Y-94113944D01*
X134475896Y-94137355D01*
X134464361Y-94158936D01*
X134448844Y-94177844D01*
X134429936Y-94193361D01*
X134408355Y-94204896D01*
X134384944Y-94211998D01*
X134354462Y-94215000D01*
X133615538Y-94215000D01*
X133585056Y-94211998D01*
X133561645Y-94204896D01*
X133540064Y-94193361D01*
X133521156Y-94177844D01*
X133505639Y-94158936D01*
X133494104Y-94137355D01*
X133487002Y-94113944D01*
X133484000Y-94083462D01*
X133484000Y-92244538D01*
X133487002Y-92214056D01*
X133494104Y-92190645D01*
X133505639Y-92169064D01*
X133521156Y-92150156D01*
X133540064Y-92134639D01*
X133561645Y-92123104D01*
X133585056Y-92116002D01*
X133615538Y-92113000D01*
X134354462Y-92113000D01*
X134384944Y-92116002D01*
X134384944Y-92116002D01*
G37*
G36*
X135654944Y-92116002D02*
X135678355Y-92123104D01*
X135699936Y-92134639D01*
X135718844Y-92150156D01*
X135734361Y-92169064D01*
X135745896Y-92190645D01*
X135752998Y-92214056D01*
X135756000Y-92244538D01*
X135756000Y-94083462D01*
X135752998Y-94113944D01*
X135745896Y-94137355D01*
X135734361Y-94158936D01*
X135718844Y-94177844D01*
X135699936Y-94193361D01*
X135678355Y-94204896D01*
X135654944Y-94211998D01*
X135624462Y-94215000D01*
X134885538Y-94215000D01*
X134855056Y-94211998D01*
X134831645Y-94204896D01*
X134810064Y-94193361D01*
X134791156Y-94177844D01*
X134775639Y-94158936D01*
X134764104Y-94137355D01*
X134757002Y-94113944D01*
X134754000Y-94083462D01*
X134754000Y-92244538D01*
X134757002Y-92214056D01*
X134764104Y-92190645D01*
X134775639Y-92169064D01*
X134791156Y-92150156D01*
X134810064Y-92134639D01*
X134831645Y-92123104D01*
X134855056Y-92116002D01*
X134885538Y-92113000D01*
X135624462Y-92113000D01*
X135654944Y-92116002D01*
X135654944Y-92116002D01*
G37*
G36*
X136924944Y-92116002D02*
X136948355Y-92123104D01*
X136969936Y-92134639D01*
X136988844Y-92150156D01*
X137004361Y-92169064D01*
X137015896Y-92190645D01*
X137022998Y-92214056D01*
X137026000Y-92244538D01*
X137026000Y-94083462D01*
X137022998Y-94113944D01*
X137015896Y-94137355D01*
X137004361Y-94158936D01*
X136988844Y-94177844D01*
X136969936Y-94193361D01*
X136948355Y-94204896D01*
X136924944Y-94211998D01*
X136894462Y-94215000D01*
X136155538Y-94215000D01*
X136125056Y-94211998D01*
X136101645Y-94204896D01*
X136080064Y-94193361D01*
X136061156Y-94177844D01*
X136045639Y-94158936D01*
X136034104Y-94137355D01*
X136027002Y-94113944D01*
X136024000Y-94083462D01*
X136024000Y-92244538D01*
X136027002Y-92214056D01*
X136034104Y-92190645D01*
X136045639Y-92169064D01*
X136061156Y-92150156D01*
X136080064Y-92134639D01*
X136101645Y-92123104D01*
X136125056Y-92116002D01*
X136155538Y-92113000D01*
X136894462Y-92113000D01*
X136924944Y-92116002D01*
X136924944Y-92116002D01*
G37*
G36*
X138194944Y-92116002D02*
X138218355Y-92123104D01*
X138239936Y-92134639D01*
X138258844Y-92150156D01*
X138274361Y-92169064D01*
X138285896Y-92190645D01*
X138292998Y-92214056D01*
X138296000Y-92244538D01*
X138296000Y-94083462D01*
X138292998Y-94113944D01*
X138285896Y-94137355D01*
X138274361Y-94158936D01*
X138258844Y-94177844D01*
X138239936Y-94193361D01*
X138218355Y-94204896D01*
X138194944Y-94211998D01*
X138164462Y-94215000D01*
X137425538Y-94215000D01*
X137395056Y-94211998D01*
X137371645Y-94204896D01*
X137350064Y-94193361D01*
X137331156Y-94177844D01*
X137315639Y-94158936D01*
X137304104Y-94137355D01*
X137297002Y-94113944D01*
X137294000Y-94083462D01*
X137294000Y-92244538D01*
X137297002Y-92214056D01*
X137304104Y-92190645D01*
X137315639Y-92169064D01*
X137331156Y-92150156D01*
X137350064Y-92134639D01*
X137371645Y-92123104D01*
X137395056Y-92116002D01*
X137425538Y-92113000D01*
X138164462Y-92113000D01*
X138194944Y-92116002D01*
X138194944Y-92116002D01*
G37*
G36*
X139464944Y-92116002D02*
X139488355Y-92123104D01*
X139509936Y-92134639D01*
X139528844Y-92150156D01*
X139544361Y-92169064D01*
X139555896Y-92190645D01*
X139562998Y-92214056D01*
X139566000Y-92244538D01*
X139566000Y-94083462D01*
X139562998Y-94113944D01*
X139555896Y-94137355D01*
X139544361Y-94158936D01*
X139528844Y-94177844D01*
X139509936Y-94193361D01*
X139488355Y-94204896D01*
X139464944Y-94211998D01*
X139434462Y-94215000D01*
X138695538Y-94215000D01*
X138665056Y-94211998D01*
X138641645Y-94204896D01*
X138620064Y-94193361D01*
X138601156Y-94177844D01*
X138585639Y-94158936D01*
X138574104Y-94137355D01*
X138567002Y-94113944D01*
X138564000Y-94083462D01*
X138564000Y-92244538D01*
X138567002Y-92214056D01*
X138574104Y-92190645D01*
X138585639Y-92169064D01*
X138601156Y-92150156D01*
X138620064Y-92134639D01*
X138641645Y-92123104D01*
X138665056Y-92116002D01*
X138695538Y-92113000D01*
X139434462Y-92113000D01*
X139464944Y-92116002D01*
X139464944Y-92116002D01*
G37*
G36*
X140734944Y-92116002D02*
X140758355Y-92123104D01*
X140779936Y-92134639D01*
X140798844Y-92150156D01*
X140814361Y-92169064D01*
X140825896Y-92190645D01*
X140832998Y-92214056D01*
X140836000Y-92244538D01*
X140836000Y-94083462D01*
X140832998Y-94113944D01*
X140825896Y-94137355D01*
X140814361Y-94158936D01*
X140798844Y-94177844D01*
X140779936Y-94193361D01*
X140758355Y-94204896D01*
X140734944Y-94211998D01*
X140704462Y-94215000D01*
X139965538Y-94215000D01*
X139935056Y-94211998D01*
X139911645Y-94204896D01*
X139890064Y-94193361D01*
X139871156Y-94177844D01*
X139855639Y-94158936D01*
X139844104Y-94137355D01*
X139837002Y-94113944D01*
X139834000Y-94083462D01*
X139834000Y-92244538D01*
X139837002Y-92214056D01*
X139844104Y-92190645D01*
X139855639Y-92169064D01*
X139871156Y-92150156D01*
X139890064Y-92134639D01*
X139911645Y-92123104D01*
X139935056Y-92116002D01*
X139965538Y-92113000D01*
X140704462Y-92113000D01*
X140734944Y-92116002D01*
X140734944Y-92116002D01*
G37*
G36*
X125840442Y-91811518D02*
X125906627Y-91818037D01*
X126019853Y-91852384D01*
X126076467Y-91869557D01*
X126215087Y-91943652D01*
X126232991Y-91953222D01*
X126268729Y-91982552D01*
X126370186Y-92065814D01*
X126451059Y-92164360D01*
X126482778Y-92203009D01*
X126482779Y-92203011D01*
X126566443Y-92359533D01*
X126583616Y-92416147D01*
X126617963Y-92529373D01*
X126635359Y-92706000D01*
X126617963Y-92882627D01*
X126587894Y-92981750D01*
X126566443Y-93052467D01*
X126533783Y-93113569D01*
X126482778Y-93208991D01*
X126472670Y-93221307D01*
X126370186Y-93346186D01*
X126268729Y-93429448D01*
X126232991Y-93458778D01*
X126232989Y-93458779D01*
X126076467Y-93542443D01*
X126019853Y-93559616D01*
X125906627Y-93593963D01*
X125840442Y-93600482D01*
X125774260Y-93607000D01*
X125685740Y-93607000D01*
X125619557Y-93600481D01*
X125553373Y-93593963D01*
X125440147Y-93559616D01*
X125383533Y-93542443D01*
X125227011Y-93458779D01*
X125227009Y-93458778D01*
X125191271Y-93429448D01*
X125089814Y-93346186D01*
X124987330Y-93221307D01*
X124977222Y-93208991D01*
X124926217Y-93113569D01*
X124893557Y-93052467D01*
X124872106Y-92981750D01*
X124842037Y-92882627D01*
X124824641Y-92706000D01*
X124842037Y-92529373D01*
X124876384Y-92416147D01*
X124893557Y-92359533D01*
X124977221Y-92203011D01*
X124977222Y-92203009D01*
X125008941Y-92164360D01*
X125089814Y-92065814D01*
X125191271Y-91982552D01*
X125227009Y-91953222D01*
X125244913Y-91943652D01*
X125383533Y-91869557D01*
X125440147Y-91852384D01*
X125553373Y-91818037D01*
X125619558Y-91811518D01*
X125685740Y-91805000D01*
X125774260Y-91805000D01*
X125840442Y-91811518D01*
X125840442Y-91811518D01*
G37*
G36*
X146160442Y-91811518D02*
X146226627Y-91818037D01*
X146339853Y-91852384D01*
X146396467Y-91869557D01*
X146535087Y-91943652D01*
X146552991Y-91953222D01*
X146588729Y-91982552D01*
X146690186Y-92065814D01*
X146771059Y-92164360D01*
X146802778Y-92203009D01*
X146802779Y-92203011D01*
X146886443Y-92359533D01*
X146903616Y-92416147D01*
X146937963Y-92529373D01*
X146955359Y-92706000D01*
X146937963Y-92882627D01*
X146907894Y-92981750D01*
X146886443Y-93052467D01*
X146853783Y-93113569D01*
X146802778Y-93208991D01*
X146792670Y-93221307D01*
X146690186Y-93346186D01*
X146588729Y-93429448D01*
X146552991Y-93458778D01*
X146552989Y-93458779D01*
X146396467Y-93542443D01*
X146339853Y-93559616D01*
X146226627Y-93593963D01*
X146160442Y-93600482D01*
X146094260Y-93607000D01*
X146005740Y-93607000D01*
X145939557Y-93600481D01*
X145873373Y-93593963D01*
X145760147Y-93559616D01*
X145703533Y-93542443D01*
X145547011Y-93458779D01*
X145547009Y-93458778D01*
X145511271Y-93429448D01*
X145409814Y-93346186D01*
X145307330Y-93221307D01*
X145297222Y-93208991D01*
X145246217Y-93113569D01*
X145213557Y-93052467D01*
X145192106Y-92981750D01*
X145162037Y-92882627D01*
X145144641Y-92706000D01*
X145162037Y-92529373D01*
X145196384Y-92416147D01*
X145213557Y-92359533D01*
X145297221Y-92203011D01*
X145297222Y-92203009D01*
X145328941Y-92164360D01*
X145409814Y-92065814D01*
X145511271Y-91982552D01*
X145547009Y-91953222D01*
X145564913Y-91943652D01*
X145703533Y-91869557D01*
X145760147Y-91852384D01*
X145873373Y-91818037D01*
X145939557Y-91811519D01*
X146005740Y-91805000D01*
X146094260Y-91805000D01*
X146160442Y-91811518D01*
X146160442Y-91811518D01*
G37*
G36*
X144379591Y-92253085D02*
X144413569Y-92263393D01*
X144444887Y-92280133D01*
X144472339Y-92302661D01*
X144494867Y-92330113D01*
X144511607Y-92361431D01*
X144521915Y-92395409D01*
X144526000Y-92436890D01*
X144526000Y-93038110D01*
X144521915Y-93079591D01*
X144511607Y-93113569D01*
X144494867Y-93144887D01*
X144472339Y-93172339D01*
X144444887Y-93194867D01*
X144413569Y-93211607D01*
X144379591Y-93221915D01*
X144338110Y-93226000D01*
X143661890Y-93226000D01*
X143620409Y-93221915D01*
X143586431Y-93211607D01*
X143555113Y-93194867D01*
X143527661Y-93172339D01*
X143505133Y-93144887D01*
X143488393Y-93113569D01*
X143478085Y-93079591D01*
X143474000Y-93038110D01*
X143474000Y-92436890D01*
X143478085Y-92395409D01*
X143488393Y-92361431D01*
X143505133Y-92330113D01*
X143527661Y-92302661D01*
X143555113Y-92280133D01*
X143586431Y-92263393D01*
X143620409Y-92253085D01*
X143661890Y-92249000D01*
X144338110Y-92249000D01*
X144379591Y-92253085D01*
X144379591Y-92253085D01*
G37*
G36*
X142681938Y-91591716D02*
X142702556Y-91597970D01*
X142721556Y-91608126D01*
X142738208Y-91621792D01*
X142751874Y-91638444D01*
X142762030Y-91657444D01*
X142768284Y-91678062D01*
X142771000Y-91705640D01*
X142771000Y-92164360D01*
X142768284Y-92191938D01*
X142762030Y-92212556D01*
X142751874Y-92231556D01*
X142738208Y-92248208D01*
X142721556Y-92261874D01*
X142702556Y-92272030D01*
X142681938Y-92278284D01*
X142654360Y-92281000D01*
X142145640Y-92281000D01*
X142118062Y-92278284D01*
X142097444Y-92272030D01*
X142078444Y-92261874D01*
X142061792Y-92248208D01*
X142048126Y-92231556D01*
X142037970Y-92212556D01*
X142031716Y-92191938D01*
X142029000Y-92164360D01*
X142029000Y-91705640D01*
X142031716Y-91678062D01*
X142037970Y-91657444D01*
X142048126Y-91638444D01*
X142061792Y-91621792D01*
X142078444Y-91608126D01*
X142097444Y-91597970D01*
X142118062Y-91591716D01*
X142145640Y-91589000D01*
X142654360Y-91589000D01*
X142681938Y-91591716D01*
X142681938Y-91591716D01*
G37*
G36*
X144379591Y-90678085D02*
X144413569Y-90688393D01*
X144444887Y-90705133D01*
X144472339Y-90727661D01*
X144494867Y-90755113D01*
X144511607Y-90786431D01*
X144521915Y-90820409D01*
X144526000Y-90861890D01*
X144526000Y-91463110D01*
X144521915Y-91504591D01*
X144511607Y-91538569D01*
X144494867Y-91569887D01*
X144472339Y-91597339D01*
X144444887Y-91619867D01*
X144413569Y-91636607D01*
X144379591Y-91646915D01*
X144338110Y-91651000D01*
X143661890Y-91651000D01*
X143620409Y-91646915D01*
X143586431Y-91636607D01*
X143555113Y-91619867D01*
X143527661Y-91597339D01*
X143505133Y-91569887D01*
X143488393Y-91538569D01*
X143478085Y-91504591D01*
X143474000Y-91463110D01*
X143474000Y-90861890D01*
X143478085Y-90820409D01*
X143488393Y-90786431D01*
X143505133Y-90755113D01*
X143527661Y-90727661D01*
X143555113Y-90705133D01*
X143586431Y-90688393D01*
X143620409Y-90678085D01*
X143661890Y-90674000D01*
X144338110Y-90674000D01*
X144379591Y-90678085D01*
X144379591Y-90678085D01*
G37*
G36*
X142681938Y-90621716D02*
X142702556Y-90627970D01*
X142721556Y-90638126D01*
X142738208Y-90651792D01*
X142751874Y-90668444D01*
X142762030Y-90687444D01*
X142768284Y-90708062D01*
X142771000Y-90735640D01*
X142771000Y-91194360D01*
X142768284Y-91221938D01*
X142762030Y-91242556D01*
X142751874Y-91261556D01*
X142738208Y-91278208D01*
X142721556Y-91291874D01*
X142702556Y-91302030D01*
X142681938Y-91308284D01*
X142654360Y-91311000D01*
X142145640Y-91311000D01*
X142118062Y-91308284D01*
X142097444Y-91302030D01*
X142078444Y-91291874D01*
X142061792Y-91278208D01*
X142048126Y-91261556D01*
X142037970Y-91242556D01*
X142031716Y-91221938D01*
X142029000Y-91194360D01*
X142029000Y-90735640D01*
X142031716Y-90708062D01*
X142037970Y-90687444D01*
X142048126Y-90668444D01*
X142061792Y-90651792D01*
X142078444Y-90638126D01*
X142097444Y-90627970D01*
X142118062Y-90621716D01*
X142145640Y-90619000D01*
X142654360Y-90619000D01*
X142681938Y-90621716D01*
X142681938Y-90621716D01*
G37*
G36*
X140181938Y-90491716D02*
X140202556Y-90497970D01*
X140221556Y-90508126D01*
X140238208Y-90521792D01*
X140251874Y-90538444D01*
X140262030Y-90557444D01*
X140268284Y-90578062D01*
X140271000Y-90605640D01*
X140271000Y-91064360D01*
X140268284Y-91091938D01*
X140262030Y-91112556D01*
X140251874Y-91131556D01*
X140238208Y-91148208D01*
X140221556Y-91161874D01*
X140202556Y-91172030D01*
X140181938Y-91178284D01*
X140154360Y-91181000D01*
X139645640Y-91181000D01*
X139618062Y-91178284D01*
X139597444Y-91172030D01*
X139578444Y-91161874D01*
X139561792Y-91148208D01*
X139548126Y-91131556D01*
X139537970Y-91112556D01*
X139531716Y-91091938D01*
X139529000Y-91064360D01*
X139529000Y-90605640D01*
X139531716Y-90578062D01*
X139537970Y-90557444D01*
X139548126Y-90538444D01*
X139561792Y-90521792D01*
X139578444Y-90508126D01*
X139597444Y-90497970D01*
X139618062Y-90491716D01*
X139645640Y-90489000D01*
X140154360Y-90489000D01*
X140181938Y-90491716D01*
X140181938Y-90491716D01*
G37*
G36*
X141231938Y-90491716D02*
X141252556Y-90497970D01*
X141271556Y-90508126D01*
X141288208Y-90521792D01*
X141301874Y-90538444D01*
X141312030Y-90557444D01*
X141318284Y-90578062D01*
X141321000Y-90605640D01*
X141321000Y-91064360D01*
X141318284Y-91091938D01*
X141312030Y-91112556D01*
X141301874Y-91131556D01*
X141288208Y-91148208D01*
X141271556Y-91161874D01*
X141252556Y-91172030D01*
X141231938Y-91178284D01*
X141204360Y-91181000D01*
X140695640Y-91181000D01*
X140668062Y-91178284D01*
X140647444Y-91172030D01*
X140628444Y-91161874D01*
X140611792Y-91148208D01*
X140598126Y-91131556D01*
X140587970Y-91112556D01*
X140581716Y-91091938D01*
X140579000Y-91064360D01*
X140579000Y-90605640D01*
X140581716Y-90578062D01*
X140587970Y-90557444D01*
X140598126Y-90538444D01*
X140611792Y-90521792D01*
X140628444Y-90508126D01*
X140647444Y-90497970D01*
X140668062Y-90491716D01*
X140695640Y-90489000D01*
X141204360Y-90489000D01*
X141231938Y-90491716D01*
X141231938Y-90491716D01*
G37*
G36*
X138979591Y-90103085D02*
X139013569Y-90113393D01*
X139044887Y-90130133D01*
X139072339Y-90152661D01*
X139094867Y-90180113D01*
X139111607Y-90211431D01*
X139121915Y-90245409D01*
X139126000Y-90286890D01*
X139126000Y-90888110D01*
X139121915Y-90929591D01*
X139111607Y-90963569D01*
X139094867Y-90994887D01*
X139072339Y-91022339D01*
X139044887Y-91044867D01*
X139013569Y-91061607D01*
X138979591Y-91071915D01*
X138938110Y-91076000D01*
X138261890Y-91076000D01*
X138220409Y-91071915D01*
X138186431Y-91061607D01*
X138155113Y-91044867D01*
X138127661Y-91022339D01*
X138105133Y-90994887D01*
X138088393Y-90963569D01*
X138078085Y-90929591D01*
X138074000Y-90888110D01*
X138074000Y-90286890D01*
X138078085Y-90245409D01*
X138088393Y-90211431D01*
X138105133Y-90180113D01*
X138127661Y-90152661D01*
X138155113Y-90130133D01*
X138186431Y-90113393D01*
X138220409Y-90103085D01*
X138261890Y-90099000D01*
X138938110Y-90099000D01*
X138979591Y-90103085D01*
X138979591Y-90103085D01*
G37*
G36*
X137404091Y-90028085D02*
X137438069Y-90038393D01*
X137469387Y-90055133D01*
X137496839Y-90077661D01*
X137519367Y-90105113D01*
X137536107Y-90136431D01*
X137546415Y-90170409D01*
X137550500Y-90211890D01*
X137550500Y-90888110D01*
X137546415Y-90929591D01*
X137536107Y-90963569D01*
X137519367Y-90994887D01*
X137496839Y-91022339D01*
X137469387Y-91044867D01*
X137438069Y-91061607D01*
X137404091Y-91071915D01*
X137362610Y-91076000D01*
X136761390Y-91076000D01*
X136719909Y-91071915D01*
X136685931Y-91061607D01*
X136654613Y-91044867D01*
X136627161Y-91022339D01*
X136604633Y-90994887D01*
X136587893Y-90963569D01*
X136577585Y-90929591D01*
X136573500Y-90888110D01*
X136573500Y-90211890D01*
X136577585Y-90170409D01*
X136587893Y-90136431D01*
X136604633Y-90105113D01*
X136627161Y-90077661D01*
X136654613Y-90055133D01*
X136685931Y-90038393D01*
X136719909Y-90028085D01*
X136761390Y-90024000D01*
X137362610Y-90024000D01*
X137404091Y-90028085D01*
X137404091Y-90028085D01*
G37*
G36*
X135829091Y-90028085D02*
X135863069Y-90038393D01*
X135894387Y-90055133D01*
X135921839Y-90077661D01*
X135944367Y-90105113D01*
X135961107Y-90136431D01*
X135971415Y-90170409D01*
X135975500Y-90211890D01*
X135975500Y-90888110D01*
X135971415Y-90929591D01*
X135961107Y-90963569D01*
X135944367Y-90994887D01*
X135921839Y-91022339D01*
X135894387Y-91044867D01*
X135863069Y-91061607D01*
X135829091Y-91071915D01*
X135787610Y-91076000D01*
X135186390Y-91076000D01*
X135144909Y-91071915D01*
X135110931Y-91061607D01*
X135079613Y-91044867D01*
X135052161Y-91022339D01*
X135029633Y-90994887D01*
X135012893Y-90963569D01*
X135002585Y-90929591D01*
X134998500Y-90888110D01*
X134998500Y-90211890D01*
X135002585Y-90170409D01*
X135012893Y-90136431D01*
X135029633Y-90105113D01*
X135052161Y-90077661D01*
X135079613Y-90055133D01*
X135110931Y-90038393D01*
X135144909Y-90028085D01*
X135186390Y-90024000D01*
X135787610Y-90024000D01*
X135829091Y-90028085D01*
X135829091Y-90028085D01*
G37*
G36*
X125840443Y-89271519D02*
X125906627Y-89278037D01*
X126019853Y-89312384D01*
X126076467Y-89329557D01*
X126158679Y-89373501D01*
X126232991Y-89413222D01*
X126240421Y-89419320D01*
X126370186Y-89525814D01*
X126437684Y-89608062D01*
X126482778Y-89663009D01*
X126482779Y-89663011D01*
X126566443Y-89819533D01*
X126566443Y-89819534D01*
X126617963Y-89989373D01*
X126635359Y-90166000D01*
X126617963Y-90342627D01*
X126583616Y-90455853D01*
X126566443Y-90512467D01*
X126531381Y-90578062D01*
X126482778Y-90668991D01*
X126467634Y-90687444D01*
X126370186Y-90806186D01*
X126302309Y-90861890D01*
X126232991Y-90918778D01*
X126232989Y-90918779D01*
X126076467Y-91002443D01*
X126019853Y-91019616D01*
X125906627Y-91053963D01*
X125840442Y-91060482D01*
X125774260Y-91067000D01*
X125685740Y-91067000D01*
X125619558Y-91060482D01*
X125553373Y-91053963D01*
X125440147Y-91019616D01*
X125383533Y-91002443D01*
X125227011Y-90918779D01*
X125227009Y-90918778D01*
X125157691Y-90861890D01*
X125089814Y-90806186D01*
X124992366Y-90687444D01*
X124977222Y-90668991D01*
X124928619Y-90578062D01*
X124893557Y-90512467D01*
X124876384Y-90455853D01*
X124842037Y-90342627D01*
X124824641Y-90166000D01*
X124842037Y-89989373D01*
X124893557Y-89819534D01*
X124893557Y-89819533D01*
X124977221Y-89663011D01*
X124977222Y-89663009D01*
X125022316Y-89608062D01*
X125089814Y-89525814D01*
X125219579Y-89419320D01*
X125227009Y-89413222D01*
X125301321Y-89373501D01*
X125383533Y-89329557D01*
X125440147Y-89312384D01*
X125553373Y-89278037D01*
X125619557Y-89271519D01*
X125685740Y-89265000D01*
X125774260Y-89265000D01*
X125840443Y-89271519D01*
X125840443Y-89271519D01*
G37*
G36*
X146160443Y-89271519D02*
X146226627Y-89278037D01*
X146339853Y-89312384D01*
X146396467Y-89329557D01*
X146478679Y-89373501D01*
X146552991Y-89413222D01*
X146560421Y-89419320D01*
X146690186Y-89525814D01*
X146757684Y-89608062D01*
X146802778Y-89663009D01*
X146802779Y-89663011D01*
X146886443Y-89819533D01*
X146886443Y-89819534D01*
X146937963Y-89989373D01*
X146955359Y-90166000D01*
X146937963Y-90342627D01*
X146903616Y-90455853D01*
X146886443Y-90512467D01*
X146851381Y-90578062D01*
X146802778Y-90668991D01*
X146787634Y-90687444D01*
X146690186Y-90806186D01*
X146622309Y-90861890D01*
X146552991Y-90918778D01*
X146552989Y-90918779D01*
X146396467Y-91002443D01*
X146339853Y-91019616D01*
X146226627Y-91053963D01*
X146160442Y-91060482D01*
X146094260Y-91067000D01*
X146005740Y-91067000D01*
X145939558Y-91060482D01*
X145873373Y-91053963D01*
X145760147Y-91019616D01*
X145703533Y-91002443D01*
X145547011Y-90918779D01*
X145547009Y-90918778D01*
X145477691Y-90861890D01*
X145409814Y-90806186D01*
X145312366Y-90687444D01*
X145297222Y-90668991D01*
X145248619Y-90578062D01*
X145213557Y-90512467D01*
X145196384Y-90455853D01*
X145162037Y-90342627D01*
X145144641Y-90166000D01*
X145162037Y-89989373D01*
X145213557Y-89819534D01*
X145213557Y-89819533D01*
X145297221Y-89663011D01*
X145297222Y-89663009D01*
X145342316Y-89608062D01*
X145409814Y-89525814D01*
X145539579Y-89419320D01*
X145547009Y-89413222D01*
X145621321Y-89373501D01*
X145703533Y-89329557D01*
X145760147Y-89312384D01*
X145873373Y-89278037D01*
X145939557Y-89271519D01*
X146005740Y-89265000D01*
X146094260Y-89265000D01*
X146160443Y-89271519D01*
X146160443Y-89271519D01*
G37*
G36*
X133551000Y-91061000D02*
X131049000Y-91061000D01*
X131049000Y-90219000D01*
X133551000Y-90219000D01*
X133551000Y-91061000D01*
X133551000Y-91061000D01*
G37*
G36*
X129651000Y-91061000D02*
X127149000Y-91061000D01*
X127149000Y-90219000D01*
X129651000Y-90219000D01*
X129651000Y-91061000D01*
X129651000Y-91061000D01*
G37*
G36*
X140181938Y-89521716D02*
X140202556Y-89527970D01*
X140221556Y-89538126D01*
X140238208Y-89551792D01*
X140251874Y-89568444D01*
X140262030Y-89587444D01*
X140268284Y-89608062D01*
X140271000Y-89635640D01*
X140271000Y-90094360D01*
X140268284Y-90121938D01*
X140262030Y-90142556D01*
X140251874Y-90161556D01*
X140238208Y-90178208D01*
X140221556Y-90191874D01*
X140202556Y-90202030D01*
X140181938Y-90208284D01*
X140154360Y-90211000D01*
X139645640Y-90211000D01*
X139618062Y-90208284D01*
X139597444Y-90202030D01*
X139578444Y-90191874D01*
X139561792Y-90178208D01*
X139548126Y-90161556D01*
X139537970Y-90142556D01*
X139531716Y-90121938D01*
X139529000Y-90094360D01*
X139529000Y-89635640D01*
X139531716Y-89608062D01*
X139537970Y-89587444D01*
X139548126Y-89568444D01*
X139561792Y-89551792D01*
X139578444Y-89538126D01*
X139597444Y-89527970D01*
X139618062Y-89521716D01*
X139645640Y-89519000D01*
X140154360Y-89519000D01*
X140181938Y-89521716D01*
X140181938Y-89521716D01*
G37*
G36*
X141231938Y-89521716D02*
X141252556Y-89527970D01*
X141271556Y-89538126D01*
X141288208Y-89551792D01*
X141301874Y-89568444D01*
X141312030Y-89587444D01*
X141318284Y-89608062D01*
X141321000Y-89635640D01*
X141321000Y-90094360D01*
X141318284Y-90121938D01*
X141312030Y-90142556D01*
X141301874Y-90161556D01*
X141288208Y-90178208D01*
X141271556Y-90191874D01*
X141252556Y-90202030D01*
X141231938Y-90208284D01*
X141204360Y-90211000D01*
X140695640Y-90211000D01*
X140668062Y-90208284D01*
X140647444Y-90202030D01*
X140628444Y-90191874D01*
X140611792Y-90178208D01*
X140598126Y-90161556D01*
X140587970Y-90142556D01*
X140581716Y-90121938D01*
X140579000Y-90094360D01*
X140579000Y-89635640D01*
X140581716Y-89608062D01*
X140587970Y-89587444D01*
X140598126Y-89568444D01*
X140611792Y-89551792D01*
X140628444Y-89538126D01*
X140647444Y-89527970D01*
X140668062Y-89521716D01*
X140695640Y-89519000D01*
X141204360Y-89519000D01*
X141231938Y-89521716D01*
X141231938Y-89521716D01*
G37*
G36*
X133551000Y-89791000D02*
X131049000Y-89791000D01*
X131049000Y-88949000D01*
X133551000Y-88949000D01*
X133551000Y-89791000D01*
X133551000Y-89791000D01*
G37*
G36*
X129651000Y-89791000D02*
X127149000Y-89791000D01*
X127149000Y-88949000D01*
X129651000Y-88949000D01*
X129651000Y-89791000D01*
X129651000Y-89791000D01*
G37*
G36*
X137404091Y-88522185D02*
X137438069Y-88532493D01*
X137469387Y-88549233D01*
X137496839Y-88571761D01*
X137519367Y-88599213D01*
X137536107Y-88630531D01*
X137546415Y-88664509D01*
X137550500Y-88705990D01*
X137550500Y-89382210D01*
X137546415Y-89423691D01*
X137536107Y-89457669D01*
X137519367Y-89488987D01*
X137496839Y-89516439D01*
X137469387Y-89538967D01*
X137438069Y-89555707D01*
X137404091Y-89566015D01*
X137362610Y-89570100D01*
X136761390Y-89570100D01*
X136719909Y-89566015D01*
X136685931Y-89555707D01*
X136654613Y-89538967D01*
X136627161Y-89516439D01*
X136604633Y-89488987D01*
X136587893Y-89457669D01*
X136577585Y-89423691D01*
X136573500Y-89382210D01*
X136573500Y-88705990D01*
X136577585Y-88664509D01*
X136587893Y-88630531D01*
X136604633Y-88599213D01*
X136627161Y-88571761D01*
X136654613Y-88549233D01*
X136685931Y-88532493D01*
X136719909Y-88522185D01*
X136761390Y-88518100D01*
X137362610Y-88518100D01*
X137404091Y-88522185D01*
X137404091Y-88522185D01*
G37*
G36*
X135829091Y-88522185D02*
X135863069Y-88532493D01*
X135894387Y-88549233D01*
X135921839Y-88571761D01*
X135944367Y-88599213D01*
X135961107Y-88630531D01*
X135971415Y-88664509D01*
X135975500Y-88705990D01*
X135975500Y-89382210D01*
X135971415Y-89423691D01*
X135961107Y-89457669D01*
X135944367Y-89488987D01*
X135921839Y-89516439D01*
X135894387Y-89538967D01*
X135863069Y-89555707D01*
X135829091Y-89566015D01*
X135787610Y-89570100D01*
X135186390Y-89570100D01*
X135144909Y-89566015D01*
X135110931Y-89555707D01*
X135079613Y-89538967D01*
X135052161Y-89516439D01*
X135029633Y-89488987D01*
X135012893Y-89457669D01*
X135002585Y-89423691D01*
X134998500Y-89382210D01*
X134998500Y-88705990D01*
X135002585Y-88664509D01*
X135012893Y-88630531D01*
X135029633Y-88599213D01*
X135052161Y-88571761D01*
X135079613Y-88549233D01*
X135110931Y-88532493D01*
X135144909Y-88522185D01*
X135186390Y-88518100D01*
X135787610Y-88518100D01*
X135829091Y-88522185D01*
X135829091Y-88522185D01*
G37*
G36*
X138979591Y-88528085D02*
X139013569Y-88538393D01*
X139044887Y-88555133D01*
X139072339Y-88577661D01*
X139094867Y-88605113D01*
X139111607Y-88636431D01*
X139121915Y-88670409D01*
X139126000Y-88711890D01*
X139126000Y-89313110D01*
X139121915Y-89354591D01*
X139111607Y-89388569D01*
X139094867Y-89419887D01*
X139072339Y-89447339D01*
X139044887Y-89469867D01*
X139013569Y-89486607D01*
X138979591Y-89496915D01*
X138938110Y-89501000D01*
X138261890Y-89501000D01*
X138220409Y-89496915D01*
X138186431Y-89486607D01*
X138155113Y-89469867D01*
X138127661Y-89447339D01*
X138105133Y-89419887D01*
X138088393Y-89388569D01*
X138078085Y-89354591D01*
X138074000Y-89313110D01*
X138074000Y-88711890D01*
X138078085Y-88670409D01*
X138088393Y-88636431D01*
X138105133Y-88605113D01*
X138127661Y-88577661D01*
X138155113Y-88555133D01*
X138186431Y-88538393D01*
X138220409Y-88528085D01*
X138261890Y-88524000D01*
X138938110Y-88524000D01*
X138979591Y-88528085D01*
X138979591Y-88528085D01*
G37*
G36*
X142661938Y-88321716D02*
X142682556Y-88327970D01*
X142701556Y-88338126D01*
X142718208Y-88351792D01*
X142731874Y-88368444D01*
X142742030Y-88387444D01*
X142748284Y-88408062D01*
X142751000Y-88435640D01*
X142751000Y-88944360D01*
X142748284Y-88971938D01*
X142742030Y-88992556D01*
X142731874Y-89011556D01*
X142718208Y-89028208D01*
X142701556Y-89041874D01*
X142682556Y-89052030D01*
X142661938Y-89058284D01*
X142634360Y-89061000D01*
X142175640Y-89061000D01*
X142148062Y-89058284D01*
X142127444Y-89052030D01*
X142108444Y-89041874D01*
X142091792Y-89028208D01*
X142078126Y-89011556D01*
X142067970Y-88992556D01*
X142061716Y-88971938D01*
X142059000Y-88944360D01*
X142059000Y-88435640D01*
X142061716Y-88408062D01*
X142067970Y-88387444D01*
X142078126Y-88368444D01*
X142091792Y-88351792D01*
X142108444Y-88338126D01*
X142127444Y-88327970D01*
X142148062Y-88321716D01*
X142175640Y-88319000D01*
X142634360Y-88319000D01*
X142661938Y-88321716D01*
X142661938Y-88321716D01*
G37*
G36*
X141691938Y-88321716D02*
X141712556Y-88327970D01*
X141731556Y-88338126D01*
X141748208Y-88351792D01*
X141761874Y-88368444D01*
X141772030Y-88387444D01*
X141778284Y-88408062D01*
X141781000Y-88435640D01*
X141781000Y-88944360D01*
X141778284Y-88971938D01*
X141772030Y-88992556D01*
X141761874Y-89011556D01*
X141748208Y-89028208D01*
X141731556Y-89041874D01*
X141712556Y-89052030D01*
X141691938Y-89058284D01*
X141664360Y-89061000D01*
X141205640Y-89061000D01*
X141178062Y-89058284D01*
X141157444Y-89052030D01*
X141138444Y-89041874D01*
X141121792Y-89028208D01*
X141108126Y-89011556D01*
X141097970Y-88992556D01*
X141091716Y-88971938D01*
X141089000Y-88944360D01*
X141089000Y-88435640D01*
X141091716Y-88408062D01*
X141097970Y-88387444D01*
X141108126Y-88368444D01*
X141121792Y-88351792D01*
X141138444Y-88338126D01*
X141157444Y-88327970D01*
X141178062Y-88321716D01*
X141205640Y-88319000D01*
X141664360Y-88319000D01*
X141691938Y-88321716D01*
X141691938Y-88321716D01*
G37*
G36*
X144661938Y-88311716D02*
X144682556Y-88317970D01*
X144701556Y-88328126D01*
X144718208Y-88341792D01*
X144731874Y-88358444D01*
X144742030Y-88377444D01*
X144748284Y-88398062D01*
X144751000Y-88425640D01*
X144751000Y-88934360D01*
X144748284Y-88961938D01*
X144742030Y-88982556D01*
X144731874Y-89001556D01*
X144718208Y-89018208D01*
X144701556Y-89031874D01*
X144682556Y-89042030D01*
X144661938Y-89048284D01*
X144634360Y-89051000D01*
X144175640Y-89051000D01*
X144148062Y-89048284D01*
X144127444Y-89042030D01*
X144108444Y-89031874D01*
X144091792Y-89018208D01*
X144078126Y-89001556D01*
X144067970Y-88982556D01*
X144061716Y-88961938D01*
X144059000Y-88934360D01*
X144059000Y-88425640D01*
X144061716Y-88398062D01*
X144067970Y-88377444D01*
X144078126Y-88358444D01*
X144091792Y-88341792D01*
X144108444Y-88328126D01*
X144127444Y-88317970D01*
X144148062Y-88311716D01*
X144175640Y-88309000D01*
X144634360Y-88309000D01*
X144661938Y-88311716D01*
X144661938Y-88311716D01*
G37*
G36*
X143691938Y-88311716D02*
X143712556Y-88317970D01*
X143731556Y-88328126D01*
X143748208Y-88341792D01*
X143761874Y-88358444D01*
X143772030Y-88377444D01*
X143778284Y-88398062D01*
X143781000Y-88425640D01*
X143781000Y-88934360D01*
X143778284Y-88961938D01*
X143772030Y-88982556D01*
X143761874Y-89001556D01*
X143748208Y-89018208D01*
X143731556Y-89031874D01*
X143712556Y-89042030D01*
X143691938Y-89048284D01*
X143664360Y-89051000D01*
X143205640Y-89051000D01*
X143178062Y-89048284D01*
X143157444Y-89042030D01*
X143138444Y-89031874D01*
X143121792Y-89018208D01*
X143108126Y-89001556D01*
X143097970Y-88982556D01*
X143091716Y-88961938D01*
X143089000Y-88934360D01*
X143089000Y-88425640D01*
X143091716Y-88398062D01*
X143097970Y-88377444D01*
X143108126Y-88358444D01*
X143121792Y-88341792D01*
X143138444Y-88328126D01*
X143157444Y-88317970D01*
X143178062Y-88311716D01*
X143205640Y-88309000D01*
X143664360Y-88309000D01*
X143691938Y-88311716D01*
X143691938Y-88311716D01*
G37*
G36*
X146160442Y-86731518D02*
X146226627Y-86738037D01*
X146339853Y-86772384D01*
X146396467Y-86789557D01*
X146464646Y-86826000D01*
X146552991Y-86873222D01*
X146584401Y-86899000D01*
X146690186Y-86985814D01*
X146773448Y-87087271D01*
X146802778Y-87123009D01*
X146802779Y-87123011D01*
X146886443Y-87279533D01*
X146886443Y-87279534D01*
X146937963Y-87449373D01*
X146955359Y-87626000D01*
X146937963Y-87802627D01*
X146903616Y-87915853D01*
X146886443Y-87972467D01*
X146812348Y-88111087D01*
X146802778Y-88128991D01*
X146801129Y-88131000D01*
X146690186Y-88266186D01*
X146602489Y-88338156D01*
X146552991Y-88378778D01*
X146552989Y-88378779D01*
X146396467Y-88462443D01*
X146339853Y-88479616D01*
X146226627Y-88513963D01*
X146160442Y-88520482D01*
X146094260Y-88527000D01*
X146005740Y-88527000D01*
X145939558Y-88520482D01*
X145873373Y-88513963D01*
X145760147Y-88479616D01*
X145703533Y-88462443D01*
X145547011Y-88378779D01*
X145547009Y-88378778D01*
X145497511Y-88338156D01*
X145409814Y-88266186D01*
X145298871Y-88131000D01*
X145297222Y-88128991D01*
X145287652Y-88111087D01*
X145213557Y-87972467D01*
X145196384Y-87915853D01*
X145162037Y-87802627D01*
X145144641Y-87626000D01*
X145162037Y-87449373D01*
X145213557Y-87279534D01*
X145213557Y-87279533D01*
X145297221Y-87123011D01*
X145297222Y-87123009D01*
X145327067Y-87086643D01*
X145352790Y-87055299D01*
X145366403Y-87034924D01*
X145375781Y-87012285D01*
X145376927Y-87006525D01*
X145405299Y-86989520D01*
X145515599Y-86899000D01*
X145547009Y-86873222D01*
X145635354Y-86826000D01*
X145703533Y-86789557D01*
X145760147Y-86772384D01*
X145873373Y-86738037D01*
X145939558Y-86731518D01*
X146005740Y-86725000D01*
X146094260Y-86725000D01*
X146160442Y-86731518D01*
X146160442Y-86731518D01*
G37*
G36*
X125840442Y-86731518D02*
X125906627Y-86738037D01*
X126019853Y-86772384D01*
X126076467Y-86789557D01*
X126144646Y-86826000D01*
X126232991Y-86873222D01*
X126264401Y-86899000D01*
X126370186Y-86985814D01*
X126453448Y-87087271D01*
X126482778Y-87123009D01*
X126482779Y-87123011D01*
X126566443Y-87279533D01*
X126566443Y-87279534D01*
X126617963Y-87449373D01*
X126635359Y-87626000D01*
X126617963Y-87802627D01*
X126583616Y-87915853D01*
X126566443Y-87972467D01*
X126492348Y-88111087D01*
X126482778Y-88128991D01*
X126481129Y-88131000D01*
X126370186Y-88266186D01*
X126282489Y-88338156D01*
X126232991Y-88378778D01*
X126232989Y-88378779D01*
X126076467Y-88462443D01*
X126019853Y-88479616D01*
X125906627Y-88513963D01*
X125840442Y-88520482D01*
X125774260Y-88527000D01*
X125685740Y-88527000D01*
X125619558Y-88520482D01*
X125553373Y-88513963D01*
X125440147Y-88479616D01*
X125383533Y-88462443D01*
X125227011Y-88378779D01*
X125227009Y-88378778D01*
X125177511Y-88338156D01*
X125089814Y-88266186D01*
X124978871Y-88131000D01*
X124977222Y-88128991D01*
X124967652Y-88111087D01*
X124893557Y-87972467D01*
X124876384Y-87915853D01*
X124842037Y-87802627D01*
X124824641Y-87626000D01*
X124842037Y-87449373D01*
X124893557Y-87279534D01*
X124893557Y-87279533D01*
X124977221Y-87123011D01*
X124977222Y-87123009D01*
X125006552Y-87087271D01*
X125089814Y-86985814D01*
X125195599Y-86899000D01*
X125227009Y-86873222D01*
X125315354Y-86826000D01*
X125383533Y-86789557D01*
X125440147Y-86772384D01*
X125553373Y-86738037D01*
X125619558Y-86731518D01*
X125685740Y-86725000D01*
X125774260Y-86725000D01*
X125840442Y-86731518D01*
X125840442Y-86731518D01*
G37*
G36*
X133551000Y-88521000D02*
X131049000Y-88521000D01*
X131049000Y-87679000D01*
X133551000Y-87679000D01*
X133551000Y-88521000D01*
X133551000Y-88521000D01*
G37*
G36*
X129651000Y-88521000D02*
X127149000Y-88521000D01*
X127149000Y-87679000D01*
X129651000Y-87679000D01*
X129651000Y-88521000D01*
X129651000Y-88521000D01*
G37*
G36*
X137626000Y-88131000D02*
X136874000Y-88131000D01*
X136874000Y-86969000D01*
X137626000Y-86969000D01*
X137626000Y-88131000D01*
X137626000Y-88131000D01*
G37*
G36*
X135726000Y-88131000D02*
X134974000Y-88131000D01*
X134974000Y-86969000D01*
X135726000Y-86969000D01*
X135726000Y-88131000D01*
X135726000Y-88131000D01*
G37*
G36*
X143201000Y-87801000D02*
X142199000Y-87801000D01*
X142199000Y-86899000D01*
X143201000Y-86899000D01*
X143201000Y-87801000D01*
X143201000Y-87801000D01*
G37*
G36*
X141731000Y-87776000D02*
X140569000Y-87776000D01*
X140569000Y-85124000D01*
X141731000Y-85124000D01*
X141731000Y-87776000D01*
X141731000Y-87776000D01*
G37*
G36*
X139531000Y-87776000D02*
X138369000Y-87776000D01*
X138369000Y-87024000D01*
X139531000Y-87024000D01*
X139531000Y-87776000D01*
X139531000Y-87776000D01*
G37*
G36*
X133551000Y-87251000D02*
X131049000Y-87251000D01*
X131049000Y-86409000D01*
X133551000Y-86409000D01*
X133551000Y-87251000D01*
X133551000Y-87251000D01*
G37*
G36*
X129651000Y-87251000D02*
X127149000Y-87251000D01*
X127149000Y-86409000D01*
X129651000Y-86409000D01*
X129651000Y-87251000D01*
X129651000Y-87251000D01*
G37*
G36*
X145201000Y-86851000D02*
X144199000Y-86851000D01*
X144199000Y-85949000D01*
X145201000Y-85949000D01*
X145201000Y-86851000D01*
X145201000Y-86851000D01*
G37*
G36*
X146160442Y-84191518D02*
X146226627Y-84198037D01*
X146339853Y-84232384D01*
X146396467Y-84249557D01*
X146535087Y-84323652D01*
X146552991Y-84333222D01*
X146588729Y-84362552D01*
X146690186Y-84445814D01*
X146773448Y-84547271D01*
X146802778Y-84583009D01*
X146802779Y-84583011D01*
X146886443Y-84739533D01*
X146903616Y-84796147D01*
X146937963Y-84909373D01*
X146955359Y-85086000D01*
X146937963Y-85262627D01*
X146903616Y-85375853D01*
X146886443Y-85432467D01*
X146812348Y-85571087D01*
X146802778Y-85588991D01*
X146773448Y-85624729D01*
X146690186Y-85726186D01*
X146588729Y-85809448D01*
X146552991Y-85838778D01*
X146552989Y-85838779D01*
X146396467Y-85922443D01*
X146339853Y-85939616D01*
X146226627Y-85973963D01*
X146160442Y-85980482D01*
X146094260Y-85987000D01*
X146005740Y-85987000D01*
X145939558Y-85980482D01*
X145873373Y-85973963D01*
X145760147Y-85939616D01*
X145703533Y-85922443D01*
X145547011Y-85838779D01*
X145547009Y-85838778D01*
X145511271Y-85809448D01*
X145409814Y-85726186D01*
X145326552Y-85624729D01*
X145297222Y-85588991D01*
X145287652Y-85571087D01*
X145213557Y-85432467D01*
X145196384Y-85375853D01*
X145162037Y-85262627D01*
X145144641Y-85086000D01*
X145162037Y-84909373D01*
X145196384Y-84796147D01*
X145213557Y-84739533D01*
X145297221Y-84583011D01*
X145297222Y-84583009D01*
X145326552Y-84547271D01*
X145409814Y-84445814D01*
X145511271Y-84362552D01*
X145547009Y-84333222D01*
X145564913Y-84323652D01*
X145703533Y-84249557D01*
X145760147Y-84232384D01*
X145873373Y-84198037D01*
X145939558Y-84191518D01*
X146005740Y-84185000D01*
X146094260Y-84185000D01*
X146160442Y-84191518D01*
X146160442Y-84191518D01*
G37*
G36*
X125840442Y-84191518D02*
X125906627Y-84198037D01*
X126019853Y-84232384D01*
X126076467Y-84249557D01*
X126215087Y-84323652D01*
X126232991Y-84333222D01*
X126268729Y-84362552D01*
X126370186Y-84445814D01*
X126453448Y-84547271D01*
X126482778Y-84583009D01*
X126482779Y-84583011D01*
X126566443Y-84739533D01*
X126583616Y-84796147D01*
X126617963Y-84909373D01*
X126635359Y-85086000D01*
X126617963Y-85262627D01*
X126583616Y-85375853D01*
X126566443Y-85432467D01*
X126492348Y-85571087D01*
X126482778Y-85588991D01*
X126453448Y-85624729D01*
X126370186Y-85726186D01*
X126268729Y-85809448D01*
X126232991Y-85838778D01*
X126232989Y-85838779D01*
X126076467Y-85922443D01*
X126019853Y-85939616D01*
X125906627Y-85973963D01*
X125840442Y-85980482D01*
X125774260Y-85987000D01*
X125685740Y-85987000D01*
X125619558Y-85980482D01*
X125553373Y-85973963D01*
X125440147Y-85939616D01*
X125383533Y-85922443D01*
X125227011Y-85838779D01*
X125227009Y-85838778D01*
X125191271Y-85809448D01*
X125089814Y-85726186D01*
X125006552Y-85624729D01*
X124977222Y-85588991D01*
X124967652Y-85571087D01*
X124893557Y-85432467D01*
X124876384Y-85375853D01*
X124842037Y-85262627D01*
X124824641Y-85086000D01*
X124842037Y-84909373D01*
X124876384Y-84796147D01*
X124893557Y-84739533D01*
X124977221Y-84583011D01*
X124977222Y-84583009D01*
X125006552Y-84547271D01*
X125089814Y-84445814D01*
X125191271Y-84362552D01*
X125227009Y-84333222D01*
X125244913Y-84323652D01*
X125383533Y-84249557D01*
X125440147Y-84232384D01*
X125553373Y-84198037D01*
X125619558Y-84191518D01*
X125685740Y-84185000D01*
X125774260Y-84185000D01*
X125840442Y-84191518D01*
X125840442Y-84191518D01*
G37*
G36*
X129651000Y-85981000D02*
X127149000Y-85981000D01*
X127149000Y-85139000D01*
X129651000Y-85139000D01*
X129651000Y-85981000D01*
X129651000Y-85981000D01*
G37*
G36*
X133551000Y-85981000D02*
X131049000Y-85981000D01*
X131049000Y-85139000D01*
X133551000Y-85139000D01*
X133551000Y-85981000D01*
X133551000Y-85981000D01*
G37*
G36*
X137626000Y-85931000D02*
X134974000Y-85931000D01*
X134974000Y-84769000D01*
X137626000Y-84769000D01*
X137626000Y-85931000D01*
X137626000Y-85931000D01*
G37*
G36*
X143201000Y-85901000D02*
X142199000Y-85901000D01*
X142199000Y-84999000D01*
X143201000Y-84999000D01*
X143201000Y-85901000D01*
X143201000Y-85901000D01*
G37*
G36*
X139531000Y-85876000D02*
X138369000Y-85876000D01*
X138369000Y-85124000D01*
X139531000Y-85124000D01*
X139531000Y-85876000D01*
X139531000Y-85876000D01*
G37*
G36*
X130151000Y-84156000D02*
X129349000Y-84156000D01*
X129349000Y-82604000D01*
X130151000Y-82604000D01*
X130151000Y-84156000D01*
X130151000Y-84156000D01*
G37*
G36*
X128151000Y-84156000D02*
X127349000Y-84156000D01*
X127349000Y-82604000D01*
X128151000Y-82604000D01*
X128151000Y-84156000D01*
X128151000Y-84156000D01*
G37*
G36*
X136221000Y-84051000D02*
X134919000Y-84051000D01*
X134919000Y-83049000D01*
X136221000Y-83049000D01*
X136221000Y-84051000D01*
X136221000Y-84051000D01*
G37*
G36*
X146803043Y-82153122D02*
X146837390Y-82163541D01*
X146869035Y-82180456D01*
X146896777Y-82203223D01*
X146919544Y-82230965D01*
X146936459Y-82262610D01*
X146946878Y-82296957D01*
X146951000Y-82338807D01*
X146951000Y-83561193D01*
X146946878Y-83603043D01*
X146936459Y-83637390D01*
X146919544Y-83669035D01*
X146896777Y-83696777D01*
X146869035Y-83719544D01*
X146837390Y-83736459D01*
X146803043Y-83746878D01*
X146761193Y-83751000D01*
X143638807Y-83751000D01*
X143596957Y-83746878D01*
X143562610Y-83736459D01*
X143530965Y-83719544D01*
X143503223Y-83696777D01*
X143480456Y-83669035D01*
X143463541Y-83637390D01*
X143453122Y-83603043D01*
X143449000Y-83561193D01*
X143449000Y-82338807D01*
X143453122Y-82296957D01*
X143463541Y-82262610D01*
X143480456Y-82230965D01*
X143503223Y-82203223D01*
X143530965Y-82180456D01*
X143562610Y-82163541D01*
X143596957Y-82153122D01*
X143638807Y-82149000D01*
X146761193Y-82149000D01*
X146803043Y-82153122D01*
X146803043Y-82153122D01*
G37*
G36*
X125840442Y-81651518D02*
X125906627Y-81658037D01*
X126019853Y-81692384D01*
X126076467Y-81709557D01*
X126215087Y-81783652D01*
X126232991Y-81793222D01*
X126268729Y-81822552D01*
X126370186Y-81905814D01*
X126453448Y-82007271D01*
X126482778Y-82043009D01*
X126482779Y-82043011D01*
X126566443Y-82199533D01*
X126581448Y-82249000D01*
X126617963Y-82369373D01*
X126635359Y-82546000D01*
X126617963Y-82722627D01*
X126583616Y-82835853D01*
X126566443Y-82892467D01*
X126501712Y-83013569D01*
X126482778Y-83048991D01*
X126453448Y-83084729D01*
X126370186Y-83186186D01*
X126295913Y-83247139D01*
X126232991Y-83298778D01*
X126232989Y-83298779D01*
X126076467Y-83382443D01*
X126019853Y-83399616D01*
X125906627Y-83433963D01*
X125840443Y-83440481D01*
X125774260Y-83447000D01*
X125685740Y-83447000D01*
X125619557Y-83440481D01*
X125553373Y-83433963D01*
X125440147Y-83399616D01*
X125383533Y-83382443D01*
X125227011Y-83298779D01*
X125227009Y-83298778D01*
X125164087Y-83247139D01*
X125089814Y-83186186D01*
X125006552Y-83084729D01*
X124977222Y-83048991D01*
X124958288Y-83013569D01*
X124893557Y-82892467D01*
X124876384Y-82835853D01*
X124842037Y-82722627D01*
X124824641Y-82546000D01*
X124842037Y-82369373D01*
X124878552Y-82249000D01*
X124893557Y-82199533D01*
X124977221Y-82043011D01*
X124977222Y-82043009D01*
X125006552Y-82007271D01*
X125089814Y-81905814D01*
X125191271Y-81822552D01*
X125227009Y-81793222D01*
X125244913Y-81783652D01*
X125383533Y-81709557D01*
X125440147Y-81692384D01*
X125553373Y-81658037D01*
X125619558Y-81651518D01*
X125685740Y-81645000D01*
X125774260Y-81645000D01*
X125840442Y-81651518D01*
X125840442Y-81651518D01*
G37*
G36*
X132384466Y-82253565D02*
X132423137Y-82265296D01*
X132458779Y-82284348D01*
X132490017Y-82309983D01*
X132515652Y-82341221D01*
X132534704Y-82376863D01*
X132546435Y-82415534D01*
X132551000Y-82461888D01*
X132551000Y-83113112D01*
X132546435Y-83159466D01*
X132534704Y-83198137D01*
X132515652Y-83233779D01*
X132490017Y-83265017D01*
X132458779Y-83290652D01*
X132423137Y-83309704D01*
X132384466Y-83321435D01*
X132338112Y-83326000D01*
X131261888Y-83326000D01*
X131215534Y-83321435D01*
X131176863Y-83309704D01*
X131141221Y-83290652D01*
X131109983Y-83265017D01*
X131084348Y-83233779D01*
X131065296Y-83198137D01*
X131053565Y-83159466D01*
X131049000Y-83113112D01*
X131049000Y-82461888D01*
X131053565Y-82415534D01*
X131065296Y-82376863D01*
X131084348Y-82341221D01*
X131109983Y-82309983D01*
X131141221Y-82284348D01*
X131176863Y-82265296D01*
X131215534Y-82253565D01*
X131261888Y-82249000D01*
X132338112Y-82249000D01*
X132384466Y-82253565D01*
X132384466Y-82253565D01*
G37*
G36*
X133969591Y-82153085D02*
X134003569Y-82163393D01*
X134034887Y-82180133D01*
X134062339Y-82202661D01*
X134084867Y-82230113D01*
X134101607Y-82261431D01*
X134111915Y-82295409D01*
X134116000Y-82336890D01*
X134116000Y-82938110D01*
X134111915Y-82979591D01*
X134101607Y-83013569D01*
X134084867Y-83044887D01*
X134062339Y-83072339D01*
X134034887Y-83094867D01*
X134003569Y-83111607D01*
X133969591Y-83121915D01*
X133928110Y-83126000D01*
X133251890Y-83126000D01*
X133210409Y-83121915D01*
X133176431Y-83111607D01*
X133145113Y-83094867D01*
X133117661Y-83072339D01*
X133095133Y-83044887D01*
X133078393Y-83013569D01*
X133068085Y-82979591D01*
X133064000Y-82938110D01*
X133064000Y-82336890D01*
X133068085Y-82295409D01*
X133078393Y-82261431D01*
X133095133Y-82230113D01*
X133117661Y-82202661D01*
X133145113Y-82180133D01*
X133176431Y-82163393D01*
X133210409Y-82153085D01*
X133251890Y-82149000D01*
X133928110Y-82149000D01*
X133969591Y-82153085D01*
X133969591Y-82153085D01*
G37*
G36*
X133969591Y-80578085D02*
X134003569Y-80588393D01*
X134034887Y-80605133D01*
X134062339Y-80627661D01*
X134084867Y-80655113D01*
X134101607Y-80686431D01*
X134111915Y-80720409D01*
X134116000Y-80761890D01*
X134116000Y-81363110D01*
X134111915Y-81404591D01*
X134101607Y-81438569D01*
X134084867Y-81469887D01*
X134062339Y-81497339D01*
X134034887Y-81519867D01*
X134003569Y-81536607D01*
X133969591Y-81546915D01*
X133928110Y-81551000D01*
X133251890Y-81551000D01*
X133210409Y-81546915D01*
X133176431Y-81536607D01*
X133145113Y-81519867D01*
X133117661Y-81497339D01*
X133095133Y-81469887D01*
X133078393Y-81438569D01*
X133068085Y-81404591D01*
X133064000Y-81363110D01*
X133064000Y-80761890D01*
X133068085Y-80720409D01*
X133078393Y-80686431D01*
X133095133Y-80655113D01*
X133117661Y-80627661D01*
X133145113Y-80605133D01*
X133176431Y-80588393D01*
X133210409Y-80578085D01*
X133251890Y-80574000D01*
X133928110Y-80574000D01*
X133969591Y-80578085D01*
X133969591Y-80578085D01*
G37*
G36*
X132384466Y-80378565D02*
X132423137Y-80390296D01*
X132458779Y-80409348D01*
X132490017Y-80434983D01*
X132515652Y-80466221D01*
X132534704Y-80501863D01*
X132546435Y-80540534D01*
X132551000Y-80586888D01*
X132551000Y-81238112D01*
X132546435Y-81284466D01*
X132534704Y-81323137D01*
X132515652Y-81358779D01*
X132490017Y-81390017D01*
X132458779Y-81415652D01*
X132423137Y-81434704D01*
X132384466Y-81446435D01*
X132338112Y-81451000D01*
X131261888Y-81451000D01*
X131215534Y-81446435D01*
X131176863Y-81434704D01*
X131141221Y-81415652D01*
X131109983Y-81390017D01*
X131084348Y-81358779D01*
X131065296Y-81323137D01*
X131053565Y-81284466D01*
X131049000Y-81238112D01*
X131049000Y-80586888D01*
X131053565Y-80540534D01*
X131065296Y-80501863D01*
X131084348Y-80466221D01*
X131109983Y-80434983D01*
X131141221Y-80409348D01*
X131176863Y-80390296D01*
X131215534Y-80378565D01*
X131261888Y-80374000D01*
X132338112Y-80374000D01*
X132384466Y-80378565D01*
X132384466Y-80378565D01*
G37*
G36*
X141079433Y-80053686D02*
X141119281Y-80065774D01*
X141156001Y-80085401D01*
X141188186Y-80111814D01*
X141214599Y-80143999D01*
X141234226Y-80180719D01*
X141246314Y-80220567D01*
X141251000Y-80268141D01*
X141251000Y-80931859D01*
X141246314Y-80979433D01*
X141234226Y-81019281D01*
X141214599Y-81056001D01*
X141188186Y-81088186D01*
X141156001Y-81114599D01*
X141119281Y-81134226D01*
X141079433Y-81146314D01*
X141031859Y-81151000D01*
X137868141Y-81151000D01*
X137820567Y-81146314D01*
X137780719Y-81134226D01*
X137743999Y-81114599D01*
X137711814Y-81088186D01*
X137685401Y-81056001D01*
X137665774Y-81019281D01*
X137653686Y-80979433D01*
X137649000Y-80931859D01*
X137649000Y-80268141D01*
X137653686Y-80220567D01*
X137665774Y-80180719D01*
X137685401Y-80143999D01*
X137711814Y-80111814D01*
X137743999Y-80085401D01*
X137780719Y-80065774D01*
X137820567Y-80053686D01*
X137868141Y-80049000D01*
X141031859Y-80049000D01*
X141079433Y-80053686D01*
X141079433Y-80053686D01*
G37*
G36*
X125840443Y-79111519D02*
X125906627Y-79118037D01*
X125999844Y-79146314D01*
X126076467Y-79169557D01*
X126215087Y-79243652D01*
X126232991Y-79253222D01*
X126243208Y-79261607D01*
X126370186Y-79365814D01*
X126453448Y-79467271D01*
X126482778Y-79503009D01*
X126482779Y-79503011D01*
X126566443Y-79659533D01*
X126574482Y-79686036D01*
X126617963Y-79829373D01*
X126635359Y-80006000D01*
X126617963Y-80182627D01*
X126606454Y-80220567D01*
X126566443Y-80352467D01*
X126512780Y-80452861D01*
X126482778Y-80508991D01*
X126457155Y-80540212D01*
X126370186Y-80646186D01*
X126268729Y-80729448D01*
X126232991Y-80758778D01*
X126232989Y-80758779D01*
X126076467Y-80842443D01*
X126019853Y-80859616D01*
X125906627Y-80893963D01*
X125840442Y-80900482D01*
X125774260Y-80907000D01*
X125685740Y-80907000D01*
X125619558Y-80900482D01*
X125553373Y-80893963D01*
X125440147Y-80859616D01*
X125383533Y-80842443D01*
X125227011Y-80758779D01*
X125227009Y-80758778D01*
X125191271Y-80729448D01*
X125089814Y-80646186D01*
X125002845Y-80540212D01*
X124977222Y-80508991D01*
X124947220Y-80452861D01*
X124893557Y-80352467D01*
X124853546Y-80220567D01*
X124842037Y-80182627D01*
X124824641Y-80006000D01*
X124842037Y-79829373D01*
X124885518Y-79686036D01*
X124893557Y-79659533D01*
X124977221Y-79503011D01*
X124977222Y-79503009D01*
X125006552Y-79467271D01*
X125089814Y-79365814D01*
X125216792Y-79261607D01*
X125227009Y-79253222D01*
X125244913Y-79243652D01*
X125383533Y-79169557D01*
X125460156Y-79146314D01*
X125553373Y-79118037D01*
X125619557Y-79111519D01*
X125685740Y-79105000D01*
X125774260Y-79105000D01*
X125840443Y-79111519D01*
X125840443Y-79111519D01*
G37*
G36*
X136221000Y-80751000D02*
X134919000Y-80751000D01*
X134919000Y-79749000D01*
X136221000Y-79749000D01*
X136221000Y-80751000D01*
X136221000Y-80751000D01*
G37*
G36*
X133479591Y-78679285D02*
X133513569Y-78689593D01*
X133544887Y-78706333D01*
X133572339Y-78728861D01*
X133594867Y-78756313D01*
X133611607Y-78787631D01*
X133621915Y-78821609D01*
X133626000Y-78863090D01*
X133626000Y-79539310D01*
X133621915Y-79580791D01*
X133611607Y-79614769D01*
X133594867Y-79646087D01*
X133572339Y-79673539D01*
X133544887Y-79696067D01*
X133513569Y-79712807D01*
X133479591Y-79723115D01*
X133438110Y-79727200D01*
X132836890Y-79727200D01*
X132795409Y-79723115D01*
X132761431Y-79712807D01*
X132730113Y-79696067D01*
X132702661Y-79673539D01*
X132680133Y-79646087D01*
X132663393Y-79614769D01*
X132653085Y-79580791D01*
X132649000Y-79539310D01*
X132649000Y-78863090D01*
X132653085Y-78821609D01*
X132663393Y-78787631D01*
X132680133Y-78756313D01*
X132702661Y-78728861D01*
X132730113Y-78706333D01*
X132761431Y-78689593D01*
X132795409Y-78679285D01*
X132836890Y-78675200D01*
X133438110Y-78675200D01*
X133479591Y-78679285D01*
X133479591Y-78679285D01*
G37*
G36*
X131904591Y-78679285D02*
X131938569Y-78689593D01*
X131969887Y-78706333D01*
X131997339Y-78728861D01*
X132019867Y-78756313D01*
X132036607Y-78787631D01*
X132046915Y-78821609D01*
X132051000Y-78863090D01*
X132051000Y-79539310D01*
X132046915Y-79580791D01*
X132036607Y-79614769D01*
X132019867Y-79646087D01*
X131997339Y-79673539D01*
X131969887Y-79696067D01*
X131938569Y-79712807D01*
X131904591Y-79723115D01*
X131863110Y-79727200D01*
X131261890Y-79727200D01*
X131220409Y-79723115D01*
X131186431Y-79712807D01*
X131155113Y-79696067D01*
X131127661Y-79673539D01*
X131105133Y-79646087D01*
X131088393Y-79614769D01*
X131078085Y-79580791D01*
X131074000Y-79539310D01*
X131074000Y-78863090D01*
X131078085Y-78821609D01*
X131088393Y-78787631D01*
X131105133Y-78756313D01*
X131127661Y-78728861D01*
X131155113Y-78706333D01*
X131186431Y-78689593D01*
X131220409Y-78679285D01*
X131261890Y-78675200D01*
X131863110Y-78675200D01*
X131904591Y-78679285D01*
X131904591Y-78679285D01*
G37*
G36*
X136642090Y-78228085D02*
X136676068Y-78238393D01*
X136707386Y-78255133D01*
X136734838Y-78277661D01*
X136757366Y-78305113D01*
X136774106Y-78336431D01*
X136784414Y-78370409D01*
X136788499Y-78411890D01*
X136788499Y-79088110D01*
X136784414Y-79129591D01*
X136774106Y-79163569D01*
X136757366Y-79194887D01*
X136734838Y-79222339D01*
X136707386Y-79244867D01*
X136676068Y-79261607D01*
X136642090Y-79271915D01*
X136600609Y-79276000D01*
X135999389Y-79276000D01*
X135957908Y-79271915D01*
X135923930Y-79261607D01*
X135892612Y-79244867D01*
X135865160Y-79222339D01*
X135842632Y-79194887D01*
X135825892Y-79163569D01*
X135815584Y-79129591D01*
X135811499Y-79088110D01*
X135811499Y-78411890D01*
X135815584Y-78370409D01*
X135825892Y-78336431D01*
X135842632Y-78305113D01*
X135865160Y-78277661D01*
X135892612Y-78255133D01*
X135923930Y-78238393D01*
X135957908Y-78228085D01*
X135999389Y-78224000D01*
X136600609Y-78224000D01*
X136642090Y-78228085D01*
X136642090Y-78228085D01*
G37*
G36*
X135067090Y-78228085D02*
X135101068Y-78238393D01*
X135132386Y-78255133D01*
X135159838Y-78277661D01*
X135182366Y-78305113D01*
X135199106Y-78336431D01*
X135209414Y-78370409D01*
X135213499Y-78411890D01*
X135213499Y-79088110D01*
X135209414Y-79129591D01*
X135199106Y-79163569D01*
X135182366Y-79194887D01*
X135159838Y-79222339D01*
X135132386Y-79244867D01*
X135101068Y-79261607D01*
X135067090Y-79271915D01*
X135025609Y-79276000D01*
X134424389Y-79276000D01*
X134382908Y-79271915D01*
X134348930Y-79261607D01*
X134317612Y-79244867D01*
X134290160Y-79222339D01*
X134267632Y-79194887D01*
X134250892Y-79163569D01*
X134240584Y-79129591D01*
X134236499Y-79088110D01*
X134236499Y-78411890D01*
X134240584Y-78370409D01*
X134250892Y-78336431D01*
X134267632Y-78305113D01*
X134290160Y-78277661D01*
X134317612Y-78255133D01*
X134348930Y-78238393D01*
X134382908Y-78228085D01*
X134424389Y-78224000D01*
X135025609Y-78224000D01*
X135067090Y-78228085D01*
X135067090Y-78228085D01*
G37*
G36*
X141079433Y-78053686D02*
X141119281Y-78065774D01*
X141156001Y-78085401D01*
X141188186Y-78111814D01*
X141214599Y-78143999D01*
X141234226Y-78180719D01*
X141246314Y-78220567D01*
X141251000Y-78268141D01*
X141251000Y-78931859D01*
X141246314Y-78979433D01*
X141234226Y-79019281D01*
X141214599Y-79056001D01*
X141188186Y-79088186D01*
X141156001Y-79114599D01*
X141119281Y-79134226D01*
X141079433Y-79146314D01*
X141031859Y-79151000D01*
X137868141Y-79151000D01*
X137820567Y-79146314D01*
X137780719Y-79134226D01*
X137743999Y-79114599D01*
X137711814Y-79088186D01*
X137685401Y-79056001D01*
X137665774Y-79019281D01*
X137653686Y-78979433D01*
X137649000Y-78931859D01*
X137649000Y-78268141D01*
X137653686Y-78220567D01*
X137665774Y-78180719D01*
X137685401Y-78143999D01*
X137711814Y-78111814D01*
X137743999Y-78085401D01*
X137780719Y-78065774D01*
X137820567Y-78053686D01*
X137868141Y-78049000D01*
X141031859Y-78049000D01*
X141079433Y-78053686D01*
X141079433Y-78053686D01*
G37*
G36*
X128151000Y-78996000D02*
X127349000Y-78996000D01*
X127349000Y-77444000D01*
X128151000Y-77444000D01*
X128151000Y-78996000D01*
X128151000Y-78996000D01*
G37*
G36*
X130151000Y-78996000D02*
X129349000Y-78996000D01*
X129349000Y-77444000D01*
X130151000Y-77444000D01*
X130151000Y-78996000D01*
X130151000Y-78996000D01*
G37*
G36*
X125840442Y-76571518D02*
X125906627Y-76578037D01*
X126019853Y-76612384D01*
X126076467Y-76629557D01*
X126215087Y-76703652D01*
X126232991Y-76713222D01*
X126267981Y-76741938D01*
X126370186Y-76825814D01*
X126433565Y-76903043D01*
X126482778Y-76963009D01*
X126482779Y-76963011D01*
X126566443Y-77119533D01*
X126566443Y-77119534D01*
X126617963Y-77289373D01*
X126635359Y-77466000D01*
X126617963Y-77642627D01*
X126583616Y-77755853D01*
X126566443Y-77812467D01*
X126492348Y-77951087D01*
X126482778Y-77968991D01*
X126453448Y-78004729D01*
X126370186Y-78106186D01*
X126289577Y-78172339D01*
X126232991Y-78218778D01*
X126232989Y-78218779D01*
X126076467Y-78302443D01*
X126019853Y-78319616D01*
X125906627Y-78353963D01*
X125840443Y-78360481D01*
X125774260Y-78367000D01*
X125685740Y-78367000D01*
X125619557Y-78360481D01*
X125553373Y-78353963D01*
X125440147Y-78319616D01*
X125383533Y-78302443D01*
X125227011Y-78218779D01*
X125227009Y-78218778D01*
X125170423Y-78172339D01*
X125089814Y-78106186D01*
X125006552Y-78004729D01*
X124977222Y-77968991D01*
X124967652Y-77951087D01*
X124893557Y-77812467D01*
X124876384Y-77755853D01*
X124842037Y-77642627D01*
X124824641Y-77466000D01*
X124842037Y-77289373D01*
X124893557Y-77119534D01*
X124893557Y-77119533D01*
X124977221Y-76963011D01*
X124977222Y-76963009D01*
X125026435Y-76903043D01*
X125089814Y-76825814D01*
X125192019Y-76741938D01*
X125227009Y-76713222D01*
X125244913Y-76703652D01*
X125383533Y-76629557D01*
X125440147Y-76612384D01*
X125553373Y-76578037D01*
X125619558Y-76571518D01*
X125685740Y-76565000D01*
X125774260Y-76565000D01*
X125840442Y-76571518D01*
X125840442Y-76571518D01*
G37*
G36*
X131904591Y-77178085D02*
X131938569Y-77188393D01*
X131969887Y-77205133D01*
X131997339Y-77227661D01*
X132019867Y-77255113D01*
X132036607Y-77286431D01*
X132046915Y-77320409D01*
X132051000Y-77361890D01*
X132051000Y-78038110D01*
X132046915Y-78079591D01*
X132036607Y-78113569D01*
X132019867Y-78144887D01*
X131997339Y-78172339D01*
X131969887Y-78194867D01*
X131938569Y-78211607D01*
X131904591Y-78221915D01*
X131863110Y-78226000D01*
X131261890Y-78226000D01*
X131220409Y-78221915D01*
X131186431Y-78211607D01*
X131155113Y-78194867D01*
X131127661Y-78172339D01*
X131105133Y-78144887D01*
X131088393Y-78113569D01*
X131078085Y-78079591D01*
X131074000Y-78038110D01*
X131074000Y-77361890D01*
X131078085Y-77320409D01*
X131088393Y-77286431D01*
X131105133Y-77255113D01*
X131127661Y-77227661D01*
X131155113Y-77205133D01*
X131186431Y-77188393D01*
X131220409Y-77178085D01*
X131261890Y-77174000D01*
X131863110Y-77174000D01*
X131904591Y-77178085D01*
X131904591Y-77178085D01*
G37*
G36*
X133479591Y-77178085D02*
X133513569Y-77188393D01*
X133544887Y-77205133D01*
X133572339Y-77227661D01*
X133594867Y-77255113D01*
X133611607Y-77286431D01*
X133621915Y-77320409D01*
X133626000Y-77361890D01*
X133626000Y-78038110D01*
X133621915Y-78079591D01*
X133611607Y-78113569D01*
X133594867Y-78144887D01*
X133572339Y-78172339D01*
X133544887Y-78194867D01*
X133513569Y-78211607D01*
X133479591Y-78221915D01*
X133438110Y-78226000D01*
X132836890Y-78226000D01*
X132795409Y-78221915D01*
X132761431Y-78211607D01*
X132730113Y-78194867D01*
X132702661Y-78172339D01*
X132680133Y-78144887D01*
X132663393Y-78113569D01*
X132653085Y-78079591D01*
X132649000Y-78038110D01*
X132649000Y-77361890D01*
X132653085Y-77320409D01*
X132663393Y-77286431D01*
X132680133Y-77255113D01*
X132702661Y-77227661D01*
X132730113Y-77205133D01*
X132761431Y-77188393D01*
X132795409Y-77178085D01*
X132836890Y-77174000D01*
X133438110Y-77174000D01*
X133479591Y-77178085D01*
X133479591Y-77178085D01*
G37*
G36*
X136556000Y-77401000D02*
X136004000Y-77401000D01*
X136004000Y-76999000D01*
X136556000Y-76999000D01*
X136556000Y-77401000D01*
X136556000Y-77401000D01*
G37*
G36*
X135156000Y-77401000D02*
X134604000Y-77401000D01*
X134604000Y-75999000D01*
X135156000Y-75999000D01*
X135156000Y-77401000D01*
X135156000Y-77401000D01*
G37*
G36*
X146803043Y-75453122D02*
X146837390Y-75463541D01*
X146869035Y-75480456D01*
X146896777Y-75503223D01*
X146919544Y-75530965D01*
X146936459Y-75562610D01*
X146946878Y-75596957D01*
X146951000Y-75638807D01*
X146951000Y-76861193D01*
X146946878Y-76903043D01*
X146936459Y-76937390D01*
X146919544Y-76969035D01*
X146896777Y-76996777D01*
X146869035Y-77019544D01*
X146837390Y-77036459D01*
X146803043Y-77046878D01*
X146761193Y-77051000D01*
X143638807Y-77051000D01*
X143596957Y-77046878D01*
X143562610Y-77036459D01*
X143530965Y-77019544D01*
X143503223Y-76996777D01*
X143480456Y-76969035D01*
X143463541Y-76937390D01*
X143453122Y-76903043D01*
X143449000Y-76861193D01*
X143449000Y-75638807D01*
X143453122Y-75596957D01*
X143463541Y-75562610D01*
X143480456Y-75530965D01*
X143503223Y-75503223D01*
X143530965Y-75480456D01*
X143562610Y-75463541D01*
X143596957Y-75453122D01*
X143638807Y-75449000D01*
X146761193Y-75449000D01*
X146803043Y-75453122D01*
X146803043Y-75453122D01*
G37*
G36*
X127731938Y-76141716D02*
X127752556Y-76147970D01*
X127771556Y-76158126D01*
X127788208Y-76171792D01*
X127801874Y-76188444D01*
X127812030Y-76207444D01*
X127818284Y-76228062D01*
X127821000Y-76255640D01*
X127821000Y-76714360D01*
X127818284Y-76741938D01*
X127812030Y-76762556D01*
X127801874Y-76781556D01*
X127788208Y-76798208D01*
X127771556Y-76811874D01*
X127752556Y-76822030D01*
X127731938Y-76828284D01*
X127704360Y-76831000D01*
X127195640Y-76831000D01*
X127168062Y-76828284D01*
X127147444Y-76822030D01*
X127128444Y-76811874D01*
X127111792Y-76798208D01*
X127098126Y-76781556D01*
X127087970Y-76762556D01*
X127081716Y-76741938D01*
X127079000Y-76714360D01*
X127079000Y-76255640D01*
X127081716Y-76228062D01*
X127087970Y-76207444D01*
X127098126Y-76188444D01*
X127111792Y-76171792D01*
X127128444Y-76158126D01*
X127147444Y-76147970D01*
X127168062Y-76141716D01*
X127195640Y-76139000D01*
X127704360Y-76139000D01*
X127731938Y-76141716D01*
X127731938Y-76141716D01*
G37*
G36*
X129931938Y-76141716D02*
X129952556Y-76147970D01*
X129971556Y-76158126D01*
X129988208Y-76171792D01*
X130001874Y-76188444D01*
X130012030Y-76207444D01*
X130018284Y-76228062D01*
X130021000Y-76255640D01*
X130021000Y-76714360D01*
X130018284Y-76741938D01*
X130012030Y-76762556D01*
X130001874Y-76781556D01*
X129988208Y-76798208D01*
X129971556Y-76811874D01*
X129952556Y-76822030D01*
X129931938Y-76828284D01*
X129904360Y-76831000D01*
X129395640Y-76831000D01*
X129368062Y-76828284D01*
X129347444Y-76822030D01*
X129328444Y-76811874D01*
X129311792Y-76798208D01*
X129298126Y-76781556D01*
X129287970Y-76762556D01*
X129281716Y-76741938D01*
X129279000Y-76714360D01*
X129279000Y-76255640D01*
X129281716Y-76228062D01*
X129287970Y-76207444D01*
X129298126Y-76188444D01*
X129311792Y-76171792D01*
X129328444Y-76158126D01*
X129347444Y-76147970D01*
X129368062Y-76141716D01*
X129395640Y-76139000D01*
X129904360Y-76139000D01*
X129931938Y-76141716D01*
X129931938Y-76141716D01*
G37*
G36*
X128831938Y-76141716D02*
X128852556Y-76147970D01*
X128871556Y-76158126D01*
X128888208Y-76171792D01*
X128901874Y-76188444D01*
X128912030Y-76207444D01*
X128918284Y-76228062D01*
X128921000Y-76255640D01*
X128921000Y-76714360D01*
X128918284Y-76741938D01*
X128912030Y-76762556D01*
X128901874Y-76781556D01*
X128888208Y-76798208D01*
X128871556Y-76811874D01*
X128852556Y-76822030D01*
X128831938Y-76828284D01*
X128804360Y-76831000D01*
X128295640Y-76831000D01*
X128268062Y-76828284D01*
X128247444Y-76822030D01*
X128228444Y-76811874D01*
X128211792Y-76798208D01*
X128198126Y-76781556D01*
X128187970Y-76762556D01*
X128181716Y-76741938D01*
X128179000Y-76714360D01*
X128179000Y-76255640D01*
X128181716Y-76228062D01*
X128187970Y-76207444D01*
X128198126Y-76188444D01*
X128211792Y-76171792D01*
X128228444Y-76158126D01*
X128247444Y-76147970D01*
X128268062Y-76141716D01*
X128295640Y-76139000D01*
X128804360Y-76139000D01*
X128831938Y-76141716D01*
X128831938Y-76141716D01*
G37*
G36*
X131904591Y-75678085D02*
X131938569Y-75688393D01*
X131969887Y-75705133D01*
X131997339Y-75727661D01*
X132019867Y-75755113D01*
X132036607Y-75786431D01*
X132046915Y-75820409D01*
X132051000Y-75861890D01*
X132051000Y-76538110D01*
X132046915Y-76579591D01*
X132036607Y-76613569D01*
X132019867Y-76644887D01*
X131997339Y-76672339D01*
X131969887Y-76694867D01*
X131938569Y-76711607D01*
X131904591Y-76721915D01*
X131863110Y-76726000D01*
X131261890Y-76726000D01*
X131220409Y-76721915D01*
X131186431Y-76711607D01*
X131155113Y-76694867D01*
X131127661Y-76672339D01*
X131105133Y-76644887D01*
X131088393Y-76613569D01*
X131078085Y-76579591D01*
X131074000Y-76538110D01*
X131074000Y-75861890D01*
X131078085Y-75820409D01*
X131088393Y-75786431D01*
X131105133Y-75755113D01*
X131127661Y-75727661D01*
X131155113Y-75705133D01*
X131186431Y-75688393D01*
X131220409Y-75678085D01*
X131261890Y-75674000D01*
X131863110Y-75674000D01*
X131904591Y-75678085D01*
X131904591Y-75678085D01*
G37*
G36*
X133479591Y-75678085D02*
X133513569Y-75688393D01*
X133544887Y-75705133D01*
X133572339Y-75727661D01*
X133594867Y-75755113D01*
X133611607Y-75786431D01*
X133621915Y-75820409D01*
X133626000Y-75861890D01*
X133626000Y-76538110D01*
X133621915Y-76579591D01*
X133611607Y-76613569D01*
X133594867Y-76644887D01*
X133572339Y-76672339D01*
X133544887Y-76694867D01*
X133513569Y-76711607D01*
X133479591Y-76721915D01*
X133438110Y-76726000D01*
X132836890Y-76726000D01*
X132795409Y-76721915D01*
X132761431Y-76711607D01*
X132730113Y-76694867D01*
X132702661Y-76672339D01*
X132680133Y-76644887D01*
X132663393Y-76613569D01*
X132653085Y-76579591D01*
X132649000Y-76538110D01*
X132649000Y-75861890D01*
X132653085Y-75820409D01*
X132663393Y-75786431D01*
X132680133Y-75755113D01*
X132702661Y-75727661D01*
X132730113Y-75705133D01*
X132761431Y-75688393D01*
X132795409Y-75678085D01*
X132836890Y-75674000D01*
X133438110Y-75674000D01*
X133479591Y-75678085D01*
X133479591Y-75678085D01*
G37*
G36*
X136556000Y-76401000D02*
X136004000Y-76401000D01*
X136004000Y-75999000D01*
X136556000Y-75999000D01*
X136556000Y-76401000D01*
X136556000Y-76401000D01*
G37*
G36*
X129931938Y-75171716D02*
X129952556Y-75177970D01*
X129971556Y-75188126D01*
X129988208Y-75201792D01*
X130001874Y-75218444D01*
X130012030Y-75237444D01*
X130018284Y-75258062D01*
X130021000Y-75285640D01*
X130021000Y-75744360D01*
X130018284Y-75771938D01*
X130012030Y-75792556D01*
X130001874Y-75811556D01*
X129988208Y-75828208D01*
X129971556Y-75841874D01*
X129952556Y-75852030D01*
X129931938Y-75858284D01*
X129904360Y-75861000D01*
X129395640Y-75861000D01*
X129368062Y-75858284D01*
X129347444Y-75852030D01*
X129328444Y-75841874D01*
X129311792Y-75828208D01*
X129298126Y-75811556D01*
X129287970Y-75792556D01*
X129281716Y-75771938D01*
X129279000Y-75744360D01*
X129279000Y-75285640D01*
X129281716Y-75258062D01*
X129287970Y-75237444D01*
X129298126Y-75218444D01*
X129311792Y-75201792D01*
X129328444Y-75188126D01*
X129347444Y-75177970D01*
X129368062Y-75171716D01*
X129395640Y-75169000D01*
X129904360Y-75169000D01*
X129931938Y-75171716D01*
X129931938Y-75171716D01*
G37*
G36*
X128831938Y-75171716D02*
X128852556Y-75177970D01*
X128871556Y-75188126D01*
X128888208Y-75201792D01*
X128901874Y-75218444D01*
X128912030Y-75237444D01*
X128918284Y-75258062D01*
X128921000Y-75285640D01*
X128921000Y-75744360D01*
X128918284Y-75771938D01*
X128912030Y-75792556D01*
X128901874Y-75811556D01*
X128888208Y-75828208D01*
X128871556Y-75841874D01*
X128852556Y-75852030D01*
X128831938Y-75858284D01*
X128804360Y-75861000D01*
X128295640Y-75861000D01*
X128268062Y-75858284D01*
X128247444Y-75852030D01*
X128228444Y-75841874D01*
X128211792Y-75828208D01*
X128198126Y-75811556D01*
X128187970Y-75792556D01*
X128181716Y-75771938D01*
X128179000Y-75744360D01*
X128179000Y-75285640D01*
X128181716Y-75258062D01*
X128187970Y-75237444D01*
X128198126Y-75218444D01*
X128211792Y-75201792D01*
X128228444Y-75188126D01*
X128247444Y-75177970D01*
X128268062Y-75171716D01*
X128295640Y-75169000D01*
X128804360Y-75169000D01*
X128831938Y-75171716D01*
X128831938Y-75171716D01*
G37*
G36*
X127731938Y-75171716D02*
X127752556Y-75177970D01*
X127771556Y-75188126D01*
X127788208Y-75201792D01*
X127801874Y-75218444D01*
X127812030Y-75237444D01*
X127818284Y-75258062D01*
X127821000Y-75285640D01*
X127821000Y-75744360D01*
X127818284Y-75771938D01*
X127812030Y-75792556D01*
X127801874Y-75811556D01*
X127788208Y-75828208D01*
X127771556Y-75841874D01*
X127752556Y-75852030D01*
X127731938Y-75858284D01*
X127704360Y-75861000D01*
X127195640Y-75861000D01*
X127168062Y-75858284D01*
X127147444Y-75852030D01*
X127128444Y-75841874D01*
X127111792Y-75828208D01*
X127098126Y-75811556D01*
X127087970Y-75792556D01*
X127081716Y-75771938D01*
X127079000Y-75744360D01*
X127079000Y-75285640D01*
X127081716Y-75258062D01*
X127087970Y-75237444D01*
X127098126Y-75218444D01*
X127111792Y-75201792D01*
X127128444Y-75188126D01*
X127147444Y-75177970D01*
X127168062Y-75171716D01*
X127195640Y-75169000D01*
X127704360Y-75169000D01*
X127731938Y-75171716D01*
X127731938Y-75171716D01*
G37*
G36*
X125840442Y-74031518D02*
X125906627Y-74038037D01*
X126019853Y-74072384D01*
X126076467Y-74089557D01*
X126170222Y-74139671D01*
X126232991Y-74173222D01*
X126256604Y-74192601D01*
X126370186Y-74285814D01*
X126451180Y-74384507D01*
X126482778Y-74423009D01*
X126482779Y-74423011D01*
X126566443Y-74579533D01*
X126566443Y-74579534D01*
X126617963Y-74749373D01*
X126635359Y-74926000D01*
X126617963Y-75102627D01*
X126595108Y-75177970D01*
X126566443Y-75272467D01*
X126529276Y-75342000D01*
X126482778Y-75428991D01*
X126466357Y-75449000D01*
X126370186Y-75566186D01*
X126268729Y-75649448D01*
X126232991Y-75678778D01*
X126232989Y-75678779D01*
X126076467Y-75762443D01*
X126019853Y-75779616D01*
X125906627Y-75813963D01*
X125841179Y-75820409D01*
X125774260Y-75827000D01*
X125685740Y-75827000D01*
X125618821Y-75820409D01*
X125553373Y-75813963D01*
X125440147Y-75779616D01*
X125383533Y-75762443D01*
X125227011Y-75678779D01*
X125227009Y-75678778D01*
X125191271Y-75649448D01*
X125089814Y-75566186D01*
X124993643Y-75449000D01*
X124977222Y-75428991D01*
X124930724Y-75342000D01*
X124893557Y-75272467D01*
X124864892Y-75177970D01*
X124842037Y-75102627D01*
X124824641Y-74926000D01*
X124842037Y-74749373D01*
X124893557Y-74579534D01*
X124893557Y-74579533D01*
X124977221Y-74423011D01*
X124977222Y-74423009D01*
X125008820Y-74384507D01*
X125089814Y-74285814D01*
X125203396Y-74192601D01*
X125227009Y-74173222D01*
X125289778Y-74139671D01*
X125383533Y-74089557D01*
X125440147Y-74072384D01*
X125553373Y-74038037D01*
X125619558Y-74031518D01*
X125685740Y-74025000D01*
X125774260Y-74025000D01*
X125840442Y-74031518D01*
X125840442Y-74031518D01*
G37*
G36*
X133478413Y-72364525D02*
X133553456Y-72387290D01*
X133563425Y-72390314D01*
X133641774Y-72432193D01*
X133710448Y-72488552D01*
X133766807Y-72557226D01*
X133808686Y-72635575D01*
X133808687Y-72635579D01*
X133834475Y-72720587D01*
X133843182Y-72809000D01*
X133834475Y-72897413D01*
X133817455Y-72953518D01*
X133808686Y-72982425D01*
X133766807Y-73060774D01*
X133710448Y-73129448D01*
X133641774Y-73185807D01*
X133563425Y-73227686D01*
X133553456Y-73230710D01*
X133478413Y-73253475D01*
X133412158Y-73260000D01*
X133367842Y-73260000D01*
X133301587Y-73253475D01*
X133226544Y-73230710D01*
X133216575Y-73227686D01*
X133163265Y-73199191D01*
X133138225Y-73185807D01*
X133099687Y-73154179D01*
X133078571Y-73136850D01*
X133058202Y-73123239D01*
X133035563Y-73113862D01*
X133011529Y-73109081D01*
X132987025Y-73109081D01*
X132962992Y-73113861D01*
X132940352Y-73123238D01*
X132919978Y-73136852D01*
X132902650Y-73154179D01*
X132889036Y-73174553D01*
X132879659Y-73197192D01*
X132874878Y-73221226D01*
X132874878Y-73245730D01*
X132879658Y-73269763D01*
X132883157Y-73278212D01*
X132885398Y-73285599D01*
X132885399Y-73285601D01*
X132905417Y-73351593D01*
X132929772Y-73431881D01*
X132941000Y-73545882D01*
X132941000Y-74172118D01*
X132929772Y-74286119D01*
X132929771Y-74286121D01*
X132929771Y-74286122D01*
X132888247Y-74423011D01*
X132885398Y-74432401D01*
X132813341Y-74567210D01*
X132716369Y-74685369D01*
X132598209Y-74782341D01*
X132598207Y-74782342D01*
X132463398Y-74854399D01*
X132344351Y-74890511D01*
X132317118Y-74898772D01*
X132165000Y-74913754D01*
X132012881Y-74898772D01*
X131985648Y-74890511D01*
X131866601Y-74854399D01*
X131731792Y-74782342D01*
X131731790Y-74782341D01*
X131613631Y-74685369D01*
X131516659Y-74567209D01*
X131444602Y-74432400D01*
X131433223Y-74394887D01*
X131400229Y-74286121D01*
X131400228Y-74286118D01*
X131389000Y-74172117D01*
X131389000Y-73545882D01*
X131400228Y-73431881D01*
X131442660Y-73292000D01*
X131444601Y-73285601D01*
X131444602Y-73285599D01*
X131516660Y-73150790D01*
X131613632Y-73032631D01*
X131731791Y-72935659D01*
X131866600Y-72863602D01*
X131866602Y-72863601D01*
X132012879Y-72819229D01*
X132012882Y-72819228D01*
X132165000Y-72804246D01*
X132317119Y-72819228D01*
X132317122Y-72819229D01*
X132463399Y-72863601D01*
X132463401Y-72863602D01*
X132598210Y-72935659D01*
X132679114Y-73002056D01*
X132716367Y-73032629D01*
X132716370Y-73032632D01*
X132746304Y-73069105D01*
X132763631Y-73086432D01*
X132784006Y-73100046D01*
X132806645Y-73109423D01*
X132830678Y-73114203D01*
X132855183Y-73114203D01*
X132879216Y-73109422D01*
X132901855Y-73100044D01*
X132922229Y-73086430D01*
X132939556Y-73069103D01*
X132953170Y-73048728D01*
X132962547Y-73026089D01*
X132967327Y-73002056D01*
X132967327Y-72977551D01*
X132962547Y-72953524D01*
X132956167Y-72932489D01*
X132945525Y-72897411D01*
X132936818Y-72809000D01*
X132945525Y-72720587D01*
X132971313Y-72635579D01*
X132971314Y-72635575D01*
X133013193Y-72557226D01*
X133069552Y-72488552D01*
X133138226Y-72432193D01*
X133216575Y-72390314D01*
X133226544Y-72387290D01*
X133301587Y-72364525D01*
X133367842Y-72358000D01*
X133412158Y-72358000D01*
X133478413Y-72364525D01*
X133478413Y-72364525D01*
G37*
G36*
X138478413Y-72364525D02*
X138553456Y-72387290D01*
X138563425Y-72390314D01*
X138641774Y-72432193D01*
X138710448Y-72488552D01*
X138766807Y-72557226D01*
X138808686Y-72635575D01*
X138808687Y-72635579D01*
X138834475Y-72720587D01*
X138843182Y-72809000D01*
X138834475Y-72897413D01*
X138817454Y-72953521D01*
X138812673Y-72977554D01*
X138812673Y-73002058D01*
X138817453Y-73026092D01*
X138826830Y-73048731D01*
X138840444Y-73069106D01*
X138857771Y-73086433D01*
X138878146Y-73100047D01*
X138900785Y-73109424D01*
X138924818Y-73114205D01*
X138949322Y-73114205D01*
X138973356Y-73109425D01*
X138995995Y-73100048D01*
X139016370Y-73086434D01*
X139033698Y-73069106D01*
X139063632Y-73032631D01*
X139063634Y-73032629D01*
X139181791Y-72935659D01*
X139316600Y-72863602D01*
X139316602Y-72863601D01*
X139462879Y-72819229D01*
X139462882Y-72819228D01*
X139615000Y-72804246D01*
X139767119Y-72819228D01*
X139767122Y-72819229D01*
X139913399Y-72863601D01*
X139913401Y-72863602D01*
X140048210Y-72935659D01*
X140166369Y-73032631D01*
X140263341Y-73150790D01*
X140335398Y-73285599D01*
X140335399Y-73285601D01*
X140337340Y-73292000D01*
X140379772Y-73431881D01*
X140391000Y-73545882D01*
X140391000Y-74172118D01*
X140379772Y-74286119D01*
X140379771Y-74286121D01*
X140379771Y-74286122D01*
X140338247Y-74423011D01*
X140335398Y-74432401D01*
X140263341Y-74567210D01*
X140166369Y-74685369D01*
X140048209Y-74782341D01*
X140048207Y-74782342D01*
X139913398Y-74854399D01*
X139794351Y-74890511D01*
X139767118Y-74898772D01*
X139615000Y-74913754D01*
X139462881Y-74898772D01*
X139435648Y-74890511D01*
X139316601Y-74854399D01*
X139181792Y-74782342D01*
X139181790Y-74782341D01*
X139063631Y-74685369D01*
X138966659Y-74567209D01*
X138894602Y-74432400D01*
X138883223Y-74394887D01*
X138850229Y-74286121D01*
X138850228Y-74286118D01*
X138839000Y-74172117D01*
X138839000Y-73545882D01*
X138850228Y-73431881D01*
X138892660Y-73292000D01*
X138894601Y-73285601D01*
X138894602Y-73285599D01*
X138896844Y-73278208D01*
X138900345Y-73269754D01*
X138905123Y-73245721D01*
X138905121Y-73221216D01*
X138900338Y-73197183D01*
X138890959Y-73174545D01*
X138877344Y-73154172D01*
X138860015Y-73136846D01*
X138839639Y-73123234D01*
X138816999Y-73113858D01*
X138792966Y-73109080D01*
X138768461Y-73109082D01*
X138744428Y-73113865D01*
X138721790Y-73123244D01*
X138701429Y-73136850D01*
X138680313Y-73154179D01*
X138641775Y-73185807D01*
X138616735Y-73199191D01*
X138563425Y-73227686D01*
X138553456Y-73230710D01*
X138478413Y-73253475D01*
X138412158Y-73260000D01*
X138367842Y-73260000D01*
X138301587Y-73253475D01*
X138226544Y-73230710D01*
X138216575Y-73227686D01*
X138138226Y-73185807D01*
X138069552Y-73129448D01*
X138013193Y-73060774D01*
X137971314Y-72982425D01*
X137962545Y-72953518D01*
X137945525Y-72897413D01*
X137936818Y-72809000D01*
X137945525Y-72720587D01*
X137971313Y-72635579D01*
X137971314Y-72635575D01*
X138013193Y-72557226D01*
X138069552Y-72488552D01*
X138138226Y-72432193D01*
X138216575Y-72390314D01*
X138226544Y-72387290D01*
X138301587Y-72364525D01*
X138367842Y-72358000D01*
X138412158Y-72358000D01*
X138478413Y-72364525D01*
X138478413Y-72364525D01*
G37*
G36*
X145931937Y-74091716D02*
X145952555Y-74097970D01*
X145971555Y-74108126D01*
X145988207Y-74121792D01*
X146001873Y-74138444D01*
X146012029Y-74157444D01*
X146018283Y-74178062D01*
X146020999Y-74205640D01*
X146020999Y-74664360D01*
X146018283Y-74691938D01*
X146012029Y-74712556D01*
X146001873Y-74731556D01*
X145988207Y-74748208D01*
X145971555Y-74761874D01*
X145952555Y-74772030D01*
X145931937Y-74778284D01*
X145904359Y-74781000D01*
X145395639Y-74781000D01*
X145368061Y-74778284D01*
X145347443Y-74772030D01*
X145328443Y-74761874D01*
X145311791Y-74748208D01*
X145298125Y-74731556D01*
X145287969Y-74712556D01*
X145281715Y-74691938D01*
X145278999Y-74664360D01*
X145278999Y-74205640D01*
X145281715Y-74178062D01*
X145287969Y-74157444D01*
X145298125Y-74138444D01*
X145311791Y-74121792D01*
X145328443Y-74108126D01*
X145347443Y-74097970D01*
X145368061Y-74091716D01*
X145395639Y-74089000D01*
X145904359Y-74089000D01*
X145931937Y-74091716D01*
X145931937Y-74091716D01*
G37*
G36*
X144931938Y-74088616D02*
X144952556Y-74094870D01*
X144971556Y-74105026D01*
X144988208Y-74118692D01*
X145001874Y-74135344D01*
X145012030Y-74154344D01*
X145018284Y-74174962D01*
X145021000Y-74202540D01*
X145021000Y-74661260D01*
X145018284Y-74688838D01*
X145012030Y-74709456D01*
X145001874Y-74728456D01*
X144988208Y-74745108D01*
X144971556Y-74758774D01*
X144952556Y-74768930D01*
X144931938Y-74775184D01*
X144904360Y-74777900D01*
X144395640Y-74777900D01*
X144368062Y-74775184D01*
X144347444Y-74768930D01*
X144328444Y-74758774D01*
X144311792Y-74745108D01*
X144298126Y-74728456D01*
X144287970Y-74709456D01*
X144281716Y-74688838D01*
X144279000Y-74661260D01*
X144279000Y-74202540D01*
X144281716Y-74174962D01*
X144287970Y-74154344D01*
X144298126Y-74135344D01*
X144311792Y-74118692D01*
X144328444Y-74105026D01*
X144347444Y-74094870D01*
X144368062Y-74088616D01*
X144395640Y-74085900D01*
X144904360Y-74085900D01*
X144931938Y-74088616D01*
X144931938Y-74088616D01*
G37*
G36*
X137466000Y-74610000D02*
X134314000Y-74610000D01*
X134314000Y-73208000D01*
X137466000Y-73208000D01*
X137466000Y-74610000D01*
X137466000Y-74610000D01*
G37*
G36*
X142104591Y-73428085D02*
X142138569Y-73438393D01*
X142169887Y-73455133D01*
X142197339Y-73477661D01*
X142219867Y-73505113D01*
X142236607Y-73536431D01*
X142246915Y-73570409D01*
X142251000Y-73611890D01*
X142251000Y-74288110D01*
X142246915Y-74329591D01*
X142236607Y-74363569D01*
X142219867Y-74394887D01*
X142197339Y-74422339D01*
X142169887Y-74444867D01*
X142138569Y-74461607D01*
X142104591Y-74471915D01*
X142063110Y-74476000D01*
X141461890Y-74476000D01*
X141420409Y-74471915D01*
X141386431Y-74461607D01*
X141355113Y-74444867D01*
X141327661Y-74422339D01*
X141305133Y-74394887D01*
X141288393Y-74363569D01*
X141278085Y-74329591D01*
X141274000Y-74288110D01*
X141274000Y-73611890D01*
X141278085Y-73570409D01*
X141288393Y-73536431D01*
X141305133Y-73505113D01*
X141327661Y-73477661D01*
X141355113Y-73455133D01*
X141386431Y-73438393D01*
X141420409Y-73428085D01*
X141461890Y-73424000D01*
X142063110Y-73424000D01*
X142104591Y-73428085D01*
X142104591Y-73428085D01*
G37*
G36*
X143679591Y-73428085D02*
X143713569Y-73438393D01*
X143744887Y-73455133D01*
X143772339Y-73477661D01*
X143794867Y-73505113D01*
X143811607Y-73536431D01*
X143821915Y-73570409D01*
X143826000Y-73611890D01*
X143826000Y-74288110D01*
X143821915Y-74329591D01*
X143811607Y-74363569D01*
X143794867Y-74394887D01*
X143772339Y-74422339D01*
X143744887Y-74444867D01*
X143713569Y-74461607D01*
X143679591Y-74471915D01*
X143638110Y-74476000D01*
X143036890Y-74476000D01*
X142995409Y-74471915D01*
X142961431Y-74461607D01*
X142930113Y-74444867D01*
X142902661Y-74422339D01*
X142880133Y-74394887D01*
X142863393Y-74363569D01*
X142853085Y-74329591D01*
X142849000Y-74288110D01*
X142849000Y-73611890D01*
X142853085Y-73570409D01*
X142863393Y-73536431D01*
X142880133Y-73505113D01*
X142902661Y-73477661D01*
X142930113Y-73455133D01*
X142961431Y-73438393D01*
X142995409Y-73428085D01*
X143036890Y-73424000D01*
X143638110Y-73424000D01*
X143679591Y-73428085D01*
X143679591Y-73428085D01*
G37*
G36*
X130313991Y-73341285D02*
X130347969Y-73351593D01*
X130379287Y-73368333D01*
X130406739Y-73390861D01*
X130429267Y-73418313D01*
X130446007Y-73449631D01*
X130456315Y-73483609D01*
X130460400Y-73525090D01*
X130460400Y-74201310D01*
X130456315Y-74242791D01*
X130446007Y-74276769D01*
X130429267Y-74308087D01*
X130406739Y-74335539D01*
X130379287Y-74358067D01*
X130347969Y-74374807D01*
X130313991Y-74385115D01*
X130272510Y-74389200D01*
X129671290Y-74389200D01*
X129629809Y-74385115D01*
X129595831Y-74374807D01*
X129564513Y-74358067D01*
X129537061Y-74335539D01*
X129514533Y-74308087D01*
X129497793Y-74276769D01*
X129487485Y-74242791D01*
X129483400Y-74201310D01*
X129483400Y-73525090D01*
X129487485Y-73483609D01*
X129497793Y-73449631D01*
X129514533Y-73418313D01*
X129537061Y-73390861D01*
X129564513Y-73368333D01*
X129595831Y-73351593D01*
X129629809Y-73341285D01*
X129671290Y-73337200D01*
X130272510Y-73337200D01*
X130313991Y-73341285D01*
X130313991Y-73341285D01*
G37*
G36*
X128738991Y-73341285D02*
X128772969Y-73351593D01*
X128804287Y-73368333D01*
X128831739Y-73390861D01*
X128854267Y-73418313D01*
X128871007Y-73449631D01*
X128881315Y-73483609D01*
X128885400Y-73525090D01*
X128885400Y-74201310D01*
X128881315Y-74242791D01*
X128871007Y-74276769D01*
X128854267Y-74308087D01*
X128831739Y-74335539D01*
X128804287Y-74358067D01*
X128772969Y-74374807D01*
X128738991Y-74385115D01*
X128697510Y-74389200D01*
X128096290Y-74389200D01*
X128054809Y-74385115D01*
X128020831Y-74374807D01*
X127989513Y-74358067D01*
X127962061Y-74335539D01*
X127939533Y-74308087D01*
X127922793Y-74276769D01*
X127912485Y-74242791D01*
X127908400Y-74201310D01*
X127908400Y-73525090D01*
X127912485Y-73483609D01*
X127922793Y-73449631D01*
X127939533Y-73418313D01*
X127962061Y-73390861D01*
X127989513Y-73368333D01*
X128020831Y-73351593D01*
X128054809Y-73341285D01*
X128096290Y-73337200D01*
X128697510Y-73337200D01*
X128738991Y-73341285D01*
X128738991Y-73341285D01*
G37*
G36*
X145931937Y-73121716D02*
X145952555Y-73127970D01*
X145971555Y-73138126D01*
X145988207Y-73151792D01*
X146001873Y-73168444D01*
X146012029Y-73187444D01*
X146018283Y-73208062D01*
X146020999Y-73235640D01*
X146020999Y-73694360D01*
X146018283Y-73721938D01*
X146012029Y-73742556D01*
X146001873Y-73761556D01*
X145988207Y-73778208D01*
X145971555Y-73791874D01*
X145952555Y-73802030D01*
X145931937Y-73808284D01*
X145904359Y-73811000D01*
X145395639Y-73811000D01*
X145368061Y-73808284D01*
X145347443Y-73802030D01*
X145328443Y-73791874D01*
X145311791Y-73778208D01*
X145298125Y-73761556D01*
X145287969Y-73742556D01*
X145281715Y-73721938D01*
X145278999Y-73694360D01*
X145278999Y-73235640D01*
X145281715Y-73208062D01*
X145287969Y-73187444D01*
X145298125Y-73168444D01*
X145311791Y-73151792D01*
X145328443Y-73138126D01*
X145347443Y-73127970D01*
X145368061Y-73121716D01*
X145395639Y-73119000D01*
X145904359Y-73119000D01*
X145931937Y-73121716D01*
X145931937Y-73121716D01*
G37*
G36*
X144931938Y-73118616D02*
X144952556Y-73124870D01*
X144971556Y-73135026D01*
X144988208Y-73148692D01*
X145001874Y-73165344D01*
X145012030Y-73184344D01*
X145018284Y-73204962D01*
X145021000Y-73232540D01*
X145021000Y-73691260D01*
X145018284Y-73718838D01*
X145012030Y-73739456D01*
X145001874Y-73758456D01*
X144988208Y-73775108D01*
X144971556Y-73788774D01*
X144952556Y-73798930D01*
X144931938Y-73805184D01*
X144904360Y-73807900D01*
X144395640Y-73807900D01*
X144368062Y-73805184D01*
X144347444Y-73798930D01*
X144328444Y-73788774D01*
X144311792Y-73775108D01*
X144298126Y-73758456D01*
X144287970Y-73739456D01*
X144281716Y-73718838D01*
X144279000Y-73691260D01*
X144279000Y-73232540D01*
X144281716Y-73204962D01*
X144287970Y-73184344D01*
X144298126Y-73165344D01*
X144311792Y-73148692D01*
X144328444Y-73135026D01*
X144347444Y-73124870D01*
X144368062Y-73118616D01*
X144395640Y-73115900D01*
X144904360Y-73115900D01*
X144931938Y-73118616D01*
X144931938Y-73118616D01*
G37*
G36*
X145257933Y-69540466D02*
X145556120Y-69663979D01*
X145824486Y-69843296D01*
X146052704Y-70071514D01*
X146232021Y-70339880D01*
X146355534Y-70638067D01*
X146418500Y-70954620D01*
X146418500Y-71277380D01*
X146355534Y-71593933D01*
X146232021Y-71892120D01*
X146052704Y-72160486D01*
X145824486Y-72388704D01*
X145556120Y-72568021D01*
X145257933Y-72691534D01*
X144941380Y-72754500D01*
X144618620Y-72754500D01*
X144302067Y-72691534D01*
X144003880Y-72568021D01*
X143735514Y-72388704D01*
X143507296Y-72160486D01*
X143327979Y-71892120D01*
X143204466Y-71593933D01*
X143141500Y-71277380D01*
X143141500Y-70954620D01*
X143204466Y-70638067D01*
X143327979Y-70339880D01*
X143507296Y-70071514D01*
X143735514Y-69843296D01*
X144003880Y-69663979D01*
X144302067Y-69540466D01*
X144618620Y-69477500D01*
X144941380Y-69477500D01*
X145257933Y-69540466D01*
X145257933Y-69540466D01*
G37*
G36*
X127477933Y-69540466D02*
X127776120Y-69663979D01*
X128044486Y-69843296D01*
X128272704Y-70071514D01*
X128452021Y-70339880D01*
X128575534Y-70638067D01*
X128638500Y-70954620D01*
X128638500Y-71277380D01*
X128575534Y-71593933D01*
X128452021Y-71892120D01*
X128272704Y-72160486D01*
X128044486Y-72388704D01*
X127776120Y-72568021D01*
X127477933Y-72691534D01*
X127161380Y-72754500D01*
X126838620Y-72754500D01*
X126522067Y-72691534D01*
X126223880Y-72568021D01*
X125955514Y-72388704D01*
X125727296Y-72160486D01*
X125547979Y-71892120D01*
X125424466Y-71593933D01*
X125361500Y-71277380D01*
X125361500Y-70954620D01*
X125424466Y-70638067D01*
X125547979Y-70339880D01*
X125727296Y-70071514D01*
X125955514Y-69843296D01*
X126223880Y-69663979D01*
X126522067Y-69540466D01*
X126838620Y-69477500D01*
X127161380Y-69477500D01*
X127477933Y-69540466D01*
X127477933Y-69540466D01*
G37*
G36*
X130300591Y-71550085D02*
X130334569Y-71560393D01*
X130365887Y-71577133D01*
X130393339Y-71599661D01*
X130415867Y-71627113D01*
X130432607Y-71658431D01*
X130442915Y-71692409D01*
X130447000Y-71733890D01*
X130447000Y-72335110D01*
X130442915Y-72376591D01*
X130432607Y-72410569D01*
X130415867Y-72441887D01*
X130393339Y-72469339D01*
X130365887Y-72491867D01*
X130334569Y-72508607D01*
X130300591Y-72518915D01*
X130259110Y-72523000D01*
X129582890Y-72523000D01*
X129541409Y-72518915D01*
X129507431Y-72508607D01*
X129476113Y-72491867D01*
X129448661Y-72469339D01*
X129426133Y-72441887D01*
X129409393Y-72410569D01*
X129399085Y-72376591D01*
X129395000Y-72335110D01*
X129395000Y-71733890D01*
X129399085Y-71692409D01*
X129409393Y-71658431D01*
X129426133Y-71627113D01*
X129448661Y-71599661D01*
X129476113Y-71577133D01*
X129507431Y-71560393D01*
X129541409Y-71550085D01*
X129582890Y-71546000D01*
X130259110Y-71546000D01*
X130300591Y-71550085D01*
X130300591Y-71550085D01*
G37*
G36*
X142238591Y-71423085D02*
X142272569Y-71433393D01*
X142303887Y-71450133D01*
X142331339Y-71472661D01*
X142353867Y-71500113D01*
X142370607Y-71531431D01*
X142380915Y-71565409D01*
X142385000Y-71606890D01*
X142385000Y-72208110D01*
X142380915Y-72249591D01*
X142370607Y-72283569D01*
X142353867Y-72314887D01*
X142331339Y-72342339D01*
X142303887Y-72364867D01*
X142272569Y-72381607D01*
X142238591Y-72391915D01*
X142197110Y-72396000D01*
X141520890Y-72396000D01*
X141479409Y-72391915D01*
X141445431Y-72381607D01*
X141414113Y-72364867D01*
X141386661Y-72342339D01*
X141364133Y-72314887D01*
X141347393Y-72283569D01*
X141337085Y-72249591D01*
X141333000Y-72208110D01*
X141333000Y-71606890D01*
X141337085Y-71565409D01*
X141347393Y-71531431D01*
X141364133Y-71500113D01*
X141386661Y-71472661D01*
X141414113Y-71450133D01*
X141445431Y-71433393D01*
X141479409Y-71423085D01*
X141520890Y-71419000D01*
X142197110Y-71419000D01*
X142238591Y-71423085D01*
X142238591Y-71423085D01*
G37*
G36*
X132137714Y-69117058D02*
X132137717Y-69117059D01*
X132255719Y-69152854D01*
X132255721Y-69152855D01*
X132364471Y-69210983D01*
X132459790Y-69289210D01*
X132538017Y-69384529D01*
X132538018Y-69384531D01*
X132596146Y-69493281D01*
X132625278Y-69589317D01*
X132631942Y-69611286D01*
X132641000Y-69703253D01*
X132641000Y-70414747D01*
X132631942Y-70506714D01*
X132596145Y-70624721D01*
X132538017Y-70733471D01*
X132459793Y-70828787D01*
X132459791Y-70828788D01*
X132459790Y-70828790D01*
X132364468Y-70907018D01*
X132255718Y-70965146D01*
X132159682Y-70994278D01*
X132137713Y-71000942D01*
X132015000Y-71013028D01*
X131892286Y-71000942D01*
X131870317Y-70994278D01*
X131774281Y-70965146D01*
X131742203Y-70948000D01*
X131665529Y-70907017D01*
X131570213Y-70828793D01*
X131570212Y-70828791D01*
X131570210Y-70828790D01*
X131491982Y-70733468D01*
X131433854Y-70624718D01*
X131398059Y-70506716D01*
X131398058Y-70506713D01*
X131389000Y-70414746D01*
X131389000Y-69703253D01*
X131398058Y-69611286D01*
X131433854Y-69493281D01*
X131442289Y-69477500D01*
X131491983Y-69384531D01*
X131570211Y-69289210D01*
X131665530Y-69210983D01*
X131774280Y-69152855D01*
X131774282Y-69152854D01*
X131892284Y-69117059D01*
X131892287Y-69117058D01*
X132015000Y-69104972D01*
X132137714Y-69117058D01*
X132137714Y-69117058D01*
G37*
G36*
X139887714Y-69117058D02*
X139887717Y-69117059D01*
X140005719Y-69152854D01*
X140005721Y-69152855D01*
X140114471Y-69210983D01*
X140209790Y-69289210D01*
X140288017Y-69384529D01*
X140288018Y-69384531D01*
X140346146Y-69493281D01*
X140375278Y-69589317D01*
X140381942Y-69611286D01*
X140391000Y-69703253D01*
X140391000Y-70414747D01*
X140381942Y-70506714D01*
X140346145Y-70624721D01*
X140288017Y-70733471D01*
X140209793Y-70828787D01*
X140209791Y-70828788D01*
X140209790Y-70828790D01*
X140114468Y-70907018D01*
X140005718Y-70965146D01*
X139909682Y-70994278D01*
X139887713Y-71000942D01*
X139765000Y-71013028D01*
X139642286Y-71000942D01*
X139620317Y-70994278D01*
X139524281Y-70965146D01*
X139492203Y-70948000D01*
X139415529Y-70907017D01*
X139320213Y-70828793D01*
X139320212Y-70828791D01*
X139320210Y-70828790D01*
X139241982Y-70733468D01*
X139183854Y-70624718D01*
X139148059Y-70506716D01*
X139148058Y-70506713D01*
X139139000Y-70414746D01*
X139139000Y-69703253D01*
X139148058Y-69611286D01*
X139183854Y-69493281D01*
X139192289Y-69477500D01*
X139241983Y-69384531D01*
X139320211Y-69289210D01*
X139415530Y-69210983D01*
X139524280Y-69152855D01*
X139524282Y-69152854D01*
X139642284Y-69117059D01*
X139642287Y-69117058D01*
X139765000Y-69104972D01*
X139887714Y-69117058D01*
X139887714Y-69117058D01*
G37*
G36*
X130300591Y-69975085D02*
X130334569Y-69985393D01*
X130365887Y-70002133D01*
X130393339Y-70024661D01*
X130415867Y-70052113D01*
X130432607Y-70083431D01*
X130442915Y-70117409D01*
X130447000Y-70158890D01*
X130447000Y-70760110D01*
X130442915Y-70801591D01*
X130432607Y-70835569D01*
X130415867Y-70866887D01*
X130393339Y-70894339D01*
X130365887Y-70916867D01*
X130334569Y-70933607D01*
X130300591Y-70943915D01*
X130259110Y-70948000D01*
X129582890Y-70948000D01*
X129541409Y-70943915D01*
X129507431Y-70933607D01*
X129476113Y-70916867D01*
X129448661Y-70894339D01*
X129426133Y-70866887D01*
X129409393Y-70835569D01*
X129399085Y-70801591D01*
X129395000Y-70760110D01*
X129395000Y-70158890D01*
X129399085Y-70117409D01*
X129409393Y-70083431D01*
X129426133Y-70052113D01*
X129448661Y-70024661D01*
X129476113Y-70002133D01*
X129507431Y-69985393D01*
X129541409Y-69975085D01*
X129582890Y-69971000D01*
X130259110Y-69971000D01*
X130300591Y-69975085D01*
X130300591Y-69975085D01*
G37*
G36*
X142238591Y-69848085D02*
X142272569Y-69858393D01*
X142303887Y-69875133D01*
X142331339Y-69897661D01*
X142353867Y-69925113D01*
X142370607Y-69956431D01*
X142380915Y-69990409D01*
X142385000Y-70031890D01*
X142385000Y-70633110D01*
X142380915Y-70674591D01*
X142370607Y-70708569D01*
X142353867Y-70739887D01*
X142331339Y-70767339D01*
X142303887Y-70789867D01*
X142272569Y-70806607D01*
X142238591Y-70816915D01*
X142197110Y-70821000D01*
X141520890Y-70821000D01*
X141479409Y-70816915D01*
X141445431Y-70806607D01*
X141414113Y-70789867D01*
X141386661Y-70767339D01*
X141364133Y-70739887D01*
X141347393Y-70708569D01*
X141337085Y-70674591D01*
X141333000Y-70633110D01*
X141333000Y-70031890D01*
X141337085Y-69990409D01*
X141347393Y-69956431D01*
X141364133Y-69925113D01*
X141386661Y-69897661D01*
X141414113Y-69875133D01*
X141445431Y-69858393D01*
X141479409Y-69848085D01*
X141520890Y-69844000D01*
X142197110Y-69844000D01*
X142238591Y-69848085D01*
X142238591Y-69848085D01*
G37*
M02*
